  0
SECTION
  2
HEADER
  9
$ANGBASE
  50
0.0
  9
$ANGDIR
  70
1
  9
$MEASUREMENT
  70
0
  0
ENDSEC
  0
SECTION
  2
TABLES
  0
TABLE
  2
LTYPE
  70
4
  0
LTYPE
  5
40F
  2
CONTINUOUS
  70
0
  3
Solid line
  72
65
  73
0
  40
0.0
  0
LTYPE
  5
410
  2
DASHDOT
 70
0
  3
Dash Dot ____ _ ____ _
 72
65
 73
4
 40
2.0
 49
1.25
 49
-0.25
 49
0.25
 49
-0.25
  0
LTYPE
  5
411
  2
DASHED
 70
0
  3
Dashed __ __ __ __ __
 72
65
 73
2
 40
0.75
 49
0.5
 49
-0.25
  0
LTYPE
  5
43B
  2
DOTTED
 70
0
  3
Dotted .  .  .  .
 72
65
 73
2
 40
0.2
 49
0.0
 49
-0.2
  0
ENDTAB
  0
TABLE
  2
STYLE
  70
4
  0
STYLE
  2
KICAD
  70
0
  40
0
  41
1
  42
1
  50
0
  71
0
  3
isocp.shx
  0
STYLE
  2
KICADB
  70
0
  40
0
  41
1
  42
1
  50
0
  71
0
  3
isocp.shx
  0
STYLE
  2
KICADI
  70
0
  40
0
  41
1
  42
1
  50
15
  71
0
  3
isocp.shx
  0
STYLE
  2
KICADBI
  70
0
  40
0
  41
1
  42
1
  50
15
  71
0
  3
isocp.shx
  0
ENDTAB
  0
TABLE
  2
LAYER
  70
1
  0
LAYER
  2
BLACK
  70
0
  62
7
  6
CONTINUOUS
  0
ENDTAB
  0
ENDSEC
  0
SECTION
  2
ENTITIES
0
LINE
8
BLACK
6
CONTINUOUS
10
0.4203117716535433
20
0.5195465748031496
11
0.4335690157480315
21
0.5165206692913386
0
LINE
8
BLACK
6
CONTINUOUS
10
0.4335690157480315
20
0.5165206692913386
11
0.4464041338582677
21
0.5120294881889763
0
LINE
8
BLACK
6
CONTINUOUS
10
0.4464041338582677
20
0.5120294881889763
11
0.4586556692913386
21
0.5061294488188977
0
LINE
8
BLACK
6
CONTINUOUS
10
0.4586556692913386
20
0.5061294488188977
11
0.4701696062992126
21
0.4988947637795276
0
LINE
8
BLACK
6
CONTINUOUS
10
0.4701696062992126
20
0.4988947637795276
11
0.480801062992126
21
0.4904164566929134
0
LINE
8
BLACK
6
CONTINUOUS
10
0.480801062992126
20
0.4904164566929134
11
0.4904164566929134
21
0.480801062992126
0
LINE
8
BLACK
6
CONTINUOUS
10
0.4904164566929134
20
0.480801062992126
11
0.4988947637795276
21
0.4701696062992126
0
LINE
8
BLACK
6
CONTINUOUS
10
0.4988947637795276
20
0.4701696062992126
11
0.5061294488188977
21
0.4586556692913386
0
LINE
8
BLACK
6
CONTINUOUS
10
0.5061294488188977
20
0.4586556692913386
11
0.5120294881889763
21
0.4464041338582677
0
LINE
8
BLACK
6
CONTINUOUS
10
0.5120294881889763
20
0.4464041338582677
11
0.5165206692913386
21
0.4335690157480315
0
LINE
8
BLACK
6
CONTINUOUS
10
0.5165206692913386
20
0.4335690157480315
11
0.5195465748031496
21
0.4203117716535433
0
LINE
8
BLACK
6
CONTINUOUS
10
0.5195465748031496
20
0.4203117716535433
11
0.5210690944881889
21
0.406799094488189
0
LINE
8
BLACK
6
CONTINUOUS
10
0.5210690944881889
20
0.406799094488189
11
0.5210690944881889
21
0.393200905511811
0
LINE
8
BLACK
6
CONTINUOUS
10
0.5210690944881889
20
0.393200905511811
11
0.5195465748031496
21
0.3796882283464567
0
LINE
8
BLACK
6
CONTINUOUS
10
0.5195465748031496
20
0.3796882283464567
11
0.5165206692913386
21
0.3664309842519685
0
LINE
8
BLACK
6
CONTINUOUS
10
0.5165206692913386
20
0.3664309842519685
11
0.5120294881889763
21
0.3535958661417323
0
LINE
8
BLACK
6
CONTINUOUS
10
0.5120294881889763
20
0.3535958661417323
11
0.5061294488188977
21
0.3413443307086614
0
LINE
8
BLACK
6
CONTINUOUS
10
0.5061294488188977
20
0.3413443307086614
11
0.4988947637795276
21
0.3298303937007874
0
LINE
8
BLACK
6
CONTINUOUS
10
0.4988947637795276
20
0.3298303937007874
11
0.4904164566929134
21
0.319198937007874
0
LINE
8
BLACK
6
CONTINUOUS
10
0.4904164566929134
20
0.319198937007874
11
0.480801062992126
21
0.3095835433070866
0
LINE
8
BLACK
6
CONTINUOUS
10
0.480801062992126
20
0.3095835433070866
11
0.4701696062992126
21
0.3011052362204724
0
LINE
8
BLACK
6
CONTINUOUS
10
0.4701696062992126
20
0.3011052362204724
11
0.4586556692913386
21
0.2938705511811023
0
LINE
8
BLACK
6
CONTINUOUS
10
0.4586556692913386
20
0.2938705511811023
11
0.4464041338582677
21
0.2879705118110236
0
LINE
8
BLACK
6
CONTINUOUS
10
0.4464041338582677
20
0.2879705118110236
11
0.4335690157480315
21
0.2834793307086614
0
LINE
8
BLACK
6
CONTINUOUS
10
0.4335690157480315
20
0.2834793307086614
11
0.4203117716535433
21
0.2804534251968504
0
LINE
8
BLACK
6
CONTINUOUS
10
0.4203117716535433
20
0.2804534251968504
11
0.406799094488189
21
0.278930905511811
0
LINE
8
BLACK
6
CONTINUOUS
10
0.406799094488189
20
0.278930905511811
11
0.393200905511811
21
0.278930905511811
0
LINE
8
BLACK
6
CONTINUOUS
10
0.393200905511811
20
0.278930905511811
11
0.3796882283464567
21
0.2804534251968504
0
LINE
8
BLACK
6
CONTINUOUS
10
0.3796882283464567
20
0.2804534251968504
11
0.3664309842519685
21
0.2834793307086614
0
LINE
8
BLACK
6
CONTINUOUS
10
0.3664309842519685
20
0.2834793307086614
11
0.3535958661417323
21
0.2879705118110236
0
LINE
8
BLACK
6
CONTINUOUS
10
0.3535958661417323
20
0.2879705118110236
11
0.3413443307086614
21
0.2938705511811023
0
LINE
8
BLACK
6
CONTINUOUS
10
0.3413443307086614
20
0.2938705511811023
11
0.3298303937007874
21
0.3011052362204724
0
LINE
8
BLACK
6
CONTINUOUS
10
0.3298303937007874
20
0.3011052362204724
11
0.319198937007874
21
0.3095835433070866
0
LINE
8
BLACK
6
CONTINUOUS
10
0.319198937007874
20
0.3095835433070866
11
0.3095835433070866
21
0.319198937007874
0
LINE
8
BLACK
6
CONTINUOUS
10
0.3095835433070866
20
0.319198937007874
11
0.3011052362204724
21
0.3298303937007874
0
LINE
8
BLACK
6
CONTINUOUS
10
0.3011052362204724
20
0.3298303937007874
11
0.2938705511811023
21
0.3413443307086614
0
LINE
8
BLACK
6
CONTINUOUS
10
0.2938705511811023
20
0.3413443307086614
11
0.2879705118110236
21
0.3535958661417323
0
LINE
8
BLACK
6
CONTINUOUS
10
0.2879705118110236
20
0.3535958661417323
11
0.2834793307086614
21
0.3664309842519685
0
LINE
8
BLACK
6
CONTINUOUS
10
0.2834793307086614
20
0.3664309842519685
11
0.2804534251968504
21
0.3796882283464567
0
LINE
8
BLACK
6
CONTINUOUS
10
0.2804534251968504
20
0.3796882283464567
11
0.278930905511811
21
0.393200905511811
0
LINE
8
BLACK
6
CONTINUOUS
10
0.278930905511811
20
0.393200905511811
11
0.278930905511811
21
0.406799094488189
0
LINE
8
BLACK
6
CONTINUOUS
10
0.278930905511811
20
0.406799094488189
11
0.2804534251968504
21
0.4203117716535433
0
LINE
8
BLACK
6
CONTINUOUS
10
0.2804534251968504
20
0.4203117716535433
11
0.2834793307086614
21
0.4335690157480315
0
LINE
8
BLACK
6
CONTINUOUS
10
0.2834793307086614
20
0.4335690157480315
11
0.2879705118110236
21
0.4464041338582677
0
LINE
8
BLACK
6
CONTINUOUS
10
0.2879705118110236
20
0.4464041338582677
11
0.2938705511811023
21
0.4586556692913386
0
LINE
8
BLACK
6
CONTINUOUS
10
0.2938705511811023
20
0.4586556692913386
11
0.3011052362204724
21
0.4701696062992126
0
LINE
8
BLACK
6
CONTINUOUS
10
0.3011052362204724
20
0.4701696062992126
11
0.3095835433070866
21
0.480801062992126
0
LINE
8
BLACK
6
CONTINUOUS
10
0.3095835433070866
20
0.480801062992126
11
0.319198937007874
21
0.4904164566929134
0
LINE
8
BLACK
6
CONTINUOUS
10
0.319198937007874
20
0.4904164566929134
11
0.3298303937007874
21
0.4988947637795276
0
LINE
8
BLACK
6
CONTINUOUS
10
0.3298303937007874
20
0.4988947637795276
11
0.3413443307086614
21
0.5061294488188977
0
LINE
8
BLACK
6
CONTINUOUS
10
0.3413443307086614
20
0.5061294488188977
11
0.3535958661417323
21
0.5120294881889763
0
LINE
8
BLACK
6
CONTINUOUS
10
0.3535958661417323
20
0.5120294881889763
11
0.3664309842519685
21
0.5165206692913386
0
LINE
8
BLACK
6
CONTINUOUS
10
0.3664309842519685
20
0.5165206692913386
11
0.3796882283464567
21
0.5195465748031496
0
LINE
8
BLACK
6
CONTINUOUS
10
0.3796882283464567
20
0.5195465748031496
11
0.393200905511811
21
0.5210690944881889
0
LINE
8
BLACK
6
CONTINUOUS
10
0.393200905511811
20
0.5210690944881889
11
0.406799094488189
21
0.5210690944881889
0
LINE
8
BLACK
6
CONTINUOUS
10
0.406799094488189
20
0.5210690944881889
11
0.4203117716535433
21
0.5195465748031496
0
LINE
8
BLACK
6
CONTINUOUS
10
2.8203117716535431
20
0.5195465748031496
11
2.8335690157480315
21
0.5165206692913386
0
LINE
8
BLACK
6
CONTINUOUS
10
2.8335690157480315
20
0.5165206692913386
11
2.8464041338582677
21
0.5120294881889763
0
LINE
8
BLACK
6
CONTINUOUS
10
2.8464041338582677
20
0.5120294881889763
11
2.8586556692913385
21
0.5061294488188977
0
LINE
8
BLACK
6
CONTINUOUS
10
2.8586556692913385
20
0.5061294488188977
11
2.8701696062992124
21
0.4988947637795276
0
LINE
8
BLACK
6
CONTINUOUS
10
2.8701696062992124
20
0.4988947637795276
11
2.8808010629921261
21
0.4904164566929134
0
LINE
8
BLACK
6
CONTINUOUS
10
2.8808010629921261
20
0.4904164566929134
11
2.8904164566929134
21
0.480801062992126
0
LINE
8
BLACK
6
CONTINUOUS
10
2.8904164566929134
20
0.480801062992126
11
2.8988947637795275
21
0.4701696062992126
0
LINE
8
BLACK
6
CONTINUOUS
10
2.8988947637795275
20
0.4701696062992126
11
2.9061294488188976
21
0.4586556692913386
0
LINE
8
BLACK
6
CONTINUOUS
10
2.9061294488188976
20
0.4586556692913386
11
2.9120294881889763
21
0.4464041338582677
0
LINE
8
BLACK
6
CONTINUOUS
10
2.9120294881889763
20
0.4464041338582677
11
2.9165206692913386
21
0.4335690157480315
0
LINE
8
BLACK
6
CONTINUOUS
10
2.9165206692913386
20
0.4335690157480315
11
2.9195465748031495
21
0.4203117716535433
0
LINE
8
BLACK
6
CONTINUOUS
10
2.9195465748031495
20
0.4203117716535433
11
2.921069094488189
21
0.406799094488189
0
LINE
8
BLACK
6
CONTINUOUS
10
2.921069094488189
20
0.406799094488189
11
2.921069094488189
21
0.393200905511811
0
LINE
8
BLACK
6
CONTINUOUS
10
2.921069094488189
20
0.393200905511811
11
2.9195465748031495
21
0.3796882283464567
0
LINE
8
BLACK
6
CONTINUOUS
10
2.9195465748031495
20
0.3796882283464567
11
2.9165206692913386
21
0.3664309842519685
0
LINE
8
BLACK
6
CONTINUOUS
10
2.9165206692913386
20
0.3664309842519685
11
2.9120294881889763
21
0.3535958661417323
0
LINE
8
BLACK
6
CONTINUOUS
10
2.9120294881889763
20
0.3535958661417323
11
2.9061294488188976
21
0.3413443307086614
0
LINE
8
BLACK
6
CONTINUOUS
10
2.9061294488188976
20
0.3413443307086614
11
2.8988947637795275
21
0.3298303937007874
0
LINE
8
BLACK
6
CONTINUOUS
10
2.8988947637795275
20
0.3298303937007874
11
2.8904164566929134
21
0.319198937007874
0
LINE
8
BLACK
6
CONTINUOUS
10
2.8904164566929134
20
0.319198937007874
11
2.8808010629921261
21
0.3095835433070866
0
LINE
8
BLACK
6
CONTINUOUS
10
2.8808010629921261
20
0.3095835433070866
11
2.8701696062992124
21
0.3011052362204724
0
LINE
8
BLACK
6
CONTINUOUS
10
2.8701696062992124
20
0.3011052362204724
11
2.8586556692913385
21
0.2938705511811023
0
LINE
8
BLACK
6
CONTINUOUS
10
2.8586556692913385
20
0.2938705511811023
11
2.8464041338582677
21
0.2879705118110236
0
LINE
8
BLACK
6
CONTINUOUS
10
2.8464041338582677
20
0.2879705118110236
11
2.8335690157480315
21
0.2834793307086614
0
LINE
8
BLACK
6
CONTINUOUS
10
2.8335690157480315
20
0.2834793307086614
11
2.8203117716535431
21
0.2804534251968504
0
LINE
8
BLACK
6
CONTINUOUS
10
2.8203117716535431
20
0.2804534251968504
11
2.8067990944881891
21
0.278930905511811
0
LINE
8
BLACK
6
CONTINUOUS
10
2.8067990944881891
20
0.278930905511811
11
2.793200905511811
21
0.278930905511811
0
LINE
8
BLACK
6
CONTINUOUS
10
2.793200905511811
20
0.278930905511811
11
2.7796882283464566
21
0.2804534251968504
0
LINE
8
BLACK
6
CONTINUOUS
10
2.7796882283464566
20
0.2804534251968504
11
2.7664309842519685
21
0.2834793307086614
0
LINE
8
BLACK
6
CONTINUOUS
10
2.7664309842519685
20
0.2834793307086614
11
2.7535958661417324
21
0.2879705118110236
0
LINE
8
BLACK
6
CONTINUOUS
10
2.7535958661417324
20
0.2879705118110236
11
2.7413443307086616
21
0.2938705511811023
0
LINE
8
BLACK
6
CONTINUOUS
10
2.7413443307086616
20
0.2938705511811023
11
2.7298303937007873
21
0.3011052362204724
0
LINE
8
BLACK
6
CONTINUOUS
10
2.7298303937007873
20
0.3011052362204724
11
2.719198937007874
21
0.3095835433070866
0
LINE
8
BLACK
6
CONTINUOUS
10
2.719198937007874
20
0.3095835433070866
11
2.7095835433070867
21
0.319198937007874
0
LINE
8
BLACK
6
CONTINUOUS
10
2.7095835433070867
20
0.319198937007874
11
2.7011052362204722
21
0.3298303937007874
0
LINE
8
BLACK
6
CONTINUOUS
10
2.7011052362204722
20
0.3298303937007874
11
2.6938705511811021
21
0.3413443307086614
0
LINE
8
BLACK
6
CONTINUOUS
10
2.6938705511811021
20
0.3413443307086614
11
2.6879705118110238
21
0.3535958661417323
0
LINE
8
BLACK
6
CONTINUOUS
10
2.6879705118110238
20
0.3535958661417323
11
2.6834793307086615
21
0.3664309842519685
0
LINE
8
BLACK
6
CONTINUOUS
10
2.6834793307086615
20
0.3664309842519685
11
2.6804534251968501
21
0.3796882283464567
0
LINE
8
BLACK
6
CONTINUOUS
10
2.6804534251968501
20
0.3796882283464567
11
2.6789309055118111
21
0.393200905511811
0
LINE
8
BLACK
6
CONTINUOUS
10
2.6789309055118111
20
0.393200905511811
11
2.6789309055118111
21
0.406799094488189
0
LINE
8
BLACK
6
CONTINUOUS
10
2.6789309055118111
20
0.406799094488189
11
2.6804534251968501
21
0.4203117716535433
0
LINE
8
BLACK
6
CONTINUOUS
10
2.6804534251968501
20
0.4203117716535433
11
2.6834793307086615
21
0.4335690157480315
0
LINE
8
BLACK
6
CONTINUOUS
10
2.6834793307086615
20
0.4335690157480315
11
2.6879705118110238
21
0.4464041338582677
0
LINE
8
BLACK
6
CONTINUOUS
10
2.6879705118110238
20
0.4464041338582677
11
2.6938705511811021
21
0.4586556692913386
0
LINE
8
BLACK
6
CONTINUOUS
10
2.6938705511811021
20
0.4586556692913386
11
2.7011052362204722
21
0.4701696062992126
0
LINE
8
BLACK
6
CONTINUOUS
10
2.7011052362204722
20
0.4701696062992126
11
2.7095835433070867
21
0.480801062992126
0
LINE
8
BLACK
6
CONTINUOUS
10
2.7095835433070867
20
0.480801062992126
11
2.719198937007874
21
0.4904164566929134
0
LINE
8
BLACK
6
CONTINUOUS
10
2.719198937007874
20
0.4904164566929134
11
2.7298303937007873
21
0.4988947637795276
0
LINE
8
BLACK
6
CONTINUOUS
10
2.7298303937007873
20
0.4988947637795276
11
2.7413443307086616
21
0.5061294488188977
0
LINE
8
BLACK
6
CONTINUOUS
10
2.7413443307086616
20
0.5061294488188977
11
2.7535958661417324
21
0.5120294881889763
0
LINE
8
BLACK
6
CONTINUOUS
10
2.7535958661417324
20
0.5120294881889763
11
2.7664309842519685
21
0.5165206692913386
0
LINE
8
BLACK
6
CONTINUOUS
10
2.7664309842519685
20
0.5165206692913386
11
2.7796882283464566
21
0.5195465748031496
0
LINE
8
BLACK
6
CONTINUOUS
10
2.7796882283464566
20
0.5195465748031496
11
2.793200905511811
21
0.5210690944881889
0
LINE
8
BLACK
6
CONTINUOUS
10
2.793200905511811
20
0.5210690944881889
11
2.8067990944881891
21
0.5210690944881889
0
LINE
8
BLACK
6
CONTINUOUS
10
2.8067990944881891
20
0.5210690944881889
11
2.8203117716535431
21
0.5195465748031496
0
LINE
8
BLACK
6
CONTINUOUS
10
1.8992053149606298
20
0.938909842519685
11
1.900227125984252
21
0.938227125984252
0
LINE
8
BLACK
6
CONTINUOUS
10
1.900227125984252
20
0.938227125984252
11
1.9009098425196851
21
0.9372053149606299
0
LINE
8
BLACK
6
CONTINUOUS
10
1.9009098425196851
20
0.9372053149606299
11
1.9011496062992126
21
0.9359999999999999
0
LINE
8
BLACK
6
CONTINUOUS
10
1.9011496062992126
20
0.9359999999999999
11
1.9011496062992126
21
0.876
0
LINE
8
BLACK
6
CONTINUOUS
10
1.9011496062992126
20
0.876
11
1.9009098425196851
21
0.8747946850393701
0
LINE
8
BLACK
6
CONTINUOUS
10
1.9009098425196851
20
0.8747946850393701
11
1.900227125984252
21
0.873772874015748
0
LINE
8
BLACK
6
CONTINUOUS
10
1.900227125984252
20
0.873772874015748
11
1.8992053149606298
21
0.8730901574803149
0
LINE
8
BLACK
6
CONTINUOUS
10
1.8992053149606298
20
0.8730901574803149
11
1.8979999999999999
21
0.8728503937007874
0
LINE
8
BLACK
6
CONTINUOUS
10
1.8979999999999999
20
0.8728503937007874
11
1.8379999999999999
21
0.8728503937007874
0
LINE
8
BLACK
6
CONTINUOUS
10
1.8379999999999999
20
0.8728503937007874
11
1.8367946850393699
21
0.8730901574803149
0
LINE
8
BLACK
6
CONTINUOUS
10
1.8367946850393699
20
0.8730901574803149
11
1.835772874015748
21
0.873772874015748
0
LINE
8
BLACK
6
CONTINUOUS
10
1.835772874015748
20
0.873772874015748
11
1.8350901574803149
21
0.8747946850393701
0
LINE
8
BLACK
6
CONTINUOUS
10
1.8350901574803149
20
0.8747946850393701
11
1.8348503937007874
21
0.876
0
LINE
8
BLACK
6
CONTINUOUS
10
1.8348503937007874
20
0.876
11
1.8348503937007874
21
0.9359999999999999
0
LINE
8
BLACK
6
CONTINUOUS
10
1.8348503937007874
20
0.9359999999999999
11
1.8350901574803149
21
0.9372053149606299
0
LINE
8
BLACK
6
CONTINUOUS
10
1.8350901574803149
20
0.9372053149606299
11
1.835772874015748
21
0.938227125984252
0
LINE
8
BLACK
6
CONTINUOUS
10
1.835772874015748
20
0.938227125984252
11
1.8367946850393699
21
0.938909842519685
0
LINE
8
BLACK
6
CONTINUOUS
10
1.8367946850393699
20
0.938909842519685
11
1.8379999999999999
21
0.9391496062992126
0
LINE
8
BLACK
6
CONTINUOUS
10
1.8379999999999999
20
0.9391496062992126
11
1.8979999999999999
21
0.9391496062992126
0
LINE
8
BLACK
6
CONTINUOUS
10
1.8979999999999999
20
0.9391496062992126
11
1.8992053149606298
21
0.938909842519685
0
LINE
8
BLACK
6
CONTINUOUS
10
1.9992053149606299
20
0.938909842519685
11
2.0002271259842521
21
0.938227125984252
0
LINE
8
BLACK
6
CONTINUOUS
10
2.0002271259842521
20
0.938227125984252
11
2.0009098425196852
21
0.9372053149606299
0
LINE
8
BLACK
6
CONTINUOUS
10
2.0009098425196852
20
0.9372053149606299
11
2.0011496062992125
21
0.9359999999999999
0
LINE
8
BLACK
6
CONTINUOUS
10
2.0011496062992125
20
0.9359999999999999
11
2.0011496062992125
21
0.876
0
LINE
8
BLACK
6
CONTINUOUS
10
2.0011496062992125
20
0.876
11
2.0009098425196852
21
0.8747946850393701
0
LINE
8
BLACK
6
CONTINUOUS
10
2.0009098425196852
20
0.8747946850393701
11
2.0002271259842521
21
0.873772874015748
0
LINE
8
BLACK
6
CONTINUOUS
10
2.0002271259842521
20
0.873772874015748
11
1.9992053149606299
21
0.8730901574803149
0
LINE
8
BLACK
6
CONTINUOUS
10
1.9992053149606299
20
0.8730901574803149
11
1.998
21
0.8728503937007874
0
LINE
8
BLACK
6
CONTINUOUS
10
1.998
20
0.8728503937007874
11
1.9379999999999999
21
0.8728503937007874
0
LINE
8
BLACK
6
CONTINUOUS
10
1.9379999999999999
20
0.8728503937007874
11
1.93679468503937
21
0.8730901574803149
0
LINE
8
BLACK
6
CONTINUOUS
10
1.93679468503937
20
0.8730901574803149
11
1.935772874015748
21
0.873772874015748
0
LINE
8
BLACK
6
CONTINUOUS
10
1.935772874015748
20
0.873772874015748
11
1.935090157480315
21
0.8747946850393701
0
LINE
8
BLACK
6
CONTINUOUS
10
1.935090157480315
20
0.8747946850393701
11
1.9348503937007873
21
0.876
0
LINE
8
BLACK
6
CONTINUOUS
10
1.9348503937007873
20
0.876
11
1.9348503937007873
21
0.9359999999999999
0
LINE
8
BLACK
6
CONTINUOUS
10
1.9348503937007873
20
0.9359999999999999
11
1.935090157480315
21
0.9372053149606299
0
LINE
8
BLACK
6
CONTINUOUS
10
1.935090157480315
20
0.9372053149606299
11
1.935772874015748
21
0.938227125984252
0
LINE
8
BLACK
6
CONTINUOUS
10
1.935772874015748
20
0.938227125984252
11
1.93679468503937
21
0.938909842519685
0
LINE
8
BLACK
6
CONTINUOUS
10
1.93679468503937
20
0.938909842519685
11
1.9379999999999999
21
0.9391496062992126
0
LINE
8
BLACK
6
CONTINUOUS
10
1.9379999999999999
20
0.9391496062992126
11
1.998
21
0.9391496062992126
0
LINE
8
BLACK
6
CONTINUOUS
10
1.998
20
0.9391496062992126
11
1.9992053149606299
21
0.938909842519685
0
LINE
8
BLACK
6
CONTINUOUS
10
1.8992053149606298
20
1.038909842519685
11
1.900227125984252
21
1.0382271259842519
0
LINE
8
BLACK
6
CONTINUOUS
10
1.900227125984252
20
1.0382271259842519
11
1.9009098425196851
21
1.03720531496063
0
LINE
8
BLACK
6
CONTINUOUS
10
1.9009098425196851
20
1.03720531496063
11
1.9011496062992126
21
1.036
0
LINE
8
BLACK
6
CONTINUOUS
10
1.9011496062992126
20
1.036
11
1.9011496062992126
21
0.976
0
LINE
8
BLACK
6
CONTINUOUS
10
1.9011496062992126
20
0.976
11
1.9009098425196851
21
0.9747946850393701
0
LINE
8
BLACK
6
CONTINUOUS
10
1.9009098425196851
20
0.9747946850393701
11
1.900227125984252
21
0.973772874015748
0
LINE
8
BLACK
6
CONTINUOUS
10
1.900227125984252
20
0.973772874015748
11
1.8992053149606298
21
0.9730901574803149
0
LINE
8
BLACK
6
CONTINUOUS
10
1.8992053149606298
20
0.9730901574803149
11
1.8979999999999999
21
0.9728503937007874
0
LINE
8
BLACK
6
CONTINUOUS
10
1.8979999999999999
20
0.9728503937007874
11
1.8379999999999999
21
0.9728503937007874
0
LINE
8
BLACK
6
CONTINUOUS
10
1.8379999999999999
20
0.9728503937007874
11
1.8367946850393699
21
0.9730901574803149
0
LINE
8
BLACK
6
CONTINUOUS
10
1.8367946850393699
20
0.9730901574803149
11
1.835772874015748
21
0.973772874015748
0
LINE
8
BLACK
6
CONTINUOUS
10
1.835772874015748
20
0.973772874015748
11
1.8350901574803149
21
0.9747946850393701
0
LINE
8
BLACK
6
CONTINUOUS
10
1.8350901574803149
20
0.9747946850393701
11
1.8348503937007874
21
0.976
0
LINE
8
BLACK
6
CONTINUOUS
10
1.8348503937007874
20
0.976
11
1.8348503937007874
21
1.036
0
LINE
8
BLACK
6
CONTINUOUS
10
1.8348503937007874
20
1.036
11
1.8350901574803149
21
1.03720531496063
0
LINE
8
BLACK
6
CONTINUOUS
10
1.8350901574803149
20
1.03720531496063
11
1.835772874015748
21
1.0382271259842519
0
LINE
8
BLACK
6
CONTINUOUS
10
1.835772874015748
20
1.0382271259842519
11
1.8367946850393699
21
1.038909842519685
0
LINE
8
BLACK
6
CONTINUOUS
10
1.8367946850393699
20
1.038909842519685
11
1.8379999999999999
21
1.0391496062992125
0
LINE
8
BLACK
6
CONTINUOUS
10
1.8379999999999999
20
1.0391496062992125
11
1.8979999999999999
21
1.0391496062992125
0
LINE
8
BLACK
6
CONTINUOUS
10
1.8979999999999999
20
1.0391496062992125
11
1.8992053149606298
21
1.038909842519685
0
LINE
8
BLACK
6
CONTINUOUS
10
1.9992053149606299
20
1.038909842519685
11
2.0002271259842521
21
1.0382271259842519
0
LINE
8
BLACK
6
CONTINUOUS
10
2.0002271259842521
20
1.0382271259842519
11
2.0009098425196852
21
1.03720531496063
0
LINE
8
BLACK
6
CONTINUOUS
10
2.0009098425196852
20
1.03720531496063
11
2.0011496062992125
21
1.036
0
LINE
8
BLACK
6
CONTINUOUS
10
2.0011496062992125
20
1.036
11
2.0011496062992125
21
0.976
0
LINE
8
BLACK
6
CONTINUOUS
10
2.0011496062992125
20
0.976
11
2.0009098425196852
21
0.9747946850393701
0
LINE
8
BLACK
6
CONTINUOUS
10
2.0009098425196852
20
0.9747946850393701
11
2.0002271259842521
21
0.973772874015748
0
LINE
8
BLACK
6
CONTINUOUS
10
2.0002271259842521
20
0.973772874015748
11
1.9992053149606299
21
0.9730901574803149
0
LINE
8
BLACK
6
CONTINUOUS
10
1.9992053149606299
20
0.9730901574803149
11
1.998
21
0.9728503937007874
0
LINE
8
BLACK
6
CONTINUOUS
10
1.998
20
0.9728503937007874
11
1.9379999999999999
21
0.9728503937007874
0
LINE
8
BLACK
6
CONTINUOUS
10
1.9379999999999999
20
0.9728503937007874
11
1.93679468503937
21
0.9730901574803149
0
LINE
8
BLACK
6
CONTINUOUS
10
1.93679468503937
20
0.9730901574803149
11
1.935772874015748
21
0.973772874015748
0
LINE
8
BLACK
6
CONTINUOUS
10
1.935772874015748
20
0.973772874015748
11
1.935090157480315
21
0.9747946850393701
0
LINE
8
BLACK
6
CONTINUOUS
10
1.935090157480315
20
0.9747946850393701
11
1.9348503937007873
21
0.976
0
LINE
8
BLACK
6
CONTINUOUS
10
1.9348503937007873
20
0.976
11
1.9348503937007873
21
1.036
0
LINE
8
BLACK
6
CONTINUOUS
10
1.9348503937007873
20
1.036
11
1.935090157480315
21
1.03720531496063
0
LINE
8
BLACK
6
CONTINUOUS
10
1.935090157480315
20
1.03720531496063
11
1.935772874015748
21
1.0382271259842519
0
LINE
8
BLACK
6
CONTINUOUS
10
1.935772874015748
20
1.0382271259842519
11
1.93679468503937
21
1.038909842519685
0
LINE
8
BLACK
6
CONTINUOUS
10
1.93679468503937
20
1.038909842519685
11
1.9379999999999999
21
1.0391496062992125
0
LINE
8
BLACK
6
CONTINUOUS
10
1.9379999999999999
20
1.0391496062992125
11
1.998
21
1.0391496062992125
0
LINE
8
BLACK
6
CONTINUOUS
10
1.998
20
1.0391496062992125
11
1.9992053149606299
21
1.038909842519685
0
LINE
8
BLACK
6
CONTINUOUS
10
1.8992053149606298
20
1.1389098425196851
11
1.900227125984252
21
1.138227125984252
0
LINE
8
BLACK
6
CONTINUOUS
10
1.900227125984252
20
1.138227125984252
11
1.9009098425196851
21
1.1372053149606298
0
LINE
8
BLACK
6
CONTINUOUS
10
1.9009098425196851
20
1.1372053149606298
11
1.9011496062992126
21
1.1359999999999999
0
LINE
8
BLACK
6
CONTINUOUS
10
1.9011496062992126
20
1.1359999999999999
11
1.9011496062992126
21
1.0760000000000001
0
LINE
8
BLACK
6
CONTINUOUS
10
1.9011496062992126
20
1.0760000000000001
11
1.9009098425196851
21
1.0747946850393701
0
LINE
8
BLACK
6
CONTINUOUS
10
1.9009098425196851
20
1.0747946850393701
11
1.900227125984252
21
1.0737728740157479
0
LINE
8
BLACK
6
CONTINUOUS
10
1.900227125984252
20
1.0737728740157479
11
1.8992053149606298
21
1.0730901574803149
0
LINE
8
BLACK
6
CONTINUOUS
10
1.8992053149606298
20
1.0730901574803149
11
1.8979999999999999
21
1.0728503937007874
0
LINE
8
BLACK
6
CONTINUOUS
10
1.8979999999999999
20
1.0728503937007874
11
1.8379999999999999
21
1.0728503937007874
0
LINE
8
BLACK
6
CONTINUOUS
10
1.8379999999999999
20
1.0728503937007874
11
1.8367946850393699
21
1.0730901574803149
0
LINE
8
BLACK
6
CONTINUOUS
10
1.8367946850393699
20
1.0730901574803149
11
1.835772874015748
21
1.0737728740157479
0
LINE
8
BLACK
6
CONTINUOUS
10
1.835772874015748
20
1.0737728740157479
11
1.8350901574803149
21
1.0747946850393701
0
LINE
8
BLACK
6
CONTINUOUS
10
1.8350901574803149
20
1.0747946850393701
11
1.8348503937007874
21
1.0760000000000001
0
LINE
8
BLACK
6
CONTINUOUS
10
1.8348503937007874
20
1.0760000000000001
11
1.8348503937007874
21
1.1359999999999999
0
LINE
8
BLACK
6
CONTINUOUS
10
1.8348503937007874
20
1.1359999999999999
11
1.8350901574803149
21
1.1372053149606298
0
LINE
8
BLACK
6
CONTINUOUS
10
1.8350901574803149
20
1.1372053149606298
11
1.835772874015748
21
1.138227125984252
0
LINE
8
BLACK
6
CONTINUOUS
10
1.835772874015748
20
1.138227125984252
11
1.8367946850393699
21
1.1389098425196851
0
LINE
8
BLACK
6
CONTINUOUS
10
1.8367946850393699
20
1.1389098425196851
11
1.8379999999999999
21
1.1391496062992126
0
LINE
8
BLACK
6
CONTINUOUS
10
1.8379999999999999
20
1.1391496062992126
11
1.8979999999999999
21
1.1391496062992126
0
LINE
8
BLACK
6
CONTINUOUS
10
1.8979999999999999
20
1.1391496062992126
11
1.8992053149606298
21
1.1389098425196851
0
LINE
8
BLACK
6
CONTINUOUS
10
1.9992053149606299
20
1.1389098425196851
11
2.0002271259842521
21
1.138227125984252
0
LINE
8
BLACK
6
CONTINUOUS
10
2.0002271259842521
20
1.138227125984252
11
2.0009098425196852
21
1.1372053149606298
0
LINE
8
BLACK
6
CONTINUOUS
10
2.0009098425196852
20
1.1372053149606298
11
2.0011496062992125
21
1.1359999999999999
0
LINE
8
BLACK
6
CONTINUOUS
10
2.0011496062992125
20
1.1359999999999999
11
2.0011496062992125
21
1.0760000000000001
0
LINE
8
BLACK
6
CONTINUOUS
10
2.0011496062992125
20
1.0760000000000001
11
2.0009098425196852
21
1.0747946850393701
0
LINE
8
BLACK
6
CONTINUOUS
10
2.0009098425196852
20
1.0747946850393701
11
2.0002271259842521
21
1.0737728740157479
0
LINE
8
BLACK
6
CONTINUOUS
10
2.0002271259842521
20
1.0737728740157479
11
1.9992053149606299
21
1.0730901574803149
0
LINE
8
BLACK
6
CONTINUOUS
10
1.9992053149606299
20
1.0730901574803149
11
1.998
21
1.0728503937007874
0
LINE
8
BLACK
6
CONTINUOUS
10
1.998
20
1.0728503937007874
11
1.9379999999999999
21
1.0728503937007874
0
LINE
8
BLACK
6
CONTINUOUS
10
1.9379999999999999
20
1.0728503937007874
11
1.93679468503937
21
1.0730901574803149
0
LINE
8
BLACK
6
CONTINUOUS
10
1.93679468503937
20
1.0730901574803149
11
1.935772874015748
21
1.0737728740157479
0
LINE
8
BLACK
6
CONTINUOUS
10
1.935772874015748
20
1.0737728740157479
11
1.935090157480315
21
1.0747946850393701
0
LINE
8
BLACK
6
CONTINUOUS
10
1.935090157480315
20
1.0747946850393701
11
1.9348503937007873
21
1.0760000000000001
0
LINE
8
BLACK
6
CONTINUOUS
10
1.9348503937007873
20
1.0760000000000001
11
1.9348503937007873
21
1.1359999999999999
0
LINE
8
BLACK
6
CONTINUOUS
10
1.9348503937007873
20
1.1359999999999999
11
1.935090157480315
21
1.1372053149606298
0
LINE
8
BLACK
6
CONTINUOUS
10
1.935090157480315
20
1.1372053149606298
11
1.935772874015748
21
1.138227125984252
0
LINE
8
BLACK
6
CONTINUOUS
10
1.935772874015748
20
1.138227125984252
11
1.93679468503937
21
1.1389098425196851
0
LINE
8
BLACK
6
CONTINUOUS
10
1.93679468503937
20
1.1389098425196851
11
1.9379999999999999
21
1.1391496062992126
0
LINE
8
BLACK
6
CONTINUOUS
10
1.9379999999999999
20
1.1391496062992126
11
1.998
21
1.1391496062992126
0
LINE
8
BLACK
6
CONTINUOUS
10
1.998
20
1.1391496062992126
11
1.9992053149606299
21
1.1389098425196851
0
LINE
8
BLACK
6
CONTINUOUS
10
0.4203117716535433
20
2.1195465748031497
11
0.4335690157480315
21
2.1165206692913388
0
LINE
8
BLACK
6
CONTINUOUS
10
0.4335690157480315
20
2.1165206692913388
11
0.4464041338582677
21
2.1120294881889765
0
LINE
8
BLACK
6
CONTINUOUS
10
0.4464041338582677
20
2.1120294881889765
11
0.4586556692913386
21
2.1061294488188977
0
LINE
8
BLACK
6
CONTINUOUS
10
0.4586556692913386
20
2.1061294488188977
11
0.4701696062992126
21
2.0988947637795277
0
LINE
8
BLACK
6
CONTINUOUS
10
0.4701696062992126
20
2.0988947637795277
11
0.480801062992126
21
2.0904164566929135
0
LINE
8
BLACK
6
CONTINUOUS
10
0.480801062992126
20
2.0904164566929135
11
0.4904164566929134
21
2.0808010629921259
0
LINE
8
BLACK
6
CONTINUOUS
10
0.4904164566929134
20
2.0808010629921259
11
0.4988947637795276
21
2.0701696062992125
0
LINE
8
BLACK
6
CONTINUOUS
10
0.4988947637795276
20
2.0701696062992125
11
0.5061294488188977
21
2.0586556692913387
0
LINE
8
BLACK
6
CONTINUOUS
10
0.5061294488188977
20
2.0586556692913387
11
0.5120294881889763
21
2.0464041338582675
0
LINE
8
BLACK
6
CONTINUOUS
10
0.5120294881889763
20
2.0464041338582675
11
0.5165206692913386
21
2.0335690157480313
0
LINE
8
BLACK
6
CONTINUOUS
10
0.5165206692913386
20
2.0335690157480313
11
0.5195465748031496
21
2.0203117716535433
0
LINE
8
BLACK
6
CONTINUOUS
10
0.5195465748031496
20
2.0203117716535433
11
0.5210690944881889
21
2.0067990944881888
0
LINE
8
BLACK
6
CONTINUOUS
10
0.5210690944881889
20
2.0067990944881888
11
0.5210690944881889
21
1.9932009055118109
0
LINE
8
BLACK
6
CONTINUOUS
10
0.5210690944881889
20
1.9932009055118109
11
0.5195465748031496
21
1.9796882283464567
0
LINE
8
BLACK
6
CONTINUOUS
10
0.5195465748031496
20
1.9796882283464567
11
0.5165206692913386
21
1.9664309842519685
0
LINE
8
BLACK
6
CONTINUOUS
10
0.5165206692913386
20
1.9664309842519685
11
0.5120294881889763
21
1.9535958661417323
0
LINE
8
BLACK
6
CONTINUOUS
10
0.5120294881889763
20
1.9535958661417323
11
0.5061294488188977
21
1.9413443307086613
0
LINE
8
BLACK
6
CONTINUOUS
10
0.5061294488188977
20
1.9413443307086613
11
0.4988947637795276
21
1.9298303937007875
0
LINE
8
BLACK
6
CONTINUOUS
10
0.4988947637795276
20
1.9298303937007875
11
0.4904164566929134
21
1.9191989370078739
0
LINE
8
BLACK
6
CONTINUOUS
10
0.4904164566929134
20
1.9191989370078739
11
0.480801062992126
21
1.9095835433070865
0
LINE
8
BLACK
6
CONTINUOUS
10
0.480801062992126
20
1.9095835433070865
11
0.4701696062992126
21
1.9011052362204723
0
LINE
8
BLACK
6
CONTINUOUS
10
0.4701696062992126
20
1.9011052362204723
11
0.4586556692913386
21
1.8938705511811023
0
LINE
8
BLACK
6
CONTINUOUS
10
0.4586556692913386
20
1.8938705511811023
11
0.4464041338582677
21
1.8879705118110235
0
LINE
8
BLACK
6
CONTINUOUS
10
0.4464041338582677
20
1.8879705118110235
11
0.4335690157480315
21
1.8834793307086615
0
LINE
8
BLACK
6
CONTINUOUS
10
0.4335690157480315
20
1.8834793307086615
11
0.4203117716535433
21
1.8804534251968503
0
LINE
8
BLACK
6
CONTINUOUS
10
0.4203117716535433
20
1.8804534251968503
11
0.406799094488189
21
1.8789309055118111
0
LINE
8
BLACK
6
CONTINUOUS
10
0.406799094488189
20
1.8789309055118111
11
0.393200905511811
21
1.8789309055118111
0
LINE
8
BLACK
6
CONTINUOUS
10
0.393200905511811
20
1.8789309055118111
11
0.3796882283464567
21
1.8804534251968503
0
LINE
8
BLACK
6
CONTINUOUS
10
0.3796882283464567
20
1.8804534251968503
11
0.3664309842519685
21
1.8834793307086615
0
LINE
8
BLACK
6
CONTINUOUS
10
0.3664309842519685
20
1.8834793307086615
11
0.3535958661417323
21
1.8879705118110235
0
LINE
8
BLACK
6
CONTINUOUS
10
0.3535958661417323
20
1.8879705118110235
11
0.3413443307086614
21
1.8938705511811023
0
LINE
8
BLACK
6
CONTINUOUS
10
0.3413443307086614
20
1.8938705511811023
11
0.3298303937007874
21
1.9011052362204723
0
LINE
8
BLACK
6
CONTINUOUS
10
0.3298303937007874
20
1.9011052362204723
11
0.319198937007874
21
1.9095835433070865
0
LINE
8
BLACK
6
CONTINUOUS
10
0.319198937007874
20
1.9095835433070865
11
0.3095835433070866
21
1.9191989370078739
0
LINE
8
BLACK
6
CONTINUOUS
10
0.3095835433070866
20
1.9191989370078739
11
0.3011052362204724
21
1.9298303937007875
0
LINE
8
BLACK
6
CONTINUOUS
10
0.3011052362204724
20
1.9298303937007875
11
0.2938705511811023
21
1.9413443307086613
0
LINE
8
BLACK
6
CONTINUOUS
10
0.2938705511811023
20
1.9413443307086613
11
0.2879705118110236
21
1.9535958661417323
0
LINE
8
BLACK
6
CONTINUOUS
10
0.2879705118110236
20
1.9535958661417323
11
0.2834793307086614
21
1.9664309842519685
0
LINE
8
BLACK
6
CONTINUOUS
10
0.2834793307086614
20
1.9664309842519685
11
0.2804534251968504
21
1.9796882283464567
0
LINE
8
BLACK
6
CONTINUOUS
10
0.2804534251968504
20
1.9796882283464567
11
0.278930905511811
21
1.9932009055118109
0
LINE
8
BLACK
6
CONTINUOUS
10
0.278930905511811
20
1.9932009055118109
11
0.278930905511811
21
2.0067990944881888
0
LINE
8
BLACK
6
CONTINUOUS
10
0.278930905511811
20
2.0067990944881888
11
0.2804534251968504
21
2.0203117716535433
0
LINE
8
BLACK
6
CONTINUOUS
10
0.2804534251968504
20
2.0203117716535433
11
0.2834793307086614
21
2.0335690157480313
0
LINE
8
BLACK
6
CONTINUOUS
10
0.2834793307086614
20
2.0335690157480313
11
0.2879705118110236
21
2.0464041338582675
0
LINE
8
BLACK
6
CONTINUOUS
10
0.2879705118110236
20
2.0464041338582675
11
0.2938705511811023
21
2.0586556692913387
0
LINE
8
BLACK
6
CONTINUOUS
10
0.2938705511811023
20
2.0586556692913387
11
0.3011052362204724
21
2.0701696062992125
0
LINE
8
BLACK
6
CONTINUOUS
10
0.3011052362204724
20
2.0701696062992125
11
0.3095835433070866
21
2.0808010629921259
0
LINE
8
BLACK
6
CONTINUOUS
10
0.3095835433070866
20
2.0808010629921259
11
0.319198937007874
21
2.0904164566929135
0
LINE
8
BLACK
6
CONTINUOUS
10
0.319198937007874
20
2.0904164566929135
11
0.3298303937007874
21
2.0988947637795277
0
LINE
8
BLACK
6
CONTINUOUS
10
0.3298303937007874
20
2.0988947637795277
11
0.3413443307086614
21
2.1061294488188977
0
LINE
8
BLACK
6
CONTINUOUS
10
0.3413443307086614
20
2.1061294488188977
11
0.3535958661417323
21
2.1120294881889765
0
LINE
8
BLACK
6
CONTINUOUS
10
0.3535958661417323
20
2.1120294881889765
11
0.3664309842519685
21
2.1165206692913388
0
LINE
8
BLACK
6
CONTINUOUS
10
0.3664309842519685
20
2.1165206692913388
11
0.3796882283464567
21
2.1195465748031497
0
LINE
8
BLACK
6
CONTINUOUS
10
0.3796882283464567
20
2.1195465748031497
11
0.393200905511811
21
2.1210690944881891
0
LINE
8
BLACK
6
CONTINUOUS
10
0.393200905511811
20
2.1210690944881891
11
0.406799094488189
21
2.1210690944881891
0
LINE
8
BLACK
6
CONTINUOUS
10
0.406799094488189
20
2.1210690944881891
11
0.4203117716535433
21
2.1195465748031497
0
LINE
8
BLACK
6
CONTINUOUS
10
2.8203117716535431
20
2.1195465748031497
11
2.8335690157480315
21
2.1165206692913388
0
LINE
8
BLACK
6
CONTINUOUS
10
2.8335690157480315
20
2.1165206692913388
11
2.8464041338582677
21
2.1120294881889765
0
LINE
8
BLACK
6
CONTINUOUS
10
2.8464041338582677
20
2.1120294881889765
11
2.8586556692913385
21
2.1061294488188977
0
LINE
8
BLACK
6
CONTINUOUS
10
2.8586556692913385
20
2.1061294488188977
11
2.8701696062992124
21
2.0988947637795277
0
LINE
8
BLACK
6
CONTINUOUS
10
2.8701696062992124
20
2.0988947637795277
11
2.8808010629921261
21
2.0904164566929135
0
LINE
8
BLACK
6
CONTINUOUS
10
2.8808010629921261
20
2.0904164566929135
11
2.8904164566929134
21
2.0808010629921259
0
LINE
8
BLACK
6
CONTINUOUS
10
2.8904164566929134
20
2.0808010629921259
11
2.8988947637795275
21
2.0701696062992125
0
LINE
8
BLACK
6
CONTINUOUS
10
2.8988947637795275
20
2.0701696062992125
11
2.9061294488188976
21
2.0586556692913387
0
LINE
8
BLACK
6
CONTINUOUS
10
2.9061294488188976
20
2.0586556692913387
11
2.9120294881889763
21
2.0464041338582675
0
LINE
8
BLACK
6
CONTINUOUS
10
2.9120294881889763
20
2.0464041338582675
11
2.9165206692913386
21
2.0335690157480313
0
LINE
8
BLACK
6
CONTINUOUS
10
2.9165206692913386
20
2.0335690157480313
11
2.9195465748031495
21
2.0203117716535433
0
LINE
8
BLACK
6
CONTINUOUS
10
2.9195465748031495
20
2.0203117716535433
11
2.921069094488189
21
2.0067990944881888
0
LINE
8
BLACK
6
CONTINUOUS
10
2.921069094488189
20
2.0067990944881888
11
2.921069094488189
21
1.9932009055118109
0
LINE
8
BLACK
6
CONTINUOUS
10
2.921069094488189
20
1.9932009055118109
11
2.9195465748031495
21
1.9796882283464567
0
LINE
8
BLACK
6
CONTINUOUS
10
2.9195465748031495
20
1.9796882283464567
11
2.9165206692913386
21
1.9664309842519685
0
LINE
8
BLACK
6
CONTINUOUS
10
2.9165206692913386
20
1.9664309842519685
11
2.9120294881889763
21
1.9535958661417323
0
LINE
8
BLACK
6
CONTINUOUS
10
2.9120294881889763
20
1.9535958661417323
11
2.9061294488188976
21
1.9413443307086613
0
LINE
8
BLACK
6
CONTINUOUS
10
2.9061294488188976
20
1.9413443307086613
11
2.8988947637795275
21
1.9298303937007875
0
LINE
8
BLACK
6
CONTINUOUS
10
2.8988947637795275
20
1.9298303937007875
11
2.8904164566929134
21
1.9191989370078739
0
LINE
8
BLACK
6
CONTINUOUS
10
2.8904164566929134
20
1.9191989370078739
11
2.8808010629921261
21
1.9095835433070865
0
LINE
8
BLACK
6
CONTINUOUS
10
2.8808010629921261
20
1.9095835433070865
11
2.8701696062992124
21
1.9011052362204723
0
LINE
8
BLACK
6
CONTINUOUS
10
2.8701696062992124
20
1.9011052362204723
11
2.8586556692913385
21
1.8938705511811023
0
LINE
8
BLACK
6
CONTINUOUS
10
2.8586556692913385
20
1.8938705511811023
11
2.8464041338582677
21
1.8879705118110235
0
LINE
8
BLACK
6
CONTINUOUS
10
2.8464041338582677
20
1.8879705118110235
11
2.8335690157480315
21
1.8834793307086615
0
LINE
8
BLACK
6
CONTINUOUS
10
2.8335690157480315
20
1.8834793307086615
11
2.8203117716535431
21
1.8804534251968503
0
LINE
8
BLACK
6
CONTINUOUS
10
2.8203117716535431
20
1.8804534251968503
11
2.8067990944881891
21
1.8789309055118111
0
LINE
8
BLACK
6
CONTINUOUS
10
2.8067990944881891
20
1.8789309055118111
11
2.793200905511811
21
1.8789309055118111
0
LINE
8
BLACK
6
CONTINUOUS
10
2.793200905511811
20
1.8789309055118111
11
2.7796882283464566
21
1.8804534251968503
0
LINE
8
BLACK
6
CONTINUOUS
10
2.7796882283464566
20
1.8804534251968503
11
2.7664309842519685
21
1.8834793307086615
0
LINE
8
BLACK
6
CONTINUOUS
10
2.7664309842519685
20
1.8834793307086615
11
2.7535958661417324
21
1.8879705118110235
0
LINE
8
BLACK
6
CONTINUOUS
10
2.7535958661417324
20
1.8879705118110235
11
2.7413443307086616
21
1.8938705511811023
0
LINE
8
BLACK
6
CONTINUOUS
10
2.7413443307086616
20
1.8938705511811023
11
2.7298303937007873
21
1.9011052362204723
0
LINE
8
BLACK
6
CONTINUOUS
10
2.7298303937007873
20
1.9011052362204723
11
2.719198937007874
21
1.9095835433070865
0
LINE
8
BLACK
6
CONTINUOUS
10
2.719198937007874
20
1.9095835433070865
11
2.7095835433070867
21
1.9191989370078739
0
LINE
8
BLACK
6
CONTINUOUS
10
2.7095835433070867
20
1.9191989370078739
11
2.7011052362204722
21
1.9298303937007875
0
LINE
8
BLACK
6
CONTINUOUS
10
2.7011052362204722
20
1.9298303937007875
11
2.6938705511811021
21
1.9413443307086613
0
LINE
8
BLACK
6
CONTINUOUS
10
2.6938705511811021
20
1.9413443307086613
11
2.6879705118110238
21
1.9535958661417323
0
LINE
8
BLACK
6
CONTINUOUS
10
2.6879705118110238
20
1.9535958661417323
11
2.6834793307086615
21
1.9664309842519685
0
LINE
8
BLACK
6
CONTINUOUS
10
2.6834793307086615
20
1.9664309842519685
11
2.6804534251968501
21
1.9796882283464567
0
LINE
8
BLACK
6
CONTINUOUS
10
2.6804534251968501
20
1.9796882283464567
11
2.6789309055118111
21
1.9932009055118109
0
LINE
8
BLACK
6
CONTINUOUS
10
2.6789309055118111
20
1.9932009055118109
11
2.6789309055118111
21
2.0067990944881888
0
LINE
8
BLACK
6
CONTINUOUS
10
2.6789309055118111
20
2.0067990944881888
11
2.6804534251968501
21
2.0203117716535433
0
LINE
8
BLACK
6
CONTINUOUS
10
2.6804534251968501
20
2.0203117716535433
11
2.6834793307086615
21
2.0335690157480313
0
LINE
8
BLACK
6
CONTINUOUS
10
2.6834793307086615
20
2.0335690157480313
11
2.6879705118110238
21
2.0464041338582675
0
LINE
8
BLACK
6
CONTINUOUS
10
2.6879705118110238
20
2.0464041338582675
11
2.6938705511811021
21
2.0586556692913387
0
LINE
8
BLACK
6
CONTINUOUS
10
2.6938705511811021
20
2.0586556692913387
11
2.7011052362204722
21
2.0701696062992125
0
LINE
8
BLACK
6
CONTINUOUS
10
2.7011052362204722
20
2.0701696062992125
11
2.7095835433070867
21
2.0808010629921259
0
LINE
8
BLACK
6
CONTINUOUS
10
2.7095835433070867
20
2.0808010629921259
11
2.719198937007874
21
2.0904164566929135
0
LINE
8
BLACK
6
CONTINUOUS
10
2.719198937007874
20
2.0904164566929135
11
2.7298303937007873
21
2.0988947637795277
0
LINE
8
BLACK
6
CONTINUOUS
10
2.7298303937007873
20
2.0988947637795277
11
2.7413443307086616
21
2.1061294488188977
0
LINE
8
BLACK
6
CONTINUOUS
10
2.7413443307086616
20
2.1061294488188977
11
2.7535958661417324
21
2.1120294881889765
0
LINE
8
BLACK
6
CONTINUOUS
10
2.7535958661417324
20
2.1120294881889765
11
2.7664309842519685
21
2.1165206692913388
0
LINE
8
BLACK
6
CONTINUOUS
10
2.7664309842519685
20
2.1165206692913388
11
2.7796882283464566
21
2.1195465748031497
0
LINE
8
BLACK
6
CONTINUOUS
10
2.7796882283464566
20
2.1195465748031497
11
2.793200905511811
21
2.1210690944881891
0
LINE
8
BLACK
6
CONTINUOUS
10
2.793200905511811
20
2.1210690944881891
11
2.8067990944881891
21
2.1210690944881891
0
LINE
8
BLACK
6
CONTINUOUS
10
2.8067990944881891
20
2.1210690944881891
11
2.8203117716535431
21
2.1195465748031497
0
LINE
8
BLACK
6
CONTINUOUS
10
0.9312053149606299
20
2.0329098425196852
11
0.9322271259842519
21
2.0322271259842517
0
LINE
8
BLACK
6
CONTINUOUS
10
0.9322271259842519
20
2.0322271259842517
11
0.932909842519685
21
2.0312053149606299
0
LINE
8
BLACK
6
CONTINUOUS
10
0.932909842519685
20
2.0312053149606299
11
0.9331496062992126
21
2.0299999999999998
0
LINE
8
BLACK
6
CONTINUOUS
10
0.9331496062992126
20
2.0299999999999998
11
0.9331496062992126
21
1.97
0
LINE
8
BLACK
6
CONTINUOUS
10
0.9331496062992126
20
1.97
11
0.932909842519685
21
1.9687946850393701
0
LINE
8
BLACK
6
CONTINUOUS
10
0.932909842519685
20
1.9687946850393701
11
0.9322271259842519
21
1.9677728740157481
0
LINE
8
BLACK
6
CONTINUOUS
10
0.9322271259842519
20
1.9677728740157481
11
0.9312053149606299
21
1.967090157480315
0
LINE
8
BLACK
6
CONTINUOUS
10
0.9312053149606299
20
1.967090157480315
11
0.9299999999999999
21
1.9668503937007873
0
LINE
8
BLACK
6
CONTINUOUS
10
0.9299999999999999
20
1.9668503937007873
11
0.87
21
1.9668503937007873
0
LINE
8
BLACK
6
CONTINUOUS
10
0.87
20
1.9668503937007873
11
0.8687946850393701
21
1.967090157480315
0
LINE
8
BLACK
6
CONTINUOUS
10
0.8687946850393701
20
1.967090157480315
11
0.867772874015748
21
1.9677728740157481
0
LINE
8
BLACK
6
CONTINUOUS
10
0.867772874015748
20
1.9677728740157481
11
0.8670901574803149
21
1.9687946850393701
0
LINE
8
BLACK
6
CONTINUOUS
10
0.8670901574803149
20
1.9687946850393701
11
0.8668503937007874
21
1.97
0
LINE
8
BLACK
6
CONTINUOUS
10
0.8668503937007874
20
1.97
11
0.8668503937007874
21
2.0299999999999998
0
LINE
8
BLACK
6
CONTINUOUS
10
0.8668503937007874
20
2.0299999999999998
11
0.8670901574803149
21
2.0312053149606299
0
LINE
8
BLACK
6
CONTINUOUS
10
0.8670901574803149
20
2.0312053149606299
11
0.867772874015748
21
2.0322271259842517
0
LINE
8
BLACK
6
CONTINUOUS
10
0.867772874015748
20
2.0322271259842517
11
0.8687946850393701
21
2.0329098425196852
0
LINE
8
BLACK
6
CONTINUOUS
10
0.8687946850393701
20
2.0329098425196852
11
0.87
21
2.0331496062992125
0
LINE
8
BLACK
6
CONTINUOUS
10
0.87
20
2.0331496062992125
11
0.9299999999999999
21
2.0331496062992125
0
LINE
8
BLACK
6
CONTINUOUS
10
0.9299999999999999
20
2.0331496062992125
11
0.9312053149606299
21
2.0329098425196852
0
LINE
8
BLACK
6
CONTINUOUS
10
1.0312053149606299
20
2.0329098425196852
11
1.0322271259842519
21
2.0322271259842517
0
LINE
8
BLACK
6
CONTINUOUS
10
1.0322271259842519
20
2.0322271259842517
11
1.032909842519685
21
2.0312053149606299
0
LINE
8
BLACK
6
CONTINUOUS
10
1.032909842519685
20
2.0312053149606299
11
1.0331496062992125
21
2.0299999999999998
0
LINE
8
BLACK
6
CONTINUOUS
10
1.0331496062992125
20
2.0299999999999998
11
1.0331496062992125
21
1.97
0
LINE
8
BLACK
6
CONTINUOUS
10
1.0331496062992125
20
1.97
11
1.032909842519685
21
1.9687946850393701
0
LINE
8
BLACK
6
CONTINUOUS
10
1.032909842519685
20
1.9687946850393701
11
1.0322271259842519
21
1.9677728740157481
0
LINE
8
BLACK
6
CONTINUOUS
10
1.0322271259842519
20
1.9677728740157481
11
1.0312053149606299
21
1.967090157480315
0
LINE
8
BLACK
6
CONTINUOUS
10
1.0312053149606299
20
1.967090157480315
11
1.03
21
1.9668503937007873
0
LINE
8
BLACK
6
CONTINUOUS
10
1.03
20
1.9668503937007873
11
0.97
21
1.9668503937007873
0
LINE
8
BLACK
6
CONTINUOUS
10
0.97
20
1.9668503937007873
11
0.9687946850393701
21
1.967090157480315
0
LINE
8
BLACK
6
CONTINUOUS
10
0.9687946850393701
20
1.967090157480315
11
0.967772874015748
21
1.9677728740157481
0
LINE
8
BLACK
6
CONTINUOUS
10
0.967772874015748
20
1.9677728740157481
11
0.9670901574803149
21
1.9687946850393701
0
LINE
8
BLACK
6
CONTINUOUS
10
0.9670901574803149
20
1.9687946850393701
11
0.9668503937007874
21
1.97
0
LINE
8
BLACK
6
CONTINUOUS
10
0.9668503937007874
20
1.97
11
0.9668503937007874
21
2.0299999999999998
0
LINE
8
BLACK
6
CONTINUOUS
10
0.9668503937007874
20
2.0299999999999998
11
0.9670901574803149
21
2.0312053149606299
0
LINE
8
BLACK
6
CONTINUOUS
10
0.9670901574803149
20
2.0312053149606299
11
0.967772874015748
21
2.0322271259842517
0
LINE
8
BLACK
6
CONTINUOUS
10
0.967772874015748
20
2.0322271259842517
11
0.9687946850393701
21
2.0329098425196852
0
LINE
8
BLACK
6
CONTINUOUS
10
0.9687946850393701
20
2.0329098425196852
11
0.97
21
2.0331496062992125
0
LINE
8
BLACK
6
CONTINUOUS
10
0.97
20
2.0331496062992125
11
1.03
21
2.0331496062992125
0
LINE
8
BLACK
6
CONTINUOUS
10
1.03
20
2.0331496062992125
11
1.0312053149606299
21
2.0329098425196852
0
LINE
8
BLACK
6
CONTINUOUS
10
1.1312053149606298
20
2.0329098425196852
11
1.132227125984252
21
2.0322271259842517
0
LINE
8
BLACK
6
CONTINUOUS
10
1.132227125984252
20
2.0322271259842517
11
1.1329098425196851
21
2.0312053149606299
0
LINE
8
BLACK
6
CONTINUOUS
10
1.1329098425196851
20
2.0312053149606299
11
1.1331496062992126
21
2.0299999999999998
0
LINE
8
BLACK
6
CONTINUOUS
10
1.1331496062992126
20
2.0299999999999998
11
1.1331496062992126
21
1.97
0
LINE
8
BLACK
6
CONTINUOUS
10
1.1331496062992126
20
1.97
11
1.1329098425196851
21
1.9687946850393701
0
LINE
8
BLACK
6
CONTINUOUS
10
1.1329098425196851
20
1.9687946850393701
11
1.132227125984252
21
1.9677728740157481
0
LINE
8
BLACK
6
CONTINUOUS
10
1.132227125984252
20
1.9677728740157481
11
1.1312053149606298
21
1.967090157480315
0
LINE
8
BLACK
6
CONTINUOUS
10
1.1312053149606298
20
1.967090157480315
11
1.1299999999999999
21
1.9668503937007873
0
LINE
8
BLACK
6
CONTINUOUS
10
1.1299999999999999
20
1.9668503937007873
11
1.0700000000000001
21
1.9668503937007873
0
LINE
8
BLACK
6
CONTINUOUS
10
1.0700000000000001
20
1.9668503937007873
11
1.0687946850393701
21
1.967090157480315
0
LINE
8
BLACK
6
CONTINUOUS
10
1.0687946850393701
20
1.967090157480315
11
1.0677728740157479
21
1.9677728740157481
0
LINE
8
BLACK
6
CONTINUOUS
10
1.0677728740157479
20
1.9677728740157481
11
1.0670901574803149
21
1.9687946850393701
0
LINE
8
BLACK
6
CONTINUOUS
10
1.0670901574803149
20
1.9687946850393701
11
1.0668503937007874
21
1.97
0
LINE
8
BLACK
6
CONTINUOUS
10
1.0668503937007874
20
1.97
11
1.0668503937007874
21
2.0299999999999998
0
LINE
8
BLACK
6
CONTINUOUS
10
1.0668503937007874
20
2.0299999999999998
11
1.0670901574803149
21
2.0312053149606299
0
LINE
8
BLACK
6
CONTINUOUS
10
1.0670901574803149
20
2.0312053149606299
11
1.0677728740157479
21
2.0322271259842517
0
LINE
8
BLACK
6
CONTINUOUS
10
1.0677728740157479
20
2.0322271259842517
11
1.0687946850393701
21
2.0329098425196852
0
LINE
8
BLACK
6
CONTINUOUS
10
1.0687946850393701
20
2.0329098425196852
11
1.0700000000000001
21
2.0331496062992125
0
LINE
8
BLACK
6
CONTINUOUS
10
1.0700000000000001
20
2.0331496062992125
11
1.1299999999999999
21
2.0331496062992125
0
LINE
8
BLACK
6
CONTINUOUS
10
1.1299999999999999
20
2.0331496062992125
11
1.1312053149606298
21
2.0329098425196852
0
LINE
8
BLACK
6
CONTINUOUS
10
1.2312053149606299
20
2.0329098425196852
11
1.2322271259842519
21
2.0322271259842517
0
LINE
8
BLACK
6
CONTINUOUS
10
1.2322271259842519
20
2.0322271259842517
11
1.2329098425196849
21
2.0312053149606299
0
LINE
8
BLACK
6
CONTINUOUS
10
1.2329098425196849
20
2.0312053149606299
11
1.2331496062992127
21
2.0299999999999998
0
LINE
8
BLACK
6
CONTINUOUS
10
1.2331496062992127
20
2.0299999999999998
11
1.2331496062992127
21
1.97
0
LINE
8
BLACK
6
CONTINUOUS
10
1.2331496062992127
20
1.97
11
1.2329098425196849
21
1.9687946850393701
0
LINE
8
BLACK
6
CONTINUOUS
10
1.2329098425196849
20
1.9687946850393701
11
1.2322271259842519
21
1.9677728740157481
0
LINE
8
BLACK
6
CONTINUOUS
10
1.2322271259842519
20
1.9677728740157481
11
1.2312053149606299
21
1.967090157480315
0
LINE
8
BLACK
6
CONTINUOUS
10
1.2312053149606299
20
1.967090157480315
11
1.23
21
1.9668503937007873
0
LINE
8
BLACK
6
CONTINUOUS
10
1.23
20
1.9668503937007873
11
1.1699999999999999
21
1.9668503937007873
0
LINE
8
BLACK
6
CONTINUOUS
10
1.1699999999999999
20
1.9668503937007873
11
1.16879468503937
21
1.967090157480315
0
LINE
8
BLACK
6
CONTINUOUS
10
1.16879468503937
20
1.967090157480315
11
1.167772874015748
21
1.9677728740157481
0
LINE
8
BLACK
6
CONTINUOUS
10
1.167772874015748
20
1.9677728740157481
11
1.167090157480315
21
1.9687946850393701
0
LINE
8
BLACK
6
CONTINUOUS
10
1.167090157480315
20
1.9687946850393701
11
1.1668503937007875
21
1.97
0
LINE
8
BLACK
6
CONTINUOUS
10
1.1668503937007875
20
1.97
11
1.1668503937007875
21
2.0299999999999998
0
LINE
8
BLACK
6
CONTINUOUS
10
1.1668503937007875
20
2.0299999999999998
11
1.167090157480315
21
2.0312053149606299
0
LINE
8
BLACK
6
CONTINUOUS
10
1.167090157480315
20
2.0312053149606299
11
1.167772874015748
21
2.0322271259842517
0
LINE
8
BLACK
6
CONTINUOUS
10
1.167772874015748
20
2.0322271259842517
11
1.16879468503937
21
2.0329098425196852
0
LINE
8
BLACK
6
CONTINUOUS
10
1.16879468503937
20
2.0329098425196852
11
1.1699999999999999
21
2.0331496062992125
0
LINE
8
BLACK
6
CONTINUOUS
10
1.1699999999999999
20
2.0331496062992125
11
1.23
21
2.0331496062992125
0
LINE
8
BLACK
6
CONTINUOUS
10
1.23
20
2.0331496062992125
11
1.2312053149606299
21
2.0329098425196852
0
LINE
8
BLACK
6
CONTINUOUS
10
1.33120531496063
20
2.0329098425196852
11
1.332227125984252
21
2.0322271259842517
0
LINE
8
BLACK
6
CONTINUOUS
10
1.332227125984252
20
2.0322271259842517
11
1.332909842519685
21
2.0312053149606299
0
LINE
8
BLACK
6
CONTINUOUS
10
1.332909842519685
20
2.0312053149606299
11
1.3331496062992125
21
2.0299999999999998
0
LINE
8
BLACK
6
CONTINUOUS
10
1.3331496062992125
20
2.0299999999999998
11
1.3331496062992125
21
1.97
0
LINE
8
BLACK
6
CONTINUOUS
10
1.3331496062992125
20
1.97
11
1.332909842519685
21
1.9687946850393701
0
LINE
8
BLACK
6
CONTINUOUS
10
1.332909842519685
20
1.9687946850393701
11
1.332227125984252
21
1.9677728740157481
0
LINE
8
BLACK
6
CONTINUOUS
10
1.332227125984252
20
1.9677728740157481
11
1.33120531496063
21
1.967090157480315
0
LINE
8
BLACK
6
CONTINUOUS
10
1.33120531496063
20
1.967090157480315
11
1.3300000000000001
21
1.9668503937007873
0
LINE
8
BLACK
6
CONTINUOUS
10
1.3300000000000001
20
1.9668503937007873
11
1.27
21
1.9668503937007873
0
LINE
8
BLACK
6
CONTINUOUS
10
1.27
20
1.9668503937007873
11
1.2687946850393701
21
1.967090157480315
0
LINE
8
BLACK
6
CONTINUOUS
10
1.2687946850393701
20
1.967090157480315
11
1.2677728740157479
21
1.9677728740157481
0
LINE
8
BLACK
6
CONTINUOUS
10
1.2677728740157479
20
1.9677728740157481
11
1.2670901574803148
21
1.9687946850393701
0
LINE
8
BLACK
6
CONTINUOUS
10
1.2670901574803148
20
1.9687946850393701
11
1.2668503937007873
21
1.97
0
LINE
8
BLACK
6
CONTINUOUS
10
1.2668503937007873
20
1.97
11
1.2668503937007873
21
2.0299999999999998
0
LINE
8
BLACK
6
CONTINUOUS
10
1.2668503937007873
20
2.0299999999999998
11
1.2670901574803148
21
2.0312053149606299
0
LINE
8
BLACK
6
CONTINUOUS
10
1.2670901574803148
20
2.0312053149606299
11
1.2677728740157479
21
2.0322271259842517
0
LINE
8
BLACK
6
CONTINUOUS
10
1.2677728740157479
20
2.0322271259842517
11
1.2687946850393701
21
2.0329098425196852
0
LINE
8
BLACK
6
CONTINUOUS
10
1.2687946850393701
20
2.0329098425196852
11
1.27
21
2.0331496062992125
0
LINE
8
BLACK
6
CONTINUOUS
10
1.27
20
2.0331496062992125
11
1.3300000000000001
21
2.0331496062992125
0
LINE
8
BLACK
6
CONTINUOUS
10
1.3300000000000001
20
2.0331496062992125
11
1.33120531496063
21
2.0329098425196852
0
LINE
8
BLACK
6
CONTINUOUS
10
1.4312053149606299
20
2.0329098425196852
11
1.4322271259842518
21
2.0322271259842517
0
LINE
8
BLACK
6
CONTINUOUS
10
1.4322271259842518
20
2.0322271259842517
11
1.4329098425196851
21
2.0312053149606299
0
LINE
8
BLACK
6
CONTINUOUS
10
1.4329098425196851
20
2.0312053149606299
11
1.4331496062992126
21
2.0299999999999998
0
LINE
8
BLACK
6
CONTINUOUS
10
1.4331496062992126
20
2.0299999999999998
11
1.4331496062992126
21
1.97
0
LINE
8
BLACK
6
CONTINUOUS
10
1.4331496062992126
20
1.97
11
1.4329098425196851
21
1.9687946850393701
0
LINE
8
BLACK
6
CONTINUOUS
10
1.4329098425196851
20
1.9687946850393701
11
1.4322271259842518
21
1.9677728740157481
0
LINE
8
BLACK
6
CONTINUOUS
10
1.4322271259842518
20
1.9677728740157481
11
1.4312053149606299
21
1.967090157480315
0
LINE
8
BLACK
6
CONTINUOUS
10
1.4312053149606299
20
1.967090157480315
11
1.4299999999999999
21
1.9668503937007873
0
LINE
8
BLACK
6
CONTINUOUS
10
1.4299999999999999
20
1.9668503937007873
11
1.3699999999999999
21
1.9668503937007873
0
LINE
8
BLACK
6
CONTINUOUS
10
1.3699999999999999
20
1.9668503937007873
11
1.36879468503937
21
1.967090157480315
0
LINE
8
BLACK
6
CONTINUOUS
10
1.36879468503937
20
1.967090157480315
11
1.367772874015748
21
1.9677728740157481
0
LINE
8
BLACK
6
CONTINUOUS
10
1.367772874015748
20
1.9677728740157481
11
1.3670901574803149
21
1.9687946850393701
0
LINE
8
BLACK
6
CONTINUOUS
10
1.3670901574803149
20
1.9687946850393701
11
1.3668503937007874
21
1.97
0
LINE
8
BLACK
6
CONTINUOUS
10
1.3668503937007874
20
1.97
11
1.3668503937007874
21
2.0299999999999998
0
LINE
8
BLACK
6
CONTINUOUS
10
1.3668503937007874
20
2.0299999999999998
11
1.3670901574803149
21
2.0312053149606299
0
LINE
8
BLACK
6
CONTINUOUS
10
1.3670901574803149
20
2.0312053149606299
11
1.367772874015748
21
2.0322271259842517
0
LINE
8
BLACK
6
CONTINUOUS
10
1.367772874015748
20
2.0322271259842517
11
1.36879468503937
21
2.0329098425196852
0
LINE
8
BLACK
6
CONTINUOUS
10
1.36879468503937
20
2.0329098425196852
11
1.3699999999999999
21
2.0331496062992125
0
LINE
8
BLACK
6
CONTINUOUS
10
1.3699999999999999
20
2.0331496062992125
11
1.4299999999999999
21
2.0331496062992125
0
LINE
8
BLACK
6
CONTINUOUS
10
1.4299999999999999
20
2.0331496062992125
11
1.4312053149606299
21
2.0329098425196852
0
LINE
8
BLACK
6
CONTINUOUS
10
1.5312053149606299
20
2.0329098425196852
11
1.5322271259842519
21
2.0322271259842517
0
LINE
8
BLACK
6
CONTINUOUS
10
1.5322271259842519
20
2.0322271259842517
11
1.532909842519685
21
2.0312053149606299
0
LINE
8
BLACK
6
CONTINUOUS
10
1.532909842519685
20
2.0312053149606299
11
1.5331496062992125
21
2.0299999999999998
0
LINE
8
BLACK
6
CONTINUOUS
10
1.5331496062992125
20
2.0299999999999998
11
1.5331496062992125
21
1.97
0
LINE
8
BLACK
6
CONTINUOUS
10
1.5331496062992125
20
1.97
11
1.532909842519685
21
1.9687946850393701
0
LINE
8
BLACK
6
CONTINUOUS
10
1.532909842519685
20
1.9687946850393701
11
1.5322271259842519
21
1.9677728740157481
0
LINE
8
BLACK
6
CONTINUOUS
10
1.5322271259842519
20
1.9677728740157481
11
1.5312053149606299
21
1.967090157480315
0
LINE
8
BLACK
6
CONTINUOUS
10
1.5312053149606299
20
1.967090157480315
11
1.53
21
1.9668503937007873
0
LINE
8
BLACK
6
CONTINUOUS
10
1.53
20
1.9668503937007873
11
1.47
21
1.9668503937007873
0
LINE
8
BLACK
6
CONTINUOUS
10
1.47
20
1.9668503937007873
11
1.4687946850393701
21
1.967090157480315
0
LINE
8
BLACK
6
CONTINUOUS
10
1.4687946850393701
20
1.967090157480315
11
1.4677728740157481
21
1.9677728740157481
0
LINE
8
BLACK
6
CONTINUOUS
10
1.4677728740157481
20
1.9677728740157481
11
1.467090157480315
21
1.9687946850393701
0
LINE
8
BLACK
6
CONTINUOUS
10
1.467090157480315
20
1.9687946850393701
11
1.4668503937007873
21
1.97
0
LINE
8
BLACK
6
CONTINUOUS
10
1.4668503937007873
20
1.97
11
1.4668503937007873
21
2.0299999999999998
0
LINE
8
BLACK
6
CONTINUOUS
10
1.4668503937007873
20
2.0299999999999998
11
1.467090157480315
21
2.0312053149606299
0
LINE
8
BLACK
6
CONTINUOUS
10
1.467090157480315
20
2.0312053149606299
11
1.4677728740157481
21
2.0322271259842517
0
LINE
8
BLACK
6
CONTINUOUS
10
1.4677728740157481
20
2.0322271259842517
11
1.4687946850393701
21
2.0329098425196852
0
LINE
8
BLACK
6
CONTINUOUS
10
1.4687946850393701
20
2.0329098425196852
11
1.47
21
2.0331496062992125
0
LINE
8
BLACK
6
CONTINUOUS
10
1.47
20
2.0331496062992125
11
1.53
21
2.0331496062992125
0
LINE
8
BLACK
6
CONTINUOUS
10
1.53
20
2.0331496062992125
11
1.5312053149606299
21
2.0329098425196852
0
LINE
8
BLACK
6
CONTINUOUS
10
1.6312053149606298
20
2.0329098425196852
11
1.632227125984252
21
2.0322271259842517
0
LINE
8
BLACK
6
CONTINUOUS
10
1.632227125984252
20
2.0322271259842517
11
1.6329098425196851
21
2.0312053149606299
0
LINE
8
BLACK
6
CONTINUOUS
10
1.6329098425196851
20
2.0312053149606299
11
1.6331496062992126
21
2.0299999999999998
0
LINE
8
BLACK
6
CONTINUOUS
10
1.6331496062992126
20
2.0299999999999998
11
1.6331496062992126
21
1.97
0
LINE
8
BLACK
6
CONTINUOUS
10
1.6331496062992126
20
1.97
11
1.6329098425196851
21
1.9687946850393701
0
LINE
8
BLACK
6
CONTINUOUS
10
1.6329098425196851
20
1.9687946850393701
11
1.632227125984252
21
1.9677728740157481
0
LINE
8
BLACK
6
CONTINUOUS
10
1.632227125984252
20
1.9677728740157481
11
1.6312053149606298
21
1.967090157480315
0
LINE
8
BLACK
6
CONTINUOUS
10
1.6312053149606298
20
1.967090157480315
11
1.6299999999999999
21
1.9668503937007873
0
LINE
8
BLACK
6
CONTINUOUS
10
1.6299999999999999
20
1.9668503937007873
11
1.5700000000000001
21
1.9668503937007873
0
LINE
8
BLACK
6
CONTINUOUS
10
1.5700000000000001
20
1.9668503937007873
11
1.5687946850393701
21
1.967090157480315
0
LINE
8
BLACK
6
CONTINUOUS
10
1.5687946850393701
20
1.967090157480315
11
1.5677728740157479
21
1.9677728740157481
0
LINE
8
BLACK
6
CONTINUOUS
10
1.5677728740157479
20
1.9677728740157481
11
1.5670901574803149
21
1.9687946850393701
0
LINE
8
BLACK
6
CONTINUOUS
10
1.5670901574803149
20
1.9687946850393701
11
1.5668503937007874
21
1.97
0
LINE
8
BLACK
6
CONTINUOUS
10
1.5668503937007874
20
1.97
11
1.5668503937007874
21
2.0299999999999998
0
LINE
8
BLACK
6
CONTINUOUS
10
1.5668503937007874
20
2.0299999999999998
11
1.5670901574803149
21
2.0312053149606299
0
LINE
8
BLACK
6
CONTINUOUS
10
1.5670901574803149
20
2.0312053149606299
11
1.5677728740157479
21
2.0322271259842517
0
LINE
8
BLACK
6
CONTINUOUS
10
1.5677728740157479
20
2.0322271259842517
11
1.5687946850393701
21
2.0329098425196852
0
LINE
8
BLACK
6
CONTINUOUS
10
1.5687946850393701
20
2.0329098425196852
11
1.5700000000000001
21
2.0331496062992125
0
LINE
8
BLACK
6
CONTINUOUS
10
1.5700000000000001
20
2.0331496062992125
11
1.6299999999999999
21
2.0331496062992125
0
LINE
8
BLACK
6
CONTINUOUS
10
1.6299999999999999
20
2.0331496062992125
11
1.6312053149606298
21
2.0329098425196852
0
LINE
8
BLACK
6
CONTINUOUS
10
1.7312053149606299
20
2.0329098425196852
11
1.7322271259842519
21
2.0322271259842517
0
LINE
8
BLACK
6
CONTINUOUS
10
1.7322271259842519
20
2.0322271259842517
11
1.7329098425196849
21
2.0312053149606299
0
LINE
8
BLACK
6
CONTINUOUS
10
1.7329098425196849
20
2.0312053149606299
11
1.7331496062992127
21
2.0299999999999998
0
LINE
8
BLACK
6
CONTINUOUS
10
1.7331496062992127
20
2.0299999999999998
11
1.7331496062992127
21
1.97
0
LINE
8
BLACK
6
CONTINUOUS
10
1.7331496062992127
20
1.97
11
1.7329098425196849
21
1.9687946850393701
0
LINE
8
BLACK
6
CONTINUOUS
10
1.7329098425196849
20
1.9687946850393701
11
1.7322271259842519
21
1.9677728740157481
0
LINE
8
BLACK
6
CONTINUOUS
10
1.7322271259842519
20
1.9677728740157481
11
1.7312053149606299
21
1.967090157480315
0
LINE
8
BLACK
6
CONTINUOUS
10
1.7312053149606299
20
1.967090157480315
11
1.73
21
1.9668503937007873
0
LINE
8
BLACK
6
CONTINUOUS
10
1.73
20
1.9668503937007873
11
1.6699999999999999
21
1.9668503937007873
0
LINE
8
BLACK
6
CONTINUOUS
10
1.6699999999999999
20
1.9668503937007873
11
1.66879468503937
21
1.967090157480315
0
LINE
8
BLACK
6
CONTINUOUS
10
1.66879468503937
20
1.967090157480315
11
1.667772874015748
21
1.9677728740157481
0
LINE
8
BLACK
6
CONTINUOUS
10
1.667772874015748
20
1.9677728740157481
11
1.667090157480315
21
1.9687946850393701
0
LINE
8
BLACK
6
CONTINUOUS
10
1.667090157480315
20
1.9687946850393701
11
1.6668503937007875
21
1.97
0
LINE
8
BLACK
6
CONTINUOUS
10
1.6668503937007875
20
1.97
11
1.6668503937007875
21
2.0299999999999998
0
LINE
8
BLACK
6
CONTINUOUS
10
1.6668503937007875
20
2.0299999999999998
11
1.667090157480315
21
2.0312053149606299
0
LINE
8
BLACK
6
CONTINUOUS
10
1.667090157480315
20
2.0312053149606299
11
1.667772874015748
21
2.0322271259842517
0
LINE
8
BLACK
6
CONTINUOUS
10
1.667772874015748
20
2.0322271259842517
11
1.66879468503937
21
2.0329098425196852
0
LINE
8
BLACK
6
CONTINUOUS
10
1.66879468503937
20
2.0329098425196852
11
1.6699999999999999
21
2.0331496062992125
0
LINE
8
BLACK
6
CONTINUOUS
10
1.6699999999999999
20
2.0331496062992125
11
1.73
21
2.0331496062992125
0
LINE
8
BLACK
6
CONTINUOUS
10
1.73
20
2.0331496062992125
11
1.7312053149606299
21
2.0329098425196852
0
LINE
8
BLACK
6
CONTINUOUS
10
1.8312053149606298
20
2.0329098425196852
11
1.832227125984252
21
2.0322271259842517
0
LINE
8
BLACK
6
CONTINUOUS
10
1.832227125984252
20
2.0322271259842517
11
1.832909842519685
21
2.0312053149606299
0
LINE
8
BLACK
6
CONTINUOUS
10
1.832909842519685
20
2.0312053149606299
11
1.8331496062992125
21
2.0299999999999998
0
LINE
8
BLACK
6
CONTINUOUS
10
1.8331496062992125
20
2.0299999999999998
11
1.8331496062992125
21
1.97
0
LINE
8
BLACK
6
CONTINUOUS
10
1.8331496062992125
20
1.97
11
1.832909842519685
21
1.9687946850393701
0
LINE
8
BLACK
6
CONTINUOUS
10
1.832909842519685
20
1.9687946850393701
11
1.832227125984252
21
1.9677728740157481
0
LINE
8
BLACK
6
CONTINUOUS
10
1.832227125984252
20
1.9677728740157481
11
1.8312053149606298
21
1.967090157480315
0
LINE
8
BLACK
6
CONTINUOUS
10
1.8312053149606298
20
1.967090157480315
11
1.8299999999999998
21
1.9668503937007873
0
LINE
8
BLACK
6
CONTINUOUS
10
1.8299999999999998
20
1.9668503937007873
11
1.77
21
1.9668503937007873
0
LINE
8
BLACK
6
CONTINUOUS
10
1.77
20
1.9668503937007873
11
1.7687946850393701
21
1.967090157480315
0
LINE
8
BLACK
6
CONTINUOUS
10
1.7687946850393701
20
1.967090157480315
11
1.7677728740157479
21
1.9677728740157481
0
LINE
8
BLACK
6
CONTINUOUS
10
1.7677728740157479
20
1.9677728740157481
11
1.7670901574803148
21
1.9687946850393701
0
LINE
8
BLACK
6
CONTINUOUS
10
1.7670901574803148
20
1.9687946850393701
11
1.7668503937007873
21
1.97
0
LINE
8
BLACK
6
CONTINUOUS
10
1.7668503937007873
20
1.97
11
1.7668503937007873
21
2.0299999999999998
0
LINE
8
BLACK
6
CONTINUOUS
10
1.7668503937007873
20
2.0299999999999998
11
1.7670901574803148
21
2.0312053149606299
0
LINE
8
BLACK
6
CONTINUOUS
10
1.7670901574803148
20
2.0312053149606299
11
1.7677728740157479
21
2.0322271259842517
0
LINE
8
BLACK
6
CONTINUOUS
10
1.7677728740157479
20
2.0322271259842517
11
1.7687946850393701
21
2.0329098425196852
0
LINE
8
BLACK
6
CONTINUOUS
10
1.7687946850393701
20
2.0329098425196852
11
1.77
21
2.0331496062992125
0
LINE
8
BLACK
6
CONTINUOUS
10
1.77
20
2.0331496062992125
11
1.8299999999999998
21
2.0331496062992125
0
LINE
8
BLACK
6
CONTINUOUS
10
1.8299999999999998
20
2.0331496062992125
11
1.8312053149606298
21
2.0329098425196852
0
LINE
8
BLACK
6
CONTINUOUS
10
1.9312053149606299
20
2.0329098425196852
11
1.9322271259842518
21
2.0322271259842517
0
LINE
8
BLACK
6
CONTINUOUS
10
1.9322271259842518
20
2.0322271259842517
11
1.9329098425196849
21
2.0312053149606299
0
LINE
8
BLACK
6
CONTINUOUS
10
1.9329098425196849
20
2.0312053149606299
11
1.9331496062992126
21
2.0299999999999998
0
LINE
8
BLACK
6
CONTINUOUS
10
1.9331496062992126
20
2.0299999999999998
11
1.9331496062992126
21
1.97
0
LINE
8
BLACK
6
CONTINUOUS
10
1.9331496062992126
20
1.97
11
1.9329098425196849
21
1.9687946850393701
0
LINE
8
BLACK
6
CONTINUOUS
10
1.9329098425196849
20
1.9687946850393701
11
1.9322271259842518
21
1.9677728740157481
0
LINE
8
BLACK
6
CONTINUOUS
10
1.9322271259842518
20
1.9677728740157481
11
1.9312053149606299
21
1.967090157480315
0
LINE
8
BLACK
6
CONTINUOUS
10
1.9312053149606299
20
1.967090157480315
11
1.9299999999999999
21
1.9668503937007873
0
LINE
8
BLACK
6
CONTINUOUS
10
1.9299999999999999
20
1.9668503937007873
11
1.8699999999999999
21
1.9668503937007873
0
LINE
8
BLACK
6
CONTINUOUS
10
1.8699999999999999
20
1.9668503937007873
11
1.86879468503937
21
1.967090157480315
0
LINE
8
BLACK
6
CONTINUOUS
10
1.86879468503937
20
1.967090157480315
11
1.867772874015748
21
1.9677728740157481
0
LINE
8
BLACK
6
CONTINUOUS
10
1.867772874015748
20
1.9677728740157481
11
1.8670901574803149
21
1.9687946850393701
0
LINE
8
BLACK
6
CONTINUOUS
10
1.8670901574803149
20
1.9687946850393701
11
1.8668503937007874
21
1.97
0
LINE
8
BLACK
6
CONTINUOUS
10
1.8668503937007874
20
1.97
11
1.8668503937007874
21
2.0299999999999998
0
LINE
8
BLACK
6
CONTINUOUS
10
1.8668503937007874
20
2.0299999999999998
11
1.8670901574803149
21
2.0312053149606299
0
LINE
8
BLACK
6
CONTINUOUS
10
1.8670901574803149
20
2.0312053149606299
11
1.867772874015748
21
2.0322271259842517
0
LINE
8
BLACK
6
CONTINUOUS
10
1.867772874015748
20
2.0322271259842517
11
1.86879468503937
21
2.0329098425196852
0
LINE
8
BLACK
6
CONTINUOUS
10
1.86879468503937
20
2.0329098425196852
11
1.8699999999999999
21
2.0331496062992125
0
LINE
8
BLACK
6
CONTINUOUS
10
1.8699999999999999
20
2.0331496062992125
11
1.9299999999999999
21
2.0331496062992125
0
LINE
8
BLACK
6
CONTINUOUS
10
1.9299999999999999
20
2.0331496062992125
11
1.9312053149606299
21
2.0329098425196852
0
LINE
8
BLACK
6
CONTINUOUS
10
2.0312053149606299
20
2.0329098425196852
11
2.0322271259842517
21
2.0322271259842517
0
LINE
8
BLACK
6
CONTINUOUS
10
2.0322271259842517
20
2.0322271259842517
11
2.0329098425196852
21
2.0312053149606299
0
LINE
8
BLACK
6
CONTINUOUS
10
2.0329098425196852
20
2.0312053149606299
11
2.0331496062992125
21
2.0299999999999998
0
LINE
8
BLACK
6
CONTINUOUS
10
2.0331496062992125
20
2.0299999999999998
11
2.0331496062992125
21
1.97
0
LINE
8
BLACK
6
CONTINUOUS
10
2.0331496062992125
20
1.97
11
2.0329098425196852
21
1.9687946850393701
0
LINE
8
BLACK
6
CONTINUOUS
10
2.0329098425196852
20
1.9687946850393701
11
2.0322271259842517
21
1.9677728740157481
0
LINE
8
BLACK
6
CONTINUOUS
10
2.0322271259842517
20
1.9677728740157481
11
2.0312053149606299
21
1.967090157480315
0
LINE
8
BLACK
6
CONTINUOUS
10
2.0312053149606299
20
1.967090157480315
11
2.0299999999999998
21
1.9668503937007873
0
LINE
8
BLACK
6
CONTINUOUS
10
2.0299999999999998
20
1.9668503937007873
11
1.97
21
1.9668503937007873
0
LINE
8
BLACK
6
CONTINUOUS
10
1.97
20
1.9668503937007873
11
1.9687946850393701
21
1.967090157480315
0
LINE
8
BLACK
6
CONTINUOUS
10
1.9687946850393701
20
1.967090157480315
11
1.9677728740157481
21
1.9677728740157481
0
LINE
8
BLACK
6
CONTINUOUS
10
1.9677728740157481
20
1.9677728740157481
11
1.967090157480315
21
1.9687946850393701
0
LINE
8
BLACK
6
CONTINUOUS
10
1.967090157480315
20
1.9687946850393701
11
1.9668503937007873
21
1.97
0
LINE
8
BLACK
6
CONTINUOUS
10
1.9668503937007873
20
1.97
11
1.9668503937007873
21
2.0299999999999998
0
LINE
8
BLACK
6
CONTINUOUS
10
1.9668503937007873
20
2.0299999999999998
11
1.967090157480315
21
2.0312053149606299
0
LINE
8
BLACK
6
CONTINUOUS
10
1.967090157480315
20
2.0312053149606299
11
1.9677728740157481
21
2.0322271259842517
0
LINE
8
BLACK
6
CONTINUOUS
10
1.9677728740157481
20
2.0322271259842517
11
1.9687946850393701
21
2.0329098425196852
0
LINE
8
BLACK
6
CONTINUOUS
10
1.9687946850393701
20
2.0329098425196852
11
1.97
21
2.0331496062992125
0
LINE
8
BLACK
6
CONTINUOUS
10
1.97
20
2.0331496062992125
11
2.0299999999999998
21
2.0331496062992125
0
LINE
8
BLACK
6
CONTINUOUS
10
2.0299999999999998
20
2.0331496062992125
11
2.0312053149606299
21
2.0329098425196852
0
LINE
8
BLACK
6
CONTINUOUS
10
2.13120531496063
20
2.0329098425196852
11
2.1322271259842518
21
2.0322271259842517
0
LINE
8
BLACK
6
CONTINUOUS
10
2.1322271259842518
20
2.0322271259842517
11
2.1329098425196849
21
2.0312053149606299
0
LINE
8
BLACK
6
CONTINUOUS
10
2.1329098425196849
20
2.0312053149606299
11
2.1331496062992126
21
2.0299999999999998
0
LINE
8
BLACK
6
CONTINUOUS
10
2.1331496062992126
20
2.0299999999999998
11
2.1331496062992126
21
1.97
0
LINE
8
BLACK
6
CONTINUOUS
10
2.1331496062992126
20
1.97
11
2.1329098425196849
21
1.9687946850393701
0
LINE
8
BLACK
6
CONTINUOUS
10
2.1329098425196849
20
1.9687946850393701
11
2.1322271259842518
21
1.9677728740157481
0
LINE
8
BLACK
6
CONTINUOUS
10
2.1322271259842518
20
1.9677728740157481
11
2.13120531496063
21
1.967090157480315
0
LINE
8
BLACK
6
CONTINUOUS
10
2.13120531496063
20
1.967090157480315
11
2.1299999999999999
21
1.9668503937007873
0
LINE
8
BLACK
6
CONTINUOUS
10
2.1299999999999999
20
1.9668503937007873
11
2.0699999999999998
21
1.9668503937007873
0
LINE
8
BLACK
6
CONTINUOUS
10
2.0699999999999998
20
1.9668503937007873
11
2.0687946850393701
21
1.967090157480315
0
LINE
8
BLACK
6
CONTINUOUS
10
2.0687946850393701
20
1.967090157480315
11
2.0677728740157479
21
1.9677728740157481
0
LINE
8
BLACK
6
CONTINUOUS
10
2.0677728740157479
20
1.9677728740157481
11
2.0670901574803149
21
1.9687946850393701
0
LINE
8
BLACK
6
CONTINUOUS
10
2.0670901574803149
20
1.9687946850393701
11
2.0668503937007872
21
1.97
0
LINE
8
BLACK
6
CONTINUOUS
10
2.0668503937007872
20
1.97
11
2.0668503937007872
21
2.0299999999999998
0
LINE
8
BLACK
6
CONTINUOUS
10
2.0668503937007872
20
2.0299999999999998
11
2.0670901574803149
21
2.0312053149606299
0
LINE
8
BLACK
6
CONTINUOUS
10
2.0670901574803149
20
2.0312053149606299
11
2.0677728740157479
21
2.0322271259842517
0
LINE
8
BLACK
6
CONTINUOUS
10
2.0677728740157479
20
2.0322271259842517
11
2.0687946850393701
21
2.0329098425196852
0
LINE
8
BLACK
6
CONTINUOUS
10
2.0687946850393701
20
2.0329098425196852
11
2.0699999999999998
21
2.0331496062992125
0
LINE
8
BLACK
6
CONTINUOUS
10
2.0699999999999998
20
2.0331496062992125
11
2.1299999999999999
21
2.0331496062992125
0
LINE
8
BLACK
6
CONTINUOUS
10
2.1299999999999999
20
2.0331496062992125
11
2.13120531496063
21
2.0329098425196852
0
LINE
8
BLACK
6
CONTINUOUS
10
2.2312053149606297
20
2.0329098425196852
11
2.2322271259842519
21
2.0322271259842517
0
LINE
8
BLACK
6
CONTINUOUS
10
2.2322271259842519
20
2.0322271259842517
11
2.2329098425196849
21
2.0312053149606299
0
LINE
8
BLACK
6
CONTINUOUS
10
2.2329098425196849
20
2.0312053149606299
11
2.2331496062992127
21
2.0299999999999998
0
LINE
8
BLACK
6
CONTINUOUS
10
2.2331496062992127
20
2.0299999999999998
11
2.2331496062992127
21
1.97
0
LINE
8
BLACK
6
CONTINUOUS
10
2.2331496062992127
20
1.97
11
2.2329098425196849
21
1.9687946850393701
0
LINE
8
BLACK
6
CONTINUOUS
10
2.2329098425196849
20
1.9687946850393701
11
2.2322271259842519
21
1.9677728740157481
0
LINE
8
BLACK
6
CONTINUOUS
10
2.2322271259842519
20
1.9677728740157481
11
2.2312053149606297
21
1.967090157480315
0
LINE
8
BLACK
6
CONTINUOUS
10
2.2312053149606297
20
1.967090157480315
11
2.23
21
1.9668503937007873
0
LINE
8
BLACK
6
CONTINUOUS
10
2.23
20
1.9668503937007873
11
2.1699999999999999
21
1.9668503937007873
0
LINE
8
BLACK
6
CONTINUOUS
10
2.1699999999999999
20
1.9668503937007873
11
2.1687946850393702
21
1.967090157480315
0
LINE
8
BLACK
6
CONTINUOUS
10
2.1687946850393702
20
1.967090157480315
11
2.167772874015748
21
1.9677728740157481
0
LINE
8
BLACK
6
CONTINUOUS
10
2.167772874015748
20
1.9677728740157481
11
2.167090157480315
21
1.9687946850393701
0
LINE
8
BLACK
6
CONTINUOUS
10
2.167090157480315
20
1.9687946850393701
11
2.1668503937007872
21
1.97
0
LINE
8
BLACK
6
CONTINUOUS
10
2.1668503937007872
20
1.97
11
2.1668503937007872
21
2.0299999999999998
0
LINE
8
BLACK
6
CONTINUOUS
10
2.1668503937007872
20
2.0299999999999998
11
2.167090157480315
21
2.0312053149606299
0
LINE
8
BLACK
6
CONTINUOUS
10
2.167090157480315
20
2.0312053149606299
11
2.167772874015748
21
2.0322271259842517
0
LINE
8
BLACK
6
CONTINUOUS
10
2.167772874015748
20
2.0322271259842517
11
2.1687946850393702
21
2.0329098425196852
0
LINE
8
BLACK
6
CONTINUOUS
10
2.1687946850393702
20
2.0329098425196852
11
2.1699999999999999
21
2.0331496062992125
0
LINE
8
BLACK
6
CONTINUOUS
10
2.1699999999999999
20
2.0331496062992125
11
2.23
21
2.0331496062992125
0
LINE
8
BLACK
6
CONTINUOUS
10
2.23
20
2.0331496062992125
11
2.2312053149606297
21
2.0329098425196852
0
LINE
8
BLACK
6
CONTINUOUS
10
2.3312053149606298
20
2.0329098425196852
11
2.332227125984252
21
2.0322271259842517
0
LINE
8
BLACK
6
CONTINUOUS
10
2.332227125984252
20
2.0322271259842517
11
2.332909842519685
21
2.0312053149606299
0
LINE
8
BLACK
6
CONTINUOUS
10
2.332909842519685
20
2.0312053149606299
11
2.3331496062992128
21
2.0299999999999998
0
LINE
8
BLACK
6
CONTINUOUS
10
2.3331496062992128
20
2.0299999999999998
11
2.3331496062992128
21
1.97
0
LINE
8
BLACK
6
CONTINUOUS
10
2.3331496062992128
20
1.97
11
2.332909842519685
21
1.9687946850393701
0
LINE
8
BLACK
6
CONTINUOUS
10
2.332909842519685
20
1.9687946850393701
11
2.332227125984252
21
1.9677728740157481
0
LINE
8
BLACK
6
CONTINUOUS
10
2.332227125984252
20
1.9677728740157481
11
2.3312053149606298
21
1.967090157480315
0
LINE
8
BLACK
6
CONTINUOUS
10
2.3312053149606298
20
1.967090157480315
11
2.3300000000000001
21
1.9668503937007873
0
LINE
8
BLACK
6
CONTINUOUS
10
2.3300000000000001
20
1.9668503937007873
11
2.27
21
1.9668503937007873
0
LINE
8
BLACK
6
CONTINUOUS
10
2.27
20
1.9668503937007873
11
2.2687946850393699
21
1.967090157480315
0
LINE
8
BLACK
6
CONTINUOUS
10
2.2687946850393699
20
1.967090157480315
11
2.2677728740157481
21
1.9677728740157481
0
LINE
8
BLACK
6
CONTINUOUS
10
2.2677728740157481
20
1.9677728740157481
11
2.2670901574803151
21
1.9687946850393701
0
LINE
8
BLACK
6
CONTINUOUS
10
2.2670901574803151
20
1.9687946850393701
11
2.2668503937007873
21
1.97
0
LINE
8
BLACK
6
CONTINUOUS
10
2.2668503937007873
20
1.97
11
2.2668503937007873
21
2.0299999999999998
0
LINE
8
BLACK
6
CONTINUOUS
10
2.2668503937007873
20
2.0299999999999998
11
2.2670901574803151
21
2.0312053149606299
0
LINE
8
BLACK
6
CONTINUOUS
10
2.2670901574803151
20
2.0312053149606299
11
2.2677728740157481
21
2.0322271259842517
0
LINE
8
BLACK
6
CONTINUOUS
10
2.2677728740157481
20
2.0322271259842517
11
2.2687946850393699
21
2.0329098425196852
0
LINE
8
BLACK
6
CONTINUOUS
10
2.2687946850393699
20
2.0329098425196852
11
2.27
21
2.0331496062992125
0
LINE
8
BLACK
6
CONTINUOUS
10
2.27
20
2.0331496062992125
11
2.3300000000000001
21
2.0331496062992125
0
LINE
8
BLACK
6
CONTINUOUS
10
2.3300000000000001
20
2.0331496062992125
11
2.3312053149606298
21
2.0329098425196852
0
LINE
8
BLACK
6
CONTINUOUS
10
0.9312053149606299
20
2.1329098425196849
11
0.9322271259842519
21
2.1322271259842518
0
LINE
8
BLACK
6
CONTINUOUS
10
0.9322271259842519
20
2.1322271259842518
11
0.932909842519685
21
2.13120531496063
0
LINE
8
BLACK
6
CONTINUOUS
10
0.932909842519685
20
2.13120531496063
11
0.9331496062992126
21
2.1299999999999999
0
LINE
8
BLACK
6
CONTINUOUS
10
0.9331496062992126
20
2.1299999999999999
11
0.9331496062992126
21
2.0699999999999998
0
LINE
8
BLACK
6
CONTINUOUS
10
0.9331496062992126
20
2.0699999999999998
11
0.932909842519685
21
2.0687946850393701
0
LINE
8
BLACK
6
CONTINUOUS
10
0.932909842519685
20
2.0687946850393701
11
0.9322271259842519
21
2.0677728740157479
0
LINE
8
BLACK
6
CONTINUOUS
10
0.9322271259842519
20
2.0677728740157479
11
0.9312053149606299
21
2.0670901574803149
0
LINE
8
BLACK
6
CONTINUOUS
10
0.9312053149606299
20
2.0670901574803149
11
0.9299999999999999
21
2.0668503937007872
0
LINE
8
BLACK
6
CONTINUOUS
10
0.9299999999999999
20
2.0668503937007872
11
0.87
21
2.0668503937007872
0
LINE
8
BLACK
6
CONTINUOUS
10
0.87
20
2.0668503937007872
11
0.8687946850393701
21
2.0670901574803149
0
LINE
8
BLACK
6
CONTINUOUS
10
0.8687946850393701
20
2.0670901574803149
11
0.867772874015748
21
2.0677728740157479
0
LINE
8
BLACK
6
CONTINUOUS
10
0.867772874015748
20
2.0677728740157479
11
0.8670901574803149
21
2.0687946850393701
0
LINE
8
BLACK
6
CONTINUOUS
10
0.8670901574803149
20
2.0687946850393701
11
0.8668503937007874
21
2.0699999999999998
0
LINE
8
BLACK
6
CONTINUOUS
10
0.8668503937007874
20
2.0699999999999998
11
0.8668503937007874
21
2.1299999999999999
0
LINE
8
BLACK
6
CONTINUOUS
10
0.8668503937007874
20
2.1299999999999999
11
0.8670901574803149
21
2.13120531496063
0
LINE
8
BLACK
6
CONTINUOUS
10
0.8670901574803149
20
2.13120531496063
11
0.867772874015748
21
2.1322271259842518
0
LINE
8
BLACK
6
CONTINUOUS
10
0.867772874015748
20
2.1322271259842518
11
0.8687946850393701
21
2.1329098425196849
0
LINE
8
BLACK
6
CONTINUOUS
10
0.8687946850393701
20
2.1329098425196849
11
0.87
21
2.1331496062992126
0
LINE
8
BLACK
6
CONTINUOUS
10
0.87
20
2.1331496062992126
11
0.9299999999999999
21
2.1331496062992126
0
LINE
8
BLACK
6
CONTINUOUS
10
0.9299999999999999
20
2.1331496062992126
11
0.9312053149606299
21
2.1329098425196849
0
LINE
8
BLACK
6
CONTINUOUS
10
1.0312053149606299
20
2.1329098425196849
11
1.0322271259842519
21
2.1322271259842518
0
LINE
8
BLACK
6
CONTINUOUS
10
1.0322271259842519
20
2.1322271259842518
11
1.032909842519685
21
2.13120531496063
0
LINE
8
BLACK
6
CONTINUOUS
10
1.032909842519685
20
2.13120531496063
11
1.0331496062992125
21
2.1299999999999999
0
LINE
8
BLACK
6
CONTINUOUS
10
1.0331496062992125
20
2.1299999999999999
11
1.0331496062992125
21
2.0699999999999998
0
LINE
8
BLACK
6
CONTINUOUS
10
1.0331496062992125
20
2.0699999999999998
11
1.032909842519685
21
2.0687946850393701
0
LINE
8
BLACK
6
CONTINUOUS
10
1.032909842519685
20
2.0687946850393701
11
1.0322271259842519
21
2.0677728740157479
0
LINE
8
BLACK
6
CONTINUOUS
10
1.0322271259842519
20
2.0677728740157479
11
1.0312053149606299
21
2.0670901574803149
0
LINE
8
BLACK
6
CONTINUOUS
10
1.0312053149606299
20
2.0670901574803149
11
1.03
21
2.0668503937007872
0
LINE
8
BLACK
6
CONTINUOUS
10
1.03
20
2.0668503937007872
11
0.97
21
2.0668503937007872
0
LINE
8
BLACK
6
CONTINUOUS
10
0.97
20
2.0668503937007872
11
0.9687946850393701
21
2.0670901574803149
0
LINE
8
BLACK
6
CONTINUOUS
10
0.9687946850393701
20
2.0670901574803149
11
0.967772874015748
21
2.0677728740157479
0
LINE
8
BLACK
6
CONTINUOUS
10
0.967772874015748
20
2.0677728740157479
11
0.9670901574803149
21
2.0687946850393701
0
LINE
8
BLACK
6
CONTINUOUS
10
0.9670901574803149
20
2.0687946850393701
11
0.9668503937007874
21
2.0699999999999998
0
LINE
8
BLACK
6
CONTINUOUS
10
0.9668503937007874
20
2.0699999999999998
11
0.9668503937007874
21
2.1299999999999999
0
LINE
8
BLACK
6
CONTINUOUS
10
0.9668503937007874
20
2.1299999999999999
11
0.9670901574803149
21
2.13120531496063
0
LINE
8
BLACK
6
CONTINUOUS
10
0.9670901574803149
20
2.13120531496063
11
0.967772874015748
21
2.1322271259842518
0
LINE
8
BLACK
6
CONTINUOUS
10
0.967772874015748
20
2.1322271259842518
11
0.9687946850393701
21
2.1329098425196849
0
LINE
8
BLACK
6
CONTINUOUS
10
0.9687946850393701
20
2.1329098425196849
11
0.97
21
2.1331496062992126
0
LINE
8
BLACK
6
CONTINUOUS
10
0.97
20
2.1331496062992126
11
1.03
21
2.1331496062992126
0
LINE
8
BLACK
6
CONTINUOUS
10
1.03
20
2.1331496062992126
11
1.0312053149606299
21
2.1329098425196849
0
LINE
8
BLACK
6
CONTINUOUS
10
1.1312053149606298
20
2.1329098425196849
11
1.132227125984252
21
2.1322271259842518
0
LINE
8
BLACK
6
CONTINUOUS
10
1.132227125984252
20
2.1322271259842518
11
1.1329098425196851
21
2.13120531496063
0
LINE
8
BLACK
6
CONTINUOUS
10
1.1329098425196851
20
2.13120531496063
11
1.1331496062992126
21
2.1299999999999999
0
LINE
8
BLACK
6
CONTINUOUS
10
1.1331496062992126
20
2.1299999999999999
11
1.1331496062992126
21
2.0699999999999998
0
LINE
8
BLACK
6
CONTINUOUS
10
1.1331496062992126
20
2.0699999999999998
11
1.1329098425196851
21
2.0687946850393701
0
LINE
8
BLACK
6
CONTINUOUS
10
1.1329098425196851
20
2.0687946850393701
11
1.132227125984252
21
2.0677728740157479
0
LINE
8
BLACK
6
CONTINUOUS
10
1.132227125984252
20
2.0677728740157479
11
1.1312053149606298
21
2.0670901574803149
0
LINE
8
BLACK
6
CONTINUOUS
10
1.1312053149606298
20
2.0670901574803149
11
1.1299999999999999
21
2.0668503937007872
0
LINE
8
BLACK
6
CONTINUOUS
10
1.1299999999999999
20
2.0668503937007872
11
1.0700000000000001
21
2.0668503937007872
0
LINE
8
BLACK
6
CONTINUOUS
10
1.0700000000000001
20
2.0668503937007872
11
1.0687946850393701
21
2.0670901574803149
0
LINE
8
BLACK
6
CONTINUOUS
10
1.0687946850393701
20
2.0670901574803149
11
1.0677728740157479
21
2.0677728740157479
0
LINE
8
BLACK
6
CONTINUOUS
10
1.0677728740157479
20
2.0677728740157479
11
1.0670901574803149
21
2.0687946850393701
0
LINE
8
BLACK
6
CONTINUOUS
10
1.0670901574803149
20
2.0687946850393701
11
1.0668503937007874
21
2.0699999999999998
0
LINE
8
BLACK
6
CONTINUOUS
10
1.0668503937007874
20
2.0699999999999998
11
1.0668503937007874
21
2.1299999999999999
0
LINE
8
BLACK
6
CONTINUOUS
10
1.0668503937007874
20
2.1299999999999999
11
1.0670901574803149
21
2.13120531496063
0
LINE
8
BLACK
6
CONTINUOUS
10
1.0670901574803149
20
2.13120531496063
11
1.0677728740157479
21
2.1322271259842518
0
LINE
8
BLACK
6
CONTINUOUS
10
1.0677728740157479
20
2.1322271259842518
11
1.0687946850393701
21
2.1329098425196849
0
LINE
8
BLACK
6
CONTINUOUS
10
1.0687946850393701
20
2.1329098425196849
11
1.0700000000000001
21
2.1331496062992126
0
LINE
8
BLACK
6
CONTINUOUS
10
1.0700000000000001
20
2.1331496062992126
11
1.1299999999999999
21
2.1331496062992126
0
LINE
8
BLACK
6
CONTINUOUS
10
1.1299999999999999
20
2.1331496062992126
11
1.1312053149606298
21
2.1329098425196849
0
LINE
8
BLACK
6
CONTINUOUS
10
1.2312053149606299
20
2.1329098425196849
11
1.2322271259842519
21
2.1322271259842518
0
LINE
8
BLACK
6
CONTINUOUS
10
1.2322271259842519
20
2.1322271259842518
11
1.2329098425196849
21
2.13120531496063
0
LINE
8
BLACK
6
CONTINUOUS
10
1.2329098425196849
20
2.13120531496063
11
1.2331496062992127
21
2.1299999999999999
0
LINE
8
BLACK
6
CONTINUOUS
10
1.2331496062992127
20
2.1299999999999999
11
1.2331496062992127
21
2.0699999999999998
0
LINE
8
BLACK
6
CONTINUOUS
10
1.2331496062992127
20
2.0699999999999998
11
1.2329098425196849
21
2.0687946850393701
0
LINE
8
BLACK
6
CONTINUOUS
10
1.2329098425196849
20
2.0687946850393701
11
1.2322271259842519
21
2.0677728740157479
0
LINE
8
BLACK
6
CONTINUOUS
10
1.2322271259842519
20
2.0677728740157479
11
1.2312053149606299
21
2.0670901574803149
0
LINE
8
BLACK
6
CONTINUOUS
10
1.2312053149606299
20
2.0670901574803149
11
1.23
21
2.0668503937007872
0
LINE
8
BLACK
6
CONTINUOUS
10
1.23
20
2.0668503937007872
11
1.1699999999999999
21
2.0668503937007872
0
LINE
8
BLACK
6
CONTINUOUS
10
1.1699999999999999
20
2.0668503937007872
11
1.16879468503937
21
2.0670901574803149
0
LINE
8
BLACK
6
CONTINUOUS
10
1.16879468503937
20
2.0670901574803149
11
1.167772874015748
21
2.0677728740157479
0
LINE
8
BLACK
6
CONTINUOUS
10
1.167772874015748
20
2.0677728740157479
11
1.167090157480315
21
2.0687946850393701
0
LINE
8
BLACK
6
CONTINUOUS
10
1.167090157480315
20
2.0687946850393701
11
1.1668503937007875
21
2.0699999999999998
0
LINE
8
BLACK
6
CONTINUOUS
10
1.1668503937007875
20
2.0699999999999998
11
1.1668503937007875
21
2.1299999999999999
0
LINE
8
BLACK
6
CONTINUOUS
10
1.1668503937007875
20
2.1299999999999999
11
1.167090157480315
21
2.13120531496063
0
LINE
8
BLACK
6
CONTINUOUS
10
1.167090157480315
20
2.13120531496063
11
1.167772874015748
21
2.1322271259842518
0
LINE
8
BLACK
6
CONTINUOUS
10
1.167772874015748
20
2.1322271259842518
11
1.16879468503937
21
2.1329098425196849
0
LINE
8
BLACK
6
CONTINUOUS
10
1.16879468503937
20
2.1329098425196849
11
1.1699999999999999
21
2.1331496062992126
0
LINE
8
BLACK
6
CONTINUOUS
10
1.1699999999999999
20
2.1331496062992126
11
1.23
21
2.1331496062992126
0
LINE
8
BLACK
6
CONTINUOUS
10
1.23
20
2.1331496062992126
11
1.2312053149606299
21
2.1329098425196849
0
LINE
8
BLACK
6
CONTINUOUS
10
1.33120531496063
20
2.1329098425196849
11
1.332227125984252
21
2.1322271259842518
0
LINE
8
BLACK
6
CONTINUOUS
10
1.332227125984252
20
2.1322271259842518
11
1.332909842519685
21
2.13120531496063
0
LINE
8
BLACK
6
CONTINUOUS
10
1.332909842519685
20
2.13120531496063
11
1.3331496062992125
21
2.1299999999999999
0
LINE
8
BLACK
6
CONTINUOUS
10
1.3331496062992125
20
2.1299999999999999
11
1.3331496062992125
21
2.0699999999999998
0
LINE
8
BLACK
6
CONTINUOUS
10
1.3331496062992125
20
2.0699999999999998
11
1.332909842519685
21
2.0687946850393701
0
LINE
8
BLACK
6
CONTINUOUS
10
1.332909842519685
20
2.0687946850393701
11
1.332227125984252
21
2.0677728740157479
0
LINE
8
BLACK
6
CONTINUOUS
10
1.332227125984252
20
2.0677728740157479
11
1.33120531496063
21
2.0670901574803149
0
LINE
8
BLACK
6
CONTINUOUS
10
1.33120531496063
20
2.0670901574803149
11
1.3300000000000001
21
2.0668503937007872
0
LINE
8
BLACK
6
CONTINUOUS
10
1.3300000000000001
20
2.0668503937007872
11
1.27
21
2.0668503937007872
0
LINE
8
BLACK
6
CONTINUOUS
10
1.27
20
2.0668503937007872
11
1.2687946850393701
21
2.0670901574803149
0
LINE
8
BLACK
6
CONTINUOUS
10
1.2687946850393701
20
2.0670901574803149
11
1.2677728740157479
21
2.0677728740157479
0
LINE
8
BLACK
6
CONTINUOUS
10
1.2677728740157479
20
2.0677728740157479
11
1.2670901574803148
21
2.0687946850393701
0
LINE
8
BLACK
6
CONTINUOUS
10
1.2670901574803148
20
2.0687946850393701
11
1.2668503937007873
21
2.0699999999999998
0
LINE
8
BLACK
6
CONTINUOUS
10
1.2668503937007873
20
2.0699999999999998
11
1.2668503937007873
21
2.1299999999999999
0
LINE
8
BLACK
6
CONTINUOUS
10
1.2668503937007873
20
2.1299999999999999
11
1.2670901574803148
21
2.13120531496063
0
LINE
8
BLACK
6
CONTINUOUS
10
1.2670901574803148
20
2.13120531496063
11
1.2677728740157479
21
2.1322271259842518
0
LINE
8
BLACK
6
CONTINUOUS
10
1.2677728740157479
20
2.1322271259842518
11
1.2687946850393701
21
2.1329098425196849
0
LINE
8
BLACK
6
CONTINUOUS
10
1.2687946850393701
20
2.1329098425196849
11
1.27
21
2.1331496062992126
0
LINE
8
BLACK
6
CONTINUOUS
10
1.27
20
2.1331496062992126
11
1.3300000000000001
21
2.1331496062992126
0
LINE
8
BLACK
6
CONTINUOUS
10
1.3300000000000001
20
2.1331496062992126
11
1.33120531496063
21
2.1329098425196849
0
LINE
8
BLACK
6
CONTINUOUS
10
1.4312053149606299
20
2.1329098425196849
11
1.4322271259842518
21
2.1322271259842518
0
LINE
8
BLACK
6
CONTINUOUS
10
1.4322271259842518
20
2.1322271259842518
11
1.4329098425196851
21
2.13120531496063
0
LINE
8
BLACK
6
CONTINUOUS
10
1.4329098425196851
20
2.13120531496063
11
1.4331496062992126
21
2.1299999999999999
0
LINE
8
BLACK
6
CONTINUOUS
10
1.4331496062992126
20
2.1299999999999999
11
1.4331496062992126
21
2.0699999999999998
0
LINE
8
BLACK
6
CONTINUOUS
10
1.4331496062992126
20
2.0699999999999998
11
1.4329098425196851
21
2.0687946850393701
0
LINE
8
BLACK
6
CONTINUOUS
10
1.4329098425196851
20
2.0687946850393701
11
1.4322271259842518
21
2.0677728740157479
0
LINE
8
BLACK
6
CONTINUOUS
10
1.4322271259842518
20
2.0677728740157479
11
1.4312053149606299
21
2.0670901574803149
0
LINE
8
BLACK
6
CONTINUOUS
10
1.4312053149606299
20
2.0670901574803149
11
1.4299999999999999
21
2.0668503937007872
0
LINE
8
BLACK
6
CONTINUOUS
10
1.4299999999999999
20
2.0668503937007872
11
1.3699999999999999
21
2.0668503937007872
0
LINE
8
BLACK
6
CONTINUOUS
10
1.3699999999999999
20
2.0668503937007872
11
1.36879468503937
21
2.0670901574803149
0
LINE
8
BLACK
6
CONTINUOUS
10
1.36879468503937
20
2.0670901574803149
11
1.367772874015748
21
2.0677728740157479
0
LINE
8
BLACK
6
CONTINUOUS
10
1.367772874015748
20
2.0677728740157479
11
1.3670901574803149
21
2.0687946850393701
0
LINE
8
BLACK
6
CONTINUOUS
10
1.3670901574803149
20
2.0687946850393701
11
1.3668503937007874
21
2.0699999999999998
0
LINE
8
BLACK
6
CONTINUOUS
10
1.3668503937007874
20
2.0699999999999998
11
1.3668503937007874
21
2.1299999999999999
0
LINE
8
BLACK
6
CONTINUOUS
10
1.3668503937007874
20
2.1299999999999999
11
1.3670901574803149
21
2.13120531496063
0
LINE
8
BLACK
6
CONTINUOUS
10
1.3670901574803149
20
2.13120531496063
11
1.367772874015748
21
2.1322271259842518
0
LINE
8
BLACK
6
CONTINUOUS
10
1.367772874015748
20
2.1322271259842518
11
1.36879468503937
21
2.1329098425196849
0
LINE
8
BLACK
6
CONTINUOUS
10
1.36879468503937
20
2.1329098425196849
11
1.3699999999999999
21
2.1331496062992126
0
LINE
8
BLACK
6
CONTINUOUS
10
1.3699999999999999
20
2.1331496062992126
11
1.4299999999999999
21
2.1331496062992126
0
LINE
8
BLACK
6
CONTINUOUS
10
1.4299999999999999
20
2.1331496062992126
11
1.4312053149606299
21
2.1329098425196849
0
LINE
8
BLACK
6
CONTINUOUS
10
1.5312053149606299
20
2.1329098425196849
11
1.5322271259842519
21
2.1322271259842518
0
LINE
8
BLACK
6
CONTINUOUS
10
1.5322271259842519
20
2.1322271259842518
11
1.532909842519685
21
2.13120531496063
0
LINE
8
BLACK
6
CONTINUOUS
10
1.532909842519685
20
2.13120531496063
11
1.5331496062992125
21
2.1299999999999999
0
LINE
8
BLACK
6
CONTINUOUS
10
1.5331496062992125
20
2.1299999999999999
11
1.5331496062992125
21
2.0699999999999998
0
LINE
8
BLACK
6
CONTINUOUS
10
1.5331496062992125
20
2.0699999999999998
11
1.532909842519685
21
2.0687946850393701
0
LINE
8
BLACK
6
CONTINUOUS
10
1.532909842519685
20
2.0687946850393701
11
1.5322271259842519
21
2.0677728740157479
0
LINE
8
BLACK
6
CONTINUOUS
10
1.5322271259842519
20
2.0677728740157479
11
1.5312053149606299
21
2.0670901574803149
0
LINE
8
BLACK
6
CONTINUOUS
10
1.5312053149606299
20
2.0670901574803149
11
1.53
21
2.0668503937007872
0
LINE
8
BLACK
6
CONTINUOUS
10
1.53
20
2.0668503937007872
11
1.47
21
2.0668503937007872
0
LINE
8
BLACK
6
CONTINUOUS
10
1.47
20
2.0668503937007872
11
1.4687946850393701
21
2.0670901574803149
0
LINE
8
BLACK
6
CONTINUOUS
10
1.4687946850393701
20
2.0670901574803149
11
1.4677728740157481
21
2.0677728740157479
0
LINE
8
BLACK
6
CONTINUOUS
10
1.4677728740157481
20
2.0677728740157479
11
1.467090157480315
21
2.0687946850393701
0
LINE
8
BLACK
6
CONTINUOUS
10
1.467090157480315
20
2.0687946850393701
11
1.4668503937007873
21
2.0699999999999998
0
LINE
8
BLACK
6
CONTINUOUS
10
1.4668503937007873
20
2.0699999999999998
11
1.4668503937007873
21
2.1299999999999999
0
LINE
8
BLACK
6
CONTINUOUS
10
1.4668503937007873
20
2.1299999999999999
11
1.467090157480315
21
2.13120531496063
0
LINE
8
BLACK
6
CONTINUOUS
10
1.467090157480315
20
2.13120531496063
11
1.4677728740157481
21
2.1322271259842518
0
LINE
8
BLACK
6
CONTINUOUS
10
1.4677728740157481
20
2.1322271259842518
11
1.4687946850393701
21
2.1329098425196849
0
LINE
8
BLACK
6
CONTINUOUS
10
1.4687946850393701
20
2.1329098425196849
11
1.47
21
2.1331496062992126
0
LINE
8
BLACK
6
CONTINUOUS
10
1.47
20
2.1331496062992126
11
1.53
21
2.1331496062992126
0
LINE
8
BLACK
6
CONTINUOUS
10
1.53
20
2.1331496062992126
11
1.5312053149606299
21
2.1329098425196849
0
LINE
8
BLACK
6
CONTINUOUS
10
1.6312053149606298
20
2.1329098425196849
11
1.632227125984252
21
2.1322271259842518
0
LINE
8
BLACK
6
CONTINUOUS
10
1.632227125984252
20
2.1322271259842518
11
1.6329098425196851
21
2.13120531496063
0
LINE
8
BLACK
6
CONTINUOUS
10
1.6329098425196851
20
2.13120531496063
11
1.6331496062992126
21
2.1299999999999999
0
LINE
8
BLACK
6
CONTINUOUS
10
1.6331496062992126
20
2.1299999999999999
11
1.6331496062992126
21
2.0699999999999998
0
LINE
8
BLACK
6
CONTINUOUS
10
1.6331496062992126
20
2.0699999999999998
11
1.6329098425196851
21
2.0687946850393701
0
LINE
8
BLACK
6
CONTINUOUS
10
1.6329098425196851
20
2.0687946850393701
11
1.632227125984252
21
2.0677728740157479
0
LINE
8
BLACK
6
CONTINUOUS
10
1.632227125984252
20
2.0677728740157479
11
1.6312053149606298
21
2.0670901574803149
0
LINE
8
BLACK
6
CONTINUOUS
10
1.6312053149606298
20
2.0670901574803149
11
1.6299999999999999
21
2.0668503937007872
0
LINE
8
BLACK
6
CONTINUOUS
10
1.6299999999999999
20
2.0668503937007872
11
1.5700000000000001
21
2.0668503937007872
0
LINE
8
BLACK
6
CONTINUOUS
10
1.5700000000000001
20
2.0668503937007872
11
1.5687946850393701
21
2.0670901574803149
0
LINE
8
BLACK
6
CONTINUOUS
10
1.5687946850393701
20
2.0670901574803149
11
1.5677728740157479
21
2.0677728740157479
0
LINE
8
BLACK
6
CONTINUOUS
10
1.5677728740157479
20
2.0677728740157479
11
1.5670901574803149
21
2.0687946850393701
0
LINE
8
BLACK
6
CONTINUOUS
10
1.5670901574803149
20
2.0687946850393701
11
1.5668503937007874
21
2.0699999999999998
0
LINE
8
BLACK
6
CONTINUOUS
10
1.5668503937007874
20
2.0699999999999998
11
1.5668503937007874
21
2.1299999999999999
0
LINE
8
BLACK
6
CONTINUOUS
10
1.5668503937007874
20
2.1299999999999999
11
1.5670901574803149
21
2.13120531496063
0
LINE
8
BLACK
6
CONTINUOUS
10
1.5670901574803149
20
2.13120531496063
11
1.5677728740157479
21
2.1322271259842518
0
LINE
8
BLACK
6
CONTINUOUS
10
1.5677728740157479
20
2.1322271259842518
11
1.5687946850393701
21
2.1329098425196849
0
LINE
8
BLACK
6
CONTINUOUS
10
1.5687946850393701
20
2.1329098425196849
11
1.5700000000000001
21
2.1331496062992126
0
LINE
8
BLACK
6
CONTINUOUS
10
1.5700000000000001
20
2.1331496062992126
11
1.6299999999999999
21
2.1331496062992126
0
LINE
8
BLACK
6
CONTINUOUS
10
1.6299999999999999
20
2.1331496062992126
11
1.6312053149606298
21
2.1329098425196849
0
LINE
8
BLACK
6
CONTINUOUS
10
1.7312053149606299
20
2.1329098425196849
11
1.7322271259842519
21
2.1322271259842518
0
LINE
8
BLACK
6
CONTINUOUS
10
1.7322271259842519
20
2.1322271259842518
11
1.7329098425196849
21
2.13120531496063
0
LINE
8
BLACK
6
CONTINUOUS
10
1.7329098425196849
20
2.13120531496063
11
1.7331496062992127
21
2.1299999999999999
0
LINE
8
BLACK
6
CONTINUOUS
10
1.7331496062992127
20
2.1299999999999999
11
1.7331496062992127
21
2.0699999999999998
0
LINE
8
BLACK
6
CONTINUOUS
10
1.7331496062992127
20
2.0699999999999998
11
1.7329098425196849
21
2.0687946850393701
0
LINE
8
BLACK
6
CONTINUOUS
10
1.7329098425196849
20
2.0687946850393701
11
1.7322271259842519
21
2.0677728740157479
0
LINE
8
BLACK
6
CONTINUOUS
10
1.7322271259842519
20
2.0677728740157479
11
1.7312053149606299
21
2.0670901574803149
0
LINE
8
BLACK
6
CONTINUOUS
10
1.7312053149606299
20
2.0670901574803149
11
1.73
21
2.0668503937007872
0
LINE
8
BLACK
6
CONTINUOUS
10
1.73
20
2.0668503937007872
11
1.6699999999999999
21
2.0668503937007872
0
LINE
8
BLACK
6
CONTINUOUS
10
1.6699999999999999
20
2.0668503937007872
11
1.66879468503937
21
2.0670901574803149
0
LINE
8
BLACK
6
CONTINUOUS
10
1.66879468503937
20
2.0670901574803149
11
1.667772874015748
21
2.0677728740157479
0
LINE
8
BLACK
6
CONTINUOUS
10
1.667772874015748
20
2.0677728740157479
11
1.667090157480315
21
2.0687946850393701
0
LINE
8
BLACK
6
CONTINUOUS
10
1.667090157480315
20
2.0687946850393701
11
1.6668503937007875
21
2.0699999999999998
0
LINE
8
BLACK
6
CONTINUOUS
10
1.6668503937007875
20
2.0699999999999998
11
1.6668503937007875
21
2.1299999999999999
0
LINE
8
BLACK
6
CONTINUOUS
10
1.6668503937007875
20
2.1299999999999999
11
1.667090157480315
21
2.13120531496063
0
LINE
8
BLACK
6
CONTINUOUS
10
1.667090157480315
20
2.13120531496063
11
1.667772874015748
21
2.1322271259842518
0
LINE
8
BLACK
6
CONTINUOUS
10
1.667772874015748
20
2.1322271259842518
11
1.66879468503937
21
2.1329098425196849
0
LINE
8
BLACK
6
CONTINUOUS
10
1.66879468503937
20
2.1329098425196849
11
1.6699999999999999
21
2.1331496062992126
0
LINE
8
BLACK
6
CONTINUOUS
10
1.6699999999999999
20
2.1331496062992126
11
1.73
21
2.1331496062992126
0
LINE
8
BLACK
6
CONTINUOUS
10
1.73
20
2.1331496062992126
11
1.7312053149606299
21
2.1329098425196849
0
LINE
8
BLACK
6
CONTINUOUS
10
1.8312053149606298
20
2.1329098425196849
11
1.832227125984252
21
2.1322271259842518
0
LINE
8
BLACK
6
CONTINUOUS
10
1.832227125984252
20
2.1322271259842518
11
1.832909842519685
21
2.13120531496063
0
LINE
8
BLACK
6
CONTINUOUS
10
1.832909842519685
20
2.13120531496063
11
1.8331496062992125
21
2.1299999999999999
0
LINE
8
BLACK
6
CONTINUOUS
10
1.8331496062992125
20
2.1299999999999999
11
1.8331496062992125
21
2.0699999999999998
0
LINE
8
BLACK
6
CONTINUOUS
10
1.8331496062992125
20
2.0699999999999998
11
1.832909842519685
21
2.0687946850393701
0
LINE
8
BLACK
6
CONTINUOUS
10
1.832909842519685
20
2.0687946850393701
11
1.832227125984252
21
2.0677728740157479
0
LINE
8
BLACK
6
CONTINUOUS
10
1.832227125984252
20
2.0677728740157479
11
1.8312053149606298
21
2.0670901574803149
0
LINE
8
BLACK
6
CONTINUOUS
10
1.8312053149606298
20
2.0670901574803149
11
1.8299999999999998
21
2.0668503937007872
0
LINE
8
BLACK
6
CONTINUOUS
10
1.8299999999999998
20
2.0668503937007872
11
1.77
21
2.0668503937007872
0
LINE
8
BLACK
6
CONTINUOUS
10
1.77
20
2.0668503937007872
11
1.7687946850393701
21
2.0670901574803149
0
LINE
8
BLACK
6
CONTINUOUS
10
1.7687946850393701
20
2.0670901574803149
11
1.7677728740157479
21
2.0677728740157479
0
LINE
8
BLACK
6
CONTINUOUS
10
1.7677728740157479
20
2.0677728740157479
11
1.7670901574803148
21
2.0687946850393701
0
LINE
8
BLACK
6
CONTINUOUS
10
1.7670901574803148
20
2.0687946850393701
11
1.7668503937007873
21
2.0699999999999998
0
LINE
8
BLACK
6
CONTINUOUS
10
1.7668503937007873
20
2.0699999999999998
11
1.7668503937007873
21
2.1299999999999999
0
LINE
8
BLACK
6
CONTINUOUS
10
1.7668503937007873
20
2.1299999999999999
11
1.7670901574803148
21
2.13120531496063
0
LINE
8
BLACK
6
CONTINUOUS
10
1.7670901574803148
20
2.13120531496063
11
1.7677728740157479
21
2.1322271259842518
0
LINE
8
BLACK
6
CONTINUOUS
10
1.7677728740157479
20
2.1322271259842518
11
1.7687946850393701
21
2.1329098425196849
0
LINE
8
BLACK
6
CONTINUOUS
10
1.7687946850393701
20
2.1329098425196849
11
1.77
21
2.1331496062992126
0
LINE
8
BLACK
6
CONTINUOUS
10
1.77
20
2.1331496062992126
11
1.8299999999999998
21
2.1331496062992126
0
LINE
8
BLACK
6
CONTINUOUS
10
1.8299999999999998
20
2.1331496062992126
11
1.8312053149606298
21
2.1329098425196849
0
LINE
8
BLACK
6
CONTINUOUS
10
1.9312053149606299
20
2.1329098425196849
11
1.9322271259842518
21
2.1322271259842518
0
LINE
8
BLACK
6
CONTINUOUS
10
1.9322271259842518
20
2.1322271259842518
11
1.9329098425196849
21
2.13120531496063
0
LINE
8
BLACK
6
CONTINUOUS
10
1.9329098425196849
20
2.13120531496063
11
1.9331496062992126
21
2.1299999999999999
0
LINE
8
BLACK
6
CONTINUOUS
10
1.9331496062992126
20
2.1299999999999999
11
1.9331496062992126
21
2.0699999999999998
0
LINE
8
BLACK
6
CONTINUOUS
10
1.9331496062992126
20
2.0699999999999998
11
1.9329098425196849
21
2.0687946850393701
0
LINE
8
BLACK
6
CONTINUOUS
10
1.9329098425196849
20
2.0687946850393701
11
1.9322271259842518
21
2.0677728740157479
0
LINE
8
BLACK
6
CONTINUOUS
10
1.9322271259842518
20
2.0677728740157479
11
1.9312053149606299
21
2.0670901574803149
0
LINE
8
BLACK
6
CONTINUOUS
10
1.9312053149606299
20
2.0670901574803149
11
1.9299999999999999
21
2.0668503937007872
0
LINE
8
BLACK
6
CONTINUOUS
10
1.9299999999999999
20
2.0668503937007872
11
1.8699999999999999
21
2.0668503937007872
0
LINE
8
BLACK
6
CONTINUOUS
10
1.8699999999999999
20
2.0668503937007872
11
1.86879468503937
21
2.0670901574803149
0
LINE
8
BLACK
6
CONTINUOUS
10
1.86879468503937
20
2.0670901574803149
11
1.867772874015748
21
2.0677728740157479
0
LINE
8
BLACK
6
CONTINUOUS
10
1.867772874015748
20
2.0677728740157479
11
1.8670901574803149
21
2.0687946850393701
0
LINE
8
BLACK
6
CONTINUOUS
10
1.8670901574803149
20
2.0687946850393701
11
1.8668503937007874
21
2.0699999999999998
0
LINE
8
BLACK
6
CONTINUOUS
10
1.8668503937007874
20
2.0699999999999998
11
1.8668503937007874
21
2.1299999999999999
0
LINE
8
BLACK
6
CONTINUOUS
10
1.8668503937007874
20
2.1299999999999999
11
1.8670901574803149
21
2.13120531496063
0
LINE
8
BLACK
6
CONTINUOUS
10
1.8670901574803149
20
2.13120531496063
11
1.867772874015748
21
2.1322271259842518
0
LINE
8
BLACK
6
CONTINUOUS
10
1.867772874015748
20
2.1322271259842518
11
1.86879468503937
21
2.1329098425196849
0
LINE
8
BLACK
6
CONTINUOUS
10
1.86879468503937
20
2.1329098425196849
11
1.8699999999999999
21
2.1331496062992126
0
LINE
8
BLACK
6
CONTINUOUS
10
1.8699999999999999
20
2.1331496062992126
11
1.9299999999999999
21
2.1331496062992126
0
LINE
8
BLACK
6
CONTINUOUS
10
1.9299999999999999
20
2.1331496062992126
11
1.9312053149606299
21
2.1329098425196849
0
LINE
8
BLACK
6
CONTINUOUS
10
2.0312053149606299
20
2.1329098425196849
11
2.0322271259842517
21
2.1322271259842518
0
LINE
8
BLACK
6
CONTINUOUS
10
2.0322271259842517
20
2.1322271259842518
11
2.0329098425196852
21
2.13120531496063
0
LINE
8
BLACK
6
CONTINUOUS
10
2.0329098425196852
20
2.13120531496063
11
2.0331496062992125
21
2.1299999999999999
0
LINE
8
BLACK
6
CONTINUOUS
10
2.0331496062992125
20
2.1299999999999999
11
2.0331496062992125
21
2.0699999999999998
0
LINE
8
BLACK
6
CONTINUOUS
10
2.0331496062992125
20
2.0699999999999998
11
2.0329098425196852
21
2.0687946850393701
0
LINE
8
BLACK
6
CONTINUOUS
10
2.0329098425196852
20
2.0687946850393701
11
2.0322271259842517
21
2.0677728740157479
0
LINE
8
BLACK
6
CONTINUOUS
10
2.0322271259842517
20
2.0677728740157479
11
2.0312053149606299
21
2.0670901574803149
0
LINE
8
BLACK
6
CONTINUOUS
10
2.0312053149606299
20
2.0670901574803149
11
2.0299999999999998
21
2.0668503937007872
0
LINE
8
BLACK
6
CONTINUOUS
10
2.0299999999999998
20
2.0668503937007872
11
1.97
21
2.0668503937007872
0
LINE
8
BLACK
6
CONTINUOUS
10
1.97
20
2.0668503937007872
11
1.9687946850393701
21
2.0670901574803149
0
LINE
8
BLACK
6
CONTINUOUS
10
1.9687946850393701
20
2.0670901574803149
11
1.9677728740157481
21
2.0677728740157479
0
LINE
8
BLACK
6
CONTINUOUS
10
1.9677728740157481
20
2.0677728740157479
11
1.967090157480315
21
2.0687946850393701
0
LINE
8
BLACK
6
CONTINUOUS
10
1.967090157480315
20
2.0687946850393701
11
1.9668503937007873
21
2.0699999999999998
0
LINE
8
BLACK
6
CONTINUOUS
10
1.9668503937007873
20
2.0699999999999998
11
1.9668503937007873
21
2.1299999999999999
0
LINE
8
BLACK
6
CONTINUOUS
10
1.9668503937007873
20
2.1299999999999999
11
1.967090157480315
21
2.13120531496063
0
LINE
8
BLACK
6
CONTINUOUS
10
1.967090157480315
20
2.13120531496063
11
1.9677728740157481
21
2.1322271259842518
0
LINE
8
BLACK
6
CONTINUOUS
10
1.9677728740157481
20
2.1322271259842518
11
1.9687946850393701
21
2.1329098425196849
0
LINE
8
BLACK
6
CONTINUOUS
10
1.9687946850393701
20
2.1329098425196849
11
1.97
21
2.1331496062992126
0
LINE
8
BLACK
6
CONTINUOUS
10
1.97
20
2.1331496062992126
11
2.0299999999999998
21
2.1331496062992126
0
LINE
8
BLACK
6
CONTINUOUS
10
2.0299999999999998
20
2.1331496062992126
11
2.0312053149606299
21
2.1329098425196849
0
LINE
8
BLACK
6
CONTINUOUS
10
2.13120531496063
20
2.1329098425196849
11
2.1322271259842518
21
2.1322271259842518
0
LINE
8
BLACK
6
CONTINUOUS
10
2.1322271259842518
20
2.1322271259842518
11
2.1329098425196849
21
2.13120531496063
0
LINE
8
BLACK
6
CONTINUOUS
10
2.1329098425196849
20
2.13120531496063
11
2.1331496062992126
21
2.1299999999999999
0
LINE
8
BLACK
6
CONTINUOUS
10
2.1331496062992126
20
2.1299999999999999
11
2.1331496062992126
21
2.0699999999999998
0
LINE
8
BLACK
6
CONTINUOUS
10
2.1331496062992126
20
2.0699999999999998
11
2.1329098425196849
21
2.0687946850393701
0
LINE
8
BLACK
6
CONTINUOUS
10
2.1329098425196849
20
2.0687946850393701
11
2.1322271259842518
21
2.0677728740157479
0
LINE
8
BLACK
6
CONTINUOUS
10
2.1322271259842518
20
2.0677728740157479
11
2.13120531496063
21
2.0670901574803149
0
LINE
8
BLACK
6
CONTINUOUS
10
2.13120531496063
20
2.0670901574803149
11
2.1299999999999999
21
2.0668503937007872
0
LINE
8
BLACK
6
CONTINUOUS
10
2.1299999999999999
20
2.0668503937007872
11
2.0699999999999998
21
2.0668503937007872
0
LINE
8
BLACK
6
CONTINUOUS
10
2.0699999999999998
20
2.0668503937007872
11
2.0687946850393701
21
2.0670901574803149
0
LINE
8
BLACK
6
CONTINUOUS
10
2.0687946850393701
20
2.0670901574803149
11
2.0677728740157479
21
2.0677728740157479
0
LINE
8
BLACK
6
CONTINUOUS
10
2.0677728740157479
20
2.0677728740157479
11
2.0670901574803149
21
2.0687946850393701
0
LINE
8
BLACK
6
CONTINUOUS
10
2.0670901574803149
20
2.0687946850393701
11
2.0668503937007872
21
2.0699999999999998
0
LINE
8
BLACK
6
CONTINUOUS
10
2.0668503937007872
20
2.0699999999999998
11
2.0668503937007872
21
2.1299999999999999
0
LINE
8
BLACK
6
CONTINUOUS
10
2.0668503937007872
20
2.1299999999999999
11
2.0670901574803149
21
2.13120531496063
0
LINE
8
BLACK
6
CONTINUOUS
10
2.0670901574803149
20
2.13120531496063
11
2.0677728740157479
21
2.1322271259842518
0
LINE
8
BLACK
6
CONTINUOUS
10
2.0677728740157479
20
2.1322271259842518
11
2.0687946850393701
21
2.1329098425196849
0
LINE
8
BLACK
6
CONTINUOUS
10
2.0687946850393701
20
2.1329098425196849
11
2.0699999999999998
21
2.1331496062992126
0
LINE
8
BLACK
6
CONTINUOUS
10
2.0699999999999998
20
2.1331496062992126
11
2.1299999999999999
21
2.1331496062992126
0
LINE
8
BLACK
6
CONTINUOUS
10
2.1299999999999999
20
2.1331496062992126
11
2.13120531496063
21
2.1329098425196849
0
LINE
8
BLACK
6
CONTINUOUS
10
2.2312053149606297
20
2.1329098425196849
11
2.2322271259842519
21
2.1322271259842518
0
LINE
8
BLACK
6
CONTINUOUS
10
2.2322271259842519
20
2.1322271259842518
11
2.2329098425196849
21
2.13120531496063
0
LINE
8
BLACK
6
CONTINUOUS
10
2.2329098425196849
20
2.13120531496063
11
2.2331496062992127
21
2.1299999999999999
0
LINE
8
BLACK
6
CONTINUOUS
10
2.2331496062992127
20
2.1299999999999999
11
2.2331496062992127
21
2.0699999999999998
0
LINE
8
BLACK
6
CONTINUOUS
10
2.2331496062992127
20
2.0699999999999998
11
2.2329098425196849
21
2.0687946850393701
0
LINE
8
BLACK
6
CONTINUOUS
10
2.2329098425196849
20
2.0687946850393701
11
2.2322271259842519
21
2.0677728740157479
0
LINE
8
BLACK
6
CONTINUOUS
10
2.2322271259842519
20
2.0677728740157479
11
2.2312053149606297
21
2.0670901574803149
0
LINE
8
BLACK
6
CONTINUOUS
10
2.2312053149606297
20
2.0670901574803149
11
2.23
21
2.0668503937007872
0
LINE
8
BLACK
6
CONTINUOUS
10
2.23
20
2.0668503937007872
11
2.1699999999999999
21
2.0668503937007872
0
LINE
8
BLACK
6
CONTINUOUS
10
2.1699999999999999
20
2.0668503937007872
11
2.1687946850393702
21
2.0670901574803149
0
LINE
8
BLACK
6
CONTINUOUS
10
2.1687946850393702
20
2.0670901574803149
11
2.167772874015748
21
2.0677728740157479
0
LINE
8
BLACK
6
CONTINUOUS
10
2.167772874015748
20
2.0677728740157479
11
2.167090157480315
21
2.0687946850393701
0
LINE
8
BLACK
6
CONTINUOUS
10
2.167090157480315
20
2.0687946850393701
11
2.1668503937007872
21
2.0699999999999998
0
LINE
8
BLACK
6
CONTINUOUS
10
2.1668503937007872
20
2.0699999999999998
11
2.1668503937007872
21
2.1299999999999999
0
LINE
8
BLACK
6
CONTINUOUS
10
2.1668503937007872
20
2.1299999999999999
11
2.167090157480315
21
2.13120531496063
0
LINE
8
BLACK
6
CONTINUOUS
10
2.167090157480315
20
2.13120531496063
11
2.167772874015748
21
2.1322271259842518
0
LINE
8
BLACK
6
CONTINUOUS
10
2.167772874015748
20
2.1322271259842518
11
2.1687946850393702
21
2.1329098425196849
0
LINE
8
BLACK
6
CONTINUOUS
10
2.1687946850393702
20
2.1329098425196849
11
2.1699999999999999
21
2.1331496062992126
0
LINE
8
BLACK
6
CONTINUOUS
10
2.1699999999999999
20
2.1331496062992126
11
2.23
21
2.1331496062992126
0
LINE
8
BLACK
6
CONTINUOUS
10
2.23
20
2.1331496062992126
11
2.2312053149606297
21
2.1329098425196849
0
LINE
8
BLACK
6
CONTINUOUS
10
2.3312053149606298
20
2.1329098425196849
11
2.332227125984252
21
2.1322271259842518
0
LINE
8
BLACK
6
CONTINUOUS
10
2.332227125984252
20
2.1322271259842518
11
2.332909842519685
21
2.13120531496063
0
LINE
8
BLACK
6
CONTINUOUS
10
2.332909842519685
20
2.13120531496063
11
2.3331496062992128
21
2.1299999999999999
0
LINE
8
BLACK
6
CONTINUOUS
10
2.3331496062992128
20
2.1299999999999999
11
2.3331496062992128
21
2.0699999999999998
0
LINE
8
BLACK
6
CONTINUOUS
10
2.3331496062992128
20
2.0699999999999998
11
2.332909842519685
21
2.0687946850393701
0
LINE
8
BLACK
6
CONTINUOUS
10
2.332909842519685
20
2.0687946850393701
11
2.332227125984252
21
2.0677728740157479
0
LINE
8
BLACK
6
CONTINUOUS
10
2.332227125984252
20
2.0677728740157479
11
2.3312053149606298
21
2.0670901574803149
0
LINE
8
BLACK
6
CONTINUOUS
10
2.3312053149606298
20
2.0670901574803149
11
2.3300000000000001
21
2.0668503937007872
0
LINE
8
BLACK
6
CONTINUOUS
10
2.3300000000000001
20
2.0668503937007872
11
2.27
21
2.0668503937007872
0
LINE
8
BLACK
6
CONTINUOUS
10
2.27
20
2.0668503937007872
11
2.2687946850393699
21
2.0670901574803149
0
LINE
8
BLACK
6
CONTINUOUS
10
2.2687946850393699
20
2.0670901574803149
11
2.2677728740157481
21
2.0677728740157479
0
LINE
8
BLACK
6
CONTINUOUS
10
2.2677728740157481
20
2.0677728740157479
11
2.2670901574803151
21
2.0687946850393701
0
LINE
8
BLACK
6
CONTINUOUS
10
2.2670901574803151
20
2.0687946850393701
11
2.2668503937007873
21
2.0699999999999998
0
LINE
8
BLACK
6
CONTINUOUS
10
2.2668503937007873
20
2.0699999999999998
11
2.2668503937007873
21
2.1299999999999999
0
LINE
8
BLACK
6
CONTINUOUS
10
2.2668503937007873
20
2.1299999999999999
11
2.2670901574803151
21
2.13120531496063
0
LINE
8
BLACK
6
CONTINUOUS
10
2.2670901574803151
20
2.13120531496063
11
2.2677728740157481
21
2.1322271259842518
0
LINE
8
BLACK
6
CONTINUOUS
10
2.2677728740157481
20
2.1322271259842518
11
2.2687946850393699
21
2.1329098425196849
0
LINE
8
BLACK
6
CONTINUOUS
10
2.2687946850393699
20
2.1329098425196849
11
2.27
21
2.1331496062992126
0
LINE
8
BLACK
6
CONTINUOUS
10
2.27
20
2.1331496062992126
11
2.3300000000000001
21
2.1331496062992126
0
LINE
8
BLACK
6
CONTINUOUS
10
2.3300000000000001
20
2.1331496062992126
11
2.3312053149606298
21
2.1329098425196849
0
CIRCLE
8
BLACK
10
2.7999999999999998
20
2.
40
0.0068897637795276
0
CIRCLE
8
BLACK
10
0.4
20
0.4
40
0.0068897637795276
0
CIRCLE
8
BLACK
10
2.7999999999999998
20
0.4
40
0.0068897637795276
0
CIRCLE
8
BLACK
10
0.4
20
2.
40
0.0068897637795276
0
CIRCLE
8
BLACK
10
0.9
20
2.
40
0.0068897637795276
0
CIRCLE
8
BLACK
10
0.9
20
2.1000000000000001
40
0.0068897637795276
0
CIRCLE
8
BLACK
10
1.
20
2.
40
0.0068897637795276
0
CIRCLE
8
BLACK
10
1.
20
2.1000000000000001
40
0.0068897637795276
0
CIRCLE
8
BLACK
10
1.0999999999999999
20
2.
40
0.0068897637795276
0
CIRCLE
8
BLACK
10
1.0999999999999999
20
2.1000000000000001
40
0.0068897637795276
0
CIRCLE
8
BLACK
10
1.2
20
2.
40
0.0068897637795276
0
CIRCLE
8
BLACK
10
1.2
20
2.1000000000000001
40
0.0068897637795276
0
CIRCLE
8
BLACK
10
1.3
20
2.
40
0.0068897637795276
0
CIRCLE
8
BLACK
10
1.3
20
2.1000000000000001
40
0.0068897637795276
0
CIRCLE
8
BLACK
10
1.3999999999999999
20
2.
40
0.0068897637795276
0
CIRCLE
8
BLACK
10
1.3999999999999999
20
2.1000000000000001
40
0.0068897637795276
0
CIRCLE
8
BLACK
10
1.5
20
2.
40
0.0068897637795276
0
CIRCLE
8
BLACK
10
1.5
20
2.1000000000000001
40
0.0068897637795276
0
CIRCLE
8
BLACK
10
1.5999999999999999
20
2.
40
0.0068897637795276
0
CIRCLE
8
BLACK
10
1.5999999999999999
20
2.1000000000000001
40
0.0068897637795276
0
CIRCLE
8
BLACK
10
1.7
20
2.
40
0.0068897637795276
0
CIRCLE
8
BLACK
10
1.7
20
2.1000000000000001
40
0.0068897637795276
0
CIRCLE
8
BLACK
10
1.8
20
2.
40
0.0068897637795276
0
CIRCLE
8
BLACK
10
1.8
20
2.1000000000000001
40
0.0068897637795276
0
CIRCLE
8
BLACK
10
1.8999999999999999
20
2.
40
0.0068897637795276
0
CIRCLE
8
BLACK
10
1.8999999999999999
20
2.1000000000000001
40
0.0068897637795276
0
CIRCLE
8
BLACK
10
2.
20
2.
40
0.0068897637795276
0
CIRCLE
8
BLACK
10
2.
20
2.1000000000000001
40
0.0068897637795276
0
CIRCLE
8
BLACK
10
2.1000000000000001
20
2.
40
0.0068897637795276
0
CIRCLE
8
BLACK
10
2.1000000000000001
20
2.1000000000000001
40
0.0068897637795276
0
CIRCLE
8
BLACK
10
2.1999999999999997
20
2.
40
0.0068897637795276
0
CIRCLE
8
BLACK
10
2.1999999999999997
20
2.1000000000000001
40
0.0068897637795276
0
CIRCLE
8
BLACK
10
2.2999999999999998
20
2.
40
0.0068897637795276
0
CIRCLE
8
BLACK
10
2.2999999999999998
20
2.1000000000000001
40
0.0068897637795276
0
CIRCLE
8
WHITE
10
2.7999999999999998
20
2.
40
0.0068897637795276
0
CIRCLE
8
WHITE
10
0.4
20
0.4
40
0.0068897637795276
0
CIRCLE
8
WHITE
10
2.7999999999999998
20
0.4
40
0.0068897637795276
0
CIRCLE
8
WHITE
10
0.4
20
2.
40
0.0068897637795276
0
CIRCLE
8
WHITE
10
0.9
20
2.
40
0.0068897637795276
0
CIRCLE
8
WHITE
10
0.9
20
2.1000000000000001
40
0.0068897637795276
0
CIRCLE
8
WHITE
10
1.
20
2.
40
0.0068897637795276
0
CIRCLE
8
WHITE
10
1.
20
2.1000000000000001
40
0.0068897637795276
0
CIRCLE
8
WHITE
10
1.0999999999999999
20
2.
40
0.0068897637795276
0
CIRCLE
8
WHITE
10
1.0999999999999999
20
2.1000000000000001
40
0.0068897637795276
0
CIRCLE
8
WHITE
10
1.2
20
2.
40
0.0068897637795276
0
CIRCLE
8
WHITE
10
1.2
20
2.1000000000000001
40
0.0068897637795276
0
CIRCLE
8
WHITE
10
1.3
20
2.
40
0.0068897637795276
0
CIRCLE
8
WHITE
10
1.3
20
2.1000000000000001
40
0.0068897637795276
0
CIRCLE
8
WHITE
10
1.3999999999999999
20
2.
40
0.0068897637795276
0
CIRCLE
8
WHITE
10
1.3999999999999999
20
2.1000000000000001
40
0.0068897637795276
0
CIRCLE
8
WHITE
10
1.5
20
2.
40
0.0068897637795276
0
CIRCLE
8
WHITE
10
1.5
20
2.1000000000000001
40
0.0068897637795276
0
CIRCLE
8
WHITE
10
1.5999999999999999
20
2.
40
0.0068897637795276
0
CIRCLE
8
WHITE
10
1.5999999999999999
20
2.1000000000000001
40
0.0068897637795276
0
CIRCLE
8
WHITE
10
1.7
20
2.
40
0.0068897637795276
0
CIRCLE
8
WHITE
10
1.7
20
2.1000000000000001
40
0.0068897637795276
0
CIRCLE
8
WHITE
10
1.8
20
2.
40
0.0068897637795276
0
CIRCLE
8
WHITE
10
1.8
20
2.1000000000000001
40
0.0068897637795276
0
CIRCLE
8
WHITE
10
1.8999999999999999
20
2.
40
0.0068897637795276
0
CIRCLE
8
WHITE
10
1.8999999999999999
20
2.1000000000000001
40
0.0068897637795276
0
CIRCLE
8
WHITE
10
2.
20
2.
40
0.0068897637795276
0
CIRCLE
8
WHITE
10
2.
20
2.1000000000000001
40
0.0068897637795276
0
CIRCLE
8
WHITE
10
2.1000000000000001
20
2.
40
0.0068897637795276
0
CIRCLE
8
WHITE
10
2.1000000000000001
20
2.1000000000000001
40
0.0068897637795276
0
CIRCLE
8
WHITE
10
2.1999999999999997
20
2.
40
0.0068897637795276
0
CIRCLE
8
WHITE
10
2.1999999999999997
20
2.1000000000000001
40
0.0068897637795276
0
CIRCLE
8
WHITE
10
2.2999999999999998
20
2.
40
0.0068897637795276
0
CIRCLE
8
WHITE
10
2.2999999999999998
20
2.1000000000000001
40
0.0068897637795276
  0
ENDSEC
  0
EOF
