  0
SECTION
  2
HEADER
  9
$ANGBASE
  50
0.0
  9
$ANGDIR
  70
1
  9
$MEASUREMENT
  70
0
  0
ENDSEC
  0
SECTION
  2
TABLES
  0
TABLE
  2
LTYPE
  70
4
  0
LTYPE
  5
40F
  2
CONTINUOUS
  70
0
  3
Solid line
  72
65
  73
0
  40
0.0
  0
LTYPE
  5
410
  2
DASHDOT
 70
0
  3
Dash Dot ____ _ ____ _
 72
65
 73
4
 40
2.0
 49
1.25
 49
-0.25
 49
0.25
 49
-0.25
  0
LTYPE
  5
411
  2
DASHED
 70
0
  3
Dashed __ __ __ __ __
 72
65
 73
2
 40
0.75
 49
0.5
 49
-0.25
  0
LTYPE
  5
43B
  2
DOTTED
 70
0
  3
Dotted .  .  .  .
 72
65
 73
2
 40
0.2
 49
0.0
 49
-0.2
  0
ENDTAB
  0
TABLE
  2
STYLE
  70
4
  0
STYLE
  2
KICAD
  70
0
  40
0
  41
1
  42
1
  50
0
  71
0
  3
isocp.shx
  0
STYLE
  2
KICADB
  70
0
  40
0
  41
1
  42
1
  50
0
  71
0
  3
isocp.shx
  0
STYLE
  2
KICADI
  70
0
  40
0
  41
1
  42
1
  50
15
  71
0
  3
isocp.shx
  0
STYLE
  2
KICADBI
  70
0
  40
0
  41
1
  42
1
  50
15
  71
0
  3
isocp.shx
  0
ENDTAB
  0
TABLE
  2
LAYER
  70
1
  0
LAYER
  2
BLACK
  70
0
  62
7
  6
CONTINUOUS
  0
ENDTAB
  0
ENDSEC
  0
SECTION
  2
ENTITIES
0
LINE
8
BLACK
6
CONTINUOUS
10
4.6241725984251971
20
-4.7477620078740159
11
4.6316638582677161
21
-4.7501961023622048
0
LINE
8
BLACK
6
CONTINUOUS
10
4.6316638582677161
20
-4.7501961023622048
11
4.6386821653543304
21
-4.7537720866141733
0
LINE
8
BLACK
6
CONTINUOUS
10
4.6386821653543304
20
-4.7537720866141733
11
4.6450546062992126
21
-4.758401929133858
0
LINE
8
BLACK
6
CONTINUOUS
10
4.6450546062992126
20
-4.758401929133858
11
4.6506243700787397
21
-4.763971692913386
0
LINE
8
BLACK
6
CONTINUOUS
10
4.6506243700787397
20
-4.763971692913386
11
4.6552542125984253
21
-4.7703441338582673
0
LINE
8
BLACK
6
CONTINUOUS
10
4.6552542125984253
20
-4.7703441338582673
11
4.6588301968503938
21
-4.7773624409448816
0
LINE
8
BLACK
6
CONTINUOUS
10
4.6588301968503938
20
-4.7773624409448816
11
4.6612642913385827
21
-4.7848537007874015
0
LINE
8
BLACK
6
CONTINUOUS
10
4.6612642913385827
20
-4.7848537007874015
11
4.6624964960629924
21
-4.7926335433070868
0
LINE
8
BLACK
6
CONTINUOUS
10
4.6624964960629924
20
-4.7926335433070868
11
4.6624964960629924
21
-4.8005103149606301
0
LINE
8
BLACK
6
CONTINUOUS
10
4.6624964960629924
20
-4.8005103149606301
11
4.6612642913385827
21
-4.8082901574803145
0
LINE
8
BLACK
6
CONTINUOUS
10
4.6612642913385827
20
-4.8082901574803145
11
4.6588301968503938
21
-4.8157814173228344
0
LINE
8
BLACK
6
CONTINUOUS
10
4.6588301968503938
20
-4.8157814173228344
11
4.6552542125984253
21
-4.8227997244094487
0
LINE
8
BLACK
6
CONTINUOUS
10
4.6552542125984253
20
-4.8227997244094487
11
4.6506243700787397
21
-4.8291721653543309
0
LINE
8
BLACK
6
CONTINUOUS
10
4.6506243700787397
20
-4.8291721653543309
11
4.6450546062992126
21
-4.834741929133858
0
LINE
8
BLACK
6
CONTINUOUS
10
4.6450546062992126
20
-4.834741929133858
11
4.6386821653543304
21
-4.8393717716535436
0
LINE
8
BLACK
6
CONTINUOUS
10
4.6386821653543304
20
-4.8393717716535436
11
4.6316638582677161
21
-4.8429477559055121
0
LINE
8
BLACK
6
CONTINUOUS
10
4.6316638582677161
20
-4.8429477559055121
11
4.6241725984251971
21
-4.845381850393701
0
LINE
8
BLACK
6
CONTINUOUS
10
4.6241725984251971
20
-4.845381850393701
11
4.6163927559055118
21
-4.8466140551181098
0
LINE
8
BLACK
6
CONTINUOUS
10
4.6163927559055118
20
-4.8466140551181098
11
4.6085159842519685
21
-4.8466140551181098
0
LINE
8
BLACK
6
CONTINUOUS
10
4.6085159842519685
20
-4.8466140551181098
11
4.6007361417322832
21
-4.845381850393701
0
LINE
8
BLACK
6
CONTINUOUS
10
4.6007361417322832
20
-4.845381850393701
11
4.5932448818897633
21
-4.8429477559055121
0
LINE
8
BLACK
6
CONTINUOUS
10
4.5932448818897633
20
-4.8429477559055121
11
4.5862265748031499
21
-4.8393717716535436
0
LINE
8
BLACK
6
CONTINUOUS
10
4.5862265748031499
20
-4.8393717716535436
11
4.5798541338582677
21
-4.834741929133858
0
LINE
8
BLACK
6
CONTINUOUS
10
4.5798541338582677
20
-4.834741929133858
11
4.5742843700787397
21
-4.8291721653543309
0
LINE
8
BLACK
6
CONTINUOUS
10
4.5742843700787397
20
-4.8291721653543309
11
4.569654527559055
21
-4.8227997244094487
0
LINE
8
BLACK
6
CONTINUOUS
10
4.569654527559055
20
-4.8227997244094487
11
4.5660785433070865
21
-4.8157814173228344
0
LINE
8
BLACK
6
CONTINUOUS
10
4.5660785433070865
20
-4.8157814173228344
11
4.5636444488188976
21
-4.8082901574803145
0
LINE
8
BLACK
6
CONTINUOUS
10
4.5636444488188976
20
-4.8082901574803145
11
4.5624122440944879
21
-4.8005103149606301
0
LINE
8
BLACK
6
CONTINUOUS
10
4.5624122440944879
20
-4.8005103149606301
11
4.5624122440944879
21
-4.7927762598425199
0
LINE
8
BLACK
6
CONTINUOUS
10
4.5624122440944879
20
-4.7927762598425199
11
4.5624122440944879
21
-4.7926335433070868
0
LINE
8
BLACK
6
CONTINUOUS
10
4.5624122440944879
20
-4.7926335433070868
11
4.5636444488188976
21
-4.7848537007874015
0
LINE
8
BLACK
6
CONTINUOUS
10
4.5636444488188976
20
-4.7848537007874015
11
4.5660785433070865
21
-4.7773624409448816
0
LINE
8
BLACK
6
CONTINUOUS
10
4.5660785433070865
20
-4.7773624409448816
11
4.569654527559055
21
-4.7703441338582673
0
LINE
8
BLACK
6
CONTINUOUS
10
4.569654527559055
20
-4.7703441338582673
11
4.5742843700787397
21
-4.763971692913386
0
LINE
8
BLACK
6
CONTINUOUS
10
4.5742843700787397
20
-4.763971692913386
11
4.5798541338582677
21
-4.758401929133858
0
LINE
8
BLACK
6
CONTINUOUS
10
4.5798541338582677
20
-4.758401929133858
11
4.5862265748031499
21
-4.7537720866141733
0
LINE
8
BLACK
6
CONTINUOUS
10
4.5862265748031499
20
-4.7537720866141733
11
4.5932448818897633
21
-4.7501961023622048
0
LINE
8
BLACK
6
CONTINUOUS
10
4.5932448818897633
20
-4.7501961023622048
11
4.6007361417322832
21
-4.7477620078740159
0
LINE
8
BLACK
6
CONTINUOUS
10
4.6007361417322832
20
-4.7477620078740159
11
4.6085159842519685
21
-4.7465298031496062
0
LINE
8
BLACK
6
CONTINUOUS
10
4.6085159842519685
20
-4.7465298031496062
11
4.6163927559055118
21
-4.7465298031496062
0
LINE
8
BLACK
6
CONTINUOUS
10
4.6163927559055118
20
-4.7465298031496062
11
4.6241725984251971
21
-4.7477620078740159
0
LINE
8
BLACK
6
CONTINUOUS
10
4.5642260236220471
20
-4.800367598425197
11
4.5654135826771656
21
-4.8078654330708659
0
LINE
8
BLACK
6
CONTINUOUS
10
4.5654135826771656
20
-4.8078654330708659
11
4.5677594094488185
21
-4.8150851968503936
0
LINE
8
BLACK
6
CONTINUOUS
10
4.5677594094488185
20
-4.8150851968503936
11
4.571205787401575
21
-4.8218490944881891
0
LINE
8
BLACK
6
CONTINUOUS
10
4.571205787401575
20
-4.8218490944881891
11
4.5756678346456692
21
-4.8279905905511811
0
LINE
8
BLACK
6
CONTINUOUS
10
4.5756678346456692
20
-4.8279905905511811
11
4.5810357086614175
21
-4.8333584645669294
0
LINE
8
BLACK
6
CONTINUOUS
10
4.5810357086614175
20
-4.8333584645669294
11
4.5871772047244095
21
-4.8378205118110236
0
LINE
8
BLACK
6
CONTINUOUS
10
4.5871772047244095
20
-4.8378205118110236
11
4.593941102362205
21
-4.8412668897637792
0
LINE
8
BLACK
6
CONTINUOUS
10
4.593941102362205
20
-4.8412668897637792
11
4.6011608661417318
21
-4.843612716535433
0
LINE
8
BLACK
6
CONTINUOUS
10
4.6011608661417318
20
-4.843612716535433
11
4.6086587007874016
21
-4.8448002755905515
0
LINE
8
BLACK
6
CONTINUOUS
10
4.6086587007874016
20
-4.8448002755905515
11
4.6162500393700787
21
-4.8448002755905515
0
LINE
8
BLACK
6
CONTINUOUS
10
4.6162500393700787
20
-4.8448002755905515
11
4.6237478740157476
21
-4.843612716535433
0
LINE
8
BLACK
6
CONTINUOUS
10
4.6237478740157476
20
-4.843612716535433
11
4.6309676377952753
21
-4.8412668897637792
0
LINE
8
BLACK
6
CONTINUOUS
10
4.6309676377952753
20
-4.8412668897637792
11
4.6377315354330708
21
-4.8378205118110236
0
LINE
8
BLACK
6
CONTINUOUS
10
4.6377315354330708
20
-4.8378205118110236
11
4.6438730314960628
21
-4.8333584645669294
0
LINE
8
BLACK
6
CONTINUOUS
10
4.6438730314960628
20
-4.8333584645669294
11
4.6492409055118111
21
-4.8279905905511811
0
LINE
8
BLACK
6
CONTINUOUS
10
4.6492409055118111
20
-4.8279905905511811
11
4.6537029527559053
21
-4.8218490944881891
0
LINE
8
BLACK
6
CONTINUOUS
10
4.6537029527559053
20
-4.8218490944881891
11
4.6571493307086609
21
-4.8150851968503936
0
LINE
8
BLACK
6
CONTINUOUS
10
4.6571493307086609
20
-4.8150851968503936
11
4.6594951574803147
21
-4.8078654330708659
0
LINE
8
BLACK
6
CONTINUOUS
10
4.6594951574803147
20
-4.8078654330708659
11
4.6606827165354332
21
-4.800367598425197
0
LINE
8
BLACK
6
CONTINUOUS
10
4.6606827165354332
20
-4.800367598425197
11
4.6606827165354332
21
-4.7927762598425199
0
LINE
8
BLACK
6
CONTINUOUS
10
4.6606827165354332
20
-4.7927762598425199
11
4.6594951574803147
21
-4.7852784251968501
0
LINE
8
BLACK
6
CONTINUOUS
10
4.6594951574803147
20
-4.7852784251968501
11
4.6571493307086609
21
-4.7780586614173224
0
LINE
8
BLACK
6
CONTINUOUS
10
4.6571493307086609
20
-4.7780586614173224
11
4.6537029527559053
21
-4.7712947637795278
0
LINE
8
BLACK
6
CONTINUOUS
10
4.6537029527559053
20
-4.7712947637795278
11
4.6492409055118111
21
-4.7651532677165349
0
LINE
8
BLACK
6
CONTINUOUS
10
4.6492409055118111
20
-4.7651532677165349
11
4.6438730314960628
21
-4.7597853937007875
0
LINE
8
BLACK
6
CONTINUOUS
10
4.6438730314960628
20
-4.7597853937007875
11
4.6377315354330708
21
-4.7553233464566924
0
LINE
8
BLACK
6
CONTINUOUS
10
4.6377315354330708
20
-4.7553233464566924
11
4.6309676377952753
21
-4.7518769685039368
0
LINE
8
BLACK
6
CONTINUOUS
10
4.6309676377952753
20
-4.7518769685039368
11
4.6237478740157476
21
-4.749531141732283
0
LINE
8
BLACK
6
CONTINUOUS
10
4.6237478740157476
20
-4.749531141732283
11
4.6162500393700787
21
-4.7483435826771654
0
LINE
8
BLACK
6
CONTINUOUS
10
4.6162500393700787
20
-4.7483435826771654
11
4.6086587007874016
21
-4.7483435826771654
0
LINE
8
BLACK
6
CONTINUOUS
10
4.6086587007874016
20
-4.7483435826771654
11
4.6011608661417318
21
-4.749531141732283
0
LINE
8
BLACK
6
CONTINUOUS
10
4.6011608661417318
20
-4.749531141732283
11
4.593941102362205
21
-4.7518769685039368
0
LINE
8
BLACK
6
CONTINUOUS
10
4.593941102362205
20
-4.7518769685039368
11
4.5871772047244095
21
-4.7553233464566924
0
LINE
8
BLACK
6
CONTINUOUS
10
4.5871772047244095
20
-4.7553233464566924
11
4.5810357086614175
21
-4.7597853937007875
0
LINE
8
BLACK
6
CONTINUOUS
10
4.5810357086614175
20
-4.7597853937007875
11
4.5756678346456692
21
-4.7651532677165349
0
LINE
8
BLACK
6
CONTINUOUS
10
4.5756678346456692
20
-4.7651532677165349
11
4.571205787401575
21
-4.7712947637795278
0
LINE
8
BLACK
6
CONTINUOUS
10
4.571205787401575
20
-4.7712947637795278
11
4.5677594094488185
21
-4.7780586614173224
0
LINE
8
BLACK
6
CONTINUOUS
10
4.5677594094488185
20
-4.7780586614173224
11
4.5654135826771656
21
-4.7852784251968501
0
LINE
8
BLACK
6
CONTINUOUS
10
4.5654135826771656
20
-4.7852784251968501
11
4.5642260236220471
21
-4.7927762598425199
0
LINE
8
BLACK
6
CONTINUOUS
10
4.5642260236220471
20
-4.7927762598425199
11
4.5642260236220471
21
-4.800367598425197
0
LINE
8
BLACK
6
CONTINUOUS
10
5.8446420472440943
20
-4.6496783464566924
11
5.845174724409449
21
-4.6502110236220471
0
LINE
8
BLACK
6
CONTINUOUS
10
5.845174724409449
20
-4.6502110236220471
11
5.8452496456692913
21
-4.6505876771653538
0
LINE
8
BLACK
6
CONTINUOUS
10
5.8452496456692913
20
-4.6505876771653538
11
5.8452496456692913
21
-4.7844459448818899
0
LINE
8
BLACK
6
CONTINUOUS
10
5.8452496456692913
20
-4.7844459448818899
11
5.845174724409449
21
-4.7848225984251966
0
LINE
8
BLACK
6
CONTINUOUS
10
5.845174724409449
20
-4.7848225984251966
11
5.8446420472440943
21
-4.7853552755905513
0
LINE
8
BLACK
6
CONTINUOUS
10
5.8446420472440943
20
-4.7853552755905513
11
5.8442653937007876
21
-4.7854301968503936
0
LINE
8
BLACK
6
CONTINUOUS
10
5.8442653937007876
20
-4.7854301968503936
11
5.6930842913385824
21
-4.7854301968503936
0
LINE
8
BLACK
6
CONTINUOUS
10
5.6930842913385824
20
-4.7854301968503936
11
5.6927076377952757
21
-4.7853552755905513
0
LINE
8
BLACK
6
CONTINUOUS
10
5.6927076377952757
20
-4.7853552755905513
11
5.692174960629921
21
-4.7848225984251966
0
LINE
8
BLACK
6
CONTINUOUS
10
5.692174960629921
20
-4.7848225984251966
11
5.6921000393700787
21
-4.7844459448818899
0
LINE
8
BLACK
6
CONTINUOUS
10
5.6921000393700787
20
-4.7844459448818899
11
5.6921000393700787
21
-4.6505876771653538
0
LINE
8
BLACK
6
CONTINUOUS
10
5.6921000393700787
20
-4.6505876771653538
11
5.692174960629921
21
-4.6502110236220471
0
LINE
8
BLACK
6
CONTINUOUS
10
5.692174960629921
20
-4.6502110236220471
11
5.6927076377952757
21
-4.6496783464566924
0
LINE
8
BLACK
6
CONTINUOUS
10
5.6927076377952757
20
-4.6496783464566924
11
5.6930842913385824
21
-4.6496034251968501
0
LINE
8
BLACK
6
CONTINUOUS
10
5.6930842913385824
20
-4.6496034251968501
11
5.8442653937007876
21
-4.6496034251968501
0
LINE
8
BLACK
6
CONTINUOUS
10
5.8442653937007876
20
-4.6496034251968501
11
5.8446420472440943
21
-4.6496783464566924
0
LINE
8
BLACK
6
CONTINUOUS
10
5.6940685433070861
20
-4.6515719291338584
11
5.6940685433070861
21
-4.7834616929133853
0
LINE
8
BLACK
6
CONTINUOUS
10
5.6940685433070861
20
-4.7834616929133853
11
5.843281141732283
21
-4.7834616929133853
0
LINE
8
BLACK
6
CONTINUOUS
10
5.843281141732283
20
-4.7834616929133853
11
5.843281141732283
21
-4.6515719291338584
0
LINE
8
BLACK
6
CONTINUOUS
10
5.843281141732283
20
-4.6515719291338584
11
5.6940685433070861
21
-4.6515719291338584
0
LINE
8
BLACK
6
CONTINUOUS
10
6.0446420472440945
20
-4.6496783464566924
11
6.0451747244094483
21
-4.6502110236220471
0
LINE
8
BLACK
6
CONTINUOUS
10
6.0451747244094483
20
-4.6502110236220471
11
6.0452496456692915
21
-4.6505876771653538
0
LINE
8
BLACK
6
CONTINUOUS
10
6.0452496456692915
20
-4.6505876771653538
11
6.0452496456692915
21
-4.7844459448818899
0
LINE
8
BLACK
6
CONTINUOUS
10
6.0452496456692915
20
-4.7844459448818899
11
6.0451747244094483
21
-4.7848225984251966
0
LINE
8
BLACK
6
CONTINUOUS
10
6.0451747244094483
20
-4.7848225984251966
11
6.0446420472440945
21
-4.7853552755905513
0
LINE
8
BLACK
6
CONTINUOUS
10
6.0446420472440945
20
-4.7853552755905513
11
6.0442653937007869
21
-4.7854301968503936
0
LINE
8
BLACK
6
CONTINUOUS
10
6.0442653937007869
20
-4.7854301968503936
11
5.8930842913385826
21
-4.7854301968503936
0
LINE
8
BLACK
6
CONTINUOUS
10
5.8930842913385826
20
-4.7854301968503936
11
5.8927076377952758
21
-4.7853552755905513
0
LINE
8
BLACK
6
CONTINUOUS
10
5.8927076377952758
20
-4.7853552755905513
11
5.8921749606299212
21
-4.7848225984251966
0
LINE
8
BLACK
6
CONTINUOUS
10
5.8921749606299212
20
-4.7848225984251966
11
5.8921000393700789
21
-4.7844459448818899
0
LINE
8
BLACK
6
CONTINUOUS
10
5.8921000393700789
20
-4.7844459448818899
11
5.8921000393700789
21
-4.6505876771653538
0
LINE
8
BLACK
6
CONTINUOUS
10
5.8921000393700789
20
-4.6505876771653538
11
5.8921749606299212
21
-4.6502110236220471
0
LINE
8
BLACK
6
CONTINUOUS
10
5.8921749606299212
20
-4.6502110236220471
11
5.8927076377952758
21
-4.6496783464566924
0
LINE
8
BLACK
6
CONTINUOUS
10
5.8927076377952758
20
-4.6496783464566924
11
5.8930842913385826
21
-4.6496034251968501
0
LINE
8
BLACK
6
CONTINUOUS
10
5.8930842913385826
20
-4.6496034251968501
11
6.0442653937007869
21
-4.6496034251968501
0
LINE
8
BLACK
6
CONTINUOUS
10
6.0442653937007869
20
-4.6496034251968501
11
6.0446420472440945
21
-4.6496783464566924
0
LINE
8
BLACK
6
CONTINUOUS
10
5.8940685433070863
20
-4.6515719291338584
11
5.8940685433070863
21
-4.7834616929133853
0
LINE
8
BLACK
6
CONTINUOUS
10
5.8940685433070863
20
-4.7834616929133853
11
6.0432811417322831
21
-4.7834616929133853
0
LINE
8
BLACK
6
CONTINUOUS
10
6.0432811417322831
20
-4.7834616929133853
11
6.0432811417322831
21
-4.6515719291338584
0
LINE
8
BLACK
6
CONTINUOUS
10
6.0432811417322831
20
-4.6515719291338584
11
5.8940685433070863
21
-4.6515719291338584
0
LINE
8
BLACK
6
CONTINUOUS
10
6.234642047244094
20
-4.6496783464566924
11
6.2351747244094486
21
-4.6502110236220471
0
LINE
8
BLACK
6
CONTINUOUS
10
6.2351747244094486
20
-4.6502110236220471
11
6.235249645669291
21
-4.6505876771653538
0
LINE
8
BLACK
6
CONTINUOUS
10
6.235249645669291
20
-4.6505876771653538
11
6.235249645669291
21
-4.7844459448818899
0
LINE
8
BLACK
6
CONTINUOUS
10
6.235249645669291
20
-4.7844459448818899
11
6.2351747244094486
21
-4.7848225984251966
0
LINE
8
BLACK
6
CONTINUOUS
10
6.2351747244094486
20
-4.7848225984251966
11
6.234642047244094
21
-4.7853552755905513
0
LINE
8
BLACK
6
CONTINUOUS
10
6.234642047244094
20
-4.7853552755905513
11
6.2342653937007872
21
-4.7854301968503936
0
LINE
8
BLACK
6
CONTINUOUS
10
6.2342653937007872
20
-4.7854301968503936
11
6.083084291338583
21
-4.7854301968503936
0
LINE
8
BLACK
6
CONTINUOUS
10
6.083084291338583
20
-4.7854301968503936
11
6.0827076377952753
21
-4.7853552755905513
0
LINE
8
BLACK
6
CONTINUOUS
10
6.0827076377952753
20
-4.7853552755905513
11
6.0821749606299207
21
-4.7848225984251966
0
LINE
8
BLACK
6
CONTINUOUS
10
6.0821749606299207
20
-4.7848225984251966
11
6.0821000393700784
21
-4.7844459448818899
0
LINE
8
BLACK
6
CONTINUOUS
10
6.0821000393700784
20
-4.7844459448818899
11
6.0821000393700784
21
-4.6505876771653538
0
LINE
8
BLACK
6
CONTINUOUS
10
6.0821000393700784
20
-4.6505876771653538
11
6.0821749606299207
21
-4.6502110236220471
0
LINE
8
BLACK
6
CONTINUOUS
10
6.0821749606299207
20
-4.6502110236220471
11
6.0827076377952753
21
-4.6496783464566924
0
LINE
8
BLACK
6
CONTINUOUS
10
6.0827076377952753
20
-4.6496783464566924
11
6.083084291338583
21
-4.6496034251968501
0
LINE
8
BLACK
6
CONTINUOUS
10
6.083084291338583
20
-4.6496034251968501
11
6.2342653937007872
21
-4.6496034251968501
0
LINE
8
BLACK
6
CONTINUOUS
10
6.2342653937007872
20
-4.6496034251968501
11
6.234642047244094
21
-4.6496783464566924
0
LINE
8
BLACK
6
CONTINUOUS
10
6.0840685433070867
20
-4.6515719291338584
11
6.0840685433070867
21
-4.7834616929133853
0
LINE
8
BLACK
6
CONTINUOUS
10
6.0840685433070867
20
-4.7834616929133853
11
6.2332811417322835
21
-4.7834616929133853
0
LINE
8
BLACK
6
CONTINUOUS
10
6.2332811417322835
20
-4.7834616929133853
11
6.2332811417322835
21
-4.6515719291338584
0
LINE
8
BLACK
6
CONTINUOUS
10
6.2332811417322835
20
-4.6515719291338584
11
6.0840685433070867
21
-4.6515719291338584
0
LINE
8
BLACK
6
CONTINUOUS
10
5.7764530708661415
20
-4.5104657480314962
11
5.7769857480314961
21
-4.51099842519685
0
LINE
8
BLACK
6
CONTINUOUS
10
5.7769857480314961
20
-4.51099842519685
11
5.7770606692913384
21
-4.5113750787401576
0
LINE
8
BLACK
6
CONTINUOUS
10
5.7770606692913384
20
-4.5113750787401576
11
5.7770606692913384
21
-4.6436585433070867
0
LINE
8
BLACK
6
CONTINUOUS
10
5.7770606692913384
20
-4.6436585433070867
11
5.7769857480314961
21
-4.6440351968503935
0
LINE
8
BLACK
6
CONTINUOUS
10
5.7769857480314961
20
-4.6440351968503935
11
5.7764530708661415
21
-4.6445678740157481
0
LINE
8
BLACK
6
CONTINUOUS
10
5.7764530708661415
20
-4.6445678740157481
11
5.7760764173228347
21
-4.6446427952755904
0
LINE
8
BLACK
6
CONTINUOUS
10
5.7760764173228347
20
-4.6446427952755904
11
5.7012732677165356
21
-4.6446427952755904
0
LINE
8
BLACK
6
CONTINUOUS
10
5.7012732677165356
20
-4.6446427952755904
11
5.700896614173228
21
-4.6445678740157481
0
LINE
8
BLACK
6
CONTINUOUS
10
5.700896614173228
20
-4.6445678740157481
11
5.7003639370078742
21
-4.6440351968503935
0
LINE
8
BLACK
6
CONTINUOUS
10
5.7003639370078742
20
-4.6440351968503935
11
5.700289015748031
21
-4.6436585433070867
0
LINE
8
BLACK
6
CONTINUOUS
10
5.700289015748031
20
-4.6436585433070867
11
5.700289015748031
21
-4.5113750787401576
0
LINE
8
BLACK
6
CONTINUOUS
10
5.700289015748031
20
-4.5113750787401576
11
5.7003639370078742
21
-4.51099842519685
0
LINE
8
BLACK
6
CONTINUOUS
10
5.7003639370078742
20
-4.51099842519685
11
5.700896614173228
21
-4.5104657480314962
0
LINE
8
BLACK
6
CONTINUOUS
10
5.700896614173228
20
-4.5104657480314962
11
5.7012732677165356
21
-4.510390826771653
0
LINE
8
BLACK
6
CONTINUOUS
10
5.7012732677165356
20
-4.510390826771653
11
5.7760764173228347
21
-4.510390826771653
0
LINE
8
BLACK
6
CONTINUOUS
10
5.7760764173228347
20
-4.510390826771653
11
5.7764530708661415
21
-4.5104657480314962
0
LINE
8
BLACK
6
CONTINUOUS
10
5.7022575196850394
20
-4.5123593307086614
11
5.7022575196850394
21
-4.642674291338583
0
LINE
8
BLACK
6
CONTINUOUS
10
5.7022575196850394
20
-4.642674291338583
11
5.775092165354331
21
-4.642674291338583
0
LINE
8
BLACK
6
CONTINUOUS
10
5.775092165354331
20
-4.642674291338583
11
5.775092165354331
21
-4.5123593307086614
0
LINE
8
BLACK
6
CONTINUOUS
10
5.775092165354331
20
-4.5123593307086614
11
5.7022575196850394
21
-4.5123593307086614
0
LINE
8
BLACK
6
CONTINUOUS
10
5.9764530708661416
20
-4.5104657480314962
11
5.9769857480314963
21
-4.51099842519685
0
LINE
8
BLACK
6
CONTINUOUS
10
5.9769857480314963
20
-4.51099842519685
11
5.9770606692913386
21
-4.5113750787401576
0
LINE
8
BLACK
6
CONTINUOUS
10
5.9770606692913386
20
-4.5113750787401576
11
5.9770606692913386
21
-4.6436585433070867
0
LINE
8
BLACK
6
CONTINUOUS
10
5.9770606692913386
20
-4.6436585433070867
11
5.9769857480314963
21
-4.6440351968503935
0
LINE
8
BLACK
6
CONTINUOUS
10
5.9769857480314963
20
-4.6440351968503935
11
5.9764530708661416
21
-4.6445678740157481
0
LINE
8
BLACK
6
CONTINUOUS
10
5.9764530708661416
20
-4.6445678740157481
11
5.9760764173228349
21
-4.6446427952755904
0
LINE
8
BLACK
6
CONTINUOUS
10
5.9760764173228349
20
-4.6446427952755904
11
5.9012732677165349
21
-4.6446427952755904
0
LINE
8
BLACK
6
CONTINUOUS
10
5.9012732677165349
20
-4.6446427952755904
11
5.9008966141732282
21
-4.6445678740157481
0
LINE
8
BLACK
6
CONTINUOUS
10
5.9008966141732282
20
-4.6445678740157481
11
5.9003639370078735
21
-4.6440351968503935
0
LINE
8
BLACK
6
CONTINUOUS
10
5.9003639370078735
20
-4.6440351968503935
11
5.9002890157480312
21
-4.6436585433070867
0
LINE
8
BLACK
6
CONTINUOUS
10
5.9002890157480312
20
-4.6436585433070867
11
5.9002890157480312
21
-4.5113750787401576
0
LINE
8
BLACK
6
CONTINUOUS
10
5.9002890157480312
20
-4.5113750787401576
11
5.9003639370078735
21
-4.51099842519685
0
LINE
8
BLACK
6
CONTINUOUS
10
5.9003639370078735
20
-4.51099842519685
11
5.9008966141732282
21
-4.5104657480314962
0
LINE
8
BLACK
6
CONTINUOUS
10
5.9008966141732282
20
-4.5104657480314962
11
5.9012732677165349
21
-4.510390826771653
0
LINE
8
BLACK
6
CONTINUOUS
10
5.9012732677165349
20
-4.510390826771653
11
5.9760764173228349
21
-4.510390826771653
0
LINE
8
BLACK
6
CONTINUOUS
10
5.9760764173228349
20
-4.510390826771653
11
5.9764530708661416
21
-4.5104657480314962
0
LINE
8
BLACK
6
CONTINUOUS
10
5.9022575196850395
20
-4.5123593307086614
11
5.9022575196850395
21
-4.642674291338583
0
LINE
8
BLACK
6
CONTINUOUS
10
5.9022575196850395
20
-4.642674291338583
11
5.9750921653543303
21
-4.642674291338583
0
LINE
8
BLACK
6
CONTINUOUS
10
5.9750921653543303
20
-4.642674291338583
11
5.9750921653543303
21
-4.5123593307086614
0
LINE
8
BLACK
6
CONTINUOUS
10
5.9750921653543303
20
-4.5123593307086614
11
5.9022575196850395
21
-4.5123593307086614
0
LINE
8
BLACK
6
CONTINUOUS
10
6.1764530708661418
20
-4.5104657480314962
11
6.1769857480314956
21
-4.51099842519685
0
LINE
8
BLACK
6
CONTINUOUS
10
6.1769857480314956
20
-4.51099842519685
11
6.1770606692913388
21
-4.5113750787401576
0
LINE
8
BLACK
6
CONTINUOUS
10
6.1770606692913388
20
-4.5113750787401576
11
6.1770606692913388
21
-4.6436585433070867
0
LINE
8
BLACK
6
CONTINUOUS
10
6.1770606692913388
20
-4.6436585433070867
11
6.1769857480314956
21
-4.6440351968503935
0
LINE
8
BLACK
6
CONTINUOUS
10
6.1769857480314956
20
-4.6440351968503935
11
6.1764530708661418
21
-4.6445678740157481
0
LINE
8
BLACK
6
CONTINUOUS
10
6.1764530708661418
20
-4.6445678740157481
11
6.1760764173228342
21
-4.6446427952755904
0
LINE
8
BLACK
6
CONTINUOUS
10
6.1760764173228342
20
-4.6446427952755904
11
6.1012732677165351
21
-4.6446427952755904
0
LINE
8
BLACK
6
CONTINUOUS
10
6.1012732677165351
20
-4.6446427952755904
11
6.1008966141732284
21
-4.6445678740157481
0
LINE
8
BLACK
6
CONTINUOUS
10
6.1008966141732284
20
-4.6445678740157481
11
6.1003639370078737
21
-4.6440351968503935
0
LINE
8
BLACK
6
CONTINUOUS
10
6.1003639370078737
20
-4.6440351968503935
11
6.1002890157480314
21
-4.6436585433070867
0
LINE
8
BLACK
6
CONTINUOUS
10
6.1002890157480314
20
-4.6436585433070867
11
6.1002890157480314
21
-4.5113750787401576
0
LINE
8
BLACK
6
CONTINUOUS
10
6.1002890157480314
20
-4.5113750787401576
11
6.1003639370078737
21
-4.51099842519685
0
LINE
8
BLACK
6
CONTINUOUS
10
6.1003639370078737
20
-4.51099842519685
11
6.1008966141732284
21
-4.5104657480314962
0
LINE
8
BLACK
6
CONTINUOUS
10
6.1008966141732284
20
-4.5104657480314962
11
6.1012732677165351
21
-4.510390826771653
0
LINE
8
BLACK
6
CONTINUOUS
10
6.1012732677165351
20
-4.510390826771653
11
6.1760764173228342
21
-4.510390826771653
0
LINE
8
BLACK
6
CONTINUOUS
10
6.1760764173228342
20
-4.510390826771653
11
6.1764530708661418
21
-4.5104657480314962
0
LINE
8
BLACK
6
CONTINUOUS
10
6.1022575196850388
20
-4.5123593307086614
11
6.1022575196850388
21
-4.642674291338583
0
LINE
8
BLACK
6
CONTINUOUS
10
6.1022575196850388
20
-4.642674291338583
11
6.1750921653543305
21
-4.642674291338583
0
LINE
8
BLACK
6
CONTINUOUS
10
6.1750921653543305
20
-4.642674291338583
11
6.1750921653543305
21
-4.5123593307086614
0
LINE
8
BLACK
6
CONTINUOUS
10
6.1750921653543305
20
-4.5123593307086614
11
6.1022575196850388
21
-4.5123593307086614
0
LINE
8
BLACK
6
CONTINUOUS
10
5.876453070866142
20
-4.4704657480314962
11
5.8769857480314958
21
-4.47099842519685
0
LINE
8
BLACK
6
CONTINUOUS
10
5.8769857480314958
20
-4.47099842519685
11
5.8770606692913381
21
-4.4713750787401576
0
LINE
8
BLACK
6
CONTINUOUS
10
5.8770606692913381
20
-4.4713750787401576
11
5.8770606692913381
21
-4.6036585433070867
0
LINE
8
BLACK
6
CONTINUOUS
10
5.8770606692913381
20
-4.6036585433070867
11
5.8769857480314958
21
-4.6040351968503934
0
LINE
8
BLACK
6
CONTINUOUS
10
5.8769857480314958
20
-4.6040351968503934
11
5.876453070866142
21
-4.6045678740157481
0
LINE
8
BLACK
6
CONTINUOUS
10
5.876453070866142
20
-4.6045678740157481
11
5.8760764173228344
21
-4.6046427952755904
0
LINE
8
BLACK
6
CONTINUOUS
10
5.8760764173228344
20
-4.6046427952755904
11
5.8012732677165353
21
-4.6046427952755904
0
LINE
8
BLACK
6
CONTINUOUS
10
5.8012732677165353
20
-4.6046427952755904
11
5.8008966141732285
21
-4.6045678740157481
0
LINE
8
BLACK
6
CONTINUOUS
10
5.8008966141732285
20
-4.6045678740157481
11
5.8003639370078739
21
-4.6040351968503934
0
LINE
8
BLACK
6
CONTINUOUS
10
5.8003639370078739
20
-4.6040351968503934
11
5.8002890157480316
21
-4.6036585433070867
0
LINE
8
BLACK
6
CONTINUOUS
10
5.8002890157480316
20
-4.6036585433070867
11
5.8002890157480316
21
-4.4713750787401576
0
LINE
8
BLACK
6
CONTINUOUS
10
5.8002890157480316
20
-4.4713750787401576
11
5.8003639370078739
21
-4.47099842519685
0
LINE
8
BLACK
6
CONTINUOUS
10
5.8003639370078739
20
-4.47099842519685
11
5.8008966141732285
21
-4.4704657480314962
0
LINE
8
BLACK
6
CONTINUOUS
10
5.8008966141732285
20
-4.4704657480314962
11
5.8012732677165353
21
-4.470390826771653
0
LINE
8
BLACK
6
CONTINUOUS
10
5.8012732677165353
20
-4.470390826771653
11
5.8760764173228344
21
-4.470390826771653
0
LINE
8
BLACK
6
CONTINUOUS
10
5.8760764173228344
20
-4.470390826771653
11
5.876453070866142
21
-4.4704657480314962
0
LINE
8
BLACK
6
CONTINUOUS
10
5.802257519685039
20
-4.4723593307086613
11
5.802257519685039
21
-4.602674291338583
0
LINE
8
BLACK
6
CONTINUOUS
10
5.802257519685039
20
-4.602674291338583
11
5.8750921653543307
21
-4.602674291338583
0
LINE
8
BLACK
6
CONTINUOUS
10
5.8750921653543307
20
-4.602674291338583
11
5.8750921653543307
21
-4.4723593307086613
0
LINE
8
BLACK
6
CONTINUOUS
10
5.8750921653543307
20
-4.4723593307086613
11
5.802257519685039
21
-4.4723593307086613
0
LINE
8
BLACK
6
CONTINUOUS
10
6.0764530708661413
20
-4.4704657480314962
11
6.0769857480314959
21
-4.47099842519685
0
LINE
8
BLACK
6
CONTINUOUS
10
6.0769857480314959
20
-4.47099842519685
11
6.0770606692913383
21
-4.4713750787401576
0
LINE
8
BLACK
6
CONTINUOUS
10
6.0770606692913383
20
-4.4713750787401576
11
6.0770606692913383
21
-4.6036585433070867
0
LINE
8
BLACK
6
CONTINUOUS
10
6.0770606692913383
20
-4.6036585433070867
11
6.0769857480314959
21
-4.6040351968503934
0
LINE
8
BLACK
6
CONTINUOUS
10
6.0769857480314959
20
-4.6040351968503934
11
6.0764530708661413
21
-4.6045678740157481
0
LINE
8
BLACK
6
CONTINUOUS
10
6.0764530708661413
20
-4.6045678740157481
11
6.0760764173228345
21
-4.6046427952755904
0
LINE
8
BLACK
6
CONTINUOUS
10
6.0760764173228345
20
-4.6046427952755904
11
6.0012732677165355
21
-4.6046427952755904
0
LINE
8
BLACK
6
CONTINUOUS
10
6.0012732677165355
20
-4.6046427952755904
11
6.0008966141732278
21
-4.6045678740157481
0
LINE
8
BLACK
6
CONTINUOUS
10
6.0008966141732278
20
-4.6045678740157481
11
6.0003639370078741
21
-4.6040351968503934
0
LINE
8
BLACK
6
CONTINUOUS
10
6.0003639370078741
20
-4.6040351968503934
11
6.0002890157480318
21
-4.6036585433070867
0
LINE
8
BLACK
6
CONTINUOUS
10
6.0002890157480318
20
-4.6036585433070867
11
6.0002890157480318
21
-4.4713750787401576
0
LINE
8
BLACK
6
CONTINUOUS
10
6.0002890157480318
20
-4.4713750787401576
11
6.0003639370078741
21
-4.47099842519685
0
LINE
8
BLACK
6
CONTINUOUS
10
6.0003639370078741
20
-4.47099842519685
11
6.0008966141732278
21
-4.4704657480314962
0
LINE
8
BLACK
6
CONTINUOUS
10
6.0008966141732278
20
-4.4704657480314962
11
6.0012732677165355
21
-4.470390826771653
0
LINE
8
BLACK
6
CONTINUOUS
10
6.0012732677165355
20
-4.470390826771653
11
6.0760764173228345
21
-4.470390826771653
0
LINE
8
BLACK
6
CONTINUOUS
10
6.0760764173228345
20
-4.470390826771653
11
6.0764530708661413
21
-4.4704657480314962
0
LINE
8
BLACK
6
CONTINUOUS
10
6.0022575196850392
20
-4.4723593307086613
11
6.0022575196850392
21
-4.602674291338583
0
LINE
8
BLACK
6
CONTINUOUS
10
6.0022575196850392
20
-4.602674291338583
11
6.0750921653543308
21
-4.602674291338583
0
LINE
8
BLACK
6
CONTINUOUS
10
6.0750921653543308
20
-4.602674291338583
11
6.0750921653543308
21
-4.4723593307086613
0
LINE
8
BLACK
6
CONTINUOUS
10
6.0750921653543308
20
-4.4723593307086613
11
6.0022575196850392
21
-4.4723593307086613
0
LINE
8
BLACK
6
CONTINUOUS
10
6.2664530708661417
20
-4.4704657480314962
11
6.2669857480314963
21
-4.47099842519685
0
LINE
8
BLACK
6
CONTINUOUS
10
6.2669857480314963
20
-4.47099842519685
11
6.2670606692913386
21
-4.4713750787401576
0
LINE
8
BLACK
6
CONTINUOUS
10
6.2670606692913386
20
-4.4713750787401576
11
6.2670606692913386
21
-4.6036585433070867
0
LINE
8
BLACK
6
CONTINUOUS
10
6.2670606692913386
20
-4.6036585433070867
11
6.2669857480314963
21
-4.6040351968503934
0
LINE
8
BLACK
6
CONTINUOUS
10
6.2669857480314963
20
-4.6040351968503934
11
6.2664530708661417
21
-4.6045678740157481
0
LINE
8
BLACK
6
CONTINUOUS
10
6.2664530708661417
20
-4.6045678740157481
11
6.2660764173228349
21
-4.6046427952755904
0
LINE
8
BLACK
6
CONTINUOUS
10
6.2660764173228349
20
-4.6046427952755904
11
6.191273267716535
21
-4.6046427952755904
0
LINE
8
BLACK
6
CONTINUOUS
10
6.191273267716535
20
-4.6046427952755904
11
6.1908966141732282
21
-4.6045678740157481
0
LINE
8
BLACK
6
CONTINUOUS
10
6.1908966141732282
20
-4.6045678740157481
11
6.1903639370078736
21
-4.6040351968503934
0
LINE
8
BLACK
6
CONTINUOUS
10
6.1903639370078736
20
-4.6040351968503934
11
6.1902890157480313
21
-4.6036585433070867
0
LINE
8
BLACK
6
CONTINUOUS
10
6.1902890157480313
20
-4.6036585433070867
11
6.1902890157480313
21
-4.4713750787401576
0
LINE
8
BLACK
6
CONTINUOUS
10
6.1902890157480313
20
-4.4713750787401576
11
6.1903639370078736
21
-4.47099842519685
0
LINE
8
BLACK
6
CONTINUOUS
10
6.1903639370078736
20
-4.47099842519685
11
6.1908966141732282
21
-4.4704657480314962
0
LINE
8
BLACK
6
CONTINUOUS
10
6.1908966141732282
20
-4.4704657480314962
11
6.191273267716535
21
-4.470390826771653
0
LINE
8
BLACK
6
CONTINUOUS
10
6.191273267716535
20
-4.470390826771653
11
6.2660764173228349
21
-4.470390826771653
0
LINE
8
BLACK
6
CONTINUOUS
10
6.2660764173228349
20
-4.470390826771653
11
6.2664530708661417
21
-4.4704657480314962
0
LINE
8
BLACK
6
CONTINUOUS
10
6.1922575196850396
20
-4.4723593307086613
11
6.1922575196850396
21
-4.602674291338583
0
LINE
8
BLACK
6
CONTINUOUS
10
6.1922575196850396
20
-4.602674291338583
11
6.2650921653543303
21
-4.602674291338583
0
LINE
8
BLACK
6
CONTINUOUS
10
6.2650921653543303
20
-4.602674291338583
11
6.2650921653543303
21
-4.4723593307086613
0
LINE
8
BLACK
6
CONTINUOUS
10
6.2650921653543303
20
-4.4723593307086613
11
6.1922575196850396
21
-4.4723593307086613
0
LINE
8
BLACK
6
CONTINUOUS
10
6.8549570078740159
20
-4.0137728346456694
11
6.8554896850393696
21
-4.0143055118110231
0
LINE
8
BLACK
6
CONTINUOUS
10
6.8554896850393696
20
-4.0143055118110231
11
6.8555646062992128
21
-4.0146821653543308
0
LINE
8
BLACK
6
CONTINUOUS
10
6.8555646062992128
20
-4.0146821653543308
11
6.8555646062992128
21
-4.0918475196850395
0
LINE
8
BLACK
6
CONTINUOUS
10
6.8555646062992128
20
-4.0918475196850395
11
6.8554896850393696
21
-4.0922241732283462
0
LINE
8
BLACK
6
CONTINUOUS
10
6.8554896850393696
20
-4.0922241732283462
11
6.8549570078740159
21
-4.0927568503937009
0
LINE
8
BLACK
6
CONTINUOUS
10
6.8549570078740159
20
-4.0927568503937009
11
6.8545803543307082
21
-4.0928317716535432
0
LINE
8
BLACK
6
CONTINUOUS
10
6.8545803543307082
20
-4.0928317716535432
11
6.720722086614173
21
-4.0928317716535432
0
LINE
8
BLACK
6
CONTINUOUS
10
6.720722086614173
20
-4.0928317716535432
11
6.7203454330708663
21
-4.0927568503937009
0
LINE
8
BLACK
6
CONTINUOUS
10
6.7203454330708663
20
-4.0927568503937009
11
6.7198127559055116
21
-4.0922241732283462
0
LINE
8
BLACK
6
CONTINUOUS
10
6.7198127559055116
20
-4.0922241732283462
11
6.7197378346456693
21
-4.0918475196850395
0
LINE
8
BLACK
6
CONTINUOUS
10
6.7197378346456693
20
-4.0918475196850395
11
6.7197378346456693
21
-4.0146821653543308
0
LINE
8
BLACK
6
CONTINUOUS
10
6.7197378346456693
20
-4.0146821653543308
11
6.7198127559055116
21
-4.0143055118110231
0
LINE
8
BLACK
6
CONTINUOUS
10
6.7198127559055116
20
-4.0143055118110231
11
6.7203454330708663
21
-4.0137728346456694
0
LINE
8
BLACK
6
CONTINUOUS
10
6.7203454330708663
20
-4.0137728346456694
11
6.720722086614173
21
-4.013697913385827
0
LINE
8
BLACK
6
CONTINUOUS
10
6.720722086614173
20
-4.013697913385827
11
6.8545803543307082
21
-4.013697913385827
0
LINE
8
BLACK
6
CONTINUOUS
10
6.8545803543307082
20
-4.013697913385827
11
6.8549570078740159
21
-4.0137728346456694
0
LINE
8
BLACK
6
CONTINUOUS
10
6.7217063385826767
20
-4.0156664173228345
11
6.7217063385826767
21
-4.0908632677165357
0
LINE
8
BLACK
6
CONTINUOUS
10
6.7217063385826767
20
-4.0908632677165357
11
6.8535961023622045
21
-4.0908632677165357
0
LINE
8
BLACK
6
CONTINUOUS
10
6.8535961023622045
20
-4.0908632677165357
11
6.8535961023622045
21
-4.0156664173228345
0
LINE
8
BLACK
6
CONTINUOUS
10
6.8535961023622045
20
-4.0156664173228345
11
6.7217063385826767
21
-4.0156664173228345
0
LINE
8
BLACK
6
CONTINUOUS
10
6.7092877165354325
20
-4.0141665354330707
11
6.7098203937007872
21
-4.0146992125984253
0
LINE
8
BLACK
6
CONTINUOUS
10
6.7098203937007872
20
-4.0146992125984253
11
6.7098953149606295
21
-4.0150758661417321
0
LINE
8
BLACK
6
CONTINUOUS
10
6.7098953149606295
20
-4.0150758661417321
11
6.7098953149606295
21
-4.0898790157480311
0
LINE
8
BLACK
6
CONTINUOUS
10
6.7098953149606295
20
-4.0898790157480311
11
6.7098203937007872
21
-4.0902556692913388
0
LINE
8
BLACK
6
CONTINUOUS
10
6.7098203937007872
20
-4.0902556692913388
11
6.7092877165354325
21
-4.0907883464566925
0
LINE
8
BLACK
6
CONTINUOUS
10
6.7092877165354325
20
-4.0907883464566925
11
6.7089110629921258
21
-4.0908632677165357
0
LINE
8
BLACK
6
CONTINUOUS
10
6.7089110629921258
20
-4.0908632677165357
11
6.5766275984251967
21
-4.0908632677165357
0
LINE
8
BLACK
6
CONTINUOUS
10
6.5766275984251967
20
-4.0908632677165357
11
6.57625094488189
21
-4.0907883464566925
0
LINE
8
BLACK
6
CONTINUOUS
10
6.57625094488189
20
-4.0907883464566925
11
6.5757182677165353
21
-4.0902556692913388
0
LINE
8
BLACK
6
CONTINUOUS
10
6.5757182677165353
20
-4.0902556692913388
11
6.575643346456693
21
-4.0898790157480311
0
LINE
8
BLACK
6
CONTINUOUS
10
6.575643346456693
20
-4.0898790157480311
11
6.575643346456693
21
-4.0150758661417321
0
LINE
8
BLACK
6
CONTINUOUS
10
6.575643346456693
20
-4.0150758661417321
11
6.5757182677165353
21
-4.0146992125984253
0
LINE
8
BLACK
6
CONTINUOUS
10
6.5757182677165353
20
-4.0146992125984253
11
6.57625094488189
21
-4.0141665354330707
0
LINE
8
BLACK
6
CONTINUOUS
10
6.57625094488189
20
-4.0141665354330707
11
6.5766275984251967
21
-4.0140916141732284
0
LINE
8
BLACK
6
CONTINUOUS
10
6.5766275984251967
20
-4.0140916141732284
11
6.7089110629921258
21
-4.0140916141732284
0
LINE
8
BLACK
6
CONTINUOUS
10
6.7089110629921258
20
-4.0140916141732284
11
6.7092877165354325
21
-4.0141665354330707
0
LINE
8
BLACK
6
CONTINUOUS
10
6.5776118503937004
20
-4.0160601181102358
11
6.5776118503937004
21
-4.0888947637795274
0
LINE
8
BLACK
6
CONTINUOUS
10
6.5776118503937004
20
-4.0888947637795274
11
6.7079268110236221
21
-4.0888947637795274
0
LINE
8
BLACK
6
CONTINUOUS
10
6.7079268110236221
20
-4.0888947637795274
11
6.7079268110236221
21
-4.0160601181102358
0
LINE
8
BLACK
6
CONTINUOUS
10
6.7079268110236221
20
-4.0160601181102358
11
6.5776118503937004
21
-4.0160601181102358
0
LINE
8
BLACK
6
CONTINUOUS
10
7.1940121259842522
20
-3.9293948818897637
11
7.194544803149606
21
-3.9299275590551179
0
LINE
8
BLACK
6
CONTINUOUS
10
7.194544803149606
20
-3.9299275590551179
11
7.1946197244094483
21
-3.9303042125984251
0
LINE
8
BLACK
6
CONTINUOUS
10
7.1946197244094483
20
-3.9303042125984251
11
7.1946197244094483
21
-4.0287294094488191
0
LINE
8
BLACK
6
CONTINUOUS
10
7.1946197244094483
20
-4.0287294094488191
11
7.194544803149606
21
-4.0291060629921258
0
LINE
8
BLACK
6
CONTINUOUS
10
7.194544803149606
20
-4.0291060629921258
11
7.1940121259842522
21
-4.0296387401574805
0
LINE
8
BLACK
6
CONTINUOUS
10
7.1940121259842522
20
-4.0296387401574805
11
7.1936354724409446
21
-4.0297136614173228
0
LINE
8
BLACK
6
CONTINUOUS
10
7.1936354724409446
20
-4.0297136614173228
11
7.0637142125984251
21
-4.0297136614173228
0
LINE
8
BLACK
6
CONTINUOUS
10
7.0637142125984251
20
-4.0297136614173228
11
7.0633375590551175
21
-4.0296387401574805
0
LINE
8
BLACK
6
CONTINUOUS
10
7.0633375590551175
20
-4.0296387401574805
11
7.0628048818897637
21
-4.0291060629921258
0
LINE
8
BLACK
6
CONTINUOUS
10
7.0628048818897637
20
-4.0291060629921258
11
7.0627299606299214
21
-4.0287294094488191
0
LINE
8
BLACK
6
CONTINUOUS
10
7.0627299606299214
20
-4.0287294094488191
11
7.0627299606299214
21
-3.9303042125984251
0
LINE
8
BLACK
6
CONTINUOUS
10
7.0627299606299214
20
-3.9303042125984251
11
7.0628048818897637
21
-3.9299275590551179
0
LINE
8
BLACK
6
CONTINUOUS
10
7.0628048818897637
20
-3.9299275590551179
11
7.0633375590551175
21
-3.9293948818897637
0
LINE
8
BLACK
6
CONTINUOUS
10
7.0633375590551175
20
-3.9293948818897637
11
7.0637142125984251
21
-3.9293199606299209
0
LINE
8
BLACK
6
CONTINUOUS
10
7.0637142125984251
20
-3.9293199606299209
11
7.1936354724409446
21
-3.9293199606299209
0
LINE
8
BLACK
6
CONTINUOUS
10
7.1936354724409446
20
-3.9293199606299209
11
7.1940121259842522
21
-3.9293948818897637
0
LINE
8
BLACK
6
CONTINUOUS
10
7.0646984645669288
20
-3.9312884645669293
11
7.0646984645669288
21
-4.0277451574803145
0
LINE
8
BLACK
6
CONTINUOUS
10
7.0646984645669288
20
-4.0277451574803145
11
7.1926512204724409
21
-4.0277451574803145
0
LINE
8
BLACK
6
CONTINUOUS
10
7.1926512204724409
20
-4.0277451574803145
11
7.1926512204724409
21
-3.9312884645669293
0
LINE
8
BLACK
6
CONTINUOUS
10
7.1926512204724409
20
-3.9312884645669293
11
7.0646984645669288
21
-3.9312884645669293
0
LINE
8
BLACK
6
CONTINUOUS
10
7.4750357480314955
20
-3.5511744094488189
11
7.4755684251968502
21
-3.5517070866141731
0
LINE
8
BLACK
6
CONTINUOUS
10
7.4755684251968502
20
-3.5517070866141731
11
7.4756433464566925
21
-3.5520837401574803
0
LINE
8
BLACK
6
CONTINUOUS
10
7.4756433464566925
20
-3.5520837401574803
11
7.4756433464566925
21
-4.0229498818897635
0
LINE
8
BLACK
6
CONTINUOUS
10
7.4756433464566925
20
-4.0229498818897635
11
7.4755684251968502
21
-4.0233265354330712
0
LINE
8
BLACK
6
CONTINUOUS
10
7.4755684251968502
20
-4.0233265354330712
11
7.4750357480314955
21
-4.0238592125984249
0
LINE
8
BLACK
6
CONTINUOUS
10
7.4750357480314955
20
-4.0238592125984249
11
7.4746590944881888
21
-4.0239341338582673
0
LINE
8
BLACK
6
CONTINUOUS
10
7.4746590944881888
20
-4.0239341338582673
11
7.2226905905511813
21
-4.0239341338582673
0
LINE
8
BLACK
6
CONTINUOUS
10
7.2226905905511813
20
-4.0239341338582673
11
7.2223139370078737
21
-4.0238592125984249
0
LINE
8
BLACK
6
CONTINUOUS
10
7.2223139370078737
20
-4.0238592125984249
11
7.22178125984252
21
-4.0233265354330712
0
LINE
8
BLACK
6
CONTINUOUS
10
7.22178125984252
20
-4.0233265354330712
11
7.2217063385826767
21
-4.0229498818897635
0
LINE
8
BLACK
6
CONTINUOUS
10
7.2217063385826767
20
-4.0229498818897635
11
7.2217063385826767
21
-3.5520837401574803
0
LINE
8
BLACK
6
CONTINUOUS
10
7.2217063385826767
20
-3.5520837401574803
11
7.22178125984252
21
-3.5517070866141731
0
LINE
8
BLACK
6
CONTINUOUS
10
7.22178125984252
20
-3.5517070866141731
11
7.2223139370078737
21
-3.5511744094488189
0
LINE
8
BLACK
6
CONTINUOUS
10
7.2223139370078737
20
-3.5511744094488189
11
7.2226905905511813
21
-3.5510994881889761
0
LINE
8
BLACK
6
CONTINUOUS
10
7.2226905905511813
20
-3.5510994881889761
11
7.4746590944881888
21
-3.5510994881889761
0
LINE
8
BLACK
6
CONTINUOUS
10
7.4746590944881888
20
-3.5510994881889761
11
7.4750357480314955
21
-3.5511744094488189
0
LINE
8
BLACK
6
CONTINUOUS
10
7.2236748425196851
20
-3.553067992125984
11
7.2236748425196851
21
-4.0219656299212598
0
LINE
8
BLACK
6
CONTINUOUS
10
7.2236748425196851
20
-4.0219656299212598
11
7.4736748425196851
21
-4.0219656299212598
0
LINE
8
BLACK
6
CONTINUOUS
10
7.4736748425196851
20
-4.0219656299212598
11
7.4736748425196851
21
-3.553067992125984
0
LINE
8
BLACK
6
CONTINUOUS
10
7.4736748425196851
20
-3.553067992125984
11
7.2236748425196851
21
-3.553067992125984
0
LINE
8
BLACK
6
CONTINUOUS
10
6.2003034645669288
20
-3.9271114173228345
11
6.2008361417322835
21
-3.9276440944881887
0
LINE
8
BLACK
6
CONTINUOUS
10
6.2008361417322835
20
-3.9276440944881887
11
6.2009110629921258
21
-3.9280207480314959
0
LINE
8
BLACK
6
CONTINUOUS
10
6.2009110629921258
20
-3.9280207480314959
11
6.2009110629921258
21
-4.0106979133858269
0
LINE
8
BLACK
6
CONTINUOUS
10
6.2009110629921258
20
-4.0106979133858269
11
6.2008361417322835
21
-4.0110745669291337
0
LINE
8
BLACK
6
CONTINUOUS
10
6.2008361417322835
20
-4.0110745669291337
11
6.2003034645669288
21
-4.0116072440944883
0
LINE
8
BLACK
6
CONTINUOUS
10
6.2003034645669288
20
-4.0116072440944883
11
6.1999268110236221
21
-4.0116821653543306
0
LINE
8
BLACK
6
CONTINUOUS
10
6.1999268110236221
20
-4.0116821653543306
11
6.0188244488188971
21
-4.0116821653543306
0
LINE
8
BLACK
6
CONTINUOUS
10
6.0188244488188971
20
-4.0116821653543306
11
6.0184477952755904
21
-4.0116072440944883
0
LINE
8
BLACK
6
CONTINUOUS
10
6.0184477952755904
20
-4.0116072440944883
11
6.0179151181102357
21
-4.0110745669291337
0
LINE
8
BLACK
6
CONTINUOUS
10
6.0179151181102357
20
-4.0110745669291337
11
6.0178401968503934
21
-4.0106979133858269
0
LINE
8
BLACK
6
CONTINUOUS
10
6.0178401968503934
20
-4.0106979133858269
11
6.0178401968503934
21
-3.9280207480314959
0
LINE
8
BLACK
6
CONTINUOUS
10
6.0178401968503934
20
-3.9280207480314959
11
6.0179151181102357
21
-3.9276440944881887
0
LINE
8
BLACK
6
CONTINUOUS
10
6.0179151181102357
20
-3.9276440944881887
11
6.0184477952755904
21
-3.9271114173228345
0
LINE
8
BLACK
6
CONTINUOUS
10
6.0184477952755904
20
-3.9271114173228345
11
6.0188244488188971
21
-3.9270364960629922
0
LINE
8
BLACK
6
CONTINUOUS
10
6.0188244488188971
20
-3.9270364960629922
11
6.1999268110236221
21
-3.9270364960629922
0
LINE
8
BLACK
6
CONTINUOUS
10
6.1999268110236221
20
-3.9270364960629922
11
6.2003034645669288
21
-3.9271114173228345
0
LINE
8
BLACK
6
CONTINUOUS
10
6.0198087007874017
20
-3.9290050000000001
11
6.0198087007874017
21
-4.0097136614173223
0
LINE
8
BLACK
6
CONTINUOUS
10
6.0198087007874017
20
-4.0097136614173223
11
6.1989425590551184
21
-4.0097136614173223
0
LINE
8
BLACK
6
CONTINUOUS
10
6.1989425590551184
20
-4.0097136614173223
11
6.1989425590551184
21
-3.9290050000000001
0
LINE
8
BLACK
6
CONTINUOUS
10
6.1989425590551184
20
-3.9290050000000001
11
6.0198087007874017
21
-3.9290050000000001
0
LINE
8
BLACK
6
CONTINUOUS
10
7.1691932283464563
20
-3.8492059055118109
11
7.169725905511811
21
-3.8497385826771651
0
LINE
8
BLACK
6
CONTINUOUS
10
7.169725905511811
20
-3.8497385826771651
11
7.1698008267716533
21
-3.8501152362204722
0
LINE
8
BLACK
6
CONTINUOUS
10
7.1698008267716533
20
-3.8501152362204722
11
7.1698008267716533
21
-3.9249183858267718
0
LINE
8
BLACK
6
CONTINUOUS
10
7.1698008267716533
20
-3.9249183858267718
11
7.169725905511811
21
-3.9252950393700785
0
LINE
8
BLACK
6
CONTINUOUS
10
7.169725905511811
20
-3.9252950393700785
11
7.1691932283464563
21
-3.9258277165354332
0
LINE
8
BLACK
6
CONTINUOUS
10
7.1691932283464563
20
-3.9258277165354332
11
7.1688165748031496
21
-3.9259026377952755
0
LINE
8
BLACK
6
CONTINUOUS
10
7.1688165748031496
20
-3.9259026377952755
11
7.0365331102362205
21
-3.9259026377952755
0
LINE
8
BLACK
6
CONTINUOUS
10
7.0365331102362205
20
-3.9259026377952755
11
7.0361564566929129
21
-3.9258277165354332
0
LINE
8
BLACK
6
CONTINUOUS
10
7.0361564566929129
20
-3.9258277165354332
11
7.0356237795275591
21
-3.9252950393700785
0
LINE
8
BLACK
6
CONTINUOUS
10
7.0356237795275591
20
-3.9252950393700785
11
7.0355488582677168
21
-3.9249183858267718
0
LINE
8
BLACK
6
CONTINUOUS
10
7.0355488582677168
20
-3.9249183858267718
11
7.0355488582677168
21
-3.8501152362204722
0
LINE
8
BLACK
6
CONTINUOUS
10
7.0355488582677168
20
-3.8501152362204722
11
7.0356237795275591
21
-3.8497385826771651
0
LINE
8
BLACK
6
CONTINUOUS
10
7.0356237795275591
20
-3.8497385826771651
11
7.0361564566929129
21
-3.8492059055118109
0
LINE
8
BLACK
6
CONTINUOUS
10
7.0361564566929129
20
-3.8492059055118109
11
7.0365331102362205
21
-3.8491309842519685
0
LINE
8
BLACK
6
CONTINUOUS
10
7.0365331102362205
20
-3.8491309842519685
11
7.1688165748031496
21
-3.8491309842519685
0
LINE
8
BLACK
6
CONTINUOUS
10
7.1688165748031496
20
-3.8491309842519685
11
7.1691932283464563
21
-3.8492059055118109
0
LINE
8
BLACK
6
CONTINUOUS
10
7.0375173622047242
20
-3.8510994881889764
11
7.0375173622047242
21
-3.9239341338582676
0
LINE
8
BLACK
6
CONTINUOUS
10
7.0375173622047242
20
-3.9239341338582676
11
7.1678323228346459
21
-3.9239341338582676
0
LINE
8
BLACK
6
CONTINUOUS
10
7.1678323228346459
20
-3.9239341338582676
11
7.1678323228346459
21
-3.8510994881889764
0
LINE
8
BLACK
6
CONTINUOUS
10
7.1678323228346459
20
-3.8510994881889764
11
7.0375173622047242
21
-3.8510994881889764
0
LINE
8
BLACK
6
CONTINUOUS
10
6.1839806299212601
20
-3.8398673228346456
11
6.1845133070866138
21
-3.8403999999999998
0
LINE
8
BLACK
6
CONTINUOUS
10
6.1845133070866138
20
-3.8403999999999998
11
6.1845882283464562
21
-3.840776653543307
0
LINE
8
BLACK
6
CONTINUOUS
10
6.1845882283464562
20
-3.840776653543307
11
6.1845882283464562
21
-3.9179420078740157
0
LINE
8
BLACK
6
CONTINUOUS
10
6.1845882283464562
20
-3.9179420078740157
11
6.1845133070866138
21
-3.9183186614173229
0
LINE
8
BLACK
6
CONTINUOUS
10
6.1845133070866138
20
-3.9183186614173229
11
6.1839806299212601
21
-3.9188513385826771
0
LINE
8
BLACK
6
CONTINUOUS
10
6.1839806299212601
20
-3.9188513385826771
11
6.1836039763779524
21
-3.9189262598425194
0
LINE
8
BLACK
6
CONTINUOUS
10
6.1836039763779524
20
-3.9189262598425194
11
6.0497457086614173
21
-3.9189262598425194
0
LINE
8
BLACK
6
CONTINUOUS
10
6.0497457086614173
20
-3.9189262598425194
11
6.0493690551181105
21
-3.9188513385826771
0
LINE
8
BLACK
6
CONTINUOUS
10
6.0493690551181105
20
-3.9188513385826771
11
6.0488363779527559
21
-3.9183186614173229
0
LINE
8
BLACK
6
CONTINUOUS
10
6.0488363779527559
20
-3.9183186614173229
11
6.0487614566929135
21
-3.9179420078740157
0
LINE
8
BLACK
6
CONTINUOUS
10
6.0487614566929135
20
-3.9179420078740157
11
6.0487614566929135
21
-3.840776653543307
0
LINE
8
BLACK
6
CONTINUOUS
10
6.0487614566929135
20
-3.840776653543307
11
6.0488363779527559
21
-3.8403999999999998
0
LINE
8
BLACK
6
CONTINUOUS
10
6.0488363779527559
20
-3.8403999999999998
11
6.0493690551181105
21
-3.8398673228346456
0
LINE
8
BLACK
6
CONTINUOUS
10
6.0493690551181105
20
-3.8398673228346456
11
6.0497457086614173
21
-3.8397924015748033
0
LINE
8
BLACK
6
CONTINUOUS
10
6.0497457086614173
20
-3.8397924015748033
11
6.1836039763779524
21
-3.8397924015748033
0
LINE
8
BLACK
6
CONTINUOUS
10
6.1836039763779524
20
-3.8397924015748033
11
6.1839806299212601
21
-3.8398673228346456
0
LINE
8
BLACK
6
CONTINUOUS
10
6.050729960629921
20
-3.8417609055118112
11
6.050729960629921
21
-3.9169577559055115
0
LINE
8
BLACK
6
CONTINUOUS
10
6.050729960629921
20
-3.9169577559055115
11
6.1826197244094487
21
-3.9169577559055115
0
LINE
8
BLACK
6
CONTINUOUS
10
6.1826197244094487
20
-3.9169577559055115
11
6.1826197244094487
21
-3.8417609055118112
0
LINE
8
BLACK
6
CONTINUOUS
10
6.1826197244094487
20
-3.8417609055118112
11
6.050729960629921
21
-3.8417609055118112
0
LINE
8
BLACK
6
CONTINUOUS
10
6.4013890944881888
20
-3.826900118110236
11
6.4086977559055116
21
-3.8299274803149603
0
LINE
8
BLACK
6
CONTINUOUS
10
6.4086977559055116
20
-3.8299274803149603
11
6.4152753543307082
21
-3.8343224803149605
0
LINE
8
BLACK
6
CONTINUOUS
10
6.4152753543307082
20
-3.8343224803149605
11
6.420869173228346
21
-3.8399162992125984
0
LINE
8
BLACK
6
CONTINUOUS
10
6.420869173228346
20
-3.8399162992125984
11
6.4252641732283466
21
-3.8464938976377954
0
LINE
8
BLACK
6
CONTINUOUS
10
6.4252641732283466
20
-3.8464938976377954
11
6.428291535433071
21
-3.8538025590551181
0
LINE
8
BLACK
6
CONTINUOUS
10
6.428291535433071
20
-3.8538025590551181
11
6.4298348425196847
21
-3.8615613779527558
0
LINE
8
BLACK
6
CONTINUOUS
10
6.4298348425196847
20
-3.8615613779527558
11
6.4298348425196847
21
-3.8694722440944882
0
LINE
8
BLACK
6
CONTINUOUS
10
6.4298348425196847
20
-3.8694722440944882
11
6.428291535433071
21
-3.8772310629921258
0
LINE
8
BLACK
6
CONTINUOUS
10
6.428291535433071
20
-3.8772310629921258
11
6.4252641732283466
21
-3.8845397244094486
0
LINE
8
BLACK
6
CONTINUOUS
10
6.4252641732283466
20
-3.8845397244094486
11
6.420869173228346
21
-3.8911173228346456
0
LINE
8
BLACK
6
CONTINUOUS
10
6.420869173228346
20
-3.8911173228346456
11
6.4152753543307082
21
-3.8967111417322835
0
LINE
8
BLACK
6
CONTINUOUS
10
6.4152753543307082
20
-3.8967111417322835
11
6.4086977559055116
21
-3.9011061417322832
0
LINE
8
BLACK
6
CONTINUOUS
10
6.4086977559055116
20
-3.9011061417322832
11
6.4013890944881888
21
-3.904133503937008
0
LINE
8
BLACK
6
CONTINUOUS
10
6.4013890944881888
20
-3.904133503937008
11
6.3936302755905512
21
-3.9056768110236217
0
LINE
8
BLACK
6
CONTINUOUS
10
6.3936302755905512
20
-3.9056768110236217
11
6.3857194094488188
21
-3.9056768110236217
0
LINE
8
BLACK
6
CONTINUOUS
10
6.3857194094488188
20
-3.9056768110236217
11
6.3779605905511811
21
-3.904133503937008
0
LINE
8
BLACK
6
CONTINUOUS
10
6.3779605905511811
20
-3.904133503937008
11
6.3706519291338584
21
-3.9011061417322832
0
LINE
8
BLACK
6
CONTINUOUS
10
6.3706519291338584
20
-3.9011061417322832
11
6.3640743307086609
21
-3.8967111417322835
0
LINE
8
BLACK
6
CONTINUOUS
10
6.3640743307086609
20
-3.8967111417322835
11
6.3584805118110239
21
-3.8911173228346456
0
LINE
8
BLACK
6
CONTINUOUS
10
6.3584805118110239
20
-3.8911173228346456
11
6.3540855118110233
21
-3.8845397244094486
0
LINE
8
BLACK
6
CONTINUOUS
10
6.3540855118110233
20
-3.8845397244094486
11
6.351058149606299
21
-3.8772310629921258
0
LINE
8
BLACK
6
CONTINUOUS
10
6.351058149606299
20
-3.8772310629921258
11
6.3495148425196852
21
-3.8694722440944882
0
LINE
8
BLACK
6
CONTINUOUS
10
6.3495148425196852
20
-3.8694722440944882
11
6.3495148425196852
21
-3.8617361417322833
0
LINE
8
BLACK
6
CONTINUOUS
10
6.3495148425196852
20
-3.8617361417322833
11
6.3495148425196852
21
-3.8615613779527558
0
LINE
8
BLACK
6
CONTINUOUS
10
6.3495148425196852
20
-3.8615613779527558
11
6.351058149606299
21
-3.8538025590551181
0
LINE
8
BLACK
6
CONTINUOUS
10
6.351058149606299
20
-3.8538025590551181
11
6.3540855118110233
21
-3.8464938976377954
0
LINE
8
BLACK
6
CONTINUOUS
10
6.3540855118110233
20
-3.8464938976377954
11
6.3584805118110239
21
-3.8399162992125984
0
LINE
8
BLACK
6
CONTINUOUS
10
6.3584805118110239
20
-3.8399162992125984
11
6.3640743307086609
21
-3.8343224803149605
0
LINE
8
BLACK
6
CONTINUOUS
10
6.3640743307086609
20
-3.8343224803149605
11
6.3706519291338584
21
-3.8299274803149603
0
LINE
8
BLACK
6
CONTINUOUS
10
6.3706519291338584
20
-3.8299274803149603
11
6.3779605905511811
21
-3.826900118110236
0
LINE
8
BLACK
6
CONTINUOUS
10
6.3779605905511811
20
-3.826900118110236
11
6.3857194094488188
21
-3.8253568110236218
0
LINE
8
BLACK
6
CONTINUOUS
10
6.3857194094488188
20
-3.8253568110236218
11
6.3936302755905512
21
-3.8253568110236218
0
LINE
8
BLACK
6
CONTINUOUS
10
6.3936302755905512
20
-3.8253568110236218
11
6.4013890944881888
21
-3.826900118110236
0
LINE
8
BLACK
6
CONTINUOUS
10
6.3512890157480317
20
-3.8692974803149607
11
6.3527641338582672
21
-3.8767135433070865
0
LINE
8
BLACK
6
CONTINUOUS
10
6.3527641338582672
20
-3.8767135433070865
11
6.3556577559055114
21
-3.8836993307086614
0
LINE
8
BLACK
6
CONTINUOUS
10
6.3556577559055114
20
-3.8836993307086614
11
6.3598586220472439
21
-3.8899863779527557
0
LINE
8
BLACK
6
CONTINUOUS
10
6.3598586220472439
20
-3.8899863779527557
11
6.3652052755905508
21
-3.895333031496063
0
LINE
8
BLACK
6
CONTINUOUS
10
6.3652052755905508
20
-3.895333031496063
11
6.3714923228346452
21
-3.8995338976377951
0
LINE
8
BLACK
6
CONTINUOUS
10
6.3714923228346452
20
-3.8995338976377951
11
6.3784781102362205
21
-3.9024275196850393
0
LINE
8
BLACK
6
CONTINUOUS
10
6.3784781102362205
20
-3.9024275196850393
11
6.3858941732283467
21
-3.9039026377952757
0
LINE
8
BLACK
6
CONTINUOUS
10
6.3858941732283467
20
-3.9039026377952757
11
6.3934555118110232
21
-3.9039026377952757
0
LINE
8
BLACK
6
CONTINUOUS
10
6.3934555118110232
20
-3.9039026377952757
11
6.4008715748031495
21
-3.9024275196850393
0
LINE
8
BLACK
6
CONTINUOUS
10
6.4008715748031495
20
-3.9024275196850393
11
6.4078573622047239
21
-3.8995338976377951
0
LINE
8
BLACK
6
CONTINUOUS
10
6.4078573622047239
20
-3.8995338976377951
11
6.4141444094488191
21
-3.895333031496063
0
LINE
8
BLACK
6
CONTINUOUS
10
6.4141444094488191
20
-3.895333031496063
11
6.419491062992126
21
-3.8899863779527557
0
LINE
8
BLACK
6
CONTINUOUS
10
6.419491062992126
20
-3.8899863779527557
11
6.4236919291338586
21
-3.8836993307086614
0
LINE
8
BLACK
6
CONTINUOUS
10
6.4236919291338586
20
-3.8836993307086614
11
6.4265855511811019
21
-3.8767135433070865
0
LINE
8
BLACK
6
CONTINUOUS
10
6.4265855511811019
20
-3.8767135433070865
11
6.4280606692913382
21
-3.8692974803149607
0
LINE
8
BLACK
6
CONTINUOUS
10
6.4280606692913382
20
-3.8692974803149607
11
6.4280606692913382
21
-3.8617361417322833
0
LINE
8
BLACK
6
CONTINUOUS
10
6.4280606692913382
20
-3.8617361417322833
11
6.4265855511811019
21
-3.8543200787401575
0
LINE
8
BLACK
6
CONTINUOUS
10
6.4265855511811019
20
-3.8543200787401575
11
6.4236919291338586
21
-3.8473342913385826
0
LINE
8
BLACK
6
CONTINUOUS
10
6.4236919291338586
20
-3.8473342913385826
11
6.419491062992126
21
-3.8410472440944883
0
LINE
8
BLACK
6
CONTINUOUS
10
6.419491062992126
20
-3.8410472440944883
11
6.4141444094488191
21
-3.835700590551181
0
LINE
8
BLACK
6
CONTINUOUS
10
6.4141444094488191
20
-3.835700590551181
11
6.4078573622047239
21
-3.8314997244094489
0
LINE
8
BLACK
6
CONTINUOUS
10
6.4078573622047239
20
-3.8314997244094489
11
6.4008715748031495
21
-3.8286061023622047
0
LINE
8
BLACK
6
CONTINUOUS
10
6.4008715748031495
20
-3.8286061023622047
11
6.3934555118110232
21
-3.8271309842519683
0
LINE
8
BLACK
6
CONTINUOUS
10
6.3934555118110232
20
-3.8271309842519683
11
6.3858941732283467
21
-3.8271309842519683
0
LINE
8
BLACK
6
CONTINUOUS
10
6.3858941732283467
20
-3.8271309842519683
11
6.3784781102362205
21
-3.8286061023622047
0
LINE
8
BLACK
6
CONTINUOUS
10
6.3784781102362205
20
-3.8286061023622047
11
6.3714923228346452
21
-3.8314997244094489
0
LINE
8
BLACK
6
CONTINUOUS
10
6.3714923228346452
20
-3.8314997244094489
11
6.3652052755905508
21
-3.835700590551181
0
LINE
8
BLACK
6
CONTINUOUS
10
6.3652052755905508
20
-3.835700590551181
11
6.3598586220472439
21
-3.8410472440944883
0
LINE
8
BLACK
6
CONTINUOUS
10
6.3598586220472439
20
-3.8410472440944883
11
6.3556577559055114
21
-3.8473342913385826
0
LINE
8
BLACK
6
CONTINUOUS
10
6.3556577559055114
20
-3.8473342913385826
11
6.3527641338582672
21
-3.8543200787401575
0
LINE
8
BLACK
6
CONTINUOUS
10
6.3527641338582672
20
-3.8543200787401575
11
6.3512890157480317
21
-3.8617361417322833
0
LINE
8
BLACK
6
CONTINUOUS
10
6.3512890157480317
20
-3.8617361417322833
11
6.3512890157480317
21
-3.8692974803149607
0
LINE
8
BLACK
6
CONTINUOUS
10
7.1691932283464563
20
-3.767205905511811
11
7.169725905511811
21
-3.7677385826771652
0
LINE
8
BLACK
6
CONTINUOUS
10
7.169725905511811
20
-3.7677385826771652
11
7.1698008267716533
21
-3.7681152362204724
0
LINE
8
BLACK
6
CONTINUOUS
10
7.1698008267716533
20
-3.7681152362204724
11
7.1698008267716533
21
-3.8429183858267715
0
LINE
8
BLACK
6
CONTINUOUS
10
7.1698008267716533
20
-3.8429183858267715
11
7.169725905511811
21
-3.8432950393700787
0
LINE
8
BLACK
6
CONTINUOUS
10
7.169725905511811
20
-3.8432950393700787
11
7.1691932283464563
21
-3.8438277165354329
0
LINE
8
BLACK
6
CONTINUOUS
10
7.1691932283464563
20
-3.8438277165354329
11
7.1688165748031496
21
-3.8439026377952756
0
LINE
8
BLACK
6
CONTINUOUS
10
7.1688165748031496
20
-3.8439026377952756
11
7.0365331102362205
21
-3.8439026377952756
0
LINE
8
BLACK
6
CONTINUOUS
10
7.0365331102362205
20
-3.8439026377952756
11
7.0361564566929129
21
-3.8438277165354329
0
LINE
8
BLACK
6
CONTINUOUS
10
7.0361564566929129
20
-3.8438277165354329
11
7.0356237795275591
21
-3.8432950393700787
0
LINE
8
BLACK
6
CONTINUOUS
10
7.0356237795275591
20
-3.8432950393700787
11
7.0355488582677168
21
-3.8429183858267715
0
LINE
8
BLACK
6
CONTINUOUS
10
7.0355488582677168
20
-3.8429183858267715
11
7.0355488582677168
21
-3.7681152362204724
0
LINE
8
BLACK
6
CONTINUOUS
10
7.0355488582677168
20
-3.7681152362204724
11
7.0356237795275591
21
-3.7677385826771652
0
LINE
8
BLACK
6
CONTINUOUS
10
7.0356237795275591
20
-3.7677385826771652
11
7.0361564566929129
21
-3.767205905511811
0
LINE
8
BLACK
6
CONTINUOUS
10
7.0361564566929129
20
-3.767205905511811
11
7.0365331102362205
21
-3.7671309842519682
0
LINE
8
BLACK
6
CONTINUOUS
10
7.0365331102362205
20
-3.7671309842519682
11
7.1688165748031496
21
-3.7671309842519682
0
LINE
8
BLACK
6
CONTINUOUS
10
7.1688165748031496
20
-3.7671309842519682
11
7.1691932283464563
21
-3.767205905511811
0
LINE
8
BLACK
6
CONTINUOUS
10
7.0375173622047242
20
-3.7690994881889761
11
7.0375173622047242
21
-3.8419341338582678
0
LINE
8
BLACK
6
CONTINUOUS
10
7.0375173622047242
20
-3.8419341338582678
11
7.1678323228346459
21
-3.8419341338582678
0
LINE
8
BLACK
6
CONTINUOUS
10
7.1678323228346459
20
-3.8419341338582678
11
7.1678323228346459
21
-3.7690994881889761
0
LINE
8
BLACK
6
CONTINUOUS
10
7.1678323228346459
20
-3.7690994881889761
11
7.0375173622047242
21
-3.7690994881889761
0
LINE
8
BLACK
6
CONTINUOUS
10
6.875791653543307
20
-3.7096468503937006
11
6.8763243307086617
21
-3.7101795275590552
0
LINE
8
BLACK
6
CONTINUOUS
10
6.8763243307086617
20
-3.7101795275590552
11
6.876399251968504
21
-3.710556181102362
0
LINE
8
BLACK
6
CONTINUOUS
10
6.876399251968504
20
-3.710556181102362
11
6.876399251968504
21
-3.8404774409448819
0
LINE
8
BLACK
6
CONTINUOUS
10
6.876399251968504
20
-3.8404774409448819
11
6.8763243307086617
21
-3.840854094488189
0
LINE
8
BLACK
6
CONTINUOUS
10
6.8763243307086617
20
-3.840854094488189
11
6.875791653543307
21
-3.8413867716535433
0
LINE
8
BLACK
6
CONTINUOUS
10
6.875791653543307
20
-3.8413867716535433
11
6.8754150000000003
21
-3.8414616929133856
0
LINE
8
BLACK
6
CONTINUOUS
10
6.8754150000000003
20
-3.8414616929133856
11
6.8179346850393703
21
-3.8414616929133856
0
LINE
8
BLACK
6
CONTINUOUS
10
6.8179346850393703
20
-3.8414616929133856
11
6.8175580314960627
21
-3.8413867716535433
0
LINE
8
BLACK
6
CONTINUOUS
10
6.8175580314960627
20
-3.8413867716535433
11
6.8170253543307089
21
-3.840854094488189
0
LINE
8
BLACK
6
CONTINUOUS
10
6.8170253543307089
20
-3.840854094488189
11
6.8169504330708657
21
-3.8404774409448819
0
LINE
8
BLACK
6
CONTINUOUS
10
6.8169504330708657
20
-3.8404774409448819
11
6.8169504330708657
21
-3.710556181102362
0
LINE
8
BLACK
6
CONTINUOUS
10
6.8169504330708657
20
-3.710556181102362
11
6.8170253543307089
21
-3.7101795275590552
0
LINE
8
BLACK
6
CONTINUOUS
10
6.8170253543307089
20
-3.7101795275590552
11
6.8175580314960627
21
-3.7096468503937006
0
LINE
8
BLACK
6
CONTINUOUS
10
6.8175580314960627
20
-3.7096468503937006
11
6.8179346850393703
21
-3.7095719291338582
0
LINE
8
BLACK
6
CONTINUOUS
10
6.8179346850393703
20
-3.7095719291338582
11
6.8754150000000003
21
-3.7095719291338582
0
LINE
8
BLACK
6
CONTINUOUS
10
6.8754150000000003
20
-3.7095719291338582
11
6.875791653543307
21
-3.7096468503937006
0
LINE
8
BLACK
6
CONTINUOUS
10
6.818918937007874
20
-3.7115404330708661
11
6.818918937007874
21
-3.8394931889763777
0
LINE
8
BLACK
6
CONTINUOUS
10
6.818918937007874
20
-3.8394931889763777
11
6.8744307480314957
21
-3.8394931889763777
0
LINE
8
BLACK
6
CONTINUOUS
10
6.8744307480314957
20
-3.8394931889763777
11
6.8744307480314957
21
-3.7115404330708661
0
LINE
8
BLACK
6
CONTINUOUS
10
6.8744307480314957
20
-3.7115404330708661
11
6.818918937007874
21
-3.7115404330708661
0
LINE
8
BLACK
6
CONTINUOUS
10
6.4448310236220472
20
-3.2748279527559054
11
6.4453637007874018
21
-3.2753606299212596
0
LINE
8
BLACK
6
CONTINUOUS
10
6.4453637007874018
20
-3.2753606299212596
11
6.4454386220472442
21
-3.2757372834645668
0
LINE
8
BLACK
6
CONTINUOUS
10
6.4454386220472442
20
-3.2757372834645668
11
6.4454386220472442
21
-3.7543589370078738
0
LINE
8
BLACK
6
CONTINUOUS
10
6.4454386220472442
20
-3.7543589370078738
11
6.4489605905511809
21
-3.7529001181102362
0
LINE
8
BLACK
6
CONTINUOUS
10
6.4489605905511809
20
-3.7529001181102362
11
6.4567194094488185
21
-3.751356811023622
0
LINE
8
BLACK
6
CONTINUOUS
10
6.4567194094488185
20
-3.751356811023622
11
6.4646302755905509
21
-3.751356811023622
0
LINE
8
BLACK
6
CONTINUOUS
10
6.4646302755905509
20
-3.751356811023622
11
6.4723890944881886
21
-3.7529001181102362
0
LINE
8
BLACK
6
CONTINUOUS
10
6.4723890944881886
20
-3.7529001181102362
11
6.4796977559055113
21
-3.7559274803149605
0
LINE
8
BLACK
6
CONTINUOUS
10
6.4796977559055113
20
-3.7559274803149605
11
6.4862753543307088
21
-3.7603224803149606
0
LINE
8
BLACK
6
CONTINUOUS
10
6.4862753543307088
20
-3.7603224803149606
11
6.4918691732283467
21
-3.7659162992125985
0
LINE
8
BLACK
6
CONTINUOUS
10
6.4918691732283467
20
-3.7659162992125985
11
6.4962641732283464
21
-3.7724938976377951
0
LINE
8
BLACK
6
CONTINUOUS
10
6.4962641732283464
20
-3.7724938976377951
11
6.4992915354330707
21
-3.7798025590551179
0
LINE
8
BLACK
6
CONTINUOUS
10
6.4992915354330707
20
-3.7798025590551179
11
6.5008348425196845
21
-3.7875613779527559
0
LINE
8
BLACK
6
CONTINUOUS
10
6.5008348425196845
20
-3.7875613779527559
11
6.5008348425196845
21
-3.7954722440944879
0
LINE
8
BLACK
6
CONTINUOUS
10
6.5008348425196845
20
-3.7954722440944879
11
6.4992915354330707
21
-3.803231062992126
0
LINE
8
BLACK
6
CONTINUOUS
10
6.4992915354330707
20
-3.803231062992126
11
6.4962641732283464
21
-3.8105397244094488
0
LINE
8
BLACK
6
CONTINUOUS
10
6.4962641732283464
20
-3.8105397244094488
11
6.4918691732283467
21
-3.8171173228346458
0
LINE
8
BLACK
6
CONTINUOUS
10
6.4918691732283467
20
-3.8171173228346458
11
6.4862753543307088
21
-3.8227111417322832
0
LINE
8
BLACK
6
CONTINUOUS
10
6.4862753543307088
20
-3.8227111417322832
11
6.4796977559055113
21
-3.8271061417322834
0
LINE
8
BLACK
6
CONTINUOUS
10
6.4796977559055113
20
-3.8271061417322834
11
6.4723890944881886
21
-3.8301335039370077
0
LINE
8
BLACK
6
CONTINUOUS
10
6.4723890944881886
20
-3.8301335039370077
11
6.4646302755905509
21
-3.8316768110236219
0
LINE
8
BLACK
6
CONTINUOUS
10
6.4646302755905509
20
-3.8316768110236219
11
6.4567194094488185
21
-3.8316768110236219
0
LINE
8
BLACK
6
CONTINUOUS
10
6.4567194094488185
20
-3.8316768110236219
11
6.4489605905511809
21
-3.8301335039370077
0
LINE
8
BLACK
6
CONTINUOUS
10
6.4489605905511809
20
-3.8301335039370077
11
6.4416519291338581
21
-3.8271061417322834
0
LINE
8
BLACK
6
CONTINUOUS
10
6.4416519291338581
20
-3.8271061417322834
11
6.4350743307086615
21
-3.8227111417322832
0
LINE
8
BLACK
6
CONTINUOUS
10
6.4350743307086615
20
-3.8227111417322832
11
6.4294805118110236
21
-3.8171173228346458
0
LINE
8
BLACK
6
CONTINUOUS
10
6.4294805118110236
20
-3.8171173228346458
11
6.4250855118110231
21
-3.8105397244094488
0
LINE
8
BLACK
6
CONTINUOUS
10
6.4250855118110231
20
-3.8105397244094488
11
6.4224928740157479
21
-3.8042805905511812
0
LINE
8
BLACK
6
CONTINUOUS
10
6.4224928740157479
20
-3.8042805905511812
11
5.9168953149606294
21
-3.8042805905511812
0
LINE
8
BLACK
6
CONTINUOUS
10
5.9168953149606294
20
-3.8042805905511812
11
5.9165186614173226
21
-3.8042056692913384
0
LINE
8
BLACK
6
CONTINUOUS
10
5.9165186614173226
20
-3.8042056692913384
11
5.915985984251968
21
-3.8036729921259842
0
LINE
8
BLACK
6
CONTINUOUS
10
5.915985984251968
20
-3.8036729921259842
11
5.9159110629921257
21
-3.803296338582677
0
LINE
8
BLACK
6
CONTINUOUS
10
5.9159110629921257
20
-3.803296338582677
11
5.9159110629921257
21
-3.2757372834645668
0
LINE
8
BLACK
6
CONTINUOUS
10
5.9159110629921257
20
-3.2757372834645668
11
5.915985984251968
21
-3.2753606299212596
0
LINE
8
BLACK
6
CONTINUOUS
10
5.915985984251968
20
-3.2753606299212596
11
5.9165186614173226
21
-3.2748279527559054
0
LINE
8
BLACK
6
CONTINUOUS
10
5.9165186614173226
20
-3.2748279527559054
11
5.9168953149606294
21
-3.2747530314960631
0
LINE
8
BLACK
6
CONTINUOUS
10
5.9168953149606294
20
-3.2747530314960631
11
6.4444543700787404
21
-3.2747530314960631
0
LINE
8
BLACK
6
CONTINUOUS
10
6.4444543700787404
20
-3.2747530314960631
11
6.4448310236220472
21
-3.2748279527559054
0
LINE
8
BLACK
6
CONTINUOUS
10
6.4494781102362202
20
-3.7546061023622048
11
6.4454386220472442
21
-3.7562792913385827
0
LINE
8
BLACK
6
CONTINUOUS
10
6.4454386220472442
20
-3.7562792913385827
11
6.4454386220472442
21
-3.803296338582677
0
LINE
8
BLACK
6
CONTINUOUS
10
6.4454386220472442
20
-3.803296338582677
11
6.4453637007874018
21
-3.8036729921259842
0
LINE
8
BLACK
6
CONTINUOUS
10
6.4453637007874018
20
-3.8036729921259842
11
6.4448310236220472
21
-3.8042056692913384
0
LINE
8
BLACK
6
CONTINUOUS
10
6.4448310236220472
20
-3.8042056692913384
11
6.4444543700787404
21
-3.8042805905511812
0
LINE
8
BLACK
6
CONTINUOUS
10
6.4444543700787404
20
-3.8042805905511812
11
6.4244132283464568
21
-3.8042805905511812
0
LINE
8
BLACK
6
CONTINUOUS
10
6.4244132283464568
20
-3.8042805905511812
11
6.426657755905512
21
-3.8096993307086615
0
LINE
8
BLACK
6
CONTINUOUS
10
6.426657755905512
20
-3.8096993307086615
11
6.4308586220472437
21
-3.8159863779527559
0
LINE
8
BLACK
6
CONTINUOUS
10
6.4308586220472437
20
-3.8159863779527559
11
6.4362052755905514
21
-3.8213330314960627
0
LINE
8
BLACK
6
CONTINUOUS
10
6.4362052755905514
20
-3.8213330314960627
11
6.4424923228346458
21
-3.8255338976377953
0
LINE
8
BLACK
6
CONTINUOUS
10
6.4424923228346458
20
-3.8255338976377953
11
6.4494781102362202
21
-3.8284275196850395
0
LINE
8
BLACK
6
CONTINUOUS
10
6.4494781102362202
20
-3.8284275196850395
11
6.4568941732283465
21
-3.8299026377952754
0
LINE
8
BLACK
6
CONTINUOUS
10
6.4568941732283465
20
-3.8299026377952754
11
6.4644555118110238
21
-3.8299026377952754
0
LINE
8
BLACK
6
CONTINUOUS
10
6.4644555118110238
20
-3.8299026377952754
11
6.4718715748031492
21
-3.8284275196850395
0
LINE
8
BLACK
6
CONTINUOUS
10
6.4718715748031492
20
-3.8284275196850395
11
6.4788573622047245
21
-3.8255338976377953
0
LINE
8
BLACK
6
CONTINUOUS
10
6.4788573622047245
20
-3.8255338976377953
11
6.4851444094488189
21
-3.8213330314960627
0
LINE
8
BLACK
6
CONTINUOUS
10
6.4851444094488189
20
-3.8213330314960627
11
6.4904910629921257
21
-3.8159863779527559
0
LINE
8
BLACK
6
CONTINUOUS
10
6.4904910629921257
20
-3.8159863779527559
11
6.4946919291338583
21
-3.8096993307086615
0
LINE
8
BLACK
6
CONTINUOUS
10
6.4946919291338583
20
-3.8096993307086615
11
6.4975855511811025
21
-3.8027135433070867
0
LINE
8
BLACK
6
CONTINUOUS
10
6.4975855511811025
20
-3.8027135433070867
11
6.4990606692913389
21
-3.7952974803149604
0
LINE
8
BLACK
6
CONTINUOUS
10
6.4990606692913389
20
-3.7952974803149604
11
6.4990606692913389
21
-3.7877361417322835
0
LINE
8
BLACK
6
CONTINUOUS
10
6.4990606692913389
20
-3.7877361417322835
11
6.4975855511811025
21
-3.7803200787401572
0
LINE
8
BLACK
6
CONTINUOUS
10
6.4975855511811025
20
-3.7803200787401572
11
6.4946919291338583
21
-3.7733342913385828
0
LINE
8
BLACK
6
CONTINUOUS
10
6.4946919291338583
20
-3.7733342913385828
11
6.4904910629921257
21
-3.767047244094488
0
LINE
8
BLACK
6
CONTINUOUS
10
6.4904910629921257
20
-3.767047244094488
11
6.4851444094488189
21
-3.7617005905511811
0
LINE
8
BLACK
6
CONTINUOUS
10
6.4851444094488189
20
-3.7617005905511811
11
6.4788573622047245
21
-3.7574997244094486
0
LINE
8
BLACK
6
CONTINUOUS
10
6.4788573622047245
20
-3.7574997244094486
11
6.4718715748031492
21
-3.7546061023622048
0
LINE
8
BLACK
6
CONTINUOUS
10
6.4718715748031492
20
-3.7546061023622048
11
6.4644555118110238
21
-3.7531309842519684
0
LINE
8
BLACK
6
CONTINUOUS
10
6.4644555118110238
20
-3.7531309842519684
11
6.4568941732283465
21
-3.7531309842519684
0
LINE
8
BLACK
6
CONTINUOUS
10
6.4568941732283465
20
-3.7531309842519684
11
6.4494781102362202
21
-3.7546061023622048
0
LINE
8
BLACK
6
CONTINUOUS
10
5.917879566929134
20
-3.276721535433071
11
5.917879566929134
21
-3.8023120866141733
0
LINE
8
BLACK
6
CONTINUOUS
10
5.917879566929134
20
-3.8023120866141733
11
6.4218753543307088
21
-3.8023120866141733
0
LINE
8
BLACK
6
CONTINUOUS
10
6.4218753543307088
20
-3.8023120866141733
11
6.420514842519685
21
-3.7954722440944879
0
LINE
8
BLACK
6
CONTINUOUS
10
6.420514842519685
20
-3.7954722440944879
11
6.420514842519685
21
-3.7877361417322835
0
LINE
8
BLACK
6
CONTINUOUS
10
6.420514842519685
20
-3.7877361417322835
11
6.420514842519685
21
-3.7875613779527559
0
LINE
8
BLACK
6
CONTINUOUS
10
6.420514842519685
20
-3.7875613779527559
11
6.4220581496062987
21
-3.7798025590551179
0
LINE
8
BLACK
6
CONTINUOUS
10
6.4220581496062987
20
-3.7798025590551179
11
6.4250855118110231
21
-3.7724938976377951
0
LINE
8
BLACK
6
CONTINUOUS
10
6.4250855118110231
20
-3.7724938976377951
11
6.4294805118110236
21
-3.7659162992125985
0
LINE
8
BLACK
6
CONTINUOUS
10
6.4294805118110236
20
-3.7659162992125985
11
6.4350743307086615
21
-3.7603224803149606
0
LINE
8
BLACK
6
CONTINUOUS
10
6.4350743307086615
20
-3.7603224803149606
11
6.4416519291338581
21
-3.7559274803149605
0
LINE
8
BLACK
6
CONTINUOUS
10
6.4416519291338581
20
-3.7559274803149605
11
6.4434701181102358
21
-3.7551743307086611
0
LINE
8
BLACK
6
CONTINUOUS
10
6.4434701181102358
20
-3.7551743307086611
11
6.4434701181102358
21
-3.276721535433071
0
LINE
8
BLACK
6
CONTINUOUS
10
6.4434701181102358
20
-3.276721535433071
11
5.917879566929134
21
-3.276721535433071
0
LINE
8
BLACK
6
CONTINUOUS
10
6.4222890157480315
20
-3.7952974803149604
11
6.4236842913385823
21
-3.8023120866141733
0
LINE
8
BLACK
6
CONTINUOUS
10
6.4236842913385823
20
-3.8023120866141733
11
6.4434701181102358
21
-3.8023120866141733
0
LINE
8
BLACK
6
CONTINUOUS
10
6.4434701181102358
20
-3.8023120866141733
11
6.4434701181102358
21
-3.7570946850393701
0
LINE
8
BLACK
6
CONTINUOUS
10
6.4434701181102358
20
-3.7570946850393701
11
6.4424923228346458
21
-3.7574997244094486
0
LINE
8
BLACK
6
CONTINUOUS
10
6.4424923228346458
20
-3.7574997244094486
11
6.4362052755905514
21
-3.7617005905511811
0
LINE
8
BLACK
6
CONTINUOUS
10
6.4362052755905514
20
-3.7617005905511811
11
6.4308586220472437
21
-3.767047244094488
0
LINE
8
BLACK
6
CONTINUOUS
10
6.4308586220472437
20
-3.767047244094488
11
6.426657755905512
21
-3.7733342913385828
0
LINE
8
BLACK
6
CONTINUOUS
10
6.426657755905512
20
-3.7733342913385828
11
6.4237641338582678
21
-3.7803200787401572
0
LINE
8
BLACK
6
CONTINUOUS
10
6.4237641338582678
20
-3.7803200787401572
11
6.4222890157480315
21
-3.7877361417322835
0
LINE
8
BLACK
6
CONTINUOUS
10
6.4222890157480315
20
-3.7877361417322835
11
6.4222890157480315
21
-3.7952974803149604
0
LINE
8
BLACK
6
CONTINUOUS
10
6.8144058267716536
20
-3.5740090551181103
11
6.8149385039370074
21
-3.5745417322834645
0
LINE
8
BLACK
6
CONTINUOUS
10
6.8149385039370074
20
-3.5745417322834645
11
6.8150134251968506
21
-3.5749183858267717
0
LINE
8
BLACK
6
CONTINUOUS
10
6.8150134251968506
20
-3.5749183858267717
11
6.8150134251968506
21
-3.7087766535433069
0
LINE
8
BLACK
6
CONTINUOUS
10
6.8150134251968506
20
-3.7087766535433069
11
6.8149385039370074
21
-3.7091533070866141
0
LINE
8
BLACK
6
CONTINUOUS
10
6.8149385039370074
20
-3.7091533070866141
11
6.8144058267716536
21
-3.7096859842519683
0
LINE
8
BLACK
6
CONTINUOUS
10
6.8144058267716536
20
-3.7096859842519683
11
6.814029173228346
21
-3.709760905511811
0
LINE
8
BLACK
6
CONTINUOUS
10
6.814029173228346
20
-3.709760905511811
11
6.7368638188976373
21
-3.709760905511811
0
LINE
8
BLACK
6
CONTINUOUS
10
6.7368638188976373
20
-3.709760905511811
11
6.7364871653543306
21
-3.7096859842519683
0
LINE
8
BLACK
6
CONTINUOUS
10
6.7364871653543306
20
-3.7096859842519683
11
6.7359544881889759
21
-3.7091533070866141
0
LINE
8
BLACK
6
CONTINUOUS
10
6.7359544881889759
20
-3.7091533070866141
11
6.7358795669291336
21
-3.7087766535433069
0
LINE
8
BLACK
6
CONTINUOUS
10
6.7358795669291336
20
-3.7087766535433069
11
6.7358795669291336
21
-3.5749183858267717
0
LINE
8
BLACK
6
CONTINUOUS
10
6.7358795669291336
20
-3.5749183858267717
11
6.7359544881889759
21
-3.5745417322834645
0
LINE
8
BLACK
6
CONTINUOUS
10
6.7359544881889759
20
-3.5745417322834645
11
6.7364871653543306
21
-3.5740090551181103
0
LINE
8
BLACK
6
CONTINUOUS
10
6.7364871653543306
20
-3.5740090551181103
11
6.7368638188976373
21
-3.5739341338582675
0
LINE
8
BLACK
6
CONTINUOUS
10
6.7368638188976373
20
-3.5739341338582675
11
6.814029173228346
21
-3.5739341338582675
0
LINE
8
BLACK
6
CONTINUOUS
10
6.814029173228346
20
-3.5739341338582675
11
6.8144058267716536
21
-3.5740090551181103
0
LINE
8
BLACK
6
CONTINUOUS
10
6.7378480708661419
20
-3.5759026377952754
11
6.7378480708661419
21
-3.7077924015748032
0
LINE
8
BLACK
6
CONTINUOUS
10
6.7378480708661419
20
-3.7077924015748032
11
6.8130449212598423
21
-3.7077924015748032
0
LINE
8
BLACK
6
CONTINUOUS
10
6.8130449212598423
20
-3.7077924015748032
11
6.8130449212598423
21
-3.5759026377952754
0
LINE
8
BLACK
6
CONTINUOUS
10
6.8130449212598423
20
-3.5759026377952754
11
6.7378480708661419
21
-3.5759026377952754
0
LINE
8
BLACK
6
CONTINUOUS
10
6.5424530708661415
20
-3.5744657480314959
11
6.5429857480314961
21
-3.5749984251968505
0
LINE
8
BLACK
6
CONTINUOUS
10
6.5429857480314961
20
-3.5749984251968505
11
6.5430606692913384
21
-3.5753750787401573
0
LINE
8
BLACK
6
CONTINUOUS
10
6.5430606692913384
20
-3.5753750787401573
11
6.5430606692913384
21
-3.7076585433070863
0
LINE
8
BLACK
6
CONTINUOUS
10
6.5430606692913384
20
-3.7076585433070863
11
6.5429857480314961
21
-3.7080351968503935
0
LINE
8
BLACK
6
CONTINUOUS
10
6.5429857480314961
20
-3.7080351968503935
11
6.5424530708661415
21
-3.7085678740157482
0
LINE
8
BLACK
6
CONTINUOUS
10
6.5424530708661415
20
-3.7085678740157482
11
6.5420764173228347
21
-3.7086427952755905
0
LINE
8
BLACK
6
CONTINUOUS
10
6.5420764173228347
20
-3.7086427952755905
11
6.4672732677165357
21
-3.7086427952755905
0
LINE
8
BLACK
6
CONTINUOUS
10
6.4672732677165357
20
-3.7086427952755905
11
6.466896614173228
21
-3.7085678740157482
0
LINE
8
BLACK
6
CONTINUOUS
10
6.466896614173228
20
-3.7085678740157482
11
6.4663639370078743
21
-3.7080351968503935
0
LINE
8
BLACK
6
CONTINUOUS
10
6.4663639370078743
20
-3.7080351968503935
11
6.4662890157480311
21
-3.7076585433070863
0
LINE
8
BLACK
6
CONTINUOUS
10
6.4662890157480311
20
-3.7076585433070863
11
6.4662890157480311
21
-3.5753750787401573
0
LINE
8
BLACK
6
CONTINUOUS
10
6.4662890157480311
20
-3.5753750787401573
11
6.4663639370078743
21
-3.5749984251968505
0
LINE
8
BLACK
6
CONTINUOUS
10
6.4663639370078743
20
-3.5749984251968505
11
6.466896614173228
21
-3.5744657480314959
0
LINE
8
BLACK
6
CONTINUOUS
10
6.466896614173228
20
-3.5744657480314959
11
6.4672732677165357
21
-3.5743908267716535
0
LINE
8
BLACK
6
CONTINUOUS
10
6.4672732677165357
20
-3.5743908267716535
11
6.5420764173228347
21
-3.5743908267716535
0
LINE
8
BLACK
6
CONTINUOUS
10
6.5420764173228347
20
-3.5743908267716535
11
6.5424530708661415
21
-3.5744657480314959
0
LINE
8
BLACK
6
CONTINUOUS
10
6.4682575196850394
20
-3.5763593307086614
11
6.4682575196850394
21
-3.7066742913385826
0
LINE
8
BLACK
6
CONTINUOUS
10
6.4682575196850394
20
-3.7066742913385826
11
6.5410921653543301
21
-3.7066742913385826
0
LINE
8
BLACK
6
CONTINUOUS
10
6.5410921653543301
20
-3.7066742913385826
11
6.5410921653543301
21
-3.5763593307086614
0
LINE
8
BLACK
6
CONTINUOUS
10
6.5410921653543301
20
-3.5763593307086614
11
6.4682575196850394
21
-3.5763593307086614
0
LINE
8
BLACK
6
CONTINUOUS
10
6.6224530708661415
20
-3.5744657480314959
11
6.6229857480314962
21
-3.5749984251968505
0
LINE
8
BLACK
6
CONTINUOUS
10
6.6229857480314962
20
-3.5749984251968505
11
6.6230606692913385
21
-3.5753750787401573
0
LINE
8
BLACK
6
CONTINUOUS
10
6.6230606692913385
20
-3.5753750787401573
11
6.6230606692913385
21
-3.7076585433070863
0
LINE
8
BLACK
6
CONTINUOUS
10
6.6230606692913385
20
-3.7076585433070863
11
6.6229857480314962
21
-3.7080351968503935
0
LINE
8
BLACK
6
CONTINUOUS
10
6.6229857480314962
20
-3.7080351968503935
11
6.6224530708661415
21
-3.7085678740157482
0
LINE
8
BLACK
6
CONTINUOUS
10
6.6224530708661415
20
-3.7085678740157482
11
6.6220764173228348
21
-3.7086427952755905
0
LINE
8
BLACK
6
CONTINUOUS
10
6.6220764173228348
20
-3.7086427952755905
11
6.5472732677165357
21
-3.7086427952755905
0
LINE
8
BLACK
6
CONTINUOUS
10
6.5472732677165357
20
-3.7086427952755905
11
6.5468966141732281
21
-3.7085678740157482
0
LINE
8
BLACK
6
CONTINUOUS
10
6.5468966141732281
20
-3.7085678740157482
11
6.5463639370078734
21
-3.7080351968503935
0
LINE
8
BLACK
6
CONTINUOUS
10
6.5463639370078734
20
-3.7080351968503935
11
6.5462890157480311
21
-3.7076585433070863
0
LINE
8
BLACK
6
CONTINUOUS
10
6.5462890157480311
20
-3.7076585433070863
11
6.5462890157480311
21
-3.5753750787401573
0
LINE
8
BLACK
6
CONTINUOUS
10
6.5462890157480311
20
-3.5753750787401573
11
6.5463639370078734
21
-3.5749984251968505
0
LINE
8
BLACK
6
CONTINUOUS
10
6.5463639370078734
20
-3.5749984251968505
11
6.5468966141732281
21
-3.5744657480314959
0
LINE
8
BLACK
6
CONTINUOUS
10
6.5468966141732281
20
-3.5744657480314959
11
6.5472732677165357
21
-3.5743908267716535
0
LINE
8
BLACK
6
CONTINUOUS
10
6.5472732677165357
20
-3.5743908267716535
11
6.6220764173228348
21
-3.5743908267716535
0
LINE
8
BLACK
6
CONTINUOUS
10
6.6220764173228348
20
-3.5743908267716535
11
6.6224530708661415
21
-3.5744657480314959
0
LINE
8
BLACK
6
CONTINUOUS
10
6.5482575196850394
20
-3.5763593307086614
11
6.5482575196850394
21
-3.7066742913385826
0
LINE
8
BLACK
6
CONTINUOUS
10
6.5482575196850394
20
-3.7066742913385826
11
6.6210921653543302
21
-3.7066742913385826
0
LINE
8
BLACK
6
CONTINUOUS
10
6.6210921653543302
20
-3.7066742913385826
11
6.6210921653543302
21
-3.5763593307086614
0
LINE
8
BLACK
6
CONTINUOUS
10
6.6210921653543302
20
-3.5763593307086614
11
6.5482575196850394
21
-3.5763593307086614
0
LINE
8
BLACK
6
CONTINUOUS
10
6.8746105511811022
20
-3.5993948818897636
11
6.8751432283464569
21
-3.5999275590551179
0
LINE
8
BLACK
6
CONTINUOUS
10
6.8751432283464569
20
-3.5999275590551179
11
6.8752181496062992
21
-3.600304212598425
0
LINE
8
BLACK
6
CONTINUOUS
10
6.8752181496062992
20
-3.600304212598425
11
6.8752181496062992
21
-3.698729409448819
0
LINE
8
BLACK
6
CONTINUOUS
10
6.8752181496062992
20
-3.698729409448819
11
6.8751432283464569
21
-3.6991060629921257
0
LINE
8
BLACK
6
CONTINUOUS
10
6.8751432283464569
20
-3.6991060629921257
11
6.8746105511811022
21
-3.6996387401574804
0
LINE
8
BLACK
6
CONTINUOUS
10
6.8746105511811022
20
-3.6996387401574804
11
6.8742338976377955
21
-3.6997136614173227
0
LINE
8
BLACK
6
CONTINUOUS
10
6.8742338976377955
20
-3.6997136614173227
11
6.8191157874015751
21
-3.6997136614173227
0
LINE
8
BLACK
6
CONTINUOUS
10
6.8191157874015751
20
-3.6997136614173227
11
6.8187391338582675
21
-3.6996387401574804
0
LINE
8
BLACK
6
CONTINUOUS
10
6.8187391338582675
20
-3.6996387401574804
11
6.8182064566929128
21
-3.6991060629921257
0
LINE
8
BLACK
6
CONTINUOUS
10
6.8182064566929128
20
-3.6991060629921257
11
6.8181315354330705
21
-3.698729409448819
0
LINE
8
BLACK
6
CONTINUOUS
10
6.8181315354330705
20
-3.698729409448819
11
6.8181315354330705
21
-3.600304212598425
0
LINE
8
BLACK
6
CONTINUOUS
10
6.8181315354330705
20
-3.600304212598425
11
6.8182064566929128
21
-3.5999275590551179
0
LINE
8
BLACK
6
CONTINUOUS
10
6.8182064566929128
20
-3.5999275590551179
11
6.8187391338582675
21
-3.5993948818897636
0
LINE
8
BLACK
6
CONTINUOUS
10
6.8187391338582675
20
-3.5993948818897636
11
6.8191157874015751
21
-3.5993199606299213
0
LINE
8
BLACK
6
CONTINUOUS
10
6.8191157874015751
20
-3.5993199606299213
11
6.8742338976377955
21
-3.5993199606299213
0
LINE
8
BLACK
6
CONTINUOUS
10
6.8742338976377955
20
-3.5993199606299213
11
6.8746105511811022
21
-3.5993948818897636
0
LINE
8
BLACK
6
CONTINUOUS
10
6.8201000393700788
20
-3.6012884645669292
11
6.8201000393700788
21
-3.6977451574803148
0
LINE
8
BLACK
6
CONTINUOUS
10
6.8201000393700788
20
-3.6977451574803148
11
6.8732496456692909
21
-3.6977451574803148
0
LINE
8
BLACK
6
CONTINUOUS
10
6.8732496456692909
20
-3.6977451574803148
11
6.8732496456692909
21
-3.6012884645669292
0
LINE
8
BLACK
6
CONTINUOUS
10
6.8732496456692909
20
-3.6012884645669292
11
6.8201000393700788
21
-3.6012884645669292
0
LINE
8
BLACK
6
CONTINUOUS
10
7.1602640944881886
20
-3.6350484251968505
11
7.1607967716535432
21
-3.6355811023622047
0
LINE
8
BLACK
6
CONTINUOUS
10
7.1607967716535432
20
-3.6355811023622047
11
7.1608716929133855
21
-3.6359577559055118
0
LINE
8
BLACK
6
CONTINUOUS
10
7.1608716929133855
20
-3.6359577559055118
11
7.1608716929133855
21
-3.6910758661417322
0
LINE
8
BLACK
6
CONTINUOUS
10
7.1608716929133855
20
-3.6910758661417322
11
7.1607967716535432
21
-3.6914525196850394
0
LINE
8
BLACK
6
CONTINUOUS
10
7.1607967716535432
20
-3.6914525196850394
11
7.1602640944881886
21
-3.6919851968503936
0
LINE
8
BLACK
6
CONTINUOUS
10
7.1602640944881886
20
-3.6919851968503936
11
7.1598874409448818
21
-3.6920601181102359
0
LINE
8
BLACK
6
CONTINUOUS
10
7.1598874409448818
20
-3.6920601181102359
11
7.0614622440944883
21
-3.6920601181102359
0
LINE
8
BLACK
6
CONTINUOUS
10
7.0614622440944883
20
-3.6920601181102359
11
7.0610855905511807
21
-3.6919851968503936
0
LINE
8
BLACK
6
CONTINUOUS
10
7.0610855905511807
20
-3.6919851968503936
11
7.0605529133858269
21
-3.6914525196850394
0
LINE
8
BLACK
6
CONTINUOUS
10
7.0605529133858269
20
-3.6914525196850394
11
7.0604779921259837
21
-3.6910758661417322
0
LINE
8
BLACK
6
CONTINUOUS
10
7.0604779921259837
20
-3.6910758661417322
11
7.0604779921259837
21
-3.6359577559055118
0
LINE
8
BLACK
6
CONTINUOUS
10
7.0604779921259837
20
-3.6359577559055118
11
7.0605529133858269
21
-3.6355811023622047
0
LINE
8
BLACK
6
CONTINUOUS
10
7.0605529133858269
20
-3.6355811023622047
11
7.0610855905511807
21
-3.6350484251968505
0
LINE
8
BLACK
6
CONTINUOUS
10
7.0610855905511807
20
-3.6350484251968505
11
7.0614622440944883
21
-3.6349735039370077
0
LINE
8
BLACK
6
CONTINUOUS
10
7.0614622440944883
20
-3.6349735039370077
11
7.1598874409448818
21
-3.6349735039370077
0
LINE
8
BLACK
6
CONTINUOUS
10
7.1598874409448818
20
-3.6349735039370077
11
7.1602640944881886
21
-3.6350484251968505
0
LINE
8
BLACK
6
CONTINUOUS
10
7.062446496062992
20
-3.6369420078740156
11
7.062446496062992
21
-3.6900916141732281
0
LINE
8
BLACK
6
CONTINUOUS
10
7.062446496062992
20
-3.6900916141732281
11
7.1589031889763781
21
-3.6900916141732281
0
LINE
8
BLACK
6
CONTINUOUS
10
7.1589031889763781
20
-3.6900916141732281
11
7.1589031889763781
21
-3.6369420078740156
0
LINE
8
BLACK
6
CONTINUOUS
10
7.1589031889763781
20
-3.6369420078740156
11
7.062446496062992
21
-3.6369420078740156
0
LINE
8
BLACK
6
CONTINUOUS
10
5.8876341732283466
20
-3.4716783464566929
11
5.8881668503937004
21
-3.4722110236220471
0
LINE
8
BLACK
6
CONTINUOUS
10
5.8881668503937004
20
-3.4722110236220471
11
5.8882417716535436
21
-3.4725876771653543
0
LINE
8
BLACK
6
CONTINUOUS
10
5.8882417716535436
20
-3.4725876771653543
11
5.8882417716535436
21
-3.6064459448818895
0
LINE
8
BLACK
6
CONTINUOUS
10
5.8882417716535436
20
-3.6064459448818895
11
5.8881668503937004
21
-3.6068225984251967
0
LINE
8
BLACK
6
CONTINUOUS
10
5.8881668503937004
20
-3.6068225984251967
11
5.8876341732283466
21
-3.6073552755905509
0
LINE
8
BLACK
6
CONTINUOUS
10
5.8876341732283466
20
-3.6073552755905509
11
5.887257519685039
21
-3.6074301968503937
0
LINE
8
BLACK
6
CONTINUOUS
10
5.887257519685039
20
-3.6074301968503937
11
5.8100921653543303
21
-3.6074301968503937
0
LINE
8
BLACK
6
CONTINUOUS
10
5.8100921653543303
20
-3.6074301968503937
11
5.8097155118110235
21
-3.6073552755905509
0
LINE
8
BLACK
6
CONTINUOUS
10
5.8097155118110235
20
-3.6073552755905509
11
5.8091828346456689
21
-3.6068225984251967
0
LINE
8
BLACK
6
CONTINUOUS
10
5.8091828346456689
20
-3.6068225984251967
11
5.8091079133858265
21
-3.6064459448818895
0
LINE
8
BLACK
6
CONTINUOUS
10
5.8091079133858265
20
-3.6064459448818895
11
5.8091079133858265
21
-3.4725876771653543
0
LINE
8
BLACK
6
CONTINUOUS
10
5.8091079133858265
20
-3.4725876771653543
11
5.8091828346456689
21
-3.4722110236220471
0
LINE
8
BLACK
6
CONTINUOUS
10
5.8091828346456689
20
-3.4722110236220471
11
5.8097155118110235
21
-3.4716783464566929
0
LINE
8
BLACK
6
CONTINUOUS
10
5.8097155118110235
20
-3.4716783464566929
11
5.8100921653543303
21
-3.4716034251968502
0
LINE
8
BLACK
6
CONTINUOUS
10
5.8100921653543303
20
-3.4716034251968502
11
5.887257519685039
21
-3.4716034251968502
0
LINE
8
BLACK
6
CONTINUOUS
10
5.887257519685039
20
-3.4716034251968502
11
5.8876341732283466
21
-3.4716783464566929
0
LINE
8
BLACK
6
CONTINUOUS
10
5.8110764173228349
20
-3.473571929133858
11
5.8110764173228349
21
-3.6054616929133858
0
LINE
8
BLACK
6
CONTINUOUS
10
5.8110764173228349
20
-3.6054616929133858
11
5.8862732677165353
21
-3.6054616929133858
0
LINE
8
BLACK
6
CONTINUOUS
10
5.8862732677165353
20
-3.6054616929133858
11
5.8862732677165353
21
-3.473571929133858
0
LINE
8
BLACK
6
CONTINUOUS
10
5.8862732677165353
20
-3.473571929133858
11
5.8110764173228349
21
-3.473571929133858
0
LINE
8
BLACK
6
CONTINUOUS
10
6.5933349999999997
20
-3.427520866141732
11
6.5938676771653544
21
-3.4280535433070867
0
LINE
8
BLACK
6
CONTINUOUS
10
6.5938676771653544
20
-3.4280535433070867
11
6.5939425984251967
21
-3.4284301968503934
0
LINE
8
BLACK
6
CONTINUOUS
10
6.5939425984251967
20
-3.4284301968503934
11
6.5939425984251967
21
-3.562288464566929
0
LINE
8
BLACK
6
CONTINUOUS
10
6.5939425984251967
20
-3.562288464566929
11
6.5938676771653544
21
-3.5626651181102362
0
LINE
8
BLACK
6
CONTINUOUS
10
6.5938676771653544
20
-3.5626651181102362
11
6.5933349999999997
21
-3.5631977952755904
0
LINE
8
BLACK
6
CONTINUOUS
10
6.5933349999999997
20
-3.5631977952755904
11
6.592958346456693
21
-3.5632727165354332
0
LINE
8
BLACK
6
CONTINUOUS
10
6.592958346456693
20
-3.5632727165354332
11
6.5157929921259843
21
-3.5632727165354332
0
LINE
8
BLACK
6
CONTINUOUS
10
6.5157929921259843
20
-3.5632727165354332
11
6.5154163385826767
21
-3.5631977952755904
0
LINE
8
BLACK
6
CONTINUOUS
10
6.5154163385826767
20
-3.5631977952755904
11
6.5148836614173229
21
-3.5626651181102362
0
LINE
8
BLACK
6
CONTINUOUS
10
6.5148836614173229
20
-3.5626651181102362
11
6.5148087401574806
21
-3.562288464566929
0
LINE
8
BLACK
6
CONTINUOUS
10
6.5148087401574806
20
-3.562288464566929
11
6.5148087401574806
21
-3.4284301968503934
0
LINE
8
BLACK
6
CONTINUOUS
10
6.5148087401574806
20
-3.4284301968503934
11
6.5148836614173229
21
-3.4280535433070867
0
LINE
8
BLACK
6
CONTINUOUS
10
6.5148836614173229
20
-3.4280535433070867
11
6.5154163385826767
21
-3.427520866141732
0
LINE
8
BLACK
6
CONTINUOUS
10
6.5154163385826767
20
-3.427520866141732
11
6.5157929921259843
21
-3.4274459448818897
0
LINE
8
BLACK
6
CONTINUOUS
10
6.5157929921259843
20
-3.4274459448818897
11
6.592958346456693
21
-3.4274459448818897
0
LINE
8
BLACK
6
CONTINUOUS
10
6.592958346456693
20
-3.4274459448818897
11
6.5933349999999997
21
-3.427520866141732
0
LINE
8
BLACK
6
CONTINUOUS
10
6.516777244094488
20
-3.4294144488188976
11
6.516777244094488
21
-3.5613042125984253
0
LINE
8
BLACK
6
CONTINUOUS
10
6.516777244094488
20
-3.5613042125984253
11
6.5919740944881884
21
-3.5613042125984253
0
LINE
8
BLACK
6
CONTINUOUS
10
6.5919740944881884
20
-3.5613042125984253
11
6.5919740944881884
21
-3.4294144488188976
0
LINE
8
BLACK
6
CONTINUOUS
10
6.5919740944881884
20
-3.4294144488188976
11
6.516777244094488
21
-3.4294144488188976
0
LINE
8
BLACK
6
CONTINUOUS
10
7.4750357480314955
20
-2.9623555118110234
11
7.4755684251968502
21
-2.9628881889763781
0
LINE
8
BLACK
6
CONTINUOUS
10
7.4755684251968502
20
-2.9628881889763781
11
7.4756433464566925
21
-2.9632648425196848
0
LINE
8
BLACK
6
CONTINUOUS
10
7.4756433464566925
20
-2.9632648425196848
11
7.4756433464566925
21
-3.531768779527559
0
LINE
8
BLACK
6
CONTINUOUS
10
7.4756433464566925
20
-3.531768779527559
11
7.4755684251968502
21
-3.5321454330708661
0
LINE
8
BLACK
6
CONTINUOUS
10
7.4755684251968502
20
-3.5321454330708661
11
7.4750357480314955
21
-3.5326781102362204
0
LINE
8
BLACK
6
CONTINUOUS
10
7.4750357480314955
20
-3.5326781102362204
11
7.4746590944881888
21
-3.5327530314960631
0
LINE
8
BLACK
6
CONTINUOUS
10
7.4746590944881888
20
-3.5327530314960631
11
7.2226905905511813
21
-3.5327530314960631
0
LINE
8
BLACK
6
CONTINUOUS
10
7.2226905905511813
20
-3.5327530314960631
11
7.2223139370078737
21
-3.5326781102362204
0
LINE
8
BLACK
6
CONTINUOUS
10
7.2223139370078737
20
-3.5326781102362204
11
7.22178125984252
21
-3.5321454330708661
0
LINE
8
BLACK
6
CONTINUOUS
10
7.22178125984252
20
-3.5321454330708661
11
7.2217063385826767
21
-3.531768779527559
0
LINE
8
BLACK
6
CONTINUOUS
10
7.2217063385826767
20
-3.531768779527559
11
7.2217063385826767
21
-2.9632648425196848
0
LINE
8
BLACK
6
CONTINUOUS
10
7.2217063385826767
20
-2.9632648425196848
11
7.22178125984252
21
-2.9628881889763781
0
LINE
8
BLACK
6
CONTINUOUS
10
7.22178125984252
20
-2.9628881889763781
11
7.2223139370078737
21
-2.9623555118110234
0
LINE
8
BLACK
6
CONTINUOUS
10
7.2223139370078737
20
-2.9623555118110234
11
7.2226905905511813
21
-2.9622805905511811
0
LINE
8
BLACK
6
CONTINUOUS
10
7.2226905905511813
20
-2.9622805905511811
11
7.4746590944881888
21
-2.9622805905511811
0
LINE
8
BLACK
6
CONTINUOUS
10
7.4746590944881888
20
-2.9622805905511811
11
7.4750357480314955
21
-2.9623555118110234
0
LINE
8
BLACK
6
CONTINUOUS
10
7.2236748425196851
20
-2.964249094488189
11
7.2236748425196851
21
-3.5307845275590553
0
LINE
8
BLACK
6
CONTINUOUS
10
7.2236748425196851
20
-3.5307845275590553
11
7.4736748425196851
21
-3.5307845275590553
0
LINE
8
BLACK
6
CONTINUOUS
10
7.4736748425196851
20
-3.5307845275590553
11
7.4736748425196851
21
-2.964249094488189
0
LINE
8
BLACK
6
CONTINUOUS
10
7.4736748425196851
20
-2.964249094488189
11
7.2236748425196851
21
-2.964249094488189
0
LINE
8
BLACK
6
CONTINUOUS
10
7.2171932283464564
20
-3.3892059055118109
11
7.217725905511811
21
-3.3897385826771651
0
LINE
8
BLACK
6
CONTINUOUS
10
7.217725905511811
20
-3.3897385826771651
11
7.2178008267716534
21
-3.3901152362204723
0
LINE
8
BLACK
6
CONTINUOUS
10
7.2178008267716534
20
-3.3901152362204723
11
7.2178008267716534
21
-3.4649183858267714
0
LINE
8
BLACK
6
CONTINUOUS
10
7.2178008267716534
20
-3.4649183858267714
11
7.217725905511811
21
-3.4652950393700785
0
LINE
8
BLACK
6
CONTINUOUS
10
7.217725905511811
20
-3.4652950393700785
11
7.2171932283464564
21
-3.4658277165354332
0
LINE
8
BLACK
6
CONTINUOUS
10
7.2171932283464564
20
-3.4658277165354332
11
7.2168165748031496
21
-3.4659026377952755
0
LINE
8
BLACK
6
CONTINUOUS
10
7.2168165748031496
20
-3.4659026377952755
11
7.0845331102362206
21
-3.4659026377952755
0
LINE
8
BLACK
6
CONTINUOUS
10
7.0845331102362206
20
-3.4659026377952755
11
7.0841564566929129
21
-3.4658277165354332
0
LINE
8
BLACK
6
CONTINUOUS
10
7.0841564566929129
20
-3.4658277165354332
11
7.0836237795275592
21
-3.4652950393700785
0
LINE
8
BLACK
6
CONTINUOUS
10
7.0836237795275592
20
-3.4652950393700785
11
7.083548858267716
21
-3.4649183858267714
0
LINE
8
BLACK
6
CONTINUOUS
10
7.083548858267716
20
-3.4649183858267714
11
7.083548858267716
21
-3.3901152362204723
0
LINE
8
BLACK
6
CONTINUOUS
10
7.083548858267716
20
-3.3901152362204723
11
7.0836237795275592
21
-3.3897385826771651
0
LINE
8
BLACK
6
CONTINUOUS
10
7.0836237795275592
20
-3.3897385826771651
11
7.0841564566929129
21
-3.3892059055118109
0
LINE
8
BLACK
6
CONTINUOUS
10
7.0841564566929129
20
-3.3892059055118109
11
7.0845331102362206
21
-3.3891309842519686
0
LINE
8
BLACK
6
CONTINUOUS
10
7.0845331102362206
20
-3.3891309842519686
11
7.2168165748031496
21
-3.3891309842519686
0
LINE
8
BLACK
6
CONTINUOUS
10
7.2168165748031496
20
-3.3891309842519686
11
7.2171932283464564
21
-3.3892059055118109
0
LINE
8
BLACK
6
CONTINUOUS
10
7.0855173622047243
20
-3.3910994881889764
11
7.0855173622047243
21
-3.4639341338582676
0
LINE
8
BLACK
6
CONTINUOUS
10
7.0855173622047243
20
-3.4639341338582676
11
7.2158323228346459
21
-3.4639341338582676
0
LINE
8
BLACK
6
CONTINUOUS
10
7.2158323228346459
20
-3.4639341338582676
11
7.2158323228346459
21
-3.3910994881889764
0
LINE
8
BLACK
6
CONTINUOUS
10
7.2158323228346459
20
-3.3910994881889764
11
7.0855173622047243
21
-3.3910994881889764
0
LINE
8
BLACK
6
CONTINUOUS
10
7.2171932283464564
20
-3.307205905511811
11
7.217725905511811
21
-3.3077385826771653
0
LINE
8
BLACK
6
CONTINUOUS
10
7.217725905511811
20
-3.3077385826771653
11
7.2178008267716534
21
-3.3081152362204724
0
LINE
8
BLACK
6
CONTINUOUS
10
7.2178008267716534
20
-3.3081152362204724
11
7.2178008267716534
21
-3.3829183858267715
0
LINE
8
BLACK
6
CONTINUOUS
10
7.2178008267716534
20
-3.3829183858267715
11
7.217725905511811
21
-3.3832950393700787
0
LINE
8
BLACK
6
CONTINUOUS
10
7.217725905511811
20
-3.3832950393700787
11
7.2171932283464564
21
-3.3838277165354329
0
LINE
8
BLACK
6
CONTINUOUS
10
7.2171932283464564
20
-3.3838277165354329
11
7.2168165748031496
21
-3.3839026377952757
0
LINE
8
BLACK
6
CONTINUOUS
10
7.2168165748031496
20
-3.3839026377952757
11
7.0845331102362206
21
-3.3839026377952757
0
LINE
8
BLACK
6
CONTINUOUS
10
7.0845331102362206
20
-3.3839026377952757
11
7.0841564566929129
21
-3.3838277165354329
0
LINE
8
BLACK
6
CONTINUOUS
10
7.0841564566929129
20
-3.3838277165354329
11
7.0836237795275592
21
-3.3832950393700787
0
LINE
8
BLACK
6
CONTINUOUS
10
7.0836237795275592
20
-3.3832950393700787
11
7.083548858267716
21
-3.3829183858267715
0
LINE
8
BLACK
6
CONTINUOUS
10
7.083548858267716
20
-3.3829183858267715
11
7.083548858267716
21
-3.3081152362204724
0
LINE
8
BLACK
6
CONTINUOUS
10
7.083548858267716
20
-3.3081152362204724
11
7.0836237795275592
21
-3.3077385826771653
0
LINE
8
BLACK
6
CONTINUOUS
10
7.0836237795275592
20
-3.3077385826771653
11
7.0841564566929129
21
-3.307205905511811
0
LINE
8
BLACK
6
CONTINUOUS
10
7.0841564566929129
20
-3.307205905511811
11
7.0845331102362206
21
-3.3071309842519683
0
LINE
8
BLACK
6
CONTINUOUS
10
7.0845331102362206
20
-3.3071309842519683
11
7.2168165748031496
21
-3.3071309842519683
0
LINE
8
BLACK
6
CONTINUOUS
10
7.2168165748031496
20
-3.3071309842519683
11
7.2171932283464564
21
-3.307205905511811
0
LINE
8
BLACK
6
CONTINUOUS
10
7.0855173622047243
20
-3.3090994881889761
11
7.0855173622047243
21
-3.3819341338582678
0
LINE
8
BLACK
6
CONTINUOUS
10
7.0855173622047243
20
-3.3819341338582678
11
7.2158323228346459
21
-3.3819341338582678
0
LINE
8
BLACK
6
CONTINUOUS
10
7.2158323228346459
20
-3.3819341338582678
11
7.2158323228346459
21
-3.3090994881889761
0
LINE
8
BLACK
6
CONTINUOUS
10
7.2158323228346459
20
-3.3090994881889761
11
7.0855173622047243
21
-3.3090994881889761
0
LINE
8
BLACK
6
CONTINUOUS
10
6.7983930708661413
20
-3.2427068897637796
11
6.8058843307086612
21
-3.2451409842519685
0
LINE
8
BLACK
6
CONTINUOUS
10
6.8058843307086612
20
-3.2451409842519685
11
6.8129026377952755
21
-3.248716968503937
0
LINE
8
BLACK
6
CONTINUOUS
10
6.8129026377952755
20
-3.248716968503937
11
6.8192750787401577
21
-3.2533468110236221
0
LINE
8
BLACK
6
CONTINUOUS
10
6.8192750787401577
20
-3.2533468110236221
11
6.8248448425196848
21
-3.2589165748031497
0
LINE
8
BLACK
6
CONTINUOUS
10
6.8248448425196848
20
-3.2589165748031497
11
6.8294746850393695
21
-3.2652890157480314
0
LINE
8
BLACK
6
CONTINUOUS
10
6.8294746850393695
20
-3.2652890157480314
11
6.8330506692913389
21
-3.2723073228346458
0
LINE
8
BLACK
6
CONTINUOUS
10
6.8330506692913389
20
-3.2723073228346458
11
6.8354847637795277
21
-3.2797985826771652
0
LINE
8
BLACK
6
CONTINUOUS
10
6.8354847637795277
20
-3.2797985826771652
11
6.8367169685039366
21
-3.2875784251968505
0
LINE
8
BLACK
6
CONTINUOUS
10
6.8367169685039366
20
-3.2875784251968505
11
6.8367169685039366
21
-3.2954551968503938
0
LINE
8
BLACK
6
CONTINUOUS
10
6.8367169685039366
20
-3.2954551968503938
11
6.8354847637795277
21
-3.3032350393700787
0
LINE
8
BLACK
6
CONTINUOUS
10
6.8354847637795277
20
-3.3032350393700787
11
6.8330506692913389
21
-3.3107262992125985
0
LINE
8
BLACK
6
CONTINUOUS
10
6.8330506692913389
20
-3.3107262992125985
11
6.8294746850393695
21
-3.3177446062992124
0
LINE
8
BLACK
6
CONTINUOUS
10
6.8294746850393695
20
-3.3177446062992124
11
6.8248448425196848
21
-3.3241170472440946
0
LINE
8
BLACK
6
CONTINUOUS
10
6.8248448425196848
20
-3.3241170472440946
11
6.8192750787401577
21
-3.3296868110236222
0
LINE
8
BLACK
6
CONTINUOUS
10
6.8192750787401577
20
-3.3296868110236222
11
6.8129026377952755
21
-3.3343166535433069
0
LINE
8
BLACK
6
CONTINUOUS
10
6.8129026377952755
20
-3.3343166535433069
11
6.8058843307086612
21
-3.3378926377952753
0
LINE
8
BLACK
6
CONTINUOUS
10
6.8058843307086612
20
-3.3378926377952753
11
6.7983930708661413
21
-3.3403267322834647
0
LINE
8
BLACK
6
CONTINUOUS
10
6.7983930708661413
20
-3.3403267322834647
11
6.7906132283464569
21
-3.341558937007874
0
LINE
8
BLACK
6
CONTINUOUS
10
6.7906132283464569
20
-3.341558937007874
11
6.7827364566929136
21
-3.341558937007874
0
LINE
8
BLACK
6
CONTINUOUS
10
6.7827364566929136
20
-3.341558937007874
11
6.7749566141732283
21
-3.3403267322834647
0
LINE
8
BLACK
6
CONTINUOUS
10
6.7749566141732283
20
-3.3403267322834647
11
6.7674653543307084
21
-3.3378926377952753
0
LINE
8
BLACK
6
CONTINUOUS
10
6.7674653543307084
20
-3.3378926377952753
11
6.7604470472440941
21
-3.3343166535433069
0
LINE
8
BLACK
6
CONTINUOUS
10
6.7604470472440941
20
-3.3343166535433069
11
6.7540746062992127
21
-3.3296868110236222
0
LINE
8
BLACK
6
CONTINUOUS
10
6.7540746062992127
20
-3.3296868110236222
11
6.7485048425196847
21
-3.3241170472440946
0
LINE
8
BLACK
6
CONTINUOUS
10
6.7485048425196847
20
-3.3241170472440946
11
6.7438750000000001
21
-3.3177446062992124
0
LINE
8
BLACK
6
CONTINUOUS
10
6.7438750000000001
20
-3.3177446062992124
11
6.7402990157480316
21
-3.3107262992125985
0
LINE
8
BLACK
6
CONTINUOUS
10
6.7402990157480316
20
-3.3107262992125985
11
6.7378649212598427
21
-3.3032350393700787
0
LINE
8
BLACK
6
CONTINUOUS
10
6.7378649212598427
20
-3.3032350393700787
11
6.7366327165354329
21
-3.2954551968503938
0
LINE
8
BLACK
6
CONTINUOUS
10
6.7366327165354329
20
-3.2954551968503938
11
6.7366327165354329
21
-3.2877211417322836
0
LINE
8
BLACK
6
CONTINUOUS
10
6.7366327165354329
20
-3.2877211417322836
11
6.7366327165354329
21
-3.2875784251968505
0
LINE
8
BLACK
6
CONTINUOUS
10
6.7366327165354329
20
-3.2875784251968505
11
6.7378649212598427
21
-3.2797985826771652
0
LINE
8
BLACK
6
CONTINUOUS
10
6.7378649212598427
20
-3.2797985826771652
11
6.7402990157480316
21
-3.2723073228346458
0
LINE
8
BLACK
6
CONTINUOUS
10
6.7402990157480316
20
-3.2723073228346458
11
6.7438750000000001
21
-3.2652890157480314
0
LINE
8
BLACK
6
CONTINUOUS
10
6.7438750000000001
20
-3.2652890157480314
11
6.7485048425196847
21
-3.2589165748031497
0
LINE
8
BLACK
6
CONTINUOUS
10
6.7485048425196847
20
-3.2589165748031497
11
6.7540746062992127
21
-3.2533468110236221
0
LINE
8
BLACK
6
CONTINUOUS
10
6.7540746062992127
20
-3.2533468110236221
11
6.7604470472440941
21
-3.248716968503937
0
LINE
8
BLACK
6
CONTINUOUS
10
6.7604470472440941
20
-3.248716968503937
11
6.7674653543307084
21
-3.2451409842519685
0
LINE
8
BLACK
6
CONTINUOUS
10
6.7674653543307084
20
-3.2451409842519685
11
6.7749566141732283
21
-3.2427068897637796
0
LINE
8
BLACK
6
CONTINUOUS
10
6.7749566141732283
20
-3.2427068897637796
11
6.7827364566929136
21
-3.2414746850393699
0
LINE
8
BLACK
6
CONTINUOUS
10
6.7827364566929136
20
-3.2414746850393699
11
6.7906132283464569
21
-3.2414746850393699
0
LINE
8
BLACK
6
CONTINUOUS
10
6.7906132283464569
20
-3.2414746850393699
11
6.7983930708661413
21
-3.2427068897637796
0
LINE
8
BLACK
6
CONTINUOUS
10
6.7384464960629922
20
-3.2953124803149607
11
6.7396340551181098
21
-3.30281031496063
0
LINE
8
BLACK
6
CONTINUOUS
10
6.7396340551181098
20
-3.30281031496063
11
6.7419798818897636
21
-3.3100300787401573
0
LINE
8
BLACK
6
CONTINUOUS
10
6.7419798818897636
20
-3.3100300787401573
11
6.7454262598425192
21
-3.3167939763779528
0
LINE
8
BLACK
6
CONTINUOUS
10
6.7454262598425192
20
-3.3167939763779528
11
6.7498883070866142
21
-3.3229354724409448
0
LINE
8
BLACK
6
CONTINUOUS
10
6.7498883070866142
20
-3.3229354724409448
11
6.7552561811023617
21
-3.3283033464566927
0
LINE
8
BLACK
6
CONTINUOUS
10
6.7552561811023617
20
-3.3283033464566927
11
6.7613976771653546
21
-3.3327653937007873
0
LINE
8
BLACK
6
CONTINUOUS
10
6.7613976771653546
20
-3.3327653937007873
11
6.7681615748031492
21
-3.3362117716535433
0
LINE
8
BLACK
6
CONTINUOUS
10
6.7681615748031492
20
-3.3362117716535433
11
6.7753813385826769
21
-3.3385575984251967
0
LINE
8
BLACK
6
CONTINUOUS
10
6.7753813385826769
20
-3.3385575984251967
11
6.7828791732283467
21
-3.3397451574803148
0
LINE
8
BLACK
6
CONTINUOUS
10
6.7828791732283467
20
-3.3397451574803148
11
6.7904705118110238
21
-3.3397451574803148
0
LINE
8
BLACK
6
CONTINUOUS
10
6.7904705118110238
20
-3.3397451574803148
11
6.7979683464566927
21
-3.3385575984251967
0
LINE
8
BLACK
6
CONTINUOUS
10
6.7979683464566927
20
-3.3385575984251967
11
6.8051881102362204
21
-3.3362117716535433
0
LINE
8
BLACK
6
CONTINUOUS
10
6.8051881102362204
20
-3.3362117716535433
11
6.8119520078740159
21
-3.3327653937007873
0
LINE
8
BLACK
6
CONTINUOUS
10
6.8119520078740159
20
-3.3327653937007873
11
6.8180935039370079
21
-3.3283033464566927
0
LINE
8
BLACK
6
CONTINUOUS
10
6.8180935039370079
20
-3.3283033464566927
11
6.8234613779527553
21
-3.3229354724409448
0
LINE
8
BLACK
6
CONTINUOUS
10
6.8234613779527553
20
-3.3229354724409448
11
6.8279234251968504
21
-3.3167939763779528
0
LINE
8
BLACK
6
CONTINUOUS
10
6.8279234251968504
20
-3.3167939763779528
11
6.831369803149606
21
-3.3100300787401573
0
LINE
8
BLACK
6
CONTINUOUS
10
6.831369803149606
20
-3.3100300787401573
11
6.8337156299212598
21
-3.30281031496063
0
LINE
8
BLACK
6
CONTINUOUS
10
6.8337156299212598
20
-3.30281031496063
11
6.8349031889763774
21
-3.2953124803149607
0
LINE
8
BLACK
6
CONTINUOUS
10
6.8349031889763774
20
-3.2953124803149607
11
6.8349031889763774
21
-3.2877211417322836
0
LINE
8
BLACK
6
CONTINUOUS
10
6.8349031889763774
20
-3.2877211417322836
11
6.8337156299212598
21
-3.2802233070866142
0
LINE
8
BLACK
6
CONTINUOUS
10
6.8337156299212598
20
-3.2802233070866142
11
6.831369803149606
21
-3.2730035433070865
0
LINE
8
BLACK
6
CONTINUOUS
10
6.831369803149606
20
-3.2730035433070865
11
6.8279234251968504
21
-3.2662396456692915
0
LINE
8
BLACK
6
CONTINUOUS
10
6.8279234251968504
20
-3.2662396456692915
11
6.8234613779527553
21
-3.2600981496062991
0
LINE
8
BLACK
6
CONTINUOUS
10
6.8234613779527553
20
-3.2600981496062991
11
6.8180935039370079
21
-3.2547302755905512
0
LINE
8
BLACK
6
CONTINUOUS
10
6.8180935039370079
20
-3.2547302755905512
11
6.8119520078740159
21
-3.2502682283464566
0
LINE
8
BLACK
6
CONTINUOUS
10
6.8119520078740159
20
-3.2502682283464566
11
6.8051881102362204
21
-3.2468218503937005
0
LINE
8
BLACK
6
CONTINUOUS
10
6.8051881102362204
20
-3.2468218503937005
11
6.7979683464566927
21
-3.2444760236220471
0
LINE
8
BLACK
6
CONTINUOUS
10
6.7979683464566927
20
-3.2444760236220471
11
6.7904705118110238
21
-3.2432884645669291
0
LINE
8
BLACK
6
CONTINUOUS
10
6.7904705118110238
20
-3.2432884645669291
11
6.7828791732283467
21
-3.2432884645669291
0
LINE
8
BLACK
6
CONTINUOUS
10
6.7828791732283467
20
-3.2432884645669291
11
6.7753813385826769
21
-3.2444760236220471
0
LINE
8
BLACK
6
CONTINUOUS
10
6.7753813385826769
20
-3.2444760236220471
11
6.7681615748031492
21
-3.2468218503937005
0
LINE
8
BLACK
6
CONTINUOUS
10
6.7681615748031492
20
-3.2468218503937005
11
6.7613976771653546
21
-3.2502682283464566
0
LINE
8
BLACK
6
CONTINUOUS
10
6.7613976771653546
20
-3.2502682283464566
11
6.7552561811023617
21
-3.2547302755905512
0
LINE
8
BLACK
6
CONTINUOUS
10
6.7552561811023617
20
-3.2547302755905512
11
6.7498883070866142
21
-3.2600981496062991
0
LINE
8
BLACK
6
CONTINUOUS
10
6.7498883070866142
20
-3.2600981496062991
11
6.7454262598425192
21
-3.2662396456692915
0
LINE
8
BLACK
6
CONTINUOUS
10
6.7454262598425192
20
-3.2662396456692915
11
6.7419798818897636
21
-3.2730035433070865
0
LINE
8
BLACK
6
CONTINUOUS
10
6.7419798818897636
20
-3.2730035433070865
11
6.7396340551181098
21
-3.2802233070866142
0
LINE
8
BLACK
6
CONTINUOUS
10
6.7396340551181098
20
-3.2802233070866142
11
6.7384464960629922
21
-3.2877211417322836
0
LINE
8
BLACK
6
CONTINUOUS
10
6.7384464960629922
20
-3.2877211417322836
11
6.7384464960629922
21
-3.2953124803149607
0
LINE
8
BLACK
6
CONTINUOUS
10
7.2171932283464564
20
-3.2052059055118112
11
7.217725905511811
21
-3.2057385826771654
0
LINE
8
BLACK
6
CONTINUOUS
10
7.217725905511811
20
-3.2057385826771654
11
7.2178008267716534
21
-3.2061152362204726
0
LINE
8
BLACK
6
CONTINUOUS
10
7.2178008267716534
20
-3.2061152362204726
11
7.2178008267716534
21
-3.2809183858267716
0
LINE
8
BLACK
6
CONTINUOUS
10
7.2178008267716534
20
-3.2809183858267716
11
7.217725905511811
21
-3.2812950393700788
0
LINE
8
BLACK
6
CONTINUOUS
10
7.217725905511811
20
-3.2812950393700788
11
7.2171932283464564
21
-3.281827716535433
0
LINE
8
BLACK
6
CONTINUOUS
10
7.2171932283464564
20
-3.281827716535433
11
7.2168165748031496
21
-3.2819026377952754
0
LINE
8
BLACK
6
CONTINUOUS
10
7.2168165748031496
20
-3.2819026377952754
11
7.0845331102362206
21
-3.2819026377952754
0
LINE
8
BLACK
6
CONTINUOUS
10
7.0845331102362206
20
-3.2819026377952754
11
7.0841564566929129
21
-3.281827716535433
0
LINE
8
BLACK
6
CONTINUOUS
10
7.0841564566929129
20
-3.281827716535433
11
7.0836237795275592
21
-3.2812950393700788
0
LINE
8
BLACK
6
CONTINUOUS
10
7.0836237795275592
20
-3.2812950393700788
11
7.083548858267716
21
-3.2809183858267716
0
LINE
8
BLACK
6
CONTINUOUS
10
7.083548858267716
20
-3.2809183858267716
11
7.083548858267716
21
-3.2061152362204726
0
LINE
8
BLACK
6
CONTINUOUS
10
7.083548858267716
20
-3.2061152362204726
11
7.0836237795275592
21
-3.2057385826771654
0
LINE
8
BLACK
6
CONTINUOUS
10
7.0836237795275592
20
-3.2057385826771654
11
7.0841564566929129
21
-3.2052059055118112
0
LINE
8
BLACK
6
CONTINUOUS
10
7.0841564566929129
20
-3.2052059055118112
11
7.0845331102362206
21
-3.2051309842519684
0
LINE
8
BLACK
6
CONTINUOUS
10
7.0845331102362206
20
-3.2051309842519684
11
7.2168165748031496
21
-3.2051309842519684
0
LINE
8
BLACK
6
CONTINUOUS
10
7.2168165748031496
20
-3.2051309842519684
11
7.2171932283464564
21
-3.2052059055118112
0
LINE
8
BLACK
6
CONTINUOUS
10
7.0855173622047243
20
-3.2070994881889763
11
7.0855173622047243
21
-3.2799341338582675
0
LINE
8
BLACK
6
CONTINUOUS
10
7.0855173622047243
20
-3.2799341338582675
11
7.2158323228346459
21
-3.2799341338582675
0
LINE
8
BLACK
6
CONTINUOUS
10
7.2158323228346459
20
-3.2799341338582675
11
7.2158323228346459
21
-3.2070994881889763
0
LINE
8
BLACK
6
CONTINUOUS
10
7.2158323228346459
20
-3.2070994881889763
11
7.0855173622047243
21
-3.2070994881889763
0
LINE
8
BLACK
6
CONTINUOUS
10
6.1916814173228349
20
-3.1598673228346454
11
6.1922140944881887
21
-3.1604000000000001
0
LINE
8
BLACK
6
CONTINUOUS
10
6.1922140944881887
20
-3.1604000000000001
11
6.192289015748031
21
-3.1607766535433068
0
LINE
8
BLACK
6
CONTINUOUS
10
6.192289015748031
20
-3.1607766535433068
11
6.192289015748031
21
-3.2379420078740155
0
LINE
8
BLACK
6
CONTINUOUS
10
6.192289015748031
20
-3.2379420078740155
11
6.1922140944881887
21
-3.2383186614173227
0
LINE
8
BLACK
6
CONTINUOUS
10
6.1922140944881887
20
-3.2383186614173227
11
6.1916814173228349
21
-3.2388513385826769
0
LINE
8
BLACK
6
CONTINUOUS
10
6.1916814173228349
20
-3.2388513385826769
11
6.1913047637795273
21
-3.2389262598425197
0
LINE
8
BLACK
6
CONTINUOUS
10
6.1913047637795273
20
-3.2389262598425197
11
6.0574464960629921
21
-3.2389262598425197
0
LINE
8
BLACK
6
CONTINUOUS
10
6.0574464960629921
20
-3.2389262598425197
11
6.0570698425196845
21
-3.2388513385826769
0
LINE
8
BLACK
6
CONTINUOUS
10
6.0570698425196845
20
-3.2388513385826769
11
6.0565371653543307
21
-3.2383186614173227
0
LINE
8
BLACK
6
CONTINUOUS
10
6.0565371653543307
20
-3.2383186614173227
11
6.0564622440944884
21
-3.2379420078740155
0
LINE
8
BLACK
6
CONTINUOUS
10
6.0564622440944884
20
-3.2379420078740155
11
6.0564622440944884
21
-3.1607766535433068
0
LINE
8
BLACK
6
CONTINUOUS
10
6.0564622440944884
20
-3.1607766535433068
11
6.0565371653543307
21
-3.1604000000000001
0
LINE
8
BLACK
6
CONTINUOUS
10
6.0565371653543307
20
-3.1604000000000001
11
6.0570698425196845
21
-3.1598673228346454
0
LINE
8
BLACK
6
CONTINUOUS
10
6.0570698425196845
20
-3.1598673228346454
11
6.0574464960629921
21
-3.1597924015748031
0
LINE
8
BLACK
6
CONTINUOUS
10
6.0574464960629921
20
-3.1597924015748031
11
6.1913047637795273
21
-3.1597924015748031
0
LINE
8
BLACK
6
CONTINUOUS
10
6.1913047637795273
20
-3.1597924015748031
11
6.1916814173228349
21
-3.1598673228346454
0
LINE
8
BLACK
6
CONTINUOUS
10
6.0584307480314958
20
-3.161760905511811
11
6.0584307480314958
21
-3.2369577559055118
0
LINE
8
BLACK
6
CONTINUOUS
10
6.0584307480314958
20
-3.2369577559055118
11
6.1903205118110236
21
-3.2369577559055118
0
LINE
8
BLACK
6
CONTINUOUS
10
6.1903205118110236
20
-3.2369577559055118
11
6.1903205118110236
21
-3.161760905511811
0
LINE
8
BLACK
6
CONTINUOUS
10
6.1903205118110236
20
-3.161760905511811
11
6.0584307480314958
21
-3.161760905511811
0
LINE
8
BLACK
6
CONTINUOUS
10
7.2171932283464564
20
-3.1012059055118111
11
7.217725905511811
21
-3.1017385826771653
0
LINE
8
BLACK
6
CONTINUOUS
10
7.217725905511811
20
-3.1017385826771653
11
7.2178008267716534
21
-3.1021152362204725
0
LINE
8
BLACK
6
CONTINUOUS
10
7.2178008267716534
20
-3.1021152362204725
11
7.2178008267716534
21
-3.1769183858267716
0
LINE
8
BLACK
6
CONTINUOUS
10
7.2178008267716534
20
-3.1769183858267716
11
7.217725905511811
21
-3.1772950393700787
0
LINE
8
BLACK
6
CONTINUOUS
10
7.217725905511811
20
-3.1772950393700787
11
7.2171932283464564
21
-3.1778277165354329
0
LINE
8
BLACK
6
CONTINUOUS
10
7.2171932283464564
20
-3.1778277165354329
11
7.2168165748031496
21
-3.1779026377952757
0
LINE
8
BLACK
6
CONTINUOUS
10
7.2168165748031496
20
-3.1779026377952757
11
7.0845331102362206
21
-3.1779026377952757
0
LINE
8
BLACK
6
CONTINUOUS
10
7.0845331102362206
20
-3.1779026377952757
11
7.0841564566929129
21
-3.1778277165354329
0
LINE
8
BLACK
6
CONTINUOUS
10
7.0841564566929129
20
-3.1778277165354329
11
7.0836237795275592
21
-3.1772950393700787
0
LINE
8
BLACK
6
CONTINUOUS
10
7.0836237795275592
20
-3.1772950393700787
11
7.083548858267716
21
-3.1769183858267716
0
LINE
8
BLACK
6
CONTINUOUS
10
7.083548858267716
20
-3.1769183858267716
11
7.083548858267716
21
-3.1021152362204725
0
LINE
8
BLACK
6
CONTINUOUS
10
7.083548858267716
20
-3.1021152362204725
11
7.0836237795275592
21
-3.1017385826771653
0
LINE
8
BLACK
6
CONTINUOUS
10
7.0836237795275592
20
-3.1017385826771653
11
7.0841564566929129
21
-3.1012059055118111
0
LINE
8
BLACK
6
CONTINUOUS
10
7.0841564566929129
20
-3.1012059055118111
11
7.0845331102362206
21
-3.1011309842519683
0
LINE
8
BLACK
6
CONTINUOUS
10
7.0845331102362206
20
-3.1011309842519683
11
7.2168165748031496
21
-3.1011309842519683
0
LINE
8
BLACK
6
CONTINUOUS
10
7.2168165748031496
20
-3.1011309842519683
11
7.2171932283464564
21
-3.1012059055118111
0
LINE
8
BLACK
6
CONTINUOUS
10
7.0855173622047243
20
-3.1030994881889762
11
7.0855173622047243
21
-3.1759341338582678
0
LINE
8
BLACK
6
CONTINUOUS
10
7.0855173622047243
20
-3.1759341338582678
11
7.2158323228346459
21
-3.1759341338582678
0
LINE
8
BLACK
6
CONTINUOUS
10
7.2158323228346459
20
-3.1759341338582678
11
7.2158323228346459
21
-3.1030994881889762
0
LINE
8
BLACK
6
CONTINUOUS
10
7.2158323228346459
20
-3.1030994881889762
11
7.0855173622047243
21
-3.1030994881889762
0
LINE
8
BLACK
6
CONTINUOUS
10
6.6544530708661416
20
-3.0104657480314958
11
6.6549857480314962
21
-3.0109984251968505
0
LINE
8
BLACK
6
CONTINUOUS
10
6.6549857480314962
20
-3.0109984251968505
11
6.6550606692913385
21
-3.0113750787401572
0
LINE
8
BLACK
6
CONTINUOUS
10
6.6550606692913385
20
-3.0113750787401572
11
6.6550606692913385
21
-3.1436585433070867
0
LINE
8
BLACK
6
CONTINUOUS
10
6.6550606692913385
20
-3.1436585433070867
11
6.6549857480314962
21
-3.1440351968503935
0
LINE
8
BLACK
6
CONTINUOUS
10
6.6549857480314962
20
-3.1440351968503935
11
6.6544530708661416
21
-3.1445678740157481
0
LINE
8
BLACK
6
CONTINUOUS
10
6.6544530708661416
20
-3.1445678740157481
11
6.6540764173228348
21
-3.1446427952755904
0
LINE
8
BLACK
6
CONTINUOUS
10
6.6540764173228348
20
-3.1446427952755904
11
6.5792732677165349
21
-3.1446427952755904
0
LINE
8
BLACK
6
CONTINUOUS
10
6.5792732677165349
20
-3.1446427952755904
11
6.5788966141732281
21
-3.1445678740157481
0
LINE
8
BLACK
6
CONTINUOUS
10
6.5788966141732281
20
-3.1445678740157481
11
6.5783639370078735
21
-3.1440351968503935
0
LINE
8
BLACK
6
CONTINUOUS
10
6.5783639370078735
20
-3.1440351968503935
11
6.5782890157480312
21
-3.1436585433070867
0
LINE
8
BLACK
6
CONTINUOUS
10
6.5782890157480312
20
-3.1436585433070867
11
6.5782890157480312
21
-3.0113750787401572
0
LINE
8
BLACK
6
CONTINUOUS
10
6.5782890157480312
20
-3.0113750787401572
11
6.5783639370078735
21
-3.0109984251968505
0
LINE
8
BLACK
6
CONTINUOUS
10
6.5783639370078735
20
-3.0109984251968505
11
6.5788966141732281
21
-3.0104657480314958
0
LINE
8
BLACK
6
CONTINUOUS
10
6.5788966141732281
20
-3.0104657480314958
11
6.5792732677165349
21
-3.0103908267716535
0
LINE
8
BLACK
6
CONTINUOUS
10
6.5792732677165349
20
-3.0103908267716535
11
6.6540764173228348
21
-3.0103908267716535
0
LINE
8
BLACK
6
CONTINUOUS
10
6.6540764173228348
20
-3.0103908267716535
11
6.6544530708661416
21
-3.0104657480314958
0
LINE
8
BLACK
6
CONTINUOUS
10
6.5802575196850395
20
-3.0123593307086614
11
6.5802575196850395
21
-3.1426742913385826
0
LINE
8
BLACK
6
CONTINUOUS
10
6.5802575196850395
20
-3.1426742913385826
11
6.6530921653543302
21
-3.1426742913385826
0
LINE
8
BLACK
6
CONTINUOUS
10
6.6530921653543302
20
-3.1426742913385826
11
6.6530921653543302
21
-3.0123593307086614
0
LINE
8
BLACK
6
CONTINUOUS
10
6.6530921653543302
20
-3.0123593307086614
11
6.5802575196850395
21
-3.0123593307086614
0
LINE
8
BLACK
6
CONTINUOUS
10
4.3583930708661418
20
-2.9997068897637793
11
4.3658843307086617
21
-3.0021409842519686
0
LINE
8
BLACK
6
CONTINUOUS
10
4.3658843307086617
20
-3.0021409842519686
11
4.3729026377952751
21
-3.0057169685039371
0
LINE
8
BLACK
6
CONTINUOUS
10
4.3729026377952751
20
-3.0057169685039371
11
4.3792750787401573
21
-3.0103468110236218
0
LINE
8
BLACK
6
CONTINUOUS
10
4.3792750787401573
20
-3.0103468110236218
11
4.3848448425196853
21
-3.0159165748031493
0
LINE
8
BLACK
6
CONTINUOUS
10
4.3848448425196853
20
-3.0159165748031493
11
4.38947468503937
21
-3.0222890157480315
0
LINE
8
BLACK
6
CONTINUOUS
10
4.38947468503937
20
-3.0222890157480315
11
4.3930506692913385
21
-3.0293073228346454
0
LINE
8
BLACK
6
CONTINUOUS
10
4.3930506692913385
20
-3.0293073228346454
11
4.3954847637795273
21
-3.0367985826771653
0
LINE
8
BLACK
6
CONTINUOUS
10
4.3954847637795273
20
-3.0367985826771653
11
4.3967169685039371
21
-3.0445784251968502
0
LINE
8
BLACK
6
CONTINUOUS
10
4.3967169685039371
20
-3.0445784251968502
11
4.3967169685039371
21
-3.0524551968503935
0
LINE
8
BLACK
6
CONTINUOUS
10
4.3967169685039371
20
-3.0524551968503935
11
4.3954847637795273
21
-3.0602350393700788
0
LINE
8
BLACK
6
CONTINUOUS
10
4.3954847637795273
20
-3.0602350393700788
11
4.3930506692913385
21
-3.0677262992125982
0
LINE
8
BLACK
6
CONTINUOUS
10
4.3930506692913385
20
-3.0677262992125982
11
4.38947468503937
21
-3.0747446062992125
0
LINE
8
BLACK
6
CONTINUOUS
10
4.38947468503937
20
-3.0747446062992125
11
4.3848448425196853
21
-3.0811170472440943
0
LINE
8
BLACK
6
CONTINUOUS
10
4.3848448425196853
20
-3.0811170472440943
11
4.3792750787401573
21
-3.0866868110236219
0
LINE
8
BLACK
6
CONTINUOUS
10
4.3792750787401573
20
-3.0866868110236219
11
4.3729026377952751
21
-3.091316653543307
0
LINE
8
BLACK
6
CONTINUOUS
10
4.3729026377952751
20
-3.091316653543307
11
4.3658843307086617
21
-3.0948926377952755
0
LINE
8
BLACK
6
CONTINUOUS
10
4.3658843307086617
20
-3.0948926377952755
11
4.3583930708661418
21
-3.0973267322834643
0
LINE
8
BLACK
6
CONTINUOUS
10
4.3583930708661418
20
-3.0973267322834643
11
4.3506132283464565
21
-3.0985589370078741
0
LINE
8
BLACK
6
CONTINUOUS
10
4.3506132283464565
20
-3.0985589370078741
11
4.3427364566929132
21
-3.0985589370078741
0
LINE
8
BLACK
6
CONTINUOUS
10
4.3427364566929132
20
-3.0985589370078741
11
4.3349566141732279
21
-3.0973267322834643
0
LINE
8
BLACK
6
CONTINUOUS
10
4.3349566141732279
20
-3.0973267322834643
11
4.3274653543307089
21
-3.0948926377952755
0
LINE
8
BLACK
6
CONTINUOUS
10
4.3274653543307089
20
-3.0948926377952755
11
4.3204470472440946
21
-3.091316653543307
0
LINE
8
BLACK
6
CONTINUOUS
10
4.3204470472440946
20
-3.091316653543307
11
4.3140746062992124
21
-3.0866868110236219
0
LINE
8
BLACK
6
CONTINUOUS
10
4.3140746062992124
20
-3.0866868110236219
11
4.3085048425196852
21
-3.0811170472440943
0
LINE
8
BLACK
6
CONTINUOUS
10
4.3085048425196852
20
-3.0811170472440943
11
4.3038749999999997
21
-3.0747446062992125
0
LINE
8
BLACK
6
CONTINUOUS
10
4.3038749999999997
20
-3.0747446062992125
11
4.3002990157480312
21
-3.0677262992125982
0
LINE
8
BLACK
6
CONTINUOUS
10
4.3002990157480312
20
-3.0677262992125982
11
4.2978649212598423
21
-3.0602350393700788
0
LINE
8
BLACK
6
CONTINUOUS
10
4.2978649212598423
20
-3.0602350393700788
11
4.2966327165354326
21
-3.0524551968503935
0
LINE
8
BLACK
6
CONTINUOUS
10
4.2966327165354326
20
-3.0524551968503935
11
4.2966327165354326
21
-3.0447211417322833
0
LINE
8
BLACK
6
CONTINUOUS
10
4.2966327165354326
20
-3.0447211417322833
11
4.2966327165354326
21
-3.0445784251968502
0
LINE
8
BLACK
6
CONTINUOUS
10
4.2966327165354326
20
-3.0445784251968502
11
4.2978649212598423
21
-3.0367985826771653
0
LINE
8
BLACK
6
CONTINUOUS
10
4.2978649212598423
20
-3.0367985826771653
11
4.3002990157480312
21
-3.0293073228346454
0
LINE
8
BLACK
6
CONTINUOUS
10
4.3002990157480312
20
-3.0293073228346454
11
4.3038749999999997
21
-3.0222890157480315
0
LINE
8
BLACK
6
CONTINUOUS
10
4.3038749999999997
20
-3.0222890157480315
11
4.3085048425196852
21
-3.0159165748031493
0
LINE
8
BLACK
6
CONTINUOUS
10
4.3085048425196852
20
-3.0159165748031493
11
4.3140746062992124
21
-3.0103468110236218
0
LINE
8
BLACK
6
CONTINUOUS
10
4.3140746062992124
20
-3.0103468110236218
11
4.3204470472440946
21
-3.0057169685039371
0
LINE
8
BLACK
6
CONTINUOUS
10
4.3204470472440946
20
-3.0057169685039371
11
4.3274653543307089
21
-3.0021409842519686
0
LINE
8
BLACK
6
CONTINUOUS
10
4.3274653543307089
20
-3.0021409842519686
11
4.3349566141732279
21
-2.9997068897637793
0
LINE
8
BLACK
6
CONTINUOUS
10
4.3349566141732279
20
-2.9997068897637793
11
4.3427364566929132
21
-2.99847468503937
0
LINE
8
BLACK
6
CONTINUOUS
10
4.3427364566929132
20
-2.99847468503937
11
4.3506132283464565
21
-2.99847468503937
0
LINE
8
BLACK
6
CONTINUOUS
10
4.3506132283464565
20
-2.99847468503937
11
4.3583930708661418
21
-2.9997068897637793
0
LINE
8
BLACK
6
CONTINUOUS
10
4.2984464960629918
20
-3.0523124803149604
11
4.2996340551181103
21
-3.0598103149606297
0
LINE
8
BLACK
6
CONTINUOUS
10
4.2996340551181103
20
-3.0598103149606297
11
4.3019798818897641
21
-3.0670300787401574
0
LINE
8
BLACK
6
CONTINUOUS
10
4.3019798818897641
20
-3.0670300787401574
11
4.3054262598425197
21
-3.0737939763779525
0
LINE
8
BLACK
6
CONTINUOUS
10
4.3054262598425197
20
-3.0737939763779525
11
4.3098883070866139
21
-3.0799354724409449
0
LINE
8
BLACK
6
CONTINUOUS
10
4.3098883070866139
20
-3.0799354724409449
11
4.3152561811023622
21
-3.0853033464566928
0
LINE
8
BLACK
6
CONTINUOUS
10
4.3152561811023622
20
-3.0853033464566928
11
4.3213976771653542
21
-3.0897653937007874
0
LINE
8
BLACK
6
CONTINUOUS
10
4.3213976771653542
20
-3.0897653937007874
11
4.3281615748031497
21
-3.0932117716535434
0
LINE
8
BLACK
6
CONTINUOUS
10
4.3281615748031497
20
-3.0932117716535434
11
4.3353813385826774
21
-3.0955575984251968
0
LINE
8
BLACK
6
CONTINUOUS
10
4.3353813385826774
20
-3.0955575984251968
11
4.3428791732283463
21
-3.0967451574803149
0
LINE
8
BLACK
6
CONTINUOUS
10
4.3428791732283463
20
-3.0967451574803149
11
4.3504705118110234
21
-3.0967451574803149
0
LINE
8
BLACK
6
CONTINUOUS
10
4.3504705118110234
20
-3.0967451574803149
11
4.3579683464566932
21
-3.0955575984251968
0
LINE
8
BLACK
6
CONTINUOUS
10
4.3579683464566932
20
-3.0955575984251968
11
4.36518811023622
21
-3.0932117716535434
0
LINE
8
BLACK
6
CONTINUOUS
10
4.36518811023622
20
-3.0932117716535434
11
4.3719520078740155
21
-3.0897653937007874
0
LINE
8
BLACK
6
CONTINUOUS
10
4.3719520078740155
20
-3.0897653937007874
11
4.3780935039370075
21
-3.0853033464566928
0
LINE
8
BLACK
6
CONTINUOUS
10
4.3780935039370075
20
-3.0853033464566928
11
4.3834613779527558
21
-3.0799354724409449
0
LINE
8
BLACK
6
CONTINUOUS
10
4.3834613779527558
20
-3.0799354724409449
11
4.38792342519685
21
-3.0737939763779525
0
LINE
8
BLACK
6
CONTINUOUS
10
4.38792342519685
20
-3.0737939763779525
11
4.3913698031496065
21
-3.0670300787401574
0
LINE
8
BLACK
6
CONTINUOUS
10
4.3913698031496065
20
-3.0670300787401574
11
4.3937156299212594
21
-3.0598103149606297
0
LINE
8
BLACK
6
CONTINUOUS
10
4.3937156299212594
20
-3.0598103149606297
11
4.3949031889763779
21
-3.0523124803149604
0
LINE
8
BLACK
6
CONTINUOUS
10
4.3949031889763779
20
-3.0523124803149604
11
4.3949031889763779
21
-3.0447211417322833
0
LINE
8
BLACK
6
CONTINUOUS
10
4.3949031889763779
20
-3.0447211417322833
11
4.3937156299212594
21
-3.0372233070866139
0
LINE
8
BLACK
6
CONTINUOUS
10
4.3937156299212594
20
-3.0372233070866139
11
4.3913698031496065
21
-3.0300035433070867
0
LINE
8
BLACK
6
CONTINUOUS
10
4.3913698031496065
20
-3.0300035433070867
11
4.38792342519685
21
-3.0232396456692912
0
LINE
8
BLACK
6
CONTINUOUS
10
4.38792342519685
20
-3.0232396456692912
11
4.3834613779527558
21
-3.0170981496062992
0
LINE
8
BLACK
6
CONTINUOUS
10
4.3834613779527558
20
-3.0170981496062992
11
4.3780935039370075
21
-3.0117302755905513
0
LINE
8
BLACK
6
CONTINUOUS
10
4.3780935039370075
20
-3.0117302755905513
11
4.3719520078740155
21
-3.0072682283464567
0
LINE
8
BLACK
6
CONTINUOUS
10
4.3719520078740155
20
-3.0072682283464567
11
4.36518811023622
21
-3.0038218503937006
0
LINE
8
BLACK
6
CONTINUOUS
10
4.36518811023622
20
-3.0038218503937006
11
4.3579683464566932
21
-3.0014760236220472
0
LINE
8
BLACK
6
CONTINUOUS
10
4.3579683464566932
20
-3.0014760236220472
11
4.3504705118110234
21
-3.0002884645669292
0
LINE
8
BLACK
6
CONTINUOUS
10
4.3504705118110234
20
-3.0002884645669292
11
4.3428791732283463
21
-3.0002884645669292
0
LINE
8
BLACK
6
CONTINUOUS
10
4.3428791732283463
20
-3.0002884645669292
11
4.3353813385826774
21
-3.0014760236220472
0
LINE
8
BLACK
6
CONTINUOUS
10
4.3353813385826774
20
-3.0014760236220472
11
4.3281615748031497
21
-3.0038218503937006
0
LINE
8
BLACK
6
CONTINUOUS
10
4.3281615748031497
20
-3.0038218503937006
11
4.3213976771653542
21
-3.0072682283464567
0
LINE
8
BLACK
6
CONTINUOUS
10
4.3213976771653542
20
-3.0072682283464567
11
4.3152561811023622
21
-3.0117302755905513
0
LINE
8
BLACK
6
CONTINUOUS
10
4.3152561811023622
20
-3.0117302755905513
11
4.3098883070866139
21
-3.0170981496062992
0
LINE
8
BLACK
6
CONTINUOUS
10
4.3098883070866139
20
-3.0170981496062992
11
4.3054262598425197
21
-3.0232396456692912
0
LINE
8
BLACK
6
CONTINUOUS
10
4.3054262598425197
20
-3.0232396456692912
11
4.3019798818897641
21
-3.0300035433070867
0
LINE
8
BLACK
6
CONTINUOUS
10
4.3019798818897641
20
-3.0300035433070867
11
4.2996340551181103
21
-3.0372233070866139
0
LINE
8
BLACK
6
CONTINUOUS
10
4.2996340551181103
20
-3.0372233070866139
11
4.2984464960629918
21
-3.0447211417322833
0
LINE
8
BLACK
6
CONTINUOUS
10
4.2984464960629918
20
-3.0447211417322833
11
4.2984464960629918
21
-3.0523124803149604
0
LINE
8
BLACK
6
CONTINUOUS
10
7.2171932283464564
20
-3.0032059055118108
11
7.217725905511811
21
-3.0037385826771654
0
LINE
8
BLACK
6
CONTINUOUS
10
7.217725905511811
20
-3.0037385826771654
11
7.2178008267716534
21
-3.0041152362204722
0
LINE
8
BLACK
6
CONTINUOUS
10
7.2178008267716534
20
-3.0041152362204722
11
7.2178008267716534
21
-3.0789183858267717
0
LINE
8
BLACK
6
CONTINUOUS
10
7.2178008267716534
20
-3.0789183858267717
11
7.217725905511811
21
-3.0792950393700789
0
LINE
8
BLACK
6
CONTINUOUS
10
7.217725905511811
20
-3.0792950393700789
11
7.2171932283464564
21
-3.0798277165354331
0
LINE
8
BLACK
6
CONTINUOUS
10
7.2171932283464564
20
-3.0798277165354331
11
7.2168165748031496
21
-3.0799026377952754
0
LINE
8
BLACK
6
CONTINUOUS
10
7.2168165748031496
20
-3.0799026377952754
11
7.0845331102362206
21
-3.0799026377952754
0
LINE
8
BLACK
6
CONTINUOUS
10
7.0845331102362206
20
-3.0799026377952754
11
7.0841564566929129
21
-3.0798277165354331
0
LINE
8
BLACK
6
CONTINUOUS
10
7.0841564566929129
20
-3.0798277165354331
11
7.0836237795275592
21
-3.0792950393700789
0
LINE
8
BLACK
6
CONTINUOUS
10
7.0836237795275592
20
-3.0792950393700789
11
7.083548858267716
21
-3.0789183858267717
0
LINE
8
BLACK
6
CONTINUOUS
10
7.083548858267716
20
-3.0789183858267717
11
7.083548858267716
21
-3.0041152362204722
0
LINE
8
BLACK
6
CONTINUOUS
10
7.083548858267716
20
-3.0041152362204722
11
7.0836237795275592
21
-3.0037385826771654
0
LINE
8
BLACK
6
CONTINUOUS
10
7.0836237795275592
20
-3.0037385826771654
11
7.0841564566929129
21
-3.0032059055118108
0
LINE
8
BLACK
6
CONTINUOUS
10
7.0841564566929129
20
-3.0032059055118108
11
7.0845331102362206
21
-3.0031309842519684
0
LINE
8
BLACK
6
CONTINUOUS
10
7.0845331102362206
20
-3.0031309842519684
11
7.2168165748031496
21
-3.0031309842519684
0
LINE
8
BLACK
6
CONTINUOUS
10
7.2168165748031496
20
-3.0031309842519684
11
7.2171932283464564
21
-3.0032059055118108
0
LINE
8
BLACK
6
CONTINUOUS
10
7.0855173622047243
20
-3.0050994881889763
11
7.0855173622047243
21
-3.0779341338582675
0
LINE
8
BLACK
6
CONTINUOUS
10
7.0855173622047243
20
-3.0779341338582675
11
7.2158323228346459
21
-3.0779341338582675
0
LINE
8
BLACK
6
CONTINUOUS
10
7.2158323228346459
20
-3.0779341338582675
11
7.2158323228346459
21
-3.0050994881889763
0
LINE
8
BLACK
6
CONTINUOUS
10
7.2158323228346459
20
-3.0050994881889763
11
7.0855173622047243
21
-3.0050994881889763
0
CIRCLE
8
BLACK
10
6.8886748425196851
20
-3.0975168110236222
40
0.0068897637795276
0
CIRCLE
8
BLACK
10
4.0886748425196853
20
-3.0975168110236222
40
0.0068897637795276
0
CIRCLE
8
BLACK
10
4.0886748425196853
20
-4.6975168110236218
40
0.0068897637795276
0
CIRCLE
8
BLACK
10
6.8886748425196851
20
-4.6975168110236218
40
0.0068897637795276
0
LINE
8
BLACK
6
CONTINUOUS
10
5.4903124803149606
20
-5.7902559055118106
11
5.488842834645669
21
-5.7938039370078736
0
LINE
8
BLACK
6
CONTINUOUS
10
5.488842834645669
20
-5.7938039370078736
11
5.4861273228346459
21
-5.7965194488188976
0
LINE
8
BLACK
6
CONTINUOUS
10
5.4861273228346459
20
-5.7965194488188976
11
5.4825792913385829
21
-5.7979890944881891
0
LINE
8
BLACK
6
CONTINUOUS
10
5.4825792913385829
20
-5.7979890944881891
11
5.4787388976377951
21
-5.7979890944881891
0
LINE
8
BLACK
6
CONTINUOUS
10
5.4787388976377951
20
-5.7979890944881891
11
5.4751908661417321
21
-5.7965194488188976
0
LINE
8
BLACK
6
CONTINUOUS
10
5.4751908661417321
20
-5.7965194488188976
11
5.472475354330709
21
-5.7938039370078736
0
LINE
8
BLACK
6
CONTINUOUS
10
5.472475354330709
20
-5.7938039370078736
11
5.4710057086614174
21
-5.7902559055118106
0
LINE
8
BLACK
6
CONTINUOUS
10
5.4710057086614174
20
-5.7902559055118106
11
5.4708165748031492
21
-5.7883357086614176
0
LINE
8
BLACK
6
CONTINUOUS
10
5.4708165748031492
20
-5.7883357086614176
11
5.4708165748031492
21
-5.7725876771653546
0
LINE
8
BLACK
6
CONTINUOUS
10
5.4708165748031492
20
-5.7725876771653546
11
5.4710057086614174
21
-5.7706674803149607
0
LINE
8
BLACK
6
CONTINUOUS
10
5.4710057086614174
20
-5.7706674803149607
11
5.472475354330709
21
-5.7671194488188977
0
LINE
8
BLACK
6
CONTINUOUS
10
5.472475354330709
20
-5.7671194488188977
11
5.4751908661417321
21
-5.7644039370078737
0
LINE
8
BLACK
6
CONTINUOUS
10
5.4751908661417321
20
-5.7644039370078737
11
5.4787388976377951
21
-5.7629342913385821
0
LINE
8
BLACK
6
CONTINUOUS
10
5.4787388976377951
20
-5.7629342913385821
11
5.4825792913385829
21
-5.7629342913385821
0
LINE
8
BLACK
6
CONTINUOUS
10
5.4825792913385829
20
-5.7629342913385821
11
5.4861273228346459
21
-5.7644039370078737
0
LINE
8
BLACK
6
CONTINUOUS
10
5.4861273228346459
20
-5.7644039370078737
11
5.488842834645669
21
-5.7671194488188977
0
LINE
8
BLACK
6
CONTINUOUS
10
5.488842834645669
20
-5.7671194488188977
11
5.4903124803149606
21
-5.7706674803149607
0
LINE
8
BLACK
6
CONTINUOUS
10
5.4903124803149606
20
-5.7706674803149607
11
5.4905016141732279
21
-5.7725876771653546
0
LINE
8
BLACK
6
CONTINUOUS
10
5.4905016141732279
20
-5.7725876771653546
11
5.4905016141732279
21
-5.7883357086614176
0
LINE
8
BLACK
6
CONTINUOUS
10
5.4905016141732279
20
-5.7883357086614176
11
5.4903124803149606
21
-5.7902559055118106
0
LINE
8
BLACK
6
CONTINUOUS
10
5.65763531496063
20
-5.7902559055118106
11
5.6561656692913385
21
-5.7938039370078736
0
LINE
8
BLACK
6
CONTINUOUS
10
5.6561656692913385
20
-5.7938039370078736
11
5.6534501574803144
21
-5.7965194488188976
0
LINE
8
BLACK
6
CONTINUOUS
10
5.6534501574803144
20
-5.7965194488188976
11
5.6499021259842515
21
-5.7979890944881891
0
LINE
8
BLACK
6
CONTINUOUS
10
5.6499021259842515
20
-5.7979890944881891
11
5.6460617322834645
21
-5.7979890944881891
0
LINE
8
BLACK
6
CONTINUOUS
10
5.6460617322834645
20
-5.7979890944881891
11
5.6425137007874016
21
-5.7965194488188976
0
LINE
8
BLACK
6
CONTINUOUS
10
5.6425137007874016
20
-5.7965194488188976
11
5.6397981889763775
21
-5.7938039370078736
0
LINE
8
BLACK
6
CONTINUOUS
10
5.6397981889763775
20
-5.7938039370078736
11
5.6383285433070869
21
-5.7902559055118106
0
LINE
8
BLACK
6
CONTINUOUS
10
5.6383285433070869
20
-5.7902559055118106
11
5.6381394094488186
21
-5.7883357086614176
0
LINE
8
BLACK
6
CONTINUOUS
10
5.6381394094488186
20
-5.7883357086614176
11
5.6381394094488186
21
-5.7725876771653546
0
LINE
8
BLACK
6
CONTINUOUS
10
5.6381394094488186
20
-5.7725876771653546
11
5.6383285433070869
21
-5.7706674803149607
0
LINE
8
BLACK
6
CONTINUOUS
10
5.6383285433070869
20
-5.7706674803149607
11
5.6397981889763775
21
-5.7671194488188977
0
LINE
8
BLACK
6
CONTINUOUS
10
5.6397981889763775
20
-5.7671194488188977
11
5.6425137007874016
21
-5.7644039370078737
0
LINE
8
BLACK
6
CONTINUOUS
10
5.6425137007874016
20
-5.7644039370078737
11
5.6460617322834645
21
-5.7629342913385821
0
LINE
8
BLACK
6
CONTINUOUS
10
5.6460617322834645
20
-5.7629342913385821
11
5.6499021259842515
21
-5.7629342913385821
0
LINE
8
BLACK
6
CONTINUOUS
10
5.6499021259842515
20
-5.7629342913385821
11
5.6534501574803144
21
-5.7644039370078737
0
LINE
8
BLACK
6
CONTINUOUS
10
5.6534501574803144
20
-5.7644039370078737
11
5.6561656692913385
21
-5.7671194488188977
0
LINE
8
BLACK
6
CONTINUOUS
10
5.6561656692913385
20
-5.7671194488188977
11
5.65763531496063
21
-5.7706674803149607
0
LINE
8
BLACK
6
CONTINUOUS
10
5.65763531496063
20
-5.7706674803149607
11
5.6578244488188973
21
-5.7725876771653546
0
LINE
8
BLACK
6
CONTINUOUS
10
5.6578244488188973
20
-5.7725876771653546
11
5.6578244488188973
21
-5.7883357086614176
0
LINE
8
BLACK
6
CONTINUOUS
10
5.6578244488188973
20
-5.7883357086614176
11
5.65763531496063
21
-5.7902559055118106
0
CIRCLE
8
BLACK
10
3.5394622440944881
20
-3.2996979133858266
40
0.0068897637795276
0
CIRCLE
8
BLACK
10
3.439462244094488
20
-3.2996979133858266
40
0.0068897637795276
0
CIRCLE
8
BLACK
10
3.5394622440944881
20
-3.3996979133858267
40
0.0068897637795276
0
CIRCLE
8
BLACK
10
3.439462244094488
20
-3.3996979133858267
40
0.0068897637795276
0
CIRCLE
8
BLACK
10
3.5394622440944881
20
-3.4996979133858268
40
0.0068897637795276
0
CIRCLE
8
BLACK
10
3.439462244094488
20
-3.4996979133858268
40
0.0068897637795276
0
CIRCLE
8
BLACK
10
3.5394622440944881
20
-3.5996979133858269
40
0.0068897637795276
0
CIRCLE
8
BLACK
10
3.439462244094488
20
-3.5996979133858269
40
0.0068897637795276
0
CIRCLE
8
BLACK
10
3.5394622440944881
20
-3.6996979133858265
40
0.0068897637795276
0
CIRCLE
8
BLACK
10
3.439462244094488
20
-3.6996979133858265
40
0.0068897637795276
0
CIRCLE
8
BLACK
10
3.5394622440944881
20
-3.7996979133858266
40
0.0068897637795276
0
CIRCLE
8
BLACK
10
3.439462244094488
20
-3.7996979133858266
40
0.0068897637795276
0
CIRCLE
8
BLACK
10
3.5394622440944881
20
-3.8996979133858267
40
0.0068897637795276
0
CIRCLE
8
BLACK
10
3.439462244094488
20
-3.8996979133858267
40
0.0068897637795276
0
CIRCLE
8
BLACK
10
3.5394622440944881
20
-3.9996979133858268
40
0.0068897637795276
0
CIRCLE
8
BLACK
10
3.439462244094488
20
-3.9996979133858268
40
0.0068897637795276
0
CIRCLE
8
BLACK
10
3.5394622440944881
20
-4.0996979133858265
40
0.0068897637795276
0
CIRCLE
8
BLACK
10
3.439462244094488
20
-4.0996979133858265
40
0.0068897637795276
0
CIRCLE
8
BLACK
10
3.5394622440944881
20
-4.199697913385827
40
0.0068897637795276
0
CIRCLE
8
BLACK
10
3.439462244094488
20
-4.199697913385827
40
0.0068897637795276
0
CIRCLE
8
BLACK
10
3.5394622440944881
20
-4.2996979133858266
40
0.0068897637795276
0
CIRCLE
8
BLACK
10
3.439462244094488
20
-4.2996979133858266
40
0.0068897637795276
0
CIRCLE
8
BLACK
10
3.5394622440944881
20
-4.3996979133858263
40
0.0068897637795276
0
CIRCLE
8
BLACK
10
3.439462244094488
20
-4.3996979133858263
40
0.0068897637795276
0
CIRCLE
8
BLACK
10
3.5394622440944881
20
-4.4996979133858268
40
0.0068897637795276
0
CIRCLE
8
BLACK
10
3.439462244094488
20
-4.4996979133858268
40
0.0068897637795276
0
CIRCLE
8
BLACK
10
3.5394622440944881
20
-4.5996979133858265
40
0.0068897637795276
0
CIRCLE
8
BLACK
10
3.439462244094488
20
-4.5996979133858265
40
0.0068897637795276
0
CIRCLE
8
BLACK
10
3.5394622440944881
20
-4.699697913385827
40
0.0068897637795276
0
CIRCLE
8
BLACK
10
3.439462244094488
20
-4.699697913385827
40
0.0068897637795276
  0
ENDSEC
  0
EOF
