  0
SECTION
  2
HEADER
  9
$ANGBASE
  50
0.0
  9
$ANGDIR
  70
1
  9
$MEASUREMENT
  70
0
  0
ENDSEC
  0
SECTION
  2
TABLES
  0
TABLE
  2
LTYPE
  70
4
  0
LTYPE
  5
40F
  2
CONTINUOUS
  70
0
  3
Solid line
  72
65
  73
0
  40
0.0
  0
LTYPE
  5
410
  2
DASHDOT
 70
0
  3
Dash Dot ____ _ ____ _
 72
65
 73
4
 40
2.0
 49
1.25
 49
-0.25
 49
0.25
 49
-0.25
  0
LTYPE
  5
411
  2
DASHED
 70
0
  3
Dashed __ __ __ __ __
 72
65
 73
2
 40
0.75
 49
0.5
 49
-0.25
  0
LTYPE
  5
43B
  2
DOTTED
 70
0
  3
Dotted .  .  .  .
 72
65
 73
2
 40
0.2
 49
0.0
 49
-0.2
  0
ENDTAB
  0
TABLE
  2
STYLE
  70
4
  0
STYLE
  2
KICAD
  70
0
  40
0
  41
1
  42
1
  50
0
  71
0
  3
isocp.shx
  0
STYLE
  2
KICADB
  70
0
  40
0
  41
1
  42
1
  50
0
  71
0
  3
isocp.shx
  0
STYLE
  2
KICADI
  70
0
  40
0
  41
1
  42
1
  50
15
  71
0
  3
isocp.shx
  0
STYLE
  2
KICADBI
  70
0
  40
0
  41
1
  42
1
  50
15
  71
0
  3
isocp.shx
  0
ENDTAB
  0
TABLE
  2
LAYER
  70
1
  0
LAYER
  2
BLACK
  70
0
  62
7
  6
CONTINUOUS
  0
ENDTAB
  0
ENDSEC
  0
SECTION
  2
ENTITIES
0
LINE
8
BLACK
6
CONTINUOUS
10
0.1304285433070866
20
-0.2863251968503937
11
0.137558937007874
21
-0.2892787007874016
0
LINE
8
BLACK
6
CONTINUOUS
10
0.137558937007874
20
-0.2892787007874016
11
0.1439761023622047
21
-0.2935665354330709
0
LINE
8
BLACK
6
CONTINUOUS
10
0.1439761023622047
20
-0.2935665354330709
11
0.1494334645669291
21
-0.2990238976377952
0
LINE
8
BLACK
6
CONTINUOUS
10
0.1494334645669291
20
-0.2990238976377952
11
0.1537212992125984
21
-0.305441062992126
0
LINE
8
BLACK
6
CONTINUOUS
10
0.1537212992125984
20
-0.305441062992126
11
0.1566748031496063
21
-0.3125714566929134
0
LINE
8
BLACK
6
CONTINUOUS
10
0.1566748031496063
20
-0.3125714566929134
11
0.1581805118110236
21
-0.320141062992126
0
LINE
8
BLACK
6
CONTINUOUS
10
0.1581805118110236
20
-0.320141062992126
11
0.1581805118110236
21
-0.327858937007874
0
LINE
8
BLACK
6
CONTINUOUS
10
0.1581805118110236
20
-0.327858937007874
11
0.1566748031496063
21
-0.3354285433070866
0
LINE
8
BLACK
6
CONTINUOUS
10
0.1566748031496063
20
-0.3354285433070866
11
0.1537212992125984
21
-0.342558937007874
0
LINE
8
BLACK
6
CONTINUOUS
10
0.1537212992125984
20
-0.342558937007874
11
0.1494334645669291
21
-0.3489761023622047
0
LINE
8
BLACK
6
CONTINUOUS
10
0.1494334645669291
20
-0.3489761023622047
11
0.1439761023622047
21
-0.3544334645669291
0
LINE
8
BLACK
6
CONTINUOUS
10
0.1439761023622047
20
-0.3544334645669291
11
0.137558937007874
21
-0.3587212992125984
0
LINE
8
BLACK
6
CONTINUOUS
10
0.137558937007874
20
-0.3587212992125984
11
0.1304285433070866
21
-0.3616748031496063
0
LINE
8
BLACK
6
CONTINUOUS
10
0.1304285433070866
20
-0.3616748031496063
11
0.122858937007874
21
-0.3631805118110236
0
LINE
8
BLACK
6
CONTINUOUS
10
0.122858937007874
20
-0.3631805118110236
11
0.115141062992126
21
-0.3631805118110236
0
LINE
8
BLACK
6
CONTINUOUS
10
0.115141062992126
20
-0.3631805118110236
11
0.1075714566929134
21
-0.3616748031496063
0
LINE
8
BLACK
6
CONTINUOUS
10
0.1075714566929134
20
-0.3616748031496063
11
0.100441062992126
21
-0.3587212992125984
0
LINE
8
BLACK
6
CONTINUOUS
10
0.100441062992126
20
-0.3587212992125984
11
0.0940238976377953
21
-0.3544334645669291
0
LINE
8
BLACK
6
CONTINUOUS
10
0.0940238976377953
20
-0.3544334645669291
11
0.0885665354330709
21
-0.3489761023622047
0
LINE
8
BLACK
6
CONTINUOUS
10
0.0885665354330709
20
-0.3489761023622047
11
0.0842787007874016
21
-0.342558937007874
0
LINE
8
BLACK
6
CONTINUOUS
10
0.0842787007874016
20
-0.342558937007874
11
0.0813251968503937
21
-0.3354285433070866
0
LINE
8
BLACK
6
CONTINUOUS
10
0.0813251968503937
20
-0.3354285433070866
11
0.0798194881889764
21
-0.327858937007874
0
LINE
8
BLACK
6
CONTINUOUS
10
0.0798194881889764
20
-0.327858937007874
11
0.0798194881889764
21
-0.320141062992126
0
LINE
8
BLACK
6
CONTINUOUS
10
0.0798194881889764
20
-0.320141062992126
11
0.0813251968503937
21
-0.3125714566929134
0
LINE
8
BLACK
6
CONTINUOUS
10
0.0813251968503937
20
-0.3125714566929134
11
0.0842787007874016
21
-0.305441062992126
0
LINE
8
BLACK
6
CONTINUOUS
10
0.0842787007874016
20
-0.305441062992126
11
0.0885665354330709
21
-0.2990238976377952
0
LINE
8
BLACK
6
CONTINUOUS
10
0.0885665354330709
20
-0.2990238976377952
11
0.0940238976377953
21
-0.2935665354330709
0
LINE
8
BLACK
6
CONTINUOUS
10
0.0940238976377953
20
-0.2935665354330709
11
0.100441062992126
21
-0.2892787007874016
0
LINE
8
BLACK
6
CONTINUOUS
10
0.100441062992126
20
-0.2892787007874016
11
0.1075714566929134
21
-0.2863251968503937
0
LINE
8
BLACK
6
CONTINUOUS
10
0.1075714566929134
20
-0.2863251968503937
11
0.115141062992126
21
-0.2848194881889763
0
LINE
8
BLACK
6
CONTINUOUS
10
0.115141062992126
20
-0.2848194881889763
11
0.122858937007874
21
-0.2848194881889763
0
LINE
8
BLACK
6
CONTINUOUS
10
0.122858937007874
20
-0.2848194881889763
11
0.1304285433070866
21
-0.2863251968503937
0
LINE
8
BLACK
6
CONTINUOUS
10
0.4203117716535433
20
0.5195465748031496
11
0.4335690157480315
21
0.5165206692913386
0
LINE
8
BLACK
6
CONTINUOUS
10
0.4335690157480315
20
0.5165206692913386
11
0.4464041338582677
21
0.5120294881889763
0
LINE
8
BLACK
6
CONTINUOUS
10
0.4464041338582677
20
0.5120294881889763
11
0.4586556692913386
21
0.5061294488188977
0
LINE
8
BLACK
6
CONTINUOUS
10
0.4586556692913386
20
0.5061294488188977
11
0.4701696062992126
21
0.4988947637795276
0
LINE
8
BLACK
6
CONTINUOUS
10
0.4701696062992126
20
0.4988947637795276
11
0.480801062992126
21
0.4904164566929134
0
LINE
8
BLACK
6
CONTINUOUS
10
0.480801062992126
20
0.4904164566929134
11
0.4904164566929134
21
0.480801062992126
0
LINE
8
BLACK
6
CONTINUOUS
10
0.4904164566929134
20
0.480801062992126
11
0.4988947637795276
21
0.4701696062992126
0
LINE
8
BLACK
6
CONTINUOUS
10
0.4988947637795276
20
0.4701696062992126
11
0.5061294488188977
21
0.4586556692913386
0
LINE
8
BLACK
6
CONTINUOUS
10
0.5061294488188977
20
0.4586556692913386
11
0.5120294881889763
21
0.4464041338582677
0
LINE
8
BLACK
6
CONTINUOUS
10
0.5120294881889763
20
0.4464041338582677
11
0.5165206692913386
21
0.4335690157480315
0
LINE
8
BLACK
6
CONTINUOUS
10
0.5165206692913386
20
0.4335690157480315
11
0.5195465748031496
21
0.4203117716535433
0
LINE
8
BLACK
6
CONTINUOUS
10
0.5195465748031496
20
0.4203117716535433
11
0.5210690944881889
21
0.406799094488189
0
LINE
8
BLACK
6
CONTINUOUS
10
0.5210690944881889
20
0.406799094488189
11
0.5210690944881889
21
0.393200905511811
0
LINE
8
BLACK
6
CONTINUOUS
10
0.5210690944881889
20
0.393200905511811
11
0.5195465748031496
21
0.3796882283464567
0
LINE
8
BLACK
6
CONTINUOUS
10
0.5195465748031496
20
0.3796882283464567
11
0.5165206692913386
21
0.3664309842519685
0
LINE
8
BLACK
6
CONTINUOUS
10
0.5165206692913386
20
0.3664309842519685
11
0.5120294881889763
21
0.3535958661417323
0
LINE
8
BLACK
6
CONTINUOUS
10
0.5120294881889763
20
0.3535958661417323
11
0.5061294488188977
21
0.3413443307086614
0
LINE
8
BLACK
6
CONTINUOUS
10
0.5061294488188977
20
0.3413443307086614
11
0.4988947637795276
21
0.3298303937007874
0
LINE
8
BLACK
6
CONTINUOUS
10
0.4988947637795276
20
0.3298303937007874
11
0.4904164566929134
21
0.319198937007874
0
LINE
8
BLACK
6
CONTINUOUS
10
0.4904164566929134
20
0.319198937007874
11
0.480801062992126
21
0.3095835433070866
0
LINE
8
BLACK
6
CONTINUOUS
10
0.480801062992126
20
0.3095835433070866
11
0.4701696062992126
21
0.3011052362204724
0
LINE
8
BLACK
6
CONTINUOUS
10
0.4701696062992126
20
0.3011052362204724
11
0.4586556692913386
21
0.2938705511811023
0
LINE
8
BLACK
6
CONTINUOUS
10
0.4586556692913386
20
0.2938705511811023
11
0.4464041338582677
21
0.2879705118110236
0
LINE
8
BLACK
6
CONTINUOUS
10
0.4464041338582677
20
0.2879705118110236
11
0.4335690157480315
21
0.2834793307086614
0
LINE
8
BLACK
6
CONTINUOUS
10
0.4335690157480315
20
0.2834793307086614
11
0.4203117716535433
21
0.2804534251968504
0
LINE
8
BLACK
6
CONTINUOUS
10
0.4203117716535433
20
0.2804534251968504
11
0.406799094488189
21
0.278930905511811
0
LINE
8
BLACK
6
CONTINUOUS
10
0.406799094488189
20
0.278930905511811
11
0.393200905511811
21
0.278930905511811
0
LINE
8
BLACK
6
CONTINUOUS
10
0.393200905511811
20
0.278930905511811
11
0.3796882283464567
21
0.2804534251968504
0
LINE
8
BLACK
6
CONTINUOUS
10
0.3796882283464567
20
0.2804534251968504
11
0.3664309842519685
21
0.2834793307086614
0
LINE
8
BLACK
6
CONTINUOUS
10
0.3664309842519685
20
0.2834793307086614
11
0.3535958661417323
21
0.2879705118110236
0
LINE
8
BLACK
6
CONTINUOUS
10
0.3535958661417323
20
0.2879705118110236
11
0.3413443307086614
21
0.2938705511811023
0
LINE
8
BLACK
6
CONTINUOUS
10
0.3413443307086614
20
0.2938705511811023
11
0.3298303937007874
21
0.3011052362204724
0
LINE
8
BLACK
6
CONTINUOUS
10
0.3298303937007874
20
0.3011052362204724
11
0.319198937007874
21
0.3095835433070866
0
LINE
8
BLACK
6
CONTINUOUS
10
0.319198937007874
20
0.3095835433070866
11
0.3095835433070866
21
0.319198937007874
0
LINE
8
BLACK
6
CONTINUOUS
10
0.3095835433070866
20
0.319198937007874
11
0.3011052362204724
21
0.3298303937007874
0
LINE
8
BLACK
6
CONTINUOUS
10
0.3011052362204724
20
0.3298303937007874
11
0.2938705511811023
21
0.3413443307086614
0
LINE
8
BLACK
6
CONTINUOUS
10
0.2938705511811023
20
0.3413443307086614
11
0.2879705118110236
21
0.3535958661417323
0
LINE
8
BLACK
6
CONTINUOUS
10
0.2879705118110236
20
0.3535958661417323
11
0.2834793307086614
21
0.3664309842519685
0
LINE
8
BLACK
6
CONTINUOUS
10
0.2834793307086614
20
0.3664309842519685
11
0.2804534251968504
21
0.3796882283464567
0
LINE
8
BLACK
6
CONTINUOUS
10
0.2804534251968504
20
0.3796882283464567
11
0.278930905511811
21
0.393200905511811
0
LINE
8
BLACK
6
CONTINUOUS
10
0.278930905511811
20
0.393200905511811
11
0.278930905511811
21
0.406799094488189
0
LINE
8
BLACK
6
CONTINUOUS
10
0.278930905511811
20
0.406799094488189
11
0.2804534251968504
21
0.4203117716535433
0
LINE
8
BLACK
6
CONTINUOUS
10
0.2804534251968504
20
0.4203117716535433
11
0.2834793307086614
21
0.4335690157480315
0
LINE
8
BLACK
6
CONTINUOUS
10
0.2834793307086614
20
0.4335690157480315
11
0.2879705118110236
21
0.4464041338582677
0
LINE
8
BLACK
6
CONTINUOUS
10
0.2879705118110236
20
0.4464041338582677
11
0.2938705511811023
21
0.4586556692913386
0
LINE
8
BLACK
6
CONTINUOUS
10
0.2938705511811023
20
0.4586556692913386
11
0.3011052362204724
21
0.4701696062992126
0
LINE
8
BLACK
6
CONTINUOUS
10
0.3011052362204724
20
0.4701696062992126
11
0.3095835433070866
21
0.480801062992126
0
LINE
8
BLACK
6
CONTINUOUS
10
0.3095835433070866
20
0.480801062992126
11
0.319198937007874
21
0.4904164566929134
0
LINE
8
BLACK
6
CONTINUOUS
10
0.319198937007874
20
0.4904164566929134
11
0.3298303937007874
21
0.4988947637795276
0
LINE
8
BLACK
6
CONTINUOUS
10
0.3298303937007874
20
0.4988947637795276
11
0.3413443307086614
21
0.5061294488188977
0
LINE
8
BLACK
6
CONTINUOUS
10
0.3413443307086614
20
0.5061294488188977
11
0.3535958661417323
21
0.5120294881889763
0
LINE
8
BLACK
6
CONTINUOUS
10
0.3535958661417323
20
0.5120294881889763
11
0.3664309842519685
21
0.5165206692913386
0
LINE
8
BLACK
6
CONTINUOUS
10
0.3664309842519685
20
0.5165206692913386
11
0.3796882283464567
21
0.5195465748031496
0
LINE
8
BLACK
6
CONTINUOUS
10
0.3796882283464567
20
0.5195465748031496
11
0.393200905511811
21
0.5210690944881889
0
LINE
8
BLACK
6
CONTINUOUS
10
0.393200905511811
20
0.5210690944881889
11
0.406799094488189
21
0.5210690944881889
0
LINE
8
BLACK
6
CONTINUOUS
10
0.406799094488189
20
0.5210690944881889
11
0.4203117716535433
21
0.5195465748031496
0
LINE
8
BLACK
6
CONTINUOUS
10
2.8203117716535431
20
0.5195465748031496
11
2.8335690157480315
21
0.5165206692913386
0
LINE
8
BLACK
6
CONTINUOUS
10
2.8335690157480315
20
0.5165206692913386
11
2.8464041338582677
21
0.5120294881889763
0
LINE
8
BLACK
6
CONTINUOUS
10
2.8464041338582677
20
0.5120294881889763
11
2.8586556692913385
21
0.5061294488188977
0
LINE
8
BLACK
6
CONTINUOUS
10
2.8586556692913385
20
0.5061294488188977
11
2.8701696062992124
21
0.4988947637795276
0
LINE
8
BLACK
6
CONTINUOUS
10
2.8701696062992124
20
0.4988947637795276
11
2.8808010629921261
21
0.4904164566929134
0
LINE
8
BLACK
6
CONTINUOUS
10
2.8808010629921261
20
0.4904164566929134
11
2.8904164566929134
21
0.480801062992126
0
LINE
8
BLACK
6
CONTINUOUS
10
2.8904164566929134
20
0.480801062992126
11
2.8988947637795275
21
0.4701696062992126
0
LINE
8
BLACK
6
CONTINUOUS
10
2.8988947637795275
20
0.4701696062992126
11
2.9061294488188976
21
0.4586556692913386
0
LINE
8
BLACK
6
CONTINUOUS
10
2.9061294488188976
20
0.4586556692913386
11
2.9120294881889763
21
0.4464041338582677
0
LINE
8
BLACK
6
CONTINUOUS
10
2.9120294881889763
20
0.4464041338582677
11
2.9165206692913386
21
0.4335690157480315
0
LINE
8
BLACK
6
CONTINUOUS
10
2.9165206692913386
20
0.4335690157480315
11
2.9195465748031495
21
0.4203117716535433
0
LINE
8
BLACK
6
CONTINUOUS
10
2.9195465748031495
20
0.4203117716535433
11
2.921069094488189
21
0.406799094488189
0
LINE
8
BLACK
6
CONTINUOUS
10
2.921069094488189
20
0.406799094488189
11
2.921069094488189
21
0.393200905511811
0
LINE
8
BLACK
6
CONTINUOUS
10
2.921069094488189
20
0.393200905511811
11
2.9195465748031495
21
0.3796882283464567
0
LINE
8
BLACK
6
CONTINUOUS
10
2.9195465748031495
20
0.3796882283464567
11
2.9165206692913386
21
0.3664309842519685
0
LINE
8
BLACK
6
CONTINUOUS
10
2.9165206692913386
20
0.3664309842519685
11
2.9120294881889763
21
0.3535958661417323
0
LINE
8
BLACK
6
CONTINUOUS
10
2.9120294881889763
20
0.3535958661417323
11
2.9061294488188976
21
0.3413443307086614
0
LINE
8
BLACK
6
CONTINUOUS
10
2.9061294488188976
20
0.3413443307086614
11
2.8988947637795275
21
0.3298303937007874
0
LINE
8
BLACK
6
CONTINUOUS
10
2.8988947637795275
20
0.3298303937007874
11
2.8904164566929134
21
0.319198937007874
0
LINE
8
BLACK
6
CONTINUOUS
10
2.8904164566929134
20
0.319198937007874
11
2.8808010629921261
21
0.3095835433070866
0
LINE
8
BLACK
6
CONTINUOUS
10
2.8808010629921261
20
0.3095835433070866
11
2.8701696062992124
21
0.3011052362204724
0
LINE
8
BLACK
6
CONTINUOUS
10
2.8701696062992124
20
0.3011052362204724
11
2.8586556692913385
21
0.2938705511811023
0
LINE
8
BLACK
6
CONTINUOUS
10
2.8586556692913385
20
0.2938705511811023
11
2.8464041338582677
21
0.2879705118110236
0
LINE
8
BLACK
6
CONTINUOUS
10
2.8464041338582677
20
0.2879705118110236
11
2.8335690157480315
21
0.2834793307086614
0
LINE
8
BLACK
6
CONTINUOUS
10
2.8335690157480315
20
0.2834793307086614
11
2.8203117716535431
21
0.2804534251968504
0
LINE
8
BLACK
6
CONTINUOUS
10
2.8203117716535431
20
0.2804534251968504
11
2.8067990944881891
21
0.278930905511811
0
LINE
8
BLACK
6
CONTINUOUS
10
2.8067990944881891
20
0.278930905511811
11
2.793200905511811
21
0.278930905511811
0
LINE
8
BLACK
6
CONTINUOUS
10
2.793200905511811
20
0.278930905511811
11
2.7796882283464566
21
0.2804534251968504
0
LINE
8
BLACK
6
CONTINUOUS
10
2.7796882283464566
20
0.2804534251968504
11
2.7664309842519685
21
0.2834793307086614
0
LINE
8
BLACK
6
CONTINUOUS
10
2.7664309842519685
20
0.2834793307086614
11
2.7535958661417324
21
0.2879705118110236
0
LINE
8
BLACK
6
CONTINUOUS
10
2.7535958661417324
20
0.2879705118110236
11
2.7413443307086616
21
0.2938705511811023
0
LINE
8
BLACK
6
CONTINUOUS
10
2.7413443307086616
20
0.2938705511811023
11
2.7298303937007873
21
0.3011052362204724
0
LINE
8
BLACK
6
CONTINUOUS
10
2.7298303937007873
20
0.3011052362204724
11
2.719198937007874
21
0.3095835433070866
0
LINE
8
BLACK
6
CONTINUOUS
10
2.719198937007874
20
0.3095835433070866
11
2.7095835433070867
21
0.319198937007874
0
LINE
8
BLACK
6
CONTINUOUS
10
2.7095835433070867
20
0.319198937007874
11
2.7011052362204722
21
0.3298303937007874
0
LINE
8
BLACK
6
CONTINUOUS
10
2.7011052362204722
20
0.3298303937007874
11
2.6938705511811021
21
0.3413443307086614
0
LINE
8
BLACK
6
CONTINUOUS
10
2.6938705511811021
20
0.3413443307086614
11
2.6879705118110238
21
0.3535958661417323
0
LINE
8
BLACK
6
CONTINUOUS
10
2.6879705118110238
20
0.3535958661417323
11
2.6834793307086615
21
0.3664309842519685
0
LINE
8
BLACK
6
CONTINUOUS
10
2.6834793307086615
20
0.3664309842519685
11
2.6804534251968501
21
0.3796882283464567
0
LINE
8
BLACK
6
CONTINUOUS
10
2.6804534251968501
20
0.3796882283464567
11
2.6789309055118111
21
0.393200905511811
0
LINE
8
BLACK
6
CONTINUOUS
10
2.6789309055118111
20
0.393200905511811
11
2.6789309055118111
21
0.406799094488189
0
LINE
8
BLACK
6
CONTINUOUS
10
2.6789309055118111
20
0.406799094488189
11
2.6804534251968501
21
0.4203117716535433
0
LINE
8
BLACK
6
CONTINUOUS
10
2.6804534251968501
20
0.4203117716535433
11
2.6834793307086615
21
0.4335690157480315
0
LINE
8
BLACK
6
CONTINUOUS
10
2.6834793307086615
20
0.4335690157480315
11
2.6879705118110238
21
0.4464041338582677
0
LINE
8
BLACK
6
CONTINUOUS
10
2.6879705118110238
20
0.4464041338582677
11
2.6938705511811021
21
0.4586556692913386
0
LINE
8
BLACK
6
CONTINUOUS
10
2.6938705511811021
20
0.4586556692913386
11
2.7011052362204722
21
0.4701696062992126
0
LINE
8
BLACK
6
CONTINUOUS
10
2.7011052362204722
20
0.4701696062992126
11
2.7095835433070867
21
0.480801062992126
0
LINE
8
BLACK
6
CONTINUOUS
10
2.7095835433070867
20
0.480801062992126
11
2.719198937007874
21
0.4904164566929134
0
LINE
8
BLACK
6
CONTINUOUS
10
2.719198937007874
20
0.4904164566929134
11
2.7298303937007873
21
0.4988947637795276
0
LINE
8
BLACK
6
CONTINUOUS
10
2.7298303937007873
20
0.4988947637795276
11
2.7413443307086616
21
0.5061294488188977
0
LINE
8
BLACK
6
CONTINUOUS
10
2.7413443307086616
20
0.5061294488188977
11
2.7535958661417324
21
0.5120294881889763
0
LINE
8
BLACK
6
CONTINUOUS
10
2.7535958661417324
20
0.5120294881889763
11
2.7664309842519685
21
0.5165206692913386
0
LINE
8
BLACK
6
CONTINUOUS
10
2.7664309842519685
20
0.5165206692913386
11
2.7796882283464566
21
0.5195465748031496
0
LINE
8
BLACK
6
CONTINUOUS
10
2.7796882283464566
20
0.5195465748031496
11
2.793200905511811
21
0.5210690944881889
0
LINE
8
BLACK
6
CONTINUOUS
10
2.793200905511811
20
0.5210690944881889
11
2.8067990944881891
21
0.5210690944881889
0
LINE
8
BLACK
6
CONTINUOUS
10
2.8067990944881891
20
0.5210690944881889
11
2.8203117716535431
21
0.5195465748031496
0
LINE
8
BLACK
6
CONTINUOUS
10
1.0054285433070866
20
0.5736748031496063
11
1.012558937007874
21
0.5707212992125984
0
LINE
8
BLACK
6
CONTINUOUS
10
1.012558937007874
20
0.5707212992125984
11
1.0189761023622046
21
0.5664334645669291
0
LINE
8
BLACK
6
CONTINUOUS
10
1.0189761023622046
20
0.5664334645669291
11
1.0244334645669291
21
0.5609761023622047
0
LINE
8
BLACK
6
CONTINUOUS
10
1.0244334645669291
20
0.5609761023622047
11
1.0287212992125985
21
0.554558937007874
0
LINE
8
BLACK
6
CONTINUOUS
10
1.0287212992125985
20
0.554558937007874
11
1.0316748031496064
21
0.5474285433070866
0
LINE
8
BLACK
6
CONTINUOUS
10
1.0316748031496064
20
0.5474285433070866
11
1.0331805118110235
21
0.539858937007874
0
LINE
8
BLACK
6
CONTINUOUS
10
1.0331805118110235
20
0.539858937007874
11
1.0331805118110235
21
0.5321410629921259
0
LINE
8
BLACK
6
CONTINUOUS
10
1.0331805118110235
20
0.5321410629921259
11
1.0316748031496064
21
0.5245714566929134
0
LINE
8
BLACK
6
CONTINUOUS
10
1.0316748031496064
20
0.5245714566929134
11
1.0287212992125985
21
0.517441062992126
0
LINE
8
BLACK
6
CONTINUOUS
10
1.0287212992125985
20
0.517441062992126
11
1.0244334645669291
21
0.5110238976377952
0
LINE
8
BLACK
6
CONTINUOUS
10
1.0244334645669291
20
0.5110238976377952
11
1.0189761023622046
21
0.5055665354330708
0
LINE
8
BLACK
6
CONTINUOUS
10
1.0189761023622046
20
0.5055665354330708
11
1.012558937007874
21
0.5012787007874016
0
LINE
8
BLACK
6
CONTINUOUS
10
1.012558937007874
20
0.5012787007874016
11
1.0054285433070866
21
0.4983251968503937
0
LINE
8
BLACK
6
CONTINUOUS
10
1.0054285433070866
20
0.4983251968503937
11
0.997858937007874
21
0.4968194881889764
0
LINE
8
BLACK
6
CONTINUOUS
10
0.997858937007874
20
0.4968194881889764
11
0.990141062992126
21
0.4968194881889764
0
LINE
8
BLACK
6
CONTINUOUS
10
0.990141062992126
20
0.4968194881889764
11
0.9825714566929133
21
0.4983251968503937
0
LINE
8
BLACK
6
CONTINUOUS
10
0.9825714566929133
20
0.4983251968503937
11
0.975441062992126
21
0.5012787007874016
0
LINE
8
BLACK
6
CONTINUOUS
10
0.975441062992126
20
0.5012787007874016
11
0.9690238976377953
21
0.5055665354330708
0
LINE
8
BLACK
6
CONTINUOUS
10
0.9690238976377953
20
0.5055665354330708
11
0.9635665354330708
21
0.5110238976377952
0
LINE
8
BLACK
6
CONTINUOUS
10
0.9635665354330708
20
0.5110238976377952
11
0.9592787007874015
21
0.517441062992126
0
LINE
8
BLACK
6
CONTINUOUS
10
0.9592787007874015
20
0.517441062992126
11
0.9563251968503936
21
0.5245714566929134
0
LINE
8
BLACK
6
CONTINUOUS
10
0.9563251968503936
20
0.5245714566929134
11
0.9548194881889763
21
0.5321410629921259
0
LINE
8
BLACK
6
CONTINUOUS
10
0.9548194881889763
20
0.5321410629921259
11
0.9548194881889763
21
0.539858937007874
0
LINE
8
BLACK
6
CONTINUOUS
10
0.9548194881889763
20
0.539858937007874
11
0.9563251968503936
21
0.5474285433070866
0
LINE
8
BLACK
6
CONTINUOUS
10
0.9563251968503936
20
0.5474285433070866
11
0.9592787007874015
21
0.554558937007874
0
LINE
8
BLACK
6
CONTINUOUS
10
0.9592787007874015
20
0.554558937007874
11
0.9635665354330708
21
0.5609761023622047
0
LINE
8
BLACK
6
CONTINUOUS
10
0.9635665354330708
20
0.5609761023622047
11
0.9690238976377953
21
0.5664334645669291
0
LINE
8
BLACK
6
CONTINUOUS
10
0.9690238976377953
20
0.5664334645669291
11
0.975441062992126
21
0.5707212992125984
0
LINE
8
BLACK
6
CONTINUOUS
10
0.975441062992126
20
0.5707212992125984
11
0.9825714566929133
21
0.5736748031496063
0
LINE
8
BLACK
6
CONTINUOUS
10
0.9825714566929133
20
0.5736748031496063
11
0.990141062992126
21
0.5751805118110236
0
LINE
8
BLACK
6
CONTINUOUS
10
0.990141062992126
20
0.5751805118110236
11
0.997858937007874
21
0.5751805118110236
0
LINE
8
BLACK
6
CONTINUOUS
10
0.997858937007874
20
0.5751805118110236
11
1.0054285433070866
21
0.5736748031496063
0
LINE
8
BLACK
6
CONTINUOUS
10
0.4203117716535433
20
2.1195465748031497
11
0.4335690157480315
21
2.1165206692913388
0
LINE
8
BLACK
6
CONTINUOUS
10
0.4335690157480315
20
2.1165206692913388
11
0.4464041338582677
21
2.1120294881889765
0
LINE
8
BLACK
6
CONTINUOUS
10
0.4464041338582677
20
2.1120294881889765
11
0.4586556692913386
21
2.1061294488188977
0
LINE
8
BLACK
6
CONTINUOUS
10
0.4586556692913386
20
2.1061294488188977
11
0.4701696062992126
21
2.0988947637795277
0
LINE
8
BLACK
6
CONTINUOUS
10
0.4701696062992126
20
2.0988947637795277
11
0.480801062992126
21
2.0904164566929135
0
LINE
8
BLACK
6
CONTINUOUS
10
0.480801062992126
20
2.0904164566929135
11
0.4904164566929134
21
2.0808010629921259
0
LINE
8
BLACK
6
CONTINUOUS
10
0.4904164566929134
20
2.0808010629921259
11
0.4988947637795276
21
2.0701696062992125
0
LINE
8
BLACK
6
CONTINUOUS
10
0.4988947637795276
20
2.0701696062992125
11
0.5061294488188977
21
2.0586556692913387
0
LINE
8
BLACK
6
CONTINUOUS
10
0.5061294488188977
20
2.0586556692913387
11
0.5120294881889763
21
2.0464041338582675
0
LINE
8
BLACK
6
CONTINUOUS
10
0.5120294881889763
20
2.0464041338582675
11
0.5165206692913386
21
2.0335690157480313
0
LINE
8
BLACK
6
CONTINUOUS
10
0.5165206692913386
20
2.0335690157480313
11
0.5195465748031496
21
2.0203117716535433
0
LINE
8
BLACK
6
CONTINUOUS
10
0.5195465748031496
20
2.0203117716535433
11
0.5210690944881889
21
2.0067990944881888
0
LINE
8
BLACK
6
CONTINUOUS
10
0.5210690944881889
20
2.0067990944881888
11
0.5210690944881889
21
1.9932009055118109
0
LINE
8
BLACK
6
CONTINUOUS
10
0.5210690944881889
20
1.9932009055118109
11
0.5195465748031496
21
1.9796882283464567
0
LINE
8
BLACK
6
CONTINUOUS
10
0.5195465748031496
20
1.9796882283464567
11
0.5165206692913386
21
1.9664309842519685
0
LINE
8
BLACK
6
CONTINUOUS
10
0.5165206692913386
20
1.9664309842519685
11
0.5120294881889763
21
1.9535958661417323
0
LINE
8
BLACK
6
CONTINUOUS
10
0.5120294881889763
20
1.9535958661417323
11
0.5061294488188977
21
1.9413443307086613
0
LINE
8
BLACK
6
CONTINUOUS
10
0.5061294488188977
20
1.9413443307086613
11
0.4988947637795276
21
1.9298303937007875
0
LINE
8
BLACK
6
CONTINUOUS
10
0.4988947637795276
20
1.9298303937007875
11
0.4904164566929134
21
1.9191989370078739
0
LINE
8
BLACK
6
CONTINUOUS
10
0.4904164566929134
20
1.9191989370078739
11
0.480801062992126
21
1.9095835433070865
0
LINE
8
BLACK
6
CONTINUOUS
10
0.480801062992126
20
1.9095835433070865
11
0.4701696062992126
21
1.9011052362204723
0
LINE
8
BLACK
6
CONTINUOUS
10
0.4701696062992126
20
1.9011052362204723
11
0.4586556692913386
21
1.8938705511811023
0
LINE
8
BLACK
6
CONTINUOUS
10
0.4586556692913386
20
1.8938705511811023
11
0.4464041338582677
21
1.8879705118110235
0
LINE
8
BLACK
6
CONTINUOUS
10
0.4464041338582677
20
1.8879705118110235
11
0.4335690157480315
21
1.8834793307086615
0
LINE
8
BLACK
6
CONTINUOUS
10
0.4335690157480315
20
1.8834793307086615
11
0.4203117716535433
21
1.8804534251968503
0
LINE
8
BLACK
6
CONTINUOUS
10
0.4203117716535433
20
1.8804534251968503
11
0.406799094488189
21
1.8789309055118111
0
LINE
8
BLACK
6
CONTINUOUS
10
0.406799094488189
20
1.8789309055118111
11
0.393200905511811
21
1.8789309055118111
0
LINE
8
BLACK
6
CONTINUOUS
10
0.393200905511811
20
1.8789309055118111
11
0.3796882283464567
21
1.8804534251968503
0
LINE
8
BLACK
6
CONTINUOUS
10
0.3796882283464567
20
1.8804534251968503
11
0.3664309842519685
21
1.8834793307086615
0
LINE
8
BLACK
6
CONTINUOUS
10
0.3664309842519685
20
1.8834793307086615
11
0.3535958661417323
21
1.8879705118110235
0
LINE
8
BLACK
6
CONTINUOUS
10
0.3535958661417323
20
1.8879705118110235
11
0.3413443307086614
21
1.8938705511811023
0
LINE
8
BLACK
6
CONTINUOUS
10
0.3413443307086614
20
1.8938705511811023
11
0.3298303937007874
21
1.9011052362204723
0
LINE
8
BLACK
6
CONTINUOUS
10
0.3298303937007874
20
1.9011052362204723
11
0.319198937007874
21
1.9095835433070865
0
LINE
8
BLACK
6
CONTINUOUS
10
0.319198937007874
20
1.9095835433070865
11
0.3095835433070866
21
1.9191989370078739
0
LINE
8
BLACK
6
CONTINUOUS
10
0.3095835433070866
20
1.9191989370078739
11
0.3011052362204724
21
1.9298303937007875
0
LINE
8
BLACK
6
CONTINUOUS
10
0.3011052362204724
20
1.9298303937007875
11
0.2938705511811023
21
1.9413443307086613
0
LINE
8
BLACK
6
CONTINUOUS
10
0.2938705511811023
20
1.9413443307086613
11
0.2879705118110236
21
1.9535958661417323
0
LINE
8
BLACK
6
CONTINUOUS
10
0.2879705118110236
20
1.9535958661417323
11
0.2834793307086614
21
1.9664309842519685
0
LINE
8
BLACK
6
CONTINUOUS
10
0.2834793307086614
20
1.9664309842519685
11
0.2804534251968504
21
1.9796882283464567
0
LINE
8
BLACK
6
CONTINUOUS
10
0.2804534251968504
20
1.9796882283464567
11
0.278930905511811
21
1.9932009055118109
0
LINE
8
BLACK
6
CONTINUOUS
10
0.278930905511811
20
1.9932009055118109
11
0.278930905511811
21
2.0067990944881888
0
LINE
8
BLACK
6
CONTINUOUS
10
0.278930905511811
20
2.0067990944881888
11
0.2804534251968504
21
2.0203117716535433
0
LINE
8
BLACK
6
CONTINUOUS
10
0.2804534251968504
20
2.0203117716535433
11
0.2834793307086614
21
2.0335690157480313
0
LINE
8
BLACK
6
CONTINUOUS
10
0.2834793307086614
20
2.0335690157480313
11
0.2879705118110236
21
2.0464041338582675
0
LINE
8
BLACK
6
CONTINUOUS
10
0.2879705118110236
20
2.0464041338582675
11
0.2938705511811023
21
2.0586556692913387
0
LINE
8
BLACK
6
CONTINUOUS
10
0.2938705511811023
20
2.0586556692913387
11
0.3011052362204724
21
2.0701696062992125
0
LINE
8
BLACK
6
CONTINUOUS
10
0.3011052362204724
20
2.0701696062992125
11
0.3095835433070866
21
2.0808010629921259
0
LINE
8
BLACK
6
CONTINUOUS
10
0.3095835433070866
20
2.0808010629921259
11
0.319198937007874
21
2.0904164566929135
0
LINE
8
BLACK
6
CONTINUOUS
10
0.319198937007874
20
2.0904164566929135
11
0.3298303937007874
21
2.0988947637795277
0
LINE
8
BLACK
6
CONTINUOUS
10
0.3298303937007874
20
2.0988947637795277
11
0.3413443307086614
21
2.1061294488188977
0
LINE
8
BLACK
6
CONTINUOUS
10
0.3413443307086614
20
2.1061294488188977
11
0.3535958661417323
21
2.1120294881889765
0
LINE
8
BLACK
6
CONTINUOUS
10
0.3535958661417323
20
2.1120294881889765
11
0.3664309842519685
21
2.1165206692913388
0
LINE
8
BLACK
6
CONTINUOUS
10
0.3664309842519685
20
2.1165206692913388
11
0.3796882283464567
21
2.1195465748031497
0
LINE
8
BLACK
6
CONTINUOUS
10
0.3796882283464567
20
2.1195465748031497
11
0.393200905511811
21
2.1210690944881891
0
LINE
8
BLACK
6
CONTINUOUS
10
0.393200905511811
20
2.1210690944881891
11
0.406799094488189
21
2.1210690944881891
0
LINE
8
BLACK
6
CONTINUOUS
10
0.406799094488189
20
2.1210690944881891
11
0.4203117716535433
21
2.1195465748031497
0
LINE
8
BLACK
6
CONTINUOUS
10
2.8203117716535431
20
2.1195465748031497
11
2.8335690157480315
21
2.1165206692913388
0
LINE
8
BLACK
6
CONTINUOUS
10
2.8335690157480315
20
2.1165206692913388
11
2.8464041338582677
21
2.1120294881889765
0
LINE
8
BLACK
6
CONTINUOUS
10
2.8464041338582677
20
2.1120294881889765
11
2.8586556692913385
21
2.1061294488188977
0
LINE
8
BLACK
6
CONTINUOUS
10
2.8586556692913385
20
2.1061294488188977
11
2.8701696062992124
21
2.0988947637795277
0
LINE
8
BLACK
6
CONTINUOUS
10
2.8701696062992124
20
2.0988947637795277
11
2.8808010629921261
21
2.0904164566929135
0
LINE
8
BLACK
6
CONTINUOUS
10
2.8808010629921261
20
2.0904164566929135
11
2.8904164566929134
21
2.0808010629921259
0
LINE
8
BLACK
6
CONTINUOUS
10
2.8904164566929134
20
2.0808010629921259
11
2.8988947637795275
21
2.0701696062992125
0
LINE
8
BLACK
6
CONTINUOUS
10
2.8988947637795275
20
2.0701696062992125
11
2.9061294488188976
21
2.0586556692913387
0
LINE
8
BLACK
6
CONTINUOUS
10
2.9061294488188976
20
2.0586556692913387
11
2.9120294881889763
21
2.0464041338582675
0
LINE
8
BLACK
6
CONTINUOUS
10
2.9120294881889763
20
2.0464041338582675
11
2.9165206692913386
21
2.0335690157480313
0
LINE
8
BLACK
6
CONTINUOUS
10
2.9165206692913386
20
2.0335690157480313
11
2.9195465748031495
21
2.0203117716535433
0
LINE
8
BLACK
6
CONTINUOUS
10
2.9195465748031495
20
2.0203117716535433
11
2.921069094488189
21
2.0067990944881888
0
LINE
8
BLACK
6
CONTINUOUS
10
2.921069094488189
20
2.0067990944881888
11
2.921069094488189
21
1.9932009055118109
0
LINE
8
BLACK
6
CONTINUOUS
10
2.921069094488189
20
1.9932009055118109
11
2.9195465748031495
21
1.9796882283464567
0
LINE
8
BLACK
6
CONTINUOUS
10
2.9195465748031495
20
1.9796882283464567
11
2.9165206692913386
21
1.9664309842519685
0
LINE
8
BLACK
6
CONTINUOUS
10
2.9165206692913386
20
1.9664309842519685
11
2.9120294881889763
21
1.9535958661417323
0
LINE
8
BLACK
6
CONTINUOUS
10
2.9120294881889763
20
1.9535958661417323
11
2.9061294488188976
21
1.9413443307086613
0
LINE
8
BLACK
6
CONTINUOUS
10
2.9061294488188976
20
1.9413443307086613
11
2.8988947637795275
21
1.9298303937007875
0
LINE
8
BLACK
6
CONTINUOUS
10
2.8988947637795275
20
1.9298303937007875
11
2.8904164566929134
21
1.9191989370078739
0
LINE
8
BLACK
6
CONTINUOUS
10
2.8904164566929134
20
1.9191989370078739
11
2.8808010629921261
21
1.9095835433070865
0
LINE
8
BLACK
6
CONTINUOUS
10
2.8808010629921261
20
1.9095835433070865
11
2.8701696062992124
21
1.9011052362204723
0
LINE
8
BLACK
6
CONTINUOUS
10
2.8701696062992124
20
1.9011052362204723
11
2.8586556692913385
21
1.8938705511811023
0
LINE
8
BLACK
6
CONTINUOUS
10
2.8586556692913385
20
1.8938705511811023
11
2.8464041338582677
21
1.8879705118110235
0
LINE
8
BLACK
6
CONTINUOUS
10
2.8464041338582677
20
1.8879705118110235
11
2.8335690157480315
21
1.8834793307086615
0
LINE
8
BLACK
6
CONTINUOUS
10
2.8335690157480315
20
1.8834793307086615
11
2.8203117716535431
21
1.8804534251968503
0
LINE
8
BLACK
6
CONTINUOUS
10
2.8203117716535431
20
1.8804534251968503
11
2.8067990944881891
21
1.8789309055118111
0
LINE
8
BLACK
6
CONTINUOUS
10
2.8067990944881891
20
1.8789309055118111
11
2.793200905511811
21
1.8789309055118111
0
LINE
8
BLACK
6
CONTINUOUS
10
2.793200905511811
20
1.8789309055118111
11
2.7796882283464566
21
1.8804534251968503
0
LINE
8
BLACK
6
CONTINUOUS
10
2.7796882283464566
20
1.8804534251968503
11
2.7664309842519685
21
1.8834793307086615
0
LINE
8
BLACK
6
CONTINUOUS
10
2.7664309842519685
20
1.8834793307086615
11
2.7535958661417324
21
1.8879705118110235
0
LINE
8
BLACK
6
CONTINUOUS
10
2.7535958661417324
20
1.8879705118110235
11
2.7413443307086616
21
1.8938705511811023
0
LINE
8
BLACK
6
CONTINUOUS
10
2.7413443307086616
20
1.8938705511811023
11
2.7298303937007873
21
1.9011052362204723
0
LINE
8
BLACK
6
CONTINUOUS
10
2.7298303937007873
20
1.9011052362204723
11
2.719198937007874
21
1.9095835433070865
0
LINE
8
BLACK
6
CONTINUOUS
10
2.719198937007874
20
1.9095835433070865
11
2.7095835433070867
21
1.9191989370078739
0
LINE
8
BLACK
6
CONTINUOUS
10
2.7095835433070867
20
1.9191989370078739
11
2.7011052362204722
21
1.9298303937007875
0
LINE
8
BLACK
6
CONTINUOUS
10
2.7011052362204722
20
1.9298303937007875
11
2.6938705511811021
21
1.9413443307086613
0
LINE
8
BLACK
6
CONTINUOUS
10
2.6938705511811021
20
1.9413443307086613
11
2.6879705118110238
21
1.9535958661417323
0
LINE
8
BLACK
6
CONTINUOUS
10
2.6879705118110238
20
1.9535958661417323
11
2.6834793307086615
21
1.9664309842519685
0
LINE
8
BLACK
6
CONTINUOUS
10
2.6834793307086615
20
1.9664309842519685
11
2.6804534251968501
21
1.9796882283464567
0
LINE
8
BLACK
6
CONTINUOUS
10
2.6804534251968501
20
1.9796882283464567
11
2.6789309055118111
21
1.9932009055118109
0
LINE
8
BLACK
6
CONTINUOUS
10
2.6789309055118111
20
1.9932009055118109
11
2.6789309055118111
21
2.0067990944881888
0
LINE
8
BLACK
6
CONTINUOUS
10
2.6789309055118111
20
2.0067990944881888
11
2.6804534251968501
21
2.0203117716535433
0
LINE
8
BLACK
6
CONTINUOUS
10
2.6804534251968501
20
2.0203117716535433
11
2.6834793307086615
21
2.0335690157480313
0
LINE
8
BLACK
6
CONTINUOUS
10
2.6834793307086615
20
2.0335690157480313
11
2.6879705118110238
21
2.0464041338582675
0
LINE
8
BLACK
6
CONTINUOUS
10
2.6879705118110238
20
2.0464041338582675
11
2.6938705511811021
21
2.0586556692913387
0
LINE
8
BLACK
6
CONTINUOUS
10
2.6938705511811021
20
2.0586556692913387
11
2.7011052362204722
21
2.0701696062992125
0
LINE
8
BLACK
6
CONTINUOUS
10
2.7011052362204722
20
2.0701696062992125
11
2.7095835433070867
21
2.0808010629921259
0
LINE
8
BLACK
6
CONTINUOUS
10
2.7095835433070867
20
2.0808010629921259
11
2.719198937007874
21
2.0904164566929135
0
LINE
8
BLACK
6
CONTINUOUS
10
2.719198937007874
20
2.0904164566929135
11
2.7298303937007873
21
2.0988947637795277
0
LINE
8
BLACK
6
CONTINUOUS
10
2.7298303937007873
20
2.0988947637795277
11
2.7413443307086616
21
2.1061294488188977
0
LINE
8
BLACK
6
CONTINUOUS
10
2.7413443307086616
20
2.1061294488188977
11
2.7535958661417324
21
2.1120294881889765
0
LINE
8
BLACK
6
CONTINUOUS
10
2.7535958661417324
20
2.1120294881889765
11
2.7664309842519685
21
2.1165206692913388
0
LINE
8
BLACK
6
CONTINUOUS
10
2.7664309842519685
20
2.1165206692913388
11
2.7796882283464566
21
2.1195465748031497
0
LINE
8
BLACK
6
CONTINUOUS
10
2.7796882283464566
20
2.1195465748031497
11
2.793200905511811
21
2.1210690944881891
0
LINE
8
BLACK
6
CONTINUOUS
10
2.793200905511811
20
2.1210690944881891
11
2.8067990944881891
21
2.1210690944881891
0
LINE
8
BLACK
6
CONTINUOUS
10
2.8067990944881891
20
2.1210690944881891
11
2.8203117716535431
21
2.1195465748031497
0
LINE
8
BLACK
6
CONTINUOUS
10
0.9218096456692914
20
2.007825
11
0.928440905511811
21
2.0050782283464565
0
LINE
8
BLACK
6
CONTINUOUS
10
0.928440905511811
20
2.0050782283464565
11
0.9344088976377952
21
2.0010905511811021
0
LINE
8
BLACK
6
CONTINUOUS
10
0.9344088976377952
20
2.0010905511811021
11
0.9394842519685039
21
1.9960151968503936
0
LINE
8
BLACK
6
CONTINUOUS
10
0.9394842519685039
20
1.9960151968503936
11
0.9434719291338582
21
1.9900472047244093
0
LINE
8
BLACK
6
CONTINUOUS
10
0.9434719291338582
20
1.9900472047244093
11
0.9462187007874016
21
1.9834159448818898
0
LINE
8
BLACK
6
CONTINUOUS
10
0.9462187007874016
20
1.9834159448818898
11
0.9476189763779528
21
1.9763762204724409
0
LINE
8
BLACK
6
CONTINUOUS
10
0.9476189763779528
20
1.9763762204724409
11
0.9476189763779528
21
1.9691985826771654
0
LINE
8
BLACK
6
CONTINUOUS
10
0.9476189763779528
20
1.9691985826771654
11
0.9462187007874016
21
1.9621588582677165
0
LINE
8
BLACK
6
CONTINUOUS
10
0.9462187007874016
20
1.9621588582677165
11
0.9434719291338582
21
1.9555275984251967
0
LINE
8
BLACK
6
CONTINUOUS
10
0.9434719291338582
20
1.9555275984251967
11
0.9394842519685039
21
1.9495596062992127
0
LINE
8
BLACK
6
CONTINUOUS
10
0.9394842519685039
20
1.9495596062992127
11
0.9344088976377952
21
1.9444842519685039
0
LINE
8
BLACK
6
CONTINUOUS
10
0.9344088976377952
20
1.9444842519685039
11
0.928440905511811
21
1.9404965748031495
0
LINE
8
BLACK
6
CONTINUOUS
10
0.928440905511811
20
1.9404965748031495
11
0.9218096456692914
21
1.9377498031496063
0
LINE
8
BLACK
6
CONTINUOUS
10
0.9218096456692914
20
1.9377498031496063
11
0.9147699212598425
21
1.936349527559055
0
LINE
8
BLACK
6
CONTINUOUS
10
0.9147699212598425
20
1.936349527559055
11
0.9075922834645669
21
1.936349527559055
0
LINE
8
BLACK
6
CONTINUOUS
10
0.9075922834645669
20
1.936349527559055
11
0.9005525590551181
21
1.9377498031496063
0
LINE
8
BLACK
6
CONTINUOUS
10
0.9005525590551181
20
1.9377498031496063
11
0.8939212992125984
21
1.9404965748031495
0
LINE
8
BLACK
6
CONTINUOUS
10
0.8939212992125984
20
1.9404965748031495
11
0.8879533070866141
21
1.9444842519685039
0
LINE
8
BLACK
6
CONTINUOUS
10
0.8879533070866141
20
1.9444842519685039
11
0.8828779527559055
21
1.9495596062992127
0
LINE
8
BLACK
6
CONTINUOUS
10
0.8828779527559055
20
1.9495596062992127
11
0.8788902755905511
21
1.9555275984251967
0
LINE
8
BLACK
6
CONTINUOUS
10
0.8788902755905511
20
1.9555275984251967
11
0.8761435039370079
21
1.9621588582677165
0
LINE
8
BLACK
6
CONTINUOUS
10
0.8761435039370079
20
1.9621588582677165
11
0.8747432283464567
21
1.9691985826771654
0
LINE
8
BLACK
6
CONTINUOUS
10
0.8747432283464567
20
1.9691985826771654
11
0.8747432283464567
21
1.9763762204724409
0
LINE
8
BLACK
6
CONTINUOUS
10
0.8747432283464567
20
1.9763762204724409
11
0.8761435039370079
21
1.9834159448818898
0
LINE
8
BLACK
6
CONTINUOUS
10
0.8761435039370079
20
1.9834159448818898
11
0.8788902755905511
21
1.9900472047244093
0
LINE
8
BLACK
6
CONTINUOUS
10
0.8788902755905511
20
1.9900472047244093
11
0.8828779527559055
21
1.9960151968503936
0
LINE
8
BLACK
6
CONTINUOUS
10
0.8828779527559055
20
1.9960151968503936
11
0.8879533070866141
21
2.0010905511811021
0
LINE
8
BLACK
6
CONTINUOUS
10
0.8879533070866141
20
2.0010905511811021
11
0.8939212992125984
21
2.0050782283464565
0
LINE
8
BLACK
6
CONTINUOUS
10
0.8939212992125984
20
2.0050782283464565
11
0.9005525590551181
21
2.007825
0
LINE
8
BLACK
6
CONTINUOUS
10
0.9005525590551181
20
2.007825
11
0.9075922834645669
21
2.0092252755905511
0
LINE
8
BLACK
6
CONTINUOUS
10
0.9075922834645669
20
2.0092252755905511
11
0.9147699212598425
21
2.0092252755905511
0
LINE
8
BLACK
6
CONTINUOUS
10
0.9147699212598425
20
2.0092252755905511
11
0.9218096456692914
21
2.007825
0
LINE
8
BLACK
6
CONTINUOUS
10
1.0218096456692913
20
2.007825
11
1.0284409055118111
21
2.0050782283464565
0
LINE
8
BLACK
6
CONTINUOUS
10
1.0284409055118111
20
2.0050782283464565
11
1.0344088976377952
21
2.0010905511811021
0
LINE
8
BLACK
6
CONTINUOUS
10
1.0344088976377952
20
2.0010905511811021
11
1.0394842519685039
21
1.9960151968503936
0
LINE
8
BLACK
6
CONTINUOUS
10
1.0394842519685039
20
1.9960151968503936
11
1.0434719291338583
21
1.9900472047244093
0
LINE
8
BLACK
6
CONTINUOUS
10
1.0434719291338583
20
1.9900472047244093
11
1.0462187007874015
21
1.9834159448818898
0
LINE
8
BLACK
6
CONTINUOUS
10
1.0462187007874015
20
1.9834159448818898
11
1.0476189763779526
21
1.9763762204724409
0
LINE
8
BLACK
6
CONTINUOUS
10
1.0476189763779526
20
1.9763762204724409
11
1.0476189763779526
21
1.9691985826771654
0
LINE
8
BLACK
6
CONTINUOUS
10
1.0476189763779526
20
1.9691985826771654
11
1.0462187007874015
21
1.9621588582677165
0
LINE
8
BLACK
6
CONTINUOUS
10
1.0462187007874015
20
1.9621588582677165
11
1.0434719291338583
21
1.9555275984251967
0
LINE
8
BLACK
6
CONTINUOUS
10
1.0434719291338583
20
1.9555275984251967
11
1.0394842519685039
21
1.9495596062992127
0
LINE
8
BLACK
6
CONTINUOUS
10
1.0394842519685039
20
1.9495596062992127
11
1.0344088976377952
21
1.9444842519685039
0
LINE
8
BLACK
6
CONTINUOUS
10
1.0344088976377952
20
1.9444842519685039
11
1.0284409055118111
21
1.9404965748031495
0
LINE
8
BLACK
6
CONTINUOUS
10
1.0284409055118111
20
1.9404965748031495
11
1.0218096456692913
21
1.9377498031496063
0
LINE
8
BLACK
6
CONTINUOUS
10
1.0218096456692913
20
1.9377498031496063
11
1.0147699212598424
21
1.936349527559055
0
LINE
8
BLACK
6
CONTINUOUS
10
1.0147699212598424
20
1.936349527559055
11
1.007592283464567
21
1.936349527559055
0
LINE
8
BLACK
6
CONTINUOUS
10
1.007592283464567
20
1.936349527559055
11
1.0005525590551181
21
1.9377498031496063
0
LINE
8
BLACK
6
CONTINUOUS
10
1.0005525590551181
20
1.9377498031496063
11
0.9939212992125984
21
1.9404965748031495
0
LINE
8
BLACK
6
CONTINUOUS
10
0.9939212992125984
20
1.9404965748031495
11
0.9879533070866141
21
1.9444842519685039
0
LINE
8
BLACK
6
CONTINUOUS
10
0.9879533070866141
20
1.9444842519685039
11
0.9828779527559055
21
1.9495596062992127
0
LINE
8
BLACK
6
CONTINUOUS
10
0.9828779527559055
20
1.9495596062992127
11
0.9788902755905512
21
1.9555275984251967
0
LINE
8
BLACK
6
CONTINUOUS
10
0.9788902755905512
20
1.9555275984251967
11
0.9761435039370079
21
1.9621588582677165
0
LINE
8
BLACK
6
CONTINUOUS
10
0.9761435039370079
20
1.9621588582677165
11
0.9747432283464567
21
1.9691985826771654
0
LINE
8
BLACK
6
CONTINUOUS
10
0.9747432283464567
20
1.9691985826771654
11
0.9747432283464567
21
1.9763762204724409
0
LINE
8
BLACK
6
CONTINUOUS
10
0.9747432283464567
20
1.9763762204724409
11
0.9761435039370079
21
1.9834159448818898
0
LINE
8
BLACK
6
CONTINUOUS
10
0.9761435039370079
20
1.9834159448818898
11
0.9788902755905512
21
1.9900472047244093
0
LINE
8
BLACK
6
CONTINUOUS
10
0.9788902755905512
20
1.9900472047244093
11
0.9828779527559055
21
1.9960151968503936
0
LINE
8
BLACK
6
CONTINUOUS
10
0.9828779527559055
20
1.9960151968503936
11
0.9879533070866141
21
2.0010905511811021
0
LINE
8
BLACK
6
CONTINUOUS
10
0.9879533070866141
20
2.0010905511811021
11
0.9939212992125984
21
2.0050782283464565
0
LINE
8
BLACK
6
CONTINUOUS
10
0.9939212992125984
20
2.0050782283464565
11
1.0005525590551181
21
2.007825
0
LINE
8
BLACK
6
CONTINUOUS
10
1.0005525590551181
20
2.007825
11
1.007592283464567
21
2.0092252755905511
0
LINE
8
BLACK
6
CONTINUOUS
10
1.007592283464567
20
2.0092252755905511
11
1.0147699212598424
21
2.0092252755905511
0
LINE
8
BLACK
6
CONTINUOUS
10
1.0147699212598424
20
2.0092252755905511
11
1.0218096456692913
21
2.007825
0
LINE
8
BLACK
6
CONTINUOUS
10
1.1218096456692914
20
2.007825
11
1.128440905511811
21
2.0050782283464565
0
LINE
8
BLACK
6
CONTINUOUS
10
1.128440905511811
20
2.0050782283464565
11
1.1344088976377953
21
2.0010905511811021
0
LINE
8
BLACK
6
CONTINUOUS
10
1.1344088976377953
20
2.0010905511811021
11
1.139484251968504
21
1.9960151968503936
0
LINE
8
BLACK
6
CONTINUOUS
10
1.139484251968504
20
1.9960151968503936
11
1.1434719291338582
21
1.9900472047244093
0
LINE
8
BLACK
6
CONTINUOUS
10
1.1434719291338582
20
1.9900472047244093
11
1.1462187007874016
21
1.9834159448818898
0
LINE
8
BLACK
6
CONTINUOUS
10
1.1462187007874016
20
1.9834159448818898
11
1.1476189763779527
21
1.9763762204724409
0
LINE
8
BLACK
6
CONTINUOUS
10
1.1476189763779527
20
1.9763762204724409
11
1.1476189763779527
21
1.9691985826771654
0
LINE
8
BLACK
6
CONTINUOUS
10
1.1476189763779527
20
1.9691985826771654
11
1.1462187007874016
21
1.9621588582677165
0
LINE
8
BLACK
6
CONTINUOUS
10
1.1462187007874016
20
1.9621588582677165
11
1.1434719291338582
21
1.9555275984251967
0
LINE
8
BLACK
6
CONTINUOUS
10
1.1434719291338582
20
1.9555275984251967
11
1.139484251968504
21
1.9495596062992127
0
LINE
8
BLACK
6
CONTINUOUS
10
1.139484251968504
20
1.9495596062992127
11
1.1344088976377953
21
1.9444842519685039
0
LINE
8
BLACK
6
CONTINUOUS
10
1.1344088976377953
20
1.9444842519685039
11
1.128440905511811
21
1.9404965748031495
0
LINE
8
BLACK
6
CONTINUOUS
10
1.128440905511811
20
1.9404965748031495
11
1.1218096456692914
21
1.9377498031496063
0
LINE
8
BLACK
6
CONTINUOUS
10
1.1218096456692914
20
1.9377498031496063
11
1.1147699212598425
21
1.936349527559055
0
LINE
8
BLACK
6
CONTINUOUS
10
1.1147699212598425
20
1.936349527559055
11
1.1075922834645668
21
1.936349527559055
0
LINE
8
BLACK
6
CONTINUOUS
10
1.1075922834645668
20
1.936349527559055
11
1.1005525590551182
21
1.9377498031496063
0
LINE
8
BLACK
6
CONTINUOUS
10
1.1005525590551182
20
1.9377498031496063
11
1.0939212992125984
21
1.9404965748031495
0
LINE
8
BLACK
6
CONTINUOUS
10
1.0939212992125984
20
1.9404965748031495
11
1.0879533070866141
21
1.9444842519685039
0
LINE
8
BLACK
6
CONTINUOUS
10
1.0879533070866141
20
1.9444842519685039
11
1.0828779527559056
21
1.9495596062992127
0
LINE
8
BLACK
6
CONTINUOUS
10
1.0828779527559056
20
1.9495596062992127
11
1.0788902755905512
21
1.9555275984251967
0
LINE
8
BLACK
6
CONTINUOUS
10
1.0788902755905512
20
1.9555275984251967
11
1.0761435039370078
21
1.9621588582677165
0
LINE
8
BLACK
6
CONTINUOUS
10
1.0761435039370078
20
1.9621588582677165
11
1.0747432283464566
21
1.9691985826771654
0
LINE
8
BLACK
6
CONTINUOUS
10
1.0747432283464566
20
1.9691985826771654
11
1.0747432283464566
21
1.9763762204724409
0
LINE
8
BLACK
6
CONTINUOUS
10
1.0747432283464566
20
1.9763762204724409
11
1.0761435039370078
21
1.9834159448818898
0
LINE
8
BLACK
6
CONTINUOUS
10
1.0761435039370078
20
1.9834159448818898
11
1.0788902755905512
21
1.9900472047244093
0
LINE
8
BLACK
6
CONTINUOUS
10
1.0788902755905512
20
1.9900472047244093
11
1.0828779527559056
21
1.9960151968503936
0
LINE
8
BLACK
6
CONTINUOUS
10
1.0828779527559056
20
1.9960151968503936
11
1.0879533070866141
21
2.0010905511811021
0
LINE
8
BLACK
6
CONTINUOUS
10
1.0879533070866141
20
2.0010905511811021
11
1.0939212992125984
21
2.0050782283464565
0
LINE
8
BLACK
6
CONTINUOUS
10
1.0939212992125984
20
2.0050782283464565
11
1.1005525590551182
21
2.007825
0
LINE
8
BLACK
6
CONTINUOUS
10
1.1005525590551182
20
2.007825
11
1.1075922834645668
21
2.0092252755905511
0
LINE
8
BLACK
6
CONTINUOUS
10
1.1075922834645668
20
2.0092252755905511
11
1.1147699212598425
21
2.0092252755905511
0
LINE
8
BLACK
6
CONTINUOUS
10
1.1147699212598425
20
2.0092252755905511
11
1.1218096456692914
21
2.007825
0
LINE
8
BLACK
6
CONTINUOUS
10
1.2218096456692913
20
2.007825
11
1.2284409055118111
21
2.0050782283464565
0
LINE
8
BLACK
6
CONTINUOUS
10
1.2284409055118111
20
2.0050782283464565
11
1.2344088976377952
21
2.0010905511811021
0
LINE
8
BLACK
6
CONTINUOUS
10
1.2344088976377952
20
2.0010905511811021
11
1.2394842519685039
21
1.9960151968503936
0
LINE
8
BLACK
6
CONTINUOUS
10
1.2394842519685039
20
1.9960151968503936
11
1.2434719291338583
21
1.9900472047244093
0
LINE
8
BLACK
6
CONTINUOUS
10
1.2434719291338583
20
1.9900472047244093
11
1.2462187007874015
21
1.9834159448818898
0
LINE
8
BLACK
6
CONTINUOUS
10
1.2462187007874015
20
1.9834159448818898
11
1.2476189763779528
21
1.9763762204724409
0
LINE
8
BLACK
6
CONTINUOUS
10
1.2476189763779528
20
1.9763762204724409
11
1.2476189763779528
21
1.9691985826771654
0
LINE
8
BLACK
6
CONTINUOUS
10
1.2476189763779528
20
1.9691985826771654
11
1.2462187007874015
21
1.9621588582677165
0
LINE
8
BLACK
6
CONTINUOUS
10
1.2462187007874015
20
1.9621588582677165
11
1.2434719291338583
21
1.9555275984251967
0
LINE
8
BLACK
6
CONTINUOUS
10
1.2434719291338583
20
1.9555275984251967
11
1.2394842519685039
21
1.9495596062992127
0
LINE
8
BLACK
6
CONTINUOUS
10
1.2394842519685039
20
1.9495596062992127
11
1.2344088976377952
21
1.9444842519685039
0
LINE
8
BLACK
6
CONTINUOUS
10
1.2344088976377952
20
1.9444842519685039
11
1.2284409055118111
21
1.9404965748031495
0
LINE
8
BLACK
6
CONTINUOUS
10
1.2284409055118111
20
1.9404965748031495
11
1.2218096456692913
21
1.9377498031496063
0
LINE
8
BLACK
6
CONTINUOUS
10
1.2218096456692913
20
1.9377498031496063
11
1.2147699212598424
21
1.936349527559055
0
LINE
8
BLACK
6
CONTINUOUS
10
1.2147699212598424
20
1.936349527559055
11
1.2075922834645669
21
1.936349527559055
0
LINE
8
BLACK
6
CONTINUOUS
10
1.2075922834645669
20
1.936349527559055
11
1.200552559055118
21
1.9377498031496063
0
LINE
8
BLACK
6
CONTINUOUS
10
1.200552559055118
20
1.9377498031496063
11
1.1939212992125985
21
1.9404965748031495
0
LINE
8
BLACK
6
CONTINUOUS
10
1.1939212992125985
20
1.9404965748031495
11
1.1879533070866142
21
1.9444842519685039
0
LINE
8
BLACK
6
CONTINUOUS
10
1.1879533070866142
20
1.9444842519685039
11
1.1828779527559055
21
1.9495596062992127
0
LINE
8
BLACK
6
CONTINUOUS
10
1.1828779527559055
20
1.9495596062992127
11
1.1788902755905513
21
1.9555275984251967
0
LINE
8
BLACK
6
CONTINUOUS
10
1.1788902755905513
20
1.9555275984251967
11
1.1761435039370078
21
1.9621588582677165
0
LINE
8
BLACK
6
CONTINUOUS
10
1.1761435039370078
20
1.9621588582677165
11
1.1747432283464567
21
1.9691985826771654
0
LINE
8
BLACK
6
CONTINUOUS
10
1.1747432283464567
20
1.9691985826771654
11
1.1747432283464567
21
1.9763762204724409
0
LINE
8
BLACK
6
CONTINUOUS
10
1.1747432283464567
20
1.9763762204724409
11
1.1761435039370078
21
1.9834159448818898
0
LINE
8
BLACK
6
CONTINUOUS
10
1.1761435039370078
20
1.9834159448818898
11
1.1788902755905513
21
1.9900472047244093
0
LINE
8
BLACK
6
CONTINUOUS
10
1.1788902755905513
20
1.9900472047244093
11
1.1828779527559055
21
1.9960151968503936
0
LINE
8
BLACK
6
CONTINUOUS
10
1.1828779527559055
20
1.9960151968503936
11
1.1879533070866142
21
2.0010905511811021
0
LINE
8
BLACK
6
CONTINUOUS
10
1.1879533070866142
20
2.0010905511811021
11
1.1939212992125985
21
2.0050782283464565
0
LINE
8
BLACK
6
CONTINUOUS
10
1.1939212992125985
20
2.0050782283464565
11
1.200552559055118
21
2.007825
0
LINE
8
BLACK
6
CONTINUOUS
10
1.200552559055118
20
2.007825
11
1.2075922834645669
21
2.0092252755905511
0
LINE
8
BLACK
6
CONTINUOUS
10
1.2075922834645669
20
2.0092252755905511
11
1.2147699212598424
21
2.0092252755905511
0
LINE
8
BLACK
6
CONTINUOUS
10
1.2147699212598424
20
2.0092252755905511
11
1.2218096456692913
21
2.007825
0
LINE
8
BLACK
6
CONTINUOUS
10
1.3218096456692914
20
2.007825
11
1.3284409055118109
21
2.0050782283464565
0
LINE
8
BLACK
6
CONTINUOUS
10
1.3284409055118109
20
2.0050782283464565
11
1.3344088976377952
21
2.0010905511811021
0
LINE
8
BLACK
6
CONTINUOUS
10
1.3344088976377952
20
2.0010905511811021
11
1.339484251968504
21
1.9960151968503936
0
LINE
8
BLACK
6
CONTINUOUS
10
1.339484251968504
20
1.9960151968503936
11
1.3434719291338582
21
1.9900472047244093
0
LINE
8
BLACK
6
CONTINUOUS
10
1.3434719291338582
20
1.9900472047244093
11
1.3462187007874016
21
1.9834159448818898
0
LINE
8
BLACK
6
CONTINUOUS
10
1.3462187007874016
20
1.9834159448818898
11
1.3476189763779527
21
1.9763762204724409
0
LINE
8
BLACK
6
CONTINUOUS
10
1.3476189763779527
20
1.9763762204724409
11
1.3476189763779527
21
1.9691985826771654
0
LINE
8
BLACK
6
CONTINUOUS
10
1.3476189763779527
20
1.9691985826771654
11
1.3462187007874016
21
1.9621588582677165
0
LINE
8
BLACK
6
CONTINUOUS
10
1.3462187007874016
20
1.9621588582677165
11
1.3434719291338582
21
1.9555275984251967
0
LINE
8
BLACK
6
CONTINUOUS
10
1.3434719291338582
20
1.9555275984251967
11
1.339484251968504
21
1.9495596062992127
0
LINE
8
BLACK
6
CONTINUOUS
10
1.339484251968504
20
1.9495596062992127
11
1.3344088976377952
21
1.9444842519685039
0
LINE
8
BLACK
6
CONTINUOUS
10
1.3344088976377952
20
1.9444842519685039
11
1.3284409055118109
21
1.9404965748031495
0
LINE
8
BLACK
6
CONTINUOUS
10
1.3284409055118109
20
1.9404965748031495
11
1.3218096456692914
21
1.9377498031496063
0
LINE
8
BLACK
6
CONTINUOUS
10
1.3218096456692914
20
1.9377498031496063
11
1.3147699212598425
21
1.936349527559055
0
LINE
8
BLACK
6
CONTINUOUS
10
1.3147699212598425
20
1.936349527559055
11
1.3075922834645668
21
1.936349527559055
0
LINE
8
BLACK
6
CONTINUOUS
10
1.3075922834645668
20
1.936349527559055
11
1.3005525590551181
21
1.9377498031496063
0
LINE
8
BLACK
6
CONTINUOUS
10
1.3005525590551181
20
1.9377498031496063
11
1.2939212992125984
21
1.9404965748031495
0
LINE
8
BLACK
6
CONTINUOUS
10
1.2939212992125984
20
1.9404965748031495
11
1.287953307086614
21
1.9444842519685039
0
LINE
8
BLACK
6
CONTINUOUS
10
1.287953307086614
20
1.9444842519685039
11
1.2828779527559055
21
1.9495596062992127
0
LINE
8
BLACK
6
CONTINUOUS
10
1.2828779527559055
20
1.9495596062992127
11
1.2788902755905511
21
1.9555275984251967
0
LINE
8
BLACK
6
CONTINUOUS
10
1.2788902755905511
20
1.9555275984251967
11
1.2761435039370079
21
1.9621588582677165
0
LINE
8
BLACK
6
CONTINUOUS
10
1.2761435039370079
20
1.9621588582677165
11
1.2747432283464566
21
1.9691985826771654
0
LINE
8
BLACK
6
CONTINUOUS
10
1.2747432283464566
20
1.9691985826771654
11
1.2747432283464566
21
1.9763762204724409
0
LINE
8
BLACK
6
CONTINUOUS
10
1.2747432283464566
20
1.9763762204724409
11
1.2761435039370079
21
1.9834159448818898
0
LINE
8
BLACK
6
CONTINUOUS
10
1.2761435039370079
20
1.9834159448818898
11
1.2788902755905511
21
1.9900472047244093
0
LINE
8
BLACK
6
CONTINUOUS
10
1.2788902755905511
20
1.9900472047244093
11
1.2828779527559055
21
1.9960151968503936
0
LINE
8
BLACK
6
CONTINUOUS
10
1.2828779527559055
20
1.9960151968503936
11
1.287953307086614
21
2.0010905511811021
0
LINE
8
BLACK
6
CONTINUOUS
10
1.287953307086614
20
2.0010905511811021
11
1.2939212992125984
21
2.0050782283464565
0
LINE
8
BLACK
6
CONTINUOUS
10
1.2939212992125984
20
2.0050782283464565
11
1.3005525590551181
21
2.007825
0
LINE
8
BLACK
6
CONTINUOUS
10
1.3005525590551181
20
2.007825
11
1.3075922834645668
21
2.0092252755905511
0
LINE
8
BLACK
6
CONTINUOUS
10
1.3075922834645668
20
2.0092252755905511
11
1.3147699212598425
21
2.0092252755905511
0
LINE
8
BLACK
6
CONTINUOUS
10
1.3147699212598425
20
2.0092252755905511
11
1.3218096456692914
21
2.007825
0
LINE
8
BLACK
6
CONTINUOUS
10
1.4218096456692912
20
2.007825
11
1.428440905511811
21
2.0050782283464565
0
LINE
8
BLACK
6
CONTINUOUS
10
1.428440905511811
20
2.0050782283464565
11
1.4344088976377953
21
2.0010905511811021
0
LINE
8
BLACK
6
CONTINUOUS
10
1.4344088976377953
20
2.0010905511811021
11
1.4394842519685038
21
1.9960151968503936
0
LINE
8
BLACK
6
CONTINUOUS
10
1.4394842519685038
20
1.9960151968503936
11
1.4434719291338582
21
1.9900472047244093
0
LINE
8
BLACK
6
CONTINUOUS
10
1.4434719291338582
20
1.9900472047244093
11
1.4462187007874014
21
1.9834159448818898
0
LINE
8
BLACK
6
CONTINUOUS
10
1.4462187007874014
20
1.9834159448818898
11
1.4476189763779528
21
1.9763762204724409
0
LINE
8
BLACK
6
CONTINUOUS
10
1.4476189763779528
20
1.9763762204724409
11
1.4476189763779528
21
1.9691985826771654
0
LINE
8
BLACK
6
CONTINUOUS
10
1.4476189763779528
20
1.9691985826771654
11
1.4462187007874014
21
1.9621588582677165
0
LINE
8
BLACK
6
CONTINUOUS
10
1.4462187007874014
20
1.9621588582677165
11
1.4434719291338582
21
1.9555275984251967
0
LINE
8
BLACK
6
CONTINUOUS
10
1.4434719291338582
20
1.9555275984251967
11
1.4394842519685038
21
1.9495596062992127
0
LINE
8
BLACK
6
CONTINUOUS
10
1.4394842519685038
20
1.9495596062992127
11
1.4344088976377953
21
1.9444842519685039
0
LINE
8
BLACK
6
CONTINUOUS
10
1.4344088976377953
20
1.9444842519685039
11
1.428440905511811
21
1.9404965748031495
0
LINE
8
BLACK
6
CONTINUOUS
10
1.428440905511811
20
1.9404965748031495
11
1.4218096456692912
21
1.9377498031496063
0
LINE
8
BLACK
6
CONTINUOUS
10
1.4218096456692912
20
1.9377498031496063
11
1.4147699212598426
21
1.936349527559055
0
LINE
8
BLACK
6
CONTINUOUS
10
1.4147699212598426
20
1.936349527559055
11
1.4075922834645669
21
1.936349527559055
0
LINE
8
BLACK
6
CONTINUOUS
10
1.4075922834645669
20
1.936349527559055
11
1.400552559055118
21
1.9377498031496063
0
LINE
8
BLACK
6
CONTINUOUS
10
1.400552559055118
20
1.9377498031496063
11
1.3939212992125984
21
1.9404965748031495
0
LINE
8
BLACK
6
CONTINUOUS
10
1.3939212992125984
20
1.9404965748031495
11
1.3879533070866141
21
1.9444842519685039
0
LINE
8
BLACK
6
CONTINUOUS
10
1.3879533070866141
20
1.9444842519685039
11
1.3828779527559054
21
1.9495596062992127
0
LINE
8
BLACK
6
CONTINUOUS
10
1.3828779527559054
20
1.9495596062992127
11
1.3788902755905512
21
1.9555275984251967
0
LINE
8
BLACK
6
CONTINUOUS
10
1.3788902755905512
20
1.9555275984251967
11
1.3761435039370078
21
1.9621588582677165
0
LINE
8
BLACK
6
CONTINUOUS
10
1.3761435039370078
20
1.9621588582677165
11
1.3747432283464567
21
1.9691985826771654
0
LINE
8
BLACK
6
CONTINUOUS
10
1.3747432283464567
20
1.9691985826771654
11
1.3747432283464567
21
1.9763762204724409
0
LINE
8
BLACK
6
CONTINUOUS
10
1.3747432283464567
20
1.9763762204724409
11
1.3761435039370078
21
1.9834159448818898
0
LINE
8
BLACK
6
CONTINUOUS
10
1.3761435039370078
20
1.9834159448818898
11
1.3788902755905512
21
1.9900472047244093
0
LINE
8
BLACK
6
CONTINUOUS
10
1.3788902755905512
20
1.9900472047244093
11
1.3828779527559054
21
1.9960151968503936
0
LINE
8
BLACK
6
CONTINUOUS
10
1.3828779527559054
20
1.9960151968503936
11
1.3879533070866141
21
2.0010905511811021
0
LINE
8
BLACK
6
CONTINUOUS
10
1.3879533070866141
20
2.0010905511811021
11
1.3939212992125984
21
2.0050782283464565
0
LINE
8
BLACK
6
CONTINUOUS
10
1.3939212992125984
20
2.0050782283464565
11
1.400552559055118
21
2.007825
0
LINE
8
BLACK
6
CONTINUOUS
10
1.400552559055118
20
2.007825
11
1.4075922834645669
21
2.0092252755905511
0
LINE
8
BLACK
6
CONTINUOUS
10
1.4075922834645669
20
2.0092252755905511
11
1.4147699212598426
21
2.0092252755905511
0
LINE
8
BLACK
6
CONTINUOUS
10
1.4147699212598426
20
2.0092252755905511
11
1.4218096456692912
21
2.007825
0
LINE
8
BLACK
6
CONTINUOUS
10
1.5218096456692913
20
2.007825
11
1.5284409055118109
21
2.0050782283464565
0
LINE
8
BLACK
6
CONTINUOUS
10
1.5284409055118109
20
2.0050782283464565
11
1.5344088976377952
21
2.0010905511811021
0
LINE
8
BLACK
6
CONTINUOUS
10
1.5344088976377952
20
2.0010905511811021
11
1.5394842519685039
21
1.9960151968503936
0
LINE
8
BLACK
6
CONTINUOUS
10
1.5394842519685039
20
1.9960151968503936
11
1.5434719291338583
21
1.9900472047244093
0
LINE
8
BLACK
6
CONTINUOUS
10
1.5434719291338583
20
1.9900472047244093
11
1.5462187007874015
21
1.9834159448818898
0
LINE
8
BLACK
6
CONTINUOUS
10
1.5462187007874015
20
1.9834159448818898
11
1.5476189763779526
21
1.9763762204724409
0
LINE
8
BLACK
6
CONTINUOUS
10
1.5476189763779526
20
1.9763762204724409
11
1.5476189763779526
21
1.9691985826771654
0
LINE
8
BLACK
6
CONTINUOUS
10
1.5476189763779526
20
1.9691985826771654
11
1.5462187007874015
21
1.9621588582677165
0
LINE
8
BLACK
6
CONTINUOUS
10
1.5462187007874015
20
1.9621588582677165
11
1.5434719291338583
21
1.9555275984251967
0
LINE
8
BLACK
6
CONTINUOUS
10
1.5434719291338583
20
1.9555275984251967
11
1.5394842519685039
21
1.9495596062992127
0
LINE
8
BLACK
6
CONTINUOUS
10
1.5394842519685039
20
1.9495596062992127
11
1.5344088976377952
21
1.9444842519685039
0
LINE
8
BLACK
6
CONTINUOUS
10
1.5344088976377952
20
1.9444842519685039
11
1.5284409055118109
21
1.9404965748031495
0
LINE
8
BLACK
6
CONTINUOUS
10
1.5284409055118109
20
1.9404965748031495
11
1.5218096456692913
21
1.9377498031496063
0
LINE
8
BLACK
6
CONTINUOUS
10
1.5218096456692913
20
1.9377498031496063
11
1.5147699212598424
21
1.936349527559055
0
LINE
8
BLACK
6
CONTINUOUS
10
1.5147699212598424
20
1.936349527559055
11
1.507592283464567
21
1.936349527559055
0
LINE
8
BLACK
6
CONTINUOUS
10
1.507592283464567
20
1.936349527559055
11
1.5005525590551181
21
1.9377498031496063
0
LINE
8
BLACK
6
CONTINUOUS
10
1.5005525590551181
20
1.9377498031496063
11
1.4939212992125983
21
1.9404965748031495
0
LINE
8
BLACK
6
CONTINUOUS
10
1.4939212992125983
20
1.9404965748031495
11
1.4879533070866142
21
1.9444842519685039
0
LINE
8
BLACK
6
CONTINUOUS
10
1.4879533070866142
20
1.9444842519685039
11
1.4828779527559055
21
1.9495596062992127
0
LINE
8
BLACK
6
CONTINUOUS
10
1.4828779527559055
20
1.9495596062992127
11
1.4788902755905511
21
1.9555275984251967
0
LINE
8
BLACK
6
CONTINUOUS
10
1.4788902755905511
20
1.9555275984251967
11
1.4761435039370079
21
1.9621588582677165
0
LINE
8
BLACK
6
CONTINUOUS
10
1.4761435039370079
20
1.9621588582677165
11
1.4747432283464568
21
1.9691985826771654
0
LINE
8
BLACK
6
CONTINUOUS
10
1.4747432283464568
20
1.9691985826771654
11
1.4747432283464568
21
1.9763762204724409
0
LINE
8
BLACK
6
CONTINUOUS
10
1.4747432283464568
20
1.9763762204724409
11
1.4761435039370079
21
1.9834159448818898
0
LINE
8
BLACK
6
CONTINUOUS
10
1.4761435039370079
20
1.9834159448818898
11
1.4788902755905511
21
1.9900472047244093
0
LINE
8
BLACK
6
CONTINUOUS
10
1.4788902755905511
20
1.9900472047244093
11
1.4828779527559055
21
1.9960151968503936
0
LINE
8
BLACK
6
CONTINUOUS
10
1.4828779527559055
20
1.9960151968503936
11
1.4879533070866142
21
2.0010905511811021
0
LINE
8
BLACK
6
CONTINUOUS
10
1.4879533070866142
20
2.0010905511811021
11
1.4939212992125983
21
2.0050782283464565
0
LINE
8
BLACK
6
CONTINUOUS
10
1.4939212992125983
20
2.0050782283464565
11
1.5005525590551181
21
2.007825
0
LINE
8
BLACK
6
CONTINUOUS
10
1.5005525590551181
20
2.007825
11
1.507592283464567
21
2.0092252755905511
0
LINE
8
BLACK
6
CONTINUOUS
10
1.507592283464567
20
2.0092252755905511
11
1.5147699212598424
21
2.0092252755905511
0
LINE
8
BLACK
6
CONTINUOUS
10
1.5147699212598424
20
2.0092252755905511
11
1.5218096456692913
21
2.007825
0
LINE
8
BLACK
6
CONTINUOUS
10
1.6218096456692912
20
2.007825
11
1.628440905511811
21
2.0050782283464565
0
LINE
8
BLACK
6
CONTINUOUS
10
1.628440905511811
20
2.0050782283464565
11
1.6344088976377953
21
2.0010905511811021
0
LINE
8
BLACK
6
CONTINUOUS
10
1.6344088976377953
20
2.0010905511811021
11
1.639484251968504
21
1.9960151968503936
0
LINE
8
BLACK
6
CONTINUOUS
10
1.639484251968504
20
1.9960151968503936
11
1.6434719291338582
21
1.9900472047244093
0
LINE
8
BLACK
6
CONTINUOUS
10
1.6434719291338582
20
1.9900472047244093
11
1.6462187007874016
21
1.9834159448818898
0
LINE
8
BLACK
6
CONTINUOUS
10
1.6462187007874016
20
1.9834159448818898
11
1.6476189763779527
21
1.9763762204724409
0
LINE
8
BLACK
6
CONTINUOUS
10
1.6476189763779527
20
1.9763762204724409
11
1.6476189763779527
21
1.9691985826771654
0
LINE
8
BLACK
6
CONTINUOUS
10
1.6476189763779527
20
1.9691985826771654
11
1.6462187007874016
21
1.9621588582677165
0
LINE
8
BLACK
6
CONTINUOUS
10
1.6462187007874016
20
1.9621588582677165
11
1.6434719291338582
21
1.9555275984251967
0
LINE
8
BLACK
6
CONTINUOUS
10
1.6434719291338582
20
1.9555275984251967
11
1.639484251968504
21
1.9495596062992127
0
LINE
8
BLACK
6
CONTINUOUS
10
1.639484251968504
20
1.9495596062992127
11
1.6344088976377953
21
1.9444842519685039
0
LINE
8
BLACK
6
CONTINUOUS
10
1.6344088976377953
20
1.9444842519685039
11
1.628440905511811
21
1.9404965748031495
0
LINE
8
BLACK
6
CONTINUOUS
10
1.628440905511811
20
1.9404965748031495
11
1.6218096456692912
21
1.9377498031496063
0
LINE
8
BLACK
6
CONTINUOUS
10
1.6218096456692912
20
1.9377498031496063
11
1.6147699212598425
21
1.936349527559055
0
LINE
8
BLACK
6
CONTINUOUS
10
1.6147699212598425
20
1.936349527559055
11
1.6075922834645668
21
1.936349527559055
0
LINE
8
BLACK
6
CONTINUOUS
10
1.6075922834645668
20
1.936349527559055
11
1.6005525590551182
21
1.9377498031496063
0
LINE
8
BLACK
6
CONTINUOUS
10
1.6005525590551182
20
1.9377498031496063
11
1.5939212992125984
21
1.9404965748031495
0
LINE
8
BLACK
6
CONTINUOUS
10
1.5939212992125984
20
1.9404965748031495
11
1.5879533070866141
21
1.9444842519685039
0
LINE
8
BLACK
6
CONTINUOUS
10
1.5879533070866141
20
1.9444842519685039
11
1.5828779527559054
21
1.9495596062992127
0
LINE
8
BLACK
6
CONTINUOUS
10
1.5828779527559054
20
1.9495596062992127
11
1.5788902755905512
21
1.9555275984251967
0
LINE
8
BLACK
6
CONTINUOUS
10
1.5788902755905512
20
1.9555275984251967
11
1.5761435039370078
21
1.9621588582677165
0
LINE
8
BLACK
6
CONTINUOUS
10
1.5761435039370078
20
1.9621588582677165
11
1.5747432283464566
21
1.9691985826771654
0
LINE
8
BLACK
6
CONTINUOUS
10
1.5747432283464566
20
1.9691985826771654
11
1.5747432283464566
21
1.9763762204724409
0
LINE
8
BLACK
6
CONTINUOUS
10
1.5747432283464566
20
1.9763762204724409
11
1.5761435039370078
21
1.9834159448818898
0
LINE
8
BLACK
6
CONTINUOUS
10
1.5761435039370078
20
1.9834159448818898
11
1.5788902755905512
21
1.9900472047244093
0
LINE
8
BLACK
6
CONTINUOUS
10
1.5788902755905512
20
1.9900472047244093
11
1.5828779527559054
21
1.9960151968503936
0
LINE
8
BLACK
6
CONTINUOUS
10
1.5828779527559054
20
1.9960151968503936
11
1.5879533070866141
21
2.0010905511811021
0
LINE
8
BLACK
6
CONTINUOUS
10
1.5879533070866141
20
2.0010905511811021
11
1.5939212992125984
21
2.0050782283464565
0
LINE
8
BLACK
6
CONTINUOUS
10
1.5939212992125984
20
2.0050782283464565
11
1.6005525590551182
21
2.007825
0
LINE
8
BLACK
6
CONTINUOUS
10
1.6005525590551182
20
2.007825
11
1.6075922834645668
21
2.0092252755905511
0
LINE
8
BLACK
6
CONTINUOUS
10
1.6075922834645668
20
2.0092252755905511
11
1.6147699212598425
21
2.0092252755905511
0
LINE
8
BLACK
6
CONTINUOUS
10
1.6147699212598425
20
2.0092252755905511
11
1.6218096456692912
21
2.007825
0
LINE
8
BLACK
6
CONTINUOUS
10
1.7218096456692913
20
2.007825
11
1.7284409055118111
21
2.0050782283464565
0
LINE
8
BLACK
6
CONTINUOUS
10
1.7284409055118111
20
2.0050782283464565
11
1.7344088976377952
21
2.0010905511811021
0
LINE
8
BLACK
6
CONTINUOUS
10
1.7344088976377952
20
2.0010905511811021
11
1.7394842519685039
21
1.9960151968503936
0
LINE
8
BLACK
6
CONTINUOUS
10
1.7394842519685039
20
1.9960151968503936
11
1.7434719291338583
21
1.9900472047244093
0
LINE
8
BLACK
6
CONTINUOUS
10
1.7434719291338583
20
1.9900472047244093
11
1.7462187007874015
21
1.9834159448818898
0
LINE
8
BLACK
6
CONTINUOUS
10
1.7462187007874015
20
1.9834159448818898
11
1.7476189763779528
21
1.9763762204724409
0
LINE
8
BLACK
6
CONTINUOUS
10
1.7476189763779528
20
1.9763762204724409
11
1.7476189763779528
21
1.9691985826771654
0
LINE
8
BLACK
6
CONTINUOUS
10
1.7476189763779528
20
1.9691985826771654
11
1.7462187007874015
21
1.9621588582677165
0
LINE
8
BLACK
6
CONTINUOUS
10
1.7462187007874015
20
1.9621588582677165
11
1.7434719291338583
21
1.9555275984251967
0
LINE
8
BLACK
6
CONTINUOUS
10
1.7434719291338583
20
1.9555275984251967
11
1.7394842519685039
21
1.9495596062992127
0
LINE
8
BLACK
6
CONTINUOUS
10
1.7394842519685039
20
1.9495596062992127
11
1.7344088976377952
21
1.9444842519685039
0
LINE
8
BLACK
6
CONTINUOUS
10
1.7344088976377952
20
1.9444842519685039
11
1.7284409055118111
21
1.9404965748031495
0
LINE
8
BLACK
6
CONTINUOUS
10
1.7284409055118111
20
1.9404965748031495
11
1.7218096456692913
21
1.9377498031496063
0
LINE
8
BLACK
6
CONTINUOUS
10
1.7218096456692913
20
1.9377498031496063
11
1.7147699212598424
21
1.936349527559055
0
LINE
8
BLACK
6
CONTINUOUS
10
1.7147699212598424
20
1.936349527559055
11
1.7075922834645669
21
1.936349527559055
0
LINE
8
BLACK
6
CONTINUOUS
10
1.7075922834645669
20
1.936349527559055
11
1.700552559055118
21
1.9377498031496063
0
LINE
8
BLACK
6
CONTINUOUS
10
1.700552559055118
20
1.9377498031496063
11
1.6939212992125985
21
1.9404965748031495
0
LINE
8
BLACK
6
CONTINUOUS
10
1.6939212992125985
20
1.9404965748031495
11
1.6879533070866142
21
1.9444842519685039
0
LINE
8
BLACK
6
CONTINUOUS
10
1.6879533070866142
20
1.9444842519685039
11
1.6828779527559055
21
1.9495596062992127
0
LINE
8
BLACK
6
CONTINUOUS
10
1.6828779527559055
20
1.9495596062992127
11
1.678890275590551
21
1.9555275984251967
0
LINE
8
BLACK
6
CONTINUOUS
10
1.678890275590551
20
1.9555275984251967
11
1.6761435039370078
21
1.9621588582677165
0
LINE
8
BLACK
6
CONTINUOUS
10
1.6761435039370078
20
1.9621588582677165
11
1.6747432283464567
21
1.9691985826771654
0
LINE
8
BLACK
6
CONTINUOUS
10
1.6747432283464567
20
1.9691985826771654
11
1.6747432283464567
21
1.9763762204724409
0
LINE
8
BLACK
6
CONTINUOUS
10
1.6747432283464567
20
1.9763762204724409
11
1.6761435039370078
21
1.9834159448818898
0
LINE
8
BLACK
6
CONTINUOUS
10
1.6761435039370078
20
1.9834159448818898
11
1.678890275590551
21
1.9900472047244093
0
LINE
8
BLACK
6
CONTINUOUS
10
1.678890275590551
20
1.9900472047244093
11
1.6828779527559055
21
1.9960151968503936
0
LINE
8
BLACK
6
CONTINUOUS
10
1.6828779527559055
20
1.9960151968503936
11
1.6879533070866142
21
2.0010905511811021
0
LINE
8
BLACK
6
CONTINUOUS
10
1.6879533070866142
20
2.0010905511811021
11
1.6939212992125985
21
2.0050782283464565
0
LINE
8
BLACK
6
CONTINUOUS
10
1.6939212992125985
20
2.0050782283464565
11
1.700552559055118
21
2.007825
0
LINE
8
BLACK
6
CONTINUOUS
10
1.700552559055118
20
2.007825
11
1.7075922834645669
21
2.0092252755905511
0
LINE
8
BLACK
6
CONTINUOUS
10
1.7075922834645669
20
2.0092252755905511
11
1.7147699212598424
21
2.0092252755905511
0
LINE
8
BLACK
6
CONTINUOUS
10
1.7147699212598424
20
2.0092252755905511
11
1.7218096456692913
21
2.007825
0
LINE
8
BLACK
6
CONTINUOUS
10
1.8218096456692914
20
2.007825
11
1.8284409055118109
21
2.0050782283464565
0
LINE
8
BLACK
6
CONTINUOUS
10
1.8284409055118109
20
2.0050782283464565
11
1.8344088976377952
21
2.0010905511811021
0
LINE
8
BLACK
6
CONTINUOUS
10
1.8344088976377952
20
2.0010905511811021
11
1.839484251968504
21
1.9960151968503936
0
LINE
8
BLACK
6
CONTINUOUS
10
1.839484251968504
20
1.9960151968503936
11
1.8434719291338582
21
1.9900472047244093
0
LINE
8
BLACK
6
CONTINUOUS
10
1.8434719291338582
20
1.9900472047244093
11
1.8462187007874016
21
1.9834159448818898
0
LINE
8
BLACK
6
CONTINUOUS
10
1.8462187007874016
20
1.9834159448818898
11
1.8476189763779527
21
1.9763762204724409
0
LINE
8
BLACK
6
CONTINUOUS
10
1.8476189763779527
20
1.9763762204724409
11
1.8476189763779527
21
1.9691985826771654
0
LINE
8
BLACK
6
CONTINUOUS
10
1.8476189763779527
20
1.9691985826771654
11
1.8462187007874016
21
1.9621588582677165
0
LINE
8
BLACK
6
CONTINUOUS
10
1.8462187007874016
20
1.9621588582677165
11
1.8434719291338582
21
1.9555275984251967
0
LINE
8
BLACK
6
CONTINUOUS
10
1.8434719291338582
20
1.9555275984251967
11
1.839484251968504
21
1.9495596062992127
0
LINE
8
BLACK
6
CONTINUOUS
10
1.839484251968504
20
1.9495596062992127
11
1.8344088976377952
21
1.9444842519685039
0
LINE
8
BLACK
6
CONTINUOUS
10
1.8344088976377952
20
1.9444842519685039
11
1.8284409055118109
21
1.9404965748031495
0
LINE
8
BLACK
6
CONTINUOUS
10
1.8284409055118109
20
1.9404965748031495
11
1.8218096456692914
21
1.9377498031496063
0
LINE
8
BLACK
6
CONTINUOUS
10
1.8218096456692914
20
1.9377498031496063
11
1.8147699212598425
21
1.936349527559055
0
LINE
8
BLACK
6
CONTINUOUS
10
1.8147699212598425
20
1.936349527559055
11
1.8075922834645668
21
1.936349527559055
0
LINE
8
BLACK
6
CONTINUOUS
10
1.8075922834645668
20
1.936349527559055
11
1.8005525590551181
21
1.9377498031496063
0
LINE
8
BLACK
6
CONTINUOUS
10
1.8005525590551181
20
1.9377498031496063
11
1.7939212992125984
21
1.9404965748031495
0
LINE
8
BLACK
6
CONTINUOUS
10
1.7939212992125984
20
1.9404965748031495
11
1.787953307086614
21
1.9444842519685039
0
LINE
8
BLACK
6
CONTINUOUS
10
1.787953307086614
20
1.9444842519685039
11
1.7828779527559055
21
1.9495596062992127
0
LINE
8
BLACK
6
CONTINUOUS
10
1.7828779527559055
20
1.9495596062992127
11
1.7788902755905511
21
1.9555275984251967
0
LINE
8
BLACK
6
CONTINUOUS
10
1.7788902755905511
20
1.9555275984251967
11
1.7761435039370079
21
1.9621588582677165
0
LINE
8
BLACK
6
CONTINUOUS
10
1.7761435039370079
20
1.9621588582677165
11
1.7747432283464566
21
1.9691985826771654
0
LINE
8
BLACK
6
CONTINUOUS
10
1.7747432283464566
20
1.9691985826771654
11
1.7747432283464566
21
1.9763762204724409
0
LINE
8
BLACK
6
CONTINUOUS
10
1.7747432283464566
20
1.9763762204724409
11
1.7761435039370079
21
1.9834159448818898
0
LINE
8
BLACK
6
CONTINUOUS
10
1.7761435039370079
20
1.9834159448818898
11
1.7788902755905511
21
1.9900472047244093
0
LINE
8
BLACK
6
CONTINUOUS
10
1.7788902755905511
20
1.9900472047244093
11
1.7828779527559055
21
1.9960151968503936
0
LINE
8
BLACK
6
CONTINUOUS
10
1.7828779527559055
20
1.9960151968503936
11
1.787953307086614
21
2.0010905511811021
0
LINE
8
BLACK
6
CONTINUOUS
10
1.787953307086614
20
2.0010905511811021
11
1.7939212992125984
21
2.0050782283464565
0
LINE
8
BLACK
6
CONTINUOUS
10
1.7939212992125984
20
2.0050782283464565
11
1.8005525590551181
21
2.007825
0
LINE
8
BLACK
6
CONTINUOUS
10
1.8005525590551181
20
2.007825
11
1.8075922834645668
21
2.0092252755905511
0
LINE
8
BLACK
6
CONTINUOUS
10
1.8075922834645668
20
2.0092252755905511
11
1.8147699212598425
21
2.0092252755905511
0
LINE
8
BLACK
6
CONTINUOUS
10
1.8147699212598425
20
2.0092252755905511
11
1.8218096456692914
21
2.007825
0
LINE
8
BLACK
6
CONTINUOUS
10
1.9218096456692912
20
2.007825
11
1.928440905511811
21
2.0050782283464565
0
LINE
8
BLACK
6
CONTINUOUS
10
1.928440905511811
20
2.0050782283464565
11
1.9344088976377953
21
2.0010905511811021
0
LINE
8
BLACK
6
CONTINUOUS
10
1.9344088976377953
20
2.0010905511811021
11
1.9394842519685038
21
1.9960151968503936
0
LINE
8
BLACK
6
CONTINUOUS
10
1.9394842519685038
20
1.9960151968503936
11
1.9434719291338582
21
1.9900472047244093
0
LINE
8
BLACK
6
CONTINUOUS
10
1.9434719291338582
20
1.9900472047244093
11
1.9462187007874014
21
1.9834159448818898
0
LINE
8
BLACK
6
CONTINUOUS
10
1.9462187007874014
20
1.9834159448818898
11
1.9476189763779528
21
1.9763762204724409
0
LINE
8
BLACK
6
CONTINUOUS
10
1.9476189763779528
20
1.9763762204724409
11
1.9476189763779528
21
1.9691985826771654
0
LINE
8
BLACK
6
CONTINUOUS
10
1.9476189763779528
20
1.9691985826771654
11
1.9462187007874014
21
1.9621588582677165
0
LINE
8
BLACK
6
CONTINUOUS
10
1.9462187007874014
20
1.9621588582677165
11
1.9434719291338582
21
1.9555275984251967
0
LINE
8
BLACK
6
CONTINUOUS
10
1.9434719291338582
20
1.9555275984251967
11
1.9394842519685038
21
1.9495596062992127
0
LINE
8
BLACK
6
CONTINUOUS
10
1.9394842519685038
20
1.9495596062992127
11
1.9344088976377953
21
1.9444842519685039
0
LINE
8
BLACK
6
CONTINUOUS
10
1.9344088976377953
20
1.9444842519685039
11
1.928440905511811
21
1.9404965748031495
0
LINE
8
BLACK
6
CONTINUOUS
10
1.928440905511811
20
1.9404965748031495
11
1.9218096456692912
21
1.9377498031496063
0
LINE
8
BLACK
6
CONTINUOUS
10
1.9218096456692912
20
1.9377498031496063
11
1.9147699212598426
21
1.936349527559055
0
LINE
8
BLACK
6
CONTINUOUS
10
1.9147699212598426
20
1.936349527559055
11
1.9075922834645669
21
1.936349527559055
0
LINE
8
BLACK
6
CONTINUOUS
10
1.9075922834645669
20
1.936349527559055
11
1.900552559055118
21
1.9377498031496063
0
LINE
8
BLACK
6
CONTINUOUS
10
1.900552559055118
20
1.9377498031496063
11
1.8939212992125984
21
1.9404965748031495
0
LINE
8
BLACK
6
CONTINUOUS
10
1.8939212992125984
20
1.9404965748031495
11
1.8879533070866141
21
1.9444842519685039
0
LINE
8
BLACK
6
CONTINUOUS
10
1.8879533070866141
20
1.9444842519685039
11
1.8828779527559054
21
1.9495596062992127
0
LINE
8
BLACK
6
CONTINUOUS
10
1.8828779527559054
20
1.9495596062992127
11
1.8788902755905512
21
1.9555275984251967
0
LINE
8
BLACK
6
CONTINUOUS
10
1.8788902755905512
20
1.9555275984251967
11
1.8761435039370078
21
1.9621588582677165
0
LINE
8
BLACK
6
CONTINUOUS
10
1.8761435039370078
20
1.9621588582677165
11
1.8747432283464567
21
1.9691985826771654
0
LINE
8
BLACK
6
CONTINUOUS
10
1.8747432283464567
20
1.9691985826771654
11
1.8747432283464567
21
1.9763762204724409
0
LINE
8
BLACK
6
CONTINUOUS
10
1.8747432283464567
20
1.9763762204724409
11
1.8761435039370078
21
1.9834159448818898
0
LINE
8
BLACK
6
CONTINUOUS
10
1.8761435039370078
20
1.9834159448818898
11
1.8788902755905512
21
1.9900472047244093
0
LINE
8
BLACK
6
CONTINUOUS
10
1.8788902755905512
20
1.9900472047244093
11
1.8828779527559054
21
1.9960151968503936
0
LINE
8
BLACK
6
CONTINUOUS
10
1.8828779527559054
20
1.9960151968503936
11
1.8879533070866141
21
2.0010905511811021
0
LINE
8
BLACK
6
CONTINUOUS
10
1.8879533070866141
20
2.0010905511811021
11
1.8939212992125984
21
2.0050782283464565
0
LINE
8
BLACK
6
CONTINUOUS
10
1.8939212992125984
20
2.0050782283464565
11
1.900552559055118
21
2.007825
0
LINE
8
BLACK
6
CONTINUOUS
10
1.900552559055118
20
2.007825
11
1.9075922834645669
21
2.0092252755905511
0
LINE
8
BLACK
6
CONTINUOUS
10
1.9075922834645669
20
2.0092252755905511
11
1.9147699212598426
21
2.0092252755905511
0
LINE
8
BLACK
6
CONTINUOUS
10
1.9147699212598426
20
2.0092252755905511
11
1.9218096456692912
21
2.007825
0
LINE
8
BLACK
6
CONTINUOUS
10
2.0218096456692911
20
2.007825
11
2.0284409055118111
21
2.0050782283464565
0
LINE
8
BLACK
6
CONTINUOUS
10
2.0284409055118111
20
2.0050782283464565
11
2.0344088976377952
21
2.0010905511811021
0
LINE
8
BLACK
6
CONTINUOUS
10
2.0344088976377952
20
2.0010905511811021
11
2.0394842519685037
21
1.9960151968503936
0
LINE
8
BLACK
6
CONTINUOUS
10
2.0394842519685037
20
1.9960151968503936
11
2.0434719291338581
21
1.9900472047244093
0
LINE
8
BLACK
6
CONTINUOUS
10
2.0434719291338581
20
1.9900472047244093
11
2.0462187007874015
21
1.9834159448818898
0
LINE
8
BLACK
6
CONTINUOUS
10
2.0462187007874015
20
1.9834159448818898
11
2.0476189763779526
21
1.9763762204724409
0
LINE
8
BLACK
6
CONTINUOUS
10
2.0476189763779526
20
1.9763762204724409
11
2.0476189763779526
21
1.9691985826771654
0
LINE
8
BLACK
6
CONTINUOUS
10
2.0476189763779526
20
1.9691985826771654
11
2.0462187007874015
21
1.9621588582677165
0
LINE
8
BLACK
6
CONTINUOUS
10
2.0462187007874015
20
1.9621588582677165
11
2.0434719291338581
21
1.9555275984251967
0
LINE
8
BLACK
6
CONTINUOUS
10
2.0434719291338581
20
1.9555275984251967
11
2.0394842519685037
21
1.9495596062992127
0
LINE
8
BLACK
6
CONTINUOUS
10
2.0394842519685037
20
1.9495596062992127
11
2.0344088976377952
21
1.9444842519685039
0
LINE
8
BLACK
6
CONTINUOUS
10
2.0344088976377952
20
1.9444842519685039
11
2.0284409055118111
21
1.9404965748031495
0
LINE
8
BLACK
6
CONTINUOUS
10
2.0284409055118111
20
1.9404965748031495
11
2.0218096456692911
21
1.9377498031496063
0
LINE
8
BLACK
6
CONTINUOUS
10
2.0218096456692911
20
1.9377498031496063
11
2.0147699212598424
21
1.936349527559055
0
LINE
8
BLACK
6
CONTINUOUS
10
2.0147699212598424
20
1.936349527559055
11
2.0075922834645668
21
1.936349527559055
0
LINE
8
BLACK
6
CONTINUOUS
10
2.0075922834645668
20
1.936349527559055
11
2.0005525590551181
21
1.9377498031496063
0
LINE
8
BLACK
6
CONTINUOUS
10
2.0005525590551181
20
1.9377498031496063
11
1.9939212992125983
21
1.9404965748031495
0
LINE
8
BLACK
6
CONTINUOUS
10
1.9939212992125983
20
1.9404965748031495
11
1.9879533070866142
21
1.9444842519685039
0
LINE
8
BLACK
6
CONTINUOUS
10
1.9879533070866142
20
1.9444842519685039
11
1.9828779527559055
21
1.9495596062992127
0
LINE
8
BLACK
6
CONTINUOUS
10
1.9828779527559055
20
1.9495596062992127
11
1.9788902755905511
21
1.9555275984251967
0
LINE
8
BLACK
6
CONTINUOUS
10
1.9788902755905511
20
1.9555275984251967
11
1.9761435039370079
21
1.9621588582677165
0
LINE
8
BLACK
6
CONTINUOUS
10
1.9761435039370079
20
1.9621588582677165
11
1.9747432283464565
21
1.9691985826771654
0
LINE
8
BLACK
6
CONTINUOUS
10
1.9747432283464565
20
1.9691985826771654
11
1.9747432283464565
21
1.9763762204724409
0
LINE
8
BLACK
6
CONTINUOUS
10
1.9747432283464565
20
1.9763762204724409
11
1.9761435039370079
21
1.9834159448818898
0
LINE
8
BLACK
6
CONTINUOUS
10
1.9761435039370079
20
1.9834159448818898
11
1.9788902755905511
21
1.9900472047244093
0
LINE
8
BLACK
6
CONTINUOUS
10
1.9788902755905511
20
1.9900472047244093
11
1.9828779527559055
21
1.9960151968503936
0
LINE
8
BLACK
6
CONTINUOUS
10
1.9828779527559055
20
1.9960151968503936
11
1.9879533070866142
21
2.0010905511811021
0
LINE
8
BLACK
6
CONTINUOUS
10
1.9879533070866142
20
2.0010905511811021
11
1.9939212992125983
21
2.0050782283464565
0
LINE
8
BLACK
6
CONTINUOUS
10
1.9939212992125983
20
2.0050782283464565
11
2.0005525590551181
21
2.007825
0
LINE
8
BLACK
6
CONTINUOUS
10
2.0005525590551181
20
2.007825
11
2.0075922834645668
21
2.0092252755905511
0
LINE
8
BLACK
6
CONTINUOUS
10
2.0075922834645668
20
2.0092252755905511
11
2.0147699212598424
21
2.0092252755905511
0
LINE
8
BLACK
6
CONTINUOUS
10
2.0147699212598424
20
2.0092252755905511
11
2.0218096456692911
21
2.007825
0
LINE
8
BLACK
6
CONTINUOUS
10
2.1218096456692912
20
2.007825
11
2.1284409055118108
21
2.0050782283464565
0
LINE
8
BLACK
6
CONTINUOUS
10
2.1284409055118108
20
2.0050782283464565
11
2.1344088976377953
21
2.0010905511811021
0
LINE
8
BLACK
6
CONTINUOUS
10
2.1344088976377953
20
2.0010905511811021
11
2.1394842519685038
21
1.9960151968503936
0
LINE
8
BLACK
6
CONTINUOUS
10
2.1394842519685038
20
1.9960151968503936
11
2.1434719291338582
21
1.9900472047244093
0
LINE
8
BLACK
6
CONTINUOUS
10
2.1434719291338582
20
1.9900472047244093
11
2.1462187007874016
21
1.9834159448818898
0
LINE
8
BLACK
6
CONTINUOUS
10
2.1462187007874016
20
1.9834159448818898
11
2.1476189763779527
21
1.9763762204724409
0
LINE
8
BLACK
6
CONTINUOUS
10
2.1476189763779527
20
1.9763762204724409
11
2.1476189763779527
21
1.9691985826771654
0
LINE
8
BLACK
6
CONTINUOUS
10
2.1476189763779527
20
1.9691985826771654
11
2.1462187007874016
21
1.9621588582677165
0
LINE
8
BLACK
6
CONTINUOUS
10
2.1462187007874016
20
1.9621588582677165
11
2.1434719291338582
21
1.9555275984251967
0
LINE
8
BLACK
6
CONTINUOUS
10
2.1434719291338582
20
1.9555275984251967
11
2.1394842519685038
21
1.9495596062992127
0
LINE
8
BLACK
6
CONTINUOUS
10
2.1394842519685038
20
1.9495596062992127
11
2.1344088976377953
21
1.9444842519685039
0
LINE
8
BLACK
6
CONTINUOUS
10
2.1344088976377953
20
1.9444842519685039
11
2.1284409055118108
21
1.9404965748031495
0
LINE
8
BLACK
6
CONTINUOUS
10
2.1284409055118108
20
1.9404965748031495
11
2.1218096456692912
21
1.9377498031496063
0
LINE
8
BLACK
6
CONTINUOUS
10
2.1218096456692912
20
1.9377498031496063
11
2.1147699212598425
21
1.936349527559055
0
LINE
8
BLACK
6
CONTINUOUS
10
2.1147699212598425
20
1.936349527559055
11
2.1075922834645668
21
1.936349527559055
0
LINE
8
BLACK
6
CONTINUOUS
10
2.1075922834645668
20
1.936349527559055
11
2.1005525590551182
21
1.9377498031496063
0
LINE
8
BLACK
6
CONTINUOUS
10
2.1005525590551182
20
1.9377498031496063
11
2.0939212992125982
21
1.9404965748031495
0
LINE
8
BLACK
6
CONTINUOUS
10
2.0939212992125982
20
1.9404965748031495
11
2.0879533070866141
21
1.9444842519685039
0
LINE
8
BLACK
6
CONTINUOUS
10
2.0879533070866141
20
1.9444842519685039
11
2.0828779527559056
21
1.9495596062992127
0
LINE
8
BLACK
6
CONTINUOUS
10
2.0828779527559056
20
1.9495596062992127
11
2.0788902755905512
21
1.9555275984251967
0
LINE
8
BLACK
6
CONTINUOUS
10
2.0788902755905512
20
1.9555275984251967
11
2.0761435039370078
21
1.9621588582677165
0
LINE
8
BLACK
6
CONTINUOUS
10
2.0761435039370078
20
1.9621588582677165
11
2.0747432283464566
21
1.9691985826771654
0
LINE
8
BLACK
6
CONTINUOUS
10
2.0747432283464566
20
1.9691985826771654
11
2.0747432283464566
21
1.9763762204724409
0
LINE
8
BLACK
6
CONTINUOUS
10
2.0747432283464566
20
1.9763762204724409
11
2.0761435039370078
21
1.9834159448818898
0
LINE
8
BLACK
6
CONTINUOUS
10
2.0761435039370078
20
1.9834159448818898
11
2.0788902755905512
21
1.9900472047244093
0
LINE
8
BLACK
6
CONTINUOUS
10
2.0788902755905512
20
1.9900472047244093
11
2.0828779527559056
21
1.9960151968503936
0
LINE
8
BLACK
6
CONTINUOUS
10
2.0828779527559056
20
1.9960151968503936
11
2.0879533070866141
21
2.0010905511811021
0
LINE
8
BLACK
6
CONTINUOUS
10
2.0879533070866141
20
2.0010905511811021
11
2.0939212992125982
21
2.0050782283464565
0
LINE
8
BLACK
6
CONTINUOUS
10
2.0939212992125982
20
2.0050782283464565
11
2.1005525590551182
21
2.007825
0
LINE
8
BLACK
6
CONTINUOUS
10
2.1005525590551182
20
2.007825
11
2.1075922834645668
21
2.0092252755905511
0
LINE
8
BLACK
6
CONTINUOUS
10
2.1075922834645668
20
2.0092252755905511
11
2.1147699212598425
21
2.0092252755905511
0
LINE
8
BLACK
6
CONTINUOUS
10
2.1147699212598425
20
2.0092252755905511
11
2.1218096456692912
21
2.007825
0
LINE
8
BLACK
6
CONTINUOUS
10
2.2218096456692913
20
2.007825
11
2.2284409055118108
21
2.0050782283464565
0
LINE
8
BLACK
6
CONTINUOUS
10
2.2284409055118108
20
2.0050782283464565
11
2.2344088976377954
21
2.0010905511811021
0
LINE
8
BLACK
6
CONTINUOUS
10
2.2344088976377954
20
2.0010905511811021
11
2.2394842519685039
21
1.9960151968503936
0
LINE
8
BLACK
6
CONTINUOUS
10
2.2394842519685039
20
1.9960151968503936
11
2.2434719291338583
21
1.9900472047244093
0
LINE
8
BLACK
6
CONTINUOUS
10
2.2434719291338583
20
1.9900472047244093
11
2.2462187007874017
21
1.9834159448818898
0
LINE
8
BLACK
6
CONTINUOUS
10
2.2462187007874017
20
1.9834159448818898
11
2.2476189763779528
21
1.9763762204724409
0
LINE
8
BLACK
6
CONTINUOUS
10
2.2476189763779528
20
1.9763762204724409
11
2.2476189763779528
21
1.9691985826771654
0
LINE
8
BLACK
6
CONTINUOUS
10
2.2476189763779528
20
1.9691985826771654
11
2.2462187007874017
21
1.9621588582677165
0
LINE
8
BLACK
6
CONTINUOUS
10
2.2462187007874017
20
1.9621588582677165
11
2.2434719291338583
21
1.9555275984251967
0
LINE
8
BLACK
6
CONTINUOUS
10
2.2434719291338583
20
1.9555275984251967
11
2.2394842519685039
21
1.9495596062992127
0
LINE
8
BLACK
6
CONTINUOUS
10
2.2394842519685039
20
1.9495596062992127
11
2.2344088976377954
21
1.9444842519685039
0
LINE
8
BLACK
6
CONTINUOUS
10
2.2344088976377954
20
1.9444842519685039
11
2.2284409055118108
21
1.9404965748031495
0
LINE
8
BLACK
6
CONTINUOUS
10
2.2284409055118108
20
1.9404965748031495
11
2.2218096456692913
21
1.9377498031496063
0
LINE
8
BLACK
6
CONTINUOUS
10
2.2218096456692913
20
1.9377498031496063
11
2.2147699212598426
21
1.936349527559055
0
LINE
8
BLACK
6
CONTINUOUS
10
2.2147699212598426
20
1.936349527559055
11
2.2075922834645669
21
1.936349527559055
0
LINE
8
BLACK
6
CONTINUOUS
10
2.2075922834645669
20
1.936349527559055
11
2.2005525590551183
21
1.9377498031496063
0
LINE
8
BLACK
6
CONTINUOUS
10
2.2005525590551183
20
1.9377498031496063
11
2.1939212992125983
21
1.9404965748031495
0
LINE
8
BLACK
6
CONTINUOUS
10
2.1939212992125983
20
1.9404965748031495
11
2.1879533070866142
21
1.9444842519685039
0
LINE
8
BLACK
6
CONTINUOUS
10
2.1879533070866142
20
1.9444842519685039
11
2.1828779527559057
21
1.9495596062992127
0
LINE
8
BLACK
6
CONTINUOUS
10
2.1828779527559057
20
1.9495596062992127
11
2.1788902755905513
21
1.9555275984251967
0
LINE
8
BLACK
6
CONTINUOUS
10
2.1788902755905513
20
1.9555275984251967
11
2.1761435039370078
21
1.9621588582677165
0
LINE
8
BLACK
6
CONTINUOUS
10
2.1761435039370078
20
1.9621588582677165
11
2.1747432283464567
21
1.9691985826771654
0
LINE
8
BLACK
6
CONTINUOUS
10
2.1747432283464567
20
1.9691985826771654
11
2.1747432283464567
21
1.9763762204724409
0
LINE
8
BLACK
6
CONTINUOUS
10
2.1747432283464567
20
1.9763762204724409
11
2.1761435039370078
21
1.9834159448818898
0
LINE
8
BLACK
6
CONTINUOUS
10
2.1761435039370078
20
1.9834159448818898
11
2.1788902755905513
21
1.9900472047244093
0
LINE
8
BLACK
6
CONTINUOUS
10
2.1788902755905513
20
1.9900472047244093
11
2.1828779527559057
21
1.9960151968503936
0
LINE
8
BLACK
6
CONTINUOUS
10
2.1828779527559057
20
1.9960151968503936
11
2.1879533070866142
21
2.0010905511811021
0
LINE
8
BLACK
6
CONTINUOUS
10
2.1879533070866142
20
2.0010905511811021
11
2.1939212992125983
21
2.0050782283464565
0
LINE
8
BLACK
6
CONTINUOUS
10
2.1939212992125983
20
2.0050782283464565
11
2.2005525590551183
21
2.007825
0
LINE
8
BLACK
6
CONTINUOUS
10
2.2005525590551183
20
2.007825
11
2.2075922834645669
21
2.0092252755905511
0
LINE
8
BLACK
6
CONTINUOUS
10
2.2075922834645669
20
2.0092252755905511
11
2.2147699212598426
21
2.0092252755905511
0
LINE
8
BLACK
6
CONTINUOUS
10
2.2147699212598426
20
2.0092252755905511
11
2.2218096456692913
21
2.007825
0
LINE
8
BLACK
6
CONTINUOUS
10
2.3218096456692914
20
2.007825
11
2.3284409055118109
21
2.0050782283464565
0
LINE
8
BLACK
6
CONTINUOUS
10
2.3284409055118109
20
2.0050782283464565
11
2.334408897637795
21
2.0010905511811021
0
LINE
8
BLACK
6
CONTINUOUS
10
2.334408897637795
20
2.0010905511811021
11
2.339484251968504
21
1.9960151968503936
0
LINE
8
BLACK
6
CONTINUOUS
10
2.339484251968504
20
1.9960151968503936
11
2.3434719291338584
21
1.9900472047244093
0
LINE
8
BLACK
6
CONTINUOUS
10
2.3434719291338584
20
1.9900472047244093
11
2.3462187007874014
21
1.9834159448818898
0
LINE
8
BLACK
6
CONTINUOUS
10
2.3462187007874014
20
1.9834159448818898
11
2.3476189763779529
21
1.9763762204724409
0
LINE
8
BLACK
6
CONTINUOUS
10
2.3476189763779529
20
1.9763762204724409
11
2.3476189763779529
21
1.9691985826771654
0
LINE
8
BLACK
6
CONTINUOUS
10
2.3476189763779529
20
1.9691985826771654
11
2.3462187007874014
21
1.9621588582677165
0
LINE
8
BLACK
6
CONTINUOUS
10
2.3462187007874014
20
1.9621588582677165
11
2.3434719291338584
21
1.9555275984251967
0
LINE
8
BLACK
6
CONTINUOUS
10
2.3434719291338584
20
1.9555275984251967
11
2.339484251968504
21
1.9495596062992127
0
LINE
8
BLACK
6
CONTINUOUS
10
2.339484251968504
20
1.9495596062992127
11
2.334408897637795
21
1.9444842519685039
0
LINE
8
BLACK
6
CONTINUOUS
10
2.334408897637795
20
1.9444842519685039
11
2.3284409055118109
21
1.9404965748031495
0
LINE
8
BLACK
6
CONTINUOUS
10
2.3284409055118109
20
1.9404965748031495
11
2.3218096456692914
21
1.9377498031496063
0
LINE
8
BLACK
6
CONTINUOUS
10
2.3218096456692914
20
1.9377498031496063
11
2.3147699212598423
21
1.936349527559055
0
LINE
8
BLACK
6
CONTINUOUS
10
2.3147699212598423
20
1.936349527559055
11
2.307592283464567
21
1.936349527559055
0
LINE
8
BLACK
6
CONTINUOUS
10
2.307592283464567
20
1.936349527559055
11
2.3005525590551179
21
1.9377498031496063
0
LINE
8
BLACK
6
CONTINUOUS
10
2.3005525590551179
20
1.9377498031496063
11
2.2939212992125984
21
1.9404965748031495
0
LINE
8
BLACK
6
CONTINUOUS
10
2.2939212992125984
20
1.9404965748031495
11
2.2879533070866143
21
1.9444842519685039
0
LINE
8
BLACK
6
CONTINUOUS
10
2.2879533070866143
20
1.9444842519685039
11
2.2828779527559053
21
1.9495596062992127
0
LINE
8
BLACK
6
CONTINUOUS
10
2.2828779527559053
20
1.9495596062992127
11
2.2788902755905514
21
1.9555275984251967
0
LINE
8
BLACK
6
CONTINUOUS
10
2.2788902755905514
20
1.9555275984251967
11
2.2761435039370079
21
1.9621588582677165
0
LINE
8
BLACK
6
CONTINUOUS
10
2.2761435039370079
20
1.9621588582677165
11
2.2747432283464568
21
1.9691985826771654
0
LINE
8
BLACK
6
CONTINUOUS
10
2.2747432283464568
20
1.9691985826771654
11
2.2747432283464568
21
1.9763762204724409
0
LINE
8
BLACK
6
CONTINUOUS
10
2.2747432283464568
20
1.9763762204724409
11
2.2761435039370079
21
1.9834159448818898
0
LINE
8
BLACK
6
CONTINUOUS
10
2.2761435039370079
20
1.9834159448818898
11
2.2788902755905514
21
1.9900472047244093
0
LINE
8
BLACK
6
CONTINUOUS
10
2.2788902755905514
20
1.9900472047244093
11
2.2828779527559053
21
1.9960151968503936
0
LINE
8
BLACK
6
CONTINUOUS
10
2.2828779527559053
20
1.9960151968503936
11
2.2879533070866143
21
2.0010905511811021
0
LINE
8
BLACK
6
CONTINUOUS
10
2.2879533070866143
20
2.0010905511811021
11
2.2939212992125984
21
2.0050782283464565
0
LINE
8
BLACK
6
CONTINUOUS
10
2.2939212992125984
20
2.0050782283464565
11
2.3005525590551179
21
2.007825
0
LINE
8
BLACK
6
CONTINUOUS
10
2.3005525590551179
20
2.007825
11
2.307592283464567
21
2.0092252755905511
0
LINE
8
BLACK
6
CONTINUOUS
10
2.307592283464567
20
2.0092252755905511
11
2.3147699212598423
21
2.0092252755905511
0
LINE
8
BLACK
6
CONTINUOUS
10
2.3147699212598423
20
2.0092252755905511
11
2.3218096456692914
21
2.007825
0
LINE
8
BLACK
6
CONTINUOUS
10
0.9458509842519685
20
2.1091618110236219
11
0.9468727952755905
21
2.1084790944881888
0
LINE
8
BLACK
6
CONTINUOUS
10
0.9468727952755905
20
2.1084790944881888
11
0.9475555118110236
21
2.1074572834645671
0
LINE
8
BLACK
6
CONTINUOUS
10
0.9475555118110236
20
2.1074572834645671
11
0.9477952755905512
21
2.1062519685039369
0
LINE
8
BLACK
6
CONTINUOUS
10
0.9477952755905512
20
2.1062519685039369
11
0.9477952755905512
21
2.0393228346456693
0
LINE
8
BLACK
6
CONTINUOUS
10
0.9477952755905512
20
2.0393228346456693
11
0.9475555118110236
21
2.0381175196850392
0
LINE
8
BLACK
6
CONTINUOUS
10
0.9475555118110236
20
2.0381175196850392
11
0.9468727952755905
21
2.0370957086614174
0
LINE
8
BLACK
6
CONTINUOUS
10
0.9468727952755905
20
2.0370957086614174
11
0.9458509842519685
21
2.0364129921259844
0
LINE
8
BLACK
6
CONTINUOUS
10
0.9458509842519685
20
2.0364129921259844
11
0.9446456692913385
21
2.0361732283464566
0
LINE
8
BLACK
6
CONTINUOUS
10
0.9446456692913385
20
2.0361732283464566
11
0.8777165354330708
21
2.0361732283464566
0
LINE
8
BLACK
6
CONTINUOUS
10
0.8777165354330708
20
2.0361732283464566
11
0.8765112204724409
21
2.0364129921259844
0
LINE
8
BLACK
6
CONTINUOUS
10
0.8765112204724409
20
2.0364129921259844
11
0.8754894094488189
21
2.0370957086614174
0
LINE
8
BLACK
6
CONTINUOUS
10
0.8754894094488189
20
2.0370957086614174
11
0.8748066929133858
21
2.0381175196850392
0
LINE
8
BLACK
6
CONTINUOUS
10
0.8748066929133858
20
2.0381175196850392
11
0.8745669291338583
21
2.0393228346456693
0
LINE
8
BLACK
6
CONTINUOUS
10
0.8745669291338583
20
2.0393228346456693
11
0.8745669291338583
21
2.1062519685039369
0
LINE
8
BLACK
6
CONTINUOUS
10
0.8745669291338583
20
2.1062519685039369
11
0.8748066929133858
21
2.1074572834645671
0
LINE
8
BLACK
6
CONTINUOUS
10
0.8748066929133858
20
2.1074572834645671
11
0.8754894094488189
21
2.1084790944881888
0
LINE
8
BLACK
6
CONTINUOUS
10
0.8754894094488189
20
2.1084790944881888
11
0.8765112204724409
21
2.1091618110236219
0
LINE
8
BLACK
6
CONTINUOUS
10
0.8765112204724409
20
2.1091618110236219
11
0.8777165354330708
21
2.1094015748031496
0
LINE
8
BLACK
6
CONTINUOUS
10
0.8777165354330708
20
2.1094015748031496
11
0.9446456692913385
21
2.1094015748031496
0
LINE
8
BLACK
6
CONTINUOUS
10
0.9446456692913385
20
2.1094015748031496
11
0.9458509842519685
21
2.1091618110236219
0
LINE
8
BLACK
6
CONTINUOUS
10
1.0218096456692913
20
2.1078250000000001
11
1.0284409055118111
21
2.1050782283464566
0
LINE
8
BLACK
6
CONTINUOUS
10
1.0284409055118111
20
2.1050782283464566
11
1.0344088976377952
21
2.1010905511811022
0
LINE
8
BLACK
6
CONTINUOUS
10
1.0344088976377952
20
2.1010905511811022
11
1.0394842519685039
21
2.0960151968503937
0
LINE
8
BLACK
6
CONTINUOUS
10
1.0394842519685039
20
2.0960151968503937
11
1.0434719291338583
21
2.0900472047244092
0
LINE
8
BLACK
6
CONTINUOUS
10
1.0434719291338583
20
2.0900472047244092
11
1.0462187007874015
21
2.0834159448818896
0
LINE
8
BLACK
6
CONTINUOUS
10
1.0462187007874015
20
2.0834159448818896
11
1.0476189763779526
21
2.076376220472441
0
LINE
8
BLACK
6
CONTINUOUS
10
1.0476189763779526
20
2.076376220472441
11
1.0476189763779526
21
2.0691985826771653
0
LINE
8
BLACK
6
CONTINUOUS
10
1.0476189763779526
20
2.0691985826771653
11
1.0462187007874015
21
2.0621588582677166
0
LINE
8
BLACK
6
CONTINUOUS
10
1.0462187007874015
20
2.0621588582677166
11
1.0434719291338583
21
2.0555275984251966
0
LINE
8
BLACK
6
CONTINUOUS
10
1.0434719291338583
20
2.0555275984251966
11
1.0394842519685039
21
2.0495596062992125
0
LINE
8
BLACK
6
CONTINUOUS
10
1.0394842519685039
20
2.0495596062992125
11
1.0344088976377952
21
2.044484251968504
0
LINE
8
BLACK
6
CONTINUOUS
10
1.0344088976377952
20
2.044484251968504
11
1.0284409055118111
21
2.0404965748031496
0
LINE
8
BLACK
6
CONTINUOUS
10
1.0284409055118111
20
2.0404965748031496
11
1.0218096456692913
21
2.0377498031496062
0
LINE
8
BLACK
6
CONTINUOUS
10
1.0218096456692913
20
2.0377498031496062
11
1.0147699212598424
21
2.0363495275590551
0
LINE
8
BLACK
6
CONTINUOUS
10
1.0147699212598424
20
2.0363495275590551
11
1.007592283464567
21
2.0363495275590551
0
LINE
8
BLACK
6
CONTINUOUS
10
1.007592283464567
20
2.0363495275590551
11
1.0005525590551181
21
2.0377498031496062
0
LINE
8
BLACK
6
CONTINUOUS
10
1.0005525590551181
20
2.0377498031496062
11
0.9939212992125984
21
2.0404965748031496
0
LINE
8
BLACK
6
CONTINUOUS
10
0.9939212992125984
20
2.0404965748031496
11
0.9879533070866141
21
2.044484251968504
0
LINE
8
BLACK
6
CONTINUOUS
10
0.9879533070866141
20
2.044484251968504
11
0.9828779527559055
21
2.0495596062992125
0
LINE
8
BLACK
6
CONTINUOUS
10
0.9828779527559055
20
2.0495596062992125
11
0.9788902755905512
21
2.0555275984251966
0
LINE
8
BLACK
6
CONTINUOUS
10
0.9788902755905512
20
2.0555275984251966
11
0.9761435039370079
21
2.0621588582677166
0
LINE
8
BLACK
6
CONTINUOUS
10
0.9761435039370079
20
2.0621588582677166
11
0.9747432283464567
21
2.0691985826771653
0
LINE
8
BLACK
6
CONTINUOUS
10
0.9747432283464567
20
2.0691985826771653
11
0.9747432283464567
21
2.076376220472441
0
LINE
8
BLACK
6
CONTINUOUS
10
0.9747432283464567
20
2.076376220472441
11
0.9761435039370079
21
2.0834159448818896
0
LINE
8
BLACK
6
CONTINUOUS
10
0.9761435039370079
20
2.0834159448818896
11
0.9788902755905512
21
2.0900472047244092
0
LINE
8
BLACK
6
CONTINUOUS
10
0.9788902755905512
20
2.0900472047244092
11
0.9828779527559055
21
2.0960151968503937
0
LINE
8
BLACK
6
CONTINUOUS
10
0.9828779527559055
20
2.0960151968503937
11
0.9879533070866141
21
2.1010905511811022
0
LINE
8
BLACK
6
CONTINUOUS
10
0.9879533070866141
20
2.1010905511811022
11
0.9939212992125984
21
2.1050782283464566
0
LINE
8
BLACK
6
CONTINUOUS
10
0.9939212992125984
20
2.1050782283464566
11
1.0005525590551181
21
2.1078250000000001
0
LINE
8
BLACK
6
CONTINUOUS
10
1.0005525590551181
20
2.1078250000000001
11
1.007592283464567
21
2.1092252755905512
0
LINE
8
BLACK
6
CONTINUOUS
10
1.007592283464567
20
2.1092252755905512
11
1.0147699212598424
21
2.1092252755905512
0
LINE
8
BLACK
6
CONTINUOUS
10
1.0147699212598424
20
2.1092252755905512
11
1.0218096456692913
21
2.1078250000000001
0
LINE
8
BLACK
6
CONTINUOUS
10
1.1218096456692914
20
2.1078250000000001
11
1.128440905511811
21
2.1050782283464566
0
LINE
8
BLACK
6
CONTINUOUS
10
1.128440905511811
20
2.1050782283464566
11
1.1344088976377953
21
2.1010905511811022
0
LINE
8
BLACK
6
CONTINUOUS
10
1.1344088976377953
20
2.1010905511811022
11
1.139484251968504
21
2.0960151968503937
0
LINE
8
BLACK
6
CONTINUOUS
10
1.139484251968504
20
2.0960151968503937
11
1.1434719291338582
21
2.0900472047244092
0
LINE
8
BLACK
6
CONTINUOUS
10
1.1434719291338582
20
2.0900472047244092
11
1.1462187007874016
21
2.0834159448818896
0
LINE
8
BLACK
6
CONTINUOUS
10
1.1462187007874016
20
2.0834159448818896
11
1.1476189763779527
21
2.076376220472441
0
LINE
8
BLACK
6
CONTINUOUS
10
1.1476189763779527
20
2.076376220472441
11
1.1476189763779527
21
2.0691985826771653
0
LINE
8
BLACK
6
CONTINUOUS
10
1.1476189763779527
20
2.0691985826771653
11
1.1462187007874016
21
2.0621588582677166
0
LINE
8
BLACK
6
CONTINUOUS
10
1.1462187007874016
20
2.0621588582677166
11
1.1434719291338582
21
2.0555275984251966
0
LINE
8
BLACK
6
CONTINUOUS
10
1.1434719291338582
20
2.0555275984251966
11
1.139484251968504
21
2.0495596062992125
0
LINE
8
BLACK
6
CONTINUOUS
10
1.139484251968504
20
2.0495596062992125
11
1.1344088976377953
21
2.044484251968504
0
LINE
8
BLACK
6
CONTINUOUS
10
1.1344088976377953
20
2.044484251968504
11
1.128440905511811
21
2.0404965748031496
0
LINE
8
BLACK
6
CONTINUOUS
10
1.128440905511811
20
2.0404965748031496
11
1.1218096456692914
21
2.0377498031496062
0
LINE
8
BLACK
6
CONTINUOUS
10
1.1218096456692914
20
2.0377498031496062
11
1.1147699212598425
21
2.0363495275590551
0
LINE
8
BLACK
6
CONTINUOUS
10
1.1147699212598425
20
2.0363495275590551
11
1.1075922834645668
21
2.0363495275590551
0
LINE
8
BLACK
6
CONTINUOUS
10
1.1075922834645668
20
2.0363495275590551
11
1.1005525590551182
21
2.0377498031496062
0
LINE
8
BLACK
6
CONTINUOUS
10
1.1005525590551182
20
2.0377498031496062
11
1.0939212992125984
21
2.0404965748031496
0
LINE
8
BLACK
6
CONTINUOUS
10
1.0939212992125984
20
2.0404965748031496
11
1.0879533070866141
21
2.044484251968504
0
LINE
8
BLACK
6
CONTINUOUS
10
1.0879533070866141
20
2.044484251968504
11
1.0828779527559056
21
2.0495596062992125
0
LINE
8
BLACK
6
CONTINUOUS
10
1.0828779527559056
20
2.0495596062992125
11
1.0788902755905512
21
2.0555275984251966
0
LINE
8
BLACK
6
CONTINUOUS
10
1.0788902755905512
20
2.0555275984251966
11
1.0761435039370078
21
2.0621588582677166
0
LINE
8
BLACK
6
CONTINUOUS
10
1.0761435039370078
20
2.0621588582677166
11
1.0747432283464566
21
2.0691985826771653
0
LINE
8
BLACK
6
CONTINUOUS
10
1.0747432283464566
20
2.0691985826771653
11
1.0747432283464566
21
2.076376220472441
0
LINE
8
BLACK
6
CONTINUOUS
10
1.0747432283464566
20
2.076376220472441
11
1.0761435039370078
21
2.0834159448818896
0
LINE
8
BLACK
6
CONTINUOUS
10
1.0761435039370078
20
2.0834159448818896
11
1.0788902755905512
21
2.0900472047244092
0
LINE
8
BLACK
6
CONTINUOUS
10
1.0788902755905512
20
2.0900472047244092
11
1.0828779527559056
21
2.0960151968503937
0
LINE
8
BLACK
6
CONTINUOUS
10
1.0828779527559056
20
2.0960151968503937
11
1.0879533070866141
21
2.1010905511811022
0
LINE
8
BLACK
6
CONTINUOUS
10
1.0879533070866141
20
2.1010905511811022
11
1.0939212992125984
21
2.1050782283464566
0
LINE
8
BLACK
6
CONTINUOUS
10
1.0939212992125984
20
2.1050782283464566
11
1.1005525590551182
21
2.1078250000000001
0
LINE
8
BLACK
6
CONTINUOUS
10
1.1005525590551182
20
2.1078250000000001
11
1.1075922834645668
21
2.1092252755905512
0
LINE
8
BLACK
6
CONTINUOUS
10
1.1075922834645668
20
2.1092252755905512
11
1.1147699212598425
21
2.1092252755905512
0
LINE
8
BLACK
6
CONTINUOUS
10
1.1147699212598425
20
2.1092252755905512
11
1.1218096456692914
21
2.1078250000000001
0
LINE
8
BLACK
6
CONTINUOUS
10
1.2218096456692913
20
2.1078250000000001
11
1.2284409055118111
21
2.1050782283464566
0
LINE
8
BLACK
6
CONTINUOUS
10
1.2284409055118111
20
2.1050782283464566
11
1.2344088976377952
21
2.1010905511811022
0
LINE
8
BLACK
6
CONTINUOUS
10
1.2344088976377952
20
2.1010905511811022
11
1.2394842519685039
21
2.0960151968503937
0
LINE
8
BLACK
6
CONTINUOUS
10
1.2394842519685039
20
2.0960151968503937
11
1.2434719291338583
21
2.0900472047244092
0
LINE
8
BLACK
6
CONTINUOUS
10
1.2434719291338583
20
2.0900472047244092
11
1.2462187007874015
21
2.0834159448818896
0
LINE
8
BLACK
6
CONTINUOUS
10
1.2462187007874015
20
2.0834159448818896
11
1.2476189763779528
21
2.076376220472441
0
LINE
8
BLACK
6
CONTINUOUS
10
1.2476189763779528
20
2.076376220472441
11
1.2476189763779528
21
2.0691985826771653
0
LINE
8
BLACK
6
CONTINUOUS
10
1.2476189763779528
20
2.0691985826771653
11
1.2462187007874015
21
2.0621588582677166
0
LINE
8
BLACK
6
CONTINUOUS
10
1.2462187007874015
20
2.0621588582677166
11
1.2434719291338583
21
2.0555275984251966
0
LINE
8
BLACK
6
CONTINUOUS
10
1.2434719291338583
20
2.0555275984251966
11
1.2394842519685039
21
2.0495596062992125
0
LINE
8
BLACK
6
CONTINUOUS
10
1.2394842519685039
20
2.0495596062992125
11
1.2344088976377952
21
2.044484251968504
0
LINE
8
BLACK
6
CONTINUOUS
10
1.2344088976377952
20
2.044484251968504
11
1.2284409055118111
21
2.0404965748031496
0
LINE
8
BLACK
6
CONTINUOUS
10
1.2284409055118111
20
2.0404965748031496
11
1.2218096456692913
21
2.0377498031496062
0
LINE
8
BLACK
6
CONTINUOUS
10
1.2218096456692913
20
2.0377498031496062
11
1.2147699212598424
21
2.0363495275590551
0
LINE
8
BLACK
6
CONTINUOUS
10
1.2147699212598424
20
2.0363495275590551
11
1.2075922834645669
21
2.0363495275590551
0
LINE
8
BLACK
6
CONTINUOUS
10
1.2075922834645669
20
2.0363495275590551
11
1.200552559055118
21
2.0377498031496062
0
LINE
8
BLACK
6
CONTINUOUS
10
1.200552559055118
20
2.0377498031496062
11
1.1939212992125985
21
2.0404965748031496
0
LINE
8
BLACK
6
CONTINUOUS
10
1.1939212992125985
20
2.0404965748031496
11
1.1879533070866142
21
2.044484251968504
0
LINE
8
BLACK
6
CONTINUOUS
10
1.1879533070866142
20
2.044484251968504
11
1.1828779527559055
21
2.0495596062992125
0
LINE
8
BLACK
6
CONTINUOUS
10
1.1828779527559055
20
2.0495596062992125
11
1.1788902755905513
21
2.0555275984251966
0
LINE
8
BLACK
6
CONTINUOUS
10
1.1788902755905513
20
2.0555275984251966
11
1.1761435039370078
21
2.0621588582677166
0
LINE
8
BLACK
6
CONTINUOUS
10
1.1761435039370078
20
2.0621588582677166
11
1.1747432283464567
21
2.0691985826771653
0
LINE
8
BLACK
6
CONTINUOUS
10
1.1747432283464567
20
2.0691985826771653
11
1.1747432283464567
21
2.076376220472441
0
LINE
8
BLACK
6
CONTINUOUS
10
1.1747432283464567
20
2.076376220472441
11
1.1761435039370078
21
2.0834159448818896
0
LINE
8
BLACK
6
CONTINUOUS
10
1.1761435039370078
20
2.0834159448818896
11
1.1788902755905513
21
2.0900472047244092
0
LINE
8
BLACK
6
CONTINUOUS
10
1.1788902755905513
20
2.0900472047244092
11
1.1828779527559055
21
2.0960151968503937
0
LINE
8
BLACK
6
CONTINUOUS
10
1.1828779527559055
20
2.0960151968503937
11
1.1879533070866142
21
2.1010905511811022
0
LINE
8
BLACK
6
CONTINUOUS
10
1.1879533070866142
20
2.1010905511811022
11
1.1939212992125985
21
2.1050782283464566
0
LINE
8
BLACK
6
CONTINUOUS
10
1.1939212992125985
20
2.1050782283464566
11
1.200552559055118
21
2.1078250000000001
0
LINE
8
BLACK
6
CONTINUOUS
10
1.200552559055118
20
2.1078250000000001
11
1.2075922834645669
21
2.1092252755905512
0
LINE
8
BLACK
6
CONTINUOUS
10
1.2075922834645669
20
2.1092252755905512
11
1.2147699212598424
21
2.1092252755905512
0
LINE
8
BLACK
6
CONTINUOUS
10
1.2147699212598424
20
2.1092252755905512
11
1.2218096456692913
21
2.1078250000000001
0
LINE
8
BLACK
6
CONTINUOUS
10
1.3218096456692914
20
2.1078250000000001
11
1.3284409055118109
21
2.1050782283464566
0
LINE
8
BLACK
6
CONTINUOUS
10
1.3284409055118109
20
2.1050782283464566
11
1.3344088976377952
21
2.1010905511811022
0
LINE
8
BLACK
6
CONTINUOUS
10
1.3344088976377952
20
2.1010905511811022
11
1.339484251968504
21
2.0960151968503937
0
LINE
8
BLACK
6
CONTINUOUS
10
1.339484251968504
20
2.0960151968503937
11
1.3434719291338582
21
2.0900472047244092
0
LINE
8
BLACK
6
CONTINUOUS
10
1.3434719291338582
20
2.0900472047244092
11
1.3462187007874016
21
2.0834159448818896
0
LINE
8
BLACK
6
CONTINUOUS
10
1.3462187007874016
20
2.0834159448818896
11
1.3476189763779527
21
2.076376220472441
0
LINE
8
BLACK
6
CONTINUOUS
10
1.3476189763779527
20
2.076376220472441
11
1.3476189763779527
21
2.0691985826771653
0
LINE
8
BLACK
6
CONTINUOUS
10
1.3476189763779527
20
2.0691985826771653
11
1.3462187007874016
21
2.0621588582677166
0
LINE
8
BLACK
6
CONTINUOUS
10
1.3462187007874016
20
2.0621588582677166
11
1.3434719291338582
21
2.0555275984251966
0
LINE
8
BLACK
6
CONTINUOUS
10
1.3434719291338582
20
2.0555275984251966
11
1.339484251968504
21
2.0495596062992125
0
LINE
8
BLACK
6
CONTINUOUS
10
1.339484251968504
20
2.0495596062992125
11
1.3344088976377952
21
2.044484251968504
0
LINE
8
BLACK
6
CONTINUOUS
10
1.3344088976377952
20
2.044484251968504
11
1.3284409055118109
21
2.0404965748031496
0
LINE
8
BLACK
6
CONTINUOUS
10
1.3284409055118109
20
2.0404965748031496
11
1.3218096456692914
21
2.0377498031496062
0
LINE
8
BLACK
6
CONTINUOUS
10
1.3218096456692914
20
2.0377498031496062
11
1.3147699212598425
21
2.0363495275590551
0
LINE
8
BLACK
6
CONTINUOUS
10
1.3147699212598425
20
2.0363495275590551
11
1.3075922834645668
21
2.0363495275590551
0
LINE
8
BLACK
6
CONTINUOUS
10
1.3075922834645668
20
2.0363495275590551
11
1.3005525590551181
21
2.0377498031496062
0
LINE
8
BLACK
6
CONTINUOUS
10
1.3005525590551181
20
2.0377498031496062
11
1.2939212992125984
21
2.0404965748031496
0
LINE
8
BLACK
6
CONTINUOUS
10
1.2939212992125984
20
2.0404965748031496
11
1.287953307086614
21
2.044484251968504
0
LINE
8
BLACK
6
CONTINUOUS
10
1.287953307086614
20
2.044484251968504
11
1.2828779527559055
21
2.0495596062992125
0
LINE
8
BLACK
6
CONTINUOUS
10
1.2828779527559055
20
2.0495596062992125
11
1.2788902755905511
21
2.0555275984251966
0
LINE
8
BLACK
6
CONTINUOUS
10
1.2788902755905511
20
2.0555275984251966
11
1.2761435039370079
21
2.0621588582677166
0
LINE
8
BLACK
6
CONTINUOUS
10
1.2761435039370079
20
2.0621588582677166
11
1.2747432283464566
21
2.0691985826771653
0
LINE
8
BLACK
6
CONTINUOUS
10
1.2747432283464566
20
2.0691985826771653
11
1.2747432283464566
21
2.076376220472441
0
LINE
8
BLACK
6
CONTINUOUS
10
1.2747432283464566
20
2.076376220472441
11
1.2761435039370079
21
2.0834159448818896
0
LINE
8
BLACK
6
CONTINUOUS
10
1.2761435039370079
20
2.0834159448818896
11
1.2788902755905511
21
2.0900472047244092
0
LINE
8
BLACK
6
CONTINUOUS
10
1.2788902755905511
20
2.0900472047244092
11
1.2828779527559055
21
2.0960151968503937
0
LINE
8
BLACK
6
CONTINUOUS
10
1.2828779527559055
20
2.0960151968503937
11
1.287953307086614
21
2.1010905511811022
0
LINE
8
BLACK
6
CONTINUOUS
10
1.287953307086614
20
2.1010905511811022
11
1.2939212992125984
21
2.1050782283464566
0
LINE
8
BLACK
6
CONTINUOUS
10
1.2939212992125984
20
2.1050782283464566
11
1.3005525590551181
21
2.1078250000000001
0
LINE
8
BLACK
6
CONTINUOUS
10
1.3005525590551181
20
2.1078250000000001
11
1.3075922834645668
21
2.1092252755905512
0
LINE
8
BLACK
6
CONTINUOUS
10
1.3075922834645668
20
2.1092252755905512
11
1.3147699212598425
21
2.1092252755905512
0
LINE
8
BLACK
6
CONTINUOUS
10
1.3147699212598425
20
2.1092252755905512
11
1.3218096456692914
21
2.1078250000000001
0
LINE
8
BLACK
6
CONTINUOUS
10
1.4218096456692912
20
2.1078250000000001
11
1.428440905511811
21
2.1050782283464566
0
LINE
8
BLACK
6
CONTINUOUS
10
1.428440905511811
20
2.1050782283464566
11
1.4344088976377953
21
2.1010905511811022
0
LINE
8
BLACK
6
CONTINUOUS
10
1.4344088976377953
20
2.1010905511811022
11
1.4394842519685038
21
2.0960151968503937
0
LINE
8
BLACK
6
CONTINUOUS
10
1.4394842519685038
20
2.0960151968503937
11
1.4434719291338582
21
2.0900472047244092
0
LINE
8
BLACK
6
CONTINUOUS
10
1.4434719291338582
20
2.0900472047244092
11
1.4462187007874014
21
2.0834159448818896
0
LINE
8
BLACK
6
CONTINUOUS
10
1.4462187007874014
20
2.0834159448818896
11
1.4476189763779528
21
2.076376220472441
0
LINE
8
BLACK
6
CONTINUOUS
10
1.4476189763779528
20
2.076376220472441
11
1.4476189763779528
21
2.0691985826771653
0
LINE
8
BLACK
6
CONTINUOUS
10
1.4476189763779528
20
2.0691985826771653
11
1.4462187007874014
21
2.0621588582677166
0
LINE
8
BLACK
6
CONTINUOUS
10
1.4462187007874014
20
2.0621588582677166
11
1.4434719291338582
21
2.0555275984251966
0
LINE
8
BLACK
6
CONTINUOUS
10
1.4434719291338582
20
2.0555275984251966
11
1.4394842519685038
21
2.0495596062992125
0
LINE
8
BLACK
6
CONTINUOUS
10
1.4394842519685038
20
2.0495596062992125
11
1.4344088976377953
21
2.044484251968504
0
LINE
8
BLACK
6
CONTINUOUS
10
1.4344088976377953
20
2.044484251968504
11
1.428440905511811
21
2.0404965748031496
0
LINE
8
BLACK
6
CONTINUOUS
10
1.428440905511811
20
2.0404965748031496
11
1.4218096456692912
21
2.0377498031496062
0
LINE
8
BLACK
6
CONTINUOUS
10
1.4218096456692912
20
2.0377498031496062
11
1.4147699212598426
21
2.0363495275590551
0
LINE
8
BLACK
6
CONTINUOUS
10
1.4147699212598426
20
2.0363495275590551
11
1.4075922834645669
21
2.0363495275590551
0
LINE
8
BLACK
6
CONTINUOUS
10
1.4075922834645669
20
2.0363495275590551
11
1.400552559055118
21
2.0377498031496062
0
LINE
8
BLACK
6
CONTINUOUS
10
1.400552559055118
20
2.0377498031496062
11
1.3939212992125984
21
2.0404965748031496
0
LINE
8
BLACK
6
CONTINUOUS
10
1.3939212992125984
20
2.0404965748031496
11
1.3879533070866141
21
2.044484251968504
0
LINE
8
BLACK
6
CONTINUOUS
10
1.3879533070866141
20
2.044484251968504
11
1.3828779527559054
21
2.0495596062992125
0
LINE
8
BLACK
6
CONTINUOUS
10
1.3828779527559054
20
2.0495596062992125
11
1.3788902755905512
21
2.0555275984251966
0
LINE
8
BLACK
6
CONTINUOUS
10
1.3788902755905512
20
2.0555275984251966
11
1.3761435039370078
21
2.0621588582677166
0
LINE
8
BLACK
6
CONTINUOUS
10
1.3761435039370078
20
2.0621588582677166
11
1.3747432283464567
21
2.0691985826771653
0
LINE
8
BLACK
6
CONTINUOUS
10
1.3747432283464567
20
2.0691985826771653
11
1.3747432283464567
21
2.076376220472441
0
LINE
8
BLACK
6
CONTINUOUS
10
1.3747432283464567
20
2.076376220472441
11
1.3761435039370078
21
2.0834159448818896
0
LINE
8
BLACK
6
CONTINUOUS
10
1.3761435039370078
20
2.0834159448818896
11
1.3788902755905512
21
2.0900472047244092
0
LINE
8
BLACK
6
CONTINUOUS
10
1.3788902755905512
20
2.0900472047244092
11
1.3828779527559054
21
2.0960151968503937
0
LINE
8
BLACK
6
CONTINUOUS
10
1.3828779527559054
20
2.0960151968503937
11
1.3879533070866141
21
2.1010905511811022
0
LINE
8
BLACK
6
CONTINUOUS
10
1.3879533070866141
20
2.1010905511811022
11
1.3939212992125984
21
2.1050782283464566
0
LINE
8
BLACK
6
CONTINUOUS
10
1.3939212992125984
20
2.1050782283464566
11
1.400552559055118
21
2.1078250000000001
0
LINE
8
BLACK
6
CONTINUOUS
10
1.400552559055118
20
2.1078250000000001
11
1.4075922834645669
21
2.1092252755905512
0
LINE
8
BLACK
6
CONTINUOUS
10
1.4075922834645669
20
2.1092252755905512
11
1.4147699212598426
21
2.1092252755905512
0
LINE
8
BLACK
6
CONTINUOUS
10
1.4147699212598426
20
2.1092252755905512
11
1.4218096456692912
21
2.1078250000000001
0
LINE
8
BLACK
6
CONTINUOUS
10
1.5218096456692913
20
2.1078250000000001
11
1.5284409055118109
21
2.1050782283464566
0
LINE
8
BLACK
6
CONTINUOUS
10
1.5284409055118109
20
2.1050782283464566
11
1.5344088976377952
21
2.1010905511811022
0
LINE
8
BLACK
6
CONTINUOUS
10
1.5344088976377952
20
2.1010905511811022
11
1.5394842519685039
21
2.0960151968503937
0
LINE
8
BLACK
6
CONTINUOUS
10
1.5394842519685039
20
2.0960151968503937
11
1.5434719291338583
21
2.0900472047244092
0
LINE
8
BLACK
6
CONTINUOUS
10
1.5434719291338583
20
2.0900472047244092
11
1.5462187007874015
21
2.0834159448818896
0
LINE
8
BLACK
6
CONTINUOUS
10
1.5462187007874015
20
2.0834159448818896
11
1.5476189763779526
21
2.076376220472441
0
LINE
8
BLACK
6
CONTINUOUS
10
1.5476189763779526
20
2.076376220472441
11
1.5476189763779526
21
2.0691985826771653
0
LINE
8
BLACK
6
CONTINUOUS
10
1.5476189763779526
20
2.0691985826771653
11
1.5462187007874015
21
2.0621588582677166
0
LINE
8
BLACK
6
CONTINUOUS
10
1.5462187007874015
20
2.0621588582677166
11
1.5434719291338583
21
2.0555275984251966
0
LINE
8
BLACK
6
CONTINUOUS
10
1.5434719291338583
20
2.0555275984251966
11
1.5394842519685039
21
2.0495596062992125
0
LINE
8
BLACK
6
CONTINUOUS
10
1.5394842519685039
20
2.0495596062992125
11
1.5344088976377952
21
2.044484251968504
0
LINE
8
BLACK
6
CONTINUOUS
10
1.5344088976377952
20
2.044484251968504
11
1.5284409055118109
21
2.0404965748031496
0
LINE
8
BLACK
6
CONTINUOUS
10
1.5284409055118109
20
2.0404965748031496
11
1.5218096456692913
21
2.0377498031496062
0
LINE
8
BLACK
6
CONTINUOUS
10
1.5218096456692913
20
2.0377498031496062
11
1.5147699212598424
21
2.0363495275590551
0
LINE
8
BLACK
6
CONTINUOUS
10
1.5147699212598424
20
2.0363495275590551
11
1.507592283464567
21
2.0363495275590551
0
LINE
8
BLACK
6
CONTINUOUS
10
1.507592283464567
20
2.0363495275590551
11
1.5005525590551181
21
2.0377498031496062
0
LINE
8
BLACK
6
CONTINUOUS
10
1.5005525590551181
20
2.0377498031496062
11
1.4939212992125983
21
2.0404965748031496
0
LINE
8
BLACK
6
CONTINUOUS
10
1.4939212992125983
20
2.0404965748031496
11
1.4879533070866142
21
2.044484251968504
0
LINE
8
BLACK
6
CONTINUOUS
10
1.4879533070866142
20
2.044484251968504
11
1.4828779527559055
21
2.0495596062992125
0
LINE
8
BLACK
6
CONTINUOUS
10
1.4828779527559055
20
2.0495596062992125
11
1.4788902755905511
21
2.0555275984251966
0
LINE
8
BLACK
6
CONTINUOUS
10
1.4788902755905511
20
2.0555275984251966
11
1.4761435039370079
21
2.0621588582677166
0
LINE
8
BLACK
6
CONTINUOUS
10
1.4761435039370079
20
2.0621588582677166
11
1.4747432283464568
21
2.0691985826771653
0
LINE
8
BLACK
6
CONTINUOUS
10
1.4747432283464568
20
2.0691985826771653
11
1.4747432283464568
21
2.076376220472441
0
LINE
8
BLACK
6
CONTINUOUS
10
1.4747432283464568
20
2.076376220472441
11
1.4761435039370079
21
2.0834159448818896
0
LINE
8
BLACK
6
CONTINUOUS
10
1.4761435039370079
20
2.0834159448818896
11
1.4788902755905511
21
2.0900472047244092
0
LINE
8
BLACK
6
CONTINUOUS
10
1.4788902755905511
20
2.0900472047244092
11
1.4828779527559055
21
2.0960151968503937
0
LINE
8
BLACK
6
CONTINUOUS
10
1.4828779527559055
20
2.0960151968503937
11
1.4879533070866142
21
2.1010905511811022
0
LINE
8
BLACK
6
CONTINUOUS
10
1.4879533070866142
20
2.1010905511811022
11
1.4939212992125983
21
2.1050782283464566
0
LINE
8
BLACK
6
CONTINUOUS
10
1.4939212992125983
20
2.1050782283464566
11
1.5005525590551181
21
2.1078250000000001
0
LINE
8
BLACK
6
CONTINUOUS
10
1.5005525590551181
20
2.1078250000000001
11
1.507592283464567
21
2.1092252755905512
0
LINE
8
BLACK
6
CONTINUOUS
10
1.507592283464567
20
2.1092252755905512
11
1.5147699212598424
21
2.1092252755905512
0
LINE
8
BLACK
6
CONTINUOUS
10
1.5147699212598424
20
2.1092252755905512
11
1.5218096456692913
21
2.1078250000000001
0
LINE
8
BLACK
6
CONTINUOUS
10
1.6218096456692912
20
2.1078250000000001
11
1.628440905511811
21
2.1050782283464566
0
LINE
8
BLACK
6
CONTINUOUS
10
1.628440905511811
20
2.1050782283464566
11
1.6344088976377953
21
2.1010905511811022
0
LINE
8
BLACK
6
CONTINUOUS
10
1.6344088976377953
20
2.1010905511811022
11
1.639484251968504
21
2.0960151968503937
0
LINE
8
BLACK
6
CONTINUOUS
10
1.639484251968504
20
2.0960151968503937
11
1.6434719291338582
21
2.0900472047244092
0
LINE
8
BLACK
6
CONTINUOUS
10
1.6434719291338582
20
2.0900472047244092
11
1.6462187007874016
21
2.0834159448818896
0
LINE
8
BLACK
6
CONTINUOUS
10
1.6462187007874016
20
2.0834159448818896
11
1.6476189763779527
21
2.076376220472441
0
LINE
8
BLACK
6
CONTINUOUS
10
1.6476189763779527
20
2.076376220472441
11
1.6476189763779527
21
2.0691985826771653
0
LINE
8
BLACK
6
CONTINUOUS
10
1.6476189763779527
20
2.0691985826771653
11
1.6462187007874016
21
2.0621588582677166
0
LINE
8
BLACK
6
CONTINUOUS
10
1.6462187007874016
20
2.0621588582677166
11
1.6434719291338582
21
2.0555275984251966
0
LINE
8
BLACK
6
CONTINUOUS
10
1.6434719291338582
20
2.0555275984251966
11
1.639484251968504
21
2.0495596062992125
0
LINE
8
BLACK
6
CONTINUOUS
10
1.639484251968504
20
2.0495596062992125
11
1.6344088976377953
21
2.044484251968504
0
LINE
8
BLACK
6
CONTINUOUS
10
1.6344088976377953
20
2.044484251968504
11
1.628440905511811
21
2.0404965748031496
0
LINE
8
BLACK
6
CONTINUOUS
10
1.628440905511811
20
2.0404965748031496
11
1.6218096456692912
21
2.0377498031496062
0
LINE
8
BLACK
6
CONTINUOUS
10
1.6218096456692912
20
2.0377498031496062
11
1.6147699212598425
21
2.0363495275590551
0
LINE
8
BLACK
6
CONTINUOUS
10
1.6147699212598425
20
2.0363495275590551
11
1.6075922834645668
21
2.0363495275590551
0
LINE
8
BLACK
6
CONTINUOUS
10
1.6075922834645668
20
2.0363495275590551
11
1.6005525590551182
21
2.0377498031496062
0
LINE
8
BLACK
6
CONTINUOUS
10
1.6005525590551182
20
2.0377498031496062
11
1.5939212992125984
21
2.0404965748031496
0
LINE
8
BLACK
6
CONTINUOUS
10
1.5939212992125984
20
2.0404965748031496
11
1.5879533070866141
21
2.044484251968504
0
LINE
8
BLACK
6
CONTINUOUS
10
1.5879533070866141
20
2.044484251968504
11
1.5828779527559054
21
2.0495596062992125
0
LINE
8
BLACK
6
CONTINUOUS
10
1.5828779527559054
20
2.0495596062992125
11
1.5788902755905512
21
2.0555275984251966
0
LINE
8
BLACK
6
CONTINUOUS
10
1.5788902755905512
20
2.0555275984251966
11
1.5761435039370078
21
2.0621588582677166
0
LINE
8
BLACK
6
CONTINUOUS
10
1.5761435039370078
20
2.0621588582677166
11
1.5747432283464566
21
2.0691985826771653
0
LINE
8
BLACK
6
CONTINUOUS
10
1.5747432283464566
20
2.0691985826771653
11
1.5747432283464566
21
2.076376220472441
0
LINE
8
BLACK
6
CONTINUOUS
10
1.5747432283464566
20
2.076376220472441
11
1.5761435039370078
21
2.0834159448818896
0
LINE
8
BLACK
6
CONTINUOUS
10
1.5761435039370078
20
2.0834159448818896
11
1.5788902755905512
21
2.0900472047244092
0
LINE
8
BLACK
6
CONTINUOUS
10
1.5788902755905512
20
2.0900472047244092
11
1.5828779527559054
21
2.0960151968503937
0
LINE
8
BLACK
6
CONTINUOUS
10
1.5828779527559054
20
2.0960151968503937
11
1.5879533070866141
21
2.1010905511811022
0
LINE
8
BLACK
6
CONTINUOUS
10
1.5879533070866141
20
2.1010905511811022
11
1.5939212992125984
21
2.1050782283464566
0
LINE
8
BLACK
6
CONTINUOUS
10
1.5939212992125984
20
2.1050782283464566
11
1.6005525590551182
21
2.1078250000000001
0
LINE
8
BLACK
6
CONTINUOUS
10
1.6005525590551182
20
2.1078250000000001
11
1.6075922834645668
21
2.1092252755905512
0
LINE
8
BLACK
6
CONTINUOUS
10
1.6075922834645668
20
2.1092252755905512
11
1.6147699212598425
21
2.1092252755905512
0
LINE
8
BLACK
6
CONTINUOUS
10
1.6147699212598425
20
2.1092252755905512
11
1.6218096456692912
21
2.1078250000000001
0
LINE
8
BLACK
6
CONTINUOUS
10
1.7218096456692913
20
2.1078250000000001
11
1.7284409055118111
21
2.1050782283464566
0
LINE
8
BLACK
6
CONTINUOUS
10
1.7284409055118111
20
2.1050782283464566
11
1.7344088976377952
21
2.1010905511811022
0
LINE
8
BLACK
6
CONTINUOUS
10
1.7344088976377952
20
2.1010905511811022
11
1.7394842519685039
21
2.0960151968503937
0
LINE
8
BLACK
6
CONTINUOUS
10
1.7394842519685039
20
2.0960151968503937
11
1.7434719291338583
21
2.0900472047244092
0
LINE
8
BLACK
6
CONTINUOUS
10
1.7434719291338583
20
2.0900472047244092
11
1.7462187007874015
21
2.0834159448818896
0
LINE
8
BLACK
6
CONTINUOUS
10
1.7462187007874015
20
2.0834159448818896
11
1.7476189763779528
21
2.076376220472441
0
LINE
8
BLACK
6
CONTINUOUS
10
1.7476189763779528
20
2.076376220472441
11
1.7476189763779528
21
2.0691985826771653
0
LINE
8
BLACK
6
CONTINUOUS
10
1.7476189763779528
20
2.0691985826771653
11
1.7462187007874015
21
2.0621588582677166
0
LINE
8
BLACK
6
CONTINUOUS
10
1.7462187007874015
20
2.0621588582677166
11
1.7434719291338583
21
2.0555275984251966
0
LINE
8
BLACK
6
CONTINUOUS
10
1.7434719291338583
20
2.0555275984251966
11
1.7394842519685039
21
2.0495596062992125
0
LINE
8
BLACK
6
CONTINUOUS
10
1.7394842519685039
20
2.0495596062992125
11
1.7344088976377952
21
2.044484251968504
0
LINE
8
BLACK
6
CONTINUOUS
10
1.7344088976377952
20
2.044484251968504
11
1.7284409055118111
21
2.0404965748031496
0
LINE
8
BLACK
6
CONTINUOUS
10
1.7284409055118111
20
2.0404965748031496
11
1.7218096456692913
21
2.0377498031496062
0
LINE
8
BLACK
6
CONTINUOUS
10
1.7218096456692913
20
2.0377498031496062
11
1.7147699212598424
21
2.0363495275590551
0
LINE
8
BLACK
6
CONTINUOUS
10
1.7147699212598424
20
2.0363495275590551
11
1.7075922834645669
21
2.0363495275590551
0
LINE
8
BLACK
6
CONTINUOUS
10
1.7075922834645669
20
2.0363495275590551
11
1.700552559055118
21
2.0377498031496062
0
LINE
8
BLACK
6
CONTINUOUS
10
1.700552559055118
20
2.0377498031496062
11
1.6939212992125985
21
2.0404965748031496
0
LINE
8
BLACK
6
CONTINUOUS
10
1.6939212992125985
20
2.0404965748031496
11
1.6879533070866142
21
2.044484251968504
0
LINE
8
BLACK
6
CONTINUOUS
10
1.6879533070866142
20
2.044484251968504
11
1.6828779527559055
21
2.0495596062992125
0
LINE
8
BLACK
6
CONTINUOUS
10
1.6828779527559055
20
2.0495596062992125
11
1.678890275590551
21
2.0555275984251966
0
LINE
8
BLACK
6
CONTINUOUS
10
1.678890275590551
20
2.0555275984251966
11
1.6761435039370078
21
2.0621588582677166
0
LINE
8
BLACK
6
CONTINUOUS
10
1.6761435039370078
20
2.0621588582677166
11
1.6747432283464567
21
2.0691985826771653
0
LINE
8
BLACK
6
CONTINUOUS
10
1.6747432283464567
20
2.0691985826771653
11
1.6747432283464567
21
2.076376220472441
0
LINE
8
BLACK
6
CONTINUOUS
10
1.6747432283464567
20
2.076376220472441
11
1.6761435039370078
21
2.0834159448818896
0
LINE
8
BLACK
6
CONTINUOUS
10
1.6761435039370078
20
2.0834159448818896
11
1.678890275590551
21
2.0900472047244092
0
LINE
8
BLACK
6
CONTINUOUS
10
1.678890275590551
20
2.0900472047244092
11
1.6828779527559055
21
2.0960151968503937
0
LINE
8
BLACK
6
CONTINUOUS
10
1.6828779527559055
20
2.0960151968503937
11
1.6879533070866142
21
2.1010905511811022
0
LINE
8
BLACK
6
CONTINUOUS
10
1.6879533070866142
20
2.1010905511811022
11
1.6939212992125985
21
2.1050782283464566
0
LINE
8
BLACK
6
CONTINUOUS
10
1.6939212992125985
20
2.1050782283464566
11
1.700552559055118
21
2.1078250000000001
0
LINE
8
BLACK
6
CONTINUOUS
10
1.700552559055118
20
2.1078250000000001
11
1.7075922834645669
21
2.1092252755905512
0
LINE
8
BLACK
6
CONTINUOUS
10
1.7075922834645669
20
2.1092252755905512
11
1.7147699212598424
21
2.1092252755905512
0
LINE
8
BLACK
6
CONTINUOUS
10
1.7147699212598424
20
2.1092252755905512
11
1.7218096456692913
21
2.1078250000000001
0
LINE
8
BLACK
6
CONTINUOUS
10
1.8218096456692914
20
2.1078250000000001
11
1.8284409055118109
21
2.1050782283464566
0
LINE
8
BLACK
6
CONTINUOUS
10
1.8284409055118109
20
2.1050782283464566
11
1.8344088976377952
21
2.1010905511811022
0
LINE
8
BLACK
6
CONTINUOUS
10
1.8344088976377952
20
2.1010905511811022
11
1.839484251968504
21
2.0960151968503937
0
LINE
8
BLACK
6
CONTINUOUS
10
1.839484251968504
20
2.0960151968503937
11
1.8434719291338582
21
2.0900472047244092
0
LINE
8
BLACK
6
CONTINUOUS
10
1.8434719291338582
20
2.0900472047244092
11
1.8462187007874016
21
2.0834159448818896
0
LINE
8
BLACK
6
CONTINUOUS
10
1.8462187007874016
20
2.0834159448818896
11
1.8476189763779527
21
2.076376220472441
0
LINE
8
BLACK
6
CONTINUOUS
10
1.8476189763779527
20
2.076376220472441
11
1.8476189763779527
21
2.0691985826771653
0
LINE
8
BLACK
6
CONTINUOUS
10
1.8476189763779527
20
2.0691985826771653
11
1.8462187007874016
21
2.0621588582677166
0
LINE
8
BLACK
6
CONTINUOUS
10
1.8462187007874016
20
2.0621588582677166
11
1.8434719291338582
21
2.0555275984251966
0
LINE
8
BLACK
6
CONTINUOUS
10
1.8434719291338582
20
2.0555275984251966
11
1.839484251968504
21
2.0495596062992125
0
LINE
8
BLACK
6
CONTINUOUS
10
1.839484251968504
20
2.0495596062992125
11
1.8344088976377952
21
2.044484251968504
0
LINE
8
BLACK
6
CONTINUOUS
10
1.8344088976377952
20
2.044484251968504
11
1.8284409055118109
21
2.0404965748031496
0
LINE
8
BLACK
6
CONTINUOUS
10
1.8284409055118109
20
2.0404965748031496
11
1.8218096456692914
21
2.0377498031496062
0
LINE
8
BLACK
6
CONTINUOUS
10
1.8218096456692914
20
2.0377498031496062
11
1.8147699212598425
21
2.0363495275590551
0
LINE
8
BLACK
6
CONTINUOUS
10
1.8147699212598425
20
2.0363495275590551
11
1.8075922834645668
21
2.0363495275590551
0
LINE
8
BLACK
6
CONTINUOUS
10
1.8075922834645668
20
2.0363495275590551
11
1.8005525590551181
21
2.0377498031496062
0
LINE
8
BLACK
6
CONTINUOUS
10
1.8005525590551181
20
2.0377498031496062
11
1.7939212992125984
21
2.0404965748031496
0
LINE
8
BLACK
6
CONTINUOUS
10
1.7939212992125984
20
2.0404965748031496
11
1.787953307086614
21
2.044484251968504
0
LINE
8
BLACK
6
CONTINUOUS
10
1.787953307086614
20
2.044484251968504
11
1.7828779527559055
21
2.0495596062992125
0
LINE
8
BLACK
6
CONTINUOUS
10
1.7828779527559055
20
2.0495596062992125
11
1.7788902755905511
21
2.0555275984251966
0
LINE
8
BLACK
6
CONTINUOUS
10
1.7788902755905511
20
2.0555275984251966
11
1.7761435039370079
21
2.0621588582677166
0
LINE
8
BLACK
6
CONTINUOUS
10
1.7761435039370079
20
2.0621588582677166
11
1.7747432283464566
21
2.0691985826771653
0
LINE
8
BLACK
6
CONTINUOUS
10
1.7747432283464566
20
2.0691985826771653
11
1.7747432283464566
21
2.076376220472441
0
LINE
8
BLACK
6
CONTINUOUS
10
1.7747432283464566
20
2.076376220472441
11
1.7761435039370079
21
2.0834159448818896
0
LINE
8
BLACK
6
CONTINUOUS
10
1.7761435039370079
20
2.0834159448818896
11
1.7788902755905511
21
2.0900472047244092
0
LINE
8
BLACK
6
CONTINUOUS
10
1.7788902755905511
20
2.0900472047244092
11
1.7828779527559055
21
2.0960151968503937
0
LINE
8
BLACK
6
CONTINUOUS
10
1.7828779527559055
20
2.0960151968503937
11
1.787953307086614
21
2.1010905511811022
0
LINE
8
BLACK
6
CONTINUOUS
10
1.787953307086614
20
2.1010905511811022
11
1.7939212992125984
21
2.1050782283464566
0
LINE
8
BLACK
6
CONTINUOUS
10
1.7939212992125984
20
2.1050782283464566
11
1.8005525590551181
21
2.1078250000000001
0
LINE
8
BLACK
6
CONTINUOUS
10
1.8005525590551181
20
2.1078250000000001
11
1.8075922834645668
21
2.1092252755905512
0
LINE
8
BLACK
6
CONTINUOUS
10
1.8075922834645668
20
2.1092252755905512
11
1.8147699212598425
21
2.1092252755905512
0
LINE
8
BLACK
6
CONTINUOUS
10
1.8147699212598425
20
2.1092252755905512
11
1.8218096456692914
21
2.1078250000000001
0
LINE
8
BLACK
6
CONTINUOUS
10
1.9218096456692912
20
2.1078250000000001
11
1.928440905511811
21
2.1050782283464566
0
LINE
8
BLACK
6
CONTINUOUS
10
1.928440905511811
20
2.1050782283464566
11
1.9344088976377953
21
2.1010905511811022
0
LINE
8
BLACK
6
CONTINUOUS
10
1.9344088976377953
20
2.1010905511811022
11
1.9394842519685038
21
2.0960151968503937
0
LINE
8
BLACK
6
CONTINUOUS
10
1.9394842519685038
20
2.0960151968503937
11
1.9434719291338582
21
2.0900472047244092
0
LINE
8
BLACK
6
CONTINUOUS
10
1.9434719291338582
20
2.0900472047244092
11
1.9462187007874014
21
2.0834159448818896
0
LINE
8
BLACK
6
CONTINUOUS
10
1.9462187007874014
20
2.0834159448818896
11
1.9476189763779528
21
2.076376220472441
0
LINE
8
BLACK
6
CONTINUOUS
10
1.9476189763779528
20
2.076376220472441
11
1.9476189763779528
21
2.0691985826771653
0
LINE
8
BLACK
6
CONTINUOUS
10
1.9476189763779528
20
2.0691985826771653
11
1.9462187007874014
21
2.0621588582677166
0
LINE
8
BLACK
6
CONTINUOUS
10
1.9462187007874014
20
2.0621588582677166
11
1.9434719291338582
21
2.0555275984251966
0
LINE
8
BLACK
6
CONTINUOUS
10
1.9434719291338582
20
2.0555275984251966
11
1.9394842519685038
21
2.0495596062992125
0
LINE
8
BLACK
6
CONTINUOUS
10
1.9394842519685038
20
2.0495596062992125
11
1.9344088976377953
21
2.044484251968504
0
LINE
8
BLACK
6
CONTINUOUS
10
1.9344088976377953
20
2.044484251968504
11
1.928440905511811
21
2.0404965748031496
0
LINE
8
BLACK
6
CONTINUOUS
10
1.928440905511811
20
2.0404965748031496
11
1.9218096456692912
21
2.0377498031496062
0
LINE
8
BLACK
6
CONTINUOUS
10
1.9218096456692912
20
2.0377498031496062
11
1.9147699212598426
21
2.0363495275590551
0
LINE
8
BLACK
6
CONTINUOUS
10
1.9147699212598426
20
2.0363495275590551
11
1.9075922834645669
21
2.0363495275590551
0
LINE
8
BLACK
6
CONTINUOUS
10
1.9075922834645669
20
2.0363495275590551
11
1.900552559055118
21
2.0377498031496062
0
LINE
8
BLACK
6
CONTINUOUS
10
1.900552559055118
20
2.0377498031496062
11
1.8939212992125984
21
2.0404965748031496
0
LINE
8
BLACK
6
CONTINUOUS
10
1.8939212992125984
20
2.0404965748031496
11
1.8879533070866141
21
2.044484251968504
0
LINE
8
BLACK
6
CONTINUOUS
10
1.8879533070866141
20
2.044484251968504
11
1.8828779527559054
21
2.0495596062992125
0
LINE
8
BLACK
6
CONTINUOUS
10
1.8828779527559054
20
2.0495596062992125
11
1.8788902755905512
21
2.0555275984251966
0
LINE
8
BLACK
6
CONTINUOUS
10
1.8788902755905512
20
2.0555275984251966
11
1.8761435039370078
21
2.0621588582677166
0
LINE
8
BLACK
6
CONTINUOUS
10
1.8761435039370078
20
2.0621588582677166
11
1.8747432283464567
21
2.0691985826771653
0
LINE
8
BLACK
6
CONTINUOUS
10
1.8747432283464567
20
2.0691985826771653
11
1.8747432283464567
21
2.076376220472441
0
LINE
8
BLACK
6
CONTINUOUS
10
1.8747432283464567
20
2.076376220472441
11
1.8761435039370078
21
2.0834159448818896
0
LINE
8
BLACK
6
CONTINUOUS
10
1.8761435039370078
20
2.0834159448818896
11
1.8788902755905512
21
2.0900472047244092
0
LINE
8
BLACK
6
CONTINUOUS
10
1.8788902755905512
20
2.0900472047244092
11
1.8828779527559054
21
2.0960151968503937
0
LINE
8
BLACK
6
CONTINUOUS
10
1.8828779527559054
20
2.0960151968503937
11
1.8879533070866141
21
2.1010905511811022
0
LINE
8
BLACK
6
CONTINUOUS
10
1.8879533070866141
20
2.1010905511811022
11
1.8939212992125984
21
2.1050782283464566
0
LINE
8
BLACK
6
CONTINUOUS
10
1.8939212992125984
20
2.1050782283464566
11
1.900552559055118
21
2.1078250000000001
0
LINE
8
BLACK
6
CONTINUOUS
10
1.900552559055118
20
2.1078250000000001
11
1.9075922834645669
21
2.1092252755905512
0
LINE
8
BLACK
6
CONTINUOUS
10
1.9075922834645669
20
2.1092252755905512
11
1.9147699212598426
21
2.1092252755905512
0
LINE
8
BLACK
6
CONTINUOUS
10
1.9147699212598426
20
2.1092252755905512
11
1.9218096456692912
21
2.1078250000000001
0
LINE
8
BLACK
6
CONTINUOUS
10
2.0218096456692911
20
2.1078250000000001
11
2.0284409055118111
21
2.1050782283464566
0
LINE
8
BLACK
6
CONTINUOUS
10
2.0284409055118111
20
2.1050782283464566
11
2.0344088976377952
21
2.1010905511811022
0
LINE
8
BLACK
6
CONTINUOUS
10
2.0344088976377952
20
2.1010905511811022
11
2.0394842519685037
21
2.0960151968503937
0
LINE
8
BLACK
6
CONTINUOUS
10
2.0394842519685037
20
2.0960151968503937
11
2.0434719291338581
21
2.0900472047244092
0
LINE
8
BLACK
6
CONTINUOUS
10
2.0434719291338581
20
2.0900472047244092
11
2.0462187007874015
21
2.0834159448818896
0
LINE
8
BLACK
6
CONTINUOUS
10
2.0462187007874015
20
2.0834159448818896
11
2.0476189763779526
21
2.076376220472441
0
LINE
8
BLACK
6
CONTINUOUS
10
2.0476189763779526
20
2.076376220472441
11
2.0476189763779526
21
2.0691985826771653
0
LINE
8
BLACK
6
CONTINUOUS
10
2.0476189763779526
20
2.0691985826771653
11
2.0462187007874015
21
2.0621588582677166
0
LINE
8
BLACK
6
CONTINUOUS
10
2.0462187007874015
20
2.0621588582677166
11
2.0434719291338581
21
2.0555275984251966
0
LINE
8
BLACK
6
CONTINUOUS
10
2.0434719291338581
20
2.0555275984251966
11
2.0394842519685037
21
2.0495596062992125
0
LINE
8
BLACK
6
CONTINUOUS
10
2.0394842519685037
20
2.0495596062992125
11
2.0344088976377952
21
2.044484251968504
0
LINE
8
BLACK
6
CONTINUOUS
10
2.0344088976377952
20
2.044484251968504
11
2.0284409055118111
21
2.0404965748031496
0
LINE
8
BLACK
6
CONTINUOUS
10
2.0284409055118111
20
2.0404965748031496
11
2.0218096456692911
21
2.0377498031496062
0
LINE
8
BLACK
6
CONTINUOUS
10
2.0218096456692911
20
2.0377498031496062
11
2.0147699212598424
21
2.0363495275590551
0
LINE
8
BLACK
6
CONTINUOUS
10
2.0147699212598424
20
2.0363495275590551
11
2.0075922834645668
21
2.0363495275590551
0
LINE
8
BLACK
6
CONTINUOUS
10
2.0075922834645668
20
2.0363495275590551
11
2.0005525590551181
21
2.0377498031496062
0
LINE
8
BLACK
6
CONTINUOUS
10
2.0005525590551181
20
2.0377498031496062
11
1.9939212992125983
21
2.0404965748031496
0
LINE
8
BLACK
6
CONTINUOUS
10
1.9939212992125983
20
2.0404965748031496
11
1.9879533070866142
21
2.044484251968504
0
LINE
8
BLACK
6
CONTINUOUS
10
1.9879533070866142
20
2.044484251968504
11
1.9828779527559055
21
2.0495596062992125
0
LINE
8
BLACK
6
CONTINUOUS
10
1.9828779527559055
20
2.0495596062992125
11
1.9788902755905511
21
2.0555275984251966
0
LINE
8
BLACK
6
CONTINUOUS
10
1.9788902755905511
20
2.0555275984251966
11
1.9761435039370079
21
2.0621588582677166
0
LINE
8
BLACK
6
CONTINUOUS
10
1.9761435039370079
20
2.0621588582677166
11
1.9747432283464565
21
2.0691985826771653
0
LINE
8
BLACK
6
CONTINUOUS
10
1.9747432283464565
20
2.0691985826771653
11
1.9747432283464565
21
2.076376220472441
0
LINE
8
BLACK
6
CONTINUOUS
10
1.9747432283464565
20
2.076376220472441
11
1.9761435039370079
21
2.0834159448818896
0
LINE
8
BLACK
6
CONTINUOUS
10
1.9761435039370079
20
2.0834159448818896
11
1.9788902755905511
21
2.0900472047244092
0
LINE
8
BLACK
6
CONTINUOUS
10
1.9788902755905511
20
2.0900472047244092
11
1.9828779527559055
21
2.0960151968503937
0
LINE
8
BLACK
6
CONTINUOUS
10
1.9828779527559055
20
2.0960151968503937
11
1.9879533070866142
21
2.1010905511811022
0
LINE
8
BLACK
6
CONTINUOUS
10
1.9879533070866142
20
2.1010905511811022
11
1.9939212992125983
21
2.1050782283464566
0
LINE
8
BLACK
6
CONTINUOUS
10
1.9939212992125983
20
2.1050782283464566
11
2.0005525590551181
21
2.1078250000000001
0
LINE
8
BLACK
6
CONTINUOUS
10
2.0005525590551181
20
2.1078250000000001
11
2.0075922834645668
21
2.1092252755905512
0
LINE
8
BLACK
6
CONTINUOUS
10
2.0075922834645668
20
2.1092252755905512
11
2.0147699212598424
21
2.1092252755905512
0
LINE
8
BLACK
6
CONTINUOUS
10
2.0147699212598424
20
2.1092252755905512
11
2.0218096456692911
21
2.1078250000000001
0
LINE
8
BLACK
6
CONTINUOUS
10
2.1218096456692912
20
2.1078250000000001
11
2.1284409055118108
21
2.1050782283464566
0
LINE
8
BLACK
6
CONTINUOUS
10
2.1284409055118108
20
2.1050782283464566
11
2.1344088976377953
21
2.1010905511811022
0
LINE
8
BLACK
6
CONTINUOUS
10
2.1344088976377953
20
2.1010905511811022
11
2.1394842519685038
21
2.0960151968503937
0
LINE
8
BLACK
6
CONTINUOUS
10
2.1394842519685038
20
2.0960151968503937
11
2.1434719291338582
21
2.0900472047244092
0
LINE
8
BLACK
6
CONTINUOUS
10
2.1434719291338582
20
2.0900472047244092
11
2.1462187007874016
21
2.0834159448818896
0
LINE
8
BLACK
6
CONTINUOUS
10
2.1462187007874016
20
2.0834159448818896
11
2.1476189763779527
21
2.076376220472441
0
LINE
8
BLACK
6
CONTINUOUS
10
2.1476189763779527
20
2.076376220472441
11
2.1476189763779527
21
2.0691985826771653
0
LINE
8
BLACK
6
CONTINUOUS
10
2.1476189763779527
20
2.0691985826771653
11
2.1462187007874016
21
2.0621588582677166
0
LINE
8
BLACK
6
CONTINUOUS
10
2.1462187007874016
20
2.0621588582677166
11
2.1434719291338582
21
2.0555275984251966
0
LINE
8
BLACK
6
CONTINUOUS
10
2.1434719291338582
20
2.0555275984251966
11
2.1394842519685038
21
2.0495596062992125
0
LINE
8
BLACK
6
CONTINUOUS
10
2.1394842519685038
20
2.0495596062992125
11
2.1344088976377953
21
2.044484251968504
0
LINE
8
BLACK
6
CONTINUOUS
10
2.1344088976377953
20
2.044484251968504
11
2.1284409055118108
21
2.0404965748031496
0
LINE
8
BLACK
6
CONTINUOUS
10
2.1284409055118108
20
2.0404965748031496
11
2.1218096456692912
21
2.0377498031496062
0
LINE
8
BLACK
6
CONTINUOUS
10
2.1218096456692912
20
2.0377498031496062
11
2.1147699212598425
21
2.0363495275590551
0
LINE
8
BLACK
6
CONTINUOUS
10
2.1147699212598425
20
2.0363495275590551
11
2.1075922834645668
21
2.0363495275590551
0
LINE
8
BLACK
6
CONTINUOUS
10
2.1075922834645668
20
2.0363495275590551
11
2.1005525590551182
21
2.0377498031496062
0
LINE
8
BLACK
6
CONTINUOUS
10
2.1005525590551182
20
2.0377498031496062
11
2.0939212992125982
21
2.0404965748031496
0
LINE
8
BLACK
6
CONTINUOUS
10
2.0939212992125982
20
2.0404965748031496
11
2.0879533070866141
21
2.044484251968504
0
LINE
8
BLACK
6
CONTINUOUS
10
2.0879533070866141
20
2.044484251968504
11
2.0828779527559056
21
2.0495596062992125
0
LINE
8
BLACK
6
CONTINUOUS
10
2.0828779527559056
20
2.0495596062992125
11
2.0788902755905512
21
2.0555275984251966
0
LINE
8
BLACK
6
CONTINUOUS
10
2.0788902755905512
20
2.0555275984251966
11
2.0761435039370078
21
2.0621588582677166
0
LINE
8
BLACK
6
CONTINUOUS
10
2.0761435039370078
20
2.0621588582677166
11
2.0747432283464566
21
2.0691985826771653
0
LINE
8
BLACK
6
CONTINUOUS
10
2.0747432283464566
20
2.0691985826771653
11
2.0747432283464566
21
2.076376220472441
0
LINE
8
BLACK
6
CONTINUOUS
10
2.0747432283464566
20
2.076376220472441
11
2.0761435039370078
21
2.0834159448818896
0
LINE
8
BLACK
6
CONTINUOUS
10
2.0761435039370078
20
2.0834159448818896
11
2.0788902755905512
21
2.0900472047244092
0
LINE
8
BLACK
6
CONTINUOUS
10
2.0788902755905512
20
2.0900472047244092
11
2.0828779527559056
21
2.0960151968503937
0
LINE
8
BLACK
6
CONTINUOUS
10
2.0828779527559056
20
2.0960151968503937
11
2.0879533070866141
21
2.1010905511811022
0
LINE
8
BLACK
6
CONTINUOUS
10
2.0879533070866141
20
2.1010905511811022
11
2.0939212992125982
21
2.1050782283464566
0
LINE
8
BLACK
6
CONTINUOUS
10
2.0939212992125982
20
2.1050782283464566
11
2.1005525590551182
21
2.1078250000000001
0
LINE
8
BLACK
6
CONTINUOUS
10
2.1005525590551182
20
2.1078250000000001
11
2.1075922834645668
21
2.1092252755905512
0
LINE
8
BLACK
6
CONTINUOUS
10
2.1075922834645668
20
2.1092252755905512
11
2.1147699212598425
21
2.1092252755905512
0
LINE
8
BLACK
6
CONTINUOUS
10
2.1147699212598425
20
2.1092252755905512
11
2.1218096456692912
21
2.1078250000000001
0
LINE
8
BLACK
6
CONTINUOUS
10
2.2218096456692913
20
2.1078250000000001
11
2.2284409055118108
21
2.1050782283464566
0
LINE
8
BLACK
6
CONTINUOUS
10
2.2284409055118108
20
2.1050782283464566
11
2.2344088976377954
21
2.1010905511811022
0
LINE
8
BLACK
6
CONTINUOUS
10
2.2344088976377954
20
2.1010905511811022
11
2.2394842519685039
21
2.0960151968503937
0
LINE
8
BLACK
6
CONTINUOUS
10
2.2394842519685039
20
2.0960151968503937
11
2.2434719291338583
21
2.0900472047244092
0
LINE
8
BLACK
6
CONTINUOUS
10
2.2434719291338583
20
2.0900472047244092
11
2.2462187007874017
21
2.0834159448818896
0
LINE
8
BLACK
6
CONTINUOUS
10
2.2462187007874017
20
2.0834159448818896
11
2.2476189763779528
21
2.076376220472441
0
LINE
8
BLACK
6
CONTINUOUS
10
2.2476189763779528
20
2.076376220472441
11
2.2476189763779528
21
2.0691985826771653
0
LINE
8
BLACK
6
CONTINUOUS
10
2.2476189763779528
20
2.0691985826771653
11
2.2462187007874017
21
2.0621588582677166
0
LINE
8
BLACK
6
CONTINUOUS
10
2.2462187007874017
20
2.0621588582677166
11
2.2434719291338583
21
2.0555275984251966
0
LINE
8
BLACK
6
CONTINUOUS
10
2.2434719291338583
20
2.0555275984251966
11
2.2394842519685039
21
2.0495596062992125
0
LINE
8
BLACK
6
CONTINUOUS
10
2.2394842519685039
20
2.0495596062992125
11
2.2344088976377954
21
2.044484251968504
0
LINE
8
BLACK
6
CONTINUOUS
10
2.2344088976377954
20
2.044484251968504
11
2.2284409055118108
21
2.0404965748031496
0
LINE
8
BLACK
6
CONTINUOUS
10
2.2284409055118108
20
2.0404965748031496
11
2.2218096456692913
21
2.0377498031496062
0
LINE
8
BLACK
6
CONTINUOUS
10
2.2218096456692913
20
2.0377498031496062
11
2.2147699212598426
21
2.0363495275590551
0
LINE
8
BLACK
6
CONTINUOUS
10
2.2147699212598426
20
2.0363495275590551
11
2.2075922834645669
21
2.0363495275590551
0
LINE
8
BLACK
6
CONTINUOUS
10
2.2075922834645669
20
2.0363495275590551
11
2.2005525590551183
21
2.0377498031496062
0
LINE
8
BLACK
6
CONTINUOUS
10
2.2005525590551183
20
2.0377498031496062
11
2.1939212992125983
21
2.0404965748031496
0
LINE
8
BLACK
6
CONTINUOUS
10
2.1939212992125983
20
2.0404965748031496
11
2.1879533070866142
21
2.044484251968504
0
LINE
8
BLACK
6
CONTINUOUS
10
2.1879533070866142
20
2.044484251968504
11
2.1828779527559057
21
2.0495596062992125
0
LINE
8
BLACK
6
CONTINUOUS
10
2.1828779527559057
20
2.0495596062992125
11
2.1788902755905513
21
2.0555275984251966
0
LINE
8
BLACK
6
CONTINUOUS
10
2.1788902755905513
20
2.0555275984251966
11
2.1761435039370078
21
2.0621588582677166
0
LINE
8
BLACK
6
CONTINUOUS
10
2.1761435039370078
20
2.0621588582677166
11
2.1747432283464567
21
2.0691985826771653
0
LINE
8
BLACK
6
CONTINUOUS
10
2.1747432283464567
20
2.0691985826771653
11
2.1747432283464567
21
2.076376220472441
0
LINE
8
BLACK
6
CONTINUOUS
10
2.1747432283464567
20
2.076376220472441
11
2.1761435039370078
21
2.0834159448818896
0
LINE
8
BLACK
6
CONTINUOUS
10
2.1761435039370078
20
2.0834159448818896
11
2.1788902755905513
21
2.0900472047244092
0
LINE
8
BLACK
6
CONTINUOUS
10
2.1788902755905513
20
2.0900472047244092
11
2.1828779527559057
21
2.0960151968503937
0
LINE
8
BLACK
6
CONTINUOUS
10
2.1828779527559057
20
2.0960151968503937
11
2.1879533070866142
21
2.1010905511811022
0
LINE
8
BLACK
6
CONTINUOUS
10
2.1879533070866142
20
2.1010905511811022
11
2.1939212992125983
21
2.1050782283464566
0
LINE
8
BLACK
6
CONTINUOUS
10
2.1939212992125983
20
2.1050782283464566
11
2.2005525590551183
21
2.1078250000000001
0
LINE
8
BLACK
6
CONTINUOUS
10
2.2005525590551183
20
2.1078250000000001
11
2.2075922834645669
21
2.1092252755905512
0
LINE
8
BLACK
6
CONTINUOUS
10
2.2075922834645669
20
2.1092252755905512
11
2.2147699212598426
21
2.1092252755905512
0
LINE
8
BLACK
6
CONTINUOUS
10
2.2147699212598426
20
2.1092252755905512
11
2.2218096456692913
21
2.1078250000000001
0
LINE
8
BLACK
6
CONTINUOUS
10
2.3218096456692914
20
2.1078250000000001
11
2.3284409055118109
21
2.1050782283464566
0
LINE
8
BLACK
6
CONTINUOUS
10
2.3284409055118109
20
2.1050782283464566
11
2.334408897637795
21
2.1010905511811022
0
LINE
8
BLACK
6
CONTINUOUS
10
2.334408897637795
20
2.1010905511811022
11
2.339484251968504
21
2.0960151968503937
0
LINE
8
BLACK
6
CONTINUOUS
10
2.339484251968504
20
2.0960151968503937
11
2.3434719291338584
21
2.0900472047244092
0
LINE
8
BLACK
6
CONTINUOUS
10
2.3434719291338584
20
2.0900472047244092
11
2.3462187007874014
21
2.0834159448818896
0
LINE
8
BLACK
6
CONTINUOUS
10
2.3462187007874014
20
2.0834159448818896
11
2.3476189763779529
21
2.076376220472441
0
LINE
8
BLACK
6
CONTINUOUS
10
2.3476189763779529
20
2.076376220472441
11
2.3476189763779529
21
2.0691985826771653
0
LINE
8
BLACK
6
CONTINUOUS
10
2.3476189763779529
20
2.0691985826771653
11
2.3462187007874014
21
2.0621588582677166
0
LINE
8
BLACK
6
CONTINUOUS
10
2.3462187007874014
20
2.0621588582677166
11
2.3434719291338584
21
2.0555275984251966
0
LINE
8
BLACK
6
CONTINUOUS
10
2.3434719291338584
20
2.0555275984251966
11
2.339484251968504
21
2.0495596062992125
0
LINE
8
BLACK
6
CONTINUOUS
10
2.339484251968504
20
2.0495596062992125
11
2.334408897637795
21
2.044484251968504
0
LINE
8
BLACK
6
CONTINUOUS
10
2.334408897637795
20
2.044484251968504
11
2.3284409055118109
21
2.0404965748031496
0
LINE
8
BLACK
6
CONTINUOUS
10
2.3284409055118109
20
2.0404965748031496
11
2.3218096456692914
21
2.0377498031496062
0
LINE
8
BLACK
6
CONTINUOUS
10
2.3218096456692914
20
2.0377498031496062
11
2.3147699212598423
21
2.0363495275590551
0
LINE
8
BLACK
6
CONTINUOUS
10
2.3147699212598423
20
2.0363495275590551
11
2.307592283464567
21
2.0363495275590551
0
LINE
8
BLACK
6
CONTINUOUS
10
2.307592283464567
20
2.0363495275590551
11
2.3005525590551179
21
2.0377498031496062
0
LINE
8
BLACK
6
CONTINUOUS
10
2.3005525590551179
20
2.0377498031496062
11
2.2939212992125984
21
2.0404965748031496
0
LINE
8
BLACK
6
CONTINUOUS
10
2.2939212992125984
20
2.0404965748031496
11
2.2879533070866143
21
2.044484251968504
0
LINE
8
BLACK
6
CONTINUOUS
10
2.2879533070866143
20
2.044484251968504
11
2.2828779527559053
21
2.0495596062992125
0
LINE
8
BLACK
6
CONTINUOUS
10
2.2828779527559053
20
2.0495596062992125
11
2.2788902755905514
21
2.0555275984251966
0
LINE
8
BLACK
6
CONTINUOUS
10
2.2788902755905514
20
2.0555275984251966
11
2.2761435039370079
21
2.0621588582677166
0
LINE
8
BLACK
6
CONTINUOUS
10
2.2761435039370079
20
2.0621588582677166
11
2.2747432283464568
21
2.0691985826771653
0
LINE
8
BLACK
6
CONTINUOUS
10
2.2747432283464568
20
2.0691985826771653
11
2.2747432283464568
21
2.076376220472441
0
LINE
8
BLACK
6
CONTINUOUS
10
2.2747432283464568
20
2.076376220472441
11
2.2761435039370079
21
2.0834159448818896
0
LINE
8
BLACK
6
CONTINUOUS
10
2.2761435039370079
20
2.0834159448818896
11
2.2788902755905514
21
2.0900472047244092
0
LINE
8
BLACK
6
CONTINUOUS
10
2.2788902755905514
20
2.0900472047244092
11
2.2828779527559053
21
2.0960151968503937
0
LINE
8
BLACK
6
CONTINUOUS
10
2.2828779527559053
20
2.0960151968503937
11
2.2879533070866143
21
2.1010905511811022
0
LINE
8
BLACK
6
CONTINUOUS
10
2.2879533070866143
20
2.1010905511811022
11
2.2939212992125984
21
2.1050782283464566
0
LINE
8
BLACK
6
CONTINUOUS
10
2.2939212992125984
20
2.1050782283464566
11
2.3005525590551179
21
2.1078250000000001
0
LINE
8
BLACK
6
CONTINUOUS
10
2.3005525590551179
20
2.1078250000000001
11
2.307592283464567
21
2.1092252755905512
0
LINE
8
BLACK
6
CONTINUOUS
10
2.307592283464567
20
2.1092252755905512
11
2.3147699212598423
21
2.1092252755905512
0
LINE
8
BLACK
6
CONTINUOUS
10
2.3147699212598423
20
2.1092252755905512
11
2.3218096456692914
21
2.1078250000000001
0
LINE
8
BLACK
6
CONTINUOUS
10
0.7686466929133858
20
2.7030162598425198
11
0.7757770866141732
21
2.7000627559055119
0
LINE
8
BLACK
6
CONTINUOUS
10
0.7757770866141732
20
2.7000627559055119
11
0.7821942519685039
21
2.6957749212598423
0
LINE
8
BLACK
6
CONTINUOUS
10
0.7821942519685039
20
2.6957749212598423
11
0.7876516141732284
21
2.690317559055118
0
LINE
8
BLACK
6
CONTINUOUS
10
0.7876516141732284
20
2.690317559055118
11
0.7919394488188977
21
2.6839003937007875
0
LINE
8
BLACK
6
CONTINUOUS
10
0.7919394488188977
20
2.6839003937007875
11
0.7948929527559055
21
2.6767699999999999
0
LINE
8
BLACK
6
CONTINUOUS
10
0.7948929527559055
20
2.6767699999999999
11
0.7963986614173229
21
2.6692003937007875
0
LINE
8
BLACK
6
CONTINUOUS
10
0.7963986614173229
20
2.6692003937007875
11
0.7963986614173229
21
2.6614825196850393
0
LINE
8
BLACK
6
CONTINUOUS
10
0.7963986614173229
20
2.6614825196850393
11
0.7948929527559055
21
2.6539129133858266
0
LINE
8
BLACK
6
CONTINUOUS
10
0.7948929527559055
20
2.6539129133858266
11
0.7919394488188977
21
2.6467825196850394
0
LINE
8
BLACK
6
CONTINUOUS
10
0.7919394488188977
20
2.6467825196850394
11
0.7876516141732284
21
2.6403653543307084
0
LINE
8
BLACK
6
CONTINUOUS
10
0.7876516141732284
20
2.6403653543307084
11
0.7821942519685039
21
2.6349079921259841
0
LINE
8
BLACK
6
CONTINUOUS
10
0.7821942519685039
20
2.6349079921259841
11
0.7757770866141732
21
2.630620157480315
0
LINE
8
BLACK
6
CONTINUOUS
10
0.7757770866141732
20
2.630620157480315
11
0.7686466929133858
21
2.6276666535433071
0
LINE
8
BLACK
6
CONTINUOUS
10
0.7686466929133858
20
2.6276666535433071
11
0.7610770866141732
21
2.6261609448818897
0
LINE
8
BLACK
6
CONTINUOUS
10
0.7610770866141732
20
2.6261609448818897
11
0.7533592125984252
21
2.6261609448818897
0
LINE
8
BLACK
6
CONTINUOUS
10
0.7533592125984252
20
2.6261609448818897
11
0.7457896062992125
21
2.6276666535433071
0
LINE
8
BLACK
6
CONTINUOUS
10
0.7457896062992125
20
2.6276666535433071
11
0.7386592125984252
21
2.630620157480315
0
LINE
8
BLACK
6
CONTINUOUS
10
0.7386592125984252
20
2.630620157480315
11
0.7322420472440945
21
2.6349079921259841
0
LINE
8
BLACK
6
CONTINUOUS
10
0.7322420472440945
20
2.6349079921259841
11
0.7267846850393701
21
2.6403653543307084
0
LINE
8
BLACK
6
CONTINUOUS
10
0.7267846850393701
20
2.6403653543307084
11
0.7224968503937008
21
2.6467825196850394
0
LINE
8
BLACK
6
CONTINUOUS
10
0.7224968503937008
20
2.6467825196850394
11
0.7195433464566929
21
2.6539129133858266
0
LINE
8
BLACK
6
CONTINUOUS
10
0.7195433464566929
20
2.6539129133858266
11
0.7180376377952756
21
2.6614825196850393
0
LINE
8
BLACK
6
CONTINUOUS
10
0.7180376377952756
20
2.6614825196850393
11
0.7180376377952756
21
2.6692003937007875
0
LINE
8
BLACK
6
CONTINUOUS
10
0.7180376377952756
20
2.6692003937007875
11
0.7195433464566929
21
2.6767699999999999
0
LINE
8
BLACK
6
CONTINUOUS
10
0.7195433464566929
20
2.6767699999999999
11
0.7224968503937008
21
2.6839003937007875
0
LINE
8
BLACK
6
CONTINUOUS
10
0.7224968503937008
20
2.6839003937007875
11
0.7267846850393701
21
2.690317559055118
0
LINE
8
BLACK
6
CONTINUOUS
10
0.7267846850393701
20
2.690317559055118
11
0.7322420472440945
21
2.6957749212598423
0
LINE
8
BLACK
6
CONTINUOUS
10
0.7322420472440945
20
2.6957749212598423
11
0.7386592125984252
21
2.7000627559055119
0
LINE
8
BLACK
6
CONTINUOUS
10
0.7386592125984252
20
2.7000627559055119
11
0.7457896062992125
21
2.7030162598425198
0
LINE
8
BLACK
6
CONTINUOUS
10
0.7457896062992125
20
2.7030162598425198
11
0.7533592125984252
21
2.7045219685039368
0
LINE
8
BLACK
6
CONTINUOUS
10
0.7533592125984252
20
2.7045219685039368
11
0.7610770866141732
21
2.7045219685039368
0
LINE
8
BLACK
6
CONTINUOUS
10
0.7610770866141732
20
2.7045219685039368
11
0.7686466929133858
21
2.7030162598425198
0
CIRCLE
8
BLACK
10
2.7999999999999998
20
2.
40
0.0068897637795276
0
CIRCLE
8
BLACK
10
0.4
20
0.4
40
0.0068897637795276
0
CIRCLE
8
BLACK
10
2.7999999999999998
20
0.4
40
0.0068897637795276
0
CIRCLE
8
BLACK
10
0.4
20
2.
40
0.0068897637795276
0
CIRCLE
8
BLACK
10
0.9111811023622047
20
2.0727874015748031
40
0.0068897637795276
0
CIRCLE
8
BLACK
10
0.9111811023622047
20
1.972787401574803
40
0.0068897637795276
0
CIRCLE
8
BLACK
10
1.0111811023622046
20
2.0727874015748031
40
0.0068897637795276
0
CIRCLE
8
BLACK
10
1.0111811023622046
20
1.972787401574803
40
0.0068897637795276
0
CIRCLE
8
BLACK
10
1.1111811023622047
20
2.0727874015748031
40
0.0068897637795276
0
CIRCLE
8
BLACK
10
1.1111811023622047
20
1.972787401574803
40
0.0068897637795276
0
CIRCLE
8
BLACK
10
1.2111811023622048
20
2.0727874015748031
40
0.0068897637795276
0
CIRCLE
8
BLACK
10
1.2111811023622048
20
1.972787401574803
40
0.0068897637795276
0
CIRCLE
8
BLACK
10
1.3111811023622046
20
2.0727874015748031
40
0.0068897637795276
0
CIRCLE
8
BLACK
10
1.3111811023622046
20
1.972787401574803
40
0.0068897637795276
0
CIRCLE
8
BLACK
10
1.4111811023622047
20
2.0727874015748031
40
0.0068897637795276
0
CIRCLE
8
BLACK
10
1.4111811023622047
20
1.972787401574803
40
0.0068897637795276
0
CIRCLE
8
BLACK
10
1.5111811023622046
20
2.0727874015748031
40
0.0068897637795276
0
CIRCLE
8
BLACK
10
1.5111811023622046
20
1.972787401574803
40
0.0068897637795276
0
CIRCLE
8
BLACK
10
1.6111811023622047
20
2.0727874015748031
40
0.0068897637795276
0
CIRCLE
8
BLACK
10
1.6111811023622047
20
1.972787401574803
40
0.0068897637795276
0
CIRCLE
8
BLACK
10
1.7111811023622048
20
2.0727874015748031
40
0.0068897637795276
0
CIRCLE
8
BLACK
10
1.7111811023622048
20
1.972787401574803
40
0.0068897637795276
0
CIRCLE
8
BLACK
10
1.8111811023622046
20
2.0727874015748031
40
0.0068897637795276
0
CIRCLE
8
BLACK
10
1.8111811023622046
20
1.972787401574803
40
0.0068897637795276
0
CIRCLE
8
BLACK
10
1.9111811023622047
20
2.0727874015748031
40
0.0068897637795276
0
CIRCLE
8
BLACK
10
1.9111811023622047
20
1.972787401574803
40
0.0068897637795276
0
CIRCLE
8
BLACK
10
2.0111811023622046
20
2.0727874015748031
40
0.0068897637795276
0
CIRCLE
8
BLACK
10
2.0111811023622046
20
1.972787401574803
40
0.0068897637795276
0
CIRCLE
8
BLACK
10
2.1111811023622047
20
2.0727874015748031
40
0.0068897637795276
0
CIRCLE
8
BLACK
10
2.1111811023622047
20
1.972787401574803
40
0.0068897637795276
0
CIRCLE
8
BLACK
10
2.2111811023622048
20
2.0727874015748031
40
0.0068897637795276
0
CIRCLE
8
BLACK
10
2.2111811023622048
20
1.972787401574803
40
0.0068897637795276
0
CIRCLE
8
BLACK
10
2.3111811023622049
20
2.0727874015748031
40
0.0068897637795276
0
CIRCLE
8
BLACK
10
2.3111811023622049
20
1.972787401574803
40
0.0068897637795276
0
CIRCLE
8
WHITE
10
2.7999999999999998
20
2.
40
0.0068897637795276
0
CIRCLE
8
WHITE
10
0.4
20
0.4
40
0.0068897637795276
0
CIRCLE
8
WHITE
10
2.7999999999999998
20
0.4
40
0.0068897637795276
0
CIRCLE
8
WHITE
10
0.4
20
2.
40
0.0068897637795276
0
CIRCLE
8
WHITE
10
0.9111811023622047
20
2.0727874015748031
40
0.0068897637795276
0
CIRCLE
8
WHITE
10
0.9111811023622047
20
1.972787401574803
40
0.0068897637795276
0
CIRCLE
8
WHITE
10
1.0111811023622046
20
2.0727874015748031
40
0.0068897637795276
0
CIRCLE
8
WHITE
10
1.0111811023622046
20
1.972787401574803
40
0.0068897637795276
0
CIRCLE
8
WHITE
10
1.1111811023622047
20
2.0727874015748031
40
0.0068897637795276
0
CIRCLE
8
WHITE
10
1.1111811023622047
20
1.972787401574803
40
0.0068897637795276
0
CIRCLE
8
WHITE
10
1.2111811023622048
20
2.0727874015748031
40
0.0068897637795276
0
CIRCLE
8
WHITE
10
1.2111811023622048
20
1.972787401574803
40
0.0068897637795276
0
CIRCLE
8
WHITE
10
1.3111811023622046
20
2.0727874015748031
40
0.0068897637795276
0
CIRCLE
8
WHITE
10
1.3111811023622046
20
1.972787401574803
40
0.0068897637795276
0
CIRCLE
8
WHITE
10
1.4111811023622047
20
2.0727874015748031
40
0.0068897637795276
0
CIRCLE
8
WHITE
10
1.4111811023622047
20
1.972787401574803
40
0.0068897637795276
0
CIRCLE
8
WHITE
10
1.5111811023622046
20
2.0727874015748031
40
0.0068897637795276
0
CIRCLE
8
WHITE
10
1.5111811023622046
20
1.972787401574803
40
0.0068897637795276
0
CIRCLE
8
WHITE
10
1.6111811023622047
20
2.0727874015748031
40
0.0068897637795276
0
CIRCLE
8
WHITE
10
1.6111811023622047
20
1.972787401574803
40
0.0068897637795276
0
CIRCLE
8
WHITE
10
1.7111811023622048
20
2.0727874015748031
40
0.0068897637795276
0
CIRCLE
8
WHITE
10
1.7111811023622048
20
1.972787401574803
40
0.0068897637795276
0
CIRCLE
8
WHITE
10
1.8111811023622046
20
2.0727874015748031
40
0.0068897637795276
0
CIRCLE
8
WHITE
10
1.8111811023622046
20
1.972787401574803
40
0.0068897637795276
0
CIRCLE
8
WHITE
10
1.9111811023622047
20
2.0727874015748031
40
0.0068897637795276
0
CIRCLE
8
WHITE
10
1.9111811023622047
20
1.972787401574803
40
0.0068897637795276
0
CIRCLE
8
WHITE
10
2.0111811023622046
20
2.0727874015748031
40
0.0068897637795276
0
CIRCLE
8
WHITE
10
2.0111811023622046
20
1.972787401574803
40
0.0068897637795276
0
CIRCLE
8
WHITE
10
2.1111811023622047
20
2.0727874015748031
40
0.0068897637795276
0
CIRCLE
8
WHITE
10
2.1111811023622047
20
1.972787401574803
40
0.0068897637795276
0
CIRCLE
8
WHITE
10
2.2111811023622048
20
2.0727874015748031
40
0.0068897637795276
0
CIRCLE
8
WHITE
10
2.2111811023622048
20
1.972787401574803
40
0.0068897637795276
0
CIRCLE
8
WHITE
10
2.3111811023622049
20
2.0727874015748031
40
0.0068897637795276
0
CIRCLE
8
WHITE
10
2.3111811023622049
20
1.972787401574803
40
0.0068897637795276
  0
ENDSEC
  0
EOF
