  0
SECTION
  2
HEADER
  9
$ANGBASE
  50
0.0
  9
$ANGDIR
  70
1
  9
$MEASUREMENT
  70
0
  0
ENDSEC
  0
SECTION
  2
TABLES
  0
TABLE
  2
LTYPE
  70
4
  0
LTYPE
  5
40F
  2
CONTINUOUS
  70
0
  3
Solid line
  72
65
  73
0
  40
0.0
  0
LTYPE
  5
410
  2
DASHDOT
 70
0
  3
Dash Dot ____ _ ____ _
 72
65
 73
4
 40
2.0
 49
1.25
 49
-0.25
 49
0.25
 49
-0.25
  0
LTYPE
  5
411
  2
DASHED
 70
0
  3
Dashed __ __ __ __ __
 72
65
 73
2
 40
0.75
 49
0.5
 49
-0.25
  0
LTYPE
  5
43B
  2
DOTTED
 70
0
  3
Dotted .  .  .  .
 72
65
 73
2
 40
0.2
 49
0.0
 49
-0.2
  0
ENDTAB
  0
TABLE
  2
STYLE
  70
4
  0
STYLE
  2
KICAD
  70
0
  40
0
  41
1
  42
1
  50
0
  71
0
  3
isocp.shx
  0
STYLE
  2
KICADB
  70
0
  40
0
  41
1
  42
1
  50
0
  71
0
  3
isocp.shx
  0
STYLE
  2
KICADI
  70
0
  40
0
  41
1
  42
1
  50
15
  71
0
  3
isocp.shx
  0
STYLE
  2
KICADBI
  70
0
  40
0
  41
1
  42
1
  50
15
  71
0
  3
isocp.shx
  0
ENDTAB
  0
TABLE
  2
LAYER
  70
1
  0
LAYER
  2
BLACK
  70
0
  62
7
  6
CONTINUOUS
  0
ENDTAB
  0
ENDSEC
  0
SECTION
  2
ENTITIES
0
LINE
8
BLACK
6
CONTINUOUS
10
2.9905760629921261
20
2.1928960236220472
11
2.9916404724409449
21
2.1924551181102361
0
LINE
8
BLACK
6
CONTINUOUS
10
2.9916404724409449
20
2.1924551181102361
11
2.9924551181102363
21
2.1916404724409446
0
LINE
8
BLACK
6
CONTINUOUS
10
2.9924551181102363
20
2.1916404724409446
11
2.992896023622047
21
2.1905760629921258
0
LINE
8
BLACK
6
CONTINUOUS
10
2.992896023622047
20
2.1905760629921258
11
2.9929527559055118
21
2.1899999999999999
0
LINE
8
BLACK
6
CONTINUOUS
10
2.9929527559055118
20
2.1899999999999999
11
2.9929527559055118
21
0.2100000393700787
0
LINE
8
BLACK
6
CONTINUOUS
10
2.9929527559055118
20
0.2100000393700787
11
2.992896023622047
21
0.2094239763779528
0
LINE
8
BLACK
6
CONTINUOUS
10
2.992896023622047
20
0.2094239763779528
11
2.9924551181102363
21
0.2083595669291338
0
LINE
8
BLACK
6
CONTINUOUS
10
2.9924551181102363
20
0.2083595669291338
11
2.9916404724409449
21
0.2075449212598425
0
LINE
8
BLACK
6
CONTINUOUS
10
2.9916404724409449
20
0.2075449212598425
11
2.9905760629921261
21
0.2071040157480315
0
LINE
8
BLACK
6
CONTINUOUS
10
2.9905760629921261
20
0.2071040157480315
11
2.9899999999999998
21
0.2070472834645669
0
LINE
8
BLACK
6
CONTINUOUS
10
2.9899999999999998
20
0.2070472834645669
11
0.21
21
0.2070472834645669
0
LINE
8
BLACK
6
CONTINUOUS
10
0.21
20
0.2070472834645669
11
0.209423937007874
21
0.2071040157480315
0
LINE
8
BLACK
6
CONTINUOUS
10
0.209423937007874
20
0.2071040157480315
11
0.2083595275590551
21
0.2075449212598425
0
LINE
8
BLACK
6
CONTINUOUS
10
0.2083595275590551
20
0.2075449212598425
11
0.2075448818897638
21
0.2083595669291338
0
LINE
8
BLACK
6
CONTINUOUS
10
0.2075448818897638
20
0.2083595669291338
11
0.2071039763779527
21
0.2094239763779528
0
LINE
8
BLACK
6
CONTINUOUS
10
0.2071039763779527
20
0.2094239763779528
11
0.2070472440944882
21
0.2100000393700787
0
LINE
8
BLACK
6
CONTINUOUS
10
0.2070472440944882
20
0.2100000393700787
11
0.2070472440944882
21
2.1899999999999999
0
LINE
8
BLACK
6
CONTINUOUS
10
0.2070472440944882
20
2.1899999999999999
11
0.2071039763779527
21
2.1905760629921258
0
LINE
8
BLACK
6
CONTINUOUS
10
0.2071039763779527
20
2.1905760629921258
11
0.2075448818897638
21
2.1916404724409446
0
LINE
8
BLACK
6
CONTINUOUS
10
0.2075448818897638
20
2.1916404724409446
11
0.2083595275590551
21
2.1924551181102361
0
LINE
8
BLACK
6
CONTINUOUS
10
0.2083595275590551
20
2.1924551181102361
11
0.209423937007874
21
2.1928960236220472
0
LINE
8
BLACK
6
CONTINUOUS
10
0.209423937007874
20
2.1928960236220472
11
0.21
21
2.192952755905512
0
LINE
8
BLACK
6
CONTINUOUS
10
0.21
20
2.192952755905512
11
2.9899999999999998
21
2.192952755905512
0
LINE
8
BLACK
6
CONTINUOUS
10
2.9899999999999998
20
2.192952755905512
11
2.9905760629921261
21
2.1928960236220472
0
LINE
8
BLACK
6
CONTINUOUS
10
0.2129527559055118
20
2.1870472440944879
11
0.2129527559055118
21
0.2129527952755906
0
LINE
8
BLACK
6
CONTINUOUS
10
0.2129527559055118
20
0.2129527952755906
11
2.9870472440944882
21
0.2129527952755906
0
LINE
8
BLACK
6
CONTINUOUS
10
2.9870472440944882
20
0.2129527952755906
11
2.9870472440944882
21
2.1870472440944879
0
LINE
8
BLACK
6
CONTINUOUS
10
2.9870472440944882
20
2.1870472440944879
11
0.2129527559055118
21
2.1870472440944879
0
CIRCLE
8
BLACK
10
2.7999999999999998
20
2.
40
0.0068897637795276
0
CIRCLE
8
BLACK
10
0.4
20
0.4
40
0.0068897637795276
0
CIRCLE
8
BLACK
10
2.7999999999999998
20
0.4
40
0.0068897637795276
0
CIRCLE
8
BLACK
10
0.4
20
2.
40
0.0068897637795276
0
CIRCLE
8
BLACK
10
0.9111811023622047
20
2.0727874015748031
40
0.0068897637795276
0
CIRCLE
8
BLACK
10
0.9111811023622047
20
1.972787401574803
40
0.0068897637795276
0
CIRCLE
8
BLACK
10
1.0111811023622046
20
2.0727874015748031
40
0.0068897637795276
0
CIRCLE
8
BLACK
10
1.0111811023622046
20
1.972787401574803
40
0.0068897637795276
0
CIRCLE
8
BLACK
10
1.1111811023622047
20
2.0727874015748031
40
0.0068897637795276
0
CIRCLE
8
BLACK
10
1.1111811023622047
20
1.972787401574803
40
0.0068897637795276
0
CIRCLE
8
BLACK
10
1.2111811023622048
20
2.0727874015748031
40
0.0068897637795276
0
CIRCLE
8
BLACK
10
1.2111811023622048
20
1.972787401574803
40
0.0068897637795276
0
CIRCLE
8
BLACK
10
1.3111811023622046
20
2.0727874015748031
40
0.0068897637795276
0
CIRCLE
8
BLACK
10
1.3111811023622046
20
1.972787401574803
40
0.0068897637795276
0
CIRCLE
8
BLACK
10
1.4111811023622047
20
2.0727874015748031
40
0.0068897637795276
0
CIRCLE
8
BLACK
10
1.4111811023622047
20
1.972787401574803
40
0.0068897637795276
0
CIRCLE
8
BLACK
10
1.5111811023622046
20
2.0727874015748031
40
0.0068897637795276
0
CIRCLE
8
BLACK
10
1.5111811023622046
20
1.972787401574803
40
0.0068897637795276
0
CIRCLE
8
BLACK
10
1.6111811023622047
20
2.0727874015748031
40
0.0068897637795276
0
CIRCLE
8
BLACK
10
1.6111811023622047
20
1.972787401574803
40
0.0068897637795276
0
CIRCLE
8
BLACK
10
1.7111811023622048
20
2.0727874015748031
40
0.0068897637795276
0
CIRCLE
8
BLACK
10
1.7111811023622048
20
1.972787401574803
40
0.0068897637795276
0
CIRCLE
8
BLACK
10
1.8111811023622046
20
2.0727874015748031
40
0.0068897637795276
0
CIRCLE
8
BLACK
10
1.8111811023622046
20
1.972787401574803
40
0.0068897637795276
0
CIRCLE
8
BLACK
10
1.9111811023622047
20
2.0727874015748031
40
0.0068897637795276
0
CIRCLE
8
BLACK
10
1.9111811023622047
20
1.972787401574803
40
0.0068897637795276
0
CIRCLE
8
BLACK
10
2.0111811023622046
20
2.0727874015748031
40
0.0068897637795276
0
CIRCLE
8
BLACK
10
2.0111811023622046
20
1.972787401574803
40
0.0068897637795276
0
CIRCLE
8
BLACK
10
2.1111811023622047
20
2.0727874015748031
40
0.0068897637795276
0
CIRCLE
8
BLACK
10
2.1111811023622047
20
1.972787401574803
40
0.0068897637795276
0
CIRCLE
8
BLACK
10
2.2111811023622048
20
2.0727874015748031
40
0.0068897637795276
0
CIRCLE
8
BLACK
10
2.2111811023622048
20
1.972787401574803
40
0.0068897637795276
0
CIRCLE
8
BLACK
10
2.3111811023622049
20
2.0727874015748031
40
0.0068897637795276
0
CIRCLE
8
BLACK
10
2.3111811023622049
20
1.972787401574803
40
0.0068897637795276
0
CIRCLE
8
BLACK
10
2.7999999999999998
20
2.
40
0.0068897637795276
0
CIRCLE
8
BLACK
10
0.4
20
0.4
40
0.0068897637795276
0
CIRCLE
8
BLACK
10
2.7999999999999998
20
0.4
40
0.0068897637795276
0
CIRCLE
8
BLACK
10
0.4
20
2.
40
0.0068897637795276
0
CIRCLE
8
BLACK
10
0.9111811023622047
20
2.0727874015748031
40
0.0068897637795276
0
CIRCLE
8
BLACK
10
0.9111811023622047
20
1.972787401574803
40
0.0068897637795276
0
CIRCLE
8
BLACK
10
1.0111811023622046
20
2.0727874015748031
40
0.0068897637795276
0
CIRCLE
8
BLACK
10
1.0111811023622046
20
1.972787401574803
40
0.0068897637795276
0
CIRCLE
8
BLACK
10
1.1111811023622047
20
2.0727874015748031
40
0.0068897637795276
0
CIRCLE
8
BLACK
10
1.1111811023622047
20
1.972787401574803
40
0.0068897637795276
0
CIRCLE
8
BLACK
10
1.2111811023622048
20
2.0727874015748031
40
0.0068897637795276
0
CIRCLE
8
BLACK
10
1.2111811023622048
20
1.972787401574803
40
0.0068897637795276
0
CIRCLE
8
BLACK
10
1.3111811023622046
20
2.0727874015748031
40
0.0068897637795276
0
CIRCLE
8
BLACK
10
1.3111811023622046
20
1.972787401574803
40
0.0068897637795276
0
CIRCLE
8
BLACK
10
1.4111811023622047
20
2.0727874015748031
40
0.0068897637795276
0
CIRCLE
8
BLACK
10
1.4111811023622047
20
1.972787401574803
40
0.0068897637795276
0
CIRCLE
8
BLACK
10
1.5111811023622046
20
2.0727874015748031
40
0.0068897637795276
0
CIRCLE
8
BLACK
10
1.5111811023622046
20
1.972787401574803
40
0.0068897637795276
0
CIRCLE
8
BLACK
10
1.6111811023622047
20
2.0727874015748031
40
0.0068897637795276
0
CIRCLE
8
BLACK
10
1.6111811023622047
20
1.972787401574803
40
0.0068897637795276
0
CIRCLE
8
BLACK
10
1.7111811023622048
20
2.0727874015748031
40
0.0068897637795276
0
CIRCLE
8
BLACK
10
1.7111811023622048
20
1.972787401574803
40
0.0068897637795276
0
CIRCLE
8
BLACK
10
1.8111811023622046
20
2.0727874015748031
40
0.0068897637795276
0
CIRCLE
8
BLACK
10
1.8111811023622046
20
1.972787401574803
40
0.0068897637795276
0
CIRCLE
8
BLACK
10
1.9111811023622047
20
2.0727874015748031
40
0.0068897637795276
0
CIRCLE
8
BLACK
10
1.9111811023622047
20
1.972787401574803
40
0.0068897637795276
0
CIRCLE
8
BLACK
10
2.0111811023622046
20
2.0727874015748031
40
0.0068897637795276
0
CIRCLE
8
BLACK
10
2.0111811023622046
20
1.972787401574803
40
0.0068897637795276
0
CIRCLE
8
BLACK
10
2.1111811023622047
20
2.0727874015748031
40
0.0068897637795276
0
CIRCLE
8
BLACK
10
2.1111811023622047
20
1.972787401574803
40
0.0068897637795276
0
CIRCLE
8
BLACK
10
2.2111811023622048
20
2.0727874015748031
40
0.0068897637795276
0
CIRCLE
8
BLACK
10
2.2111811023622048
20
1.972787401574803
40
0.0068897637795276
0
CIRCLE
8
BLACK
10
2.3111811023622049
20
2.0727874015748031
40
0.0068897637795276
0
CIRCLE
8
BLACK
10
2.3111811023622049
20
1.972787401574803
40
0.0068897637795276
  0
ENDSEC
  0
EOF
