  0
SECTION
  2
HEADER
  9
$ANGBASE
  50
0.0
  9
$ANGDIR
  70
1
  9
$MEASUREMENT
  70
0
  0
ENDSEC
  0
SECTION
  2
TABLES
  0
TABLE
  2
LTYPE
  70
4
  0
LTYPE
  5
40F
  2
CONTINUOUS
  70
0
  3
Solid line
  72
65
  73
0
  40
0.0
  0
LTYPE
  5
410
  2
DASHDOT
 70
0
  3
Dash Dot ____ _ ____ _
 72
65
 73
4
 40
2.0
 49
1.25
 49
-0.25
 49
0.25
 49
-0.25
  0
LTYPE
  5
411
  2
DASHED
 70
0
  3
Dashed __ __ __ __ __
 72
65
 73
2
 40
0.75
 49
0.5
 49
-0.25
  0
LTYPE
  5
43B
  2
DOTTED
 70
0
  3
Dotted .  .  .  .
 72
65
 73
2
 40
0.2
 49
0.0
 49
-0.2
  0
ENDTAB
  0
TABLE
  2
STYLE
  70
4
  0
STYLE
  2
KICAD
  70
0
  40
0
  41
1
  42
1
  50
0
  71
0
  3
isocp.shx
  0
STYLE
  2
KICADB
  70
0
  40
0
  41
1
  42
1
  50
0
  71
0
  3
isocp.shx
  0
STYLE
  2
KICADI
  70
0
  40
0
  41
1
  42
1
  50
15
  71
0
  3
isocp.shx
  0
STYLE
  2
KICADBI
  70
0
  40
0
  41
1
  42
1
  50
15
  71
0
  3
isocp.shx
  0
ENDTAB
  0
TABLE
  2
LAYER
  70
1
  0
LAYER
  2
BLACK
  70
0
  62
7
  6
CONTINUOUS
  0
ENDTAB
  0
ENDSEC
  0
SECTION
  2
ENTITIES
0
CIRCLE
8
BLACK
10
6.8886748425196851
20
-3.0975168110236222
40
0.0068897637795276
0
CIRCLE
8
BLACK
10
4.0886748425196853
20
-3.0975168110236222
40
0.0068897637795276
0
CIRCLE
8
BLACK
10
4.0886748425196853
20
-4.6975168110236218
40
0.0068897637795276
0
CIRCLE
8
BLACK
10
6.8886748425196851
20
-4.6975168110236218
40
0.0068897637795276
0
CIRCLE
8
BLACK
10
6.1252181496062992
20
-3.0695168110236222
40
0.0068897637795276
0
CIRCLE
8
BLACK
10
6.3173441338582679
20
-3.0695168110236222
40
0.0068897637795276
0
LINE
8
BLACK
6
CONTINUOUS
10
5.4903124803149606
20
-5.7902559055118106
11
5.488842834645669
21
-5.7938039370078736
0
LINE
8
BLACK
6
CONTINUOUS
10
5.488842834645669
20
-5.7938039370078736
11
5.4861273228346459
21
-5.7965194488188976
0
LINE
8
BLACK
6
CONTINUOUS
10
5.4861273228346459
20
-5.7965194488188976
11
5.4825792913385829
21
-5.7979890944881891
0
LINE
8
BLACK
6
CONTINUOUS
10
5.4825792913385829
20
-5.7979890944881891
11
5.4787388976377951
21
-5.7979890944881891
0
LINE
8
BLACK
6
CONTINUOUS
10
5.4787388976377951
20
-5.7979890944881891
11
5.4751908661417321
21
-5.7965194488188976
0
LINE
8
BLACK
6
CONTINUOUS
10
5.4751908661417321
20
-5.7965194488188976
11
5.472475354330709
21
-5.7938039370078736
0
LINE
8
BLACK
6
CONTINUOUS
10
5.472475354330709
20
-5.7938039370078736
11
5.4710057086614174
21
-5.7902559055118106
0
LINE
8
BLACK
6
CONTINUOUS
10
5.4710057086614174
20
-5.7902559055118106
11
5.4708165748031492
21
-5.7883357086614176
0
LINE
8
BLACK
6
CONTINUOUS
10
5.4708165748031492
20
-5.7883357086614176
11
5.4708165748031492
21
-5.7725876771653546
0
LINE
8
BLACK
6
CONTINUOUS
10
5.4708165748031492
20
-5.7725876771653546
11
5.4710057086614174
21
-5.7706674803149607
0
LINE
8
BLACK
6
CONTINUOUS
10
5.4710057086614174
20
-5.7706674803149607
11
5.472475354330709
21
-5.7671194488188977
0
LINE
8
BLACK
6
CONTINUOUS
10
5.472475354330709
20
-5.7671194488188977
11
5.4751908661417321
21
-5.7644039370078737
0
LINE
8
BLACK
6
CONTINUOUS
10
5.4751908661417321
20
-5.7644039370078737
11
5.4787388976377951
21
-5.7629342913385821
0
LINE
8
BLACK
6
CONTINUOUS
10
5.4787388976377951
20
-5.7629342913385821
11
5.4825792913385829
21
-5.7629342913385821
0
LINE
8
BLACK
6
CONTINUOUS
10
5.4825792913385829
20
-5.7629342913385821
11
5.4861273228346459
21
-5.7644039370078737
0
LINE
8
BLACK
6
CONTINUOUS
10
5.4861273228346459
20
-5.7644039370078737
11
5.488842834645669
21
-5.7671194488188977
0
LINE
8
BLACK
6
CONTINUOUS
10
5.488842834645669
20
-5.7671194488188977
11
5.4903124803149606
21
-5.7706674803149607
0
LINE
8
BLACK
6
CONTINUOUS
10
5.4903124803149606
20
-5.7706674803149607
11
5.4905016141732279
21
-5.7725876771653546
0
LINE
8
BLACK
6
CONTINUOUS
10
5.4905016141732279
20
-5.7725876771653546
11
5.4905016141732279
21
-5.7883357086614176
0
LINE
8
BLACK
6
CONTINUOUS
10
5.4905016141732279
20
-5.7883357086614176
11
5.4903124803149606
21
-5.7902559055118106
0
LINE
8
BLACK
6
CONTINUOUS
10
5.65763531496063
20
-5.7902559055118106
11
5.6561656692913385
21
-5.7938039370078736
0
LINE
8
BLACK
6
CONTINUOUS
10
5.6561656692913385
20
-5.7938039370078736
11
5.6534501574803144
21
-5.7965194488188976
0
LINE
8
BLACK
6
CONTINUOUS
10
5.6534501574803144
20
-5.7965194488188976
11
5.6499021259842515
21
-5.7979890944881891
0
LINE
8
BLACK
6
CONTINUOUS
10
5.6499021259842515
20
-5.7979890944881891
11
5.6460617322834645
21
-5.7979890944881891
0
LINE
8
BLACK
6
CONTINUOUS
10
5.6460617322834645
20
-5.7979890944881891
11
5.6425137007874016
21
-5.7965194488188976
0
LINE
8
BLACK
6
CONTINUOUS
10
5.6425137007874016
20
-5.7965194488188976
11
5.6397981889763775
21
-5.7938039370078736
0
LINE
8
BLACK
6
CONTINUOUS
10
5.6397981889763775
20
-5.7938039370078736
11
5.6383285433070869
21
-5.7902559055118106
0
LINE
8
BLACK
6
CONTINUOUS
10
5.6383285433070869
20
-5.7902559055118106
11
5.6381394094488186
21
-5.7883357086614176
0
LINE
8
BLACK
6
CONTINUOUS
10
5.6381394094488186
20
-5.7883357086614176
11
5.6381394094488186
21
-5.7725876771653546
0
LINE
8
BLACK
6
CONTINUOUS
10
5.6381394094488186
20
-5.7725876771653546
11
5.6383285433070869
21
-5.7706674803149607
0
LINE
8
BLACK
6
CONTINUOUS
10
5.6383285433070869
20
-5.7706674803149607
11
5.6397981889763775
21
-5.7671194488188977
0
LINE
8
BLACK
6
CONTINUOUS
10
5.6397981889763775
20
-5.7671194488188977
11
5.6425137007874016
21
-5.7644039370078737
0
LINE
8
BLACK
6
CONTINUOUS
10
5.6425137007874016
20
-5.7644039370078737
11
5.6460617322834645
21
-5.7629342913385821
0
LINE
8
BLACK
6
CONTINUOUS
10
5.6460617322834645
20
-5.7629342913385821
11
5.6499021259842515
21
-5.7629342913385821
0
LINE
8
BLACK
6
CONTINUOUS
10
5.6499021259842515
20
-5.7629342913385821
11
5.6534501574803144
21
-5.7644039370078737
0
LINE
8
BLACK
6
CONTINUOUS
10
5.6534501574803144
20
-5.7644039370078737
11
5.6561656692913385
21
-5.7671194488188977
0
LINE
8
BLACK
6
CONTINUOUS
10
5.6561656692913385
20
-5.7671194488188977
11
5.65763531496063
21
-5.7706674803149607
0
LINE
8
BLACK
6
CONTINUOUS
10
5.65763531496063
20
-5.7706674803149607
11
5.6578244488188973
21
-5.7725876771653546
0
LINE
8
BLACK
6
CONTINUOUS
10
5.6578244488188973
20
-5.7725876771653546
11
5.6578244488188973
21
-5.7883357086614176
0
LINE
8
BLACK
6
CONTINUOUS
10
5.6578244488188973
20
-5.7883357086614176
11
5.65763531496063
21
-5.7902559055118106
0
CIRCLE
8
BLACK
10
3.5394622440944881
20
-3.2996979133858266
40
0.0068897637795276
0
CIRCLE
8
BLACK
10
3.439462244094488
20
-3.2996979133858266
40
0.0068897637795276
0
CIRCLE
8
BLACK
10
3.5394622440944881
20
-3.3996979133858267
40
0.0068897637795276
0
CIRCLE
8
BLACK
10
3.439462244094488
20
-3.3996979133858267
40
0.0068897637795276
0
CIRCLE
8
BLACK
10
3.5394622440944881
20
-3.4996979133858268
40
0.0068897637795276
0
CIRCLE
8
BLACK
10
3.439462244094488
20
-3.4996979133858268
40
0.0068897637795276
0
CIRCLE
8
BLACK
10
3.5394622440944881
20
-3.5996979133858269
40
0.0068897637795276
0
CIRCLE
8
BLACK
10
3.439462244094488
20
-3.5996979133858269
40
0.0068897637795276
0
CIRCLE
8
BLACK
10
3.5394622440944881
20
-3.6996979133858265
40
0.0068897637795276
0
CIRCLE
8
BLACK
10
3.439462244094488
20
-3.6996979133858265
40
0.0068897637795276
0
CIRCLE
8
BLACK
10
3.5394622440944881
20
-3.7996979133858266
40
0.0068897637795276
0
CIRCLE
8
BLACK
10
3.439462244094488
20
-3.7996979133858266
40
0.0068897637795276
0
CIRCLE
8
BLACK
10
3.5394622440944881
20
-3.8996979133858267
40
0.0068897637795276
0
CIRCLE
8
BLACK
10
3.439462244094488
20
-3.8996979133858267
40
0.0068897637795276
0
CIRCLE
8
BLACK
10
3.5394622440944881
20
-3.9996979133858268
40
0.0068897637795276
0
CIRCLE
8
BLACK
10
3.439462244094488
20
-3.9996979133858268
40
0.0068897637795276
0
CIRCLE
8
BLACK
10
3.5394622440944881
20
-4.0996979133858265
40
0.0068897637795276
0
CIRCLE
8
BLACK
10
3.439462244094488
20
-4.0996979133858265
40
0.0068897637795276
0
CIRCLE
8
BLACK
10
3.5394622440944881
20
-4.199697913385827
40
0.0068897637795276
0
CIRCLE
8
BLACK
10
3.439462244094488
20
-4.199697913385827
40
0.0068897637795276
0
CIRCLE
8
BLACK
10
3.5394622440944881
20
-4.2996979133858266
40
0.0068897637795276
0
CIRCLE
8
BLACK
10
3.439462244094488
20
-4.2996979133858266
40
0.0068897637795276
0
CIRCLE
8
BLACK
10
3.5394622440944881
20
-4.3996979133858263
40
0.0068897637795276
0
CIRCLE
8
BLACK
10
3.439462244094488
20
-4.3996979133858263
40
0.0068897637795276
0
CIRCLE
8
BLACK
10
3.5394622440944881
20
-4.4996979133858268
40
0.0068897637795276
0
CIRCLE
8
BLACK
10
3.439462244094488
20
-4.4996979133858268
40
0.0068897637795276
0
CIRCLE
8
BLACK
10
3.5394622440944881
20
-4.5996979133858265
40
0.0068897637795276
0
CIRCLE
8
BLACK
10
3.439462244094488
20
-4.5996979133858265
40
0.0068897637795276
0
CIRCLE
8
BLACK
10
3.5394622440944881
20
-4.699697913385827
40
0.0068897637795276
0
CIRCLE
8
BLACK
10
3.439462244094488
20
-4.699697913385827
40
0.0068897637795276
  0
ENDSEC
  0
EOF
