  0
SECTION
  2
HEADER
  9
$ANGBASE
  50
0.0
  9
$ANGDIR
  70
1
  9
$MEASUREMENT
  70
0
  0
ENDSEC
  0
SECTION
  2
TABLES
  0
TABLE
  2
LTYPE
  70
4
  0
LTYPE
  5
40F
  2
CONTINUOUS
  70
0
  3
Solid line
  72
65
  73
0
  40
0.0
  0
LTYPE
  5
410
  2
DASHDOT
 70
0
  3
Dash Dot ____ _ ____ _
 72
65
 73
4
 40
2.0
 49
1.25
 49
-0.25
 49
0.25
 49
-0.25
  0
LTYPE
  5
411
  2
DASHED
 70
0
  3
Dashed __ __ __ __ __
 72
65
 73
2
 40
0.75
 49
0.5
 49
-0.25
  0
LTYPE
  5
43B
  2
DOTTED
 70
0
  3
Dotted .  .  .  .
 72
65
 73
2
 40
0.2
 49
0.0
 49
-0.2
  0
ENDTAB
  0
TABLE
  2
STYLE
  70
4
  0
STYLE
  2
KICAD
  70
0
  40
0
  41
1
  42
1
  50
0
  71
0
  3
isocp.shx
  0
STYLE
  2
KICADB
  70
0
  40
0
  41
1
  42
1
  50
0
  71
0
  3
isocp.shx
  0
STYLE
  2
KICADI
  70
0
  40
0
  41
1
  42
1
  50
15
  71
0
  3
isocp.shx
  0
STYLE
  2
KICADBI
  70
0
  40
0
  41
1
  42
1
  50
15
  71
0
  3
isocp.shx
  0
ENDTAB
  0
TABLE
  2
LAYER
  70
1
  0
LAYER
  2
BLACK
  70
0
  62
7
  6
CONTINUOUS
  0
ENDTAB
  0
ENDSEC
  0
SECTION
  2
ENTITIES
0
LINE
8
BLACK
6
CONTINUOUS
10
0.4201122047244095
20
0.5183720472440945
11
0.4332392125984252
21
0.515375905511811
0
LINE
8
BLACK
6
CONTINUOUS
10
0.4332392125984252
20
0.515375905511811
11
0.4459482283464567
21
0.5109288188976377
0
LINE
8
BLACK
6
CONTINUOUS
10
0.4459482283464567
20
0.5109288188976377
11
0.4580794094488189
21
0.5050867716535433
0
LINE
8
BLACK
6
CONTINUOUS
10
0.4580794094488189
20
0.5050867716535433
11
0.4694801968503937
21
0.4979231889763779
0
LINE
8
BLACK
6
CONTINUOUS
10
0.4694801968503937
20
0.4979231889763779
11
0.4800072440944882
21
0.4895281496062992
0
LINE
8
BLACK
6
CONTINUOUS
10
0.4800072440944882
20
0.4895281496062992
11
0.4895281496062992
21
0.4800072440944882
0
LINE
8
BLACK
6
CONTINUOUS
10
0.4895281496062992
20
0.4800072440944882
11
0.4979231889763779
21
0.4694801968503937
0
LINE
8
BLACK
6
CONTINUOUS
10
0.4979231889763779
20
0.4694801968503937
11
0.5050867716535433
21
0.4580794094488189
0
LINE
8
BLACK
6
CONTINUOUS
10
0.5050867716535433
20
0.4580794094488189
11
0.5109288188976377
21
0.4459482283464567
0
LINE
8
BLACK
6
CONTINUOUS
10
0.5109288188976377
20
0.4459482283464567
11
0.515375905511811
21
0.4332392125984252
0
LINE
8
BLACK
6
CONTINUOUS
10
0.515375905511811
20
0.4332392125984252
11
0.5183720472440945
21
0.4201122047244095
0
LINE
8
BLACK
6
CONTINUOUS
10
0.5183720472440945
20
0.4201122047244095
11
0.5198796062992126
21
0.4067322834645669
0
LINE
8
BLACK
6
CONTINUOUS
10
0.5198796062992126
20
0.4067322834645669
11
0.5198796062992126
21
0.3932677165354331
0
LINE
8
BLACK
6
CONTINUOUS
10
0.5198796062992126
20
0.3932677165354331
11
0.5183720472440945
21
0.3798877952755905
0
LINE
8
BLACK
6
CONTINUOUS
10
0.5183720472440945
20
0.3798877952755905
11
0.515375905511811
21
0.3667607874015748
0
LINE
8
BLACK
6
CONTINUOUS
10
0.515375905511811
20
0.3667607874015748
11
0.5109288188976377
21
0.3540517716535433
0
LINE
8
BLACK
6
CONTINUOUS
10
0.5109288188976377
20
0.3540517716535433
11
0.5050867716535433
21
0.3419205905511811
0
LINE
8
BLACK
6
CONTINUOUS
10
0.5050867716535433
20
0.3419205905511811
11
0.4979231889763779
21
0.3305198031496063
0
LINE
8
BLACK
6
CONTINUOUS
10
0.4979231889763779
20
0.3305198031496063
11
0.4895281496062992
21
0.3199927559055118
0
LINE
8
BLACK
6
CONTINUOUS
10
0.4895281496062992
20
0.3199927559055118
11
0.4800072440944882
21
0.3104718503937008
0
LINE
8
BLACK
6
CONTINUOUS
10
0.4800072440944882
20
0.3104718503937008
11
0.4694801968503937
21
0.302076811023622
0
LINE
8
BLACK
6
CONTINUOUS
10
0.4694801968503937
20
0.302076811023622
11
0.4580794094488189
21
0.2949132283464567
0
LINE
8
BLACK
6
CONTINUOUS
10
0.4580794094488189
20
0.2949132283464567
11
0.4459482283464567
21
0.2890711811023622
0
LINE
8
BLACK
6
CONTINUOUS
10
0.4459482283464567
20
0.2890711811023622
11
0.4332392125984252
21
0.284624094488189
0
LINE
8
BLACK
6
CONTINUOUS
10
0.4332392125984252
20
0.284624094488189
11
0.4201122047244095
21
0.2816279527559055
0
LINE
8
BLACK
6
CONTINUOUS
10
0.4201122047244095
20
0.2816279527559055
11
0.4067322834645669
21
0.2801203937007874
0
LINE
8
BLACK
6
CONTINUOUS
10
0.4067322834645669
20
0.2801203937007874
11
0.3932677165354331
21
0.2801203937007874
0
LINE
8
BLACK
6
CONTINUOUS
10
0.3932677165354331
20
0.2801203937007874
11
0.3798877952755905
21
0.2816279527559055
0
LINE
8
BLACK
6
CONTINUOUS
10
0.3798877952755905
20
0.2816279527559055
11
0.3667607874015748
21
0.284624094488189
0
LINE
8
BLACK
6
CONTINUOUS
10
0.3667607874015748
20
0.284624094488189
11
0.3540517716535433
21
0.2890711811023622
0
LINE
8
BLACK
6
CONTINUOUS
10
0.3540517716535433
20
0.2890711811023622
11
0.3419205905511811
21
0.2949132283464567
0
LINE
8
BLACK
6
CONTINUOUS
10
0.3419205905511811
20
0.2949132283464567
11
0.3305198031496063
21
0.302076811023622
0
LINE
8
BLACK
6
CONTINUOUS
10
0.3305198031496063
20
0.302076811023622
11
0.3199927559055118
21
0.3104718503937008
0
LINE
8
BLACK
6
CONTINUOUS
10
0.3199927559055118
20
0.3104718503937008
11
0.3104718503937008
21
0.3199927559055118
0
LINE
8
BLACK
6
CONTINUOUS
10
0.3104718503937008
20
0.3199927559055118
11
0.302076811023622
21
0.3305198031496063
0
LINE
8
BLACK
6
CONTINUOUS
10
0.302076811023622
20
0.3305198031496063
11
0.2949132283464567
21
0.3419205905511811
0
LINE
8
BLACK
6
CONTINUOUS
10
0.2949132283464567
20
0.3419205905511811
11
0.2890711811023622
21
0.3540517716535433
0
LINE
8
BLACK
6
CONTINUOUS
10
0.2890711811023622
20
0.3540517716535433
11
0.284624094488189
21
0.3667607874015748
0
LINE
8
BLACK
6
CONTINUOUS
10
0.284624094488189
20
0.3667607874015748
11
0.2816279527559055
21
0.3798877952755905
0
LINE
8
BLACK
6
CONTINUOUS
10
0.2816279527559055
20
0.3798877952755905
11
0.2801203937007874
21
0.3932677165354331
0
LINE
8
BLACK
6
CONTINUOUS
10
0.2801203937007874
20
0.3932677165354331
11
0.2801203937007874
21
0.4065218110236221
0
LINE
8
BLACK
6
CONTINUOUS
10
0.2801203937007874
20
0.4065218110236221
11
0.2801203937007874
21
0.4067322834645669
0
LINE
8
BLACK
6
CONTINUOUS
10
0.2801203937007874
20
0.4067322834645669
11
0.2816279527559055
21
0.4201122047244095
0
LINE
8
BLACK
6
CONTINUOUS
10
0.2816279527559055
20
0.4201122047244095
11
0.284624094488189
21
0.4332392125984252
0
LINE
8
BLACK
6
CONTINUOUS
10
0.284624094488189
20
0.4332392125984252
11
0.2890711811023622
21
0.4459482283464567
0
LINE
8
BLACK
6
CONTINUOUS
10
0.2890711811023622
20
0.4459482283464567
11
0.2949132283464567
21
0.4580794094488189
0
LINE
8
BLACK
6
CONTINUOUS
10
0.2949132283464567
20
0.4580794094488189
11
0.302076811023622
21
0.4694801968503937
0
LINE
8
BLACK
6
CONTINUOUS
10
0.302076811023622
20
0.4694801968503937
11
0.3104718503937008
21
0.4800072440944882
0
LINE
8
BLACK
6
CONTINUOUS
10
0.3104718503937008
20
0.4800072440944882
11
0.3199927559055118
21
0.4895281496062992
0
LINE
8
BLACK
6
CONTINUOUS
10
0.3199927559055118
20
0.4895281496062992
11
0.3305198031496063
21
0.4979231889763779
0
LINE
8
BLACK
6
CONTINUOUS
10
0.3305198031496063
20
0.4979231889763779
11
0.3419205905511811
21
0.5050867716535433
0
LINE
8
BLACK
6
CONTINUOUS
10
0.3419205905511811
20
0.5050867716535433
11
0.3540517716535433
21
0.5109288188976377
0
LINE
8
BLACK
6
CONTINUOUS
10
0.3540517716535433
20
0.5109288188976377
11
0.3667607874015748
21
0.515375905511811
0
LINE
8
BLACK
6
CONTINUOUS
10
0.3667607874015748
20
0.515375905511811
11
0.3798877952755905
21
0.5183720472440945
0
LINE
8
BLACK
6
CONTINUOUS
10
0.3798877952755905
20
0.5183720472440945
11
0.3932677165354331
21
0.5198796062992126
0
LINE
8
BLACK
6
CONTINUOUS
10
0.3932677165354331
20
0.5198796062992126
11
0.4067322834645669
21
0.5198796062992126
0
LINE
8
BLACK
6
CONTINUOUS
10
0.4067322834645669
20
0.5198796062992126
11
0.4201122047244095
21
0.5183720472440945
0
LINE
8
BLACK
6
CONTINUOUS
10
0.2838685039370079
20
0.3934781889763779
11
0.2853288976377953
21
0.3805166141732284
0
LINE
8
BLACK
6
CONTINUOUS
10
0.2853288976377953
20
0.3805166141732284
11
0.2882313779527559
21
0.3678
0
LINE
8
BLACK
6
CONTINUOUS
10
0.2882313779527559
20
0.3678
11
0.2925394094488189
21
0.3554883858267717
0
LINE
8
BLACK
6
CONTINUOUS
10
0.2925394094488189
20
0.3554883858267717
11
0.2981988188976378
21
0.3437364960629921
0
LINE
8
BLACK
6
CONTINUOUS
10
0.2981988188976378
20
0.3437364960629921
11
0.3051384645669291
21
0.332692125984252
0
LINE
8
BLACK
6
CONTINUOUS
10
0.3051384645669291
20
0.332692125984252
11
0.3132710236220472
21
0.322494251968504
0
LINE
8
BLACK
6
CONTINUOUS
10
0.3132710236220472
20
0.322494251968504
11
0.322494251968504
21
0.3132710236220472
0
LINE
8
BLACK
6
CONTINUOUS
10
0.322494251968504
20
0.3132710236220472
11
0.332692125984252
21
0.3051384645669291
0
LINE
8
BLACK
6
CONTINUOUS
10
0.332692125984252
20
0.3051384645669291
11
0.3437364960629921
21
0.2981988188976378
0
LINE
8
BLACK
6
CONTINUOUS
10
0.3437364960629921
20
0.2981988188976378
11
0.3554883858267717
21
0.2925394094488189
0
LINE
8
BLACK
6
CONTINUOUS
10
0.3554883858267717
20
0.2925394094488189
11
0.3678
21
0.2882313779527559
0
LINE
8
BLACK
6
CONTINUOUS
10
0.3678
20
0.2882313779527559
11
0.3805166141732284
21
0.2853288976377953
0
LINE
8
BLACK
6
CONTINUOUS
10
0.3805166141732284
20
0.2853288976377953
11
0.3934781889763779
21
0.2838685039370079
0
LINE
8
BLACK
6
CONTINUOUS
10
0.3934781889763779
20
0.2838685039370079
11
0.4065218110236221
21
0.2838685039370079
0
LINE
8
BLACK
6
CONTINUOUS
10
0.4065218110236221
20
0.2838685039370079
11
0.4194833858267716
21
0.2853288976377953
0
LINE
8
BLACK
6
CONTINUOUS
10
0.4194833858267716
20
0.2853288976377953
11
0.4322
21
0.2882313779527559
0
LINE
8
BLACK
6
CONTINUOUS
10
0.4322
20
0.2882313779527559
11
0.4445116141732283
21
0.2925394094488189
0
LINE
8
BLACK
6
CONTINUOUS
10
0.4445116141732283
20
0.2925394094488189
11
0.4562635039370079
21
0.2981988188976378
0
LINE
8
BLACK
6
CONTINUOUS
10
0.4562635039370079
20
0.2981988188976378
11
0.467307874015748
21
0.3051384645669291
0
LINE
8
BLACK
6
CONTINUOUS
10
0.467307874015748
20
0.3051384645669291
11
0.477505748031496
21
0.3132710236220472
0
LINE
8
BLACK
6
CONTINUOUS
10
0.477505748031496
20
0.3132710236220472
11
0.4867289763779528
21
0.322494251968504
0
LINE
8
BLACK
6
CONTINUOUS
10
0.4867289763779528
20
0.322494251968504
11
0.4948615354330709
21
0.332692125984252
0
LINE
8
BLACK
6
CONTINUOUS
10
0.4948615354330709
20
0.332692125984252
11
0.5018011811023622
21
0.3437364960629921
0
LINE
8
BLACK
6
CONTINUOUS
10
0.5018011811023622
20
0.3437364960629921
11
0.5074605905511811
21
0.3554883858267717
0
LINE
8
BLACK
6
CONTINUOUS
10
0.5074605905511811
20
0.3554883858267717
11
0.511768622047244
21
0.3678
0
LINE
8
BLACK
6
CONTINUOUS
10
0.511768622047244
20
0.3678
11
0.5146711023622047
21
0.3805166141732284
0
LINE
8
BLACK
6
CONTINUOUS
10
0.5146711023622047
20
0.3805166141732284
11
0.5161314960629921
21
0.3934781889763779
0
LINE
8
BLACK
6
CONTINUOUS
10
0.5161314960629921
20
0.3934781889763779
11
0.5161314960629921
21
0.4065218110236221
0
LINE
8
BLACK
6
CONTINUOUS
10
0.5161314960629921
20
0.4065218110236221
11
0.5146711023622047
21
0.4194833858267716
0
LINE
8
BLACK
6
CONTINUOUS
10
0.5146711023622047
20
0.4194833858267716
11
0.511768622047244
21
0.4322
0
LINE
8
BLACK
6
CONTINUOUS
10
0.511768622047244
20
0.4322
11
0.5074605905511811
21
0.4445116141732283
0
LINE
8
BLACK
6
CONTINUOUS
10
0.5074605905511811
20
0.4445116141732283
11
0.5018011811023622
21
0.4562635039370079
0
LINE
8
BLACK
6
CONTINUOUS
10
0.5018011811023622
20
0.4562635039370079
11
0.4948615354330709
21
0.467307874015748
0
LINE
8
BLACK
6
CONTINUOUS
10
0.4948615354330709
20
0.467307874015748
11
0.4867289763779528
21
0.477505748031496
0
LINE
8
BLACK
6
CONTINUOUS
10
0.4867289763779528
20
0.477505748031496
11
0.477505748031496
21
0.4867289763779528
0
LINE
8
BLACK
6
CONTINUOUS
10
0.477505748031496
20
0.4867289763779528
11
0.467307874015748
21
0.4948615354330709
0
LINE
8
BLACK
6
CONTINUOUS
10
0.467307874015748
20
0.4948615354330709
11
0.4562635039370079
21
0.5018011811023622
0
LINE
8
BLACK
6
CONTINUOUS
10
0.4562635039370079
20
0.5018011811023622
11
0.4445116141732283
21
0.5074605905511811
0
LINE
8
BLACK
6
CONTINUOUS
10
0.4445116141732283
20
0.5074605905511811
11
0.4322
21
0.511768622047244
0
LINE
8
BLACK
6
CONTINUOUS
10
0.4322
20
0.511768622047244
11
0.4194833858267716
21
0.5146711023622047
0
LINE
8
BLACK
6
CONTINUOUS
10
0.4194833858267716
20
0.5146711023622047
11
0.4065218110236221
21
0.5161314960629921
0
LINE
8
BLACK
6
CONTINUOUS
10
0.4065218110236221
20
0.5161314960629921
11
0.3934781889763779
21
0.5161314960629921
0
LINE
8
BLACK
6
CONTINUOUS
10
0.3934781889763779
20
0.5161314960629921
11
0.3805166141732284
21
0.5146711023622047
0
LINE
8
BLACK
6
CONTINUOUS
10
0.3805166141732284
20
0.5146711023622047
11
0.3678
21
0.511768622047244
0
LINE
8
BLACK
6
CONTINUOUS
10
0.3678
20
0.511768622047244
11
0.3554883858267717
21
0.5074605905511811
0
LINE
8
BLACK
6
CONTINUOUS
10
0.3554883858267717
20
0.5074605905511811
11
0.3437364960629921
21
0.5018011811023622
0
LINE
8
BLACK
6
CONTINUOUS
10
0.3437364960629921
20
0.5018011811023622
11
0.332692125984252
21
0.4948615354330709
0
LINE
8
BLACK
6
CONTINUOUS
10
0.332692125984252
20
0.4948615354330709
11
0.322494251968504
21
0.4867289763779528
0
LINE
8
BLACK
6
CONTINUOUS
10
0.322494251968504
20
0.4867289763779528
11
0.3132710236220472
21
0.477505748031496
0
LINE
8
BLACK
6
CONTINUOUS
10
0.3132710236220472
20
0.477505748031496
11
0.3051384645669291
21
0.467307874015748
0
LINE
8
BLACK
6
CONTINUOUS
10
0.3051384645669291
20
0.467307874015748
11
0.2981988188976378
21
0.4562635039370079
0
LINE
8
BLACK
6
CONTINUOUS
10
0.2981988188976378
20
0.4562635039370079
11
0.2925394094488189
21
0.4445116141732283
0
LINE
8
BLACK
6
CONTINUOUS
10
0.2925394094488189
20
0.4445116141732283
11
0.2882313779527559
21
0.4322
0
LINE
8
BLACK
6
CONTINUOUS
10
0.2882313779527559
20
0.4322
11
0.2853288976377953
21
0.4194833858267716
0
LINE
8
BLACK
6
CONTINUOUS
10
0.2853288976377953
20
0.4194833858267716
11
0.2838685039370079
21
0.4065218110236221
0
LINE
8
BLACK
6
CONTINUOUS
10
0.2838685039370079
20
0.4065218110236221
11
0.2838685039370079
21
0.3934781889763779
0
LINE
8
BLACK
6
CONTINUOUS
10
2.8201122047244094
20
0.5183720472440945
11
2.8332392125984249
21
0.515375905511811
0
LINE
8
BLACK
6
CONTINUOUS
10
2.8332392125984249
20
0.515375905511811
11
2.8459482283464568
21
0.5109288188976377
0
LINE
8
BLACK
6
CONTINUOUS
10
2.8459482283464568
20
0.5109288188976377
11
2.8580794094488189
21
0.5050867716535433
0
LINE
8
BLACK
6
CONTINUOUS
10
2.8580794094488189
20
0.5050867716535433
11
2.8694801968503936
21
0.4979231889763779
0
LINE
8
BLACK
6
CONTINUOUS
10
2.8694801968503936
20
0.4979231889763779
11
2.8800072440944882
21
0.4895281496062992
0
LINE
8
BLACK
6
CONTINUOUS
10
2.8800072440944882
20
0.4895281496062992
11
2.8895281496062992
21
0.4800072440944882
0
LINE
8
BLACK
6
CONTINUOUS
10
2.8895281496062992
20
0.4800072440944882
11
2.8979231889763777
21
0.4694801968503937
0
LINE
8
BLACK
6
CONTINUOUS
10
2.8979231889763777
20
0.4694801968503937
11
2.9050867716535431
21
0.4580794094488189
0
LINE
8
BLACK
6
CONTINUOUS
10
2.9050867716535431
20
0.4580794094488189
11
2.9109288188976379
21
0.4459482283464567
0
LINE
8
BLACK
6
CONTINUOUS
10
2.9109288188976379
20
0.4459482283464567
11
2.9153759055118109
21
0.4332392125984252
0
LINE
8
BLACK
6
CONTINUOUS
10
2.9153759055118109
20
0.4332392125984252
11
2.9183720472440946
21
0.4201122047244095
0
LINE
8
BLACK
6
CONTINUOUS
10
2.9183720472440946
20
0.4201122047244095
11
2.9198796062992125
21
0.4067322834645669
0
LINE
8
BLACK
6
CONTINUOUS
10
2.9198796062992125
20
0.4067322834645669
11
2.9198796062992125
21
0.3932677165354331
0
LINE
8
BLACK
6
CONTINUOUS
10
2.9198796062992125
20
0.3932677165354331
11
2.9183720472440946
21
0.3798877952755905
0
LINE
8
BLACK
6
CONTINUOUS
10
2.9183720472440946
20
0.3798877952755905
11
2.9153759055118109
21
0.3667607874015748
0
LINE
8
BLACK
6
CONTINUOUS
10
2.9153759055118109
20
0.3667607874015748
11
2.9109288188976379
21
0.3540517716535433
0
LINE
8
BLACK
6
CONTINUOUS
10
2.9109288188976379
20
0.3540517716535433
11
2.9050867716535431
21
0.3419205905511811
0
LINE
8
BLACK
6
CONTINUOUS
10
2.9050867716535431
20
0.3419205905511811
11
2.8979231889763777
21
0.3305198031496063
0
LINE
8
BLACK
6
CONTINUOUS
10
2.8979231889763777
20
0.3305198031496063
11
2.8895281496062992
21
0.3199927559055118
0
LINE
8
BLACK
6
CONTINUOUS
10
2.8895281496062992
20
0.3199927559055118
11
2.8800072440944882
21
0.3104718503937008
0
LINE
8
BLACK
6
CONTINUOUS
10
2.8800072440944882
20
0.3104718503937008
11
2.8694801968503936
21
0.302076811023622
0
LINE
8
BLACK
6
CONTINUOUS
10
2.8694801968503936
20
0.302076811023622
11
2.8580794094488189
21
0.2949132283464567
0
LINE
8
BLACK
6
CONTINUOUS
10
2.8580794094488189
20
0.2949132283464567
11
2.8459482283464568
21
0.2890711811023622
0
LINE
8
BLACK
6
CONTINUOUS
10
2.8459482283464568
20
0.2890711811023622
11
2.8332392125984249
21
0.284624094488189
0
LINE
8
BLACK
6
CONTINUOUS
10
2.8332392125984249
20
0.284624094488189
11
2.8201122047244094
21
0.2816279527559055
0
LINE
8
BLACK
6
CONTINUOUS
10
2.8201122047244094
20
0.2816279527559055
11
2.8067322834645667
21
0.2801203937007874
0
LINE
8
BLACK
6
CONTINUOUS
10
2.8067322834645667
20
0.2801203937007874
11
2.7932677165354329
21
0.2801203937007874
0
LINE
8
BLACK
6
CONTINUOUS
10
2.7932677165354329
20
0.2801203937007874
11
2.7798877952755903
21
0.2816279527559055
0
LINE
8
BLACK
6
CONTINUOUS
10
2.7798877952755903
20
0.2816279527559055
11
2.7667607874015747
21
0.284624094488189
0
LINE
8
BLACK
6
CONTINUOUS
10
2.7667607874015747
20
0.284624094488189
11
2.7540517716535433
21
0.2890711811023622
0
LINE
8
BLACK
6
CONTINUOUS
10
2.7540517716535433
20
0.2890711811023622
11
2.7419205905511812
21
0.2949132283464567
0
LINE
8
BLACK
6
CONTINUOUS
10
2.7419205905511812
20
0.2949132283464567
11
2.7305198031496061
21
0.302076811023622
0
LINE
8
BLACK
6
CONTINUOUS
10
2.7305198031496061
20
0.302076811023622
11
2.7199927559055119
21
0.3104718503937008
0
LINE
8
BLACK
6
CONTINUOUS
10
2.7199927559055119
20
0.3104718503937008
11
2.7104718503937009
21
0.3199927559055118
0
LINE
8
BLACK
6
CONTINUOUS
10
2.7104718503937009
20
0.3199927559055118
11
2.702076811023622
21
0.3305198031496063
0
LINE
8
BLACK
6
CONTINUOUS
10
2.702076811023622
20
0.3305198031496063
11
2.6949132283464565
21
0.3419205905511811
0
LINE
8
BLACK
6
CONTINUOUS
10
2.6949132283464565
20
0.3419205905511811
11
2.6890711811023622
21
0.3540517716535433
0
LINE
8
BLACK
6
CONTINUOUS
10
2.6890711811023622
20
0.3540517716535433
11
2.6846240944881887
21
0.3667607874015748
0
LINE
8
BLACK
6
CONTINUOUS
10
2.6846240944881887
20
0.3667607874015748
11
2.6816279527559055
21
0.3798877952755905
0
LINE
8
BLACK
6
CONTINUOUS
10
2.6816279527559055
20
0.3798877952755905
11
2.6801203937007871
21
0.3932677165354331
0
LINE
8
BLACK
6
CONTINUOUS
10
2.6801203937007871
20
0.3932677165354331
11
2.6801203937007871
21
0.4065218110236221
0
LINE
8
BLACK
6
CONTINUOUS
10
2.6801203937007871
20
0.4065218110236221
11
2.6801203937007871
21
0.4067322834645669
0
LINE
8
BLACK
6
CONTINUOUS
10
2.6801203937007871
20
0.4067322834645669
11
2.6816279527559055
21
0.4201122047244095
0
LINE
8
BLACK
6
CONTINUOUS
10
2.6816279527559055
20
0.4201122047244095
11
2.6846240944881887
21
0.4332392125984252
0
LINE
8
BLACK
6
CONTINUOUS
10
2.6846240944881887
20
0.4332392125984252
11
2.6890711811023622
21
0.4459482283464567
0
LINE
8
BLACK
6
CONTINUOUS
10
2.6890711811023622
20
0.4459482283464567
11
2.6949132283464565
21
0.4580794094488189
0
LINE
8
BLACK
6
CONTINUOUS
10
2.6949132283464565
20
0.4580794094488189
11
2.702076811023622
21
0.4694801968503937
0
LINE
8
BLACK
6
CONTINUOUS
10
2.702076811023622
20
0.4694801968503937
11
2.7104718503937009
21
0.4800072440944882
0
LINE
8
BLACK
6
CONTINUOUS
10
2.7104718503937009
20
0.4800072440944882
11
2.7199927559055119
21
0.4895281496062992
0
LINE
8
BLACK
6
CONTINUOUS
10
2.7199927559055119
20
0.4895281496062992
11
2.7305198031496061
21
0.4979231889763779
0
LINE
8
BLACK
6
CONTINUOUS
10
2.7305198031496061
20
0.4979231889763779
11
2.7419205905511812
21
0.5050867716535433
0
LINE
8
BLACK
6
CONTINUOUS
10
2.7419205905511812
20
0.5050867716535433
11
2.7540517716535433
21
0.5109288188976377
0
LINE
8
BLACK
6
CONTINUOUS
10
2.7540517716535433
20
0.5109288188976377
11
2.7667607874015747
21
0.515375905511811
0
LINE
8
BLACK
6
CONTINUOUS
10
2.7667607874015747
20
0.515375905511811
11
2.7798877952755903
21
0.5183720472440945
0
LINE
8
BLACK
6
CONTINUOUS
10
2.7798877952755903
20
0.5183720472440945
11
2.7932677165354329
21
0.5198796062992126
0
LINE
8
BLACK
6
CONTINUOUS
10
2.7932677165354329
20
0.5198796062992126
11
2.8067322834645667
21
0.5198796062992126
0
LINE
8
BLACK
6
CONTINUOUS
10
2.8067322834645667
20
0.5198796062992126
11
2.8201122047244094
21
0.5183720472440945
0
LINE
8
BLACK
6
CONTINUOUS
10
2.6838685039370076
20
0.3934781889763779
11
2.6853288976377954
21
0.3805166141732284
0
LINE
8
BLACK
6
CONTINUOUS
10
2.6853288976377954
20
0.3805166141732284
11
2.6882313779527558
21
0.3678
0
LINE
8
BLACK
6
CONTINUOUS
10
2.6882313779527558
20
0.3678
11
2.6925394094488189
21
0.3554883858267717
0
LINE
8
BLACK
6
CONTINUOUS
10
2.6925394094488189
20
0.3554883858267717
11
2.6981988188976378
21
0.3437364960629921
0
LINE
8
BLACK
6
CONTINUOUS
10
2.6981988188976378
20
0.3437364960629921
11
2.7051384645669292
21
0.332692125984252
0
LINE
8
BLACK
6
CONTINUOUS
10
2.7051384645669292
20
0.332692125984252
11
2.7132710236220472
21
0.322494251968504
0
LINE
8
BLACK
6
CONTINUOUS
10
2.7132710236220472
20
0.322494251968504
11
2.722494251968504
21
0.3132710236220472
0
LINE
8
BLACK
6
CONTINUOUS
10
2.722494251968504
20
0.3132710236220472
11
2.732692125984252
21
0.3051384645669291
0
LINE
8
BLACK
6
CONTINUOUS
10
2.732692125984252
20
0.3051384645669291
11
2.7437364960629922
21
0.2981988188976378
0
LINE
8
BLACK
6
CONTINUOUS
10
2.7437364960629922
20
0.2981988188976378
11
2.7554883858267716
21
0.2925394094488189
0
LINE
8
BLACK
6
CONTINUOUS
10
2.7554883858267716
20
0.2925394094488189
11
2.7677999999999998
21
0.2882313779527559
0
LINE
8
BLACK
6
CONTINUOUS
10
2.7677999999999998
20
0.2882313779527559
11
2.7805166141732283
21
0.2853288976377953
0
LINE
8
BLACK
6
CONTINUOUS
10
2.7805166141732283
20
0.2853288976377953
11
2.793478188976378
21
0.2838685039370079
0
LINE
8
BLACK
6
CONTINUOUS
10
2.793478188976378
20
0.2838685039370079
11
2.8065218110236221
21
0.2838685039370079
0
LINE
8
BLACK
6
CONTINUOUS
10
2.8065218110236221
20
0.2838685039370079
11
2.8194833858267714
21
0.2853288976377953
0
LINE
8
BLACK
6
CONTINUOUS
10
2.8194833858267714
20
0.2853288976377953
11
2.8321999999999998
21
0.2882313779527559
0
LINE
8
BLACK
6
CONTINUOUS
10
2.8321999999999998
20
0.2882313779527559
11
2.8445116141732281
21
0.2925394094488189
0
LINE
8
BLACK
6
CONTINUOUS
10
2.8445116141732281
20
0.2925394094488189
11
2.8562635039370079
21
0.2981988188976378
0
LINE
8
BLACK
6
CONTINUOUS
10
2.8562635039370079
20
0.2981988188976378
11
2.867307874015748
21
0.3051384645669291
0
LINE
8
BLACK
6
CONTINUOUS
10
2.867307874015748
20
0.3051384645669291
11
2.8775057480314961
21
0.3132710236220472
0
LINE
8
BLACK
6
CONTINUOUS
10
2.8775057480314961
20
0.3132710236220472
11
2.8867289763779529
21
0.322494251968504
0
LINE
8
BLACK
6
CONTINUOUS
10
2.8867289763779529
20
0.322494251968504
11
2.8948615354330709
21
0.332692125984252
0
LINE
8
BLACK
6
CONTINUOUS
10
2.8948615354330709
20
0.332692125984252
11
2.9018011811023623
21
0.3437364960629921
0
LINE
8
BLACK
6
CONTINUOUS
10
2.9018011811023623
20
0.3437364960629921
11
2.9074605905511812
21
0.3554883858267717
0
LINE
8
BLACK
6
CONTINUOUS
10
2.9074605905511812
20
0.3554883858267717
11
2.9117686220472438
21
0.3678
0
LINE
8
BLACK
6
CONTINUOUS
10
2.9117686220472438
20
0.3678
11
2.9146711023622047
21
0.3805166141732284
0
LINE
8
BLACK
6
CONTINUOUS
10
2.9146711023622047
20
0.3805166141732284
11
2.916131496062992
21
0.3934781889763779
0
LINE
8
BLACK
6
CONTINUOUS
10
2.916131496062992
20
0.3934781889763779
11
2.916131496062992
21
0.4065218110236221
0
LINE
8
BLACK
6
CONTINUOUS
10
2.916131496062992
20
0.4065218110236221
11
2.9146711023622047
21
0.4194833858267716
0
LINE
8
BLACK
6
CONTINUOUS
10
2.9146711023622047
20
0.4194833858267716
11
2.9117686220472438
21
0.4322
0
LINE
8
BLACK
6
CONTINUOUS
10
2.9117686220472438
20
0.4322
11
2.9074605905511812
21
0.4445116141732283
0
LINE
8
BLACK
6
CONTINUOUS
10
2.9074605905511812
20
0.4445116141732283
11
2.9018011811023623
21
0.4562635039370079
0
LINE
8
BLACK
6
CONTINUOUS
10
2.9018011811023623
20
0.4562635039370079
11
2.8948615354330709
21
0.467307874015748
0
LINE
8
BLACK
6
CONTINUOUS
10
2.8948615354330709
20
0.467307874015748
11
2.8867289763779529
21
0.477505748031496
0
LINE
8
BLACK
6
CONTINUOUS
10
2.8867289763779529
20
0.477505748031496
11
2.8775057480314961
21
0.4867289763779528
0
LINE
8
BLACK
6
CONTINUOUS
10
2.8775057480314961
20
0.4867289763779528
11
2.867307874015748
21
0.4948615354330709
0
LINE
8
BLACK
6
CONTINUOUS
10
2.867307874015748
20
0.4948615354330709
11
2.8562635039370079
21
0.5018011811023622
0
LINE
8
BLACK
6
CONTINUOUS
10
2.8562635039370079
20
0.5018011811023622
11
2.8445116141732281
21
0.5074605905511811
0
LINE
8
BLACK
6
CONTINUOUS
10
2.8445116141732281
20
0.5074605905511811
11
2.8321999999999998
21
0.511768622047244
0
LINE
8
BLACK
6
CONTINUOUS
10
2.8321999999999998
20
0.511768622047244
11
2.8194833858267714
21
0.5146711023622047
0
LINE
8
BLACK
6
CONTINUOUS
10
2.8194833858267714
20
0.5146711023622047
11
2.8065218110236221
21
0.5161314960629921
0
LINE
8
BLACK
6
CONTINUOUS
10
2.8065218110236221
20
0.5161314960629921
11
2.793478188976378
21
0.5161314960629921
0
LINE
8
BLACK
6
CONTINUOUS
10
2.793478188976378
20
0.5161314960629921
11
2.7805166141732283
21
0.5146711023622047
0
LINE
8
BLACK
6
CONTINUOUS
10
2.7805166141732283
20
0.5146711023622047
11
2.7677999999999998
21
0.511768622047244
0
LINE
8
BLACK
6
CONTINUOUS
10
2.7677999999999998
20
0.511768622047244
11
2.7554883858267716
21
0.5074605905511811
0
LINE
8
BLACK
6
CONTINUOUS
10
2.7554883858267716
20
0.5074605905511811
11
2.7437364960629922
21
0.5018011811023622
0
LINE
8
BLACK
6
CONTINUOUS
10
2.7437364960629922
20
0.5018011811023622
11
2.732692125984252
21
0.4948615354330709
0
LINE
8
BLACK
6
CONTINUOUS
10
2.732692125984252
20
0.4948615354330709
11
2.722494251968504
21
0.4867289763779528
0
LINE
8
BLACK
6
CONTINUOUS
10
2.722494251968504
20
0.4867289763779528
11
2.7132710236220472
21
0.477505748031496
0
LINE
8
BLACK
6
CONTINUOUS
10
2.7132710236220472
20
0.477505748031496
11
2.7051384645669292
21
0.467307874015748
0
LINE
8
BLACK
6
CONTINUOUS
10
2.7051384645669292
20
0.467307874015748
11
2.6981988188976378
21
0.4562635039370079
0
LINE
8
BLACK
6
CONTINUOUS
10
2.6981988188976378
20
0.4562635039370079
11
2.6925394094488189
21
0.4445116141732283
0
LINE
8
BLACK
6
CONTINUOUS
10
2.6925394094488189
20
0.4445116141732283
11
2.6882313779527558
21
0.4322
0
LINE
8
BLACK
6
CONTINUOUS
10
2.6882313779527558
20
0.4322
11
2.6853288976377954
21
0.4194833858267716
0
LINE
8
BLACK
6
CONTINUOUS
10
2.6853288976377954
20
0.4194833858267716
11
2.6838685039370076
21
0.4065218110236221
0
LINE
8
BLACK
6
CONTINUOUS
10
2.6838685039370076
20
0.4065218110236221
11
2.6838685039370076
21
0.3934781889763779
0
LINE
8
BLACK
6
CONTINUOUS
10
0.2424544881889764
20
1.2979189370078741
11
0.2429019291338583
21
1.2975517322834644
0
LINE
8
BLACK
6
CONTINUOUS
10
0.2429019291338583
20
1.2975517322834644
11
0.2603584251968504
21
1.2800952362204725
0
LINE
8
BLACK
6
CONTINUOUS
10
0.2603584251968504
20
1.2800952362204725
11
0.2603584251968504
21
1.2954638188976377
0
LINE
8
BLACK
6
CONTINUOUS
10
0.2603584251968504
20
1.2954638188976377
11
0.260415157480315
21
1.2960398818897638
0
LINE
8
BLACK
6
CONTINUOUS
10
0.260415157480315
20
1.2960398818897638
11
0.260856062992126
21
1.2971042913385826
0
LINE
8
BLACK
6
CONTINUOUS
10
0.260856062992126
20
1.2971042913385826
11
0.2616707086614173
21
1.2979189370078741
0
LINE
8
BLACK
6
CONTINUOUS
10
0.2616707086614173
20
1.2979189370078741
11
0.2627351181102362
21
1.2983598425196849
0
LINE
8
BLACK
6
CONTINUOUS
10
0.2627351181102362
20
1.2983598425196849
11
0.2638872440944882
21
1.2983598425196849
0
LINE
8
BLACK
6
CONTINUOUS
10
0.2638872440944882
20
1.2983598425196849
11
0.2649516535433071
21
1.2979189370078741
0
LINE
8
BLACK
6
CONTINUOUS
10
0.2649516535433071
20
1.2979189370078741
11
0.2657662992125984
21
1.2971042913385826
0
LINE
8
BLACK
6
CONTINUOUS
10
0.2657662992125984
20
1.2971042913385826
11
0.2662072047244095
21
1.2960398818897638
0
LINE
8
BLACK
6
CONTINUOUS
10
0.2662072047244095
20
1.2960398818897638
11
0.266263937007874
21
1.2954638188976377
0
LINE
8
BLACK
6
CONTINUOUS
10
0.266263937007874
20
1.2954638188976377
11
0.266263937007874
21
1.2560937401574803
0
LINE
8
BLACK
6
CONTINUOUS
10
0.266263937007874
20
1.2560937401574803
11
0.2662072047244095
21
1.2555176771653542
0
LINE
8
BLACK
6
CONTINUOUS
10
0.2662072047244095
20
1.2555176771653542
11
0.2657662992125984
21
1.2544532677165354
0
LINE
8
BLACK
6
CONTINUOUS
10
0.2657662992125984
20
1.2544532677165354
11
0.2649516535433071
21
1.253638622047244
0
LINE
8
BLACK
6
CONTINUOUS
10
0.2649516535433071
20
1.253638622047244
11
0.2638872440944882
21
1.2531977165354331
0
LINE
8
BLACK
6
CONTINUOUS
10
0.2638872440944882
20
1.2531977165354331
11
0.2627351181102362
21
1.2531977165354331
0
LINE
8
BLACK
6
CONTINUOUS
10
0.2627351181102362
20
1.2531977165354331
11
0.2616707086614173
21
1.253638622047244
0
LINE
8
BLACK
6
CONTINUOUS
10
0.2616707086614173
20
1.253638622047244
11
0.260856062992126
21
1.2544532677165354
0
LINE
8
BLACK
6
CONTINUOUS
10
0.260856062992126
20
1.2544532677165354
11
0.260415157480315
21
1.2555176771653542
0
LINE
8
BLACK
6
CONTINUOUS
10
0.260415157480315
20
1.2555176771653542
11
0.2603584251968504
21
1.2560937401574803
0
LINE
8
BLACK
6
CONTINUOUS
10
0.2603584251968504
20
1.2560937401574803
11
0.2603584251968504
21
1.2717435826771653
0
LINE
8
BLACK
6
CONTINUOUS
10
0.2603584251968504
20
1.2717435826771653
11
0.2580063385826772
21
1.2740956692913386
0
LINE
8
BLACK
6
CONTINUOUS
10
0.2580063385826772
20
1.2740956692913386
11
0.2431762204724409
21
1.2543220866141731
0
LINE
8
BLACK
6
CONTINUOUS
10
0.2431762204724409
20
1.2543220866141731
11
0.2427851968503937
21
1.2538952755905513
0
LINE
8
BLACK
6
CONTINUOUS
10
0.2427851968503937
20
1.2538952755905513
11
0.2417938188976378
21
1.2533083070866142
0
LINE
8
BLACK
6
CONTINUOUS
10
0.2417938188976378
20
1.2533083070866142
11
0.2406533070866142
21
1.2531453543307087
0
LINE
8
BLACK
6
CONTINUOUS
10
0.2406533070866142
20
1.2531453543307087
11
0.2395372440944882
21
1.2534312992125984
0
LINE
8
BLACK
6
CONTINUOUS
10
0.2395372440944882
20
1.2534312992125984
11
0.2386155511811024
21
1.2541225590551182
0
LINE
8
BLACK
6
CONTINUOUS
10
0.2386155511811024
20
1.2541225590551182
11
0.2380285826771653
21
1.2551139370078739
0
LINE
8
BLACK
6
CONTINUOUS
10
0.2380285826771653
20
1.2551139370078739
11
0.2378656299212598
21
1.2562544488188976
0
LINE
8
BLACK
6
CONTINUOUS
10
0.2378656299212598
20
1.2562544488188976
11
0.2381515748031496
21
1.2573705118110237
0
LINE
8
BLACK
6
CONTINUOUS
10
0.2381515748031496
20
1.2573705118110237
11
0.238451811023622
21
1.2578653937007873
0
LINE
8
BLACK
6
CONTINUOUS
10
0.238451811023622
20
1.2578653937007873
11
0.2537881102362204
21
1.2783138976377952
0
LINE
8
BLACK
6
CONTINUOUS
10
0.2537881102362204
20
1.2783138976377952
11
0.2387261023622047
21
1.293375905511811
0
LINE
8
BLACK
6
CONTINUOUS
10
0.2387261023622047
20
1.293375905511811
11
0.2383588976377953
21
1.2938233464566928
0
LINE
8
BLACK
6
CONTINUOUS
10
0.2383588976377953
20
1.2938233464566928
11
0.2379179921259842
21
1.2948877952755906
0
LINE
8
BLACK
6
CONTINUOUS
10
0.2379179921259842
20
1.2948877952755906
11
0.2379179921259842
21
1.2960398425196851
0
LINE
8
BLACK
6
CONTINUOUS
10
0.2379179921259842
20
1.2960398425196851
11
0.2383588976377953
21
1.2971042913385826
0
LINE
8
BLACK
6
CONTINUOUS
10
0.2383588976377953
20
1.2971042913385826
11
0.2391735433070866
21
1.2979189370078741
0
LINE
8
BLACK
6
CONTINUOUS
10
0.2391735433070866
20
1.2979189370078741
11
0.2402379921259842
21
1.2983598425196849
0
LINE
8
BLACK
6
CONTINUOUS
10
0.2402379921259842
20
1.2983598425196849
11
0.2413900393700787
21
1.2983598425196849
0
LINE
8
BLACK
6
CONTINUOUS
10
0.2413900393700787
20
1.2983598425196849
11
0.2424544881889764
21
1.2979189370078741
0
LINE
8
BLACK
6
CONTINUOUS
10
0.4264627165354331
20
1.4780687795275591
11
0.4273844094488189
21
1.4773774803149606
0
LINE
8
BLACK
6
CONTINUOUS
10
0.4273844094488189
20
1.4773774803149606
11
0.4279713779527559
21
1.4763861023622047
0
LINE
8
BLACK
6
CONTINUOUS
10
0.4279713779527559
20
1.4763861023622047
11
0.4281343307086614
21
1.4752456299212597
0
LINE
8
BLACK
6
CONTINUOUS
10
0.4281343307086614
20
1.4752456299212597
11
0.4278484251968504
21
1.4741295275590551
0
LINE
8
BLACK
6
CONTINUOUS
10
0.4278484251968504
20
1.4741295275590551
11
0.4275481496062992
21
1.4736346456692913
0
LINE
8
BLACK
6
CONTINUOUS
10
0.4275481496062992
20
1.4736346456692913
11
0.412211811023622
21
1.4531861811023621
0
LINE
8
BLACK
6
CONTINUOUS
10
0.412211811023622
20
1.4531861811023621
11
0.4272738582677165
21
1.4381241338582678
0
LINE
8
BLACK
6
CONTINUOUS
10
0.4272738582677165
20
1.4381241338582678
11
0.427641062992126
21
1.4376766929133857
0
LINE
8
BLACK
6
CONTINUOUS
10
0.427641062992126
20
1.4376766929133857
11
0.428081968503937
21
1.4366122834645669
0
LINE
8
BLACK
6
CONTINUOUS
10
0.428081968503937
20
1.4366122834645669
11
0.428081968503937
21
1.4354601968503937
0
LINE
8
BLACK
6
CONTINUOUS
10
0.428081968503937
20
1.4354601968503937
11
0.427641062992126
21
1.4343957480314959
0
LINE
8
BLACK
6
CONTINUOUS
10
0.427641062992126
20
1.4343957480314959
11
0.4268264173228347
21
1.4335811023622047
0
LINE
8
BLACK
6
CONTINUOUS
10
0.4268264173228347
20
1.4335811023622047
11
0.425761968503937
21
1.4331401968503936
0
LINE
8
BLACK
6
CONTINUOUS
10
0.425761968503937
20
1.4331401968503936
11
0.4246098818897638
21
1.4331401968503936
0
LINE
8
BLACK
6
CONTINUOUS
10
0.4246098818897638
20
1.4331401968503936
11
0.4235454724409449
21
1.4335811023622047
0
LINE
8
BLACK
6
CONTINUOUS
10
0.4235454724409449
20
1.4335811023622047
11
0.423098031496063
21
1.4339483070866141
0
LINE
8
BLACK
6
CONTINUOUS
10
0.423098031496063
20
1.4339483070866141
11
0.4056415354330709
21
1.4514048031496063
0
LINE
8
BLACK
6
CONTINUOUS
10
0.4056415354330709
20
1.4514048031496063
11
0.4056415354330709
21
1.4360362204724408
0
LINE
8
BLACK
6
CONTINUOUS
10
0.4056415354330709
20
1.4360362204724408
11
0.4055848031496063
21
1.435460157480315
0
LINE
8
BLACK
6
CONTINUOUS
10
0.4055848031496063
20
1.435460157480315
11
0.4051438976377953
21
1.4343957480314959
0
LINE
8
BLACK
6
CONTINUOUS
10
0.4051438976377953
20
1.4343957480314959
11
0.4043292519685039
21
1.4335811023622047
0
LINE
8
BLACK
6
CONTINUOUS
10
0.4043292519685039
20
1.4335811023622047
11
0.403264842519685
21
1.4331401968503936
0
LINE
8
BLACK
6
CONTINUOUS
10
0.403264842519685
20
1.4331401968503936
11
0.4021127165354331
21
1.4331401968503936
0
LINE
8
BLACK
6
CONTINUOUS
10
0.4021127165354331
20
1.4331401968503936
11
0.4010483070866142
21
1.4335811023622047
0
LINE
8
BLACK
6
CONTINUOUS
10
0.4010483070866142
20
1.4335811023622047
11
0.4002336614173228
21
1.4343957480314959
0
LINE
8
BLACK
6
CONTINUOUS
10
0.4002336614173228
20
1.4343957480314959
11
0.3997927559055118
21
1.435460157480315
0
LINE
8
BLACK
6
CONTINUOUS
10
0.3997927559055118
20
1.435460157480315
11
0.3997360236220472
21
1.4360362204724408
0
LINE
8
BLACK
6
CONTINUOUS
10
0.3997360236220472
20
1.4360362204724408
11
0.3997360236220472
21
1.4754062992125985
0
LINE
8
BLACK
6
CONTINUOUS
10
0.3997360236220472
20
1.4754062992125985
11
0.3997927559055118
21
1.4759823622047243
0
LINE
8
BLACK
6
CONTINUOUS
10
0.3997927559055118
20
1.4759823622047243
11
0.4002336614173228
21
1.4770467716535434
0
LINE
8
BLACK
6
CONTINUOUS
10
0.4002336614173228
20
1.4770467716535434
11
0.4010483070866142
21
1.4778614173228346
0
LINE
8
BLACK
6
CONTINUOUS
10
0.4010483070866142
20
1.4778614173228346
11
0.4021127165354331
21
1.4783023228346457
0
LINE
8
BLACK
6
CONTINUOUS
10
0.4021127165354331
20
1.4783023228346457
11
0.403264842519685
21
1.4783023228346457
0
LINE
8
BLACK
6
CONTINUOUS
10
0.403264842519685
20
1.4783023228346457
11
0.4043292519685039
21
1.4778614173228346
0
LINE
8
BLACK
6
CONTINUOUS
10
0.4043292519685039
20
1.4778614173228346
11
0.4051438976377953
21
1.4770467716535434
0
LINE
8
BLACK
6
CONTINUOUS
10
0.4051438976377953
20
1.4770467716535434
11
0.4055848031496063
21
1.4759823622047243
0
LINE
8
BLACK
6
CONTINUOUS
10
0.4055848031496063
20
1.4759823622047243
11
0.4056415354330709
21
1.4754062992125985
0
LINE
8
BLACK
6
CONTINUOUS
10
0.4056415354330709
20
1.4754062992125985
11
0.4056415354330709
21
1.4597564566929133
0
LINE
8
BLACK
6
CONTINUOUS
10
0.4056415354330709
20
1.4597564566929133
11
0.4079935826771653
21
1.4574044094488188
0
LINE
8
BLACK
6
CONTINUOUS
10
0.4079935826771653
20
1.4574044094488188
11
0.4228237401574803
21
1.4771779527559055
0
LINE
8
BLACK
6
CONTINUOUS
10
0.4228237401574803
20
1.4771779527559055
11
0.4232147637795275
21
1.4776047637795275
0
LINE
8
BLACK
6
CONTINUOUS
10
0.4232147637795275
20
1.4776047637795275
11
0.4242061417322834
21
1.4781917716535433
0
LINE
8
BLACK
6
CONTINUOUS
10
0.4242061417322834
20
1.4781917716535433
11
0.4253466535433071
21
1.4783546850393701
0
LINE
8
BLACK
6
CONTINUOUS
10
0.4253466535433071
20
1.4783546850393701
11
0.4264627165354331
21
1.4780687795275591
0
LINE
8
BLACK
6
CONTINUOUS
10
0.4264627165354331
20
1.6575687795275591
11
0.4273844094488189
21
1.6568774803149606
0
LINE
8
BLACK
6
CONTINUOUS
10
0.4273844094488189
20
1.6568774803149606
11
0.4279713779527559
21
1.6558861023622047
0
LINE
8
BLACK
6
CONTINUOUS
10
0.4279713779527559
20
1.6558861023622047
11
0.4281343307086614
21
1.6547456299212597
0
LINE
8
BLACK
6
CONTINUOUS
10
0.4281343307086614
20
1.6547456299212597
11
0.4278484251968504
21
1.6536295275590551
0
LINE
8
BLACK
6
CONTINUOUS
10
0.4278484251968504
20
1.6536295275590551
11
0.4275481496062992
21
1.6531346456692912
0
LINE
8
BLACK
6
CONTINUOUS
10
0.4275481496062992
20
1.6531346456692912
11
0.412211811023622
21
1.6326861811023621
0
LINE
8
BLACK
6
CONTINUOUS
10
0.412211811023622
20
1.6326861811023621
11
0.4272738582677165
21
1.6176241338582678
0
LINE
8
BLACK
6
CONTINUOUS
10
0.4272738582677165
20
1.6176241338582678
11
0.427641062992126
21
1.6171766929133857
0
LINE
8
BLACK
6
CONTINUOUS
10
0.427641062992126
20
1.6171766929133857
11
0.428081968503937
21
1.6161122834645669
0
LINE
8
BLACK
6
CONTINUOUS
10
0.428081968503937
20
1.6161122834645669
11
0.428081968503937
21
1.6149601968503937
0
LINE
8
BLACK
6
CONTINUOUS
10
0.428081968503937
20
1.6149601968503937
11
0.427641062992126
21
1.6138957480314959
0
LINE
8
BLACK
6
CONTINUOUS
10
0.427641062992126
20
1.6138957480314959
11
0.4268264173228347
21
1.6130811023622047
0
LINE
8
BLACK
6
CONTINUOUS
10
0.4268264173228347
20
1.6130811023622047
11
0.425761968503937
21
1.6126401968503936
0
LINE
8
BLACK
6
CONTINUOUS
10
0.425761968503937
20
1.6126401968503936
11
0.4246098818897638
21
1.6126401968503936
0
LINE
8
BLACK
6
CONTINUOUS
10
0.4246098818897638
20
1.6126401968503936
11
0.4235454724409449
21
1.6130811023622047
0
LINE
8
BLACK
6
CONTINUOUS
10
0.4235454724409449
20
1.6130811023622047
11
0.423098031496063
21
1.6134483070866141
0
LINE
8
BLACK
6
CONTINUOUS
10
0.423098031496063
20
1.6134483070866141
11
0.4056415354330709
21
1.6309048031496063
0
LINE
8
BLACK
6
CONTINUOUS
10
0.4056415354330709
20
1.6309048031496063
11
0.4056415354330709
21
1.6155362204724408
0
LINE
8
BLACK
6
CONTINUOUS
10
0.4056415354330709
20
1.6155362204724408
11
0.4055848031496063
21
1.614960157480315
0
LINE
8
BLACK
6
CONTINUOUS
10
0.4055848031496063
20
1.614960157480315
11
0.4051438976377953
21
1.6138957480314959
0
LINE
8
BLACK
6
CONTINUOUS
10
0.4051438976377953
20
1.6138957480314959
11
0.4043292519685039
21
1.6130811023622047
0
LINE
8
BLACK
6
CONTINUOUS
10
0.4043292519685039
20
1.6130811023622047
11
0.403264842519685
21
1.6126401968503936
0
LINE
8
BLACK
6
CONTINUOUS
10
0.403264842519685
20
1.6126401968503936
11
0.4021127165354331
21
1.6126401968503936
0
LINE
8
BLACK
6
CONTINUOUS
10
0.4021127165354331
20
1.6126401968503936
11
0.4010483070866142
21
1.6130811023622047
0
LINE
8
BLACK
6
CONTINUOUS
10
0.4010483070866142
20
1.6130811023622047
11
0.4002336614173228
21
1.6138957480314959
0
LINE
8
BLACK
6
CONTINUOUS
10
0.4002336614173228
20
1.6138957480314959
11
0.3997927559055118
21
1.614960157480315
0
LINE
8
BLACK
6
CONTINUOUS
10
0.3997927559055118
20
1.614960157480315
11
0.3997360236220472
21
1.6155362204724408
0
LINE
8
BLACK
6
CONTINUOUS
10
0.3997360236220472
20
1.6155362204724408
11
0.3997360236220472
21
1.6549062992125985
0
LINE
8
BLACK
6
CONTINUOUS
10
0.3997360236220472
20
1.6549062992125985
11
0.3997927559055118
21
1.6554823622047243
0
LINE
8
BLACK
6
CONTINUOUS
10
0.3997927559055118
20
1.6554823622047243
11
0.4002336614173228
21
1.6565467716535434
0
LINE
8
BLACK
6
CONTINUOUS
10
0.4002336614173228
20
1.6565467716535434
11
0.4010483070866142
21
1.6573614173228346
0
LINE
8
BLACK
6
CONTINUOUS
10
0.4010483070866142
20
1.6573614173228346
11
0.4021127165354331
21
1.6578023228346457
0
LINE
8
BLACK
6
CONTINUOUS
10
0.4021127165354331
20
1.6578023228346457
11
0.403264842519685
21
1.6578023228346457
0
LINE
8
BLACK
6
CONTINUOUS
10
0.403264842519685
20
1.6578023228346457
11
0.4043292519685039
21
1.6573614173228346
0
LINE
8
BLACK
6
CONTINUOUS
10
0.4043292519685039
20
1.6573614173228346
11
0.4051438976377953
21
1.6565467716535434
0
LINE
8
BLACK
6
CONTINUOUS
10
0.4051438976377953
20
1.6565467716535434
11
0.4055848031496063
21
1.6554823622047243
0
LINE
8
BLACK
6
CONTINUOUS
10
0.4055848031496063
20
1.6554823622047243
11
0.4056415354330709
21
1.6549062992125985
0
LINE
8
BLACK
6
CONTINUOUS
10
0.4056415354330709
20
1.6549062992125985
11
0.4056415354330709
21
1.6392564566929133
0
LINE
8
BLACK
6
CONTINUOUS
10
0.4056415354330709
20
1.6392564566929133
11
0.4079935826771653
21
1.6369044094488188
0
LINE
8
BLACK
6
CONTINUOUS
10
0.4079935826771653
20
1.6369044094488188
11
0.4228237401574803
21
1.6566779527559055
0
LINE
8
BLACK
6
CONTINUOUS
10
0.4228237401574803
20
1.6566779527559055
11
0.4232147637795275
21
1.6571047637795275
0
LINE
8
BLACK
6
CONTINUOUS
10
0.4232147637795275
20
1.6571047637795275
11
0.4242061417322834
21
1.6576917716535433
0
LINE
8
BLACK
6
CONTINUOUS
10
0.4242061417322834
20
1.6576917716535433
11
0.4253466535433071
21
1.6578546850393701
0
LINE
8
BLACK
6
CONTINUOUS
10
0.4253466535433071
20
1.6578546850393701
11
0.4264627165354331
21
1.6575687795275591
0
LINE
8
BLACK
6
CONTINUOUS
10
0.4201122047244095
20
2.1183720472440943
11
0.4332392125984252
21
2.1153759055118111
0
LINE
8
BLACK
6
CONTINUOUS
10
0.4332392125984252
20
2.1153759055118111
11
0.4459482283464567
21
2.1109288188976376
0
LINE
8
BLACK
6
CONTINUOUS
10
0.4459482283464567
20
2.1109288188976376
11
0.4580794094488189
21
2.1050867716535433
0
LINE
8
BLACK
6
CONTINUOUS
10
0.4580794094488189
20
2.1050867716535433
11
0.4694801968503937
21
2.0979231889763779
0
LINE
8
BLACK
6
CONTINUOUS
10
0.4694801968503937
20
2.0979231889763779
11
0.4800072440944882
21
2.089528149606299
0
LINE
8
BLACK
6
CONTINUOUS
10
0.4800072440944882
20
2.089528149606299
11
0.4895281496062992
21
2.0800072440944883
0
LINE
8
BLACK
6
CONTINUOUS
10
0.4895281496062992
20
2.0800072440944883
11
0.4979231889763779
21
2.0694801968503937
0
LINE
8
BLACK
6
CONTINUOUS
10
0.4979231889763779
20
2.0694801968503937
11
0.5050867716535433
21
2.0580794094488191
0
LINE
8
BLACK
6
CONTINUOUS
10
0.5050867716535433
20
2.0580794094488191
11
0.5109288188976377
21
2.0459482283464565
0
LINE
8
BLACK
6
CONTINUOUS
10
0.5109288188976377
20
2.0459482283464565
11
0.515375905511811
21
2.0332392125984251
0
LINE
8
BLACK
6
CONTINUOUS
10
0.515375905511811
20
2.0332392125984251
11
0.5183720472440945
21
2.0201122047244096
0
LINE
8
BLACK
6
CONTINUOUS
10
0.5183720472440945
20
2.0201122047244096
11
0.5198796062992126
21
2.0067322834645669
0
LINE
8
BLACK
6
CONTINUOUS
10
0.5198796062992126
20
2.0067322834645669
11
0.5198796062992126
21
1.9932677165354331
0
LINE
8
BLACK
6
CONTINUOUS
10
0.5198796062992126
20
1.9932677165354331
11
0.5183720472440945
21
1.9798877952755904
0
LINE
8
BLACK
6
CONTINUOUS
10
0.5183720472440945
20
1.9798877952755904
11
0.515375905511811
21
1.9667607874015747
0
LINE
8
BLACK
6
CONTINUOUS
10
0.515375905511811
20
1.9667607874015747
11
0.5109288188976377
21
1.9540517716535433
0
LINE
8
BLACK
6
CONTINUOUS
10
0.5109288188976377
20
1.9540517716535433
11
0.5050867716535433
21
1.9419205905511812
0
LINE
8
BLACK
6
CONTINUOUS
10
0.5050867716535433
20
1.9419205905511812
11
0.4979231889763779
21
1.9305198031496063
0
LINE
8
BLACK
6
CONTINUOUS
10
0.4979231889763779
20
1.9305198031496063
11
0.4895281496062992
21
1.9199927559055117
0
LINE
8
BLACK
6
CONTINUOUS
10
0.4895281496062992
20
1.9199927559055117
11
0.4800072440944882
21
1.9104718503937008
0
LINE
8
BLACK
6
CONTINUOUS
10
0.4800072440944882
20
1.9104718503937008
11
0.4694801968503937
21
1.9020768110236219
0
LINE
8
BLACK
6
CONTINUOUS
10
0.4694801968503937
20
1.9020768110236219
11
0.4580794094488189
21
1.8949132283464567
0
LINE
8
BLACK
6
CONTINUOUS
10
0.4580794094488189
20
1.8949132283464567
11
0.4459482283464567
21
1.8890711811023622
0
LINE
8
BLACK
6
CONTINUOUS
10
0.4459482283464567
20
1.8890711811023622
11
0.4332392125984252
21
1.8846240944881889
0
LINE
8
BLACK
6
CONTINUOUS
10
0.4332392125984252
20
1.8846240944881889
11
0.4201122047244095
21
1.8816279527559054
0
LINE
8
BLACK
6
CONTINUOUS
10
0.4201122047244095
20
1.8816279527559054
11
0.4067322834645669
21
1.8801203937007873
0
LINE
8
BLACK
6
CONTINUOUS
10
0.4067322834645669
20
1.8801203937007873
11
0.3932677165354331
21
1.8801203937007873
0
LINE
8
BLACK
6
CONTINUOUS
10
0.3932677165354331
20
1.8801203937007873
11
0.3798877952755905
21
1.8816279527559054
0
LINE
8
BLACK
6
CONTINUOUS
10
0.3798877952755905
20
1.8816279527559054
11
0.3667607874015748
21
1.8846240944881889
0
LINE
8
BLACK
6
CONTINUOUS
10
0.3667607874015748
20
1.8846240944881889
11
0.3540517716535433
21
1.8890711811023622
0
LINE
8
BLACK
6
CONTINUOUS
10
0.3540517716535433
20
1.8890711811023622
11
0.3419205905511811
21
1.8949132283464567
0
LINE
8
BLACK
6
CONTINUOUS
10
0.3419205905511811
20
1.8949132283464567
11
0.3305198031496063
21
1.9020768110236219
0
LINE
8
BLACK
6
CONTINUOUS
10
0.3305198031496063
20
1.9020768110236219
11
0.3199927559055118
21
1.9104718503937008
0
LINE
8
BLACK
6
CONTINUOUS
10
0.3199927559055118
20
1.9104718503937008
11
0.3104718503937008
21
1.9199927559055117
0
LINE
8
BLACK
6
CONTINUOUS
10
0.3104718503937008
20
1.9199927559055117
11
0.302076811023622
21
1.9305198031496063
0
LINE
8
BLACK
6
CONTINUOUS
10
0.302076811023622
20
1.9305198031496063
11
0.2949132283464567
21
1.9419205905511812
0
LINE
8
BLACK
6
CONTINUOUS
10
0.2949132283464567
20
1.9419205905511812
11
0.2890711811023622
21
1.9540517716535433
0
LINE
8
BLACK
6
CONTINUOUS
10
0.2890711811023622
20
1.9540517716535433
11
0.284624094488189
21
1.9667607874015747
0
LINE
8
BLACK
6
CONTINUOUS
10
0.284624094488189
20
1.9667607874015747
11
0.2816279527559055
21
1.9798877952755904
0
LINE
8
BLACK
6
CONTINUOUS
10
0.2816279527559055
20
1.9798877952755904
11
0.2801203937007874
21
1.9932677165354331
0
LINE
8
BLACK
6
CONTINUOUS
10
0.2801203937007874
20
1.9932677165354331
11
0.2801203937007874
21
2.0065218110236218
0
LINE
8
BLACK
6
CONTINUOUS
10
0.2801203937007874
20
2.0065218110236218
11
0.2801203937007874
21
2.0067322834645669
0
LINE
8
BLACK
6
CONTINUOUS
10
0.2801203937007874
20
2.0067322834645669
11
0.2816279527559055
21
2.0201122047244096
0
LINE
8
BLACK
6
CONTINUOUS
10
0.2816279527559055
20
2.0201122047244096
11
0.284624094488189
21
2.0332392125984251
0
LINE
8
BLACK
6
CONTINUOUS
10
0.284624094488189
20
2.0332392125984251
11
0.2890711811023622
21
2.0459482283464565
0
LINE
8
BLACK
6
CONTINUOUS
10
0.2890711811023622
20
2.0459482283464565
11
0.2949132283464567
21
2.0580794094488191
0
LINE
8
BLACK
6
CONTINUOUS
10
0.2949132283464567
20
2.0580794094488191
11
0.302076811023622
21
2.0694801968503937
0
LINE
8
BLACK
6
CONTINUOUS
10
0.302076811023622
20
2.0694801968503937
11
0.3104718503937008
21
2.0800072440944883
0
LINE
8
BLACK
6
CONTINUOUS
10
0.3104718503937008
20
2.0800072440944883
11
0.3199927559055118
21
2.089528149606299
0
LINE
8
BLACK
6
CONTINUOUS
10
0.3199927559055118
20
2.089528149606299
11
0.3305198031496063
21
2.0979231889763779
0
LINE
8
BLACK
6
CONTINUOUS
10
0.3305198031496063
20
2.0979231889763779
11
0.3419205905511811
21
2.1050867716535433
0
LINE
8
BLACK
6
CONTINUOUS
10
0.3419205905511811
20
2.1050867716535433
11
0.3540517716535433
21
2.1109288188976376
0
LINE
8
BLACK
6
CONTINUOUS
10
0.3540517716535433
20
2.1109288188976376
11
0.3667607874015748
21
2.1153759055118111
0
LINE
8
BLACK
6
CONTINUOUS
10
0.3667607874015748
20
2.1153759055118111
11
0.3798877952755905
21
2.1183720472440943
0
LINE
8
BLACK
6
CONTINUOUS
10
0.3798877952755905
20
2.1183720472440943
11
0.3932677165354331
21
2.1198796062992127
0
LINE
8
BLACK
6
CONTINUOUS
10
0.3932677165354331
20
2.1198796062992127
11
0.4067322834645669
21
2.1198796062992127
0
LINE
8
BLACK
6
CONTINUOUS
10
0.4067322834645669
20
2.1198796062992127
11
0.4201122047244095
21
2.1183720472440943
0
LINE
8
BLACK
6
CONTINUOUS
10
0.2838685039370079
20
1.993478188976378
11
0.2853288976377953
21
1.9805166141732282
0
LINE
8
BLACK
6
CONTINUOUS
10
0.2853288976377953
20
1.9805166141732282
11
0.2882313779527559
21
1.9678
0
LINE
8
BLACK
6
CONTINUOUS
10
0.2882313779527559
20
1.9678
11
0.2925394094488189
21
1.9554883858267715
0
LINE
8
BLACK
6
CONTINUOUS
10
0.2925394094488189
20
1.9554883858267715
11
0.2981988188976378
21
1.9437364960629921
0
LINE
8
BLACK
6
CONTINUOUS
10
0.2981988188976378
20
1.9437364960629921
11
0.3051384645669291
21
1.932692125984252
0
LINE
8
BLACK
6
CONTINUOUS
10
0.3051384645669291
20
1.932692125984252
11
0.3132710236220472
21
1.922494251968504
0
LINE
8
BLACK
6
CONTINUOUS
10
0.3132710236220472
20
1.922494251968504
11
0.322494251968504
21
1.9132710236220472
0
LINE
8
BLACK
6
CONTINUOUS
10
0.322494251968504
20
1.9132710236220472
11
0.332692125984252
21
1.9051384645669291
0
LINE
8
BLACK
6
CONTINUOUS
10
0.332692125984252
20
1.9051384645669291
11
0.3437364960629921
21
1.8981988188976378
0
LINE
8
BLACK
6
CONTINUOUS
10
0.3437364960629921
20
1.8981988188976378
11
0.3554883858267717
21
1.8925394094488188
0
LINE
8
BLACK
6
CONTINUOUS
10
0.3554883858267717
20
1.8925394094488188
11
0.3678
21
1.8882313779527558
0
LINE
8
BLACK
6
CONTINUOUS
10
0.3678
20
1.8882313779527558
11
0.3805166141732284
21
1.8853288976377953
0
LINE
8
BLACK
6
CONTINUOUS
10
0.3805166141732284
20
1.8853288976377953
11
0.3934781889763779
21
1.8838685039370078
0
LINE
8
BLACK
6
CONTINUOUS
10
0.3934781889763779
20
1.8838685039370078
11
0.4065218110236221
21
1.8838685039370078
0
LINE
8
BLACK
6
CONTINUOUS
10
0.4065218110236221
20
1.8838685039370078
11
0.4194833858267716
21
1.8853288976377953
0
LINE
8
BLACK
6
CONTINUOUS
10
0.4194833858267716
20
1.8853288976377953
11
0.4322
21
1.8882313779527558
0
LINE
8
BLACK
6
CONTINUOUS
10
0.4322
20
1.8882313779527558
11
0.4445116141732283
21
1.8925394094488188
0
LINE
8
BLACK
6
CONTINUOUS
10
0.4445116141732283
20
1.8925394094488188
11
0.4562635039370079
21
1.8981988188976378
0
LINE
8
BLACK
6
CONTINUOUS
10
0.4562635039370079
20
1.8981988188976378
11
0.467307874015748
21
1.9051384645669291
0
LINE
8
BLACK
6
CONTINUOUS
10
0.467307874015748
20
1.9051384645669291
11
0.477505748031496
21
1.9132710236220472
0
LINE
8
BLACK
6
CONTINUOUS
10
0.477505748031496
20
1.9132710236220472
11
0.4867289763779528
21
1.922494251968504
0
LINE
8
BLACK
6
CONTINUOUS
10
0.4867289763779528
20
1.922494251968504
11
0.4948615354330709
21
1.932692125984252
0
LINE
8
BLACK
6
CONTINUOUS
10
0.4948615354330709
20
1.932692125984252
11
0.5018011811023622
21
1.9437364960629921
0
LINE
8
BLACK
6
CONTINUOUS
10
0.5018011811023622
20
1.9437364960629921
11
0.5074605905511811
21
1.9554883858267715
0
LINE
8
BLACK
6
CONTINUOUS
10
0.5074605905511811
20
1.9554883858267715
11
0.511768622047244
21
1.9678
0
LINE
8
BLACK
6
CONTINUOUS
10
0.511768622047244
20
1.9678
11
0.5146711023622047
21
1.9805166141732282
0
LINE
8
BLACK
6
CONTINUOUS
10
0.5146711023622047
20
1.9805166141732282
11
0.5161314960629921
21
1.993478188976378
0
LINE
8
BLACK
6
CONTINUOUS
10
0.5161314960629921
20
1.993478188976378
11
0.5161314960629921
21
2.0065218110236218
0
LINE
8
BLACK
6
CONTINUOUS
10
0.5161314960629921
20
2.0065218110236218
11
0.5146711023622047
21
2.0194833858267716
0
LINE
8
BLACK
6
CONTINUOUS
10
0.5146711023622047
20
2.0194833858267716
11
0.511768622047244
21
2.0322
0
LINE
8
BLACK
6
CONTINUOUS
10
0.511768622047244
20
2.0322
11
0.5074605905511811
21
2.0445116141732282
0
LINE
8
BLACK
6
CONTINUOUS
10
0.5074605905511811
20
2.0445116141732282
11
0.5018011811023622
21
2.0562635039370076
0
LINE
8
BLACK
6
CONTINUOUS
10
0.5018011811023622
20
2.0562635039370076
11
0.4948615354330709
21
2.0673078740157478
0
LINE
8
BLACK
6
CONTINUOUS
10
0.4948615354330709
20
2.0673078740157478
11
0.4867289763779528
21
2.0775057480314962
0
LINE
8
BLACK
6
CONTINUOUS
10
0.4867289763779528
20
2.0775057480314962
11
0.477505748031496
21
2.0867289763779526
0
LINE
8
BLACK
6
CONTINUOUS
10
0.477505748031496
20
2.0867289763779526
11
0.467307874015748
21
2.0948615354330706
0
LINE
8
BLACK
6
CONTINUOUS
10
0.467307874015748
20
2.0948615354330706
11
0.4562635039370079
21
2.101801181102362
0
LINE
8
BLACK
6
CONTINUOUS
10
0.4562635039370079
20
2.101801181102362
11
0.4445116141732283
21
2.107460590551181
0
LINE
8
BLACK
6
CONTINUOUS
10
0.4445116141732283
20
2.107460590551181
11
0.4322
21
2.111768622047244
0
LINE
8
BLACK
6
CONTINUOUS
10
0.4322
20
2.111768622047244
11
0.4194833858267716
21
2.1146711023622045
0
LINE
8
BLACK
6
CONTINUOUS
10
0.4194833858267716
20
2.1146711023622045
11
0.4065218110236221
21
2.1161314960629922
0
LINE
8
BLACK
6
CONTINUOUS
10
0.4065218110236221
20
2.1161314960629922
11
0.3934781889763779
21
2.1161314960629922
0
LINE
8
BLACK
6
CONTINUOUS
10
0.3934781889763779
20
2.1161314960629922
11
0.3805166141732284
21
2.1146711023622045
0
LINE
8
BLACK
6
CONTINUOUS
10
0.3805166141732284
20
2.1146711023622045
11
0.3678
21
2.111768622047244
0
LINE
8
BLACK
6
CONTINUOUS
10
0.3678
20
2.111768622047244
11
0.3554883858267717
21
2.107460590551181
0
LINE
8
BLACK
6
CONTINUOUS
10
0.3554883858267717
20
2.107460590551181
11
0.3437364960629921
21
2.101801181102362
0
LINE
8
BLACK
6
CONTINUOUS
10
0.3437364960629921
20
2.101801181102362
11
0.332692125984252
21
2.0948615354330706
0
LINE
8
BLACK
6
CONTINUOUS
10
0.332692125984252
20
2.0948615354330706
11
0.322494251968504
21
2.0867289763779526
0
LINE
8
BLACK
6
CONTINUOUS
10
0.322494251968504
20
2.0867289763779526
11
0.3132710236220472
21
2.0775057480314962
0
LINE
8
BLACK
6
CONTINUOUS
10
0.3132710236220472
20
2.0775057480314962
11
0.3051384645669291
21
2.0673078740157478
0
LINE
8
BLACK
6
CONTINUOUS
10
0.3051384645669291
20
2.0673078740157478
11
0.2981988188976378
21
2.0562635039370076
0
LINE
8
BLACK
6
CONTINUOUS
10
0.2981988188976378
20
2.0562635039370076
11
0.2925394094488189
21
2.0445116141732282
0
LINE
8
BLACK
6
CONTINUOUS
10
0.2925394094488189
20
2.0445116141732282
11
0.2882313779527559
21
2.0322
0
LINE
8
BLACK
6
CONTINUOUS
10
0.2882313779527559
20
2.0322
11
0.2853288976377953
21
2.0194833858267716
0
LINE
8
BLACK
6
CONTINUOUS
10
0.2853288976377953
20
2.0194833858267716
11
0.2838685039370079
21
2.0065218110236218
0
LINE
8
BLACK
6
CONTINUOUS
10
0.2838685039370079
20
2.0065218110236218
11
0.2838685039370079
21
1.993478188976378
0
LINE
8
BLACK
6
CONTINUOUS
10
2.8201122047244094
20
2.1183720472440943
11
2.8332392125984249
21
2.1153759055118111
0
LINE
8
BLACK
6
CONTINUOUS
10
2.8332392125984249
20
2.1153759055118111
11
2.8459482283464568
21
2.1109288188976376
0
LINE
8
BLACK
6
CONTINUOUS
10
2.8459482283464568
20
2.1109288188976376
11
2.8580794094488189
21
2.1050867716535433
0
LINE
8
BLACK
6
CONTINUOUS
10
2.8580794094488189
20
2.1050867716535433
11
2.8694801968503936
21
2.0979231889763779
0
LINE
8
BLACK
6
CONTINUOUS
10
2.8694801968503936
20
2.0979231889763779
11
2.8800072440944882
21
2.089528149606299
0
LINE
8
BLACK
6
CONTINUOUS
10
2.8800072440944882
20
2.089528149606299
11
2.8895281496062992
21
2.0800072440944883
0
LINE
8
BLACK
6
CONTINUOUS
10
2.8895281496062992
20
2.0800072440944883
11
2.8979231889763777
21
2.0694801968503937
0
LINE
8
BLACK
6
CONTINUOUS
10
2.8979231889763777
20
2.0694801968503937
11
2.9050867716535431
21
2.0580794094488191
0
LINE
8
BLACK
6
CONTINUOUS
10
2.9050867716535431
20
2.0580794094488191
11
2.9109288188976379
21
2.0459482283464565
0
LINE
8
BLACK
6
CONTINUOUS
10
2.9109288188976379
20
2.0459482283464565
11
2.9153759055118109
21
2.0332392125984251
0
LINE
8
BLACK
6
CONTINUOUS
10
2.9153759055118109
20
2.0332392125984251
11
2.9183720472440946
21
2.0201122047244096
0
LINE
8
BLACK
6
CONTINUOUS
10
2.9183720472440946
20
2.0201122047244096
11
2.9198796062992125
21
2.0067322834645669
0
LINE
8
BLACK
6
CONTINUOUS
10
2.9198796062992125
20
2.0067322834645669
11
2.9198796062992125
21
1.9932677165354331
0
LINE
8
BLACK
6
CONTINUOUS
10
2.9198796062992125
20
1.9932677165354331
11
2.9183720472440946
21
1.9798877952755904
0
LINE
8
BLACK
6
CONTINUOUS
10
2.9183720472440946
20
1.9798877952755904
11
2.9153759055118109
21
1.9667607874015747
0
LINE
8
BLACK
6
CONTINUOUS
10
2.9153759055118109
20
1.9667607874015747
11
2.9109288188976379
21
1.9540517716535433
0
LINE
8
BLACK
6
CONTINUOUS
10
2.9109288188976379
20
1.9540517716535433
11
2.9050867716535431
21
1.9419205905511812
0
LINE
8
BLACK
6
CONTINUOUS
10
2.9050867716535431
20
1.9419205905511812
11
2.8979231889763777
21
1.9305198031496063
0
LINE
8
BLACK
6
CONTINUOUS
10
2.8979231889763777
20
1.9305198031496063
11
2.8895281496062992
21
1.9199927559055117
0
LINE
8
BLACK
6
CONTINUOUS
10
2.8895281496062992
20
1.9199927559055117
11
2.8800072440944882
21
1.9104718503937008
0
LINE
8
BLACK
6
CONTINUOUS
10
2.8800072440944882
20
1.9104718503937008
11
2.8694801968503936
21
1.9020768110236219
0
LINE
8
BLACK
6
CONTINUOUS
10
2.8694801968503936
20
1.9020768110236219
11
2.8580794094488189
21
1.8949132283464567
0
LINE
8
BLACK
6
CONTINUOUS
10
2.8580794094488189
20
1.8949132283464567
11
2.8459482283464568
21
1.8890711811023622
0
LINE
8
BLACK
6
CONTINUOUS
10
2.8459482283464568
20
1.8890711811023622
11
2.8332392125984249
21
1.8846240944881889
0
LINE
8
BLACK
6
CONTINUOUS
10
2.8332392125984249
20
1.8846240944881889
11
2.8201122047244094
21
1.8816279527559054
0
LINE
8
BLACK
6
CONTINUOUS
10
2.8201122047244094
20
1.8816279527559054
11
2.8067322834645667
21
1.8801203937007873
0
LINE
8
BLACK
6
CONTINUOUS
10
2.8067322834645667
20
1.8801203937007873
11
2.7932677165354329
21
1.8801203937007873
0
LINE
8
BLACK
6
CONTINUOUS
10
2.7932677165354329
20
1.8801203937007873
11
2.7798877952755903
21
1.8816279527559054
0
LINE
8
BLACK
6
CONTINUOUS
10
2.7798877952755903
20
1.8816279527559054
11
2.7667607874015747
21
1.8846240944881889
0
LINE
8
BLACK
6
CONTINUOUS
10
2.7667607874015747
20
1.8846240944881889
11
2.7540517716535433
21
1.8890711811023622
0
LINE
8
BLACK
6
CONTINUOUS
10
2.7540517716535433
20
1.8890711811023622
11
2.7419205905511812
21
1.8949132283464567
0
LINE
8
BLACK
6
CONTINUOUS
10
2.7419205905511812
20
1.8949132283464567
11
2.7305198031496061
21
1.9020768110236219
0
LINE
8
BLACK
6
CONTINUOUS
10
2.7305198031496061
20
1.9020768110236219
11
2.7199927559055119
21
1.9104718503937008
0
LINE
8
BLACK
6
CONTINUOUS
10
2.7199927559055119
20
1.9104718503937008
11
2.7104718503937009
21
1.9199927559055117
0
LINE
8
BLACK
6
CONTINUOUS
10
2.7104718503937009
20
1.9199927559055117
11
2.702076811023622
21
1.9305198031496063
0
LINE
8
BLACK
6
CONTINUOUS
10
2.702076811023622
20
1.9305198031496063
11
2.6949132283464565
21
1.9419205905511812
0
LINE
8
BLACK
6
CONTINUOUS
10
2.6949132283464565
20
1.9419205905511812
11
2.6890711811023622
21
1.9540517716535433
0
LINE
8
BLACK
6
CONTINUOUS
10
2.6890711811023622
20
1.9540517716535433
11
2.6846240944881887
21
1.9667607874015747
0
LINE
8
BLACK
6
CONTINUOUS
10
2.6846240944881887
20
1.9667607874015747
11
2.6816279527559055
21
1.9798877952755904
0
LINE
8
BLACK
6
CONTINUOUS
10
2.6816279527559055
20
1.9798877952755904
11
2.6801203937007871
21
1.9932677165354331
0
LINE
8
BLACK
6
CONTINUOUS
10
2.6801203937007871
20
1.9932677165354331
11
2.6801203937007871
21
2.0065218110236218
0
LINE
8
BLACK
6
CONTINUOUS
10
2.6801203937007871
20
2.0065218110236218
11
2.6801203937007871
21
2.0067322834645669
0
LINE
8
BLACK
6
CONTINUOUS
10
2.6801203937007871
20
2.0067322834645669
11
2.6816279527559055
21
2.0201122047244096
0
LINE
8
BLACK
6
CONTINUOUS
10
2.6816279527559055
20
2.0201122047244096
11
2.6846240944881887
21
2.0332392125984251
0
LINE
8
BLACK
6
CONTINUOUS
10
2.6846240944881887
20
2.0332392125984251
11
2.6890711811023622
21
2.0459482283464565
0
LINE
8
BLACK
6
CONTINUOUS
10
2.6890711811023622
20
2.0459482283464565
11
2.6949132283464565
21
2.0580794094488191
0
LINE
8
BLACK
6
CONTINUOUS
10
2.6949132283464565
20
2.0580794094488191
11
2.702076811023622
21
2.0694801968503937
0
LINE
8
BLACK
6
CONTINUOUS
10
2.702076811023622
20
2.0694801968503937
11
2.7104718503937009
21
2.0800072440944883
0
LINE
8
BLACK
6
CONTINUOUS
10
2.7104718503937009
20
2.0800072440944883
11
2.7199927559055119
21
2.089528149606299
0
LINE
8
BLACK
6
CONTINUOUS
10
2.7199927559055119
20
2.089528149606299
11
2.7305198031496061
21
2.0979231889763779
0
LINE
8
BLACK
6
CONTINUOUS
10
2.7305198031496061
20
2.0979231889763779
11
2.7419205905511812
21
2.1050867716535433
0
LINE
8
BLACK
6
CONTINUOUS
10
2.7419205905511812
20
2.1050867716535433
11
2.7540517716535433
21
2.1109288188976376
0
LINE
8
BLACK
6
CONTINUOUS
10
2.7540517716535433
20
2.1109288188976376
11
2.7667607874015747
21
2.1153759055118111
0
LINE
8
BLACK
6
CONTINUOUS
10
2.7667607874015747
20
2.1153759055118111
11
2.7798877952755903
21
2.1183720472440943
0
LINE
8
BLACK
6
CONTINUOUS
10
2.7798877952755903
20
2.1183720472440943
11
2.7932677165354329
21
2.1198796062992127
0
LINE
8
BLACK
6
CONTINUOUS
10
2.7932677165354329
20
2.1198796062992127
11
2.8067322834645667
21
2.1198796062992127
0
LINE
8
BLACK
6
CONTINUOUS
10
2.8067322834645667
20
2.1198796062992127
11
2.8201122047244094
21
2.1183720472440943
0
LINE
8
BLACK
6
CONTINUOUS
10
2.6838685039370076
20
1.993478188976378
11
2.6853288976377954
21
1.9805166141732282
0
LINE
8
BLACK
6
CONTINUOUS
10
2.6853288976377954
20
1.9805166141732282
11
2.6882313779527558
21
1.9678
0
LINE
8
BLACK
6
CONTINUOUS
10
2.6882313779527558
20
1.9678
11
2.6925394094488189
21
1.9554883858267715
0
LINE
8
BLACK
6
CONTINUOUS
10
2.6925394094488189
20
1.9554883858267715
11
2.6981988188976378
21
1.9437364960629921
0
LINE
8
BLACK
6
CONTINUOUS
10
2.6981988188976378
20
1.9437364960629921
11
2.7051384645669292
21
1.932692125984252
0
LINE
8
BLACK
6
CONTINUOUS
10
2.7051384645669292
20
1.932692125984252
11
2.7132710236220472
21
1.922494251968504
0
LINE
8
BLACK
6
CONTINUOUS
10
2.7132710236220472
20
1.922494251968504
11
2.722494251968504
21
1.9132710236220472
0
LINE
8
BLACK
6
CONTINUOUS
10
2.722494251968504
20
1.9132710236220472
11
2.732692125984252
21
1.9051384645669291
0
LINE
8
BLACK
6
CONTINUOUS
10
2.732692125984252
20
1.9051384645669291
11
2.7437364960629922
21
1.8981988188976378
0
LINE
8
BLACK
6
CONTINUOUS
10
2.7437364960629922
20
1.8981988188976378
11
2.7554883858267716
21
1.8925394094488188
0
LINE
8
BLACK
6
CONTINUOUS
10
2.7554883858267716
20
1.8925394094488188
11
2.7677999999999998
21
1.8882313779527558
0
LINE
8
BLACK
6
CONTINUOUS
10
2.7677999999999998
20
1.8882313779527558
11
2.7805166141732283
21
1.8853288976377953
0
LINE
8
BLACK
6
CONTINUOUS
10
2.7805166141732283
20
1.8853288976377953
11
2.793478188976378
21
1.8838685039370078
0
LINE
8
BLACK
6
CONTINUOUS
10
2.793478188976378
20
1.8838685039370078
11
2.8065218110236221
21
1.8838685039370078
0
LINE
8
BLACK
6
CONTINUOUS
10
2.8065218110236221
20
1.8838685039370078
11
2.8194833858267714
21
1.8853288976377953
0
LINE
8
BLACK
6
CONTINUOUS
10
2.8194833858267714
20
1.8853288976377953
11
2.8321999999999998
21
1.8882313779527558
0
LINE
8
BLACK
6
CONTINUOUS
10
2.8321999999999998
20
1.8882313779527558
11
2.8445116141732281
21
1.8925394094488188
0
LINE
8
BLACK
6
CONTINUOUS
10
2.8445116141732281
20
1.8925394094488188
11
2.8562635039370079
21
1.8981988188976378
0
LINE
8
BLACK
6
CONTINUOUS
10
2.8562635039370079
20
1.8981988188976378
11
2.867307874015748
21
1.9051384645669291
0
LINE
8
BLACK
6
CONTINUOUS
10
2.867307874015748
20
1.9051384645669291
11
2.8775057480314961
21
1.9132710236220472
0
LINE
8
BLACK
6
CONTINUOUS
10
2.8775057480314961
20
1.9132710236220472
11
2.8867289763779529
21
1.922494251968504
0
LINE
8
BLACK
6
CONTINUOUS
10
2.8867289763779529
20
1.922494251968504
11
2.8948615354330709
21
1.932692125984252
0
LINE
8
BLACK
6
CONTINUOUS
10
2.8948615354330709
20
1.932692125984252
11
2.9018011811023623
21
1.9437364960629921
0
LINE
8
BLACK
6
CONTINUOUS
10
2.9018011811023623
20
1.9437364960629921
11
2.9074605905511812
21
1.9554883858267715
0
LINE
8
BLACK
6
CONTINUOUS
10
2.9074605905511812
20
1.9554883858267715
11
2.9117686220472438
21
1.9678
0
LINE
8
BLACK
6
CONTINUOUS
10
2.9117686220472438
20
1.9678
11
2.9146711023622047
21
1.9805166141732282
0
LINE
8
BLACK
6
CONTINUOUS
10
2.9146711023622047
20
1.9805166141732282
11
2.916131496062992
21
1.993478188976378
0
LINE
8
BLACK
6
CONTINUOUS
10
2.916131496062992
20
1.993478188976378
11
2.916131496062992
21
2.0065218110236218
0
LINE
8
BLACK
6
CONTINUOUS
10
2.916131496062992
20
2.0065218110236218
11
2.9146711023622047
21
2.0194833858267716
0
LINE
8
BLACK
6
CONTINUOUS
10
2.9146711023622047
20
2.0194833858267716
11
2.9117686220472438
21
2.0322
0
LINE
8
BLACK
6
CONTINUOUS
10
2.9117686220472438
20
2.0322
11
2.9074605905511812
21
2.0445116141732282
0
LINE
8
BLACK
6
CONTINUOUS
10
2.9074605905511812
20
2.0445116141732282
11
2.9018011811023623
21
2.0562635039370076
0
LINE
8
BLACK
6
CONTINUOUS
10
2.9018011811023623
20
2.0562635039370076
11
2.8948615354330709
21
2.0673078740157478
0
LINE
8
BLACK
6
CONTINUOUS
10
2.8948615354330709
20
2.0673078740157478
11
2.8867289763779529
21
2.0775057480314962
0
LINE
8
BLACK
6
CONTINUOUS
10
2.8867289763779529
20
2.0775057480314962
11
2.8775057480314961
21
2.0867289763779526
0
LINE
8
BLACK
6
CONTINUOUS
10
2.8775057480314961
20
2.0867289763779526
11
2.867307874015748
21
2.0948615354330706
0
LINE
8
BLACK
6
CONTINUOUS
10
2.867307874015748
20
2.0948615354330706
11
2.8562635039370079
21
2.101801181102362
0
LINE
8
BLACK
6
CONTINUOUS
10
2.8562635039370079
20
2.101801181102362
11
2.8445116141732281
21
2.107460590551181
0
LINE
8
BLACK
6
CONTINUOUS
10
2.8445116141732281
20
2.107460590551181
11
2.8321999999999998
21
2.111768622047244
0
LINE
8
BLACK
6
CONTINUOUS
10
2.8321999999999998
20
2.111768622047244
11
2.8194833858267714
21
2.1146711023622045
0
LINE
8
BLACK
6
CONTINUOUS
10
2.8194833858267714
20
2.1146711023622045
11
2.8065218110236221
21
2.1161314960629922
0
LINE
8
BLACK
6
CONTINUOUS
10
2.8065218110236221
20
2.1161314960629922
11
2.793478188976378
21
2.1161314960629922
0
LINE
8
BLACK
6
CONTINUOUS
10
2.793478188976378
20
2.1161314960629922
11
2.7805166141732283
21
2.1146711023622045
0
LINE
8
BLACK
6
CONTINUOUS
10
2.7805166141732283
20
2.1146711023622045
11
2.7677999999999998
21
2.111768622047244
0
LINE
8
BLACK
6
CONTINUOUS
10
2.7677999999999998
20
2.111768622047244
11
2.7554883858267716
21
2.107460590551181
0
LINE
8
BLACK
6
CONTINUOUS
10
2.7554883858267716
20
2.107460590551181
11
2.7437364960629922
21
2.101801181102362
0
LINE
8
BLACK
6
CONTINUOUS
10
2.7437364960629922
20
2.101801181102362
11
2.732692125984252
21
2.0948615354330706
0
LINE
8
BLACK
6
CONTINUOUS
10
2.732692125984252
20
2.0948615354330706
11
2.722494251968504
21
2.0867289763779526
0
LINE
8
BLACK
6
CONTINUOUS
10
2.722494251968504
20
2.0867289763779526
11
2.7132710236220472
21
2.0775057480314962
0
LINE
8
BLACK
6
CONTINUOUS
10
2.7132710236220472
20
2.0775057480314962
11
2.7051384645669292
21
2.0673078740157478
0
LINE
8
BLACK
6
CONTINUOUS
10
2.7051384645669292
20
2.0673078740157478
11
2.6981988188976378
21
2.0562635039370076
0
LINE
8
BLACK
6
CONTINUOUS
10
2.6981988188976378
20
2.0562635039370076
11
2.6925394094488189
21
2.0445116141732282
0
LINE
8
BLACK
6
CONTINUOUS
10
2.6925394094488189
20
2.0445116141732282
11
2.6882313779527558
21
2.0322
0
LINE
8
BLACK
6
CONTINUOUS
10
2.6882313779527558
20
2.0322
11
2.6853288976377954
21
2.0194833858267716
0
LINE
8
BLACK
6
CONTINUOUS
10
2.6853288976377954
20
2.0194833858267716
11
2.6838685039370076
21
2.0065218110236218
0
LINE
8
BLACK
6
CONTINUOUS
10
2.6838685039370076
20
2.0065218110236218
11
2.6838685039370076
21
1.993478188976378
0
LINE
8
BLACK
6
CONTINUOUS
10
2.4604823228346455
20
1.9472072440944881
11
2.4615467322834643
21
1.9467663385826772
0
LINE
8
BLACK
6
CONTINUOUS
10
2.4615467322834643
20
1.9467663385826772
11
2.4623613779527558
21
1.9459516929133858
0
LINE
8
BLACK
6
CONTINUOUS
10
2.4623613779527558
20
1.9459516929133858
11
2.4628022834645669
21
1.944887283464567
0
LINE
8
BLACK
6
CONTINUOUS
10
2.4628022834645669
20
1.944887283464567
11
2.4628022834645669
21
1.943735157480315
0
LINE
8
BLACK
6
CONTINUOUS
10
2.4628022834645669
20
1.943735157480315
11
2.4623613779527558
21
1.942670748031496
0
LINE
8
BLACK
6
CONTINUOUS
10
2.4623613779527558
20
1.942670748031496
11
2.4615467322834643
21
1.9418561023622047
0
LINE
8
BLACK
6
CONTINUOUS
10
2.4615467322834643
20
1.9418561023622047
11
2.4604823228346455
21
1.9414151968503937
0
LINE
8
BLACK
6
CONTINUOUS
10
2.4604823228346455
20
1.9414151968503937
11
2.4599062598425196
21
1.9413584645669291
0
LINE
8
BLACK
6
CONTINUOUS
10
2.4599062598425196
20
1.9413584645669291
11
2.4442564173228347
21
1.9413584645669291
0
LINE
8
BLACK
6
CONTINUOUS
10
2.4442564173228347
20
1.9413584645669291
11
2.4419043307086614
21
1.9390064173228345
0
LINE
8
BLACK
6
CONTINUOUS
10
2.4419043307086614
20
1.9390064173228345
11
2.4616779133858269
21
1.9241762598425196
0
LINE
8
BLACK
6
CONTINUOUS
10
2.4616779133858269
20
1.9241762598425196
11
2.4621047244094489
21
1.9237852362204724
0
LINE
8
BLACK
6
CONTINUOUS
10
2.4621047244094489
20
1.9237852362204724
11
2.4626917322834645
21
1.9227938582677164
0
LINE
8
BLACK
6
CONTINUOUS
10
2.4626917322834645
20
1.9227938582677164
11
2.4628546456692915
21
1.9216533464566929
0
LINE
8
BLACK
6
CONTINUOUS
10
2.4628546456692915
20
1.9216533464566929
11
2.4625687401574803
21
1.9205372834645669
0
LINE
8
BLACK
6
CONTINUOUS
10
2.4625687401574803
20
1.9205372834645669
11
2.4618774409448818
21
1.9196155905511811
0
LINE
8
BLACK
6
CONTINUOUS
10
2.4618774409448818
20
1.9196155905511811
11
2.4608860629921261
21
1.9190286220472441
0
LINE
8
BLACK
6
CONTINUOUS
10
2.4608860629921261
20
1.9190286220472441
11
2.4597455905511811
21
1.9188656692913386
0
LINE
8
BLACK
6
CONTINUOUS
10
2.4597455905511811
20
1.9188656692913386
11
2.4586294881889765
21
1.9191515748031496
0
LINE
8
BLACK
6
CONTINUOUS
10
2.4586294881889765
20
1.9191515748031496
11
2.4581346062992124
21
1.9194518503937008
0
LINE
8
BLACK
6
CONTINUOUS
10
2.4581346062992124
20
1.9194518503937008
11
2.4376861023622047
21
1.9347881889763778
0
LINE
8
BLACK
6
CONTINUOUS
10
2.4376861023622047
20
1.9347881889763778
11
2.4226240944881887
21
1.9197261417322835
0
LINE
8
BLACK
6
CONTINUOUS
10
2.4226240944881887
20
1.9197261417322835
11
2.4221766535433069
21
1.9193589370078741
0
LINE
8
BLACK
6
CONTINUOUS
10
2.4221766535433069
20
1.9193589370078741
11
2.4211122047244094
21
1.918918031496063
0
LINE
8
BLACK
6
CONTINUOUS
10
2.4211122047244094
20
1.918918031496063
11
2.4199601574803151
21
1.918918031496063
0
LINE
8
BLACK
6
CONTINUOUS
10
2.4199601574803151
20
1.918918031496063
11
2.4188957086614171
21
1.9193589370078741
0
LINE
8
BLACK
6
CONTINUOUS
10
2.4188957086614171
20
1.9193589370078741
11
2.4180810629921261
21
1.9201735826771653
0
LINE
8
BLACK
6
CONTINUOUS
10
2.4180810629921261
20
1.9201735826771653
11
2.417640157480315
21
1.9212380314960629
0
LINE
8
BLACK
6
CONTINUOUS
10
2.417640157480315
20
1.9212380314960629
11
2.417640157480315
21
1.9223900787401573
0
LINE
8
BLACK
6
CONTINUOUS
10
2.417640157480315
20
1.9223900787401573
11
2.4180810629921261
21
1.9234545275590551
0
LINE
8
BLACK
6
CONTINUOUS
10
2.4180810629921261
20
1.9234545275590551
11
2.4184482677165353
21
1.9239019685039369
0
LINE
8
BLACK
6
CONTINUOUS
10
2.4184482677165353
20
1.9239019685039369
11
2.4359047637795275
21
1.9413584645669291
0
LINE
8
BLACK
6
CONTINUOUS
10
2.4359047637795275
20
1.9413584645669291
11
2.4205361811023622
21
1.9413584645669291
0
LINE
8
BLACK
6
CONTINUOUS
10
2.4205361811023622
20
1.9413584645669291
11
2.4199601181102364
21
1.9414151968503937
0
LINE
8
BLACK
6
CONTINUOUS
10
2.4199601181102364
20
1.9414151968503937
11
2.4188957086614171
21
1.9418561023622047
0
LINE
8
BLACK
6
CONTINUOUS
10
2.4188957086614171
20
1.9418561023622047
11
2.4180810629921261
21
1.942670748031496
0
LINE
8
BLACK
6
CONTINUOUS
10
2.4180810629921261
20
1.942670748031496
11
2.417640157480315
21
1.943735157480315
0
LINE
8
BLACK
6
CONTINUOUS
10
2.417640157480315
20
1.943735157480315
11
2.417640157480315
21
1.944887283464567
0
LINE
8
BLACK
6
CONTINUOUS
10
2.417640157480315
20
1.944887283464567
11
2.4180810629921261
21
1.9459516929133858
0
LINE
8
BLACK
6
CONTINUOUS
10
2.4180810629921261
20
1.9459516929133858
11
2.4188957086614171
21
1.9467663385826772
0
LINE
8
BLACK
6
CONTINUOUS
10
2.4188957086614171
20
1.9467663385826772
11
2.4199601181102364
21
1.9472072440944881
0
LINE
8
BLACK
6
CONTINUOUS
10
2.4199601181102364
20
1.9472072440944881
11
2.4205361811023622
21
1.9472639763779527
0
LINE
8
BLACK
6
CONTINUOUS
10
2.4205361811023622
20
1.9472639763779527
11
2.4599062598425196
21
1.9472639763779527
0
LINE
8
BLACK
6
CONTINUOUS
10
2.4599062598425196
20
1.9472639763779527
11
2.4604823228346455
21
1.9472072440944881
0
LINE
8
BLACK
6
CONTINUOUS
10
2.5964823228346456
20
1.9472072440944881
11
2.5975467322834644
21
1.9467663385826772
0
LINE
8
BLACK
6
CONTINUOUS
10
2.5975467322834644
20
1.9467663385826772
11
2.5983613779527559
21
1.9459516929133858
0
LINE
8
BLACK
6
CONTINUOUS
10
2.5983613779527559
20
1.9459516929133858
11
2.598802283464567
21
1.944887283464567
0
LINE
8
BLACK
6
CONTINUOUS
10
2.598802283464567
20
1.944887283464567
11
2.598802283464567
21
1.943735157480315
0
LINE
8
BLACK
6
CONTINUOUS
10
2.598802283464567
20
1.943735157480315
11
2.5983613779527559
21
1.942670748031496
0
LINE
8
BLACK
6
CONTINUOUS
10
2.5983613779527559
20
1.942670748031496
11
2.5975467322834644
21
1.9418561023622047
0
LINE
8
BLACK
6
CONTINUOUS
10
2.5975467322834644
20
1.9418561023622047
11
2.5964823228346456
21
1.9414151968503937
0
LINE
8
BLACK
6
CONTINUOUS
10
2.5964823228346456
20
1.9414151968503937
11
2.5959062598425198
21
1.9413584645669291
0
LINE
8
BLACK
6
CONTINUOUS
10
2.5959062598425198
20
1.9413584645669291
11
2.5802564173228344
21
1.9413584645669291
0
LINE
8
BLACK
6
CONTINUOUS
10
2.5802564173228344
20
1.9413584645669291
11
2.5779043307086615
21
1.9390064173228345
0
LINE
8
BLACK
6
CONTINUOUS
10
2.5779043307086615
20
1.9390064173228345
11
2.5976779133858265
21
1.9241762598425196
0
LINE
8
BLACK
6
CONTINUOUS
10
2.5976779133858265
20
1.9241762598425196
11
2.5981047244094486
21
1.9237852362204724
0
LINE
8
BLACK
6
CONTINUOUS
10
2.5981047244094486
20
1.9237852362204724
11
2.5986917322834646
21
1.9227938582677164
0
LINE
8
BLACK
6
CONTINUOUS
10
2.5986917322834646
20
1.9227938582677164
11
2.5988546456692911
21
1.9216533464566929
0
LINE
8
BLACK
6
CONTINUOUS
10
2.5988546456692911
20
1.9216533464566929
11
2.5985687401574804
21
1.9205372834645669
0
LINE
8
BLACK
6
CONTINUOUS
10
2.5985687401574804
20
1.9205372834645669
11
2.5978774409448819
21
1.9196155905511811
0
LINE
8
BLACK
6
CONTINUOUS
10
2.5978774409448819
20
1.9196155905511811
11
2.5968860629921258
21
1.9190286220472441
0
LINE
8
BLACK
6
CONTINUOUS
10
2.5968860629921258
20
1.9190286220472441
11
2.5957455905511813
21
1.9188656692913386
0
LINE
8
BLACK
6
CONTINUOUS
10
2.5957455905511813
20
1.9188656692913386
11
2.5946294881889762
21
1.9191515748031496
0
LINE
8
BLACK
6
CONTINUOUS
10
2.5946294881889762
20
1.9191515748031496
11
2.5941346062992126
21
1.9194518503937008
0
LINE
8
BLACK
6
CONTINUOUS
10
2.5941346062992126
20
1.9194518503937008
11
2.5736861023622049
21
1.9347881889763778
0
LINE
8
BLACK
6
CONTINUOUS
10
2.5736861023622049
20
1.9347881889763778
11
2.5586240944881888
21
1.9197261417322835
0
LINE
8
BLACK
6
CONTINUOUS
10
2.5586240944881888
20
1.9197261417322835
11
2.558176653543307
21
1.9193589370078741
0
LINE
8
BLACK
6
CONTINUOUS
10
2.558176653543307
20
1.9193589370078741
11
2.5571122047244095
21
1.918918031496063
0
LINE
8
BLACK
6
CONTINUOUS
10
2.5571122047244095
20
1.918918031496063
11
2.5559601574803148
21
1.918918031496063
0
LINE
8
BLACK
6
CONTINUOUS
10
2.5559601574803148
20
1.918918031496063
11
2.5548957086614172
21
1.9193589370078741
0
LINE
8
BLACK
6
CONTINUOUS
10
2.5548957086614172
20
1.9193589370078741
11
2.5540810629921258
21
1.9201735826771653
0
LINE
8
BLACK
6
CONTINUOUS
10
2.5540810629921258
20
1.9201735826771653
11
2.5536401574803147
21
1.9212380314960629
0
LINE
8
BLACK
6
CONTINUOUS
10
2.5536401574803147
20
1.9212380314960629
11
2.5536401574803147
21
1.9223900787401573
0
LINE
8
BLACK
6
CONTINUOUS
10
2.5536401574803147
20
1.9223900787401573
11
2.5540810629921258
21
1.9234545275590551
0
LINE
8
BLACK
6
CONTINUOUS
10
2.5540810629921258
20
1.9234545275590551
11
2.5544482677165354
21
1.9239019685039369
0
LINE
8
BLACK
6
CONTINUOUS
10
2.5544482677165354
20
1.9239019685039369
11
2.5719047637795276
21
1.9413584645669291
0
LINE
8
BLACK
6
CONTINUOUS
10
2.5719047637795276
20
1.9413584645669291
11
2.5565361811023624
21
1.9413584645669291
0
LINE
8
BLACK
6
CONTINUOUS
10
2.5565361811023624
20
1.9413584645669291
11
2.555960118110236
21
1.9414151968503937
0
LINE
8
BLACK
6
CONTINUOUS
10
2.555960118110236
20
1.9414151968503937
11
2.5548957086614172
21
1.9418561023622047
0
LINE
8
BLACK
6
CONTINUOUS
10
2.5548957086614172
20
1.9418561023622047
11
2.5540810629921258
21
1.942670748031496
0
LINE
8
BLACK
6
CONTINUOUS
10
2.5540810629921258
20
1.942670748031496
11
2.5536401574803147
21
1.943735157480315
0
LINE
8
BLACK
6
CONTINUOUS
10
2.5536401574803147
20
1.943735157480315
11
2.5536401574803147
21
1.944887283464567
0
LINE
8
BLACK
6
CONTINUOUS
10
2.5536401574803147
20
1.944887283464567
11
2.5540810629921258
21
1.9459516929133858
0
LINE
8
BLACK
6
CONTINUOUS
10
2.5540810629921258
20
1.9459516929133858
11
2.5548957086614172
21
1.9467663385826772
0
LINE
8
BLACK
6
CONTINUOUS
10
2.5548957086614172
20
1.9467663385826772
11
2.555960118110236
21
1.9472072440944881
0
LINE
8
BLACK
6
CONTINUOUS
10
2.555960118110236
20
1.9472072440944881
11
2.5565361811023624
21
1.9472639763779527
0
LINE
8
BLACK
6
CONTINUOUS
10
2.5565361811023624
20
1.9472639763779527
11
2.5959062598425198
21
1.9472639763779527
0
LINE
8
BLACK
6
CONTINUOUS
10
2.5959062598425198
20
1.9472639763779527
11
2.5964823228346456
21
1.9472072440944881
0
CIRCLE
8
BLACK
10
2.7999999999999998
20
2.
40
0.0068897637795276
0
CIRCLE
8
BLACK
10
0.4
20
0.4
40
0.0068897637795276
0
CIRCLE
8
BLACK
10
2.7999999999999998
20
0.4
40
0.0068897637795276
0
CIRCLE
8
BLACK
10
0.4
20
2.
40
0.0068897637795276
0
CIRCLE
8
BLACK
10
0.9
20
2.
40
0.0068897637795276
0
CIRCLE
8
BLACK
10
0.9
20
2.1000000000000001
40
0.0068897637795276
0
CIRCLE
8
BLACK
10
1.
20
2.
40
0.0068897637795276
0
CIRCLE
8
BLACK
10
1.
20
2.1000000000000001
40
0.0068897637795276
0
CIRCLE
8
BLACK
10
1.0999999999999999
20
2.
40
0.0068897637795276
0
CIRCLE
8
BLACK
10
1.0999999999999999
20
2.1000000000000001
40
0.0068897637795276
0
CIRCLE
8
BLACK
10
1.2
20
2.
40
0.0068897637795276
0
CIRCLE
8
BLACK
10
1.2
20
2.1000000000000001
40
0.0068897637795276
0
CIRCLE
8
BLACK
10
1.3
20
2.
40
0.0068897637795276
0
CIRCLE
8
BLACK
10
1.3
20
2.1000000000000001
40
0.0068897637795276
0
CIRCLE
8
BLACK
10
1.3999999999999999
20
2.
40
0.0068897637795276
0
CIRCLE
8
BLACK
10
1.3999999999999999
20
2.1000000000000001
40
0.0068897637795276
0
CIRCLE
8
BLACK
10
1.5
20
2.
40
0.0068897637795276
0
CIRCLE
8
BLACK
10
1.5
20
2.1000000000000001
40
0.0068897637795276
0
CIRCLE
8
BLACK
10
1.5999999999999999
20
2.
40
0.0068897637795276
0
CIRCLE
8
BLACK
10
1.5999999999999999
20
2.1000000000000001
40
0.0068897637795276
0
CIRCLE
8
BLACK
10
1.7
20
2.
40
0.0068897637795276
0
CIRCLE
8
BLACK
10
1.7
20
2.1000000000000001
40
0.0068897637795276
0
CIRCLE
8
BLACK
10
1.8
20
2.
40
0.0068897637795276
0
CIRCLE
8
BLACK
10
1.8
20
2.1000000000000001
40
0.0068897637795276
0
CIRCLE
8
BLACK
10
1.8999999999999999
20
2.
40
0.0068897637795276
0
CIRCLE
8
BLACK
10
1.8999999999999999
20
2.1000000000000001
40
0.0068897637795276
0
CIRCLE
8
BLACK
10
2.
20
2.
40
0.0068897637795276
0
CIRCLE
8
BLACK
10
2.
20
2.1000000000000001
40
0.0068897637795276
0
CIRCLE
8
BLACK
10
2.1000000000000001
20
2.
40
0.0068897637795276
0
CIRCLE
8
BLACK
10
2.1000000000000001
20
2.1000000000000001
40
0.0068897637795276
0
CIRCLE
8
BLACK
10
2.1999999999999997
20
2.
40
0.0068897637795276
0
CIRCLE
8
BLACK
10
2.1999999999999997
20
2.1000000000000001
40
0.0068897637795276
0
CIRCLE
8
BLACK
10
2.2999999999999998
20
2.
40
0.0068897637795276
0
CIRCLE
8
BLACK
10
2.2999999999999998
20
2.1000000000000001
40
0.0068897637795276
0
CIRCLE
8
BLACK
10
2.7999999999999998
20
2.
40
0.0068897637795276
0
CIRCLE
8
BLACK
10
0.4
20
0.4
40
0.0068897637795276
0
CIRCLE
8
BLACK
10
2.7999999999999998
20
0.4
40
0.0068897637795276
0
CIRCLE
8
BLACK
10
0.4
20
2.
40
0.0068897637795276
0
CIRCLE
8
BLACK
10
0.9
20
2.
40
0.0068897637795276
0
CIRCLE
8
BLACK
10
0.9
20
2.1000000000000001
40
0.0068897637795276
0
CIRCLE
8
BLACK
10
1.
20
2.
40
0.0068897637795276
0
CIRCLE
8
BLACK
10
1.
20
2.1000000000000001
40
0.0068897637795276
0
CIRCLE
8
BLACK
10
1.0999999999999999
20
2.
40
0.0068897637795276
0
CIRCLE
8
BLACK
10
1.0999999999999999
20
2.1000000000000001
40
0.0068897637795276
0
CIRCLE
8
BLACK
10
1.2
20
2.
40
0.0068897637795276
0
CIRCLE
8
BLACK
10
1.2
20
2.1000000000000001
40
0.0068897637795276
0
CIRCLE
8
BLACK
10
1.3
20
2.
40
0.0068897637795276
0
CIRCLE
8
BLACK
10
1.3
20
2.1000000000000001
40
0.0068897637795276
0
CIRCLE
8
BLACK
10
1.3999999999999999
20
2.
40
0.0068897637795276
0
CIRCLE
8
BLACK
10
1.3999999999999999
20
2.1000000000000001
40
0.0068897637795276
0
CIRCLE
8
BLACK
10
1.5
20
2.
40
0.0068897637795276
0
CIRCLE
8
BLACK
10
1.5
20
2.1000000000000001
40
0.0068897637795276
0
CIRCLE
8
BLACK
10
1.5999999999999999
20
2.
40
0.0068897637795276
0
CIRCLE
8
BLACK
10
1.5999999999999999
20
2.1000000000000001
40
0.0068897637795276
0
CIRCLE
8
BLACK
10
1.7
20
2.
40
0.0068897637795276
0
CIRCLE
8
BLACK
10
1.7
20
2.1000000000000001
40
0.0068897637795276
0
CIRCLE
8
BLACK
10
1.8
20
2.
40
0.0068897637795276
0
CIRCLE
8
BLACK
10
1.8
20
2.1000000000000001
40
0.0068897637795276
0
CIRCLE
8
BLACK
10
1.8999999999999999
20
2.
40
0.0068897637795276
0
CIRCLE
8
BLACK
10
1.8999999999999999
20
2.1000000000000001
40
0.0068897637795276
0
CIRCLE
8
BLACK
10
2.
20
2.
40
0.0068897637795276
0
CIRCLE
8
BLACK
10
2.
20
2.1000000000000001
40
0.0068897637795276
0
CIRCLE
8
BLACK
10
2.1000000000000001
20
2.
40
0.0068897637795276
0
CIRCLE
8
BLACK
10
2.1000000000000001
20
2.1000000000000001
40
0.0068897637795276
0
CIRCLE
8
BLACK
10
2.1999999999999997
20
2.
40
0.0068897637795276
0
CIRCLE
8
BLACK
10
2.1999999999999997
20
2.1000000000000001
40
0.0068897637795276
0
CIRCLE
8
BLACK
10
2.2999999999999998
20
2.
40
0.0068897637795276
0
CIRCLE
8
BLACK
10
2.2999999999999998
20
2.1000000000000001
40
0.0068897637795276
  0
ENDSEC
  0
EOF
