  0
SECTION
  2
HEADER
  9
$ANGBASE
  50
0.0
  9
$ANGDIR
  70
1
  9
$MEASUREMENT
  70
0
  0
ENDSEC
  0
SECTION
  2
TABLES
  0
TABLE
  2
LTYPE
  70
4
  0
LTYPE
  5
40F
  2
CONTINUOUS
  70
0
  3
Solid line
  72
65
  73
0
  40
0.0
  0
LTYPE
  5
410
  2
DASHDOT
 70
0
  3
Dash Dot ____ _ ____ _
 72
65
 73
4
 40
2.0
 49
1.25
 49
-0.25
 49
0.25
 49
-0.25
  0
LTYPE
  5
411
  2
DASHED
 70
0
  3
Dashed __ __ __ __ __
 72
65
 73
2
 40
0.75
 49
0.5
 49
-0.25
  0
LTYPE
  5
43B
  2
DOTTED
 70
0
  3
Dotted .  .  .  .
 72
65
 73
2
 40
0.2
 49
0.0
 49
-0.2
  0
ENDTAB
  0
TABLE
  2
STYLE
  70
4
  0
STYLE
  2
KICAD
  70
0
  40
0
  41
1
  42
1
  50
0
  71
0
  3
isocp.shx
  0
STYLE
  2
KICADB
  70
0
  40
0
  41
1
  42
1
  50
0
  71
0
  3
isocp.shx
  0
STYLE
  2
KICADI
  70
0
  40
0
  41
1
  42
1
  50
15
  71
0
  3
isocp.shx
  0
STYLE
  2
KICADBI
  70
0
  40
0
  41
1
  42
1
  50
15
  71
0
  3
isocp.shx
  0
ENDTAB
  0
TABLE
  2
LAYER
  70
1
  0
LAYER
  2
BLACK
  70
0
  62
7
  6
CONTINUOUS
  0
ENDTAB
  0
ENDSEC
  0
SECTION
  2
ENTITIES
0
LINE
8
BLACK
6
CONTINUOUS
10
0.4201122047244095
20
0.5183720472440945
11
0.4332392125984252
21
0.515375905511811
0
LINE
8
BLACK
6
CONTINUOUS
10
0.4332392125984252
20
0.515375905511811
11
0.4459482283464567
21
0.5109288188976377
0
LINE
8
BLACK
6
CONTINUOUS
10
0.4459482283464567
20
0.5109288188976377
11
0.4580794094488189
21
0.5050867716535433
0
LINE
8
BLACK
6
CONTINUOUS
10
0.4580794094488189
20
0.5050867716535433
11
0.4694801968503937
21
0.4979231889763779
0
LINE
8
BLACK
6
CONTINUOUS
10
0.4694801968503937
20
0.4979231889763779
11
0.4800072440944882
21
0.4895281496062992
0
LINE
8
BLACK
6
CONTINUOUS
10
0.4800072440944882
20
0.4895281496062992
11
0.4895281496062992
21
0.4800072440944882
0
LINE
8
BLACK
6
CONTINUOUS
10
0.4895281496062992
20
0.4800072440944882
11
0.4979231889763779
21
0.4694801968503937
0
LINE
8
BLACK
6
CONTINUOUS
10
0.4979231889763779
20
0.4694801968503937
11
0.5050867716535433
21
0.4580794094488189
0
LINE
8
BLACK
6
CONTINUOUS
10
0.5050867716535433
20
0.4580794094488189
11
0.5109288188976377
21
0.4459482283464567
0
LINE
8
BLACK
6
CONTINUOUS
10
0.5109288188976377
20
0.4459482283464567
11
0.515375905511811
21
0.4332392125984252
0
LINE
8
BLACK
6
CONTINUOUS
10
0.515375905511811
20
0.4332392125984252
11
0.5183720472440945
21
0.4201122047244095
0
LINE
8
BLACK
6
CONTINUOUS
10
0.5183720472440945
20
0.4201122047244095
11
0.5198796062992126
21
0.4067322834645669
0
LINE
8
BLACK
6
CONTINUOUS
10
0.5198796062992126
20
0.4067322834645669
11
0.5198796062992126
21
0.3932677165354331
0
LINE
8
BLACK
6
CONTINUOUS
10
0.5198796062992126
20
0.3932677165354331
11
0.5183720472440945
21
0.3798877952755905
0
LINE
8
BLACK
6
CONTINUOUS
10
0.5183720472440945
20
0.3798877952755905
11
0.515375905511811
21
0.3667607874015748
0
LINE
8
BLACK
6
CONTINUOUS
10
0.515375905511811
20
0.3667607874015748
11
0.5109288188976377
21
0.3540517716535433
0
LINE
8
BLACK
6
CONTINUOUS
10
0.5109288188976377
20
0.3540517716535433
11
0.5050867716535433
21
0.3419205905511811
0
LINE
8
BLACK
6
CONTINUOUS
10
0.5050867716535433
20
0.3419205905511811
11
0.4979231889763779
21
0.3305198031496063
0
LINE
8
BLACK
6
CONTINUOUS
10
0.4979231889763779
20
0.3305198031496063
11
0.4895281496062992
21
0.3199927559055118
0
LINE
8
BLACK
6
CONTINUOUS
10
0.4895281496062992
20
0.3199927559055118
11
0.4800072440944882
21
0.3104718503937008
0
LINE
8
BLACK
6
CONTINUOUS
10
0.4800072440944882
20
0.3104718503937008
11
0.4694801968503937
21
0.302076811023622
0
LINE
8
BLACK
6
CONTINUOUS
10
0.4694801968503937
20
0.302076811023622
11
0.4580794094488189
21
0.2949132283464567
0
LINE
8
BLACK
6
CONTINUOUS
10
0.4580794094488189
20
0.2949132283464567
11
0.4459482283464567
21
0.2890711811023622
0
LINE
8
BLACK
6
CONTINUOUS
10
0.4459482283464567
20
0.2890711811023622
11
0.4332392125984252
21
0.284624094488189
0
LINE
8
BLACK
6
CONTINUOUS
10
0.4332392125984252
20
0.284624094488189
11
0.4201122047244095
21
0.2816279527559055
0
LINE
8
BLACK
6
CONTINUOUS
10
0.4201122047244095
20
0.2816279527559055
11
0.4067322834645669
21
0.2801203937007874
0
LINE
8
BLACK
6
CONTINUOUS
10
0.4067322834645669
20
0.2801203937007874
11
0.3932677165354331
21
0.2801203937007874
0
LINE
8
BLACK
6
CONTINUOUS
10
0.3932677165354331
20
0.2801203937007874
11
0.3798877952755905
21
0.2816279527559055
0
LINE
8
BLACK
6
CONTINUOUS
10
0.3798877952755905
20
0.2816279527559055
11
0.3667607874015748
21
0.284624094488189
0
LINE
8
BLACK
6
CONTINUOUS
10
0.3667607874015748
20
0.284624094488189
11
0.3540517716535433
21
0.2890711811023622
0
LINE
8
BLACK
6
CONTINUOUS
10
0.3540517716535433
20
0.2890711811023622
11
0.3419205905511811
21
0.2949132283464567
0
LINE
8
BLACK
6
CONTINUOUS
10
0.3419205905511811
20
0.2949132283464567
11
0.3305198031496063
21
0.302076811023622
0
LINE
8
BLACK
6
CONTINUOUS
10
0.3305198031496063
20
0.302076811023622
11
0.3199927559055118
21
0.3104718503937008
0
LINE
8
BLACK
6
CONTINUOUS
10
0.3199927559055118
20
0.3104718503937008
11
0.3104718503937008
21
0.3199927559055118
0
LINE
8
BLACK
6
CONTINUOUS
10
0.3104718503937008
20
0.3199927559055118
11
0.302076811023622
21
0.3305198031496063
0
LINE
8
BLACK
6
CONTINUOUS
10
0.302076811023622
20
0.3305198031496063
11
0.2949132283464567
21
0.3419205905511811
0
LINE
8
BLACK
6
CONTINUOUS
10
0.2949132283464567
20
0.3419205905511811
11
0.2890711811023622
21
0.3540517716535433
0
LINE
8
BLACK
6
CONTINUOUS
10
0.2890711811023622
20
0.3540517716535433
11
0.284624094488189
21
0.3667607874015748
0
LINE
8
BLACK
6
CONTINUOUS
10
0.284624094488189
20
0.3667607874015748
11
0.2816279527559055
21
0.3798877952755905
0
LINE
8
BLACK
6
CONTINUOUS
10
0.2816279527559055
20
0.3798877952755905
11
0.2801203937007874
21
0.3932677165354331
0
LINE
8
BLACK
6
CONTINUOUS
10
0.2801203937007874
20
0.3932677165354331
11
0.2801203937007874
21
0.4065218110236221
0
LINE
8
BLACK
6
CONTINUOUS
10
0.2801203937007874
20
0.4065218110236221
11
0.2801203937007874
21
0.4067322834645669
0
LINE
8
BLACK
6
CONTINUOUS
10
0.2801203937007874
20
0.4067322834645669
11
0.2816279527559055
21
0.4201122047244095
0
LINE
8
BLACK
6
CONTINUOUS
10
0.2816279527559055
20
0.4201122047244095
11
0.284624094488189
21
0.4332392125984252
0
LINE
8
BLACK
6
CONTINUOUS
10
0.284624094488189
20
0.4332392125984252
11
0.2890711811023622
21
0.4459482283464567
0
LINE
8
BLACK
6
CONTINUOUS
10
0.2890711811023622
20
0.4459482283464567
11
0.2949132283464567
21
0.4580794094488189
0
LINE
8
BLACK
6
CONTINUOUS
10
0.2949132283464567
20
0.4580794094488189
11
0.302076811023622
21
0.4694801968503937
0
LINE
8
BLACK
6
CONTINUOUS
10
0.302076811023622
20
0.4694801968503937
11
0.3104718503937008
21
0.4800072440944882
0
LINE
8
BLACK
6
CONTINUOUS
10
0.3104718503937008
20
0.4800072440944882
11
0.3199927559055118
21
0.4895281496062992
0
LINE
8
BLACK
6
CONTINUOUS
10
0.3199927559055118
20
0.4895281496062992
11
0.3305198031496063
21
0.4979231889763779
0
LINE
8
BLACK
6
CONTINUOUS
10
0.3305198031496063
20
0.4979231889763779
11
0.3419205905511811
21
0.5050867716535433
0
LINE
8
BLACK
6
CONTINUOUS
10
0.3419205905511811
20
0.5050867716535433
11
0.3540517716535433
21
0.5109288188976377
0
LINE
8
BLACK
6
CONTINUOUS
10
0.3540517716535433
20
0.5109288188976377
11
0.3667607874015748
21
0.515375905511811
0
LINE
8
BLACK
6
CONTINUOUS
10
0.3667607874015748
20
0.515375905511811
11
0.3798877952755905
21
0.5183720472440945
0
LINE
8
BLACK
6
CONTINUOUS
10
0.3798877952755905
20
0.5183720472440945
11
0.3932677165354331
21
0.5198796062992126
0
LINE
8
BLACK
6
CONTINUOUS
10
0.3932677165354331
20
0.5198796062992126
11
0.4067322834645669
21
0.5198796062992126
0
LINE
8
BLACK
6
CONTINUOUS
10
0.4067322834645669
20
0.5198796062992126
11
0.4201122047244095
21
0.5183720472440945
0
LINE
8
BLACK
6
CONTINUOUS
10
0.2838685039370079
20
0.3934781889763779
11
0.2853288976377953
21
0.3805166141732284
0
LINE
8
BLACK
6
CONTINUOUS
10
0.2853288976377953
20
0.3805166141732284
11
0.2882313779527559
21
0.3678
0
LINE
8
BLACK
6
CONTINUOUS
10
0.2882313779527559
20
0.3678
11
0.2925394094488189
21
0.3554883858267717
0
LINE
8
BLACK
6
CONTINUOUS
10
0.2925394094488189
20
0.3554883858267717
11
0.2981988188976378
21
0.3437364960629921
0
LINE
8
BLACK
6
CONTINUOUS
10
0.2981988188976378
20
0.3437364960629921
11
0.3051384645669291
21
0.332692125984252
0
LINE
8
BLACK
6
CONTINUOUS
10
0.3051384645669291
20
0.332692125984252
11
0.3132710236220472
21
0.322494251968504
0
LINE
8
BLACK
6
CONTINUOUS
10
0.3132710236220472
20
0.322494251968504
11
0.322494251968504
21
0.3132710236220472
0
LINE
8
BLACK
6
CONTINUOUS
10
0.322494251968504
20
0.3132710236220472
11
0.332692125984252
21
0.3051384645669291
0
LINE
8
BLACK
6
CONTINUOUS
10
0.332692125984252
20
0.3051384645669291
11
0.3437364960629921
21
0.2981988188976378
0
LINE
8
BLACK
6
CONTINUOUS
10
0.3437364960629921
20
0.2981988188976378
11
0.3554883858267717
21
0.2925394094488189
0
LINE
8
BLACK
6
CONTINUOUS
10
0.3554883858267717
20
0.2925394094488189
11
0.3678
21
0.2882313779527559
0
LINE
8
BLACK
6
CONTINUOUS
10
0.3678
20
0.2882313779527559
11
0.3805166141732284
21
0.2853288976377953
0
LINE
8
BLACK
6
CONTINUOUS
10
0.3805166141732284
20
0.2853288976377953
11
0.3934781889763779
21
0.2838685039370079
0
LINE
8
BLACK
6
CONTINUOUS
10
0.3934781889763779
20
0.2838685039370079
11
0.4065218110236221
21
0.2838685039370079
0
LINE
8
BLACK
6
CONTINUOUS
10
0.4065218110236221
20
0.2838685039370079
11
0.4194833858267716
21
0.2853288976377953
0
LINE
8
BLACK
6
CONTINUOUS
10
0.4194833858267716
20
0.2853288976377953
11
0.4322
21
0.2882313779527559
0
LINE
8
BLACK
6
CONTINUOUS
10
0.4322
20
0.2882313779527559
11
0.4445116141732283
21
0.2925394094488189
0
LINE
8
BLACK
6
CONTINUOUS
10
0.4445116141732283
20
0.2925394094488189
11
0.4562635039370079
21
0.2981988188976378
0
LINE
8
BLACK
6
CONTINUOUS
10
0.4562635039370079
20
0.2981988188976378
11
0.467307874015748
21
0.3051384645669291
0
LINE
8
BLACK
6
CONTINUOUS
10
0.467307874015748
20
0.3051384645669291
11
0.477505748031496
21
0.3132710236220472
0
LINE
8
BLACK
6
CONTINUOUS
10
0.477505748031496
20
0.3132710236220472
11
0.4867289763779528
21
0.322494251968504
0
LINE
8
BLACK
6
CONTINUOUS
10
0.4867289763779528
20
0.322494251968504
11
0.4948615354330709
21
0.332692125984252
0
LINE
8
BLACK
6
CONTINUOUS
10
0.4948615354330709
20
0.332692125984252
11
0.5018011811023622
21
0.3437364960629921
0
LINE
8
BLACK
6
CONTINUOUS
10
0.5018011811023622
20
0.3437364960629921
11
0.5074605905511811
21
0.3554883858267717
0
LINE
8
BLACK
6
CONTINUOUS
10
0.5074605905511811
20
0.3554883858267717
11
0.511768622047244
21
0.3678
0
LINE
8
BLACK
6
CONTINUOUS
10
0.511768622047244
20
0.3678
11
0.5146711023622047
21
0.3805166141732284
0
LINE
8
BLACK
6
CONTINUOUS
10
0.5146711023622047
20
0.3805166141732284
11
0.5161314960629921
21
0.3934781889763779
0
LINE
8
BLACK
6
CONTINUOUS
10
0.5161314960629921
20
0.3934781889763779
11
0.5161314960629921
21
0.4065218110236221
0
LINE
8
BLACK
6
CONTINUOUS
10
0.5161314960629921
20
0.4065218110236221
11
0.5146711023622047
21
0.4194833858267716
0
LINE
8
BLACK
6
CONTINUOUS
10
0.5146711023622047
20
0.4194833858267716
11
0.511768622047244
21
0.4322
0
LINE
8
BLACK
6
CONTINUOUS
10
0.511768622047244
20
0.4322
11
0.5074605905511811
21
0.4445116141732283
0
LINE
8
BLACK
6
CONTINUOUS
10
0.5074605905511811
20
0.4445116141732283
11
0.5018011811023622
21
0.4562635039370079
0
LINE
8
BLACK
6
CONTINUOUS
10
0.5018011811023622
20
0.4562635039370079
11
0.4948615354330709
21
0.467307874015748
0
LINE
8
BLACK
6
CONTINUOUS
10
0.4948615354330709
20
0.467307874015748
11
0.4867289763779528
21
0.477505748031496
0
LINE
8
BLACK
6
CONTINUOUS
10
0.4867289763779528
20
0.477505748031496
11
0.477505748031496
21
0.4867289763779528
0
LINE
8
BLACK
6
CONTINUOUS
10
0.477505748031496
20
0.4867289763779528
11
0.467307874015748
21
0.4948615354330709
0
LINE
8
BLACK
6
CONTINUOUS
10
0.467307874015748
20
0.4948615354330709
11
0.4562635039370079
21
0.5018011811023622
0
LINE
8
BLACK
6
CONTINUOUS
10
0.4562635039370079
20
0.5018011811023622
11
0.4445116141732283
21
0.5074605905511811
0
LINE
8
BLACK
6
CONTINUOUS
10
0.4445116141732283
20
0.5074605905511811
11
0.4322
21
0.511768622047244
0
LINE
8
BLACK
6
CONTINUOUS
10
0.4322
20
0.511768622047244
11
0.4194833858267716
21
0.5146711023622047
0
LINE
8
BLACK
6
CONTINUOUS
10
0.4194833858267716
20
0.5146711023622047
11
0.4065218110236221
21
0.5161314960629921
0
LINE
8
BLACK
6
CONTINUOUS
10
0.4065218110236221
20
0.5161314960629921
11
0.3934781889763779
21
0.5161314960629921
0
LINE
8
BLACK
6
CONTINUOUS
10
0.3934781889763779
20
0.5161314960629921
11
0.3805166141732284
21
0.5146711023622047
0
LINE
8
BLACK
6
CONTINUOUS
10
0.3805166141732284
20
0.5146711023622047
11
0.3678
21
0.511768622047244
0
LINE
8
BLACK
6
CONTINUOUS
10
0.3678
20
0.511768622047244
11
0.3554883858267717
21
0.5074605905511811
0
LINE
8
BLACK
6
CONTINUOUS
10
0.3554883858267717
20
0.5074605905511811
11
0.3437364960629921
21
0.5018011811023622
0
LINE
8
BLACK
6
CONTINUOUS
10
0.3437364960629921
20
0.5018011811023622
11
0.332692125984252
21
0.4948615354330709
0
LINE
8
BLACK
6
CONTINUOUS
10
0.332692125984252
20
0.4948615354330709
11
0.322494251968504
21
0.4867289763779528
0
LINE
8
BLACK
6
CONTINUOUS
10
0.322494251968504
20
0.4867289763779528
11
0.3132710236220472
21
0.477505748031496
0
LINE
8
BLACK
6
CONTINUOUS
10
0.3132710236220472
20
0.477505748031496
11
0.3051384645669291
21
0.467307874015748
0
LINE
8
BLACK
6
CONTINUOUS
10
0.3051384645669291
20
0.467307874015748
11
0.2981988188976378
21
0.4562635039370079
0
LINE
8
BLACK
6
CONTINUOUS
10
0.2981988188976378
20
0.4562635039370079
11
0.2925394094488189
21
0.4445116141732283
0
LINE
8
BLACK
6
CONTINUOUS
10
0.2925394094488189
20
0.4445116141732283
11
0.2882313779527559
21
0.4322
0
LINE
8
BLACK
6
CONTINUOUS
10
0.2882313779527559
20
0.4322
11
0.2853288976377953
21
0.4194833858267716
0
LINE
8
BLACK
6
CONTINUOUS
10
0.2853288976377953
20
0.4194833858267716
11
0.2838685039370079
21
0.4065218110236221
0
LINE
8
BLACK
6
CONTINUOUS
10
0.2838685039370079
20
0.4065218110236221
11
0.2838685039370079
21
0.3934781889763779
0
LINE
8
BLACK
6
CONTINUOUS
10
2.8201122047244094
20
0.5183720472440945
11
2.8332392125984249
21
0.515375905511811
0
LINE
8
BLACK
6
CONTINUOUS
10
2.8332392125984249
20
0.515375905511811
11
2.8459482283464568
21
0.5109288188976377
0
LINE
8
BLACK
6
CONTINUOUS
10
2.8459482283464568
20
0.5109288188976377
11
2.8580794094488189
21
0.5050867716535433
0
LINE
8
BLACK
6
CONTINUOUS
10
2.8580794094488189
20
0.5050867716535433
11
2.8694801968503936
21
0.4979231889763779
0
LINE
8
BLACK
6
CONTINUOUS
10
2.8694801968503936
20
0.4979231889763779
11
2.8800072440944882
21
0.4895281496062992
0
LINE
8
BLACK
6
CONTINUOUS
10
2.8800072440944882
20
0.4895281496062992
11
2.8895281496062992
21
0.4800072440944882
0
LINE
8
BLACK
6
CONTINUOUS
10
2.8895281496062992
20
0.4800072440944882
11
2.8979231889763777
21
0.4694801968503937
0
LINE
8
BLACK
6
CONTINUOUS
10
2.8979231889763777
20
0.4694801968503937
11
2.9050867716535431
21
0.4580794094488189
0
LINE
8
BLACK
6
CONTINUOUS
10
2.9050867716535431
20
0.4580794094488189
11
2.9109288188976379
21
0.4459482283464567
0
LINE
8
BLACK
6
CONTINUOUS
10
2.9109288188976379
20
0.4459482283464567
11
2.9153759055118109
21
0.4332392125984252
0
LINE
8
BLACK
6
CONTINUOUS
10
2.9153759055118109
20
0.4332392125984252
11
2.9183720472440946
21
0.4201122047244095
0
LINE
8
BLACK
6
CONTINUOUS
10
2.9183720472440946
20
0.4201122047244095
11
2.9198796062992125
21
0.4067322834645669
0
LINE
8
BLACK
6
CONTINUOUS
10
2.9198796062992125
20
0.4067322834645669
11
2.9198796062992125
21
0.3932677165354331
0
LINE
8
BLACK
6
CONTINUOUS
10
2.9198796062992125
20
0.3932677165354331
11
2.9183720472440946
21
0.3798877952755905
0
LINE
8
BLACK
6
CONTINUOUS
10
2.9183720472440946
20
0.3798877952755905
11
2.9153759055118109
21
0.3667607874015748
0
LINE
8
BLACK
6
CONTINUOUS
10
2.9153759055118109
20
0.3667607874015748
11
2.9109288188976379
21
0.3540517716535433
0
LINE
8
BLACK
6
CONTINUOUS
10
2.9109288188976379
20
0.3540517716535433
11
2.9050867716535431
21
0.3419205905511811
0
LINE
8
BLACK
6
CONTINUOUS
10
2.9050867716535431
20
0.3419205905511811
11
2.8979231889763777
21
0.3305198031496063
0
LINE
8
BLACK
6
CONTINUOUS
10
2.8979231889763777
20
0.3305198031496063
11
2.8895281496062992
21
0.3199927559055118
0
LINE
8
BLACK
6
CONTINUOUS
10
2.8895281496062992
20
0.3199927559055118
11
2.8800072440944882
21
0.3104718503937008
0
LINE
8
BLACK
6
CONTINUOUS
10
2.8800072440944882
20
0.3104718503937008
11
2.8694801968503936
21
0.302076811023622
0
LINE
8
BLACK
6
CONTINUOUS
10
2.8694801968503936
20
0.302076811023622
11
2.8580794094488189
21
0.2949132283464567
0
LINE
8
BLACK
6
CONTINUOUS
10
2.8580794094488189
20
0.2949132283464567
11
2.8459482283464568
21
0.2890711811023622
0
LINE
8
BLACK
6
CONTINUOUS
10
2.8459482283464568
20
0.2890711811023622
11
2.8332392125984249
21
0.284624094488189
0
LINE
8
BLACK
6
CONTINUOUS
10
2.8332392125984249
20
0.284624094488189
11
2.8201122047244094
21
0.2816279527559055
0
LINE
8
BLACK
6
CONTINUOUS
10
2.8201122047244094
20
0.2816279527559055
11
2.8067322834645667
21
0.2801203937007874
0
LINE
8
BLACK
6
CONTINUOUS
10
2.8067322834645667
20
0.2801203937007874
11
2.7932677165354329
21
0.2801203937007874
0
LINE
8
BLACK
6
CONTINUOUS
10
2.7932677165354329
20
0.2801203937007874
11
2.7798877952755903
21
0.2816279527559055
0
LINE
8
BLACK
6
CONTINUOUS
10
2.7798877952755903
20
0.2816279527559055
11
2.7667607874015747
21
0.284624094488189
0
LINE
8
BLACK
6
CONTINUOUS
10
2.7667607874015747
20
0.284624094488189
11
2.7540517716535433
21
0.2890711811023622
0
LINE
8
BLACK
6
CONTINUOUS
10
2.7540517716535433
20
0.2890711811023622
11
2.7419205905511812
21
0.2949132283464567
0
LINE
8
BLACK
6
CONTINUOUS
10
2.7419205905511812
20
0.2949132283464567
11
2.7305198031496061
21
0.302076811023622
0
LINE
8
BLACK
6
CONTINUOUS
10
2.7305198031496061
20
0.302076811023622
11
2.7199927559055119
21
0.3104718503937008
0
LINE
8
BLACK
6
CONTINUOUS
10
2.7199927559055119
20
0.3104718503937008
11
2.7104718503937009
21
0.3199927559055118
0
LINE
8
BLACK
6
CONTINUOUS
10
2.7104718503937009
20
0.3199927559055118
11
2.702076811023622
21
0.3305198031496063
0
LINE
8
BLACK
6
CONTINUOUS
10
2.702076811023622
20
0.3305198031496063
11
2.6949132283464565
21
0.3419205905511811
0
LINE
8
BLACK
6
CONTINUOUS
10
2.6949132283464565
20
0.3419205905511811
11
2.6890711811023622
21
0.3540517716535433
0
LINE
8
BLACK
6
CONTINUOUS
10
2.6890711811023622
20
0.3540517716535433
11
2.6846240944881887
21
0.3667607874015748
0
LINE
8
BLACK
6
CONTINUOUS
10
2.6846240944881887
20
0.3667607874015748
11
2.6816279527559055
21
0.3798877952755905
0
LINE
8
BLACK
6
CONTINUOUS
10
2.6816279527559055
20
0.3798877952755905
11
2.6801203937007871
21
0.3932677165354331
0
LINE
8
BLACK
6
CONTINUOUS
10
2.6801203937007871
20
0.3932677165354331
11
2.6801203937007871
21
0.4065218110236221
0
LINE
8
BLACK
6
CONTINUOUS
10
2.6801203937007871
20
0.4065218110236221
11
2.6801203937007871
21
0.4067322834645669
0
LINE
8
BLACK
6
CONTINUOUS
10
2.6801203937007871
20
0.4067322834645669
11
2.6816279527559055
21
0.4201122047244095
0
LINE
8
BLACK
6
CONTINUOUS
10
2.6816279527559055
20
0.4201122047244095
11
2.6846240944881887
21
0.4332392125984252
0
LINE
8
BLACK
6
CONTINUOUS
10
2.6846240944881887
20
0.4332392125984252
11
2.6890711811023622
21
0.4459482283464567
0
LINE
8
BLACK
6
CONTINUOUS
10
2.6890711811023622
20
0.4459482283464567
11
2.6949132283464565
21
0.4580794094488189
0
LINE
8
BLACK
6
CONTINUOUS
10
2.6949132283464565
20
0.4580794094488189
11
2.702076811023622
21
0.4694801968503937
0
LINE
8
BLACK
6
CONTINUOUS
10
2.702076811023622
20
0.4694801968503937
11
2.7104718503937009
21
0.4800072440944882
0
LINE
8
BLACK
6
CONTINUOUS
10
2.7104718503937009
20
0.4800072440944882
11
2.7199927559055119
21
0.4895281496062992
0
LINE
8
BLACK
6
CONTINUOUS
10
2.7199927559055119
20
0.4895281496062992
11
2.7305198031496061
21
0.4979231889763779
0
LINE
8
BLACK
6
CONTINUOUS
10
2.7305198031496061
20
0.4979231889763779
11
2.7419205905511812
21
0.5050867716535433
0
LINE
8
BLACK
6
CONTINUOUS
10
2.7419205905511812
20
0.5050867716535433
11
2.7540517716535433
21
0.5109288188976377
0
LINE
8
BLACK
6
CONTINUOUS
10
2.7540517716535433
20
0.5109288188976377
11
2.7667607874015747
21
0.515375905511811
0
LINE
8
BLACK
6
CONTINUOUS
10
2.7667607874015747
20
0.515375905511811
11
2.7798877952755903
21
0.5183720472440945
0
LINE
8
BLACK
6
CONTINUOUS
10
2.7798877952755903
20
0.5183720472440945
11
2.7932677165354329
21
0.5198796062992126
0
LINE
8
BLACK
6
CONTINUOUS
10
2.7932677165354329
20
0.5198796062992126
11
2.8067322834645667
21
0.5198796062992126
0
LINE
8
BLACK
6
CONTINUOUS
10
2.8067322834645667
20
0.5198796062992126
11
2.8201122047244094
21
0.5183720472440945
0
LINE
8
BLACK
6
CONTINUOUS
10
2.6838685039370076
20
0.3934781889763779
11
2.6853288976377954
21
0.3805166141732284
0
LINE
8
BLACK
6
CONTINUOUS
10
2.6853288976377954
20
0.3805166141732284
11
2.6882313779527558
21
0.3678
0
LINE
8
BLACK
6
CONTINUOUS
10
2.6882313779527558
20
0.3678
11
2.6925394094488189
21
0.3554883858267717
0
LINE
8
BLACK
6
CONTINUOUS
10
2.6925394094488189
20
0.3554883858267717
11
2.6981988188976378
21
0.3437364960629921
0
LINE
8
BLACK
6
CONTINUOUS
10
2.6981988188976378
20
0.3437364960629921
11
2.7051384645669292
21
0.332692125984252
0
LINE
8
BLACK
6
CONTINUOUS
10
2.7051384645669292
20
0.332692125984252
11
2.7132710236220472
21
0.322494251968504
0
LINE
8
BLACK
6
CONTINUOUS
10
2.7132710236220472
20
0.322494251968504
11
2.722494251968504
21
0.3132710236220472
0
LINE
8
BLACK
6
CONTINUOUS
10
2.722494251968504
20
0.3132710236220472
11
2.732692125984252
21
0.3051384645669291
0
LINE
8
BLACK
6
CONTINUOUS
10
2.732692125984252
20
0.3051384645669291
11
2.7437364960629922
21
0.2981988188976378
0
LINE
8
BLACK
6
CONTINUOUS
10
2.7437364960629922
20
0.2981988188976378
11
2.7554883858267716
21
0.2925394094488189
0
LINE
8
BLACK
6
CONTINUOUS
10
2.7554883858267716
20
0.2925394094488189
11
2.7677999999999998
21
0.2882313779527559
0
LINE
8
BLACK
6
CONTINUOUS
10
2.7677999999999998
20
0.2882313779527559
11
2.7805166141732283
21
0.2853288976377953
0
LINE
8
BLACK
6
CONTINUOUS
10
2.7805166141732283
20
0.2853288976377953
11
2.793478188976378
21
0.2838685039370079
0
LINE
8
BLACK
6
CONTINUOUS
10
2.793478188976378
20
0.2838685039370079
11
2.8065218110236221
21
0.2838685039370079
0
LINE
8
BLACK
6
CONTINUOUS
10
2.8065218110236221
20
0.2838685039370079
11
2.8194833858267714
21
0.2853288976377953
0
LINE
8
BLACK
6
CONTINUOUS
10
2.8194833858267714
20
0.2853288976377953
11
2.8321999999999998
21
0.2882313779527559
0
LINE
8
BLACK
6
CONTINUOUS
10
2.8321999999999998
20
0.2882313779527559
11
2.8445116141732281
21
0.2925394094488189
0
LINE
8
BLACK
6
CONTINUOUS
10
2.8445116141732281
20
0.2925394094488189
11
2.8562635039370079
21
0.2981988188976378
0
LINE
8
BLACK
6
CONTINUOUS
10
2.8562635039370079
20
0.2981988188976378
11
2.867307874015748
21
0.3051384645669291
0
LINE
8
BLACK
6
CONTINUOUS
10
2.867307874015748
20
0.3051384645669291
11
2.8775057480314961
21
0.3132710236220472
0
LINE
8
BLACK
6
CONTINUOUS
10
2.8775057480314961
20
0.3132710236220472
11
2.8867289763779529
21
0.322494251968504
0
LINE
8
BLACK
6
CONTINUOUS
10
2.8867289763779529
20
0.322494251968504
11
2.8948615354330709
21
0.332692125984252
0
LINE
8
BLACK
6
CONTINUOUS
10
2.8948615354330709
20
0.332692125984252
11
2.9018011811023623
21
0.3437364960629921
0
LINE
8
BLACK
6
CONTINUOUS
10
2.9018011811023623
20
0.3437364960629921
11
2.9074605905511812
21
0.3554883858267717
0
LINE
8
BLACK
6
CONTINUOUS
10
2.9074605905511812
20
0.3554883858267717
11
2.9117686220472438
21
0.3678
0
LINE
8
BLACK
6
CONTINUOUS
10
2.9117686220472438
20
0.3678
11
2.9146711023622047
21
0.3805166141732284
0
LINE
8
BLACK
6
CONTINUOUS
10
2.9146711023622047
20
0.3805166141732284
11
2.916131496062992
21
0.3934781889763779
0
LINE
8
BLACK
6
CONTINUOUS
10
2.916131496062992
20
0.3934781889763779
11
2.916131496062992
21
0.4065218110236221
0
LINE
8
BLACK
6
CONTINUOUS
10
2.916131496062992
20
0.4065218110236221
11
2.9146711023622047
21
0.4194833858267716
0
LINE
8
BLACK
6
CONTINUOUS
10
2.9146711023622047
20
0.4194833858267716
11
2.9117686220472438
21
0.4322
0
LINE
8
BLACK
6
CONTINUOUS
10
2.9117686220472438
20
0.4322
11
2.9074605905511812
21
0.4445116141732283
0
LINE
8
BLACK
6
CONTINUOUS
10
2.9074605905511812
20
0.4445116141732283
11
2.9018011811023623
21
0.4562635039370079
0
LINE
8
BLACK
6
CONTINUOUS
10
2.9018011811023623
20
0.4562635039370079
11
2.8948615354330709
21
0.467307874015748
0
LINE
8
BLACK
6
CONTINUOUS
10
2.8948615354330709
20
0.467307874015748
11
2.8867289763779529
21
0.477505748031496
0
LINE
8
BLACK
6
CONTINUOUS
10
2.8867289763779529
20
0.477505748031496
11
2.8775057480314961
21
0.4867289763779528
0
LINE
8
BLACK
6
CONTINUOUS
10
2.8775057480314961
20
0.4867289763779528
11
2.867307874015748
21
0.4948615354330709
0
LINE
8
BLACK
6
CONTINUOUS
10
2.867307874015748
20
0.4948615354330709
11
2.8562635039370079
21
0.5018011811023622
0
LINE
8
BLACK
6
CONTINUOUS
10
2.8562635039370079
20
0.5018011811023622
11
2.8445116141732281
21
0.5074605905511811
0
LINE
8
BLACK
6
CONTINUOUS
10
2.8445116141732281
20
0.5074605905511811
11
2.8321999999999998
21
0.511768622047244
0
LINE
8
BLACK
6
CONTINUOUS
10
2.8321999999999998
20
0.511768622047244
11
2.8194833858267714
21
0.5146711023622047
0
LINE
8
BLACK
6
CONTINUOUS
10
2.8194833858267714
20
0.5146711023622047
11
2.8065218110236221
21
0.5161314960629921
0
LINE
8
BLACK
6
CONTINUOUS
10
2.8065218110236221
20
0.5161314960629921
11
2.793478188976378
21
0.5161314960629921
0
LINE
8
BLACK
6
CONTINUOUS
10
2.793478188976378
20
0.5161314960629921
11
2.7805166141732283
21
0.5146711023622047
0
LINE
8
BLACK
6
CONTINUOUS
10
2.7805166141732283
20
0.5146711023622047
11
2.7677999999999998
21
0.511768622047244
0
LINE
8
BLACK
6
CONTINUOUS
10
2.7677999999999998
20
0.511768622047244
11
2.7554883858267716
21
0.5074605905511811
0
LINE
8
BLACK
6
CONTINUOUS
10
2.7554883858267716
20
0.5074605905511811
11
2.7437364960629922
21
0.5018011811023622
0
LINE
8
BLACK
6
CONTINUOUS
10
2.7437364960629922
20
0.5018011811023622
11
2.732692125984252
21
0.4948615354330709
0
LINE
8
BLACK
6
CONTINUOUS
10
2.732692125984252
20
0.4948615354330709
11
2.722494251968504
21
0.4867289763779528
0
LINE
8
BLACK
6
CONTINUOUS
10
2.722494251968504
20
0.4867289763779528
11
2.7132710236220472
21
0.477505748031496
0
LINE
8
BLACK
6
CONTINUOUS
10
2.7132710236220472
20
0.477505748031496
11
2.7051384645669292
21
0.467307874015748
0
LINE
8
BLACK
6
CONTINUOUS
10
2.7051384645669292
20
0.467307874015748
11
2.6981988188976378
21
0.4562635039370079
0
LINE
8
BLACK
6
CONTINUOUS
10
2.6981988188976378
20
0.4562635039370079
11
2.6925394094488189
21
0.4445116141732283
0
LINE
8
BLACK
6
CONTINUOUS
10
2.6925394094488189
20
0.4445116141732283
11
2.6882313779527558
21
0.4322
0
LINE
8
BLACK
6
CONTINUOUS
10
2.6882313779527558
20
0.4322
11
2.6853288976377954
21
0.4194833858267716
0
LINE
8
BLACK
6
CONTINUOUS
10
2.6853288976377954
20
0.4194833858267716
11
2.6838685039370076
21
0.4065218110236221
0
LINE
8
BLACK
6
CONTINUOUS
10
2.6838685039370076
20
0.4065218110236221
11
2.6838685039370076
21
0.3934781889763779
0
LINE
8
BLACK
6
CONTINUOUS
10
0.4201122047244095
20
2.1183720472440943
11
0.4332392125984252
21
2.1153759055118111
0
LINE
8
BLACK
6
CONTINUOUS
10
0.4332392125984252
20
2.1153759055118111
11
0.4459482283464567
21
2.1109288188976376
0
LINE
8
BLACK
6
CONTINUOUS
10
0.4459482283464567
20
2.1109288188976376
11
0.4580794094488189
21
2.1050867716535433
0
LINE
8
BLACK
6
CONTINUOUS
10
0.4580794094488189
20
2.1050867716535433
11
0.4694801968503937
21
2.0979231889763779
0
LINE
8
BLACK
6
CONTINUOUS
10
0.4694801968503937
20
2.0979231889763779
11
0.4800072440944882
21
2.089528149606299
0
LINE
8
BLACK
6
CONTINUOUS
10
0.4800072440944882
20
2.089528149606299
11
0.4895281496062992
21
2.0800072440944883
0
LINE
8
BLACK
6
CONTINUOUS
10
0.4895281496062992
20
2.0800072440944883
11
0.4979231889763779
21
2.0694801968503937
0
LINE
8
BLACK
6
CONTINUOUS
10
0.4979231889763779
20
2.0694801968503937
11
0.5050867716535433
21
2.0580794094488191
0
LINE
8
BLACK
6
CONTINUOUS
10
0.5050867716535433
20
2.0580794094488191
11
0.5109288188976377
21
2.0459482283464565
0
LINE
8
BLACK
6
CONTINUOUS
10
0.5109288188976377
20
2.0459482283464565
11
0.515375905511811
21
2.0332392125984251
0
LINE
8
BLACK
6
CONTINUOUS
10
0.515375905511811
20
2.0332392125984251
11
0.5183720472440945
21
2.0201122047244096
0
LINE
8
BLACK
6
CONTINUOUS
10
0.5183720472440945
20
2.0201122047244096
11
0.5198796062992126
21
2.0067322834645669
0
LINE
8
BLACK
6
CONTINUOUS
10
0.5198796062992126
20
2.0067322834645669
11
0.5198796062992126
21
1.9932677165354331
0
LINE
8
BLACK
6
CONTINUOUS
10
0.5198796062992126
20
1.9932677165354331
11
0.5183720472440945
21
1.9798877952755904
0
LINE
8
BLACK
6
CONTINUOUS
10
0.5183720472440945
20
1.9798877952755904
11
0.515375905511811
21
1.9667607874015747
0
LINE
8
BLACK
6
CONTINUOUS
10
0.515375905511811
20
1.9667607874015747
11
0.5109288188976377
21
1.9540517716535433
0
LINE
8
BLACK
6
CONTINUOUS
10
0.5109288188976377
20
1.9540517716535433
11
0.5050867716535433
21
1.9419205905511812
0
LINE
8
BLACK
6
CONTINUOUS
10
0.5050867716535433
20
1.9419205905511812
11
0.4979231889763779
21
1.9305198031496063
0
LINE
8
BLACK
6
CONTINUOUS
10
0.4979231889763779
20
1.9305198031496063
11
0.4895281496062992
21
1.9199927559055117
0
LINE
8
BLACK
6
CONTINUOUS
10
0.4895281496062992
20
1.9199927559055117
11
0.4800072440944882
21
1.9104718503937008
0
LINE
8
BLACK
6
CONTINUOUS
10
0.4800072440944882
20
1.9104718503937008
11
0.4694801968503937
21
1.9020768110236219
0
LINE
8
BLACK
6
CONTINUOUS
10
0.4694801968503937
20
1.9020768110236219
11
0.4580794094488189
21
1.8949132283464567
0
LINE
8
BLACK
6
CONTINUOUS
10
0.4580794094488189
20
1.8949132283464567
11
0.4459482283464567
21
1.8890711811023622
0
LINE
8
BLACK
6
CONTINUOUS
10
0.4459482283464567
20
1.8890711811023622
11
0.4332392125984252
21
1.8846240944881889
0
LINE
8
BLACK
6
CONTINUOUS
10
0.4332392125984252
20
1.8846240944881889
11
0.4201122047244095
21
1.8816279527559054
0
LINE
8
BLACK
6
CONTINUOUS
10
0.4201122047244095
20
1.8816279527559054
11
0.4067322834645669
21
1.8801203937007873
0
LINE
8
BLACK
6
CONTINUOUS
10
0.4067322834645669
20
1.8801203937007873
11
0.3932677165354331
21
1.8801203937007873
0
LINE
8
BLACK
6
CONTINUOUS
10
0.3932677165354331
20
1.8801203937007873
11
0.3798877952755905
21
1.8816279527559054
0
LINE
8
BLACK
6
CONTINUOUS
10
0.3798877952755905
20
1.8816279527559054
11
0.3667607874015748
21
1.8846240944881889
0
LINE
8
BLACK
6
CONTINUOUS
10
0.3667607874015748
20
1.8846240944881889
11
0.3540517716535433
21
1.8890711811023622
0
LINE
8
BLACK
6
CONTINUOUS
10
0.3540517716535433
20
1.8890711811023622
11
0.3419205905511811
21
1.8949132283464567
0
LINE
8
BLACK
6
CONTINUOUS
10
0.3419205905511811
20
1.8949132283464567
11
0.3305198031496063
21
1.9020768110236219
0
LINE
8
BLACK
6
CONTINUOUS
10
0.3305198031496063
20
1.9020768110236219
11
0.3199927559055118
21
1.9104718503937008
0
LINE
8
BLACK
6
CONTINUOUS
10
0.3199927559055118
20
1.9104718503937008
11
0.3104718503937008
21
1.9199927559055117
0
LINE
8
BLACK
6
CONTINUOUS
10
0.3104718503937008
20
1.9199927559055117
11
0.302076811023622
21
1.9305198031496063
0
LINE
8
BLACK
6
CONTINUOUS
10
0.302076811023622
20
1.9305198031496063
11
0.2949132283464567
21
1.9419205905511812
0
LINE
8
BLACK
6
CONTINUOUS
10
0.2949132283464567
20
1.9419205905511812
11
0.2890711811023622
21
1.9540517716535433
0
LINE
8
BLACK
6
CONTINUOUS
10
0.2890711811023622
20
1.9540517716535433
11
0.284624094488189
21
1.9667607874015747
0
LINE
8
BLACK
6
CONTINUOUS
10
0.284624094488189
20
1.9667607874015747
11
0.2816279527559055
21
1.9798877952755904
0
LINE
8
BLACK
6
CONTINUOUS
10
0.2816279527559055
20
1.9798877952755904
11
0.2801203937007874
21
1.9932677165354331
0
LINE
8
BLACK
6
CONTINUOUS
10
0.2801203937007874
20
1.9932677165354331
11
0.2801203937007874
21
2.0065218110236218
0
LINE
8
BLACK
6
CONTINUOUS
10
0.2801203937007874
20
2.0065218110236218
11
0.2801203937007874
21
2.0067322834645669
0
LINE
8
BLACK
6
CONTINUOUS
10
0.2801203937007874
20
2.0067322834645669
11
0.2816279527559055
21
2.0201122047244096
0
LINE
8
BLACK
6
CONTINUOUS
10
0.2816279527559055
20
2.0201122047244096
11
0.284624094488189
21
2.0332392125984251
0
LINE
8
BLACK
6
CONTINUOUS
10
0.284624094488189
20
2.0332392125984251
11
0.2890711811023622
21
2.0459482283464565
0
LINE
8
BLACK
6
CONTINUOUS
10
0.2890711811023622
20
2.0459482283464565
11
0.2949132283464567
21
2.0580794094488191
0
LINE
8
BLACK
6
CONTINUOUS
10
0.2949132283464567
20
2.0580794094488191
11
0.302076811023622
21
2.0694801968503937
0
LINE
8
BLACK
6
CONTINUOUS
10
0.302076811023622
20
2.0694801968503937
11
0.3104718503937008
21
2.0800072440944883
0
LINE
8
BLACK
6
CONTINUOUS
10
0.3104718503937008
20
2.0800072440944883
11
0.3199927559055118
21
2.089528149606299
0
LINE
8
BLACK
6
CONTINUOUS
10
0.3199927559055118
20
2.089528149606299
11
0.3305198031496063
21
2.0979231889763779
0
LINE
8
BLACK
6
CONTINUOUS
10
0.3305198031496063
20
2.0979231889763779
11
0.3419205905511811
21
2.1050867716535433
0
LINE
8
BLACK
6
CONTINUOUS
10
0.3419205905511811
20
2.1050867716535433
11
0.3540517716535433
21
2.1109288188976376
0
LINE
8
BLACK
6
CONTINUOUS
10
0.3540517716535433
20
2.1109288188976376
11
0.3667607874015748
21
2.1153759055118111
0
LINE
8
BLACK
6
CONTINUOUS
10
0.3667607874015748
20
2.1153759055118111
11
0.3798877952755905
21
2.1183720472440943
0
LINE
8
BLACK
6
CONTINUOUS
10
0.3798877952755905
20
2.1183720472440943
11
0.3932677165354331
21
2.1198796062992127
0
LINE
8
BLACK
6
CONTINUOUS
10
0.3932677165354331
20
2.1198796062992127
11
0.4067322834645669
21
2.1198796062992127
0
LINE
8
BLACK
6
CONTINUOUS
10
0.4067322834645669
20
2.1198796062992127
11
0.4201122047244095
21
2.1183720472440943
0
LINE
8
BLACK
6
CONTINUOUS
10
0.2838685039370079
20
1.993478188976378
11
0.2853288976377953
21
1.9805166141732282
0
LINE
8
BLACK
6
CONTINUOUS
10
0.2853288976377953
20
1.9805166141732282
11
0.2882313779527559
21
1.9678
0
LINE
8
BLACK
6
CONTINUOUS
10
0.2882313779527559
20
1.9678
11
0.2925394094488189
21
1.9554883858267715
0
LINE
8
BLACK
6
CONTINUOUS
10
0.2925394094488189
20
1.9554883858267715
11
0.2981988188976378
21
1.9437364960629921
0
LINE
8
BLACK
6
CONTINUOUS
10
0.2981988188976378
20
1.9437364960629921
11
0.3051384645669291
21
1.932692125984252
0
LINE
8
BLACK
6
CONTINUOUS
10
0.3051384645669291
20
1.932692125984252
11
0.3132710236220472
21
1.922494251968504
0
LINE
8
BLACK
6
CONTINUOUS
10
0.3132710236220472
20
1.922494251968504
11
0.322494251968504
21
1.9132710236220472
0
LINE
8
BLACK
6
CONTINUOUS
10
0.322494251968504
20
1.9132710236220472
11
0.332692125984252
21
1.9051384645669291
0
LINE
8
BLACK
6
CONTINUOUS
10
0.332692125984252
20
1.9051384645669291
11
0.3437364960629921
21
1.8981988188976378
0
LINE
8
BLACK
6
CONTINUOUS
10
0.3437364960629921
20
1.8981988188976378
11
0.3554883858267717
21
1.8925394094488188
0
LINE
8
BLACK
6
CONTINUOUS
10
0.3554883858267717
20
1.8925394094488188
11
0.3678
21
1.8882313779527558
0
LINE
8
BLACK
6
CONTINUOUS
10
0.3678
20
1.8882313779527558
11
0.3805166141732284
21
1.8853288976377953
0
LINE
8
BLACK
6
CONTINUOUS
10
0.3805166141732284
20
1.8853288976377953
11
0.3934781889763779
21
1.8838685039370078
0
LINE
8
BLACK
6
CONTINUOUS
10
0.3934781889763779
20
1.8838685039370078
11
0.4065218110236221
21
1.8838685039370078
0
LINE
8
BLACK
6
CONTINUOUS
10
0.4065218110236221
20
1.8838685039370078
11
0.4194833858267716
21
1.8853288976377953
0
LINE
8
BLACK
6
CONTINUOUS
10
0.4194833858267716
20
1.8853288976377953
11
0.4322
21
1.8882313779527558
0
LINE
8
BLACK
6
CONTINUOUS
10
0.4322
20
1.8882313779527558
11
0.4445116141732283
21
1.8925394094488188
0
LINE
8
BLACK
6
CONTINUOUS
10
0.4445116141732283
20
1.8925394094488188
11
0.4562635039370079
21
1.8981988188976378
0
LINE
8
BLACK
6
CONTINUOUS
10
0.4562635039370079
20
1.8981988188976378
11
0.467307874015748
21
1.9051384645669291
0
LINE
8
BLACK
6
CONTINUOUS
10
0.467307874015748
20
1.9051384645669291
11
0.477505748031496
21
1.9132710236220472
0
LINE
8
BLACK
6
CONTINUOUS
10
0.477505748031496
20
1.9132710236220472
11
0.4867289763779528
21
1.922494251968504
0
LINE
8
BLACK
6
CONTINUOUS
10
0.4867289763779528
20
1.922494251968504
11
0.4948615354330709
21
1.932692125984252
0
LINE
8
BLACK
6
CONTINUOUS
10
0.4948615354330709
20
1.932692125984252
11
0.5018011811023622
21
1.9437364960629921
0
LINE
8
BLACK
6
CONTINUOUS
10
0.5018011811023622
20
1.9437364960629921
11
0.5074605905511811
21
1.9554883858267715
0
LINE
8
BLACK
6
CONTINUOUS
10
0.5074605905511811
20
1.9554883858267715
11
0.511768622047244
21
1.9678
0
LINE
8
BLACK
6
CONTINUOUS
10
0.511768622047244
20
1.9678
11
0.5146711023622047
21
1.9805166141732282
0
LINE
8
BLACK
6
CONTINUOUS
10
0.5146711023622047
20
1.9805166141732282
11
0.5161314960629921
21
1.993478188976378
0
LINE
8
BLACK
6
CONTINUOUS
10
0.5161314960629921
20
1.993478188976378
11
0.5161314960629921
21
2.0065218110236218
0
LINE
8
BLACK
6
CONTINUOUS
10
0.5161314960629921
20
2.0065218110236218
11
0.5146711023622047
21
2.0194833858267716
0
LINE
8
BLACK
6
CONTINUOUS
10
0.5146711023622047
20
2.0194833858267716
11
0.511768622047244
21
2.0322
0
LINE
8
BLACK
6
CONTINUOUS
10
0.511768622047244
20
2.0322
11
0.5074605905511811
21
2.0445116141732282
0
LINE
8
BLACK
6
CONTINUOUS
10
0.5074605905511811
20
2.0445116141732282
11
0.5018011811023622
21
2.0562635039370076
0
LINE
8
BLACK
6
CONTINUOUS
10
0.5018011811023622
20
2.0562635039370076
11
0.4948615354330709
21
2.0673078740157478
0
LINE
8
BLACK
6
CONTINUOUS
10
0.4948615354330709
20
2.0673078740157478
11
0.4867289763779528
21
2.0775057480314962
0
LINE
8
BLACK
6
CONTINUOUS
10
0.4867289763779528
20
2.0775057480314962
11
0.477505748031496
21
2.0867289763779526
0
LINE
8
BLACK
6
CONTINUOUS
10
0.477505748031496
20
2.0867289763779526
11
0.467307874015748
21
2.0948615354330706
0
LINE
8
BLACK
6
CONTINUOUS
10
0.467307874015748
20
2.0948615354330706
11
0.4562635039370079
21
2.101801181102362
0
LINE
8
BLACK
6
CONTINUOUS
10
0.4562635039370079
20
2.101801181102362
11
0.4445116141732283
21
2.107460590551181
0
LINE
8
BLACK
6
CONTINUOUS
10
0.4445116141732283
20
2.107460590551181
11
0.4322
21
2.111768622047244
0
LINE
8
BLACK
6
CONTINUOUS
10
0.4322
20
2.111768622047244
11
0.4194833858267716
21
2.1146711023622045
0
LINE
8
BLACK
6
CONTINUOUS
10
0.4194833858267716
20
2.1146711023622045
11
0.4065218110236221
21
2.1161314960629922
0
LINE
8
BLACK
6
CONTINUOUS
10
0.4065218110236221
20
2.1161314960629922
11
0.3934781889763779
21
2.1161314960629922
0
LINE
8
BLACK
6
CONTINUOUS
10
0.3934781889763779
20
2.1161314960629922
11
0.3805166141732284
21
2.1146711023622045
0
LINE
8
BLACK
6
CONTINUOUS
10
0.3805166141732284
20
2.1146711023622045
11
0.3678
21
2.111768622047244
0
LINE
8
BLACK
6
CONTINUOUS
10
0.3678
20
2.111768622047244
11
0.3554883858267717
21
2.107460590551181
0
LINE
8
BLACK
6
CONTINUOUS
10
0.3554883858267717
20
2.107460590551181
11
0.3437364960629921
21
2.101801181102362
0
LINE
8
BLACK
6
CONTINUOUS
10
0.3437364960629921
20
2.101801181102362
11
0.332692125984252
21
2.0948615354330706
0
LINE
8
BLACK
6
CONTINUOUS
10
0.332692125984252
20
2.0948615354330706
11
0.322494251968504
21
2.0867289763779526
0
LINE
8
BLACK
6
CONTINUOUS
10
0.322494251968504
20
2.0867289763779526
11
0.3132710236220472
21
2.0775057480314962
0
LINE
8
BLACK
6
CONTINUOUS
10
0.3132710236220472
20
2.0775057480314962
11
0.3051384645669291
21
2.0673078740157478
0
LINE
8
BLACK
6
CONTINUOUS
10
0.3051384645669291
20
2.0673078740157478
11
0.2981988188976378
21
2.0562635039370076
0
LINE
8
BLACK
6
CONTINUOUS
10
0.2981988188976378
20
2.0562635039370076
11
0.2925394094488189
21
2.0445116141732282
0
LINE
8
BLACK
6
CONTINUOUS
10
0.2925394094488189
20
2.0445116141732282
11
0.2882313779527559
21
2.0322
0
LINE
8
BLACK
6
CONTINUOUS
10
0.2882313779527559
20
2.0322
11
0.2853288976377953
21
2.0194833858267716
0
LINE
8
BLACK
6
CONTINUOUS
10
0.2853288976377953
20
2.0194833858267716
11
0.2838685039370079
21
2.0065218110236218
0
LINE
8
BLACK
6
CONTINUOUS
10
0.2838685039370079
20
2.0065218110236218
11
0.2838685039370079
21
1.993478188976378
0
LINE
8
BLACK
6
CONTINUOUS
10
2.8201122047244094
20
2.1183720472440943
11
2.8332392125984249
21
2.1153759055118111
0
LINE
8
BLACK
6
CONTINUOUS
10
2.8332392125984249
20
2.1153759055118111
11
2.8459482283464568
21
2.1109288188976376
0
LINE
8
BLACK
6
CONTINUOUS
10
2.8459482283464568
20
2.1109288188976376
11
2.8580794094488189
21
2.1050867716535433
0
LINE
8
BLACK
6
CONTINUOUS
10
2.8580794094488189
20
2.1050867716535433
11
2.8694801968503936
21
2.0979231889763779
0
LINE
8
BLACK
6
CONTINUOUS
10
2.8694801968503936
20
2.0979231889763779
11
2.8800072440944882
21
2.089528149606299
0
LINE
8
BLACK
6
CONTINUOUS
10
2.8800072440944882
20
2.089528149606299
11
2.8895281496062992
21
2.0800072440944883
0
LINE
8
BLACK
6
CONTINUOUS
10
2.8895281496062992
20
2.0800072440944883
11
2.8979231889763777
21
2.0694801968503937
0
LINE
8
BLACK
6
CONTINUOUS
10
2.8979231889763777
20
2.0694801968503937
11
2.9050867716535431
21
2.0580794094488191
0
LINE
8
BLACK
6
CONTINUOUS
10
2.9050867716535431
20
2.0580794094488191
11
2.9109288188976379
21
2.0459482283464565
0
LINE
8
BLACK
6
CONTINUOUS
10
2.9109288188976379
20
2.0459482283464565
11
2.9153759055118109
21
2.0332392125984251
0
LINE
8
BLACK
6
CONTINUOUS
10
2.9153759055118109
20
2.0332392125984251
11
2.9183720472440946
21
2.0201122047244096
0
LINE
8
BLACK
6
CONTINUOUS
10
2.9183720472440946
20
2.0201122047244096
11
2.9198796062992125
21
2.0067322834645669
0
LINE
8
BLACK
6
CONTINUOUS
10
2.9198796062992125
20
2.0067322834645669
11
2.9198796062992125
21
1.9932677165354331
0
LINE
8
BLACK
6
CONTINUOUS
10
2.9198796062992125
20
1.9932677165354331
11
2.9183720472440946
21
1.9798877952755904
0
LINE
8
BLACK
6
CONTINUOUS
10
2.9183720472440946
20
1.9798877952755904
11
2.9153759055118109
21
1.9667607874015747
0
LINE
8
BLACK
6
CONTINUOUS
10
2.9153759055118109
20
1.9667607874015747
11
2.9109288188976379
21
1.9540517716535433
0
LINE
8
BLACK
6
CONTINUOUS
10
2.9109288188976379
20
1.9540517716535433
11
2.9050867716535431
21
1.9419205905511812
0
LINE
8
BLACK
6
CONTINUOUS
10
2.9050867716535431
20
1.9419205905511812
11
2.8979231889763777
21
1.9305198031496063
0
LINE
8
BLACK
6
CONTINUOUS
10
2.8979231889763777
20
1.9305198031496063
11
2.8895281496062992
21
1.9199927559055117
0
LINE
8
BLACK
6
CONTINUOUS
10
2.8895281496062992
20
1.9199927559055117
11
2.8800072440944882
21
1.9104718503937008
0
LINE
8
BLACK
6
CONTINUOUS
10
2.8800072440944882
20
1.9104718503937008
11
2.8694801968503936
21
1.9020768110236219
0
LINE
8
BLACK
6
CONTINUOUS
10
2.8694801968503936
20
1.9020768110236219
11
2.8580794094488189
21
1.8949132283464567
0
LINE
8
BLACK
6
CONTINUOUS
10
2.8580794094488189
20
1.8949132283464567
11
2.8459482283464568
21
1.8890711811023622
0
LINE
8
BLACK
6
CONTINUOUS
10
2.8459482283464568
20
1.8890711811023622
11
2.8332392125984249
21
1.8846240944881889
0
LINE
8
BLACK
6
CONTINUOUS
10
2.8332392125984249
20
1.8846240944881889
11
2.8201122047244094
21
1.8816279527559054
0
LINE
8
BLACK
6
CONTINUOUS
10
2.8201122047244094
20
1.8816279527559054
11
2.8067322834645667
21
1.8801203937007873
0
LINE
8
BLACK
6
CONTINUOUS
10
2.8067322834645667
20
1.8801203937007873
11
2.7932677165354329
21
1.8801203937007873
0
LINE
8
BLACK
6
CONTINUOUS
10
2.7932677165354329
20
1.8801203937007873
11
2.7798877952755903
21
1.8816279527559054
0
LINE
8
BLACK
6
CONTINUOUS
10
2.7798877952755903
20
1.8816279527559054
11
2.7667607874015747
21
1.8846240944881889
0
LINE
8
BLACK
6
CONTINUOUS
10
2.7667607874015747
20
1.8846240944881889
11
2.7540517716535433
21
1.8890711811023622
0
LINE
8
BLACK
6
CONTINUOUS
10
2.7540517716535433
20
1.8890711811023622
11
2.7419205905511812
21
1.8949132283464567
0
LINE
8
BLACK
6
CONTINUOUS
10
2.7419205905511812
20
1.8949132283464567
11
2.7305198031496061
21
1.9020768110236219
0
LINE
8
BLACK
6
CONTINUOUS
10
2.7305198031496061
20
1.9020768110236219
11
2.7199927559055119
21
1.9104718503937008
0
LINE
8
BLACK
6
CONTINUOUS
10
2.7199927559055119
20
1.9104718503937008
11
2.7104718503937009
21
1.9199927559055117
0
LINE
8
BLACK
6
CONTINUOUS
10
2.7104718503937009
20
1.9199927559055117
11
2.702076811023622
21
1.9305198031496063
0
LINE
8
BLACK
6
CONTINUOUS
10
2.702076811023622
20
1.9305198031496063
11
2.6949132283464565
21
1.9419205905511812
0
LINE
8
BLACK
6
CONTINUOUS
10
2.6949132283464565
20
1.9419205905511812
11
2.6890711811023622
21
1.9540517716535433
0
LINE
8
BLACK
6
CONTINUOUS
10
2.6890711811023622
20
1.9540517716535433
11
2.6846240944881887
21
1.9667607874015747
0
LINE
8
BLACK
6
CONTINUOUS
10
2.6846240944881887
20
1.9667607874015747
11
2.6816279527559055
21
1.9798877952755904
0
LINE
8
BLACK
6
CONTINUOUS
10
2.6816279527559055
20
1.9798877952755904
11
2.6801203937007871
21
1.9932677165354331
0
LINE
8
BLACK
6
CONTINUOUS
10
2.6801203937007871
20
1.9932677165354331
11
2.6801203937007871
21
2.0065218110236218
0
LINE
8
BLACK
6
CONTINUOUS
10
2.6801203937007871
20
2.0065218110236218
11
2.6801203937007871
21
2.0067322834645669
0
LINE
8
BLACK
6
CONTINUOUS
10
2.6801203937007871
20
2.0067322834645669
11
2.6816279527559055
21
2.0201122047244096
0
LINE
8
BLACK
6
CONTINUOUS
10
2.6816279527559055
20
2.0201122047244096
11
2.6846240944881887
21
2.0332392125984251
0
LINE
8
BLACK
6
CONTINUOUS
10
2.6846240944881887
20
2.0332392125984251
11
2.6890711811023622
21
2.0459482283464565
0
LINE
8
BLACK
6
CONTINUOUS
10
2.6890711811023622
20
2.0459482283464565
11
2.6949132283464565
21
2.0580794094488191
0
LINE
8
BLACK
6
CONTINUOUS
10
2.6949132283464565
20
2.0580794094488191
11
2.702076811023622
21
2.0694801968503937
0
LINE
8
BLACK
6
CONTINUOUS
10
2.702076811023622
20
2.0694801968503937
11
2.7104718503937009
21
2.0800072440944883
0
LINE
8
BLACK
6
CONTINUOUS
10
2.7104718503937009
20
2.0800072440944883
11
2.7199927559055119
21
2.089528149606299
0
LINE
8
BLACK
6
CONTINUOUS
10
2.7199927559055119
20
2.089528149606299
11
2.7305198031496061
21
2.0979231889763779
0
LINE
8
BLACK
6
CONTINUOUS
10
2.7305198031496061
20
2.0979231889763779
11
2.7419205905511812
21
2.1050867716535433
0
LINE
8
BLACK
6
CONTINUOUS
10
2.7419205905511812
20
2.1050867716535433
11
2.7540517716535433
21
2.1109288188976376
0
LINE
8
BLACK
6
CONTINUOUS
10
2.7540517716535433
20
2.1109288188976376
11
2.7667607874015747
21
2.1153759055118111
0
LINE
8
BLACK
6
CONTINUOUS
10
2.7667607874015747
20
2.1153759055118111
11
2.7798877952755903
21
2.1183720472440943
0
LINE
8
BLACK
6
CONTINUOUS
10
2.7798877952755903
20
2.1183720472440943
11
2.7932677165354329
21
2.1198796062992127
0
LINE
8
BLACK
6
CONTINUOUS
10
2.7932677165354329
20
2.1198796062992127
11
2.8067322834645667
21
2.1198796062992127
0
LINE
8
BLACK
6
CONTINUOUS
10
2.8067322834645667
20
2.1198796062992127
11
2.8201122047244094
21
2.1183720472440943
0
LINE
8
BLACK
6
CONTINUOUS
10
2.6838685039370076
20
1.993478188976378
11
2.6853288976377954
21
1.9805166141732282
0
LINE
8
BLACK
6
CONTINUOUS
10
2.6853288976377954
20
1.9805166141732282
11
2.6882313779527558
21
1.9678
0
LINE
8
BLACK
6
CONTINUOUS
10
2.6882313779527558
20
1.9678
11
2.6925394094488189
21
1.9554883858267715
0
LINE
8
BLACK
6
CONTINUOUS
10
2.6925394094488189
20
1.9554883858267715
11
2.6981988188976378
21
1.9437364960629921
0
LINE
8
BLACK
6
CONTINUOUS
10
2.6981988188976378
20
1.9437364960629921
11
2.7051384645669292
21
1.932692125984252
0
LINE
8
BLACK
6
CONTINUOUS
10
2.7051384645669292
20
1.932692125984252
11
2.7132710236220472
21
1.922494251968504
0
LINE
8
BLACK
6
CONTINUOUS
10
2.7132710236220472
20
1.922494251968504
11
2.722494251968504
21
1.9132710236220472
0
LINE
8
BLACK
6
CONTINUOUS
10
2.722494251968504
20
1.9132710236220472
11
2.732692125984252
21
1.9051384645669291
0
LINE
8
BLACK
6
CONTINUOUS
10
2.732692125984252
20
1.9051384645669291
11
2.7437364960629922
21
1.8981988188976378
0
LINE
8
BLACK
6
CONTINUOUS
10
2.7437364960629922
20
1.8981988188976378
11
2.7554883858267716
21
1.8925394094488188
0
LINE
8
BLACK
6
CONTINUOUS
10
2.7554883858267716
20
1.8925394094488188
11
2.7677999999999998
21
1.8882313779527558
0
LINE
8
BLACK
6
CONTINUOUS
10
2.7677999999999998
20
1.8882313779527558
11
2.7805166141732283
21
1.8853288976377953
0
LINE
8
BLACK
6
CONTINUOUS
10
2.7805166141732283
20
1.8853288976377953
11
2.793478188976378
21
1.8838685039370078
0
LINE
8
BLACK
6
CONTINUOUS
10
2.793478188976378
20
1.8838685039370078
11
2.8065218110236221
21
1.8838685039370078
0
LINE
8
BLACK
6
CONTINUOUS
10
2.8065218110236221
20
1.8838685039370078
11
2.8194833858267714
21
1.8853288976377953
0
LINE
8
BLACK
6
CONTINUOUS
10
2.8194833858267714
20
1.8853288976377953
11
2.8321999999999998
21
1.8882313779527558
0
LINE
8
BLACK
6
CONTINUOUS
10
2.8321999999999998
20
1.8882313779527558
11
2.8445116141732281
21
1.8925394094488188
0
LINE
8
BLACK
6
CONTINUOUS
10
2.8445116141732281
20
1.8925394094488188
11
2.8562635039370079
21
1.8981988188976378
0
LINE
8
BLACK
6
CONTINUOUS
10
2.8562635039370079
20
1.8981988188976378
11
2.867307874015748
21
1.9051384645669291
0
LINE
8
BLACK
6
CONTINUOUS
10
2.867307874015748
20
1.9051384645669291
11
2.8775057480314961
21
1.9132710236220472
0
LINE
8
BLACK
6
CONTINUOUS
10
2.8775057480314961
20
1.9132710236220472
11
2.8867289763779529
21
1.922494251968504
0
LINE
8
BLACK
6
CONTINUOUS
10
2.8867289763779529
20
1.922494251968504
11
2.8948615354330709
21
1.932692125984252
0
LINE
8
BLACK
6
CONTINUOUS
10
2.8948615354330709
20
1.932692125984252
11
2.9018011811023623
21
1.9437364960629921
0
LINE
8
BLACK
6
CONTINUOUS
10
2.9018011811023623
20
1.9437364960629921
11
2.9074605905511812
21
1.9554883858267715
0
LINE
8
BLACK
6
CONTINUOUS
10
2.9074605905511812
20
1.9554883858267715
11
2.9117686220472438
21
1.9678
0
LINE
8
BLACK
6
CONTINUOUS
10
2.9117686220472438
20
1.9678
11
2.9146711023622047
21
1.9805166141732282
0
LINE
8
BLACK
6
CONTINUOUS
10
2.9146711023622047
20
1.9805166141732282
11
2.916131496062992
21
1.993478188976378
0
LINE
8
BLACK
6
CONTINUOUS
10
2.916131496062992
20
1.993478188976378
11
2.916131496062992
21
2.0065218110236218
0
LINE
8
BLACK
6
CONTINUOUS
10
2.916131496062992
20
2.0065218110236218
11
2.9146711023622047
21
2.0194833858267716
0
LINE
8
BLACK
6
CONTINUOUS
10
2.9146711023622047
20
2.0194833858267716
11
2.9117686220472438
21
2.0322
0
LINE
8
BLACK
6
CONTINUOUS
10
2.9117686220472438
20
2.0322
11
2.9074605905511812
21
2.0445116141732282
0
LINE
8
BLACK
6
CONTINUOUS
10
2.9074605905511812
20
2.0445116141732282
11
2.9018011811023623
21
2.0562635039370076
0
LINE
8
BLACK
6
CONTINUOUS
10
2.9018011811023623
20
2.0562635039370076
11
2.8948615354330709
21
2.0673078740157478
0
LINE
8
BLACK
6
CONTINUOUS
10
2.8948615354330709
20
2.0673078740157478
11
2.8867289763779529
21
2.0775057480314962
0
LINE
8
BLACK
6
CONTINUOUS
10
2.8867289763779529
20
2.0775057480314962
11
2.8775057480314961
21
2.0867289763779526
0
LINE
8
BLACK
6
CONTINUOUS
10
2.8775057480314961
20
2.0867289763779526
11
2.867307874015748
21
2.0948615354330706
0
LINE
8
BLACK
6
CONTINUOUS
10
2.867307874015748
20
2.0948615354330706
11
2.8562635039370079
21
2.101801181102362
0
LINE
8
BLACK
6
CONTINUOUS
10
2.8562635039370079
20
2.101801181102362
11
2.8445116141732281
21
2.107460590551181
0
LINE
8
BLACK
6
CONTINUOUS
10
2.8445116141732281
20
2.107460590551181
11
2.8321999999999998
21
2.111768622047244
0
LINE
8
BLACK
6
CONTINUOUS
10
2.8321999999999998
20
2.111768622047244
11
2.8194833858267714
21
2.1146711023622045
0
LINE
8
BLACK
6
CONTINUOUS
10
2.8194833858267714
20
2.1146711023622045
11
2.8065218110236221
21
2.1161314960629922
0
LINE
8
BLACK
6
CONTINUOUS
10
2.8065218110236221
20
2.1161314960629922
11
2.793478188976378
21
2.1161314960629922
0
LINE
8
BLACK
6
CONTINUOUS
10
2.793478188976378
20
2.1161314960629922
11
2.7805166141732283
21
2.1146711023622045
0
LINE
8
BLACK
6
CONTINUOUS
10
2.7805166141732283
20
2.1146711023622045
11
2.7677999999999998
21
2.111768622047244
0
LINE
8
BLACK
6
CONTINUOUS
10
2.7677999999999998
20
2.111768622047244
11
2.7554883858267716
21
2.107460590551181
0
LINE
8
BLACK
6
CONTINUOUS
10
2.7554883858267716
20
2.107460590551181
11
2.7437364960629922
21
2.101801181102362
0
LINE
8
BLACK
6
CONTINUOUS
10
2.7437364960629922
20
2.101801181102362
11
2.732692125984252
21
2.0948615354330706
0
LINE
8
BLACK
6
CONTINUOUS
10
2.732692125984252
20
2.0948615354330706
11
2.722494251968504
21
2.0867289763779526
0
LINE
8
BLACK
6
CONTINUOUS
10
2.722494251968504
20
2.0867289763779526
11
2.7132710236220472
21
2.0775057480314962
0
LINE
8
BLACK
6
CONTINUOUS
10
2.7132710236220472
20
2.0775057480314962
11
2.7051384645669292
21
2.0673078740157478
0
LINE
8
BLACK
6
CONTINUOUS
10
2.7051384645669292
20
2.0673078740157478
11
2.6981988188976378
21
2.0562635039370076
0
LINE
8
BLACK
6
CONTINUOUS
10
2.6981988188976378
20
2.0562635039370076
11
2.6925394094488189
21
2.0445116141732282
0
LINE
8
BLACK
6
CONTINUOUS
10
2.6925394094488189
20
2.0445116141732282
11
2.6882313779527558
21
2.0322
0
LINE
8
BLACK
6
CONTINUOUS
10
2.6882313779527558
20
2.0322
11
2.6853288976377954
21
2.0194833858267716
0
LINE
8
BLACK
6
CONTINUOUS
10
2.6853288976377954
20
2.0194833858267716
11
2.6838685039370076
21
2.0065218110236218
0
LINE
8
BLACK
6
CONTINUOUS
10
2.6838685039370076
20
2.0065218110236218
11
2.6838685039370076
21
1.993478188976378
0
CIRCLE
8
BLACK
10
2.7999999999999998
20
2.
40
0.0068897637795276
0
CIRCLE
8
BLACK
10
0.4
20
0.4
40
0.0068897637795276
0
CIRCLE
8
BLACK
10
2.7999999999999998
20
0.4
40
0.0068897637795276
0
CIRCLE
8
BLACK
10
0.4
20
2.
40
0.0068897637795276
0
CIRCLE
8
BLACK
10
0.9
20
2.
40
0.0068897637795276
0
CIRCLE
8
BLACK
10
0.9
20
2.1000000000000001
40
0.0068897637795276
0
CIRCLE
8
BLACK
10
1.
20
2.
40
0.0068897637795276
0
CIRCLE
8
BLACK
10
1.
20
2.1000000000000001
40
0.0068897637795276
0
CIRCLE
8
BLACK
10
1.0999999999999999
20
2.
40
0.0068897637795276
0
CIRCLE
8
BLACK
10
1.0999999999999999
20
2.1000000000000001
40
0.0068897637795276
0
CIRCLE
8
BLACK
10
1.2
20
2.
40
0.0068897637795276
0
CIRCLE
8
BLACK
10
1.2
20
2.1000000000000001
40
0.0068897637795276
0
CIRCLE
8
BLACK
10
1.3
20
2.
40
0.0068897637795276
0
CIRCLE
8
BLACK
10
1.3
20
2.1000000000000001
40
0.0068897637795276
0
CIRCLE
8
BLACK
10
1.3999999999999999
20
2.
40
0.0068897637795276
0
CIRCLE
8
BLACK
10
1.3999999999999999
20
2.1000000000000001
40
0.0068897637795276
0
CIRCLE
8
BLACK
10
1.5
20
2.
40
0.0068897637795276
0
CIRCLE
8
BLACK
10
1.5
20
2.1000000000000001
40
0.0068897637795276
0
CIRCLE
8
BLACK
10
1.5999999999999999
20
2.
40
0.0068897637795276
0
CIRCLE
8
BLACK
10
1.5999999999999999
20
2.1000000000000001
40
0.0068897637795276
0
CIRCLE
8
BLACK
10
1.7
20
2.
40
0.0068897637795276
0
CIRCLE
8
BLACK
10
1.7
20
2.1000000000000001
40
0.0068897637795276
0
CIRCLE
8
BLACK
10
1.8
20
2.
40
0.0068897637795276
0
CIRCLE
8
BLACK
10
1.8
20
2.1000000000000001
40
0.0068897637795276
0
CIRCLE
8
BLACK
10
1.8999999999999999
20
2.
40
0.0068897637795276
0
CIRCLE
8
BLACK
10
1.8999999999999999
20
2.1000000000000001
40
0.0068897637795276
0
CIRCLE
8
BLACK
10
2.
20
2.
40
0.0068897637795276
0
CIRCLE
8
BLACK
10
2.
20
2.1000000000000001
40
0.0068897637795276
0
CIRCLE
8
BLACK
10
2.1000000000000001
20
2.
40
0.0068897637795276
0
CIRCLE
8
BLACK
10
2.1000000000000001
20
2.1000000000000001
40
0.0068897637795276
0
CIRCLE
8
BLACK
10
2.1999999999999997
20
2.
40
0.0068897637795276
0
CIRCLE
8
BLACK
10
2.1999999999999997
20
2.1000000000000001
40
0.0068897637795276
0
CIRCLE
8
BLACK
10
2.2999999999999998
20
2.
40
0.0068897637795276
0
CIRCLE
8
BLACK
10
2.2999999999999998
20
2.1000000000000001
40
0.0068897637795276
0
CIRCLE
8
BLACK
10
2.7999999999999998
20
2.
40
0.0068897637795276
0
CIRCLE
8
BLACK
10
0.4
20
0.4
40
0.0068897637795276
0
CIRCLE
8
BLACK
10
2.7999999999999998
20
0.4
40
0.0068897637795276
0
CIRCLE
8
BLACK
10
0.4
20
2.
40
0.0068897637795276
0
CIRCLE
8
BLACK
10
0.9
20
2.
40
0.0068897637795276
0
CIRCLE
8
BLACK
10
0.9
20
2.1000000000000001
40
0.0068897637795276
0
CIRCLE
8
BLACK
10
1.
20
2.
40
0.0068897637795276
0
CIRCLE
8
BLACK
10
1.
20
2.1000000000000001
40
0.0068897637795276
0
CIRCLE
8
BLACK
10
1.0999999999999999
20
2.
40
0.0068897637795276
0
CIRCLE
8
BLACK
10
1.0999999999999999
20
2.1000000000000001
40
0.0068897637795276
0
CIRCLE
8
BLACK
10
1.2
20
2.
40
0.0068897637795276
0
CIRCLE
8
BLACK
10
1.2
20
2.1000000000000001
40
0.0068897637795276
0
CIRCLE
8
BLACK
10
1.3
20
2.
40
0.0068897637795276
0
CIRCLE
8
BLACK
10
1.3
20
2.1000000000000001
40
0.0068897637795276
0
CIRCLE
8
BLACK
10
1.3999999999999999
20
2.
40
0.0068897637795276
0
CIRCLE
8
BLACK
10
1.3999999999999999
20
2.1000000000000001
40
0.0068897637795276
0
CIRCLE
8
BLACK
10
1.5
20
2.
40
0.0068897637795276
0
CIRCLE
8
BLACK
10
1.5
20
2.1000000000000001
40
0.0068897637795276
0
CIRCLE
8
BLACK
10
1.5999999999999999
20
2.
40
0.0068897637795276
0
CIRCLE
8
BLACK
10
1.5999999999999999
20
2.1000000000000001
40
0.0068897637795276
0
CIRCLE
8
BLACK
10
1.7
20
2.
40
0.0068897637795276
0
CIRCLE
8
BLACK
10
1.7
20
2.1000000000000001
40
0.0068897637795276
0
CIRCLE
8
BLACK
10
1.8
20
2.
40
0.0068897637795276
0
CIRCLE
8
BLACK
10
1.8
20
2.1000000000000001
40
0.0068897637795276
0
CIRCLE
8
BLACK
10
1.8999999999999999
20
2.
40
0.0068897637795276
0
CIRCLE
8
BLACK
10
1.8999999999999999
20
2.1000000000000001
40
0.0068897637795276
0
CIRCLE
8
BLACK
10
2.
20
2.
40
0.0068897637795276
0
CIRCLE
8
BLACK
10
2.
20
2.1000000000000001
40
0.0068897637795276
0
CIRCLE
8
BLACK
10
2.1000000000000001
20
2.
40
0.0068897637795276
0
CIRCLE
8
BLACK
10
2.1000000000000001
20
2.1000000000000001
40
0.0068897637795276
0
CIRCLE
8
BLACK
10
2.1999999999999997
20
2.
40
0.0068897637795276
0
CIRCLE
8
BLACK
10
2.1999999999999997
20
2.1000000000000001
40
0.0068897637795276
0
CIRCLE
8
BLACK
10
2.2999999999999998
20
2.
40
0.0068897637795276
0
CIRCLE
8
BLACK
10
2.2999999999999998
20
2.1000000000000001
40
0.0068897637795276
  0
ENDSEC
  0
EOF
