  0
SECTION
  2
HEADER
  9
$ANGBASE
  50
0.0
  9
$ANGDIR
  70
1
  9
$MEASUREMENT
  70
0
  0
ENDSEC
  0
SECTION
  2
TABLES
  0
TABLE
  2
LTYPE
  70
4
  0
LTYPE
  5
40F
  2
CONTINUOUS
  70
0
  3
Solid line
  72
65
  73
0
  40
0.0
  0
LTYPE
  5
410
  2
DASHDOT
 70
0
  3
Dash Dot ____ _ ____ _
 72
65
 73
4
 40
2.0
 49
1.25
 49
-0.25
 49
0.25
 49
-0.25
  0
LTYPE
  5
411
  2
DASHED
 70
0
  3
Dashed __ __ __ __ __
 72
65
 73
2
 40
0.75
 49
0.5
 49
-0.25
  0
LTYPE
  5
43B
  2
DOTTED
 70
0
  3
Dotted .  .  .  .
 72
65
 73
2
 40
0.2
 49
0.0
 49
-0.2
  0
ENDTAB
  0
TABLE
  2
STYLE
  70
4
  0
STYLE
  2
KICAD
  70
0
  40
0
  41
1
  42
1
  50
0
  71
0
  3
isocp.shx
  0
STYLE
  2
KICADB
  70
0
  40
0
  41
1
  42
1
  50
0
  71
0
  3
isocp.shx
  0
STYLE
  2
KICADI
  70
0
  40
0
  41
1
  42
1
  50
15
  71
0
  3
isocp.shx
  0
STYLE
  2
KICADBI
  70
0
  40
0
  41
1
  42
1
  50
15
  71
0
  3
isocp.shx
  0
ENDTAB
  0
TABLE
  2
LAYER
  70
1
  0
LAYER
  2
BLACK
  70
0
  62
7
  6
CONTINUOUS
  0
ENDTAB
  0
ENDSEC
  0
SECTION
  2
ENTITIES
0
LINE
8
BLACK
6
CONTINUOUS
10
5.1670593700787402
20
-6.3813240157480315
11
5.1675920472440939
21
-6.3818566929133853
0
LINE
8
BLACK
6
CONTINUOUS
10
5.1675920472440939
20
-6.3818566929133853
11
5.1676669685039371
21
-6.3822333464566929
0
LINE
8
BLACK
6
CONTINUOUS
10
5.1676669685039371
20
-6.3822333464566929
11
5.1676669685039371
21
-6.4397136614173229
0
LINE
8
BLACK
6
CONTINUOUS
10
5.1676669685039371
20
-6.4397136614173229
11
5.1675920472440939
21
-6.4400903149606297
0
LINE
8
BLACK
6
CONTINUOUS
10
5.1675920472440939
20
-6.4400903149606297
11
5.1670593700787402
21
-6.4406229921259843
0
LINE
8
BLACK
6
CONTINUOUS
10
5.1670593700787402
20
-6.4406229921259843
11
5.1666827165354325
21
-6.4406979133858266
0
LINE
8
BLACK
6
CONTINUOUS
10
5.1666827165354325
20
-6.4406979133858266
11
5.0501472834645664
21
-6.4406979133858266
0
LINE
8
BLACK
6
CONTINUOUS
10
5.0501472834645664
20
-6.4406979133858266
11
5.0497706299212597
21
-6.4406229921259843
0
LINE
8
BLACK
6
CONTINUOUS
10
5.0497706299212597
20
-6.4406229921259843
11
5.049237952755905
21
-6.4400903149606297
0
LINE
8
BLACK
6
CONTINUOUS
10
5.049237952755905
20
-6.4400903149606297
11
5.0491630314960627
21
-6.4397136614173229
0
LINE
8
BLACK
6
CONTINUOUS
10
5.0491630314960627
20
-6.4397136614173229
11
5.0491630314960627
21
-6.3822333464566929
0
LINE
8
BLACK
6
CONTINUOUS
10
5.0491630314960627
20
-6.3822333464566929
11
5.049237952755905
21
-6.3818566929133853
0
LINE
8
BLACK
6
CONTINUOUS
10
5.049237952755905
20
-6.3818566929133853
11
5.0497706299212597
21
-6.3813240157480315
0
LINE
8
BLACK
6
CONTINUOUS
10
5.0497706299212597
20
-6.3813240157480315
11
5.0501472834645664
21
-6.3812490944881892
0
LINE
8
BLACK
6
CONTINUOUS
10
5.0501472834645664
20
-6.3812490944881892
11
5.1666827165354325
21
-6.3812490944881892
0
LINE
8
BLACK
6
CONTINUOUS
10
5.1666827165354325
20
-6.3812490944881892
11
5.1670593700787402
21
-6.3813240157480315
0
LINE
8
BLACK
6
CONTINUOUS
10
5.051131535433071
20
-6.3832175984251966
11
5.051131535433071
21
-6.4387294094488183
0
LINE
8
BLACK
6
CONTINUOUS
10
5.051131535433071
20
-6.4387294094488183
11
5.1656984645669288
21
-6.4387294094488183
0
LINE
8
BLACK
6
CONTINUOUS
10
5.1656984645669288
20
-6.4387294094488183
11
5.1656984645669288
21
-6.3832175984251966
0
LINE
8
BLACK
6
CONTINUOUS
10
5.1656984645669288
20
-6.3832175984251966
11
5.051131535433071
21
-6.3832175984251966
0
LINE
8
BLACK
6
CONTINUOUS
10
5.38950031496063
20
-6.3328988188976378
11
5.3900329921259837
21
-6.3334314960629916
0
LINE
8
BLACK
6
CONTINUOUS
10
5.3900329921259837
20
-6.3334314960629916
11
5.390107913385827
21
-6.3338081496062992
0
LINE
8
BLACK
6
CONTINUOUS
10
5.390107913385827
20
-6.3338081496062992
11
5.390107913385827
21
-6.4227845275590552
0
LINE
8
BLACK
6
CONTINUOUS
10
5.390107913385827
20
-6.4227845275590552
11
5.3900329921259837
21
-6.4231611811023619
0
LINE
8
BLACK
6
CONTINUOUS
10
5.3900329921259837
20
-6.4231611811023619
11
5.38950031496063
21
-6.4236938582677165
0
LINE
8
BLACK
6
CONTINUOUS
10
5.38950031496063
20
-6.4236938582677165
11
5.3891236614173224
21
-6.4237687795275589
0
LINE
8
BLACK
6
CONTINUOUS
10
5.3891236614173224
20
-6.4237687795275589
11
5.2095961023622044
21
-6.4237687795275589
0
LINE
8
BLACK
6
CONTINUOUS
10
5.2095961023622044
20
-6.4237687795275589
11
5.2092194488188976
21
-6.4236938582677165
0
LINE
8
BLACK
6
CONTINUOUS
10
5.2092194488188976
20
-6.4236938582677165
11
5.208686771653543
21
-6.4231611811023619
0
LINE
8
BLACK
6
CONTINUOUS
10
5.208686771653543
20
-6.4231611811023619
11
5.2086118503937007
21
-6.4227845275590552
0
LINE
8
BLACK
6
CONTINUOUS
10
5.2086118503937007
20
-6.4227845275590552
11
5.2086118503937007
21
-6.3338081496062992
0
LINE
8
BLACK
6
CONTINUOUS
10
5.2086118503937007
20
-6.3338081496062992
11
5.208686771653543
21
-6.3334314960629916
0
LINE
8
BLACK
6
CONTINUOUS
10
5.208686771653543
20
-6.3334314960629916
11
5.2092194488188976
21
-6.3328988188976378
0
LINE
8
BLACK
6
CONTINUOUS
10
5.2092194488188976
20
-6.3328988188976378
11
5.2095961023622044
21
-6.3328238976377955
0
LINE
8
BLACK
6
CONTINUOUS
10
5.2095961023622044
20
-6.3328238976377955
11
5.3891236614173224
21
-6.3328238976377955
0
LINE
8
BLACK
6
CONTINUOUS
10
5.3891236614173224
20
-6.3328238976377955
11
5.38950031496063
21
-6.3328988188976378
0
LINE
8
BLACK
6
CONTINUOUS
10
5.210580354330709
20
-6.3347924015748029
11
5.210580354330709
21
-6.4218002755905514
0
LINE
8
BLACK
6
CONTINUOUS
10
5.210580354330709
20
-6.4218002755905514
11
5.3881394094488186
21
-6.4218002755905514
0
LINE
8
BLACK
6
CONTINUOUS
10
5.3881394094488186
20
-6.4218002755905514
11
5.3881394094488186
21
-6.3347924015748029
0
LINE
8
BLACK
6
CONTINUOUS
10
5.3881394094488186
20
-6.3347924015748029
11
5.210580354330709
21
-6.3347924015748029
0
LINE
8
BLACK
6
CONTINUOUS
10
5.557610551181102
20
-6.3078988188976375
11
5.5581432283464567
21
-6.3084314960629921
0
LINE
8
BLACK
6
CONTINUOUS
10
5.5581432283464567
20
-6.3084314960629921
11
5.558218149606299
21
-6.3088081496062989
0
LINE
8
BLACK
6
CONTINUOUS
10
5.558218149606299
20
-6.3088081496062989
11
5.558218149606299
21
-6.4111703543307081
0
LINE
8
BLACK
6
CONTINUOUS
10
5.558218149606299
20
-6.4111703543307081
11
5.5581432283464567
21
-6.4115470078740158
0
LINE
8
BLACK
6
CONTINUOUS
10
5.5581432283464567
20
-6.4115470078740158
11
5.557610551181102
21
-6.4120796850393695
0
LINE
8
BLACK
6
CONTINUOUS
10
5.557610551181102
20
-6.4120796850393695
11
5.5572338976377953
21
-6.4121546062992127
0
LINE
8
BLACK
6
CONTINUOUS
10
5.5572338976377953
20
-6.4121546062992127
11
5.453296889763779
21
-6.4121546062992127
0
LINE
8
BLACK
6
CONTINUOUS
10
5.453296889763779
20
-6.4121546062992127
11
5.4529202362204723
21
-6.4120796850393695
0
LINE
8
BLACK
6
CONTINUOUS
10
5.4529202362204723
20
-6.4120796850393695
11
5.4523875590551176
21
-6.4115470078740158
0
LINE
8
BLACK
6
CONTINUOUS
10
5.4523875590551176
20
-6.4115470078740158
11
5.4523126377952753
21
-6.4111703543307081
0
LINE
8
BLACK
6
CONTINUOUS
10
5.4523126377952753
20
-6.4111703543307081
11
5.4523126377952753
21
-6.3088081496062989
0
LINE
8
BLACK
6
CONTINUOUS
10
5.4523126377952753
20
-6.3088081496062989
11
5.4523875590551176
21
-6.3084314960629921
0
LINE
8
BLACK
6
CONTINUOUS
10
5.4523875590551176
20
-6.3084314960629921
11
5.4529202362204723
21
-6.3078988188976375
0
LINE
8
BLACK
6
CONTINUOUS
10
5.4529202362204723
20
-6.3078988188976375
11
5.453296889763779
21
-6.3078238976377952
0
LINE
8
BLACK
6
CONTINUOUS
10
5.453296889763779
20
-6.3078238976377952
11
5.5572338976377953
21
-6.3078238976377952
0
LINE
8
BLACK
6
CONTINUOUS
10
5.5572338976377953
20
-6.3078238976377952
11
5.557610551181102
21
-6.3078988188976375
0
LINE
8
BLACK
6
CONTINUOUS
10
5.4542811417322836
20
-6.3097924015748026
11
5.4542811417322836
21
-6.4101861023622044
0
LINE
8
BLACK
6
CONTINUOUS
10
5.4542811417322836
20
-6.4101861023622044
11
5.5562496456692916
21
-6.4101861023622044
0
LINE
8
BLACK
6
CONTINUOUS
10
5.5562496456692916
20
-6.4101861023622044
11
5.5562496456692916
21
-6.3097924015748026
0
LINE
8
BLACK
6
CONTINUOUS
10
5.5562496456692916
20
-6.3097924015748026
11
5.4542811417322836
21
-6.3097924015748026
0
LINE
8
BLACK
6
CONTINUOUS
10
5.7028861417322831
20
-6.3078988188976375
11
5.7034188188976378
21
-6.3084314960629921
0
LINE
8
BLACK
6
CONTINUOUS
10
5.7034188188976378
20
-6.3084314960629921
11
5.7034937401574801
21
-6.3088081496062989
0
LINE
8
BLACK
6
CONTINUOUS
10
5.7034937401574801
20
-6.3088081496062989
11
5.7034937401574801
21
-6.4111703543307081
0
LINE
8
BLACK
6
CONTINUOUS
10
5.7034937401574801
20
-6.4111703543307081
11
5.7034188188976378
21
-6.4115470078740158
0
LINE
8
BLACK
6
CONTINUOUS
10
5.7034188188976378
20
-6.4115470078740158
11
5.7028861417322831
21
-6.4120796850393695
0
LINE
8
BLACK
6
CONTINUOUS
10
5.7028861417322831
20
-6.4120796850393695
11
5.7025094881889764
21
-6.4121546062992127
0
LINE
8
BLACK
6
CONTINUOUS
10
5.7025094881889764
20
-6.4121546062992127
11
5.5985724803149601
21
-6.4121546062992127
0
LINE
8
BLACK
6
CONTINUOUS
10
5.5985724803149601
20
-6.4121546062992127
11
5.5981958267716534
21
-6.4120796850393695
0
LINE
8
BLACK
6
CONTINUOUS
10
5.5981958267716534
20
-6.4120796850393695
11
5.5976631496062987
21
-6.4115470078740158
0
LINE
8
BLACK
6
CONTINUOUS
10
5.5976631496062987
20
-6.4115470078740158
11
5.5975882283464564
21
-6.4111703543307081
0
LINE
8
BLACK
6
CONTINUOUS
10
5.5975882283464564
20
-6.4111703543307081
11
5.5975882283464564
21
-6.3088081496062989
0
LINE
8
BLACK
6
CONTINUOUS
10
5.5975882283464564
20
-6.3088081496062989
11
5.5976631496062987
21
-6.3084314960629921
0
LINE
8
BLACK
6
CONTINUOUS
10
5.5976631496062987
20
-6.3084314960629921
11
5.5981958267716534
21
-6.3078988188976375
0
LINE
8
BLACK
6
CONTINUOUS
10
5.5981958267716534
20
-6.3078988188976375
11
5.5985724803149601
21
-6.3078238976377952
0
LINE
8
BLACK
6
CONTINUOUS
10
5.5985724803149601
20
-6.3078238976377952
11
5.7025094881889764
21
-6.3078238976377952
0
LINE
8
BLACK
6
CONTINUOUS
10
5.7025094881889764
20
-6.3078238976377952
11
5.7028861417322831
21
-6.3078988188976375
0
LINE
8
BLACK
6
CONTINUOUS
10
5.5995567322834647
20
-6.3097924015748026
11
5.5995567322834647
21
-6.4101861023622044
0
LINE
8
BLACK
6
CONTINUOUS
10
5.5995567322834647
20
-6.4101861023622044
11
5.7015252362204727
21
-6.4101861023622044
0
LINE
8
BLACK
6
CONTINUOUS
10
5.7015252362204727
20
-6.4101861023622044
11
5.7015252362204727
21
-6.3097924015748026
0
LINE
8
BLACK
6
CONTINUOUS
10
5.7015252362204727
20
-6.3097924015748026
11
5.5995567322834647
21
-6.3097924015748026
0
LINE
8
BLACK
6
CONTINUOUS
10
5.1670593700787402
20
-6.2825051181102358
11
5.1675920472440939
21
-6.2830377952755905
0
LINE
8
BLACK
6
CONTINUOUS
10
5.1675920472440939
20
-6.2830377952755905
11
5.1676669685039371
21
-6.2834144488188972
0
LINE
8
BLACK
6
CONTINUOUS
10
5.1676669685039371
20
-6.2834144488188972
11
5.1676669685039371
21
-6.3408947637795272
0
LINE
8
BLACK
6
CONTINUOUS
10
5.1676669685039371
20
-6.3408947637795272
11
5.1675920472440939
21
-6.3412714173228348
0
LINE
8
BLACK
6
CONTINUOUS
10
5.1675920472440939
20
-6.3412714173228348
11
5.1670593700787402
21
-6.3418040944881886
0
LINE
8
BLACK
6
CONTINUOUS
10
5.1670593700787402
20
-6.3418040944881886
11
5.1666827165354325
21
-6.3418790157480309
0
LINE
8
BLACK
6
CONTINUOUS
10
5.1666827165354325
20
-6.3418790157480309
11
5.0501472834645664
21
-6.3418790157480309
0
LINE
8
BLACK
6
CONTINUOUS
10
5.0501472834645664
20
-6.3418790157480309
11
5.0497706299212597
21
-6.3418040944881886
0
LINE
8
BLACK
6
CONTINUOUS
10
5.0497706299212597
20
-6.3418040944881886
11
5.049237952755905
21
-6.3412714173228348
0
LINE
8
BLACK
6
CONTINUOUS
10
5.049237952755905
20
-6.3412714173228348
11
5.0491630314960627
21
-6.3408947637795272
0
LINE
8
BLACK
6
CONTINUOUS
10
5.0491630314960627
20
-6.3408947637795272
11
5.0491630314960627
21
-6.2834144488188972
0
LINE
8
BLACK
6
CONTINUOUS
10
5.0491630314960627
20
-6.2834144488188972
11
5.049237952755905
21
-6.2830377952755905
0
LINE
8
BLACK
6
CONTINUOUS
10
5.049237952755905
20
-6.2830377952755905
11
5.0497706299212597
21
-6.2825051181102358
0
LINE
8
BLACK
6
CONTINUOUS
10
5.0497706299212597
20
-6.2825051181102358
11
5.0501472834645664
21
-6.2824301968503935
0
LINE
8
BLACK
6
CONTINUOUS
10
5.0501472834645664
20
-6.2824301968503935
11
5.1666827165354325
21
-6.2824301968503935
0
LINE
8
BLACK
6
CONTINUOUS
10
5.1666827165354325
20
-6.2824301968503935
11
5.1670593700787402
21
-6.2825051181102358
0
LINE
8
BLACK
6
CONTINUOUS
10
5.051131535433071
20
-6.2843987007874018
11
5.051131535433071
21
-6.3399105118110235
0
LINE
8
BLACK
6
CONTINUOUS
10
5.051131535433071
20
-6.3399105118110235
11
5.1656984645669288
21
-6.3399105118110235
0
LINE
8
BLACK
6
CONTINUOUS
10
5.1656984645669288
20
-6.3399105118110235
11
5.1656984645669288
21
-6.2843987007874018
0
LINE
8
BLACK
6
CONTINUOUS
10
5.1656984645669288
20
-6.2843987007874018
11
5.051131535433071
21
-6.2843987007874018
0
LINE
8
BLACK
6
CONTINUOUS
10
4.8339885039370074
20
-6.212426377952756
11
4.8345211811023621
21
-6.2129590551181098
0
LINE
8
BLACK
6
CONTINUOUS
10
4.8345211811023621
20
-6.2129590551181098
11
4.8345961023622044
21
-6.2133357086614174
0
LINE
8
BLACK
6
CONTINUOUS
10
4.8345961023622044
20
-6.2133357086614174
11
4.8345961023622044
21
-6.2881388582677165
0
LINE
8
BLACK
6
CONTINUOUS
10
4.8345961023622044
20
-6.2881388582677165
11
4.8345211811023621
21
-6.2885155118110232
0
LINE
8
BLACK
6
CONTINUOUS
10
4.8345211811023621
20
-6.2885155118110232
11
4.8339885039370074
21
-6.2890481889763779
0
LINE
8
BLACK
6
CONTINUOUS
10
4.8339885039370074
20
-6.2890481889763779
11
4.8336118503937007
21
-6.2891231102362202
0
LINE
8
BLACK
6
CONTINUOUS
10
4.8336118503937007
20
-6.2891231102362202
11
4.7013283858267716
21
-6.2891231102362202
0
LINE
8
BLACK
6
CONTINUOUS
10
4.7013283858267716
20
-6.2891231102362202
11
4.7009517322834649
21
-6.2890481889763779
0
LINE
8
BLACK
6
CONTINUOUS
10
4.7009517322834649
20
-6.2890481889763779
11
4.7004190551181102
21
-6.2885155118110232
0
LINE
8
BLACK
6
CONTINUOUS
10
4.7004190551181102
20
-6.2885155118110232
11
4.7003441338582679
21
-6.2881388582677165
0
LINE
8
BLACK
6
CONTINUOUS
10
4.7003441338582679
20
-6.2881388582677165
11
4.7003441338582679
21
-6.2133357086614174
0
LINE
8
BLACK
6
CONTINUOUS
10
4.7003441338582679
20
-6.2133357086614174
11
4.7004190551181102
21
-6.2129590551181098
0
LINE
8
BLACK
6
CONTINUOUS
10
4.7004190551181102
20
-6.2129590551181098
11
4.7009517322834649
21
-6.212426377952756
0
LINE
8
BLACK
6
CONTINUOUS
10
4.7009517322834649
20
-6.212426377952756
11
4.7013283858267716
21
-6.2123514566929137
0
LINE
8
BLACK
6
CONTINUOUS
10
4.7013283858267716
20
-6.2123514566929137
11
4.8336118503937007
21
-6.2123514566929137
0
LINE
8
BLACK
6
CONTINUOUS
10
4.8336118503937007
20
-6.2123514566929137
11
4.8339885039370074
21
-6.212426377952756
0
LINE
8
BLACK
6
CONTINUOUS
10
4.7023126377952753
20
-6.2143199606299211
11
4.7023126377952753
21
-6.2871546062992127
0
LINE
8
BLACK
6
CONTINUOUS
10
4.7023126377952753
20
-6.2871546062992127
11
4.832627598425197
21
-6.2871546062992127
0
LINE
8
BLACK
6
CONTINUOUS
10
4.832627598425197
20
-6.2871546062992127
11
4.832627598425197
21
-6.2143199606299211
0
LINE
8
BLACK
6
CONTINUOUS
10
4.832627598425197
20
-6.2143199606299211
11
4.7023126377952753
21
-6.2143199606299211
0
LINE
8
BLACK
6
CONTINUOUS
10
5.6046407480314961
20
-6.1436036614173224
11
5.6057061023622046
21
-6.1446690157480317
0
LINE
8
BLACK
6
CONTINUOUS
10
5.6057061023622046
20
-6.1446690157480317
11
5.6058559448818892
21
-6.1454223228346452
0
LINE
8
BLACK
6
CONTINUOUS
10
5.6058559448818892
20
-6.1454223228346452
11
5.6058559448818892
21
-6.2595955511811026
0
LINE
8
BLACK
6
CONTINUOUS
10
5.6058559448818892
20
-6.2595955511811026
11
5.6057061023622046
21
-6.260348858267716
0
LINE
8
BLACK
6
CONTINUOUS
10
5.6057061023622046
20
-6.260348858267716
11
5.6046407480314961
21
-6.2614142125984253
0
LINE
8
BLACK
6
CONTINUOUS
10
5.6046407480314961
20
-6.2614142125984253
11
5.6038874409448818
21
-6.26156405511811
0
LINE
8
BLACK
6
CONTINUOUS
10
5.6038874409448818
20
-6.26156405511811
11
5.4542811417322836
21
-6.26156405511811
0
LINE
8
BLACK
6
CONTINUOUS
10
5.4542811417322836
20
-6.26156405511811
11
5.4535278346456693
21
-6.2614142125984253
0
LINE
8
BLACK
6
CONTINUOUS
10
5.4535278346456693
20
-6.2614142125984253
11
5.4524624803149608
21
-6.260348858267716
0
LINE
8
BLACK
6
CONTINUOUS
10
5.4524624803149608
20
-6.260348858267716
11
5.4523126377952753
21
-6.2595955511811026
0
LINE
8
BLACK
6
CONTINUOUS
10
5.4523126377952753
20
-6.2595955511811026
11
5.4523126377952753
21
-6.1454223228346452
0
LINE
8
BLACK
6
CONTINUOUS
10
5.4523126377952753
20
-6.1454223228346452
11
5.4524624803149608
21
-6.1446690157480317
0
LINE
8
BLACK
6
CONTINUOUS
10
5.4524624803149608
20
-6.1446690157480317
11
5.4535278346456693
21
-6.1436036614173224
0
LINE
8
BLACK
6
CONTINUOUS
10
5.4535278346456693
20
-6.1436036614173224
11
5.4542811417322836
21
-6.1434538188976378
0
LINE
8
BLACK
6
CONTINUOUS
10
5.4542811417322836
20
-6.1434538188976378
11
5.6038874409448818
21
-6.1434538188976378
0
LINE
8
BLACK
6
CONTINUOUS
10
5.6038874409448818
20
-6.1434538188976378
11
5.6046407480314961
21
-6.1436036614173224
0
LINE
8
BLACK
6
CONTINUOUS
10
5.456249645669291
20
-6.1473908267716535
11
5.456249645669291
21
-6.2576270472440942
0
LINE
8
BLACK
6
CONTINUOUS
10
5.456249645669291
20
-6.2576270472440942
11
5.6019189370078735
21
-6.2576270472440942
0
LINE
8
BLACK
6
CONTINUOUS
10
5.6019189370078735
20
-6.2576270472440942
11
5.6019189370078735
21
-6.1473908267716535
0
LINE
8
BLACK
6
CONTINUOUS
10
5.6019189370078735
20
-6.1473908267716535
11
5.456249645669291
21
-6.1473908267716535
0
LINE
8
BLACK
6
CONTINUOUS
10
5.1670593700787402
20
-6.183686220472441
11
5.1675920472440939
21
-6.1842188976377948
0
LINE
8
BLACK
6
CONTINUOUS
10
5.1675920472440939
20
-6.1842188976377948
11
5.1676669685039371
21
-6.1845955511811024
0
LINE
8
BLACK
6
CONTINUOUS
10
5.1676669685039371
20
-6.1845955511811024
11
5.1676669685039371
21
-6.2420758661417324
0
LINE
8
BLACK
6
CONTINUOUS
10
5.1676669685039371
20
-6.2420758661417324
11
5.1675920472440939
21
-6.2424525196850391
0
LINE
8
BLACK
6
CONTINUOUS
10
5.1675920472440939
20
-6.2424525196850391
11
5.1670593700787402
21
-6.2429851968503938
0
LINE
8
BLACK
6
CONTINUOUS
10
5.1670593700787402
20
-6.2429851968503938
11
5.1666827165354325
21
-6.2430601181102361
0
LINE
8
BLACK
6
CONTINUOUS
10
5.1666827165354325
20
-6.2430601181102361
11
5.0501472834645664
21
-6.2430601181102361
0
LINE
8
BLACK
6
CONTINUOUS
10
5.0501472834645664
20
-6.2430601181102361
11
5.0497706299212597
21
-6.2429851968503938
0
LINE
8
BLACK
6
CONTINUOUS
10
5.0497706299212597
20
-6.2429851968503938
11
5.049237952755905
21
-6.2424525196850391
0
LINE
8
BLACK
6
CONTINUOUS
10
5.049237952755905
20
-6.2424525196850391
11
5.0491630314960627
21
-6.2420758661417324
0
LINE
8
BLACK
6
CONTINUOUS
10
5.0491630314960627
20
-6.2420758661417324
11
5.0491630314960627
21
-6.1845955511811024
0
LINE
8
BLACK
6
CONTINUOUS
10
5.0491630314960627
20
-6.1845955511811024
11
5.049237952755905
21
-6.1842188976377948
0
LINE
8
BLACK
6
CONTINUOUS
10
5.049237952755905
20
-6.1842188976377948
11
5.0497706299212597
21
-6.183686220472441
0
LINE
8
BLACK
6
CONTINUOUS
10
5.0497706299212597
20
-6.183686220472441
11
5.0501472834645664
21
-6.1836112992125987
0
LINE
8
BLACK
6
CONTINUOUS
10
5.0501472834645664
20
-6.1836112992125987
11
5.1666827165354325
21
-6.1836112992125987
0
LINE
8
BLACK
6
CONTINUOUS
10
5.1666827165354325
20
-6.1836112992125987
11
5.1670593700787402
21
-6.183686220472441
0
LINE
8
BLACK
6
CONTINUOUS
10
5.051131535433071
20
-6.1855798031496061
11
5.051131535433071
21
-6.2410916141732278
0
LINE
8
BLACK
6
CONTINUOUS
10
5.051131535433071
20
-6.2410916141732278
11
5.1656984645669288
21
-6.2410916141732278
0
LINE
8
BLACK
6
CONTINUOUS
10
5.1656984645669288
20
-6.2410916141732278
11
5.1656984645669288
21
-6.1855798031496061
0
LINE
8
BLACK
6
CONTINUOUS
10
5.1656984645669288
20
-6.1855798031496061
11
5.051131535433071
21
-6.1855798031496061
0
LINE
8
BLACK
6
CONTINUOUS
10
5.8001302362204727
20
-6.1336862204724412
11
5.8006629133858265
21
-6.1342188976377949
0
LINE
8
BLACK
6
CONTINUOUS
10
5.8006629133858265
20
-6.1342188976377949
11
5.8007378346456688
21
-6.1345955511811026
0
LINE
8
BLACK
6
CONTINUOUS
10
5.8007378346456688
20
-6.1345955511811026
11
5.8007378346456688
21
-6.2408947637795276
0
LINE
8
BLACK
6
CONTINUOUS
10
5.8007378346456688
20
-6.2408947637795276
11
5.8006629133858265
21
-6.2412714173228343
0
LINE
8
BLACK
6
CONTINUOUS
10
5.8006629133858265
20
-6.2412714173228343
11
5.8001302362204727
21
-6.241804094488189
0
LINE
8
BLACK
6
CONTINUOUS
10
5.8001302362204727
20
-6.241804094488189
11
5.7997535826771651
21
-6.2418790157480313
0
LINE
8
BLACK
6
CONTINUOUS
10
5.7997535826771651
20
-6.2418790157480313
11
5.6462102755905512
21
-6.2418790157480313
0
LINE
8
BLACK
6
CONTINUOUS
10
5.6462102755905512
20
-6.2418790157480313
11
5.6458336220472436
21
-6.241804094488189
0
LINE
8
BLACK
6
CONTINUOUS
10
5.6458336220472436
20
-6.241804094488189
11
5.6453009448818898
21
-6.2412714173228343
0
LINE
8
BLACK
6
CONTINUOUS
10
5.6453009448818898
20
-6.2412714173228343
11
5.6452260236220475
21
-6.2408947637795276
0
LINE
8
BLACK
6
CONTINUOUS
10
5.6452260236220475
20
-6.2408947637795276
11
5.6452260236220475
21
-6.1345955511811026
0
LINE
8
BLACK
6
CONTINUOUS
10
5.6452260236220475
20
-6.1345955511811026
11
5.6453009448818898
21
-6.1342188976377949
0
LINE
8
BLACK
6
CONTINUOUS
10
5.6453009448818898
20
-6.1342188976377949
11
5.6458336220472436
21
-6.1336862204724412
0
LINE
8
BLACK
6
CONTINUOUS
10
5.6458336220472436
20
-6.1336862204724412
11
5.6462102755905512
21
-6.133611299212598
0
LINE
8
BLACK
6
CONTINUOUS
10
5.6462102755905512
20
-6.133611299212598
11
5.7997535826771651
21
-6.133611299212598
0
LINE
8
BLACK
6
CONTINUOUS
10
5.7997535826771651
20
-6.133611299212598
11
5.8001302362204727
21
-6.1336862204724412
0
LINE
8
BLACK
6
CONTINUOUS
10
5.6471945275590549
20
-6.1355798031496063
11
5.6471945275590549
21
-6.2399105118110239
0
LINE
8
BLACK
6
CONTINUOUS
10
5.6471945275590549
20
-6.2399105118110239
11
5.7987693307086614
21
-6.2399105118110239
0
LINE
8
BLACK
6
CONTINUOUS
10
5.7987693307086614
20
-6.2399105118110239
11
5.7987693307086614
21
-6.1355798031496063
0
LINE
8
BLACK
6
CONTINUOUS
10
5.7987693307086614
20
-6.1355798031496063
11
5.6471945275590549
21
-6.1355798031496063
0
LINE
8
BLACK
6
CONTINUOUS
10
4.8339885039370074
20
-6.0962846456692912
11
4.8345211811023621
21
-6.0968173228346458
0
LINE
8
BLACK
6
CONTINUOUS
10
4.8345211811023621
20
-6.0968173228346458
11
4.8345961023622044
21
-6.0971939763779526
0
LINE
8
BLACK
6
CONTINUOUS
10
4.8345961023622044
20
-6.0971939763779526
11
4.8345961023622044
21
-6.1719971259842517
0
LINE
8
BLACK
6
CONTINUOUS
10
4.8345961023622044
20
-6.1719971259842517
11
4.8345211811023621
21
-6.1723737795275593
0
LINE
8
BLACK
6
CONTINUOUS
10
4.8345211811023621
20
-6.1723737795275593
11
4.8339885039370074
21
-6.172906456692913
0
LINE
8
BLACK
6
CONTINUOUS
10
4.8339885039370074
20
-6.172906456692913
11
4.8336118503937007
21
-6.1729813779527554
0
LINE
8
BLACK
6
CONTINUOUS
10
4.8336118503937007
20
-6.1729813779527554
11
4.7013283858267716
21
-6.1729813779527554
0
LINE
8
BLACK
6
CONTINUOUS
10
4.7013283858267716
20
-6.1729813779527554
11
4.7009517322834649
21
-6.172906456692913
0
LINE
8
BLACK
6
CONTINUOUS
10
4.7009517322834649
20
-6.172906456692913
11
4.7004190551181102
21
-6.1723737795275593
0
LINE
8
BLACK
6
CONTINUOUS
10
4.7004190551181102
20
-6.1723737795275593
11
4.7003441338582679
21
-6.1719971259842517
0
LINE
8
BLACK
6
CONTINUOUS
10
4.7003441338582679
20
-6.1719971259842517
11
4.7003441338582679
21
-6.0971939763779526
0
LINE
8
BLACK
6
CONTINUOUS
10
4.7003441338582679
20
-6.0971939763779526
11
4.7004190551181102
21
-6.0968173228346458
0
LINE
8
BLACK
6
CONTINUOUS
10
4.7004190551181102
20
-6.0968173228346458
11
4.7009517322834649
21
-6.0962846456692912
0
LINE
8
BLACK
6
CONTINUOUS
10
4.7009517322834649
20
-6.0962846456692912
11
4.7013283858267716
21
-6.0962097244094489
0
LINE
8
BLACK
6
CONTINUOUS
10
4.7013283858267716
20
-6.0962097244094489
11
4.8336118503937007
21
-6.0962097244094489
0
LINE
8
BLACK
6
CONTINUOUS
10
4.8336118503937007
20
-6.0962097244094489
11
4.8339885039370074
21
-6.0962846456692912
0
LINE
8
BLACK
6
CONTINUOUS
10
4.7023126377952753
20
-6.0981782283464563
11
4.7023126377952753
21
-6.1710128740157479
0
LINE
8
BLACK
6
CONTINUOUS
10
4.7023126377952753
20
-6.1710128740157479
11
4.832627598425197
21
-6.1710128740157479
0
LINE
8
BLACK
6
CONTINUOUS
10
4.832627598425197
20
-6.1710128740157479
11
4.832627598425197
21
-6.0981782283464563
0
LINE
8
BLACK
6
CONTINUOUS
10
4.832627598425197
20
-6.0981782283464563
11
4.7023126377952753
21
-6.0981782283464563
0
LINE
8
BLACK
6
CONTINUOUS
10
5.1670593700787402
20
-6.0848673228346453
11
5.1675920472440939
21
-6.0853999999999999
0
LINE
8
BLACK
6
CONTINUOUS
10
5.1675920472440939
20
-6.0853999999999999
11
5.1676669685039371
21
-6.0857766535433067
0
LINE
8
BLACK
6
CONTINUOUS
10
5.1676669685039371
20
-6.0857766535433067
11
5.1676669685039371
21
-6.1432569685039367
0
LINE
8
BLACK
6
CONTINUOUS
10
5.1676669685039371
20
-6.1432569685039367
11
5.1675920472440939
21
-6.1436336220472443
0
LINE
8
BLACK
6
CONTINUOUS
10
5.1675920472440939
20
-6.1436336220472443
11
5.1670593700787402
21
-6.144166299212598
0
LINE
8
BLACK
6
CONTINUOUS
10
5.1670593700787402
20
-6.144166299212598
11
5.1666827165354325
21
-6.1442412204724404
0
LINE
8
BLACK
6
CONTINUOUS
10
5.1666827165354325
20
-6.1442412204724404
11
5.0501472834645664
21
-6.1442412204724404
0
LINE
8
BLACK
6
CONTINUOUS
10
5.0501472834645664
20
-6.1442412204724404
11
5.0497706299212597
21
-6.144166299212598
0
LINE
8
BLACK
6
CONTINUOUS
10
5.0497706299212597
20
-6.144166299212598
11
5.049237952755905
21
-6.1436336220472443
0
LINE
8
BLACK
6
CONTINUOUS
10
5.049237952755905
20
-6.1436336220472443
11
5.0491630314960627
21
-6.1432569685039367
0
LINE
8
BLACK
6
CONTINUOUS
10
5.0491630314960627
20
-6.1432569685039367
11
5.0491630314960627
21
-6.0857766535433067
0
LINE
8
BLACK
6
CONTINUOUS
10
5.0491630314960627
20
-6.0857766535433067
11
5.049237952755905
21
-6.0853999999999999
0
LINE
8
BLACK
6
CONTINUOUS
10
5.049237952755905
20
-6.0853999999999999
11
5.0497706299212597
21
-6.0848673228346453
0
LINE
8
BLACK
6
CONTINUOUS
10
5.0497706299212597
20
-6.0848673228346453
11
5.0501472834645664
21
-6.0847924015748029
0
LINE
8
BLACK
6
CONTINUOUS
10
5.0501472834645664
20
-6.0847924015748029
11
5.1666827165354325
21
-6.0847924015748029
0
LINE
8
BLACK
6
CONTINUOUS
10
5.1666827165354325
20
-6.0847924015748029
11
5.1670593700787402
21
-6.0848673228346453
0
LINE
8
BLACK
6
CONTINUOUS
10
5.051131535433071
20
-6.0867609055118113
11
5.051131535433071
21
-6.1422727165354329
0
LINE
8
BLACK
6
CONTINUOUS
10
5.051131535433071
20
-6.1422727165354329
11
5.1656984645669288
21
-6.1422727165354329
0
LINE
8
BLACK
6
CONTINUOUS
10
5.1656984645669288
20
-6.1422727165354329
11
5.1656984645669288
21
-6.0867609055118113
0
LINE
8
BLACK
6
CONTINUOUS
10
5.1656984645669288
20
-6.0867609055118113
11
5.051131535433071
21
-6.0867609055118113
0
LINE
8
BLACK
6
CONTINUOUS
10
5.6046407480314961
20
-5.9861233464566928
11
5.6057061023622046
21
-5.9871887007874012
0
LINE
8
BLACK
6
CONTINUOUS
10
5.6057061023622046
20
-5.9871887007874012
11
5.6058559448818892
21
-5.9879420078740155
0
LINE
8
BLACK
6
CONTINUOUS
10
5.6058559448818892
20
-5.9879420078740155
11
5.6058559448818892
21
-6.102115236220472
0
LINE
8
BLACK
6
CONTINUOUS
10
5.6058559448818892
20
-6.102115236220472
11
5.6057061023622046
21
-6.1028685433070864
0
LINE
8
BLACK
6
CONTINUOUS
10
5.6057061023622046
20
-6.1028685433070864
11
5.6046407480314961
21
-6.1039338976377948
0
LINE
8
BLACK
6
CONTINUOUS
10
5.6046407480314961
20
-6.1039338976377948
11
5.6038874409448818
21
-6.1040837401574803
0
LINE
8
BLACK
6
CONTINUOUS
10
5.6038874409448818
20
-6.1040837401574803
11
5.4542811417322836
21
-6.1040837401574803
0
LINE
8
BLACK
6
CONTINUOUS
10
5.4542811417322836
20
-6.1040837401574803
11
5.4535278346456693
21
-6.1039338976377948
0
LINE
8
BLACK
6
CONTINUOUS
10
5.4535278346456693
20
-6.1039338976377948
11
5.4524624803149608
21
-6.1028685433070864
0
LINE
8
BLACK
6
CONTINUOUS
10
5.4524624803149608
20
-6.1028685433070864
11
5.4523126377952753
21
-6.102115236220472
0
LINE
8
BLACK
6
CONTINUOUS
10
5.4523126377952753
20
-6.102115236220472
11
5.4523126377952753
21
-5.9879420078740155
0
LINE
8
BLACK
6
CONTINUOUS
10
5.4523126377952753
20
-5.9879420078740155
11
5.4524624803149608
21
-5.9871887007874012
0
LINE
8
BLACK
6
CONTINUOUS
10
5.4524624803149608
20
-5.9871887007874012
11
5.4535278346456693
21
-5.9861233464566928
0
LINE
8
BLACK
6
CONTINUOUS
10
5.4535278346456693
20
-5.9861233464566928
11
5.4542811417322836
21
-5.9859735039370081
0
LINE
8
BLACK
6
CONTINUOUS
10
5.4542811417322836
20
-5.9859735039370081
11
5.6038874409448818
21
-5.9859735039370081
0
LINE
8
BLACK
6
CONTINUOUS
10
5.6038874409448818
20
-5.9859735039370081
11
5.6046407480314961
21
-5.9861233464566928
0
LINE
8
BLACK
6
CONTINUOUS
10
5.456249645669291
20
-5.9899105118110239
11
5.456249645669291
21
-6.1001467322834646
0
LINE
8
BLACK
6
CONTINUOUS
10
5.456249645669291
20
-6.1001467322834646
11
5.6019189370078735
21
-6.1001467322834646
0
LINE
8
BLACK
6
CONTINUOUS
10
5.6019189370078735
20
-6.1001467322834646
11
5.6019189370078735
21
-5.9899105118110239
0
LINE
8
BLACK
6
CONTINUOUS
10
5.6019189370078735
20
-5.9899105118110239
11
5.456249645669291
21
-5.9899105118110239
0
LINE
8
BLACK
6
CONTINUOUS
10
5.8001302362204727
20
-5.9860484251968504
11
5.8006629133858265
21
-5.9865811023622042
0
LINE
8
BLACK
6
CONTINUOUS
10
5.8006629133858265
20
-5.9865811023622042
11
5.8007378346456688
21
-5.9869577559055118
0
LINE
8
BLACK
6
CONTINUOUS
10
5.8007378346456688
20
-5.9869577559055118
11
5.8007378346456688
21
-6.0932569685039368
0
LINE
8
BLACK
6
CONTINUOUS
10
5.8007378346456688
20
-6.0932569685039368
11
5.8006629133858265
21
-6.0936336220472436
0
LINE
8
BLACK
6
CONTINUOUS
10
5.8006629133858265
20
-6.0936336220472436
11
5.8001302362204727
21
-6.0941662992125982
0
LINE
8
BLACK
6
CONTINUOUS
10
5.8001302362204727
20
-6.0941662992125982
11
5.7997535826771651
21
-6.0942412204724405
0
LINE
8
BLACK
6
CONTINUOUS
10
5.7997535826771651
20
-6.0942412204724405
11
5.6462102755905512
21
-6.0942412204724405
0
LINE
8
BLACK
6
CONTINUOUS
10
5.6462102755905512
20
-6.0942412204724405
11
5.6458336220472436
21
-6.0941662992125982
0
LINE
8
BLACK
6
CONTINUOUS
10
5.6458336220472436
20
-6.0941662992125982
11
5.6453009448818898
21
-6.0936336220472436
0
LINE
8
BLACK
6
CONTINUOUS
10
5.6453009448818898
20
-6.0936336220472436
11
5.6452260236220475
21
-6.0932569685039368
0
LINE
8
BLACK
6
CONTINUOUS
10
5.6452260236220475
20
-6.0932569685039368
11
5.6452260236220475
21
-5.9869577559055118
0
LINE
8
BLACK
6
CONTINUOUS
10
5.6452260236220475
20
-5.9869577559055118
11
5.6453009448818898
21
-5.9865811023622042
0
LINE
8
BLACK
6
CONTINUOUS
10
5.6453009448818898
20
-5.9865811023622042
11
5.6458336220472436
21
-5.9860484251968504
0
LINE
8
BLACK
6
CONTINUOUS
10
5.6458336220472436
20
-5.9860484251968504
11
5.6462102755905512
21
-5.9859735039370081
0
LINE
8
BLACK
6
CONTINUOUS
10
5.6462102755905512
20
-5.9859735039370081
11
5.7997535826771651
21
-5.9859735039370081
0
LINE
8
BLACK
6
CONTINUOUS
10
5.7997535826771651
20
-5.9859735039370081
11
5.8001302362204727
21
-5.9860484251968504
0
LINE
8
BLACK
6
CONTINUOUS
10
5.6471945275590549
20
-5.9879420078740155
11
5.6471945275590549
21
-6.0922727165354331
0
LINE
8
BLACK
6
CONTINUOUS
10
5.6471945275590549
20
-6.0922727165354331
11
5.7987693307086614
21
-6.0922727165354331
0
LINE
8
BLACK
6
CONTINUOUS
10
5.7987693307086614
20
-6.0922727165354331
11
5.7987693307086614
21
-5.9879420078740155
0
LINE
8
BLACK
6
CONTINUOUS
10
5.7987693307086614
20
-5.9879420078740155
11
5.6471945275590549
21
-5.9879420078740155
0
LINE
8
BLACK
6
CONTINUOUS
10
5.0091853543307083
20
-5.9919539370078736
11
5.009718031496063
21
-5.9924866141732283
0
LINE
8
BLACK
6
CONTINUOUS
10
5.009718031496063
20
-5.9924866141732283
11
5.0097929527559053
21
-5.992863267716535
0
LINE
8
BLACK
6
CONTINUOUS
10
5.0097929527559053
20
-5.992863267716535
11
5.0097929527559053
21
-6.0700286220472437
0
LINE
8
BLACK
6
CONTINUOUS
10
5.0097929527559053
20
-6.0700286220472437
11
5.009718031496063
21
-6.0704052755905513
0
LINE
8
BLACK
6
CONTINUOUS
10
5.009718031496063
20
-6.0704052755905513
11
5.0091853543307083
21
-6.0709379527559051
0
LINE
8
BLACK
6
CONTINUOUS
10
5.0091853543307083
20
-6.0709379527559051
11
5.0088087007874016
21
-6.0710128740157483
0
LINE
8
BLACK
6
CONTINUOUS
10
5.0088087007874016
20
-6.0710128740157483
11
4.8749504330708664
21
-6.0710128740157483
0
LINE
8
BLACK
6
CONTINUOUS
10
4.8749504330708664
20
-6.0710128740157483
11
4.8745737795275588
21
-6.0709379527559051
0
LINE
8
BLACK
6
CONTINUOUS
10
4.8745737795275588
20
-6.0709379527559051
11
4.874041102362205
21
-6.0704052755905513
0
LINE
8
BLACK
6
CONTINUOUS
10
4.874041102362205
20
-6.0704052755905513
11
4.8739661811023618
21
-6.0700286220472437
0
LINE
8
BLACK
6
CONTINUOUS
10
4.8739661811023618
20
-6.0700286220472437
11
4.8739661811023618
21
-5.992863267716535
0
LINE
8
BLACK
6
CONTINUOUS
10
4.8739661811023618
20
-5.992863267716535
11
4.874041102362205
21
-5.9924866141732283
0
LINE
8
BLACK
6
CONTINUOUS
10
4.874041102362205
20
-5.9924866141732283
11
4.8745737795275588
21
-5.9919539370078736
0
LINE
8
BLACK
6
CONTINUOUS
10
4.8745737795275588
20
-5.9919539370078736
11
4.8749504330708664
21
-5.9918790157480313
0
LINE
8
BLACK
6
CONTINUOUS
10
4.8749504330708664
20
-5.9918790157480313
11
5.0088087007874016
21
-5.9918790157480313
0
LINE
8
BLACK
6
CONTINUOUS
10
5.0088087007874016
20
-5.9918790157480313
11
5.0091853543307083
21
-5.9919539370078736
0
LINE
8
BLACK
6
CONTINUOUS
10
4.8759346850393701
20
-5.9938475196850396
11
4.8759346850393701
21
-6.06904437007874
0
LINE
8
BLACK
6
CONTINUOUS
10
4.8759346850393701
20
-6.06904437007874
11
5.0078244488188979
21
-6.06904437007874
0
LINE
8
BLACK
6
CONTINUOUS
10
5.0078244488188979
20
-6.06904437007874
11
5.0078244488188979
21
-5.9938475196850396
0
LINE
8
BLACK
6
CONTINUOUS
10
5.0078244488188979
20
-5.9938475196850396
11
4.8759346850393701
21
-5.9938475196850396
0
LINE
8
BLACK
6
CONTINUOUS
10
4.8339885039370074
20
-5.9801429133858264
11
4.8345211811023621
21
-5.980675590551181
0
LINE
8
BLACK
6
CONTINUOUS
10
4.8345211811023621
20
-5.980675590551181
11
4.8345961023622044
21
-5.9810522440944878
0
LINE
8
BLACK
6
CONTINUOUS
10
4.8345961023622044
20
-5.9810522440944878
11
4.8345961023622044
21
-6.0558553937007868
0
LINE
8
BLACK
6
CONTINUOUS
10
4.8345961023622044
20
-6.0558553937007868
11
4.8345211811023621
21
-6.0562320472440945
0
LINE
8
BLACK
6
CONTINUOUS
10
4.8345211811023621
20
-6.0562320472440945
11
4.8339885039370074
21
-6.0567647244094482
0
LINE
8
BLACK
6
CONTINUOUS
10
4.8339885039370074
20
-6.0567647244094482
11
4.8336118503937007
21
-6.0568396456692914
0
LINE
8
BLACK
6
CONTINUOUS
10
4.8336118503937007
20
-6.0568396456692914
11
4.7013283858267716
21
-6.0568396456692914
0
LINE
8
BLACK
6
CONTINUOUS
10
4.7013283858267716
20
-6.0568396456692914
11
4.7009517322834649
21
-6.0567647244094482
0
LINE
8
BLACK
6
CONTINUOUS
10
4.7009517322834649
20
-6.0567647244094482
11
4.7004190551181102
21
-6.0562320472440945
0
LINE
8
BLACK
6
CONTINUOUS
10
4.7004190551181102
20
-6.0562320472440945
11
4.7003441338582679
21
-6.0558553937007868
0
LINE
8
BLACK
6
CONTINUOUS
10
4.7003441338582679
20
-6.0558553937007868
11
4.7003441338582679
21
-5.9810522440944878
0
LINE
8
BLACK
6
CONTINUOUS
10
4.7003441338582679
20
-5.9810522440944878
11
4.7004190551181102
21
-5.980675590551181
0
LINE
8
BLACK
6
CONTINUOUS
10
4.7004190551181102
20
-5.980675590551181
11
4.7009517322834649
21
-5.9801429133858264
0
LINE
8
BLACK
6
CONTINUOUS
10
4.7009517322834649
20
-5.9801429133858264
11
4.7013283858267716
21
-5.9800679921259841
0
LINE
8
BLACK
6
CONTINUOUS
10
4.7013283858267716
20
-5.9800679921259841
11
4.8336118503937007
21
-5.9800679921259841
0
LINE
8
BLACK
6
CONTINUOUS
10
4.8336118503937007
20
-5.9800679921259841
11
4.8339885039370074
21
-5.9801429133858264
0
LINE
8
BLACK
6
CONTINUOUS
10
4.7023126377952753
20
-5.9820364960629924
11
4.7023126377952753
21
-6.0548711417322831
0
LINE
8
BLACK
6
CONTINUOUS
10
4.7023126377952753
20
-6.0548711417322831
11
4.832627598425197
21
-6.0548711417322831
0
LINE
8
BLACK
6
CONTINUOUS
10
4.832627598425197
20
-6.0548711417322831
11
4.832627598425197
21
-5.9820364960629924
0
LINE
8
BLACK
6
CONTINUOUS
10
4.832627598425197
20
-5.9820364960629924
11
4.7023126377952753
21
-5.9820364960629924
0
LINE
8
BLACK
6
CONTINUOUS
10
5.1670593700787402
20
-5.9860484251968504
11
5.1675920472440939
21
-5.9865811023622042
0
LINE
8
BLACK
6
CONTINUOUS
10
5.1675920472440939
20
-5.9865811023622042
11
5.1676669685039371
21
-5.9869577559055118
0
LINE
8
BLACK
6
CONTINUOUS
10
5.1676669685039371
20
-5.9869577559055118
11
5.1676669685039371
21
-6.0444380708661418
0
LINE
8
BLACK
6
CONTINUOUS
10
5.1676669685039371
20
-6.0444380708661418
11
5.1675920472440939
21
-6.0448147244094486
0
LINE
8
BLACK
6
CONTINUOUS
10
5.1675920472440939
20
-6.0448147244094486
11
5.1670593700787402
21
-6.0453474015748032
0
LINE
8
BLACK
6
CONTINUOUS
10
5.1670593700787402
20
-6.0453474015748032
11
5.1666827165354325
21
-6.0454223228346455
0
LINE
8
BLACK
6
CONTINUOUS
10
5.1666827165354325
20
-6.0454223228346455
11
5.0501472834645664
21
-6.0454223228346455
0
LINE
8
BLACK
6
CONTINUOUS
10
5.0501472834645664
20
-6.0454223228346455
11
5.0497706299212597
21
-6.0453474015748032
0
LINE
8
BLACK
6
CONTINUOUS
10
5.0497706299212597
20
-6.0453474015748032
11
5.049237952755905
21
-6.0448147244094486
0
LINE
8
BLACK
6
CONTINUOUS
10
5.049237952755905
20
-6.0448147244094486
11
5.0491630314960627
21
-6.0444380708661418
0
LINE
8
BLACK
6
CONTINUOUS
10
5.0491630314960627
20
-6.0444380708661418
11
5.0491630314960627
21
-5.9869577559055118
0
LINE
8
BLACK
6
CONTINUOUS
10
5.0491630314960627
20
-5.9869577559055118
11
5.049237952755905
21
-5.9865811023622042
0
LINE
8
BLACK
6
CONTINUOUS
10
5.049237952755905
20
-5.9865811023622042
11
5.0497706299212597
21
-5.9860484251968504
0
LINE
8
BLACK
6
CONTINUOUS
10
5.0497706299212597
20
-5.9860484251968504
11
5.0501472834645664
21
-5.9859735039370081
0
LINE
8
BLACK
6
CONTINUOUS
10
5.0501472834645664
20
-5.9859735039370081
11
5.1666827165354325
21
-5.9859735039370081
0
LINE
8
BLACK
6
CONTINUOUS
10
5.1666827165354325
20
-5.9859735039370081
11
5.1670593700787402
21
-5.9860484251968504
0
LINE
8
BLACK
6
CONTINUOUS
10
5.051131535433071
20
-5.9879420078740155
11
5.051131535433071
21
-6.0434538188976372
0
LINE
8
BLACK
6
CONTINUOUS
10
5.051131535433071
20
-6.0434538188976372
11
5.1656984645669288
21
-6.0434538188976372
0
LINE
8
BLACK
6
CONTINUOUS
10
5.1656984645669288
20
-6.0434538188976372
11
5.1656984645669288
21
-5.9879420078740155
0
LINE
8
BLACK
6
CONTINUOUS
10
5.1656984645669288
20
-5.9879420078740155
11
5.051131535433071
21
-5.9879420078740155
0
LINE
8
BLACK
6
CONTINUOUS
10
5.0091853543307083
20
-5.8734500000000001
11
5.009718031496063
21
-5.8739826771653538
0
LINE
8
BLACK
6
CONTINUOUS
10
5.009718031496063
20
-5.8739826771653538
11
5.0097929527559053
21
-5.8743593307086615
0
LINE
8
BLACK
6
CONTINUOUS
10
5.0097929527559053
20
-5.8743593307086615
11
5.0097929527559053
21
-5.9515246850393702
0
LINE
8
BLACK
6
CONTINUOUS
10
5.0097929527559053
20
-5.9515246850393702
11
5.009718031496063
21
-5.9519013385826769
0
LINE
8
BLACK
6
CONTINUOUS
10
5.009718031496063
20
-5.9519013385826769
11
5.0091853543307083
21
-5.9524340157480315
0
LINE
8
BLACK
6
CONTINUOUS
10
5.0091853543307083
20
-5.9524340157480315
11
5.0088087007874016
21
-5.9525089370078739
0
LINE
8
BLACK
6
CONTINUOUS
10
5.0088087007874016
20
-5.9525089370078739
11
4.8749504330708664
21
-5.9525089370078739
0
LINE
8
BLACK
6
CONTINUOUS
10
4.8749504330708664
20
-5.9525089370078739
11
4.8745737795275588
21
-5.9524340157480315
0
LINE
8
BLACK
6
CONTINUOUS
10
4.8745737795275588
20
-5.9524340157480315
11
4.874041102362205
21
-5.9519013385826769
0
LINE
8
BLACK
6
CONTINUOUS
10
4.874041102362205
20
-5.9519013385826769
11
4.8739661811023618
21
-5.9515246850393702
0
LINE
8
BLACK
6
CONTINUOUS
10
4.8739661811023618
20
-5.9515246850393702
11
4.8739661811023618
21
-5.8743593307086615
0
LINE
8
BLACK
6
CONTINUOUS
10
4.8739661811023618
20
-5.8743593307086615
11
4.874041102362205
21
-5.8739826771653538
0
LINE
8
BLACK
6
CONTINUOUS
10
4.874041102362205
20
-5.8739826771653538
11
4.8745737795275588
21
-5.8734500000000001
0
LINE
8
BLACK
6
CONTINUOUS
10
4.8745737795275588
20
-5.8734500000000001
11
4.8749504330708664
21
-5.8733750787401577
0
LINE
8
BLACK
6
CONTINUOUS
10
4.8749504330708664
20
-5.8733750787401577
11
5.0088087007874016
21
-5.8733750787401577
0
LINE
8
BLACK
6
CONTINUOUS
10
5.0088087007874016
20
-5.8733750787401577
11
5.0091853543307083
21
-5.8734500000000001
0
LINE
8
BLACK
6
CONTINUOUS
10
4.8759346850393701
20
-5.8753435826771652
11
4.8759346850393701
21
-5.9505404330708664
0
LINE
8
BLACK
6
CONTINUOUS
10
4.8759346850393701
20
-5.9505404330708664
11
5.0078244488188979
21
-5.9505404330708664
0
LINE
8
BLACK
6
CONTINUOUS
10
5.0078244488188979
20
-5.9505404330708664
11
5.0078244488188979
21
-5.8753435826771652
0
LINE
8
BLACK
6
CONTINUOUS
10
5.0078244488188979
20
-5.8753435826771652
11
4.8759346850393701
21
-5.8753435826771652
0
LINE
8
BLACK
6
CONTINUOUS
10
5.3422562204724411
20
-5.6927413385826773
11
5.3427888976377949
21
-5.693274015748031
0
LINE
8
BLACK
6
CONTINUOUS
10
5.3427888976377949
20
-5.693274015748031
11
5.3428638188976381
21
-5.6936506692913387
0
LINE
8
BLACK
6
CONTINUOUS
10
5.3428638188976381
20
-5.6936506692913387
11
5.3428638188976381
21
-5.7359735039370081
0
LINE
8
BLACK
6
CONTINUOUS
10
5.3428638188976381
20
-5.7359735039370081
11
5.4186512204724409
21
-5.7359735039370081
0
LINE
8
BLACK
6
CONTINUOUS
10
5.4186512204724409
20
-5.7359735039370081
11
5.4190278740157476
21
-5.7360484251968504
0
LINE
8
BLACK
6
CONTINUOUS
10
5.4190278740157476
20
-5.7360484251968504
11
5.4195605511811022
21
-5.7365811023622042
0
LINE
8
BLACK
6
CONTINUOUS
10
5.4195605511811022
20
-5.7365811023622042
11
5.4196354724409446
21
-5.7369577559055118
0
LINE
8
BLACK
6
CONTINUOUS
10
5.4196354724409446
20
-5.7369577559055118
11
5.4196354724409446
21
-5.79896562992126
0
LINE
8
BLACK
6
CONTINUOUS
10
5.4196354724409446
20
-5.79896562992126
11
5.4225882283464566
21
-5.79896562992126
0
LINE
8
BLACK
6
CONTINUOUS
10
5.4225882283464566
20
-5.79896562992126
11
5.4229648818897633
21
-5.7990405511811023
0
LINE
8
BLACK
6
CONTINUOUS
10
5.4229648818897633
20
-5.7990405511811023
11
5.423497559055118
21
-5.7995732283464569
0
LINE
8
BLACK
6
CONTINUOUS
10
5.423497559055118
20
-5.7995732283464569
11
5.4235724803149603
21
-5.7999498818897637
0
LINE
8
BLACK
6
CONTINUOUS
10
5.4235724803149603
20
-5.7999498818897637
11
5.4235724803149603
21
-5.9456191732283461
0
LINE
8
BLACK
6
CONTINUOUS
10
5.4235724803149603
20
-5.9456191732283461
11
5.423497559055118
21
-5.9459958267716537
0
LINE
8
BLACK
6
CONTINUOUS
10
5.423497559055118
20
-5.9459958267716537
11
5.4229648818897633
21
-5.9465285039370075
0
LINE
8
BLACK
6
CONTINUOUS
10
5.4229648818897633
20
-5.9465285039370075
11
5.4225882283464566
21
-5.9466034251968507
0
LINE
8
BLACK
6
CONTINUOUS
10
5.4225882283464566
20
-5.9466034251968507
11
5.3434543700787405
21
-5.9466034251968507
0
LINE
8
BLACK
6
CONTINUOUS
10
5.3434543700787405
20
-5.9466034251968507
11
5.3430777165354328
21
-5.9465285039370075
0
LINE
8
BLACK
6
CONTINUOUS
10
5.3430777165354328
20
-5.9465285039370075
11
5.3425450393700782
21
-5.9459958267716537
0
LINE
8
BLACK
6
CONTINUOUS
10
5.3425450393700782
20
-5.9459958267716537
11
5.3424701181102359
21
-5.9456191732283461
0
LINE
8
BLACK
6
CONTINUOUS
10
5.3424701181102359
20
-5.9456191732283461
11
5.3424701181102359
21
-5.9367609055118109
0
LINE
8
BLACK
6
CONTINUOUS
10
5.3424701181102359
20
-5.9367609055118109
11
5.1302653937007872
21
-5.9367609055118109
0
LINE
8
BLACK
6
CONTINUOUS
10
5.1302653937007872
20
-5.9367609055118109
11
5.1302653937007872
21
-5.9456191732283461
0
LINE
8
BLACK
6
CONTINUOUS
10
5.1302653937007872
20
-5.9456191732283461
11
5.1301904724409448
21
-5.9459958267716537
0
LINE
8
BLACK
6
CONTINUOUS
10
5.1301904724409448
20
-5.9459958267716537
11
5.1296577952755902
21
-5.9465285039370075
0
LINE
8
BLACK
6
CONTINUOUS
10
5.1296577952755902
20
-5.9465285039370075
11
5.1292811417322834
21
-5.9466034251968507
0
LINE
8
BLACK
6
CONTINUOUS
10
5.1292811417322834
20
-5.9466034251968507
11
5.0501472834645664
21
-5.9466034251968507
0
LINE
8
BLACK
6
CONTINUOUS
10
5.0501472834645664
20
-5.9466034251968507
11
5.0497706299212597
21
-5.9465285039370075
0
LINE
8
BLACK
6
CONTINUOUS
10
5.0497706299212597
20
-5.9465285039370075
11
5.049237952755905
21
-5.9459958267716537
0
LINE
8
BLACK
6
CONTINUOUS
10
5.049237952755905
20
-5.9459958267716537
11
5.0491630314960627
21
-5.9456191732283461
0
LINE
8
BLACK
6
CONTINUOUS
10
5.0491630314960627
20
-5.9456191732283461
11
5.0491630314960627
21
-5.7999498818897637
0
LINE
8
BLACK
6
CONTINUOUS
10
5.0491630314960627
20
-5.7999498818897637
11
5.049237952755905
21
-5.7995732283464569
0
LINE
8
BLACK
6
CONTINUOUS
10
5.049237952755905
20
-5.7995732283464569
11
5.0497706299212597
21
-5.7990405511811023
0
LINE
8
BLACK
6
CONTINUOUS
10
5.0497706299212597
20
-5.7990405511811023
11
5.0501472834645664
21
-5.79896562992126
0
LINE
8
BLACK
6
CONTINUOUS
10
5.0501472834645664
20
-5.79896562992126
11
5.0531000393700785
21
-5.79896562992126
0
LINE
8
BLACK
6
CONTINUOUS
10
5.0531000393700785
20
-5.79896562992126
11
5.0531000393700785
21
-5.7369577559055118
0
LINE
8
BLACK
6
CONTINUOUS
10
5.0531000393700785
20
-5.7369577559055118
11
5.0531749606299208
21
-5.7365811023622042
0
LINE
8
BLACK
6
CONTINUOUS
10
5.0531749606299208
20
-5.7365811023622042
11
5.0537076377952754
21
-5.7360484251968504
0
LINE
8
BLACK
6
CONTINUOUS
10
5.0537076377952754
20
-5.7360484251968504
11
5.0540842913385822
21
-5.7359735039370081
0
LINE
8
BLACK
6
CONTINUOUS
10
5.0540842913385822
20
-5.7359735039370081
11
5.1298716929133858
21
-5.7359735039370081
0
LINE
8
BLACK
6
CONTINUOUS
10
5.1298716929133858
20
-5.7359735039370081
11
5.1298716929133858
21
-5.6936506692913387
0
LINE
8
BLACK
6
CONTINUOUS
10
5.1298716929133858
20
-5.6936506692913387
11
5.1299466141732282
21
-5.693274015748031
0
LINE
8
BLACK
6
CONTINUOUS
10
5.1299466141732282
20
-5.693274015748031
11
5.1304792913385828
21
-5.6927413385826773
0
LINE
8
BLACK
6
CONTINUOUS
10
5.1304792913385828
20
-5.6927413385826773
11
5.1308559448818896
21
-5.692666417322835
0
LINE
8
BLACK
6
CONTINUOUS
10
5.1308559448818896
20
-5.692666417322835
11
5.3418795669291335
21
-5.692666417322835
0
LINE
8
BLACK
6
CONTINUOUS
10
5.3418795669291335
20
-5.692666417322835
11
5.3422562204724411
21
-5.6927413385826773
0
LINE
8
BLACK
6
CONTINUOUS
10
5.1318401968503933
20
-5.6946349212598424
11
5.1318401968503933
21
-5.7369577559055118
0
LINE
8
BLACK
6
CONTINUOUS
10
5.1318401968503933
20
-5.7369577559055118
11
5.131765275590551
21
-5.7373344094488186
0
LINE
8
BLACK
6
CONTINUOUS
10
5.131765275590551
20
-5.7373344094488186
11
5.1312325984251963
21
-5.7378670866141732
0
LINE
8
BLACK
6
CONTINUOUS
10
5.1312325984251963
20
-5.7378670866141732
11
5.1308559448818896
21
-5.7379420078740155
0
LINE
8
BLACK
6
CONTINUOUS
10
5.1308559448818896
20
-5.7379420078740155
11
5.0550685433070868
21
-5.7379420078740155
0
LINE
8
BLACK
6
CONTINUOUS
10
5.0550685433070868
20
-5.7379420078740155
11
5.0550685433070868
21
-5.7999498818897637
0
LINE
8
BLACK
6
CONTINUOUS
10
5.0550685433070868
20
-5.7999498818897637
11
5.0549936220472436
21
-5.8003265354330704
0
LINE
8
BLACK
6
CONTINUOUS
10
5.0549936220472436
20
-5.8003265354330704
11
5.0544609448818898
21
-5.8008592125984251
0
LINE
8
BLACK
6
CONTINUOUS
10
5.0544609448818898
20
-5.8008592125984251
11
5.0540842913385822
21
-5.8009341338582674
0
LINE
8
BLACK
6
CONTINUOUS
10
5.0540842913385822
20
-5.8009341338582674
11
5.051131535433071
21
-5.8009341338582674
0
LINE
8
BLACK
6
CONTINUOUS
10
5.051131535433071
20
-5.8009341338582674
11
5.051131535433071
21
-5.9446349212598424
0
LINE
8
BLACK
6
CONTINUOUS
10
5.051131535433071
20
-5.9446349212598424
11
5.1282968897637797
21
-5.9446349212598424
0
LINE
8
BLACK
6
CONTINUOUS
10
5.1282968897637797
20
-5.9446349212598424
11
5.1282968897637797
21
-5.9357766535433072
0
LINE
8
BLACK
6
CONTINUOUS
10
5.1282968897637797
20
-5.9357766535433072
11
5.1283718110236221
21
-5.9353999999999996
0
LINE
8
BLACK
6
CONTINUOUS
10
5.1283718110236221
20
-5.9353999999999996
11
5.1289044881889758
21
-5.9348673228346458
0
LINE
8
BLACK
6
CONTINUOUS
10
5.1289044881889758
20
-5.9348673228346458
11
5.1292811417322834
21
-5.9347924015748026
0
LINE
8
BLACK
6
CONTINUOUS
10
5.1292811417322834
20
-5.9347924015748026
11
5.3434543700787405
21
-5.9347924015748026
0
LINE
8
BLACK
6
CONTINUOUS
10
5.3434543700787405
20
-5.9347924015748026
11
5.3438310236220472
21
-5.9348673228346458
0
LINE
8
BLACK
6
CONTINUOUS
10
5.3438310236220472
20
-5.9348673228346458
11
5.3443637007874019
21
-5.9353999999999996
0
LINE
8
BLACK
6
CONTINUOUS
10
5.3443637007874019
20
-5.9353999999999996
11
5.3444386220472442
21
-5.9357766535433072
0
LINE
8
BLACK
6
CONTINUOUS
10
5.3444386220472442
20
-5.9357766535433072
11
5.3444386220472442
21
-5.9446349212598424
0
LINE
8
BLACK
6
CONTINUOUS
10
5.3444386220472442
20
-5.9446349212598424
11
5.4216039763779529
21
-5.9446349212598424
0
LINE
8
BLACK
6
CONTINUOUS
10
5.4216039763779529
20
-5.9446349212598424
11
5.4216039763779529
21
-5.8009341338582674
0
LINE
8
BLACK
6
CONTINUOUS
10
5.4216039763779529
20
-5.8009341338582674
11
5.4186512204724409
21
-5.8009341338582674
0
LINE
8
BLACK
6
CONTINUOUS
10
5.4186512204724409
20
-5.8009341338582674
11
5.4182745669291341
21
-5.8008592125984251
0
LINE
8
BLACK
6
CONTINUOUS
10
5.4182745669291341
20
-5.8008592125984251
11
5.4177418897637795
21
-5.8003265354330704
0
LINE
8
BLACK
6
CONTINUOUS
10
5.4177418897637795
20
-5.8003265354330704
11
5.4176669685039371
21
-5.7999498818897637
0
LINE
8
BLACK
6
CONTINUOUS
10
5.4176669685039371
20
-5.7999498818897637
11
5.4176669685039371
21
-5.7379420078740155
0
LINE
8
BLACK
6
CONTINUOUS
10
5.4176669685039371
20
-5.7379420078740155
11
5.3418795669291335
21
-5.7379420078740155
0
LINE
8
BLACK
6
CONTINUOUS
10
5.3418795669291335
20
-5.7379420078740155
11
5.3415029133858267
21
-5.7378670866141732
0
LINE
8
BLACK
6
CONTINUOUS
10
5.3415029133858267
20
-5.7378670866141732
11
5.3409702362204721
21
-5.7373344094488186
0
LINE
8
BLACK
6
CONTINUOUS
10
5.3409702362204721
20
-5.7373344094488186
11
5.3408953149606297
21
-5.7369577559055118
0
LINE
8
BLACK
6
CONTINUOUS
10
5.3408953149606297
20
-5.7369577559055118
11
5.3408953149606297
21
-5.6946349212598424
0
LINE
8
BLACK
6
CONTINUOUS
10
5.3408953149606297
20
-5.6946349212598424
11
5.1318401968503933
21
-5.6946349212598424
0
LINE
8
BLACK
6
CONTINUOUS
10
4.8339885039370074
20
-5.8640011811023625
11
4.8345211811023621
21
-5.8645338582677162
0
LINE
8
BLACK
6
CONTINUOUS
10
4.8345211811023621
20
-5.8645338582677162
11
4.8345961023622044
21
-5.8649105118110239
0
LINE
8
BLACK
6
CONTINUOUS
10
4.8345961023622044
20
-5.8649105118110239
11
4.8345961023622044
21
-5.9397136614173229
0
LINE
8
BLACK
6
CONTINUOUS
10
4.8345961023622044
20
-5.9397136614173229
11
4.8345211811023621
21
-5.9400903149606297
0
LINE
8
BLACK
6
CONTINUOUS
10
4.8345211811023621
20
-5.9400903149606297
11
4.8339885039370074
21
-5.9406229921259843
0
LINE
8
BLACK
6
CONTINUOUS
10
4.8339885039370074
20
-5.9406229921259843
11
4.8336118503937007
21
-5.9406979133858266
0
LINE
8
BLACK
6
CONTINUOUS
10
4.8336118503937007
20
-5.9406979133858266
11
4.7013283858267716
21
-5.9406979133858266
0
LINE
8
BLACK
6
CONTINUOUS
10
4.7013283858267716
20
-5.9406979133858266
11
4.7009517322834649
21
-5.9406229921259843
0
LINE
8
BLACK
6
CONTINUOUS
10
4.7009517322834649
20
-5.9406229921259843
11
4.7004190551181102
21
-5.9400903149606297
0
LINE
8
BLACK
6
CONTINUOUS
10
4.7004190551181102
20
-5.9400903149606297
11
4.7003441338582679
21
-5.9397136614173229
0
LINE
8
BLACK
6
CONTINUOUS
10
4.7003441338582679
20
-5.9397136614173229
11
4.7003441338582679
21
-5.8649105118110239
0
LINE
8
BLACK
6
CONTINUOUS
10
4.7003441338582679
20
-5.8649105118110239
11
4.7004190551181102
21
-5.8645338582677162
0
LINE
8
BLACK
6
CONTINUOUS
10
4.7004190551181102
20
-5.8645338582677162
11
4.7009517322834649
21
-5.8640011811023625
0
LINE
8
BLACK
6
CONTINUOUS
10
4.7009517322834649
20
-5.8640011811023625
11
4.7013283858267716
21
-5.8639262598425193
0
LINE
8
BLACK
6
CONTINUOUS
10
4.7013283858267716
20
-5.8639262598425193
11
4.8336118503937007
21
-5.8639262598425193
0
LINE
8
BLACK
6
CONTINUOUS
10
4.8336118503937007
20
-5.8639262598425193
11
4.8339885039370074
21
-5.8640011811023625
0
LINE
8
BLACK
6
CONTINUOUS
10
4.7023126377952753
20
-5.8658947637795276
11
4.7023126377952753
21
-5.9387294094488183
0
LINE
8
BLACK
6
CONTINUOUS
10
4.7023126377952753
20
-5.9387294094488183
11
4.832627598425197
21
-5.9387294094488183
0
LINE
8
BLACK
6
CONTINUOUS
10
4.832627598425197
20
-5.9387294094488183
11
4.832627598425197
21
-5.8658947637795276
0
LINE
8
BLACK
6
CONTINUOUS
10
4.832627598425197
20
-5.8658947637795276
11
4.7023126377952753
21
-5.8658947637795276
0
LINE
8
BLACK
6
CONTINUOUS
10
5.0091853543307083
20
-5.7549460629921256
11
5.009718031496063
21
-5.7554787401574803
0
LINE
8
BLACK
6
CONTINUOUS
10
5.009718031496063
20
-5.7554787401574803
11
5.0097929527559053
21
-5.755855393700787
0
LINE
8
BLACK
6
CONTINUOUS
10
5.0097929527559053
20
-5.755855393700787
11
5.0097929527559053
21
-5.8330207480314957
0
LINE
8
BLACK
6
CONTINUOUS
10
5.0097929527559053
20
-5.8330207480314957
11
5.009718031496063
21
-5.8333974015748034
0
LINE
8
BLACK
6
CONTINUOUS
10
5.009718031496063
20
-5.8333974015748034
11
5.0091853543307083
21
-5.8339300787401571
0
LINE
8
BLACK
6
CONTINUOUS
10
5.0091853543307083
20
-5.8339300787401571
11
5.0088087007874016
21
-5.8340049999999994
0
LINE
8
BLACK
6
CONTINUOUS
10
5.0088087007874016
20
-5.8340049999999994
11
4.8749504330708664
21
-5.8340049999999994
0
LINE
8
BLACK
6
CONTINUOUS
10
4.8749504330708664
20
-5.8340049999999994
11
4.8745737795275588
21
-5.8339300787401571
0
LINE
8
BLACK
6
CONTINUOUS
10
4.8745737795275588
20
-5.8339300787401571
11
4.874041102362205
21
-5.8333974015748034
0
LINE
8
BLACK
6
CONTINUOUS
10
4.874041102362205
20
-5.8333974015748034
11
4.8739661811023618
21
-5.8330207480314957
0
LINE
8
BLACK
6
CONTINUOUS
10
4.8739661811023618
20
-5.8330207480314957
11
4.8739661811023618
21
-5.755855393700787
0
LINE
8
BLACK
6
CONTINUOUS
10
4.8739661811023618
20
-5.755855393700787
11
4.874041102362205
21
-5.7554787401574803
0
LINE
8
BLACK
6
CONTINUOUS
10
4.874041102362205
20
-5.7554787401574803
11
4.8745737795275588
21
-5.7549460629921256
0
LINE
8
BLACK
6
CONTINUOUS
10
4.8745737795275588
20
-5.7549460629921256
11
4.8749504330708664
21
-5.7548711417322833
0
LINE
8
BLACK
6
CONTINUOUS
10
4.8749504330708664
20
-5.7548711417322833
11
5.0088087007874016
21
-5.7548711417322833
0
LINE
8
BLACK
6
CONTINUOUS
10
5.0088087007874016
20
-5.7548711417322833
11
5.0091853543307083
21
-5.7549460629921256
0
LINE
8
BLACK
6
CONTINUOUS
10
4.8759346850393701
20
-5.7568396456692916
11
4.8759346850393701
21
-5.832036496062992
0
LINE
8
BLACK
6
CONTINUOUS
10
4.8759346850393701
20
-5.832036496062992
11
5.0078244488188979
21
-5.832036496062992
0
LINE
8
BLACK
6
CONTINUOUS
10
5.0078244488188979
20
-5.832036496062992
11
5.0078244488188979
21
-5.7568396456692916
0
LINE
8
BLACK
6
CONTINUOUS
10
5.0078244488188979
20
-5.7568396456692916
11
4.8759346850393701
21
-5.7568396456692916
0
LINE
8
BLACK
6
CONTINUOUS
10
4.8339885039370074
20
-5.7478594488188977
11
4.8345211811023621
21
-5.7483921259842514
0
LINE
8
BLACK
6
CONTINUOUS
10
4.8345211811023621
20
-5.7483921259842514
11
4.8345961023622044
21
-5.748768779527559
0
LINE
8
BLACK
6
CONTINUOUS
10
4.8345961023622044
20
-5.748768779527559
11
4.8345961023622044
21
-5.8235719291338581
0
LINE
8
BLACK
6
CONTINUOUS
10
4.8345961023622044
20
-5.8235719291338581
11
4.8345211811023621
21
-5.8239485826771649
0
LINE
8
BLACK
6
CONTINUOUS
10
4.8345211811023621
20
-5.8239485826771649
11
4.8339885039370074
21
-5.8244812598425195
0
LINE
8
BLACK
6
CONTINUOUS
10
4.8339885039370074
20
-5.8244812598425195
11
4.8336118503937007
21
-5.8245561811023618
0
LINE
8
BLACK
6
CONTINUOUS
10
4.8336118503937007
20
-5.8245561811023618
11
4.7013283858267716
21
-5.8245561811023618
0
LINE
8
BLACK
6
CONTINUOUS
10
4.7013283858267716
20
-5.8245561811023618
11
4.7009517322834649
21
-5.8244812598425195
0
LINE
8
BLACK
6
CONTINUOUS
10
4.7009517322834649
20
-5.8244812598425195
11
4.7004190551181102
21
-5.8239485826771649
0
LINE
8
BLACK
6
CONTINUOUS
10
4.7004190551181102
20
-5.8239485826771649
11
4.7003441338582679
21
-5.8235719291338581
0
LINE
8
BLACK
6
CONTINUOUS
10
4.7003441338582679
20
-5.8235719291338581
11
4.7003441338582679
21
-5.748768779527559
0
LINE
8
BLACK
6
CONTINUOUS
10
4.7003441338582679
20
-5.748768779527559
11
4.7004190551181102
21
-5.7483921259842514
0
LINE
8
BLACK
6
CONTINUOUS
10
4.7004190551181102
20
-5.7483921259842514
11
4.7009517322834649
21
-5.7478594488188977
0
LINE
8
BLACK
6
CONTINUOUS
10
4.7009517322834649
20
-5.7478594488188977
11
4.7013283858267716
21
-5.7477845275590553
0
LINE
8
BLACK
6
CONTINUOUS
10
4.7013283858267716
20
-5.7477845275590553
11
4.8336118503937007
21
-5.7477845275590553
0
LINE
8
BLACK
6
CONTINUOUS
10
4.8336118503937007
20
-5.7477845275590553
11
4.8339885039370074
21
-5.7478594488188977
0
LINE
8
BLACK
6
CONTINUOUS
10
4.7023126377952753
20
-5.7497530314960628
11
4.7023126377952753
21
-5.8225876771653544
0
LINE
8
BLACK
6
CONTINUOUS
10
4.7023126377952753
20
-5.8225876771653544
11
4.832627598425197
21
-5.8225876771653544
0
LINE
8
BLACK
6
CONTINUOUS
10
4.832627598425197
20
-5.8225876771653544
11
4.832627598425197
21
-5.7497530314960628
0
LINE
8
BLACK
6
CONTINUOUS
10
4.832627598425197
20
-5.7497530314960628
11
4.7023126377952753
21
-5.7497530314960628
0
LINE
8
BLACK
6
CONTINUOUS
10
5.0091853543307083
20
-5.6364421259842521
11
5.009718031496063
21
-5.6369748031496059
0
LINE
8
BLACK
6
CONTINUOUS
10
5.009718031496063
20
-5.6369748031496059
11
5.0097929527559053
21
-5.6373514566929135
0
LINE
8
BLACK
6
CONTINUOUS
10
5.0097929527559053
20
-5.6373514566929135
11
5.0097929527559053
21
-5.7145168110236222
0
LINE
8
BLACK
6
CONTINUOUS
10
5.0097929527559053
20
-5.7145168110236222
11
5.009718031496063
21
-5.7148934645669289
0
LINE
8
BLACK
6
CONTINUOUS
10
5.009718031496063
20
-5.7148934645669289
11
5.0091853543307083
21
-5.7154261417322836
0
LINE
8
BLACK
6
CONTINUOUS
10
5.0091853543307083
20
-5.7154261417322836
11
5.0088087007874016
21
-5.7155010629921259
0
LINE
8
BLACK
6
CONTINUOUS
10
5.0088087007874016
20
-5.7155010629921259
11
4.8749504330708664
21
-5.7155010629921259
0
LINE
8
BLACK
6
CONTINUOUS
10
4.8749504330708664
20
-5.7155010629921259
11
4.8745737795275588
21
-5.7154261417322836
0
LINE
8
BLACK
6
CONTINUOUS
10
4.8745737795275588
20
-5.7154261417322836
11
4.874041102362205
21
-5.7148934645669289
0
LINE
8
BLACK
6
CONTINUOUS
10
4.874041102362205
20
-5.7148934645669289
11
4.8739661811023618
21
-5.7145168110236222
0
LINE
8
BLACK
6
CONTINUOUS
10
4.8739661811023618
20
-5.7145168110236222
11
4.8739661811023618
21
-5.6373514566929135
0
LINE
8
BLACK
6
CONTINUOUS
10
4.8739661811023618
20
-5.6373514566929135
11
4.874041102362205
21
-5.6369748031496059
0
LINE
8
BLACK
6
CONTINUOUS
10
4.874041102362205
20
-5.6369748031496059
11
4.8745737795275588
21
-5.6364421259842521
0
LINE
8
BLACK
6
CONTINUOUS
10
4.8745737795275588
20
-5.6364421259842521
11
4.8749504330708664
21
-5.6363672047244089
0
LINE
8
BLACK
6
CONTINUOUS
10
4.8749504330708664
20
-5.6363672047244089
11
5.0088087007874016
21
-5.6363672047244089
0
LINE
8
BLACK
6
CONTINUOUS
10
5.0088087007874016
20
-5.6363672047244089
11
5.0091853543307083
21
-5.6364421259842521
0
LINE
8
BLACK
6
CONTINUOUS
10
4.8759346850393701
20
-5.6383357086614172
11
4.8759346850393701
21
-5.7135325590551176
0
LINE
8
BLACK
6
CONTINUOUS
10
4.8759346850393701
20
-5.7135325590551176
11
5.0078244488188979
21
-5.7135325590551176
0
LINE
8
BLACK
6
CONTINUOUS
10
5.0078244488188979
20
-5.7135325590551176
11
5.0078244488188979
21
-5.6383357086614172
0
LINE
8
BLACK
6
CONTINUOUS
10
5.0078244488188979
20
-5.6383357086614172
11
4.8759346850393701
21
-5.6383357086614172
0
LINE
8
BLACK
6
CONTINUOUS
10
4.8339885039370074
20
-5.6317177165354328
11
4.8345211811023621
21
-5.6322503937007875
0
LINE
8
BLACK
6
CONTINUOUS
10
4.8345211811023621
20
-5.6322503937007875
11
4.8345961023622044
21
-5.6326270472440942
0
LINE
8
BLACK
6
CONTINUOUS
10
4.8345961023622044
20
-5.6326270472440942
11
4.8345961023622044
21
-5.7074301968503933
0
LINE
8
BLACK
6
CONTINUOUS
10
4.8345961023622044
20
-5.7074301968503933
11
4.8345211811023621
21
-5.7078068503937009
0
LINE
8
BLACK
6
CONTINUOUS
10
4.8345211811023621
20
-5.7078068503937009
11
4.8339885039370074
21
-5.7083395275590547
0
LINE
8
BLACK
6
CONTINUOUS
10
4.8339885039370074
20
-5.7083395275590547
11
4.8336118503937007
21
-5.7084144488188979
0
LINE
8
BLACK
6
CONTINUOUS
10
4.8336118503937007
20
-5.7084144488188979
11
4.7013283858267716
21
-5.7084144488188979
0
LINE
8
BLACK
6
CONTINUOUS
10
4.7013283858267716
20
-5.7084144488188979
11
4.7009517322834649
21
-5.7083395275590547
0
LINE
8
BLACK
6
CONTINUOUS
10
4.7009517322834649
20
-5.7083395275590547
11
4.7004190551181102
21
-5.7078068503937009
0
LINE
8
BLACK
6
CONTINUOUS
10
4.7004190551181102
20
-5.7078068503937009
11
4.7003441338582679
21
-5.7074301968503933
0
LINE
8
BLACK
6
CONTINUOUS
10
4.7003441338582679
20
-5.7074301968503933
11
4.7003441338582679
21
-5.6326270472440942
0
LINE
8
BLACK
6
CONTINUOUS
10
4.7003441338582679
20
-5.6326270472440942
11
4.7004190551181102
21
-5.6322503937007875
0
LINE
8
BLACK
6
CONTINUOUS
10
4.7004190551181102
20
-5.6322503937007875
11
4.7009517322834649
21
-5.6317177165354328
0
LINE
8
BLACK
6
CONTINUOUS
10
4.7009517322834649
20
-5.6317177165354328
11
4.7013283858267716
21
-5.6316427952755905
0
LINE
8
BLACK
6
CONTINUOUS
10
4.7013283858267716
20
-5.6316427952755905
11
4.8336118503937007
21
-5.6316427952755905
0
LINE
8
BLACK
6
CONTINUOUS
10
4.8336118503937007
20
-5.6316427952755905
11
4.8339885039370074
21
-5.6317177165354328
0
LINE
8
BLACK
6
CONTINUOUS
10
4.7023126377952753
20
-5.633611299212598
11
4.7023126377952753
21
-5.7064459448818896
0
LINE
8
BLACK
6
CONTINUOUS
10
4.7023126377952753
20
-5.7064459448818896
11
4.832627598425197
21
-5.7064459448818896
0
LINE
8
BLACK
6
CONTINUOUS
10
4.832627598425197
20
-5.7064459448818896
11
4.832627598425197
21
-5.633611299212598
0
LINE
8
BLACK
6
CONTINUOUS
10
4.832627598425197
20
-5.633611299212598
11
4.7023126377952753
21
-5.633611299212598
0
LINE
8
BLACK
6
CONTINUOUS
10
5.4895003149606296
20
-5.3994342519685041
11
5.4900329921259843
21
-5.3999669291338579
0
LINE
8
BLACK
6
CONTINUOUS
10
5.4900329921259843
20
-5.3999669291338579
11
5.4901079133858266
21
-5.4003435826771655
0
LINE
8
BLACK
6
CONTINUOUS
10
5.4901079133858266
20
-5.4003435826771655
11
5.4901079133858266
21
-5.442666417322835
0
LINE
8
BLACK
6
CONTINUOUS
10
5.4901079133858266
20
-5.442666417322835
11
5.5658953149606294
21
-5.442666417322835
0
LINE
8
BLACK
6
CONTINUOUS
10
5.5658953149606294
20
-5.442666417322835
11
5.566271968503937
21
-5.4427413385826773
0
LINE
8
BLACK
6
CONTINUOUS
10
5.566271968503937
20
-5.4427413385826773
11
5.5668046456692908
21
-5.443274015748031
0
LINE
8
BLACK
6
CONTINUOUS
10
5.5668046456692908
20
-5.443274015748031
11
5.566879566929134
21
-5.4436506692913387
0
LINE
8
BLACK
6
CONTINUOUS
10
5.566879566929134
20
-5.4436506692913387
11
5.566879566929134
21
-5.5056585433070868
0
LINE
8
BLACK
6
CONTINUOUS
10
5.566879566929134
20
-5.5056585433070868
11
5.5698323228346451
21
-5.5056585433070868
0
LINE
8
BLACK
6
CONTINUOUS
10
5.5698323228346451
20
-5.5056585433070868
11
5.5702089763779528
21
-5.5057334645669291
0
LINE
8
BLACK
6
CONTINUOUS
10
5.5702089763779528
20
-5.5057334645669291
11
5.5707416535433065
21
-5.5062661417322829
0
LINE
8
BLACK
6
CONTINUOUS
10
5.5707416535433065
20
-5.5062661417322829
11
5.5708165748031497
21
-5.5066427952755905
0
LINE
8
BLACK
6
CONTINUOUS
10
5.5708165748031497
20
-5.5066427952755905
11
5.5708165748031497
21
-5.6523120866141729
0
LINE
8
BLACK
6
CONTINUOUS
10
5.5708165748031497
20
-5.6523120866141729
11
5.5707416535433065
21
-5.6526887401574806
0
LINE
8
BLACK
6
CONTINUOUS
10
5.5707416535433065
20
-5.6526887401574806
11
5.5702089763779528
21
-5.6532214173228343
0
LINE
8
BLACK
6
CONTINUOUS
10
5.5702089763779528
20
-5.6532214173228343
11
5.5698323228346451
21
-5.6532963385826767
0
LINE
8
BLACK
6
CONTINUOUS
10
5.5698323228346451
20
-5.6532963385826767
11
5.4910921653543303
21
-5.6532963385826767
0
LINE
8
BLACK
6
CONTINUOUS
10
5.4910921653543303
20
-5.6532963385826767
11
5.4907155118110236
21
-5.6532214173228343
0
LINE
8
BLACK
6
CONTINUOUS
10
5.4907155118110236
20
-5.6532214173228343
11
5.4901828346456689
21
-5.6526887401574806
0
LINE
8
BLACK
6
CONTINUOUS
10
5.4901828346456689
20
-5.6526887401574806
11
5.4901079133858266
21
-5.6523120866141729
0
LINE
8
BLACK
6
CONTINUOUS
10
5.4901079133858266
20
-5.6523120866141729
11
5.4901079133858266
21
-5.6434538188976378
0
LINE
8
BLACK
6
CONTINUOUS
10
5.4901079133858266
20
-5.6434538188976378
11
5.1298716929133858
21
-5.6434538188976378
0
LINE
8
BLACK
6
CONTINUOUS
10
5.1298716929133858
20
-5.6434538188976378
11
5.1298716929133858
21
-5.6523120866141729
0
LINE
8
BLACK
6
CONTINUOUS
10
5.1298716929133858
20
-5.6523120866141729
11
5.1297967716535435
21
-5.6526887401574806
0
LINE
8
BLACK
6
CONTINUOUS
10
5.1297967716535435
20
-5.6526887401574806
11
5.1292640944881889
21
-5.6532214173228343
0
LINE
8
BLACK
6
CONTINUOUS
10
5.1292640944881889
20
-5.6532214173228343
11
5.1288874409448821
21
-5.6532963385826767
0
LINE
8
BLACK
6
CONTINUOUS
10
5.1288874409448821
20
-5.6532963385826767
11
5.0501472834645664
21
-5.6532963385826767
0
LINE
8
BLACK
6
CONTINUOUS
10
5.0501472834645664
20
-5.6532963385826767
11
5.0497706299212597
21
-5.6532214173228343
0
LINE
8
BLACK
6
CONTINUOUS
10
5.0497706299212597
20
-5.6532214173228343
11
5.049237952755905
21
-5.6526887401574806
0
LINE
8
BLACK
6
CONTINUOUS
10
5.049237952755905
20
-5.6526887401574806
11
5.0491630314960627
21
-5.6523120866141729
0
LINE
8
BLACK
6
CONTINUOUS
10
5.0491630314960627
20
-5.6523120866141729
11
5.0491630314960627
21
-5.5066427952755905
0
LINE
8
BLACK
6
CONTINUOUS
10
5.0491630314960627
20
-5.5066427952755905
11
5.049237952755905
21
-5.5062661417322829
0
LINE
8
BLACK
6
CONTINUOUS
10
5.049237952755905
20
-5.5062661417322829
11
5.0497706299212597
21
-5.5057334645669291
0
LINE
8
BLACK
6
CONTINUOUS
10
5.0497706299212597
20
-5.5057334645669291
11
5.0501472834645664
21
-5.5056585433070868
0
LINE
8
BLACK
6
CONTINUOUS
10
5.0501472834645664
20
-5.5056585433070868
11
5.0531000393700785
21
-5.5056585433070868
0
LINE
8
BLACK
6
CONTINUOUS
10
5.0531000393700785
20
-5.5056585433070868
11
5.0531000393700785
21
-5.4436506692913387
0
LINE
8
BLACK
6
CONTINUOUS
10
5.0531000393700785
20
-5.4436506692913387
11
5.0531749606299208
21
-5.443274015748031
0
LINE
8
BLACK
6
CONTINUOUS
10
5.0531749606299208
20
-5.443274015748031
11
5.0537076377952754
21
-5.4427413385826773
0
LINE
8
BLACK
6
CONTINUOUS
10
5.0537076377952754
20
-5.4427413385826773
11
5.0540842913385822
21
-5.442666417322835
0
LINE
8
BLACK
6
CONTINUOUS
10
5.0540842913385822
20
-5.442666417322835
11
5.1298716929133858
21
-5.442666417322835
0
LINE
8
BLACK
6
CONTINUOUS
10
5.1298716929133858
20
-5.442666417322835
11
5.1298716929133858
21
-5.4003435826771655
0
LINE
8
BLACK
6
CONTINUOUS
10
5.1298716929133858
20
-5.4003435826771655
11
5.1299466141732282
21
-5.3999669291338579
0
LINE
8
BLACK
6
CONTINUOUS
10
5.1299466141732282
20
-5.3999669291338579
11
5.1304792913385828
21
-5.3994342519685041
0
LINE
8
BLACK
6
CONTINUOUS
10
5.1304792913385828
20
-5.3994342519685041
11
5.1308559448818896
21
-5.3993593307086609
0
LINE
8
BLACK
6
CONTINUOUS
10
5.1308559448818896
20
-5.3993593307086609
11
5.4891236614173229
21
-5.3993593307086609
0
LINE
8
BLACK
6
CONTINUOUS
10
5.4891236614173229
20
-5.3993593307086609
11
5.4895003149606296
21
-5.3994342519685041
0
LINE
8
BLACK
6
CONTINUOUS
10
5.1318401968503933
20
-5.4013278346456692
11
5.1318401968503933
21
-5.4436506692913387
0
LINE
8
BLACK
6
CONTINUOUS
10
5.1318401968503933
20
-5.4436506692913387
11
5.131765275590551
21
-5.4440273228346454
0
LINE
8
BLACK
6
CONTINUOUS
10
5.131765275590551
20
-5.4440273228346454
11
5.1312325984251963
21
-5.4445600000000001
0
LINE
8
BLACK
6
CONTINUOUS
10
5.1312325984251963
20
-5.4445600000000001
11
5.1308559448818896
21
-5.4446349212598424
0
LINE
8
BLACK
6
CONTINUOUS
10
5.1308559448818896
20
-5.4446349212598424
11
5.0550685433070868
21
-5.4446349212598424
0
LINE
8
BLACK
6
CONTINUOUS
10
5.0550685433070868
20
-5.4446349212598424
11
5.0550685433070868
21
-5.5066427952755905
0
LINE
8
BLACK
6
CONTINUOUS
10
5.0550685433070868
20
-5.5066427952755905
11
5.0549936220472436
21
-5.5070194488188973
0
LINE
8
BLACK
6
CONTINUOUS
10
5.0549936220472436
20
-5.5070194488188973
11
5.0544609448818898
21
-5.5075521259842519
0
LINE
8
BLACK
6
CONTINUOUS
10
5.0544609448818898
20
-5.5075521259842519
11
5.0540842913385822
21
-5.5076270472440942
0
LINE
8
BLACK
6
CONTINUOUS
10
5.0540842913385822
20
-5.5076270472440942
11
5.051131535433071
21
-5.5076270472440942
0
LINE
8
BLACK
6
CONTINUOUS
10
5.051131535433071
20
-5.5076270472440942
11
5.051131535433071
21
-5.6513278346456692
0
LINE
8
BLACK
6
CONTINUOUS
10
5.051131535433071
20
-5.6513278346456692
11
5.1279031889763775
21
-5.6513278346456692
0
LINE
8
BLACK
6
CONTINUOUS
10
5.1279031889763775
20
-5.6513278346456692
11
5.1279031889763775
21
-5.642469566929134
0
LINE
8
BLACK
6
CONTINUOUS
10
5.1279031889763775
20
-5.642469566929134
11
5.1279781102362207
21
-5.6420929133858264
0
LINE
8
BLACK
6
CONTINUOUS
10
5.1279781102362207
20
-5.6420929133858264
11
5.1285107874015745
21
-5.6415602362204726
0
LINE
8
BLACK
6
CONTINUOUS
10
5.1285107874015745
20
-5.6415602362204726
11
5.1288874409448821
21
-5.6414853149606294
0
LINE
8
BLACK
6
CONTINUOUS
10
5.1288874409448821
20
-5.6414853149606294
11
5.4910921653543303
21
-5.6414853149606294
0
LINE
8
BLACK
6
CONTINUOUS
10
5.4910921653543303
20
-5.6414853149606294
11
5.4914688188976379
21
-5.6415602362204726
0
LINE
8
BLACK
6
CONTINUOUS
10
5.4914688188976379
20
-5.6415602362204726
11
5.4920014960629917
21
-5.6420929133858264
0
LINE
8
BLACK
6
CONTINUOUS
10
5.4920014960629917
20
-5.6420929133858264
11
5.4920764173228349
21
-5.642469566929134
0
LINE
8
BLACK
6
CONTINUOUS
10
5.4920764173228349
20
-5.642469566929134
11
5.4920764173228349
21
-5.6513278346456692
0
LINE
8
BLACK
6
CONTINUOUS
10
5.4920764173228349
20
-5.6513278346456692
11
5.5688480708661414
21
-5.6513278346456692
0
LINE
8
BLACK
6
CONTINUOUS
10
5.5688480708661414
20
-5.6513278346456692
11
5.5688480708661414
21
-5.5076270472440942
0
LINE
8
BLACK
6
CONTINUOUS
10
5.5688480708661414
20
-5.5076270472440942
11
5.5658953149606294
21
-5.5076270472440942
0
LINE
8
BLACK
6
CONTINUOUS
10
5.5658953149606294
20
-5.5076270472440942
11
5.5655186614173227
21
-5.5075521259842519
0
LINE
8
BLACK
6
CONTINUOUS
10
5.5655186614173227
20
-5.5075521259842519
11
5.564985984251968
21
-5.5070194488188973
0
LINE
8
BLACK
6
CONTINUOUS
10
5.564985984251968
20
-5.5070194488188973
11
5.5649110629921257
21
-5.5066427952755905
0
LINE
8
BLACK
6
CONTINUOUS
10
5.5649110629921257
20
-5.5066427952755905
11
5.5649110629921257
21
-5.4446349212598424
0
LINE
8
BLACK
6
CONTINUOUS
10
5.5649110629921257
20
-5.4446349212598424
11
5.4891236614173229
21
-5.4446349212598424
0
LINE
8
BLACK
6
CONTINUOUS
10
5.4891236614173229
20
-5.4446349212598424
11
5.4887470078740153
21
-5.4445600000000001
0
LINE
8
BLACK
6
CONTINUOUS
10
5.4887470078740153
20
-5.4445600000000001
11
5.4882143307086615
21
-5.4440273228346454
0
LINE
8
BLACK
6
CONTINUOUS
10
5.4882143307086615
20
-5.4440273228346454
11
5.4881394094488192
21
-5.4436506692913387
0
LINE
8
BLACK
6
CONTINUOUS
10
5.4881394094488192
20
-5.4436506692913387
11
5.4881394094488192
21
-5.4013278346456692
0
LINE
8
BLACK
6
CONTINUOUS
10
5.4881394094488192
20
-5.4013278346456692
11
5.1318401968503933
21
-5.4013278346456692
0
LINE
8
BLACK
6
CONTINUOUS
10
5.0091853543307083
20
-5.5179381889763777
11
5.009718031496063
21
-5.5184708661417323
0
LINE
8
BLACK
6
CONTINUOUS
10
5.009718031496063
20
-5.5184708661417323
11
5.0097929527559053
21
-5.5188475196850391
0
LINE
8
BLACK
6
CONTINUOUS
10
5.0097929527559053
20
-5.5188475196850391
11
5.0097929527559053
21
-5.5960128740157478
0
LINE
8
BLACK
6
CONTINUOUS
10
5.0097929527559053
20
-5.5960128740157478
11
5.009718031496063
21
-5.5963895275590554
0
LINE
8
BLACK
6
CONTINUOUS
10
5.009718031496063
20
-5.5963895275590554
11
5.0091853543307083
21
-5.5969222047244092
0
LINE
8
BLACK
6
CONTINUOUS
10
5.0091853543307083
20
-5.5969222047244092
11
5.0088087007874016
21
-5.5969971259842515
0
LINE
8
BLACK
6
CONTINUOUS
10
5.0088087007874016
20
-5.5969971259842515
11
4.8749504330708664
21
-5.5969971259842515
0
LINE
8
BLACK
6
CONTINUOUS
10
4.8749504330708664
20
-5.5969971259842515
11
4.8745737795275588
21
-5.5969222047244092
0
LINE
8
BLACK
6
CONTINUOUS
10
4.8745737795275588
20
-5.5969222047244092
11
4.874041102362205
21
-5.5963895275590554
0
LINE
8
BLACK
6
CONTINUOUS
10
4.874041102362205
20
-5.5963895275590554
11
4.8739661811023618
21
-5.5960128740157478
0
LINE
8
BLACK
6
CONTINUOUS
10
4.8739661811023618
20
-5.5960128740157478
11
4.8739661811023618
21
-5.5188475196850391
0
LINE
8
BLACK
6
CONTINUOUS
10
4.8739661811023618
20
-5.5188475196850391
11
4.874041102362205
21
-5.5184708661417323
0
LINE
8
BLACK
6
CONTINUOUS
10
4.874041102362205
20
-5.5184708661417323
11
4.8745737795275588
21
-5.5179381889763777
0
LINE
8
BLACK
6
CONTINUOUS
10
4.8745737795275588
20
-5.5179381889763777
11
4.8749504330708664
21
-5.5178632677165353
0
LINE
8
BLACK
6
CONTINUOUS
10
4.8749504330708664
20
-5.5178632677165353
11
5.0088087007874016
21
-5.5178632677165353
0
LINE
8
BLACK
6
CONTINUOUS
10
5.0088087007874016
20
-5.5178632677165353
11
5.0091853543307083
21
-5.5179381889763777
0
LINE
8
BLACK
6
CONTINUOUS
10
4.8759346850393701
20
-5.5198317716535428
11
4.8759346850393701
21
-5.595028622047244
0
LINE
8
BLACK
6
CONTINUOUS
10
4.8759346850393701
20
-5.595028622047244
11
5.0078244488188979
21
-5.595028622047244
0
LINE
8
BLACK
6
CONTINUOUS
10
5.0078244488188979
20
-5.595028622047244
11
5.0078244488188979
21
-5.5198317716535428
0
LINE
8
BLACK
6
CONTINUOUS
10
5.0078244488188979
20
-5.5198317716535428
11
4.8759346850393701
21
-5.5198317716535428
0
LINE
8
BLACK
6
CONTINUOUS
10
4.8339885039370074
20
-5.515575984251968
11
4.8345211811023621
21
-5.5161086614173227
0
LINE
8
BLACK
6
CONTINUOUS
10
4.8345211811023621
20
-5.5161086614173227
11
4.8345961023622044
21
-5.5164853149606294
0
LINE
8
BLACK
6
CONTINUOUS
10
4.8345961023622044
20
-5.5164853149606294
11
4.8345961023622044
21
-5.5912884645669294
0
LINE
8
BLACK
6
CONTINUOUS
10
4.8345961023622044
20
-5.5912884645669294
11
4.8345211811023621
21
-5.5916651181102361
0
LINE
8
BLACK
6
CONTINUOUS
10
4.8345211811023621
20
-5.5916651181102361
11
4.8339885039370074
21
-5.5921977952755908
0
LINE
8
BLACK
6
CONTINUOUS
10
4.8339885039370074
20
-5.5921977952755908
11
4.8336118503937007
21
-5.5922727165354331
0
LINE
8
BLACK
6
CONTINUOUS
10
4.8336118503937007
20
-5.5922727165354331
11
4.7013283858267716
21
-5.5922727165354331
0
LINE
8
BLACK
6
CONTINUOUS
10
4.7013283858267716
20
-5.5922727165354331
11
4.7009517322834649
21
-5.5921977952755908
0
LINE
8
BLACK
6
CONTINUOUS
10
4.7009517322834649
20
-5.5921977952755908
11
4.7004190551181102
21
-5.5916651181102361
0
LINE
8
BLACK
6
CONTINUOUS
10
4.7004190551181102
20
-5.5916651181102361
11
4.7003441338582679
21
-5.5912884645669294
0
LINE
8
BLACK
6
CONTINUOUS
10
4.7003441338582679
20
-5.5912884645669294
11
4.7003441338582679
21
-5.5164853149606294
0
LINE
8
BLACK
6
CONTINUOUS
10
4.7003441338582679
20
-5.5164853149606294
11
4.7004190551181102
21
-5.5161086614173227
0
LINE
8
BLACK
6
CONTINUOUS
10
4.7004190551181102
20
-5.5161086614173227
11
4.7009517322834649
21
-5.515575984251968
0
LINE
8
BLACK
6
CONTINUOUS
10
4.7009517322834649
20
-5.515575984251968
11
4.7013283858267716
21
-5.5155010629921257
0
LINE
8
BLACK
6
CONTINUOUS
10
4.7013283858267716
20
-5.5155010629921257
11
4.8336118503937007
21
-5.5155010629921257
0
LINE
8
BLACK
6
CONTINUOUS
10
4.8336118503937007
20
-5.5155010629921257
11
4.8339885039370074
21
-5.515575984251968
0
LINE
8
BLACK
6
CONTINUOUS
10
4.7023126377952753
20
-5.517469566929134
11
4.7023126377952753
21
-5.5903042125984248
0
LINE
8
BLACK
6
CONTINUOUS
10
4.7023126377952753
20
-5.5903042125984248
11
4.832627598425197
21
-5.5903042125984248
0
LINE
8
BLACK
6
CONTINUOUS
10
4.832627598425197
20
-5.5903042125984248
11
4.832627598425197
21
-5.517469566929134
0
LINE
8
BLACK
6
CONTINUOUS
10
4.832627598425197
20
-5.517469566929134
11
4.7023126377952753
21
-5.517469566929134
0
LINE
8
BLACK
6
CONTINUOUS
10
5.0091853543307083
20
-5.3994342519685041
11
5.009718031496063
21
-5.3999669291338579
0
LINE
8
BLACK
6
CONTINUOUS
10
5.009718031496063
20
-5.3999669291338579
11
5.0097929527559053
21
-5.4003435826771655
0
LINE
8
BLACK
6
CONTINUOUS
10
5.0097929527559053
20
-5.4003435826771655
11
5.0097929527559053
21
-5.4775089370078742
0
LINE
8
BLACK
6
CONTINUOUS
10
5.0097929527559053
20
-5.4775089370078742
11
5.009718031496063
21
-5.477885590551181
0
LINE
8
BLACK
6
CONTINUOUS
10
5.009718031496063
20
-5.477885590551181
11
5.0091853543307083
21
-5.4784182677165356
0
LINE
8
BLACK
6
CONTINUOUS
10
5.0091853543307083
20
-5.4784182677165356
11
5.0088087007874016
21
-5.4784931889763779
0
LINE
8
BLACK
6
CONTINUOUS
10
5.0088087007874016
20
-5.4784931889763779
11
4.8749504330708664
21
-5.4784931889763779
0
LINE
8
BLACK
6
CONTINUOUS
10
4.8749504330708664
20
-5.4784931889763779
11
4.8745737795275588
21
-5.4784182677165356
0
LINE
8
BLACK
6
CONTINUOUS
10
4.8745737795275588
20
-5.4784182677165356
11
4.874041102362205
21
-5.477885590551181
0
LINE
8
BLACK
6
CONTINUOUS
10
4.874041102362205
20
-5.477885590551181
11
4.8739661811023618
21
-5.4775089370078742
0
LINE
8
BLACK
6
CONTINUOUS
10
4.8739661811023618
20
-5.4775089370078742
11
4.8739661811023618
21
-5.4003435826771655
0
LINE
8
BLACK
6
CONTINUOUS
10
4.8739661811023618
20
-5.4003435826771655
11
4.874041102362205
21
-5.3999669291338579
0
LINE
8
BLACK
6
CONTINUOUS
10
4.874041102362205
20
-5.3999669291338579
11
4.8745737795275588
21
-5.3994342519685041
0
LINE
8
BLACK
6
CONTINUOUS
10
4.8745737795275588
20
-5.3994342519685041
11
4.8749504330708664
21
-5.3993593307086609
0
LINE
8
BLACK
6
CONTINUOUS
10
4.8749504330708664
20
-5.3993593307086609
11
5.0088087007874016
21
-5.3993593307086609
0
LINE
8
BLACK
6
CONTINUOUS
10
5.0088087007874016
20
-5.3993593307086609
11
5.0091853543307083
21
-5.3994342519685041
0
LINE
8
BLACK
6
CONTINUOUS
10
4.8759346850393701
20
-5.4013278346456692
11
4.8759346850393701
21
-5.4765246850393696
0
LINE
8
BLACK
6
CONTINUOUS
10
4.8759346850393701
20
-5.4765246850393696
11
5.0078244488188979
21
-5.4765246850393696
0
LINE
8
BLACK
6
CONTINUOUS
10
5.0078244488188979
20
-5.4765246850393696
11
5.0078244488188979
21
-5.4013278346456692
0
LINE
8
BLACK
6
CONTINUOUS
10
5.0078244488188979
20
-5.4013278346456692
11
4.8759346850393701
21
-5.4013278346456692
0
LINE
8
BLACK
6
CONTINUOUS
10
4.8339885039370074
20
-5.3994342519685041
11
4.8345211811023621
21
-5.3999669291338579
0
LINE
8
BLACK
6
CONTINUOUS
10
4.8345211811023621
20
-5.3999669291338579
11
4.8345961023622044
21
-5.4003435826771655
0
LINE
8
BLACK
6
CONTINUOUS
10
4.8345961023622044
20
-5.4003435826771655
11
4.8345961023622044
21
-5.4751467322834646
0
LINE
8
BLACK
6
CONTINUOUS
10
4.8345961023622044
20
-5.4751467322834646
11
4.8345211811023621
21
-5.4755233858267713
0
LINE
8
BLACK
6
CONTINUOUS
10
4.8345211811023621
20
-5.4755233858267713
11
4.8339885039370074
21
-5.476056062992126
0
LINE
8
BLACK
6
CONTINUOUS
10
4.8339885039370074
20
-5.476056062992126
11
4.8336118503937007
21
-5.4761309842519683
0
LINE
8
BLACK
6
CONTINUOUS
10
4.8336118503937007
20
-5.4761309842519683
11
4.7013283858267716
21
-5.4761309842519683
0
LINE
8
BLACK
6
CONTINUOUS
10
4.7013283858267716
20
-5.4761309842519683
11
4.7009517322834649
21
-5.476056062992126
0
LINE
8
BLACK
6
CONTINUOUS
10
4.7009517322834649
20
-5.476056062992126
11
4.7004190551181102
21
-5.4755233858267713
0
LINE
8
BLACK
6
CONTINUOUS
10
4.7004190551181102
20
-5.4755233858267713
11
4.7003441338582679
21
-5.4751467322834646
0
LINE
8
BLACK
6
CONTINUOUS
10
4.7003441338582679
20
-5.4751467322834646
11
4.7003441338582679
21
-5.4003435826771655
0
LINE
8
BLACK
6
CONTINUOUS
10
4.7003441338582679
20
-5.4003435826771655
11
4.7004190551181102
21
-5.3999669291338579
0
LINE
8
BLACK
6
CONTINUOUS
10
4.7004190551181102
20
-5.3999669291338579
11
4.7009517322834649
21
-5.3994342519685041
0
LINE
8
BLACK
6
CONTINUOUS
10
4.7009517322834649
20
-5.3994342519685041
11
4.7013283858267716
21
-5.3993593307086609
0
LINE
8
BLACK
6
CONTINUOUS
10
4.7013283858267716
20
-5.3993593307086609
11
4.8336118503937007
21
-5.3993593307086609
0
LINE
8
BLACK
6
CONTINUOUS
10
4.8336118503937007
20
-5.3993593307086609
11
4.8339885039370074
21
-5.3994342519685041
0
LINE
8
BLACK
6
CONTINUOUS
10
4.7023126377952753
20
-5.4013278346456692
11
4.7023126377952753
21
-5.4741624803149609
0
LINE
8
BLACK
6
CONTINUOUS
10
4.7023126377952753
20
-5.4741624803149609
11
4.832627598425197
21
-5.4741624803149609
0
LINE
8
BLACK
6
CONTINUOUS
10
4.832627598425197
20
-5.4741624803149609
11
4.832627598425197
21
-5.4013278346456692
0
LINE
8
BLACK
6
CONTINUOUS
10
4.832627598425197
20
-5.4013278346456692
11
4.7023126377952753
21
-5.4013278346456692
0
LINE
8
BLACK
6
CONTINUOUS
10
5.0003930708661413
20
-4.7347068897637792
11
5.0078843307086611
21
-4.7371409842519681
0
LINE
8
BLACK
6
CONTINUOUS
10
5.0078843307086611
20
-4.7371409842519681
11
5.0149026377952755
21
-4.7407169685039365
0
LINE
8
BLACK
6
CONTINUOUS
10
5.0149026377952755
20
-4.7407169685039365
11
5.0212750787401577
21
-4.7453468110236221
0
LINE
8
BLACK
6
CONTINUOUS
10
5.0212750787401577
20
-4.7453468110236221
11
5.0268448425196848
21
-4.7509165748031492
0
LINE
8
BLACK
6
CONTINUOUS
10
5.0268448425196848
20
-4.7509165748031492
11
5.0314746850393703
21
-4.7572890157480314
0
LINE
8
BLACK
6
CONTINUOUS
10
5.0314746850393703
20
-4.7572890157480314
11
5.0350506692913388
21
-4.7643073228346458
0
LINE
8
BLACK
6
CONTINUOUS
10
5.0350506692913388
20
-4.7643073228346458
11
5.0374847637795277
21
-4.7717985826771656
0
LINE
8
BLACK
6
CONTINUOUS
10
5.0374847637795277
20
-4.7717985826771656
11
5.0387169685039366
21
-4.7795784251968501
0
LINE
8
BLACK
6
CONTINUOUS
10
5.0387169685039366
20
-4.7795784251968501
11
5.0387169685039366
21
-4.7874551968503933
0
LINE
8
BLACK
6
CONTINUOUS
10
5.0387169685039366
20
-4.7874551968503933
11
5.0374847637795277
21
-4.7952350393700787
0
LINE
8
BLACK
6
CONTINUOUS
10
5.0374847637795277
20
-4.7952350393700787
11
5.0350506692913388
21
-4.8027262992125985
0
LINE
8
BLACK
6
CONTINUOUS
10
5.0350506692913388
20
-4.8027262992125985
11
5.0314746850393703
21
-4.8097446062992129
0
LINE
8
BLACK
6
CONTINUOUS
10
5.0314746850393703
20
-4.8097446062992129
11
5.0268448425196848
21
-4.8161170472440942
0
LINE
8
BLACK
6
CONTINUOUS
10
5.0268448425196848
20
-4.8161170472440942
11
5.0212750787401577
21
-4.8216868110236222
0
LINE
8
BLACK
6
CONTINUOUS
10
5.0212750787401577
20
-4.8216868110236222
11
5.0149026377952755
21
-4.8263166535433069
0
LINE
8
BLACK
6
CONTINUOUS
10
5.0149026377952755
20
-4.8263166535433069
11
5.0078843307086611
21
-4.8298926377952753
0
LINE
8
BLACK
6
CONTINUOUS
10
5.0078843307086611
20
-4.8298926377952753
11
5.0003930708661413
21
-4.8323267322834642
0
LINE
8
BLACK
6
CONTINUOUS
10
5.0003930708661413
20
-4.8323267322834642
11
4.9926132283464568
21
-4.833558937007874
0
LINE
8
BLACK
6
CONTINUOUS
10
4.9926132283464568
20
-4.833558937007874
11
4.9847364566929135
21
-4.833558937007874
0
LINE
8
BLACK
6
CONTINUOUS
10
4.9847364566929135
20
-4.833558937007874
11
4.9769566141732282
21
-4.8323267322834642
0
LINE
8
BLACK
6
CONTINUOUS
10
4.9769566141732282
20
-4.8323267322834642
11
4.9694653543307084
21
-4.8298926377952753
0
LINE
8
BLACK
6
CONTINUOUS
10
4.9694653543307084
20
-4.8298926377952753
11
4.962447047244094
21
-4.8263166535433069
0
LINE
8
BLACK
6
CONTINUOUS
10
4.962447047244094
20
-4.8263166535433069
11
4.9560746062992127
21
-4.8216868110236222
0
LINE
8
BLACK
6
CONTINUOUS
10
4.9560746062992127
20
-4.8216868110236222
11
4.9505048425196847
21
-4.8161170472440942
0
LINE
8
BLACK
6
CONTINUOUS
10
4.9505048425196847
20
-4.8161170472440942
11
4.945875
21
-4.8097446062992129
0
LINE
8
BLACK
6
CONTINUOUS
10
4.945875
20
-4.8097446062992129
11
4.9422990157480315
21
-4.8027262992125985
0
LINE
8
BLACK
6
CONTINUOUS
10
4.9422990157480315
20
-4.8027262992125985
11
4.9398649212598427
21
-4.7952350393700787
0
LINE
8
BLACK
6
CONTINUOUS
10
4.9398649212598427
20
-4.7952350393700787
11
4.9386327165354329
21
-4.7874551968503933
0
LINE
8
BLACK
6
CONTINUOUS
10
4.9386327165354329
20
-4.7874551968503933
11
4.9386327165354329
21
-4.7797211417322831
0
LINE
8
BLACK
6
CONTINUOUS
10
4.9386327165354329
20
-4.7797211417322831
11
4.9386327165354329
21
-4.7795784251968501
0
LINE
8
BLACK
6
CONTINUOUS
10
4.9386327165354329
20
-4.7795784251968501
11
4.9398649212598427
21
-4.7717985826771656
0
LINE
8
BLACK
6
CONTINUOUS
10
4.9398649212598427
20
-4.7717985826771656
11
4.9422990157480315
21
-4.7643073228346458
0
LINE
8
BLACK
6
CONTINUOUS
10
4.9422990157480315
20
-4.7643073228346458
11
4.945875
21
-4.7572890157480314
0
LINE
8
BLACK
6
CONTINUOUS
10
4.945875
20
-4.7572890157480314
11
4.9505048425196847
21
-4.7509165748031492
0
LINE
8
BLACK
6
CONTINUOUS
10
4.9505048425196847
20
-4.7509165748031492
11
4.9560746062992127
21
-4.7453468110236221
0
LINE
8
BLACK
6
CONTINUOUS
10
4.9560746062992127
20
-4.7453468110236221
11
4.962447047244094
21
-4.7407169685039365
0
LINE
8
BLACK
6
CONTINUOUS
10
4.962447047244094
20
-4.7407169685039365
11
4.9694653543307084
21
-4.7371409842519681
0
LINE
8
BLACK
6
CONTINUOUS
10
4.9694653543307084
20
-4.7371409842519681
11
4.9769566141732282
21
-4.7347068897637792
0
LINE
8
BLACK
6
CONTINUOUS
10
4.9769566141732282
20
-4.7347068897637792
11
4.9847364566929135
21
-4.7334746850393703
0
LINE
8
BLACK
6
CONTINUOUS
10
4.9847364566929135
20
-4.7334746850393703
11
4.9926132283464568
21
-4.7334746850393703
0
LINE
8
BLACK
6
CONTINUOUS
10
4.9926132283464568
20
-4.7334746850393703
11
5.0003930708661413
21
-4.7347068897637792
0
LINE
8
BLACK
6
CONTINUOUS
10
4.9404464960629921
20
-4.7873124803149603
11
4.9416340551181097
21
-4.79481031496063
0
LINE
8
BLACK
6
CONTINUOUS
10
4.9416340551181097
20
-4.79481031496063
11
4.9439798818897636
21
-4.8020300787401577
0
LINE
8
BLACK
6
CONTINUOUS
10
4.9439798818897636
20
-4.8020300787401577
11
4.9474262598425192
21
-4.8087939763779524
0
LINE
8
BLACK
6
CONTINUOUS
10
4.9474262598425192
20
-4.8087939763779524
11
4.9518883070866142
21
-4.8149354724409443
0
LINE
8
BLACK
6
CONTINUOUS
10
4.9518883070866142
20
-4.8149354724409443
11
4.9572561811023617
21
-4.8203033464566927
0
LINE
8
BLACK
6
CONTINUOUS
10
4.9572561811023617
20
-4.8203033464566927
11
4.9633976771653545
21
-4.8247653937007877
0
LINE
8
BLACK
6
CONTINUOUS
10
4.9633976771653545
20
-4.8247653937007877
11
4.9701615748031491
21
-4.8282117716535433
0
LINE
8
BLACK
6
CONTINUOUS
10
4.9701615748031491
20
-4.8282117716535433
11
4.9773813385826768
21
-4.8305575984251972
0
LINE
8
BLACK
6
CONTINUOUS
10
4.9773813385826768
20
-4.8305575984251972
11
4.9848791732283466
21
-4.8317451574803147
0
LINE
8
BLACK
6
CONTINUOUS
10
4.9848791732283466
20
-4.8317451574803147
11
4.9924705118110237
21
-4.8317451574803147
0
LINE
8
BLACK
6
CONTINUOUS
10
4.9924705118110237
20
-4.8317451574803147
11
4.9999683464566926
21
-4.8305575984251972
0
LINE
8
BLACK
6
CONTINUOUS
10
4.9999683464566926
20
-4.8305575984251972
11
5.0071881102362203
21
-4.8282117716535433
0
LINE
8
BLACK
6
CONTINUOUS
10
5.0071881102362203
20
-4.8282117716535433
11
5.0139520078740158
21
-4.8247653937007877
0
LINE
8
BLACK
6
CONTINUOUS
10
5.0139520078740158
20
-4.8247653937007877
11
5.0200935039370078
21
-4.8203033464566927
0
LINE
8
BLACK
6
CONTINUOUS
10
5.0200935039370078
20
-4.8203033464566927
11
5.0254613779527562
21
-4.8149354724409443
0
LINE
8
BLACK
6
CONTINUOUS
10
5.0254613779527562
20
-4.8149354724409443
11
5.0299234251968503
21
-4.8087939763779524
0
LINE
8
BLACK
6
CONTINUOUS
10
5.0299234251968503
20
-4.8087939763779524
11
5.0333698031496059
21
-4.8020300787401577
0
LINE
8
BLACK
6
CONTINUOUS
10
5.0333698031496059
20
-4.8020300787401577
11
5.0357156299212598
21
-4.79481031496063
0
LINE
8
BLACK
6
CONTINUOUS
10
5.0357156299212598
20
-4.79481031496063
11
5.0369031889763782
21
-4.7873124803149603
0
LINE
8
BLACK
6
CONTINUOUS
10
5.0369031889763782
20
-4.7873124803149603
11
5.0369031889763782
21
-4.7797211417322831
0
LINE
8
BLACK
6
CONTINUOUS
10
5.0369031889763782
20
-4.7797211417322831
11
5.0357156299212598
21
-4.7722233070866142
0
LINE
8
BLACK
6
CONTINUOUS
10
5.0357156299212598
20
-4.7722233070866142
11
5.0333698031496059
21
-4.7650035433070865
0
LINE
8
BLACK
6
CONTINUOUS
10
5.0333698031496059
20
-4.7650035433070865
11
5.0299234251968503
21
-4.758239645669291
0
LINE
8
BLACK
6
CONTINUOUS
10
5.0299234251968503
20
-4.758239645669291
11
5.0254613779527562
21
-4.7520981496062991
0
LINE
8
BLACK
6
CONTINUOUS
10
5.0254613779527562
20
-4.7520981496062991
11
5.0200935039370078
21
-4.7467302755905507
0
LINE
8
BLACK
6
CONTINUOUS
10
5.0200935039370078
20
-4.7467302755905507
11
5.0139520078740158
21
-4.7422682283464566
0
LINE
8
BLACK
6
CONTINUOUS
10
5.0139520078740158
20
-4.7422682283464566
11
5.0071881102362203
21
-4.738821850393701
0
LINE
8
BLACK
6
CONTINUOUS
10
5.0071881102362203
20
-4.738821850393701
11
4.9999683464566926
21
-4.7364760236220471
0
LINE
8
BLACK
6
CONTINUOUS
10
4.9999683464566926
20
-4.7364760236220471
11
4.9924705118110237
21
-4.7352884645669286
0
LINE
8
BLACK
6
CONTINUOUS
10
4.9924705118110237
20
-4.7352884645669286
11
4.9848791732283466
21
-4.7352884645669286
0
LINE
8
BLACK
6
CONTINUOUS
10
4.9848791732283466
20
-4.7352884645669286
11
4.9773813385826768
21
-4.7364760236220471
0
LINE
8
BLACK
6
CONTINUOUS
10
4.9773813385826768
20
-4.7364760236220471
11
4.9701615748031491
21
-4.738821850393701
0
LINE
8
BLACK
6
CONTINUOUS
10
4.9701615748031491
20
-4.738821850393701
11
4.9633976771653545
21
-4.7422682283464566
0
LINE
8
BLACK
6
CONTINUOUS
10
4.9633976771653545
20
-4.7422682283464566
11
4.9572561811023617
21
-4.7467302755905507
0
LINE
8
BLACK
6
CONTINUOUS
10
4.9572561811023617
20
-4.7467302755905507
11
4.9518883070866142
21
-4.7520981496062991
0
LINE
8
BLACK
6
CONTINUOUS
10
4.9518883070866142
20
-4.7520981496062991
11
4.9474262598425192
21
-4.758239645669291
0
LINE
8
BLACK
6
CONTINUOUS
10
4.9474262598425192
20
-4.758239645669291
11
4.9439798818897636
21
-4.7650035433070865
0
LINE
8
BLACK
6
CONTINUOUS
10
4.9439798818897636
20
-4.7650035433070865
11
4.9416340551181097
21
-4.7722233070866142
0
LINE
8
BLACK
6
CONTINUOUS
10
4.9416340551181097
20
-4.7722233070866142
11
4.9404464960629921
21
-4.7797211417322831
0
LINE
8
BLACK
6
CONTINUOUS
10
4.9404464960629921
20
-4.7797211417322831
11
4.9404464960629921
21
-4.7873124803149603
0
LINE
8
BLACK
6
CONTINUOUS
10
5.8722798425196849
20
-4.6068437007874019
11
5.8728125196850396
21
-4.6073763779527557
0
LINE
8
BLACK
6
CONTINUOUS
10
5.8728125196850396
20
-4.6073763779527557
11
5.8728874409448819
21
-4.6077530314960633
0
LINE
8
BLACK
6
CONTINUOUS
10
5.8728874409448819
20
-4.6077530314960633
11
5.8728874409448819
21
-4.7872805905511813
0
LINE
8
BLACK
6
CONTINUOUS
10
5.8728874409448819
20
-4.7872805905511813
11
5.8728125196850396
21
-4.787657244094488
0
LINE
8
BLACK
6
CONTINUOUS
10
5.8728125196850396
20
-4.787657244094488
11
5.8722798425196849
21
-4.7881899212598427
0
LINE
8
BLACK
6
CONTINUOUS
10
5.8722798425196849
20
-4.7881899212598427
11
5.8719031889763782
21
-4.788264842519685
0
LINE
8
BLACK
6
CONTINUOUS
10
5.8719031889763782
20
-4.788264842519685
11
5.7837142125984249
21
-4.788264842519685
0
LINE
8
BLACK
6
CONTINUOUS
10
5.7837142125984249
20
-4.788264842519685
11
5.7833375590551181
21
-4.7881899212598427
0
LINE
8
BLACK
6
CONTINUOUS
10
5.7833375590551181
20
-4.7881899212598427
11
5.7828048818897635
21
-4.787657244094488
0
LINE
8
BLACK
6
CONTINUOUS
10
5.7828048818897635
20
-4.787657244094488
11
5.7827299606299212
21
-4.7872805905511813
0
LINE
8
BLACK
6
CONTINUOUS
10
5.7827299606299212
20
-4.7872805905511813
11
5.7827299606299212
21
-4.6077530314960633
0
LINE
8
BLACK
6
CONTINUOUS
10
5.7827299606299212
20
-4.6077530314960633
11
5.7828048818897635
21
-4.6073763779527557
0
LINE
8
BLACK
6
CONTINUOUS
10
5.7828048818897635
20
-4.6073763779527557
11
5.7833375590551181
21
-4.6068437007874019
0
LINE
8
BLACK
6
CONTINUOUS
10
5.7833375590551181
20
-4.6068437007874019
11
5.7837142125984249
21
-4.6067687795275587
0
LINE
8
BLACK
6
CONTINUOUS
10
5.7837142125984249
20
-4.6067687795275587
11
5.8719031889763782
21
-4.6067687795275587
0
LINE
8
BLACK
6
CONTINUOUS
10
5.8719031889763782
20
-4.6067687795275587
11
5.8722798425196849
21
-4.6068437007874019
0
LINE
8
BLACK
6
CONTINUOUS
10
5.7846984645669286
20
-4.608737283464567
11
5.7846984645669286
21
-4.7862963385826767
0
LINE
8
BLACK
6
CONTINUOUS
10
5.7846984645669286
20
-4.7862963385826767
11
5.8709189370078736
21
-4.7862963385826767
0
LINE
8
BLACK
6
CONTINUOUS
10
5.8709189370078736
20
-4.7862963385826767
11
5.8709189370078736
21
-4.608737283464567
0
LINE
8
BLACK
6
CONTINUOUS
10
5.8709189370078736
20
-4.608737283464567
11
5.7846984645669286
21
-4.608737283464567
0
LINE
8
BLACK
6
CONTINUOUS
10
6.069130236220472
20
-4.6068437007874019
11
6.0696629133858266
21
-4.6073763779527557
0
LINE
8
BLACK
6
CONTINUOUS
10
6.0696629133858266
20
-4.6073763779527557
11
6.069737834645669
21
-4.6077530314960633
0
LINE
8
BLACK
6
CONTINUOUS
10
6.069737834645669
20
-4.6077530314960633
11
6.069737834645669
21
-4.7872805905511813
0
LINE
8
BLACK
6
CONTINUOUS
10
6.069737834645669
20
-4.7872805905511813
11
6.0696629133858266
21
-4.787657244094488
0
LINE
8
BLACK
6
CONTINUOUS
10
6.0696629133858266
20
-4.787657244094488
11
6.069130236220472
21
-4.7881899212598427
0
LINE
8
BLACK
6
CONTINUOUS
10
6.069130236220472
20
-4.7881899212598427
11
6.0687535826771652
21
-4.788264842519685
0
LINE
8
BLACK
6
CONTINUOUS
10
6.0687535826771652
20
-4.788264842519685
11
5.9805646062992128
21
-4.788264842519685
0
LINE
8
BLACK
6
CONTINUOUS
10
5.9805646062992128
20
-4.788264842519685
11
5.9801879527559052
21
-4.7881899212598427
0
LINE
8
BLACK
6
CONTINUOUS
10
5.9801879527559052
20
-4.7881899212598427
11
5.9796552755905514
21
-4.787657244094488
0
LINE
8
BLACK
6
CONTINUOUS
10
5.9796552755905514
20
-4.787657244094488
11
5.9795803543307082
21
-4.7872805905511813
0
LINE
8
BLACK
6
CONTINUOUS
10
5.9795803543307082
20
-4.7872805905511813
11
5.9795803543307082
21
-4.6077530314960633
0
LINE
8
BLACK
6
CONTINUOUS
10
5.9795803543307082
20
-4.6077530314960633
11
5.9796552755905514
21
-4.6073763779527557
0
LINE
8
BLACK
6
CONTINUOUS
10
5.9796552755905514
20
-4.6073763779527557
11
5.9801879527559052
21
-4.6068437007874019
0
LINE
8
BLACK
6
CONTINUOUS
10
5.9801879527559052
20
-4.6068437007874019
11
5.9805646062992128
21
-4.6067687795275587
0
LINE
8
BLACK
6
CONTINUOUS
10
5.9805646062992128
20
-4.6067687795275587
11
6.0687535826771652
21
-4.6067687795275587
0
LINE
8
BLACK
6
CONTINUOUS
10
6.0687535826771652
20
-4.6067687795275587
11
6.069130236220472
21
-4.6068437007874019
0
LINE
8
BLACK
6
CONTINUOUS
10
5.9815488582677165
20
-4.608737283464567
11
5.9815488582677165
21
-4.7862963385826767
0
LINE
8
BLACK
6
CONTINUOUS
10
5.9815488582677165
20
-4.7862963385826767
11
6.0677693307086615
21
-4.7862963385826767
0
LINE
8
BLACK
6
CONTINUOUS
10
6.0677693307086615
20
-4.7862963385826767
11
6.0677693307086615
21
-4.608737283464567
0
LINE
8
BLACK
6
CONTINUOUS
10
6.0677693307086615
20
-4.608737283464567
11
5.9815488582677165
21
-4.608737283464567
0
LINE
8
BLACK
6
CONTINUOUS
10
6.2659806299212599
20
-4.6068437007874019
11
6.2665133070866137
21
-4.6073763779527557
0
LINE
8
BLACK
6
CONTINUOUS
10
6.2665133070866137
20
-4.6073763779527557
11
6.2665882283464569
21
-4.6077530314960633
0
LINE
8
BLACK
6
CONTINUOUS
10
6.2665882283464569
20
-4.6077530314960633
11
6.2665882283464569
21
-4.7872805905511813
0
LINE
8
BLACK
6
CONTINUOUS
10
6.2665882283464569
20
-4.7872805905511813
11
6.2665133070866137
21
-4.787657244094488
0
LINE
8
BLACK
6
CONTINUOUS
10
6.2665133070866137
20
-4.787657244094488
11
6.2659806299212599
21
-4.7881899212598427
0
LINE
8
BLACK
6
CONTINUOUS
10
6.2659806299212599
20
-4.7881899212598427
11
6.2656039763779523
21
-4.788264842519685
0
LINE
8
BLACK
6
CONTINUOUS
10
6.2656039763779523
20
-4.788264842519685
11
6.1774149999999999
21
-4.788264842519685
0
LINE
8
BLACK
6
CONTINUOUS
10
6.1774149999999999
20
-4.788264842519685
11
6.1770383464566931
21
-4.7881899212598427
0
LINE
8
BLACK
6
CONTINUOUS
10
6.1770383464566931
20
-4.7881899212598427
11
6.1765056692913385
21
-4.787657244094488
0
LINE
8
BLACK
6
CONTINUOUS
10
6.1765056692913385
20
-4.787657244094488
11
6.1764307480314962
21
-4.7872805905511813
0
LINE
8
BLACK
6
CONTINUOUS
10
6.1764307480314962
20
-4.7872805905511813
11
6.1764307480314962
21
-4.6077530314960633
0
LINE
8
BLACK
6
CONTINUOUS
10
6.1764307480314962
20
-4.6077530314960633
11
6.1765056692913385
21
-4.6073763779527557
0
LINE
8
BLACK
6
CONTINUOUS
10
6.1765056692913385
20
-4.6073763779527557
11
6.1770383464566931
21
-4.6068437007874019
0
LINE
8
BLACK
6
CONTINUOUS
10
6.1770383464566931
20
-4.6068437007874019
11
6.1774149999999999
21
-4.6067687795275587
0
LINE
8
BLACK
6
CONTINUOUS
10
6.1774149999999999
20
-4.6067687795275587
11
6.2656039763779523
21
-4.6067687795275587
0
LINE
8
BLACK
6
CONTINUOUS
10
6.2656039763779523
20
-4.6067687795275587
11
6.2659806299212599
21
-4.6068437007874019
0
LINE
8
BLACK
6
CONTINUOUS
10
6.1783992519685036
20
-4.608737283464567
11
6.1783992519685036
21
-4.7862963385826767
0
LINE
8
BLACK
6
CONTINUOUS
10
6.1783992519685036
20
-4.7862963385826767
11
6.2646197244094486
21
-4.7862963385826767
0
LINE
8
BLACK
6
CONTINUOUS
10
6.2646197244094486
20
-4.7862963385826767
11
6.2646197244094486
21
-4.608737283464567
0
LINE
8
BLACK
6
CONTINUOUS
10
6.2646197244094486
20
-4.608737283464567
11
6.1783992519685036
21
-4.608737283464567
0
LINE
8
BLACK
6
CONTINUOUS
10
3.6091302362204725
20
-3.2279224409448819
11
3.6096629133858267
21
-3.2284551181102361
0
LINE
8
BLACK
6
CONTINUOUS
10
3.6096629133858267
20
-3.2284551181102361
11
3.609737834645669
21
-3.2288317716535433
0
LINE
8
BLACK
6
CONTINUOUS
10
3.609737834645669
20
-3.2288317716535433
11
3.609737834645669
21
-4.7682018503937007
0
LINE
8
BLACK
6
CONTINUOUS
10
3.609737834645669
20
-4.7682018503937007
11
3.6096629133858267
21
-4.7685785039370074
0
LINE
8
BLACK
6
CONTINUOUS
10
3.6096629133858267
20
-4.7685785039370074
11
3.6091302362204725
21
-4.7691111811023621
0
LINE
8
BLACK
6
CONTINUOUS
10
3.6091302362204725
20
-4.7691111811023621
11
3.6087535826771653
21
-4.7691861023622044
0
LINE
8
BLACK
6
CONTINUOUS
10
3.6087535826771653
20
-4.7691861023622044
11
3.3685961023622046
21
-4.7691861023622044
0
LINE
8
BLACK
6
CONTINUOUS
10
3.3685961023622046
20
-4.7691861023622044
11
3.3682194488188975
21
-4.7691111811023621
0
LINE
8
BLACK
6
CONTINUOUS
10
3.3682194488188975
20
-4.7691111811023621
11
3.3676867716535432
21
-4.7685785039370074
0
LINE
8
BLACK
6
CONTINUOUS
10
3.3676867716535432
20
-4.7685785039370074
11
3.3676118503937009
21
-4.7682018503937007
0
LINE
8
BLACK
6
CONTINUOUS
10
3.3676118503937009
20
-4.7682018503937007
11
3.3676118503937009
21
-3.2288317716535433
0
LINE
8
BLACK
6
CONTINUOUS
10
3.3676118503937009
20
-3.2288317716535433
11
3.3676867716535432
21
-3.2284551181102361
0
LINE
8
BLACK
6
CONTINUOUS
10
3.3676867716535432
20
-3.2284551181102361
11
3.3682194488188975
21
-3.2279224409448819
0
LINE
8
BLACK
6
CONTINUOUS
10
3.3682194488188975
20
-3.2279224409448819
11
3.3685961023622046
21
-3.2278475196850391
0
LINE
8
BLACK
6
CONTINUOUS
10
3.3685961023622046
20
-3.2278475196850391
11
3.6087535826771653
21
-3.2278475196850391
0
LINE
8
BLACK
6
CONTINUOUS
10
3.6087535826771653
20
-3.2278475196850391
11
3.6091302362204725
21
-3.2279224409448819
0
LINE
8
BLACK
6
CONTINUOUS
10
3.3695803543307088
20
-3.229816023622047
11
3.3695803543307088
21
-4.767217598425197
0
LINE
8
BLACK
6
CONTINUOUS
10
3.3695803543307088
20
-4.767217598425197
11
3.6077693307086611
21
-4.767217598425197
0
LINE
8
BLACK
6
CONTINUOUS
10
3.6077693307086611
20
-4.767217598425197
11
3.6077693307086611
21
-3.229816023622047
0
LINE
8
BLACK
6
CONTINUOUS
10
3.6077693307086611
20
-3.229816023622047
11
3.3695803543307088
21
-3.229816023622047
0
LINE
8
BLACK
6
CONTINUOUS
10
6.6596814173228349
20
-3.0068437007874014
11
6.6602140944881887
21
-3.007376377952756
0
LINE
8
BLACK
6
CONTINUOUS
10
6.6602140944881887
20
-3.007376377952756
11
6.660289015748031
21
-3.0077530314960628
0
LINE
8
BLACK
6
CONTINUOUS
10
6.660289015748031
20
-3.0077530314960628
11
6.660289015748031
21
-3.1872805905511812
0
LINE
8
BLACK
6
CONTINUOUS
10
6.660289015748031
20
-3.1872805905511812
11
6.6602140944881887
21
-3.1876572440944879
0
LINE
8
BLACK
6
CONTINUOUS
10
6.6602140944881887
20
-3.1876572440944879
11
6.6596814173228349
21
-3.1881899212598426
0
LINE
8
BLACK
6
CONTINUOUS
10
6.6596814173228349
20
-3.1881899212598426
11
6.6593047637795273
21
-3.1882648425196849
0
LINE
8
BLACK
6
CONTINUOUS
10
6.6593047637795273
20
-3.1882648425196849
11
6.5711157874015749
21
-3.1882648425196849
0
LINE
8
BLACK
6
CONTINUOUS
10
6.5711157874015749
20
-3.1882648425196849
11
6.5707391338582672
21
-3.1881899212598426
0
LINE
8
BLACK
6
CONTINUOUS
10
6.5707391338582672
20
-3.1881899212598426
11
6.5702064566929135
21
-3.1876572440944879
0
LINE
8
BLACK
6
CONTINUOUS
10
6.5702064566929135
20
-3.1876572440944879
11
6.5701315354330712
21
-3.1872805905511812
0
LINE
8
BLACK
6
CONTINUOUS
10
6.5701315354330712
20
-3.1872805905511812
11
6.5701315354330712
21
-3.0077530314960628
0
LINE
8
BLACK
6
CONTINUOUS
10
6.5701315354330712
20
-3.0077530314960628
11
6.5702064566929135
21
-3.007376377952756
0
LINE
8
BLACK
6
CONTINUOUS
10
6.5702064566929135
20
-3.007376377952756
11
6.5707391338582672
21
-3.0068437007874014
0
LINE
8
BLACK
6
CONTINUOUS
10
6.5707391338582672
20
-3.0068437007874014
11
6.5711157874015749
21
-3.0067687795275591
0
LINE
8
BLACK
6
CONTINUOUS
10
6.5711157874015749
20
-3.0067687795275591
11
6.6593047637795273
21
-3.0067687795275591
0
LINE
8
BLACK
6
CONTINUOUS
10
6.6593047637795273
20
-3.0067687795275591
11
6.6596814173228349
21
-3.0068437007874014
0
LINE
8
BLACK
6
CONTINUOUS
10
6.5721000393700786
20
-3.0087372834645669
11
6.5721000393700786
21
-3.186296338582677
0
LINE
8
BLACK
6
CONTINUOUS
10
6.5721000393700786
20
-3.186296338582677
11
6.6583205118110236
21
-3.186296338582677
0
LINE
8
BLACK
6
CONTINUOUS
10
6.6583205118110236
20
-3.186296338582677
11
6.6583205118110236
21
-3.0087372834645669
0
LINE
8
BLACK
6
CONTINUOUS
10
6.6583205118110236
20
-3.0087372834645669
11
6.5721000393700786
21
-3.0087372834645669
0
LINE
8
BLACK
6
CONTINUOUS
10
7.1703930708661412
20
-3.0327068897637797
11
7.1778843307086611
21
-3.0351409842519685
0
LINE
8
BLACK
6
CONTINUOUS
10
7.1778843307086611
20
-3.0351409842519685
11
7.1849026377952754
21
-3.038716968503937
0
LINE
8
BLACK
6
CONTINUOUS
10
7.1849026377952754
20
-3.038716968503937
11
7.1912750787401576
21
-3.0433468110236221
0
LINE
8
BLACK
6
CONTINUOUS
10
7.1912750787401576
20
-3.0433468110236221
11
7.1968448425196847
21
-3.0489165748031497
0
LINE
8
BLACK
6
CONTINUOUS
10
7.1968448425196847
20
-3.0489165748031497
11
7.2014746850393703
21
-3.0552890157480315
0
LINE
8
BLACK
6
CONTINUOUS
10
7.2014746850393703
20
-3.0552890157480315
11
7.2050506692913387
21
-3.0623073228346458
0
LINE
8
BLACK
6
CONTINUOUS
10
7.2050506692913387
20
-3.0623073228346458
11
7.2074847637795276
21
-3.0697985826771652
0
LINE
8
BLACK
6
CONTINUOUS
10
7.2074847637795276
20
-3.0697985826771652
11
7.2087169685039365
21
-3.0775784251968505
0
LINE
8
BLACK
6
CONTINUOUS
10
7.2087169685039365
20
-3.0775784251968505
11
7.2087169685039365
21
-3.0854551968503938
0
LINE
8
BLACK
6
CONTINUOUS
10
7.2087169685039365
20
-3.0854551968503938
11
7.2074847637795276
21
-3.0932350393700787
0
LINE
8
BLACK
6
CONTINUOUS
10
7.2074847637795276
20
-3.0932350393700787
11
7.2050506692913387
21
-3.1007262992125986
0
LINE
8
BLACK
6
CONTINUOUS
10
7.2050506692913387
20
-3.1007262992125986
11
7.2014746850393703
21
-3.1077446062992125
0
LINE
8
BLACK
6
CONTINUOUS
10
7.2014746850393703
20
-3.1077446062992125
11
7.1968448425196847
21
-3.1141170472440942
0
LINE
8
BLACK
6
CONTINUOUS
10
7.1968448425196847
20
-3.1141170472440942
11
7.1912750787401576
21
-3.1196868110236218
0
LINE
8
BLACK
6
CONTINUOUS
10
7.1912750787401576
20
-3.1196868110236218
11
7.1849026377952754
21
-3.1243166535433069
0
LINE
8
BLACK
6
CONTINUOUS
10
7.1849026377952754
20
-3.1243166535433069
11
7.1778843307086611
21
-3.1278926377952754
0
LINE
8
BLACK
6
CONTINUOUS
10
7.1778843307086611
20
-3.1278926377952754
11
7.1703930708661412
21
-3.1303267322834647
0
LINE
8
BLACK
6
CONTINUOUS
10
7.1703930708661412
20
-3.1303267322834647
11
7.1626132283464568
21
-3.131558937007874
0
LINE
8
BLACK
6
CONTINUOUS
10
7.1626132283464568
20
-3.131558937007874
11
7.1547364566929135
21
-3.131558937007874
0
LINE
8
BLACK
6
CONTINUOUS
10
7.1547364566929135
20
-3.131558937007874
11
7.1469566141732281
21
-3.1303267322834647
0
LINE
8
BLACK
6
CONTINUOUS
10
7.1469566141732281
20
-3.1303267322834647
11
7.1394653543307083
21
-3.1278926377952754
0
LINE
8
BLACK
6
CONTINUOUS
10
7.1394653543307083
20
-3.1278926377952754
11
7.132447047244094
21
-3.1243166535433069
0
LINE
8
BLACK
6
CONTINUOUS
10
7.132447047244094
20
-3.1243166535433069
11
7.1260746062992126
21
-3.1196868110236218
0
LINE
8
BLACK
6
CONTINUOUS
10
7.1260746062992126
20
-3.1196868110236218
11
7.1205048425196846
21
-3.1141170472440942
0
LINE
8
BLACK
6
CONTINUOUS
10
7.1205048425196846
20
-3.1141170472440942
11
7.115875
21
-3.1077446062992125
0
LINE
8
BLACK
6
CONTINUOUS
10
7.115875
20
-3.1077446062992125
11
7.1122990157480315
21
-3.1007262992125986
0
LINE
8
BLACK
6
CONTINUOUS
10
7.1122990157480315
20
-3.1007262992125986
11
7.1098649212598426
21
-3.0932350393700787
0
LINE
8
BLACK
6
CONTINUOUS
10
7.1098649212598426
20
-3.0932350393700787
11
7.1086327165354328
21
-3.0854551968503938
0
LINE
8
BLACK
6
CONTINUOUS
10
7.1086327165354328
20
-3.0854551968503938
11
7.1086327165354328
21
-3.0777211417322836
0
LINE
8
BLACK
6
CONTINUOUS
10
7.1086327165354328
20
-3.0777211417322836
11
7.1086327165354328
21
-3.0775784251968505
0
LINE
8
BLACK
6
CONTINUOUS
10
7.1086327165354328
20
-3.0775784251968505
11
7.1098649212598426
21
-3.0697985826771652
0
LINE
8
BLACK
6
CONTINUOUS
10
7.1098649212598426
20
-3.0697985826771652
11
7.1122990157480315
21
-3.0623073228346458
0
LINE
8
BLACK
6
CONTINUOUS
10
7.1122990157480315
20
-3.0623073228346458
11
7.115875
21
-3.0552890157480315
0
LINE
8
BLACK
6
CONTINUOUS
10
7.115875
20
-3.0552890157480315
11
7.1205048425196846
21
-3.0489165748031497
0
LINE
8
BLACK
6
CONTINUOUS
10
7.1205048425196846
20
-3.0489165748031497
11
7.1260746062992126
21
-3.0433468110236221
0
LINE
8
BLACK
6
CONTINUOUS
10
7.1260746062992126
20
-3.0433468110236221
11
7.132447047244094
21
-3.038716968503937
0
LINE
8
BLACK
6
CONTINUOUS
10
7.132447047244094
20
-3.038716968503937
11
7.1394653543307083
21
-3.0351409842519685
0
LINE
8
BLACK
6
CONTINUOUS
10
7.1394653543307083
20
-3.0351409842519685
11
7.1469566141732281
21
-3.0327068897637797
0
LINE
8
BLACK
6
CONTINUOUS
10
7.1469566141732281
20
-3.0327068897637797
11
7.1547364566929135
21
-3.0314746850393699
0
LINE
8
BLACK
6
CONTINUOUS
10
7.1547364566929135
20
-3.0314746850393699
11
7.1626132283464568
21
-3.0314746850393699
0
LINE
8
BLACK
6
CONTINUOUS
10
7.1626132283464568
20
-3.0314746850393699
11
7.1703930708661412
21
-3.0327068897637797
0
LINE
8
BLACK
6
CONTINUOUS
10
7.1104464960629921
20
-3.0853124803149607
11
7.1116340551181096
21
-3.0928103149606296
0
LINE
8
BLACK
6
CONTINUOUS
10
7.1116340551181096
20
-3.0928103149606296
11
7.1139798818897635
21
-3.1000300787401573
0
LINE
8
BLACK
6
CONTINUOUS
10
7.1139798818897635
20
-3.1000300787401573
11
7.1174262598425191
21
-3.1067939763779528
0
LINE
8
BLACK
6
CONTINUOUS
10
7.1174262598425191
20
-3.1067939763779528
11
7.1218883070866141
21
-3.1129354724409448
0
LINE
8
BLACK
6
CONTINUOUS
10
7.1218883070866141
20
-3.1129354724409448
11
7.1272561811023625
21
-3.1183033464566927
0
LINE
8
BLACK
6
CONTINUOUS
10
7.1272561811023625
20
-3.1183033464566927
11
7.1333976771653544
21
-3.1227653937007873
0
LINE
8
BLACK
6
CONTINUOUS
10
7.1333976771653544
20
-3.1227653937007873
11
7.1401615748031491
21
-3.1262117716535434
0
LINE
8
BLACK
6
CONTINUOUS
10
7.1401615748031491
20
-3.1262117716535434
11
7.1473813385826768
21
-3.1285575984251968
0
LINE
8
BLACK
6
CONTINUOUS
10
7.1473813385826768
20
-3.1285575984251968
11
7.1548791732283465
21
-3.1297451574803148
0
LINE
8
BLACK
6
CONTINUOUS
10
7.1548791732283465
20
-3.1297451574803148
11
7.1624705118110237
21
-3.1297451574803148
0
LINE
8
BLACK
6
CONTINUOUS
10
7.1624705118110237
20
-3.1297451574803148
11
7.1699683464566926
21
-3.1285575984251968
0
LINE
8
BLACK
6
CONTINUOUS
10
7.1699683464566926
20
-3.1285575984251968
11
7.1771881102362203
21
-3.1262117716535434
0
LINE
8
BLACK
6
CONTINUOUS
10
7.1771881102362203
20
-3.1262117716535434
11
7.1839520078740158
21
-3.1227653937007873
0
LINE
8
BLACK
6
CONTINUOUS
10
7.1839520078740158
20
-3.1227653937007873
11
7.1900935039370077
21
-3.1183033464566927
0
LINE
8
BLACK
6
CONTINUOUS
10
7.1900935039370077
20
-3.1183033464566927
11
7.1954613779527561
21
-3.1129354724409448
0
LINE
8
BLACK
6
CONTINUOUS
10
7.1954613779527561
20
-3.1129354724409448
11
7.1999234251968502
21
-3.1067939763779528
0
LINE
8
BLACK
6
CONTINUOUS
10
7.1999234251968502
20
-3.1067939763779528
11
7.2033698031496058
21
-3.1000300787401573
0
LINE
8
BLACK
6
CONTINUOUS
10
7.2033698031496058
20
-3.1000300787401573
11
7.2057156299212597
21
-3.0928103149606296
0
LINE
8
BLACK
6
CONTINUOUS
10
7.2057156299212597
20
-3.0928103149606296
11
7.2069031889763782
21
-3.0853124803149607
0
LINE
8
BLACK
6
CONTINUOUS
10
7.2069031889763782
20
-3.0853124803149607
11
7.2069031889763782
21
-3.0777211417322836
0
LINE
8
BLACK
6
CONTINUOUS
10
7.2069031889763782
20
-3.0777211417322836
11
7.2057156299212597
21
-3.0702233070866143
0
LINE
8
BLACK
6
CONTINUOUS
10
7.2057156299212597
20
-3.0702233070866143
11
7.2033698031496058
21
-3.0630035433070866
0
LINE
8
BLACK
6
CONTINUOUS
10
7.2033698031496058
20
-3.0630035433070866
11
7.1999234251968502
21
-3.0562396456692911
0
LINE
8
BLACK
6
CONTINUOUS
10
7.1999234251968502
20
-3.0562396456692911
11
7.1954613779527561
21
-3.0500981496062991
0
LINE
8
BLACK
6
CONTINUOUS
10
7.1954613779527561
20
-3.0500981496062991
11
7.1900935039370077
21
-3.0447302755905512
0
LINE
8
BLACK
6
CONTINUOUS
10
7.1900935039370077
20
-3.0447302755905512
11
7.1839520078740158
21
-3.0402682283464566
0
LINE
8
BLACK
6
CONTINUOUS
10
7.1839520078740158
20
-3.0402682283464566
11
7.1771881102362203
21
-3.0368218503937006
0
LINE
8
BLACK
6
CONTINUOUS
10
7.1771881102362203
20
-3.0368218503937006
11
7.1699683464566926
21
-3.0344760236220472
0
LINE
8
BLACK
6
CONTINUOUS
10
7.1699683464566926
20
-3.0344760236220472
11
7.1624705118110237
21
-3.0332884645669291
0
LINE
8
BLACK
6
CONTINUOUS
10
7.1624705118110237
20
-3.0332884645669291
11
7.1548791732283465
21
-3.0332884645669291
0
LINE
8
BLACK
6
CONTINUOUS
10
7.1548791732283465
20
-3.0332884645669291
11
7.1473813385826768
21
-3.0344760236220472
0
LINE
8
BLACK
6
CONTINUOUS
10
7.1473813385826768
20
-3.0344760236220472
11
7.1401615748031491
21
-3.0368218503937006
0
LINE
8
BLACK
6
CONTINUOUS
10
7.1401615748031491
20
-3.0368218503937006
11
7.1333976771653544
21
-3.0402682283464566
0
LINE
8
BLACK
6
CONTINUOUS
10
7.1333976771653544
20
-3.0402682283464566
11
7.1272561811023625
21
-3.0447302755905512
0
LINE
8
BLACK
6
CONTINUOUS
10
7.1272561811023625
20
-3.0447302755905512
11
7.1218883070866141
21
-3.0500981496062991
0
LINE
8
BLACK
6
CONTINUOUS
10
7.1218883070866141
20
-3.0500981496062991
11
7.1174262598425191
21
-3.0562396456692911
0
LINE
8
BLACK
6
CONTINUOUS
10
7.1174262598425191
20
-3.0562396456692911
11
7.1139798818897635
21
-3.0630035433070866
0
LINE
8
BLACK
6
CONTINUOUS
10
7.1139798818897635
20
-3.0630035433070866
11
7.1116340551181096
21
-3.0702233070866143
0
LINE
8
BLACK
6
CONTINUOUS
10
7.1116340551181096
20
-3.0702233070866143
11
7.1104464960629921
21
-3.0777211417322836
0
LINE
8
BLACK
6
CONTINUOUS
10
7.1104464960629921
20
-3.0777211417322836
11
7.1104464960629921
21
-3.0853124803149607
0
LINE
8
BLACK
6
CONTINUOUS
10
5.0023930708661419
20
-2.9767068897637796
11
5.0098843307086609
21
-2.9791409842519685
0
LINE
8
BLACK
6
CONTINUOUS
10
5.0098843307086609
20
-2.9791409842519685
11
5.0169026377952752
21
-2.982716968503937
0
LINE
8
BLACK
6
CONTINUOUS
10
5.0169026377952752
20
-2.982716968503937
11
5.0232750787401574
21
-2.9873468110236221
0
LINE
8
BLACK
6
CONTINUOUS
10
5.0232750787401574
20
-2.9873468110236221
11
5.0288448425196846
21
-2.9929165748031497
0
LINE
8
BLACK
6
CONTINUOUS
10
5.0288448425196846
20
-2.9929165748031497
11
5.0334746850393701
21
-2.9992890157480314
0
LINE
8
BLACK
6
CONTINUOUS
10
5.0334746850393701
20
-2.9992890157480314
11
5.0370506692913386
21
-3.0063073228346457
0
LINE
8
BLACK
6
CONTINUOUS
10
5.0370506692913386
20
-3.0063073228346457
11
5.0394847637795275
21
-3.0137985826771652
0
LINE
8
BLACK
6
CONTINUOUS
10
5.0394847637795275
20
-3.0137985826771652
11
5.0407169685039372
21
-3.0215784251968505
0
LINE
8
BLACK
6
CONTINUOUS
10
5.0407169685039372
20
-3.0215784251968505
11
5.0407169685039372
21
-3.0294551968503938
0
LINE
8
BLACK
6
CONTINUOUS
10
5.0407169685039372
20
-3.0294551968503938
11
5.0394847637795275
21
-3.0372350393700787
0
LINE
8
BLACK
6
CONTINUOUS
10
5.0394847637795275
20
-3.0372350393700787
11
5.0370506692913386
21
-3.0447262992125985
0
LINE
8
BLACK
6
CONTINUOUS
10
5.0370506692913386
20
-3.0447262992125985
11
5.0334746850393701
21
-3.0517446062992124
0
LINE
8
BLACK
6
CONTINUOUS
10
5.0334746850393701
20
-3.0517446062992124
11
5.0288448425196846
21
-3.0581170472440946
0
LINE
8
BLACK
6
CONTINUOUS
10
5.0288448425196846
20
-3.0581170472440946
11
5.0232750787401574
21
-3.0636868110236222
0
LINE
8
BLACK
6
CONTINUOUS
10
5.0232750787401574
20
-3.0636868110236222
11
5.0169026377952752
21
-3.0683166535433068
0
LINE
8
BLACK
6
CONTINUOUS
10
5.0169026377952752
20
-3.0683166535433068
11
5.0098843307086609
21
-3.0718926377952753
0
LINE
8
BLACK
6
CONTINUOUS
10
5.0098843307086609
20
-3.0718926377952753
11
5.0023930708661419
21
-3.0743267322834646
0
LINE
8
BLACK
6
CONTINUOUS
10
5.0023930708661419
20
-3.0743267322834646
11
4.9946132283464566
21
-3.075558937007874
0
LINE
8
BLACK
6
CONTINUOUS
10
4.9946132283464566
20
-3.075558937007874
11
4.9867364566929133
21
-3.075558937007874
0
LINE
8
BLACK
6
CONTINUOUS
10
4.9867364566929133
20
-3.075558937007874
11
4.978956614173228
21
-3.0743267322834646
0
LINE
8
BLACK
6
CONTINUOUS
10
4.978956614173228
20
-3.0743267322834646
11
4.9714653543307081
21
-3.0718926377952753
0
LINE
8
BLACK
6
CONTINUOUS
10
4.9714653543307081
20
-3.0718926377952753
11
4.9644470472440947
21
-3.0683166535433068
0
LINE
8
BLACK
6
CONTINUOUS
10
4.9644470472440947
20
-3.0683166535433068
11
4.9580746062992125
21
-3.0636868110236222
0
LINE
8
BLACK
6
CONTINUOUS
10
4.9580746062992125
20
-3.0636868110236222
11
4.9525048425196854
21
-3.0581170472440946
0
LINE
8
BLACK
6
CONTINUOUS
10
4.9525048425196854
20
-3.0581170472440946
11
4.9478749999999998
21
-3.0517446062992124
0
LINE
8
BLACK
6
CONTINUOUS
10
4.9478749999999998
20
-3.0517446062992124
11
4.9442990157480313
21
-3.0447262992125985
0
LINE
8
BLACK
6
CONTINUOUS
10
4.9442990157480313
20
-3.0447262992125985
11
4.9418649212598424
21
-3.0372350393700787
0
LINE
8
BLACK
6
CONTINUOUS
10
4.9418649212598424
20
-3.0372350393700787
11
4.9406327165354327
21
-3.0294551968503938
0
LINE
8
BLACK
6
CONTINUOUS
10
4.9406327165354327
20
-3.0294551968503938
11
4.9406327165354327
21
-3.0217211417322836
0
LINE
8
BLACK
6
CONTINUOUS
10
4.9406327165354327
20
-3.0217211417322836
11
4.9406327165354327
21
-3.0215784251968505
0
LINE
8
BLACK
6
CONTINUOUS
10
4.9406327165354327
20
-3.0215784251968505
11
4.9418649212598424
21
-3.0137985826771652
0
LINE
8
BLACK
6
CONTINUOUS
10
4.9418649212598424
20
-3.0137985826771652
11
4.9442990157480313
21
-3.0063073228346457
0
LINE
8
BLACK
6
CONTINUOUS
10
4.9442990157480313
20
-3.0063073228346457
11
4.9478749999999998
21
-2.9992890157480314
0
LINE
8
BLACK
6
CONTINUOUS
10
4.9478749999999998
20
-2.9992890157480314
11
4.9525048425196854
21
-2.9929165748031497
0
LINE
8
BLACK
6
CONTINUOUS
10
4.9525048425196854
20
-2.9929165748031497
11
4.9580746062992125
21
-2.9873468110236221
0
LINE
8
BLACK
6
CONTINUOUS
10
4.9580746062992125
20
-2.9873468110236221
11
4.9644470472440947
21
-2.982716968503937
0
LINE
8
BLACK
6
CONTINUOUS
10
4.9644470472440947
20
-2.982716968503937
11
4.9714653543307081
21
-2.9791409842519685
0
LINE
8
BLACK
6
CONTINUOUS
10
4.9714653543307081
20
-2.9791409842519685
11
4.978956614173228
21
-2.9767068897637796
0
LINE
8
BLACK
6
CONTINUOUS
10
4.978956614173228
20
-2.9767068897637796
11
4.9867364566929133
21
-2.9754746850393698
0
LINE
8
BLACK
6
CONTINUOUS
10
4.9867364566929133
20
-2.9754746850393698
11
4.9946132283464566
21
-2.9754746850393698
0
LINE
8
BLACK
6
CONTINUOUS
10
4.9946132283464566
20
-2.9754746850393698
11
5.0023930708661419
21
-2.9767068897637796
0
LINE
8
BLACK
6
CONTINUOUS
10
4.9424464960629919
20
-3.0293124803149607
11
4.9436340551181104
21
-3.03681031496063
0
LINE
8
BLACK
6
CONTINUOUS
10
4.9436340551181104
20
-3.03681031496063
11
4.9459798818897633
21
-3.0440300787401573
0
LINE
8
BLACK
6
CONTINUOUS
10
4.9459798818897633
20
-3.0440300787401573
11
4.9494262598425198
21
-3.0507939763779528
0
LINE
8
BLACK
6
CONTINUOUS
10
4.9494262598425198
20
-3.0507939763779528
11
4.953888307086614
21
-3.0569354724409448
0
LINE
8
BLACK
6
CONTINUOUS
10
4.953888307086614
20
-3.0569354724409448
11
4.9592561811023623
21
-3.0623033464566927
0
LINE
8
BLACK
6
CONTINUOUS
10
4.9592561811023623
20
-3.0623033464566927
11
4.9653976771653543
21
-3.0667653937007873
0
LINE
8
BLACK
6
CONTINUOUS
10
4.9653976771653543
20
-3.0667653937007873
11
4.9721615748031498
21
-3.0702117716535433
0
LINE
8
BLACK
6
CONTINUOUS
10
4.9721615748031498
20
-3.0702117716535433
11
4.9793813385826766
21
-3.0725575984251967
0
LINE
8
BLACK
6
CONTINUOUS
10
4.9793813385826766
20
-3.0725575984251967
11
4.9868791732283464
21
-3.0737451574803147
0
LINE
8
BLACK
6
CONTINUOUS
10
4.9868791732283464
20
-3.0737451574803147
11
4.9944705118110235
21
-3.0737451574803147
0
LINE
8
BLACK
6
CONTINUOUS
10
4.9944705118110235
20
-3.0737451574803147
11
5.0019683464566924
21
-3.0725575984251967
0
LINE
8
BLACK
6
CONTINUOUS
10
5.0019683464566924
20
-3.0725575984251967
11
5.0091881102362201
21
-3.0702117716535433
0
LINE
8
BLACK
6
CONTINUOUS
10
5.0091881102362201
20
-3.0702117716535433
11
5.0159520078740156
21
-3.0667653937007873
0
LINE
8
BLACK
6
CONTINUOUS
10
5.0159520078740156
20
-3.0667653937007873
11
5.0220935039370076
21
-3.0623033464566927
0
LINE
8
BLACK
6
CONTINUOUS
10
5.0220935039370076
20
-3.0623033464566927
11
5.0274613779527559
21
-3.0569354724409448
0
LINE
8
BLACK
6
CONTINUOUS
10
5.0274613779527559
20
-3.0569354724409448
11
5.0319234251968501
21
-3.0507939763779528
0
LINE
8
BLACK
6
CONTINUOUS
10
5.0319234251968501
20
-3.0507939763779528
11
5.0353698031496066
21
-3.0440300787401573
0
LINE
8
BLACK
6
CONTINUOUS
10
5.0353698031496066
20
-3.0440300787401573
11
5.0377156299212595
21
-3.03681031496063
0
LINE
8
BLACK
6
CONTINUOUS
10
5.0377156299212595
20
-3.03681031496063
11
5.038903188976378
21
-3.0293124803149607
0
LINE
8
BLACK
6
CONTINUOUS
10
5.038903188976378
20
-3.0293124803149607
11
5.038903188976378
21
-3.0217211417322836
0
LINE
8
BLACK
6
CONTINUOUS
10
5.038903188976378
20
-3.0217211417322836
11
5.0377156299212595
21
-3.0142233070866142
0
LINE
8
BLACK
6
CONTINUOUS
10
5.0377156299212595
20
-3.0142233070866142
11
5.0353698031496066
21
-3.0070035433070865
0
LINE
8
BLACK
6
CONTINUOUS
10
5.0353698031496066
20
-3.0070035433070865
11
5.0319234251968501
21
-3.0002396456692915
0
LINE
8
BLACK
6
CONTINUOUS
10
5.0319234251968501
20
-3.0002396456692915
11
5.0274613779527559
21
-2.9940981496062991
0
LINE
8
BLACK
6
CONTINUOUS
10
5.0274613779527559
20
-2.9940981496062991
11
5.0220935039370076
21
-2.9887302755905512
0
LINE
8
BLACK
6
CONTINUOUS
10
5.0220935039370076
20
-2.9887302755905512
11
5.0159520078740156
21
-2.9842682283464566
0
LINE
8
BLACK
6
CONTINUOUS
10
5.0159520078740156
20
-2.9842682283464566
11
5.0091881102362201
21
-2.9808218503937005
0
LINE
8
BLACK
6
CONTINUOUS
10
5.0091881102362201
20
-2.9808218503937005
11
5.0019683464566924
21
-2.9784760236220471
0
LINE
8
BLACK
6
CONTINUOUS
10
5.0019683464566924
20
-2.9784760236220471
11
4.9944705118110235
21
-2.9772884645669291
0
LINE
8
BLACK
6
CONTINUOUS
10
4.9944705118110235
20
-2.9772884645669291
11
4.9868791732283464
21
-2.9772884645669291
0
LINE
8
BLACK
6
CONTINUOUS
10
4.9868791732283464
20
-2.9772884645669291
11
4.9793813385826766
21
-2.9784760236220471
0
LINE
8
BLACK
6
CONTINUOUS
10
4.9793813385826766
20
-2.9784760236220471
11
4.9721615748031498
21
-2.9808218503937005
0
LINE
8
BLACK
6
CONTINUOUS
10
4.9721615748031498
20
-2.9808218503937005
11
4.9653976771653543
21
-2.9842682283464566
0
LINE
8
BLACK
6
CONTINUOUS
10
4.9653976771653543
20
-2.9842682283464566
11
4.9592561811023623
21
-2.9887302755905512
0
LINE
8
BLACK
6
CONTINUOUS
10
4.9592561811023623
20
-2.9887302755905512
11
4.953888307086614
21
-2.9940981496062991
0
LINE
8
BLACK
6
CONTINUOUS
10
4.953888307086614
20
-2.9940981496062991
11
4.9494262598425198
21
-3.0002396456692915
0
LINE
8
BLACK
6
CONTINUOUS
10
4.9494262598425198
20
-3.0002396456692915
11
4.9459798818897633
21
-3.0070035433070865
0
LINE
8
BLACK
6
CONTINUOUS
10
4.9459798818897633
20
-3.0070035433070865
11
4.9436340551181104
21
-3.0142233070866142
0
LINE
8
BLACK
6
CONTINUOUS
10
4.9436340551181104
20
-3.0142233070866142
11
4.9424464960629919
21
-3.0217211417322836
0
LINE
8
BLACK
6
CONTINUOUS
10
4.9424464960629919
20
-3.0217211417322836
11
4.9424464960629919
21
-3.0293124803149607
0
LINE
8
BLACK
6
CONTINUOUS
10
6.0939333858267712
20
-2.7373948818897635
11
6.0944660629921259
21
-2.7379275590551182
0
LINE
8
BLACK
6
CONTINUOUS
10
6.0944660629921259
20
-2.7379275590551182
11
6.0945409842519682
21
-2.7383042125984249
0
LINE
8
BLACK
6
CONTINUOUS
10
6.0945409842519682
20
-2.7383042125984249
11
6.0945409842519682
21
-2.8154695669291336
0
LINE
8
BLACK
6
CONTINUOUS
10
6.0945409842519682
20
-2.8154695669291336
11
6.0944660629921259
21
-2.8158462204724408
0
LINE
8
BLACK
6
CONTINUOUS
10
6.0944660629921259
20
-2.8158462204724408
11
6.0939333858267712
21
-2.816378897637795
0
LINE
8
BLACK
6
CONTINUOUS
10
6.0939333858267712
20
-2.816378897637795
11
6.0935567322834645
21
-2.8164538188976378
0
LINE
8
BLACK
6
CONTINUOUS
10
6.0935567322834645
20
-2.8164538188976378
11
5.9596984645669293
21
-2.8164538188976378
0
LINE
8
BLACK
6
CONTINUOUS
10
5.9596984645669293
20
-2.8164538188976378
11
5.9593218110236217
21
-2.816378897637795
0
LINE
8
BLACK
6
CONTINUOUS
10
5.9593218110236217
20
-2.816378897637795
11
5.9587891338582679
21
-2.8158462204724408
0
LINE
8
BLACK
6
CONTINUOUS
10
5.9587891338582679
20
-2.8158462204724408
11
5.9587142125984247
21
-2.8154695669291336
0
LINE
8
BLACK
6
CONTINUOUS
10
5.9587142125984247
20
-2.8154695669291336
11
5.9587142125984247
21
-2.7383042125984249
0
LINE
8
BLACK
6
CONTINUOUS
10
5.9587142125984247
20
-2.7383042125984249
11
5.9587891338582679
21
-2.7379275590551182
0
LINE
8
BLACK
6
CONTINUOUS
10
5.9587891338582679
20
-2.7379275590551182
11
5.9593218110236217
21
-2.7373948818897635
0
LINE
8
BLACK
6
CONTINUOUS
10
5.9593218110236217
20
-2.7373948818897635
11
5.9596984645669293
21
-2.7373199606299212
0
LINE
8
BLACK
6
CONTINUOUS
10
5.9596984645669293
20
-2.7373199606299212
11
6.0935567322834645
21
-2.7373199606299212
0
LINE
8
BLACK
6
CONTINUOUS
10
6.0935567322834645
20
-2.7373199606299212
11
6.0939333858267712
21
-2.7373948818897635
0
LINE
8
BLACK
6
CONTINUOUS
10
5.960682716535433
20
-2.7392884645669291
11
5.960682716535433
21
-2.8144853149606299
0
LINE
8
BLACK
6
CONTINUOUS
10
5.960682716535433
20
-2.8144853149606299
11
6.0925724803149608
21
-2.8144853149606299
0
LINE
8
BLACK
6
CONTINUOUS
10
6.0925724803149608
20
-2.8144853149606299
11
6.0925724803149608
21
-2.7392884645669291
0
LINE
8
BLACK
6
CONTINUOUS
10
6.0925724803149608
20
-2.7392884645669291
11
5.960682716535433
21
-2.7392884645669291
0
LINE
8
BLACK
6
CONTINUOUS
10
6.3006262992125981
20
-2.6188909448818896
11
6.3011589763779527
21
-2.6194236220472442
0
LINE
8
BLACK
6
CONTINUOUS
10
6.3011589763779527
20
-2.6194236220472442
11
6.3012338976377951
21
-2.619800275590551
0
LINE
8
BLACK
6
CONTINUOUS
10
6.3012338976377951
20
-2.619800275590551
11
6.3012338976377951
21
-2.7575955511811023
0
LINE
8
BLACK
6
CONTINUOUS
10
6.3012338976377951
20
-2.7575955511811023
11
6.3011589763779527
21
-2.7579722047244095
0
LINE
8
BLACK
6
CONTINUOUS
10
6.3011589763779527
20
-2.7579722047244095
11
6.3006262992125981
21
-2.7585048818897637
0
LINE
8
BLACK
6
CONTINUOUS
10
6.3006262992125981
20
-2.7585048818897637
11
6.3002496456692914
21
-2.758579803149606
0
LINE
8
BLACK
6
CONTINUOUS
10
6.3002496456692914
20
-2.758579803149606
11
6.1348953149606293
21
-2.758579803149606
0
LINE
8
BLACK
6
CONTINUOUS
10
6.1348953149606293
20
-2.758579803149606
11
6.1345186614173226
21
-2.7585048818897637
0
LINE
8
BLACK
6
CONTINUOUS
10
6.1345186614173226
20
-2.7585048818897637
11
6.1339859842519679
21
-2.7579722047244095
0
LINE
8
BLACK
6
CONTINUOUS
10
6.1339859842519679
20
-2.7579722047244095
11
6.1339110629921256
21
-2.7575955511811023
0
LINE
8
BLACK
6
CONTINUOUS
10
6.1339110629921256
20
-2.7575955511811023
11
6.1339110629921256
21
-2.619800275590551
0
LINE
8
BLACK
6
CONTINUOUS
10
6.1339110629921256
20
-2.619800275590551
11
6.1339859842519679
21
-2.6194236220472442
0
LINE
8
BLACK
6
CONTINUOUS
10
6.1339859842519679
20
-2.6194236220472442
11
6.1345186614173226
21
-2.6188909448818896
0
LINE
8
BLACK
6
CONTINUOUS
10
6.1345186614173226
20
-2.6188909448818896
11
6.1348953149606293
21
-2.6188160236220472
0
LINE
8
BLACK
6
CONTINUOUS
10
6.1348953149606293
20
-2.6188160236220472
11
6.3002496456692914
21
-2.6188160236220472
0
LINE
8
BLACK
6
CONTINUOUS
10
6.3002496456692914
20
-2.6188160236220472
11
6.3006262992125981
21
-2.6188909448818896
0
LINE
8
BLACK
6
CONTINUOUS
10
6.1358795669291339
20
-2.6207845275590551
11
6.1358795669291339
21
-2.7566112992125982
0
LINE
8
BLACK
6
CONTINUOUS
10
6.1358795669291339
20
-2.7566112992125982
11
6.2992653937007876
21
-2.7566112992125982
0
LINE
8
BLACK
6
CONTINUOUS
10
6.2992653937007876
20
-2.7566112992125982
11
6.2992653937007876
21
-2.6207845275590551
0
LINE
8
BLACK
6
CONTINUOUS
10
6.2992653937007876
20
-2.6207845275590551
11
6.1358795669291339
21
-2.6207845275590551
0
LINE
8
BLACK
6
CONTINUOUS
10
6.0939333858267712
20
-2.6188909448818896
11
6.0944660629921259
21
-2.6194236220472442
0
LINE
8
BLACK
6
CONTINUOUS
10
6.0944660629921259
20
-2.6194236220472442
11
6.0945409842519682
21
-2.619800275590551
0
LINE
8
BLACK
6
CONTINUOUS
10
6.0945409842519682
20
-2.619800275590551
11
6.0945409842519682
21
-2.6969656299212597
0
LINE
8
BLACK
6
CONTINUOUS
10
6.0945409842519682
20
-2.6969656299212597
11
6.0944660629921259
21
-2.6973422834645668
0
LINE
8
BLACK
6
CONTINUOUS
10
6.0944660629921259
20
-2.6973422834645668
11
6.0939333858267712
21
-2.697874960629921
0
LINE
8
BLACK
6
CONTINUOUS
10
6.0939333858267712
20
-2.697874960629921
11
6.0935567322834645
21
-2.6979498818897638
0
LINE
8
BLACK
6
CONTINUOUS
10
6.0935567322834645
20
-2.6979498818897638
11
5.9596984645669293
21
-2.6979498818897638
0
LINE
8
BLACK
6
CONTINUOUS
10
5.9596984645669293
20
-2.6979498818897638
11
5.9593218110236217
21
-2.697874960629921
0
LINE
8
BLACK
6
CONTINUOUS
10
5.9593218110236217
20
-2.697874960629921
11
5.9587891338582679
21
-2.6973422834645668
0
LINE
8
BLACK
6
CONTINUOUS
10
5.9587891338582679
20
-2.6973422834645668
11
5.9587142125984247
21
-2.6969656299212597
0
LINE
8
BLACK
6
CONTINUOUS
10
5.9587142125984247
20
-2.6969656299212597
11
5.9587142125984247
21
-2.619800275590551
0
LINE
8
BLACK
6
CONTINUOUS
10
5.9587142125984247
20
-2.619800275590551
11
5.9587891338582679
21
-2.6194236220472442
0
LINE
8
BLACK
6
CONTINUOUS
10
5.9587891338582679
20
-2.6194236220472442
11
5.9593218110236217
21
-2.6188909448818896
0
LINE
8
BLACK
6
CONTINUOUS
10
5.9593218110236217
20
-2.6188909448818896
11
5.9596984645669293
21
-2.6188160236220472
0
LINE
8
BLACK
6
CONTINUOUS
10
5.9596984645669293
20
-2.6188160236220472
11
6.0935567322834645
21
-2.6188160236220472
0
LINE
8
BLACK
6
CONTINUOUS
10
6.0935567322834645
20
-2.6188160236220472
11
6.0939333858267712
21
-2.6188909448818896
0
LINE
8
BLACK
6
CONTINUOUS
10
5.960682716535433
20
-2.6207845275590551
11
5.960682716535433
21
-2.6959813779527559
0
LINE
8
BLACK
6
CONTINUOUS
10
5.960682716535433
20
-2.6959813779527559
11
6.0925724803149608
21
-2.6959813779527559
0
LINE
8
BLACK
6
CONTINUOUS
10
6.0925724803149608
20
-2.6959813779527559
11
6.0925724803149608
21
-2.6207845275590551
0
LINE
8
BLACK
6
CONTINUOUS
10
6.0925724803149608
20
-2.6207845275590551
11
5.960682716535433
21
-2.6207845275590551
0
CIRCLE
8
BLACK
10
6.8886748425196851
20
-3.0975168110236222
40
0.0068897637795276
0
CIRCLE
8
BLACK
10
4.0886748425196853
20
-3.0975168110236222
40
0.0068897637795276
0
CIRCLE
8
BLACK
10
4.0886748425196853
20
-4.6975168110236218
40
0.0068897637795276
0
CIRCLE
8
BLACK
10
6.8886748425196851
20
-4.6975168110236218
40
0.0068897637795276
0
LINE
8
BLACK
6
CONTINUOUS
10
5.4903124803149606
20
-5.7902559055118106
11
5.488842834645669
21
-5.7938039370078736
0
LINE
8
BLACK
6
CONTINUOUS
10
5.488842834645669
20
-5.7938039370078736
11
5.4861273228346459
21
-5.7965194488188976
0
LINE
8
BLACK
6
CONTINUOUS
10
5.4861273228346459
20
-5.7965194488188976
11
5.4825792913385829
21
-5.7979890944881891
0
LINE
8
BLACK
6
CONTINUOUS
10
5.4825792913385829
20
-5.7979890944881891
11
5.4787388976377951
21
-5.7979890944881891
0
LINE
8
BLACK
6
CONTINUOUS
10
5.4787388976377951
20
-5.7979890944881891
11
5.4751908661417321
21
-5.7965194488188976
0
LINE
8
BLACK
6
CONTINUOUS
10
5.4751908661417321
20
-5.7965194488188976
11
5.472475354330709
21
-5.7938039370078736
0
LINE
8
BLACK
6
CONTINUOUS
10
5.472475354330709
20
-5.7938039370078736
11
5.4710057086614174
21
-5.7902559055118106
0
LINE
8
BLACK
6
CONTINUOUS
10
5.4710057086614174
20
-5.7902559055118106
11
5.4708165748031492
21
-5.7883357086614176
0
LINE
8
BLACK
6
CONTINUOUS
10
5.4708165748031492
20
-5.7883357086614176
11
5.4708165748031492
21
-5.7725876771653546
0
LINE
8
BLACK
6
CONTINUOUS
10
5.4708165748031492
20
-5.7725876771653546
11
5.4710057086614174
21
-5.7706674803149607
0
LINE
8
BLACK
6
CONTINUOUS
10
5.4710057086614174
20
-5.7706674803149607
11
5.472475354330709
21
-5.7671194488188977
0
LINE
8
BLACK
6
CONTINUOUS
10
5.472475354330709
20
-5.7671194488188977
11
5.4751908661417321
21
-5.7644039370078737
0
LINE
8
BLACK
6
CONTINUOUS
10
5.4751908661417321
20
-5.7644039370078737
11
5.4787388976377951
21
-5.7629342913385821
0
LINE
8
BLACK
6
CONTINUOUS
10
5.4787388976377951
20
-5.7629342913385821
11
5.4825792913385829
21
-5.7629342913385821
0
LINE
8
BLACK
6
CONTINUOUS
10
5.4825792913385829
20
-5.7629342913385821
11
5.4861273228346459
21
-5.7644039370078737
0
LINE
8
BLACK
6
CONTINUOUS
10
5.4861273228346459
20
-5.7644039370078737
11
5.488842834645669
21
-5.7671194488188977
0
LINE
8
BLACK
6
CONTINUOUS
10
5.488842834645669
20
-5.7671194488188977
11
5.4903124803149606
21
-5.7706674803149607
0
LINE
8
BLACK
6
CONTINUOUS
10
5.4903124803149606
20
-5.7706674803149607
11
5.4905016141732279
21
-5.7725876771653546
0
LINE
8
BLACK
6
CONTINUOUS
10
5.4905016141732279
20
-5.7725876771653546
11
5.4905016141732279
21
-5.7883357086614176
0
LINE
8
BLACK
6
CONTINUOUS
10
5.4905016141732279
20
-5.7883357086614176
11
5.4903124803149606
21
-5.7902559055118106
0
LINE
8
BLACK
6
CONTINUOUS
10
5.65763531496063
20
-5.7902559055118106
11
5.6561656692913385
21
-5.7938039370078736
0
LINE
8
BLACK
6
CONTINUOUS
10
5.6561656692913385
20
-5.7938039370078736
11
5.6534501574803144
21
-5.7965194488188976
0
LINE
8
BLACK
6
CONTINUOUS
10
5.6534501574803144
20
-5.7965194488188976
11
5.6499021259842515
21
-5.7979890944881891
0
LINE
8
BLACK
6
CONTINUOUS
10
5.6499021259842515
20
-5.7979890944881891
11
5.6460617322834645
21
-5.7979890944881891
0
LINE
8
BLACK
6
CONTINUOUS
10
5.6460617322834645
20
-5.7979890944881891
11
5.6425137007874016
21
-5.7965194488188976
0
LINE
8
BLACK
6
CONTINUOUS
10
5.6425137007874016
20
-5.7965194488188976
11
5.6397981889763775
21
-5.7938039370078736
0
LINE
8
BLACK
6
CONTINUOUS
10
5.6397981889763775
20
-5.7938039370078736
11
5.6383285433070869
21
-5.7902559055118106
0
LINE
8
BLACK
6
CONTINUOUS
10
5.6383285433070869
20
-5.7902559055118106
11
5.6381394094488186
21
-5.7883357086614176
0
LINE
8
BLACK
6
CONTINUOUS
10
5.6381394094488186
20
-5.7883357086614176
11
5.6381394094488186
21
-5.7725876771653546
0
LINE
8
BLACK
6
CONTINUOUS
10
5.6381394094488186
20
-5.7725876771653546
11
5.6383285433070869
21
-5.7706674803149607
0
LINE
8
BLACK
6
CONTINUOUS
10
5.6383285433070869
20
-5.7706674803149607
11
5.6397981889763775
21
-5.7671194488188977
0
LINE
8
BLACK
6
CONTINUOUS
10
5.6397981889763775
20
-5.7671194488188977
11
5.6425137007874016
21
-5.7644039370078737
0
LINE
8
BLACK
6
CONTINUOUS
10
5.6425137007874016
20
-5.7644039370078737
11
5.6460617322834645
21
-5.7629342913385821
0
LINE
8
BLACK
6
CONTINUOUS
10
5.6460617322834645
20
-5.7629342913385821
11
5.6499021259842515
21
-5.7629342913385821
0
LINE
8
BLACK
6
CONTINUOUS
10
5.6499021259842515
20
-5.7629342913385821
11
5.6534501574803144
21
-5.7644039370078737
0
LINE
8
BLACK
6
CONTINUOUS
10
5.6534501574803144
20
-5.7644039370078737
11
5.6561656692913385
21
-5.7671194488188977
0
LINE
8
BLACK
6
CONTINUOUS
10
5.6561656692913385
20
-5.7671194488188977
11
5.65763531496063
21
-5.7706674803149607
0
LINE
8
BLACK
6
CONTINUOUS
10
5.65763531496063
20
-5.7706674803149607
11
5.6578244488188973
21
-5.7725876771653546
0
LINE
8
BLACK
6
CONTINUOUS
10
5.6578244488188973
20
-5.7725876771653546
11
5.6578244488188973
21
-5.7883357086614176
0
LINE
8
BLACK
6
CONTINUOUS
10
5.6578244488188973
20
-5.7883357086614176
11
5.65763531496063
21
-5.7902559055118106
0
CIRCLE
8
BLACK
10
3.5394622440944881
20
-3.2996979133858266
40
0.0068897637795276
0
CIRCLE
8
BLACK
10
3.439462244094488
20
-3.2996979133858266
40
0.0068897637795276
0
CIRCLE
8
BLACK
10
3.5394622440944881
20
-3.3996979133858267
40
0.0068897637795276
0
CIRCLE
8
BLACK
10
3.439462244094488
20
-3.3996979133858267
40
0.0068897637795276
0
CIRCLE
8
BLACK
10
3.5394622440944881
20
-3.4996979133858268
40
0.0068897637795276
0
CIRCLE
8
BLACK
10
3.439462244094488
20
-3.4996979133858268
40
0.0068897637795276
0
CIRCLE
8
BLACK
10
3.5394622440944881
20
-3.5996979133858269
40
0.0068897637795276
0
CIRCLE
8
BLACK
10
3.439462244094488
20
-3.5996979133858269
40
0.0068897637795276
0
CIRCLE
8
BLACK
10
3.5394622440944881
20
-3.6996979133858265
40
0.0068897637795276
0
CIRCLE
8
BLACK
10
3.439462244094488
20
-3.6996979133858265
40
0.0068897637795276
0
CIRCLE
8
BLACK
10
3.5394622440944881
20
-3.7996979133858266
40
0.0068897637795276
0
CIRCLE
8
BLACK
10
3.439462244094488
20
-3.7996979133858266
40
0.0068897637795276
0
CIRCLE
8
BLACK
10
3.5394622440944881
20
-3.8996979133858267
40
0.0068897637795276
0
CIRCLE
8
BLACK
10
3.439462244094488
20
-3.8996979133858267
40
0.0068897637795276
0
CIRCLE
8
BLACK
10
3.5394622440944881
20
-3.9996979133858268
40
0.0068897637795276
0
CIRCLE
8
BLACK
10
3.439462244094488
20
-3.9996979133858268
40
0.0068897637795276
0
CIRCLE
8
BLACK
10
3.5394622440944881
20
-4.0996979133858265
40
0.0068897637795276
0
CIRCLE
8
BLACK
10
3.439462244094488
20
-4.0996979133858265
40
0.0068897637795276
0
CIRCLE
8
BLACK
10
3.5394622440944881
20
-4.199697913385827
40
0.0068897637795276
0
CIRCLE
8
BLACK
10
3.439462244094488
20
-4.199697913385827
40
0.0068897637795276
0
CIRCLE
8
BLACK
10
3.5394622440944881
20
-4.2996979133858266
40
0.0068897637795276
0
CIRCLE
8
BLACK
10
3.439462244094488
20
-4.2996979133858266
40
0.0068897637795276
0
CIRCLE
8
BLACK
10
3.5394622440944881
20
-4.3996979133858263
40
0.0068897637795276
0
CIRCLE
8
BLACK
10
3.439462244094488
20
-4.3996979133858263
40
0.0068897637795276
0
CIRCLE
8
BLACK
10
3.5394622440944881
20
-4.4996979133858268
40
0.0068897637795276
0
CIRCLE
8
BLACK
10
3.439462244094488
20
-4.4996979133858268
40
0.0068897637795276
0
CIRCLE
8
BLACK
10
3.5394622440944881
20
-4.5996979133858265
40
0.0068897637795276
0
CIRCLE
8
BLACK
10
3.439462244094488
20
-4.5996979133858265
40
0.0068897637795276
0
CIRCLE
8
BLACK
10
3.5394622440944881
20
-4.699697913385827
40
0.0068897637795276
0
CIRCLE
8
BLACK
10
3.439462244094488
20
-4.699697913385827
40
0.0068897637795276
  0
ENDSEC
  0
EOF
