  0
SECTION
  2
HEADER
  9
$ANGBASE
  50
0.0
  9
$ANGDIR
  70
1
  9
$MEASUREMENT
  70
0
  0
ENDSEC
  0
SECTION
  2
TABLES
  0
TABLE
  2
LTYPE
  70
4
  0
LTYPE
  5
40F
  2
CONTINUOUS
  70
0
  3
Solid line
  72
65
  73
0
  40
0.0
  0
LTYPE
  5
410
  2
DASHDOT
 70
0
  3
Dash Dot ____ _ ____ _
 72
65
 73
4
 40
2.0
 49
1.25
 49
-0.25
 49
0.25
 49
-0.25
  0
LTYPE
  5
411
  2
DASHED
 70
0
  3
Dashed __ __ __ __ __
 72
65
 73
2
 40
0.75
 49
0.5
 49
-0.25
  0
LTYPE
  5
43B
  2
DOTTED
 70
0
  3
Dotted .  .  .  .
 72
65
 73
2
 40
0.2
 49
0.0
 49
-0.2
  0
ENDTAB
  0
TABLE
  2
STYLE
  70
4
  0
STYLE
  2
KICAD
  70
0
  40
0
  41
1
  42
1
  50
0
  71
0
  3
isocp.shx
  0
STYLE
  2
KICADB
  70
0
  40
0
  41
1
  42
1
  50
0
  71
0
  3
isocp.shx
  0
STYLE
  2
KICADI
  70
0
  40
0
  41
1
  42
1
  50
15
  71
0
  3
isocp.shx
  0
STYLE
  2
KICADBI
  70
0
  40
0
  41
1
  42
1
  50
15
  71
0
  3
isocp.shx
  0
ENDTAB
  0
TABLE
  2
LAYER
  70
1
  0
LAYER
  2
BLACK
  70
0
  62
7
  6
CONTINUOUS
  0
ENDTAB
  0
ENDSEC
  0
SECTION
  2
ENTITIES
0
LINE
8
BLACK
6
CONTINUOUS
10
0.364496062992126
20
1.3163543307086614
11
0.3684500393700788
21
1.3157280708661416
0
LINE
8
BLACK
6
CONTINUOUS
10
0.3684500393700788
20
1.3157280708661416
11
0.3720169291338583
21
1.3139106692913385
0
LINE
8
BLACK
6
CONTINUOUS
10
0.3720169291338583
20
1.3139106692913385
11
0.3748476771653543
21
1.3110799212598425
0
LINE
8
BLACK
6
CONTINUOUS
10
0.3748476771653543
20
1.3110799212598425
11
0.3766650787401575
21
1.307513031496063
0
LINE
8
BLACK
6
CONTINUOUS
10
0.3766650787401575
20
1.307513031496063
11
0.3772913385826772
21
1.3035590551181102
0
LINE
8
BLACK
6
CONTINUOUS
10
0.3772913385826772
20
1.3035590551181102
11
0.3772913385826772
21
1.2484409448818898
0
LINE
8
BLACK
6
CONTINUOUS
10
0.3772913385826772
20
1.2484409448818898
11
0.3766650787401575
21
1.244486968503937
0
LINE
8
BLACK
6
CONTINUOUS
10
0.3766650787401575
20
1.244486968503937
11
0.3748476771653543
21
1.2409200787401575
0
LINE
8
BLACK
6
CONTINUOUS
10
0.3748476771653543
20
1.2409200787401575
11
0.3720169291338583
21
1.2380893307086613
0
LINE
8
BLACK
6
CONTINUOUS
10
0.3720169291338583
20
1.2380893307086613
11
0.3684500393700788
21
1.2362719291338582
0
LINE
8
BLACK
6
CONTINUOUS
10
0.3684500393700788
20
1.2362719291338582
11
0.364496062992126
21
1.2356456692913385
0
LINE
8
BLACK
6
CONTINUOUS
10
0.364496062992126
20
1.2356456692913385
11
0.301503937007874
21
1.2356456692913385
0
LINE
8
BLACK
6
CONTINUOUS
10
0.301503937007874
20
1.2356456692913385
11
0.2975499606299212
21
1.2362719291338582
0
LINE
8
BLACK
6
CONTINUOUS
10
0.2975499606299212
20
1.2362719291338582
11
0.2939830708661417
21
1.2380893307086613
0
LINE
8
BLACK
6
CONTINUOUS
10
0.2939830708661417
20
1.2380893307086613
11
0.2911523228346456
21
1.2409200787401575
0
LINE
8
BLACK
6
CONTINUOUS
10
0.2911523228346456
20
1.2409200787401575
11
0.2893349212598425
21
1.244486968503937
0
LINE
8
BLACK
6
CONTINUOUS
10
0.2893349212598425
20
1.244486968503937
11
0.2887086614173228
21
1.2484409448818898
0
LINE
8
BLACK
6
CONTINUOUS
10
0.2887086614173228
20
1.2484409448818898
11
0.2887086614173228
21
1.3035590551181102
0
LINE
8
BLACK
6
CONTINUOUS
10
0.2887086614173228
20
1.3035590551181102
11
0.2893349212598425
21
1.307513031496063
0
LINE
8
BLACK
6
CONTINUOUS
10
0.2893349212598425
20
1.307513031496063
11
0.2911523228346456
21
1.3110799212598425
0
LINE
8
BLACK
6
CONTINUOUS
10
0.2911523228346456
20
1.3110799212598425
11
0.2939830708661417
21
1.3139106692913385
0
LINE
8
BLACK
6
CONTINUOUS
10
0.2939830708661417
20
1.3139106692913385
11
0.2975499606299212
21
1.3157280708661416
0
LINE
8
BLACK
6
CONTINUOUS
10
0.2975499606299212
20
1.3157280708661416
11
0.301503937007874
21
1.3163543307086614
0
LINE
8
BLACK
6
CONTINUOUS
10
0.301503937007874
20
1.3163543307086614
11
0.364496062992126
21
1.3163543307086614
0
LINE
8
BLACK
6
CONTINUOUS
10
0.301503937007874
20
1.3143858267716535
11
0.2997891338582677
21
1.3143858267716535
0
LINE
8
BLACK
6
CONTINUOUS
10
0.2997891338582677
20
1.3143858267716535
11
0.2965274015748031
21
1.3133260236220472
0
LINE
8
BLACK
6
CONTINUOUS
10
0.2965274015748031
20
1.3133260236220472
11
0.2937528346456693
21
1.311310157480315
0
LINE
8
BLACK
6
CONTINUOUS
10
0.2937528346456693
20
1.311310157480315
11
0.291736968503937
21
1.3085355905511811
0
LINE
8
BLACK
6
CONTINUOUS
10
0.291736968503937
20
1.3085355905511811
11
0.2906771653543307
21
1.3052738582677166
0
LINE
8
BLACK
6
CONTINUOUS
10
0.2906771653543307
20
1.3052738582677166
11
0.2906771653543307
21
1.3035590551181102
0
LINE
8
BLACK
6
CONTINUOUS
10
0.2906771653543307
20
1.3035590551181102
11
0.2906771653543307
21
1.2484409448818898
0
LINE
8
BLACK
6
CONTINUOUS
10
0.2906771653543307
20
1.2484409448818898
11
0.2906771653543307
21
1.2467261417322835
0
LINE
8
BLACK
6
CONTINUOUS
10
0.2906771653543307
20
1.2467261417322835
11
0.291736968503937
21
1.243464409448819
0
LINE
8
BLACK
6
CONTINUOUS
10
0.291736968503937
20
1.243464409448819
11
0.2937528346456693
21
1.2406898425196851
0
LINE
8
BLACK
6
CONTINUOUS
10
0.2937528346456693
20
1.2406898425196851
11
0.2965274015748031
21
1.2386739763779526
0
LINE
8
BLACK
6
CONTINUOUS
10
0.2965274015748031
20
1.2386739763779526
11
0.2997891338582677
21
1.2376141732283463
0
LINE
8
BLACK
6
CONTINUOUS
10
0.2997891338582677
20
1.2376141732283463
11
0.301503937007874
21
1.2376141732283463
0
LINE
8
BLACK
6
CONTINUOUS
10
0.301503937007874
20
1.2376141732283463
11
0.364496062992126
21
1.2376141732283463
0
LINE
8
BLACK
6
CONTINUOUS
10
0.364496062992126
20
1.2376141732283463
11
0.3662108661417323
21
1.2376141732283463
0
LINE
8
BLACK
6
CONTINUOUS
10
0.3662108661417323
20
1.2376141732283463
11
0.3694725984251969
21
1.2386739763779526
0
LINE
8
BLACK
6
CONTINUOUS
10
0.3694725984251969
20
1.2386739763779526
11
0.3722471653543307
21
1.2406898425196851
0
LINE
8
BLACK
6
CONTINUOUS
10
0.3722471653543307
20
1.2406898425196851
11
0.374263031496063
21
1.243464409448819
0
LINE
8
BLACK
6
CONTINUOUS
10
0.374263031496063
20
1.243464409448819
11
0.3753228346456693
21
1.2467261417322835
0
LINE
8
BLACK
6
CONTINUOUS
10
0.3753228346456693
20
1.2467261417322835
11
0.3753228346456693
21
1.2484409448818898
0
LINE
8
BLACK
6
CONTINUOUS
10
0.3753228346456693
20
1.2484409448818898
11
0.3753228346456693
21
1.3035590551181102
0
LINE
8
BLACK
6
CONTINUOUS
10
0.3753228346456693
20
1.3035590551181102
11
0.3753228346456693
21
1.3052738582677166
0
LINE
8
BLACK
6
CONTINUOUS
10
0.3753228346456693
20
1.3052738582677166
11
0.374263031496063
21
1.3085355905511811
0
LINE
8
BLACK
6
CONTINUOUS
10
0.374263031496063
20
1.3085355905511811
11
0.3722471653543307
21
1.311310157480315
0
LINE
8
BLACK
6
CONTINUOUS
10
0.3722471653543307
20
1.311310157480315
11
0.3694725984251969
21
1.3133260236220472
0
LINE
8
BLACK
6
CONTINUOUS
10
0.3694725984251969
20
1.3133260236220472
11
0.3662108661417323
21
1.3143858267716535
0
LINE
8
BLACK
6
CONTINUOUS
10
0.3662108661417323
20
1.3143858267716535
11
0.364496062992126
21
1.3143858267716535
0
LINE
8
BLACK
6
CONTINUOUS
10
0.364496062992126
20
1.3143858267716535
11
0.301503937007874
21
1.3143858267716535
0
LINE
8
BLACK
6
CONTINUOUS
10
0.364496062992126
20
1.4958543307086614
11
0.3684500393700788
21
1.4952280708661416
0
LINE
8
BLACK
6
CONTINUOUS
10
0.3684500393700788
20
1.4952280708661416
11
0.3720169291338583
21
1.4934106692913385
0
LINE
8
BLACK
6
CONTINUOUS
10
0.3720169291338583
20
1.4934106692913385
11
0.3748476771653543
21
1.4905799212598425
0
LINE
8
BLACK
6
CONTINUOUS
10
0.3748476771653543
20
1.4905799212598425
11
0.3766650787401575
21
1.487013031496063
0
LINE
8
BLACK
6
CONTINUOUS
10
0.3766650787401575
20
1.487013031496063
11
0.3772913385826772
21
1.4830590551181102
0
LINE
8
BLACK
6
CONTINUOUS
10
0.3772913385826772
20
1.4830590551181102
11
0.3772913385826772
21
1.4279409448818898
0
LINE
8
BLACK
6
CONTINUOUS
10
0.3772913385826772
20
1.4279409448818898
11
0.3766650787401575
21
1.423986968503937
0
LINE
8
BLACK
6
CONTINUOUS
10
0.3766650787401575
20
1.423986968503937
11
0.3748476771653543
21
1.4204200787401575
0
LINE
8
BLACK
6
CONTINUOUS
10
0.3748476771653543
20
1.4204200787401575
11
0.3720169291338583
21
1.4175893307086613
0
LINE
8
BLACK
6
CONTINUOUS
10
0.3720169291338583
20
1.4175893307086613
11
0.3684500393700788
21
1.4157719291338582
0
LINE
8
BLACK
6
CONTINUOUS
10
0.3684500393700788
20
1.4157719291338582
11
0.364496062992126
21
1.4151456692913384
0
LINE
8
BLACK
6
CONTINUOUS
10
0.364496062992126
20
1.4151456692913384
11
0.301503937007874
21
1.4151456692913384
0
LINE
8
BLACK
6
CONTINUOUS
10
0.301503937007874
20
1.4151456692913384
11
0.2975499606299212
21
1.4157719291338582
0
LINE
8
BLACK
6
CONTINUOUS
10
0.2975499606299212
20
1.4157719291338582
11
0.2939830708661417
21
1.4175893307086613
0
LINE
8
BLACK
6
CONTINUOUS
10
0.2939830708661417
20
1.4175893307086613
11
0.2911523228346456
21
1.4204200787401575
0
LINE
8
BLACK
6
CONTINUOUS
10
0.2911523228346456
20
1.4204200787401575
11
0.2893349212598425
21
1.423986968503937
0
LINE
8
BLACK
6
CONTINUOUS
10
0.2893349212598425
20
1.423986968503937
11
0.2887086614173228
21
1.4279409448818898
0
LINE
8
BLACK
6
CONTINUOUS
10
0.2887086614173228
20
1.4279409448818898
11
0.2887086614173228
21
1.4830590551181102
0
LINE
8
BLACK
6
CONTINUOUS
10
0.2887086614173228
20
1.4830590551181102
11
0.2893349212598425
21
1.487013031496063
0
LINE
8
BLACK
6
CONTINUOUS
10
0.2893349212598425
20
1.487013031496063
11
0.2911523228346456
21
1.4905799212598425
0
LINE
8
BLACK
6
CONTINUOUS
10
0.2911523228346456
20
1.4905799212598425
11
0.2939830708661417
21
1.4934106692913385
0
LINE
8
BLACK
6
CONTINUOUS
10
0.2939830708661417
20
1.4934106692913385
11
0.2975499606299212
21
1.4952280708661416
0
LINE
8
BLACK
6
CONTINUOUS
10
0.2975499606299212
20
1.4952280708661416
11
0.301503937007874
21
1.4958543307086614
0
LINE
8
BLACK
6
CONTINUOUS
10
0.301503937007874
20
1.4958543307086614
11
0.364496062992126
21
1.4958543307086614
0
LINE
8
BLACK
6
CONTINUOUS
10
0.301503937007874
20
1.4938858267716535
11
0.2997891338582677
21
1.4938858267716535
0
LINE
8
BLACK
6
CONTINUOUS
10
0.2997891338582677
20
1.4938858267716535
11
0.2965274015748031
21
1.4928260236220472
0
LINE
8
BLACK
6
CONTINUOUS
10
0.2965274015748031
20
1.4928260236220472
11
0.2937528346456693
21
1.490810157480315
0
LINE
8
BLACK
6
CONTINUOUS
10
0.2937528346456693
20
1.490810157480315
11
0.291736968503937
21
1.4880355905511811
0
LINE
8
BLACK
6
CONTINUOUS
10
0.291736968503937
20
1.4880355905511811
11
0.2906771653543307
21
1.4847738582677166
0
LINE
8
BLACK
6
CONTINUOUS
10
0.2906771653543307
20
1.4847738582677166
11
0.2906771653543307
21
1.4830590551181102
0
LINE
8
BLACK
6
CONTINUOUS
10
0.2906771653543307
20
1.4830590551181102
11
0.2906771653543307
21
1.4279409448818898
0
LINE
8
BLACK
6
CONTINUOUS
10
0.2906771653543307
20
1.4279409448818898
11
0.2906771653543307
21
1.4262261417322835
0
LINE
8
BLACK
6
CONTINUOUS
10
0.2906771653543307
20
1.4262261417322835
11
0.291736968503937
21
1.422964409448819
0
LINE
8
BLACK
6
CONTINUOUS
10
0.291736968503937
20
1.422964409448819
11
0.2937528346456693
21
1.4201898425196851
0
LINE
8
BLACK
6
CONTINUOUS
10
0.2937528346456693
20
1.4201898425196851
11
0.2965274015748031
21
1.4181739763779526
0
LINE
8
BLACK
6
CONTINUOUS
10
0.2965274015748031
20
1.4181739763779526
11
0.2997891338582677
21
1.4171141732283463
0
LINE
8
BLACK
6
CONTINUOUS
10
0.2997891338582677
20
1.4171141732283463
11
0.301503937007874
21
1.4171141732283463
0
LINE
8
BLACK
6
CONTINUOUS
10
0.301503937007874
20
1.4171141732283463
11
0.364496062992126
21
1.4171141732283463
0
LINE
8
BLACK
6
CONTINUOUS
10
0.364496062992126
20
1.4171141732283463
11
0.3662108661417323
21
1.4171141732283463
0
LINE
8
BLACK
6
CONTINUOUS
10
0.3662108661417323
20
1.4171141732283463
11
0.3694725984251969
21
1.4181739763779526
0
LINE
8
BLACK
6
CONTINUOUS
10
0.3694725984251969
20
1.4181739763779526
11
0.3722471653543307
21
1.4201898425196851
0
LINE
8
BLACK
6
CONTINUOUS
10
0.3722471653543307
20
1.4201898425196851
11
0.374263031496063
21
1.422964409448819
0
LINE
8
BLACK
6
CONTINUOUS
10
0.374263031496063
20
1.422964409448819
11
0.3753228346456693
21
1.4262261417322835
0
LINE
8
BLACK
6
CONTINUOUS
10
0.3753228346456693
20
1.4262261417322835
11
0.3753228346456693
21
1.4279409448818898
0
LINE
8
BLACK
6
CONTINUOUS
10
0.3753228346456693
20
1.4279409448818898
11
0.3753228346456693
21
1.4830590551181102
0
LINE
8
BLACK
6
CONTINUOUS
10
0.3753228346456693
20
1.4830590551181102
11
0.3753228346456693
21
1.4847738582677166
0
LINE
8
BLACK
6
CONTINUOUS
10
0.3753228346456693
20
1.4847738582677166
11
0.374263031496063
21
1.4880355905511811
0
LINE
8
BLACK
6
CONTINUOUS
10
0.374263031496063
20
1.4880355905511811
11
0.3722471653543307
21
1.490810157480315
0
LINE
8
BLACK
6
CONTINUOUS
10
0.3722471653543307
20
1.490810157480315
11
0.3694725984251969
21
1.4928260236220472
0
LINE
8
BLACK
6
CONTINUOUS
10
0.3694725984251969
20
1.4928260236220472
11
0.3662108661417323
21
1.4938858267716535
0
LINE
8
BLACK
6
CONTINUOUS
10
0.3662108661417323
20
1.4938858267716535
11
0.364496062992126
21
1.4938858267716535
0
LINE
8
BLACK
6
CONTINUOUS
10
0.364496062992126
20
1.4938858267716535
11
0.301503937007874
21
1.4938858267716535
0
LINE
8
BLACK
6
CONTINUOUS
10
0.364496062992126
20
1.6753543307086614
11
0.3684500393700788
21
1.6747280708661416
0
LINE
8
BLACK
6
CONTINUOUS
10
0.3684500393700788
20
1.6747280708661416
11
0.3720169291338583
21
1.6729106692913385
0
LINE
8
BLACK
6
CONTINUOUS
10
0.3720169291338583
20
1.6729106692913385
11
0.3748476771653543
21
1.6700799212598425
0
LINE
8
BLACK
6
CONTINUOUS
10
0.3748476771653543
20
1.6700799212598425
11
0.3766650787401575
21
1.666513031496063
0
LINE
8
BLACK
6
CONTINUOUS
10
0.3766650787401575
20
1.666513031496063
11
0.3772913385826772
21
1.6625590551181102
0
LINE
8
BLACK
6
CONTINUOUS
10
0.3772913385826772
20
1.6625590551181102
11
0.3772913385826772
21
1.6074409448818898
0
LINE
8
BLACK
6
CONTINUOUS
10
0.3772913385826772
20
1.6074409448818898
11
0.3766650787401575
21
1.603486968503937
0
LINE
8
BLACK
6
CONTINUOUS
10
0.3766650787401575
20
1.603486968503937
11
0.3748476771653543
21
1.5999200787401575
0
LINE
8
BLACK
6
CONTINUOUS
10
0.3748476771653543
20
1.5999200787401575
11
0.3720169291338583
21
1.5970893307086613
0
LINE
8
BLACK
6
CONTINUOUS
10
0.3720169291338583
20
1.5970893307086613
11
0.3684500393700788
21
1.5952719291338582
0
LINE
8
BLACK
6
CONTINUOUS
10
0.3684500393700788
20
1.5952719291338582
11
0.364496062992126
21
1.5946456692913384
0
LINE
8
BLACK
6
CONTINUOUS
10
0.364496062992126
20
1.5946456692913384
11
0.301503937007874
21
1.5946456692913384
0
LINE
8
BLACK
6
CONTINUOUS
10
0.301503937007874
20
1.5946456692913384
11
0.2975499606299212
21
1.5952719291338582
0
LINE
8
BLACK
6
CONTINUOUS
10
0.2975499606299212
20
1.5952719291338582
11
0.2939830708661417
21
1.5970893307086613
0
LINE
8
BLACK
6
CONTINUOUS
10
0.2939830708661417
20
1.5970893307086613
11
0.2911523228346456
21
1.5999200787401575
0
LINE
8
BLACK
6
CONTINUOUS
10
0.2911523228346456
20
1.5999200787401575
11
0.2893349212598425
21
1.603486968503937
0
LINE
8
BLACK
6
CONTINUOUS
10
0.2893349212598425
20
1.603486968503937
11
0.2887086614173228
21
1.6074409448818898
0
LINE
8
BLACK
6
CONTINUOUS
10
0.2887086614173228
20
1.6074409448818898
11
0.2887086614173228
21
1.6625590551181102
0
LINE
8
BLACK
6
CONTINUOUS
10
0.2887086614173228
20
1.6625590551181102
11
0.2893349212598425
21
1.666513031496063
0
LINE
8
BLACK
6
CONTINUOUS
10
0.2893349212598425
20
1.666513031496063
11
0.2911523228346456
21
1.6700799212598425
0
LINE
8
BLACK
6
CONTINUOUS
10
0.2911523228346456
20
1.6700799212598425
11
0.2939830708661417
21
1.6729106692913385
0
LINE
8
BLACK
6
CONTINUOUS
10
0.2939830708661417
20
1.6729106692913385
11
0.2975499606299212
21
1.6747280708661416
0
LINE
8
BLACK
6
CONTINUOUS
10
0.2975499606299212
20
1.6747280708661416
11
0.301503937007874
21
1.6753543307086614
0
LINE
8
BLACK
6
CONTINUOUS
10
0.301503937007874
20
1.6753543307086614
11
0.364496062992126
21
1.6753543307086614
0
LINE
8
BLACK
6
CONTINUOUS
10
0.301503937007874
20
1.6733858267716535
11
0.2997891338582677
21
1.6733858267716535
0
LINE
8
BLACK
6
CONTINUOUS
10
0.2997891338582677
20
1.6733858267716535
11
0.2965274015748031
21
1.6723260236220472
0
LINE
8
BLACK
6
CONTINUOUS
10
0.2965274015748031
20
1.6723260236220472
11
0.2937528346456693
21
1.670310157480315
0
LINE
8
BLACK
6
CONTINUOUS
10
0.2937528346456693
20
1.670310157480315
11
0.291736968503937
21
1.6675355905511811
0
LINE
8
BLACK
6
CONTINUOUS
10
0.291736968503937
20
1.6675355905511811
11
0.2906771653543307
21
1.6642738582677166
0
LINE
8
BLACK
6
CONTINUOUS
10
0.2906771653543307
20
1.6642738582677166
11
0.2906771653543307
21
1.6625590551181102
0
LINE
8
BLACK
6
CONTINUOUS
10
0.2906771653543307
20
1.6625590551181102
11
0.2906771653543307
21
1.6074409448818898
0
LINE
8
BLACK
6
CONTINUOUS
10
0.2906771653543307
20
1.6074409448818898
11
0.2906771653543307
21
1.6057261417322835
0
LINE
8
BLACK
6
CONTINUOUS
10
0.2906771653543307
20
1.6057261417322835
11
0.291736968503937
21
1.602464409448819
0
LINE
8
BLACK
6
CONTINUOUS
10
0.291736968503937
20
1.602464409448819
11
0.2937528346456693
21
1.599689842519685
0
LINE
8
BLACK
6
CONTINUOUS
10
0.2937528346456693
20
1.599689842519685
11
0.2965274015748031
21
1.5976739763779526
0
LINE
8
BLACK
6
CONTINUOUS
10
0.2965274015748031
20
1.5976739763779526
11
0.2997891338582677
21
1.5966141732283463
0
LINE
8
BLACK
6
CONTINUOUS
10
0.2997891338582677
20
1.5966141732283463
11
0.301503937007874
21
1.5966141732283463
0
LINE
8
BLACK
6
CONTINUOUS
10
0.301503937007874
20
1.5966141732283463
11
0.364496062992126
21
1.5966141732283463
0
LINE
8
BLACK
6
CONTINUOUS
10
0.364496062992126
20
1.5966141732283463
11
0.3662108661417323
21
1.5966141732283463
0
LINE
8
BLACK
6
CONTINUOUS
10
0.3662108661417323
20
1.5966141732283463
11
0.3694725984251969
21
1.5976739763779526
0
LINE
8
BLACK
6
CONTINUOUS
10
0.3694725984251969
20
1.5976739763779526
11
0.3722471653543307
21
1.599689842519685
0
LINE
8
BLACK
6
CONTINUOUS
10
0.3722471653543307
20
1.599689842519685
11
0.374263031496063
21
1.602464409448819
0
LINE
8
BLACK
6
CONTINUOUS
10
0.374263031496063
20
1.602464409448819
11
0.3753228346456693
21
1.6057261417322835
0
LINE
8
BLACK
6
CONTINUOUS
10
0.3753228346456693
20
1.6057261417322835
11
0.3753228346456693
21
1.6074409448818898
0
LINE
8
BLACK
6
CONTINUOUS
10
0.3753228346456693
20
1.6074409448818898
11
0.3753228346456693
21
1.6625590551181102
0
LINE
8
BLACK
6
CONTINUOUS
10
0.3753228346456693
20
1.6625590551181102
11
0.3753228346456693
21
1.6642738582677166
0
LINE
8
BLACK
6
CONTINUOUS
10
0.3753228346456693
20
1.6642738582677166
11
0.374263031496063
21
1.6675355905511811
0
LINE
8
BLACK
6
CONTINUOUS
10
0.374263031496063
20
1.6675355905511811
11
0.3722471653543307
21
1.670310157480315
0
LINE
8
BLACK
6
CONTINUOUS
10
0.3722471653543307
20
1.670310157480315
11
0.3694725984251969
21
1.6723260236220472
0
LINE
8
BLACK
6
CONTINUOUS
10
0.3694725984251969
20
1.6723260236220472
11
0.3662108661417323
21
1.6733858267716535
0
LINE
8
BLACK
6
CONTINUOUS
10
0.3662108661417323
20
1.6733858267716535
11
0.364496062992126
21
1.6733858267716535
0
LINE
8
BLACK
6
CONTINUOUS
10
0.364496062992126
20
1.6733858267716535
11
0.301503937007874
21
1.6733858267716535
0
LINE
8
BLACK
6
CONTINUOUS
10
2.5905590551181104
20
1.9462913385826772
11
2.5945130314960627
21
1.9456650787401575
0
LINE
8
BLACK
6
CONTINUOUS
10
2.5945130314960627
20
1.9456650787401575
11
2.5980799212598424
21
1.9438476771653543
0
LINE
8
BLACK
6
CONTINUOUS
10
2.5980799212598424
20
1.9438476771653543
11
2.6009106692913386
21
1.9410169291338581
0
LINE
8
BLACK
6
CONTINUOUS
10
2.6009106692913386
20
1.9410169291338581
11
2.6027280708661418
21
1.9374500393700786
0
LINE
8
BLACK
6
CONTINUOUS
10
2.6027280708661418
20
1.9374500393700786
11
2.6033543307086613
21
1.9334960629921258
0
LINE
8
BLACK
6
CONTINUOUS
10
2.6033543307086613
20
1.9334960629921258
11
2.6033543307086613
21
1.870503937007874
0
LINE
8
BLACK
6
CONTINUOUS
10
2.6033543307086613
20
1.870503937007874
11
2.6027280708661418
21
1.8665499606299212
0
LINE
8
BLACK
6
CONTINUOUS
10
2.6027280708661418
20
1.8665499606299212
11
2.6009106692913386
21
1.8629830708661417
0
LINE
8
BLACK
6
CONTINUOUS
10
2.6009106692913386
20
1.8629830708661417
11
2.5980799212598424
21
1.8601523228346457
0
LINE
8
BLACK
6
CONTINUOUS
10
2.5980799212598424
20
1.8601523228346457
11
2.5945130314960627
21
1.8583349212598426
0
LINE
8
BLACK
6
CONTINUOUS
10
2.5945130314960627
20
1.8583349212598426
11
2.5905590551181104
21
1.8577086614173228
0
LINE
8
BLACK
6
CONTINUOUS
10
2.5905590551181104
20
1.8577086614173228
11
2.5354409448818895
21
1.8577086614173228
0
LINE
8
BLACK
6
CONTINUOUS
10
2.5354409448818895
20
1.8577086614173228
11
2.5314869685039367
21
1.8583349212598426
0
LINE
8
BLACK
6
CONTINUOUS
10
2.5314869685039367
20
1.8583349212598426
11
2.5279200787401575
21
1.8601523228346457
0
LINE
8
BLACK
6
CONTINUOUS
10
2.5279200787401575
20
1.8601523228346457
11
2.5250893307086613
21
1.8629830708661417
0
LINE
8
BLACK
6
CONTINUOUS
10
2.5250893307086613
20
1.8629830708661417
11
2.5232719291338581
21
1.8665499606299212
0
LINE
8
BLACK
6
CONTINUOUS
10
2.5232719291338581
20
1.8665499606299212
11
2.5226456692913386
21
1.870503937007874
0
LINE
8
BLACK
6
CONTINUOUS
10
2.5226456692913386
20
1.870503937007874
11
2.5226456692913386
21
1.9334960629921258
0
LINE
8
BLACK
6
CONTINUOUS
10
2.5226456692913386
20
1.9334960629921258
11
2.5232719291338581
21
1.9374500393700786
0
LINE
8
BLACK
6
CONTINUOUS
10
2.5232719291338581
20
1.9374500393700786
11
2.5250893307086613
21
1.9410169291338581
0
LINE
8
BLACK
6
CONTINUOUS
10
2.5250893307086613
20
1.9410169291338581
11
2.5279200787401575
21
1.9438476771653543
0
LINE
8
BLACK
6
CONTINUOUS
10
2.5279200787401575
20
1.9438476771653543
11
2.5314869685039367
21
1.9456650787401575
0
LINE
8
BLACK
6
CONTINUOUS
10
2.5314869685039367
20
1.9456650787401575
11
2.5354409448818895
21
1.9462913385826772
0
LINE
8
BLACK
6
CONTINUOUS
10
2.5354409448818895
20
1.9462913385826772
11
2.5905590551181104
21
1.9462913385826772
0
LINE
8
BLACK
6
CONTINUOUS
10
2.5354409448818895
20
1.9443228346456694
11
2.5337261417322834
21
1.9443228346456694
0
LINE
8
BLACK
6
CONTINUOUS
10
2.5337261417322834
20
1.9443228346456694
11
2.5304644094488187
21
1.9432630314960631
0
LINE
8
BLACK
6
CONTINUOUS
10
2.5304644094488187
20
1.9432630314960631
11
2.5276898425196852
21
1.9412471653543306
0
LINE
8
BLACK
6
CONTINUOUS
10
2.5276898425196852
20
1.9412471653543306
11
2.5256739763779525
21
1.9384725984251967
0
LINE
8
BLACK
6
CONTINUOUS
10
2.5256739763779525
20
1.9384725984251967
11
2.5246141732283465
21
1.9352108661417322
0
LINE
8
BLACK
6
CONTINUOUS
10
2.5246141732283465
20
1.9352108661417322
11
2.5246141732283465
21
1.9334960629921258
0
LINE
8
BLACK
6
CONTINUOUS
10
2.5246141732283465
20
1.9334960629921258
11
2.5246141732283465
21
1.870503937007874
0
LINE
8
BLACK
6
CONTINUOUS
10
2.5246141732283465
20
1.870503937007874
11
2.5246141732283465
21
1.8687891338582676
0
LINE
8
BLACK
6
CONTINUOUS
10
2.5246141732283465
20
1.8687891338582676
11
2.5256739763779525
21
1.8655274015748031
0
LINE
8
BLACK
6
CONTINUOUS
10
2.5256739763779525
20
1.8655274015748031
11
2.5276898425196852
21
1.8627528346456692
0
LINE
8
BLACK
6
CONTINUOUS
10
2.5276898425196852
20
1.8627528346456692
11
2.5304644094488187
21
1.860736968503937
0
LINE
8
BLACK
6
CONTINUOUS
10
2.5304644094488187
20
1.860736968503937
11
2.5337261417322834
21
1.8596771653543307
0
LINE
8
BLACK
6
CONTINUOUS
10
2.5337261417322834
20
1.8596771653543307
11
2.5354409448818895
21
1.8596771653543307
0
LINE
8
BLACK
6
CONTINUOUS
10
2.5354409448818895
20
1.8596771653543307
11
2.5905590551181104
21
1.8596771653543307
0
LINE
8
BLACK
6
CONTINUOUS
10
2.5905590551181104
20
1.8596771653543307
11
2.5922738582677165
21
1.8596771653543307
0
LINE
8
BLACK
6
CONTINUOUS
10
2.5922738582677165
20
1.8596771653543307
11
2.5955355905511812
21
1.860736968503937
0
LINE
8
BLACK
6
CONTINUOUS
10
2.5955355905511812
20
1.860736968503937
11
2.5983101574803147
21
1.8627528346456692
0
LINE
8
BLACK
6
CONTINUOUS
10
2.5983101574803147
20
1.8627528346456692
11
2.6003260236220473
21
1.8655274015748031
0
LINE
8
BLACK
6
CONTINUOUS
10
2.6003260236220473
20
1.8655274015748031
11
2.6013858267716534
21
1.8687891338582676
0
LINE
8
BLACK
6
CONTINUOUS
10
2.6013858267716534
20
1.8687891338582676
11
2.6013858267716534
21
1.870503937007874
0
LINE
8
BLACK
6
CONTINUOUS
10
2.6013858267716534
20
1.870503937007874
11
2.6013858267716534
21
1.9334960629921258
0
LINE
8
BLACK
6
CONTINUOUS
10
2.6013858267716534
20
1.9334960629921258
11
2.6013858267716534
21
1.9352108661417322
0
LINE
8
BLACK
6
CONTINUOUS
10
2.6013858267716534
20
1.9352108661417322
11
2.6003260236220473
21
1.9384725984251967
0
LINE
8
BLACK
6
CONTINUOUS
10
2.6003260236220473
20
1.9384725984251967
11
2.5983101574803147
21
1.9412471653543306
0
LINE
8
BLACK
6
CONTINUOUS
10
2.5983101574803147
20
1.9412471653543306
11
2.5955355905511812
21
1.9432630314960631
0
LINE
8
BLACK
6
CONTINUOUS
10
2.5955355905511812
20
1.9432630314960631
11
2.5922738582677165
21
1.9443228346456694
0
LINE
8
BLACK
6
CONTINUOUS
10
2.5922738582677165
20
1.9443228346456694
11
2.5905590551181104
21
1.9443228346456694
0
LINE
8
BLACK
6
CONTINUOUS
10
2.5905590551181104
20
1.9443228346456694
11
2.5354409448818895
21
1.9443228346456694
0
LINE
8
BLACK
6
CONTINUOUS
10
2.4505590551181102
20
1.9472165354330708
11
2.454513031496063
21
1.9465902755905511
0
LINE
8
BLACK
6
CONTINUOUS
10
2.454513031496063
20
1.9465902755905511
11
2.4580799212598423
21
1.9447728740157479
0
LINE
8
BLACK
6
CONTINUOUS
10
2.4580799212598423
20
1.9447728740157479
11
2.4609106692913385
21
1.941942125984252
0
LINE
8
BLACK
6
CONTINUOUS
10
2.4609106692913385
20
1.941942125984252
11
2.4627280708661416
21
1.9383752362204725
0
LINE
8
BLACK
6
CONTINUOUS
10
2.4627280708661416
20
1.9383752362204725
11
2.4633543307086612
21
1.9344212598425197
0
LINE
8
BLACK
6
CONTINUOUS
10
2.4633543307086612
20
1.9344212598425197
11
2.4633543307086612
21
1.8714291338582676
0
LINE
8
BLACK
6
CONTINUOUS
10
2.4633543307086612
20
1.8714291338582676
11
2.4627280708661416
21
1.867475157480315
0
LINE
8
BLACK
6
CONTINUOUS
10
2.4627280708661416
20
1.867475157480315
11
2.4609106692913385
21
1.8639082677165353
0
LINE
8
BLACK
6
CONTINUOUS
10
2.4609106692913385
20
1.8639082677165353
11
2.4580799212598423
21
1.8610775196850393
0
LINE
8
BLACK
6
CONTINUOUS
10
2.4580799212598423
20
1.8610775196850393
11
2.454513031496063
21
1.8592601181102362
0
LINE
8
BLACK
6
CONTINUOUS
10
2.454513031496063
20
1.8592601181102362
11
2.4505590551181102
21
1.8586338582677164
0
LINE
8
BLACK
6
CONTINUOUS
10
2.4505590551181102
20
1.8586338582677164
11
2.3954409448818899
21
1.8586338582677164
0
LINE
8
BLACK
6
CONTINUOUS
10
2.3954409448818899
20
1.8586338582677164
11
2.391486968503937
21
1.8592601181102362
0
LINE
8
BLACK
6
CONTINUOUS
10
2.391486968503937
20
1.8592601181102362
11
2.3879200787401573
21
1.8610775196850393
0
LINE
8
BLACK
6
CONTINUOUS
10
2.3879200787401573
20
1.8610775196850393
11
2.3850893307086616
21
1.8639082677165353
0
LINE
8
BLACK
6
CONTINUOUS
10
2.3850893307086616
20
1.8639082677165353
11
2.3832719291338584
21
1.867475157480315
0
LINE
8
BLACK
6
CONTINUOUS
10
2.3832719291338584
20
1.867475157480315
11
2.3826456692913385
21
1.8714291338582676
0
LINE
8
BLACK
6
CONTINUOUS
10
2.3826456692913385
20
1.8714291338582676
11
2.3826456692913385
21
1.9344212598425197
0
LINE
8
BLACK
6
CONTINUOUS
10
2.3826456692913385
20
1.9344212598425197
11
2.3832719291338584
21
1.9383752362204725
0
LINE
8
BLACK
6
CONTINUOUS
10
2.3832719291338584
20
1.9383752362204725
11
2.3850893307086616
21
1.941942125984252
0
LINE
8
BLACK
6
CONTINUOUS
10
2.3850893307086616
20
1.941942125984252
11
2.3879200787401573
21
1.9447728740157479
0
LINE
8
BLACK
6
CONTINUOUS
10
2.3879200787401573
20
1.9447728740157479
11
2.391486968503937
21
1.9465902755905511
0
LINE
8
BLACK
6
CONTINUOUS
10
2.391486968503937
20
1.9465902755905511
11
2.3954409448818899
21
1.9472165354330708
0
LINE
8
BLACK
6
CONTINUOUS
10
2.3954409448818899
20
1.9472165354330708
11
2.4505590551181102
21
1.9472165354330708
0
LINE
8
BLACK
6
CONTINUOUS
10
2.3954409448818899
20
1.945248031496063
11
2.3937261417322833
21
1.945248031496063
0
LINE
8
BLACK
6
CONTINUOUS
10
2.3937261417322833
20
1.945248031496063
11
2.390464409448819
21
1.9441882283464567
0
LINE
8
BLACK
6
CONTINUOUS
10
2.390464409448819
20
1.9441882283464567
11
2.3876898425196851
21
1.9421723622047244
0
LINE
8
BLACK
6
CONTINUOUS
10
2.3876898425196851
20
1.9421723622047244
11
2.3856739763779529
21
1.9393977952755905
0
LINE
8
BLACK
6
CONTINUOUS
10
2.3856739763779529
20
1.9393977952755905
11
2.3846141732283463
21
1.936136062992126
0
LINE
8
BLACK
6
CONTINUOUS
10
2.3846141732283463
20
1.936136062992126
11
2.3846141732283463
21
1.9344212598425197
0
LINE
8
BLACK
6
CONTINUOUS
10
2.3846141732283463
20
1.9344212598425197
11
2.3846141732283463
21
1.8714291338582676
0
LINE
8
BLACK
6
CONTINUOUS
10
2.3846141732283463
20
1.8714291338582676
11
2.3846141732283463
21
1.8697143307086614
0
LINE
8
BLACK
6
CONTINUOUS
10
2.3846141732283463
20
1.8697143307086614
11
2.3856739763779529
21
1.8664525984251967
0
LINE
8
BLACK
6
CONTINUOUS
10
2.3856739763779529
20
1.8664525984251967
11
2.3876898425196851
21
1.863678031496063
0
LINE
8
BLACK
6
CONTINUOUS
10
2.3876898425196851
20
1.863678031496063
11
2.390464409448819
21
1.8616621653543306
0
LINE
8
BLACK
6
CONTINUOUS
10
2.390464409448819
20
1.8616621653543306
11
2.3937261417322833
21
1.8606023622047243
0
LINE
8
BLACK
6
CONTINUOUS
10
2.3937261417322833
20
1.8606023622047243
11
2.3954409448818899
21
1.8606023622047243
0
LINE
8
BLACK
6
CONTINUOUS
10
2.3954409448818899
20
1.8606023622047243
11
2.4505590551181102
21
1.8606023622047243
0
LINE
8
BLACK
6
CONTINUOUS
10
2.4505590551181102
20
1.8606023622047243
11
2.4522738582677164
21
1.8606023622047243
0
LINE
8
BLACK
6
CONTINUOUS
10
2.4522738582677164
20
1.8606023622047243
11
2.4555355905511811
21
1.8616621653543306
0
LINE
8
BLACK
6
CONTINUOUS
10
2.4555355905511811
20
1.8616621653543306
11
2.458310157480315
21
1.863678031496063
0
LINE
8
BLACK
6
CONTINUOUS
10
2.458310157480315
20
1.863678031496063
11
2.4603260236220472
21
1.8664525984251967
0
LINE
8
BLACK
6
CONTINUOUS
10
2.4603260236220472
20
1.8664525984251967
11
2.4613858267716533
21
1.8697143307086614
0
LINE
8
BLACK
6
CONTINUOUS
10
2.4613858267716533
20
1.8697143307086614
11
2.4613858267716533
21
1.8714291338582676
0
LINE
8
BLACK
6
CONTINUOUS
10
2.4613858267716533
20
1.8714291338582676
11
2.4613858267716533
21
1.9344212598425197
0
LINE
8
BLACK
6
CONTINUOUS
10
2.4613858267716533
20
1.9344212598425197
11
2.4613858267716533
21
1.936136062992126
0
LINE
8
BLACK
6
CONTINUOUS
10
2.4613858267716533
20
1.936136062992126
11
2.4603260236220472
21
1.9393977952755905
0
LINE
8
BLACK
6
CONTINUOUS
10
2.4603260236220472
20
1.9393977952755905
11
2.458310157480315
21
1.9421723622047244
0
LINE
8
BLACK
6
CONTINUOUS
10
2.458310157480315
20
1.9421723622047244
11
2.4555355905511811
21
1.9441882283464567
0
LINE
8
BLACK
6
CONTINUOUS
10
2.4555355905511811
20
1.9441882283464567
11
2.4522738582677164
21
1.945248031496063
0
LINE
8
BLACK
6
CONTINUOUS
10
2.4522738582677164
20
1.945248031496063
11
2.4505590551181102
21
1.945248031496063
0
LINE
8
BLACK
6
CONTINUOUS
10
2.4505590551181102
20
1.945248031496063
11
2.3954409448818899
21
1.945248031496063
0
LINE
8
BLACK
6
CONTINUOUS
10
2.9905760629921261
20
2.1928960236220472
11
2.9916404724409449
21
2.1924551181102361
0
LINE
8
BLACK
6
CONTINUOUS
10
2.9916404724409449
20
2.1924551181102361
11
2.9924551181102363
21
2.1916404724409446
0
LINE
8
BLACK
6
CONTINUOUS
10
2.9924551181102363
20
2.1916404724409446
11
2.992896023622047
21
2.1905760629921258
0
LINE
8
BLACK
6
CONTINUOUS
10
2.992896023622047
20
2.1905760629921258
11
2.9929527559055118
21
2.1899999999999999
0
LINE
8
BLACK
6
CONTINUOUS
10
2.9929527559055118
20
2.1899999999999999
11
2.9929527559055118
21
0.2100000393700787
0
LINE
8
BLACK
6
CONTINUOUS
10
2.9929527559055118
20
0.2100000393700787
11
2.992896023622047
21
0.2094239763779528
0
LINE
8
BLACK
6
CONTINUOUS
10
2.992896023622047
20
0.2094239763779528
11
2.9924551181102363
21
0.2083595669291338
0
LINE
8
BLACK
6
CONTINUOUS
10
2.9924551181102363
20
0.2083595669291338
11
2.9916404724409449
21
0.2075449212598425
0
LINE
8
BLACK
6
CONTINUOUS
10
2.9916404724409449
20
0.2075449212598425
11
2.9905760629921261
21
0.2071040157480315
0
LINE
8
BLACK
6
CONTINUOUS
10
2.9905760629921261
20
0.2071040157480315
11
2.9899999999999998
21
0.2070472834645669
0
LINE
8
BLACK
6
CONTINUOUS
10
2.9899999999999998
20
0.2070472834645669
11
0.21
21
0.2070472834645669
0
LINE
8
BLACK
6
CONTINUOUS
10
0.21
20
0.2070472834645669
11
0.209423937007874
21
0.2071040157480315
0
LINE
8
BLACK
6
CONTINUOUS
10
0.209423937007874
20
0.2071040157480315
11
0.2083595275590551
21
0.2075449212598425
0
LINE
8
BLACK
6
CONTINUOUS
10
0.2083595275590551
20
0.2075449212598425
11
0.2075448818897638
21
0.2083595669291338
0
LINE
8
BLACK
6
CONTINUOUS
10
0.2075448818897638
20
0.2083595669291338
11
0.2071039763779527
21
0.2094239763779528
0
LINE
8
BLACK
6
CONTINUOUS
10
0.2071039763779527
20
0.2094239763779528
11
0.2070472440944882
21
0.2100000393700787
0
LINE
8
BLACK
6
CONTINUOUS
10
0.2070472440944882
20
0.2100000393700787
11
0.2070472440944882
21
2.1899999999999999
0
LINE
8
BLACK
6
CONTINUOUS
10
0.2070472440944882
20
2.1899999999999999
11
0.2071039763779527
21
2.1905760629921258
0
LINE
8
BLACK
6
CONTINUOUS
10
0.2071039763779527
20
2.1905760629921258
11
0.2075448818897638
21
2.1916404724409446
0
LINE
8
BLACK
6
CONTINUOUS
10
0.2075448818897638
20
2.1916404724409446
11
0.2083595275590551
21
2.1924551181102361
0
LINE
8
BLACK
6
CONTINUOUS
10
0.2083595275590551
20
2.1924551181102361
11
0.209423937007874
21
2.1928960236220472
0
LINE
8
BLACK
6
CONTINUOUS
10
0.209423937007874
20
2.1928960236220472
11
0.21
21
2.192952755905512
0
LINE
8
BLACK
6
CONTINUOUS
10
0.21
20
2.192952755905512
11
2.9899999999999998
21
2.192952755905512
0
LINE
8
BLACK
6
CONTINUOUS
10
2.9899999999999998
20
2.192952755905512
11
2.9905760629921261
21
2.1928960236220472
0
LINE
8
BLACK
6
CONTINUOUS
10
0.2129527559055118
20
2.1870472440944879
11
0.2129527559055118
21
0.2129527952755906
0
LINE
8
BLACK
6
CONTINUOUS
10
0.2129527559055118
20
0.2129527952755906
11
2.9870472440944882
21
0.2129527952755906
0
LINE
8
BLACK
6
CONTINUOUS
10
2.9870472440944882
20
0.2129527952755906
11
2.9870472440944882
21
2.1870472440944879
0
LINE
8
BLACK
6
CONTINUOUS
10
2.9870472440944882
20
2.1870472440944879
11
0.2129527559055118
21
2.1870472440944879
0
CIRCLE
8
BLACK
10
2.7999999999999998
20
2.
40
0.0068897637795276
0
CIRCLE
8
BLACK
10
0.4
20
0.4
40
0.0068897637795276
0
CIRCLE
8
BLACK
10
2.7999999999999998
20
0.4
40
0.0068897637795276
0
CIRCLE
8
BLACK
10
0.4
20
2.
40
0.0068897637795276
0
CIRCLE
8
BLACK
10
0.9
20
2.
40
0.0068897637795276
0
CIRCLE
8
BLACK
10
0.9
20
2.1000000000000001
40
0.0068897637795276
0
CIRCLE
8
BLACK
10
1.
20
2.
40
0.0068897637795276
0
CIRCLE
8
BLACK
10
1.
20
2.1000000000000001
40
0.0068897637795276
0
CIRCLE
8
BLACK
10
1.0999999999999999
20
2.
40
0.0068897637795276
0
CIRCLE
8
BLACK
10
1.0999999999999999
20
2.1000000000000001
40
0.0068897637795276
0
CIRCLE
8
BLACK
10
1.2
20
2.
40
0.0068897637795276
0
CIRCLE
8
BLACK
10
1.2
20
2.1000000000000001
40
0.0068897637795276
0
CIRCLE
8
BLACK
10
1.3
20
2.
40
0.0068897637795276
0
CIRCLE
8
BLACK
10
1.3
20
2.1000000000000001
40
0.0068897637795276
0
CIRCLE
8
BLACK
10
1.3999999999999999
20
2.
40
0.0068897637795276
0
CIRCLE
8
BLACK
10
1.3999999999999999
20
2.1000000000000001
40
0.0068897637795276
0
CIRCLE
8
BLACK
10
1.5
20
2.
40
0.0068897637795276
0
CIRCLE
8
BLACK
10
1.5
20
2.1000000000000001
40
0.0068897637795276
0
CIRCLE
8
BLACK
10
1.5999999999999999
20
2.
40
0.0068897637795276
0
CIRCLE
8
BLACK
10
1.5999999999999999
20
2.1000000000000001
40
0.0068897637795276
0
CIRCLE
8
BLACK
10
1.7
20
2.
40
0.0068897637795276
0
CIRCLE
8
BLACK
10
1.7
20
2.1000000000000001
40
0.0068897637795276
0
CIRCLE
8
BLACK
10
1.8
20
2.
40
0.0068897637795276
0
CIRCLE
8
BLACK
10
1.8
20
2.1000000000000001
40
0.0068897637795276
0
CIRCLE
8
BLACK
10
1.8999999999999999
20
2.
40
0.0068897637795276
0
CIRCLE
8
BLACK
10
1.8999999999999999
20
2.1000000000000001
40
0.0068897637795276
0
CIRCLE
8
BLACK
10
2.
20
2.
40
0.0068897637795276
0
CIRCLE
8
BLACK
10
2.
20
2.1000000000000001
40
0.0068897637795276
0
CIRCLE
8
BLACK
10
2.1000000000000001
20
2.
40
0.0068897637795276
0
CIRCLE
8
BLACK
10
2.1000000000000001
20
2.1000000000000001
40
0.0068897637795276
0
CIRCLE
8
BLACK
10
2.1999999999999997
20
2.
40
0.0068897637795276
0
CIRCLE
8
BLACK
10
2.1999999999999997
20
2.1000000000000001
40
0.0068897637795276
0
CIRCLE
8
BLACK
10
2.2999999999999998
20
2.
40
0.0068897637795276
0
CIRCLE
8
BLACK
10
2.2999999999999998
20
2.1000000000000001
40
0.0068897637795276
0
CIRCLE
8
BLACK
10
2.7999999999999998
20
2.
40
0.0068897637795276
0
CIRCLE
8
BLACK
10
0.4
20
0.4
40
0.0068897637795276
0
CIRCLE
8
BLACK
10
2.7999999999999998
20
0.4
40
0.0068897637795276
0
CIRCLE
8
BLACK
10
0.4
20
2.
40
0.0068897637795276
0
CIRCLE
8
BLACK
10
0.9
20
2.
40
0.0068897637795276
0
CIRCLE
8
BLACK
10
0.9
20
2.1000000000000001
40
0.0068897637795276
0
CIRCLE
8
BLACK
10
1.
20
2.
40
0.0068897637795276
0
CIRCLE
8
BLACK
10
1.
20
2.1000000000000001
40
0.0068897637795276
0
CIRCLE
8
BLACK
10
1.0999999999999999
20
2.
40
0.0068897637795276
0
CIRCLE
8
BLACK
10
1.0999999999999999
20
2.1000000000000001
40
0.0068897637795276
0
CIRCLE
8
BLACK
10
1.2
20
2.
40
0.0068897637795276
0
CIRCLE
8
BLACK
10
1.2
20
2.1000000000000001
40
0.0068897637795276
0
CIRCLE
8
BLACK
10
1.3
20
2.
40
0.0068897637795276
0
CIRCLE
8
BLACK
10
1.3
20
2.1000000000000001
40
0.0068897637795276
0
CIRCLE
8
BLACK
10
1.3999999999999999
20
2.
40
0.0068897637795276
0
CIRCLE
8
BLACK
10
1.3999999999999999
20
2.1000000000000001
40
0.0068897637795276
0
CIRCLE
8
BLACK
10
1.5
20
2.
40
0.0068897637795276
0
CIRCLE
8
BLACK
10
1.5
20
2.1000000000000001
40
0.0068897637795276
0
CIRCLE
8
BLACK
10
1.5999999999999999
20
2.
40
0.0068897637795276
0
CIRCLE
8
BLACK
10
1.5999999999999999
20
2.1000000000000001
40
0.0068897637795276
0
CIRCLE
8
BLACK
10
1.7
20
2.
40
0.0068897637795276
0
CIRCLE
8
BLACK
10
1.7
20
2.1000000000000001
40
0.0068897637795276
0
CIRCLE
8
BLACK
10
1.8
20
2.
40
0.0068897637795276
0
CIRCLE
8
BLACK
10
1.8
20
2.1000000000000001
40
0.0068897637795276
0
CIRCLE
8
BLACK
10
1.8999999999999999
20
2.
40
0.0068897637795276
0
CIRCLE
8
BLACK
10
1.8999999999999999
20
2.1000000000000001
40
0.0068897637795276
0
CIRCLE
8
BLACK
10
2.
20
2.
40
0.0068897637795276
0
CIRCLE
8
BLACK
10
2.
20
2.1000000000000001
40
0.0068897637795276
0
CIRCLE
8
BLACK
10
2.1000000000000001
20
2.
40
0.0068897637795276
0
CIRCLE
8
BLACK
10
2.1000000000000001
20
2.1000000000000001
40
0.0068897637795276
0
CIRCLE
8
BLACK
10
2.1999999999999997
20
2.
40
0.0068897637795276
0
CIRCLE
8
BLACK
10
2.1999999999999997
20
2.1000000000000001
40
0.0068897637795276
0
CIRCLE
8
BLACK
10
2.2999999999999998
20
2.
40
0.0068897637795276
0
CIRCLE
8
BLACK
10
2.2999999999999998
20
2.1000000000000001
40
0.0068897637795276
  0
ENDSEC
  0
EOF
