  0
SECTION
  2
HEADER
  9
$ANGBASE
  50
0.0
  9
$ANGDIR
  70
1
  9
$MEASUREMENT
  70
0
  0
ENDSEC
  0
SECTION
  2
TABLES
  0
TABLE
  2
LTYPE
  70
4
  0
LTYPE
  5
40F
  2
CONTINUOUS
  70
0
  3
Solid line
  72
65
  73
0
  40
0.0
  0
LTYPE
  5
410
  2
DASHDOT
 70
0
  3
Dash Dot ____ _ ____ _
 72
65
 73
4
 40
2.0
 49
1.25
 49
-0.25
 49
0.25
 49
-0.25
  0
LTYPE
  5
411
  2
DASHED
 70
0
  3
Dashed __ __ __ __ __
 72
65
 73
2
 40
0.75
 49
0.5
 49
-0.25
  0
LTYPE
  5
43B
  2
DOTTED
 70
0
  3
Dotted .  .  .  .
 72
65
 73
2
 40
0.2
 49
0.0
 49
-0.2
  0
ENDTAB
  0
TABLE
  2
STYLE
  70
4
  0
STYLE
  2
KICAD
  70
0
  40
0
  41
1
  42
1
  50
0
  71
0
  3
isocp.shx
  0
STYLE
  2
KICADB
  70
0
  40
0
  41
1
  42
1
  50
0
  71
0
  3
isocp.shx
  0
STYLE
  2
KICADI
  70
0
  40
0
  41
1
  42
1
  50
15
  71
0
  3
isocp.shx
  0
STYLE
  2
KICADBI
  70
0
  40
0
  41
1
  42
1
  50
15
  71
0
  3
isocp.shx
  0
ENDTAB
  0
TABLE
  2
LAYER
  70
1
  0
LAYER
  2
BLACK
  70
0
  62
7
  6
CONTINUOUS
  0
ENDTAB
  0
ENDSEC
  0
SECTION
  2
ENTITIES
0
LINE
8
BLACK
6
CONTINUOUS
10
0.421038779527559
20
0.5238253937007874
11
0.4347705511811024
21
0.520691220472441
0
LINE
8
BLACK
6
CONTINUOUS
10
0.4347705511811024
20
0.520691220472441
11
0.4480650393700787
21
0.516039251968504
0
LINE
8
BLACK
6
CONTINUOUS
10
0.4480650393700787
20
0.516039251968504
11
0.4607550787401575
21
0.5099280708661417
0
LINE
8
BLACK
6
CONTINUOUS
10
0.4607550787401575
20
0.5099280708661417
11
0.4726811023622047
21
0.5024344488188976
0
LINE
8
BLACK
6
CONTINUOUS
10
0.4726811023622047
20
0.5024344488188976
11
0.4836931496062992
21
0.4936526377952756
0
LINE
8
BLACK
6
CONTINUOUS
10
0.4836931496062992
20
0.4936526377952756
11
0.4936526377952756
21
0.4836931496062992
0
LINE
8
BLACK
6
CONTINUOUS
10
0.4936526377952756
20
0.4836931496062992
11
0.5024344488188976
21
0.4726811023622047
0
LINE
8
BLACK
6
CONTINUOUS
10
0.5024344488188976
20
0.4726811023622047
11
0.5099280708661417
21
0.4607550787401575
0
LINE
8
BLACK
6
CONTINUOUS
10
0.5099280708661417
20
0.4607550787401575
11
0.516039251968504
21
0.4480650393700787
0
LINE
8
BLACK
6
CONTINUOUS
10
0.516039251968504
20
0.4480650393700787
11
0.520691220472441
21
0.4347705511811024
0
LINE
8
BLACK
6
CONTINUOUS
10
0.520691220472441
20
0.4347705511811024
11
0.5238253937007874
21
0.421038779527559
0
LINE
8
BLACK
6
CONTINUOUS
10
0.5238253937007874
20
0.421038779527559
11
0.5254024015748031
21
0.4070424409448819
0
LINE
8
BLACK
6
CONTINUOUS
10
0.5254024015748031
20
0.4070424409448819
11
0.5254024015748031
21
0.3929575590551181
0
LINE
8
BLACK
6
CONTINUOUS
10
0.5254024015748031
20
0.3929575590551181
11
0.5238253937007874
21
0.378961220472441
0
LINE
8
BLACK
6
CONTINUOUS
10
0.5238253937007874
20
0.378961220472441
11
0.520691220472441
21
0.3652294488188976
0
LINE
8
BLACK
6
CONTINUOUS
10
0.520691220472441
20
0.3652294488188976
11
0.516039251968504
21
0.3519349606299212
0
LINE
8
BLACK
6
CONTINUOUS
10
0.516039251968504
20
0.3519349606299212
11
0.5099280708661417
21
0.3392449212598425
0
LINE
8
BLACK
6
CONTINUOUS
10
0.5099280708661417
20
0.3392449212598425
11
0.5024344488188976
21
0.3273188976377953
0
LINE
8
BLACK
6
CONTINUOUS
10
0.5024344488188976
20
0.3273188976377953
11
0.4936526377952756
21
0.3163068503937008
0
LINE
8
BLACK
6
CONTINUOUS
10
0.4936526377952756
20
0.3163068503937008
11
0.4836931496062992
21
0.3063473622047244
0
LINE
8
BLACK
6
CONTINUOUS
10
0.4836931496062992
20
0.3063473622047244
11
0.4726811023622047
21
0.2975655511811023
0
LINE
8
BLACK
6
CONTINUOUS
10
0.4726811023622047
20
0.2975655511811023
11
0.4607550787401575
21
0.2900719291338583
0
LINE
8
BLACK
6
CONTINUOUS
10
0.4607550787401575
20
0.2900719291338583
11
0.4480650393700787
21
0.2839607480314961
0
LINE
8
BLACK
6
CONTINUOUS
10
0.4480650393700787
20
0.2839607480314961
11
0.4347705511811024
21
0.2793087795275591
0
LINE
8
BLACK
6
CONTINUOUS
10
0.4347705511811024
20
0.2793087795275591
11
0.421038779527559
21
0.2761746062992126
0
LINE
8
BLACK
6
CONTINUOUS
10
0.421038779527559
20
0.2761746062992126
11
0.4070424409448819
21
0.2745975984251968
0
LINE
8
BLACK
6
CONTINUOUS
10
0.4070424409448819
20
0.2745975984251968
11
0.3929575590551181
21
0.2745975984251968
0
LINE
8
BLACK
6
CONTINUOUS
10
0.3929575590551181
20
0.2745975984251968
11
0.378961220472441
21
0.2761746062992126
0
LINE
8
BLACK
6
CONTINUOUS
10
0.378961220472441
20
0.2761746062992126
11
0.3652294488188976
21
0.2793087795275591
0
LINE
8
BLACK
6
CONTINUOUS
10
0.3652294488188976
20
0.2793087795275591
11
0.3519349606299212
21
0.2839607480314961
0
LINE
8
BLACK
6
CONTINUOUS
10
0.3519349606299212
20
0.2839607480314961
11
0.3392449212598425
21
0.2900719291338583
0
LINE
8
BLACK
6
CONTINUOUS
10
0.3392449212598425
20
0.2900719291338583
11
0.3273188976377953
21
0.2975655511811023
0
LINE
8
BLACK
6
CONTINUOUS
10
0.3273188976377953
20
0.2975655511811023
11
0.3163068503937008
21
0.3063473622047244
0
LINE
8
BLACK
6
CONTINUOUS
10
0.3163068503937008
20
0.3063473622047244
11
0.3063473622047244
21
0.3163068503937008
0
LINE
8
BLACK
6
CONTINUOUS
10
0.3063473622047244
20
0.3163068503937008
11
0.2975655511811023
21
0.3273188976377953
0
LINE
8
BLACK
6
CONTINUOUS
10
0.2975655511811023
20
0.3273188976377953
11
0.2900719291338583
21
0.3392449212598425
0
LINE
8
BLACK
6
CONTINUOUS
10
0.2900719291338583
20
0.3392449212598425
11
0.2839607480314961
21
0.3519349606299212
0
LINE
8
BLACK
6
CONTINUOUS
10
0.2839607480314961
20
0.3519349606299212
11
0.2793087795275591
21
0.3652294488188976
0
LINE
8
BLACK
6
CONTINUOUS
10
0.2793087795275591
20
0.3652294488188976
11
0.2761746062992126
21
0.378961220472441
0
LINE
8
BLACK
6
CONTINUOUS
10
0.2761746062992126
20
0.378961220472441
11
0.2745975984251968
21
0.3929575590551181
0
LINE
8
BLACK
6
CONTINUOUS
10
0.2745975984251968
20
0.3929575590551181
11
0.2745975984251968
21
0.4062111811023622
0
LINE
8
BLACK
6
CONTINUOUS
10
0.2745975984251968
20
0.4062111811023622
11
0.2745975984251968
21
0.4070424409448819
0
LINE
8
BLACK
6
CONTINUOUS
10
0.2745975984251968
20
0.4070424409448819
11
0.2761746062992126
21
0.421038779527559
0
LINE
8
BLACK
6
CONTINUOUS
10
0.2761746062992126
20
0.421038779527559
11
0.2793087795275591
21
0.4347705511811024
0
LINE
8
BLACK
6
CONTINUOUS
10
0.2793087795275591
20
0.4347705511811024
11
0.2839607480314961
21
0.4480650393700787
0
LINE
8
BLACK
6
CONTINUOUS
10
0.2839607480314961
20
0.4480650393700787
11
0.2900719291338583
21
0.4607550787401575
0
LINE
8
BLACK
6
CONTINUOUS
10
0.2900719291338583
20
0.4607550787401575
11
0.2975655511811023
21
0.4726811023622047
0
LINE
8
BLACK
6
CONTINUOUS
10
0.2975655511811023
20
0.4726811023622047
11
0.3063473622047244
21
0.4836931496062992
0
LINE
8
BLACK
6
CONTINUOUS
10
0.3063473622047244
20
0.4836931496062992
11
0.3163068503937008
21
0.4936526377952756
0
LINE
8
BLACK
6
CONTINUOUS
10
0.3163068503937008
20
0.4936526377952756
11
0.3273188976377953
21
0.5024344488188976
0
LINE
8
BLACK
6
CONTINUOUS
10
0.3273188976377953
20
0.5024344488188976
11
0.3392449212598425
21
0.5099280708661417
0
LINE
8
BLACK
6
CONTINUOUS
10
0.3392449212598425
20
0.5099280708661417
11
0.3519349606299212
21
0.516039251968504
0
LINE
8
BLACK
6
CONTINUOUS
10
0.3519349606299212
20
0.516039251968504
11
0.3652294488188976
21
0.520691220472441
0
LINE
8
BLACK
6
CONTINUOUS
10
0.3652294488188976
20
0.520691220472441
11
0.378961220472441
21
0.5238253937007874
0
LINE
8
BLACK
6
CONTINUOUS
10
0.378961220472441
20
0.5238253937007874
11
0.3929575590551181
21
0.5254024015748031
0
LINE
8
BLACK
6
CONTINUOUS
10
0.3929575590551181
20
0.5254024015748031
11
0.4070424409448819
21
0.5254024015748031
0
LINE
8
BLACK
6
CONTINUOUS
10
0.4070424409448819
20
0.5254024015748031
11
0.421038779527559
21
0.5238253937007874
0
LINE
8
BLACK
6
CONTINUOUS
10
0.2894
20
0.3937888188976378
11
0.2907908661417323
21
0.3814446062992126
0
LINE
8
BLACK
6
CONTINUOUS
10
0.2907908661417323
20
0.3814446062992126
11
0.2935551181102362
21
0.3693337401574803
0
LINE
8
BLACK
6
CONTINUOUS
10
0.2935551181102362
20
0.3693337401574803
11
0.2976579527559055
21
0.3576085433070866
0
LINE
8
BLACK
6
CONTINUOUS
10
0.2976579527559055
20
0.3576085433070866
11
0.3030477952755906
21
0.3464164173228346
0
LINE
8
BLACK
6
CONTINUOUS
10
0.3030477952755906
20
0.3464164173228346
11
0.3096568503937008
21
0.3358981102362205
0
LINE
8
BLACK
6
CONTINUOUS
10
0.3096568503937008
20
0.3358981102362205
11
0.3174020472440945
21
0.3261859448818897
0
LINE
8
BLACK
6
CONTINUOUS
10
0.3174020472440945
20
0.3261859448818897
11
0.3261859448818897
21
0.3174020472440945
0
LINE
8
BLACK
6
CONTINUOUS
10
0.3261859448818897
20
0.3174020472440945
11
0.3358981102362205
21
0.3096568503937008
0
LINE
8
BLACK
6
CONTINUOUS
10
0.3358981102362205
20
0.3096568503937008
11
0.3464164173228346
21
0.3030477952755906
0
LINE
8
BLACK
6
CONTINUOUS
10
0.3464164173228346
20
0.3030477952755906
11
0.3576085433070866
21
0.2976579527559055
0
LINE
8
BLACK
6
CONTINUOUS
10
0.3576085433070866
20
0.2976579527559055
11
0.3693337401574803
21
0.2935551181102362
0
LINE
8
BLACK
6
CONTINUOUS
10
0.3693337401574803
20
0.2935551181102362
11
0.3814446062992126
21
0.2907908661417323
0
LINE
8
BLACK
6
CONTINUOUS
10
0.3814446062992126
20
0.2907908661417323
11
0.3937888188976378
21
0.2894
0
LINE
8
BLACK
6
CONTINUOUS
10
0.3937888188976378
20
0.2894
11
0.4062111811023622
21
0.2894
0
LINE
8
BLACK
6
CONTINUOUS
10
0.4062111811023622
20
0.2894
11
0.4185553937007874
21
0.2907908661417323
0
LINE
8
BLACK
6
CONTINUOUS
10
0.4185553937007874
20
0.2907908661417323
11
0.4306662598425197
21
0.2935551181102362
0
LINE
8
BLACK
6
CONTINUOUS
10
0.4306662598425197
20
0.2935551181102362
11
0.4423914566929134
21
0.2976579527559055
0
LINE
8
BLACK
6
CONTINUOUS
10
0.4423914566929134
20
0.2976579527559055
11
0.4535835826771654
21
0.3030477952755906
0
LINE
8
BLACK
6
CONTINUOUS
10
0.4535835826771654
20
0.3030477952755906
11
0.4641018897637795
21
0.3096568503937008
0
LINE
8
BLACK
6
CONTINUOUS
10
0.4641018897637795
20
0.3096568503937008
11
0.4738140551181102
21
0.3174020472440945
0
LINE
8
BLACK
6
CONTINUOUS
10
0.4738140551181102
20
0.3174020472440945
11
0.4825979527559055
21
0.3261859448818897
0
LINE
8
BLACK
6
CONTINUOUS
10
0.4825979527559055
20
0.3261859448818897
11
0.4903431496062992
21
0.3358981102362205
0
LINE
8
BLACK
6
CONTINUOUS
10
0.4903431496062992
20
0.3358981102362205
11
0.4969522047244094
21
0.3464164173228346
0
LINE
8
BLACK
6
CONTINUOUS
10
0.4969522047244094
20
0.3464164173228346
11
0.5023420472440945
21
0.3576085433070866
0
LINE
8
BLACK
6
CONTINUOUS
10
0.5023420472440945
20
0.3576085433070866
11
0.5064448818897638
21
0.3693337401574803
0
LINE
8
BLACK
6
CONTINUOUS
10
0.5064448818897638
20
0.3693337401574803
11
0.5092091338582677
21
0.3814446062992126
0
LINE
8
BLACK
6
CONTINUOUS
10
0.5092091338582677
20
0.3814446062992126
11
0.5105999999999999
21
0.3937888188976378
0
LINE
8
BLACK
6
CONTINUOUS
10
0.5105999999999999
20
0.3937888188976378
11
0.5105999999999999
21
0.4062111811023622
0
LINE
8
BLACK
6
CONTINUOUS
10
0.5105999999999999
20
0.4062111811023622
11
0.5092091338582677
21
0.4185553937007874
0
LINE
8
BLACK
6
CONTINUOUS
10
0.5092091338582677
20
0.4185553937007874
11
0.5064448818897638
21
0.4306662598425197
0
LINE
8
BLACK
6
CONTINUOUS
10
0.5064448818897638
20
0.4306662598425197
11
0.5023420472440945
21
0.4423914566929134
0
LINE
8
BLACK
6
CONTINUOUS
10
0.5023420472440945
20
0.4423914566929134
11
0.4969522047244094
21
0.4535835826771654
0
LINE
8
BLACK
6
CONTINUOUS
10
0.4969522047244094
20
0.4535835826771654
11
0.4903431496062992
21
0.4641018897637795
0
LINE
8
BLACK
6
CONTINUOUS
10
0.4903431496062992
20
0.4641018897637795
11
0.4825979527559055
21
0.4738140551181102
0
LINE
8
BLACK
6
CONTINUOUS
10
0.4825979527559055
20
0.4738140551181102
11
0.4738140551181102
21
0.4825979527559055
0
LINE
8
BLACK
6
CONTINUOUS
10
0.4738140551181102
20
0.4825979527559055
11
0.4641018897637795
21
0.4903431496062992
0
LINE
8
BLACK
6
CONTINUOUS
10
0.4641018897637795
20
0.4903431496062992
11
0.4535835826771654
21
0.4969522047244094
0
LINE
8
BLACK
6
CONTINUOUS
10
0.4535835826771654
20
0.4969522047244094
11
0.4423914566929134
21
0.5023420472440945
0
LINE
8
BLACK
6
CONTINUOUS
10
0.4423914566929134
20
0.5023420472440945
11
0.4306662598425197
21
0.5064448818897638
0
LINE
8
BLACK
6
CONTINUOUS
10
0.4306662598425197
20
0.5064448818897638
11
0.4185553937007874
21
0.5092091338582677
0
LINE
8
BLACK
6
CONTINUOUS
10
0.4185553937007874
20
0.5092091338582677
11
0.4062111811023622
21
0.5105999999999999
0
LINE
8
BLACK
6
CONTINUOUS
10
0.4062111811023622
20
0.5105999999999999
11
0.3937888188976378
21
0.5105999999999999
0
LINE
8
BLACK
6
CONTINUOUS
10
0.3937888188976378
20
0.5105999999999999
11
0.3814446062992126
21
0.5092091338582677
0
LINE
8
BLACK
6
CONTINUOUS
10
0.3814446062992126
20
0.5092091338582677
11
0.3693337401574803
21
0.5064448818897638
0
LINE
8
BLACK
6
CONTINUOUS
10
0.3693337401574803
20
0.5064448818897638
11
0.3576085433070866
21
0.5023420472440945
0
LINE
8
BLACK
6
CONTINUOUS
10
0.3576085433070866
20
0.5023420472440945
11
0.3464164173228346
21
0.4969522047244094
0
LINE
8
BLACK
6
CONTINUOUS
10
0.3464164173228346
20
0.4969522047244094
11
0.3358981102362205
21
0.4903431496062992
0
LINE
8
BLACK
6
CONTINUOUS
10
0.3358981102362205
20
0.4903431496062992
11
0.3261859448818897
21
0.4825979527559055
0
LINE
8
BLACK
6
CONTINUOUS
10
0.3261859448818897
20
0.4825979527559055
11
0.3174020472440945
21
0.4738140551181102
0
LINE
8
BLACK
6
CONTINUOUS
10
0.3174020472440945
20
0.4738140551181102
11
0.3096568503937008
21
0.4641018897637795
0
LINE
8
BLACK
6
CONTINUOUS
10
0.3096568503937008
20
0.4641018897637795
11
0.3030477952755906
21
0.4535835826771654
0
LINE
8
BLACK
6
CONTINUOUS
10
0.3030477952755906
20
0.4535835826771654
11
0.2976579527559055
21
0.4423914566929134
0
LINE
8
BLACK
6
CONTINUOUS
10
0.2976579527559055
20
0.4423914566929134
11
0.2935551181102362
21
0.4306662598425197
0
LINE
8
BLACK
6
CONTINUOUS
10
0.2935551181102362
20
0.4306662598425197
11
0.2907908661417323
21
0.4185553937007874
0
LINE
8
BLACK
6
CONTINUOUS
10
0.2907908661417323
20
0.4185553937007874
11
0.2894
21
0.4062111811023622
0
LINE
8
BLACK
6
CONTINUOUS
10
0.2894
20
0.4062111811023622
11
0.2894
21
0.3937888188976378
0
LINE
8
BLACK
6
CONTINUOUS
10
2.8210387795275591
20
0.5238253937007874
11
2.8347705511811023
21
0.520691220472441
0
LINE
8
BLACK
6
CONTINUOUS
10
2.8347705511811023
20
0.520691220472441
11
2.8480650393700788
21
0.516039251968504
0
LINE
8
BLACK
6
CONTINUOUS
10
2.8480650393700788
20
0.516039251968504
11
2.8607550787401572
21
0.5099280708661417
0
LINE
8
BLACK
6
CONTINUOUS
10
2.8607550787401572
20
0.5099280708661417
11
2.8726811023622045
21
0.5024344488188976
0
LINE
8
BLACK
6
CONTINUOUS
10
2.8726811023622045
20
0.5024344488188976
11
2.883693149606299
21
0.4936526377952756
0
LINE
8
BLACK
6
CONTINUOUS
10
2.883693149606299
20
0.4936526377952756
11
2.8936526377952756
21
0.4836931496062992
0
LINE
8
BLACK
6
CONTINUOUS
10
2.8936526377952756
20
0.4836931496062992
11
2.9024344488188976
21
0.4726811023622047
0
LINE
8
BLACK
6
CONTINUOUS
10
2.9024344488188976
20
0.4726811023622047
11
2.9099280708661417
21
0.4607550787401575
0
LINE
8
BLACK
6
CONTINUOUS
10
2.9099280708661417
20
0.4607550787401575
11
2.9160392519685039
21
0.4480650393700787
0
LINE
8
BLACK
6
CONTINUOUS
10
2.9160392519685039
20
0.4480650393700787
11
2.9206912204724409
21
0.4347705511811024
0
LINE
8
BLACK
6
CONTINUOUS
10
2.9206912204724409
20
0.4347705511811024
11
2.9238253937007874
21
0.421038779527559
0
LINE
8
BLACK
6
CONTINUOUS
10
2.9238253937007874
20
0.421038779527559
11
2.9254024015748032
21
0.4070424409448819
0
LINE
8
BLACK
6
CONTINUOUS
10
2.9254024015748032
20
0.4070424409448819
11
2.9254024015748032
21
0.3929575590551181
0
LINE
8
BLACK
6
CONTINUOUS
10
2.9254024015748032
20
0.3929575590551181
11
2.9238253937007874
21
0.378961220472441
0
LINE
8
BLACK
6
CONTINUOUS
10
2.9238253937007874
20
0.378961220472441
11
2.9206912204724409
21
0.3652294488188976
0
LINE
8
BLACK
6
CONTINUOUS
10
2.9206912204724409
20
0.3652294488188976
11
2.9160392519685039
21
0.3519349606299212
0
LINE
8
BLACK
6
CONTINUOUS
10
2.9160392519685039
20
0.3519349606299212
11
2.9099280708661417
21
0.3392449212598425
0
LINE
8
BLACK
6
CONTINUOUS
10
2.9099280708661417
20
0.3392449212598425
11
2.9024344488188976
21
0.3273188976377953
0
LINE
8
BLACK
6
CONTINUOUS
10
2.9024344488188976
20
0.3273188976377953
11
2.8936526377952756
21
0.3163068503937008
0
LINE
8
BLACK
6
CONTINUOUS
10
2.8936526377952756
20
0.3163068503937008
11
2.883693149606299
21
0.3063473622047244
0
LINE
8
BLACK
6
CONTINUOUS
10
2.883693149606299
20
0.3063473622047244
11
2.8726811023622045
21
0.2975655511811023
0
LINE
8
BLACK
6
CONTINUOUS
10
2.8726811023622045
20
0.2975655511811023
11
2.8607550787401572
21
0.2900719291338583
0
LINE
8
BLACK
6
CONTINUOUS
10
2.8607550787401572
20
0.2900719291338583
11
2.8480650393700788
21
0.2839607480314961
0
LINE
8
BLACK
6
CONTINUOUS
10
2.8480650393700788
20
0.2839607480314961
11
2.8347705511811023
21
0.2793087795275591
0
LINE
8
BLACK
6
CONTINUOUS
10
2.8347705511811023
20
0.2793087795275591
11
2.8210387795275591
21
0.2761746062992126
0
LINE
8
BLACK
6
CONTINUOUS
10
2.8210387795275591
20
0.2761746062992126
11
2.807042440944882
21
0.2745975984251968
0
LINE
8
BLACK
6
CONTINUOUS
10
2.807042440944882
20
0.2745975984251968
11
2.7929575590551181
21
0.2745975984251968
0
LINE
8
BLACK
6
CONTINUOUS
10
2.7929575590551181
20
0.2745975984251968
11
2.778961220472441
21
0.2761746062992126
0
LINE
8
BLACK
6
CONTINUOUS
10
2.778961220472441
20
0.2761746062992126
11
2.7652294488188978
21
0.2793087795275591
0
LINE
8
BLACK
6
CONTINUOUS
10
2.7652294488188978
20
0.2793087795275591
11
2.7519349606299213
21
0.2839607480314961
0
LINE
8
BLACK
6
CONTINUOUS
10
2.7519349606299213
20
0.2839607480314961
11
2.7392449212598424
21
0.2900719291338583
0
LINE
8
BLACK
6
CONTINUOUS
10
2.7392449212598424
20
0.2900719291338583
11
2.7273188976377951
21
0.2975655511811023
0
LINE
8
BLACK
6
CONTINUOUS
10
2.7273188976377951
20
0.2975655511811023
11
2.7163068503937007
21
0.3063473622047244
0
LINE
8
BLACK
6
CONTINUOUS
10
2.7163068503937007
20
0.3063473622047244
11
2.7063473622047245
21
0.3163068503937008
0
LINE
8
BLACK
6
CONTINUOUS
10
2.7063473622047245
20
0.3163068503937008
11
2.6975655511811021
21
0.3273188976377953
0
LINE
8
BLACK
6
CONTINUOUS
10
2.6975655511811021
20
0.3273188976377953
11
2.6900719291338584
21
0.3392449212598425
0
LINE
8
BLACK
6
CONTINUOUS
10
2.6900719291338584
20
0.3392449212598425
11
2.6839607480314962
21
0.3519349606299212
0
LINE
8
BLACK
6
CONTINUOUS
10
2.6839607480314962
20
0.3519349606299212
11
2.6793087795275592
21
0.3652294488188976
0
LINE
8
BLACK
6
CONTINUOUS
10
2.6793087795275592
20
0.3652294488188976
11
2.6761746062992127
21
0.378961220472441
0
LINE
8
BLACK
6
CONTINUOUS
10
2.6761746062992127
20
0.378961220472441
11
2.6745975984251968
21
0.3929575590551181
0
LINE
8
BLACK
6
CONTINUOUS
10
2.6745975984251968
20
0.3929575590551181
11
2.6745975984251968
21
0.4062111811023622
0
LINE
8
BLACK
6
CONTINUOUS
10
2.6745975984251968
20
0.4062111811023622
11
2.6745975984251968
21
0.4070424409448819
0
LINE
8
BLACK
6
CONTINUOUS
10
2.6745975984251968
20
0.4070424409448819
11
2.6761746062992127
21
0.421038779527559
0
LINE
8
BLACK
6
CONTINUOUS
10
2.6761746062992127
20
0.421038779527559
11
2.6793087795275592
21
0.4347705511811024
0
LINE
8
BLACK
6
CONTINUOUS
10
2.6793087795275592
20
0.4347705511811024
11
2.6839607480314962
21
0.4480650393700787
0
LINE
8
BLACK
6
CONTINUOUS
10
2.6839607480314962
20
0.4480650393700787
11
2.6900719291338584
21
0.4607550787401575
0
LINE
8
BLACK
6
CONTINUOUS
10
2.6900719291338584
20
0.4607550787401575
11
2.6975655511811021
21
0.4726811023622047
0
LINE
8
BLACK
6
CONTINUOUS
10
2.6975655511811021
20
0.4726811023622047
11
2.7063473622047245
21
0.4836931496062992
0
LINE
8
BLACK
6
CONTINUOUS
10
2.7063473622047245
20
0.4836931496062992
11
2.7163068503937007
21
0.4936526377952756
0
LINE
8
BLACK
6
CONTINUOUS
10
2.7163068503937007
20
0.4936526377952756
11
2.7273188976377951
21
0.5024344488188976
0
LINE
8
BLACK
6
CONTINUOUS
10
2.7273188976377951
20
0.5024344488188976
11
2.7392449212598424
21
0.5099280708661417
0
LINE
8
BLACK
6
CONTINUOUS
10
2.7392449212598424
20
0.5099280708661417
11
2.7519349606299213
21
0.516039251968504
0
LINE
8
BLACK
6
CONTINUOUS
10
2.7519349606299213
20
0.516039251968504
11
2.7652294488188978
21
0.520691220472441
0
LINE
8
BLACK
6
CONTINUOUS
10
2.7652294488188978
20
0.520691220472441
11
2.778961220472441
21
0.5238253937007874
0
LINE
8
BLACK
6
CONTINUOUS
10
2.778961220472441
20
0.5238253937007874
11
2.7929575590551181
21
0.5254024015748031
0
LINE
8
BLACK
6
CONTINUOUS
10
2.7929575590551181
20
0.5254024015748031
11
2.807042440944882
21
0.5254024015748031
0
LINE
8
BLACK
6
CONTINUOUS
10
2.807042440944882
20
0.5254024015748031
11
2.8210387795275591
21
0.5238253937007874
0
LINE
8
BLACK
6
CONTINUOUS
10
2.6894
20
0.3937888188976378
11
2.6907908661417324
21
0.3814446062992126
0
LINE
8
BLACK
6
CONTINUOUS
10
2.6907908661417324
20
0.3814446062992126
11
2.6935551181102362
21
0.3693337401574803
0
LINE
8
BLACK
6
CONTINUOUS
10
2.6935551181102362
20
0.3693337401574803
11
2.6976579527559053
21
0.3576085433070866
0
LINE
8
BLACK
6
CONTINUOUS
10
2.6976579527559053
20
0.3576085433070866
11
2.7030477952755905
21
0.3464164173228346
0
LINE
8
BLACK
6
CONTINUOUS
10
2.7030477952755905
20
0.3464164173228346
11
2.7096568503937006
21
0.3358981102362205
0
LINE
8
BLACK
6
CONTINUOUS
10
2.7096568503937006
20
0.3358981102362205
11
2.7174020472440943
21
0.3261859448818897
0
LINE
8
BLACK
6
CONTINUOUS
10
2.7174020472440943
20
0.3261859448818897
11
2.7261859448818897
21
0.3174020472440945
0
LINE
8
BLACK
6
CONTINUOUS
10
2.7261859448818897
20
0.3174020472440945
11
2.7358981102362203
21
0.3096568503937008
0
LINE
8
BLACK
6
CONTINUOUS
10
2.7358981102362203
20
0.3096568503937008
11
2.7464164173228345
21
0.3030477952755906
0
LINE
8
BLACK
6
CONTINUOUS
10
2.7464164173228345
20
0.3030477952755906
11
2.7576085433070867
21
0.2976579527559055
0
LINE
8
BLACK
6
CONTINUOUS
10
2.7576085433070867
20
0.2976579527559055
11
2.7693337401574802
21
0.2935551181102362
0
LINE
8
BLACK
6
CONTINUOUS
10
2.7693337401574802
20
0.2935551181102362
11
2.7814446062992126
21
0.2907908661417323
0
LINE
8
BLACK
6
CONTINUOUS
10
2.7814446062992126
20
0.2907908661417323
11
2.7937888188976379
21
0.2894
0
LINE
8
BLACK
6
CONTINUOUS
10
2.7937888188976379
20
0.2894
11
2.8062111811023622
21
0.2894
0
LINE
8
BLACK
6
CONTINUOUS
10
2.8062111811023622
20
0.2894
11
2.8185553937007874
21
0.2907908661417323
0
LINE
8
BLACK
6
CONTINUOUS
10
2.8185553937007874
20
0.2907908661417323
11
2.8306662598425194
21
0.2935551181102362
0
LINE
8
BLACK
6
CONTINUOUS
10
2.8306662598425194
20
0.2935551181102362
11
2.8423914566929134
21
0.2976579527559055
0
LINE
8
BLACK
6
CONTINUOUS
10
2.8423914566929134
20
0.2976579527559055
11
2.8535835826771652
21
0.3030477952755906
0
LINE
8
BLACK
6
CONTINUOUS
10
2.8535835826771652
20
0.3030477952755906
11
2.8641018897637793
21
0.3096568503937008
0
LINE
8
BLACK
6
CONTINUOUS
10
2.8641018897637793
20
0.3096568503937008
11
2.8738140551181104
21
0.3174020472440945
0
LINE
8
BLACK
6
CONTINUOUS
10
2.8738140551181104
20
0.3174020472440945
11
2.8825979527559054
21
0.3261859448818897
0
LINE
8
BLACK
6
CONTINUOUS
10
2.8825979527559054
20
0.3261859448818897
11
2.890343149606299
21
0.3358981102362205
0
LINE
8
BLACK
6
CONTINUOUS
10
2.890343149606299
20
0.3358981102362205
11
2.8969522047244092
21
0.3464164173228346
0
LINE
8
BLACK
6
CONTINUOUS
10
2.8969522047244092
20
0.3464164173228346
11
2.9023420472440944
21
0.3576085433070866
0
LINE
8
BLACK
6
CONTINUOUS
10
2.9023420472440944
20
0.3576085433070866
11
2.9064448818897639
21
0.3693337401574803
0
LINE
8
BLACK
6
CONTINUOUS
10
2.9064448818897639
20
0.3693337401574803
11
2.9092091338582677
21
0.3814446062992126
0
LINE
8
BLACK
6
CONTINUOUS
10
2.9092091338582677
20
0.3814446062992126
11
2.9106000000000001
21
0.3937888188976378
0
LINE
8
BLACK
6
CONTINUOUS
10
2.9106000000000001
20
0.3937888188976378
11
2.9106000000000001
21
0.4062111811023622
0
LINE
8
BLACK
6
CONTINUOUS
10
2.9106000000000001
20
0.4062111811023622
11
2.9092091338582677
21
0.4185553937007874
0
LINE
8
BLACK
6
CONTINUOUS
10
2.9092091338582677
20
0.4185553937007874
11
2.9064448818897639
21
0.4306662598425197
0
LINE
8
BLACK
6
CONTINUOUS
10
2.9064448818897639
20
0.4306662598425197
11
2.9023420472440944
21
0.4423914566929134
0
LINE
8
BLACK
6
CONTINUOUS
10
2.9023420472440944
20
0.4423914566929134
11
2.8969522047244092
21
0.4535835826771654
0
LINE
8
BLACK
6
CONTINUOUS
10
2.8969522047244092
20
0.4535835826771654
11
2.890343149606299
21
0.4641018897637795
0
LINE
8
BLACK
6
CONTINUOUS
10
2.890343149606299
20
0.4641018897637795
11
2.8825979527559054
21
0.4738140551181102
0
LINE
8
BLACK
6
CONTINUOUS
10
2.8825979527559054
20
0.4738140551181102
11
2.8738140551181104
21
0.4825979527559055
0
LINE
8
BLACK
6
CONTINUOUS
10
2.8738140551181104
20
0.4825979527559055
11
2.8641018897637793
21
0.4903431496062992
0
LINE
8
BLACK
6
CONTINUOUS
10
2.8641018897637793
20
0.4903431496062992
11
2.8535835826771652
21
0.4969522047244094
0
LINE
8
BLACK
6
CONTINUOUS
10
2.8535835826771652
20
0.4969522047244094
11
2.8423914566929134
21
0.5023420472440945
0
LINE
8
BLACK
6
CONTINUOUS
10
2.8423914566929134
20
0.5023420472440945
11
2.8306662598425194
21
0.5064448818897638
0
LINE
8
BLACK
6
CONTINUOUS
10
2.8306662598425194
20
0.5064448818897638
11
2.8185553937007874
21
0.5092091338582677
0
LINE
8
BLACK
6
CONTINUOUS
10
2.8185553937007874
20
0.5092091338582677
11
2.8062111811023622
21
0.5105999999999999
0
LINE
8
BLACK
6
CONTINUOUS
10
2.8062111811023622
20
0.5105999999999999
11
2.7937888188976379
21
0.5105999999999999
0
LINE
8
BLACK
6
CONTINUOUS
10
2.7937888188976379
20
0.5105999999999999
11
2.7814446062992126
21
0.5092091338582677
0
LINE
8
BLACK
6
CONTINUOUS
10
2.7814446062992126
20
0.5092091338582677
11
2.7693337401574802
21
0.5064448818897638
0
LINE
8
BLACK
6
CONTINUOUS
10
2.7693337401574802
20
0.5064448818897638
11
2.7576085433070867
21
0.5023420472440945
0
LINE
8
BLACK
6
CONTINUOUS
10
2.7576085433070867
20
0.5023420472440945
11
2.7464164173228345
21
0.4969522047244094
0
LINE
8
BLACK
6
CONTINUOUS
10
2.7464164173228345
20
0.4969522047244094
11
2.7358981102362203
21
0.4903431496062992
0
LINE
8
BLACK
6
CONTINUOUS
10
2.7358981102362203
20
0.4903431496062992
11
2.7261859448818897
21
0.4825979527559055
0
LINE
8
BLACK
6
CONTINUOUS
10
2.7261859448818897
20
0.4825979527559055
11
2.7174020472440943
21
0.4738140551181102
0
LINE
8
BLACK
6
CONTINUOUS
10
2.7174020472440943
20
0.4738140551181102
11
2.7096568503937006
21
0.4641018897637795
0
LINE
8
BLACK
6
CONTINUOUS
10
2.7096568503937006
20
0.4641018897637795
11
2.7030477952755905
21
0.4535835826771654
0
LINE
8
BLACK
6
CONTINUOUS
10
2.7030477952755905
20
0.4535835826771654
11
2.6976579527559053
21
0.4423914566929134
0
LINE
8
BLACK
6
CONTINUOUS
10
2.6976579527559053
20
0.4423914566929134
11
2.6935551181102362
21
0.4306662598425197
0
LINE
8
BLACK
6
CONTINUOUS
10
2.6935551181102362
20
0.4306662598425197
11
2.6907908661417324
21
0.4185553937007874
0
LINE
8
BLACK
6
CONTINUOUS
10
2.6907908661417324
20
0.4185553937007874
11
2.6894
21
0.4062111811023622
0
LINE
8
BLACK
6
CONTINUOUS
10
2.6894
20
0.4062111811023622
11
2.6894
21
0.3937888188976378
0
LINE
8
BLACK
6
CONTINUOUS
10
2.4387185433070866
20
1.8578918897637795
11
2.4397829527559054
21
1.8574509842519684
0
LINE
8
BLACK
6
CONTINUOUS
10
2.4397829527559054
20
1.8574509842519684
11
2.4405975984251969
21
1.8566363385826772
0
LINE
8
BLACK
6
CONTINUOUS
10
2.4405975984251969
20
1.8566363385826772
11
2.4410385039370079
21
1.8555719291338582
0
LINE
8
BLACK
6
CONTINUOUS
10
2.4410385039370079
20
1.8555719291338582
11
2.4410385039370079
21
1.8544198031496062
0
LINE
8
BLACK
6
CONTINUOUS
10
2.4410385039370079
20
1.8544198031496062
11
2.4405975984251969
21
1.8533553937007874
0
LINE
8
BLACK
6
CONTINUOUS
10
2.4405975984251969
20
1.8533553937007874
11
2.4397829527559054
21
1.8525407480314959
0
LINE
8
BLACK
6
CONTINUOUS
10
2.4397829527559054
20
1.8525407480314959
11
2.4387185433070866
21
1.8520998425196851
0
LINE
8
BLACK
6
CONTINUOUS
10
2.4387185433070866
20
1.8520998425196851
11
2.4381424803149607
21
1.8520431102362205
0
LINE
8
BLACK
6
CONTINUOUS
10
2.4381424803149607
20
1.8520431102362205
11
2.4204727952755904
21
1.8520431102362205
0
LINE
8
BLACK
6
CONTINUOUS
10
2.4204727952755904
20
1.8520431102362205
11
2.4204727952755904
21
1.8354514566929134
0
LINE
8
BLACK
6
CONTINUOUS
10
2.4204727952755904
20
1.8354514566929134
11
2.4381424803149607
21
1.8354514566929134
0
LINE
8
BLACK
6
CONTINUOUS
10
2.4381424803149607
20
1.8354514566929134
11
2.4387185433070866
21
1.8353947244094488
0
LINE
8
BLACK
6
CONTINUOUS
10
2.4387185433070866
20
1.8353947244094488
11
2.4397829527559054
21
1.8349538188976378
0
LINE
8
BLACK
6
CONTINUOUS
10
2.4397829527559054
20
1.8349538188976378
11
2.4405975984251969
21
1.8341391732283465
0
LINE
8
BLACK
6
CONTINUOUS
10
2.4405975984251969
20
1.8341391732283465
11
2.4410385039370079
21
1.8330747637795275
0
LINE
8
BLACK
6
CONTINUOUS
10
2.4410385039370079
20
1.8330747637795275
11
2.4410385039370079
21
1.8319226377952755
0
LINE
8
BLACK
6
CONTINUOUS
10
2.4410385039370079
20
1.8319226377952755
11
2.4405975984251969
21
1.8308582283464567
0
LINE
8
BLACK
6
CONTINUOUS
10
2.4405975984251969
20
1.8308582283464567
11
2.4397829527559054
21
1.8300435826771653
0
LINE
8
BLACK
6
CONTINUOUS
10
2.4397829527559054
20
1.8300435826771653
11
2.4387185433070866
21
1.8296026771653542
0
LINE
8
BLACK
6
CONTINUOUS
10
2.4387185433070866
20
1.8296026771653542
11
2.4381424803149607
21
1.8295459448818898
0
LINE
8
BLACK
6
CONTINUOUS
10
2.4381424803149607
20
1.8295459448818898
11
2.3987724015748033
21
1.8295459448818898
0
LINE
8
BLACK
6
CONTINUOUS
10
2.3987724015748033
20
1.8295459448818898
11
2.398196338582677
21
1.8296026771653542
0
LINE
8
BLACK
6
CONTINUOUS
10
2.398196338582677
20
1.8296026771653542
11
2.3971319291338582
21
1.8300435826771653
0
LINE
8
BLACK
6
CONTINUOUS
10
2.3971319291338582
20
1.8300435826771653
11
2.3963172834645667
21
1.8308582283464567
0
LINE
8
BLACK
6
CONTINUOUS
10
2.3963172834645667
20
1.8308582283464567
11
2.3958763779527557
21
1.8319226377952755
0
LINE
8
BLACK
6
CONTINUOUS
10
2.3958763779527557
20
1.8319226377952755
11
2.3958763779527557
21
1.8330747637795275
0
LINE
8
BLACK
6
CONTINUOUS
10
2.3958763779527557
20
1.8330747637795275
11
2.3963172834645667
21
1.8341391732283465
0
LINE
8
BLACK
6
CONTINUOUS
10
2.3963172834645667
20
1.8341391732283465
11
2.3971319291338582
21
1.8349538188976378
0
LINE
8
BLACK
6
CONTINUOUS
10
2.3971319291338582
20
1.8349538188976378
11
2.398196338582677
21
1.8353947244094488
0
LINE
8
BLACK
6
CONTINUOUS
10
2.398196338582677
20
1.8353947244094488
11
2.3987724015748033
21
1.8354514566929134
0
LINE
8
BLACK
6
CONTINUOUS
10
2.3987724015748033
20
1.8354514566929134
11
2.4145672834645668
21
1.8354514566929134
0
LINE
8
BLACK
6
CONTINUOUS
10
2.4145672834645668
20
1.8354514566929134
11
2.4145672834645668
21
1.8520431102362205
0
LINE
8
BLACK
6
CONTINUOUS
10
2.4145672834645668
20
1.8520431102362205
11
2.3987724015748033
21
1.8520431102362205
0
LINE
8
BLACK
6
CONTINUOUS
10
2.3987724015748033
20
1.8520431102362205
11
2.398196338582677
21
1.8520998425196851
0
LINE
8
BLACK
6
CONTINUOUS
10
2.398196338582677
20
1.8520998425196851
11
2.3971319291338582
21
1.8525407480314959
0
LINE
8
BLACK
6
CONTINUOUS
10
2.3971319291338582
20
1.8525407480314959
11
2.3963172834645667
21
1.8533553937007874
0
LINE
8
BLACK
6
CONTINUOUS
10
2.3963172834645667
20
1.8533553937007874
11
2.3958763779527557
21
1.8544198031496062
0
LINE
8
BLACK
6
CONTINUOUS
10
2.3958763779527557
20
1.8544198031496062
11
2.3958763779527557
21
1.8555719291338582
0
LINE
8
BLACK
6
CONTINUOUS
10
2.3958763779527557
20
1.8555719291338582
11
2.3963172834645667
21
1.8566363385826772
0
LINE
8
BLACK
6
CONTINUOUS
10
2.3963172834645667
20
1.8566363385826772
11
2.3971319291338582
21
1.8574509842519684
0
LINE
8
BLACK
6
CONTINUOUS
10
2.3971319291338582
20
1.8574509842519684
11
2.398196338582677
21
1.8578918897637795
0
LINE
8
BLACK
6
CONTINUOUS
10
2.398196338582677
20
1.8578918897637795
11
2.3987724015748033
21
1.8579486220472441
0
LINE
8
BLACK
6
CONTINUOUS
10
2.3987724015748033
20
1.8579486220472441
11
2.4381424803149607
21
1.8579486220472441
0
LINE
8
BLACK
6
CONTINUOUS
10
2.4381424803149607
20
1.8579486220472441
11
2.4387185433070866
21
1.8578918897637795
0
LINE
8
BLACK
6
CONTINUOUS
10
2.400412874015748
20
1.8949462992125983
11
2.4012275196850394
21
1.894131653543307
0
LINE
8
BLACK
6
CONTINUOUS
10
2.4012275196850394
20
1.894131653543307
11
2.4016684251968505
21
1.8930672440944882
0
LINE
8
BLACK
6
CONTINUOUS
10
2.4016684251968505
20
1.8930672440944882
11
2.4017251574803149
21
1.8924911811023621
0
LINE
8
BLACK
6
CONTINUOUS
10
2.4017251574803149
20
1.8924911811023621
11
2.4017251574803149
21
1.8766962992125984
0
LINE
8
BLACK
6
CONTINUOUS
10
2.4017251574803149
20
1.8766962992125984
11
2.4145672834645668
21
1.8766962992125984
0
LINE
8
BLACK
6
CONTINUOUS
10
2.4145672834645668
20
1.8766962992125984
11
2.4145672834645668
21
1.8868668897637795
0
LINE
8
BLACK
6
CONTINUOUS
10
2.4145672834645668
20
1.8868668897637795
11
2.4146240157480316
21
1.8874429527559056
0
LINE
8
BLACK
6
CONTINUOUS
10
2.4146240157480316
20
1.8874429527559056
11
2.4150649212598423
21
1.8885073622047244
0
LINE
8
BLACK
6
CONTINUOUS
10
2.4150649212598423
20
1.8885073622047244
11
2.4158795669291337
21
1.8893220078740156
0
LINE
8
BLACK
6
CONTINUOUS
10
2.4158795669291337
20
1.8893220078740156
11
2.4169439763779526
21
1.8897629133858267
0
LINE
8
BLACK
6
CONTINUOUS
10
2.4169439763779526
20
1.8897629133858267
11
2.4180961023622047
21
1.8897629133858267
0
LINE
8
BLACK
6
CONTINUOUS
10
2.4180961023622047
20
1.8897629133858267
11
2.4191605118110235
21
1.8893220078740156
0
LINE
8
BLACK
6
CONTINUOUS
10
2.4191605118110235
20
1.8893220078740156
11
2.419975157480315
21
1.8885073622047244
0
LINE
8
BLACK
6
CONTINUOUS
10
2.419975157480315
20
1.8885073622047244
11
2.4204160629921261
21
1.8874429527559056
0
LINE
8
BLACK
6
CONTINUOUS
10
2.4204160629921261
20
1.8874429527559056
11
2.4204727952755904
21
1.8868668897637795
0
LINE
8
BLACK
6
CONTINUOUS
10
2.4204727952755904
20
1.8868668897637795
11
2.4204727952755904
21
1.8766962992125984
0
LINE
8
BLACK
6
CONTINUOUS
10
2.4204727952755904
20
1.8766962992125984
11
2.4351897244094487
21
1.8766962992125984
0
LINE
8
BLACK
6
CONTINUOUS
10
2.4351897244094487
20
1.8766962992125984
11
2.4351897244094487
21
1.8924911811023621
0
LINE
8
BLACK
6
CONTINUOUS
10
2.4351897244094487
20
1.8924911811023621
11
2.4352464566929135
21
1.8930672440944882
0
LINE
8
BLACK
6
CONTINUOUS
10
2.4352464566929135
20
1.8930672440944882
11
2.4356873622047241
21
1.894131653543307
0
LINE
8
BLACK
6
CONTINUOUS
10
2.4356873622047241
20
1.894131653543307
11
2.4365020078740156
21
1.8949462992125983
0
LINE
8
BLACK
6
CONTINUOUS
10
2.4365020078740156
20
1.8949462992125983
11
2.4375664173228344
21
1.8953872047244094
0
LINE
8
BLACK
6
CONTINUOUS
10
2.4375664173228344
20
1.8953872047244094
11
2.4387185433070866
21
1.8953872047244094
0
LINE
8
BLACK
6
CONTINUOUS
10
2.4387185433070866
20
1.8953872047244094
11
2.4397829527559054
21
1.8949462992125983
0
LINE
8
BLACK
6
CONTINUOUS
10
2.4397829527559054
20
1.8949462992125983
11
2.4405975984251969
21
1.894131653543307
0
LINE
8
BLACK
6
CONTINUOUS
10
2.4405975984251969
20
1.894131653543307
11
2.4410385039370079
21
1.8930672440944882
0
LINE
8
BLACK
6
CONTINUOUS
10
2.4410385039370079
20
1.8930672440944882
11
2.4410952362204723
21
1.8924911811023621
0
LINE
8
BLACK
6
CONTINUOUS
10
2.4410952362204723
20
1.8924911811023621
11
2.4410952362204723
21
1.8737435433070866
0
LINE
8
BLACK
6
CONTINUOUS
10
2.4410952362204723
20
1.8737435433070866
11
2.4410385039370079
21
1.8731674803149605
0
LINE
8
BLACK
6
CONTINUOUS
10
2.4410385039370079
20
1.8731674803149605
11
2.4405975984251969
21
1.8721030708661417
0
LINE
8
BLACK
6
CONTINUOUS
10
2.4405975984251969
20
1.8721030708661417
11
2.4397829527559054
21
1.8712884251968505
0
LINE
8
BLACK
6
CONTINUOUS
10
2.4397829527559054
20
1.8712884251968505
11
2.4387185433070866
21
1.8708475196850394
0
LINE
8
BLACK
6
CONTINUOUS
10
2.4387185433070866
20
1.8708475196850394
11
2.4381424803149607
21
1.8707907874015748
0
LINE
8
BLACK
6
CONTINUOUS
10
2.4381424803149607
20
1.8707907874015748
11
2.3987724015748033
21
1.8707907874015748
0
LINE
8
BLACK
6
CONTINUOUS
10
2.3987724015748033
20
1.8707907874015748
11
2.398196338582677
21
1.8708475196850394
0
LINE
8
BLACK
6
CONTINUOUS
10
2.398196338582677
20
1.8708475196850394
11
2.3971319291338582
21
1.8712884251968505
0
LINE
8
BLACK
6
CONTINUOUS
10
2.3971319291338582
20
1.8712884251968505
11
2.3963172834645667
21
1.8721030708661417
0
LINE
8
BLACK
6
CONTINUOUS
10
2.3963172834645667
20
1.8721030708661417
11
2.3958763779527557
21
1.8731674803149605
0
LINE
8
BLACK
6
CONTINUOUS
10
2.3958763779527557
20
1.8731674803149605
11
2.3958196456692913
21
1.8737435433070866
0
LINE
8
BLACK
6
CONTINUOUS
10
2.3958196456692913
20
1.8737435433070866
11
2.3958196456692913
21
1.8924911811023621
0
LINE
8
BLACK
6
CONTINUOUS
10
2.3958196456692913
20
1.8924911811023621
11
2.3958763779527557
21
1.8930672440944882
0
LINE
8
BLACK
6
CONTINUOUS
10
2.3958763779527557
20
1.8930672440944882
11
2.3963172834645667
21
1.894131653543307
0
LINE
8
BLACK
6
CONTINUOUS
10
2.3963172834645667
20
1.894131653543307
11
2.3971319291338582
21
1.8949462992125983
0
LINE
8
BLACK
6
CONTINUOUS
10
2.3971319291338582
20
1.8949462992125983
11
2.398196338582677
21
1.8953872047244094
0
LINE
8
BLACK
6
CONTINUOUS
10
2.398196338582677
20
1.8953872047244094
11
2.3993484645669292
21
1.8953872047244094
0
LINE
8
BLACK
6
CONTINUOUS
10
2.3993484645669292
20
1.8953872047244094
11
2.400412874015748
21
1.8949462992125983
0
LINE
8
BLACK
6
CONTINUOUS
10
0.421038779527559
20
2.1238253937007872
11
0.4347705511811024
21
2.1206912204724411
0
LINE
8
BLACK
6
CONTINUOUS
10
0.4347705511811024
20
2.1206912204724411
11
0.4480650393700787
21
2.1160392519685041
0
LINE
8
BLACK
6
CONTINUOUS
10
0.4480650393700787
20
2.1160392519685041
11
0.4607550787401575
21
2.1099280708661419
0
LINE
8
BLACK
6
CONTINUOUS
10
0.4607550787401575
20
2.1099280708661419
11
0.4726811023622047
21
2.1024344488188977
0
LINE
8
BLACK
6
CONTINUOUS
10
0.4726811023622047
20
2.1024344488188977
11
0.4836931496062992
21
2.0936526377952753
0
LINE
8
BLACK
6
CONTINUOUS
10
0.4836931496062992
20
2.0936526377952753
11
0.4936526377952756
21
2.0836931496062991
0
LINE
8
BLACK
6
CONTINUOUS
10
0.4936526377952756
20
2.0836931496062991
11
0.5024344488188976
21
2.0726811023622047
0
LINE
8
BLACK
6
CONTINUOUS
10
0.5024344488188976
20
2.0726811023622047
11
0.5099280708661417
21
2.0607550787401574
0
LINE
8
BLACK
6
CONTINUOUS
10
0.5099280708661417
20
2.0607550787401574
11
0.516039251968504
21
2.0480650393700786
0
LINE
8
BLACK
6
CONTINUOUS
10
0.516039251968504
20
2.0480650393700786
11
0.520691220472441
21
2.0347705511811025
0
LINE
8
BLACK
6
CONTINUOUS
10
0.520691220472441
20
2.0347705511811025
11
0.5238253937007874
21
2.0210387795275588
0
LINE
8
BLACK
6
CONTINUOUS
10
0.5238253937007874
20
2.0210387795275588
11
0.5254024015748031
21
2.0070424409448817
0
LINE
8
BLACK
6
CONTINUOUS
10
0.5254024015748031
20
2.0070424409448817
11
0.5254024015748031
21
1.9929575590551181
0
LINE
8
BLACK
6
CONTINUOUS
10
0.5254024015748031
20
1.9929575590551181
11
0.5238253937007874
21
1.9789612204724409
0
LINE
8
BLACK
6
CONTINUOUS
10
0.5238253937007874
20
1.9789612204724409
11
0.520691220472441
21
1.9652294488188975
0
LINE
8
BLACK
6
CONTINUOUS
10
0.520691220472441
20
1.9652294488188975
11
0.516039251968504
21
1.9519349606299212
0
LINE
8
BLACK
6
CONTINUOUS
10
0.516039251968504
20
1.9519349606299212
11
0.5099280708661417
21
1.9392449212598424
0
LINE
8
BLACK
6
CONTINUOUS
10
0.5099280708661417
20
1.9392449212598424
11
0.5024344488188976
21
1.9273188976377953
0
LINE
8
BLACK
6
CONTINUOUS
10
0.5024344488188976
20
1.9273188976377953
11
0.4936526377952756
21
1.9163068503937006
0
LINE
8
BLACK
6
CONTINUOUS
10
0.4936526377952756
20
1.9163068503937006
11
0.4836931496062992
21
1.9063473622047244
0
LINE
8
BLACK
6
CONTINUOUS
10
0.4836931496062992
20
1.9063473622047244
11
0.4726811023622047
21
1.8975655511811023
0
LINE
8
BLACK
6
CONTINUOUS
10
0.4726811023622047
20
1.8975655511811023
11
0.4607550787401575
21
1.8900719291338581
0
LINE
8
BLACK
6
CONTINUOUS
10
0.4607550787401575
20
1.8900719291338581
11
0.4480650393700787
21
1.8839607480314959
0
LINE
8
BLACK
6
CONTINUOUS
10
0.4480650393700787
20
1.8839607480314959
11
0.4347705511811024
21
1.8793087795275589
0
LINE
8
BLACK
6
CONTINUOUS
10
0.4347705511811024
20
1.8793087795275589
11
0.421038779527559
21
1.8761746062992126
0
LINE
8
BLACK
6
CONTINUOUS
10
0.421038779527559
20
1.8761746062992126
11
0.4070424409448819
21
1.8745975984251968
0
LINE
8
BLACK
6
CONTINUOUS
10
0.4070424409448819
20
1.8745975984251968
11
0.3929575590551181
21
1.8745975984251968
0
LINE
8
BLACK
6
CONTINUOUS
10
0.3929575590551181
20
1.8745975984251968
11
0.378961220472441
21
1.8761746062992126
0
LINE
8
BLACK
6
CONTINUOUS
10
0.378961220472441
20
1.8761746062992126
11
0.3652294488188976
21
1.8793087795275589
0
LINE
8
BLACK
6
CONTINUOUS
10
0.3652294488188976
20
1.8793087795275589
11
0.3519349606299212
21
1.8839607480314959
0
LINE
8
BLACK
6
CONTINUOUS
10
0.3519349606299212
20
1.8839607480314959
11
0.3392449212598425
21
1.8900719291338581
0
LINE
8
BLACK
6
CONTINUOUS
10
0.3392449212598425
20
1.8900719291338581
11
0.3273188976377953
21
1.8975655511811023
0
LINE
8
BLACK
6
CONTINUOUS
10
0.3273188976377953
20
1.8975655511811023
11
0.3163068503937008
21
1.9063473622047244
0
LINE
8
BLACK
6
CONTINUOUS
10
0.3163068503937008
20
1.9063473622047244
11
0.3063473622047244
21
1.9163068503937006
0
LINE
8
BLACK
6
CONTINUOUS
10
0.3063473622047244
20
1.9163068503937006
11
0.2975655511811023
21
1.9273188976377953
0
LINE
8
BLACK
6
CONTINUOUS
10
0.2975655511811023
20
1.9273188976377953
11
0.2900719291338583
21
1.9392449212598424
0
LINE
8
BLACK
6
CONTINUOUS
10
0.2900719291338583
20
1.9392449212598424
11
0.2839607480314961
21
1.9519349606299212
0
LINE
8
BLACK
6
CONTINUOUS
10
0.2839607480314961
20
1.9519349606299212
11
0.2793087795275591
21
1.9652294488188975
0
LINE
8
BLACK
6
CONTINUOUS
10
0.2793087795275591
20
1.9652294488188975
11
0.2761746062992126
21
1.9789612204724409
0
LINE
8
BLACK
6
CONTINUOUS
10
0.2761746062992126
20
1.9789612204724409
11
0.2745975984251968
21
1.9929575590551181
0
LINE
8
BLACK
6
CONTINUOUS
10
0.2745975984251968
20
1.9929575590551181
11
0.2745975984251968
21
2.006211181102362
0
LINE
8
BLACK
6
CONTINUOUS
10
0.2745975984251968
20
2.006211181102362
11
0.2745975984251968
21
2.0070424409448817
0
LINE
8
BLACK
6
CONTINUOUS
10
0.2745975984251968
20
2.0070424409448817
11
0.2761746062992126
21
2.0210387795275588
0
LINE
8
BLACK
6
CONTINUOUS
10
0.2761746062992126
20
2.0210387795275588
11
0.2793087795275591
21
2.0347705511811025
0
LINE
8
BLACK
6
CONTINUOUS
10
0.2793087795275591
20
2.0347705511811025
11
0.2839607480314961
21
2.0480650393700786
0
LINE
8
BLACK
6
CONTINUOUS
10
0.2839607480314961
20
2.0480650393700786
11
0.2900719291338583
21
2.0607550787401574
0
LINE
8
BLACK
6
CONTINUOUS
10
0.2900719291338583
20
2.0607550787401574
11
0.2975655511811023
21
2.0726811023622047
0
LINE
8
BLACK
6
CONTINUOUS
10
0.2975655511811023
20
2.0726811023622047
11
0.3063473622047244
21
2.0836931496062991
0
LINE
8
BLACK
6
CONTINUOUS
10
0.3063473622047244
20
2.0836931496062991
11
0.3163068503937008
21
2.0936526377952753
0
LINE
8
BLACK
6
CONTINUOUS
10
0.3163068503937008
20
2.0936526377952753
11
0.3273188976377953
21
2.1024344488188977
0
LINE
8
BLACK
6
CONTINUOUS
10
0.3273188976377953
20
2.1024344488188977
11
0.3392449212598425
21
2.1099280708661419
0
LINE
8
BLACK
6
CONTINUOUS
10
0.3392449212598425
20
2.1099280708661419
11
0.3519349606299212
21
2.1160392519685041
0
LINE
8
BLACK
6
CONTINUOUS
10
0.3519349606299212
20
2.1160392519685041
11
0.3652294488188976
21
2.1206912204724411
0
LINE
8
BLACK
6
CONTINUOUS
10
0.3652294488188976
20
2.1206912204724411
11
0.378961220472441
21
2.1238253937007872
0
LINE
8
BLACK
6
CONTINUOUS
10
0.378961220472441
20
2.1238253937007872
11
0.3929575590551181
21
2.125402401574803
0
LINE
8
BLACK
6
CONTINUOUS
10
0.3929575590551181
20
2.125402401574803
11
0.4070424409448819
21
2.125402401574803
0
LINE
8
BLACK
6
CONTINUOUS
10
0.4070424409448819
20
2.125402401574803
11
0.421038779527559
21
2.1238253937007872
0
LINE
8
BLACK
6
CONTINUOUS
10
0.2894
20
1.9937888188976378
11
0.2907908661417323
21
1.9814446062992126
0
LINE
8
BLACK
6
CONTINUOUS
10
0.2907908661417323
20
1.9814446062992126
11
0.2935551181102362
21
1.9693337401574802
0
LINE
8
BLACK
6
CONTINUOUS
10
0.2935551181102362
20
1.9693337401574802
11
0.2976579527559055
21
1.9576085433070867
0
LINE
8
BLACK
6
CONTINUOUS
10
0.2976579527559055
20
1.9576085433070867
11
0.3030477952755906
21
1.9464164173228347
0
LINE
8
BLACK
6
CONTINUOUS
10
0.3030477952755906
20
1.9464164173228347
11
0.3096568503937008
21
1.9358981102362205
0
LINE
8
BLACK
6
CONTINUOUS
10
0.3096568503937008
20
1.9358981102362205
11
0.3174020472440945
21
1.9261859448818897
0
LINE
8
BLACK
6
CONTINUOUS
10
0.3174020472440945
20
1.9261859448818897
11
0.3261859448818897
21
1.9174020472440945
0
LINE
8
BLACK
6
CONTINUOUS
10
0.3261859448818897
20
1.9174020472440945
11
0.3358981102362205
21
1.9096568503937008
0
LINE
8
BLACK
6
CONTINUOUS
10
0.3358981102362205
20
1.9096568503937008
11
0.3464164173228346
21
1.9030477952755904
0
LINE
8
BLACK
6
CONTINUOUS
10
0.3464164173228346
20
1.9030477952755904
11
0.3576085433070866
21
1.8976579527559054
0
LINE
8
BLACK
6
CONTINUOUS
10
0.3576085433070866
20
1.8976579527559054
11
0.3693337401574803
21
1.8935551181102361
0
LINE
8
BLACK
6
CONTINUOUS
10
0.3693337401574803
20
1.8935551181102361
11
0.3814446062992126
21
1.8907908661417323
0
LINE
8
BLACK
6
CONTINUOUS
10
0.3814446062992126
20
1.8907908661417323
11
0.3937888188976378
21
1.8894
0
LINE
8
BLACK
6
CONTINUOUS
10
0.3937888188976378
20
1.8894
11
0.4062111811023622
21
1.8894
0
LINE
8
BLACK
6
CONTINUOUS
10
0.4062111811023622
20
1.8894
11
0.4185553937007874
21
1.8907908661417323
0
LINE
8
BLACK
6
CONTINUOUS
10
0.4185553937007874
20
1.8907908661417323
11
0.4306662598425197
21
1.8935551181102361
0
LINE
8
BLACK
6
CONTINUOUS
10
0.4306662598425197
20
1.8935551181102361
11
0.4423914566929134
21
1.8976579527559054
0
LINE
8
BLACK
6
CONTINUOUS
10
0.4423914566929134
20
1.8976579527559054
11
0.4535835826771654
21
1.9030477952755904
0
LINE
8
BLACK
6
CONTINUOUS
10
0.4535835826771654
20
1.9030477952755904
11
0.4641018897637795
21
1.9096568503937008
0
LINE
8
BLACK
6
CONTINUOUS
10
0.4641018897637795
20
1.9096568503937008
11
0.4738140551181102
21
1.9174020472440945
0
LINE
8
BLACK
6
CONTINUOUS
10
0.4738140551181102
20
1.9174020472440945
11
0.4825979527559055
21
1.9261859448818897
0
LINE
8
BLACK
6
CONTINUOUS
10
0.4825979527559055
20
1.9261859448818897
11
0.4903431496062992
21
1.9358981102362205
0
LINE
8
BLACK
6
CONTINUOUS
10
0.4903431496062992
20
1.9358981102362205
11
0.4969522047244094
21
1.9464164173228347
0
LINE
8
BLACK
6
CONTINUOUS
10
0.4969522047244094
20
1.9464164173228347
11
0.5023420472440945
21
1.9576085433070867
0
LINE
8
BLACK
6
CONTINUOUS
10
0.5023420472440945
20
1.9576085433070867
11
0.5064448818897638
21
1.9693337401574802
0
LINE
8
BLACK
6
CONTINUOUS
10
0.5064448818897638
20
1.9693337401574802
11
0.5092091338582677
21
1.9814446062992126
0
LINE
8
BLACK
6
CONTINUOUS
10
0.5092091338582677
20
1.9814446062992126
11
0.5105999999999999
21
1.9937888188976378
0
LINE
8
BLACK
6
CONTINUOUS
10
0.5105999999999999
20
1.9937888188976378
11
0.5105999999999999
21
2.006211181102362
0
LINE
8
BLACK
6
CONTINUOUS
10
0.5105999999999999
20
2.006211181102362
11
0.5092091338582677
21
2.0185553937007872
0
LINE
8
BLACK
6
CONTINUOUS
10
0.5092091338582677
20
2.0185553937007872
11
0.5064448818897638
21
2.0306662598425196
0
LINE
8
BLACK
6
CONTINUOUS
10
0.5064448818897638
20
2.0306662598425196
11
0.5023420472440945
21
2.0423914566929136
0
LINE
8
BLACK
6
CONTINUOUS
10
0.5023420472440945
20
2.0423914566929136
11
0.4969522047244094
21
2.0535835826771653
0
LINE
8
BLACK
6
CONTINUOUS
10
0.4969522047244094
20
2.0535835826771653
11
0.4903431496062992
21
2.0641018897637795
0
LINE
8
BLACK
6
CONTINUOUS
10
0.4903431496062992
20
2.0641018897637795
11
0.4825979527559055
21
2.0738140551181101
0
LINE
8
BLACK
6
CONTINUOUS
10
0.4825979527559055
20
2.0738140551181101
11
0.4738140551181102
21
2.0825979527559055
0
LINE
8
BLACK
6
CONTINUOUS
10
0.4738140551181102
20
2.0825979527559055
11
0.4641018897637795
21
2.0903431496062992
0
LINE
8
BLACK
6
CONTINUOUS
10
0.4641018897637795
20
2.0903431496062992
11
0.4535835826771654
21
2.0969522047244094
0
LINE
8
BLACK
6
CONTINUOUS
10
0.4535835826771654
20
2.0969522047244094
11
0.4423914566929134
21
2.1023420472440946
0
LINE
8
BLACK
6
CONTINUOUS
10
0.4423914566929134
20
2.1023420472440946
11
0.4306662598425197
21
2.1064448818897636
0
LINE
8
BLACK
6
CONTINUOUS
10
0.4306662598425197
20
2.1064448818897636
11
0.4185553937007874
21
2.1092091338582675
0
LINE
8
BLACK
6
CONTINUOUS
10
0.4185553937007874
20
2.1092091338582675
11
0.4062111811023622
21
2.1105999999999998
0
LINE
8
BLACK
6
CONTINUOUS
10
0.4062111811023622
20
2.1105999999999998
11
0.3937888188976378
21
2.1105999999999998
0
LINE
8
BLACK
6
CONTINUOUS
10
0.3937888188976378
20
2.1105999999999998
11
0.3814446062992126
21
2.1092091338582675
0
LINE
8
BLACK
6
CONTINUOUS
10
0.3814446062992126
20
2.1092091338582675
11
0.3693337401574803
21
2.1064448818897636
0
LINE
8
BLACK
6
CONTINUOUS
10
0.3693337401574803
20
2.1064448818897636
11
0.3576085433070866
21
2.1023420472440946
0
LINE
8
BLACK
6
CONTINUOUS
10
0.3576085433070866
20
2.1023420472440946
11
0.3464164173228346
21
2.0969522047244094
0
LINE
8
BLACK
6
CONTINUOUS
10
0.3464164173228346
20
2.0969522047244094
11
0.3358981102362205
21
2.0903431496062992
0
LINE
8
BLACK
6
CONTINUOUS
10
0.3358981102362205
20
2.0903431496062992
11
0.3261859448818897
21
2.0825979527559055
0
LINE
8
BLACK
6
CONTINUOUS
10
0.3261859448818897
20
2.0825979527559055
11
0.3174020472440945
21
2.0738140551181101
0
LINE
8
BLACK
6
CONTINUOUS
10
0.3174020472440945
20
2.0738140551181101
11
0.3096568503937008
21
2.0641018897637795
0
LINE
8
BLACK
6
CONTINUOUS
10
0.3096568503937008
20
2.0641018897637795
11
0.3030477952755906
21
2.0535835826771653
0
LINE
8
BLACK
6
CONTINUOUS
10
0.3030477952755906
20
2.0535835826771653
11
0.2976579527559055
21
2.0423914566929136
0
LINE
8
BLACK
6
CONTINUOUS
10
0.2976579527559055
20
2.0423914566929136
11
0.2935551181102362
21
2.0306662598425196
0
LINE
8
BLACK
6
CONTINUOUS
10
0.2935551181102362
20
2.0306662598425196
11
0.2907908661417323
21
2.0185553937007872
0
LINE
8
BLACK
6
CONTINUOUS
10
0.2907908661417323
20
2.0185553937007872
11
0.2894
21
2.006211181102362
0
LINE
8
BLACK
6
CONTINUOUS
10
0.2894
20
2.006211181102362
11
0.2894
21
1.9937888188976378
0
LINE
8
BLACK
6
CONTINUOUS
10
2.8210387795275591
20
2.1238253937007872
11
2.8347705511811023
21
2.1206912204724411
0
LINE
8
BLACK
6
CONTINUOUS
10
2.8347705511811023
20
2.1206912204724411
11
2.8480650393700788
21
2.1160392519685041
0
LINE
8
BLACK
6
CONTINUOUS
10
2.8480650393700788
20
2.1160392519685041
11
2.8607550787401572
21
2.1099280708661419
0
LINE
8
BLACK
6
CONTINUOUS
10
2.8607550787401572
20
2.1099280708661419
11
2.8726811023622045
21
2.1024344488188977
0
LINE
8
BLACK
6
CONTINUOUS
10
2.8726811023622045
20
2.1024344488188977
11
2.883693149606299
21
2.0936526377952753
0
LINE
8
BLACK
6
CONTINUOUS
10
2.883693149606299
20
2.0936526377952753
11
2.8936526377952756
21
2.0836931496062991
0
LINE
8
BLACK
6
CONTINUOUS
10
2.8936526377952756
20
2.0836931496062991
11
2.9024344488188976
21
2.0726811023622047
0
LINE
8
BLACK
6
CONTINUOUS
10
2.9024344488188976
20
2.0726811023622047
11
2.9099280708661417
21
2.0607550787401574
0
LINE
8
BLACK
6
CONTINUOUS
10
2.9099280708661417
20
2.0607550787401574
11
2.9160392519685039
21
2.0480650393700786
0
LINE
8
BLACK
6
CONTINUOUS
10
2.9160392519685039
20
2.0480650393700786
11
2.9206912204724409
21
2.0347705511811025
0
LINE
8
BLACK
6
CONTINUOUS
10
2.9206912204724409
20
2.0347705511811025
11
2.9238253937007874
21
2.0210387795275588
0
LINE
8
BLACK
6
CONTINUOUS
10
2.9238253937007874
20
2.0210387795275588
11
2.9254024015748032
21
2.0070424409448817
0
LINE
8
BLACK
6
CONTINUOUS
10
2.9254024015748032
20
2.0070424409448817
11
2.9254024015748032
21
1.9929575590551181
0
LINE
8
BLACK
6
CONTINUOUS
10
2.9254024015748032
20
1.9929575590551181
11
2.9238253937007874
21
1.9789612204724409
0
LINE
8
BLACK
6
CONTINUOUS
10
2.9238253937007874
20
1.9789612204724409
11
2.9206912204724409
21
1.9652294488188975
0
LINE
8
BLACK
6
CONTINUOUS
10
2.9206912204724409
20
1.9652294488188975
11
2.9160392519685039
21
1.9519349606299212
0
LINE
8
BLACK
6
CONTINUOUS
10
2.9160392519685039
20
1.9519349606299212
11
2.9099280708661417
21
1.9392449212598424
0
LINE
8
BLACK
6
CONTINUOUS
10
2.9099280708661417
20
1.9392449212598424
11
2.9024344488188976
21
1.9273188976377953
0
LINE
8
BLACK
6
CONTINUOUS
10
2.9024344488188976
20
1.9273188976377953
11
2.8936526377952756
21
1.9163068503937006
0
LINE
8
BLACK
6
CONTINUOUS
10
2.8936526377952756
20
1.9163068503937006
11
2.883693149606299
21
1.9063473622047244
0
LINE
8
BLACK
6
CONTINUOUS
10
2.883693149606299
20
1.9063473622047244
11
2.8726811023622045
21
1.8975655511811023
0
LINE
8
BLACK
6
CONTINUOUS
10
2.8726811023622045
20
1.8975655511811023
11
2.8607550787401572
21
1.8900719291338581
0
LINE
8
BLACK
6
CONTINUOUS
10
2.8607550787401572
20
1.8900719291338581
11
2.8480650393700788
21
1.8839607480314959
0
LINE
8
BLACK
6
CONTINUOUS
10
2.8480650393700788
20
1.8839607480314959
11
2.8347705511811023
21
1.8793087795275589
0
LINE
8
BLACK
6
CONTINUOUS
10
2.8347705511811023
20
1.8793087795275589
11
2.8210387795275591
21
1.8761746062992126
0
LINE
8
BLACK
6
CONTINUOUS
10
2.8210387795275591
20
1.8761746062992126
11
2.807042440944882
21
1.8745975984251968
0
LINE
8
BLACK
6
CONTINUOUS
10
2.807042440944882
20
1.8745975984251968
11
2.7929575590551181
21
1.8745975984251968
0
LINE
8
BLACK
6
CONTINUOUS
10
2.7929575590551181
20
1.8745975984251968
11
2.778961220472441
21
1.8761746062992126
0
LINE
8
BLACK
6
CONTINUOUS
10
2.778961220472441
20
1.8761746062992126
11
2.7652294488188978
21
1.8793087795275589
0
LINE
8
BLACK
6
CONTINUOUS
10
2.7652294488188978
20
1.8793087795275589
11
2.7519349606299213
21
1.8839607480314959
0
LINE
8
BLACK
6
CONTINUOUS
10
2.7519349606299213
20
1.8839607480314959
11
2.7392449212598424
21
1.8900719291338581
0
LINE
8
BLACK
6
CONTINUOUS
10
2.7392449212598424
20
1.8900719291338581
11
2.7273188976377951
21
1.8975655511811023
0
LINE
8
BLACK
6
CONTINUOUS
10
2.7273188976377951
20
1.8975655511811023
11
2.7163068503937007
21
1.9063473622047244
0
LINE
8
BLACK
6
CONTINUOUS
10
2.7163068503937007
20
1.9063473622047244
11
2.7063473622047245
21
1.9163068503937006
0
LINE
8
BLACK
6
CONTINUOUS
10
2.7063473622047245
20
1.9163068503937006
11
2.6975655511811021
21
1.9273188976377953
0
LINE
8
BLACK
6
CONTINUOUS
10
2.6975655511811021
20
1.9273188976377953
11
2.6900719291338584
21
1.9392449212598424
0
LINE
8
BLACK
6
CONTINUOUS
10
2.6900719291338584
20
1.9392449212598424
11
2.6839607480314962
21
1.9519349606299212
0
LINE
8
BLACK
6
CONTINUOUS
10
2.6839607480314962
20
1.9519349606299212
11
2.6793087795275592
21
1.9652294488188975
0
LINE
8
BLACK
6
CONTINUOUS
10
2.6793087795275592
20
1.9652294488188975
11
2.6761746062992127
21
1.9789612204724409
0
LINE
8
BLACK
6
CONTINUOUS
10
2.6761746062992127
20
1.9789612204724409
11
2.6745975984251968
21
1.9929575590551181
0
LINE
8
BLACK
6
CONTINUOUS
10
2.6745975984251968
20
1.9929575590551181
11
2.6745975984251968
21
2.006211181102362
0
LINE
8
BLACK
6
CONTINUOUS
10
2.6745975984251968
20
2.006211181102362
11
2.6745975984251968
21
2.0070424409448817
0
LINE
8
BLACK
6
CONTINUOUS
10
2.6745975984251968
20
2.0070424409448817
11
2.6761746062992127
21
2.0210387795275588
0
LINE
8
BLACK
6
CONTINUOUS
10
2.6761746062992127
20
2.0210387795275588
11
2.6793087795275592
21
2.0347705511811025
0
LINE
8
BLACK
6
CONTINUOUS
10
2.6793087795275592
20
2.0347705511811025
11
2.6839607480314962
21
2.0480650393700786
0
LINE
8
BLACK
6
CONTINUOUS
10
2.6839607480314962
20
2.0480650393700786
11
2.6900719291338584
21
2.0607550787401574
0
LINE
8
BLACK
6
CONTINUOUS
10
2.6900719291338584
20
2.0607550787401574
11
2.6975655511811021
21
2.0726811023622047
0
LINE
8
BLACK
6
CONTINUOUS
10
2.6975655511811021
20
2.0726811023622047
11
2.7063473622047245
21
2.0836931496062991
0
LINE
8
BLACK
6
CONTINUOUS
10
2.7063473622047245
20
2.0836931496062991
11
2.7163068503937007
21
2.0936526377952753
0
LINE
8
BLACK
6
CONTINUOUS
10
2.7163068503937007
20
2.0936526377952753
11
2.7273188976377951
21
2.1024344488188977
0
LINE
8
BLACK
6
CONTINUOUS
10
2.7273188976377951
20
2.1024344488188977
11
2.7392449212598424
21
2.1099280708661419
0
LINE
8
BLACK
6
CONTINUOUS
10
2.7392449212598424
20
2.1099280708661419
11
2.7519349606299213
21
2.1160392519685041
0
LINE
8
BLACK
6
CONTINUOUS
10
2.7519349606299213
20
2.1160392519685041
11
2.7652294488188978
21
2.1206912204724411
0
LINE
8
BLACK
6
CONTINUOUS
10
2.7652294488188978
20
2.1206912204724411
11
2.778961220472441
21
2.1238253937007872
0
LINE
8
BLACK
6
CONTINUOUS
10
2.778961220472441
20
2.1238253937007872
11
2.7929575590551181
21
2.125402401574803
0
LINE
8
BLACK
6
CONTINUOUS
10
2.7929575590551181
20
2.125402401574803
11
2.807042440944882
21
2.125402401574803
0
LINE
8
BLACK
6
CONTINUOUS
10
2.807042440944882
20
2.125402401574803
11
2.8210387795275591
21
2.1238253937007872
0
LINE
8
BLACK
6
CONTINUOUS
10
2.6894
20
1.9937888188976378
11
2.6907908661417324
21
1.9814446062992126
0
LINE
8
BLACK
6
CONTINUOUS
10
2.6907908661417324
20
1.9814446062992126
11
2.6935551181102362
21
1.9693337401574802
0
LINE
8
BLACK
6
CONTINUOUS
10
2.6935551181102362
20
1.9693337401574802
11
2.6976579527559053
21
1.9576085433070867
0
LINE
8
BLACK
6
CONTINUOUS
10
2.6976579527559053
20
1.9576085433070867
11
2.7030477952755905
21
1.9464164173228347
0
LINE
8
BLACK
6
CONTINUOUS
10
2.7030477952755905
20
1.9464164173228347
11
2.7096568503937006
21
1.9358981102362205
0
LINE
8
BLACK
6
CONTINUOUS
10
2.7096568503937006
20
1.9358981102362205
11
2.7174020472440943
21
1.9261859448818897
0
LINE
8
BLACK
6
CONTINUOUS
10
2.7174020472440943
20
1.9261859448818897
11
2.7261859448818897
21
1.9174020472440945
0
LINE
8
BLACK
6
CONTINUOUS
10
2.7261859448818897
20
1.9174020472440945
11
2.7358981102362203
21
1.9096568503937008
0
LINE
8
BLACK
6
CONTINUOUS
10
2.7358981102362203
20
1.9096568503937008
11
2.7464164173228345
21
1.9030477952755904
0
LINE
8
BLACK
6
CONTINUOUS
10
2.7464164173228345
20
1.9030477952755904
11
2.7576085433070867
21
1.8976579527559054
0
LINE
8
BLACK
6
CONTINUOUS
10
2.7576085433070867
20
1.8976579527559054
11
2.7693337401574802
21
1.8935551181102361
0
LINE
8
BLACK
6
CONTINUOUS
10
2.7693337401574802
20
1.8935551181102361
11
2.7814446062992126
21
1.8907908661417323
0
LINE
8
BLACK
6
CONTINUOUS
10
2.7814446062992126
20
1.8907908661417323
11
2.7937888188976379
21
1.8894
0
LINE
8
BLACK
6
CONTINUOUS
10
2.7937888188976379
20
1.8894
11
2.8062111811023622
21
1.8894
0
LINE
8
BLACK
6
CONTINUOUS
10
2.8062111811023622
20
1.8894
11
2.8185553937007874
21
1.8907908661417323
0
LINE
8
BLACK
6
CONTINUOUS
10
2.8185553937007874
20
1.8907908661417323
11
2.8306662598425194
21
1.8935551181102361
0
LINE
8
BLACK
6
CONTINUOUS
10
2.8306662598425194
20
1.8935551181102361
11
2.8423914566929134
21
1.8976579527559054
0
LINE
8
BLACK
6
CONTINUOUS
10
2.8423914566929134
20
1.8976579527559054
11
2.8535835826771652
21
1.9030477952755904
0
LINE
8
BLACK
6
CONTINUOUS
10
2.8535835826771652
20
1.9030477952755904
11
2.8641018897637793
21
1.9096568503937008
0
LINE
8
BLACK
6
CONTINUOUS
10
2.8641018897637793
20
1.9096568503937008
11
2.8738140551181104
21
1.9174020472440945
0
LINE
8
BLACK
6
CONTINUOUS
10
2.8738140551181104
20
1.9174020472440945
11
2.8825979527559054
21
1.9261859448818897
0
LINE
8
BLACK
6
CONTINUOUS
10
2.8825979527559054
20
1.9261859448818897
11
2.890343149606299
21
1.9358981102362205
0
LINE
8
BLACK
6
CONTINUOUS
10
2.890343149606299
20
1.9358981102362205
11
2.8969522047244092
21
1.9464164173228347
0
LINE
8
BLACK
6
CONTINUOUS
10
2.8969522047244092
20
1.9464164173228347
11
2.9023420472440944
21
1.9576085433070867
0
LINE
8
BLACK
6
CONTINUOUS
10
2.9023420472440944
20
1.9576085433070867
11
2.9064448818897639
21
1.9693337401574802
0
LINE
8
BLACK
6
CONTINUOUS
10
2.9064448818897639
20
1.9693337401574802
11
2.9092091338582677
21
1.9814446062992126
0
LINE
8
BLACK
6
CONTINUOUS
10
2.9092091338582677
20
1.9814446062992126
11
2.9106000000000001
21
1.9937888188976378
0
LINE
8
BLACK
6
CONTINUOUS
10
2.9106000000000001
20
1.9937888188976378
11
2.9106000000000001
21
2.006211181102362
0
LINE
8
BLACK
6
CONTINUOUS
10
2.9106000000000001
20
2.006211181102362
11
2.9092091338582677
21
2.0185553937007872
0
LINE
8
BLACK
6
CONTINUOUS
10
2.9092091338582677
20
2.0185553937007872
11
2.9064448818897639
21
2.0306662598425196
0
LINE
8
BLACK
6
CONTINUOUS
10
2.9064448818897639
20
2.0306662598425196
11
2.9023420472440944
21
2.0423914566929136
0
LINE
8
BLACK
6
CONTINUOUS
10
2.9023420472440944
20
2.0423914566929136
11
2.8969522047244092
21
2.0535835826771653
0
LINE
8
BLACK
6
CONTINUOUS
10
2.8969522047244092
20
2.0535835826771653
11
2.890343149606299
21
2.0641018897637795
0
LINE
8
BLACK
6
CONTINUOUS
10
2.890343149606299
20
2.0641018897637795
11
2.8825979527559054
21
2.0738140551181101
0
LINE
8
BLACK
6
CONTINUOUS
10
2.8825979527559054
20
2.0738140551181101
11
2.8738140551181104
21
2.0825979527559055
0
LINE
8
BLACK
6
CONTINUOUS
10
2.8738140551181104
20
2.0825979527559055
11
2.8641018897637793
21
2.0903431496062992
0
LINE
8
BLACK
6
CONTINUOUS
10
2.8641018897637793
20
2.0903431496062992
11
2.8535835826771652
21
2.0969522047244094
0
LINE
8
BLACK
6
CONTINUOUS
10
2.8535835826771652
20
2.0969522047244094
11
2.8423914566929134
21
2.1023420472440946
0
LINE
8
BLACK
6
CONTINUOUS
10
2.8423914566929134
20
2.1023420472440946
11
2.8306662598425194
21
2.1064448818897636
0
LINE
8
BLACK
6
CONTINUOUS
10
2.8306662598425194
20
2.1064448818897636
11
2.8185553937007874
21
2.1092091338582675
0
LINE
8
BLACK
6
CONTINUOUS
10
2.8185553937007874
20
2.1092091338582675
11
2.8062111811023622
21
2.1105999999999998
0
LINE
8
BLACK
6
CONTINUOUS
10
2.8062111811023622
20
2.1105999999999998
11
2.7937888188976379
21
2.1105999999999998
0
LINE
8
BLACK
6
CONTINUOUS
10
2.7937888188976379
20
2.1105999999999998
11
2.7814446062992126
21
2.1092091338582675
0
LINE
8
BLACK
6
CONTINUOUS
10
2.7814446062992126
20
2.1092091338582675
11
2.7693337401574802
21
2.1064448818897636
0
LINE
8
BLACK
6
CONTINUOUS
10
2.7693337401574802
20
2.1064448818897636
11
2.7576085433070867
21
2.1023420472440946
0
LINE
8
BLACK
6
CONTINUOUS
10
2.7576085433070867
20
2.1023420472440946
11
2.7464164173228345
21
2.0969522047244094
0
LINE
8
BLACK
6
CONTINUOUS
10
2.7464164173228345
20
2.0969522047244094
11
2.7358981102362203
21
2.0903431496062992
0
LINE
8
BLACK
6
CONTINUOUS
10
2.7358981102362203
20
2.0903431496062992
11
2.7261859448818897
21
2.0825979527559055
0
LINE
8
BLACK
6
CONTINUOUS
10
2.7261859448818897
20
2.0825979527559055
11
2.7174020472440943
21
2.0738140551181101
0
LINE
8
BLACK
6
CONTINUOUS
10
2.7174020472440943
20
2.0738140551181101
11
2.7096568503937006
21
2.0641018897637795
0
LINE
8
BLACK
6
CONTINUOUS
10
2.7096568503937006
20
2.0641018897637795
11
2.7030477952755905
21
2.0535835826771653
0
LINE
8
BLACK
6
CONTINUOUS
10
2.7030477952755905
20
2.0535835826771653
11
2.6976579527559053
21
2.0423914566929136
0
LINE
8
BLACK
6
CONTINUOUS
10
2.6976579527559053
20
2.0423914566929136
11
2.6935551181102362
21
2.0306662598425196
0
LINE
8
BLACK
6
CONTINUOUS
10
2.6935551181102362
20
2.0306662598425196
11
2.6907908661417324
21
2.0185553937007872
0
LINE
8
BLACK
6
CONTINUOUS
10
2.6907908661417324
20
2.0185553937007872
11
2.6894
21
2.006211181102362
0
LINE
8
BLACK
6
CONTINUOUS
10
2.6894
20
2.006211181102362
11
2.6894
21
1.9937888188976378
0
LINE
8
BLACK
6
CONTINUOUS
10
2.4389223622047242
20
1.93283437007874
11
2.4399528346456694
21
1.9323191732283465
0
LINE
8
BLACK
6
CONTINUOUS
10
2.4399528346456694
20
1.9323191732283465
11
2.4407077165354329
21
1.931448779527559
0
LINE
8
BLACK
6
CONTINUOUS
10
2.4407077165354329
20
1.931448779527559
11
2.4410720472440945
21
1.9303557874015747
0
LINE
8
BLACK
6
CONTINUOUS
10
2.4410720472440945
20
1.9303557874015747
11
2.4409903543307085
21
1.9292065748031495
0
LINE
8
BLACK
6
CONTINUOUS
10
2.4409903543307085
20
1.9292065748031495
11
2.440475118110236
21
1.9281761417322834
0
LINE
8
BLACK
6
CONTINUOUS
10
2.440475118110236
20
1.9281761417322834
11
2.4396047637795273
21
1.9274212598425196
0
LINE
8
BLACK
6
CONTINUOUS
10
2.4396047637795273
20
1.9274212598425196
11
2.4390762204724408
21
1.9271852755905512
0
LINE
8
BLACK
6
CONTINUOUS
10
2.4390762204724408
20
1.9271852755905512
11
2.4298466141732282
21
1.9241087795275591
0
LINE
8
BLACK
6
CONTINUOUS
10
2.4298466141732282
20
1.9241087795275591
11
2.4298466141732282
21
1.9096175590551181
0
LINE
8
BLACK
6
CONTINUOUS
10
2.4298466141732282
20
1.9096175590551181
11
2.4390762204724408
21
1.9065410236220472
0
LINE
8
BLACK
6
CONTINUOUS
10
2.4390762204724408
20
1.9065410236220472
11
2.4396047637795273
21
1.9063050393700787
0
LINE
8
BLACK
6
CONTINUOUS
10
2.4396047637795273
20
1.9063050393700787
11
2.440475118110236
21
1.9055501574803149
0
LINE
8
BLACK
6
CONTINUOUS
10
2.440475118110236
20
1.9055501574803149
11
2.4409903543307085
21
1.9045197244094487
0
LINE
8
BLACK
6
CONTINUOUS
10
2.4409903543307085
20
1.9045197244094487
11
2.4410720472440945
21
1.9033705118110236
0
LINE
8
BLACK
6
CONTINUOUS
10
2.4410720472440945
20
1.9033705118110236
11
2.4407077165354329
21
1.9022775196850392
0
LINE
8
BLACK
6
CONTINUOUS
10
2.4407077165354329
20
1.9022775196850392
11
2.4399528346456694
21
1.901407125984252
0
LINE
8
BLACK
6
CONTINUOUS
10
2.4399528346456694
20
1.901407125984252
11
2.4389223622047242
21
1.9008919291338582
0
LINE
8
BLACK
6
CONTINUOUS
10
2.4389223622047242
20
1.9008919291338582
11
2.4377731496062993
21
1.9008102362204724
0
LINE
8
BLACK
6
CONTINUOUS
10
2.4377731496062993
20
1.9008102362204724
11
2.4372087401574802
21
1.9009385826771652
0
LINE
8
BLACK
6
CONTINUOUS
10
2.4372087401574802
20
1.9009385826771652
11
2.3978386614173228
21
1.9140619291338583
0
LINE
8
BLACK
6
CONTINUOUS
10
2.3978386614173228
20
1.9140619291338583
11
2.3973100787401576
21
1.9142979133858267
0
LINE
8
BLACK
6
CONTINUOUS
10
2.3973100787401576
20
1.9142979133858267
11
2.3971506692913387
21
1.9144361811023622
0
LINE
8
BLACK
6
CONTINUOUS
10
2.3971506692913387
20
1.9144361811023622
11
2.3969620472440942
21
1.9145304724409449
0
LINE
8
BLACK
6
CONTINUOUS
10
2.3969620472440942
20
1.9145304724409449
11
2.3967194094488189
21
1.9148101968503937
0
LINE
8
BLACK
6
CONTINUOUS
10
2.3967194094488189
20
1.9148101968503937
11
2.3964397244094489
21
1.9150527952755905
0
LINE
8
BLACK
6
CONTINUOUS
10
2.3964397244094489
20
1.9150527952755905
11
2.3963453937007873
21
1.9152414566929132
0
LINE
8
BLACK
6
CONTINUOUS
10
2.3963453937007873
20
1.9152414566929132
11
2.3962071653543306
21
1.9154008267716536
0
LINE
8
BLACK
6
CONTINUOUS
10
2.3962071653543306
20
1.9154008267716536
11
2.3960900393700788
21
1.9157521653543306
0
LINE
8
BLACK
6
CONTINUOUS
10
2.3960900393700788
20
1.9157521653543306
11
2.3959245275590551
21
1.9160832283464566
0
LINE
8
BLACK
6
CONTINUOUS
10
2.3959245275590551
20
1.9160832283464566
11
2.3959095669291339
21
1.9162936614173227
0
LINE
8
BLACK
6
CONTINUOUS
10
2.3959095669291339
20
1.9162936614173227
11
2.3958428346456691
21
1.9164938582677165
0
LINE
8
BLACK
6
CONTINUOUS
10
2.3958428346456691
20
1.9164938582677165
11
2.3958690551181103
21
1.9168631496062991
0
LINE
8
BLACK
6
CONTINUOUS
10
2.3958690551181103
20
1.9168631496062991
11
2.3958428346456691
21
1.9172324409448818
0
LINE
8
BLACK
6
CONTINUOUS
10
2.3958428346456691
20
1.9172324409448818
11
2.3959095669291339
21
1.9174326771653543
0
LINE
8
BLACK
6
CONTINUOUS
10
2.3959095669291339
20
1.9174326771653543
11
2.3959245275590551
21
1.9176430708661416
0
LINE
8
BLACK
6
CONTINUOUS
10
2.3959245275590551
20
1.9176430708661416
11
2.3960900393700788
21
1.9179741732283464
0
LINE
8
BLACK
6
CONTINUOUS
10
2.3960900393700788
20
1.9179741732283464
11
2.3962071653543306
21
1.9183254724409449
0
LINE
8
BLACK
6
CONTINUOUS
10
2.3962071653543306
20
1.9183254724409449
11
2.3963453937007873
21
1.9184848818897637
0
LINE
8
BLACK
6
CONTINUOUS
10
2.3963453937007873
20
1.9184848818897637
11
2.3964397244094489
21
1.9186735039370078
0
LINE
8
BLACK
6
CONTINUOUS
10
2.3964397244094489
20
1.9186735039370078
11
2.3967194094488189
21
1.9189161417322835
0
LINE
8
BLACK
6
CONTINUOUS
10
2.3967194094488189
20
1.9189161417322835
11
2.3969620472440942
21
1.9191958267716536
0
LINE
8
BLACK
6
CONTINUOUS
10
2.3969620472440942
20
1.9191958267716536
11
2.3971506692913387
21
1.919290157480315
0
LINE
8
BLACK
6
CONTINUOUS
10
2.3971506692913387
20
1.919290157480315
11
2.3973100787401576
21
1.9194283858267716
0
LINE
8
BLACK
6
CONTINUOUS
10
2.3973100787401576
20
1.9194283858267716
11
2.3978386614173228
21
1.9196643700787401
0
LINE
8
BLACK
6
CONTINUOUS
10
2.3978386614173228
20
1.9196643700787401
11
2.4372087401574802
21
1.932787716535433
0
LINE
8
BLACK
6
CONTINUOUS
10
2.4372087401574802
20
1.932787716535433
11
2.4377731496062993
21
1.932916062992126
0
LINE
8
BLACK
6
CONTINUOUS
10
2.4377731496062993
20
1.932916062992126
11
2.4389223622047242
21
1.93283437007874
0
LINE
8
BLACK
6
CONTINUOUS
10
2.4081098031496064
20
1.9168631496062991
11
2.4239411023622046
21
1.911586062992126
0
LINE
8
BLACK
6
CONTINUOUS
10
2.4239411023622046
20
1.911586062992126
11
2.4239411023622046
21
1.9221402755905512
0
LINE
8
BLACK
6
CONTINUOUS
10
2.4239411023622046
20
1.9221402755905512
11
2.4081098031496064
21
1.9168631496062991
0
LINE
8
BLACK
6
CONTINUOUS
10
1.5996981889763779
20
2.0467063385826769
11
1.6005128346456692
21
2.0458916929133859
0
LINE
8
BLACK
6
CONTINUOUS
10
1.6005128346456692
20
2.0458916929133859
11
1.6009537401574803
21
2.0448272834645671
0
LINE
8
BLACK
6
CONTINUOUS
10
1.6009537401574803
20
2.0448272834645671
11
1.6010104724409449
21
2.0442512204724408
0
LINE
8
BLACK
6
CONTINUOUS
10
1.6010104724409449
20
2.0442512204724408
11
1.6010104724409449
21
2.0161297637795275
0
LINE
8
BLACK
6
CONTINUOUS
10
1.6010104724409449
20
2.0161297637795275
11
1.6009817322834645
21
2.0158381889763781
0
LINE
8
BLACK
6
CONTINUOUS
10
1.6009817322834645
20
2.0158381889763781
11
1.6009872834645669
21
2.0157604330708661
0
LINE
8
BLACK
6
CONTINUOUS
10
1.6009872834645669
20
2.0157604330708661
11
1.6009640157480314
21
2.0156581889763778
0
LINE
8
BLACK
6
CONTINUOUS
10
1.6009640157480314
20
2.0156581889763778
11
1.6009537401574803
21
2.0155537007874016
0
LINE
8
BLACK
6
CONTINUOUS
10
1.6009537401574803
20
2.0155537007874016
11
1.6009238582677165
21
2.0154816535433069
0
LINE
8
BLACK
6
CONTINUOUS
10
1.6009238582677165
20
2.0154816535433069
11
1.6008589370078741
21
2.0151959842519687
0
LINE
8
BLACK
6
CONTINUOUS
10
1.6008589370078741
20
2.0151959842519687
11
1.5989841732283465
21
2.0095717322834643
0
LINE
8
BLACK
6
CONTINUOUS
10
1.5989841732283465
20
2.0095717322834643
11
1.5987481889763779
21
2.009043149606299
0
LINE
8
BLACK
6
CONTINUOUS
10
1.5987481889763779
20
2.009043149606299
11
1.5986786614173227
21
2.0089630314960631
0
LINE
8
BLACK
6
CONTINUOUS
10
1.5986786614173227
20
2.0089630314960631
11
1.5986381102362204
21
2.0088650393700789
0
LINE
8
BLACK
6
CONTINUOUS
10
1.5986381102362204
20
2.0088650393700789
11
1.5982709055118109
21
2.0084175984251966
0
LINE
8
BLACK
6
CONTINUOUS
10
1.5982709055118109
20
2.0084175984251966
11
1.5945213385826771
21
2.004667992125984
0
LINE
8
BLACK
6
CONTINUOUS
10
1.5945213385826771
20
2.004667992125984
11
1.5940738976377953
21
2.0043007874015748
0
LINE
8
BLACK
6
CONTINUOUS
10
1.5940738976377953
20
2.0043007874015748
11
1.5939758267716535
21
2.0042601968503937
0
LINE
8
BLACK
6
CONTINUOUS
10
1.5939758267716535
20
2.0042601968503937
11
1.5938957086614174
21
2.0041906692913387
0
LINE
8
BLACK
6
CONTINUOUS
10
1.5938957086614174
20
2.0041906692913387
11
1.5933671653543307
21
2.0039546850393699
0
LINE
8
BLACK
6
CONTINUOUS
10
1.5933671653543307
20
2.0039546850393699
11
1.587742874015748
21
2.0020799212598424
0
LINE
8
BLACK
6
CONTINUOUS
10
1.587742874015748
20
2.0020799212598424
11
1.5874572834645668
21
2.0020150000000001
0
LINE
8
BLACK
6
CONTINUOUS
10
1.5874572834645668
20
2.0020150000000001
11
1.5873851968503936
21
2.0019851181102362
0
LINE
8
BLACK
6
CONTINUOUS
10
1.5873851968503936
20
2.0019851181102362
11
1.5872806692913386
21
2.0019748425196848
0
LINE
8
BLACK
6
CONTINUOUS
10
1.5872806692913386
20
2.0019748425196848
11
1.5871784251968504
21
2.0019515748031496
0
LINE
8
BLACK
6
CONTINUOUS
10
1.5871784251968504
20
2.0019515748031496
11
1.5871006692913385
21
2.0019571259842519
0
LINE
8
BLACK
6
CONTINUOUS
10
1.5871006692913385
20
2.0019571259842519
11
1.5868091338582677
21
2.0019283858267718
0
LINE
8
BLACK
6
CONTINUOUS
10
1.5868091338582677
20
2.0019283858267718
11
1.5830596062992126
21
2.0019283858267718
0
LINE
8
BLACK
6
CONTINUOUS
10
1.5830596062992126
20
2.0019283858267718
11
1.5824835433070865
21
2.0019851181102362
0
LINE
8
BLACK
6
CONTINUOUS
10
1.5824835433070865
20
2.0019851181102362
11
1.5814191338582677
21
2.0024260236220472
0
LINE
8
BLACK
6
CONTINUOUS
10
1.5814191338582677
20
2.0024260236220472
11
1.5806044881889763
21
2.0032406692913387
0
LINE
8
BLACK
6
CONTINUOUS
10
1.5806044881889763
20
2.0032406692913387
11
1.5801635826771654
21
2.0043050787401575
0
LINE
8
BLACK
6
CONTINUOUS
10
1.5801635826771654
20
2.0043050787401575
11
1.5801635826771654
21
2.0054572047244092
0
LINE
8
BLACK
6
CONTINUOUS
10
1.5801635826771654
20
2.0054572047244092
11
1.5806044881889763
21
2.0065216141732285
0
LINE
8
BLACK
6
CONTINUOUS
10
1.5806044881889763
20
2.0065216141732285
11
1.5814191338582677
21
2.0073362598425195
0
LINE
8
BLACK
6
CONTINUOUS
10
1.5814191338582677
20
2.0073362598425195
11
1.5824835433070865
21
2.0077771653543306
0
LINE
8
BLACK
6
CONTINUOUS
10
1.5824835433070865
20
2.0077771653543306
11
1.5830596062992126
21
2.0078338976377954
0
LINE
8
BLACK
6
CONTINUOUS
10
1.5830596062992126
20
2.0078338976377954
11
1.58633
21
2.0078338976377954
0
LINE
8
BLACK
6
CONTINUOUS
10
1.58633
20
2.0078338976377954
11
1.5908383858267716
21
2.0093367322834643
0
LINE
8
BLACK
6
CONTINUOUS
10
1.5908383858267716
20
2.0093367322834643
11
1.5936021259842519
21
2.0121005118110236
0
LINE
8
BLACK
6
CONTINUOUS
10
1.5936021259842519
20
2.0121005118110236
11
1.5951049606299212
21
2.0166088976377954
0
LINE
8
BLACK
6
CONTINUOUS
10
1.5951049606299212
20
2.0166088976377954
11
1.5951049606299212
21
2.0442512204724408
0
LINE
8
BLACK
6
CONTINUOUS
10
1.5951049606299212
20
2.0442512204724408
11
1.5951616929133858
21
2.0448272834645671
0
LINE
8
BLACK
6
CONTINUOUS
10
1.5951616929133858
20
2.0448272834645671
11
1.5956025984251969
21
2.0458916929133859
0
LINE
8
BLACK
6
CONTINUOUS
10
1.5956025984251969
20
2.0458916929133859
11
1.5964172440944882
21
2.0467063385826769
0
LINE
8
BLACK
6
CONTINUOUS
10
1.5964172440944882
20
2.0467063385826769
11
1.597481653543307
21
2.047147244094488
0
LINE
8
BLACK
6
CONTINUOUS
10
1.597481653543307
20
2.047147244094488
11
1.5986337795275589
21
2.047147244094488
0
LINE
8
BLACK
6
CONTINUOUS
10
1.5986337795275589
20
2.047147244094488
11
1.5996981889763779
21
2.0467063385826769
0
LINE
8
BLACK
6
CONTINUOUS
10
1.636129094488189
20
2.047147244094488
11
1.6371935039370078
21
2.0467063385826769
0
LINE
8
BLACK
6
CONTINUOUS
10
1.6371935039370078
20
2.0467063385826769
11
1.6380081496062993
21
2.0458916929133859
0
LINE
8
BLACK
6
CONTINUOUS
10
1.6380081496062993
20
2.0458916929133859
11
1.6384490551181101
21
2.0448272834645671
0
LINE
8
BLACK
6
CONTINUOUS
10
1.6384490551181101
20
2.0448272834645671
11
1.6384490551181101
21
2.0436751574803149
0
LINE
8
BLACK
6
CONTINUOUS
10
1.6384490551181101
20
2.0436751574803149
11
1.6380081496062993
21
2.0426107480314961
0
LINE
8
BLACK
6
CONTINUOUS
10
1.6380081496062993
20
2.0426107480314961
11
1.6371935039370078
21
2.0417961023622047
0
LINE
8
BLACK
6
CONTINUOUS
10
1.6371935039370078
20
2.0417961023622047
11
1.636129094488189
21
2.0413551968503936
0
LINE
8
BLACK
6
CONTINUOUS
10
1.636129094488189
20
2.0413551968503936
11
1.6355530314960629
21
2.0412984645669292
0
LINE
8
BLACK
6
CONTINUOUS
10
1.6355530314960629
20
2.0412984645669292
11
1.6194775984251968
21
2.0412984645669292
0
LINE
8
BLACK
6
CONTINUOUS
10
1.6194775984251968
20
2.0412984645669292
11
1.6185004724409449
21
2.0315272047244095
0
LINE
8
BLACK
6
CONTINUOUS
10
1.6185004724409449
20
2.0315272047244095
11
1.6192344094488189
21
2.0318941338582674
0
LINE
8
BLACK
6
CONTINUOUS
10
1.6192344094488189
20
2.0318941338582674
11
1.619775
21
2.0321010236220474
0
LINE
8
BLACK
6
CONTINUOUS
10
1.619775
20
2.0321010236220474
11
1.6198808661417323
21
2.0321085826771652
0
LINE
8
BLACK
6
CONTINUOUS
10
1.6198808661417323
20
2.0321085826771652
11
1.6199788582677166
21
2.0321491338582676
0
LINE
8
BLACK
6
CONTINUOUS
10
1.6199788582677166
20
2.0321491338582676
11
1.6205549212598425
21
2.0322058661417324
0
LINE
8
BLACK
6
CONTINUOUS
10
1.6205549212598425
20
2.0322058661417324
11
1.6299287401574802
21
2.0322058661417324
0
LINE
8
BLACK
6
CONTINUOUS
10
1.6299287401574802
20
2.0322058661417324
11
1.6305048031496063
21
2.0321491338582676
0
LINE
8
BLACK
6
CONTINUOUS
10
1.6305048031496063
20
2.0321491338582676
11
1.6306027952755906
21
2.0321085433070865
0
LINE
8
BLACK
6
CONTINUOUS
10
1.6306027952755906
20
2.0321085433070865
11
1.630708622047244
21
2.0321010236220474
0
LINE
8
BLACK
6
CONTINUOUS
10
1.630708622047244
20
2.0321010236220474
11
1.631249251968504
21
2.0318941338582674
0
LINE
8
BLACK
6
CONTINUOUS
10
1.631249251968504
20
2.0318941338582674
11
1.6349987795275591
21
2.0300193700787399
0
LINE
8
BLACK
6
CONTINUOUS
10
1.6349987795275591
20
2.0300193700787399
11
1.6352467716535433
21
2.0298633070866141
0
LINE
8
BLACK
6
CONTINUOUS
10
1.6352467716535433
20
2.0298633070866141
11
1.6353187401574802
21
2.0298334645669289
0
LINE
8
BLACK
6
CONTINUOUS
10
1.6353187401574802
20
2.0298334645669289
11
1.6353996850393699
21
2.0297670078740158
0
LINE
8
BLACK
6
CONTINUOUS
10
1.6353996850393699
20
2.0297670078740158
11
1.6354886614173227
21
2.0297110236220473
0
LINE
8
BLACK
6
CONTINUOUS
10
1.6354886614173227
20
2.0297110236220473
11
1.6355398031496062
21
2.0296520472440944
0
LINE
8
BLACK
6
CONTINUOUS
10
1.6355398031496062
20
2.0296520472440944
11
1.6357661811023623
21
2.0294662598425197
0
LINE
8
BLACK
6
CONTINUOUS
10
1.6357661811023623
20
2.0294662598425197
11
1.6376409448818898
21
2.0275914960629922
0
LINE
8
BLACK
6
CONTINUOUS
10
1.6376409448818898
20
2.0275914960629922
11
1.6378266929133858
21
2.0273651574803151
0
LINE
8
BLACK
6
CONTINUOUS
10
1.6378266929133858
20
2.0273651574803151
11
1.6378857086614174
21
2.0273139763779526
0
LINE
8
BLACK
6
CONTINUOUS
10
1.6378857086614174
20
2.0273139763779526
11
1.6379416535433071
21
2.0272250393700788
0
LINE
8
BLACK
6
CONTINUOUS
10
1.6379416535433071
20
2.0272250393700788
11
1.6380081496062993
21
2.0271440551181104
0
LINE
8
BLACK
6
CONTINUOUS
10
1.6380081496062993
20
2.0271440551181104
11
1.6380379527559055
21
2.0270721259842519
0
LINE
8
BLACK
6
CONTINUOUS
10
1.6380379527559055
20
2.0270721259842519
11
1.6381940551181102
21
2.0268240944881888
0
LINE
8
BLACK
6
CONTINUOUS
10
1.6381940551181102
20
2.0268240944881888
11
1.6400688188976378
21
2.0230745669291337
0
LINE
8
BLACK
6
CONTINUOUS
10
1.6400688188976378
20
2.0230745669291337
11
1.6402757086614173
21
2.0225339763779528
0
LINE
8
BLACK
6
CONTINUOUS
10
1.6402757086614173
20
2.0225339763779528
11
1.6402832283464566
21
2.0224281102362203
0
LINE
8
BLACK
6
CONTINUOUS
10
1.6402832283464566
20
2.0224281102362203
11
1.6403238188976377
21
2.022330118110236
0
LINE
8
BLACK
6
CONTINUOUS
10
1.6403238188976377
20
2.022330118110236
11
1.6403805511811023
21
2.0217540551181101
0
LINE
8
BLACK
6
CONTINUOUS
10
1.6403805511811023
20
2.0217540551181101
11
1.6403805511811023
21
2.0123802362204724
0
LINE
8
BLACK
6
CONTINUOUS
10
1.6403805511811023
20
2.0123802362204724
11
1.6403238188976377
21
2.0118041732283465
0
LINE
8
BLACK
6
CONTINUOUS
10
1.6403238188976377
20
2.0118041732283465
11
1.6402832283464566
21
2.011706220472441
0
LINE
8
BLACK
6
CONTINUOUS
10
1.6402832283464566
20
2.011706220472441
11
1.6402757086614173
21
2.0116003149606301
0
LINE
8
BLACK
6
CONTINUOUS
10
1.6402757086614173
20
2.0116003149606301
11
1.6400688188976378
21
2.0110597244094488
0
LINE
8
BLACK
6
CONTINUOUS
10
1.6400688188976378
20
2.0110597244094488
11
1.6381940551181102
21
2.0073101968503937
0
LINE
8
BLACK
6
CONTINUOUS
10
1.6381940551181102
20
2.0073101968503937
11
1.6380379921259842
21
2.0070623228346456
0
LINE
8
BLACK
6
CONTINUOUS
10
1.6380379921259842
20
2.0070623228346456
11
1.638008188976378
21
2.0069902755905513
0
LINE
8
BLACK
6
CONTINUOUS
10
1.638008188976378
20
2.0069902755905513
11
1.6379416535433071
21
2.0069092519685037
0
LINE
8
BLACK
6
CONTINUOUS
10
1.6379416535433071
20
2.0069092519685037
11
1.6378857086614174
21
2.0068203149606298
0
LINE
8
BLACK
6
CONTINUOUS
10
1.6378857086614174
20
2.0068203149606298
11
1.6378266929133858
21
2.0067691732283466
0
LINE
8
BLACK
6
CONTINUOUS
10
1.6378266929133858
20
2.0067691732283466
11
1.6376409448818898
21
2.0065427952755903
0
LINE
8
BLACK
6
CONTINUOUS
10
1.6376409448818898
20
2.0065427952755903
11
1.6357662204724408
21
2.0046680314960628
0
LINE
8
BLACK
6
CONTINUOUS
10
1.6357662204724408
20
2.0046680314960628
11
1.635539842519685
21
2.0044822834645668
0
LINE
8
BLACK
6
CONTINUOUS
10
1.635539842519685
20
2.0044822834645668
11
1.6354886614173227
21
2.0044232283464565
0
LINE
8
BLACK
6
CONTINUOUS
10
1.6354886614173227
20
2.0044232283464565
11
1.6353996850393699
21
2.004367244094488
0
LINE
8
BLACK
6
CONTINUOUS
10
1.6353996850393699
20
2.004367244094488
11
1.6353187401574802
21
2.0043007874015748
0
LINE
8
BLACK
6
CONTINUOUS
10
1.6353187401574802
20
2.0043007874015748
11
1.6352467716535433
21
2.0042709842519684
0
LINE
8
BLACK
6
CONTINUOUS
10
1.6352467716535433
20
2.0042709842519684
11
1.6349987795275591
21
2.0041148818897638
0
LINE
8
BLACK
6
CONTINUOUS
10
1.6349987795275591
20
2.0041148818897638
11
1.631249251968504
21
2.0022401181102363
0
LINE
8
BLACK
6
CONTINUOUS
10
1.631249251968504
20
2.0022401181102363
11
1.630708622047244
21
2.0020332283464568
0
LINE
8
BLACK
6
CONTINUOUS
10
1.630708622047244
20
2.0020332283464568
11
1.6306027952755906
21
2.002025748031496
0
LINE
8
BLACK
6
CONTINUOUS
10
1.6306027952755906
20
2.002025748031496
11
1.6305048031496063
21
2.0019851181102362
0
LINE
8
BLACK
6
CONTINUOUS
10
1.6305048031496063
20
2.0019851181102362
11
1.6299287401574802
21
2.0019283858267718
0
LINE
8
BLACK
6
CONTINUOUS
10
1.6299287401574802
20
2.0019283858267718
11
1.6205549212598425
21
2.0019283858267718
0
LINE
8
BLACK
6
CONTINUOUS
10
1.6205549212598425
20
2.0019283858267718
11
1.6199788582677166
21
2.0019851181102362
0
LINE
8
BLACK
6
CONTINUOUS
10
1.6199788582677166
20
2.0019851181102362
11
1.6198808661417323
21
2.0020257086614173
0
LINE
8
BLACK
6
CONTINUOUS
10
1.6198808661417323
20
2.0020257086614173
11
1.619775
21
2.0020332283464568
0
LINE
8
BLACK
6
CONTINUOUS
10
1.619775
20
2.0020332283464568
11
1.6192344094488189
21
2.0022401181102363
0
LINE
8
BLACK
6
CONTINUOUS
10
1.6192344094488189
20
2.0022401181102363
11
1.6154848818897638
21
2.0041148818897638
0
LINE
8
BLACK
6
CONTINUOUS
10
1.6154848818897638
20
2.0041148818897638
11
1.6152368503937007
21
2.0042709842519684
0
LINE
8
BLACK
6
CONTINUOUS
10
1.6152368503937007
20
2.0042709842519684
11
1.6151649212598425
21
2.0043007874015748
0
LINE
8
BLACK
6
CONTINUOUS
10
1.6151649212598425
20
2.0043007874015748
11
1.615083937007874
21
2.004367244094488
0
LINE
8
BLACK
6
CONTINUOUS
10
1.615083937007874
20
2.004367244094488
11
1.614995
21
2.0044232283464565
0
LINE
8
BLACK
6
CONTINUOUS
10
1.614995
20
2.0044232283464565
11
1.614943779527559
21
2.0044822834645668
0
LINE
8
BLACK
6
CONTINUOUS
10
1.614943779527559
20
2.0044822834645668
11
1.6147174409448819
21
2.0046680314960628
0
LINE
8
BLACK
6
CONTINUOUS
10
1.6147174409448819
20
2.0046680314960628
11
1.6128426771653543
21
2.0065428346456691
0
LINE
8
BLACK
6
CONTINUOUS
10
1.6128426771653543
20
2.0065428346456691
11
1.6124754724409449
21
2.0069902755905513
0
LINE
8
BLACK
6
CONTINUOUS
10
1.6124754724409449
20
2.0069902755905513
11
1.6120346062992126
21
2.0080546850393701
0
LINE
8
BLACK
6
CONTINUOUS
10
1.6120346062992126
20
2.0080546850393701
11
1.6120346062992126
21
2.0092067716535431
0
LINE
8
BLACK
6
CONTINUOUS
10
1.6120346062992126
20
2.0092067716535431
11
1.6124755118110237
21
2.0102711811023624
0
LINE
8
BLACK
6
CONTINUOUS
10
1.6124755118110237
20
2.0102711811023624
11
1.6132901968503937
21
2.0110858661417321
0
LINE
8
BLACK
6
CONTINUOUS
10
1.6132901968503937
20
2.0110858661417321
11
1.6143546062992125
21
2.0115267322834645
0
LINE
8
BLACK
6
CONTINUOUS
10
1.6143546062992125
20
2.0115267322834645
11
1.6155066929133859
21
2.0115267322834645
0
LINE
8
BLACK
6
CONTINUOUS
10
1.6155066929133859
20
2.0115267322834645
11
1.6165711023622047
21
2.0110858267716534
0
LINE
8
BLACK
6
CONTINUOUS
10
1.6165711023622047
20
2.0110858267716534
11
1.6170185826771653
21
2.0107185826771654
0
LINE
8
BLACK
6
CONTINUOUS
10
1.6170185826771653
20
2.0107185826771654
11
1.6185544881889764
21
2.0091826377952757
0
LINE
8
BLACK
6
CONTINUOUS
10
1.6185544881889764
20
2.0091826377952757
11
1.621251968503937
21
2.0078338976377954
0
LINE
8
BLACK
6
CONTINUOUS
10
1.621251968503937
20
2.0078338976377954
11
1.6292316929133859
21
2.0078338976377954
0
LINE
8
BLACK
6
CONTINUOUS
10
1.6292316929133859
20
2.0078338976377954
11
1.6319291338582678
21
2.0091826377952757
0
LINE
8
BLACK
6
CONTINUOUS
10
1.6319291338582678
20
2.0091826377952757
11
1.6331262598425196
21
2.0103798031496063
0
LINE
8
BLACK
6
CONTINUOUS
10
1.6331262598425196
20
2.0103798031496063
11
1.6344750393700787
21
2.0130772834645669
0
LINE
8
BLACK
6
CONTINUOUS
10
1.6344750393700787
20
2.0130772834645669
11
1.6344750393700787
21
2.0210570078740155
0
LINE
8
BLACK
6
CONTINUOUS
10
1.6344750393700787
20
2.0210570078740155
11
1.6331262992125983
21
2.0237544881889762
0
LINE
8
BLACK
6
CONTINUOUS
10
1.6331262992125983
20
2.0237544881889762
11
1.6319291732283465
21
2.0249516141732284
0
LINE
8
BLACK
6
CONTINUOUS
10
1.6319291732283465
20
2.0249516141732284
11
1.6292316929133859
21
2.0263003543307088
0
LINE
8
BLACK
6
CONTINUOUS
10
1.6292316929133859
20
2.0263003543307088
11
1.621251968503937
21
2.0263003543307088
0
LINE
8
BLACK
6
CONTINUOUS
10
1.621251968503937
20
2.0263003543307088
11
1.6185544881889764
21
2.0249516141732284
0
LINE
8
BLACK
6
CONTINUOUS
10
1.6185544881889764
20
2.0249516141732284
11
1.6170185433070865
21
2.0234156692913383
0
LINE
8
BLACK
6
CONTINUOUS
10
1.6170185433070865
20
2.0234156692913383
11
1.6165711023622047
21
2.0230484645669291
0
LINE
8
BLACK
6
CONTINUOUS
10
1.6165711023622047
20
2.0230484645669291
11
1.6164337401574802
21
2.0229915748031497
0
LINE
8
BLACK
6
CONTINUOUS
10
1.6164337401574802
20
2.0229915748031497
11
1.6163186614173228
21
2.0228974015748031
0
LINE
8
BLACK
6
CONTINUOUS
10
1.6163186614173228
20
2.0228974015748031
11
1.6159052755905512
21
2.022772716535433
0
LINE
8
BLACK
6
CONTINUOUS
10
1.6159052755905512
20
2.022772716535433
11
1.6155066535433071
21
2.022607559055118
0
LINE
8
BLACK
6
CONTINUOUS
10
1.6155066535433071
20
2.022607559055118
11
1.6153580314960629
21
2.022607559055118
0
LINE
8
BLACK
6
CONTINUOUS
10
1.6153580314960629
20
2.022607559055118
11
1.6152156692913386
21
2.0225646062992126
0
LINE
8
BLACK
6
CONTINUOUS
10
1.6152156692913386
20
2.0225646062992126
11
1.6147861417322835
21
2.022607559055118
0
LINE
8
BLACK
6
CONTINUOUS
10
1.6147861417322835
20
2.022607559055118
11
1.6143546062992125
21
2.022607559055118
0
LINE
8
BLACK
6
CONTINUOUS
10
1.6143546062992125
20
2.022607559055118
11
1.6142172440944882
21
2.0226644881889762
0
LINE
8
BLACK
6
CONTINUOUS
10
1.6142172440944882
20
2.0226644881889762
11
1.6140692519685038
21
2.022679251968504
0
LINE
8
BLACK
6
CONTINUOUS
10
1.6140692519685038
20
2.022679251968504
11
1.6136888582677165
21
2.0228833070866141
0
LINE
8
BLACK
6
CONTINUOUS
10
1.6136888582677165
20
2.0228833070866141
11
1.6132901574803149
21
2.0230484645669291
0
LINE
8
BLACK
6
CONTINUOUS
10
1.6132901574803149
20
2.0230484645669291
11
1.6131849606299211
21
2.0231536614173229
0
LINE
8
BLACK
6
CONTINUOUS
10
1.6131849606299211
20
2.0231536614173229
11
1.6130540157480315
21
2.0232238976377954
0
LINE
8
BLACK
6
CONTINUOUS
10
1.6130540157480315
20
2.0232238976377954
11
1.612780748031496
21
2.023557874015748
0
LINE
8
BLACK
6
CONTINUOUS
10
1.612780748031496
20
2.023557874015748
11
1.6124755118110237
21
2.0238631102362206
0
LINE
8
BLACK
6
CONTINUOUS
10
1.6124755118110237
20
2.0238631102362206
11
1.6124185826771653
21
2.0240004724409451
0
LINE
8
BLACK
6
CONTINUOUS
10
1.6124185826771653
20
2.0240004724409451
11
1.6123244488188977
21
2.0241155511811022
0
LINE
8
BLACK
6
CONTINUOUS
10
1.6123244488188977
20
2.0241155511811022
11
1.6121997244094488
21
2.0245289370078741
0
LINE
8
BLACK
6
CONTINUOUS
10
1.6121997244094488
20
2.0245289370078741
11
1.6120346062992126
21
2.0249275590551181
0
LINE
8
BLACK
6
CONTINUOUS
10
1.6120346062992126
20
2.0249275590551181
11
1.6120346062992126
21
2.0250762204724411
0
LINE
8
BLACK
6
CONTINUOUS
10
1.6120346062992126
20
2.0250762204724411
11
1.611991653543307
21
2.0252185433070866
0
LINE
8
BLACK
6
CONTINUOUS
10
1.611991653543307
20
2.0252185433070866
11
1.6119925196850393
21
2.025797401574803
0
LINE
8
BLACK
6
CONTINUOUS
10
1.6119925196850393
20
2.025797401574803
11
1.6138672834645669
21
2.0445450393700786
0
LINE
8
BLACK
6
CONTINUOUS
10
1.6138672834645669
20
2.0445450393700786
11
1.6139093700787401
21
2.0447549999999999
0
LINE
8
BLACK
6
CONTINUOUS
10
1.6139093700787401
20
2.0447549999999999
11
1.6139093700787401
21
2.0448272834645671
0
LINE
8
BLACK
6
CONTINUOUS
10
1.6139093700787401
20
2.0448272834645671
11
1.6139374409448819
21
2.0448951181102362
0
LINE
8
BLACK
6
CONTINUOUS
10
1.6139374409448819
20
2.0448951181102362
11
1.6139810629921258
21
2.045112598425197
0
LINE
8
BLACK
6
CONTINUOUS
10
1.6139810629921258
20
2.045112598425197
11
1.6141850787401575
21
2.0454929133858268
0
LINE
8
BLACK
6
CONTINUOUS
10
1.6141850787401575
20
2.0454929133858268
11
1.6143502755905512
21
2.0458916929133859
0
LINE
8
BLACK
6
CONTINUOUS
10
1.6143502755905512
20
2.0458916929133859
11
1.614455433070866
21
2.0459968897637797
0
LINE
8
BLACK
6
CONTINUOUS
10
1.614455433070866
20
2.0459968897637797
11
1.6145257086614173
21
2.0461278346456693
0
LINE
8
BLACK
6
CONTINUOUS
10
1.6145257086614173
20
2.0461278346456693
11
1.6148596456692914
21
2.0464011023622048
0
LINE
8
BLACK
6
CONTINUOUS
10
1.6148596456692914
20
2.0464011023622048
11
1.6151649212598425
21
2.0467063385826769
0
LINE
8
BLACK
6
CONTINUOUS
10
1.6151649212598425
20
2.0467063385826769
11
1.6153022440944882
21
2.0467632677165355
0
LINE
8
BLACK
6
CONTINUOUS
10
1.6153022440944882
20
2.0467632677165355
11
1.6154173622047243
21
2.0468574015748029
0
LINE
8
BLACK
6
CONTINUOUS
10
1.6154173622047243
20
2.0468574015748029
11
1.6158306299212597
21
2.0469821259842518
0
LINE
8
BLACK
6
CONTINUOUS
10
1.6158306299212597
20
2.0469821259842518
11
1.6162293307086615
21
2.047147244094488
0
LINE
8
BLACK
6
CONTINUOUS
10
1.6162293307086615
20
2.047147244094488
11
1.6164499999999999
21
2.0471690157480316
0
LINE
8
BLACK
6
CONTINUOUS
10
1.6164499999999999
20
2.0471690157480316
11
1.6165203543307087
21
2.0471901968503938
0
LINE
8
BLACK
6
CONTINUOUS
10
1.6165203543307087
20
2.0471901968503938
11
1.6165923228346457
21
2.0471830314960631
0
LINE
8
BLACK
6
CONTINUOUS
10
1.6165923228346457
20
2.0471830314960631
11
1.6168053937007874
21
2.0472039763779528
0
LINE
8
BLACK
6
CONTINUOUS
10
1.6168053937007874
20
2.0472039763779528
11
1.6355530314960629
21
2.0472039763779528
0
LINE
8
BLACK
6
CONTINUOUS
10
1.6355530314960629
20
2.0472039763779528
11
1.636129094488189
21
2.047147244094488
0
LINE
8
BLACK
6
CONTINUOUS
10
2.361934409448819
20
2.1246060629921257
11
2.3629997637795275
21
2.1235407086614173
0
LINE
8
BLACK
6
CONTINUOUS
10
2.3629997637795275
20
2.1235407086614173
11
2.3631496062992126
21
2.1227874015748029
0
LINE
8
BLACK
6
CONTINUOUS
10
2.3631496062992126
20
2.1227874015748029
11
2.3631496062992126
21
1.9227874015748032
0
LINE
8
BLACK
6
CONTINUOUS
10
2.3631496062992126
20
1.9227874015748032
11
2.3629997637795275
21
1.9220340944881888
0
LINE
8
BLACK
6
CONTINUOUS
10
2.3629997637795275
20
1.9220340944881888
11
2.361934409448819
21
1.9209687401574802
0
LINE
8
BLACK
6
CONTINUOUS
10
2.361934409448819
20
1.9209687401574802
11
2.3611811023622047
21
1.9208188976377953
0
LINE
8
BLACK
6
CONTINUOUS
10
2.3611811023622047
20
1.9208188976377953
11
0.8611811023622047
21
1.9208188976377953
0
LINE
8
BLACK
6
CONTINUOUS
10
0.8611811023622047
20
1.9208188976377953
11
0.8604277952755905
21
1.9209687401574802
0
LINE
8
BLACK
6
CONTINUOUS
10
0.8604277952755905
20
1.9209687401574802
11
0.8593624409448819
21
1.9220340944881888
0
LINE
8
BLACK
6
CONTINUOUS
10
0.8593624409448819
20
1.9220340944881888
11
0.8592125984251968
21
1.9227874015748032
0
LINE
8
BLACK
6
CONTINUOUS
10
0.8592125984251968
20
1.9227874015748032
11
0.8592125984251968
21
2.0834173228346455
0
LINE
8
BLACK
6
CONTINUOUS
10
0.8592125984251968
20
2.0834173228346455
11
0.8593624409448819
21
2.0841706299212599
0
LINE
8
BLACK
6
CONTINUOUS
10
0.8593624409448819
20
2.0841706299212599
11
0.8597891732283465
21
2.0848092519685038
0
LINE
8
BLACK
6
CONTINUOUS
10
0.8597891732283465
20
2.0848092519685038
11
0.8991592519685039
21
2.1241793700787399
0
LINE
8
BLACK
6
CONTINUOUS
10
0.8991592519685039
20
2.1241793700787399
11
0.899797874015748
21
2.1246060629921257
0
LINE
8
BLACK
6
CONTINUOUS
10
0.899797874015748
20
2.1246060629921257
11
0.9005511811023622
21
2.1247559055118108
0
LINE
8
BLACK
6
CONTINUOUS
10
0.9005511811023622
20
2.1247559055118108
11
2.3611811023622047
21
2.1247559055118108
0
LINE
8
BLACK
6
CONTINUOUS
10
2.3611811023622047
20
2.1247559055118108
11
2.361934409448819
21
2.1246060629921257
0
LINE
8
BLACK
6
CONTINUOUS
10
0.9013665748031496
20
2.1208188976377951
11
0.8631496062992126
21
2.082601968503937
0
LINE
8
BLACK
6
CONTINUOUS
10
0.8631496062992126
20
2.082601968503937
11
0.8631496062992126
21
1.9247559055118111
0
LINE
8
BLACK
6
CONTINUOUS
10
0.8631496062992126
20
1.9247559055118111
11
2.3592125984251968
21
1.9247559055118111
0
LINE
8
BLACK
6
CONTINUOUS
10
2.3592125984251968
20
1.9247559055118111
11
2.3592125984251968
21
2.1208188976377951
0
LINE
8
BLACK
6
CONTINUOUS
10
2.3592125984251968
20
2.1208188976377951
11
0.9013665748031496
21
2.1208188976377951
0
LINE
8
BLACK
6
CONTINUOUS
10
2.4213700787401575
20
1.9685499212598425
11
2.4214131102362204
21
1.9685562992125984
0
LINE
8
BLACK
6
CONTINUOUS
10
2.4214131102362204
20
1.9685562992125984
11
2.4216285826771653
21
1.9685244488188975
0
LINE
8
BLACK
6
CONTINUOUS
10
2.4216285826771653
20
1.9685244488188975
11
2.4218456299212598
21
1.9685030708661417
0
LINE
8
BLACK
6
CONTINUOUS
10
2.4218456299212598
20
1.9685030708661417
11
2.4218858267716534
21
1.9684864566929134
0
LINE
8
BLACK
6
CONTINUOUS
10
2.4218858267716534
20
1.9684864566929134
11
2.4219857086614174
21
1.9684716535433071
0
LINE
8
BLACK
6
CONTINUOUS
10
2.4219857086614174
20
1.9684716535433071
11
2.4294847637795276
21
1.9665968897637796
0
LINE
8
BLACK
6
CONTINUOUS
10
2.4294847637795276
20
1.9665968897637796
11
2.4295272440944879
21
1.9665817322834644
0
LINE
8
BLACK
6
CONTINUOUS
10
2.4295272440944879
20
1.9665817322834644
11
2.4295485039370077
21
1.9665801968503938
0
LINE
8
BLACK
6
CONTINUOUS
10
2.4295485039370077
20
1.9665801968503938
11
2.4297879133858267
21
1.9664885826771654
0
LINE
8
BLACK
6
CONTINUOUS
10
2.4297879133858267
20
1.9664885826771654
11
2.4300298818897637
21
1.9664021259842519
0
LINE
8
BLACK
6
CONTINUOUS
10
2.4300298818897637
20
1.9664021259842519
11
2.4300470078740157
21
1.9663894488188975
0
LINE
8
BLACK
6
CONTINUOUS
10
2.4300470078740157
20
1.9663894488188975
11
2.4300891338582677
21
1.9663733070866141
0
LINE
8
BLACK
6
CONTINUOUS
10
2.4300891338582677
20
1.9663733070866141
11
2.4338386614173229
21
1.9644985433070865
0
LINE
8
BLACK
6
CONTINUOUS
10
2.4338386614173229
20
1.9644985433070865
11
2.434086535433071
21
1.9643425196850393
0
LINE
8
BLACK
6
CONTINUOUS
10
2.434086535433071
20
1.9643425196850393
11
2.4341585826771652
21
1.9643126771653543
0
LINE
8
BLACK
6
CONTINUOUS
10
2.4341585826771652
20
1.9643126771653543
11
2.4342396062992124
21
1.9642461811023622
0
LINE
8
BLACK
6
CONTINUOUS
10
2.4342396062992124
20
1.9642461811023622
11
2.4343285433070867
21
1.9641901968503936
0
LINE
8
BLACK
6
CONTINUOUS
10
2.4343285433070867
20
1.9641901968503936
11
2.43437968503937
21
1.9641312204724408
0
LINE
8
BLACK
6
CONTINUOUS
10
2.43437968503937
20
1.9641312204724408
11
2.4346060629921258
21
1.9639454330708661
0
LINE
8
BLACK
6
CONTINUOUS
10
2.4346060629921258
20
1.9639454330708661
11
2.4383556299212596
21
1.960195905511811
0
LINE
8
BLACK
6
CONTINUOUS
10
2.4383556299212596
20
1.960195905511811
11
2.4387228740157481
21
1.9597484645669292
0
LINE
8
BLACK
6
CONTINUOUS
10
2.4387228740157481
20
1.9597484645669292
11
2.4387634645669292
21
1.9596504330708662
0
LINE
8
BLACK
6
CONTINUOUS
10
2.4387634645669292
20
1.9596504330708662
11
2.4388329527559054
21
1.9595703149606298
0
LINE
8
BLACK
6
CONTINUOUS
10
2.4388329527559054
20
1.9595703149606298
11
2.4390689370078737
21
1.9590417322834646
0
LINE
8
BLACK
6
CONTINUOUS
10
2.4390689370078737
20
1.9590417322834646
11
2.4409437007874013
21
1.9534174803149607
0
LINE
8
BLACK
6
CONTINUOUS
10
2.4409437007874013
20
1.9534174803149607
11
2.441008622047244
21
1.9531318503937007
0
LINE
8
BLACK
6
CONTINUOUS
10
2.441008622047244
20
1.9531318503937007
11
2.4410385039370079
21
1.9530597637795275
0
LINE
8
BLACK
6
CONTINUOUS
10
2.4410385039370079
20
1.9530597637795275
11
2.4410487795275588
21
1.9529553149606298
0
LINE
8
BLACK
6
CONTINUOUS
10
2.4410487795275588
20
1.9529553149606298
11
2.4410720472440945
21
1.952853031496063
0
LINE
8
BLACK
6
CONTINUOUS
10
2.4410720472440945
20
1.952853031496063
11
2.4410664960629922
21
1.9527753149606299
0
LINE
8
BLACK
6
CONTINUOUS
10
2.4410664960629922
20
1.9527753149606299
11
2.4410952362204723
21
1.9524837007874016
0
LINE
8
BLACK
6
CONTINUOUS
10
2.4410952362204723
20
1.9524837007874016
11
2.4410952362204723
21
1.9431098818897636
0
LINE
8
BLACK
6
CONTINUOUS
10
2.4410952362204723
20
1.9431098818897636
11
2.4410385039370079
21
1.9425338188976378
0
LINE
8
BLACK
6
CONTINUOUS
10
2.4410385039370079
20
1.9425338188976378
11
2.4405975984251969
21
1.941469409448819
0
LINE
8
BLACK
6
CONTINUOUS
10
2.4405975984251969
20
1.941469409448819
11
2.4397829527559054
21
1.9406547637795275
0
LINE
8
BLACK
6
CONTINUOUS
10
2.4397829527559054
20
1.9406547637795275
11
2.4387185433070866
21
1.9402138582677164
0
LINE
8
BLACK
6
CONTINUOUS
10
2.4387185433070866
20
1.9402138582677164
11
2.4381424803149607
21
1.9401571259842518
0
LINE
8
BLACK
6
CONTINUOUS
10
2.4381424803149607
20
1.9401571259842518
11
2.3987724015748033
21
1.9401571259842518
0
LINE
8
BLACK
6
CONTINUOUS
10
2.3987724015748033
20
1.9401571259842518
11
2.398196338582677
21
1.9402138582677164
0
LINE
8
BLACK
6
CONTINUOUS
10
2.398196338582677
20
1.9402138582677164
11
2.3971319291338582
21
1.9406547637795275
0
LINE
8
BLACK
6
CONTINUOUS
10
2.3971319291338582
20
1.9406547637795275
11
2.3963172834645667
21
1.941469409448819
0
LINE
8
BLACK
6
CONTINUOUS
10
2.3963172834645667
20
1.941469409448819
11
2.3958763779527557
21
1.9425338188976378
0
LINE
8
BLACK
6
CONTINUOUS
10
2.3958763779527557
20
1.9425338188976378
11
2.3958196456692913
21
1.9431098818897636
0
LINE
8
BLACK
6
CONTINUOUS
10
2.3958196456692913
20
1.9431098818897636
11
2.3958196456692913
21
1.9524837007874016
0
LINE
8
BLACK
6
CONTINUOUS
10
2.3958196456692913
20
1.9524837007874016
11
2.3958483464566926
21
1.9527752755905512
0
LINE
8
BLACK
6
CONTINUOUS
10
2.3958483464566926
20
1.9527752755905512
11
2.3958428346456691
21
1.9528529921259843
0
LINE
8
BLACK
6
CONTINUOUS
10
2.3958428346456691
20
1.9528529921259843
11
2.395866062992126
21
1.952955275590551
0
LINE
8
BLACK
6
CONTINUOUS
10
2.395866062992126
20
1.952955275590551
11
2.3958763779527557
21
1.9530597637795275
0
LINE
8
BLACK
6
CONTINUOUS
10
2.3958763779527557
20
1.9530597637795275
11
2.3959062204724408
21
1.9531318897637795
0
LINE
8
BLACK
6
CONTINUOUS
10
2.3959062204724408
20
1.9531318897637795
11
2.3959711811023623
21
1.9534174409448819
0
LINE
8
BLACK
6
CONTINUOUS
10
2.3959711811023623
20
1.9534174409448819
11
2.3978459448818898
21
1.9590417322834646
0
LINE
8
BLACK
6
CONTINUOUS
10
2.3978459448818898
20
1.9590417322834646
11
2.3980819291338582
21
1.9595702755905511
0
LINE
8
BLACK
6
CONTINUOUS
10
2.3980819291338582
20
1.9595702755905511
11
2.3981514173228344
21
1.9596504330708662
0
LINE
8
BLACK
6
CONTINUOUS
10
2.3981514173228344
20
1.9596504330708662
11
2.3981920472440943
21
1.9597484645669292
0
LINE
8
BLACK
6
CONTINUOUS
10
2.3981920472440943
20
1.9597484645669292
11
2.3985592519685039
21
1.960195905511811
0
LINE
8
BLACK
6
CONTINUOUS
10
2.3985592519685039
20
1.960195905511811
11
2.4023087795275591
21
1.9639454330708661
0
LINE
8
BLACK
6
CONTINUOUS
10
2.4023087795275591
20
1.9639454330708661
11
2.4025351574803149
21
1.9641312992125983
0
LINE
8
BLACK
6
CONTINUOUS
10
2.4025351574803149
20
1.9641312992125983
11
2.4025862992125986
21
1.9641901968503936
0
LINE
8
BLACK
6
CONTINUOUS
10
2.4025862992125986
20
1.9641901968503936
11
2.4026750393700786
21
1.9642461023622046
0
LINE
8
BLACK
6
CONTINUOUS
10
2.4026750393700786
20
1.9642461023622046
11
2.4027562204724409
21
1.9643126771653543
0
LINE
8
BLACK
6
CONTINUOUS
10
2.4027562204724409
20
1.9643126771653543
11
2.4028283464566931
21
1.964342559055118
0
LINE
8
BLACK
6
CONTINUOUS
10
2.4028283464566931
20
1.964342559055118
11
2.403076181102362
21
1.9644985433070865
0
LINE
8
BLACK
6
CONTINUOUS
10
2.403076181102362
20
1.9644985433070865
11
2.4068257086614171
21
1.9663733070866141
0
LINE
8
BLACK
6
CONTINUOUS
10
2.4068257086614171
20
1.9663733070866141
11
2.4068677952755904
21
1.9663894488188975
0
LINE
8
BLACK
6
CONTINUOUS
10
2.4068677952755904
20
1.9663894488188975
11
2.4068849606299212
21
1.9664021259842519
0
LINE
8
BLACK
6
CONTINUOUS
10
2.4068849606299212
20
1.9664021259842519
11
2.4071265354330706
21
1.9664884645669292
0
LINE
8
BLACK
6
CONTINUOUS
10
2.4071265354330706
20
1.9664884645669292
11
2.4073662992125984
21
1.9665801968503938
0
LINE
8
BLACK
6
CONTINUOUS
10
2.4073662992125984
20
1.9665801968503938
11
2.4073875590551181
21
1.9665817322834644
0
LINE
8
BLACK
6
CONTINUOUS
10
2.4073875590551181
20
1.9665817322834644
11
2.4074300787401572
21
1.9665968897637796
0
LINE
8
BLACK
6
CONTINUOUS
10
2.4074300787401572
20
1.9665968897637796
11
2.4149291338582675
21
1.9684716535433071
0
LINE
8
BLACK
6
CONTINUOUS
10
2.4149291338582675
20
1.9684716535433071
11
2.4150289763779527
21
1.9684864566929134
0
LINE
8
BLACK
6
CONTINUOUS
10
2.4150289763779527
20
1.9684864566929134
11
2.415069212598425
21
1.9685030708661417
0
LINE
8
BLACK
6
CONTINUOUS
10
2.415069212598425
20
1.9685030708661417
11
2.4152862204724408
21
1.9685244488188975
0
LINE
8
BLACK
6
CONTINUOUS
10
2.4152862204724408
20
1.9685244488188975
11
2.4155017322834644
21
1.9685562992125984
0
LINE
8
BLACK
6
CONTINUOUS
10
2.4155017322834644
20
1.9685562992125984
11
2.4155447244094486
21
1.9685499212598425
0
LINE
8
BLACK
6
CONTINUOUS
10
2.4155447244094486
20
1.9685499212598425
11
2.4156452755905513
21
1.9685598031496063
0
LINE
8
BLACK
6
CONTINUOUS
10
2.4156452755905513
20
1.9685598031496063
11
2.421269566929134
21
1.9685598031496063
0
LINE
8
BLACK
6
CONTINUOUS
10
2.421269566929134
20
1.9685598031496063
11
2.4213700787401575
21
1.9685499212598425
0
LINE
8
BLACK
6
CONTINUOUS
10
2.4091767716535433
20
1.9609462992125983
11
2.4061457874015746
21
1.9594307874015748
0
LINE
8
BLACK
6
CONTINUOUS
10
2.4061457874015746
20
1.9594307874015748
11
2.4032279527559055
21
1.9565129921259843
0
LINE
8
BLACK
6
CONTINUOUS
10
2.4032279527559055
20
1.9565129921259843
11
2.4017251574803149
21
1.9520045669291337
0
LINE
8
BLACK
6
CONTINUOUS
10
2.4017251574803149
20
1.9520045669291337
11
2.4017251574803149
21
1.9460626377952754
0
LINE
8
BLACK
6
CONTINUOUS
10
2.4017251574803149
20
1.9460626377952754
11
2.4351897244094487
21
1.9460626377952754
0
LINE
8
BLACK
6
CONTINUOUS
10
2.4351897244094487
20
1.9460626377952754
11
2.4351897244094487
21
1.9520045669291337
0
LINE
8
BLACK
6
CONTINUOUS
10
2.4351897244094487
20
1.9520045669291337
11
2.4336869291338581
21
1.9565129527559055
0
LINE
8
BLACK
6
CONTINUOUS
10
2.4336869291338581
20
1.9565129527559055
11
2.4307690551181103
21
1.9594307874015748
0
LINE
8
BLACK
6
CONTINUOUS
10
2.4307690551181103
20
1.9594307874015748
11
2.4277380708661416
21
1.9609462992125983
0
LINE
8
BLACK
6
CONTINUOUS
10
2.4277380708661416
20
1.9609462992125983
11
2.420906023622047
21
1.9626542913385827
0
LINE
8
BLACK
6
CONTINUOUS
10
2.420906023622047
20
1.9626542913385827
11
2.4160088188976379
21
1.9626542913385827
0
LINE
8
BLACK
6
CONTINUOUS
10
2.4160088188976379
20
1.9626542913385827
11
2.4091767716535433
21
1.9609462992125983
0
LINE
8
BLACK
6
CONTINUOUS
10
2.400412874015748
20
2.0036827165354332
11
2.4012275196850394
21
2.0028680708661417
0
LINE
8
BLACK
6
CONTINUOUS
10
2.4012275196850394
20
2.0028680708661417
11
2.4016684251968505
21
2.0018036614173229
0
LINE
8
BLACK
6
CONTINUOUS
10
2.4016684251968505
20
2.0018036614173229
11
2.4017251574803149
21
2.0012275984251966
0
LINE
8
BLACK
6
CONTINUOUS
10
2.4017251574803149
20
2.0012275984251966
11
2.4017251574803149
21
1.9854327165354331
0
LINE
8
BLACK
6
CONTINUOUS
10
2.4017251574803149
20
1.9854327165354331
11
2.4145672834645668
21
1.9854327165354331
0
LINE
8
BLACK
6
CONTINUOUS
10
2.4145672834645668
20
1.9854327165354331
11
2.4145672834645668
21
1.9956033070866142
0
LINE
8
BLACK
6
CONTINUOUS
10
2.4145672834645668
20
1.9956033070866142
11
2.4146240157480316
21
1.99617937007874
0
LINE
8
BLACK
6
CONTINUOUS
10
2.4146240157480316
20
1.99617937007874
11
2.4150649212598423
21
1.997243779527559
0
LINE
8
BLACK
6
CONTINUOUS
10
2.4150649212598423
20
1.997243779527559
11
2.4158795669291337
21
1.9980584251968503
0
LINE
8
BLACK
6
CONTINUOUS
10
2.4158795669291337
20
1.9980584251968503
11
2.4169439763779526
21
1.9984993307086614
0
LINE
8
BLACK
6
CONTINUOUS
10
2.4169439763779526
20
1.9984993307086614
11
2.4180961023622047
21
1.9984993307086614
0
LINE
8
BLACK
6
CONTINUOUS
10
2.4180961023622047
20
1.9984993307086614
11
2.4191605118110235
21
1.9980584251968503
0
LINE
8
BLACK
6
CONTINUOUS
10
2.4191605118110235
20
1.9980584251968503
11
2.419975157480315
21
1.997243779527559
0
LINE
8
BLACK
6
CONTINUOUS
10
2.419975157480315
20
1.997243779527559
11
2.4204160629921261
21
1.99617937007874
0
LINE
8
BLACK
6
CONTINUOUS
10
2.4204160629921261
20
1.99617937007874
11
2.4204727952755904
21
1.9956033070866142
0
LINE
8
BLACK
6
CONTINUOUS
10
2.4204727952755904
20
1.9956033070866142
11
2.4204727952755904
21
1.9854327165354331
0
LINE
8
BLACK
6
CONTINUOUS
10
2.4204727952755904
20
1.9854327165354331
11
2.4351897244094487
21
1.9854327165354331
0
LINE
8
BLACK
6
CONTINUOUS
10
2.4351897244094487
20
1.9854327165354331
11
2.4351897244094487
21
2.0012275984251966
0
LINE
8
BLACK
6
CONTINUOUS
10
2.4351897244094487
20
2.0012275984251966
11
2.4352464566929135
21
2.0018036614173229
0
LINE
8
BLACK
6
CONTINUOUS
10
2.4352464566929135
20
2.0018036614173229
11
2.4356873622047241
21
2.0028680708661417
0
LINE
8
BLACK
6
CONTINUOUS
10
2.4356873622047241
20
2.0028680708661417
11
2.4365020078740156
21
2.0036827165354332
0
LINE
8
BLACK
6
CONTINUOUS
10
2.4365020078740156
20
2.0036827165354332
11
2.4375664173228344
21
2.0041236220472443
0
LINE
8
BLACK
6
CONTINUOUS
10
2.4375664173228344
20
2.0041236220472443
11
2.4387185433070866
21
2.0041236220472443
0
LINE
8
BLACK
6
CONTINUOUS
10
2.4387185433070866
20
2.0041236220472443
11
2.4397829527559054
21
2.0036827165354332
0
LINE
8
BLACK
6
CONTINUOUS
10
2.4397829527559054
20
2.0036827165354332
11
2.4405975984251969
21
2.0028680708661417
0
LINE
8
BLACK
6
CONTINUOUS
10
2.4405975984251969
20
2.0028680708661417
11
2.4410385039370079
21
2.0018036614173229
0
LINE
8
BLACK
6
CONTINUOUS
10
2.4410385039370079
20
2.0018036614173229
11
2.4410952362204723
21
2.0012275984251966
0
LINE
8
BLACK
6
CONTINUOUS
10
2.4410952362204723
20
2.0012275984251966
11
2.4410952362204723
21
1.9824799606299213
0
LINE
8
BLACK
6
CONTINUOUS
10
2.4410952362204723
20
1.9824799606299213
11
2.4410385039370079
21
1.9819038976377952
0
LINE
8
BLACK
6
CONTINUOUS
10
2.4410385039370079
20
1.9819038976377952
11
2.4405975984251969
21
1.9808394881889764
0
LINE
8
BLACK
6
CONTINUOUS
10
2.4405975984251969
20
1.9808394881889764
11
2.4397829527559054
21
1.9800248425196849
0
LINE
8
BLACK
6
CONTINUOUS
10
2.4397829527559054
20
1.9800248425196849
11
2.4387185433070866
21
1.9795839370078741
0
LINE
8
BLACK
6
CONTINUOUS
10
2.4387185433070866
20
1.9795839370078741
11
2.4381424803149607
21
1.9795272047244095
0
LINE
8
BLACK
6
CONTINUOUS
10
2.4381424803149607
20
1.9795272047244095
11
2.3987724015748033
21
1.9795272047244095
0
LINE
8
BLACK
6
CONTINUOUS
10
2.3987724015748033
20
1.9795272047244095
11
2.398196338582677
21
1.9795839370078741
0
LINE
8
BLACK
6
CONTINUOUS
10
2.398196338582677
20
1.9795839370078741
11
2.3971319291338582
21
1.9800248425196849
0
LINE
8
BLACK
6
CONTINUOUS
10
2.3971319291338582
20
1.9800248425196849
11
2.3963172834645667
21
1.9808394881889764
0
LINE
8
BLACK
6
CONTINUOUS
10
2.3963172834645667
20
1.9808394881889764
11
2.3958763779527557
21
1.9819038976377952
0
LINE
8
BLACK
6
CONTINUOUS
10
2.3958763779527557
20
1.9819038976377952
11
2.3958196456692913
21
1.9824799606299213
0
LINE
8
BLACK
6
CONTINUOUS
10
2.3958196456692913
20
1.9824799606299213
11
2.3958196456692913
21
2.0012275984251966
0
LINE
8
BLACK
6
CONTINUOUS
10
2.3958196456692913
20
2.0012275984251966
11
2.3958763779527557
21
2.0018036614173229
0
LINE
8
BLACK
6
CONTINUOUS
10
2.3958763779527557
20
2.0018036614173229
11
2.3963172834645667
21
2.0028680708661417
0
LINE
8
BLACK
6
CONTINUOUS
10
2.3963172834645667
20
2.0028680708661417
11
2.3971319291338582
21
2.0036827165354332
0
LINE
8
BLACK
6
CONTINUOUS
10
2.3971319291338582
20
2.0036827165354332
11
2.398196338582677
21
2.0041236220472443
0
LINE
8
BLACK
6
CONTINUOUS
10
2.398196338582677
20
2.0041236220472443
11
2.3993484645669292
21
2.0041236220472443
0
LINE
8
BLACK
6
CONTINUOUS
10
2.3993484645669292
20
2.0041236220472443
11
2.400412874015748
21
2.0036827165354332
0
LINE
8
BLACK
6
CONTINUOUS
10
2.4124718110236221
20
2.0434937007874017
11
2.4125698031496063
21
2.0434531102362206
0
LINE
8
BLACK
6
CONTINUOUS
10
2.4125698031496063
20
2.0434531102362206
11
2.4126756299212597
21
2.043445590551181
0
LINE
8
BLACK
6
CONTINUOUS
10
2.4126756299212597
20
2.043445590551181
11
2.4132162598425198
21
2.0432387007874016
0
LINE
8
BLACK
6
CONTINUOUS
10
2.4132162598425198
20
2.0432387007874016
11
2.4169657874015749
21
2.041363937007874
0
LINE
8
BLACK
6
CONTINUOUS
10
2.4169657874015749
20
2.041363937007874
11
2.4172137795275588
21
2.0412078740157478
0
LINE
8
BLACK
6
CONTINUOUS
10
2.4172137795275588
20
2.0412078740157478
11
2.417285748031496
21
2.041178031496063
0
LINE
8
BLACK
6
CONTINUOUS
10
2.417285748031496
20
2.041178031496063
11
2.4173666929133857
21
2.0411115748031494
0
LINE
8
BLACK
6
CONTINUOUS
10
2.4173666929133857
20
2.0411115748031494
11
2.4174556692913387
21
2.0410555905511809
0
LINE
8
BLACK
6
CONTINUOUS
10
2.4174556692913387
20
2.0410555905511809
11
2.417506811023622
21
2.0409966141732281
0
LINE
8
BLACK
6
CONTINUOUS
10
2.417506811023622
20
2.0409966141732281
11
2.4177331889763778
21
2.0408108267716534
0
LINE
8
BLACK
6
CONTINUOUS
10
2.4177331889763778
20
2.0408108267716534
11
2.4196079527559053
21
2.0389360629921258
0
LINE
8
BLACK
6
CONTINUOUS
10
2.4196079527559053
20
2.0389360629921258
11
2.4197937007874013
21
2.0387097244094488
0
LINE
8
BLACK
6
CONTINUOUS
10
2.4197937007874013
20
2.0387097244094488
11
2.4198527165354329
21
2.0386585433070867
0
LINE
8
BLACK
6
CONTINUOUS
10
2.4198527165354329
20
2.0386585433070867
11
2.4199086614173226
21
2.0385696062992125
0
LINE
8
BLACK
6
CONTINUOUS
10
2.4199086614173226
20
2.0385696062992125
11
2.419975157480315
21
2.038488622047244
0
LINE
8
BLACK
6
CONTINUOUS
10
2.419975157480315
20
2.038488622047244
11
2.420004960629921
21
2.0384166929133856
0
LINE
8
BLACK
6
CONTINUOUS
10
2.420004960629921
20
2.0384166929133856
11
2.420161062992126
21
2.0381686614173229
0
LINE
8
BLACK
6
CONTINUOUS
10
2.420161062992126
20
2.0381686614173229
11
2.4220358267716535
21
2.0344191338582678
0
LINE
8
BLACK
6
CONTINUOUS
10
2.4220358267716535
20
2.0344191338582678
11
2.422242716535433
21
2.0338785433070865
0
LINE
8
BLACK
6
CONTINUOUS
10
2.422242716535433
20
2.0338785433070865
11
2.4222502362204725
21
2.0337726771653544
0
LINE
8
BLACK
6
CONTINUOUS
10
2.4222502362204725
20
2.0337726771653544
11
2.4222908267716536
21
2.0336746850393701
0
LINE
8
BLACK
6
CONTINUOUS
10
2.4222908267716536
20
2.0336746850393701
11
2.4223432283464565
21
2.033142559055118
0
LINE
8
BLACK
6
CONTINUOUS
10
2.4223432283464565
20
2.033142559055118
11
2.4364492125984252
21
2.0430166929133859
0
LINE
8
BLACK
6
CONTINUOUS
10
2.4364492125984252
20
2.0430166929133859
11
2.4369536614173226
21
2.0433005511811024
0
LINE
8
BLACK
6
CONTINUOUS
10
2.4369536614173226
20
2.0433005511811024
11
2.4380785039370076
21
2.0435497244094489
0
LINE
8
BLACK
6
CONTINUOUS
10
2.4380785039370076
20
2.0435497244094489
11
2.4392130708661415
21
2.0433495275590552
0
LINE
8
BLACK
6
CONTINUOUS
10
2.4392130708661415
20
2.0433495275590552
11
2.4401846456692913
21
2.0427303543307085
0
LINE
8
BLACK
6
CONTINUOUS
10
2.4401846456692913
20
2.0427303543307085
11
2.4408453543307087
21
2.0417864960629921
0
LINE
8
BLACK
6
CONTINUOUS
10
2.4408453543307087
20
2.0417864960629921
11
2.441094566929134
21
2.0406616535433071
0
LINE
8
BLACK
6
CONTINUOUS
10
2.441094566929134
20
2.0406616535433071
11
2.4408943307086615
21
2.039527125984252
0
LINE
8
BLACK
6
CONTINUOUS
10
2.4408943307086615
20
2.039527125984252
11
2.4402751574803148
21
2.0385555118110235
0
LINE
8
BLACK
6
CONTINUOUS
10
2.4402751574803148
20
2.0385555118110235
11
2.4398357874015746
21
2.0381787007874017
0
LINE
8
BLACK
6
CONTINUOUS
10
2.4398357874015746
20
2.0381787007874017
11
2.422347559055118
21
2.0259369685039368
0
LINE
8
BLACK
6
CONTINUOUS
10
2.422347559055118
20
2.0259369685039368
11
2.422347559055118
21
2.0210532677165354
0
LINE
8
BLACK
6
CONTINUOUS
10
2.422347559055118
20
2.0210532677165354
11
2.4381424803149607
21
2.0210532677165354
0
LINE
8
BLACK
6
CONTINUOUS
10
2.4381424803149607
20
2.0210532677165354
11
2.4387185433070866
21
2.020996535433071
0
LINE
8
BLACK
6
CONTINUOUS
10
2.4387185433070866
20
2.020996535433071
11
2.4397829527559054
21
2.0205556299212599
0
LINE
8
BLACK
6
CONTINUOUS
10
2.4397829527559054
20
2.0205556299212599
11
2.4405975984251969
21
2.0197409842519685
0
LINE
8
BLACK
6
CONTINUOUS
10
2.4405975984251969
20
2.0197409842519685
11
2.4410385039370079
21
2.0186765748031497
0
LINE
8
BLACK
6
CONTINUOUS
10
2.4410385039370079
20
2.0186765748031497
11
2.4410385039370079
21
2.0175244488188975
0
LINE
8
BLACK
6
CONTINUOUS
10
2.4410385039370079
20
2.0175244488188975
11
2.4405975984251969
21
2.0164600393700787
0
LINE
8
BLACK
6
CONTINUOUS
10
2.4405975984251969
20
2.0164600393700787
11
2.4397829527559054
21
2.0156453937007872
0
LINE
8
BLACK
6
CONTINUOUS
10
2.4397829527559054
20
2.0156453937007872
11
2.4387185433070866
21
2.0152044881889761
0
LINE
8
BLACK
6
CONTINUOUS
10
2.4387185433070866
20
2.0152044881889761
11
2.4381424803149607
21
2.0151477559055118
0
LINE
8
BLACK
6
CONTINUOUS
10
2.4381424803149607
20
2.0151477559055118
11
2.3987724015748033
21
2.0151477559055118
0
LINE
8
BLACK
6
CONTINUOUS
10
2.3987724015748033
20
2.0151477559055118
11
2.398196338582677
21
2.0152044881889761
0
LINE
8
BLACK
6
CONTINUOUS
10
2.398196338582677
20
2.0152044881889761
11
2.3971319291338582
21
2.0156453937007872
0
LINE
8
BLACK
6
CONTINUOUS
10
2.3971319291338582
20
2.0156453937007872
11
2.3963172834645667
21
2.0164600393700787
0
LINE
8
BLACK
6
CONTINUOUS
10
2.3963172834645667
20
2.0164600393700787
11
2.3958763779527557
21
2.0175244488188975
0
LINE
8
BLACK
6
CONTINUOUS
10
2.3958763779527557
20
2.0175244488188975
11
2.3958196456692913
21
2.0181005118110238
0
LINE
8
BLACK
6
CONTINUOUS
10
2.3958196456692913
20
2.0181005118110238
11
2.3958196456692913
21
2.0330986220472442
0
LINE
8
BLACK
6
CONTINUOUS
10
2.3958196456692913
20
2.0330986220472442
11
2.3958763779527557
21
2.0336746850393701
0
LINE
8
BLACK
6
CONTINUOUS
10
2.3958763779527557
20
2.0336746850393701
11
2.3959169685039368
21
2.0337727165354331
0
LINE
8
BLACK
6
CONTINUOUS
10
2.3959169685039368
20
2.0337727165354331
11
2.3959244881889763
21
2.0338785039370078
0
LINE
8
BLACK
6
CONTINUOUS
10
2.3959244881889763
20
2.0338785039370078
11
2.3961313779527558
21
2.0344191338582678
0
LINE
8
BLACK
6
CONTINUOUS
10
2.3961313779527558
20
2.0344191338582678
11
2.3980061417322833
21
2.0381686614173229
0
LINE
8
BLACK
6
CONTINUOUS
10
2.3980061417322833
20
2.0381686614173229
11
2.3981622047244096
21
2.0384166929133856
0
LINE
8
BLACK
6
CONTINUOUS
10
2.3981622047244096
20
2.0384166929133856
11
2.3981920472440943
21
2.038488622047244
0
LINE
8
BLACK
6
CONTINUOUS
10
2.3981920472440943
20
2.038488622047244
11
2.3982585039370079
21
2.0385696062992125
0
LINE
8
BLACK
6
CONTINUOUS
10
2.3982585039370079
20
2.0385696062992125
11
2.3983144881889764
21
2.0386585433070867
0
LINE
8
BLACK
6
CONTINUOUS
10
2.3983144881889764
20
2.0386585433070867
11
2.3983734645669292
21
2.0387097244094488
0
LINE
8
BLACK
6
CONTINUOUS
10
2.3983734645669292
20
2.0387097244094488
11
2.3985592519685039
21
2.0389360629921258
0
LINE
8
BLACK
6
CONTINUOUS
10
2.3985592519685039
20
2.0389360629921258
11
2.4004340157480315
21
2.0408108267716534
0
LINE
8
BLACK
6
CONTINUOUS
10
2.4004340157480315
20
2.0408108267716534
11
2.4006603543307086
21
2.0409966141732281
0
LINE
8
BLACK
6
CONTINUOUS
10
2.4006603543307086
20
2.0409966141732281
11
2.400711535433071
21
2.0410555905511809
0
LINE
8
BLACK
6
CONTINUOUS
10
2.400711535433071
20
2.0410555905511809
11
2.4008004724409449
21
2.0411115748031494
0
LINE
8
BLACK
6
CONTINUOUS
10
2.4008004724409449
20
2.0411115748031494
11
2.4008814566929133
21
2.041178031496063
0
LINE
8
BLACK
6
CONTINUOUS
10
2.4008814566929133
20
2.041178031496063
11
2.4009533858267718
21
2.0412078740157478
0
LINE
8
BLACK
6
CONTINUOUS
10
2.4009533858267718
20
2.0412078740157478
11
2.4012014173228344
21
2.041363937007874
0
LINE
8
BLACK
6
CONTINUOUS
10
2.4012014173228344
20
2.041363937007874
11
2.4049509448818895
21
2.0432387007874016
0
LINE
8
BLACK
6
CONTINUOUS
10
2.4049509448818895
20
2.0432387007874016
11
2.4054915354330708
21
2.043445590551181
0
LINE
8
BLACK
6
CONTINUOUS
10
2.4054915354330708
20
2.043445590551181
11
2.405597401574803
21
2.0434531496062993
0
LINE
8
BLACK
6
CONTINUOUS
10
2.405597401574803
20
2.0434531496062993
11
2.4056953937007872
21
2.0434937007874017
0
LINE
8
BLACK
6
CONTINUOUS
10
2.4056953937007872
20
2.0434937007874017
11
2.4062714566929135
21
2.043550433070866
0
LINE
8
BLACK
6
CONTINUOUS
10
2.4062714566929135
20
2.043550433070866
11
2.4118957480314962
21
2.043550433070866
0
LINE
8
BLACK
6
CONTINUOUS
10
2.4118957480314962
20
2.043550433070866
11
2.4124718110236221
21
2.0434937007874017
0
LINE
8
BLACK
6
CONTINUOUS
10
2.404271023622047
20
2.0362961811023621
11
2.4030738976377952
21
2.0350990551181103
0
LINE
8
BLACK
6
CONTINUOUS
10
2.4030738976377952
20
2.0350990551181103
11
2.4017251574803149
21
2.0324015748031496
0
LINE
8
BLACK
6
CONTINUOUS
10
2.4017251574803149
20
2.0324015748031496
11
2.4017251574803149
21
2.0210532677165354
0
LINE
8
BLACK
6
CONTINUOUS
10
2.4017251574803149
20
2.0210532677165354
11
2.4164420472440944
21
2.0210532677165354
0
LINE
8
BLACK
6
CONTINUOUS
10
2.4164420472440944
20
2.0210532677165354
11
2.4164420472440944
21
2.0324015748031496
0
LINE
8
BLACK
6
CONTINUOUS
10
2.4164420472440944
20
2.0324015748031496
11
2.4150933070866141
21
2.0350990551181103
0
LINE
8
BLACK
6
CONTINUOUS
10
2.4150933070866141
20
2.0350990551181103
11
2.4138961811023623
21
2.0362961811023621
0
LINE
8
BLACK
6
CONTINUOUS
10
2.4138961811023623
20
2.0362961811023621
11
2.4111987007874016
21
2.0376449212598424
0
LINE
8
BLACK
6
CONTINUOUS
10
2.4111987007874016
20
2.0376449212598424
11
2.4069685039370077
21
2.0376449212598424
0
LINE
8
BLACK
6
CONTINUOUS
10
2.4069685039370077
20
2.0376449212598424
11
2.404271023622047
21
2.0362961811023621
0
LINE
8
BLACK
6
CONTINUOUS
10
2.4435324803149605
20
2.0805481102362204
11
2.444347125984252
21
2.079733464566929
0
LINE
8
BLACK
6
CONTINUOUS
10
2.444347125984252
20
2.079733464566929
11
2.4447880314960631
21
2.0786690551181102
0
LINE
8
BLACK
6
CONTINUOUS
10
2.4447880314960631
20
2.0786690551181102
11
2.4448447637795274
21
2.0780929921259843
0
LINE
8
BLACK
6
CONTINUOUS
10
2.4448447637795274
20
2.0780929921259843
11
2.4448447637795274
21
2.0480967322834647
0
LINE
8
BLACK
6
CONTINUOUS
10
2.4448447637795274
20
2.0480967322834647
11
2.4447880314960631
21
2.0475206692913384
0
LINE
8
BLACK
6
CONTINUOUS
10
2.4447880314960631
20
2.0475206692913384
11
2.444347125984252
21
2.0464562598425196
0
LINE
8
BLACK
6
CONTINUOUS
10
2.444347125984252
20
2.0464562598425196
11
2.4435324803149605
21
2.0456416141732281
0
LINE
8
BLACK
6
CONTINUOUS
10
2.4435324803149605
20
2.0456416141732281
11
2.4424680708661417
21
2.0452007086614175
0
LINE
8
BLACK
6
CONTINUOUS
10
2.4424680708661417
20
2.0452007086614175
11
2.4413159448818895
21
2.0452007086614175
0
LINE
8
BLACK
6
CONTINUOUS
10
2.4413159448818895
20
2.0452007086614175
11
2.4402515354330707
21
2.0456416141732281
0
LINE
8
BLACK
6
CONTINUOUS
10
2.4402515354330707
20
2.0456416141732281
11
2.4394368897637793
21
2.0464562598425196
0
LINE
8
BLACK
6
CONTINUOUS
10
2.4394368897637793
20
2.0464562598425196
11
2.4389959842519686
21
2.0475206692913384
0
LINE
8
BLACK
6
CONTINUOUS
10
2.4389959842519686
20
2.0475206692913384
11
2.4389392519685038
21
2.0480967322834647
0
LINE
8
BLACK
6
CONTINUOUS
10
2.4389392519685038
20
2.0480967322834647
11
2.4389392519685038
21
2.0780929921259843
0
LINE
8
BLACK
6
CONTINUOUS
10
2.4389392519685038
20
2.0780929921259843
11
2.4389959842519686
21
2.0786690551181102
0
LINE
8
BLACK
6
CONTINUOUS
10
2.4389959842519686
20
2.0786690551181102
11
2.4394368897637793
21
2.079733464566929
0
LINE
8
BLACK
6
CONTINUOUS
10
2.4394368897637793
20
2.079733464566929
11
2.4402515354330707
21
2.0805481102362204
0
LINE
8
BLACK
6
CONTINUOUS
10
2.4402515354330707
20
2.0805481102362204
11
2.4413159448818895
21
2.0809890157480315
0
LINE
8
BLACK
6
CONTINUOUS
10
2.4413159448818895
20
2.0809890157480315
11
2.4424680708661417
21
2.0809890157480315
0
LINE
8
BLACK
6
CONTINUOUS
10
2.4424680708661417
20
2.0809890157480315
11
2.4435324803149605
21
2.0805481102362204
0
LINE
8
BLACK
6
CONTINUOUS
10
2.4103125196850392
20
2.1110133070866142
11
2.4103902755905513
21
2.1110188188976378
0
LINE
8
BLACK
6
CONTINUOUS
10
2.4103902755905513
20
2.1110188188976378
11
2.4104925196850395
21
2.1109955905511812
0
LINE
8
BLACK
6
CONTINUOUS
10
2.4104925196850395
20
2.1109955905511812
11
2.4105970472440945
21
2.1109852755905512
0
LINE
8
BLACK
6
CONTINUOUS
10
2.4105970472440945
20
2.1109852755905512
11
2.4106691338582675
21
2.110955433070866
0
LINE
8
BLACK
6
CONTINUOUS
10
2.4106691338582675
20
2.110955433070866
11
2.4109547244094487
21
2.110890472440945
0
LINE
8
BLACK
6
CONTINUOUS
10
2.4109547244094487
20
2.110890472440945
11
2.4165790157480314
21
2.1090157086614174
0
LINE
8
BLACK
6
CONTINUOUS
10
2.4165790157480314
20
2.1090157086614174
11
2.4171075590551179
21
2.1087797244094486
0
LINE
8
BLACK
6
CONTINUOUS
10
2.4171075590551179
20
2.1087797244094486
11
2.4171876771653542
21
2.1087102362204724
0
LINE
8
BLACK
6
CONTINUOUS
10
2.4171876771653542
20
2.1087102362204724
11
2.417285748031496
21
2.1086696062992125
0
LINE
8
BLACK
6
CONTINUOUS
10
2.417285748031496
20
2.1086696062992125
11
2.4177331889763778
21
2.1083024015748033
0
LINE
8
BLACK
6
CONTINUOUS
10
2.4177331889763778
20
2.1083024015748033
11
2.4351897244094487
21
2.0908459055118112
0
LINE
8
BLACK
6
CONTINUOUS
10
2.4351897244094487
20
2.0908459055118112
11
2.4351897244094487
21
2.1080892519685039
0
LINE
8
BLACK
6
CONTINUOUS
10
2.4351897244094487
20
2.1080892519685039
11
2.4352464566929135
21
2.1086653149606298
0
LINE
8
BLACK
6
CONTINUOUS
10
2.4352464566929135
20
2.1086653149606298
11
2.4356873622047241
21
2.1097297244094486
0
LINE
8
BLACK
6
CONTINUOUS
10
2.4356873622047241
20
2.1097297244094486
11
2.4365020078740156
21
2.1105443700787401
0
LINE
8
BLACK
6
CONTINUOUS
10
2.4365020078740156
20
2.1105443700787401
11
2.4375664173228344
21
2.1109852755905512
0
LINE
8
BLACK
6
CONTINUOUS
10
2.4375664173228344
20
2.1109852755905512
11
2.4387185433070866
21
2.1109852755905512
0
LINE
8
BLACK
6
CONTINUOUS
10
2.4387185433070866
20
2.1109852755905512
11
2.4397829527559054
21
2.1105443700787401
0
LINE
8
BLACK
6
CONTINUOUS
10
2.4397829527559054
20
2.1105443700787401
11
2.4405975984251969
21
2.1097297244094486
0
LINE
8
BLACK
6
CONTINUOUS
10
2.4405975984251969
20
2.1097297244094486
11
2.4410385039370079
21
2.1086653149606298
0
LINE
8
BLACK
6
CONTINUOUS
10
2.4410385039370079
20
2.1086653149606298
11
2.4410952362204723
21
2.1080892519685039
0
LINE
8
BLACK
6
CONTINUOUS
10
2.4410952362204723
20
2.1080892519685039
11
2.4410952362204723
21
2.0837173228346457
0
LINE
8
BLACK
6
CONTINUOUS
10
2.4410952362204723
20
2.0837173228346457
11
2.4410385039370079
21
2.0831412598425199
0
LINE
8
BLACK
6
CONTINUOUS
10
2.4410385039370079
20
2.0831412598425199
11
2.4409093700787401
21
2.0828295275590549
0
LINE
8
BLACK
6
CONTINUOUS
10
2.4409093700787401
20
2.0828295275590549
11
2.4405976377952756
21
2.0820768503937006
0
LINE
8
BLACK
6
CONTINUOUS
10
2.4405976377952756
20
2.0820768503937006
11
2.4397829527559054
21
2.0812622047244096
0
LINE
8
BLACK
6
CONTINUOUS
10
2.4397829527559054
20
2.0812622047244096
11
2.4387185433070866
21
2.0808212992125985
0
LINE
8
BLACK
6
CONTINUOUS
10
2.4387185433070866
20
2.0808212992125985
11
2.4375664566929132
21
2.0808212992125985
0
LINE
8
BLACK
6
CONTINUOUS
10
2.4375664566929132
20
2.0808212992125985
11
2.4375664173228344
21
2.0808212992125985
0
LINE
8
BLACK
6
CONTINUOUS
10
2.4375664173228344
20
2.0808212992125985
11
2.4372546456692912
21
2.0809504330708659
0
LINE
8
BLACK
6
CONTINUOUS
10
2.4372546456692912
20
2.0809504330708659
11
2.4365020078740156
21
2.0812621653543308
0
LINE
8
BLACK
6
CONTINUOUS
10
2.4365020078740156
20
2.0812621653543308
11
2.4360545669291338
21
2.0816294094488188
0
LINE
8
BLACK
6
CONTINUOUS
10
2.4360545669291338
20
2.0816294094488188
11
2.4140502362204725
21
2.1036337007874013
0
LINE
8
BLACK
6
CONTINUOUS
10
2.4140502362204725
20
2.1036337007874013
11
2.4095418503937007
21
2.1051364960629919
0
LINE
8
BLACK
6
CONTINUOUS
10
2.4095418503937007
20
2.1051364960629919
11
2.4069685039370077
21
2.1051364960629919
0
LINE
8
BLACK
6
CONTINUOUS
10
2.4069685039370077
20
2.1051364960629919
11
2.404271023622047
21
2.1037877559055116
0
LINE
8
BLACK
6
CONTINUOUS
10
2.404271023622047
20
2.1037877559055116
11
2.4030738976377952
21
2.1025906299212598
0
LINE
8
BLACK
6
CONTINUOUS
10
2.4030738976377952
20
2.1025906299212598
11
2.4017251574803149
21
2.0998931496062991
0
LINE
8
BLACK
6
CONTINUOUS
10
2.4017251574803149
20
2.0998931496062991
11
2.4017251574803149
21
2.0919134251968505
0
LINE
8
BLACK
6
CONTINUOUS
10
2.4017251574803149
20
2.0919134251968505
11
2.4030738976377952
21
2.0892159448818899
0
LINE
8
BLACK
6
CONTINUOUS
10
2.4030738976377952
20
2.0892159448818899
11
2.4046098425196849
21
2.0876799999999998
0
LINE
8
BLACK
6
CONTINUOUS
10
2.4046098425196849
20
2.0876799999999998
11
2.4049770472440946
21
2.087232559055118
0
LINE
8
BLACK
6
CONTINUOUS
10
2.4049770472440946
20
2.087232559055118
11
2.4054179527559056
21
2.0861681496062991
0
LINE
8
BLACK
6
CONTINUOUS
10
2.4054179527559056
20
2.0861681496062991
11
2.4054179527559056
21
2.0850160629921257
0
LINE
8
BLACK
6
CONTINUOUS
10
2.4054179527559056
20
2.0850160629921257
11
2.4049770472440946
21
2.0839516535433069
0
LINE
8
BLACK
6
CONTINUOUS
10
2.4049770472440946
20
2.0839516535433069
11
2.4041623622047243
21
2.0831369685039371
0
LINE
8
BLACK
6
CONTINUOUS
10
2.4041623622047243
20
2.0831369685039371
11
2.4030979527559055
21
2.0826960629921261
0
LINE
8
BLACK
6
CONTINUOUS
10
2.4030979527559055
20
2.0826960629921261
11
2.4019458661417321
21
2.0826960629921261
0
LINE
8
BLACK
6
CONTINUOUS
10
2.4019458661417321
20
2.0826960629921261
11
2.4008814566929133
21
2.0831369685039371
0
LINE
8
BLACK
6
CONTINUOUS
10
2.4008814566929133
20
2.0831369685039371
11
2.4004340157480315
21
2.0835041732283464
0
LINE
8
BLACK
6
CONTINUOUS
10
2.4004340157480315
20
2.0835041732283464
11
2.3985592519685039
21
2.0853789370078739
0
LINE
8
BLACK
6
CONTINUOUS
10
2.3985592519685039
20
2.0853789370078739
11
2.3983734645669292
21
2.0856053149606297
0
LINE
8
BLACK
6
CONTINUOUS
10
2.3983734645669292
20
2.0856053149606297
11
2.3983144881889764
21
2.0856564566929134
0
LINE
8
BLACK
6
CONTINUOUS
10
2.3983144881889764
20
2.0856564566929134
11
2.3982585039370079
21
2.085745433070866
0
LINE
8
BLACK
6
CONTINUOUS
10
2.3982585039370079
20
2.085745433070866
11
2.3981920472440943
21
2.0858263779527557
0
LINE
8
BLACK
6
CONTINUOUS
10
2.3981920472440943
20
2.0858263779527557
11
2.3981622047244096
21
2.0858983464566929
0
LINE
8
BLACK
6
CONTINUOUS
10
2.3981622047244096
20
2.0858983464566929
11
2.3980061417322833
21
2.0861463385826773
0
LINE
8
BLACK
6
CONTINUOUS
10
2.3980061417322833
20
2.0861463385826773
11
2.3961313779527558
21
2.0898958661417324
0
LINE
8
BLACK
6
CONTINUOUS
10
2.3961313779527558
20
2.0898958661417324
11
2.3959244881889763
21
2.090436496062992
0
LINE
8
BLACK
6
CONTINUOUS
10
2.3959244881889763
20
2.090436496062992
11
2.3959169685039368
21
2.0905423228346458
0
LINE
8
BLACK
6
CONTINUOUS
10
2.3959169685039368
20
2.0905423228346458
11
2.3958763779527557
21
2.0906403149606301
0
LINE
8
BLACK
6
CONTINUOUS
10
2.3958763779527557
20
2.0906403149606301
11
2.3958196456692913
21
2.0912163779527559
0
LINE
8
BLACK
6
CONTINUOUS
10
2.3958196456692913
20
2.0912163779527559
11
2.3958196456692913
21
2.1005901968503937
0
LINE
8
BLACK
6
CONTINUOUS
10
2.3958196456692913
20
2.1005901968503937
11
2.3958763779527557
21
2.1011662598425196
0
LINE
8
BLACK
6
CONTINUOUS
10
2.3958763779527557
20
2.1011662598425196
11
2.3959169685039368
21
2.1012642913385826
0
LINE
8
BLACK
6
CONTINUOUS
10
2.3959169685039368
20
2.1012642913385826
11
2.3959244881889763
21
2.1013700787401572
0
LINE
8
BLACK
6
CONTINUOUS
10
2.3959244881889763
20
2.1013700787401572
11
2.3961313779527558
21
2.1019107086614173
0
LINE
8
BLACK
6
CONTINUOUS
10
2.3961313779527558
20
2.1019107086614173
11
2.3980061417322833
21
2.1056602362204724
0
LINE
8
BLACK
6
CONTINUOUS
10
2.3980061417322833
20
2.1056602362204724
11
2.3981622047244096
21
2.1059082677165355
0
LINE
8
BLACK
6
CONTINUOUS
10
2.3981622047244096
20
2.1059082677165355
11
2.3981920472440943
21
2.1059801968503935
0
LINE
8
BLACK
6
CONTINUOUS
10
2.3981920472440943
20
2.1059801968503935
11
2.3982585039370079
21
2.106061181102362
0
LINE
8
BLACK
6
CONTINUOUS
10
2.3982585039370079
20
2.106061181102362
11
2.3983144881889764
21
2.1061501181102362
0
LINE
8
BLACK
6
CONTINUOUS
10
2.3983144881889764
20
2.1061501181102362
11
2.3983734645669292
21
2.1062012992125982
0
LINE
8
BLACK
6
CONTINUOUS
10
2.3983734645669292
20
2.1062012992125982
11
2.3985592519685039
21
2.1064276377952758
0
LINE
8
BLACK
6
CONTINUOUS
10
2.3985592519685039
20
2.1064276377952758
11
2.4004340157480315
21
2.1083024015748033
0
LINE
8
BLACK
6
CONTINUOUS
10
2.4004340157480315
20
2.1083024015748033
11
2.4006603543307086
21
2.108488188976378
0
LINE
8
BLACK
6
CONTINUOUS
10
2.4006603543307086
20
2.108488188976378
11
2.400711535433071
21
2.1085471653543308
0
LINE
8
BLACK
6
CONTINUOUS
10
2.400711535433071
20
2.1085471653543308
11
2.4008004724409449
21
2.1086031496062994
0
LINE
8
BLACK
6
CONTINUOUS
10
2.4008004724409449
20
2.1086031496062994
11
2.4008814566929133
21
2.1086696062992125
0
LINE
8
BLACK
6
CONTINUOUS
10
2.4008814566929133
20
2.1086696062992125
11
2.4009533858267718
21
2.1086994488188977
0
LINE
8
BLACK
6
CONTINUOUS
10
2.4009533858267718
20
2.1086994488188977
11
2.4012014173228344
21
2.1088555118110235
0
LINE
8
BLACK
6
CONTINUOUS
10
2.4012014173228344
20
2.1088555118110235
11
2.4049509448818895
21
2.110730275590551
0
LINE
8
BLACK
6
CONTINUOUS
10
2.4049509448818895
20
2.110730275590551
11
2.4054915354330708
21
2.1109371653543305
0
LINE
8
BLACK
6
CONTINUOUS
10
2.4054915354330708
20
2.1109371653543305
11
2.405597401574803
21
2.1109447244094488
0
LINE
8
BLACK
6
CONTINUOUS
10
2.405597401574803
20
2.1109447244094488
11
2.4056953937007872
21
2.1109852755905512
0
LINE
8
BLACK
6
CONTINUOUS
10
2.4056953937007872
20
2.1109852755905512
11
2.4062714566929135
21
2.1110420078740155
0
LINE
8
BLACK
6
CONTINUOUS
10
2.4062714566929135
20
2.1110420078740155
11
2.4100209842519686
21
2.1110420078740155
0
LINE
8
BLACK
6
CONTINUOUS
10
2.4100209842519686
20
2.1110420078740155
11
2.4103125196850392
21
2.1110133070866142
0
LINE
8
BLACK
6
CONTINUOUS
10
2.4390594488188975
20
2.1446418110236221
11
2.4400637795275588
21
2.144077244094488
0
LINE
8
BLACK
6
CONTINUOUS
10
2.4400637795275588
20
2.144077244094488
11
2.4407755905511812
21
2.1431712992125984
0
LINE
8
BLACK
6
CONTINUOUS
10
2.4407755905511812
20
2.1431712992125984
11
2.4410864960629919
21
2.1420619291338583
0
LINE
8
BLACK
6
CONTINUOUS
10
2.4410864960629919
20
2.1420619291338583
11
2.4409492519685041
21
2.1409180708661415
0
LINE
8
BLACK
6
CONTINUOUS
10
2.4409492519685041
20
2.1409180708661415
11
2.44038468503937
21
2.1399137401574801
0
LINE
8
BLACK
6
CONTINUOUS
10
2.44038468503937
20
2.1399137401574801
11
2.4399667716535434
21
2.1395132283464569
0
LINE
8
BLACK
6
CONTINUOUS
10
2.4399667716535434
20
2.1395132283464569
11
2.4297984251968505
21
2.1315238582677165
0
LINE
8
BLACK
6
CONTINUOUS
10
2.4297984251968505
20
2.1315238582677165
11
2.4399667716535434
21
2.1235344488188974
0
LINE
8
BLACK
6
CONTINUOUS
10
2.4399667716535434
20
2.1235344488188974
11
2.44038468503937
21
2.1231339370078741
0
LINE
8
BLACK
6
CONTINUOUS
10
2.44038468503937
20
2.1231339370078741
11
2.4409492519685041
21
2.1221296062992128
0
LINE
8
BLACK
6
CONTINUOUS
10
2.4409492519685041
20
2.1221296062992128
11
2.4410864960629919
21
2.120985748031496
0
LINE
8
BLACK
6
CONTINUOUS
10
2.4410864960629919
20
2.120985748031496
11
2.4407755905511812
21
2.1198763779527559
0
LINE
8
BLACK
6
CONTINUOUS
10
2.4407755905511812
20
2.1198763779527559
11
2.4400637795275588
21
2.1189704330708663
0
LINE
8
BLACK
6
CONTINUOUS
10
2.4400637795275588
20
2.1189704330708663
11
2.4390594488188975
21
2.1184058661417322
0
LINE
8
BLACK
6
CONTINUOUS
10
2.4390594488188975
20
2.1184058661417322
11
2.4379155905511811
21
2.118268622047244
0
LINE
8
BLACK
6
CONTINUOUS
10
2.4379155905511811
20
2.118268622047244
11
2.436806220472441
21
2.1185795275590551
0
LINE
8
BLACK
6
CONTINUOUS
10
2.436806220472441
20
2.1185795275590551
11
2.4363181889763781
21
2.1188908267716533
0
LINE
8
BLACK
6
CONTINUOUS
10
2.4363181889763781
20
2.1188908267716533
11
2.4250190944881891
21
2.1277686614173228
0
LINE
8
BLACK
6
CONTINUOUS
10
2.4250190944881891
20
2.1277686614173228
11
2.4137200393700788
21
2.1188908267716533
0
LINE
8
BLACK
6
CONTINUOUS
10
2.4137200393700788
20
2.1188908267716533
11
2.4132320078740155
21
2.1185795275590551
0
LINE
8
BLACK
6
CONTINUOUS
10
2.4132320078740155
20
2.1185795275590551
11
2.4121226377952754
21
2.118268622047244
0
LINE
8
BLACK
6
CONTINUOUS
10
2.4121226377952754
20
2.118268622047244
11
2.410978779527559
21
2.1184058661417322
0
LINE
8
BLACK
6
CONTINUOUS
10
2.410978779527559
20
2.1184058661417322
11
2.4099744488188977
21
2.1189704330708663
0
LINE
8
BLACK
6
CONTINUOUS
10
2.4099744488188977
20
2.1189704330708663
11
2.4092626377952757
21
2.1198763779527559
0
LINE
8
BLACK
6
CONTINUOUS
10
2.4092626377952757
20
2.1198763779527559
11
2.4089517322834646
21
2.120985748031496
0
LINE
8
BLACK
6
CONTINUOUS
10
2.4089517322834646
20
2.120985748031496
11
2.4090889763779528
21
2.1221296062992128
0
LINE
8
BLACK
6
CONTINUOUS
10
2.4090889763779528
20
2.1221296062992128
11
2.4096535433070865
21
2.1231339370078741
0
LINE
8
BLACK
6
CONTINUOUS
10
2.4096535433070865
20
2.1231339370078741
11
2.4100714566929131
21
2.1235344488188974
0
LINE
8
BLACK
6
CONTINUOUS
10
2.4100714566929131
20
2.1235344488188974
11
2.4202397637795277
21
2.1315238582677165
0
LINE
8
BLACK
6
CONTINUOUS
10
2.4202397637795277
20
2.1315238582677165
11
2.4100714566929131
21
2.1395132283464569
0
LINE
8
BLACK
6
CONTINUOUS
10
2.4100714566929131
20
2.1395132283464569
11
2.4096535433070865
21
2.1399137401574801
0
LINE
8
BLACK
6
CONTINUOUS
10
2.4096535433070865
20
2.1399137401574801
11
2.4090889763779528
21
2.1409180708661415
0
LINE
8
BLACK
6
CONTINUOUS
10
2.4090889763779528
20
2.1409180708661415
11
2.4089517322834646
21
2.1420619291338583
0
LINE
8
BLACK
6
CONTINUOUS
10
2.4089517322834646
20
2.1420619291338583
11
2.4092626377952757
21
2.1431712992125984
0
LINE
8
BLACK
6
CONTINUOUS
10
2.4092626377952757
20
2.1431712992125984
11
2.4099744488188977
21
2.144077244094488
0
LINE
8
BLACK
6
CONTINUOUS
10
2.4099744488188977
20
2.144077244094488
11
2.410978779527559
21
2.1446418110236221
0
LINE
8
BLACK
6
CONTINUOUS
10
2.410978779527559
20
2.1446418110236221
11
2.4121226377952754
21
2.1447790551181103
0
LINE
8
BLACK
6
CONTINUOUS
10
2.4121226377952754
20
2.1447790551181103
11
2.4132320078740155
21
2.1444681496062992
0
LINE
8
BLACK
6
CONTINUOUS
10
2.4132320078740155
20
2.1444681496062992
11
2.4137200393700788
21
2.1441568503937005
0
LINE
8
BLACK
6
CONTINUOUS
10
2.4137200393700788
20
2.1441568503937005
11
2.4250190944881891
21
2.1352790551181102
0
LINE
8
BLACK
6
CONTINUOUS
10
2.4250190944881891
20
2.1352790551181102
11
2.4363181889763781
21
2.1441568503937005
0
LINE
8
BLACK
6
CONTINUOUS
10
2.4363181889763781
20
2.1441568503937005
11
2.436806220472441
21
2.1444681496062992
0
LINE
8
BLACK
6
CONTINUOUS
10
2.436806220472441
20
2.1444681496062992
11
2.4379155905511811
21
2.1447790551181103
0
LINE
8
BLACK
6
CONTINUOUS
10
2.4379155905511811
20
2.1447790551181103
11
2.4390594488188975
21
2.1446418110236221
0
LINE
8
BLACK
6
CONTINUOUS
10
2.4397829527559054
20
2.1799107086614171
11
2.4405975984251969
21
2.1790960629921261
0
LINE
8
BLACK
6
CONTINUOUS
10
2.4405975984251969
20
2.1790960629921261
11
2.4410385039370079
21
2.1780316535433069
0
LINE
8
BLACK
6
CONTINUOUS
10
2.4410385039370079
20
2.1780316535433069
11
2.4410952362204723
21
2.177455590551181
0
LINE
8
BLACK
6
CONTINUOUS
10
2.4410952362204723
20
2.177455590551181
11
2.4410952362204723
21
2.1549584251968503
0
LINE
8
BLACK
6
CONTINUOUS
10
2.4410952362204723
20
2.1549584251968503
11
2.4410385039370079
21
2.1543823622047245
0
LINE
8
BLACK
6
CONTINUOUS
10
2.4410385039370079
20
2.1543823622047245
11
2.4405975984251969
21
2.1533179527559057
0
LINE
8
BLACK
6
CONTINUOUS
10
2.4405975984251969
20
2.1533179527559057
11
2.4397829527559054
21
2.1525033070866142
0
LINE
8
BLACK
6
CONTINUOUS
10
2.4397829527559054
20
2.1525033070866142
11
2.4387185433070866
21
2.1520624015748031
0
LINE
8
BLACK
6
CONTINUOUS
10
2.4387185433070866
20
2.1520624015748031
11
2.4375664173228344
21
2.1520624015748031
0
LINE
8
BLACK
6
CONTINUOUS
10
2.4375664173228344
20
2.1520624015748031
11
2.4365020078740156
21
2.1525033070866142
0
LINE
8
BLACK
6
CONTINUOUS
10
2.4365020078740156
20
2.1525033070866142
11
2.4356873622047241
21
2.1533179527559057
0
LINE
8
BLACK
6
CONTINUOUS
10
2.4356873622047241
20
2.1533179527559057
11
2.4352464566929135
21
2.1543823622047245
0
LINE
8
BLACK
6
CONTINUOUS
10
2.4352464566929135
20
2.1543823622047245
11
2.4351897244094487
21
2.1549584251968503
0
LINE
8
BLACK
6
CONTINUOUS
10
2.4351897244094487
20
2.1549584251968503
11
2.4351897244094487
21
2.1632542519685041
0
LINE
8
BLACK
6
CONTINUOUS
10
2.4351897244094487
20
2.1632542519685041
11
2.4077757480314959
21
2.1632542519685041
0
LINE
8
BLACK
6
CONTINUOUS
10
2.4077757480314959
20
2.1632542519685041
11
2.4102341338582676
21
2.1607958661417324
0
LINE
8
BLACK
6
CONTINUOUS
10
2.4102341338582676
20
2.1607958661417324
11
2.410419960629921
21
2.1605694881889765
0
LINE
8
BLACK
6
CONTINUOUS
10
2.410419960629921
20
2.1605694881889765
11
2.4104788976377951
21
2.1605183464566928
0
LINE
8
BLACK
6
CONTINUOUS
10
2.4104788976377951
20
2.1605183464566928
11
2.4105347637795274
21
2.1604296062992128
0
LINE
8
BLACK
6
CONTINUOUS
10
2.4105347637795274
20
2.1604296062992128
11
2.410601377952756
21
2.1603484251968506
0
LINE
8
BLACK
6
CONTINUOUS
10
2.410601377952756
20
2.1603484251968506
11
2.4106312204724407
21
2.1602762992125983
0
LINE
8
BLACK
6
CONTINUOUS
10
2.4106312204724407
20
2.1602762992125983
11
2.4107872440944882
21
2.160028464566929
0
LINE
8
BLACK
6
CONTINUOUS
10
2.4107872440944882
20
2.160028464566929
11
2.4126620078740157
21
2.1562789370078739
0
LINE
8
BLACK
6
CONTINUOUS
10
2.4126620078740157
20
2.1562789370078739
11
2.4128688976377952
21
2.155738346456693
0
LINE
8
BLACK
6
CONTINUOUS
10
2.4128688976377952
20
2.155738346456693
11
2.4129505511811025
21
2.1545891338582677
0
LINE
8
BLACK
6
CONTINUOUS
10
2.4129505511811025
20
2.1545891338582677
11
2.4125862204724409
21
2.1534961417322833
0
LINE
8
BLACK
6
CONTINUOUS
10
2.4125862204724409
20
2.1534961417322833
11
2.411831377952756
21
2.1526257874015746
0
LINE
8
BLACK
6
CONTINUOUS
10
2.411831377952756
20
2.1526257874015746
11
2.4108008661417322
21
2.1521105118110238
0
LINE
8
BLACK
6
CONTINUOUS
10
2.4108008661417322
20
2.1521105118110238
11
2.4096516535433072
21
2.1520288582677165
0
LINE
8
BLACK
6
CONTINUOUS
10
2.4096516535433072
20
2.1520288582677165
11
2.4085587007874016
21
2.1523931889763781
0
LINE
8
BLACK
6
CONTINUOUS
10
2.4085587007874016
20
2.1523931889763781
11
2.4076883070866142
21
2.1531480314960629
0
LINE
8
BLACK
6
CONTINUOUS
10
2.4076883070866142
20
2.1531480314960629
11
2.4073799606299211
21
2.1536379133858268
0
LINE
8
BLACK
6
CONTINUOUS
10
2.4073799606299211
20
2.1536379133858268
11
2.4057194881889763
21
2.1569588582677164
0
LINE
8
BLACK
6
CONTINUOUS
10
2.4057194881889763
20
2.1569588582677164
11
2.4025155118110235
21
2.1601628346456692
0
LINE
8
BLACK
6
CONTINUOUS
10
2.4025155118110235
20
2.1601628346456692
11
2.3971344881889762
21
2.1637501574803149
0
LINE
8
BLACK
6
CONTINUOUS
10
2.3971344881889762
20
2.1637501574803149
11
2.3971327952755903
21
2.1637515354330707
0
LINE
8
BLACK
6
CONTINUOUS
10
2.3971327952755903
20
2.1637515354330707
11
2.3971319291338582
21
2.1637518897637795
0
LINE
8
BLACK
6
CONTINUOUS
10
2.3971319291338582
20
2.1637518897637795
11
2.3971298818897635
21
2.1637539370078738
0
LINE
8
BLACK
6
CONTINUOUS
10
2.3971298818897635
20
2.1637539370078738
11
2.3966866535433069
21
2.1641169291338582
0
LINE
8
BLACK
6
CONTINUOUS
10
2.3966866535433069
20
2.1641169291338582
11
2.3965239763779529
21
2.1643598425196848
0
LINE
8
BLACK
6
CONTINUOUS
10
2.3965239763779529
20
2.1643598425196848
11
2.3963172834645667
21
2.164566535433071
0
LINE
8
BLACK
6
CONTINUOUS
10
2.3963172834645667
20
2.164566535433071
11
2.3962065354330706
21
2.1648338582677167
0
LINE
8
BLACK
6
CONTINUOUS
10
2.3962065354330706
20
2.1648338582677167
11
2.3960455905511808
21
2.1650742125984253
0
LINE
8
BLACK
6
CONTINUOUS
10
2.3960455905511808
20
2.1650742125984253
11
2.3959882283464564
21
2.1653608661417323
0
LINE
8
BLACK
6
CONTINUOUS
10
2.3959882283464564
20
2.1653608661417323
11
2.3958763779527557
21
2.1656309448818898
0
LINE
8
BLACK
6
CONTINUOUS
10
2.3958763779527557
20
2.1656309448818898
11
2.3958763779527557
21
2.1659202755905511
0
LINE
8
BLACK
6
CONTINUOUS
10
2.3958763779527557
20
2.1659202755905511
11
2.3958196456692913
21
2.1662038976377951
0
LINE
8
BLACK
6
CONTINUOUS
10
2.3958196456692913
20
2.1662038976377951
11
2.3958763779527557
21
2.1664907086614171
0
LINE
8
BLACK
6
CONTINUOUS
10
2.3958763779527557
20
2.1664907086614171
11
2.3958763779527557
21
2.1667830708661415
0
LINE
8
BLACK
6
CONTINUOUS
10
2.3958763779527557
20
2.1667830708661415
11
2.395987086614173
21
2.1670503543307085
0
LINE
8
BLACK
6
CONTINUOUS
10
2.395987086614173
20
2.1670503543307085
11
2.3960432283464566
21
2.1673341338582675
0
LINE
8
BLACK
6
CONTINUOUS
10
2.3960432283464566
20
2.1673341338582675
11
2.3962053937007872
21
2.1675774015748033
0
LINE
8
BLACK
6
CONTINUOUS
10
2.3962053937007872
20
2.1675774015748033
11
2.3963172834645667
21
2.1678474803149608
0
LINE
8
BLACK
6
CONTINUOUS
10
2.3963172834645667
20
2.1678474803149608
11
2.3965218110236219
21
2.1680520472440943
0
LINE
8
BLACK
6
CONTINUOUS
10
2.3965218110236219
20
2.1680520472440943
11
2.3966823228346454
21
2.1682927559055116
0
LINE
8
BLACK
6
CONTINUOUS
10
2.3966823228346454
20
2.1682927559055116
11
2.3969251968503937
21
2.1684554330708661
0
LINE
8
BLACK
6
CONTINUOUS
10
2.3969251968503937
20
2.1684554330708661
11
2.3971319291338582
21
2.1686621259842518
0
LINE
8
BLACK
6
CONTINUOUS
10
2.3971319291338582
20
2.1686621259842518
11
2.3973992125984251
21
2.1687728740157479
0
LINE
8
BLACK
6
CONTINUOUS
10
2.3973992125984251
20
2.1687728740157479
11
2.3976396062992125
21
2.1689338188976377
0
LINE
8
BLACK
6
CONTINUOUS
10
2.3976396062992125
20
2.1689338188976377
11
2.3979262204724408
21
2.1689911811023621
0
LINE
8
BLACK
6
CONTINUOUS
10
2.3979262204724408
20
2.1689911811023621
11
2.398196338582677
21
2.1691030314960629
0
LINE
8
BLACK
6
CONTINUOUS
10
2.398196338582677
20
2.1691030314960629
11
2.3987662598425197
21
2.1691591732283464
0
LINE
8
BLACK
6
CONTINUOUS
10
2.3987662598425197
20
2.1691591732283464
11
2.3987692913385827
21
2.1691597637795277
0
LINE
8
BLACK
6
CONTINUOUS
10
2.3987692913385827
20
2.1691597637795277
11
2.3987703149606299
21
2.1691595669291339
0
LINE
8
BLACK
6
CONTINUOUS
10
2.3987703149606299
20
2.1691595669291339
11
2.3987724015748033
21
2.1691597637795277
0
LINE
8
BLACK
6
CONTINUOUS
10
2.3987724015748033
20
2.1691597637795277
11
2.4351897244094487
21
2.1691597637795277
0
LINE
8
BLACK
6
CONTINUOUS
10
2.4351897244094487
20
2.1691597637795277
11
2.4351897244094487
21
2.177455590551181
0
LINE
8
BLACK
6
CONTINUOUS
10
2.4351897244094487
20
2.177455590551181
11
2.4352464566929135
21
2.1780316535433069
0
LINE
8
BLACK
6
CONTINUOUS
10
2.4352464566929135
20
2.1780316535433069
11
2.4356873622047241
21
2.1790960629921261
0
LINE
8
BLACK
6
CONTINUOUS
10
2.4356873622047241
20
2.1790960629921261
11
2.4365020078740156
21
2.1799107086614171
0
LINE
8
BLACK
6
CONTINUOUS
10
2.4365020078740156
20
2.1799107086614171
11
2.4375664173228344
21
2.1803516141732282
0
LINE
8
BLACK
6
CONTINUOUS
10
2.4375664173228344
20
2.1803516141732282
11
2.4387185433070866
21
2.1803516141732282
0
LINE
8
BLACK
6
CONTINUOUS
10
2.4387185433070866
20
2.1803516141732282
11
2.4397829527559054
21
2.1799107086614171
0
LINE
8
BLACK
6
CONTINUOUS
10
2.4312194488188976
20
2.2178469291338581
11
2.4313174409448819
21
2.217806338582677
0
LINE
8
BLACK
6
CONTINUOUS
10
2.4313174409448819
20
2.217806338582677
11
2.4314232677165353
21
2.2177988188976379
0
LINE
8
BLACK
6
CONTINUOUS
10
2.4314232677165353
20
2.2177988188976379
11
2.4319638976377953
21
2.2175919291338584
0
LINE
8
BLACK
6
CONTINUOUS
10
2.4319638976377953
20
2.2175919291338584
11
2.4357134251968504
21
2.2157171653543308
0
LINE
8
BLACK
6
CONTINUOUS
10
2.4357134251968504
20
2.2157171653543308
11
2.4359612992125985
21
2.2155611417322834
0
LINE
8
BLACK
6
CONTINUOUS
10
2.4359612992125985
20
2.2155611417322834
11
2.4360333464566928
21
2.2155312992125982
0
LINE
8
BLACK
6
CONTINUOUS
10
2.4360333464566928
20
2.2155312992125982
11
2.43611437007874
21
2.2154648031496063
0
LINE
8
BLACK
6
CONTINUOUS
10
2.43611437007874
20
2.2154648031496063
11
2.4362033070866143
21
2.2154088188976377
0
LINE
8
BLACK
6
CONTINUOUS
10
2.4362033070866143
20
2.2154088188976377
11
2.4362544488188975
21
2.2153498425196849
0
LINE
8
BLACK
6
CONTINUOUS
10
2.4362544488188975
20
2.2153498425196849
11
2.4364807874015746
21
2.215164094488189
0
LINE
8
BLACK
6
CONTINUOUS
10
2.4364807874015746
20
2.215164094488189
11
2.4383555905511809
21
2.2132893307086614
0
LINE
8
BLACK
6
CONTINUOUS
10
2.4383555905511809
20
2.2132893307086614
11
2.4385413385826773
21
2.2130629921259843
0
LINE
8
BLACK
6
CONTINUOUS
10
2.4385413385826773
20
2.2130629921259843
11
2.4386003937007872
21
2.2130117716535431
0
LINE
8
BLACK
6
CONTINUOUS
10
2.4386003937007872
20
2.2130117716535431
11
2.4386563779527557
21
2.2129228346456693
0
LINE
8
BLACK
6
CONTINUOUS
10
2.4386563779527557
20
2.2129228346456693
11
2.4387228346456693
21
2.2128418503937008
0
LINE
8
BLACK
6
CONTINUOUS
10
2.4387228346456693
20
2.2128418503937008
11
2.4387526377952757
21
2.2127699212598424
0
LINE
8
BLACK
6
CONTINUOUS
10
2.4387526377952757
20
2.2127699212598424
11
2.4389087401574803
21
2.2125218897637793
0
LINE
8
BLACK
6
CONTINUOUS
10
2.4389087401574803
20
2.2125218897637793
11
2.4407835039370078
21
2.2087723622047242
0
LINE
8
BLACK
6
CONTINUOUS
10
2.4407835039370078
20
2.2087723622047242
11
2.4409903937007873
21
2.2082317716535433
0
LINE
8
BLACK
6
CONTINUOUS
10
2.4409903937007873
20
2.2082317716535433
11
2.4409979133858268
21
2.2081259055118108
0
LINE
8
BLACK
6
CONTINUOUS
10
2.4409979133858268
20
2.2081259055118108
11
2.4410385039370079
21
2.2080279133858269
0
LINE
8
BLACK
6
CONTINUOUS
10
2.4410385039370079
20
2.2080279133858269
11
2.4410952362204723
21
2.2074518503937006
0
LINE
8
BLACK
6
CONTINUOUS
10
2.4410952362204723
20
2.2074518503937006
11
2.4410952362204723
21
2.1980780314960628
0
LINE
8
BLACK
6
CONTINUOUS
10
2.4410952362204723
20
2.1980780314960628
11
2.4410385039370079
21
2.197501968503937
0
LINE
8
BLACK
6
CONTINUOUS
10
2.4410385039370079
20
2.197501968503937
11
2.4409979133858268
21
2.1974040157480315
0
LINE
8
BLACK
6
CONTINUOUS
10
2.4409979133858268
20
2.1974040157480315
11
2.4409903937007873
21
2.1972981102362206
0
LINE
8
BLACK
6
CONTINUOUS
10
2.4409903937007873
20
2.1972981102362206
11
2.4407835039370078
21
2.1967575196850393
0
LINE
8
BLACK
6
CONTINUOUS
10
2.4407835039370078
20
2.1967575196850393
11
2.4389087401574803
21
2.1930079921259842
0
LINE
8
BLACK
6
CONTINUOUS
10
2.4389087401574803
20
2.1930079921259842
11
2.4387526377952757
21
2.1927599999999998
0
LINE
8
BLACK
6
CONTINUOUS
10
2.4387526377952757
20
2.1927599999999998
11
2.4387228346456693
21
2.1926880314960631
0
LINE
8
BLACK
6
CONTINUOUS
10
2.4387228346456693
20
2.1926880314960631
11
2.4386563779527557
21
2.1926070866141734
0
LINE
8
BLACK
6
CONTINUOUS
10
2.4386563779527557
20
2.1926070866141734
11
2.4386003937007872
21
2.1925181102362203
0
LINE
8
BLACK
6
CONTINUOUS
10
2.4386003937007872
20
2.1925181102362203
11
2.4385413385826773
21
2.1924669291338583
0
LINE
8
BLACK
6
CONTINUOUS
10
2.4385413385826773
20
2.1924669291338583
11
2.4383555905511809
21
2.1922405511811025
0
LINE
8
BLACK
6
CONTINUOUS
10
2.4383555905511809
20
2.1922405511811025
11
2.4364807874015746
21
2.1903657874015749
0
LINE
8
BLACK
6
CONTINUOUS
10
2.4364807874015746
20
2.1903657874015749
11
2.4360333464566928
21
2.1899985826771653
0
LINE
8
BLACK
6
CONTINUOUS
10
2.4360333464566928
20
2.1899985826771653
11
2.434968937007874
21
2.189557716535433
0
LINE
8
BLACK
6
CONTINUOUS
10
2.434968937007874
20
2.189557716535433
11
2.4338168503937005
21
2.189557716535433
0
LINE
8
BLACK
6
CONTINUOUS
10
2.4338168503937005
20
2.189557716535433
11
2.4327524409448817
21
2.189998622047244
0
LINE
8
BLACK
6
CONTINUOUS
10
2.4327524409448817
20
2.189998622047244
11
2.431937755905512
21
2.1908133070866143
0
LINE
8
BLACK
6
CONTINUOUS
10
2.431937755905512
20
2.1908133070866143
11
2.4314968897637796
21
2.1918777165354331
0
LINE
8
BLACK
6
CONTINUOUS
10
2.4314968897637796
20
2.1918777165354331
11
2.4314968897637796
21
2.193029803149606
0
LINE
8
BLACK
6
CONTINUOUS
10
2.4314968897637796
20
2.193029803149606
11
2.4319377952755903
21
2.1940942125984253
0
LINE
8
BLACK
6
CONTINUOUS
10
2.4319377952755903
20
2.1940942125984253
11
2.4323050393700787
21
2.1945416929133859
0
LINE
8
BLACK
6
CONTINUOUS
10
2.4323050393700787
20
2.1945416929133859
11
2.4338409842519684
21
2.1960776377952755
0
LINE
8
BLACK
6
CONTINUOUS
10
2.4338409842519684
20
2.1960776377952755
11
2.4351897244094487
21
2.1987750787401574
0
LINE
8
BLACK
6
CONTINUOUS
10
2.4351897244094487
20
2.1987750787401574
11
2.4351897244094487
21
2.206754803149606
0
LINE
8
BLACK
6
CONTINUOUS
10
2.4351897244094487
20
2.206754803149606
11
2.4338409842519684
21
2.2094522834645667
0
LINE
8
BLACK
6
CONTINUOUS
10
2.4338409842519684
20
2.2094522834645667
11
2.4326438188976378
21
2.2106494094488189
0
LINE
8
BLACK
6
CONTINUOUS
10
2.4326438188976378
20
2.2106494094488189
11
2.4299463385826772
21
2.2119981496062993
0
LINE
8
BLACK
6
CONTINUOUS
10
2.4299463385826772
20
2.2119981496062993
11
2.4219666141732281
21
2.2119981496062993
0
LINE
8
BLACK
6
CONTINUOUS
10
2.4219666141732281
20
2.2119981496062993
11
2.4192691338582675
21
2.2106494094488189
0
LINE
8
BLACK
6
CONTINUOUS
10
2.4192691338582675
20
2.2106494094488189
11
2.4180720078740157
21
2.2094522834645667
0
LINE
8
BLACK
6
CONTINUOUS
10
2.4180720078740157
20
2.2094522834645667
11
2.4167232677165353
21
2.206754803149606
0
LINE
8
BLACK
6
CONTINUOUS
10
2.4167232677165353
20
2.206754803149606
11
2.4167232677165353
21
2.1987750787401574
0
LINE
8
BLACK
6
CONTINUOUS
10
2.4167232677165353
20
2.1987750787401574
11
2.4180720078740157
21
2.1960775984251968
0
LINE
8
BLACK
6
CONTINUOUS
10
2.4180720078740157
20
2.1960775984251968
11
2.4196079527559053
21
2.1945416535433071
0
LINE
8
BLACK
6
CONTINUOUS
10
2.4196079527559053
20
2.1945416535433071
11
2.419975157480315
21
2.1940942125984253
0
LINE
8
BLACK
6
CONTINUOUS
10
2.419975157480315
20
2.1940942125984253
11
2.4200320472440944
21
2.1939568897637796
0
LINE
8
BLACK
6
CONTINUOUS
10
2.4200320472440944
20
2.1939568897637796
11
2.420126220472441
21
2.1938417716535432
0
LINE
8
BLACK
6
CONTINUOUS
10
2.420126220472441
20
2.1938417716535432
11
2.4202509055118111
21
2.1934285039370076
0
LINE
8
BLACK
6
CONTINUOUS
10
2.4202509055118111
20
2.1934285039370076
11
2.4204160629921261
21
2.193029803149606
0
LINE
8
BLACK
6
CONTINUOUS
10
2.4204160629921261
20
2.193029803149606
11
2.4204160629921261
21
2.1928811417322835
0
LINE
8
BLACK
6
CONTINUOUS
10
2.4204160629921261
20
2.1928811417322835
11
2.4204590157480315
21
2.1927387795275588
0
LINE
8
BLACK
6
CONTINUOUS
10
2.4204590157480315
20
2.1927387795275588
11
2.4204160629921261
21
2.1923092913385824
0
LINE
8
BLACK
6
CONTINUOUS
10
2.4204160629921261
20
2.1923092913385824
11
2.4204160629921261
21
2.1918777165354331
0
LINE
8
BLACK
6
CONTINUOUS
10
2.4204160629921261
20
2.1918777165354331
11
2.4203591338582675
21
2.1917403937007873
0
LINE
8
BLACK
6
CONTINUOUS
10
2.4203591338582675
20
2.1917403937007873
11
2.4203443700787401
21
2.1915923622047244
0
LINE
8
BLACK
6
CONTINUOUS
10
2.4203443700787401
20
2.1915923622047244
11
2.4201402362204725
21
2.1912119291338583
0
LINE
8
BLACK
6
CONTINUOUS
10
2.4201402362204725
20
2.1912119291338583
11
2.419975157480315
21
2.1908133070866143
0
LINE
8
BLACK
6
CONTINUOUS
10
2.419975157480315
20
2.1908133070866143
11
2.41987
21
2.190708188976378
0
LINE
8
BLACK
6
CONTINUOUS
10
2.41987
20
2.190708188976378
11
2.4197997244094487
21
2.1905771259842521
0
LINE
8
BLACK
6
CONTINUOUS
10
2.4197997244094487
20
2.1905771259842521
11
2.4194655118110235
21
2.1903037007874016
0
LINE
8
BLACK
6
CONTINUOUS
10
2.4194655118110235
20
2.1903037007874016
11
2.4191604724409448
21
2.189998622047244
0
LINE
8
BLACK
6
CONTINUOUS
10
2.4191604724409448
20
2.189998622047244
11
2.4190231889763778
21
2.1899417716535434
0
LINE
8
BLACK
6
CONTINUOUS
10
2.4190231889763778
20
2.1899417716535434
11
2.4189080708661415
21
2.1898475590551181
0
LINE
8
BLACK
6
CONTINUOUS
10
2.4189080708661415
20
2.1898475590551181
11
2.4184946456692913
21
2.1897228346456692
0
LINE
8
BLACK
6
CONTINUOUS
10
2.4184946456692913
20
2.1897228346456692
11
2.418096062992126
21
2.189557716535433
0
LINE
8
BLACK
6
CONTINUOUS
10
2.418096062992126
20
2.189557716535433
11
2.4179474409448818
21
2.189557716535433
0
LINE
8
BLACK
6
CONTINUOUS
10
2.4179474409448818
20
2.189557716535433
11
2.4178050787401575
21
2.1895147637795276
0
LINE
8
BLACK
6
CONTINUOUS
10
2.4178050787401575
20
2.1895147637795276
11
2.4172262204724411
21
2.1895156299212597
0
LINE
8
BLACK
6
CONTINUOUS
10
2.4172262204724411
20
2.1895156299212597
11
2.3984785826771655
21
2.1913903937007873
0
LINE
8
BLACK
6
CONTINUOUS
10
2.3984785826771655
20
2.1913903937007873
11
2.398268661417323
21
2.1914324803149605
0
LINE
8
BLACK
6
CONTINUOUS
10
2.398268661417323
20
2.1914324803149605
11
2.398196338582677
21
2.1914324803149605
0
LINE
8
BLACK
6
CONTINUOUS
10
2.398196338582677
20
2.1914324803149605
11
2.3981285039370079
21
2.191460590551181
0
LINE
8
BLACK
6
CONTINUOUS
10
2.3981285039370079
20
2.191460590551181
11
2.3979110236220471
21
2.1915041732283465
0
LINE
8
BLACK
6
CONTINUOUS
10
2.3979110236220471
20
2.1915041732283465
11
2.3975307086614173
21
2.1917082283464566
0
LINE
8
BLACK
6
CONTINUOUS
10
2.3975307086614173
20
2.1917082283464566
11
2.3971319291338582
21
2.1918733858267716
0
LINE
8
BLACK
6
CONTINUOUS
10
2.3971319291338582
20
2.1918733858267716
11
2.3970267322834644
21
2.1919785826771654
0
LINE
8
BLACK
6
CONTINUOUS
10
2.3970267322834644
20
2.1919785826771654
11
2.3968957874015748
21
2.1920488188976379
0
LINE
8
BLACK
6
CONTINUOUS
10
2.3968957874015748
20
2.1920488188976379
11
2.3966225196850393
21
2.1923827952755905
0
LINE
8
BLACK
6
CONTINUOUS
10
2.3966225196850393
20
2.1923827952755905
11
2.3963172834645667
21
2.1926880314960631
0
LINE
8
BLACK
6
CONTINUOUS
10
2.3963172834645667
20
2.1926880314960631
11
2.3962603543307086
21
2.1928253937007876
0
LINE
8
BLACK
6
CONTINUOUS
10
2.3962603543307086
20
2.1928253937007876
11
2.3961662204724408
21
2.1929404724409447
0
LINE
8
BLACK
6
CONTINUOUS
10
2.3961662204724408
20
2.1929404724409447
11
2.3960414960629919
21
2.1933537795275591
0
LINE
8
BLACK
6
CONTINUOUS
10
2.3960414960629919
20
2.1933537795275591
11
2.3958763779527557
21
2.1937524409448819
0
LINE
8
BLACK
6
CONTINUOUS
10
2.3958763779527557
20
2.1937524409448819
11
2.3958546062992125
21
2.1939731496062991
0
LINE
8
BLACK
6
CONTINUOUS
10
2.3958546062992125
20
2.1939731496062991
11
2.3958334251968503
21
2.1940434645669291
0
LINE
8
BLACK
6
CONTINUOUS
10
2.3958334251968503
20
2.1940434645669291
11
2.395840590551181
21
2.1941154724409446
0
LINE
8
BLACK
6
CONTINUOUS
10
2.395840590551181
20
2.1941154724409446
11
2.3958196456692913
21
2.1943285039370077
0
LINE
8
BLACK
6
CONTINUOUS
10
2.3958196456692913
20
2.1943285039370077
11
2.3958196456692913
21
2.2130761417322833
0
LINE
8
BLACK
6
CONTINUOUS
10
2.3958196456692913
20
2.2130761417322833
11
2.3958763779527557
21
2.2136522047244096
0
LINE
8
BLACK
6
CONTINUOUS
10
2.3958763779527557
20
2.2136522047244096
11
2.3963172834645667
21
2.2147166141732284
0
LINE
8
BLACK
6
CONTINUOUS
10
2.3963172834645667
20
2.2147166141732284
11
2.3971319291338582
21
2.2155312598425194
0
LINE
8
BLACK
6
CONTINUOUS
10
2.3971319291338582
20
2.2155312598425194
11
2.398196338582677
21
2.2159721653543305
0
LINE
8
BLACK
6
CONTINUOUS
10
2.398196338582677
20
2.2159721653543305
11
2.3993484645669292
21
2.2159721653543305
0
LINE
8
BLACK
6
CONTINUOUS
10
2.3993484645669292
20
2.2159721653543305
11
2.400412874015748
21
2.2155312598425194
0
LINE
8
BLACK
6
CONTINUOUS
10
2.400412874015748
20
2.2155312598425194
11
2.4012275196850394
21
2.2147166141732284
0
LINE
8
BLACK
6
CONTINUOUS
10
2.4012275196850394
20
2.2147166141732284
11
2.4016684251968505
21
2.2136522047244096
0
LINE
8
BLACK
6
CONTINUOUS
10
2.4016684251968505
20
2.2136522047244096
11
2.4017251574803149
21
2.2130761417322833
0
LINE
8
BLACK
6
CONTINUOUS
10
2.4017251574803149
20
2.2130761417322833
11
2.4017251574803149
21
2.1970007480314959
0
LINE
8
BLACK
6
CONTINUOUS
10
2.4017251574803149
20
2.1970007480314959
11
2.4114964173228346
21
2.1960236220472442
0
LINE
8
BLACK
6
CONTINUOUS
10
2.4114964173228346
20
2.1960236220472442
11
2.4111294881889762
21
2.1967575196850393
0
LINE
8
BLACK
6
CONTINUOUS
10
2.4111294881889762
20
2.1967575196850393
11
2.4109225984251967
21
2.1972981496062993
0
LINE
8
BLACK
6
CONTINUOUS
10
2.4109225984251967
20
2.1972981496062993
11
2.4109150787401576
21
2.1974039763779527
0
LINE
8
BLACK
6
CONTINUOUS
10
2.4109150787401576
20
2.1974039763779527
11
2.4108744881889765
21
2.197501968503937
0
LINE
8
BLACK
6
CONTINUOUS
10
2.4108744881889765
20
2.197501968503937
11
2.4108177559055117
21
2.1980780314960628
0
LINE
8
BLACK
6
CONTINUOUS
10
2.4108177559055117
20
2.1980780314960628
11
2.4108177559055117
21
2.2074518503937006
0
LINE
8
BLACK
6
CONTINUOUS
10
2.4108177559055117
20
2.2074518503937006
11
2.4108744881889765
21
2.2080279133858269
0
LINE
8
BLACK
6
CONTINUOUS
10
2.4108744881889765
20
2.2080279133858269
11
2.4109150787401576
21
2.2081259448818895
0
LINE
8
BLACK
6
CONTINUOUS
10
2.4109150787401576
20
2.2081259448818895
11
2.4109225984251967
21
2.2082317322834646
0
LINE
8
BLACK
6
CONTINUOUS
10
2.4109225984251967
20
2.2082317322834646
11
2.4111294881889762
21
2.2087723622047242
0
LINE
8
BLACK
6
CONTINUOUS
10
2.4111294881889762
20
2.2087723622047242
11
2.4130042519685038
21
2.2125218897637793
0
LINE
8
BLACK
6
CONTINUOUS
10
2.4130042519685038
20
2.2125218897637793
11
2.41316031496063
21
2.2127699212598424
0
LINE
8
BLACK
6
CONTINUOUS
10
2.41316031496063
20
2.2127699212598424
11
2.4131901574803147
21
2.2128418503937008
0
LINE
8
BLACK
6
CONTINUOUS
10
2.4131901574803147
20
2.2128418503937008
11
2.4132566141732283
21
2.2129228346456693
0
LINE
8
BLACK
6
CONTINUOUS
10
2.4132566141732283
20
2.2129228346456693
11
2.4133125984251969
21
2.2130117716535431
0
LINE
8
BLACK
6
CONTINUOUS
10
2.4133125984251969
20
2.2130117716535431
11
2.4133715748031497
21
2.2130629527559056
0
LINE
8
BLACK
6
CONTINUOUS
10
2.4133715748031497
20
2.2130629527559056
11
2.4135573622047244
21
2.2132892913385827
0
LINE
8
BLACK
6
CONTINUOUS
10
2.4135573622047244
20
2.2132892913385827
11
2.4154321259842519
21
2.2151640551181102
0
LINE
8
BLACK
6
CONTINUOUS
10
2.4154321259842519
20
2.2151640551181102
11
2.415658464566929
21
2.2153498425196849
0
LINE
8
BLACK
6
CONTINUOUS
10
2.415658464566929
20
2.2153498425196849
11
2.4157096456692915
21
2.2154088188976377
0
LINE
8
BLACK
6
CONTINUOUS
10
2.4157096456692915
20
2.2154088188976377
11
2.4157985826771653
21
2.2154648031496063
0
LINE
8
BLACK
6
CONTINUOUS
10
2.4157985826771653
20
2.2154648031496063
11
2.4158795669291337
21
2.2155312598425194
0
LINE
8
BLACK
6
CONTINUOUS
10
2.4158795669291337
20
2.2155312598425194
11
2.4159514960629922
21
2.2155611023622046
0
LINE
8
BLACK
6
CONTINUOUS
10
2.4159514960629922
20
2.2155611023622046
11
2.4161995275590549
21
2.2157171653543308
0
LINE
8
BLACK
6
CONTINUOUS
10
2.4161995275590549
20
2.2157171653543308
11
2.41994905511811
21
2.2175919291338584
0
LINE
8
BLACK
6
CONTINUOUS
10
2.41994905511811
20
2.2175919291338584
11
2.4204896456692913
21
2.2177988188976379
0
LINE
8
BLACK
6
CONTINUOUS
10
2.4204896456692913
20
2.2177988188976379
11
2.4205955118110234
21
2.2178063779527557
0
LINE
8
BLACK
6
CONTINUOUS
10
2.4205955118110234
20
2.2178063779527557
11
2.4206935039370077
21
2.2178469291338581
0
LINE
8
BLACK
6
CONTINUOUS
10
2.4206935039370077
20
2.2178469291338581
11
2.421269566929134
21
2.2179036614173229
0
LINE
8
BLACK
6
CONTINUOUS
10
2.421269566929134
20
2.2179036614173229
11
2.4306433858267718
21
2.2179036614173229
0
LINE
8
BLACK
6
CONTINUOUS
10
2.4306433858267718
20
2.2179036614173229
11
2.4312194488188976
21
2.2178469291338581
0
CIRCLE
8
BLACK
10
2.7999999999999998
20
2.
40
0.0068897637795276
0
CIRCLE
8
BLACK
10
0.4
20
0.4
40
0.0068897637795276
0
CIRCLE
8
BLACK
10
2.7999999999999998
20
0.4
40
0.0068897637795276
0
CIRCLE
8
BLACK
10
0.4
20
2.
40
0.0068897637795276
0
CIRCLE
8
BLACK
10
0.9111811023622047
20
2.0727874015748031
40
0.0068897637795276
0
CIRCLE
8
BLACK
10
0.9111811023622047
20
1.972787401574803
40
0.0068897637795276
0
CIRCLE
8
BLACK
10
1.0111811023622046
20
2.0727874015748031
40
0.0068897637795276
0
CIRCLE
8
BLACK
10
1.0111811023622046
20
1.972787401574803
40
0.0068897637795276
0
CIRCLE
8
BLACK
10
1.1111811023622047
20
2.0727874015748031
40
0.0068897637795276
0
CIRCLE
8
BLACK
10
1.1111811023622047
20
1.972787401574803
40
0.0068897637795276
0
CIRCLE
8
BLACK
10
1.2111811023622048
20
2.0727874015748031
40
0.0068897637795276
0
CIRCLE
8
BLACK
10
1.2111811023622048
20
1.972787401574803
40
0.0068897637795276
0
CIRCLE
8
BLACK
10
1.3111811023622046
20
2.0727874015748031
40
0.0068897637795276
0
CIRCLE
8
BLACK
10
1.3111811023622046
20
1.972787401574803
40
0.0068897637795276
0
CIRCLE
8
BLACK
10
1.4111811023622047
20
2.0727874015748031
40
0.0068897637795276
0
CIRCLE
8
BLACK
10
1.4111811023622047
20
1.972787401574803
40
0.0068897637795276
0
CIRCLE
8
BLACK
10
1.5111811023622046
20
2.0727874015748031
40
0.0068897637795276
0
CIRCLE
8
BLACK
10
1.5111811023622046
20
1.972787401574803
40
0.0068897637795276
0
CIRCLE
8
BLACK
10
1.6111811023622047
20
2.0727874015748031
40
0.0068897637795276
0
CIRCLE
8
BLACK
10
1.6111811023622047
20
1.972787401574803
40
0.0068897637795276
0
CIRCLE
8
BLACK
10
1.7111811023622048
20
2.0727874015748031
40
0.0068897637795276
0
CIRCLE
8
BLACK
10
1.7111811023622048
20
1.972787401574803
40
0.0068897637795276
0
CIRCLE
8
BLACK
10
1.8111811023622046
20
2.0727874015748031
40
0.0068897637795276
0
CIRCLE
8
BLACK
10
1.8111811023622046
20
1.972787401574803
40
0.0068897637795276
0
CIRCLE
8
BLACK
10
1.9111811023622047
20
2.0727874015748031
40
0.0068897637795276
0
CIRCLE
8
BLACK
10
1.9111811023622047
20
1.972787401574803
40
0.0068897637795276
0
CIRCLE
8
BLACK
10
2.0111811023622046
20
2.0727874015748031
40
0.0068897637795276
0
CIRCLE
8
BLACK
10
2.0111811023622046
20
1.972787401574803
40
0.0068897637795276
0
CIRCLE
8
BLACK
10
2.1111811023622047
20
2.0727874015748031
40
0.0068897637795276
0
CIRCLE
8
BLACK
10
2.1111811023622047
20
1.972787401574803
40
0.0068897637795276
0
CIRCLE
8
BLACK
10
2.2111811023622048
20
2.0727874015748031
40
0.0068897637795276
0
CIRCLE
8
BLACK
10
2.2111811023622048
20
1.972787401574803
40
0.0068897637795276
0
CIRCLE
8
BLACK
10
2.3111811023622049
20
2.0727874015748031
40
0.0068897637795276
0
CIRCLE
8
BLACK
10
2.3111811023622049
20
1.972787401574803
40
0.0068897637795276
0
CIRCLE
8
BLACK
10
2.7999999999999998
20
2.
40
0.0068897637795276
0
CIRCLE
8
BLACK
10
0.4
20
0.4
40
0.0068897637795276
0
CIRCLE
8
BLACK
10
2.7999999999999998
20
0.4
40
0.0068897637795276
0
CIRCLE
8
BLACK
10
0.4
20
2.
40
0.0068897637795276
0
CIRCLE
8
BLACK
10
0.9111811023622047
20
2.0727874015748031
40
0.0068897637795276
0
CIRCLE
8
BLACK
10
0.9111811023622047
20
1.972787401574803
40
0.0068897637795276
0
CIRCLE
8
BLACK
10
1.0111811023622046
20
2.0727874015748031
40
0.0068897637795276
0
CIRCLE
8
BLACK
10
1.0111811023622046
20
1.972787401574803
40
0.0068897637795276
0
CIRCLE
8
BLACK
10
1.1111811023622047
20
2.0727874015748031
40
0.0068897637795276
0
CIRCLE
8
BLACK
10
1.1111811023622047
20
1.972787401574803
40
0.0068897637795276
0
CIRCLE
8
BLACK
10
1.2111811023622048
20
2.0727874015748031
40
0.0068897637795276
0
CIRCLE
8
BLACK
10
1.2111811023622048
20
1.972787401574803
40
0.0068897637795276
0
CIRCLE
8
BLACK
10
1.3111811023622046
20
2.0727874015748031
40
0.0068897637795276
0
CIRCLE
8
BLACK
10
1.3111811023622046
20
1.972787401574803
40
0.0068897637795276
0
CIRCLE
8
BLACK
10
1.4111811023622047
20
2.0727874015748031
40
0.0068897637795276
0
CIRCLE
8
BLACK
10
1.4111811023622047
20
1.972787401574803
40
0.0068897637795276
0
CIRCLE
8
BLACK
10
1.5111811023622046
20
2.0727874015748031
40
0.0068897637795276
0
CIRCLE
8
BLACK
10
1.5111811023622046
20
1.972787401574803
40
0.0068897637795276
0
CIRCLE
8
BLACK
10
1.6111811023622047
20
2.0727874015748031
40
0.0068897637795276
0
CIRCLE
8
BLACK
10
1.6111811023622047
20
1.972787401574803
40
0.0068897637795276
0
CIRCLE
8
BLACK
10
1.7111811023622048
20
2.0727874015748031
40
0.0068897637795276
0
CIRCLE
8
BLACK
10
1.7111811023622048
20
1.972787401574803
40
0.0068897637795276
0
CIRCLE
8
BLACK
10
1.8111811023622046
20
2.0727874015748031
40
0.0068897637795276
0
CIRCLE
8
BLACK
10
1.8111811023622046
20
1.972787401574803
40
0.0068897637795276
0
CIRCLE
8
BLACK
10
1.9111811023622047
20
2.0727874015748031
40
0.0068897637795276
0
CIRCLE
8
BLACK
10
1.9111811023622047
20
1.972787401574803
40
0.0068897637795276
0
CIRCLE
8
BLACK
10
2.0111811023622046
20
2.0727874015748031
40
0.0068897637795276
0
CIRCLE
8
BLACK
10
2.0111811023622046
20
1.972787401574803
40
0.0068897637795276
0
CIRCLE
8
BLACK
10
2.1111811023622047
20
2.0727874015748031
40
0.0068897637795276
0
CIRCLE
8
BLACK
10
2.1111811023622047
20
1.972787401574803
40
0.0068897637795276
0
CIRCLE
8
BLACK
10
2.2111811023622048
20
2.0727874015748031
40
0.0068897637795276
0
CIRCLE
8
BLACK
10
2.2111811023622048
20
1.972787401574803
40
0.0068897637795276
0
CIRCLE
8
BLACK
10
2.3111811023622049
20
2.0727874015748031
40
0.0068897637795276
0
CIRCLE
8
BLACK
10
2.3111811023622049
20
1.972787401574803
40
0.0068897637795276
  0
ENDSEC
  0
EOF
