  0
SECTION
  2
HEADER
  9
$ANGBASE
  50
0.0
  9
$ANGDIR
  70
1
  9
$MEASUREMENT
  70
0
  0
ENDSEC
  0
SECTION
  2
TABLES
  0
TABLE
  2
LTYPE
  70
4
  0
LTYPE
  5
40F
  2
CONTINUOUS
  70
0
  3
Solid line
  72
65
  73
0
  40
0.0
  0
LTYPE
  5
410
  2
DASHDOT
 70
0
  3
Dash Dot ____ _ ____ _
 72
65
 73
4
 40
2.0
 49
1.25
 49
-0.25
 49
0.25
 49
-0.25
  0
LTYPE
  5
411
  2
DASHED
 70
0
  3
Dashed __ __ __ __ __
 72
65
 73
2
 40
0.75
 49
0.5
 49
-0.25
  0
LTYPE
  5
43B
  2
DOTTED
 70
0
  3
Dotted .  .  .  .
 72
65
 73
2
 40
0.2
 49
0.0
 49
-0.2
  0
ENDTAB
  0
TABLE
  2
STYLE
  70
4
  0
STYLE
  2
KICAD
  70
0
  40
0
  41
1
  42
1
  50
0
  71
0
  3
isocp.shx
  0
STYLE
  2
KICADB
  70
0
  40
0
  41
1
  42
1
  50
0
  71
0
  3
isocp.shx
  0
STYLE
  2
KICADI
  70
0
  40
0
  41
1
  42
1
  50
15
  71
0
  3
isocp.shx
  0
STYLE
  2
KICADBI
  70
0
  40
0
  41
1
  42
1
  50
15
  71
0
  3
isocp.shx
  0
ENDTAB
  0
TABLE
  2
LAYER
  70
1
  0
LAYER
  2
BLACK
  70
0
  62
7
  6
CONTINUOUS
  0
ENDTAB
  0
ENDSEC
  0
SECTION
  2
ENTITIES
0
LINE
8
BLACK
6
CONTINUOUS
10
0.1307182283464567
20
-0.2751900787401575
11
0.1382094881889764
21
-0.2776241732283464
0
LINE
8
BLACK
6
CONTINUOUS
10
0.1382094881889764
20
-0.2776241732283464
11
0.1452277952755905
21
-0.281200157480315
0
LINE
8
BLACK
6
CONTINUOUS
10
0.1452277952755905
20
-0.281200157480315
11
0.1516002362204724
21
-0.28583
0
LINE
8
BLACK
6
CONTINUOUS
10
0.1516002362204724
20
-0.28583
11
0.15717
21
-0.2913997637795275
0
LINE
8
BLACK
6
CONTINUOUS
10
0.15717
20
-0.2913997637795275
11
0.161799842519685
21
-0.2977722047244095
0
LINE
8
BLACK
6
CONTINUOUS
10
0.161799842519685
20
-0.2977722047244095
11
0.1653758267716536
21
-0.3047905118110236
0
LINE
8
BLACK
6
CONTINUOUS
10
0.1653758267716536
20
-0.3047905118110236
11
0.1678099212598425
21
-0.3122817716535433
0
LINE
8
BLACK
6
CONTINUOUS
10
0.1678099212598425
20
-0.3122817716535433
11
0.169042125984252
21
-0.3200616141732283
0
LINE
8
BLACK
6
CONTINUOUS
10
0.169042125984252
20
-0.3200616141732283
11
0.169042125984252
21
-0.3279383858267717
0
LINE
8
BLACK
6
CONTINUOUS
10
0.169042125984252
20
-0.3279383858267717
11
0.1678099212598425
21
-0.3357182283464567
0
LINE
8
BLACK
6
CONTINUOUS
10
0.1678099212598425
20
-0.3357182283464567
11
0.1653758267716536
21
-0.3432094881889764
0
LINE
8
BLACK
6
CONTINUOUS
10
0.1653758267716536
20
-0.3432094881889764
11
0.161799842519685
21
-0.3502277952755906
0
LINE
8
BLACK
6
CONTINUOUS
10
0.161799842519685
20
-0.3502277952755906
11
0.15717
21
-0.3566002362204724
0
LINE
8
BLACK
6
CONTINUOUS
10
0.15717
20
-0.3566002362204724
11
0.1516002362204724
21
-0.36217
0
LINE
8
BLACK
6
CONTINUOUS
10
0.1516002362204724
20
-0.36217
11
0.1452277952755905
21
-0.366799842519685
0
LINE
8
BLACK
6
CONTINUOUS
10
0.1452277952755905
20
-0.366799842519685
11
0.1382094881889764
21
-0.3703758267716535
0
LINE
8
BLACK
6
CONTINUOUS
10
0.1382094881889764
20
-0.3703758267716535
11
0.1307182283464567
21
-0.3728099212598425
0
LINE
8
BLACK
6
CONTINUOUS
10
0.1307182283464567
20
-0.3728099212598425
11
0.1229383858267716
21
-0.374042125984252
0
LINE
8
BLACK
6
CONTINUOUS
10
0.1229383858267716
20
-0.374042125984252
11
0.1150616141732283
21
-0.374042125984252
0
LINE
8
BLACK
6
CONTINUOUS
10
0.1150616141732283
20
-0.374042125984252
11
0.1072817716535433
21
-0.3728099212598425
0
LINE
8
BLACK
6
CONTINUOUS
10
0.1072817716535433
20
-0.3728099212598425
11
0.0997905118110236
21
-0.3703758267716535
0
LINE
8
BLACK
6
CONTINUOUS
10
0.0997905118110236
20
-0.3703758267716535
11
0.0927722047244094
21
-0.366799842519685
0
LINE
8
BLACK
6
CONTINUOUS
10
0.0927722047244094
20
-0.366799842519685
11
0.0863997637795276
21
-0.36217
0
LINE
8
BLACK
6
CONTINUOUS
10
0.0863997637795276
20
-0.36217
11
0.08083
21
-0.3566002362204724
0
LINE
8
BLACK
6
CONTINUOUS
10
0.08083
20
-0.3566002362204724
11
0.076200157480315
21
-0.3502277952755906
0
LINE
8
BLACK
6
CONTINUOUS
10
0.076200157480315
20
-0.3502277952755906
11
0.0726241732283465
21
-0.3432094881889764
0
LINE
8
BLACK
6
CONTINUOUS
10
0.0726241732283465
20
-0.3432094881889764
11
0.0701900787401575
21
-0.3357182283464567
0
LINE
8
BLACK
6
CONTINUOUS
10
0.0701900787401575
20
-0.3357182283464567
11
0.068957874015748
21
-0.3279383858267717
0
LINE
8
BLACK
6
CONTINUOUS
10
0.068957874015748
20
-0.3279383858267717
11
0.068957874015748
21
-0.3202043307086614
0
LINE
8
BLACK
6
CONTINUOUS
10
0.068957874015748
20
-0.3202043307086614
11
0.068957874015748
21
-0.3200616141732283
0
LINE
8
BLACK
6
CONTINUOUS
10
0.068957874015748
20
-0.3200616141732283
11
0.0701900787401575
21
-0.3122817716535433
0
LINE
8
BLACK
6
CONTINUOUS
10
0.0701900787401575
20
-0.3122817716535433
11
0.0726241732283465
21
-0.3047905118110236
0
LINE
8
BLACK
6
CONTINUOUS
10
0.0726241732283465
20
-0.3047905118110236
11
0.076200157480315
21
-0.2977722047244095
0
LINE
8
BLACK
6
CONTINUOUS
10
0.076200157480315
20
-0.2977722047244095
11
0.08083
21
-0.2913997637795275
0
LINE
8
BLACK
6
CONTINUOUS
10
0.08083
20
-0.2913997637795275
11
0.0863997637795276
21
-0.28583
0
LINE
8
BLACK
6
CONTINUOUS
10
0.0863997637795276
20
-0.28583
11
0.0927722047244094
21
-0.281200157480315
0
LINE
8
BLACK
6
CONTINUOUS
10
0.0927722047244094
20
-0.281200157480315
11
0.0997905118110236
21
-0.2776241732283464
0
LINE
8
BLACK
6
CONTINUOUS
10
0.0997905118110236
20
-0.2776241732283464
11
0.1072817716535433
21
-0.2751900787401575
0
LINE
8
BLACK
6
CONTINUOUS
10
0.1072817716535433
20
-0.2751900787401575
11
0.1150616141732283
21
-0.273957874015748
0
LINE
8
BLACK
6
CONTINUOUS
10
0.1150616141732283
20
-0.273957874015748
11
0.1229383858267716
21
-0.273957874015748
0
LINE
8
BLACK
6
CONTINUOUS
10
0.1229383858267716
20
-0.273957874015748
11
0.1307182283464567
21
-0.2751900787401575
0
LINE
8
BLACK
6
CONTINUOUS
10
0.0707716535433071
20
-0.3277956692913386
11
0.0719592125984252
21
-0.3352935039370079
0
LINE
8
BLACK
6
CONTINUOUS
10
0.0719592125984252
20
-0.3352935039370079
11
0.0743050393700787
21
-0.3425132677165355
0
LINE
8
BLACK
6
CONTINUOUS
10
0.0743050393700787
20
-0.3425132677165355
11
0.0777514173228346
21
-0.3492771653543307
0
LINE
8
BLACK
6
CONTINUOUS
10
0.0777514173228346
20
-0.3492771653543307
11
0.0822134645669291
21
-0.3554186614173228
0
LINE
8
BLACK
6
CONTINUOUS
10
0.0822134645669291
20
-0.3554186614173228
11
0.0875813385826772
21
-0.3607865354330709
0
LINE
8
BLACK
6
CONTINUOUS
10
0.0875813385826772
20
-0.3607865354330709
11
0.0937228346456693
21
-0.3652485826771654
0
LINE
8
BLACK
6
CONTINUOUS
10
0.0937228346456693
20
-0.3652485826771654
11
0.1004867322834646
21
-0.3686949606299212
0
LINE
8
BLACK
6
CONTINUOUS
10
0.1004867322834646
20
-0.3686949606299212
11
0.1077064960629921
21
-0.3710407874015748
0
LINE
8
BLACK
6
CONTINUOUS
10
0.1077064960629921
20
-0.3710407874015748
11
0.1152043307086614
21
-0.3722283464566929
0
LINE
8
BLACK
6
CONTINUOUS
10
0.1152043307086614
20
-0.3722283464566929
11
0.1227956692913386
21
-0.3722283464566929
0
LINE
8
BLACK
6
CONTINUOUS
10
0.1227956692913386
20
-0.3722283464566929
11
0.1302935039370079
21
-0.3710407874015748
0
LINE
8
BLACK
6
CONTINUOUS
10
0.1302935039370079
20
-0.3710407874015748
11
0.1375132677165354
21
-0.3686949606299212
0
LINE
8
BLACK
6
CONTINUOUS
10
0.1375132677165354
20
-0.3686949606299212
11
0.1442771653543307
21
-0.3652485826771654
0
LINE
8
BLACK
6
CONTINUOUS
10
0.1442771653543307
20
-0.3652485826771654
11
0.1504186614173228
21
-0.3607865354330709
0
LINE
8
BLACK
6
CONTINUOUS
10
0.1504186614173228
20
-0.3607865354330709
11
0.1557865354330709
21
-0.3554186614173228
0
LINE
8
BLACK
6
CONTINUOUS
10
0.1557865354330709
20
-0.3554186614173228
11
0.1602485826771654
21
-0.3492771653543307
0
LINE
8
BLACK
6
CONTINUOUS
10
0.1602485826771654
20
-0.3492771653543307
11
0.1636949606299213
21
-0.3425132677165355
0
LINE
8
BLACK
6
CONTINUOUS
10
0.1636949606299213
20
-0.3425132677165355
11
0.1660407874015748
21
-0.3352935039370079
0
LINE
8
BLACK
6
CONTINUOUS
10
0.1660407874015748
20
-0.3352935039370079
11
0.1672283464566929
21
-0.3277956692913386
0
LINE
8
BLACK
6
CONTINUOUS
10
0.1672283464566929
20
-0.3277956692913386
11
0.1672283464566929
21
-0.3202043307086614
0
LINE
8
BLACK
6
CONTINUOUS
10
0.1672283464566929
20
-0.3202043307086614
11
0.1660407874015748
21
-0.3127064960629921
0
LINE
8
BLACK
6
CONTINUOUS
10
0.1660407874015748
20
-0.3127064960629921
11
0.1636949606299213
21
-0.3054867322834646
0
LINE
8
BLACK
6
CONTINUOUS
10
0.1636949606299213
20
-0.3054867322834646
11
0.1602485826771654
21
-0.2987228346456693
0
LINE
8
BLACK
6
CONTINUOUS
10
0.1602485826771654
20
-0.2987228346456693
11
0.1557865354330709
21
-0.2925813385826772
0
LINE
8
BLACK
6
CONTINUOUS
10
0.1557865354330709
20
-0.2925813385826772
11
0.1504186614173228
21
-0.2872134645669291
0
LINE
8
BLACK
6
CONTINUOUS
10
0.1504186614173228
20
-0.2872134645669291
11
0.1442771653543307
21
-0.2827514173228347
0
LINE
8
BLACK
6
CONTINUOUS
10
0.1442771653543307
20
-0.2827514173228347
11
0.1375132677165354
21
-0.2793050393700787
0
LINE
8
BLACK
6
CONTINUOUS
10
0.1375132677165354
20
-0.2793050393700787
11
0.1302935039370079
21
-0.2769592125984252
0
LINE
8
BLACK
6
CONTINUOUS
10
0.1302935039370079
20
-0.2769592125984252
11
0.1227956692913386
21
-0.2757716535433071
0
LINE
8
BLACK
6
CONTINUOUS
10
0.1227956692913386
20
-0.2757716535433071
11
0.1152043307086614
21
-0.2757716535433071
0
LINE
8
BLACK
6
CONTINUOUS
10
0.1152043307086614
20
-0.2757716535433071
11
0.1077064960629921
21
-0.2769592125984252
0
LINE
8
BLACK
6
CONTINUOUS
10
0.1077064960629921
20
-0.2769592125984252
11
0.1004867322834646
21
-0.2793050393700787
0
LINE
8
BLACK
6
CONTINUOUS
10
0.1004867322834646
20
-0.2793050393700787
11
0.0937228346456693
21
-0.2827514173228347
0
LINE
8
BLACK
6
CONTINUOUS
10
0.0937228346456693
20
-0.2827514173228347
11
0.0875813385826772
21
-0.2872134645669291
0
LINE
8
BLACK
6
CONTINUOUS
10
0.0875813385826772
20
-0.2872134645669291
11
0.0822134645669291
21
-0.2925813385826772
0
LINE
8
BLACK
6
CONTINUOUS
10
0.0822134645669291
20
-0.2925813385826772
11
0.0777514173228346
21
-0.2987228346456693
0
LINE
8
BLACK
6
CONTINUOUS
10
0.0777514173228346
20
-0.2987228346456693
11
0.0743050393700787
21
-0.3054867322834646
0
LINE
8
BLACK
6
CONTINUOUS
10
0.0743050393700787
20
-0.3054867322834646
11
0.0719592125984252
21
-0.3127064960629921
0
LINE
8
BLACK
6
CONTINUOUS
10
0.0719592125984252
20
-0.3127064960629921
11
0.0707716535433071
21
-0.3202043307086614
0
LINE
8
BLACK
6
CONTINUOUS
10
0.0707716535433071
20
-0.3202043307086614
11
0.0707716535433071
21
-0.3277956692913386
0
LINE
8
BLACK
6
CONTINUOUS
10
1.0057182283464567
20
0.5848099212598425
11
1.0132094881889764
21
0.5823758267716536
0
LINE
8
BLACK
6
CONTINUOUS
10
1.0132094881889764
20
0.5823758267716536
11
1.0202277952755905
21
0.5787998425196851
0
LINE
8
BLACK
6
CONTINUOUS
10
1.0202277952755905
20
0.5787998425196851
11
1.0266002362204725
21
0.57417
0
LINE
8
BLACK
6
CONTINUOUS
10
1.0266002362204725
20
0.57417
11
1.03217
21
0.5686002362204724
0
LINE
8
BLACK
6
CONTINUOUS
10
1.03217
20
0.5686002362204724
11
1.0367998425196849
21
0.5622277952755905
0
LINE
8
BLACK
6
CONTINUOUS
10
1.0367998425196849
20
0.5622277952755905
11
1.0403758267716534
21
0.5552094881889764
0
LINE
8
BLACK
6
CONTINUOUS
10
1.0403758267716534
20
0.5552094881889764
11
1.0428099212598425
21
0.5477182283464567
0
LINE
8
BLACK
6
CONTINUOUS
10
1.0428099212598425
20
0.5477182283464567
11
1.0440421259842518
21
0.5399383858267717
0
LINE
8
BLACK
6
CONTINUOUS
10
1.0440421259842518
20
0.5399383858267717
11
1.0440421259842518
21
0.5320616141732283
0
LINE
8
BLACK
6
CONTINUOUS
10
1.0440421259842518
20
0.5320616141732283
11
1.0428099212598425
21
0.5242817716535433
0
LINE
8
BLACK
6
CONTINUOUS
10
1.0428099212598425
20
0.5242817716535433
11
1.0403758267716534
21
0.5167905118110236
0
LINE
8
BLACK
6
CONTINUOUS
10
1.0403758267716534
20
0.5167905118110236
11
1.0367998425196849
21
0.5097722047244094
0
LINE
8
BLACK
6
CONTINUOUS
10
1.0367998425196849
20
0.5097722047244094
11
1.03217
21
0.5033997637795276
0
LINE
8
BLACK
6
CONTINUOUS
10
1.03217
20
0.5033997637795276
11
1.0266002362204725
21
0.49783
0
LINE
8
BLACK
6
CONTINUOUS
10
1.0266002362204725
20
0.49783
11
1.0202277952755905
21
0.4932001574803149
0
LINE
8
BLACK
6
CONTINUOUS
10
1.0202277952755905
20
0.4932001574803149
11
1.0132094881889764
21
0.4896241732283464
0
LINE
8
BLACK
6
CONTINUOUS
10
1.0132094881889764
20
0.4896241732283464
11
1.0057182283464567
21
0.4871900787401575
0
LINE
8
BLACK
6
CONTINUOUS
10
1.0057182283464567
20
0.4871900787401575
11
0.9979383858267716
21
0.485957874015748
0
LINE
8
BLACK
6
CONTINUOUS
10
0.9979383858267716
20
0.485957874015748
11
0.9900616141732284
21
0.485957874015748
0
LINE
8
BLACK
6
CONTINUOUS
10
0.9900616141732284
20
0.485957874015748
11
0.9822817716535432
21
0.4871900787401575
0
LINE
8
BLACK
6
CONTINUOUS
10
0.9822817716535432
20
0.4871900787401575
11
0.9747905118110236
21
0.4896241732283464
0
LINE
8
BLACK
6
CONTINUOUS
10
0.9747905118110236
20
0.4896241732283464
11
0.9677722047244094
21
0.4932001574803149
0
LINE
8
BLACK
6
CONTINUOUS
10
0.9677722047244094
20
0.4932001574803149
11
0.9613997637795275
21
0.49783
0
LINE
8
BLACK
6
CONTINUOUS
10
0.9613997637795275
20
0.49783
11
0.95583
21
0.5033997637795276
0
LINE
8
BLACK
6
CONTINUOUS
10
0.95583
20
0.5033997637795276
11
0.9512001574803149
21
0.5097722047244094
0
LINE
8
BLACK
6
CONTINUOUS
10
0.9512001574803149
20
0.5097722047244094
11
0.9476241732283465
21
0.5167905118110236
0
LINE
8
BLACK
6
CONTINUOUS
10
0.9476241732283465
20
0.5167905118110236
11
0.9451900787401575
21
0.5242817716535433
0
LINE
8
BLACK
6
CONTINUOUS
10
0.9451900787401575
20
0.5242817716535433
11
0.943957874015748
21
0.5320616141732283
0
LINE
8
BLACK
6
CONTINUOUS
10
0.943957874015748
20
0.5320616141732283
11
0.943957874015748
21
0.5397956692913386
0
LINE
8
BLACK
6
CONTINUOUS
10
0.943957874015748
20
0.5397956692913386
11
0.943957874015748
21
0.5399383858267717
0
LINE
8
BLACK
6
CONTINUOUS
10
0.943957874015748
20
0.5399383858267717
11
0.9451900787401575
21
0.5477182283464567
0
LINE
8
BLACK
6
CONTINUOUS
10
0.9451900787401575
20
0.5477182283464567
11
0.9476241732283465
21
0.5552094881889764
0
LINE
8
BLACK
6
CONTINUOUS
10
0.9476241732283465
20
0.5552094881889764
11
0.9512001574803149
21
0.5622277952755905
0
LINE
8
BLACK
6
CONTINUOUS
10
0.9512001574803149
20
0.5622277952755905
11
0.95583
21
0.5686002362204724
0
LINE
8
BLACK
6
CONTINUOUS
10
0.95583
20
0.5686002362204724
11
0.9613997637795275
21
0.57417
0
LINE
8
BLACK
6
CONTINUOUS
10
0.9613997637795275
20
0.57417
11
0.9677722047244094
21
0.5787998425196851
0
LINE
8
BLACK
6
CONTINUOUS
10
0.9677722047244094
20
0.5787998425196851
11
0.9747905118110236
21
0.5823758267716536
0
LINE
8
BLACK
6
CONTINUOUS
10
0.9747905118110236
20
0.5823758267716536
11
0.9822817716535432
21
0.5848099212598425
0
LINE
8
BLACK
6
CONTINUOUS
10
0.9822817716535432
20
0.5848099212598425
11
0.9900616141732284
21
0.586042125984252
0
LINE
8
BLACK
6
CONTINUOUS
10
0.9900616141732284
20
0.586042125984252
11
0.9979383858267716
21
0.586042125984252
0
LINE
8
BLACK
6
CONTINUOUS
10
0.9979383858267716
20
0.586042125984252
11
1.0057182283464567
21
0.5848099212598425
0
LINE
8
BLACK
6
CONTINUOUS
10
0.9457716535433071
20
0.5322043307086614
11
0.9469592125984252
21
0.5247064960629921
0
LINE
8
BLACK
6
CONTINUOUS
10
0.9469592125984252
20
0.5247064960629921
11
0.9493050393700787
21
0.5174867322834645
0
LINE
8
BLACK
6
CONTINUOUS
10
0.9493050393700787
20
0.5174867322834645
11
0.9527514173228346
21
0.5107228346456693
0
LINE
8
BLACK
6
CONTINUOUS
10
0.9527514173228346
20
0.5107228346456693
11
0.9572134645669291
21
0.5045813385826772
0
LINE
8
BLACK
6
CONTINUOUS
10
0.9572134645669291
20
0.5045813385826772
11
0.9625813385826771
21
0.4992134645669291
0
LINE
8
BLACK
6
CONTINUOUS
10
0.9625813385826771
20
0.4992134645669291
11
0.9687228346456692
21
0.4947514173228346
0
LINE
8
BLACK
6
CONTINUOUS
10
0.9687228346456692
20
0.4947514173228346
11
0.9754867322834645
21
0.4913050393700787
0
LINE
8
BLACK
6
CONTINUOUS
10
0.9754867322834645
20
0.4913050393700787
11
0.9827064960629921
21
0.4889592125984252
0
LINE
8
BLACK
6
CONTINUOUS
10
0.9827064960629921
20
0.4889592125984252
11
0.9902043307086614
21
0.4877716535433071
0
LINE
8
BLACK
6
CONTINUOUS
10
0.9902043307086614
20
0.4877716535433071
11
0.9977956692913386
21
0.4877716535433071
0
LINE
8
BLACK
6
CONTINUOUS
10
0.9977956692913386
20
0.4877716535433071
11
1.0052935039370079
21
0.4889592125984252
0
LINE
8
BLACK
6
CONTINUOUS
10
1.0052935039370079
20
0.4889592125984252
11
1.0125132677165354
21
0.4913050393700787
0
LINE
8
BLACK
6
CONTINUOUS
10
1.0125132677165354
20
0.4913050393700787
11
1.0192771653543307
21
0.4947514173228346
0
LINE
8
BLACK
6
CONTINUOUS
10
1.0192771653543307
20
0.4947514173228346
11
1.0254186614173229
21
0.4992134645669291
0
LINE
8
BLACK
6
CONTINUOUS
10
1.0254186614173229
20
0.4992134645669291
11
1.0307865354330707
21
0.5045813385826772
0
LINE
8
BLACK
6
CONTINUOUS
10
1.0307865354330707
20
0.5045813385826772
11
1.0352485826771654
21
0.5107228346456693
0
LINE
8
BLACK
6
CONTINUOUS
10
1.0352485826771654
20
0.5107228346456693
11
1.0386949606299212
21
0.5174867322834645
0
LINE
8
BLACK
6
CONTINUOUS
10
1.0386949606299212
20
0.5174867322834645
11
1.0410407874015748
21
0.5247064960629921
0
LINE
8
BLACK
6
CONTINUOUS
10
1.0410407874015748
20
0.5247064960629921
11
1.0422283464566928
21
0.5322043307086614
0
LINE
8
BLACK
6
CONTINUOUS
10
1.0422283464566928
20
0.5322043307086614
11
1.0422283464566928
21
0.5397956692913386
0
LINE
8
BLACK
6
CONTINUOUS
10
1.0422283464566928
20
0.5397956692913386
11
1.0410407874015748
21
0.5472935039370078
0
LINE
8
BLACK
6
CONTINUOUS
10
1.0410407874015748
20
0.5472935039370078
11
1.0386949606299212
21
0.5545132677165354
0
LINE
8
BLACK
6
CONTINUOUS
10
1.0386949606299212
20
0.5545132677165354
11
1.0352485826771654
21
0.5612771653543307
0
LINE
8
BLACK
6
CONTINUOUS
10
1.0352485826771654
20
0.5612771653543307
11
1.0307865354330707
21
0.5674186614173228
0
LINE
8
BLACK
6
CONTINUOUS
10
1.0307865354330707
20
0.5674186614173228
11
1.0254186614173229
21
0.5727865354330709
0
LINE
8
BLACK
6
CONTINUOUS
10
1.0254186614173229
20
0.5727865354330709
11
1.0192771653543307
21
0.5772485826771654
0
LINE
8
BLACK
6
CONTINUOUS
10
1.0192771653543307
20
0.5772485826771654
11
1.0125132677165354
21
0.5806949606299212
0
LINE
8
BLACK
6
CONTINUOUS
10
1.0125132677165354
20
0.5806949606299212
11
1.0052935039370079
21
0.5830407874015748
0
LINE
8
BLACK
6
CONTINUOUS
10
1.0052935039370079
20
0.5830407874015748
11
0.9977956692913386
21
0.5842283464566929
0
LINE
8
BLACK
6
CONTINUOUS
10
0.9977956692913386
20
0.5842283464566929
11
0.9902043307086614
21
0.5842283464566929
0
LINE
8
BLACK
6
CONTINUOUS
10
0.9902043307086614
20
0.5842283464566929
11
0.9827064960629921
21
0.5830407874015748
0
LINE
8
BLACK
6
CONTINUOUS
10
0.9827064960629921
20
0.5830407874015748
11
0.9754867322834645
21
0.5806949606299212
0
LINE
8
BLACK
6
CONTINUOUS
10
0.9754867322834645
20
0.5806949606299212
11
0.9687228346456692
21
0.5772485826771654
0
LINE
8
BLACK
6
CONTINUOUS
10
0.9687228346456692
20
0.5772485826771654
11
0.9625813385826771
21
0.5727865354330709
0
LINE
8
BLACK
6
CONTINUOUS
10
0.9625813385826771
20
0.5727865354330709
11
0.9572134645669291
21
0.5674186614173228
0
LINE
8
BLACK
6
CONTINUOUS
10
0.9572134645669291
20
0.5674186614173228
11
0.9527514173228346
21
0.5612771653543307
0
LINE
8
BLACK
6
CONTINUOUS
10
0.9527514173228346
20
0.5612771653543307
11
0.9493050393700787
21
0.5545132677165354
0
LINE
8
BLACK
6
CONTINUOUS
10
0.9493050393700787
20
0.5545132677165354
11
0.9469592125984252
21
0.5472935039370078
0
LINE
8
BLACK
6
CONTINUOUS
10
0.9469592125984252
20
0.5472935039370078
11
0.9457716535433071
21
0.5397956692913386
0
LINE
8
BLACK
6
CONTINUOUS
10
0.9457716535433071
20
0.5397956692913386
11
0.9457716535433071
21
0.5322043307086614
0
LINE
8
BLACK
6
CONTINUOUS
10
2.3800616929133858
20
2.1429880708661417
11
2.38059437007874
21
2.1424553937007875
0
LINE
8
BLACK
6
CONTINUOUS
10
2.38059437007874
20
2.1424553937007875
11
2.3806692913385827
21
2.1420787401574803
0
LINE
8
BLACK
6
CONTINUOUS
10
2.3806692913385827
20
2.1420787401574803
11
2.3806692913385827
21
1.9019212598425197
0
LINE
8
BLACK
6
CONTINUOUS
10
2.3806692913385827
20
1.9019212598425197
11
2.38059437007874
21
1.9015446062992125
0
LINE
8
BLACK
6
CONTINUOUS
10
2.38059437007874
20
1.9015446062992125
11
2.3800616929133858
21
1.9010119291338583
0
LINE
8
BLACK
6
CONTINUOUS
10
2.3800616929133858
20
1.9010119291338583
11
2.3796850393700786
21
1.9009370078740158
0
LINE
8
BLACK
6
CONTINUOUS
10
2.3796850393700786
20
1.9009370078740158
11
0.8403149606299213
21
1.9009370078740158
0
LINE
8
BLACK
6
CONTINUOUS
10
0.8403149606299213
20
1.9009370078740158
11
0.8399383070866141
21
1.9010119291338583
0
LINE
8
BLACK
6
CONTINUOUS
10
0.8399383070866141
20
1.9010119291338583
11
0.8394056299212598
21
1.9015446062992125
0
LINE
8
BLACK
6
CONTINUOUS
10
0.8394056299212598
20
1.9015446062992125
11
0.8393307086614173
21
1.9019212598425197
0
LINE
8
BLACK
6
CONTINUOUS
10
0.8393307086614173
20
1.9019212598425197
11
0.8393307086614173
21
2.1420787401574803
0
LINE
8
BLACK
6
CONTINUOUS
10
0.8393307086614173
20
2.1420787401574803
11
0.8394056299212598
21
2.1424553937007875
0
LINE
8
BLACK
6
CONTINUOUS
10
0.8394056299212598
20
2.1424553937007875
11
0.8399383070866141
21
2.1429880708661417
0
LINE
8
BLACK
6
CONTINUOUS
10
0.8399383070866141
20
2.1429880708661417
11
0.8403149606299213
21
2.1430629921259841
0
LINE
8
BLACK
6
CONTINUOUS
10
0.8403149606299213
20
2.1430629921259841
11
2.3796850393700786
21
2.1430629921259841
0
LINE
8
BLACK
6
CONTINUOUS
10
2.3796850393700786
20
2.1430629921259841
11
2.3800616929133858
21
2.1429880708661417
0
LINE
8
BLACK
6
CONTINUOUS
10
0.8412992125984252
20
2.1410944881889762
11
0.8412992125984252
21
1.9029055118110236
0
LINE
8
BLACK
6
CONTINUOUS
10
0.8412992125984252
20
1.9029055118110236
11
2.3787007874015749
21
1.9029055118110236
0
LINE
8
BLACK
6
CONTINUOUS
10
2.3787007874015749
20
1.9029055118110236
11
2.3787007874015749
21
2.1410944881889762
0
LINE
8
BLACK
6
CONTINUOUS
10
2.3787007874015749
20
2.1410944881889762
11
0.8412992125984252
21
2.1410944881889762
0
LINE
8
BLACK
6
CONTINUOUS
10
0.7689363779527559
20
2.714151377952756
11
0.7764276377952756
21
2.7117172834645671
0
LINE
8
BLACK
6
CONTINUOUS
10
0.7764276377952756
20
2.7117172834645671
11
0.7834459448818898
21
2.7081412992125982
0
LINE
8
BLACK
6
CONTINUOUS
10
0.7834459448818898
20
2.7081412992125982
11
0.7898183858267717
21
2.7035114566929135
0
LINE
8
BLACK
6
CONTINUOUS
10
0.7898183858267717
20
2.7035114566929135
11
0.7953881496062992
21
2.6979416929133859
0
LINE
8
BLACK
6
CONTINUOUS
10
0.7953881496062992
20
2.6979416929133859
11
0.8000179921259842
21
2.6915692519685037
0
LINE
8
BLACK
6
CONTINUOUS
10
0.8000179921259842
20
2.6915692519685037
11
0.8035939763779527
21
2.6845509448818898
0
LINE
8
BLACK
6
CONTINUOUS
10
0.8035939763779527
20
2.6845509448818898
11
0.8060280708661417
21
2.67705968503937
0
LINE
8
BLACK
6
CONTINUOUS
10
0.8060280708661417
20
2.67705968503937
11
0.8072602755905511
21
2.6692798425196851
0
LINE
8
BLACK
6
CONTINUOUS
10
0.8072602755905511
20
2.6692798425196851
11
0.8072602755905511
21
2.6614030708661418
0
LINE
8
BLACK
6
CONTINUOUS
10
0.8072602755905511
20
2.6614030708661418
11
0.8060280708661417
21
2.6536232283464565
0
LINE
8
BLACK
6
CONTINUOUS
10
0.8060280708661417
20
2.6536232283464565
11
0.8035939763779527
21
2.6461319685039371
0
LINE
8
BLACK
6
CONTINUOUS
10
0.8035939763779527
20
2.6461319685039371
11
0.8000179921259842
21
2.6391136614173227
0
LINE
8
BLACK
6
CONTINUOUS
10
0.8000179921259842
20
2.6391136614173227
11
0.7953881496062992
21
2.632741220472441
0
LINE
8
BLACK
6
CONTINUOUS
10
0.7953881496062992
20
2.632741220472441
11
0.7898183858267717
21
2.6271714566929134
0
LINE
8
BLACK
6
CONTINUOUS
10
0.7898183858267717
20
2.6271714566929134
11
0.7834459448818898
21
2.6225416141732283
0
LINE
8
BLACK
6
CONTINUOUS
10
0.7834459448818898
20
2.6225416141732283
11
0.7764276377952756
21
2.6189656299212598
0
LINE
8
BLACK
6
CONTINUOUS
10
0.7764276377952756
20
2.6189656299212598
11
0.7689363779527559
21
2.6165315354330709
0
LINE
8
BLACK
6
CONTINUOUS
10
0.7689363779527559
20
2.6165315354330709
11
0.7611565354330708
21
2.6152993307086612
0
LINE
8
BLACK
6
CONTINUOUS
10
0.7611565354330708
20
2.6152993307086612
11
0.7532797637795275
21
2.6152993307086612
0
LINE
8
BLACK
6
CONTINUOUS
10
0.7532797637795275
20
2.6152993307086612
11
0.7454999212598425
21
2.6165315354330709
0
LINE
8
BLACK
6
CONTINUOUS
10
0.7454999212598425
20
2.6165315354330709
11
0.7380086614173228
21
2.6189656299212598
0
LINE
8
BLACK
6
CONTINUOUS
10
0.7380086614173228
20
2.6189656299212598
11
0.7309903543307087
21
2.6225416141732283
0
LINE
8
BLACK
6
CONTINUOUS
10
0.7309903543307087
20
2.6225416141732283
11
0.7246179133858267
21
2.6271714566929134
0
LINE
8
BLACK
6
CONTINUOUS
10
0.7246179133858267
20
2.6271714566929134
11
0.7190481496062991
21
2.632741220472441
0
LINE
8
BLACK
6
CONTINUOUS
10
0.7190481496062991
20
2.632741220472441
11
0.7144183070866141
21
2.6391136614173227
0
LINE
8
BLACK
6
CONTINUOUS
10
0.7144183070866141
20
2.6391136614173227
11
0.7108423228346457
21
2.6461319685039371
0
LINE
8
BLACK
6
CONTINUOUS
10
0.7108423228346457
20
2.6461319685039371
11
0.7084082283464567
21
2.6536232283464565
0
LINE
8
BLACK
6
CONTINUOUS
10
0.7084082283464567
20
2.6536232283464565
11
0.7071760236220472
21
2.6614030708661418
0
LINE
8
BLACK
6
CONTINUOUS
10
0.7071760236220472
20
2.6614030708661418
11
0.7071760236220472
21
2.669137125984252
0
LINE
8
BLACK
6
CONTINUOUS
10
0.7071760236220472
20
2.669137125984252
11
0.7071760236220472
21
2.6692798425196851
0
LINE
8
BLACK
6
CONTINUOUS
10
0.7071760236220472
20
2.6692798425196851
11
0.7084082283464567
21
2.67705968503937
0
LINE
8
BLACK
6
CONTINUOUS
10
0.7084082283464567
20
2.67705968503937
11
0.7108423228346457
21
2.6845509448818898
0
LINE
8
BLACK
6
CONTINUOUS
10
0.7108423228346457
20
2.6845509448818898
11
0.7144183070866141
21
2.6915692519685037
0
LINE
8
BLACK
6
CONTINUOUS
10
0.7144183070866141
20
2.6915692519685037
11
0.7190481496062991
21
2.6979416929133859
0
LINE
8
BLACK
6
CONTINUOUS
10
0.7190481496062991
20
2.6979416929133859
11
0.7246179133858267
21
2.7035114566929135
0
LINE
8
BLACK
6
CONTINUOUS
10
0.7246179133858267
20
2.7035114566929135
11
0.7309903543307087
21
2.7081412992125982
0
LINE
8
BLACK
6
CONTINUOUS
10
0.7309903543307087
20
2.7081412992125982
11
0.7380086614173228
21
2.7117172834645671
0
LINE
8
BLACK
6
CONTINUOUS
10
0.7380086614173228
20
2.7117172834645671
11
0.7454999212598425
21
2.714151377952756
0
LINE
8
BLACK
6
CONTINUOUS
10
0.7454999212598425
20
2.714151377952756
11
0.7532797637795275
21
2.7153835826771653
0
LINE
8
BLACK
6
CONTINUOUS
10
0.7532797637795275
20
2.7153835826771653
11
0.7611565354330708
21
2.7153835826771653
0
LINE
8
BLACK
6
CONTINUOUS
10
0.7611565354330708
20
2.7153835826771653
11
0.7689363779527559
21
2.714151377952756
0
LINE
8
BLACK
6
CONTINUOUS
10
0.7089898031496062
20
2.6615457874015749
11
0.7101773622047244
21
2.6540479527559055
0
LINE
8
BLACK
6
CONTINUOUS
10
0.7101773622047244
20
2.6540479527559055
11
0.7125231889763779
21
2.6468281889763778
0
LINE
8
BLACK
6
CONTINUOUS
10
0.7125231889763779
20
2.6468281889763778
11
0.7159695669291338
21
2.6400642913385828
0
LINE
8
BLACK
6
CONTINUOUS
10
0.7159695669291338
20
2.6400642913385828
11
0.7204316141732283
21
2.6339227952755904
0
LINE
8
BLACK
6
CONTINUOUS
10
0.7204316141732283
20
2.6339227952755904
11
0.7257994881889763
21
2.6285549212598425
0
LINE
8
BLACK
6
CONTINUOUS
10
0.7257994881889763
20
2.6285549212598425
11
0.7319409842519685
21
2.6240928740157479
0
LINE
8
BLACK
6
CONTINUOUS
10
0.7319409842519685
20
2.6240928740157479
11
0.7387048818897638
21
2.6206464960629923
0
LINE
8
BLACK
6
CONTINUOUS
10
0.7387048818897638
20
2.6206464960629923
11
0.7459246456692913
21
2.6183006692913384
0
LINE
8
BLACK
6
CONTINUOUS
10
0.7459246456692913
20
2.6183006692913384
11
0.7534224803149606
21
2.6171131102362204
0
LINE
8
BLACK
6
CONTINUOUS
10
0.7534224803149606
20
2.6171131102362204
11
0.7610138188976378
21
2.6171131102362204
0
LINE
8
BLACK
6
CONTINUOUS
10
0.7610138188976378
20
2.6171131102362204
11
0.7685116535433071
21
2.6183006692913384
0
LINE
8
BLACK
6
CONTINUOUS
10
0.7685116535433071
20
2.6183006692913384
11
0.7757314173228347
21
2.6206464960629923
0
LINE
8
BLACK
6
CONTINUOUS
10
0.7757314173228347
20
2.6206464960629923
11
0.7824953149606299
21
2.6240928740157479
0
LINE
8
BLACK
6
CONTINUOUS
10
0.7824953149606299
20
2.6240928740157479
11
0.788636811023622
21
2.6285549212598425
0
LINE
8
BLACK
6
CONTINUOUS
10
0.788636811023622
20
2.6285549212598425
11
0.7940046850393701
21
2.6339227952755904
0
LINE
8
BLACK
6
CONTINUOUS
10
0.7940046850393701
20
2.6339227952755904
11
0.7984667322834645
21
2.6400642913385828
0
LINE
8
BLACK
6
CONTINUOUS
10
0.7984667322834645
20
2.6400642913385828
11
0.8019131102362205
21
2.6468281889763778
0
LINE
8
BLACK
6
CONTINUOUS
10
0.8019131102362205
20
2.6468281889763778
11
0.804258937007874
21
2.6540479527559055
0
LINE
8
BLACK
6
CONTINUOUS
10
0.804258937007874
20
2.6540479527559055
11
0.8054464960629921
21
2.6615457874015749
0
LINE
8
BLACK
6
CONTINUOUS
10
0.8054464960629921
20
2.6615457874015749
11
0.8054464960629921
21
2.669137125984252
0
LINE
8
BLACK
6
CONTINUOUS
10
0.8054464960629921
20
2.669137125984252
11
0.804258937007874
21
2.6766349606299213
0
LINE
8
BLACK
6
CONTINUOUS
10
0.804258937007874
20
2.6766349606299213
11
0.8019131102362205
21
2.6838547244094486
0
LINE
8
BLACK
6
CONTINUOUS
10
0.8019131102362205
20
2.6838547244094486
11
0.7984667322834645
21
2.6906186220472441
0
LINE
8
BLACK
6
CONTINUOUS
10
0.7984667322834645
20
2.6906186220472441
11
0.7940046850393701
21
2.6967601181102361
0
LINE
8
BLACK
6
CONTINUOUS
10
0.7940046850393701
20
2.6967601181102361
11
0.788636811023622
21
2.702127992125984
0
LINE
8
BLACK
6
CONTINUOUS
10
0.788636811023622
20
2.702127992125984
11
0.7824953149606299
21
2.7065900393700786
0
LINE
8
BLACK
6
CONTINUOUS
10
0.7824953149606299
20
2.7065900393700786
11
0.7757314173228347
21
2.7100364173228346
0
LINE
8
BLACK
6
CONTINUOUS
10
0.7757314173228347
20
2.7100364173228346
11
0.7685116535433071
21
2.712382244094488
0
LINE
8
BLACK
6
CONTINUOUS
10
0.7685116535433071
20
2.712382244094488
11
0.7610138188976378
21
2.7135698031496061
0
LINE
8
BLACK
6
CONTINUOUS
10
0.7610138188976378
20
2.7135698031496061
11
0.7534224803149606
21
2.7135698031496061
0
LINE
8
BLACK
6
CONTINUOUS
10
0.7534224803149606
20
2.7135698031496061
11
0.7459246456692913
21
2.712382244094488
0
LINE
8
BLACK
6
CONTINUOUS
10
0.7459246456692913
20
2.712382244094488
11
0.7387048818897638
21
2.7100364173228346
0
LINE
8
BLACK
6
CONTINUOUS
10
0.7387048818897638
20
2.7100364173228346
11
0.7319409842519685
21
2.7065900393700786
0
LINE
8
BLACK
6
CONTINUOUS
10
0.7319409842519685
20
2.7065900393700786
11
0.7257994881889763
21
2.702127992125984
0
LINE
8
BLACK
6
CONTINUOUS
10
0.7257994881889763
20
2.702127992125984
11
0.7204316141732283
21
2.6967601181102361
0
LINE
8
BLACK
6
CONTINUOUS
10
0.7204316141732283
20
2.6967601181102361
11
0.7159695669291338
21
2.6906186220472441
0
LINE
8
BLACK
6
CONTINUOUS
10
0.7159695669291338
20
2.6906186220472441
11
0.7125231889763779
21
2.6838547244094486
0
LINE
8
BLACK
6
CONTINUOUS
10
0.7125231889763779
20
2.6838547244094486
11
0.7101773622047244
21
2.6766349606299213
0
LINE
8
BLACK
6
CONTINUOUS
10
0.7101773622047244
20
2.6766349606299213
11
0.7089898031496062
21
2.669137125984252
0
LINE
8
BLACK
6
CONTINUOUS
10
0.7089898031496062
20
2.669137125984252
11
0.7089898031496062
21
2.6615457874015749
0
CIRCLE
8
BLACK
10
2.7999999999999998
20
2.
40
0.0068897637795276
0
CIRCLE
8
BLACK
10
0.4
20
0.4
40
0.0068897637795276
0
CIRCLE
8
BLACK
10
2.7999999999999998
20
0.4
40
0.0068897637795276
0
CIRCLE
8
BLACK
10
0.4
20
2.
40
0.0068897637795276
0
CIRCLE
8
BLACK
10
0.9111811023622047
20
2.0727874015748031
40
0.0068897637795276
0
CIRCLE
8
BLACK
10
0.9111811023622047
20
1.972787401574803
40
0.0068897637795276
0
CIRCLE
8
BLACK
10
1.0111811023622046
20
2.0727874015748031
40
0.0068897637795276
0
CIRCLE
8
BLACK
10
1.0111811023622046
20
1.972787401574803
40
0.0068897637795276
0
CIRCLE
8
BLACK
10
1.1111811023622047
20
2.0727874015748031
40
0.0068897637795276
0
CIRCLE
8
BLACK
10
1.1111811023622047
20
1.972787401574803
40
0.0068897637795276
0
CIRCLE
8
BLACK
10
1.2111811023622048
20
2.0727874015748031
40
0.0068897637795276
0
CIRCLE
8
BLACK
10
1.2111811023622048
20
1.972787401574803
40
0.0068897637795276
0
CIRCLE
8
BLACK
10
1.3111811023622046
20
2.0727874015748031
40
0.0068897637795276
0
CIRCLE
8
BLACK
10
1.3111811023622046
20
1.972787401574803
40
0.0068897637795276
0
CIRCLE
8
BLACK
10
1.4111811023622047
20
2.0727874015748031
40
0.0068897637795276
0
CIRCLE
8
BLACK
10
1.4111811023622047
20
1.972787401574803
40
0.0068897637795276
0
CIRCLE
8
BLACK
10
1.5111811023622046
20
2.0727874015748031
40
0.0068897637795276
0
CIRCLE
8
BLACK
10
1.5111811023622046
20
1.972787401574803
40
0.0068897637795276
0
CIRCLE
8
BLACK
10
1.6111811023622047
20
2.0727874015748031
40
0.0068897637795276
0
CIRCLE
8
BLACK
10
1.6111811023622047
20
1.972787401574803
40
0.0068897637795276
0
CIRCLE
8
BLACK
10
1.7111811023622048
20
2.0727874015748031
40
0.0068897637795276
0
CIRCLE
8
BLACK
10
1.7111811023622048
20
1.972787401574803
40
0.0068897637795276
0
CIRCLE
8
BLACK
10
1.8111811023622046
20
2.0727874015748031
40
0.0068897637795276
0
CIRCLE
8
BLACK
10
1.8111811023622046
20
1.972787401574803
40
0.0068897637795276
0
CIRCLE
8
BLACK
10
1.9111811023622047
20
2.0727874015748031
40
0.0068897637795276
0
CIRCLE
8
BLACK
10
1.9111811023622047
20
1.972787401574803
40
0.0068897637795276
0
CIRCLE
8
BLACK
10
2.0111811023622046
20
2.0727874015748031
40
0.0068897637795276
0
CIRCLE
8
BLACK
10
2.0111811023622046
20
1.972787401574803
40
0.0068897637795276
0
CIRCLE
8
BLACK
10
2.1111811023622047
20
2.0727874015748031
40
0.0068897637795276
0
CIRCLE
8
BLACK
10
2.1111811023622047
20
1.972787401574803
40
0.0068897637795276
0
CIRCLE
8
BLACK
10
2.2111811023622048
20
2.0727874015748031
40
0.0068897637795276
0
CIRCLE
8
BLACK
10
2.2111811023622048
20
1.972787401574803
40
0.0068897637795276
0
CIRCLE
8
BLACK
10
2.3111811023622049
20
2.0727874015748031
40
0.0068897637795276
0
CIRCLE
8
BLACK
10
2.3111811023622049
20
1.972787401574803
40
0.0068897637795276
0
CIRCLE
8
BLACK
10
2.7999999999999998
20
2.
40
0.0068897637795276
0
CIRCLE
8
BLACK
10
0.4
20
0.4
40
0.0068897637795276
0
CIRCLE
8
BLACK
10
2.7999999999999998
20
0.4
40
0.0068897637795276
0
CIRCLE
8
BLACK
10
0.4
20
2.
40
0.0068897637795276
0
CIRCLE
8
BLACK
10
0.9111811023622047
20
2.0727874015748031
40
0.0068897637795276
0
CIRCLE
8
BLACK
10
0.9111811023622047
20
1.972787401574803
40
0.0068897637795276
0
CIRCLE
8
BLACK
10
1.0111811023622046
20
2.0727874015748031
40
0.0068897637795276
0
CIRCLE
8
BLACK
10
1.0111811023622046
20
1.972787401574803
40
0.0068897637795276
0
CIRCLE
8
BLACK
10
1.1111811023622047
20
2.0727874015748031
40
0.0068897637795276
0
CIRCLE
8
BLACK
10
1.1111811023622047
20
1.972787401574803
40
0.0068897637795276
0
CIRCLE
8
BLACK
10
1.2111811023622048
20
2.0727874015748031
40
0.0068897637795276
0
CIRCLE
8
BLACK
10
1.2111811023622048
20
1.972787401574803
40
0.0068897637795276
0
CIRCLE
8
BLACK
10
1.3111811023622046
20
2.0727874015748031
40
0.0068897637795276
0
CIRCLE
8
BLACK
10
1.3111811023622046
20
1.972787401574803
40
0.0068897637795276
0
CIRCLE
8
BLACK
10
1.4111811023622047
20
2.0727874015748031
40
0.0068897637795276
0
CIRCLE
8
BLACK
10
1.4111811023622047
20
1.972787401574803
40
0.0068897637795276
0
CIRCLE
8
BLACK
10
1.5111811023622046
20
2.0727874015748031
40
0.0068897637795276
0
CIRCLE
8
BLACK
10
1.5111811023622046
20
1.972787401574803
40
0.0068897637795276
0
CIRCLE
8
BLACK
10
1.6111811023622047
20
2.0727874015748031
40
0.0068897637795276
0
CIRCLE
8
BLACK
10
1.6111811023622047
20
1.972787401574803
40
0.0068897637795276
0
CIRCLE
8
BLACK
10
1.7111811023622048
20
2.0727874015748031
40
0.0068897637795276
0
CIRCLE
8
BLACK
10
1.7111811023622048
20
1.972787401574803
40
0.0068897637795276
0
CIRCLE
8
BLACK
10
1.8111811023622046
20
2.0727874015748031
40
0.0068897637795276
0
CIRCLE
8
BLACK
10
1.8111811023622046
20
1.972787401574803
40
0.0068897637795276
0
CIRCLE
8
BLACK
10
1.9111811023622047
20
2.0727874015748031
40
0.0068897637795276
0
CIRCLE
8
BLACK
10
1.9111811023622047
20
1.972787401574803
40
0.0068897637795276
0
CIRCLE
8
BLACK
10
2.0111811023622046
20
2.0727874015748031
40
0.0068897637795276
0
CIRCLE
8
BLACK
10
2.0111811023622046
20
1.972787401574803
40
0.0068897637795276
0
CIRCLE
8
BLACK
10
2.1111811023622047
20
2.0727874015748031
40
0.0068897637795276
0
CIRCLE
8
BLACK
10
2.1111811023622047
20
1.972787401574803
40
0.0068897637795276
0
CIRCLE
8
BLACK
10
2.2111811023622048
20
2.0727874015748031
40
0.0068897637795276
0
CIRCLE
8
BLACK
10
2.2111811023622048
20
1.972787401574803
40
0.0068897637795276
0
CIRCLE
8
BLACK
10
2.3111811023622049
20
2.0727874015748031
40
0.0068897637795276
0
CIRCLE
8
BLACK
10
2.3111811023622049
20
1.972787401574803
40
0.0068897637795276
  0
ENDSEC
  0
EOF
