  0
SECTION
  2
HEADER
  9
$ANGBASE
  50
0.0
  9
$ANGDIR
  70
1
  9
$MEASUREMENT
  70
0
  0
ENDSEC
  0
SECTION
  2
TABLES
  0
TABLE
  2
LTYPE
  70
4
  0
LTYPE
  5
40F
  2
CONTINUOUS
  70
0
  3
Solid line
  72
65
  73
0
  40
0.0
  0
LTYPE
  5
410
  2
DASHDOT
 70
0
  3
Dash Dot ____ _ ____ _
 72
65
 73
4
 40
2.0
 49
1.25
 49
-0.25
 49
0.25
 49
-0.25
  0
LTYPE
  5
411
  2
DASHED
 70
0
  3
Dashed __ __ __ __ __
 72
65
 73
2
 40
0.75
 49
0.5
 49
-0.25
  0
LTYPE
  5
43B
  2
DOTTED
 70
0
  3
Dotted .  .  .  .
 72
65
 73
2
 40
0.2
 49
0.0
 49
-0.2
  0
ENDTAB
  0
TABLE
  2
STYLE
  70
4
  0
STYLE
  2
KICAD
  70
0
  40
0
  41
1
  42
1
  50
0
  71
0
  3
isocp.shx
  0
STYLE
  2
KICADB
  70
0
  40
0
  41
1
  42
1
  50
0
  71
0
  3
isocp.shx
  0
STYLE
  2
KICADI
  70
0
  40
0
  41
1
  42
1
  50
15
  71
0
  3
isocp.shx
  0
STYLE
  2
KICADBI
  70
0
  40
0
  41
1
  42
1
  50
15
  71
0
  3
isocp.shx
  0
ENDTAB
  0
TABLE
  2
LAYER
  70
1
  0
LAYER
  2
BLACK
  70
0
  62
7
  6
CONTINUOUS
  0
ENDTAB
  0
ENDSEC
  0
SECTION
  2
ENTITIES
0
LINE
8
BLACK
6
CONTINUOUS
10
0.420113937007874
20
0.5183821653543307
11
0.4332420472440945
21
0.5153857480314961
0
LINE
8
BLACK
6
CONTINUOUS
10
0.4332420472440945
20
0.5153857480314961
11
0.4459521259842519
21
0.5109383070866141
0
LINE
8
BLACK
6
CONTINUOUS
10
0.4459521259842519
20
0.5109383070866141
11
0.4580843700787401
21
0.5050957086614173
0
LINE
8
BLACK
6
CONTINUOUS
10
0.4580843700787401
20
0.5050957086614173
11
0.4694861023622047
21
0.4979315354330708
0
LINE
8
BLACK
6
CONTINUOUS
10
0.4694861023622047
20
0.4979315354330708
11
0.4800140551181102
21
0.4895357874015748
0
LINE
8
BLACK
6
CONTINUOUS
10
0.4800140551181102
20
0.4895357874015748
11
0.4895357874015748
21
0.4800140551181102
0
LINE
8
BLACK
6
CONTINUOUS
10
0.4895357874015748
20
0.4800140551181102
11
0.4979315354330708
21
0.4694861023622047
0
LINE
8
BLACK
6
CONTINUOUS
10
0.4979315354330708
20
0.4694861023622047
11
0.5050957086614173
21
0.4580843700787401
0
LINE
8
BLACK
6
CONTINUOUS
10
0.5050957086614173
20
0.4580843700787401
11
0.5109383070866141
21
0.4459521259842519
0
LINE
8
BLACK
6
CONTINUOUS
10
0.5109383070866141
20
0.4459521259842519
11
0.5153857480314961
21
0.4332420472440945
0
LINE
8
BLACK
6
CONTINUOUS
10
0.5153857480314961
20
0.4332420472440945
11
0.5183821653543307
21
0.420113937007874
0
LINE
8
BLACK
6
CONTINUOUS
10
0.5183821653543307
20
0.420113937007874
11
0.5198898425196851
21
0.406732874015748
0
LINE
8
BLACK
6
CONTINUOUS
10
0.5198898425196851
20
0.406732874015748
11
0.5198898425196851
21
0.393267125984252
0
LINE
8
BLACK
6
CONTINUOUS
10
0.5198898425196851
20
0.393267125984252
11
0.5183821653543307
21
0.379886062992126
0
LINE
8
BLACK
6
CONTINUOUS
10
0.5183821653543307
20
0.379886062992126
11
0.5153857480314961
21
0.3667579527559055
0
LINE
8
BLACK
6
CONTINUOUS
10
0.5153857480314961
20
0.3667579527559055
11
0.5109383070866141
21
0.354047874015748
0
LINE
8
BLACK
6
CONTINUOUS
10
0.5109383070866141
20
0.354047874015748
11
0.5050957086614173
21
0.3419156299212598
0
LINE
8
BLACK
6
CONTINUOUS
10
0.5050957086614173
20
0.3419156299212598
11
0.4979315354330708
21
0.3305138976377953
0
LINE
8
BLACK
6
CONTINUOUS
10
0.4979315354330708
20
0.3305138976377953
11
0.4895357874015748
21
0.3199859448818898
0
LINE
8
BLACK
6
CONTINUOUS
10
0.4895357874015748
20
0.3199859448818898
11
0.4800140551181102
21
0.3104642125984252
0
LINE
8
BLACK
6
CONTINUOUS
10
0.4800140551181102
20
0.3104642125984252
11
0.4694861023622047
21
0.3020684645669292
0
LINE
8
BLACK
6
CONTINUOUS
10
0.4694861023622047
20
0.3020684645669292
11
0.4580843700787401
21
0.2949042913385826
0
LINE
8
BLACK
6
CONTINUOUS
10
0.4580843700787401
20
0.2949042913385826
11
0.4459521259842519
21
0.2890616929133858
0
LINE
8
BLACK
6
CONTINUOUS
10
0.4459521259842519
20
0.2890616929133858
11
0.4332420472440945
21
0.2846142519685039
0
LINE
8
BLACK
6
CONTINUOUS
10
0.4332420472440945
20
0.2846142519685039
11
0.420113937007874
21
0.2816178346456693
0
LINE
8
BLACK
6
CONTINUOUS
10
0.420113937007874
20
0.2816178346456693
11
0.406732874015748
21
0.280110157480315
0
LINE
8
BLACK
6
CONTINUOUS
10
0.406732874015748
20
0.280110157480315
11
0.393267125984252
21
0.280110157480315
0
LINE
8
BLACK
6
CONTINUOUS
10
0.393267125984252
20
0.280110157480315
11
0.379886062992126
21
0.2816178346456693
0
LINE
8
BLACK
6
CONTINUOUS
10
0.379886062992126
20
0.2816178346456693
11
0.3667579527559055
21
0.2846142519685039
0
LINE
8
BLACK
6
CONTINUOUS
10
0.3667579527559055
20
0.2846142519685039
11
0.354047874015748
21
0.2890616929133858
0
LINE
8
BLACK
6
CONTINUOUS
10
0.354047874015748
20
0.2890616929133858
11
0.3419156299212598
21
0.2949042913385826
0
LINE
8
BLACK
6
CONTINUOUS
10
0.3419156299212598
20
0.2949042913385826
11
0.3305138976377953
21
0.3020684645669292
0
LINE
8
BLACK
6
CONTINUOUS
10
0.3305138976377953
20
0.3020684645669292
11
0.3199859448818898
21
0.3104642125984252
0
LINE
8
BLACK
6
CONTINUOUS
10
0.3199859448818898
20
0.3104642125984252
11
0.3104642125984252
21
0.3199859448818898
0
LINE
8
BLACK
6
CONTINUOUS
10
0.3104642125984252
20
0.3199859448818898
11
0.3020684645669292
21
0.3305138976377953
0
LINE
8
BLACK
6
CONTINUOUS
10
0.3020684645669292
20
0.3305138976377953
11
0.2949042913385826
21
0.3419156299212598
0
LINE
8
BLACK
6
CONTINUOUS
10
0.2949042913385826
20
0.3419156299212598
11
0.2890616929133858
21
0.354047874015748
0
LINE
8
BLACK
6
CONTINUOUS
10
0.2890616929133858
20
0.354047874015748
11
0.2846142519685039
21
0.3667579527559055
0
LINE
8
BLACK
6
CONTINUOUS
10
0.2846142519685039
20
0.3667579527559055
11
0.2816178346456693
21
0.379886062992126
0
LINE
8
BLACK
6
CONTINUOUS
10
0.2816178346456693
20
0.379886062992126
11
0.280110157480315
21
0.393267125984252
0
LINE
8
BLACK
6
CONTINUOUS
10
0.280110157480315
20
0.393267125984252
11
0.280110157480315
21
0.406732874015748
0
LINE
8
BLACK
6
CONTINUOUS
10
0.280110157480315
20
0.406732874015748
11
0.2816178346456693
21
0.420113937007874
0
LINE
8
BLACK
6
CONTINUOUS
10
0.2816178346456693
20
0.420113937007874
11
0.2846142519685039
21
0.4332420472440945
0
LINE
8
BLACK
6
CONTINUOUS
10
0.2846142519685039
20
0.4332420472440945
11
0.2890616929133858
21
0.4459521259842519
0
LINE
8
BLACK
6
CONTINUOUS
10
0.2890616929133858
20
0.4459521259842519
11
0.2949042913385826
21
0.4580843700787401
0
LINE
8
BLACK
6
CONTINUOUS
10
0.2949042913385826
20
0.4580843700787401
11
0.3020684645669292
21
0.4694861023622047
0
LINE
8
BLACK
6
CONTINUOUS
10
0.3020684645669292
20
0.4694861023622047
11
0.3104642125984252
21
0.4800140551181102
0
LINE
8
BLACK
6
CONTINUOUS
10
0.3104642125984252
20
0.4800140551181102
11
0.3199859448818898
21
0.4895357874015748
0
LINE
8
BLACK
6
CONTINUOUS
10
0.3199859448818898
20
0.4895357874015748
11
0.3305138976377953
21
0.4979315354330708
0
LINE
8
BLACK
6
CONTINUOUS
10
0.3305138976377953
20
0.4979315354330708
11
0.3419156299212598
21
0.5050957086614173
0
LINE
8
BLACK
6
CONTINUOUS
10
0.3419156299212598
20
0.5050957086614173
11
0.354047874015748
21
0.5109383070866141
0
LINE
8
BLACK
6
CONTINUOUS
10
0.354047874015748
20
0.5109383070866141
11
0.3667579527559055
21
0.5153857480314961
0
LINE
8
BLACK
6
CONTINUOUS
10
0.3667579527559055
20
0.5153857480314961
11
0.379886062992126
21
0.5183821653543307
0
LINE
8
BLACK
6
CONTINUOUS
10
0.379886062992126
20
0.5183821653543307
11
0.393267125984252
21
0.5198898425196851
0
LINE
8
BLACK
6
CONTINUOUS
10
0.393267125984252
20
0.5198898425196851
11
0.406732874015748
21
0.5198898425196851
0
LINE
8
BLACK
6
CONTINUOUS
10
0.406732874015748
20
0.5198898425196851
11
0.420113937007874
21
0.5183821653543307
0
LINE
8
BLACK
6
CONTINUOUS
10
2.820113937007874
20
0.5183821653543307
11
2.8332420472440942
21
0.5153857480314961
0
LINE
8
BLACK
6
CONTINUOUS
10
2.8332420472440942
20
0.5153857480314961
11
2.845952125984252
21
0.5109383070866141
0
LINE
8
BLACK
6
CONTINUOUS
10
2.845952125984252
20
0.5109383070866141
11
2.8580843700787399
21
0.5050957086614173
0
LINE
8
BLACK
6
CONTINUOUS
10
2.8580843700787399
20
0.5050957086614173
11
2.8694861023622047
21
0.4979315354330708
0
LINE
8
BLACK
6
CONTINUOUS
10
2.8694861023622047
20
0.4979315354330708
11
2.8800140551181102
21
0.4895357874015748
0
LINE
8
BLACK
6
CONTINUOUS
10
2.8800140551181102
20
0.4895357874015748
11
2.8895357874015746
21
0.4800140551181102
0
LINE
8
BLACK
6
CONTINUOUS
10
2.8895357874015746
20
0.4800140551181102
11
2.8979315354330706
21
0.4694861023622047
0
LINE
8
BLACK
6
CONTINUOUS
10
2.8979315354330706
20
0.4694861023622047
11
2.9050957086614173
21
0.4580843700787401
0
LINE
8
BLACK
6
CONTINUOUS
10
2.9050957086614173
20
0.4580843700787401
11
2.9109383070866142
21
0.4459521259842519
0
LINE
8
BLACK
6
CONTINUOUS
10
2.9109383070866142
20
0.4459521259842519
11
2.915385748031496
21
0.4332420472440945
0
LINE
8
BLACK
6
CONTINUOUS
10
2.915385748031496
20
0.4332420472440945
11
2.9183821653543305
21
0.420113937007874
0
LINE
8
BLACK
6
CONTINUOUS
10
2.9183821653543305
20
0.420113937007874
11
2.9198898425196851
21
0.406732874015748
0
LINE
8
BLACK
6
CONTINUOUS
10
2.9198898425196851
20
0.406732874015748
11
2.9198898425196851
21
0.393267125984252
0
LINE
8
BLACK
6
CONTINUOUS
10
2.9198898425196851
20
0.393267125984252
11
2.9183821653543305
21
0.379886062992126
0
LINE
8
BLACK
6
CONTINUOUS
10
2.9183821653543305
20
0.379886062992126
11
2.915385748031496
21
0.3667579527559055
0
LINE
8
BLACK
6
CONTINUOUS
10
2.915385748031496
20
0.3667579527559055
11
2.9109383070866142
21
0.354047874015748
0
LINE
8
BLACK
6
CONTINUOUS
10
2.9109383070866142
20
0.354047874015748
11
2.9050957086614173
21
0.3419156299212598
0
LINE
8
BLACK
6
CONTINUOUS
10
2.9050957086614173
20
0.3419156299212598
11
2.8979315354330706
21
0.3305138976377953
0
LINE
8
BLACK
6
CONTINUOUS
10
2.8979315354330706
20
0.3305138976377953
11
2.8895357874015746
21
0.3199859448818898
0
LINE
8
BLACK
6
CONTINUOUS
10
2.8895357874015746
20
0.3199859448818898
11
2.8800140551181102
21
0.3104642125984252
0
LINE
8
BLACK
6
CONTINUOUS
10
2.8800140551181102
20
0.3104642125984252
11
2.8694861023622047
21
0.3020684645669292
0
LINE
8
BLACK
6
CONTINUOUS
10
2.8694861023622047
20
0.3020684645669292
11
2.8580843700787399
21
0.2949042913385826
0
LINE
8
BLACK
6
CONTINUOUS
10
2.8580843700787399
20
0.2949042913385826
11
2.845952125984252
21
0.2890616929133858
0
LINE
8
BLACK
6
CONTINUOUS
10
2.845952125984252
20
0.2890616929133858
11
2.8332420472440942
21
0.2846142519685039
0
LINE
8
BLACK
6
CONTINUOUS
10
2.8332420472440942
20
0.2846142519685039
11
2.820113937007874
21
0.2816178346456693
0
LINE
8
BLACK
6
CONTINUOUS
10
2.820113937007874
20
0.2816178346456693
11
2.806732874015748
21
0.280110157480315
0
LINE
8
BLACK
6
CONTINUOUS
10
2.806732874015748
20
0.280110157480315
11
2.7932671259842521
21
0.280110157480315
0
LINE
8
BLACK
6
CONTINUOUS
10
2.7932671259842521
20
0.280110157480315
11
2.779886062992126
21
0.2816178346456693
0
LINE
8
BLACK
6
CONTINUOUS
10
2.779886062992126
20
0.2816178346456693
11
2.7667579527559054
21
0.2846142519685039
0
LINE
8
BLACK
6
CONTINUOUS
10
2.7667579527559054
20
0.2846142519685039
11
2.7540478740157481
21
0.2890616929133858
0
LINE
8
BLACK
6
CONTINUOUS
10
2.7540478740157481
20
0.2890616929133858
11
2.7419156299212597
21
0.2949042913385826
0
LINE
8
BLACK
6
CONTINUOUS
10
2.7419156299212597
20
0.2949042913385826
11
2.7305138976377954
21
0.3020684645669292
0
LINE
8
BLACK
6
CONTINUOUS
10
2.7305138976377954
20
0.3020684645669292
11
2.7199859448818895
21
0.3104642125984252
0
LINE
8
BLACK
6
CONTINUOUS
10
2.7199859448818895
20
0.3104642125984252
11
2.7104642125984251
21
0.3199859448818898
0
LINE
8
BLACK
6
CONTINUOUS
10
2.7104642125984251
20
0.3199859448818898
11
2.7020684645669291
21
0.3305138976377953
0
LINE
8
BLACK
6
CONTINUOUS
10
2.7020684645669291
20
0.3305138976377953
11
2.6949042913385828
21
0.3419156299212598
0
LINE
8
BLACK
6
CONTINUOUS
10
2.6949042913385828
20
0.3419156299212598
11
2.6890616929133859
21
0.354047874015748
0
LINE
8
BLACK
6
CONTINUOUS
10
2.6890616929133859
20
0.354047874015748
11
2.6846142519685037
21
0.3667579527559055
0
LINE
8
BLACK
6
CONTINUOUS
10
2.6846142519685037
20
0.3667579527559055
11
2.6816178346456692
21
0.379886062992126
0
LINE
8
BLACK
6
CONTINUOUS
10
2.6816178346456692
20
0.379886062992126
11
2.680110157480315
21
0.393267125984252
0
LINE
8
BLACK
6
CONTINUOUS
10
2.680110157480315
20
0.393267125984252
11
2.680110157480315
21
0.406732874015748
0
LINE
8
BLACK
6
CONTINUOUS
10
2.680110157480315
20
0.406732874015748
11
2.6816178346456692
21
0.420113937007874
0
LINE
8
BLACK
6
CONTINUOUS
10
2.6816178346456692
20
0.420113937007874
11
2.6846142519685037
21
0.4332420472440945
0
LINE
8
BLACK
6
CONTINUOUS
10
2.6846142519685037
20
0.4332420472440945
11
2.6890616929133859
21
0.4459521259842519
0
LINE
8
BLACK
6
CONTINUOUS
10
2.6890616929133859
20
0.4459521259842519
11
2.6949042913385828
21
0.4580843700787401
0
LINE
8
BLACK
6
CONTINUOUS
10
2.6949042913385828
20
0.4580843700787401
11
2.7020684645669291
21
0.4694861023622047
0
LINE
8
BLACK
6
CONTINUOUS
10
2.7020684645669291
20
0.4694861023622047
11
2.7104642125984251
21
0.4800140551181102
0
LINE
8
BLACK
6
CONTINUOUS
10
2.7104642125984251
20
0.4800140551181102
11
2.7199859448818895
21
0.4895357874015748
0
LINE
8
BLACK
6
CONTINUOUS
10
2.7199859448818895
20
0.4895357874015748
11
2.7305138976377954
21
0.4979315354330708
0
LINE
8
BLACK
6
CONTINUOUS
10
2.7305138976377954
20
0.4979315354330708
11
2.7419156299212597
21
0.5050957086614173
0
LINE
8
BLACK
6
CONTINUOUS
10
2.7419156299212597
20
0.5050957086614173
11
2.7540478740157481
21
0.5109383070866141
0
LINE
8
BLACK
6
CONTINUOUS
10
2.7540478740157481
20
0.5109383070866141
11
2.7667579527559054
21
0.5153857480314961
0
LINE
8
BLACK
6
CONTINUOUS
10
2.7667579527559054
20
0.5153857480314961
11
2.779886062992126
21
0.5183821653543307
0
LINE
8
BLACK
6
CONTINUOUS
10
2.779886062992126
20
0.5183821653543307
11
2.7932671259842521
21
0.5198898425196851
0
LINE
8
BLACK
6
CONTINUOUS
10
2.7932671259842521
20
0.5198898425196851
11
2.806732874015748
21
0.5198898425196851
0
LINE
8
BLACK
6
CONTINUOUS
10
2.806732874015748
20
0.5198898425196851
11
2.820113937007874
21
0.5183821653543307
0
LINE
8
BLACK
6
CONTINUOUS
10
1.8987533070866141
20
0.9378186614173228
11
1.8993919291338581
21
0.9373919291338583
0
LINE
8
BLACK
6
CONTINUOUS
10
1.8993919291338581
20
0.9373919291338583
11
1.8998186614173227
21
0.9367533070866142
0
LINE
8
BLACK
6
CONTINUOUS
10
1.8998186614173227
20
0.9367533070866142
11
1.8999685039370078
21
0.9359999999999999
0
LINE
8
BLACK
6
CONTINUOUS
10
1.8999685039370078
20
0.9359999999999999
11
1.8999685039370078
21
0.876
0
LINE
8
BLACK
6
CONTINUOUS
10
1.8999685039370078
20
0.876
11
1.8998186614173227
21
0.8752466929133859
0
LINE
8
BLACK
6
CONTINUOUS
10
1.8998186614173227
20
0.8752466929133859
11
1.8993919291338581
21
0.8746080708661417
0
LINE
8
BLACK
6
CONTINUOUS
10
1.8993919291338581
20
0.8746080708661417
11
1.8987533070866141
21
0.8741813385826771
0
LINE
8
BLACK
6
CONTINUOUS
10
1.8987533070866141
20
0.8741813385826771
11
1.8979999999999999
21
0.8740314960629921
0
LINE
8
BLACK
6
CONTINUOUS
10
1.8979999999999999
20
0.8740314960629921
11
1.8379999999999999
21
0.8740314960629921
0
LINE
8
BLACK
6
CONTINUOUS
10
1.8379999999999999
20
0.8740314960629921
11
1.8372466929133857
21
0.8741813385826771
0
LINE
8
BLACK
6
CONTINUOUS
10
1.8372466929133857
20
0.8741813385826771
11
1.8366080708661416
21
0.8746080708661417
0
LINE
8
BLACK
6
CONTINUOUS
10
1.8366080708661416
20
0.8746080708661417
11
1.8361813385826771
21
0.8752466929133859
0
LINE
8
BLACK
6
CONTINUOUS
10
1.8361813385826771
20
0.8752466929133859
11
1.836031496062992
21
0.876
0
LINE
8
BLACK
6
CONTINUOUS
10
1.836031496062992
20
0.876
11
1.836031496062992
21
0.9359999999999999
0
LINE
8
BLACK
6
CONTINUOUS
10
1.836031496062992
20
0.9359999999999999
11
1.8361813385826771
21
0.9367533070866142
0
LINE
8
BLACK
6
CONTINUOUS
10
1.8361813385826771
20
0.9367533070866142
11
1.8366080708661416
21
0.9373919291338583
0
LINE
8
BLACK
6
CONTINUOUS
10
1.8366080708661416
20
0.9373919291338583
11
1.8372466929133857
21
0.9378186614173228
0
LINE
8
BLACK
6
CONTINUOUS
10
1.8372466929133857
20
0.9378186614173228
11
1.8379999999999999
21
0.9379685039370078
0
LINE
8
BLACK
6
CONTINUOUS
10
1.8379999999999999
20
0.9379685039370078
11
1.8979999999999999
21
0.9379685039370078
0
LINE
8
BLACK
6
CONTINUOUS
10
1.8979999999999999
20
0.9379685039370078
11
1.8987533070866141
21
0.9378186614173228
0
LINE
8
BLACK
6
CONTINUOUS
10
1.9987533070866141
20
0.9378186614173228
11
1.9993919291338582
21
0.9373919291338583
0
LINE
8
BLACK
6
CONTINUOUS
10
1.9993919291338582
20
0.9373919291338583
11
1.9998186614173228
21
0.9367533070866142
0
LINE
8
BLACK
6
CONTINUOUS
10
1.9998186614173228
20
0.9367533070866142
11
1.9999685039370079
21
0.9359999999999999
0
LINE
8
BLACK
6
CONTINUOUS
10
1.9999685039370079
20
0.9359999999999999
11
1.9999685039370079
21
0.876
0
LINE
8
BLACK
6
CONTINUOUS
10
1.9999685039370079
20
0.876
11
1.9998186614173228
21
0.8752466929133859
0
LINE
8
BLACK
6
CONTINUOUS
10
1.9998186614173228
20
0.8752466929133859
11
1.9993919291338582
21
0.8746080708661417
0
LINE
8
BLACK
6
CONTINUOUS
10
1.9993919291338582
20
0.8746080708661417
11
1.9987533070866141
21
0.8741813385826771
0
LINE
8
BLACK
6
CONTINUOUS
10
1.9987533070866141
20
0.8741813385826771
11
1.998
21
0.8740314960629921
0
LINE
8
BLACK
6
CONTINUOUS
10
1.998
20
0.8740314960629921
11
1.9379999999999999
21
0.8740314960629921
0
LINE
8
BLACK
6
CONTINUOUS
10
1.9379999999999999
20
0.8740314960629921
11
1.9372466929133858
21
0.8741813385826771
0
LINE
8
BLACK
6
CONTINUOUS
10
1.9372466929133858
20
0.8741813385826771
11
1.9366080708661417
21
0.8746080708661417
0
LINE
8
BLACK
6
CONTINUOUS
10
1.9366080708661417
20
0.8746080708661417
11
1.9361813385826772
21
0.8752466929133859
0
LINE
8
BLACK
6
CONTINUOUS
10
1.9361813385826772
20
0.8752466929133859
11
1.9360314960629921
21
0.876
0
LINE
8
BLACK
6
CONTINUOUS
10
1.9360314960629921
20
0.876
11
1.9360314960629921
21
0.9359999999999999
0
LINE
8
BLACK
6
CONTINUOUS
10
1.9360314960629921
20
0.9359999999999999
11
1.9361813385826772
21
0.9367533070866142
0
LINE
8
BLACK
6
CONTINUOUS
10
1.9361813385826772
20
0.9367533070866142
11
1.9366080708661417
21
0.9373919291338583
0
LINE
8
BLACK
6
CONTINUOUS
10
1.9366080708661417
20
0.9373919291338583
11
1.9372466929133858
21
0.9378186614173228
0
LINE
8
BLACK
6
CONTINUOUS
10
1.9372466929133858
20
0.9378186614173228
11
1.9379999999999999
21
0.9379685039370078
0
LINE
8
BLACK
6
CONTINUOUS
10
1.9379999999999999
20
0.9379685039370078
11
1.998
21
0.9379685039370078
0
LINE
8
BLACK
6
CONTINUOUS
10
1.998
20
0.9379685039370078
11
1.9987533070866141
21
0.9378186614173228
0
LINE
8
BLACK
6
CONTINUOUS
10
1.8987533070866141
20
1.0378186614173228
11
1.8993919291338581
21
1.0373919291338582
0
LINE
8
BLACK
6
CONTINUOUS
10
1.8993919291338581
20
1.0373919291338582
11
1.8998186614173227
21
1.0367533070866142
0
LINE
8
BLACK
6
CONTINUOUS
10
1.8998186614173227
20
1.0367533070866142
11
1.8999685039370078
21
1.036
0
LINE
8
BLACK
6
CONTINUOUS
10
1.8999685039370078
20
1.036
11
1.8999685039370078
21
0.976
0
LINE
8
BLACK
6
CONTINUOUS
10
1.8999685039370078
20
0.976
11
1.8998186614173227
21
0.9752466929133858
0
LINE
8
BLACK
6
CONTINUOUS
10
1.8998186614173227
20
0.9752466929133858
11
1.8993919291338581
21
0.9746080708661418
0
LINE
8
BLACK
6
CONTINUOUS
10
1.8993919291338581
20
0.9746080708661418
11
1.8987533070866141
21
0.9741813385826772
0
LINE
8
BLACK
6
CONTINUOUS
10
1.8987533070866141
20
0.9741813385826772
11
1.8979999999999999
21
0.9740314960629921
0
LINE
8
BLACK
6
CONTINUOUS
10
1.8979999999999999
20
0.9740314960629921
11
1.8379999999999999
21
0.9740314960629921
0
LINE
8
BLACK
6
CONTINUOUS
10
1.8379999999999999
20
0.9740314960629921
11
1.8372466929133857
21
0.9741813385826772
0
LINE
8
BLACK
6
CONTINUOUS
10
1.8372466929133857
20
0.9741813385826772
11
1.8366080708661416
21
0.9746080708661418
0
LINE
8
BLACK
6
CONTINUOUS
10
1.8366080708661416
20
0.9746080708661418
11
1.8361813385826771
21
0.9752466929133858
0
LINE
8
BLACK
6
CONTINUOUS
10
1.8361813385826771
20
0.9752466929133858
11
1.836031496062992
21
0.976
0
LINE
8
BLACK
6
CONTINUOUS
10
1.836031496062992
20
0.976
11
1.836031496062992
21
1.036
0
LINE
8
BLACK
6
CONTINUOUS
10
1.836031496062992
20
1.036
11
1.8361813385826771
21
1.0367533070866142
0
LINE
8
BLACK
6
CONTINUOUS
10
1.8361813385826771
20
1.0367533070866142
11
1.8366080708661416
21
1.0373919291338582
0
LINE
8
BLACK
6
CONTINUOUS
10
1.8366080708661416
20
1.0373919291338582
11
1.8372466929133857
21
1.0378186614173228
0
LINE
8
BLACK
6
CONTINUOUS
10
1.8372466929133857
20
1.0378186614173228
11
1.8379999999999999
21
1.0379685039370079
0
LINE
8
BLACK
6
CONTINUOUS
10
1.8379999999999999
20
1.0379685039370079
11
1.8979999999999999
21
1.0379685039370079
0
LINE
8
BLACK
6
CONTINUOUS
10
1.8979999999999999
20
1.0379685039370079
11
1.8987533070866141
21
1.0378186614173228
0
LINE
8
BLACK
6
CONTINUOUS
10
1.9987533070866141
20
1.0378186614173228
11
1.9993919291338582
21
1.0373919291338582
0
LINE
8
BLACK
6
CONTINUOUS
10
1.9993919291338582
20
1.0373919291338582
11
1.9998186614173228
21
1.0367533070866142
0
LINE
8
BLACK
6
CONTINUOUS
10
1.9998186614173228
20
1.0367533070866142
11
1.9999685039370079
21
1.036
0
LINE
8
BLACK
6
CONTINUOUS
10
1.9999685039370079
20
1.036
11
1.9999685039370079
21
0.976
0
LINE
8
BLACK
6
CONTINUOUS
10
1.9999685039370079
20
0.976
11
1.9998186614173228
21
0.9752466929133858
0
LINE
8
BLACK
6
CONTINUOUS
10
1.9998186614173228
20
0.9752466929133858
11
1.9993919291338582
21
0.9746080708661418
0
LINE
8
BLACK
6
CONTINUOUS
10
1.9993919291338582
20
0.9746080708661418
11
1.9987533070866141
21
0.9741813385826772
0
LINE
8
BLACK
6
CONTINUOUS
10
1.9987533070866141
20
0.9741813385826772
11
1.998
21
0.9740314960629921
0
LINE
8
BLACK
6
CONTINUOUS
10
1.998
20
0.9740314960629921
11
1.9379999999999999
21
0.9740314960629921
0
LINE
8
BLACK
6
CONTINUOUS
10
1.9379999999999999
20
0.9740314960629921
11
1.9372466929133858
21
0.9741813385826772
0
LINE
8
BLACK
6
CONTINUOUS
10
1.9372466929133858
20
0.9741813385826772
11
1.9366080708661417
21
0.9746080708661418
0
LINE
8
BLACK
6
CONTINUOUS
10
1.9366080708661417
20
0.9746080708661418
11
1.9361813385826772
21
0.9752466929133858
0
LINE
8
BLACK
6
CONTINUOUS
10
1.9361813385826772
20
0.9752466929133858
11
1.9360314960629921
21
0.976
0
LINE
8
BLACK
6
CONTINUOUS
10
1.9360314960629921
20
0.976
11
1.9360314960629921
21
1.036
0
LINE
8
BLACK
6
CONTINUOUS
10
1.9360314960629921
20
1.036
11
1.9361813385826772
21
1.0367533070866142
0
LINE
8
BLACK
6
CONTINUOUS
10
1.9361813385826772
20
1.0367533070866142
11
1.9366080708661417
21
1.0373919291338582
0
LINE
8
BLACK
6
CONTINUOUS
10
1.9366080708661417
20
1.0373919291338582
11
1.9372466929133858
21
1.0378186614173228
0
LINE
8
BLACK
6
CONTINUOUS
10
1.9372466929133858
20
1.0378186614173228
11
1.9379999999999999
21
1.0379685039370079
0
LINE
8
BLACK
6
CONTINUOUS
10
1.9379999999999999
20
1.0379685039370079
11
1.998
21
1.0379685039370079
0
LINE
8
BLACK
6
CONTINUOUS
10
1.998
20
1.0379685039370079
11
1.9987533070866141
21
1.0378186614173228
0
LINE
8
BLACK
6
CONTINUOUS
10
1.8987533070866141
20
1.1378186614173229
11
1.8993919291338581
21
1.1373919291338583
0
LINE
8
BLACK
6
CONTINUOUS
10
1.8993919291338581
20
1.1373919291338583
11
1.8998186614173227
21
1.136753307086614
0
LINE
8
BLACK
6
CONTINUOUS
10
1.8998186614173227
20
1.136753307086614
11
1.8999685039370078
21
1.1359999999999999
0
LINE
8
BLACK
6
CONTINUOUS
10
1.8999685039370078
20
1.1359999999999999
11
1.8999685039370078
21
1.0760000000000001
0
LINE
8
BLACK
6
CONTINUOUS
10
1.8999685039370078
20
1.0760000000000001
11
1.8998186614173227
21
1.0752466929133857
0
LINE
8
BLACK
6
CONTINUOUS
10
1.8998186614173227
20
1.0752466929133857
11
1.8993919291338581
21
1.0746080708661416
0
LINE
8
BLACK
6
CONTINUOUS
10
1.8993919291338581
20
1.0746080708661416
11
1.8987533070866141
21
1.0741813385826771
0
LINE
8
BLACK
6
CONTINUOUS
10
1.8987533070866141
20
1.0741813385826771
11
1.8979999999999999
21
1.0740314960629922
0
LINE
8
BLACK
6
CONTINUOUS
10
1.8979999999999999
20
1.0740314960629922
11
1.8379999999999999
21
1.0740314960629922
0
LINE
8
BLACK
6
CONTINUOUS
10
1.8379999999999999
20
1.0740314960629922
11
1.8372466929133857
21
1.0741813385826771
0
LINE
8
BLACK
6
CONTINUOUS
10
1.8372466929133857
20
1.0741813385826771
11
1.8366080708661416
21
1.0746080708661416
0
LINE
8
BLACK
6
CONTINUOUS
10
1.8366080708661416
20
1.0746080708661416
11
1.8361813385826771
21
1.0752466929133857
0
LINE
8
BLACK
6
CONTINUOUS
10
1.8361813385826771
20
1.0752466929133857
11
1.836031496062992
21
1.0760000000000001
0
LINE
8
BLACK
6
CONTINUOUS
10
1.836031496062992
20
1.0760000000000001
11
1.836031496062992
21
1.1359999999999999
0
LINE
8
BLACK
6
CONTINUOUS
10
1.836031496062992
20
1.1359999999999999
11
1.8361813385826771
21
1.136753307086614
0
LINE
8
BLACK
6
CONTINUOUS
10
1.8361813385826771
20
1.136753307086614
11
1.8366080708661416
21
1.1373919291338583
0
LINE
8
BLACK
6
CONTINUOUS
10
1.8366080708661416
20
1.1373919291338583
11
1.8372466929133857
21
1.1378186614173229
0
LINE
8
BLACK
6
CONTINUOUS
10
1.8372466929133857
20
1.1378186614173229
11
1.8379999999999999
21
1.1379685039370078
0
LINE
8
BLACK
6
CONTINUOUS
10
1.8379999999999999
20
1.1379685039370078
11
1.8979999999999999
21
1.1379685039370078
0
LINE
8
BLACK
6
CONTINUOUS
10
1.8979999999999999
20
1.1379685039370078
11
1.8987533070866141
21
1.1378186614173229
0
LINE
8
BLACK
6
CONTINUOUS
10
1.9987533070866141
20
1.1378186614173229
11
1.9993919291338582
21
1.1373919291338583
0
LINE
8
BLACK
6
CONTINUOUS
10
1.9993919291338582
20
1.1373919291338583
11
1.9998186614173228
21
1.136753307086614
0
LINE
8
BLACK
6
CONTINUOUS
10
1.9998186614173228
20
1.136753307086614
11
1.9999685039370079
21
1.1359999999999999
0
LINE
8
BLACK
6
CONTINUOUS
10
1.9999685039370079
20
1.1359999999999999
11
1.9999685039370079
21
1.0760000000000001
0
LINE
8
BLACK
6
CONTINUOUS
10
1.9999685039370079
20
1.0760000000000001
11
1.9998186614173228
21
1.0752466929133857
0
LINE
8
BLACK
6
CONTINUOUS
10
1.9998186614173228
20
1.0752466929133857
11
1.9993919291338582
21
1.0746080708661416
0
LINE
8
BLACK
6
CONTINUOUS
10
1.9993919291338582
20
1.0746080708661416
11
1.9987533070866141
21
1.0741813385826771
0
LINE
8
BLACK
6
CONTINUOUS
10
1.9987533070866141
20
1.0741813385826771
11
1.998
21
1.0740314960629922
0
LINE
8
BLACK
6
CONTINUOUS
10
1.998
20
1.0740314960629922
11
1.9379999999999999
21
1.0740314960629922
0
LINE
8
BLACK
6
CONTINUOUS
10
1.9379999999999999
20
1.0740314960629922
11
1.9372466929133858
21
1.0741813385826771
0
LINE
8
BLACK
6
CONTINUOUS
10
1.9372466929133858
20
1.0741813385826771
11
1.9366080708661417
21
1.0746080708661416
0
LINE
8
BLACK
6
CONTINUOUS
10
1.9366080708661417
20
1.0746080708661416
11
1.9361813385826772
21
1.0752466929133857
0
LINE
8
BLACK
6
CONTINUOUS
10
1.9361813385826772
20
1.0752466929133857
11
1.9360314960629921
21
1.0760000000000001
0
LINE
8
BLACK
6
CONTINUOUS
10
1.9360314960629921
20
1.0760000000000001
11
1.9360314960629921
21
1.1359999999999999
0
LINE
8
BLACK
6
CONTINUOUS
10
1.9360314960629921
20
1.1359999999999999
11
1.9361813385826772
21
1.136753307086614
0
LINE
8
BLACK
6
CONTINUOUS
10
1.9361813385826772
20
1.136753307086614
11
1.9366080708661417
21
1.1373919291338583
0
LINE
8
BLACK
6
CONTINUOUS
10
1.9366080708661417
20
1.1373919291338583
11
1.9372466929133858
21
1.1378186614173229
0
LINE
8
BLACK
6
CONTINUOUS
10
1.9372466929133858
20
1.1378186614173229
11
1.9379999999999999
21
1.1379685039370078
0
LINE
8
BLACK
6
CONTINUOUS
10
1.9379999999999999
20
1.1379685039370078
11
1.998
21
1.1379685039370078
0
LINE
8
BLACK
6
CONTINUOUS
10
1.998
20
1.1379685039370078
11
1.9987533070866141
21
1.1378186614173229
0
LINE
8
BLACK
6
CONTINUOUS
10
0.420113937007874
20
2.1183821653543307
11
0.4332420472440945
21
2.1153857480314961
0
LINE
8
BLACK
6
CONTINUOUS
10
0.4332420472440945
20
2.1153857480314961
11
0.4459521259842519
21
2.1109383070866143
0
LINE
8
BLACK
6
CONTINUOUS
10
0.4459521259842519
20
2.1109383070866143
11
0.4580843700787401
21
2.1050957086614175
0
LINE
8
BLACK
6
CONTINUOUS
10
0.4580843700787401
20
2.1050957086614175
11
0.4694861023622047
21
2.0979315354330708
0
LINE
8
BLACK
6
CONTINUOUS
10
0.4694861023622047
20
2.0979315354330708
11
0.4800140551181102
21
2.0895357874015748
0
LINE
8
BLACK
6
CONTINUOUS
10
0.4800140551181102
20
2.0895357874015748
11
0.4895357874015748
21
2.0800140551181103
0
LINE
8
BLACK
6
CONTINUOUS
10
0.4895357874015748
20
2.0800140551181103
11
0.4979315354330708
21
2.0694861023622049
0
LINE
8
BLACK
6
CONTINUOUS
10
0.4979315354330708
20
2.0694861023622049
11
0.5050957086614173
21
2.0580843700787401
0
LINE
8
BLACK
6
CONTINUOUS
10
0.5050957086614173
20
2.0580843700787401
11
0.5109383070866141
21
2.0459521259842521
0
LINE
8
BLACK
6
CONTINUOUS
10
0.5109383070866141
20
2.0459521259842521
11
0.5153857480314961
21
2.0332420472440944
0
LINE
8
BLACK
6
CONTINUOUS
10
0.5153857480314961
20
2.0332420472440944
11
0.5183821653543307
21
2.0201139370078738
0
LINE
8
BLACK
6
CONTINUOUS
10
0.5183821653543307
20
2.0201139370078738
11
0.5198898425196851
21
2.0067328740157482
0
LINE
8
BLACK
6
CONTINUOUS
10
0.5198898425196851
20
2.0067328740157482
11
0.5198898425196851
21
1.9932671259842518
0
LINE
8
BLACK
6
CONTINUOUS
10
0.5198898425196851
20
1.9932671259842518
11
0.5183821653543307
21
1.979886062992126
0
LINE
8
BLACK
6
CONTINUOUS
10
0.5183821653543307
20
1.979886062992126
11
0.5153857480314961
21
1.9667579527559054
0
LINE
8
BLACK
6
CONTINUOUS
10
0.5153857480314961
20
1.9667579527559054
11
0.5109383070866141
21
1.9540478740157481
0
LINE
8
BLACK
6
CONTINUOUS
10
0.5109383070866141
20
1.9540478740157481
11
0.5050957086614173
21
1.9419156299212599
0
LINE
8
BLACK
6
CONTINUOUS
10
0.5050957086614173
20
1.9419156299212599
11
0.4979315354330708
21
1.9305138976377951
0
LINE
8
BLACK
6
CONTINUOUS
10
0.4979315354330708
20
1.9305138976377951
11
0.4895357874015748
21
1.9199859448818897
0
LINE
8
BLACK
6
CONTINUOUS
10
0.4895357874015748
20
1.9199859448818897
11
0.4800140551181102
21
1.9104642125984252
0
LINE
8
BLACK
6
CONTINUOUS
10
0.4800140551181102
20
1.9104642125984252
11
0.4694861023622047
21
1.902068464566929
0
LINE
8
BLACK
6
CONTINUOUS
10
0.4694861023622047
20
1.902068464566929
11
0.4580843700787401
21
1.8949042913385827
0
LINE
8
BLACK
6
CONTINUOUS
10
0.4580843700787401
20
1.8949042913385827
11
0.4459521259842519
21
1.8890616929133859
0
LINE
8
BLACK
6
CONTINUOUS
10
0.4459521259842519
20
1.8890616929133859
11
0.4332420472440945
21
1.8846142519685039
0
LINE
8
BLACK
6
CONTINUOUS
10
0.4332420472440945
20
1.8846142519685039
11
0.420113937007874
21
1.8816178346456693
0
LINE
8
BLACK
6
CONTINUOUS
10
0.420113937007874
20
1.8816178346456693
11
0.406732874015748
21
1.880110157480315
0
LINE
8
BLACK
6
CONTINUOUS
10
0.406732874015748
20
1.880110157480315
11
0.393267125984252
21
1.880110157480315
0
LINE
8
BLACK
6
CONTINUOUS
10
0.393267125984252
20
1.880110157480315
11
0.379886062992126
21
1.8816178346456693
0
LINE
8
BLACK
6
CONTINUOUS
10
0.379886062992126
20
1.8816178346456693
11
0.3667579527559055
21
1.8846142519685039
0
LINE
8
BLACK
6
CONTINUOUS
10
0.3667579527559055
20
1.8846142519685039
11
0.354047874015748
21
1.8890616929133859
0
LINE
8
BLACK
6
CONTINUOUS
10
0.354047874015748
20
1.8890616929133859
11
0.3419156299212598
21
1.8949042913385827
0
LINE
8
BLACK
6
CONTINUOUS
10
0.3419156299212598
20
1.8949042913385827
11
0.3305138976377953
21
1.902068464566929
0
LINE
8
BLACK
6
CONTINUOUS
10
0.3305138976377953
20
1.902068464566929
11
0.3199859448818898
21
1.9104642125984252
0
LINE
8
BLACK
6
CONTINUOUS
10
0.3199859448818898
20
1.9104642125984252
11
0.3104642125984252
21
1.9199859448818897
0
LINE
8
BLACK
6
CONTINUOUS
10
0.3104642125984252
20
1.9199859448818897
11
0.3020684645669292
21
1.9305138976377951
0
LINE
8
BLACK
6
CONTINUOUS
10
0.3020684645669292
20
1.9305138976377951
11
0.2949042913385826
21
1.9419156299212599
0
LINE
8
BLACK
6
CONTINUOUS
10
0.2949042913385826
20
1.9419156299212599
11
0.2890616929133858
21
1.9540478740157481
0
LINE
8
BLACK
6
CONTINUOUS
10
0.2890616929133858
20
1.9540478740157481
11
0.2846142519685039
21
1.9667579527559054
0
LINE
8
BLACK
6
CONTINUOUS
10
0.2846142519685039
20
1.9667579527559054
11
0.2816178346456693
21
1.979886062992126
0
LINE
8
BLACK
6
CONTINUOUS
10
0.2816178346456693
20
1.979886062992126
11
0.280110157480315
21
1.9932671259842518
0
LINE
8
BLACK
6
CONTINUOUS
10
0.280110157480315
20
1.9932671259842518
11
0.280110157480315
21
2.0067328740157482
0
LINE
8
BLACK
6
CONTINUOUS
10
0.280110157480315
20
2.0067328740157482
11
0.2816178346456693
21
2.0201139370078738
0
LINE
8
BLACK
6
CONTINUOUS
10
0.2816178346456693
20
2.0201139370078738
11
0.2846142519685039
21
2.0332420472440944
0
LINE
8
BLACK
6
CONTINUOUS
10
0.2846142519685039
20
2.0332420472440944
11
0.2890616929133858
21
2.0459521259842521
0
LINE
8
BLACK
6
CONTINUOUS
10
0.2890616929133858
20
2.0459521259842521
11
0.2949042913385826
21
2.0580843700787401
0
LINE
8
BLACK
6
CONTINUOUS
10
0.2949042913385826
20
2.0580843700787401
11
0.3020684645669292
21
2.0694861023622049
0
LINE
8
BLACK
6
CONTINUOUS
10
0.3020684645669292
20
2.0694861023622049
11
0.3104642125984252
21
2.0800140551181103
0
LINE
8
BLACK
6
CONTINUOUS
10
0.3104642125984252
20
2.0800140551181103
11
0.3199859448818898
21
2.0895357874015748
0
LINE
8
BLACK
6
CONTINUOUS
10
0.3199859448818898
20
2.0895357874015748
11
0.3305138976377953
21
2.0979315354330708
0
LINE
8
BLACK
6
CONTINUOUS
10
0.3305138976377953
20
2.0979315354330708
11
0.3419156299212598
21
2.1050957086614175
0
LINE
8
BLACK
6
CONTINUOUS
10
0.3419156299212598
20
2.1050957086614175
11
0.354047874015748
21
2.1109383070866143
0
LINE
8
BLACK
6
CONTINUOUS
10
0.354047874015748
20
2.1109383070866143
11
0.3667579527559055
21
2.1153857480314961
0
LINE
8
BLACK
6
CONTINUOUS
10
0.3667579527559055
20
2.1153857480314961
11
0.379886062992126
21
2.1183821653543307
0
LINE
8
BLACK
6
CONTINUOUS
10
0.379886062992126
20
2.1183821653543307
11
0.393267125984252
21
2.1198898425196848
0
LINE
8
BLACK
6
CONTINUOUS
10
0.393267125984252
20
2.1198898425196848
11
0.406732874015748
21
2.1198898425196848
0
LINE
8
BLACK
6
CONTINUOUS
10
0.406732874015748
20
2.1198898425196848
11
0.420113937007874
21
2.1183821653543307
0
LINE
8
BLACK
6
CONTINUOUS
10
2.820113937007874
20
2.1183821653543307
11
2.8332420472440942
21
2.1153857480314961
0
LINE
8
BLACK
6
CONTINUOUS
10
2.8332420472440942
20
2.1153857480314961
11
2.845952125984252
21
2.1109383070866143
0
LINE
8
BLACK
6
CONTINUOUS
10
2.845952125984252
20
2.1109383070866143
11
2.8580843700787399
21
2.1050957086614175
0
LINE
8
BLACK
6
CONTINUOUS
10
2.8580843700787399
20
2.1050957086614175
11
2.8694861023622047
21
2.0979315354330708
0
LINE
8
BLACK
6
CONTINUOUS
10
2.8694861023622047
20
2.0979315354330708
11
2.8800140551181102
21
2.0895357874015748
0
LINE
8
BLACK
6
CONTINUOUS
10
2.8800140551181102
20
2.0895357874015748
11
2.8895357874015746
21
2.0800140551181103
0
LINE
8
BLACK
6
CONTINUOUS
10
2.8895357874015746
20
2.0800140551181103
11
2.8979315354330706
21
2.0694861023622049
0
LINE
8
BLACK
6
CONTINUOUS
10
2.8979315354330706
20
2.0694861023622049
11
2.9050957086614173
21
2.0580843700787401
0
LINE
8
BLACK
6
CONTINUOUS
10
2.9050957086614173
20
2.0580843700787401
11
2.9109383070866142
21
2.0459521259842521
0
LINE
8
BLACK
6
CONTINUOUS
10
2.9109383070866142
20
2.0459521259842521
11
2.915385748031496
21
2.0332420472440944
0
LINE
8
BLACK
6
CONTINUOUS
10
2.915385748031496
20
2.0332420472440944
11
2.9183821653543305
21
2.0201139370078738
0
LINE
8
BLACK
6
CONTINUOUS
10
2.9183821653543305
20
2.0201139370078738
11
2.9198898425196851
21
2.0067328740157482
0
LINE
8
BLACK
6
CONTINUOUS
10
2.9198898425196851
20
2.0067328740157482
11
2.9198898425196851
21
1.9932671259842518
0
LINE
8
BLACK
6
CONTINUOUS
10
2.9198898425196851
20
1.9932671259842518
11
2.9183821653543305
21
1.979886062992126
0
LINE
8
BLACK
6
CONTINUOUS
10
2.9183821653543305
20
1.979886062992126
11
2.915385748031496
21
1.9667579527559054
0
LINE
8
BLACK
6
CONTINUOUS
10
2.915385748031496
20
1.9667579527559054
11
2.9109383070866142
21
1.9540478740157481
0
LINE
8
BLACK
6
CONTINUOUS
10
2.9109383070866142
20
1.9540478740157481
11
2.9050957086614173
21
1.9419156299212599
0
LINE
8
BLACK
6
CONTINUOUS
10
2.9050957086614173
20
1.9419156299212599
11
2.8979315354330706
21
1.9305138976377951
0
LINE
8
BLACK
6
CONTINUOUS
10
2.8979315354330706
20
1.9305138976377951
11
2.8895357874015746
21
1.9199859448818897
0
LINE
8
BLACK
6
CONTINUOUS
10
2.8895357874015746
20
1.9199859448818897
11
2.8800140551181102
21
1.9104642125984252
0
LINE
8
BLACK
6
CONTINUOUS
10
2.8800140551181102
20
1.9104642125984252
11
2.8694861023622047
21
1.902068464566929
0
LINE
8
BLACK
6
CONTINUOUS
10
2.8694861023622047
20
1.902068464566929
11
2.8580843700787399
21
1.8949042913385827
0
LINE
8
BLACK
6
CONTINUOUS
10
2.8580843700787399
20
1.8949042913385827
11
2.845952125984252
21
1.8890616929133859
0
LINE
8
BLACK
6
CONTINUOUS
10
2.845952125984252
20
1.8890616929133859
11
2.8332420472440942
21
1.8846142519685039
0
LINE
8
BLACK
6
CONTINUOUS
10
2.8332420472440942
20
1.8846142519685039
11
2.820113937007874
21
1.8816178346456693
0
LINE
8
BLACK
6
CONTINUOUS
10
2.820113937007874
20
1.8816178346456693
11
2.806732874015748
21
1.880110157480315
0
LINE
8
BLACK
6
CONTINUOUS
10
2.806732874015748
20
1.880110157480315
11
2.7932671259842521
21
1.880110157480315
0
LINE
8
BLACK
6
CONTINUOUS
10
2.7932671259842521
20
1.880110157480315
11
2.779886062992126
21
1.8816178346456693
0
LINE
8
BLACK
6
CONTINUOUS
10
2.779886062992126
20
1.8816178346456693
11
2.7667579527559054
21
1.8846142519685039
0
LINE
8
BLACK
6
CONTINUOUS
10
2.7667579527559054
20
1.8846142519685039
11
2.7540478740157481
21
1.8890616929133859
0
LINE
8
BLACK
6
CONTINUOUS
10
2.7540478740157481
20
1.8890616929133859
11
2.7419156299212597
21
1.8949042913385827
0
LINE
8
BLACK
6
CONTINUOUS
10
2.7419156299212597
20
1.8949042913385827
11
2.7305138976377954
21
1.902068464566929
0
LINE
8
BLACK
6
CONTINUOUS
10
2.7305138976377954
20
1.902068464566929
11
2.7199859448818895
21
1.9104642125984252
0
LINE
8
BLACK
6
CONTINUOUS
10
2.7199859448818895
20
1.9104642125984252
11
2.7104642125984251
21
1.9199859448818897
0
LINE
8
BLACK
6
CONTINUOUS
10
2.7104642125984251
20
1.9199859448818897
11
2.7020684645669291
21
1.9305138976377951
0
LINE
8
BLACK
6
CONTINUOUS
10
2.7020684645669291
20
1.9305138976377951
11
2.6949042913385828
21
1.9419156299212599
0
LINE
8
BLACK
6
CONTINUOUS
10
2.6949042913385828
20
1.9419156299212599
11
2.6890616929133859
21
1.9540478740157481
0
LINE
8
BLACK
6
CONTINUOUS
10
2.6890616929133859
20
1.9540478740157481
11
2.6846142519685037
21
1.9667579527559054
0
LINE
8
BLACK
6
CONTINUOUS
10
2.6846142519685037
20
1.9667579527559054
11
2.6816178346456692
21
1.979886062992126
0
LINE
8
BLACK
6
CONTINUOUS
10
2.6816178346456692
20
1.979886062992126
11
2.680110157480315
21
1.9932671259842518
0
LINE
8
BLACK
6
CONTINUOUS
10
2.680110157480315
20
1.9932671259842518
11
2.680110157480315
21
2.0067328740157482
0
LINE
8
BLACK
6
CONTINUOUS
10
2.680110157480315
20
2.0067328740157482
11
2.6816178346456692
21
2.0201139370078738
0
LINE
8
BLACK
6
CONTINUOUS
10
2.6816178346456692
20
2.0201139370078738
11
2.6846142519685037
21
2.0332420472440944
0
LINE
8
BLACK
6
CONTINUOUS
10
2.6846142519685037
20
2.0332420472440944
11
2.6890616929133859
21
2.0459521259842521
0
LINE
8
BLACK
6
CONTINUOUS
10
2.6890616929133859
20
2.0459521259842521
11
2.6949042913385828
21
2.0580843700787401
0
LINE
8
BLACK
6
CONTINUOUS
10
2.6949042913385828
20
2.0580843700787401
11
2.7020684645669291
21
2.0694861023622049
0
LINE
8
BLACK
6
CONTINUOUS
10
2.7020684645669291
20
2.0694861023622049
11
2.7104642125984251
21
2.0800140551181103
0
LINE
8
BLACK
6
CONTINUOUS
10
2.7104642125984251
20
2.0800140551181103
11
2.7199859448818895
21
2.0895357874015748
0
LINE
8
BLACK
6
CONTINUOUS
10
2.7199859448818895
20
2.0895357874015748
11
2.7305138976377954
21
2.0979315354330708
0
LINE
8
BLACK
6
CONTINUOUS
10
2.7305138976377954
20
2.0979315354330708
11
2.7419156299212597
21
2.1050957086614175
0
LINE
8
BLACK
6
CONTINUOUS
10
2.7419156299212597
20
2.1050957086614175
11
2.7540478740157481
21
2.1109383070866143
0
LINE
8
BLACK
6
CONTINUOUS
10
2.7540478740157481
20
2.1109383070866143
11
2.7667579527559054
21
2.1153857480314961
0
LINE
8
BLACK
6
CONTINUOUS
10
2.7667579527559054
20
2.1153857480314961
11
2.779886062992126
21
2.1183821653543307
0
LINE
8
BLACK
6
CONTINUOUS
10
2.779886062992126
20
2.1183821653543307
11
2.7932671259842521
21
2.1198898425196848
0
LINE
8
BLACK
6
CONTINUOUS
10
2.7932671259842521
20
2.1198898425196848
11
2.806732874015748
21
2.1198898425196848
0
LINE
8
BLACK
6
CONTINUOUS
10
2.806732874015748
20
2.1198898425196848
11
2.820113937007874
21
2.1183821653543307
0
LINE
8
BLACK
6
CONTINUOUS
10
0.9307533070866142
20
2.0318186614173226
11
0.9313919291338583
21
2.031391929133858
0
LINE
8
BLACK
6
CONTINUOUS
10
0.9313919291338583
20
2.031391929133858
11
0.9318186614173228
21
2.0307533070866142
0
LINE
8
BLACK
6
CONTINUOUS
10
0.9318186614173228
20
2.0307533070866142
11
0.9319685039370078
21
2.0299999999999998
0
LINE
8
BLACK
6
CONTINUOUS
10
0.9319685039370078
20
2.0299999999999998
11
0.9319685039370078
21
1.97
0
LINE
8
BLACK
6
CONTINUOUS
10
0.9319685039370078
20
1.97
11
0.9318186614173228
21
1.9692466929133858
0
LINE
8
BLACK
6
CONTINUOUS
10
0.9318186614173228
20
1.9692466929133858
11
0.9313919291338583
21
1.9686080708661418
0
LINE
8
BLACK
6
CONTINUOUS
10
0.9313919291338583
20
1.9686080708661418
11
0.9307533070866142
21
1.9681813385826772
0
LINE
8
BLACK
6
CONTINUOUS
10
0.9307533070866142
20
1.9681813385826772
11
0.9299999999999999
21
1.9680314960629921
0
LINE
8
BLACK
6
CONTINUOUS
10
0.9299999999999999
20
1.9680314960629921
11
0.87
21
1.9680314960629921
0
LINE
8
BLACK
6
CONTINUOUS
10
0.87
20
1.9680314960629921
11
0.8692466929133859
21
1.9681813385826772
0
LINE
8
BLACK
6
CONTINUOUS
10
0.8692466929133859
20
1.9681813385826772
11
0.8686080708661417
21
1.9686080708661418
0
LINE
8
BLACK
6
CONTINUOUS
10
0.8686080708661417
20
1.9686080708661418
11
0.8681813385826771
21
1.9692466929133858
0
LINE
8
BLACK
6
CONTINUOUS
10
0.8681813385826771
20
1.9692466929133858
11
0.8680314960629921
21
1.97
0
LINE
8
BLACK
6
CONTINUOUS
10
0.8680314960629921
20
1.97
11
0.8680314960629921
21
2.0299999999999998
0
LINE
8
BLACK
6
CONTINUOUS
10
0.8680314960629921
20
2.0299999999999998
11
0.8681813385826771
21
2.0307533070866142
0
LINE
8
BLACK
6
CONTINUOUS
10
0.8681813385826771
20
2.0307533070866142
11
0.8686080708661417
21
2.031391929133858
0
LINE
8
BLACK
6
CONTINUOUS
10
0.8686080708661417
20
2.031391929133858
11
0.8692466929133859
21
2.0318186614173226
0
LINE
8
BLACK
6
CONTINUOUS
10
0.8692466929133859
20
2.0318186614173226
11
0.87
21
2.0319685039370077
0
LINE
8
BLACK
6
CONTINUOUS
10
0.87
20
2.0319685039370077
11
0.9299999999999999
21
2.0319685039370077
0
LINE
8
BLACK
6
CONTINUOUS
10
0.9299999999999999
20
2.0319685039370077
11
0.9307533070866142
21
2.0318186614173226
0
LINE
8
BLACK
6
CONTINUOUS
10
1.0307533070866142
20
2.0318186614173226
11
1.0313919291338582
21
2.031391929133858
0
LINE
8
BLACK
6
CONTINUOUS
10
1.0313919291338582
20
2.031391929133858
11
1.0318186614173228
21
2.0307533070866142
0
LINE
8
BLACK
6
CONTINUOUS
10
1.0318186614173228
20
2.0307533070866142
11
1.0319685039370079
21
2.0299999999999998
0
LINE
8
BLACK
6
CONTINUOUS
10
1.0319685039370079
20
2.0299999999999998
11
1.0319685039370079
21
1.97
0
LINE
8
BLACK
6
CONTINUOUS
10
1.0319685039370079
20
1.97
11
1.0318186614173228
21
1.9692466929133858
0
LINE
8
BLACK
6
CONTINUOUS
10
1.0318186614173228
20
1.9692466929133858
11
1.0313919291338582
21
1.9686080708661418
0
LINE
8
BLACK
6
CONTINUOUS
10
1.0313919291338582
20
1.9686080708661418
11
1.0307533070866142
21
1.9681813385826772
0
LINE
8
BLACK
6
CONTINUOUS
10
1.0307533070866142
20
1.9681813385826772
11
1.03
21
1.9680314960629921
0
LINE
8
BLACK
6
CONTINUOUS
10
1.03
20
1.9680314960629921
11
0.97
21
1.9680314960629921
0
LINE
8
BLACK
6
CONTINUOUS
10
0.97
20
1.9680314960629921
11
0.9692466929133858
21
1.9681813385826772
0
LINE
8
BLACK
6
CONTINUOUS
10
0.9692466929133858
20
1.9681813385826772
11
0.9686080708661418
21
1.9686080708661418
0
LINE
8
BLACK
6
CONTINUOUS
10
0.9686080708661418
20
1.9686080708661418
11
0.9681813385826772
21
1.9692466929133858
0
LINE
8
BLACK
6
CONTINUOUS
10
0.9681813385826772
20
1.9692466929133858
11
0.9680314960629921
21
1.97
0
LINE
8
BLACK
6
CONTINUOUS
10
0.9680314960629921
20
1.97
11
0.9680314960629921
21
2.0299999999999998
0
LINE
8
BLACK
6
CONTINUOUS
10
0.9680314960629921
20
2.0299999999999998
11
0.9681813385826772
21
2.0307533070866142
0
LINE
8
BLACK
6
CONTINUOUS
10
0.9681813385826772
20
2.0307533070866142
11
0.9686080708661418
21
2.031391929133858
0
LINE
8
BLACK
6
CONTINUOUS
10
0.9686080708661418
20
2.031391929133858
11
0.9692466929133858
21
2.0318186614173226
0
LINE
8
BLACK
6
CONTINUOUS
10
0.9692466929133858
20
2.0318186614173226
11
0.97
21
2.0319685039370077
0
LINE
8
BLACK
6
CONTINUOUS
10
0.97
20
2.0319685039370077
11
1.03
21
2.0319685039370077
0
LINE
8
BLACK
6
CONTINUOUS
10
1.03
20
2.0319685039370077
11
1.0307533070866142
21
2.0318186614173226
0
LINE
8
BLACK
6
CONTINUOUS
10
1.1307533070866143
20
2.0318186614173226
11
1.1313919291338583
21
2.031391929133858
0
LINE
8
BLACK
6
CONTINUOUS
10
1.1313919291338583
20
2.031391929133858
11
1.1318186614173229
21
2.0307533070866142
0
LINE
8
BLACK
6
CONTINUOUS
10
1.1318186614173229
20
2.0307533070866142
11
1.1319685039370078
21
2.0299999999999998
0
LINE
8
BLACK
6
CONTINUOUS
10
1.1319685039370078
20
2.0299999999999998
11
1.1319685039370078
21
1.97
0
LINE
8
BLACK
6
CONTINUOUS
10
1.1319685039370078
20
1.97
11
1.1318186614173229
21
1.9692466929133858
0
LINE
8
BLACK
6
CONTINUOUS
10
1.1318186614173229
20
1.9692466929133858
11
1.1313919291338583
21
1.9686080708661418
0
LINE
8
BLACK
6
CONTINUOUS
10
1.1313919291338583
20
1.9686080708661418
11
1.1307533070866143
21
1.9681813385826772
0
LINE
8
BLACK
6
CONTINUOUS
10
1.1307533070866143
20
1.9681813385826772
11
1.1299999999999999
21
1.9680314960629921
0
LINE
8
BLACK
6
CONTINUOUS
10
1.1299999999999999
20
1.9680314960629921
11
1.0700000000000001
21
1.9680314960629921
0
LINE
8
BLACK
6
CONTINUOUS
10
1.0700000000000001
20
1.9680314960629921
11
1.0692466929133857
21
1.9681813385826772
0
LINE
8
BLACK
6
CONTINUOUS
10
1.0692466929133857
20
1.9681813385826772
11
1.0686080708661416
21
1.9686080708661418
0
LINE
8
BLACK
6
CONTINUOUS
10
1.0686080708661416
20
1.9686080708661418
11
1.0681813385826771
21
1.9692466929133858
0
LINE
8
BLACK
6
CONTINUOUS
10
1.0681813385826771
20
1.9692466929133858
11
1.0680314960629922
21
1.97
0
LINE
8
BLACK
6
CONTINUOUS
10
1.0680314960629922
20
1.97
11
1.0680314960629922
21
2.0299999999999998
0
LINE
8
BLACK
6
CONTINUOUS
10
1.0680314960629922
20
2.0299999999999998
11
1.0681813385826771
21
2.0307533070866142
0
LINE
8
BLACK
6
CONTINUOUS
10
1.0681813385826771
20
2.0307533070866142
11
1.0686080708661416
21
2.031391929133858
0
LINE
8
BLACK
6
CONTINUOUS
10
1.0686080708661416
20
2.031391929133858
11
1.0692466929133857
21
2.0318186614173226
0
LINE
8
BLACK
6
CONTINUOUS
10
1.0692466929133857
20
2.0318186614173226
11
1.0700000000000001
21
2.0319685039370077
0
LINE
8
BLACK
6
CONTINUOUS
10
1.0700000000000001
20
2.0319685039370077
11
1.1299999999999999
21
2.0319685039370077
0
LINE
8
BLACK
6
CONTINUOUS
10
1.1299999999999999
20
2.0319685039370077
11
1.1307533070866143
21
2.0318186614173226
0
LINE
8
BLACK
6
CONTINUOUS
10
1.2307533070866141
20
2.0318186614173226
11
1.2313919291338582
21
2.031391929133858
0
LINE
8
BLACK
6
CONTINUOUS
10
1.2313919291338582
20
2.031391929133858
11
1.2318186614173228
21
2.0307533070866142
0
LINE
8
BLACK
6
CONTINUOUS
10
1.2318186614173228
20
2.0307533070866142
11
1.2319685039370079
21
2.0299999999999998
0
LINE
8
BLACK
6
CONTINUOUS
10
1.2319685039370079
20
2.0299999999999998
11
1.2319685039370079
21
1.97
0
LINE
8
BLACK
6
CONTINUOUS
10
1.2319685039370079
20
1.97
11
1.2318186614173228
21
1.9692466929133858
0
LINE
8
BLACK
6
CONTINUOUS
10
1.2318186614173228
20
1.9692466929133858
11
1.2313919291338582
21
1.9686080708661418
0
LINE
8
BLACK
6
CONTINUOUS
10
1.2313919291338582
20
1.9686080708661418
11
1.2307533070866141
21
1.9681813385826772
0
LINE
8
BLACK
6
CONTINUOUS
10
1.2307533070866141
20
1.9681813385826772
11
1.23
21
1.9680314960629921
0
LINE
8
BLACK
6
CONTINUOUS
10
1.23
20
1.9680314960629921
11
1.1699999999999999
21
1.9680314960629921
0
LINE
8
BLACK
6
CONTINUOUS
10
1.1699999999999999
20
1.9680314960629921
11
1.1692466929133858
21
1.9681813385826772
0
LINE
8
BLACK
6
CONTINUOUS
10
1.1692466929133858
20
1.9681813385826772
11
1.1686080708661417
21
1.9686080708661418
0
LINE
8
BLACK
6
CONTINUOUS
10
1.1686080708661417
20
1.9686080708661418
11
1.1681813385826771
21
1.9692466929133858
0
LINE
8
BLACK
6
CONTINUOUS
10
1.1681813385826771
20
1.9692466929133858
11
1.1680314960629921
21
1.97
0
LINE
8
BLACK
6
CONTINUOUS
10
1.1680314960629921
20
1.97
11
1.1680314960629921
21
2.0299999999999998
0
LINE
8
BLACK
6
CONTINUOUS
10
1.1680314960629921
20
2.0299999999999998
11
1.1681813385826771
21
2.0307533070866142
0
LINE
8
BLACK
6
CONTINUOUS
10
1.1681813385826771
20
2.0307533070866142
11
1.1686080708661417
21
2.031391929133858
0
LINE
8
BLACK
6
CONTINUOUS
10
1.1686080708661417
20
2.031391929133858
11
1.1692466929133858
21
2.0318186614173226
0
LINE
8
BLACK
6
CONTINUOUS
10
1.1692466929133858
20
2.0318186614173226
11
1.1699999999999999
21
2.0319685039370077
0
LINE
8
BLACK
6
CONTINUOUS
10
1.1699999999999999
20
2.0319685039370077
11
1.23
21
2.0319685039370077
0
LINE
8
BLACK
6
CONTINUOUS
10
1.23
20
2.0319685039370077
11
1.2307533070866141
21
2.0318186614173226
0
LINE
8
BLACK
6
CONTINUOUS
10
1.3307533070866142
20
2.0318186614173226
11
1.3313919291338583
21
2.031391929133858
0
LINE
8
BLACK
6
CONTINUOUS
10
1.3313919291338583
20
2.031391929133858
11
1.3318186614173229
21
2.0307533070866142
0
LINE
8
BLACK
6
CONTINUOUS
10
1.3318186614173229
20
2.0307533070866142
11
1.3319685039370079
21
2.0299999999999998
0
LINE
8
BLACK
6
CONTINUOUS
10
1.3319685039370079
20
2.0299999999999998
11
1.3319685039370079
21
1.97
0
LINE
8
BLACK
6
CONTINUOUS
10
1.3319685039370079
20
1.97
11
1.3318186614173229
21
1.9692466929133858
0
LINE
8
BLACK
6
CONTINUOUS
10
1.3318186614173229
20
1.9692466929133858
11
1.3313919291338583
21
1.9686080708661418
0
LINE
8
BLACK
6
CONTINUOUS
10
1.3313919291338583
20
1.9686080708661418
11
1.3307533070866142
21
1.9681813385826772
0
LINE
8
BLACK
6
CONTINUOUS
10
1.3307533070866142
20
1.9681813385826772
11
1.3300000000000001
21
1.9680314960629921
0
LINE
8
BLACK
6
CONTINUOUS
10
1.3300000000000001
20
1.9680314960629921
11
1.27
21
1.9680314960629921
0
LINE
8
BLACK
6
CONTINUOUS
10
1.27
20
1.9680314960629921
11
1.2692466929133859
21
1.9681813385826772
0
LINE
8
BLACK
6
CONTINUOUS
10
1.2692466929133859
20
1.9681813385826772
11
1.2686080708661418
21
1.9686080708661418
0
LINE
8
BLACK
6
CONTINUOUS
10
1.2686080708661418
20
1.9686080708661418
11
1.2681813385826772
21
1.9692466929133858
0
LINE
8
BLACK
6
CONTINUOUS
10
1.2681813385826772
20
1.9692466929133858
11
1.2680314960629921
21
1.97
0
LINE
8
BLACK
6
CONTINUOUS
10
1.2680314960629921
20
1.97
11
1.2680314960629921
21
2.0299999999999998
0
LINE
8
BLACK
6
CONTINUOUS
10
1.2680314960629921
20
2.0299999999999998
11
1.2681813385826772
21
2.0307533070866142
0
LINE
8
BLACK
6
CONTINUOUS
10
1.2681813385826772
20
2.0307533070866142
11
1.2686080708661418
21
2.031391929133858
0
LINE
8
BLACK
6
CONTINUOUS
10
1.2686080708661418
20
2.031391929133858
11
1.2692466929133859
21
2.0318186614173226
0
LINE
8
BLACK
6
CONTINUOUS
10
1.2692466929133859
20
2.0318186614173226
11
1.27
21
2.0319685039370077
0
LINE
8
BLACK
6
CONTINUOUS
10
1.27
20
2.0319685039370077
11
1.3300000000000001
21
2.0319685039370077
0
LINE
8
BLACK
6
CONTINUOUS
10
1.3300000000000001
20
2.0319685039370077
11
1.3307533070866142
21
2.0318186614173226
0
LINE
8
BLACK
6
CONTINUOUS
10
1.4307533070866141
20
2.0318186614173226
11
1.4313919291338582
21
2.031391929133858
0
LINE
8
BLACK
6
CONTINUOUS
10
1.4313919291338582
20
2.031391929133858
11
1.4318186614173227
21
2.0307533070866142
0
LINE
8
BLACK
6
CONTINUOUS
10
1.4318186614173227
20
2.0307533070866142
11
1.4319685039370078
21
2.0299999999999998
0
LINE
8
BLACK
6
CONTINUOUS
10
1.4319685039370078
20
2.0299999999999998
11
1.4319685039370078
21
1.97
0
LINE
8
BLACK
6
CONTINUOUS
10
1.4319685039370078
20
1.97
11
1.4318186614173227
21
1.9692466929133858
0
LINE
8
BLACK
6
CONTINUOUS
10
1.4318186614173227
20
1.9692466929133858
11
1.4313919291338582
21
1.9686080708661418
0
LINE
8
BLACK
6
CONTINUOUS
10
1.4313919291338582
20
1.9686080708661418
11
1.4307533070866141
21
1.9681813385826772
0
LINE
8
BLACK
6
CONTINUOUS
10
1.4307533070866141
20
1.9681813385826772
11
1.4299999999999999
21
1.9680314960629921
0
LINE
8
BLACK
6
CONTINUOUS
10
1.4299999999999999
20
1.9680314960629921
11
1.3699999999999999
21
1.9680314960629921
0
LINE
8
BLACK
6
CONTINUOUS
10
1.3699999999999999
20
1.9680314960629921
11
1.3692466929133857
21
1.9681813385826772
0
LINE
8
BLACK
6
CONTINUOUS
10
1.3692466929133857
20
1.9681813385826772
11
1.3686080708661417
21
1.9686080708661418
0
LINE
8
BLACK
6
CONTINUOUS
10
1.3686080708661417
20
1.9686080708661418
11
1.3681813385826771
21
1.9692466929133858
0
LINE
8
BLACK
6
CONTINUOUS
10
1.3681813385826771
20
1.9692466929133858
11
1.368031496062992
21
1.97
0
LINE
8
BLACK
6
CONTINUOUS
10
1.368031496062992
20
1.97
11
1.368031496062992
21
2.0299999999999998
0
LINE
8
BLACK
6
CONTINUOUS
10
1.368031496062992
20
2.0299999999999998
11
1.3681813385826771
21
2.0307533070866142
0
LINE
8
BLACK
6
CONTINUOUS
10
1.3681813385826771
20
2.0307533070866142
11
1.3686080708661417
21
2.031391929133858
0
LINE
8
BLACK
6
CONTINUOUS
10
1.3686080708661417
20
2.031391929133858
11
1.3692466929133857
21
2.0318186614173226
0
LINE
8
BLACK
6
CONTINUOUS
10
1.3692466929133857
20
2.0318186614173226
11
1.3699999999999999
21
2.0319685039370077
0
LINE
8
BLACK
6
CONTINUOUS
10
1.3699999999999999
20
2.0319685039370077
11
1.4299999999999999
21
2.0319685039370077
0
LINE
8
BLACK
6
CONTINUOUS
10
1.4299999999999999
20
2.0319685039370077
11
1.4307533070866141
21
2.0318186614173226
0
LINE
8
BLACK
6
CONTINUOUS
10
1.5307533070866142
20
2.0318186614173226
11
1.5313919291338582
21
2.031391929133858
0
LINE
8
BLACK
6
CONTINUOUS
10
1.5313919291338582
20
2.031391929133858
11
1.5318186614173228
21
2.0307533070866142
0
LINE
8
BLACK
6
CONTINUOUS
10
1.5318186614173228
20
2.0307533070866142
11
1.5319685039370079
21
2.0299999999999998
0
LINE
8
BLACK
6
CONTINUOUS
10
1.5319685039370079
20
2.0299999999999998
11
1.5319685039370079
21
1.97
0
LINE
8
BLACK
6
CONTINUOUS
10
1.5319685039370079
20
1.97
11
1.5318186614173228
21
1.9692466929133858
0
LINE
8
BLACK
6
CONTINUOUS
10
1.5318186614173228
20
1.9692466929133858
11
1.5313919291338582
21
1.9686080708661418
0
LINE
8
BLACK
6
CONTINUOUS
10
1.5313919291338582
20
1.9686080708661418
11
1.5307533070866142
21
1.9681813385826772
0
LINE
8
BLACK
6
CONTINUOUS
10
1.5307533070866142
20
1.9681813385826772
11
1.53
21
1.9680314960629921
0
LINE
8
BLACK
6
CONTINUOUS
10
1.53
20
1.9680314960629921
11
1.47
21
1.9680314960629921
0
LINE
8
BLACK
6
CONTINUOUS
10
1.47
20
1.9680314960629921
11
1.4692466929133858
21
1.9681813385826772
0
LINE
8
BLACK
6
CONTINUOUS
10
1.4692466929133858
20
1.9681813385826772
11
1.4686080708661418
21
1.9686080708661418
0
LINE
8
BLACK
6
CONTINUOUS
10
1.4686080708661418
20
1.9686080708661418
11
1.4681813385826772
21
1.9692466929133858
0
LINE
8
BLACK
6
CONTINUOUS
10
1.4681813385826772
20
1.9692466929133858
11
1.4680314960629921
21
1.97
0
LINE
8
BLACK
6
CONTINUOUS
10
1.4680314960629921
20
1.97
11
1.4680314960629921
21
2.0299999999999998
0
LINE
8
BLACK
6
CONTINUOUS
10
1.4680314960629921
20
2.0299999999999998
11
1.4681813385826772
21
2.0307533070866142
0
LINE
8
BLACK
6
CONTINUOUS
10
1.4681813385826772
20
2.0307533070866142
11
1.4686080708661418
21
2.031391929133858
0
LINE
8
BLACK
6
CONTINUOUS
10
1.4686080708661418
20
2.031391929133858
11
1.4692466929133858
21
2.0318186614173226
0
LINE
8
BLACK
6
CONTINUOUS
10
1.4692466929133858
20
2.0318186614173226
11
1.47
21
2.0319685039370077
0
LINE
8
BLACK
6
CONTINUOUS
10
1.47
20
2.0319685039370077
11
1.53
21
2.0319685039370077
0
LINE
8
BLACK
6
CONTINUOUS
10
1.53
20
2.0319685039370077
11
1.5307533070866142
21
2.0318186614173226
0
LINE
8
BLACK
6
CONTINUOUS
10
1.630753307086614
20
2.0318186614173226
11
1.6313919291338583
21
2.031391929133858
0
LINE
8
BLACK
6
CONTINUOUS
10
1.6313919291338583
20
2.031391929133858
11
1.6318186614173229
21
2.0307533070866142
0
LINE
8
BLACK
6
CONTINUOUS
10
1.6318186614173229
20
2.0307533070866142
11
1.6319685039370078
21
2.0299999999999998
0
LINE
8
BLACK
6
CONTINUOUS
10
1.6319685039370078
20
2.0299999999999998
11
1.6319685039370078
21
1.97
0
LINE
8
BLACK
6
CONTINUOUS
10
1.6319685039370078
20
1.97
11
1.6318186614173229
21
1.9692466929133858
0
LINE
8
BLACK
6
CONTINUOUS
10
1.6318186614173229
20
1.9692466929133858
11
1.6313919291338583
21
1.9686080708661418
0
LINE
8
BLACK
6
CONTINUOUS
10
1.6313919291338583
20
1.9686080708661418
11
1.630753307086614
21
1.9681813385826772
0
LINE
8
BLACK
6
CONTINUOUS
10
1.630753307086614
20
1.9681813385826772
11
1.6299999999999999
21
1.9680314960629921
0
LINE
8
BLACK
6
CONTINUOUS
10
1.6299999999999999
20
1.9680314960629921
11
1.5700000000000001
21
1.9680314960629921
0
LINE
8
BLACK
6
CONTINUOUS
10
1.5700000000000001
20
1.9680314960629921
11
1.5692466929133857
21
1.9681813385826772
0
LINE
8
BLACK
6
CONTINUOUS
10
1.5692466929133857
20
1.9681813385826772
11
1.5686080708661416
21
1.9686080708661418
0
LINE
8
BLACK
6
CONTINUOUS
10
1.5686080708661416
20
1.9686080708661418
11
1.5681813385826771
21
1.9692466929133858
0
LINE
8
BLACK
6
CONTINUOUS
10
1.5681813385826771
20
1.9692466929133858
11
1.5680314960629922
21
1.97
0
LINE
8
BLACK
6
CONTINUOUS
10
1.5680314960629922
20
1.97
11
1.5680314960629922
21
2.0299999999999998
0
LINE
8
BLACK
6
CONTINUOUS
10
1.5680314960629922
20
2.0299999999999998
11
1.5681813385826771
21
2.0307533070866142
0
LINE
8
BLACK
6
CONTINUOUS
10
1.5681813385826771
20
2.0307533070866142
11
1.5686080708661416
21
2.031391929133858
0
LINE
8
BLACK
6
CONTINUOUS
10
1.5686080708661416
20
2.031391929133858
11
1.5692466929133857
21
2.0318186614173226
0
LINE
8
BLACK
6
CONTINUOUS
10
1.5692466929133857
20
2.0318186614173226
11
1.5700000000000001
21
2.0319685039370077
0
LINE
8
BLACK
6
CONTINUOUS
10
1.5700000000000001
20
2.0319685039370077
11
1.6299999999999999
21
2.0319685039370077
0
LINE
8
BLACK
6
CONTINUOUS
10
1.6299999999999999
20
2.0319685039370077
11
1.630753307086614
21
2.0318186614173226
0
LINE
8
BLACK
6
CONTINUOUS
10
1.7307533070866141
20
2.0318186614173226
11
1.7313919291338582
21
2.031391929133858
0
LINE
8
BLACK
6
CONTINUOUS
10
1.7313919291338582
20
2.031391929133858
11
1.7318186614173228
21
2.0307533070866142
0
LINE
8
BLACK
6
CONTINUOUS
10
1.7318186614173228
20
2.0307533070866142
11
1.7319685039370079
21
2.0299999999999998
0
LINE
8
BLACK
6
CONTINUOUS
10
1.7319685039370079
20
2.0299999999999998
11
1.7319685039370079
21
1.97
0
LINE
8
BLACK
6
CONTINUOUS
10
1.7319685039370079
20
1.97
11
1.7318186614173228
21
1.9692466929133858
0
LINE
8
BLACK
6
CONTINUOUS
10
1.7318186614173228
20
1.9692466929133858
11
1.7313919291338582
21
1.9686080708661418
0
LINE
8
BLACK
6
CONTINUOUS
10
1.7313919291338582
20
1.9686080708661418
11
1.7307533070866141
21
1.9681813385826772
0
LINE
8
BLACK
6
CONTINUOUS
10
1.7307533070866141
20
1.9681813385826772
11
1.73
21
1.9680314960629921
0
LINE
8
BLACK
6
CONTINUOUS
10
1.73
20
1.9680314960629921
11
1.6699999999999999
21
1.9680314960629921
0
LINE
8
BLACK
6
CONTINUOUS
10
1.6699999999999999
20
1.9680314960629921
11
1.6692466929133858
21
1.9681813385826772
0
LINE
8
BLACK
6
CONTINUOUS
10
1.6692466929133858
20
1.9681813385826772
11
1.6686080708661417
21
1.9686080708661418
0
LINE
8
BLACK
6
CONTINUOUS
10
1.6686080708661417
20
1.9686080708661418
11
1.6681813385826771
21
1.9692466929133858
0
LINE
8
BLACK
6
CONTINUOUS
10
1.6681813385826771
20
1.9692466929133858
11
1.6680314960629921
21
1.97
0
LINE
8
BLACK
6
CONTINUOUS
10
1.6680314960629921
20
1.97
11
1.6680314960629921
21
2.0299999999999998
0
LINE
8
BLACK
6
CONTINUOUS
10
1.6680314960629921
20
2.0299999999999998
11
1.6681813385826771
21
2.0307533070866142
0
LINE
8
BLACK
6
CONTINUOUS
10
1.6681813385826771
20
2.0307533070866142
11
1.6686080708661417
21
2.031391929133858
0
LINE
8
BLACK
6
CONTINUOUS
10
1.6686080708661417
20
2.031391929133858
11
1.6692466929133858
21
2.0318186614173226
0
LINE
8
BLACK
6
CONTINUOUS
10
1.6692466929133858
20
2.0318186614173226
11
1.6699999999999999
21
2.0319685039370077
0
LINE
8
BLACK
6
CONTINUOUS
10
1.6699999999999999
20
2.0319685039370077
11
1.73
21
2.0319685039370077
0
LINE
8
BLACK
6
CONTINUOUS
10
1.73
20
2.0319685039370077
11
1.7307533070866141
21
2.0318186614173226
0
LINE
8
BLACK
6
CONTINUOUS
10
1.8307533070866142
20
2.0318186614173226
11
1.8313919291338583
21
2.031391929133858
0
LINE
8
BLACK
6
CONTINUOUS
10
1.8313919291338583
20
2.031391929133858
11
1.8318186614173229
21
2.0307533070866142
0
LINE
8
BLACK
6
CONTINUOUS
10
1.8318186614173229
20
2.0307533070866142
11
1.8319685039370079
21
2.0299999999999998
0
LINE
8
BLACK
6
CONTINUOUS
10
1.8319685039370079
20
2.0299999999999998
11
1.8319685039370079
21
1.97
0
LINE
8
BLACK
6
CONTINUOUS
10
1.8319685039370079
20
1.97
11
1.8318186614173229
21
1.9692466929133858
0
LINE
8
BLACK
6
CONTINUOUS
10
1.8318186614173229
20
1.9692466929133858
11
1.8313919291338583
21
1.9686080708661418
0
LINE
8
BLACK
6
CONTINUOUS
10
1.8313919291338583
20
1.9686080708661418
11
1.8307533070866142
21
1.9681813385826772
0
LINE
8
BLACK
6
CONTINUOUS
10
1.8307533070866142
20
1.9681813385826772
11
1.8299999999999998
21
1.9680314960629921
0
LINE
8
BLACK
6
CONTINUOUS
10
1.8299999999999998
20
1.9680314960629921
11
1.77
21
1.9680314960629921
0
LINE
8
BLACK
6
CONTINUOUS
10
1.77
20
1.9680314960629921
11
1.7692466929133859
21
1.9681813385826772
0
LINE
8
BLACK
6
CONTINUOUS
10
1.7692466929133859
20
1.9681813385826772
11
1.7686080708661418
21
1.9686080708661418
0
LINE
8
BLACK
6
CONTINUOUS
10
1.7686080708661418
20
1.9686080708661418
11
1.7681813385826772
21
1.9692466929133858
0
LINE
8
BLACK
6
CONTINUOUS
10
1.7681813385826772
20
1.9692466929133858
11
1.7680314960629921
21
1.97
0
LINE
8
BLACK
6
CONTINUOUS
10
1.7680314960629921
20
1.97
11
1.7680314960629921
21
2.0299999999999998
0
LINE
8
BLACK
6
CONTINUOUS
10
1.7680314960629921
20
2.0299999999999998
11
1.7681813385826772
21
2.0307533070866142
0
LINE
8
BLACK
6
CONTINUOUS
10
1.7681813385826772
20
2.0307533070866142
11
1.7686080708661418
21
2.031391929133858
0
LINE
8
BLACK
6
CONTINUOUS
10
1.7686080708661418
20
2.031391929133858
11
1.7692466929133859
21
2.0318186614173226
0
LINE
8
BLACK
6
CONTINUOUS
10
1.7692466929133859
20
2.0318186614173226
11
1.77
21
2.0319685039370077
0
LINE
8
BLACK
6
CONTINUOUS
10
1.77
20
2.0319685039370077
11
1.8299999999999998
21
2.0319685039370077
0
LINE
8
BLACK
6
CONTINUOUS
10
1.8299999999999998
20
2.0319685039370077
11
1.8307533070866142
21
2.0318186614173226
0
LINE
8
BLACK
6
CONTINUOUS
10
1.9307533070866141
20
2.0318186614173226
11
1.9313919291338582
21
2.031391929133858
0
LINE
8
BLACK
6
CONTINUOUS
10
1.9313919291338582
20
2.031391929133858
11
1.9318186614173227
21
2.0307533070866142
0
LINE
8
BLACK
6
CONTINUOUS
10
1.9318186614173227
20
2.0307533070866142
11
1.9319685039370078
21
2.0299999999999998
0
LINE
8
BLACK
6
CONTINUOUS
10
1.9319685039370078
20
2.0299999999999998
11
1.9319685039370078
21
1.97
0
LINE
8
BLACK
6
CONTINUOUS
10
1.9319685039370078
20
1.97
11
1.9318186614173227
21
1.9692466929133858
0
LINE
8
BLACK
6
CONTINUOUS
10
1.9318186614173227
20
1.9692466929133858
11
1.9313919291338582
21
1.9686080708661418
0
LINE
8
BLACK
6
CONTINUOUS
10
1.9313919291338582
20
1.9686080708661418
11
1.9307533070866141
21
1.9681813385826772
0
LINE
8
BLACK
6
CONTINUOUS
10
1.9307533070866141
20
1.9681813385826772
11
1.9299999999999999
21
1.9680314960629921
0
LINE
8
BLACK
6
CONTINUOUS
10
1.9299999999999999
20
1.9680314960629921
11
1.8699999999999999
21
1.9680314960629921
0
LINE
8
BLACK
6
CONTINUOUS
10
1.8699999999999999
20
1.9680314960629921
11
1.8692466929133857
21
1.9681813385826772
0
LINE
8
BLACK
6
CONTINUOUS
10
1.8692466929133857
20
1.9681813385826772
11
1.8686080708661417
21
1.9686080708661418
0
LINE
8
BLACK
6
CONTINUOUS
10
1.8686080708661417
20
1.9686080708661418
11
1.8681813385826771
21
1.9692466929133858
0
LINE
8
BLACK
6
CONTINUOUS
10
1.8681813385826771
20
1.9692466929133858
11
1.868031496062992
21
1.97
0
LINE
8
BLACK
6
CONTINUOUS
10
1.868031496062992
20
1.97
11
1.868031496062992
21
2.0299999999999998
0
LINE
8
BLACK
6
CONTINUOUS
10
1.868031496062992
20
2.0299999999999998
11
1.8681813385826771
21
2.0307533070866142
0
LINE
8
BLACK
6
CONTINUOUS
10
1.8681813385826771
20
2.0307533070866142
11
1.8686080708661417
21
2.031391929133858
0
LINE
8
BLACK
6
CONTINUOUS
10
1.8686080708661417
20
2.031391929133858
11
1.8692466929133857
21
2.0318186614173226
0
LINE
8
BLACK
6
CONTINUOUS
10
1.8692466929133857
20
2.0318186614173226
11
1.8699999999999999
21
2.0319685039370077
0
LINE
8
BLACK
6
CONTINUOUS
10
1.8699999999999999
20
2.0319685039370077
11
1.9299999999999999
21
2.0319685039370077
0
LINE
8
BLACK
6
CONTINUOUS
10
1.9299999999999999
20
2.0319685039370077
11
1.9307533070866141
21
2.0318186614173226
0
LINE
8
BLACK
6
CONTINUOUS
10
2.0307533070866142
20
2.0318186614173226
11
2.031391929133858
21
2.031391929133858
0
LINE
8
BLACK
6
CONTINUOUS
10
2.031391929133858
20
2.031391929133858
11
2.0318186614173226
21
2.0307533070866142
0
LINE
8
BLACK
6
CONTINUOUS
10
2.0318186614173226
20
2.0307533070866142
11
2.0319685039370077
21
2.0299999999999998
0
LINE
8
BLACK
6
CONTINUOUS
10
2.0319685039370077
20
2.0299999999999998
11
2.0319685039370077
21
1.97
0
LINE
8
BLACK
6
CONTINUOUS
10
2.0319685039370077
20
1.97
11
2.0318186614173226
21
1.9692466929133858
0
LINE
8
BLACK
6
CONTINUOUS
10
2.0318186614173226
20
1.9692466929133858
11
2.031391929133858
21
1.9686080708661418
0
LINE
8
BLACK
6
CONTINUOUS
10
2.031391929133858
20
1.9686080708661418
11
2.0307533070866142
21
1.9681813385826772
0
LINE
8
BLACK
6
CONTINUOUS
10
2.0307533070866142
20
1.9681813385826772
11
2.0299999999999998
21
1.9680314960629921
0
LINE
8
BLACK
6
CONTINUOUS
10
2.0299999999999998
20
1.9680314960629921
11
1.97
21
1.9680314960629921
0
LINE
8
BLACK
6
CONTINUOUS
10
1.97
20
1.9680314960629921
11
1.9692466929133858
21
1.9681813385826772
0
LINE
8
BLACK
6
CONTINUOUS
10
1.9692466929133858
20
1.9681813385826772
11
1.9686080708661418
21
1.9686080708661418
0
LINE
8
BLACK
6
CONTINUOUS
10
1.9686080708661418
20
1.9686080708661418
11
1.9681813385826772
21
1.9692466929133858
0
LINE
8
BLACK
6
CONTINUOUS
10
1.9681813385826772
20
1.9692466929133858
11
1.9680314960629921
21
1.97
0
LINE
8
BLACK
6
CONTINUOUS
10
1.9680314960629921
20
1.97
11
1.9680314960629921
21
2.0299999999999998
0
LINE
8
BLACK
6
CONTINUOUS
10
1.9680314960629921
20
2.0299999999999998
11
1.9681813385826772
21
2.0307533070866142
0
LINE
8
BLACK
6
CONTINUOUS
10
1.9681813385826772
20
2.0307533070866142
11
1.9686080708661418
21
2.031391929133858
0
LINE
8
BLACK
6
CONTINUOUS
10
1.9686080708661418
20
2.031391929133858
11
1.9692466929133858
21
2.0318186614173226
0
LINE
8
BLACK
6
CONTINUOUS
10
1.9692466929133858
20
2.0318186614173226
11
1.97
21
2.0319685039370077
0
LINE
8
BLACK
6
CONTINUOUS
10
1.97
20
2.0319685039370077
11
2.0299999999999998
21
2.0319685039370077
0
LINE
8
BLACK
6
CONTINUOUS
10
2.0299999999999998
20
2.0319685039370077
11
2.0307533070866142
21
2.0318186614173226
0
LINE
8
BLACK
6
CONTINUOUS
10
2.1307533070866143
20
2.0318186614173226
11
2.1313919291338581
21
2.031391929133858
0
LINE
8
BLACK
6
CONTINUOUS
10
2.1313919291338581
20
2.031391929133858
11
2.1318186614173227
21
2.0307533070866142
0
LINE
8
BLACK
6
CONTINUOUS
10
2.1318186614173227
20
2.0307533070866142
11
2.1319685039370078
21
2.0299999999999998
0
LINE
8
BLACK
6
CONTINUOUS
10
2.1319685039370078
20
2.0299999999999998
11
2.1319685039370078
21
1.97
0
LINE
8
BLACK
6
CONTINUOUS
10
2.1319685039370078
20
1.97
11
2.1318186614173227
21
1.9692466929133858
0
LINE
8
BLACK
6
CONTINUOUS
10
2.1318186614173227
20
1.9692466929133858
11
2.1313919291338581
21
1.9686080708661418
0
LINE
8
BLACK
6
CONTINUOUS
10
2.1313919291338581
20
1.9686080708661418
11
2.1307533070866143
21
1.9681813385826772
0
LINE
8
BLACK
6
CONTINUOUS
10
2.1307533070866143
20
1.9681813385826772
11
2.1299999999999999
21
1.9680314960629921
0
LINE
8
BLACK
6
CONTINUOUS
10
2.1299999999999999
20
1.9680314960629921
11
2.0699999999999998
21
1.9680314960629921
0
LINE
8
BLACK
6
CONTINUOUS
10
2.0699999999999998
20
1.9680314960629921
11
2.0692466929133859
21
1.9681813385826772
0
LINE
8
BLACK
6
CONTINUOUS
10
2.0692466929133859
20
1.9681813385826772
11
2.0686080708661416
21
1.9686080708661418
0
LINE
8
BLACK
6
CONTINUOUS
10
2.0686080708661416
20
1.9686080708661418
11
2.0681813385826771
21
1.9692466929133858
0
LINE
8
BLACK
6
CONTINUOUS
10
2.0681813385826771
20
1.9692466929133858
11
2.068031496062992
21
1.97
0
LINE
8
BLACK
6
CONTINUOUS
10
2.068031496062992
20
1.97
11
2.068031496062992
21
2.0299999999999998
0
LINE
8
BLACK
6
CONTINUOUS
10
2.068031496062992
20
2.0299999999999998
11
2.0681813385826771
21
2.0307533070866142
0
LINE
8
BLACK
6
CONTINUOUS
10
2.0681813385826771
20
2.0307533070866142
11
2.0686080708661416
21
2.031391929133858
0
LINE
8
BLACK
6
CONTINUOUS
10
2.0686080708661416
20
2.031391929133858
11
2.0692466929133859
21
2.0318186614173226
0
LINE
8
BLACK
6
CONTINUOUS
10
2.0692466929133859
20
2.0318186614173226
11
2.0699999999999998
21
2.0319685039370077
0
LINE
8
BLACK
6
CONTINUOUS
10
2.0699999999999998
20
2.0319685039370077
11
2.1299999999999999
21
2.0319685039370077
0
LINE
8
BLACK
6
CONTINUOUS
10
2.1299999999999999
20
2.0319685039370077
11
2.1307533070866143
21
2.0318186614173226
0
LINE
8
BLACK
6
CONTINUOUS
10
2.2307533070866139
20
2.0318186614173226
11
2.2313919291338582
21
2.031391929133858
0
LINE
8
BLACK
6
CONTINUOUS
10
2.2313919291338582
20
2.031391929133858
11
2.2318186614173228
21
2.0307533070866142
0
LINE
8
BLACK
6
CONTINUOUS
10
2.2318186614173228
20
2.0307533070866142
11
2.2319685039370079
21
2.0299999999999998
0
LINE
8
BLACK
6
CONTINUOUS
10
2.2319685039370079
20
2.0299999999999998
11
2.2319685039370079
21
1.97
0
LINE
8
BLACK
6
CONTINUOUS
10
2.2319685039370079
20
1.97
11
2.2318186614173228
21
1.9692466929133858
0
LINE
8
BLACK
6
CONTINUOUS
10
2.2318186614173228
20
1.9692466929133858
11
2.2313919291338582
21
1.9686080708661418
0
LINE
8
BLACK
6
CONTINUOUS
10
2.2313919291338582
20
1.9686080708661418
11
2.2307533070866139
21
1.9681813385826772
0
LINE
8
BLACK
6
CONTINUOUS
10
2.2307533070866139
20
1.9681813385826772
11
2.23
21
1.9680314960629921
0
LINE
8
BLACK
6
CONTINUOUS
10
2.23
20
1.9680314960629921
11
2.1699999999999999
21
1.9680314960629921
0
LINE
8
BLACK
6
CONTINUOUS
10
2.1699999999999999
20
1.9680314960629921
11
2.1692466929133856
21
1.9681813385826772
0
LINE
8
BLACK
6
CONTINUOUS
10
2.1692466929133856
20
1.9681813385826772
11
2.1686080708661417
21
1.9686080708661418
0
LINE
8
BLACK
6
CONTINUOUS
10
2.1686080708661417
20
1.9686080708661418
11
2.1681813385826771
21
1.9692466929133858
0
LINE
8
BLACK
6
CONTINUOUS
10
2.1681813385826771
20
1.9692466929133858
11
2.1680314960629921
21
1.97
0
LINE
8
BLACK
6
CONTINUOUS
10
2.1680314960629921
20
1.97
11
2.1680314960629921
21
2.0299999999999998
0
LINE
8
BLACK
6
CONTINUOUS
10
2.1680314960629921
20
2.0299999999999998
11
2.1681813385826771
21
2.0307533070866142
0
LINE
8
BLACK
6
CONTINUOUS
10
2.1681813385826771
20
2.0307533070866142
11
2.1686080708661417
21
2.031391929133858
0
LINE
8
BLACK
6
CONTINUOUS
10
2.1686080708661417
20
2.031391929133858
11
2.1692466929133856
21
2.0318186614173226
0
LINE
8
BLACK
6
CONTINUOUS
10
2.1692466929133856
20
2.0318186614173226
11
2.1699999999999999
21
2.0319685039370077
0
LINE
8
BLACK
6
CONTINUOUS
10
2.1699999999999999
20
2.0319685039370077
11
2.23
21
2.0319685039370077
0
LINE
8
BLACK
6
CONTINUOUS
10
2.23
20
2.0319685039370077
11
2.2307533070866139
21
2.0318186614173226
0
LINE
8
BLACK
6
CONTINUOUS
10
2.330753307086614
20
2.0318186614173226
11
2.3313919291338583
21
2.031391929133858
0
LINE
8
BLACK
6
CONTINUOUS
10
2.3313919291338583
20
2.031391929133858
11
2.3318186614173229
21
2.0307533070866142
0
LINE
8
BLACK
6
CONTINUOUS
10
2.3318186614173229
20
2.0307533070866142
11
2.3319685039370079
21
2.0299999999999998
0
LINE
8
BLACK
6
CONTINUOUS
10
2.3319685039370079
20
2.0299999999999998
11
2.3319685039370079
21
1.97
0
LINE
8
BLACK
6
CONTINUOUS
10
2.3319685039370079
20
1.97
11
2.3318186614173229
21
1.9692466929133858
0
LINE
8
BLACK
6
CONTINUOUS
10
2.3318186614173229
20
1.9692466929133858
11
2.3313919291338583
21
1.9686080708661418
0
LINE
8
BLACK
6
CONTINUOUS
10
2.3313919291338583
20
1.9686080708661418
11
2.330753307086614
21
1.9681813385826772
0
LINE
8
BLACK
6
CONTINUOUS
10
2.330753307086614
20
1.9681813385826772
11
2.3300000000000001
21
1.9680314960629921
0
LINE
8
BLACK
6
CONTINUOUS
10
2.3300000000000001
20
1.9680314960629921
11
2.27
21
1.9680314960629921
0
LINE
8
BLACK
6
CONTINUOUS
10
2.27
20
1.9680314960629921
11
2.2692466929133857
21
1.9681813385826772
0
LINE
8
BLACK
6
CONTINUOUS
10
2.2692466929133857
20
1.9681813385826772
11
2.2686080708661418
21
1.9686080708661418
0
LINE
8
BLACK
6
CONTINUOUS
10
2.2686080708661418
20
1.9686080708661418
11
2.2681813385826772
21
1.9692466929133858
0
LINE
8
BLACK
6
CONTINUOUS
10
2.2681813385826772
20
1.9692466929133858
11
2.2680314960629921
21
1.97
0
LINE
8
BLACK
6
CONTINUOUS
10
2.2680314960629921
20
1.97
11
2.2680314960629921
21
2.0299999999999998
0
LINE
8
BLACK
6
CONTINUOUS
10
2.2680314960629921
20
2.0299999999999998
11
2.2681813385826772
21
2.0307533070866142
0
LINE
8
BLACK
6
CONTINUOUS
10
2.2681813385826772
20
2.0307533070866142
11
2.2686080708661418
21
2.031391929133858
0
LINE
8
BLACK
6
CONTINUOUS
10
2.2686080708661418
20
2.031391929133858
11
2.2692466929133857
21
2.0318186614173226
0
LINE
8
BLACK
6
CONTINUOUS
10
2.2692466929133857
20
2.0318186614173226
11
2.27
21
2.0319685039370077
0
LINE
8
BLACK
6
CONTINUOUS
10
2.27
20
2.0319685039370077
11
2.3300000000000001
21
2.0319685039370077
0
LINE
8
BLACK
6
CONTINUOUS
10
2.3300000000000001
20
2.0319685039370077
11
2.330753307086614
21
2.0318186614173226
0
LINE
8
BLACK
6
CONTINUOUS
10
0.9307533070866142
20
2.1318186614173227
11
0.9313919291338583
21
2.1313919291338581
0
LINE
8
BLACK
6
CONTINUOUS
10
0.9313919291338583
20
2.1313919291338581
11
0.9318186614173228
21
2.1307533070866143
0
LINE
8
BLACK
6
CONTINUOUS
10
0.9318186614173228
20
2.1307533070866143
11
0.9319685039370078
21
2.1299999999999999
0
LINE
8
BLACK
6
CONTINUOUS
10
0.9319685039370078
20
2.1299999999999999
11
0.9319685039370078
21
2.0699999999999998
0
LINE
8
BLACK
6
CONTINUOUS
10
0.9319685039370078
20
2.0699999999999998
11
0.9318186614173228
21
2.0692466929133859
0
LINE
8
BLACK
6
CONTINUOUS
10
0.9318186614173228
20
2.0692466929133859
11
0.9313919291338583
21
2.0686080708661416
0
LINE
8
BLACK
6
CONTINUOUS
10
0.9313919291338583
20
2.0686080708661416
11
0.9307533070866142
21
2.0681813385826771
0
LINE
8
BLACK
6
CONTINUOUS
10
0.9307533070866142
20
2.0681813385826771
11
0.9299999999999999
21
2.068031496062992
0
LINE
8
BLACK
6
CONTINUOUS
10
0.9299999999999999
20
2.068031496062992
11
0.87
21
2.068031496062992
0
LINE
8
BLACK
6
CONTINUOUS
10
0.87
20
2.068031496062992
11
0.8692466929133859
21
2.0681813385826771
0
LINE
8
BLACK
6
CONTINUOUS
10
0.8692466929133859
20
2.0681813385826771
11
0.8686080708661417
21
2.0686080708661416
0
LINE
8
BLACK
6
CONTINUOUS
10
0.8686080708661417
20
2.0686080708661416
11
0.8681813385826771
21
2.0692466929133859
0
LINE
8
BLACK
6
CONTINUOUS
10
0.8681813385826771
20
2.0692466929133859
11
0.8680314960629921
21
2.0699999999999998
0
LINE
8
BLACK
6
CONTINUOUS
10
0.8680314960629921
20
2.0699999999999998
11
0.8680314960629921
21
2.1299999999999999
0
LINE
8
BLACK
6
CONTINUOUS
10
0.8680314960629921
20
2.1299999999999999
11
0.8681813385826771
21
2.1307533070866143
0
LINE
8
BLACK
6
CONTINUOUS
10
0.8681813385826771
20
2.1307533070866143
11
0.8686080708661417
21
2.1313919291338581
0
LINE
8
BLACK
6
CONTINUOUS
10
0.8686080708661417
20
2.1313919291338581
11
0.8692466929133859
21
2.1318186614173227
0
LINE
8
BLACK
6
CONTINUOUS
10
0.8692466929133859
20
2.1318186614173227
11
0.87
21
2.1319685039370078
0
LINE
8
BLACK
6
CONTINUOUS
10
0.87
20
2.1319685039370078
11
0.9299999999999999
21
2.1319685039370078
0
LINE
8
BLACK
6
CONTINUOUS
10
0.9299999999999999
20
2.1319685039370078
11
0.9307533070866142
21
2.1318186614173227
0
LINE
8
BLACK
6
CONTINUOUS
10
1.0307533070866142
20
2.1318186614173227
11
1.0313919291338582
21
2.1313919291338581
0
LINE
8
BLACK
6
CONTINUOUS
10
1.0313919291338582
20
2.1313919291338581
11
1.0318186614173228
21
2.1307533070866143
0
LINE
8
BLACK
6
CONTINUOUS
10
1.0318186614173228
20
2.1307533070866143
11
1.0319685039370079
21
2.1299999999999999
0
LINE
8
BLACK
6
CONTINUOUS
10
1.0319685039370079
20
2.1299999999999999
11
1.0319685039370079
21
2.0699999999999998
0
LINE
8
BLACK
6
CONTINUOUS
10
1.0319685039370079
20
2.0699999999999998
11
1.0318186614173228
21
2.0692466929133859
0
LINE
8
BLACK
6
CONTINUOUS
10
1.0318186614173228
20
2.0692466929133859
11
1.0313919291338582
21
2.0686080708661416
0
LINE
8
BLACK
6
CONTINUOUS
10
1.0313919291338582
20
2.0686080708661416
11
1.0307533070866142
21
2.0681813385826771
0
LINE
8
BLACK
6
CONTINUOUS
10
1.0307533070866142
20
2.0681813385826771
11
1.03
21
2.068031496062992
0
LINE
8
BLACK
6
CONTINUOUS
10
1.03
20
2.068031496062992
11
0.97
21
2.068031496062992
0
LINE
8
BLACK
6
CONTINUOUS
10
0.97
20
2.068031496062992
11
0.9692466929133858
21
2.0681813385826771
0
LINE
8
BLACK
6
CONTINUOUS
10
0.9692466929133858
20
2.0681813385826771
11
0.9686080708661418
21
2.0686080708661416
0
LINE
8
BLACK
6
CONTINUOUS
10
0.9686080708661418
20
2.0686080708661416
11
0.9681813385826772
21
2.0692466929133859
0
LINE
8
BLACK
6
CONTINUOUS
10
0.9681813385826772
20
2.0692466929133859
11
0.9680314960629921
21
2.0699999999999998
0
LINE
8
BLACK
6
CONTINUOUS
10
0.9680314960629921
20
2.0699999999999998
11
0.9680314960629921
21
2.1299999999999999
0
LINE
8
BLACK
6
CONTINUOUS
10
0.9680314960629921
20
2.1299999999999999
11
0.9681813385826772
21
2.1307533070866143
0
LINE
8
BLACK
6
CONTINUOUS
10
0.9681813385826772
20
2.1307533070866143
11
0.9686080708661418
21
2.1313919291338581
0
LINE
8
BLACK
6
CONTINUOUS
10
0.9686080708661418
20
2.1313919291338581
11
0.9692466929133858
21
2.1318186614173227
0
LINE
8
BLACK
6
CONTINUOUS
10
0.9692466929133858
20
2.1318186614173227
11
0.97
21
2.1319685039370078
0
LINE
8
BLACK
6
CONTINUOUS
10
0.97
20
2.1319685039370078
11
1.03
21
2.1319685039370078
0
LINE
8
BLACK
6
CONTINUOUS
10
1.03
20
2.1319685039370078
11
1.0307533070866142
21
2.1318186614173227
0
LINE
8
BLACK
6
CONTINUOUS
10
1.1307533070866143
20
2.1318186614173227
11
1.1313919291338583
21
2.1313919291338581
0
LINE
8
BLACK
6
CONTINUOUS
10
1.1313919291338583
20
2.1313919291338581
11
1.1318186614173229
21
2.1307533070866143
0
LINE
8
BLACK
6
CONTINUOUS
10
1.1318186614173229
20
2.1307533070866143
11
1.1319685039370078
21
2.1299999999999999
0
LINE
8
BLACK
6
CONTINUOUS
10
1.1319685039370078
20
2.1299999999999999
11
1.1319685039370078
21
2.0699999999999998
0
LINE
8
BLACK
6
CONTINUOUS
10
1.1319685039370078
20
2.0699999999999998
11
1.1318186614173229
21
2.0692466929133859
0
LINE
8
BLACK
6
CONTINUOUS
10
1.1318186614173229
20
2.0692466929133859
11
1.1313919291338583
21
2.0686080708661416
0
LINE
8
BLACK
6
CONTINUOUS
10
1.1313919291338583
20
2.0686080708661416
11
1.1307533070866143
21
2.0681813385826771
0
LINE
8
BLACK
6
CONTINUOUS
10
1.1307533070866143
20
2.0681813385826771
11
1.1299999999999999
21
2.068031496062992
0
LINE
8
BLACK
6
CONTINUOUS
10
1.1299999999999999
20
2.068031496062992
11
1.0700000000000001
21
2.068031496062992
0
LINE
8
BLACK
6
CONTINUOUS
10
1.0700000000000001
20
2.068031496062992
11
1.0692466929133857
21
2.0681813385826771
0
LINE
8
BLACK
6
CONTINUOUS
10
1.0692466929133857
20
2.0681813385826771
11
1.0686080708661416
21
2.0686080708661416
0
LINE
8
BLACK
6
CONTINUOUS
10
1.0686080708661416
20
2.0686080708661416
11
1.0681813385826771
21
2.0692466929133859
0
LINE
8
BLACK
6
CONTINUOUS
10
1.0681813385826771
20
2.0692466929133859
11
1.0680314960629922
21
2.0699999999999998
0
LINE
8
BLACK
6
CONTINUOUS
10
1.0680314960629922
20
2.0699999999999998
11
1.0680314960629922
21
2.1299999999999999
0
LINE
8
BLACK
6
CONTINUOUS
10
1.0680314960629922
20
2.1299999999999999
11
1.0681813385826771
21
2.1307533070866143
0
LINE
8
BLACK
6
CONTINUOUS
10
1.0681813385826771
20
2.1307533070866143
11
1.0686080708661416
21
2.1313919291338581
0
LINE
8
BLACK
6
CONTINUOUS
10
1.0686080708661416
20
2.1313919291338581
11
1.0692466929133857
21
2.1318186614173227
0
LINE
8
BLACK
6
CONTINUOUS
10
1.0692466929133857
20
2.1318186614173227
11
1.0700000000000001
21
2.1319685039370078
0
LINE
8
BLACK
6
CONTINUOUS
10
1.0700000000000001
20
2.1319685039370078
11
1.1299999999999999
21
2.1319685039370078
0
LINE
8
BLACK
6
CONTINUOUS
10
1.1299999999999999
20
2.1319685039370078
11
1.1307533070866143
21
2.1318186614173227
0
LINE
8
BLACK
6
CONTINUOUS
10
1.2307533070866141
20
2.1318186614173227
11
1.2313919291338582
21
2.1313919291338581
0
LINE
8
BLACK
6
CONTINUOUS
10
1.2313919291338582
20
2.1313919291338581
11
1.2318186614173228
21
2.1307533070866143
0
LINE
8
BLACK
6
CONTINUOUS
10
1.2318186614173228
20
2.1307533070866143
11
1.2319685039370079
21
2.1299999999999999
0
LINE
8
BLACK
6
CONTINUOUS
10
1.2319685039370079
20
2.1299999999999999
11
1.2319685039370079
21
2.0699999999999998
0
LINE
8
BLACK
6
CONTINUOUS
10
1.2319685039370079
20
2.0699999999999998
11
1.2318186614173228
21
2.0692466929133859
0
LINE
8
BLACK
6
CONTINUOUS
10
1.2318186614173228
20
2.0692466929133859
11
1.2313919291338582
21
2.0686080708661416
0
LINE
8
BLACK
6
CONTINUOUS
10
1.2313919291338582
20
2.0686080708661416
11
1.2307533070866141
21
2.0681813385826771
0
LINE
8
BLACK
6
CONTINUOUS
10
1.2307533070866141
20
2.0681813385826771
11
1.23
21
2.068031496062992
0
LINE
8
BLACK
6
CONTINUOUS
10
1.23
20
2.068031496062992
11
1.1699999999999999
21
2.068031496062992
0
LINE
8
BLACK
6
CONTINUOUS
10
1.1699999999999999
20
2.068031496062992
11
1.1692466929133858
21
2.0681813385826771
0
LINE
8
BLACK
6
CONTINUOUS
10
1.1692466929133858
20
2.0681813385826771
11
1.1686080708661417
21
2.0686080708661416
0
LINE
8
BLACK
6
CONTINUOUS
10
1.1686080708661417
20
2.0686080708661416
11
1.1681813385826771
21
2.0692466929133859
0
LINE
8
BLACK
6
CONTINUOUS
10
1.1681813385826771
20
2.0692466929133859
11
1.1680314960629921
21
2.0699999999999998
0
LINE
8
BLACK
6
CONTINUOUS
10
1.1680314960629921
20
2.0699999999999998
11
1.1680314960629921
21
2.1299999999999999
0
LINE
8
BLACK
6
CONTINUOUS
10
1.1680314960629921
20
2.1299999999999999
11
1.1681813385826771
21
2.1307533070866143
0
LINE
8
BLACK
6
CONTINUOUS
10
1.1681813385826771
20
2.1307533070866143
11
1.1686080708661417
21
2.1313919291338581
0
LINE
8
BLACK
6
CONTINUOUS
10
1.1686080708661417
20
2.1313919291338581
11
1.1692466929133858
21
2.1318186614173227
0
LINE
8
BLACK
6
CONTINUOUS
10
1.1692466929133858
20
2.1318186614173227
11
1.1699999999999999
21
2.1319685039370078
0
LINE
8
BLACK
6
CONTINUOUS
10
1.1699999999999999
20
2.1319685039370078
11
1.23
21
2.1319685039370078
0
LINE
8
BLACK
6
CONTINUOUS
10
1.23
20
2.1319685039370078
11
1.2307533070866141
21
2.1318186614173227
0
LINE
8
BLACK
6
CONTINUOUS
10
1.3307533070866142
20
2.1318186614173227
11
1.3313919291338583
21
2.1313919291338581
0
LINE
8
BLACK
6
CONTINUOUS
10
1.3313919291338583
20
2.1313919291338581
11
1.3318186614173229
21
2.1307533070866143
0
LINE
8
BLACK
6
CONTINUOUS
10
1.3318186614173229
20
2.1307533070866143
11
1.3319685039370079
21
2.1299999999999999
0
LINE
8
BLACK
6
CONTINUOUS
10
1.3319685039370079
20
2.1299999999999999
11
1.3319685039370079
21
2.0699999999999998
0
LINE
8
BLACK
6
CONTINUOUS
10
1.3319685039370079
20
2.0699999999999998
11
1.3318186614173229
21
2.0692466929133859
0
LINE
8
BLACK
6
CONTINUOUS
10
1.3318186614173229
20
2.0692466929133859
11
1.3313919291338583
21
2.0686080708661416
0
LINE
8
BLACK
6
CONTINUOUS
10
1.3313919291338583
20
2.0686080708661416
11
1.3307533070866142
21
2.0681813385826771
0
LINE
8
BLACK
6
CONTINUOUS
10
1.3307533070866142
20
2.0681813385826771
11
1.3300000000000001
21
2.068031496062992
0
LINE
8
BLACK
6
CONTINUOUS
10
1.3300000000000001
20
2.068031496062992
11
1.27
21
2.068031496062992
0
LINE
8
BLACK
6
CONTINUOUS
10
1.27
20
2.068031496062992
11
1.2692466929133859
21
2.0681813385826771
0
LINE
8
BLACK
6
CONTINUOUS
10
1.2692466929133859
20
2.0681813385826771
11
1.2686080708661418
21
2.0686080708661416
0
LINE
8
BLACK
6
CONTINUOUS
10
1.2686080708661418
20
2.0686080708661416
11
1.2681813385826772
21
2.0692466929133859
0
LINE
8
BLACK
6
CONTINUOUS
10
1.2681813385826772
20
2.0692466929133859
11
1.2680314960629921
21
2.0699999999999998
0
LINE
8
BLACK
6
CONTINUOUS
10
1.2680314960629921
20
2.0699999999999998
11
1.2680314960629921
21
2.1299999999999999
0
LINE
8
BLACK
6
CONTINUOUS
10
1.2680314960629921
20
2.1299999999999999
11
1.2681813385826772
21
2.1307533070866143
0
LINE
8
BLACK
6
CONTINUOUS
10
1.2681813385826772
20
2.1307533070866143
11
1.2686080708661418
21
2.1313919291338581
0
LINE
8
BLACK
6
CONTINUOUS
10
1.2686080708661418
20
2.1313919291338581
11
1.2692466929133859
21
2.1318186614173227
0
LINE
8
BLACK
6
CONTINUOUS
10
1.2692466929133859
20
2.1318186614173227
11
1.27
21
2.1319685039370078
0
LINE
8
BLACK
6
CONTINUOUS
10
1.27
20
2.1319685039370078
11
1.3300000000000001
21
2.1319685039370078
0
LINE
8
BLACK
6
CONTINUOUS
10
1.3300000000000001
20
2.1319685039370078
11
1.3307533070866142
21
2.1318186614173227
0
LINE
8
BLACK
6
CONTINUOUS
10
1.4307533070866141
20
2.1318186614173227
11
1.4313919291338582
21
2.1313919291338581
0
LINE
8
BLACK
6
CONTINUOUS
10
1.4313919291338582
20
2.1313919291338581
11
1.4318186614173227
21
2.1307533070866143
0
LINE
8
BLACK
6
CONTINUOUS
10
1.4318186614173227
20
2.1307533070866143
11
1.4319685039370078
21
2.1299999999999999
0
LINE
8
BLACK
6
CONTINUOUS
10
1.4319685039370078
20
2.1299999999999999
11
1.4319685039370078
21
2.0699999999999998
0
LINE
8
BLACK
6
CONTINUOUS
10
1.4319685039370078
20
2.0699999999999998
11
1.4318186614173227
21
2.0692466929133859
0
LINE
8
BLACK
6
CONTINUOUS
10
1.4318186614173227
20
2.0692466929133859
11
1.4313919291338582
21
2.0686080708661416
0
LINE
8
BLACK
6
CONTINUOUS
10
1.4313919291338582
20
2.0686080708661416
11
1.4307533070866141
21
2.0681813385826771
0
LINE
8
BLACK
6
CONTINUOUS
10
1.4307533070866141
20
2.0681813385826771
11
1.4299999999999999
21
2.068031496062992
0
LINE
8
BLACK
6
CONTINUOUS
10
1.4299999999999999
20
2.068031496062992
11
1.3699999999999999
21
2.068031496062992
0
LINE
8
BLACK
6
CONTINUOUS
10
1.3699999999999999
20
2.068031496062992
11
1.3692466929133857
21
2.0681813385826771
0
LINE
8
BLACK
6
CONTINUOUS
10
1.3692466929133857
20
2.0681813385826771
11
1.3686080708661417
21
2.0686080708661416
0
LINE
8
BLACK
6
CONTINUOUS
10
1.3686080708661417
20
2.0686080708661416
11
1.3681813385826771
21
2.0692466929133859
0
LINE
8
BLACK
6
CONTINUOUS
10
1.3681813385826771
20
2.0692466929133859
11
1.368031496062992
21
2.0699999999999998
0
LINE
8
BLACK
6
CONTINUOUS
10
1.368031496062992
20
2.0699999999999998
11
1.368031496062992
21
2.1299999999999999
0
LINE
8
BLACK
6
CONTINUOUS
10
1.368031496062992
20
2.1299999999999999
11
1.3681813385826771
21
2.1307533070866143
0
LINE
8
BLACK
6
CONTINUOUS
10
1.3681813385826771
20
2.1307533070866143
11
1.3686080708661417
21
2.1313919291338581
0
LINE
8
BLACK
6
CONTINUOUS
10
1.3686080708661417
20
2.1313919291338581
11
1.3692466929133857
21
2.1318186614173227
0
LINE
8
BLACK
6
CONTINUOUS
10
1.3692466929133857
20
2.1318186614173227
11
1.3699999999999999
21
2.1319685039370078
0
LINE
8
BLACK
6
CONTINUOUS
10
1.3699999999999999
20
2.1319685039370078
11
1.4299999999999999
21
2.1319685039370078
0
LINE
8
BLACK
6
CONTINUOUS
10
1.4299999999999999
20
2.1319685039370078
11
1.4307533070866141
21
2.1318186614173227
0
LINE
8
BLACK
6
CONTINUOUS
10
1.5307533070866142
20
2.1318186614173227
11
1.5313919291338582
21
2.1313919291338581
0
LINE
8
BLACK
6
CONTINUOUS
10
1.5313919291338582
20
2.1313919291338581
11
1.5318186614173228
21
2.1307533070866143
0
LINE
8
BLACK
6
CONTINUOUS
10
1.5318186614173228
20
2.1307533070866143
11
1.5319685039370079
21
2.1299999999999999
0
LINE
8
BLACK
6
CONTINUOUS
10
1.5319685039370079
20
2.1299999999999999
11
1.5319685039370079
21
2.0699999999999998
0
LINE
8
BLACK
6
CONTINUOUS
10
1.5319685039370079
20
2.0699999999999998
11
1.5318186614173228
21
2.0692466929133859
0
LINE
8
BLACK
6
CONTINUOUS
10
1.5318186614173228
20
2.0692466929133859
11
1.5313919291338582
21
2.0686080708661416
0
LINE
8
BLACK
6
CONTINUOUS
10
1.5313919291338582
20
2.0686080708661416
11
1.5307533070866142
21
2.0681813385826771
0
LINE
8
BLACK
6
CONTINUOUS
10
1.5307533070866142
20
2.0681813385826771
11
1.53
21
2.068031496062992
0
LINE
8
BLACK
6
CONTINUOUS
10
1.53
20
2.068031496062992
11
1.47
21
2.068031496062992
0
LINE
8
BLACK
6
CONTINUOUS
10
1.47
20
2.068031496062992
11
1.4692466929133858
21
2.0681813385826771
0
LINE
8
BLACK
6
CONTINUOUS
10
1.4692466929133858
20
2.0681813385826771
11
1.4686080708661418
21
2.0686080708661416
0
LINE
8
BLACK
6
CONTINUOUS
10
1.4686080708661418
20
2.0686080708661416
11
1.4681813385826772
21
2.0692466929133859
0
LINE
8
BLACK
6
CONTINUOUS
10
1.4681813385826772
20
2.0692466929133859
11
1.4680314960629921
21
2.0699999999999998
0
LINE
8
BLACK
6
CONTINUOUS
10
1.4680314960629921
20
2.0699999999999998
11
1.4680314960629921
21
2.1299999999999999
0
LINE
8
BLACK
6
CONTINUOUS
10
1.4680314960629921
20
2.1299999999999999
11
1.4681813385826772
21
2.1307533070866143
0
LINE
8
BLACK
6
CONTINUOUS
10
1.4681813385826772
20
2.1307533070866143
11
1.4686080708661418
21
2.1313919291338581
0
LINE
8
BLACK
6
CONTINUOUS
10
1.4686080708661418
20
2.1313919291338581
11
1.4692466929133858
21
2.1318186614173227
0
LINE
8
BLACK
6
CONTINUOUS
10
1.4692466929133858
20
2.1318186614173227
11
1.47
21
2.1319685039370078
0
LINE
8
BLACK
6
CONTINUOUS
10
1.47
20
2.1319685039370078
11
1.53
21
2.1319685039370078
0
LINE
8
BLACK
6
CONTINUOUS
10
1.53
20
2.1319685039370078
11
1.5307533070866142
21
2.1318186614173227
0
LINE
8
BLACK
6
CONTINUOUS
10
1.630753307086614
20
2.1318186614173227
11
1.6313919291338583
21
2.1313919291338581
0
LINE
8
BLACK
6
CONTINUOUS
10
1.6313919291338583
20
2.1313919291338581
11
1.6318186614173229
21
2.1307533070866143
0
LINE
8
BLACK
6
CONTINUOUS
10
1.6318186614173229
20
2.1307533070866143
11
1.6319685039370078
21
2.1299999999999999
0
LINE
8
BLACK
6
CONTINUOUS
10
1.6319685039370078
20
2.1299999999999999
11
1.6319685039370078
21
2.0699999999999998
0
LINE
8
BLACK
6
CONTINUOUS
10
1.6319685039370078
20
2.0699999999999998
11
1.6318186614173229
21
2.0692466929133859
0
LINE
8
BLACK
6
CONTINUOUS
10
1.6318186614173229
20
2.0692466929133859
11
1.6313919291338583
21
2.0686080708661416
0
LINE
8
BLACK
6
CONTINUOUS
10
1.6313919291338583
20
2.0686080708661416
11
1.630753307086614
21
2.0681813385826771
0
LINE
8
BLACK
6
CONTINUOUS
10
1.630753307086614
20
2.0681813385826771
11
1.6299999999999999
21
2.068031496062992
0
LINE
8
BLACK
6
CONTINUOUS
10
1.6299999999999999
20
2.068031496062992
11
1.5700000000000001
21
2.068031496062992
0
LINE
8
BLACK
6
CONTINUOUS
10
1.5700000000000001
20
2.068031496062992
11
1.5692466929133857
21
2.0681813385826771
0
LINE
8
BLACK
6
CONTINUOUS
10
1.5692466929133857
20
2.0681813385826771
11
1.5686080708661416
21
2.0686080708661416
0
LINE
8
BLACK
6
CONTINUOUS
10
1.5686080708661416
20
2.0686080708661416
11
1.5681813385826771
21
2.0692466929133859
0
LINE
8
BLACK
6
CONTINUOUS
10
1.5681813385826771
20
2.0692466929133859
11
1.5680314960629922
21
2.0699999999999998
0
LINE
8
BLACK
6
CONTINUOUS
10
1.5680314960629922
20
2.0699999999999998
11
1.5680314960629922
21
2.1299999999999999
0
LINE
8
BLACK
6
CONTINUOUS
10
1.5680314960629922
20
2.1299999999999999
11
1.5681813385826771
21
2.1307533070866143
0
LINE
8
BLACK
6
CONTINUOUS
10
1.5681813385826771
20
2.1307533070866143
11
1.5686080708661416
21
2.1313919291338581
0
LINE
8
BLACK
6
CONTINUOUS
10
1.5686080708661416
20
2.1313919291338581
11
1.5692466929133857
21
2.1318186614173227
0
LINE
8
BLACK
6
CONTINUOUS
10
1.5692466929133857
20
2.1318186614173227
11
1.5700000000000001
21
2.1319685039370078
0
LINE
8
BLACK
6
CONTINUOUS
10
1.5700000000000001
20
2.1319685039370078
11
1.6299999999999999
21
2.1319685039370078
0
LINE
8
BLACK
6
CONTINUOUS
10
1.6299999999999999
20
2.1319685039370078
11
1.630753307086614
21
2.1318186614173227
0
LINE
8
BLACK
6
CONTINUOUS
10
1.7307533070866141
20
2.1318186614173227
11
1.7313919291338582
21
2.1313919291338581
0
LINE
8
BLACK
6
CONTINUOUS
10
1.7313919291338582
20
2.1313919291338581
11
1.7318186614173228
21
2.1307533070866143
0
LINE
8
BLACK
6
CONTINUOUS
10
1.7318186614173228
20
2.1307533070866143
11
1.7319685039370079
21
2.1299999999999999
0
LINE
8
BLACK
6
CONTINUOUS
10
1.7319685039370079
20
2.1299999999999999
11
1.7319685039370079
21
2.0699999999999998
0
LINE
8
BLACK
6
CONTINUOUS
10
1.7319685039370079
20
2.0699999999999998
11
1.7318186614173228
21
2.0692466929133859
0
LINE
8
BLACK
6
CONTINUOUS
10
1.7318186614173228
20
2.0692466929133859
11
1.7313919291338582
21
2.0686080708661416
0
LINE
8
BLACK
6
CONTINUOUS
10
1.7313919291338582
20
2.0686080708661416
11
1.7307533070866141
21
2.0681813385826771
0
LINE
8
BLACK
6
CONTINUOUS
10
1.7307533070866141
20
2.0681813385826771
11
1.73
21
2.068031496062992
0
LINE
8
BLACK
6
CONTINUOUS
10
1.73
20
2.068031496062992
11
1.6699999999999999
21
2.068031496062992
0
LINE
8
BLACK
6
CONTINUOUS
10
1.6699999999999999
20
2.068031496062992
11
1.6692466929133858
21
2.0681813385826771
0
LINE
8
BLACK
6
CONTINUOUS
10
1.6692466929133858
20
2.0681813385826771
11
1.6686080708661417
21
2.0686080708661416
0
LINE
8
BLACK
6
CONTINUOUS
10
1.6686080708661417
20
2.0686080708661416
11
1.6681813385826771
21
2.0692466929133859
0
LINE
8
BLACK
6
CONTINUOUS
10
1.6681813385826771
20
2.0692466929133859
11
1.6680314960629921
21
2.0699999999999998
0
LINE
8
BLACK
6
CONTINUOUS
10
1.6680314960629921
20
2.0699999999999998
11
1.6680314960629921
21
2.1299999999999999
0
LINE
8
BLACK
6
CONTINUOUS
10
1.6680314960629921
20
2.1299999999999999
11
1.6681813385826771
21
2.1307533070866143
0
LINE
8
BLACK
6
CONTINUOUS
10
1.6681813385826771
20
2.1307533070866143
11
1.6686080708661417
21
2.1313919291338581
0
LINE
8
BLACK
6
CONTINUOUS
10
1.6686080708661417
20
2.1313919291338581
11
1.6692466929133858
21
2.1318186614173227
0
LINE
8
BLACK
6
CONTINUOUS
10
1.6692466929133858
20
2.1318186614173227
11
1.6699999999999999
21
2.1319685039370078
0
LINE
8
BLACK
6
CONTINUOUS
10
1.6699999999999999
20
2.1319685039370078
11
1.73
21
2.1319685039370078
0
LINE
8
BLACK
6
CONTINUOUS
10
1.73
20
2.1319685039370078
11
1.7307533070866141
21
2.1318186614173227
0
LINE
8
BLACK
6
CONTINUOUS
10
1.8307533070866142
20
2.1318186614173227
11
1.8313919291338583
21
2.1313919291338581
0
LINE
8
BLACK
6
CONTINUOUS
10
1.8313919291338583
20
2.1313919291338581
11
1.8318186614173229
21
2.1307533070866143
0
LINE
8
BLACK
6
CONTINUOUS
10
1.8318186614173229
20
2.1307533070866143
11
1.8319685039370079
21
2.1299999999999999
0
LINE
8
BLACK
6
CONTINUOUS
10
1.8319685039370079
20
2.1299999999999999
11
1.8319685039370079
21
2.0699999999999998
0
LINE
8
BLACK
6
CONTINUOUS
10
1.8319685039370079
20
2.0699999999999998
11
1.8318186614173229
21
2.0692466929133859
0
LINE
8
BLACK
6
CONTINUOUS
10
1.8318186614173229
20
2.0692466929133859
11
1.8313919291338583
21
2.0686080708661416
0
LINE
8
BLACK
6
CONTINUOUS
10
1.8313919291338583
20
2.0686080708661416
11
1.8307533070866142
21
2.0681813385826771
0
LINE
8
BLACK
6
CONTINUOUS
10
1.8307533070866142
20
2.0681813385826771
11
1.8299999999999998
21
2.068031496062992
0
LINE
8
BLACK
6
CONTINUOUS
10
1.8299999999999998
20
2.068031496062992
11
1.77
21
2.068031496062992
0
LINE
8
BLACK
6
CONTINUOUS
10
1.77
20
2.068031496062992
11
1.7692466929133859
21
2.0681813385826771
0
LINE
8
BLACK
6
CONTINUOUS
10
1.7692466929133859
20
2.0681813385826771
11
1.7686080708661418
21
2.0686080708661416
0
LINE
8
BLACK
6
CONTINUOUS
10
1.7686080708661418
20
2.0686080708661416
11
1.7681813385826772
21
2.0692466929133859
0
LINE
8
BLACK
6
CONTINUOUS
10
1.7681813385826772
20
2.0692466929133859
11
1.7680314960629921
21
2.0699999999999998
0
LINE
8
BLACK
6
CONTINUOUS
10
1.7680314960629921
20
2.0699999999999998
11
1.7680314960629921
21
2.1299999999999999
0
LINE
8
BLACK
6
CONTINUOUS
10
1.7680314960629921
20
2.1299999999999999
11
1.7681813385826772
21
2.1307533070866143
0
LINE
8
BLACK
6
CONTINUOUS
10
1.7681813385826772
20
2.1307533070866143
11
1.7686080708661418
21
2.1313919291338581
0
LINE
8
BLACK
6
CONTINUOUS
10
1.7686080708661418
20
2.1313919291338581
11
1.7692466929133859
21
2.1318186614173227
0
LINE
8
BLACK
6
CONTINUOUS
10
1.7692466929133859
20
2.1318186614173227
11
1.77
21
2.1319685039370078
0
LINE
8
BLACK
6
CONTINUOUS
10
1.77
20
2.1319685039370078
11
1.8299999999999998
21
2.1319685039370078
0
LINE
8
BLACK
6
CONTINUOUS
10
1.8299999999999998
20
2.1319685039370078
11
1.8307533070866142
21
2.1318186614173227
0
LINE
8
BLACK
6
CONTINUOUS
10
1.9307533070866141
20
2.1318186614173227
11
1.9313919291338582
21
2.1313919291338581
0
LINE
8
BLACK
6
CONTINUOUS
10
1.9313919291338582
20
2.1313919291338581
11
1.9318186614173227
21
2.1307533070866143
0
LINE
8
BLACK
6
CONTINUOUS
10
1.9318186614173227
20
2.1307533070866143
11
1.9319685039370078
21
2.1299999999999999
0
LINE
8
BLACK
6
CONTINUOUS
10
1.9319685039370078
20
2.1299999999999999
11
1.9319685039370078
21
2.0699999999999998
0
LINE
8
BLACK
6
CONTINUOUS
10
1.9319685039370078
20
2.0699999999999998
11
1.9318186614173227
21
2.0692466929133859
0
LINE
8
BLACK
6
CONTINUOUS
10
1.9318186614173227
20
2.0692466929133859
11
1.9313919291338582
21
2.0686080708661416
0
LINE
8
BLACK
6
CONTINUOUS
10
1.9313919291338582
20
2.0686080708661416
11
1.9307533070866141
21
2.0681813385826771
0
LINE
8
BLACK
6
CONTINUOUS
10
1.9307533070866141
20
2.0681813385826771
11
1.9299999999999999
21
2.068031496062992
0
LINE
8
BLACK
6
CONTINUOUS
10
1.9299999999999999
20
2.068031496062992
11
1.8699999999999999
21
2.068031496062992
0
LINE
8
BLACK
6
CONTINUOUS
10
1.8699999999999999
20
2.068031496062992
11
1.8692466929133857
21
2.0681813385826771
0
LINE
8
BLACK
6
CONTINUOUS
10
1.8692466929133857
20
2.0681813385826771
11
1.8686080708661417
21
2.0686080708661416
0
LINE
8
BLACK
6
CONTINUOUS
10
1.8686080708661417
20
2.0686080708661416
11
1.8681813385826771
21
2.0692466929133859
0
LINE
8
BLACK
6
CONTINUOUS
10
1.8681813385826771
20
2.0692466929133859
11
1.868031496062992
21
2.0699999999999998
0
LINE
8
BLACK
6
CONTINUOUS
10
1.868031496062992
20
2.0699999999999998
11
1.868031496062992
21
2.1299999999999999
0
LINE
8
BLACK
6
CONTINUOUS
10
1.868031496062992
20
2.1299999999999999
11
1.8681813385826771
21
2.1307533070866143
0
LINE
8
BLACK
6
CONTINUOUS
10
1.8681813385826771
20
2.1307533070866143
11
1.8686080708661417
21
2.1313919291338581
0
LINE
8
BLACK
6
CONTINUOUS
10
1.8686080708661417
20
2.1313919291338581
11
1.8692466929133857
21
2.1318186614173227
0
LINE
8
BLACK
6
CONTINUOUS
10
1.8692466929133857
20
2.1318186614173227
11
1.8699999999999999
21
2.1319685039370078
0
LINE
8
BLACK
6
CONTINUOUS
10
1.8699999999999999
20
2.1319685039370078
11
1.9299999999999999
21
2.1319685039370078
0
LINE
8
BLACK
6
CONTINUOUS
10
1.9299999999999999
20
2.1319685039370078
11
1.9307533070866141
21
2.1318186614173227
0
LINE
8
BLACK
6
CONTINUOUS
10
2.0307533070866142
20
2.1318186614173227
11
2.031391929133858
21
2.1313919291338581
0
LINE
8
BLACK
6
CONTINUOUS
10
2.031391929133858
20
2.1313919291338581
11
2.0318186614173226
21
2.1307533070866143
0
LINE
8
BLACK
6
CONTINUOUS
10
2.0318186614173226
20
2.1307533070866143
11
2.0319685039370077
21
2.1299999999999999
0
LINE
8
BLACK
6
CONTINUOUS
10
2.0319685039370077
20
2.1299999999999999
11
2.0319685039370077
21
2.0699999999999998
0
LINE
8
BLACK
6
CONTINUOUS
10
2.0319685039370077
20
2.0699999999999998
11
2.0318186614173226
21
2.0692466929133859
0
LINE
8
BLACK
6
CONTINUOUS
10
2.0318186614173226
20
2.0692466929133859
11
2.031391929133858
21
2.0686080708661416
0
LINE
8
BLACK
6
CONTINUOUS
10
2.031391929133858
20
2.0686080708661416
11
2.0307533070866142
21
2.0681813385826771
0
LINE
8
BLACK
6
CONTINUOUS
10
2.0307533070866142
20
2.0681813385826771
11
2.0299999999999998
21
2.068031496062992
0
LINE
8
BLACK
6
CONTINUOUS
10
2.0299999999999998
20
2.068031496062992
11
1.97
21
2.068031496062992
0
LINE
8
BLACK
6
CONTINUOUS
10
1.97
20
2.068031496062992
11
1.9692466929133858
21
2.0681813385826771
0
LINE
8
BLACK
6
CONTINUOUS
10
1.9692466929133858
20
2.0681813385826771
11
1.9686080708661418
21
2.0686080708661416
0
LINE
8
BLACK
6
CONTINUOUS
10
1.9686080708661418
20
2.0686080708661416
11
1.9681813385826772
21
2.0692466929133859
0
LINE
8
BLACK
6
CONTINUOUS
10
1.9681813385826772
20
2.0692466929133859
11
1.9680314960629921
21
2.0699999999999998
0
LINE
8
BLACK
6
CONTINUOUS
10
1.9680314960629921
20
2.0699999999999998
11
1.9680314960629921
21
2.1299999999999999
0
LINE
8
BLACK
6
CONTINUOUS
10
1.9680314960629921
20
2.1299999999999999
11
1.9681813385826772
21
2.1307533070866143
0
LINE
8
BLACK
6
CONTINUOUS
10
1.9681813385826772
20
2.1307533070866143
11
1.9686080708661418
21
2.1313919291338581
0
LINE
8
BLACK
6
CONTINUOUS
10
1.9686080708661418
20
2.1313919291338581
11
1.9692466929133858
21
2.1318186614173227
0
LINE
8
BLACK
6
CONTINUOUS
10
1.9692466929133858
20
2.1318186614173227
11
1.97
21
2.1319685039370078
0
LINE
8
BLACK
6
CONTINUOUS
10
1.97
20
2.1319685039370078
11
2.0299999999999998
21
2.1319685039370078
0
LINE
8
BLACK
6
CONTINUOUS
10
2.0299999999999998
20
2.1319685039370078
11
2.0307533070866142
21
2.1318186614173227
0
LINE
8
BLACK
6
CONTINUOUS
10
2.1307533070866143
20
2.1318186614173227
11
2.1313919291338581
21
2.1313919291338581
0
LINE
8
BLACK
6
CONTINUOUS
10
2.1313919291338581
20
2.1313919291338581
11
2.1318186614173227
21
2.1307533070866143
0
LINE
8
BLACK
6
CONTINUOUS
10
2.1318186614173227
20
2.1307533070866143
11
2.1319685039370078
21
2.1299999999999999
0
LINE
8
BLACK
6
CONTINUOUS
10
2.1319685039370078
20
2.1299999999999999
11
2.1319685039370078
21
2.0699999999999998
0
LINE
8
BLACK
6
CONTINUOUS
10
2.1319685039370078
20
2.0699999999999998
11
2.1318186614173227
21
2.0692466929133859
0
LINE
8
BLACK
6
CONTINUOUS
10
2.1318186614173227
20
2.0692466929133859
11
2.1313919291338581
21
2.0686080708661416
0
LINE
8
BLACK
6
CONTINUOUS
10
2.1313919291338581
20
2.0686080708661416
11
2.1307533070866143
21
2.0681813385826771
0
LINE
8
BLACK
6
CONTINUOUS
10
2.1307533070866143
20
2.0681813385826771
11
2.1299999999999999
21
2.068031496062992
0
LINE
8
BLACK
6
CONTINUOUS
10
2.1299999999999999
20
2.068031496062992
11
2.0699999999999998
21
2.068031496062992
0
LINE
8
BLACK
6
CONTINUOUS
10
2.0699999999999998
20
2.068031496062992
11
2.0692466929133859
21
2.0681813385826771
0
LINE
8
BLACK
6
CONTINUOUS
10
2.0692466929133859
20
2.0681813385826771
11
2.0686080708661416
21
2.0686080708661416
0
LINE
8
BLACK
6
CONTINUOUS
10
2.0686080708661416
20
2.0686080708661416
11
2.0681813385826771
21
2.0692466929133859
0
LINE
8
BLACK
6
CONTINUOUS
10
2.0681813385826771
20
2.0692466929133859
11
2.068031496062992
21
2.0699999999999998
0
LINE
8
BLACK
6
CONTINUOUS
10
2.068031496062992
20
2.0699999999999998
11
2.068031496062992
21
2.1299999999999999
0
LINE
8
BLACK
6
CONTINUOUS
10
2.068031496062992
20
2.1299999999999999
11
2.0681813385826771
21
2.1307533070866143
0
LINE
8
BLACK
6
CONTINUOUS
10
2.0681813385826771
20
2.1307533070866143
11
2.0686080708661416
21
2.1313919291338581
0
LINE
8
BLACK
6
CONTINUOUS
10
2.0686080708661416
20
2.1313919291338581
11
2.0692466929133859
21
2.1318186614173227
0
LINE
8
BLACK
6
CONTINUOUS
10
2.0692466929133859
20
2.1318186614173227
11
2.0699999999999998
21
2.1319685039370078
0
LINE
8
BLACK
6
CONTINUOUS
10
2.0699999999999998
20
2.1319685039370078
11
2.1299999999999999
21
2.1319685039370078
0
LINE
8
BLACK
6
CONTINUOUS
10
2.1299999999999999
20
2.1319685039370078
11
2.1307533070866143
21
2.1318186614173227
0
LINE
8
BLACK
6
CONTINUOUS
10
2.2307533070866139
20
2.1318186614173227
11
2.2313919291338582
21
2.1313919291338581
0
LINE
8
BLACK
6
CONTINUOUS
10
2.2313919291338582
20
2.1313919291338581
11
2.2318186614173228
21
2.1307533070866143
0
LINE
8
BLACK
6
CONTINUOUS
10
2.2318186614173228
20
2.1307533070866143
11
2.2319685039370079
21
2.1299999999999999
0
LINE
8
BLACK
6
CONTINUOUS
10
2.2319685039370079
20
2.1299999999999999
11
2.2319685039370079
21
2.0699999999999998
0
LINE
8
BLACK
6
CONTINUOUS
10
2.2319685039370079
20
2.0699999999999998
11
2.2318186614173228
21
2.0692466929133859
0
LINE
8
BLACK
6
CONTINUOUS
10
2.2318186614173228
20
2.0692466929133859
11
2.2313919291338582
21
2.0686080708661416
0
LINE
8
BLACK
6
CONTINUOUS
10
2.2313919291338582
20
2.0686080708661416
11
2.2307533070866139
21
2.0681813385826771
0
LINE
8
BLACK
6
CONTINUOUS
10
2.2307533070866139
20
2.0681813385826771
11
2.23
21
2.068031496062992
0
LINE
8
BLACK
6
CONTINUOUS
10
2.23
20
2.068031496062992
11
2.1699999999999999
21
2.068031496062992
0
LINE
8
BLACK
6
CONTINUOUS
10
2.1699999999999999
20
2.068031496062992
11
2.1692466929133856
21
2.0681813385826771
0
LINE
8
BLACK
6
CONTINUOUS
10
2.1692466929133856
20
2.0681813385826771
11
2.1686080708661417
21
2.0686080708661416
0
LINE
8
BLACK
6
CONTINUOUS
10
2.1686080708661417
20
2.0686080708661416
11
2.1681813385826771
21
2.0692466929133859
0
LINE
8
BLACK
6
CONTINUOUS
10
2.1681813385826771
20
2.0692466929133859
11
2.1680314960629921
21
2.0699999999999998
0
LINE
8
BLACK
6
CONTINUOUS
10
2.1680314960629921
20
2.0699999999999998
11
2.1680314960629921
21
2.1299999999999999
0
LINE
8
BLACK
6
CONTINUOUS
10
2.1680314960629921
20
2.1299999999999999
11
2.1681813385826771
21
2.1307533070866143
0
LINE
8
BLACK
6
CONTINUOUS
10
2.1681813385826771
20
2.1307533070866143
11
2.1686080708661417
21
2.1313919291338581
0
LINE
8
BLACK
6
CONTINUOUS
10
2.1686080708661417
20
2.1313919291338581
11
2.1692466929133856
21
2.1318186614173227
0
LINE
8
BLACK
6
CONTINUOUS
10
2.1692466929133856
20
2.1318186614173227
11
2.1699999999999999
21
2.1319685039370078
0
LINE
8
BLACK
6
CONTINUOUS
10
2.1699999999999999
20
2.1319685039370078
11
2.23
21
2.1319685039370078
0
LINE
8
BLACK
6
CONTINUOUS
10
2.23
20
2.1319685039370078
11
2.2307533070866139
21
2.1318186614173227
0
LINE
8
BLACK
6
CONTINUOUS
10
2.330753307086614
20
2.1318186614173227
11
2.3313919291338583
21
2.1313919291338581
0
LINE
8
BLACK
6
CONTINUOUS
10
2.3313919291338583
20
2.1313919291338581
11
2.3318186614173229
21
2.1307533070866143
0
LINE
8
BLACK
6
CONTINUOUS
10
2.3318186614173229
20
2.1307533070866143
11
2.3319685039370079
21
2.1299999999999999
0
LINE
8
BLACK
6
CONTINUOUS
10
2.3319685039370079
20
2.1299999999999999
11
2.3319685039370079
21
2.0699999999999998
0
LINE
8
BLACK
6
CONTINUOUS
10
2.3319685039370079
20
2.0699999999999998
11
2.3318186614173229
21
2.0692466929133859
0
LINE
8
BLACK
6
CONTINUOUS
10
2.3318186614173229
20
2.0692466929133859
11
2.3313919291338583
21
2.0686080708661416
0
LINE
8
BLACK
6
CONTINUOUS
10
2.3313919291338583
20
2.0686080708661416
11
2.330753307086614
21
2.0681813385826771
0
LINE
8
BLACK
6
CONTINUOUS
10
2.330753307086614
20
2.0681813385826771
11
2.3300000000000001
21
2.068031496062992
0
LINE
8
BLACK
6
CONTINUOUS
10
2.3300000000000001
20
2.068031496062992
11
2.27
21
2.068031496062992
0
LINE
8
BLACK
6
CONTINUOUS
10
2.27
20
2.068031496062992
11
2.2692466929133857
21
2.0681813385826771
0
LINE
8
BLACK
6
CONTINUOUS
10
2.2692466929133857
20
2.0681813385826771
11
2.2686080708661418
21
2.0686080708661416
0
LINE
8
BLACK
6
CONTINUOUS
10
2.2686080708661418
20
2.0686080708661416
11
2.2681813385826772
21
2.0692466929133859
0
LINE
8
BLACK
6
CONTINUOUS
10
2.2681813385826772
20
2.0692466929133859
11
2.2680314960629921
21
2.0699999999999998
0
LINE
8
BLACK
6
CONTINUOUS
10
2.2680314960629921
20
2.0699999999999998
11
2.2680314960629921
21
2.1299999999999999
0
LINE
8
BLACK
6
CONTINUOUS
10
2.2680314960629921
20
2.1299999999999999
11
2.2681813385826772
21
2.1307533070866143
0
LINE
8
BLACK
6
CONTINUOUS
10
2.2681813385826772
20
2.1307533070866143
11
2.2686080708661418
21
2.1313919291338581
0
LINE
8
BLACK
6
CONTINUOUS
10
2.2686080708661418
20
2.1313919291338581
11
2.2692466929133857
21
2.1318186614173227
0
LINE
8
BLACK
6
CONTINUOUS
10
2.2692466929133857
20
2.1318186614173227
11
2.27
21
2.1319685039370078
0
LINE
8
BLACK
6
CONTINUOUS
10
2.27
20
2.1319685039370078
11
2.3300000000000001
21
2.1319685039370078
0
LINE
8
BLACK
6
CONTINUOUS
10
2.3300000000000001
20
2.1319685039370078
11
2.330753307086614
21
2.1318186614173227
0
CIRCLE
8
BLACK
10
2.7999999999999998
20
2.
40
0.0068897637795276
0
CIRCLE
8
BLACK
10
0.4
20
0.4
40
0.0068897637795276
0
CIRCLE
8
BLACK
10
2.7999999999999998
20
0.4
40
0.0068897637795276
0
CIRCLE
8
BLACK
10
0.4
20
2.
40
0.0068897637795276
0
CIRCLE
8
BLACK
10
0.9
20
2.
40
0.0068897637795276
0
CIRCLE
8
BLACK
10
0.9
20
2.1000000000000001
40
0.0068897637795276
0
CIRCLE
8
BLACK
10
1.
20
2.
40
0.0068897637795276
0
CIRCLE
8
BLACK
10
1.
20
2.1000000000000001
40
0.0068897637795276
0
CIRCLE
8
BLACK
10
1.0999999999999999
20
2.
40
0.0068897637795276
0
CIRCLE
8
BLACK
10
1.0999999999999999
20
2.1000000000000001
40
0.0068897637795276
0
CIRCLE
8
BLACK
10
1.2
20
2.
40
0.0068897637795276
0
CIRCLE
8
BLACK
10
1.2
20
2.1000000000000001
40
0.0068897637795276
0
CIRCLE
8
BLACK
10
1.3
20
2.
40
0.0068897637795276
0
CIRCLE
8
BLACK
10
1.3
20
2.1000000000000001
40
0.0068897637795276
0
CIRCLE
8
BLACK
10
1.3999999999999999
20
2.
40
0.0068897637795276
0
CIRCLE
8
BLACK
10
1.3999999999999999
20
2.1000000000000001
40
0.0068897637795276
0
CIRCLE
8
BLACK
10
1.5
20
2.
40
0.0068897637795276
0
CIRCLE
8
BLACK
10
1.5
20
2.1000000000000001
40
0.0068897637795276
0
CIRCLE
8
BLACK
10
1.5999999999999999
20
2.
40
0.0068897637795276
0
CIRCLE
8
BLACK
10
1.5999999999999999
20
2.1000000000000001
40
0.0068897637795276
0
CIRCLE
8
BLACK
10
1.7
20
2.
40
0.0068897637795276
0
CIRCLE
8
BLACK
10
1.7
20
2.1000000000000001
40
0.0068897637795276
0
CIRCLE
8
BLACK
10
1.8
20
2.
40
0.0068897637795276
0
CIRCLE
8
BLACK
10
1.8
20
2.1000000000000001
40
0.0068897637795276
0
CIRCLE
8
BLACK
10
1.8999999999999999
20
2.
40
0.0068897637795276
0
CIRCLE
8
BLACK
10
1.8999999999999999
20
2.1000000000000001
40
0.0068897637795276
0
CIRCLE
8
BLACK
10
2.
20
2.
40
0.0068897637795276
0
CIRCLE
8
BLACK
10
2.
20
2.1000000000000001
40
0.0068897637795276
0
CIRCLE
8
BLACK
10
2.1000000000000001
20
2.
40
0.0068897637795276
0
CIRCLE
8
BLACK
10
2.1000000000000001
20
2.1000000000000001
40
0.0068897637795276
0
CIRCLE
8
BLACK
10
2.1999999999999997
20
2.
40
0.0068897637795276
0
CIRCLE
8
BLACK
10
2.1999999999999997
20
2.1000000000000001
40
0.0068897637795276
0
CIRCLE
8
BLACK
10
2.2999999999999998
20
2.
40
0.0068897637795276
0
CIRCLE
8
BLACK
10
2.2999999999999998
20
2.1000000000000001
40
0.0068897637795276
0
CIRCLE
8
WHITE
10
2.7999999999999998
20
2.
40
0.0068897637795276
0
CIRCLE
8
WHITE
10
0.4
20
0.4
40
0.0068897637795276
0
CIRCLE
8
WHITE
10
2.7999999999999998
20
0.4
40
0.0068897637795276
0
CIRCLE
8
WHITE
10
0.4
20
2.
40
0.0068897637795276
0
CIRCLE
8
WHITE
10
0.9
20
2.
40
0.0068897637795276
0
CIRCLE
8
WHITE
10
0.9
20
2.1000000000000001
40
0.0068897637795276
0
CIRCLE
8
WHITE
10
1.
20
2.
40
0.0068897637795276
0
CIRCLE
8
WHITE
10
1.
20
2.1000000000000001
40
0.0068897637795276
0
CIRCLE
8
WHITE
10
1.0999999999999999
20
2.
40
0.0068897637795276
0
CIRCLE
8
WHITE
10
1.0999999999999999
20
2.1000000000000001
40
0.0068897637795276
0
CIRCLE
8
WHITE
10
1.2
20
2.
40
0.0068897637795276
0
CIRCLE
8
WHITE
10
1.2
20
2.1000000000000001
40
0.0068897637795276
0
CIRCLE
8
WHITE
10
1.3
20
2.
40
0.0068897637795276
0
CIRCLE
8
WHITE
10
1.3
20
2.1000000000000001
40
0.0068897637795276
0
CIRCLE
8
WHITE
10
1.3999999999999999
20
2.
40
0.0068897637795276
0
CIRCLE
8
WHITE
10
1.3999999999999999
20
2.1000000000000001
40
0.0068897637795276
0
CIRCLE
8
WHITE
10
1.5
20
2.
40
0.0068897637795276
0
CIRCLE
8
WHITE
10
1.5
20
2.1000000000000001
40
0.0068897637795276
0
CIRCLE
8
WHITE
10
1.5999999999999999
20
2.
40
0.0068897637795276
0
CIRCLE
8
WHITE
10
1.5999999999999999
20
2.1000000000000001
40
0.0068897637795276
0
CIRCLE
8
WHITE
10
1.7
20
2.
40
0.0068897637795276
0
CIRCLE
8
WHITE
10
1.7
20
2.1000000000000001
40
0.0068897637795276
0
CIRCLE
8
WHITE
10
1.8
20
2.
40
0.0068897637795276
0
CIRCLE
8
WHITE
10
1.8
20
2.1000000000000001
40
0.0068897637795276
0
CIRCLE
8
WHITE
10
1.8999999999999999
20
2.
40
0.0068897637795276
0
CIRCLE
8
WHITE
10
1.8999999999999999
20
2.1000000000000001
40
0.0068897637795276
0
CIRCLE
8
WHITE
10
2.
20
2.
40
0.0068897637795276
0
CIRCLE
8
WHITE
10
2.
20
2.1000000000000001
40
0.0068897637795276
0
CIRCLE
8
WHITE
10
2.1000000000000001
20
2.
40
0.0068897637795276
0
CIRCLE
8
WHITE
10
2.1000000000000001
20
2.1000000000000001
40
0.0068897637795276
0
CIRCLE
8
WHITE
10
2.1999999999999997
20
2.
40
0.0068897637795276
0
CIRCLE
8
WHITE
10
2.1999999999999997
20
2.1000000000000001
40
0.0068897637795276
0
CIRCLE
8
WHITE
10
2.2999999999999998
20
2.
40
0.0068897637795276
0
CIRCLE
8
WHITE
10
2.2999999999999998
20
2.1000000000000001
40
0.0068897637795276
  0
ENDSEC
  0
EOF
