%TF.GenerationSoftware,KiCad,Pcbnew,9.0.6+1*%
%TF.CreationDate,2025-12-27T23:03:06+00:00*%
%TF.ProjectId,TFUNIPAYLOAD01,5446554e-4950-4415-994c-4f414430312e,rev?*%
%TF.SameCoordinates,PX66dd020PY81342c0*%
%TF.FileFunction,Legend,Bot*%
%TF.FilePolarity,Positive*%
%FSLAX46Y46*%
G04 Gerber Fmt 4.6, Leading zero omitted, Abs format (unit mm)*
G04 Created by KiCad (PCBNEW 9.0.6+1) date 2025-12-27 23:03:06*
%MOMM*%
%LPD*%
G01*
G04 APERTURE LIST*
%ADD10C,0.150000*%
%ADD11C,0.100000*%
%ADD12C,0.120000*%
G04 APERTURE END LIST*
D10*
X38967580Y40277267D02*
X39015200Y40324886D01*
X39015200Y40324886D02*
X39062819Y40467743D01*
X39062819Y40467743D02*
X39062819Y40562981D01*
X39062819Y40562981D02*
X39015200Y40705838D01*
X39015200Y40705838D02*
X38919961Y40801076D01*
X38919961Y40801076D02*
X38824723Y40848695D01*
X38824723Y40848695D02*
X38634247Y40896314D01*
X38634247Y40896314D02*
X38491390Y40896314D01*
X38491390Y40896314D02*
X38300914Y40848695D01*
X38300914Y40848695D02*
X38205676Y40801076D01*
X38205676Y40801076D02*
X38110438Y40705838D01*
X38110438Y40705838D02*
X38062819Y40562981D01*
X38062819Y40562981D02*
X38062819Y40467743D01*
X38062819Y40467743D02*
X38110438Y40324886D01*
X38110438Y40324886D02*
X38158057Y40277267D01*
X39062819Y39801076D02*
X39062819Y39610600D01*
X39062819Y39610600D02*
X39015200Y39515362D01*
X39015200Y39515362D02*
X38967580Y39467743D01*
X38967580Y39467743D02*
X38824723Y39372505D01*
X38824723Y39372505D02*
X38634247Y39324886D01*
X38634247Y39324886D02*
X38253295Y39324886D01*
X38253295Y39324886D02*
X38158057Y39372505D01*
X38158057Y39372505D02*
X38110438Y39420124D01*
X38110438Y39420124D02*
X38062819Y39515362D01*
X38062819Y39515362D02*
X38062819Y39705838D01*
X38062819Y39705838D02*
X38110438Y39801076D01*
X38110438Y39801076D02*
X38158057Y39848695D01*
X38158057Y39848695D02*
X38253295Y39896314D01*
X38253295Y39896314D02*
X38491390Y39896314D01*
X38491390Y39896314D02*
X38586628Y39848695D01*
X38586628Y39848695D02*
X38634247Y39801076D01*
X38634247Y39801076D02*
X38681866Y39705838D01*
X38681866Y39705838D02*
X38681866Y39515362D01*
X38681866Y39515362D02*
X38634247Y39420124D01*
X38634247Y39420124D02*
X38586628Y39372505D01*
X38586628Y39372505D02*
X38491390Y39324886D01*
X36277866Y44348420D02*
X36325485Y44300800D01*
X36325485Y44300800D02*
X36468342Y44253181D01*
X36468342Y44253181D02*
X36563580Y44253181D01*
X36563580Y44253181D02*
X36706437Y44300800D01*
X36706437Y44300800D02*
X36801675Y44396039D01*
X36801675Y44396039D02*
X36849294Y44491277D01*
X36849294Y44491277D02*
X36896913Y44681753D01*
X36896913Y44681753D02*
X36896913Y44824610D01*
X36896913Y44824610D02*
X36849294Y45015086D01*
X36849294Y45015086D02*
X36801675Y45110324D01*
X36801675Y45110324D02*
X36706437Y45205562D01*
X36706437Y45205562D02*
X36563580Y45253181D01*
X36563580Y45253181D02*
X36468342Y45253181D01*
X36468342Y45253181D02*
X36325485Y45205562D01*
X36325485Y45205562D02*
X36277866Y45157943D01*
X35706437Y44824610D02*
X35801675Y44872229D01*
X35801675Y44872229D02*
X35849294Y44919848D01*
X35849294Y44919848D02*
X35896913Y45015086D01*
X35896913Y45015086D02*
X35896913Y45062705D01*
X35896913Y45062705D02*
X35849294Y45157943D01*
X35849294Y45157943D02*
X35801675Y45205562D01*
X35801675Y45205562D02*
X35706437Y45253181D01*
X35706437Y45253181D02*
X35515961Y45253181D01*
X35515961Y45253181D02*
X35420723Y45205562D01*
X35420723Y45205562D02*
X35373104Y45157943D01*
X35373104Y45157943D02*
X35325485Y45062705D01*
X35325485Y45062705D02*
X35325485Y45015086D01*
X35325485Y45015086D02*
X35373104Y44919848D01*
X35373104Y44919848D02*
X35420723Y44872229D01*
X35420723Y44872229D02*
X35515961Y44824610D01*
X35515961Y44824610D02*
X35706437Y44824610D01*
X35706437Y44824610D02*
X35801675Y44776991D01*
X35801675Y44776991D02*
X35849294Y44729372D01*
X35849294Y44729372D02*
X35896913Y44634134D01*
X35896913Y44634134D02*
X35896913Y44443658D01*
X35896913Y44443658D02*
X35849294Y44348420D01*
X35849294Y44348420D02*
X35801675Y44300800D01*
X35801675Y44300800D02*
X35706437Y44253181D01*
X35706437Y44253181D02*
X35515961Y44253181D01*
X35515961Y44253181D02*
X35420723Y44300800D01*
X35420723Y44300800D02*
X35373104Y44348420D01*
X35373104Y44348420D02*
X35325485Y44443658D01*
X35325485Y44443658D02*
X35325485Y44634134D01*
X35325485Y44634134D02*
X35373104Y44729372D01*
X35373104Y44729372D02*
X35420723Y44776991D01*
X35420723Y44776991D02*
X35515961Y44824610D01*
X36089219Y32761905D02*
X36898742Y32761905D01*
X36898742Y32761905D02*
X36993980Y32714286D01*
X36993980Y32714286D02*
X37041600Y32666667D01*
X37041600Y32666667D02*
X37089219Y32571429D01*
X37089219Y32571429D02*
X37089219Y32380953D01*
X37089219Y32380953D02*
X37041600Y32285715D01*
X37041600Y32285715D02*
X36993980Y32238096D01*
X36993980Y32238096D02*
X36898742Y32190477D01*
X36898742Y32190477D02*
X36089219Y32190477D01*
X36184457Y31761905D02*
X36136838Y31714286D01*
X36136838Y31714286D02*
X36089219Y31619048D01*
X36089219Y31619048D02*
X36089219Y31380953D01*
X36089219Y31380953D02*
X36136838Y31285715D01*
X36136838Y31285715D02*
X36184457Y31238096D01*
X36184457Y31238096D02*
X36279695Y31190477D01*
X36279695Y31190477D02*
X36374933Y31190477D01*
X36374933Y31190477D02*
X36517790Y31238096D01*
X36517790Y31238096D02*
X37089219Y31809524D01*
X37089219Y31809524D02*
X37089219Y31190477D01*
X29471857Y25910381D02*
X29805190Y26386572D01*
X30043285Y25910381D02*
X30043285Y26910381D01*
X30043285Y26910381D02*
X29662333Y26910381D01*
X29662333Y26910381D02*
X29567095Y26862762D01*
X29567095Y26862762D02*
X29519476Y26815143D01*
X29519476Y26815143D02*
X29471857Y26719905D01*
X29471857Y26719905D02*
X29471857Y26577048D01*
X29471857Y26577048D02*
X29519476Y26481810D01*
X29519476Y26481810D02*
X29567095Y26434191D01*
X29567095Y26434191D02*
X29662333Y26386572D01*
X29662333Y26386572D02*
X30043285Y26386572D01*
X28519476Y25910381D02*
X29090904Y25910381D01*
X28805190Y25910381D02*
X28805190Y26910381D01*
X28805190Y26910381D02*
X28900428Y26767524D01*
X28900428Y26767524D02*
X28995666Y26672286D01*
X28995666Y26672286D02*
X29090904Y26624667D01*
X28138523Y26815143D02*
X28090904Y26862762D01*
X28090904Y26862762D02*
X27995666Y26910381D01*
X27995666Y26910381D02*
X27757571Y26910381D01*
X27757571Y26910381D02*
X27662333Y26862762D01*
X27662333Y26862762D02*
X27614714Y26815143D01*
X27614714Y26815143D02*
X27567095Y26719905D01*
X27567095Y26719905D02*
X27567095Y26624667D01*
X27567095Y26624667D02*
X27614714Y26481810D01*
X27614714Y26481810D02*
X28186142Y25910381D01*
X28186142Y25910381D02*
X27567095Y25910381D01*
X40156019Y20103267D02*
X39679828Y20436600D01*
X40156019Y20674695D02*
X39156019Y20674695D01*
X39156019Y20674695D02*
X39156019Y20293743D01*
X39156019Y20293743D02*
X39203638Y20198505D01*
X39203638Y20198505D02*
X39251257Y20150886D01*
X39251257Y20150886D02*
X39346495Y20103267D01*
X39346495Y20103267D02*
X39489352Y20103267D01*
X39489352Y20103267D02*
X39584590Y20150886D01*
X39584590Y20150886D02*
X39632209Y20198505D01*
X39632209Y20198505D02*
X39679828Y20293743D01*
X39679828Y20293743D02*
X39679828Y20674695D01*
X39156019Y19198505D02*
X39156019Y19674695D01*
X39156019Y19674695D02*
X39632209Y19722314D01*
X39632209Y19722314D02*
X39584590Y19674695D01*
X39584590Y19674695D02*
X39536971Y19579457D01*
X39536971Y19579457D02*
X39536971Y19341362D01*
X39536971Y19341362D02*
X39584590Y19246124D01*
X39584590Y19246124D02*
X39632209Y19198505D01*
X39632209Y19198505D02*
X39727447Y19150886D01*
X39727447Y19150886D02*
X39965542Y19150886D01*
X39965542Y19150886D02*
X40060780Y19198505D01*
X40060780Y19198505D02*
X40108400Y19246124D01*
X40108400Y19246124D02*
X40156019Y19341362D01*
X40156019Y19341362D02*
X40156019Y19579457D01*
X40156019Y19579457D02*
X40108400Y19674695D01*
X40108400Y19674695D02*
X40060780Y19722314D01*
X37642780Y27152858D02*
X37690400Y27200477D01*
X37690400Y27200477D02*
X37738019Y27343334D01*
X37738019Y27343334D02*
X37738019Y27438572D01*
X37738019Y27438572D02*
X37690400Y27581429D01*
X37690400Y27581429D02*
X37595161Y27676667D01*
X37595161Y27676667D02*
X37499923Y27724286D01*
X37499923Y27724286D02*
X37309447Y27771905D01*
X37309447Y27771905D02*
X37166590Y27771905D01*
X37166590Y27771905D02*
X36976114Y27724286D01*
X36976114Y27724286D02*
X36880876Y27676667D01*
X36880876Y27676667D02*
X36785638Y27581429D01*
X36785638Y27581429D02*
X36738019Y27438572D01*
X36738019Y27438572D02*
X36738019Y27343334D01*
X36738019Y27343334D02*
X36785638Y27200477D01*
X36785638Y27200477D02*
X36833257Y27152858D01*
X37738019Y26200477D02*
X37738019Y26771905D01*
X37738019Y26486191D02*
X36738019Y26486191D01*
X36738019Y26486191D02*
X36880876Y26581429D01*
X36880876Y26581429D02*
X36976114Y26676667D01*
X36976114Y26676667D02*
X37023733Y26771905D01*
X36738019Y25581429D02*
X36738019Y25486191D01*
X36738019Y25486191D02*
X36785638Y25390953D01*
X36785638Y25390953D02*
X36833257Y25343334D01*
X36833257Y25343334D02*
X36928495Y25295715D01*
X36928495Y25295715D02*
X37118971Y25248096D01*
X37118971Y25248096D02*
X37357066Y25248096D01*
X37357066Y25248096D02*
X37547542Y25295715D01*
X37547542Y25295715D02*
X37642780Y25343334D01*
X37642780Y25343334D02*
X37690400Y25390953D01*
X37690400Y25390953D02*
X37738019Y25486191D01*
X37738019Y25486191D02*
X37738019Y25581429D01*
X37738019Y25581429D02*
X37690400Y25676667D01*
X37690400Y25676667D02*
X37642780Y25724286D01*
X37642780Y25724286D02*
X37547542Y25771905D01*
X37547542Y25771905D02*
X37357066Y25819524D01*
X37357066Y25819524D02*
X37118971Y25819524D01*
X37118971Y25819524D02*
X36928495Y25771905D01*
X36928495Y25771905D02*
X36833257Y25724286D01*
X36833257Y25724286D02*
X36785638Y25676667D01*
X36785638Y25676667D02*
X36738019Y25581429D01*
X47120980Y32875458D02*
X47168600Y32923077D01*
X47168600Y32923077D02*
X47216219Y33065934D01*
X47216219Y33065934D02*
X47216219Y33161172D01*
X47216219Y33161172D02*
X47168600Y33304029D01*
X47168600Y33304029D02*
X47073361Y33399267D01*
X47073361Y33399267D02*
X46978123Y33446886D01*
X46978123Y33446886D02*
X46787647Y33494505D01*
X46787647Y33494505D02*
X46644790Y33494505D01*
X46644790Y33494505D02*
X46454314Y33446886D01*
X46454314Y33446886D02*
X46359076Y33399267D01*
X46359076Y33399267D02*
X46263838Y33304029D01*
X46263838Y33304029D02*
X46216219Y33161172D01*
X46216219Y33161172D02*
X46216219Y33065934D01*
X46216219Y33065934D02*
X46263838Y32923077D01*
X46263838Y32923077D02*
X46311457Y32875458D01*
X47216219Y31923077D02*
X47216219Y32494505D01*
X47216219Y32208791D02*
X46216219Y32208791D01*
X46216219Y32208791D02*
X46359076Y32304029D01*
X46359076Y32304029D02*
X46454314Y32399267D01*
X46454314Y32399267D02*
X46501933Y32494505D01*
X47216219Y30970696D02*
X47216219Y31542124D01*
X47216219Y31256410D02*
X46216219Y31256410D01*
X46216219Y31256410D02*
X46359076Y31351648D01*
X46359076Y31351648D02*
X46454314Y31446886D01*
X46454314Y31446886D02*
X46501933Y31542124D01*
X29577179Y32414258D02*
X29624799Y32461877D01*
X29624799Y32461877D02*
X29672418Y32604734D01*
X29672418Y32604734D02*
X29672418Y32699972D01*
X29672418Y32699972D02*
X29624799Y32842829D01*
X29624799Y32842829D02*
X29529560Y32938067D01*
X29529560Y32938067D02*
X29434322Y32985686D01*
X29434322Y32985686D02*
X29243846Y33033305D01*
X29243846Y33033305D02*
X29100989Y33033305D01*
X29100989Y33033305D02*
X28910513Y32985686D01*
X28910513Y32985686D02*
X28815275Y32938067D01*
X28815275Y32938067D02*
X28720037Y32842829D01*
X28720037Y32842829D02*
X28672418Y32699972D01*
X28672418Y32699972D02*
X28672418Y32604734D01*
X28672418Y32604734D02*
X28720037Y32461877D01*
X28720037Y32461877D02*
X28767656Y32414258D01*
X29672418Y31461877D02*
X29672418Y32033305D01*
X29672418Y31747591D02*
X28672418Y31747591D01*
X28672418Y31747591D02*
X28815275Y31842829D01*
X28815275Y31842829D02*
X28910513Y31938067D01*
X28910513Y31938067D02*
X28958132Y32033305D01*
X28767656Y31080924D02*
X28720037Y31033305D01*
X28720037Y31033305D02*
X28672418Y30938067D01*
X28672418Y30938067D02*
X28672418Y30699972D01*
X28672418Y30699972D02*
X28720037Y30604734D01*
X28720037Y30604734D02*
X28767656Y30557115D01*
X28767656Y30557115D02*
X28862894Y30509496D01*
X28862894Y30509496D02*
X28958132Y30509496D01*
X28958132Y30509496D02*
X29100989Y30557115D01*
X29100989Y30557115D02*
X29672418Y31128543D01*
X29672418Y31128543D02*
X29672418Y30509496D01*
X41384466Y20213820D02*
X41432085Y20166200D01*
X41432085Y20166200D02*
X41574942Y20118581D01*
X41574942Y20118581D02*
X41670180Y20118581D01*
X41670180Y20118581D02*
X41813037Y20166200D01*
X41813037Y20166200D02*
X41908275Y20261439D01*
X41908275Y20261439D02*
X41955894Y20356677D01*
X41955894Y20356677D02*
X42003513Y20547153D01*
X42003513Y20547153D02*
X42003513Y20690010D01*
X42003513Y20690010D02*
X41955894Y20880486D01*
X41955894Y20880486D02*
X41908275Y20975724D01*
X41908275Y20975724D02*
X41813037Y21070962D01*
X41813037Y21070962D02*
X41670180Y21118581D01*
X41670180Y21118581D02*
X41574942Y21118581D01*
X41574942Y21118581D02*
X41432085Y21070962D01*
X41432085Y21070962D02*
X41384466Y21023343D01*
X41003513Y21023343D02*
X40955894Y21070962D01*
X40955894Y21070962D02*
X40860656Y21118581D01*
X40860656Y21118581D02*
X40622561Y21118581D01*
X40622561Y21118581D02*
X40527323Y21070962D01*
X40527323Y21070962D02*
X40479704Y21023343D01*
X40479704Y21023343D02*
X40432085Y20928105D01*
X40432085Y20928105D02*
X40432085Y20832867D01*
X40432085Y20832867D02*
X40479704Y20690010D01*
X40479704Y20690010D02*
X41051132Y20118581D01*
X41051132Y20118581D02*
X40432085Y20118581D01*
X26220657Y26419381D02*
X26553990Y26895572D01*
X26792085Y26419381D02*
X26792085Y27419381D01*
X26792085Y27419381D02*
X26411133Y27419381D01*
X26411133Y27419381D02*
X26315895Y27371762D01*
X26315895Y27371762D02*
X26268276Y27324143D01*
X26268276Y27324143D02*
X26220657Y27228905D01*
X26220657Y27228905D02*
X26220657Y27086048D01*
X26220657Y27086048D02*
X26268276Y26990810D01*
X26268276Y26990810D02*
X26315895Y26943191D01*
X26315895Y26943191D02*
X26411133Y26895572D01*
X26411133Y26895572D02*
X26792085Y26895572D01*
X25268276Y26419381D02*
X25839704Y26419381D01*
X25553990Y26419381D02*
X25553990Y27419381D01*
X25553990Y27419381D02*
X25649228Y27276524D01*
X25649228Y27276524D02*
X25744466Y27181286D01*
X25744466Y27181286D02*
X25839704Y27133667D01*
X24934942Y27419381D02*
X24315895Y27419381D01*
X24315895Y27419381D02*
X24649228Y27038429D01*
X24649228Y27038429D02*
X24506371Y27038429D01*
X24506371Y27038429D02*
X24411133Y26990810D01*
X24411133Y26990810D02*
X24363514Y26943191D01*
X24363514Y26943191D02*
X24315895Y26847953D01*
X24315895Y26847953D02*
X24315895Y26609858D01*
X24315895Y26609858D02*
X24363514Y26514620D01*
X24363514Y26514620D02*
X24411133Y26467000D01*
X24411133Y26467000D02*
X24506371Y26419381D01*
X24506371Y26419381D02*
X24792085Y26419381D01*
X24792085Y26419381D02*
X24887323Y26467000D01*
X24887323Y26467000D02*
X24934942Y26514620D01*
X9580428Y14755991D02*
X9913761Y14755991D01*
X9913761Y14232181D02*
X9913761Y15232181D01*
X9913761Y15232181D02*
X9437571Y15232181D01*
X9056618Y14232181D02*
X9056618Y15232181D01*
X8580428Y14232181D02*
X8580428Y15232181D01*
X8580428Y15232181D02*
X8342333Y15232181D01*
X8342333Y15232181D02*
X8199476Y15184562D01*
X8199476Y15184562D02*
X8104238Y15089324D01*
X8104238Y15089324D02*
X8056619Y14994086D01*
X8056619Y14994086D02*
X8009000Y14803610D01*
X8009000Y14803610D02*
X8009000Y14660753D01*
X8009000Y14660753D02*
X8056619Y14470277D01*
X8056619Y14470277D02*
X8104238Y14375039D01*
X8104238Y14375039D02*
X8199476Y14279800D01*
X8199476Y14279800D02*
X8342333Y14232181D01*
X8342333Y14232181D02*
X8580428Y14232181D01*
X7056619Y14232181D02*
X7628047Y14232181D01*
X7342333Y14232181D02*
X7342333Y15232181D01*
X7342333Y15232181D02*
X7437571Y15089324D01*
X7437571Y15089324D02*
X7532809Y14994086D01*
X7532809Y14994086D02*
X7628047Y14946467D01*
X57454704Y36515881D02*
X57454704Y35706358D01*
X57454704Y35706358D02*
X57407085Y35611120D01*
X57407085Y35611120D02*
X57359466Y35563500D01*
X57359466Y35563500D02*
X57264228Y35515881D01*
X57264228Y35515881D02*
X57073752Y35515881D01*
X57073752Y35515881D02*
X56978514Y35563500D01*
X56978514Y35563500D02*
X56930895Y35611120D01*
X56930895Y35611120D02*
X56883276Y35706358D01*
X56883276Y35706358D02*
X56883276Y36515881D01*
X55883276Y35515881D02*
X56454704Y35515881D01*
X56168990Y35515881D02*
X56168990Y36515881D01*
X56168990Y36515881D02*
X56264228Y36373024D01*
X56264228Y36373024D02*
X56359466Y36277786D01*
X56359466Y36277786D02*
X56454704Y36230167D01*
X59882066Y34815820D02*
X59929685Y34768200D01*
X59929685Y34768200D02*
X60072542Y34720581D01*
X60072542Y34720581D02*
X60167780Y34720581D01*
X60167780Y34720581D02*
X60310637Y34768200D01*
X60310637Y34768200D02*
X60405875Y34863439D01*
X60405875Y34863439D02*
X60453494Y34958677D01*
X60453494Y34958677D02*
X60501113Y35149153D01*
X60501113Y35149153D02*
X60501113Y35292010D01*
X60501113Y35292010D02*
X60453494Y35482486D01*
X60453494Y35482486D02*
X60405875Y35577724D01*
X60405875Y35577724D02*
X60310637Y35672962D01*
X60310637Y35672962D02*
X60167780Y35720581D01*
X60167780Y35720581D02*
X60072542Y35720581D01*
X60072542Y35720581D02*
X59929685Y35672962D01*
X59929685Y35672962D02*
X59882066Y35625343D01*
X59024923Y35720581D02*
X59215399Y35720581D01*
X59215399Y35720581D02*
X59310637Y35672962D01*
X59310637Y35672962D02*
X59358256Y35625343D01*
X59358256Y35625343D02*
X59453494Y35482486D01*
X59453494Y35482486D02*
X59501113Y35292010D01*
X59501113Y35292010D02*
X59501113Y34911058D01*
X59501113Y34911058D02*
X59453494Y34815820D01*
X59453494Y34815820D02*
X59405875Y34768200D01*
X59405875Y34768200D02*
X59310637Y34720581D01*
X59310637Y34720581D02*
X59120161Y34720581D01*
X59120161Y34720581D02*
X59024923Y34768200D01*
X59024923Y34768200D02*
X58977304Y34815820D01*
X58977304Y34815820D02*
X58929685Y34911058D01*
X58929685Y34911058D02*
X58929685Y35149153D01*
X58929685Y35149153D02*
X58977304Y35244391D01*
X58977304Y35244391D02*
X59024923Y35292010D01*
X59024923Y35292010D02*
X59120161Y35339629D01*
X59120161Y35339629D02*
X59310637Y35339629D01*
X59310637Y35339629D02*
X59405875Y35292010D01*
X59405875Y35292010D02*
X59453494Y35244391D01*
X59453494Y35244391D02*
X59501113Y35149153D01*
X51505533Y11542381D02*
X51505533Y10828096D01*
X51505533Y10828096D02*
X51553152Y10685239D01*
X51553152Y10685239D02*
X51648390Y10590000D01*
X51648390Y10590000D02*
X51791247Y10542381D01*
X51791247Y10542381D02*
X51886485Y10542381D01*
X50505533Y10542381D02*
X51076961Y10542381D01*
X50791247Y10542381D02*
X50791247Y11542381D01*
X50791247Y11542381D02*
X50886485Y11399524D01*
X50886485Y11399524D02*
X50981723Y11304286D01*
X50981723Y11304286D02*
X51076961Y11256667D01*
X16503638Y38184943D02*
X16598876Y38232562D01*
X16598876Y38232562D02*
X16694114Y38327800D01*
X16694114Y38327800D02*
X16836971Y38470658D01*
X16836971Y38470658D02*
X16932209Y38518277D01*
X16932209Y38518277D02*
X17027447Y38518277D01*
X16979828Y38280181D02*
X17075066Y38327800D01*
X17075066Y38327800D02*
X17170304Y38423039D01*
X17170304Y38423039D02*
X17217923Y38613515D01*
X17217923Y38613515D02*
X17217923Y38946848D01*
X17217923Y38946848D02*
X17170304Y39137324D01*
X17170304Y39137324D02*
X17075066Y39232562D01*
X17075066Y39232562D02*
X16979828Y39280181D01*
X16979828Y39280181D02*
X16789352Y39280181D01*
X16789352Y39280181D02*
X16694114Y39232562D01*
X16694114Y39232562D02*
X16598876Y39137324D01*
X16598876Y39137324D02*
X16551257Y38946848D01*
X16551257Y38946848D02*
X16551257Y38613515D01*
X16551257Y38613515D02*
X16598876Y38423039D01*
X16598876Y38423039D02*
X16694114Y38327800D01*
X16694114Y38327800D02*
X16789352Y38280181D01*
X16789352Y38280181D02*
X16979828Y38280181D01*
X16170304Y39184943D02*
X16122685Y39232562D01*
X16122685Y39232562D02*
X16027447Y39280181D01*
X16027447Y39280181D02*
X15789352Y39280181D01*
X15789352Y39280181D02*
X15694114Y39232562D01*
X15694114Y39232562D02*
X15646495Y39184943D01*
X15646495Y39184943D02*
X15598876Y39089705D01*
X15598876Y39089705D02*
X15598876Y38994467D01*
X15598876Y38994467D02*
X15646495Y38851610D01*
X15646495Y38851610D02*
X16217923Y38280181D01*
X16217923Y38280181D02*
X15598876Y38280181D01*
X69095857Y28821420D02*
X69143476Y28773800D01*
X69143476Y28773800D02*
X69286333Y28726181D01*
X69286333Y28726181D02*
X69381571Y28726181D01*
X69381571Y28726181D02*
X69524428Y28773800D01*
X69524428Y28773800D02*
X69619666Y28869039D01*
X69619666Y28869039D02*
X69667285Y28964277D01*
X69667285Y28964277D02*
X69714904Y29154753D01*
X69714904Y29154753D02*
X69714904Y29297610D01*
X69714904Y29297610D02*
X69667285Y29488086D01*
X69667285Y29488086D02*
X69619666Y29583324D01*
X69619666Y29583324D02*
X69524428Y29678562D01*
X69524428Y29678562D02*
X69381571Y29726181D01*
X69381571Y29726181D02*
X69286333Y29726181D01*
X69286333Y29726181D02*
X69143476Y29678562D01*
X69143476Y29678562D02*
X69095857Y29630943D01*
X68143476Y28726181D02*
X68714904Y28726181D01*
X68429190Y28726181D02*
X68429190Y29726181D01*
X68429190Y29726181D02*
X68524428Y29583324D01*
X68524428Y29583324D02*
X68619666Y29488086D01*
X68619666Y29488086D02*
X68714904Y29440467D01*
X67810142Y29726181D02*
X67191095Y29726181D01*
X67191095Y29726181D02*
X67524428Y29345229D01*
X67524428Y29345229D02*
X67381571Y29345229D01*
X67381571Y29345229D02*
X67286333Y29297610D01*
X67286333Y29297610D02*
X67238714Y29249991D01*
X67238714Y29249991D02*
X67191095Y29154753D01*
X67191095Y29154753D02*
X67191095Y28916658D01*
X67191095Y28916658D02*
X67238714Y28821420D01*
X67238714Y28821420D02*
X67286333Y28773800D01*
X67286333Y28773800D02*
X67381571Y28726181D01*
X67381571Y28726181D02*
X67667285Y28726181D01*
X67667285Y28726181D02*
X67762523Y28773800D01*
X67762523Y28773800D02*
X67810142Y28821420D01*
X56980057Y37237781D02*
X57313390Y37713972D01*
X57551485Y37237781D02*
X57551485Y38237781D01*
X57551485Y38237781D02*
X57170533Y38237781D01*
X57170533Y38237781D02*
X57075295Y38190162D01*
X57075295Y38190162D02*
X57027676Y38142543D01*
X57027676Y38142543D02*
X56980057Y38047305D01*
X56980057Y38047305D02*
X56980057Y37904448D01*
X56980057Y37904448D02*
X57027676Y37809210D01*
X57027676Y37809210D02*
X57075295Y37761591D01*
X57075295Y37761591D02*
X57170533Y37713972D01*
X57170533Y37713972D02*
X57551485Y37713972D01*
X56027676Y37237781D02*
X56599104Y37237781D01*
X56313390Y37237781D02*
X56313390Y38237781D01*
X56313390Y38237781D02*
X56408628Y38094924D01*
X56408628Y38094924D02*
X56503866Y37999686D01*
X56503866Y37999686D02*
X56599104Y37952067D01*
X55408628Y38237781D02*
X55313390Y38237781D01*
X55313390Y38237781D02*
X55218152Y38190162D01*
X55218152Y38190162D02*
X55170533Y38142543D01*
X55170533Y38142543D02*
X55122914Y38047305D01*
X55122914Y38047305D02*
X55075295Y37856829D01*
X55075295Y37856829D02*
X55075295Y37618734D01*
X55075295Y37618734D02*
X55122914Y37428258D01*
X55122914Y37428258D02*
X55170533Y37333020D01*
X55170533Y37333020D02*
X55218152Y37285400D01*
X55218152Y37285400D02*
X55313390Y37237781D01*
X55313390Y37237781D02*
X55408628Y37237781D01*
X55408628Y37237781D02*
X55503866Y37285400D01*
X55503866Y37285400D02*
X55551485Y37333020D01*
X55551485Y37333020D02*
X55599104Y37428258D01*
X55599104Y37428258D02*
X55646723Y37618734D01*
X55646723Y37618734D02*
X55646723Y37856829D01*
X55646723Y37856829D02*
X55599104Y38047305D01*
X55599104Y38047305D02*
X55551485Y38142543D01*
X55551485Y38142543D02*
X55503866Y38190162D01*
X55503866Y38190162D02*
X55408628Y38237781D01*
X29692980Y19927867D02*
X29740600Y19975486D01*
X29740600Y19975486D02*
X29788219Y20118343D01*
X29788219Y20118343D02*
X29788219Y20213581D01*
X29788219Y20213581D02*
X29740600Y20356438D01*
X29740600Y20356438D02*
X29645361Y20451676D01*
X29645361Y20451676D02*
X29550123Y20499295D01*
X29550123Y20499295D02*
X29359647Y20546914D01*
X29359647Y20546914D02*
X29216790Y20546914D01*
X29216790Y20546914D02*
X29026314Y20499295D01*
X29026314Y20499295D02*
X28931076Y20451676D01*
X28931076Y20451676D02*
X28835838Y20356438D01*
X28835838Y20356438D02*
X28788219Y20213581D01*
X28788219Y20213581D02*
X28788219Y20118343D01*
X28788219Y20118343D02*
X28835838Y19975486D01*
X28835838Y19975486D02*
X28883457Y19927867D01*
X28788219Y19594533D02*
X28788219Y18975486D01*
X28788219Y18975486D02*
X29169171Y19308819D01*
X29169171Y19308819D02*
X29169171Y19165962D01*
X29169171Y19165962D02*
X29216790Y19070724D01*
X29216790Y19070724D02*
X29264409Y19023105D01*
X29264409Y19023105D02*
X29359647Y18975486D01*
X29359647Y18975486D02*
X29597742Y18975486D01*
X29597742Y18975486D02*
X29692980Y19023105D01*
X29692980Y19023105D02*
X29740600Y19070724D01*
X29740600Y19070724D02*
X29788219Y19165962D01*
X29788219Y19165962D02*
X29788219Y19451676D01*
X29788219Y19451676D02*
X29740600Y19546914D01*
X29740600Y19546914D02*
X29692980Y19594533D01*
X66886057Y37339381D02*
X67219390Y37815572D01*
X67457485Y37339381D02*
X67457485Y38339381D01*
X67457485Y38339381D02*
X67076533Y38339381D01*
X67076533Y38339381D02*
X66981295Y38291762D01*
X66981295Y38291762D02*
X66933676Y38244143D01*
X66933676Y38244143D02*
X66886057Y38148905D01*
X66886057Y38148905D02*
X66886057Y38006048D01*
X66886057Y38006048D02*
X66933676Y37910810D01*
X66933676Y37910810D02*
X66981295Y37863191D01*
X66981295Y37863191D02*
X67076533Y37815572D01*
X67076533Y37815572D02*
X67457485Y37815572D01*
X66505104Y38244143D02*
X66457485Y38291762D01*
X66457485Y38291762D02*
X66362247Y38339381D01*
X66362247Y38339381D02*
X66124152Y38339381D01*
X66124152Y38339381D02*
X66028914Y38291762D01*
X66028914Y38291762D02*
X65981295Y38244143D01*
X65981295Y38244143D02*
X65933676Y38148905D01*
X65933676Y38148905D02*
X65933676Y38053667D01*
X65933676Y38053667D02*
X65981295Y37910810D01*
X65981295Y37910810D02*
X66552723Y37339381D01*
X66552723Y37339381D02*
X65933676Y37339381D01*
X65552723Y38244143D02*
X65505104Y38291762D01*
X65505104Y38291762D02*
X65409866Y38339381D01*
X65409866Y38339381D02*
X65171771Y38339381D01*
X65171771Y38339381D02*
X65076533Y38291762D01*
X65076533Y38291762D02*
X65028914Y38244143D01*
X65028914Y38244143D02*
X64981295Y38148905D01*
X64981295Y38148905D02*
X64981295Y38053667D01*
X64981295Y38053667D02*
X65028914Y37910810D01*
X65028914Y37910810D02*
X65600342Y37339381D01*
X65600342Y37339381D02*
X64981295Y37339381D01*
X54861619Y13654067D02*
X54861619Y14130257D01*
X54861619Y14130257D02*
X53861619Y14130257D01*
X54861619Y12796924D02*
X54861619Y13368352D01*
X54861619Y13082638D02*
X53861619Y13082638D01*
X53861619Y13082638D02*
X54004476Y13177876D01*
X54004476Y13177876D02*
X54099714Y13273114D01*
X54099714Y13273114D02*
X54147333Y13368352D01*
X56478466Y39293420D02*
X56526085Y39245800D01*
X56526085Y39245800D02*
X56668942Y39198181D01*
X56668942Y39198181D02*
X56764180Y39198181D01*
X56764180Y39198181D02*
X56907037Y39245800D01*
X56907037Y39245800D02*
X57002275Y39341039D01*
X57002275Y39341039D02*
X57049894Y39436277D01*
X57049894Y39436277D02*
X57097513Y39626753D01*
X57097513Y39626753D02*
X57097513Y39769610D01*
X57097513Y39769610D02*
X57049894Y39960086D01*
X57049894Y39960086D02*
X57002275Y40055324D01*
X57002275Y40055324D02*
X56907037Y40150562D01*
X56907037Y40150562D02*
X56764180Y40198181D01*
X56764180Y40198181D02*
X56668942Y40198181D01*
X56668942Y40198181D02*
X56526085Y40150562D01*
X56526085Y40150562D02*
X56478466Y40102943D01*
X56145132Y40198181D02*
X55478466Y40198181D01*
X55478466Y40198181D02*
X55907037Y39198181D01*
X29101933Y11692381D02*
X29101933Y10978096D01*
X29101933Y10978096D02*
X29149552Y10835239D01*
X29149552Y10835239D02*
X29244790Y10740000D01*
X29244790Y10740000D02*
X29387647Y10692381D01*
X29387647Y10692381D02*
X29482885Y10692381D01*
X28673361Y11597143D02*
X28625742Y11644762D01*
X28625742Y11644762D02*
X28530504Y11692381D01*
X28530504Y11692381D02*
X28292409Y11692381D01*
X28292409Y11692381D02*
X28197171Y11644762D01*
X28197171Y11644762D02*
X28149552Y11597143D01*
X28149552Y11597143D02*
X28101933Y11501905D01*
X28101933Y11501905D02*
X28101933Y11406667D01*
X28101933Y11406667D02*
X28149552Y11263810D01*
X28149552Y11263810D02*
X28720980Y10692381D01*
X28720980Y10692381D02*
X28101933Y10692381D01*
X24271266Y37568981D02*
X24604599Y38045172D01*
X24842694Y37568981D02*
X24842694Y38568981D01*
X24842694Y38568981D02*
X24461742Y38568981D01*
X24461742Y38568981D02*
X24366504Y38521362D01*
X24366504Y38521362D02*
X24318885Y38473743D01*
X24318885Y38473743D02*
X24271266Y38378505D01*
X24271266Y38378505D02*
X24271266Y38235648D01*
X24271266Y38235648D02*
X24318885Y38140410D01*
X24318885Y38140410D02*
X24366504Y38092791D01*
X24366504Y38092791D02*
X24461742Y38045172D01*
X24461742Y38045172D02*
X24842694Y38045172D01*
X23937932Y38568981D02*
X23271266Y38568981D01*
X23271266Y38568981D02*
X23699837Y37568981D01*
X9386866Y36756181D02*
X9720199Y37232372D01*
X9958294Y36756181D02*
X9958294Y37756181D01*
X9958294Y37756181D02*
X9577342Y37756181D01*
X9577342Y37756181D02*
X9482104Y37708562D01*
X9482104Y37708562D02*
X9434485Y37660943D01*
X9434485Y37660943D02*
X9386866Y37565705D01*
X9386866Y37565705D02*
X9386866Y37422848D01*
X9386866Y37422848D02*
X9434485Y37327610D01*
X9434485Y37327610D02*
X9482104Y37279991D01*
X9482104Y37279991D02*
X9577342Y37232372D01*
X9577342Y37232372D02*
X9958294Y37232372D01*
X8529723Y37756181D02*
X8720199Y37756181D01*
X8720199Y37756181D02*
X8815437Y37708562D01*
X8815437Y37708562D02*
X8863056Y37660943D01*
X8863056Y37660943D02*
X8958294Y37518086D01*
X8958294Y37518086D02*
X9005913Y37327610D01*
X9005913Y37327610D02*
X9005913Y36946658D01*
X9005913Y36946658D02*
X8958294Y36851420D01*
X8958294Y36851420D02*
X8910675Y36803800D01*
X8910675Y36803800D02*
X8815437Y36756181D01*
X8815437Y36756181D02*
X8624961Y36756181D01*
X8624961Y36756181D02*
X8529723Y36803800D01*
X8529723Y36803800D02*
X8482104Y36851420D01*
X8482104Y36851420D02*
X8434485Y36946658D01*
X8434485Y36946658D02*
X8434485Y37184753D01*
X8434485Y37184753D02*
X8482104Y37279991D01*
X8482104Y37279991D02*
X8529723Y37327610D01*
X8529723Y37327610D02*
X8624961Y37375229D01*
X8624961Y37375229D02*
X8815437Y37375229D01*
X8815437Y37375229D02*
X8910675Y37327610D01*
X8910675Y37327610D02*
X8958294Y37279991D01*
X8958294Y37279991D02*
X9005913Y37184753D01*
X29774763Y25792226D02*
X30347182Y25893241D01*
X30178824Y25388165D02*
X30885930Y26095272D01*
X30885930Y26095272D02*
X30616556Y26364646D01*
X30616556Y26364646D02*
X30515541Y26398318D01*
X30515541Y26398318D02*
X30448198Y26398318D01*
X30448198Y26398318D02*
X30347182Y26364646D01*
X30347182Y26364646D02*
X30246167Y26263631D01*
X30246167Y26263631D02*
X30212495Y26162615D01*
X30212495Y26162615D02*
X30212495Y26095272D01*
X30212495Y26095272D02*
X30246167Y25994257D01*
X30246167Y25994257D02*
X30515541Y25724883D01*
X30145152Y26701363D02*
X30145152Y26768707D01*
X30145152Y26768707D02*
X30111480Y26869722D01*
X30111480Y26869722D02*
X29943121Y27038081D01*
X29943121Y27038081D02*
X29842106Y27071753D01*
X29842106Y27071753D02*
X29774763Y27071753D01*
X29774763Y27071753D02*
X29673747Y27038081D01*
X29673747Y27038081D02*
X29606404Y26970737D01*
X29606404Y26970737D02*
X29539060Y26836050D01*
X29539060Y26836050D02*
X29539060Y26027928D01*
X29539060Y26027928D02*
X29101328Y26465661D01*
X28427892Y27139096D02*
X28831953Y26735035D01*
X28629923Y26937066D02*
X29337030Y27644173D01*
X29337030Y27644173D02*
X29303358Y27475814D01*
X29303358Y27475814D02*
X29303358Y27341127D01*
X29303358Y27341127D02*
X29337030Y27240112D01*
X59709333Y12958381D02*
X59709333Y12244096D01*
X59709333Y12244096D02*
X59756952Y12101239D01*
X59756952Y12101239D02*
X59852190Y12006000D01*
X59852190Y12006000D02*
X59995047Y11958381D01*
X59995047Y11958381D02*
X60090285Y11958381D01*
X58804571Y12958381D02*
X58995047Y12958381D01*
X58995047Y12958381D02*
X59090285Y12910762D01*
X59090285Y12910762D02*
X59137904Y12863143D01*
X59137904Y12863143D02*
X59233142Y12720286D01*
X59233142Y12720286D02*
X59280761Y12529810D01*
X59280761Y12529810D02*
X59280761Y12148858D01*
X59280761Y12148858D02*
X59233142Y12053620D01*
X59233142Y12053620D02*
X59185523Y12006000D01*
X59185523Y12006000D02*
X59090285Y11958381D01*
X59090285Y11958381D02*
X58899809Y11958381D01*
X58899809Y11958381D02*
X58804571Y12006000D01*
X58804571Y12006000D02*
X58756952Y12053620D01*
X58756952Y12053620D02*
X58709333Y12148858D01*
X58709333Y12148858D02*
X58709333Y12386953D01*
X58709333Y12386953D02*
X58756952Y12482191D01*
X58756952Y12482191D02*
X58804571Y12529810D01*
X58804571Y12529810D02*
X58899809Y12577429D01*
X58899809Y12577429D02*
X59090285Y12577429D01*
X59090285Y12577429D02*
X59185523Y12529810D01*
X59185523Y12529810D02*
X59233142Y12482191D01*
X59233142Y12482191D02*
X59280761Y12386953D01*
X35415733Y12958381D02*
X35415733Y12244096D01*
X35415733Y12244096D02*
X35463352Y12101239D01*
X35463352Y12101239D02*
X35558590Y12006000D01*
X35558590Y12006000D02*
X35701447Y11958381D01*
X35701447Y11958381D02*
X35796685Y11958381D01*
X34510971Y12625048D02*
X34510971Y11958381D01*
X34749066Y13006000D02*
X34987161Y12291715D01*
X34987161Y12291715D02*
X34368114Y12291715D01*
X51788219Y14657295D02*
X50788219Y14657295D01*
X50788219Y14657295D02*
X50788219Y14419200D01*
X50788219Y14419200D02*
X50835838Y14276343D01*
X50835838Y14276343D02*
X50931076Y14181105D01*
X50931076Y14181105D02*
X51026314Y14133486D01*
X51026314Y14133486D02*
X51216790Y14085867D01*
X51216790Y14085867D02*
X51359647Y14085867D01*
X51359647Y14085867D02*
X51550123Y14133486D01*
X51550123Y14133486D02*
X51645361Y14181105D01*
X51645361Y14181105D02*
X51740600Y14276343D01*
X51740600Y14276343D02*
X51788219Y14419200D01*
X51788219Y14419200D02*
X51788219Y14657295D01*
X51788219Y13133486D02*
X51788219Y13704914D01*
X51788219Y13419200D02*
X50788219Y13419200D01*
X50788219Y13419200D02*
X50931076Y13514438D01*
X50931076Y13514438D02*
X51026314Y13609676D01*
X51026314Y13609676D02*
X51073933Y13704914D01*
D11*
X48960400Y43764068D02*
X48998495Y43649782D01*
X48998495Y43649782D02*
X48998495Y43459306D01*
X48998495Y43459306D02*
X48960400Y43383115D01*
X48960400Y43383115D02*
X48922304Y43345020D01*
X48922304Y43345020D02*
X48846114Y43306925D01*
X48846114Y43306925D02*
X48769923Y43306925D01*
X48769923Y43306925D02*
X48693733Y43345020D01*
X48693733Y43345020D02*
X48655638Y43383115D01*
X48655638Y43383115D02*
X48617542Y43459306D01*
X48617542Y43459306D02*
X48579447Y43611687D01*
X48579447Y43611687D02*
X48541352Y43687877D01*
X48541352Y43687877D02*
X48503257Y43725972D01*
X48503257Y43725972D02*
X48427066Y43764068D01*
X48427066Y43764068D02*
X48350876Y43764068D01*
X48350876Y43764068D02*
X48274685Y43725972D01*
X48274685Y43725972D02*
X48236590Y43687877D01*
X48236590Y43687877D02*
X48198495Y43611687D01*
X48198495Y43611687D02*
X48198495Y43421210D01*
X48198495Y43421210D02*
X48236590Y43306925D01*
X48198495Y43040258D02*
X48998495Y42849782D01*
X48998495Y42849782D02*
X48427066Y42697401D01*
X48427066Y42697401D02*
X48998495Y42545020D01*
X48998495Y42545020D02*
X48198495Y42354543D01*
X48274685Y42087877D02*
X48236590Y42049781D01*
X48236590Y42049781D02*
X48198495Y41973591D01*
X48198495Y41973591D02*
X48198495Y41783115D01*
X48198495Y41783115D02*
X48236590Y41706924D01*
X48236590Y41706924D02*
X48274685Y41668829D01*
X48274685Y41668829D02*
X48350876Y41630734D01*
X48350876Y41630734D02*
X48427066Y41630734D01*
X48427066Y41630734D02*
X48541352Y41668829D01*
X48541352Y41668829D02*
X48998495Y42125972D01*
X48998495Y42125972D02*
X48998495Y41630734D01*
D10*
X61311619Y13833658D02*
X60835428Y14166991D01*
X61311619Y14405086D02*
X60311619Y14405086D01*
X60311619Y14405086D02*
X60311619Y14024134D01*
X60311619Y14024134D02*
X60359238Y13928896D01*
X60359238Y13928896D02*
X60406857Y13881277D01*
X60406857Y13881277D02*
X60502095Y13833658D01*
X60502095Y13833658D02*
X60644952Y13833658D01*
X60644952Y13833658D02*
X60740190Y13881277D01*
X60740190Y13881277D02*
X60787809Y13928896D01*
X60787809Y13928896D02*
X60835428Y14024134D01*
X60835428Y14024134D02*
X60835428Y14405086D01*
X60406857Y13452705D02*
X60359238Y13405086D01*
X60359238Y13405086D02*
X60311619Y13309848D01*
X60311619Y13309848D02*
X60311619Y13071753D01*
X60311619Y13071753D02*
X60359238Y12976515D01*
X60359238Y12976515D02*
X60406857Y12928896D01*
X60406857Y12928896D02*
X60502095Y12881277D01*
X60502095Y12881277D02*
X60597333Y12881277D01*
X60597333Y12881277D02*
X60740190Y12928896D01*
X60740190Y12928896D02*
X61311619Y13500324D01*
X61311619Y13500324D02*
X61311619Y12881277D01*
X60740190Y12309848D02*
X60692571Y12405086D01*
X60692571Y12405086D02*
X60644952Y12452705D01*
X60644952Y12452705D02*
X60549714Y12500324D01*
X60549714Y12500324D02*
X60502095Y12500324D01*
X60502095Y12500324D02*
X60406857Y12452705D01*
X60406857Y12452705D02*
X60359238Y12405086D01*
X60359238Y12405086D02*
X60311619Y12309848D01*
X60311619Y12309848D02*
X60311619Y12119372D01*
X60311619Y12119372D02*
X60359238Y12024134D01*
X60359238Y12024134D02*
X60406857Y11976515D01*
X60406857Y11976515D02*
X60502095Y11928896D01*
X60502095Y11928896D02*
X60549714Y11928896D01*
X60549714Y11928896D02*
X60644952Y11976515D01*
X60644952Y11976515D02*
X60692571Y12024134D01*
X60692571Y12024134D02*
X60740190Y12119372D01*
X60740190Y12119372D02*
X60740190Y12309848D01*
X60740190Y12309848D02*
X60787809Y12405086D01*
X60787809Y12405086D02*
X60835428Y12452705D01*
X60835428Y12452705D02*
X60930666Y12500324D01*
X60930666Y12500324D02*
X61121142Y12500324D01*
X61121142Y12500324D02*
X61216380Y12452705D01*
X61216380Y12452705D02*
X61264000Y12405086D01*
X61264000Y12405086D02*
X61311619Y12309848D01*
X61311619Y12309848D02*
X61311619Y12119372D01*
X61311619Y12119372D02*
X61264000Y12024134D01*
X61264000Y12024134D02*
X61216380Y11976515D01*
X61216380Y11976515D02*
X61121142Y11928896D01*
X61121142Y11928896D02*
X60930666Y11928896D01*
X60930666Y11928896D02*
X60835428Y11976515D01*
X60835428Y11976515D02*
X60787809Y12024134D01*
X60787809Y12024134D02*
X60740190Y12119372D01*
D11*
X45683800Y43764068D02*
X45721895Y43649782D01*
X45721895Y43649782D02*
X45721895Y43459306D01*
X45721895Y43459306D02*
X45683800Y43383115D01*
X45683800Y43383115D02*
X45645704Y43345020D01*
X45645704Y43345020D02*
X45569514Y43306925D01*
X45569514Y43306925D02*
X45493323Y43306925D01*
X45493323Y43306925D02*
X45417133Y43345020D01*
X45417133Y43345020D02*
X45379038Y43383115D01*
X45379038Y43383115D02*
X45340942Y43459306D01*
X45340942Y43459306D02*
X45302847Y43611687D01*
X45302847Y43611687D02*
X45264752Y43687877D01*
X45264752Y43687877D02*
X45226657Y43725972D01*
X45226657Y43725972D02*
X45150466Y43764068D01*
X45150466Y43764068D02*
X45074276Y43764068D01*
X45074276Y43764068D02*
X44998085Y43725972D01*
X44998085Y43725972D02*
X44959990Y43687877D01*
X44959990Y43687877D02*
X44921895Y43611687D01*
X44921895Y43611687D02*
X44921895Y43421210D01*
X44921895Y43421210D02*
X44959990Y43306925D01*
X44921895Y43040258D02*
X45721895Y42849782D01*
X45721895Y42849782D02*
X45150466Y42697401D01*
X45150466Y42697401D02*
X45721895Y42545020D01*
X45721895Y42545020D02*
X44921895Y42354543D01*
X45721895Y41630734D02*
X45721895Y42087877D01*
X45721895Y41859305D02*
X44921895Y41859305D01*
X44921895Y41859305D02*
X45036180Y41935496D01*
X45036180Y41935496D02*
X45112371Y42011686D01*
X45112371Y42011686D02*
X45150466Y42087877D01*
D10*
X27133163Y21728226D02*
X27705582Y21829241D01*
X27537224Y21324165D02*
X28244330Y22031272D01*
X28244330Y22031272D02*
X27974956Y22300646D01*
X27974956Y22300646D02*
X27873941Y22334318D01*
X27873941Y22334318D02*
X27806598Y22334318D01*
X27806598Y22334318D02*
X27705582Y22300646D01*
X27705582Y22300646D02*
X27604567Y22199631D01*
X27604567Y22199631D02*
X27570895Y22098615D01*
X27570895Y22098615D02*
X27570895Y22031272D01*
X27570895Y22031272D02*
X27604567Y21930257D01*
X27604567Y21930257D02*
X27873941Y21660883D01*
X27503552Y22637363D02*
X27503552Y22704707D01*
X27503552Y22704707D02*
X27469880Y22805722D01*
X27469880Y22805722D02*
X27301521Y22974081D01*
X27301521Y22974081D02*
X27200506Y23007753D01*
X27200506Y23007753D02*
X27133163Y23007753D01*
X27133163Y23007753D02*
X27032147Y22974081D01*
X27032147Y22974081D02*
X26964804Y22906737D01*
X26964804Y22906737D02*
X26897460Y22772050D01*
X26897460Y22772050D02*
X26897460Y21963928D01*
X26897460Y21963928D02*
X26459728Y22401661D01*
X26729101Y23546501D02*
X26661758Y23613844D01*
X26661758Y23613844D02*
X26560743Y23647516D01*
X26560743Y23647516D02*
X26493399Y23647516D01*
X26493399Y23647516D02*
X26392384Y23613844D01*
X26392384Y23613844D02*
X26224025Y23512829D01*
X26224025Y23512829D02*
X26055666Y23344470D01*
X26055666Y23344470D02*
X25954651Y23176112D01*
X25954651Y23176112D02*
X25920979Y23075096D01*
X25920979Y23075096D02*
X25920979Y23007753D01*
X25920979Y23007753D02*
X25954651Y22906738D01*
X25954651Y22906738D02*
X26021995Y22839394D01*
X26021995Y22839394D02*
X26123010Y22805722D01*
X26123010Y22805722D02*
X26190353Y22805722D01*
X26190353Y22805722D02*
X26291369Y22839394D01*
X26291369Y22839394D02*
X26459727Y22940409D01*
X26459727Y22940409D02*
X26628086Y23108768D01*
X26628086Y23108768D02*
X26729101Y23277127D01*
X26729101Y23277127D02*
X26762773Y23378142D01*
X26762773Y23378142D02*
X26762773Y23445486D01*
X26762773Y23445486D02*
X26729101Y23546501D01*
X46555819Y17184667D02*
X46079628Y17518000D01*
X46555819Y17756095D02*
X45555819Y17756095D01*
X45555819Y17756095D02*
X45555819Y17375143D01*
X45555819Y17375143D02*
X45603438Y17279905D01*
X45603438Y17279905D02*
X45651057Y17232286D01*
X45651057Y17232286D02*
X45746295Y17184667D01*
X45746295Y17184667D02*
X45889152Y17184667D01*
X45889152Y17184667D02*
X45984390Y17232286D01*
X45984390Y17232286D02*
X46032009Y17279905D01*
X46032009Y17279905D02*
X46079628Y17375143D01*
X46079628Y17375143D02*
X46079628Y17756095D01*
X45889152Y16327524D02*
X46555819Y16327524D01*
X45508200Y16565619D02*
X46222485Y16803714D01*
X46222485Y16803714D02*
X46222485Y16184667D01*
X24401863Y16146326D02*
X24974282Y16247341D01*
X24805924Y15742265D02*
X25513030Y16449372D01*
X25513030Y16449372D02*
X25243656Y16718746D01*
X25243656Y16718746D02*
X25142641Y16752418D01*
X25142641Y16752418D02*
X25075298Y16752418D01*
X25075298Y16752418D02*
X24974282Y16718746D01*
X24974282Y16718746D02*
X24873267Y16617731D01*
X24873267Y16617731D02*
X24839595Y16516715D01*
X24839595Y16516715D02*
X24839595Y16449372D01*
X24839595Y16449372D02*
X24873267Y16348357D01*
X24873267Y16348357D02*
X25142641Y16078983D01*
X23728428Y16819761D02*
X24132489Y16415700D01*
X23930458Y16617731D02*
X24637565Y17324837D01*
X24637565Y17324837D02*
X24603893Y17156479D01*
X24603893Y17156479D02*
X24603893Y17021792D01*
X24603893Y17021792D02*
X24637565Y16920776D01*
X23728427Y17627883D02*
X23829443Y17594212D01*
X23829443Y17594212D02*
X23896786Y17594212D01*
X23896786Y17594212D02*
X23997801Y17627883D01*
X23997801Y17627883D02*
X24031473Y17661555D01*
X24031473Y17661555D02*
X24065145Y17762570D01*
X24065145Y17762570D02*
X24065145Y17829914D01*
X24065145Y17829914D02*
X24031473Y17930929D01*
X24031473Y17930929D02*
X23896786Y18065616D01*
X23896786Y18065616D02*
X23795771Y18099288D01*
X23795771Y18099288D02*
X23728427Y18099288D01*
X23728427Y18099288D02*
X23627412Y18065616D01*
X23627412Y18065616D02*
X23593740Y18031944D01*
X23593740Y18031944D02*
X23560069Y17930929D01*
X23560069Y17930929D02*
X23560069Y17863586D01*
X23560069Y17863586D02*
X23593740Y17762570D01*
X23593740Y17762570D02*
X23728427Y17627883D01*
X23728427Y17627883D02*
X23762099Y17526868D01*
X23762099Y17526868D02*
X23762099Y17459525D01*
X23762099Y17459525D02*
X23728427Y17358509D01*
X23728427Y17358509D02*
X23593740Y17223822D01*
X23593740Y17223822D02*
X23492725Y17190151D01*
X23492725Y17190151D02*
X23425382Y17190151D01*
X23425382Y17190151D02*
X23324366Y17223822D01*
X23324366Y17223822D02*
X23189679Y17358509D01*
X23189679Y17358509D02*
X23156008Y17459525D01*
X23156008Y17459525D02*
X23156008Y17526868D01*
X23156008Y17526868D02*
X23189679Y17627883D01*
X23189679Y17627883D02*
X23324366Y17762570D01*
X23324366Y17762570D02*
X23425382Y17796242D01*
X23425382Y17796242D02*
X23492725Y17796242D01*
X23492725Y17796242D02*
X23593740Y17762570D01*
X16594057Y31828581D02*
X16927390Y32304772D01*
X17165485Y31828581D02*
X17165485Y32828581D01*
X17165485Y32828581D02*
X16784533Y32828581D01*
X16784533Y32828581D02*
X16689295Y32780962D01*
X16689295Y32780962D02*
X16641676Y32733343D01*
X16641676Y32733343D02*
X16594057Y32638105D01*
X16594057Y32638105D02*
X16594057Y32495248D01*
X16594057Y32495248D02*
X16641676Y32400010D01*
X16641676Y32400010D02*
X16689295Y32352391D01*
X16689295Y32352391D02*
X16784533Y32304772D01*
X16784533Y32304772D02*
X17165485Y32304772D01*
X15641676Y31828581D02*
X16213104Y31828581D01*
X15927390Y31828581D02*
X15927390Y32828581D01*
X15927390Y32828581D02*
X16022628Y32685724D01*
X16022628Y32685724D02*
X16117866Y32590486D01*
X16117866Y32590486D02*
X16213104Y32542867D01*
X14736914Y32828581D02*
X15213104Y32828581D01*
X15213104Y32828581D02*
X15260723Y32352391D01*
X15260723Y32352391D02*
X15213104Y32400010D01*
X15213104Y32400010D02*
X15117866Y32447629D01*
X15117866Y32447629D02*
X14879771Y32447629D01*
X14879771Y32447629D02*
X14784533Y32400010D01*
X14784533Y32400010D02*
X14736914Y32352391D01*
X14736914Y32352391D02*
X14689295Y32257153D01*
X14689295Y32257153D02*
X14689295Y32019058D01*
X14689295Y32019058D02*
X14736914Y31923820D01*
X14736914Y31923820D02*
X14784533Y31876200D01*
X14784533Y31876200D02*
X14879771Y31828581D01*
X14879771Y31828581D02*
X15117866Y31828581D01*
X15117866Y31828581D02*
X15213104Y31876200D01*
X15213104Y31876200D02*
X15260723Y31923820D01*
X28893419Y42486105D02*
X28893419Y41914677D01*
X29893419Y42200391D02*
X28893419Y42200391D01*
X29893419Y41581343D02*
X28893419Y41581343D01*
X28893419Y41581343D02*
X28893419Y41200391D01*
X28893419Y41200391D02*
X28941038Y41105153D01*
X28941038Y41105153D02*
X28988657Y41057534D01*
X28988657Y41057534D02*
X29083895Y41009915D01*
X29083895Y41009915D02*
X29226752Y41009915D01*
X29226752Y41009915D02*
X29321990Y41057534D01*
X29321990Y41057534D02*
X29369609Y41105153D01*
X29369609Y41105153D02*
X29417228Y41200391D01*
X29417228Y41200391D02*
X29417228Y41581343D01*
X28988657Y40628962D02*
X28941038Y40581343D01*
X28941038Y40581343D02*
X28893419Y40486105D01*
X28893419Y40486105D02*
X28893419Y40248010D01*
X28893419Y40248010D02*
X28941038Y40152772D01*
X28941038Y40152772D02*
X28988657Y40105153D01*
X28988657Y40105153D02*
X29083895Y40057534D01*
X29083895Y40057534D02*
X29179133Y40057534D01*
X29179133Y40057534D02*
X29321990Y40105153D01*
X29321990Y40105153D02*
X29893419Y40676581D01*
X29893419Y40676581D02*
X29893419Y40057534D01*
X22763563Y16171726D02*
X23335982Y16272741D01*
X23167624Y15767665D02*
X23874730Y16474772D01*
X23874730Y16474772D02*
X23605356Y16744146D01*
X23605356Y16744146D02*
X23504341Y16777818D01*
X23504341Y16777818D02*
X23436998Y16777818D01*
X23436998Y16777818D02*
X23335982Y16744146D01*
X23335982Y16744146D02*
X23234967Y16643131D01*
X23234967Y16643131D02*
X23201295Y16542115D01*
X23201295Y16542115D02*
X23201295Y16474772D01*
X23201295Y16474772D02*
X23234967Y16373757D01*
X23234967Y16373757D02*
X23504341Y16104383D01*
X22090128Y16845161D02*
X22494189Y16441100D01*
X22292158Y16643131D02*
X22999265Y17350237D01*
X22999265Y17350237D02*
X22965593Y17181879D01*
X22965593Y17181879D02*
X22965593Y17047192D01*
X22965593Y17047192D02*
X22999265Y16946176D01*
X21753410Y17181879D02*
X21618723Y17316566D01*
X21618723Y17316566D02*
X21585051Y17417581D01*
X21585051Y17417581D02*
X21585051Y17484925D01*
X21585051Y17484925D02*
X21618723Y17653283D01*
X21618723Y17653283D02*
X21719738Y17821642D01*
X21719738Y17821642D02*
X21989112Y18091016D01*
X21989112Y18091016D02*
X22090127Y18124688D01*
X22090127Y18124688D02*
X22157471Y18124688D01*
X22157471Y18124688D02*
X22258486Y18091016D01*
X22258486Y18091016D02*
X22393173Y17956329D01*
X22393173Y17956329D02*
X22426845Y17855314D01*
X22426845Y17855314D02*
X22426845Y17787970D01*
X22426845Y17787970D02*
X22393173Y17686955D01*
X22393173Y17686955D02*
X22224814Y17518596D01*
X22224814Y17518596D02*
X22123799Y17484925D01*
X22123799Y17484925D02*
X22056456Y17484925D01*
X22056456Y17484925D02*
X21955440Y17518596D01*
X21955440Y17518596D02*
X21820753Y17653283D01*
X21820753Y17653283D02*
X21787082Y17754299D01*
X21787082Y17754299D02*
X21787082Y17821642D01*
X21787082Y17821642D02*
X21820753Y17922657D01*
X27445619Y39946105D02*
X27445619Y39374677D01*
X28445619Y39660391D02*
X27445619Y39660391D01*
X28445619Y39041343D02*
X27445619Y39041343D01*
X27445619Y39041343D02*
X27445619Y38660391D01*
X27445619Y38660391D02*
X27493238Y38565153D01*
X27493238Y38565153D02*
X27540857Y38517534D01*
X27540857Y38517534D02*
X27636095Y38469915D01*
X27636095Y38469915D02*
X27778952Y38469915D01*
X27778952Y38469915D02*
X27874190Y38517534D01*
X27874190Y38517534D02*
X27921809Y38565153D01*
X27921809Y38565153D02*
X27969428Y38660391D01*
X27969428Y38660391D02*
X27969428Y39041343D01*
X28445619Y37517534D02*
X28445619Y38088962D01*
X28445619Y37803248D02*
X27445619Y37803248D01*
X27445619Y37803248D02*
X27588476Y37898486D01*
X27588476Y37898486D02*
X27683714Y37993724D01*
X27683714Y37993724D02*
X27731333Y38088962D01*
X62330219Y36050458D02*
X61854028Y36383791D01*
X62330219Y36621886D02*
X61330219Y36621886D01*
X61330219Y36621886D02*
X61330219Y36240934D01*
X61330219Y36240934D02*
X61377838Y36145696D01*
X61377838Y36145696D02*
X61425457Y36098077D01*
X61425457Y36098077D02*
X61520695Y36050458D01*
X61520695Y36050458D02*
X61663552Y36050458D01*
X61663552Y36050458D02*
X61758790Y36098077D01*
X61758790Y36098077D02*
X61806409Y36145696D01*
X61806409Y36145696D02*
X61854028Y36240934D01*
X61854028Y36240934D02*
X61854028Y36621886D01*
X61425457Y35669505D02*
X61377838Y35621886D01*
X61377838Y35621886D02*
X61330219Y35526648D01*
X61330219Y35526648D02*
X61330219Y35288553D01*
X61330219Y35288553D02*
X61377838Y35193315D01*
X61377838Y35193315D02*
X61425457Y35145696D01*
X61425457Y35145696D02*
X61520695Y35098077D01*
X61520695Y35098077D02*
X61615933Y35098077D01*
X61615933Y35098077D02*
X61758790Y35145696D01*
X61758790Y35145696D02*
X62330219Y35717124D01*
X62330219Y35717124D02*
X62330219Y35098077D01*
X61330219Y34764743D02*
X61330219Y34145696D01*
X61330219Y34145696D02*
X61711171Y34479029D01*
X61711171Y34479029D02*
X61711171Y34336172D01*
X61711171Y34336172D02*
X61758790Y34240934D01*
X61758790Y34240934D02*
X61806409Y34193315D01*
X61806409Y34193315D02*
X61901647Y34145696D01*
X61901647Y34145696D02*
X62139742Y34145696D01*
X62139742Y34145696D02*
X62234980Y34193315D01*
X62234980Y34193315D02*
X62282600Y34240934D01*
X62282600Y34240934D02*
X62330219Y34336172D01*
X62330219Y34336172D02*
X62330219Y34621886D01*
X62330219Y34621886D02*
X62282600Y34717124D01*
X62282600Y34717124D02*
X62234980Y34764743D01*
X34590990Y22237172D02*
X34590990Y21760981D01*
X34924323Y22760981D02*
X34590990Y22237172D01*
X34590990Y22237172D02*
X34257657Y22760981D01*
X33400514Y21760981D02*
X33971942Y21760981D01*
X33686228Y21760981D02*
X33686228Y22760981D01*
X33686228Y22760981D02*
X33781466Y22618124D01*
X33781466Y22618124D02*
X33876704Y22522886D01*
X33876704Y22522886D02*
X33971942Y22475267D01*
X40152533Y13803981D02*
X40152533Y13089696D01*
X40152533Y13089696D02*
X40200152Y12946839D01*
X40200152Y12946839D02*
X40295390Y12851600D01*
X40295390Y12851600D02*
X40438247Y12803981D01*
X40438247Y12803981D02*
X40533485Y12803981D01*
X39676342Y12803981D02*
X39676342Y13803981D01*
X39676342Y13803981D02*
X39295390Y13803981D01*
X39295390Y13803981D02*
X39200152Y13756362D01*
X39200152Y13756362D02*
X39152533Y13708743D01*
X39152533Y13708743D02*
X39104914Y13613505D01*
X39104914Y13613505D02*
X39104914Y13470648D01*
X39104914Y13470648D02*
X39152533Y13375410D01*
X39152533Y13375410D02*
X39200152Y13327791D01*
X39200152Y13327791D02*
X39295390Y13280172D01*
X39295390Y13280172D02*
X39676342Y13280172D01*
X38152533Y12803981D02*
X38723961Y12803981D01*
X38438247Y12803981D02*
X38438247Y13803981D01*
X38438247Y13803981D02*
X38533485Y13661124D01*
X38533485Y13661124D02*
X38628723Y13565886D01*
X38628723Y13565886D02*
X38723961Y13518267D01*
X66860657Y39395020D02*
X66908276Y39347400D01*
X66908276Y39347400D02*
X67051133Y39299781D01*
X67051133Y39299781D02*
X67146371Y39299781D01*
X67146371Y39299781D02*
X67289228Y39347400D01*
X67289228Y39347400D02*
X67384466Y39442639D01*
X67384466Y39442639D02*
X67432085Y39537877D01*
X67432085Y39537877D02*
X67479704Y39728353D01*
X67479704Y39728353D02*
X67479704Y39871210D01*
X67479704Y39871210D02*
X67432085Y40061686D01*
X67432085Y40061686D02*
X67384466Y40156924D01*
X67384466Y40156924D02*
X67289228Y40252162D01*
X67289228Y40252162D02*
X67146371Y40299781D01*
X67146371Y40299781D02*
X67051133Y40299781D01*
X67051133Y40299781D02*
X66908276Y40252162D01*
X66908276Y40252162D02*
X66860657Y40204543D01*
X65908276Y39299781D02*
X66479704Y39299781D01*
X66193990Y39299781D02*
X66193990Y40299781D01*
X66193990Y40299781D02*
X66289228Y40156924D01*
X66289228Y40156924D02*
X66384466Y40061686D01*
X66384466Y40061686D02*
X66479704Y40014067D01*
X65003514Y40299781D02*
X65479704Y40299781D01*
X65479704Y40299781D02*
X65527323Y39823591D01*
X65527323Y39823591D02*
X65479704Y39871210D01*
X65479704Y39871210D02*
X65384466Y39918829D01*
X65384466Y39918829D02*
X65146371Y39918829D01*
X65146371Y39918829D02*
X65051133Y39871210D01*
X65051133Y39871210D02*
X65003514Y39823591D01*
X65003514Y39823591D02*
X64955895Y39728353D01*
X64955895Y39728353D02*
X64955895Y39490258D01*
X64955895Y39490258D02*
X65003514Y39395020D01*
X65003514Y39395020D02*
X65051133Y39347400D01*
X65051133Y39347400D02*
X65146371Y39299781D01*
X65146371Y39299781D02*
X65384466Y39299781D01*
X65384466Y39299781D02*
X65479704Y39347400D01*
X65479704Y39347400D02*
X65527323Y39395020D01*
X54378666Y15789020D02*
X54426285Y15741400D01*
X54426285Y15741400D02*
X54569142Y15693781D01*
X54569142Y15693781D02*
X54664380Y15693781D01*
X54664380Y15693781D02*
X54807237Y15741400D01*
X54807237Y15741400D02*
X54902475Y15836639D01*
X54902475Y15836639D02*
X54950094Y15931877D01*
X54950094Y15931877D02*
X54997713Y16122353D01*
X54997713Y16122353D02*
X54997713Y16265210D01*
X54997713Y16265210D02*
X54950094Y16455686D01*
X54950094Y16455686D02*
X54902475Y16550924D01*
X54902475Y16550924D02*
X54807237Y16646162D01*
X54807237Y16646162D02*
X54664380Y16693781D01*
X54664380Y16693781D02*
X54569142Y16693781D01*
X54569142Y16693781D02*
X54426285Y16646162D01*
X54426285Y16646162D02*
X54378666Y16598543D01*
X53426285Y15693781D02*
X53997713Y15693781D01*
X53711999Y15693781D02*
X53711999Y16693781D01*
X53711999Y16693781D02*
X53807237Y16550924D01*
X53807237Y16550924D02*
X53902475Y16455686D01*
X53902475Y16455686D02*
X53997713Y16408067D01*
X48155019Y38876267D02*
X47678828Y39209600D01*
X48155019Y39447695D02*
X47155019Y39447695D01*
X47155019Y39447695D02*
X47155019Y39066743D01*
X47155019Y39066743D02*
X47202638Y38971505D01*
X47202638Y38971505D02*
X47250257Y38923886D01*
X47250257Y38923886D02*
X47345495Y38876267D01*
X47345495Y38876267D02*
X47488352Y38876267D01*
X47488352Y38876267D02*
X47583590Y38923886D01*
X47583590Y38923886D02*
X47631209Y38971505D01*
X47631209Y38971505D02*
X47678828Y39066743D01*
X47678828Y39066743D02*
X47678828Y39447695D01*
X47155019Y38542933D02*
X47155019Y37923886D01*
X47155019Y37923886D02*
X47535971Y38257219D01*
X47535971Y38257219D02*
X47535971Y38114362D01*
X47535971Y38114362D02*
X47583590Y38019124D01*
X47583590Y38019124D02*
X47631209Y37971505D01*
X47631209Y37971505D02*
X47726447Y37923886D01*
X47726447Y37923886D02*
X47964542Y37923886D01*
X47964542Y37923886D02*
X48059780Y37971505D01*
X48059780Y37971505D02*
X48107400Y38019124D01*
X48107400Y38019124D02*
X48155019Y38114362D01*
X48155019Y38114362D02*
X48155019Y38400076D01*
X48155019Y38400076D02*
X48107400Y38495314D01*
X48107400Y38495314D02*
X48059780Y38542933D01*
X64435819Y13833658D02*
X63959628Y14166991D01*
X64435819Y14405086D02*
X63435819Y14405086D01*
X63435819Y14405086D02*
X63435819Y14024134D01*
X63435819Y14024134D02*
X63483438Y13928896D01*
X63483438Y13928896D02*
X63531057Y13881277D01*
X63531057Y13881277D02*
X63626295Y13833658D01*
X63626295Y13833658D02*
X63769152Y13833658D01*
X63769152Y13833658D02*
X63864390Y13881277D01*
X63864390Y13881277D02*
X63912009Y13928896D01*
X63912009Y13928896D02*
X63959628Y14024134D01*
X63959628Y14024134D02*
X63959628Y14405086D01*
X63531057Y13452705D02*
X63483438Y13405086D01*
X63483438Y13405086D02*
X63435819Y13309848D01*
X63435819Y13309848D02*
X63435819Y13071753D01*
X63435819Y13071753D02*
X63483438Y12976515D01*
X63483438Y12976515D02*
X63531057Y12928896D01*
X63531057Y12928896D02*
X63626295Y12881277D01*
X63626295Y12881277D02*
X63721533Y12881277D01*
X63721533Y12881277D02*
X63864390Y12928896D01*
X63864390Y12928896D02*
X64435819Y13500324D01*
X64435819Y13500324D02*
X64435819Y12881277D01*
X63435819Y11976515D02*
X63435819Y12452705D01*
X63435819Y12452705D02*
X63912009Y12500324D01*
X63912009Y12500324D02*
X63864390Y12452705D01*
X63864390Y12452705D02*
X63816771Y12357467D01*
X63816771Y12357467D02*
X63816771Y12119372D01*
X63816771Y12119372D02*
X63864390Y12024134D01*
X63864390Y12024134D02*
X63912009Y11976515D01*
X63912009Y11976515D02*
X64007247Y11928896D01*
X64007247Y11928896D02*
X64245342Y11928896D01*
X64245342Y11928896D02*
X64340580Y11976515D01*
X64340580Y11976515D02*
X64388200Y12024134D01*
X64388200Y12024134D02*
X64435819Y12119372D01*
X64435819Y12119372D02*
X64435819Y12357467D01*
X64435819Y12357467D02*
X64388200Y12452705D01*
X64388200Y12452705D02*
X64340580Y12500324D01*
X71796019Y34151867D02*
X71796019Y34628057D01*
X71796019Y34628057D02*
X70796019Y34628057D01*
X70796019Y33913771D02*
X70796019Y33294724D01*
X70796019Y33294724D02*
X71176971Y33628057D01*
X71176971Y33628057D02*
X71176971Y33485200D01*
X71176971Y33485200D02*
X71224590Y33389962D01*
X71224590Y33389962D02*
X71272209Y33342343D01*
X71272209Y33342343D02*
X71367447Y33294724D01*
X71367447Y33294724D02*
X71605542Y33294724D01*
X71605542Y33294724D02*
X71700780Y33342343D01*
X71700780Y33342343D02*
X71748400Y33389962D01*
X71748400Y33389962D02*
X71796019Y33485200D01*
X71796019Y33485200D02*
X71796019Y33770914D01*
X71796019Y33770914D02*
X71748400Y33866152D01*
X71748400Y33866152D02*
X71700780Y33913771D01*
X62873719Y13833658D02*
X62397528Y14166991D01*
X62873719Y14405086D02*
X61873719Y14405086D01*
X61873719Y14405086D02*
X61873719Y14024134D01*
X61873719Y14024134D02*
X61921338Y13928896D01*
X61921338Y13928896D02*
X61968957Y13881277D01*
X61968957Y13881277D02*
X62064195Y13833658D01*
X62064195Y13833658D02*
X62207052Y13833658D01*
X62207052Y13833658D02*
X62302290Y13881277D01*
X62302290Y13881277D02*
X62349909Y13928896D01*
X62349909Y13928896D02*
X62397528Y14024134D01*
X62397528Y14024134D02*
X62397528Y14405086D01*
X61968957Y13452705D02*
X61921338Y13405086D01*
X61921338Y13405086D02*
X61873719Y13309848D01*
X61873719Y13309848D02*
X61873719Y13071753D01*
X61873719Y13071753D02*
X61921338Y12976515D01*
X61921338Y12976515D02*
X61968957Y12928896D01*
X61968957Y12928896D02*
X62064195Y12881277D01*
X62064195Y12881277D02*
X62159433Y12881277D01*
X62159433Y12881277D02*
X62302290Y12928896D01*
X62302290Y12928896D02*
X62873719Y13500324D01*
X62873719Y13500324D02*
X62873719Y12881277D01*
X61873719Y12547943D02*
X61873719Y11881277D01*
X61873719Y11881277D02*
X62873719Y12309848D01*
X58187419Y13833658D02*
X57711228Y14166991D01*
X58187419Y14405086D02*
X57187419Y14405086D01*
X57187419Y14405086D02*
X57187419Y14024134D01*
X57187419Y14024134D02*
X57235038Y13928896D01*
X57235038Y13928896D02*
X57282657Y13881277D01*
X57282657Y13881277D02*
X57377895Y13833658D01*
X57377895Y13833658D02*
X57520752Y13833658D01*
X57520752Y13833658D02*
X57615990Y13881277D01*
X57615990Y13881277D02*
X57663609Y13928896D01*
X57663609Y13928896D02*
X57711228Y14024134D01*
X57711228Y14024134D02*
X57711228Y14405086D01*
X57187419Y13500324D02*
X57187419Y12881277D01*
X57187419Y12881277D02*
X57568371Y13214610D01*
X57568371Y13214610D02*
X57568371Y13071753D01*
X57568371Y13071753D02*
X57615990Y12976515D01*
X57615990Y12976515D02*
X57663609Y12928896D01*
X57663609Y12928896D02*
X57758847Y12881277D01*
X57758847Y12881277D02*
X57996942Y12881277D01*
X57996942Y12881277D02*
X58092180Y12928896D01*
X58092180Y12928896D02*
X58139800Y12976515D01*
X58139800Y12976515D02*
X58187419Y13071753D01*
X58187419Y13071753D02*
X58187419Y13357467D01*
X58187419Y13357467D02*
X58139800Y13452705D01*
X58139800Y13452705D02*
X58092180Y13500324D01*
X57187419Y12262229D02*
X57187419Y12166991D01*
X57187419Y12166991D02*
X57235038Y12071753D01*
X57235038Y12071753D02*
X57282657Y12024134D01*
X57282657Y12024134D02*
X57377895Y11976515D01*
X57377895Y11976515D02*
X57568371Y11928896D01*
X57568371Y11928896D02*
X57806466Y11928896D01*
X57806466Y11928896D02*
X57996942Y11976515D01*
X57996942Y11976515D02*
X58092180Y12024134D01*
X58092180Y12024134D02*
X58139800Y12071753D01*
X58139800Y12071753D02*
X58187419Y12166991D01*
X58187419Y12166991D02*
X58187419Y12262229D01*
X58187419Y12262229D02*
X58139800Y12357467D01*
X58139800Y12357467D02*
X58092180Y12405086D01*
X58092180Y12405086D02*
X57996942Y12452705D01*
X57996942Y12452705D02*
X57806466Y12500324D01*
X57806466Y12500324D02*
X57568371Y12500324D01*
X57568371Y12500324D02*
X57377895Y12452705D01*
X57377895Y12452705D02*
X57282657Y12405086D01*
X57282657Y12405086D02*
X57235038Y12357467D01*
X57235038Y12357467D02*
X57187419Y12262229D01*
X34304266Y18338420D02*
X34351885Y18290800D01*
X34351885Y18290800D02*
X34494742Y18243181D01*
X34494742Y18243181D02*
X34589980Y18243181D01*
X34589980Y18243181D02*
X34732837Y18290800D01*
X34732837Y18290800D02*
X34828075Y18386039D01*
X34828075Y18386039D02*
X34875694Y18481277D01*
X34875694Y18481277D02*
X34923313Y18671753D01*
X34923313Y18671753D02*
X34923313Y18814610D01*
X34923313Y18814610D02*
X34875694Y19005086D01*
X34875694Y19005086D02*
X34828075Y19100324D01*
X34828075Y19100324D02*
X34732837Y19195562D01*
X34732837Y19195562D02*
X34589980Y19243181D01*
X34589980Y19243181D02*
X34494742Y19243181D01*
X34494742Y19243181D02*
X34351885Y19195562D01*
X34351885Y19195562D02*
X34304266Y19147943D01*
X33447123Y18909848D02*
X33447123Y18243181D01*
X33685218Y19290800D02*
X33923313Y18576515D01*
X33923313Y18576515D02*
X33304266Y18576515D01*
X61890019Y34050267D02*
X61890019Y34526457D01*
X61890019Y34526457D02*
X60890019Y34526457D01*
X60985257Y33764552D02*
X60937638Y33716933D01*
X60937638Y33716933D02*
X60890019Y33621695D01*
X60890019Y33621695D02*
X60890019Y33383600D01*
X60890019Y33383600D02*
X60937638Y33288362D01*
X60937638Y33288362D02*
X60985257Y33240743D01*
X60985257Y33240743D02*
X61080495Y33193124D01*
X61080495Y33193124D02*
X61175733Y33193124D01*
X61175733Y33193124D02*
X61318590Y33240743D01*
X61318590Y33240743D02*
X61890019Y33812171D01*
X61890019Y33812171D02*
X61890019Y33193124D01*
X43448266Y40590581D02*
X43781599Y41066772D01*
X44019694Y40590581D02*
X44019694Y41590581D01*
X44019694Y41590581D02*
X43638742Y41590581D01*
X43638742Y41590581D02*
X43543504Y41542962D01*
X43543504Y41542962D02*
X43495885Y41495343D01*
X43495885Y41495343D02*
X43448266Y41400105D01*
X43448266Y41400105D02*
X43448266Y41257248D01*
X43448266Y41257248D02*
X43495885Y41162010D01*
X43495885Y41162010D02*
X43543504Y41114391D01*
X43543504Y41114391D02*
X43638742Y41066772D01*
X43638742Y41066772D02*
X44019694Y41066772D01*
X43067313Y41495343D02*
X43019694Y41542962D01*
X43019694Y41542962D02*
X42924456Y41590581D01*
X42924456Y41590581D02*
X42686361Y41590581D01*
X42686361Y41590581D02*
X42591123Y41542962D01*
X42591123Y41542962D02*
X42543504Y41495343D01*
X42543504Y41495343D02*
X42495885Y41400105D01*
X42495885Y41400105D02*
X42495885Y41304867D01*
X42495885Y41304867D02*
X42543504Y41162010D01*
X42543504Y41162010D02*
X43114932Y40590581D01*
X43114932Y40590581D02*
X42495885Y40590581D01*
X9412266Y41124981D02*
X9745599Y41601172D01*
X9983694Y41124981D02*
X9983694Y42124981D01*
X9983694Y42124981D02*
X9602742Y42124981D01*
X9602742Y42124981D02*
X9507504Y42077362D01*
X9507504Y42077362D02*
X9459885Y42029743D01*
X9459885Y42029743D02*
X9412266Y41934505D01*
X9412266Y41934505D02*
X9412266Y41791648D01*
X9412266Y41791648D02*
X9459885Y41696410D01*
X9459885Y41696410D02*
X9507504Y41648791D01*
X9507504Y41648791D02*
X9602742Y41601172D01*
X9602742Y41601172D02*
X9983694Y41601172D01*
X8840837Y41696410D02*
X8936075Y41744029D01*
X8936075Y41744029D02*
X8983694Y41791648D01*
X8983694Y41791648D02*
X9031313Y41886886D01*
X9031313Y41886886D02*
X9031313Y41934505D01*
X9031313Y41934505D02*
X8983694Y42029743D01*
X8983694Y42029743D02*
X8936075Y42077362D01*
X8936075Y42077362D02*
X8840837Y42124981D01*
X8840837Y42124981D02*
X8650361Y42124981D01*
X8650361Y42124981D02*
X8555123Y42077362D01*
X8555123Y42077362D02*
X8507504Y42029743D01*
X8507504Y42029743D02*
X8459885Y41934505D01*
X8459885Y41934505D02*
X8459885Y41886886D01*
X8459885Y41886886D02*
X8507504Y41791648D01*
X8507504Y41791648D02*
X8555123Y41744029D01*
X8555123Y41744029D02*
X8650361Y41696410D01*
X8650361Y41696410D02*
X8840837Y41696410D01*
X8840837Y41696410D02*
X8936075Y41648791D01*
X8936075Y41648791D02*
X8983694Y41601172D01*
X8983694Y41601172D02*
X9031313Y41505934D01*
X9031313Y41505934D02*
X9031313Y41315458D01*
X9031313Y41315458D02*
X8983694Y41220220D01*
X8983694Y41220220D02*
X8936075Y41172600D01*
X8936075Y41172600D02*
X8840837Y41124981D01*
X8840837Y41124981D02*
X8650361Y41124981D01*
X8650361Y41124981D02*
X8555123Y41172600D01*
X8555123Y41172600D02*
X8507504Y41220220D01*
X8507504Y41220220D02*
X8459885Y41315458D01*
X8459885Y41315458D02*
X8459885Y41505934D01*
X8459885Y41505934D02*
X8507504Y41601172D01*
X8507504Y41601172D02*
X8555123Y41648791D01*
X8555123Y41648791D02*
X8650361Y41696410D01*
X51762819Y12218895D02*
X50762819Y12218895D01*
X50762819Y12218895D02*
X50762819Y11980800D01*
X50762819Y11980800D02*
X50810438Y11837943D01*
X50810438Y11837943D02*
X50905676Y11742705D01*
X50905676Y11742705D02*
X51000914Y11695086D01*
X51000914Y11695086D02*
X51191390Y11647467D01*
X51191390Y11647467D02*
X51334247Y11647467D01*
X51334247Y11647467D02*
X51524723Y11695086D01*
X51524723Y11695086D02*
X51619961Y11742705D01*
X51619961Y11742705D02*
X51715200Y11837943D01*
X51715200Y11837943D02*
X51762819Y11980800D01*
X51762819Y11980800D02*
X51762819Y12218895D01*
X50858057Y11266514D02*
X50810438Y11218895D01*
X50810438Y11218895D02*
X50762819Y11123657D01*
X50762819Y11123657D02*
X50762819Y10885562D01*
X50762819Y10885562D02*
X50810438Y10790324D01*
X50810438Y10790324D02*
X50858057Y10742705D01*
X50858057Y10742705D02*
X50953295Y10695086D01*
X50953295Y10695086D02*
X51048533Y10695086D01*
X51048533Y10695086D02*
X51191390Y10742705D01*
X51191390Y10742705D02*
X51762819Y11314133D01*
X51762819Y11314133D02*
X51762819Y10695086D01*
X16656038Y34070143D02*
X16751276Y34117762D01*
X16751276Y34117762D02*
X16846514Y34213000D01*
X16846514Y34213000D02*
X16989371Y34355858D01*
X16989371Y34355858D02*
X17084609Y34403477D01*
X17084609Y34403477D02*
X17179847Y34403477D01*
X17132228Y34165381D02*
X17227466Y34213000D01*
X17227466Y34213000D02*
X17322704Y34308239D01*
X17322704Y34308239D02*
X17370323Y34498715D01*
X17370323Y34498715D02*
X17370323Y34832048D01*
X17370323Y34832048D02*
X17322704Y35022524D01*
X17322704Y35022524D02*
X17227466Y35117762D01*
X17227466Y35117762D02*
X17132228Y35165381D01*
X17132228Y35165381D02*
X16941752Y35165381D01*
X16941752Y35165381D02*
X16846514Y35117762D01*
X16846514Y35117762D02*
X16751276Y35022524D01*
X16751276Y35022524D02*
X16703657Y34832048D01*
X16703657Y34832048D02*
X16703657Y34498715D01*
X16703657Y34498715D02*
X16751276Y34308239D01*
X16751276Y34308239D02*
X16846514Y34213000D01*
X16846514Y34213000D02*
X16941752Y34165381D01*
X16941752Y34165381D02*
X17132228Y34165381D01*
X15751276Y34165381D02*
X16322704Y34165381D01*
X16036990Y34165381D02*
X16036990Y35165381D01*
X16036990Y35165381D02*
X16132228Y35022524D01*
X16132228Y35022524D02*
X16227466Y34927286D01*
X16227466Y34927286D02*
X16322704Y34879667D01*
X30284657Y44605781D02*
X30617990Y45081972D01*
X30856085Y44605781D02*
X30856085Y45605781D01*
X30856085Y45605781D02*
X30475133Y45605781D01*
X30475133Y45605781D02*
X30379895Y45558162D01*
X30379895Y45558162D02*
X30332276Y45510543D01*
X30332276Y45510543D02*
X30284657Y45415305D01*
X30284657Y45415305D02*
X30284657Y45272448D01*
X30284657Y45272448D02*
X30332276Y45177210D01*
X30332276Y45177210D02*
X30379895Y45129591D01*
X30379895Y45129591D02*
X30475133Y45081972D01*
X30475133Y45081972D02*
X30856085Y45081972D01*
X29903704Y45510543D02*
X29856085Y45558162D01*
X29856085Y45558162D02*
X29760847Y45605781D01*
X29760847Y45605781D02*
X29522752Y45605781D01*
X29522752Y45605781D02*
X29427514Y45558162D01*
X29427514Y45558162D02*
X29379895Y45510543D01*
X29379895Y45510543D02*
X29332276Y45415305D01*
X29332276Y45415305D02*
X29332276Y45320067D01*
X29332276Y45320067D02*
X29379895Y45177210D01*
X29379895Y45177210D02*
X29951323Y44605781D01*
X29951323Y44605781D02*
X29332276Y44605781D01*
X28475133Y45605781D02*
X28665609Y45605781D01*
X28665609Y45605781D02*
X28760847Y45558162D01*
X28760847Y45558162D02*
X28808466Y45510543D01*
X28808466Y45510543D02*
X28903704Y45367686D01*
X28903704Y45367686D02*
X28951323Y45177210D01*
X28951323Y45177210D02*
X28951323Y44796258D01*
X28951323Y44796258D02*
X28903704Y44701020D01*
X28903704Y44701020D02*
X28856085Y44653400D01*
X28856085Y44653400D02*
X28760847Y44605781D01*
X28760847Y44605781D02*
X28570371Y44605781D01*
X28570371Y44605781D02*
X28475133Y44653400D01*
X28475133Y44653400D02*
X28427514Y44701020D01*
X28427514Y44701020D02*
X28379895Y44796258D01*
X28379895Y44796258D02*
X28379895Y45034353D01*
X28379895Y45034353D02*
X28427514Y45129591D01*
X28427514Y45129591D02*
X28475133Y45177210D01*
X28475133Y45177210D02*
X28570371Y45224829D01*
X28570371Y45224829D02*
X28760847Y45224829D01*
X28760847Y45224829D02*
X28856085Y45177210D01*
X28856085Y45177210D02*
X28903704Y45129591D01*
X28903704Y45129591D02*
X28951323Y45034353D01*
X70264257Y34866620D02*
X70311876Y34819000D01*
X70311876Y34819000D02*
X70454733Y34771381D01*
X70454733Y34771381D02*
X70549971Y34771381D01*
X70549971Y34771381D02*
X70692828Y34819000D01*
X70692828Y34819000D02*
X70788066Y34914239D01*
X70788066Y34914239D02*
X70835685Y35009477D01*
X70835685Y35009477D02*
X70883304Y35199953D01*
X70883304Y35199953D02*
X70883304Y35342810D01*
X70883304Y35342810D02*
X70835685Y35533286D01*
X70835685Y35533286D02*
X70788066Y35628524D01*
X70788066Y35628524D02*
X70692828Y35723762D01*
X70692828Y35723762D02*
X70549971Y35771381D01*
X70549971Y35771381D02*
X70454733Y35771381D01*
X70454733Y35771381D02*
X70311876Y35723762D01*
X70311876Y35723762D02*
X70264257Y35676143D01*
X69311876Y34771381D02*
X69883304Y34771381D01*
X69597590Y34771381D02*
X69597590Y35771381D01*
X69597590Y35771381D02*
X69692828Y35628524D01*
X69692828Y35628524D02*
X69788066Y35533286D01*
X69788066Y35533286D02*
X69883304Y35485667D01*
X68454733Y35438048D02*
X68454733Y34771381D01*
X68692828Y35819000D02*
X68930923Y35104715D01*
X68930923Y35104715D02*
X68311876Y35104715D01*
X30146619Y14109058D02*
X29670428Y14442391D01*
X30146619Y14680486D02*
X29146619Y14680486D01*
X29146619Y14680486D02*
X29146619Y14299534D01*
X29146619Y14299534D02*
X29194238Y14204296D01*
X29194238Y14204296D02*
X29241857Y14156677D01*
X29241857Y14156677D02*
X29337095Y14109058D01*
X29337095Y14109058D02*
X29479952Y14109058D01*
X29479952Y14109058D02*
X29575190Y14156677D01*
X29575190Y14156677D02*
X29622809Y14204296D01*
X29622809Y14204296D02*
X29670428Y14299534D01*
X29670428Y14299534D02*
X29670428Y14680486D01*
X30146619Y13156677D02*
X30146619Y13728105D01*
X30146619Y13442391D02*
X29146619Y13442391D01*
X29146619Y13442391D02*
X29289476Y13537629D01*
X29289476Y13537629D02*
X29384714Y13632867D01*
X29384714Y13632867D02*
X29432333Y13728105D01*
X29146619Y12823343D02*
X29146619Y12156677D01*
X29146619Y12156677D02*
X30146619Y12585248D01*
X59749519Y13833658D02*
X59273328Y14166991D01*
X59749519Y14405086D02*
X58749519Y14405086D01*
X58749519Y14405086D02*
X58749519Y14024134D01*
X58749519Y14024134D02*
X58797138Y13928896D01*
X58797138Y13928896D02*
X58844757Y13881277D01*
X58844757Y13881277D02*
X58939995Y13833658D01*
X58939995Y13833658D02*
X59082852Y13833658D01*
X59082852Y13833658D02*
X59178090Y13881277D01*
X59178090Y13881277D02*
X59225709Y13928896D01*
X59225709Y13928896D02*
X59273328Y14024134D01*
X59273328Y14024134D02*
X59273328Y14405086D01*
X58844757Y13452705D02*
X58797138Y13405086D01*
X58797138Y13405086D02*
X58749519Y13309848D01*
X58749519Y13309848D02*
X58749519Y13071753D01*
X58749519Y13071753D02*
X58797138Y12976515D01*
X58797138Y12976515D02*
X58844757Y12928896D01*
X58844757Y12928896D02*
X58939995Y12881277D01*
X58939995Y12881277D02*
X59035233Y12881277D01*
X59035233Y12881277D02*
X59178090Y12928896D01*
X59178090Y12928896D02*
X59749519Y13500324D01*
X59749519Y13500324D02*
X59749519Y12881277D01*
X59749519Y12405086D02*
X59749519Y12214610D01*
X59749519Y12214610D02*
X59701900Y12119372D01*
X59701900Y12119372D02*
X59654280Y12071753D01*
X59654280Y12071753D02*
X59511423Y11976515D01*
X59511423Y11976515D02*
X59320947Y11928896D01*
X59320947Y11928896D02*
X58939995Y11928896D01*
X58939995Y11928896D02*
X58844757Y11976515D01*
X58844757Y11976515D02*
X58797138Y12024134D01*
X58797138Y12024134D02*
X58749519Y12119372D01*
X58749519Y12119372D02*
X58749519Y12309848D01*
X58749519Y12309848D02*
X58797138Y12405086D01*
X58797138Y12405086D02*
X58844757Y12452705D01*
X58844757Y12452705D02*
X58939995Y12500324D01*
X58939995Y12500324D02*
X59178090Y12500324D01*
X59178090Y12500324D02*
X59273328Y12452705D01*
X59273328Y12452705D02*
X59320947Y12405086D01*
X59320947Y12405086D02*
X59368566Y12309848D01*
X59368566Y12309848D02*
X59368566Y12119372D01*
X59368566Y12119372D02*
X59320947Y12024134D01*
X59320947Y12024134D02*
X59273328Y11976515D01*
X59273328Y11976515D02*
X59178090Y11928896D01*
X64565419Y47531258D02*
X64089228Y47864591D01*
X64565419Y48102686D02*
X63565419Y48102686D01*
X63565419Y48102686D02*
X63565419Y47721734D01*
X63565419Y47721734D02*
X63613038Y47626496D01*
X63613038Y47626496D02*
X63660657Y47578877D01*
X63660657Y47578877D02*
X63755895Y47531258D01*
X63755895Y47531258D02*
X63898752Y47531258D01*
X63898752Y47531258D02*
X63993990Y47578877D01*
X63993990Y47578877D02*
X64041609Y47626496D01*
X64041609Y47626496D02*
X64089228Y47721734D01*
X64089228Y47721734D02*
X64089228Y48102686D01*
X63660657Y47150305D02*
X63613038Y47102686D01*
X63613038Y47102686D02*
X63565419Y47007448D01*
X63565419Y47007448D02*
X63565419Y46769353D01*
X63565419Y46769353D02*
X63613038Y46674115D01*
X63613038Y46674115D02*
X63660657Y46626496D01*
X63660657Y46626496D02*
X63755895Y46578877D01*
X63755895Y46578877D02*
X63851133Y46578877D01*
X63851133Y46578877D02*
X63993990Y46626496D01*
X63993990Y46626496D02*
X64565419Y47197924D01*
X64565419Y47197924D02*
X64565419Y46578877D01*
X63898752Y45721734D02*
X64565419Y45721734D01*
X63517800Y45959829D02*
X64232085Y46197924D01*
X64232085Y46197924D02*
X64232085Y45578877D01*
X52500419Y35796458D02*
X52024228Y36129791D01*
X52500419Y36367886D02*
X51500419Y36367886D01*
X51500419Y36367886D02*
X51500419Y35986934D01*
X51500419Y35986934D02*
X51548038Y35891696D01*
X51548038Y35891696D02*
X51595657Y35844077D01*
X51595657Y35844077D02*
X51690895Y35796458D01*
X51690895Y35796458D02*
X51833752Y35796458D01*
X51833752Y35796458D02*
X51928990Y35844077D01*
X51928990Y35844077D02*
X51976609Y35891696D01*
X51976609Y35891696D02*
X52024228Y35986934D01*
X52024228Y35986934D02*
X52024228Y36367886D01*
X52500419Y34844077D02*
X52500419Y35415505D01*
X52500419Y35129791D02*
X51500419Y35129791D01*
X51500419Y35129791D02*
X51643276Y35225029D01*
X51643276Y35225029D02*
X51738514Y35320267D01*
X51738514Y35320267D02*
X51786133Y35415505D01*
X52500419Y33891696D02*
X52500419Y34463124D01*
X52500419Y34177410D02*
X51500419Y34177410D01*
X51500419Y34177410D02*
X51643276Y34272648D01*
X51643276Y34272648D02*
X51738514Y34367886D01*
X51738514Y34367886D02*
X51786133Y34463124D01*
X67360704Y36617481D02*
X67360704Y35807958D01*
X67360704Y35807958D02*
X67313085Y35712720D01*
X67313085Y35712720D02*
X67265466Y35665100D01*
X67265466Y35665100D02*
X67170228Y35617481D01*
X67170228Y35617481D02*
X66979752Y35617481D01*
X66979752Y35617481D02*
X66884514Y35665100D01*
X66884514Y35665100D02*
X66836895Y35712720D01*
X66836895Y35712720D02*
X66789276Y35807958D01*
X66789276Y35807958D02*
X66789276Y36617481D01*
X66408323Y36617481D02*
X65789276Y36617481D01*
X65789276Y36617481D02*
X66122609Y36236529D01*
X66122609Y36236529D02*
X65979752Y36236529D01*
X65979752Y36236529D02*
X65884514Y36188910D01*
X65884514Y36188910D02*
X65836895Y36141291D01*
X65836895Y36141291D02*
X65789276Y36046053D01*
X65789276Y36046053D02*
X65789276Y35807958D01*
X65789276Y35807958D02*
X65836895Y35712720D01*
X65836895Y35712720D02*
X65884514Y35665100D01*
X65884514Y35665100D02*
X65979752Y35617481D01*
X65979752Y35617481D02*
X66265466Y35617481D01*
X66265466Y35617481D02*
X66360704Y35665100D01*
X66360704Y35665100D02*
X66408323Y35712720D01*
X60857019Y47531258D02*
X60380828Y47864591D01*
X60857019Y48102686D02*
X59857019Y48102686D01*
X59857019Y48102686D02*
X59857019Y47721734D01*
X59857019Y47721734D02*
X59904638Y47626496D01*
X59904638Y47626496D02*
X59952257Y47578877D01*
X59952257Y47578877D02*
X60047495Y47531258D01*
X60047495Y47531258D02*
X60190352Y47531258D01*
X60190352Y47531258D02*
X60285590Y47578877D01*
X60285590Y47578877D02*
X60333209Y47626496D01*
X60333209Y47626496D02*
X60380828Y47721734D01*
X60380828Y47721734D02*
X60380828Y48102686D01*
X60857019Y46578877D02*
X60857019Y47150305D01*
X60857019Y46864591D02*
X59857019Y46864591D01*
X59857019Y46864591D02*
X59999876Y46959829D01*
X59999876Y46959829D02*
X60095114Y47055067D01*
X60095114Y47055067D02*
X60142733Y47150305D01*
X60190352Y45721734D02*
X60857019Y45721734D01*
X59809400Y45959829D02*
X60523685Y46197924D01*
X60523685Y46197924D02*
X60523685Y45578877D01*
X58713666Y28719820D02*
X58761285Y28672200D01*
X58761285Y28672200D02*
X58904142Y28624581D01*
X58904142Y28624581D02*
X58999380Y28624581D01*
X58999380Y28624581D02*
X59142237Y28672200D01*
X59142237Y28672200D02*
X59237475Y28767439D01*
X59237475Y28767439D02*
X59285094Y28862677D01*
X59285094Y28862677D02*
X59332713Y29053153D01*
X59332713Y29053153D02*
X59332713Y29196010D01*
X59332713Y29196010D02*
X59285094Y29386486D01*
X59285094Y29386486D02*
X59237475Y29481724D01*
X59237475Y29481724D02*
X59142237Y29576962D01*
X59142237Y29576962D02*
X58999380Y29624581D01*
X58999380Y29624581D02*
X58904142Y29624581D01*
X58904142Y29624581D02*
X58761285Y29576962D01*
X58761285Y29576962D02*
X58713666Y29529343D01*
X57808904Y29624581D02*
X58285094Y29624581D01*
X58285094Y29624581D02*
X58332713Y29148391D01*
X58332713Y29148391D02*
X58285094Y29196010D01*
X58285094Y29196010D02*
X58189856Y29243629D01*
X58189856Y29243629D02*
X57951761Y29243629D01*
X57951761Y29243629D02*
X57856523Y29196010D01*
X57856523Y29196010D02*
X57808904Y29148391D01*
X57808904Y29148391D02*
X57761285Y29053153D01*
X57761285Y29053153D02*
X57761285Y28815058D01*
X57761285Y28815058D02*
X57808904Y28719820D01*
X57808904Y28719820D02*
X57856523Y28672200D01*
X57856523Y28672200D02*
X57951761Y28624581D01*
X57951761Y28624581D02*
X58189856Y28624581D01*
X58189856Y28624581D02*
X58285094Y28672200D01*
X58285094Y28672200D02*
X58332713Y28719820D01*
X24093466Y41963181D02*
X24426799Y42439372D01*
X24664894Y41963181D02*
X24664894Y42963181D01*
X24664894Y42963181D02*
X24283942Y42963181D01*
X24283942Y42963181D02*
X24188704Y42915562D01*
X24188704Y42915562D02*
X24141085Y42867943D01*
X24141085Y42867943D02*
X24093466Y42772705D01*
X24093466Y42772705D02*
X24093466Y42629848D01*
X24093466Y42629848D02*
X24141085Y42534610D01*
X24141085Y42534610D02*
X24188704Y42486991D01*
X24188704Y42486991D02*
X24283942Y42439372D01*
X24283942Y42439372D02*
X24664894Y42439372D01*
X23617275Y41963181D02*
X23426799Y41963181D01*
X23426799Y41963181D02*
X23331561Y42010800D01*
X23331561Y42010800D02*
X23283942Y42058420D01*
X23283942Y42058420D02*
X23188704Y42201277D01*
X23188704Y42201277D02*
X23141085Y42391753D01*
X23141085Y42391753D02*
X23141085Y42772705D01*
X23141085Y42772705D02*
X23188704Y42867943D01*
X23188704Y42867943D02*
X23236323Y42915562D01*
X23236323Y42915562D02*
X23331561Y42963181D01*
X23331561Y42963181D02*
X23522037Y42963181D01*
X23522037Y42963181D02*
X23617275Y42915562D01*
X23617275Y42915562D02*
X23664894Y42867943D01*
X23664894Y42867943D02*
X23712513Y42772705D01*
X23712513Y42772705D02*
X23712513Y42534610D01*
X23712513Y42534610D02*
X23664894Y42439372D01*
X23664894Y42439372D02*
X23617275Y42391753D01*
X23617275Y42391753D02*
X23522037Y42344134D01*
X23522037Y42344134D02*
X23331561Y42344134D01*
X23331561Y42344134D02*
X23236323Y42391753D01*
X23236323Y42391753D02*
X23188704Y42439372D01*
X23188704Y42439372D02*
X23141085Y42534610D01*
X48537019Y17210067D02*
X48060828Y17543400D01*
X48537019Y17781495D02*
X47537019Y17781495D01*
X47537019Y17781495D02*
X47537019Y17400543D01*
X47537019Y17400543D02*
X47584638Y17305305D01*
X47584638Y17305305D02*
X47632257Y17257686D01*
X47632257Y17257686D02*
X47727495Y17210067D01*
X47727495Y17210067D02*
X47870352Y17210067D01*
X47870352Y17210067D02*
X47965590Y17257686D01*
X47965590Y17257686D02*
X48013209Y17305305D01*
X48013209Y17305305D02*
X48060828Y17400543D01*
X48060828Y17400543D02*
X48060828Y17781495D01*
X48537019Y16257686D02*
X48537019Y16829114D01*
X48537019Y16543400D02*
X47537019Y16543400D01*
X47537019Y16543400D02*
X47679876Y16638638D01*
X47679876Y16638638D02*
X47775114Y16733876D01*
X47775114Y16733876D02*
X47822733Y16829114D01*
D12*
%TO.C,C9*%
X36710252Y41095600D02*
X36187748Y41095600D01*
X36710252Y39625600D02*
X36187748Y39625600D01*
%TO.C,C8*%
X34341000Y43576200D02*
X38261000Y43576200D01*
X38261000Y43576200D02*
X38261000Y41666200D01*
X38261000Y41666200D02*
X34341000Y41666200D01*
%TO.C,U2*%
X31491400Y37114000D02*
X31491400Y36539000D01*
X31491400Y27469000D02*
X31491400Y26894000D01*
X31491400Y26894000D02*
X32066400Y26894000D01*
X32066400Y37114000D02*
X31491400Y37114000D01*
X41136400Y26894000D02*
X41711400Y26894000D01*
X41711400Y37114000D02*
X41136400Y37114000D01*
X41711400Y36539000D02*
X41711400Y37114000D01*
X41711400Y26894000D02*
X41711400Y27469000D01*
X41611400Y25914000D02*
X41141400Y26254000D01*
X41611400Y26594000D01*
X41611400Y25914000D01*
G36*
X41611400Y25914000D02*
G01*
X41141400Y26254000D01*
X41611400Y26594000D01*
X41611400Y25914000D01*
G37*
%TO.C,R12*%
X25376136Y26744600D02*
X25830264Y26744600D01*
X25376136Y25274600D02*
X25830264Y25274600D01*
%TO.C,R5*%
X38863600Y23315664D02*
X38863600Y22861536D01*
X40333600Y23315664D02*
X40333600Y22861536D01*
%TO.C,C10*%
X36577600Y23375252D02*
X36577600Y22852748D01*
X38047600Y23375252D02*
X38047600Y22852748D01*
%TO.C,C11*%
X44299200Y32265252D02*
X44299200Y31742748D01*
X45769200Y32265252D02*
X45769200Y31742748D01*
%TO.C,C12*%
X26773200Y31742748D02*
X26773200Y32265252D01*
X28243200Y31742748D02*
X28243200Y32265252D01*
%TO.C,C2*%
X40794000Y23324452D02*
X40794000Y22801948D01*
X42264000Y23324452D02*
X42264000Y22801948D01*
%TO.C,R13*%
X25350736Y29259200D02*
X25804864Y29259200D01*
X25350736Y27789200D02*
X25804864Y27789200D01*
%TO.C,U1*%
X56042800Y34930700D02*
X57092800Y34930700D01*
X56042800Y32610700D02*
X57342800Y32610700D01*
X57732800Y34930700D02*
X57452800Y34930700D01*
X57452800Y35210700D01*
X57732800Y34930700D01*
G36*
X57732800Y34930700D02*
G01*
X57452800Y34930700D01*
X57452800Y35210700D01*
X57732800Y34930700D01*
G37*
%TO.C,C6*%
X59454148Y37590400D02*
X59976652Y37590400D01*
X59454148Y36120400D02*
X59976652Y36120400D01*
%TO.C,J1*%
X40809200Y10223200D02*
X42609200Y10223200D01*
X40809200Y8773200D02*
X40809200Y10223200D01*
X49979200Y10223200D02*
X49979200Y11213200D01*
X50509200Y5953200D02*
X42079200Y5953200D01*
X51779200Y10223200D02*
X49979200Y10223200D01*
X51779200Y8773200D02*
X51779200Y10223200D01*
%TO.C,Q2*%
X15673800Y43012800D02*
X15673800Y42012800D01*
X15673800Y40892800D02*
X15673800Y39892800D01*
X15673800Y39892800D02*
X17193800Y39892800D01*
X17193800Y43012800D02*
X15673800Y43012800D01*
X17193800Y42962800D02*
X17193800Y43012800D01*
X17193800Y41062800D02*
X17193800Y41842800D01*
X17193800Y39892800D02*
X17193800Y39942800D01*
X17973800Y41502800D02*
X17493800Y41502800D01*
X17733800Y41832800D01*
X17973800Y41502800D01*
G36*
X17973800Y41502800D02*
G01*
X17493800Y41502800D01*
X17733800Y41832800D01*
X17973800Y41502800D01*
G37*
%TO.C,C13*%
X68191748Y31596000D02*
X68714252Y31596000D01*
X68191748Y30126000D02*
X68714252Y30126000D01*
%TO.C,R10*%
X56564264Y36777600D02*
X56110136Y36777600D01*
X56564264Y35307600D02*
X56110136Y35307600D01*
%TO.C,C3*%
X30278400Y20022452D02*
X30278400Y19499948D01*
X31748400Y20022452D02*
X31748400Y19499948D01*
%TO.C,R22*%
X66470264Y36879200D02*
X66016136Y36879200D01*
X66470264Y35409200D02*
X66016136Y35409200D01*
%TO.C,L1*%
X52449000Y13684067D02*
X52449000Y13341533D01*
X53469000Y13684067D02*
X53469000Y13341533D01*
%TO.C,C7*%
X56573052Y38708000D02*
X56050548Y38708000D01*
X56573052Y37238000D02*
X56050548Y37238000D01*
%TO.C,J2*%
X15895600Y10223200D02*
X17695600Y10223200D01*
X15895600Y8773200D02*
X15895600Y10223200D01*
X27565600Y10223200D02*
X27565600Y11213200D01*
X28095600Y5953200D02*
X17165600Y5953200D01*
X29365600Y10223200D02*
X27565600Y10223200D01*
X29365600Y8773200D02*
X29365600Y10223200D01*
%TO.C,R7*%
X21055064Y38885800D02*
X20600936Y38885800D01*
X21055064Y37415800D02*
X20600936Y37415800D01*
%TO.C,R6*%
X12901664Y37869800D02*
X12447536Y37869800D01*
X12901664Y36399800D02*
X12447536Y36399800D01*
%TO.C,R21*%
X30253000Y23696664D02*
X30253000Y23242536D01*
X31723000Y23696664D02*
X31723000Y23242536D01*
%TO.C,J6*%
X53266000Y10223200D02*
X55066000Y10223200D01*
X53266000Y8773200D02*
X53266000Y10223200D01*
X63686000Y10223200D02*
X63686000Y11213200D01*
X64216000Y5953200D02*
X54536000Y5953200D01*
X65486000Y10223200D02*
X63686000Y10223200D01*
X65486000Y8773200D02*
X65486000Y10223200D01*
%TO.C,J4*%
X30847400Y10223200D02*
X32647400Y10223200D01*
X30847400Y8773200D02*
X30847400Y10223200D01*
X37517400Y10223200D02*
X37517400Y11213200D01*
X38047400Y5953200D02*
X32117400Y5953200D01*
X39317400Y10223200D02*
X37517400Y10223200D01*
X39317400Y8773200D02*
X39317400Y10223200D01*
%TO.C,D1*%
X49336400Y15179200D02*
X50536400Y15179200D01*
X49336400Y13219200D02*
X49336400Y15179200D01*
X50536400Y13219200D02*
X50536400Y15179200D01*
D11*
%TO.C,SW2*%
X45283600Y41597400D02*
X45283600Y43797400D01*
X45983600Y42697400D02*
X45283600Y42697400D01*
X47383600Y42697400D02*
X45883600Y42097400D01*
X47883600Y43797400D02*
X47883600Y41597400D01*
X47883600Y42697400D02*
X47383600Y42697400D01*
D12*
%TO.C,R28*%
X58904300Y12953542D02*
X58904300Y13428058D01*
X59949300Y12953542D02*
X59949300Y13428058D01*
D11*
%TO.C,SW1*%
X42007000Y41597400D02*
X42007000Y43797400D01*
X42707000Y42697400D02*
X42007000Y42697400D01*
X44107000Y42697400D02*
X42607000Y42097400D01*
X44607000Y43797400D02*
X44607000Y41597400D01*
X44607000Y42697400D02*
X44107000Y42697400D01*
D12*
%TO.C,R20*%
X27586000Y19708864D02*
X27586000Y19254736D01*
X29056000Y19708864D02*
X29056000Y19254736D01*
%TO.C,R4*%
X45416800Y14146264D02*
X45416800Y13692136D01*
X46886800Y14146264D02*
X46886800Y13692136D01*
%TO.C,R18*%
X25235700Y14025364D02*
X25235700Y13571236D01*
X26705700Y14025364D02*
X26705700Y13571236D01*
%TO.C,R15*%
X12472936Y33221600D02*
X12927064Y33221600D01*
X12472936Y31751600D02*
X12927064Y31751600D01*
%TO.C,TP2*%
X31992800Y40284400D02*
G75*
G02*
X30592800Y40284400I-700000J0D01*
G01*
X30592800Y40284400D02*
G75*
G02*
X31992800Y40284400I700000J0D01*
G01*
%TO.C,R19*%
X23343400Y14025364D02*
X23343400Y13571236D01*
X24813400Y14025364D02*
X24813400Y13571236D01*
%TO.C,TP1*%
X30189400Y38404800D02*
G75*
G02*
X28789400Y38404800I-700000J0D01*
G01*
X28789400Y38404800D02*
G75*
G02*
X30189400Y38404800I700000J0D01*
G01*
%TO.C,R23*%
X62790400Y35634664D02*
X62790400Y35180536D01*
X64260400Y35634664D02*
X64260400Y35180536D01*
%TO.C,Y1*%
X36174800Y21475800D02*
X36174800Y18055800D01*
X36174800Y18055800D02*
X32054800Y18055800D01*
%TO.C,JP1*%
X41018000Y13584200D02*
X41018000Y12984200D01*
X41718000Y12284200D02*
X43118000Y12284200D01*
X43118000Y14284200D02*
X41718000Y14284200D01*
X43818000Y12984200D02*
X43818000Y13584200D01*
X41018000Y13584200D02*
G75*
G02*
X41718000Y14284200I699999J1D01*
G01*
X41718000Y12284200D02*
G75*
G02*
X41018000Y12984200I-1J699999D01*
G01*
X43118000Y14284200D02*
G75*
G02*
X43818000Y13584200I0J-700000D01*
G01*
X43818000Y12984200D02*
G75*
G02*
X43118000Y12284200I-700000J0D01*
G01*
%TO.C,C15*%
X66479052Y38809600D02*
X65956548Y38809600D01*
X66479052Y37339600D02*
X65956548Y37339600D01*
%TO.C,C1*%
X50665748Y17016400D02*
X51188252Y17016400D01*
X50665748Y15546400D02*
X51188252Y15546400D01*
%TO.C,R3*%
X45315200Y38482536D02*
X45315200Y38936664D01*
X46785200Y38482536D02*
X46785200Y38936664D01*
%TO.C,R25*%
X62028500Y12953542D02*
X62028500Y13428058D01*
X63073500Y12953542D02*
X63073500Y13428058D01*
%TO.C,L3*%
X68181200Y33723948D02*
X68181200Y34246452D01*
X70401200Y33723948D02*
X70401200Y34246452D01*
%TO.C,R27*%
X60466400Y12953542D02*
X60466400Y13428058D01*
X61511400Y12953542D02*
X61511400Y13428058D01*
%TO.C,R30*%
X55780100Y12953542D02*
X55780100Y13428058D01*
X56825100Y12953542D02*
X56825100Y13428058D01*
%TO.C,C4*%
X34398852Y17753000D02*
X33876348Y17753000D01*
X34398852Y16283000D02*
X33876348Y16283000D01*
%TO.C,L2*%
X58275200Y33622348D02*
X58275200Y34144852D01*
X60495200Y33622348D02*
X60495200Y34144852D01*
%TO.C,R2*%
X43508664Y40130400D02*
X43054536Y40130400D01*
X43508664Y38660400D02*
X43054536Y38660400D01*
%TO.C,R8*%
X12723864Y42238600D02*
X12269736Y42238600D01*
X12723864Y40768600D02*
X12269736Y40768600D01*
%TO.C,D2*%
X50809600Y15204600D02*
X52009600Y15204600D01*
X50809600Y13244600D02*
X50809600Y15204600D01*
X52009600Y13244600D02*
X52009600Y15204600D01*
%TO.C,Q1*%
X15800800Y38796400D02*
X15800800Y37796400D01*
X15800800Y36676400D02*
X15800800Y35676400D01*
X15800800Y35676400D02*
X17320800Y35676400D01*
X17320800Y38796400D02*
X15800800Y38796400D01*
X17320800Y38746400D02*
X17320800Y38796400D01*
X17320800Y36846400D02*
X17320800Y37626400D01*
X17320800Y35676400D02*
X17320800Y35726400D01*
X18100800Y37286400D02*
X17620800Y37286400D01*
X17860800Y37616400D01*
X18100800Y37286400D01*
G36*
X18100800Y37286400D02*
G01*
X17620800Y37286400D01*
X17860800Y37616400D01*
X18100800Y37286400D01*
G37*
%TO.C,R26*%
X29414736Y47445600D02*
X29868864Y47445600D01*
X29414736Y45975600D02*
X29868864Y45975600D01*
%TO.C,C14*%
X69360148Y37641200D02*
X69882652Y37641200D01*
X69360148Y36171200D02*
X69882652Y36171200D01*
%TO.C,R17*%
X27128000Y14023464D02*
X27128000Y13569336D01*
X28598000Y14023464D02*
X28598000Y13569336D01*
%TO.C,R29*%
X57342200Y12953542D02*
X57342200Y13428058D01*
X58387200Y12953542D02*
X58387200Y13428058D01*
%TO.C,R24*%
X65025600Y47115464D02*
X65025600Y46661336D01*
X66495600Y47115464D02*
X66495600Y46661336D01*
%TO.C,R11*%
X52960600Y35380664D02*
X52960600Y34926536D01*
X54430600Y35380664D02*
X54430600Y34926536D01*
%TO.C,U3*%
X65948800Y35032300D02*
X66998800Y35032300D01*
X65948800Y32712300D02*
X67248800Y32712300D01*
X67638800Y35032300D02*
X67358800Y35032300D01*
X67358800Y35312300D01*
X67638800Y35032300D01*
G36*
X67638800Y35032300D02*
G01*
X67358800Y35032300D01*
X67358800Y35312300D01*
X67638800Y35032300D01*
G37*
%TO.C,R14*%
X61317200Y47115464D02*
X61317200Y46661336D01*
X62787200Y47115464D02*
X62787200Y46661336D01*
%TO.C,C5*%
X58285748Y31494400D02*
X58808252Y31494400D01*
X58285748Y30024400D02*
X58808252Y30024400D01*
%TO.C,R9*%
X20928064Y43153000D02*
X20473936Y43153000D01*
X20928064Y41683000D02*
X20473936Y41683000D01*
%TO.C,R1*%
X47448800Y14146264D02*
X47448800Y13692136D01*
X48918800Y14146264D02*
X48918800Y13692136D01*
%TD*%
M02*
