%TF.GenerationSoftware,KiCad,Pcbnew,9.0.6+1*%
%TF.CreationDate,2025-12-27T21:40:16+00:00*%
%TF.ProjectId,TFUNIPAYLOAD01,5446554e-4950-4415-994c-4f414430312e,rev?*%
%TF.SameCoordinates,PX66dd020PY81342c0*%
%TF.FileFunction,Copper,L1,Top*%
%TF.FilePolarity,Positive*%
%FSLAX46Y46*%
G04 Gerber Fmt 4.6, Leading zero omitted, Abs format (unit mm)*
G04 Created by KiCad (PCBNEW 9.0.6+1) date 2025-12-27 21:40:16*
%MOMM*%
%LPD*%
G01*
G04 APERTURE LIST*
%TA.AperFunction,ComponentPad*%
%ADD10C,6.000000*%
%TD*%
%TA.AperFunction,SMDPad,CuDef*%
%ADD11R,1.524000X1.524000*%
%TD*%
%TA.AperFunction,ComponentPad*%
%ADD12R,1.700000X1.700000*%
%TD*%
%TA.AperFunction,ComponentPad*%
%ADD13C,1.700000*%
%TD*%
%TA.AperFunction,ViaPad*%
%ADD14C,0.800000*%
%TD*%
%TA.AperFunction,Conductor*%
%ADD15C,0.400000*%
%TD*%
G04 APERTURE END LIST*
D10*
%TO.P,M2,1*%
%TO.N,GND*%
X71120000Y50800000D03*
%TD*%
%TO.P,M3,1*%
%TO.N,GND*%
X10160000Y10160000D03*
%TD*%
%TO.P,M4,1*%
%TO.N,GND*%
X71120000Y10160000D03*
%TD*%
%TO.P,M1,1*%
%TO.N,GND*%
X10160000Y50800000D03*
%TD*%
D11*
%TO.P,J3,1*%
%TO.N,/MISO*%
X49987200Y23012400D03*
%TO.P,J3,2*%
%TO.N,+3.3V*%
X47447200Y23012400D03*
%TO.P,J3,3*%
%TO.N,/SCLK*%
X49987200Y25552400D03*
%TO.P,J3,4*%
%TO.N,/MOSI*%
X47447200Y25552400D03*
%TO.P,J3,5*%
%TO.N,/~{RST}_PRG*%
X49987200Y28092400D03*
%TO.P,J3,6*%
%TO.N,GND*%
X47447200Y28092400D03*
%TD*%
D12*
%TO.P,J5,1*%
%TO.N,GND*%
X23144000Y52648800D03*
D13*
%TO.P,J5,2*%
X23144000Y50108800D03*
%TO.P,J5,3*%
%TO.N,+5V*%
X25684000Y52648800D03*
%TO.P,J5,4*%
X25684000Y50108800D03*
%TO.P,J5,5*%
%TO.N,+3.3V*%
X28224000Y52648800D03*
%TO.P,J5,6*%
X28224000Y50108800D03*
%TO.P,J5,7*%
%TO.N,GND*%
X30764000Y52648800D03*
%TO.P,J5,8*%
%TO.N,/EXT_DETECTION*%
X30764000Y50108800D03*
%TO.P,J5,9*%
%TO.N,/A0*%
X33304000Y52648800D03*
%TO.P,J5,10*%
%TO.N,/~{RST}_EXT*%
X33304000Y50108800D03*
%TO.P,J5,11*%
%TO.N,/A1*%
X35844000Y52648800D03*
%TO.P,J5,12*%
%TO.N,/RX1*%
X35844000Y50108800D03*
%TO.P,J5,13*%
%TO.N,/B1*%
X38384000Y52648800D03*
%TO.P,J5,14*%
%TO.N,/TX1*%
X38384000Y50108800D03*
%TO.P,J5,15*%
%TO.N,/B0*%
X40924000Y52648800D03*
%TO.P,J5,16*%
%TO.N,/MOSI*%
X40924000Y50108800D03*
%TO.P,J5,17*%
%TO.N,/C1*%
X43464000Y52648800D03*
%TO.P,J5,18*%
%TO.N,/MISO*%
X43464000Y50108800D03*
%TO.P,J5,19*%
%TO.N,/C0*%
X46004000Y52648800D03*
%TO.P,J5,20*%
%TO.N,/SCLK*%
X46004000Y50108800D03*
%TO.P,J5,21*%
%TO.N,GND*%
X48544000Y52648800D03*
%TO.P,J5,22*%
X48544000Y50108800D03*
%TO.P,J5,23*%
%TO.N,/SCL*%
X51084000Y52648800D03*
%TO.P,J5,24*%
X51084000Y50108800D03*
%TO.P,J5,25*%
%TO.N,+3.3V*%
X53624000Y52648800D03*
%TO.P,J5,26*%
X53624000Y50108800D03*
%TO.P,J5,27*%
%TO.N,/SDA*%
X56164000Y52648800D03*
%TO.P,J5,28*%
X56164000Y50108800D03*
%TO.P,J5,29*%
%TO.N,GND*%
X58704000Y52648800D03*
%TO.P,J5,30*%
X58704000Y50108800D03*
%TD*%
D14*
%TO.N,GND*%
X34518600Y21971000D03*
%TO.N,/~{RST}_PRG*%
X42824400Y23952200D03*
%TO.N,/SCL*%
X33223200Y33604000D03*
%TO.N,/SDA*%
X29057600Y34848800D03*
X34188400Y34264600D03*
X23686450Y25005350D03*
%TO.N,/RX0*%
X46835707Y17199818D03*
X34098751Y25143030D03*
%TO.N,/TX0*%
X45850000Y17031335D03*
X33317094Y24489044D03*
%TO.N,/TX1*%
X30238700Y26098500D03*
%TO.N,/RX1*%
X31305600Y26043242D03*
%TO.N,/~{CTS}*%
X42373014Y25241786D03*
X40767000Y36195000D03*
%TO.N,/EXT_DETECTION*%
X39293150Y44603050D03*
X42291000Y37439600D03*
%TO.N,/SCLK*%
X58039000Y21209000D03*
%TO.N,/MOSI*%
X55796467Y20567144D03*
X45974000Y25577800D03*
%TO.N,/MISO*%
X58242200Y18491200D03*
X49987200Y21894800D03*
%TO.N,/CS1*%
X52437765Y22541333D03*
X55247246Y19731463D03*
%TO.N,/CS2*%
X54660800Y17970400D03*
X51714838Y23302990D03*
%TO.N,/~{RTS}*%
X39775543Y36325455D03*
X45249000Y19855032D03*
%TD*%
D15*
%TO.N,/~{RST}_PRG*%
X45801600Y26929400D02*
X42824400Y23952200D01*
X49987200Y28092400D02*
X48824200Y26929400D01*
X48824200Y26929400D02*
X45801600Y26929400D01*
%TO.N,/SCL*%
X33223200Y42214800D02*
X33223200Y33604000D01*
X51084000Y50108800D02*
X51084000Y52648800D01*
X51084000Y50108800D02*
X47558800Y46583600D01*
X47558800Y46583600D02*
X37592000Y46583600D01*
X37592000Y46583600D02*
X33223200Y42214800D01*
%TO.N,/SDA*%
X34163000Y40604272D02*
X39126328Y45567600D01*
X56164000Y52648800D02*
X56164000Y50108800D01*
X23686450Y29477650D02*
X29057600Y34848800D01*
X51622800Y45567600D02*
X56164000Y50108800D01*
X39126328Y45567600D02*
X51622800Y45567600D01*
X34188400Y34264600D02*
X34163000Y34290000D01*
X23686450Y25005350D02*
X23686450Y29477650D01*
X34163000Y34290000D02*
X34163000Y40604272D01*
%TO.N,/RX0*%
X34098751Y25143030D02*
X34098751Y25083249D01*
X40944800Y18237200D02*
X45798325Y18237200D01*
X45798325Y18237200D02*
X46835707Y17199818D01*
X34098751Y25083249D02*
X40944800Y18237200D01*
%TO.N,/TX0*%
X33317094Y24489044D02*
X33473756Y24489044D01*
X45658865Y16840200D02*
X45850000Y17031335D01*
X41122600Y16840200D02*
X45658865Y16840200D01*
X33473756Y24489044D02*
X41122600Y16840200D01*
%TO.N,/TX1*%
X30238700Y26098500D02*
X30238700Y25978771D01*
X32105600Y24790400D02*
X32105600Y43830400D01*
X32105600Y43830400D02*
X38384000Y50108800D01*
X30238700Y25978771D02*
X31427071Y24790400D01*
X31427071Y24790400D02*
X32105600Y24790400D01*
%TO.N,/RX1*%
X31305600Y45570400D02*
X31305600Y26043242D01*
X35844000Y50108800D02*
X31305600Y45570400D01*
%TO.N,/~{CTS}*%
X40767000Y36195000D02*
X40767000Y26085800D01*
X41611014Y25241786D02*
X42373014Y25241786D01*
X40767000Y26085800D02*
X41611014Y25241786D01*
%TO.N,/EXT_DETECTION*%
X39243000Y40487600D02*
X39243000Y44552900D01*
X42291000Y37439600D02*
X39243000Y40487600D01*
X39243000Y44552900D02*
X39293150Y44603050D01*
%TO.N,/SCLK*%
X49987200Y25552400D02*
X52705000Y25552400D01*
X52705000Y25552400D02*
X57048400Y21209000D01*
X57048400Y21209000D02*
X58039000Y21209000D01*
%TO.N,/MOSI*%
X47447200Y25552400D02*
X48742600Y24257000D01*
X45999400Y25552400D02*
X45974000Y25577800D01*
X48742600Y24257000D02*
X52832000Y24257000D01*
X52832000Y24257000D02*
X55796467Y21292533D01*
X47447200Y25552400D02*
X45999400Y25552400D01*
X55796467Y21292533D02*
X55796467Y20567144D01*
%TO.N,/MISO*%
X49987200Y23012400D02*
X49987200Y19837400D01*
X49987200Y23012400D02*
X49987200Y22961600D01*
X56921400Y17170400D02*
X58242200Y18491200D01*
X49987200Y19837400D02*
X52654200Y17170400D01*
X52654200Y17170400D02*
X56921400Y17170400D01*
%TO.N,/CS1*%
X54965193Y19731463D02*
X55247246Y19731463D01*
X52437765Y22541333D02*
X52437765Y22258891D01*
X52437765Y22258891D02*
X54965193Y19731463D01*
%TO.N,/CS2*%
X54660800Y17970400D02*
X54660800Y19187328D01*
X54660800Y19187328D02*
X51435000Y22413128D01*
X51435000Y22413128D02*
X51435000Y23023152D01*
X51435000Y23023152D02*
X51714838Y23302990D01*
%TO.N,/~{RTS}*%
X39775543Y36325455D02*
X39954200Y36146798D01*
X45067368Y19855032D02*
X45249000Y19855032D01*
X39954200Y24968200D02*
X45067368Y19855032D01*
X39954200Y36146798D02*
X39954200Y24968200D01*
%TD*%
%TA.AperFunction,Conductor*%
%TO.N,GND*%
G36*
X58238075Y52455807D02*
G01*
X58303901Y52341793D01*
X58396993Y52248701D01*
X58511007Y52182875D01*
X58579052Y52164643D01*
X57924081Y51509671D01*
X57980722Y51468518D01*
X57983684Y51467008D01*
X58026947Y51423742D01*
X58036517Y51363309D01*
X58008737Y51308794D01*
X57983684Y51290592D01*
X57980728Y51289087D01*
X57980725Y51289085D01*
X57924082Y51247930D01*
X58579053Y50592959D01*
X58511007Y50574725D01*
X58396993Y50508899D01*
X58303901Y50415807D01*
X58238075Y50301793D01*
X58219841Y50233747D01*
X57564870Y50888718D01*
X57523716Y50832076D01*
X57425104Y50638537D01*
X57357039Y50429055D01*
X57321075Y50379555D01*
X57262884Y50360648D01*
X57204693Y50379555D01*
X57171420Y50421762D01*
X57102222Y50588819D01*
X57094941Y50606398D01*
X56979977Y50778455D01*
X56833655Y50924777D01*
X56661598Y51039741D01*
X56661599Y51039741D01*
X56661594Y51039744D01*
X56625613Y51054648D01*
X56605171Y51072108D01*
X56583407Y51087920D01*
X56582158Y51091763D01*
X56579088Y51094385D01*
X56564500Y51146111D01*
X56564500Y51611491D01*
X56583407Y51669682D01*
X56625615Y51702955D01*
X56661598Y51717859D01*
X56833655Y51832823D01*
X56979977Y51979145D01*
X57094941Y52151202D01*
X57171421Y52335841D01*
X57211157Y52382364D01*
X57270651Y52396648D01*
X57327179Y52373233D01*
X57357039Y52328546D01*
X57425104Y52119064D01*
X57523717Y51925523D01*
X57523721Y51925518D01*
X57564869Y51868883D01*
X57564870Y51868883D01*
X58219841Y52523854D01*
X58238075Y52455807D01*
G37*
%TD.AperFunction*%
%TA.AperFunction,Conductor*%
G36*
X49683129Y51868883D02*
G01*
X49724280Y51925521D01*
X49724285Y51925529D01*
X49822896Y52119066D01*
X49890960Y52328545D01*
X49926924Y52378046D01*
X49985115Y52396953D01*
X50043306Y52378046D01*
X50076579Y52335839D01*
X50153058Y52151203D01*
X50268020Y51979149D01*
X50268023Y51979145D01*
X50414345Y51832823D01*
X50586402Y51717859D01*
X50622384Y51702955D01*
X50668910Y51663220D01*
X50683500Y51611491D01*
X50683500Y51146111D01*
X50664593Y51087920D01*
X50622387Y51054648D01*
X50586405Y51039744D01*
X50414348Y50924780D01*
X50268020Y50778452D01*
X50153058Y50606398D01*
X50076579Y50421762D01*
X50036842Y50375236D01*
X49977347Y50360953D01*
X49920819Y50384368D01*
X49890960Y50429055D01*
X49822895Y50638537D01*
X49724282Y50832078D01*
X49724278Y50832083D01*
X49683129Y50888719D01*
X49028157Y50233748D01*
X49009925Y50301793D01*
X48944099Y50415807D01*
X48851007Y50508899D01*
X48736993Y50574725D01*
X48668946Y50592959D01*
X49323917Y51247930D01*
X49323917Y51247931D01*
X49267282Y51289079D01*
X49267278Y51289082D01*
X49264320Y51290589D01*
X49221055Y51333853D01*
X49211481Y51394284D01*
X49239258Y51448802D01*
X49264320Y51467011D01*
X49267272Y51468516D01*
X49267279Y51468520D01*
X49323917Y51509671D01*
X48668946Y52164642D01*
X48736993Y52182875D01*
X48851007Y52248701D01*
X48944099Y52341793D01*
X49009925Y52455807D01*
X49028158Y52523854D01*
X49683129Y51868883D01*
G37*
%TD.AperFunction*%
%TA.AperFunction,Conductor*%
G36*
X24703091Y51871428D02*
G01*
X24730172Y51834154D01*
X24869354Y51694972D01*
X25028595Y51579276D01*
X25203975Y51489916D01*
X25203977Y51489916D01*
X25203978Y51489915D01*
X25203981Y51489913D01*
X25256175Y51472954D01*
X25305675Y51436990D01*
X25324582Y51378799D01*
X25305674Y51320609D01*
X25256175Y51284646D01*
X25203981Y51267688D01*
X25203978Y51267686D01*
X25028597Y51178326D01*
X24869355Y51062629D01*
X24730171Y50923445D01*
X24614474Y50764203D01*
X24574880Y50686494D01*
X24531615Y50643229D01*
X24471183Y50633658D01*
X24416666Y50661436D01*
X24398460Y50686494D01*
X24324282Y50832078D01*
X24324278Y50832083D01*
X24283129Y50888719D01*
X23628157Y50233748D01*
X23609925Y50301793D01*
X23544099Y50415807D01*
X23451007Y50508899D01*
X23336993Y50574725D01*
X23268945Y50592959D01*
X23944444Y51268456D01*
X23998961Y51296233D01*
X24059393Y51286662D01*
X24074906Y51275391D01*
X24078894Y51274012D01*
X24120663Y51279028D01*
X24256202Y51332478D01*
X24256203Y51332478D01*
X24372285Y51420507D01*
X24372293Y51420515D01*
X24460321Y51536597D01*
X24513772Y51672137D01*
X24523999Y51757302D01*
X24524000Y51757308D01*
X24524000Y51813235D01*
X24542907Y51871426D01*
X24592407Y51907390D01*
X24653593Y51907390D01*
X24703091Y51871428D01*
G37*
%TD.AperFunction*%
%TA.AperFunction,Conductor*%
G36*
X75894691Y55596593D02*
G01*
X75930655Y55547093D01*
X75935500Y55516500D01*
X75935500Y5443501D01*
X75916593Y5385310D01*
X75867093Y5349346D01*
X75836500Y5344501D01*
X5443500Y5344501D01*
X5385309Y5363408D01*
X5349345Y5412908D01*
X5344500Y5443501D01*
X5344500Y25084407D01*
X23085950Y25084407D01*
X23085950Y24926293D01*
X23126873Y24773566D01*
X23205930Y24636634D01*
X23317734Y24524830D01*
X23454666Y24445773D01*
X23607393Y24404850D01*
X23607395Y24404850D01*
X23765505Y24404850D01*
X23765507Y24404850D01*
X23918234Y24445773D01*
X24055166Y24524830D01*
X24166970Y24636634D01*
X24246027Y24773566D01*
X24286950Y24926293D01*
X24286950Y25084407D01*
X24246027Y25237134D01*
X24166970Y25374066D01*
X24166222Y25374814D01*
X24115946Y25425091D01*
X24088169Y25479608D01*
X24086950Y25495094D01*
X24086950Y26177557D01*
X29638200Y26177557D01*
X29638200Y26019443D01*
X29679123Y25866716D01*
X29758180Y25729784D01*
X29869984Y25617980D01*
X30006916Y25538923D01*
X30125051Y25507269D01*
X30169432Y25481646D01*
X31106591Y24544487D01*
X31106590Y24544487D01*
X31181158Y24469920D01*
X31272484Y24417193D01*
X31374344Y24389900D01*
X31374346Y24389900D01*
X32158325Y24389900D01*
X32158327Y24389900D01*
X32260187Y24417193D01*
X32351513Y24469920D01*
X32426080Y24544487D01*
X32439714Y24568101D01*
X32716594Y24568101D01*
X32716594Y24409987D01*
X32757517Y24257260D01*
X32836574Y24120328D01*
X32948378Y24008524D01*
X33085310Y23929467D01*
X33238037Y23888544D01*
X33238039Y23888544D01*
X33396150Y23888544D01*
X33396151Y23888544D01*
X33429043Y23897358D01*
X33490143Y23894157D01*
X33524671Y23871736D01*
X40876687Y16519720D01*
X40876689Y16519719D01*
X40876690Y16519718D01*
X40876691Y16519717D01*
X40968008Y16466995D01*
X40968006Y16466995D01*
X40968010Y16466994D01*
X40968012Y16466993D01*
X41069873Y16439700D01*
X41069875Y16439700D01*
X45718081Y16439700D01*
X45718081Y16438896D01*
X45748225Y16436923D01*
X45770943Y16430835D01*
X45770944Y16430835D01*
X45929055Y16430835D01*
X45929057Y16430835D01*
X46081784Y16471758D01*
X46218716Y16550815D01*
X46330520Y16662619D01*
X46339679Y16678485D01*
X46385146Y16719426D01*
X46445996Y16725823D01*
X46474913Y16714724D01*
X46603923Y16640241D01*
X46756650Y16599318D01*
X46756652Y16599318D01*
X46914762Y16599318D01*
X46914764Y16599318D01*
X47067491Y16640241D01*
X47204423Y16719298D01*
X47316227Y16831102D01*
X47395284Y16968034D01*
X47436207Y17120761D01*
X47436207Y17278875D01*
X47395284Y17431602D01*
X47316227Y17568534D01*
X47204423Y17680338D01*
X47067491Y17759395D01*
X46914764Y17800318D01*
X46914762Y17800318D01*
X46842607Y17800318D01*
X46784416Y17819225D01*
X46772603Y17829314D01*
X46479432Y18122485D01*
X46044238Y18557680D01*
X46044235Y18557682D01*
X46044233Y18557684D01*
X45952916Y18610406D01*
X45952918Y18610406D01*
X45913395Y18620996D01*
X45851052Y18637700D01*
X45851050Y18637700D01*
X41151701Y18637700D01*
X41093510Y18656607D01*
X41081697Y18666696D01*
X34728247Y25020146D01*
X34700470Y25074663D01*
X34699251Y25090150D01*
X34699251Y25222086D01*
X34695219Y25237134D01*
X34658328Y25374814D01*
X34579271Y25511746D01*
X34467467Y25623550D01*
X34330535Y25702607D01*
X34177808Y25743530D01*
X34019694Y25743530D01*
X33866967Y25702607D01*
X33730035Y25623550D01*
X33618231Y25511746D01*
X33539174Y25374814D01*
X33498251Y25222086D01*
X33498251Y25188544D01*
X33479344Y25130353D01*
X33429844Y25094389D01*
X33399251Y25089544D01*
X33396151Y25089544D01*
X33238037Y25089544D01*
X33085310Y25048621D01*
X32948378Y24969564D01*
X32836574Y24857760D01*
X32757517Y24720828D01*
X32716594Y24568101D01*
X32439714Y24568101D01*
X32478807Y24635813D01*
X32506100Y24737673D01*
X32506100Y33275581D01*
X32525007Y33333772D01*
X32574507Y33369736D01*
X32635693Y33369736D01*
X32685193Y33333772D01*
X32690829Y33325093D01*
X32742680Y33235284D01*
X32854484Y33123480D01*
X32991416Y33044423D01*
X33144143Y33003500D01*
X33144145Y33003500D01*
X33302255Y33003500D01*
X33302257Y33003500D01*
X33454984Y33044423D01*
X33591916Y33123480D01*
X33703720Y33235284D01*
X33782777Y33372216D01*
X33823700Y33524943D01*
X33823700Y33611915D01*
X33842607Y33670106D01*
X33892107Y33706070D01*
X33950178Y33706070D01*
X33950348Y33706703D01*
X33952710Y33706070D01*
X33953293Y33706070D01*
X33954837Y33705500D01*
X33956614Y33705024D01*
X33956616Y33705023D01*
X34109343Y33664100D01*
X34109345Y33664100D01*
X34267455Y33664100D01*
X34267457Y33664100D01*
X34420184Y33705023D01*
X34557116Y33784080D01*
X34668920Y33895884D01*
X34747977Y34032816D01*
X34788900Y34185543D01*
X34788900Y34343657D01*
X34747977Y34496384D01*
X34668920Y34633316D01*
X34668917Y34633319D01*
X34592496Y34709741D01*
X34564719Y34764258D01*
X34563500Y34779744D01*
X34563500Y36404512D01*
X39175043Y36404512D01*
X39175043Y36246398D01*
X39215966Y36093671D01*
X39295023Y35956739D01*
X39406827Y35844935D01*
X39504201Y35788717D01*
X39545141Y35743248D01*
X39553700Y35702981D01*
X39553700Y25020927D01*
X39553700Y24915473D01*
X39566265Y24868579D01*
X39580994Y24813608D01*
X39633716Y24722292D01*
X39633718Y24722290D01*
X39633720Y24722287D01*
X42170550Y22185458D01*
X44654803Y19701205D01*
X44680425Y19656826D01*
X44689422Y19623251D01*
X44689421Y19623251D01*
X44689423Y19623248D01*
X44768480Y19486316D01*
X44880284Y19374512D01*
X45017216Y19295455D01*
X45169943Y19254532D01*
X45169945Y19254532D01*
X45328055Y19254532D01*
X45328057Y19254532D01*
X45480784Y19295455D01*
X45617716Y19374512D01*
X45729520Y19486316D01*
X45808577Y19623248D01*
X45849500Y19775975D01*
X45849500Y19934089D01*
X45808577Y20086816D01*
X45729520Y20223748D01*
X45617716Y20335552D01*
X45480784Y20414609D01*
X45328057Y20455532D01*
X45169943Y20455532D01*
X45169940Y20455532D01*
X45117352Y20441442D01*
X45056250Y20444645D01*
X45021727Y20467065D01*
X40383696Y25105097D01*
X40355919Y25159614D01*
X40354700Y25175101D01*
X40354700Y25692700D01*
X40373607Y25750891D01*
X40423107Y25786855D01*
X40484293Y25786855D01*
X40523701Y25762706D01*
X41365101Y24921306D01*
X41365103Y24921305D01*
X41365105Y24921303D01*
X41456422Y24868581D01*
X41456420Y24868581D01*
X41456424Y24868580D01*
X41456426Y24868579D01*
X41558287Y24841286D01*
X41663741Y24841286D01*
X41883270Y24841286D01*
X41941461Y24822379D01*
X41953273Y24812290D01*
X41985263Y24780301D01*
X42004298Y24761266D01*
X42141230Y24682209D01*
X42293957Y24641286D01*
X42293959Y24641286D01*
X42447459Y24641286D01*
X42505650Y24622379D01*
X42541614Y24572879D01*
X42541614Y24511693D01*
X42505650Y24462193D01*
X42496971Y24456558D01*
X42455684Y24432720D01*
X42343880Y24320916D01*
X42264823Y24183984D01*
X42223900Y24031257D01*
X42223900Y23873143D01*
X42264823Y23720416D01*
X42343880Y23583484D01*
X42455684Y23471680D01*
X42592616Y23392623D01*
X42745343Y23351700D01*
X42745345Y23351700D01*
X42903455Y23351700D01*
X42903457Y23351700D01*
X43056184Y23392623D01*
X43193116Y23471680D01*
X43304920Y23583484D01*
X43383977Y23720416D01*
X43424900Y23873143D01*
X43424900Y23945300D01*
X43443807Y24003491D01*
X43453896Y24015304D01*
X44311663Y24873071D01*
X45214018Y25775427D01*
X45268533Y25803202D01*
X45328965Y25793631D01*
X45372230Y25750366D01*
X45381801Y25689934D01*
X45379647Y25679800D01*
X45373500Y25656860D01*
X45373500Y25656857D01*
X45373500Y25498743D01*
X45414423Y25346016D01*
X45493480Y25209084D01*
X45605284Y25097280D01*
X45742216Y25018223D01*
X45894943Y24977300D01*
X45894945Y24977300D01*
X46053055Y24977300D01*
X46053057Y24977300D01*
X46205784Y25018223D01*
X46336202Y25093520D01*
X46396049Y25106240D01*
X46451944Y25081353D01*
X46482537Y25028365D01*
X46484700Y25007782D01*
X46484700Y24770654D01*
X46484701Y24770642D01*
X46496332Y24712173D01*
X46496334Y24712167D01*
X46525652Y24668290D01*
X46540648Y24645848D01*
X46606969Y24601533D01*
X46651431Y24592689D01*
X46665441Y24589902D01*
X46665446Y24589902D01*
X46665452Y24589900D01*
X47802299Y24589900D01*
X47860490Y24570993D01*
X47872303Y24560904D01*
X48089303Y24343904D01*
X48117080Y24289387D01*
X48107509Y24228955D01*
X48064244Y24185690D01*
X48019299Y24174900D01*
X46653678Y24174900D01*
X46653676Y24174899D01*
X46559900Y24160048D01*
X46559895Y24160046D01*
X46446859Y24102451D01*
X46357149Y24012741D01*
X46299554Y23899705D01*
X46284700Y23805922D01*
X46284700Y22218879D01*
X46284701Y22218877D01*
X46299552Y22125101D01*
X46299554Y22125096D01*
X46357150Y22012058D01*
X46446858Y21922350D01*
X46559896Y21864754D01*
X46653681Y21849900D01*
X48240718Y21849901D01*
X48240721Y21849901D01*
X48240722Y21849902D01*
X48287611Y21857328D01*
X48334499Y21864753D01*
X48334499Y21864754D01*
X48334504Y21864754D01*
X48447542Y21922350D01*
X48537250Y22012058D01*
X48594846Y22125096D01*
X48609700Y22218881D01*
X48609699Y23757501D01*
X48628606Y23815691D01*
X48678106Y23851655D01*
X48708699Y23856500D01*
X48925700Y23856500D01*
X48983891Y23837593D01*
X49019855Y23788093D01*
X49024700Y23757500D01*
X49024700Y22230654D01*
X49024701Y22230642D01*
X49036332Y22172173D01*
X49036334Y22172167D01*
X49080645Y22105852D01*
X49080648Y22105848D01*
X49146969Y22061533D01*
X49191431Y22052689D01*
X49205441Y22049902D01*
X49205446Y22049902D01*
X49205452Y22049900D01*
X49287700Y22049900D01*
X49345891Y22030993D01*
X49381855Y21981493D01*
X49386700Y21950900D01*
X49386700Y21815743D01*
X49427623Y21663016D01*
X49506680Y21526084D01*
X49557705Y21475059D01*
X49585481Y21420544D01*
X49586700Y21405057D01*
X49586700Y19890127D01*
X49586700Y19784673D01*
X49589031Y19775975D01*
X49613994Y19682808D01*
X49666716Y19591492D01*
X49666718Y19591490D01*
X49666720Y19591487D01*
X52333718Y16924490D01*
X52333720Y16924487D01*
X52408287Y16849920D01*
X52495529Y16799551D01*
X52499613Y16797193D01*
X52601473Y16769899D01*
X52601475Y16769899D01*
X52712990Y16769899D01*
X52713006Y16769900D01*
X56974125Y16769900D01*
X56974127Y16769900D01*
X57075988Y16797193D01*
X57075990Y16797195D01*
X57075992Y16797195D01*
X57167308Y16849917D01*
X57167308Y16849918D01*
X57167313Y16849920D01*
X58179097Y17861704D01*
X58233614Y17889481D01*
X58249101Y17890700D01*
X58321255Y17890700D01*
X58321257Y17890700D01*
X58473984Y17931623D01*
X58610916Y18010680D01*
X58722720Y18122484D01*
X58801777Y18259416D01*
X58842700Y18412143D01*
X58842700Y18570257D01*
X58801777Y18722984D01*
X58722720Y18859916D01*
X58610916Y18971720D01*
X58473984Y19050777D01*
X58321257Y19091700D01*
X58163143Y19091700D01*
X58010416Y19050777D01*
X57873484Y18971720D01*
X57761680Y18859916D01*
X57682623Y18722984D01*
X57641700Y18570256D01*
X57641700Y18498101D01*
X57622793Y18439910D01*
X57612704Y18428097D01*
X56784503Y17599896D01*
X56729986Y17572119D01*
X56714499Y17570900D01*
X55295019Y17570900D01*
X55236828Y17589807D01*
X55200864Y17639307D01*
X55200864Y17700493D01*
X55209279Y17719395D01*
X55220377Y17738616D01*
X55261300Y17891343D01*
X55261300Y18049457D01*
X55220377Y18202184D01*
X55141320Y18339116D01*
X55141317Y18339119D01*
X55090296Y18390141D01*
X55062519Y18444658D01*
X55061300Y18460144D01*
X55061300Y19032148D01*
X55080207Y19090339D01*
X55129707Y19126303D01*
X55161700Y19129235D01*
X55161700Y19130963D01*
X55326301Y19130963D01*
X55326303Y19130963D01*
X55479030Y19171886D01*
X55615962Y19250943D01*
X55727766Y19362747D01*
X55806823Y19499679D01*
X55847746Y19652406D01*
X55847746Y19810520D01*
X55836198Y19853618D01*
X55839400Y19914716D01*
X55877905Y19962266D01*
X55906197Y19974863D01*
X56028251Y20007567D01*
X56165183Y20086624D01*
X56276987Y20198428D01*
X56356044Y20335360D01*
X56396967Y20488087D01*
X56396967Y20646201D01*
X56356044Y20798928D01*
X56276987Y20935860D01*
X56276984Y20935863D01*
X56225963Y20986885D01*
X56222337Y20994002D01*
X56215874Y20998697D01*
X56208709Y21020749D01*
X56198186Y21041402D01*
X56196967Y21056888D01*
X56196967Y21255033D01*
X56215874Y21313224D01*
X56265374Y21349188D01*
X56326560Y21349188D01*
X56365968Y21325039D01*
X56802487Y20888520D01*
X56802489Y20888519D01*
X56802491Y20888517D01*
X56893808Y20835795D01*
X56893806Y20835795D01*
X56893810Y20835794D01*
X56893812Y20835793D01*
X56995673Y20808500D01*
X57549256Y20808500D01*
X57607447Y20789593D01*
X57619259Y20779504D01*
X57670281Y20728483D01*
X57670284Y20728480D01*
X57807216Y20649423D01*
X57959943Y20608500D01*
X57959945Y20608500D01*
X58118055Y20608500D01*
X58118057Y20608500D01*
X58270784Y20649423D01*
X58407716Y20728480D01*
X58519520Y20840284D01*
X58598577Y20977216D01*
X58639500Y21129943D01*
X58639500Y21288057D01*
X58598577Y21440784D01*
X58519520Y21577716D01*
X58407716Y21689520D01*
X58270784Y21768577D01*
X58118057Y21809500D01*
X57959943Y21809500D01*
X57807216Y21768577D01*
X57670281Y21689518D01*
X57619259Y21638496D01*
X57564742Y21610719D01*
X57549256Y21609500D01*
X57255301Y21609500D01*
X57197110Y21628407D01*
X57185297Y21638496D01*
X55081780Y23742013D01*
X52950913Y25872880D01*
X52950910Y25872882D01*
X52950909Y25872883D01*
X52950908Y25872884D01*
X52859591Y25925606D01*
X52859593Y25925606D01*
X52820070Y25936196D01*
X52757727Y25952900D01*
X52757725Y25952900D01*
X51048700Y25952900D01*
X50990509Y25971807D01*
X50954545Y26021307D01*
X50949700Y26051900D01*
X50949700Y26334147D01*
X50949698Y26334159D01*
X50946911Y26348169D01*
X50938067Y26392631D01*
X50893752Y26458952D01*
X50891446Y26460493D01*
X50827433Y26503266D01*
X50827431Y26503267D01*
X50827428Y26503268D01*
X50827427Y26503268D01*
X50768958Y26514899D01*
X50768948Y26514900D01*
X49215100Y26514900D01*
X49156909Y26533807D01*
X49120945Y26583307D01*
X49120945Y26644493D01*
X49145097Y26683904D01*
X49562098Y27100904D01*
X49616614Y27128681D01*
X49632101Y27129900D01*
X50768947Y27129900D01*
X50768948Y27129900D01*
X50827431Y27141533D01*
X50893752Y27185848D01*
X50938067Y27252169D01*
X50949700Y27310652D01*
X50949700Y28874148D01*
X50938067Y28932631D01*
X50893752Y28998952D01*
X50893748Y28998955D01*
X50827433Y29043266D01*
X50827431Y29043267D01*
X50827428Y29043268D01*
X50827427Y29043268D01*
X50768958Y29054899D01*
X50768948Y29054900D01*
X49205452Y29054900D01*
X49205451Y29054900D01*
X49205441Y29054899D01*
X49146972Y29043268D01*
X49146966Y29043266D01*
X49080651Y28998955D01*
X49080645Y28998949D01*
X49036334Y28932634D01*
X49036332Y28932628D01*
X49024701Y28874159D01*
X49024700Y28874147D01*
X49024700Y27737301D01*
X49022231Y27729704D01*
X49023481Y27721814D01*
X49012956Y27701159D01*
X49005793Y27679110D01*
X48995704Y27667297D01*
X48908204Y27579797D01*
X48853687Y27552020D01*
X48793255Y27561591D01*
X48749990Y27604856D01*
X48739200Y27649801D01*
X48739200Y27838399D01*
X48739199Y27838400D01*
X46155201Y27838400D01*
X46155200Y27838399D01*
X46155200Y27428900D01*
X46150355Y27413989D01*
X46150355Y27398307D01*
X46141138Y27385622D01*
X46136293Y27370709D01*
X46123607Y27361493D01*
X46114391Y27348807D01*
X46099478Y27343962D01*
X46086793Y27334745D01*
X46056200Y27329900D01*
X45860406Y27329900D01*
X45860390Y27329901D01*
X45854327Y27329901D01*
X45748873Y27329901D01*
X45748870Y27329901D01*
X45647013Y27302608D01*
X45647009Y27302606D01*
X45555687Y27249881D01*
X45481119Y27175314D01*
X45481120Y27175313D01*
X42887503Y24581696D01*
X42832986Y24553919D01*
X42817499Y24552700D01*
X42749955Y24552700D01*
X42691764Y24571607D01*
X42655800Y24621107D01*
X42655800Y24682293D01*
X42691764Y24731793D01*
X42700442Y24737429D01*
X42741730Y24761266D01*
X42853534Y24873070D01*
X42932591Y25010002D01*
X42973514Y25162729D01*
X42973514Y25320843D01*
X42932591Y25473570D01*
X42853534Y25610502D01*
X42741730Y25722306D01*
X42604798Y25801363D01*
X42452071Y25842286D01*
X42293957Y25842286D01*
X42141230Y25801363D01*
X42017251Y25729784D01*
X42004295Y25722304D01*
X41953273Y25671282D01*
X41946156Y25667657D01*
X41941461Y25661193D01*
X41919409Y25654029D01*
X41898756Y25643505D01*
X41883270Y25642286D01*
X41817915Y25642286D01*
X41759724Y25661193D01*
X41747911Y25671282D01*
X41196496Y26222697D01*
X41168719Y26277214D01*
X41167500Y26292701D01*
X41167500Y28895899D01*
X46155200Y28895899D01*
X46155200Y28346401D01*
X46155201Y28346400D01*
X47193199Y28346400D01*
X47193200Y28346401D01*
X47193200Y29384399D01*
X47701200Y29384399D01*
X47701200Y28346401D01*
X47701201Y28346400D01*
X48739199Y28346400D01*
X48739200Y28346401D01*
X48739200Y28895893D01*
X48739199Y28895899D01*
X48728972Y28981064D01*
X48675521Y29116604D01*
X48587493Y29232686D01*
X48587485Y29232694D01*
X48471403Y29320722D01*
X48335863Y29374173D01*
X48250698Y29384400D01*
X47701201Y29384400D01*
X47701200Y29384399D01*
X47193200Y29384399D01*
X47193199Y29384400D01*
X46643701Y29384400D01*
X46558536Y29374173D01*
X46422996Y29320722D01*
X46306914Y29232694D01*
X46306906Y29232686D01*
X46218878Y29116604D01*
X46165427Y28981064D01*
X46155200Y28895899D01*
X41167500Y28895899D01*
X41167500Y35705257D01*
X41186407Y35763448D01*
X41196490Y35775255D01*
X41247520Y35826284D01*
X41326577Y35963216D01*
X41367500Y36115943D01*
X41367500Y36274057D01*
X41326577Y36426784D01*
X41247520Y36563716D01*
X41135716Y36675520D01*
X40998784Y36754577D01*
X40846057Y36795500D01*
X40687943Y36795500D01*
X40535216Y36754577D01*
X40398284Y36675520D01*
X40398282Y36675519D01*
X40398278Y36675516D01*
X40396313Y36674008D01*
X40394641Y36673417D01*
X40392665Y36672275D01*
X40392453Y36672642D01*
X40338636Y36653588D01*
X40279971Y36670969D01*
X40257510Y36692286D01*
X40256068Y36694165D01*
X40256064Y36694169D01*
X40256063Y36694171D01*
X40144259Y36805975D01*
X40007327Y36885032D01*
X39854600Y36925955D01*
X39696486Y36925955D01*
X39543759Y36885032D01*
X39406827Y36805975D01*
X39295023Y36694171D01*
X39215966Y36557239D01*
X39175043Y36404512D01*
X34563500Y36404512D01*
X34563500Y40397372D01*
X34582407Y40455563D01*
X34592496Y40467376D01*
X36494509Y42369389D01*
X38562201Y44437082D01*
X38616716Y44464857D01*
X38677148Y44455286D01*
X38720413Y44412021D01*
X38727829Y44392701D01*
X38733572Y44371269D01*
X38733571Y44371269D01*
X38733573Y44371266D01*
X38812630Y44234334D01*
X38813505Y44233459D01*
X38813908Y44232667D01*
X38816581Y44229184D01*
X38815935Y44228689D01*
X38841281Y44178944D01*
X38842500Y44163457D01*
X38842500Y40540327D01*
X38842500Y40434873D01*
X38852548Y40397372D01*
X38869794Y40333008D01*
X38922516Y40241692D01*
X38922518Y40241690D01*
X38922520Y40241687D01*
X41661505Y37502702D01*
X41689281Y37448187D01*
X41690500Y37432700D01*
X41690500Y37360543D01*
X41731423Y37207816D01*
X41810480Y37070884D01*
X41922284Y36959080D01*
X42059216Y36880023D01*
X42211943Y36839100D01*
X42211945Y36839100D01*
X42370055Y36839100D01*
X42370057Y36839100D01*
X42522784Y36880023D01*
X42659716Y36959080D01*
X42771520Y37070884D01*
X42850577Y37207816D01*
X42891500Y37360543D01*
X42891500Y37518657D01*
X42850577Y37671384D01*
X42771520Y37808316D01*
X42659716Y37920120D01*
X42522784Y37999177D01*
X42370057Y38040100D01*
X42370055Y38040100D01*
X42297901Y38040100D01*
X42239710Y38059007D01*
X42227897Y38069096D01*
X39672496Y40624497D01*
X39644719Y40679014D01*
X39643500Y40694501D01*
X39643500Y44063157D01*
X39662407Y44121348D01*
X39672490Y44133155D01*
X39773670Y44234334D01*
X39852727Y44371266D01*
X39893650Y44523993D01*
X39893650Y44682107D01*
X39852727Y44834834D01*
X39773670Y44971766D01*
X39747337Y44998099D01*
X39719562Y45052613D01*
X39729133Y45113045D01*
X39772398Y45156310D01*
X39817343Y45167100D01*
X51675525Y45167100D01*
X51675527Y45167100D01*
X51777388Y45194393D01*
X51777390Y45194395D01*
X51777392Y45194395D01*
X51868708Y45247117D01*
X51868708Y45247118D01*
X51868713Y45247120D01*
X55713708Y49092118D01*
X55768223Y49119893D01*
X55821592Y49113577D01*
X55857580Y49098670D01*
X56060535Y49058300D01*
X56060536Y49058300D01*
X56267464Y49058300D01*
X56267465Y49058300D01*
X56470420Y49098670D01*
X56661598Y49177859D01*
X56833655Y49292823D01*
X56979977Y49439145D01*
X57094941Y49611202D01*
X57171421Y49795841D01*
X57211157Y49842364D01*
X57270651Y49856648D01*
X57327179Y49833233D01*
X57357039Y49788546D01*
X57425104Y49579064D01*
X57523717Y49385523D01*
X57523721Y49385518D01*
X57564869Y49328883D01*
X57564870Y49328883D01*
X58219841Y49983854D01*
X58238075Y49915807D01*
X58303901Y49801793D01*
X58396993Y49708701D01*
X58511007Y49642875D01*
X58579052Y49624643D01*
X57924081Y48969671D01*
X57924081Y48969670D01*
X57980717Y48928522D01*
X57980722Y48928518D01*
X58174263Y48829905D01*
X58380853Y48762779D01*
X58595389Y48728800D01*
X58812611Y48728800D01*
X59027146Y48762779D01*
X59233736Y48829905D01*
X59427271Y48928515D01*
X59427279Y48928520D01*
X59483917Y48969671D01*
X58828946Y49624642D01*
X58896993Y49642875D01*
X59011007Y49708701D01*
X59104099Y49801793D01*
X59169925Y49915807D01*
X59188158Y49983854D01*
X59843129Y49328883D01*
X59884280Y49385521D01*
X59884285Y49385529D01*
X59982895Y49579064D01*
X60050021Y49785654D01*
X60084000Y50000189D01*
X60084000Y50217412D01*
X60050021Y50431947D01*
X59982895Y50638537D01*
X59884282Y50832078D01*
X59884278Y50832083D01*
X59843129Y50888719D01*
X59188157Y50233748D01*
X59169925Y50301793D01*
X59104099Y50415807D01*
X59011007Y50508899D01*
X58896993Y50574725D01*
X58828946Y50592959D01*
X59483917Y51247930D01*
X59483917Y51247931D01*
X59427282Y51289079D01*
X59427278Y51289082D01*
X59424320Y51290589D01*
X59381055Y51333853D01*
X59371481Y51394284D01*
X59399258Y51448802D01*
X59424320Y51467011D01*
X59427272Y51468516D01*
X59427279Y51468520D01*
X59483917Y51509671D01*
X58828946Y52164642D01*
X58896993Y52182875D01*
X59011007Y52248701D01*
X59104099Y52341793D01*
X59169925Y52455807D01*
X59188158Y52523854D01*
X59843129Y51868883D01*
X59884280Y51925521D01*
X59884285Y51925529D01*
X59982895Y52119064D01*
X60050021Y52325654D01*
X60084000Y52540189D01*
X60084000Y52757412D01*
X60050021Y52971947D01*
X59982895Y53178537D01*
X59884282Y53372078D01*
X59884278Y53372083D01*
X59843129Y53428719D01*
X59188157Y52773748D01*
X59169925Y52841793D01*
X59104099Y52955807D01*
X59011007Y53048899D01*
X58896993Y53114725D01*
X58828946Y53132959D01*
X59483917Y53787930D01*
X59483917Y53787931D01*
X59427282Y53829079D01*
X59427277Y53829083D01*
X59233736Y53927696D01*
X59027146Y53994822D01*
X58812611Y54028800D01*
X58595389Y54028800D01*
X58380853Y53994822D01*
X58174263Y53927696D01*
X57980724Y53829084D01*
X57924082Y53787930D01*
X58579053Y53132959D01*
X58511007Y53114725D01*
X58396993Y53048899D01*
X58303901Y52955807D01*
X58238075Y52841793D01*
X58219841Y52773747D01*
X57564870Y53428718D01*
X57523716Y53372076D01*
X57425104Y53178537D01*
X57357039Y52969055D01*
X57321075Y52919555D01*
X57262884Y52900648D01*
X57204693Y52919555D01*
X57171420Y52961762D01*
X57102222Y53128819D01*
X57094941Y53146398D01*
X56979977Y53318455D01*
X56833655Y53464777D01*
X56661598Y53579741D01*
X56661599Y53579741D01*
X56661597Y53579742D01*
X56538052Y53630916D01*
X56470889Y53658736D01*
X56470420Y53658930D01*
X56267467Y53699300D01*
X56267465Y53699300D01*
X56060535Y53699300D01*
X56060532Y53699300D01*
X55857581Y53658931D01*
X55666402Y53579742D01*
X55494348Y53464780D01*
X55348020Y53318452D01*
X55233058Y53146398D01*
X55153869Y52955219D01*
X55113500Y52752268D01*
X55113500Y52545333D01*
X55153869Y52342382D01*
X55233058Y52151203D01*
X55348020Y51979149D01*
X55348023Y51979145D01*
X55494345Y51832823D01*
X55666402Y51717859D01*
X55702384Y51702955D01*
X55748910Y51663220D01*
X55763500Y51611491D01*
X55763500Y51146111D01*
X55744593Y51087920D01*
X55702387Y51054648D01*
X55666405Y51039744D01*
X55494348Y50924780D01*
X55348020Y50778452D01*
X55233058Y50606398D01*
X55153869Y50415219D01*
X55113500Y50212268D01*
X55113500Y50005333D01*
X55153869Y49802382D01*
X55168775Y49766396D01*
X55173574Y49705399D01*
X55147314Y49658508D01*
X54877173Y49388367D01*
X54822656Y49360590D01*
X54762224Y49370161D01*
X54718959Y49413426D01*
X54709388Y49473858D01*
X54718957Y49503312D01*
X54782884Y49628775D01*
X54843709Y49815974D01*
X54859521Y49915807D01*
X54874500Y50010380D01*
X54874500Y50207221D01*
X54843710Y50401622D01*
X54837166Y50421762D01*
X54782884Y50588825D01*
X54693524Y50764205D01*
X54577828Y50923446D01*
X54438646Y51062628D01*
X54279405Y51178324D01*
X54279404Y51178325D01*
X54279402Y51178326D01*
X54104025Y51267684D01*
X54090800Y51271981D01*
X54051823Y51284646D01*
X54002324Y51320609D01*
X53983417Y51378800D01*
X54002324Y51436991D01*
X54051823Y51472955D01*
X54104025Y51489916D01*
X54279405Y51579276D01*
X54438646Y51694972D01*
X54577828Y51834154D01*
X54693524Y51993395D01*
X54782884Y52168775D01*
X54843709Y52355974D01*
X54849858Y52394799D01*
X54874500Y52550380D01*
X54874500Y52747221D01*
X54843710Y52941622D01*
X54837166Y52961762D01*
X54782884Y53128825D01*
X54693524Y53304205D01*
X54577828Y53463446D01*
X54438646Y53602628D01*
X54279405Y53718324D01*
X54279404Y53718325D01*
X54279402Y53718326D01*
X54104025Y53807684D01*
X53916821Y53868511D01*
X53722420Y53899300D01*
X53722417Y53899300D01*
X53525583Y53899300D01*
X53525580Y53899300D01*
X53331178Y53868511D01*
X53143974Y53807684D01*
X52968597Y53718326D01*
X52809355Y53602629D01*
X52670171Y53463445D01*
X52554474Y53304203D01*
X52465116Y53128826D01*
X52404289Y52941622D01*
X52373500Y52747221D01*
X52373500Y52550380D01*
X52404289Y52355979D01*
X52465116Y52168775D01*
X52554473Y51993399D01*
X52554476Y51993395D01*
X52670172Y51834154D01*
X52809354Y51694972D01*
X52968595Y51579276D01*
X53143975Y51489916D01*
X53143977Y51489916D01*
X53143978Y51489915D01*
X53143981Y51489913D01*
X53196175Y51472954D01*
X53245675Y51436990D01*
X53264582Y51378799D01*
X53245674Y51320609D01*
X53196175Y51284646D01*
X53143981Y51267688D01*
X53143978Y51267686D01*
X52968597Y51178326D01*
X52809355Y51062629D01*
X52670171Y50923445D01*
X52554474Y50764203D01*
X52465116Y50588826D01*
X52404289Y50401622D01*
X52373500Y50207221D01*
X52373500Y50010380D01*
X52404289Y49815979D01*
X52465116Y49628775D01*
X52544049Y49473858D01*
X52554476Y49453395D01*
X52670172Y49294154D01*
X52809354Y49154972D01*
X52968595Y49039276D01*
X53143975Y48949916D01*
X53331174Y48889091D01*
X53331175Y48889091D01*
X53331178Y48889090D01*
X53525580Y48858300D01*
X53525583Y48858300D01*
X53722420Y48858300D01*
X53916821Y48889090D01*
X53916822Y48889091D01*
X53916826Y48889091D01*
X54104025Y48949916D01*
X54229486Y49013842D01*
X54289916Y49023412D01*
X54344432Y48995635D01*
X54372210Y48941118D01*
X54362639Y48880686D01*
X54344433Y48855627D01*
X51485903Y45997096D01*
X51431386Y45969319D01*
X51415899Y45968100D01*
X39179055Y45968100D01*
X39073601Y45968100D01*
X38983768Y45944030D01*
X38971736Y45940806D01*
X38926078Y45914444D01*
X38897128Y45897730D01*
X38880414Y45888080D01*
X38805847Y45813514D01*
X38805848Y45813513D01*
X33842518Y40850183D01*
X33808436Y40791151D01*
X33762966Y40750211D01*
X33702116Y40743816D01*
X33649128Y40774409D01*
X33624242Y40830304D01*
X33623700Y40840652D01*
X33623700Y42007899D01*
X33642607Y42066090D01*
X33652696Y42077903D01*
X37728897Y46154104D01*
X37783414Y46181881D01*
X37798901Y46183100D01*
X47611525Y46183100D01*
X47611527Y46183100D01*
X47713388Y46210393D01*
X47713390Y46210395D01*
X47713392Y46210395D01*
X47804708Y46263117D01*
X47804708Y46263118D01*
X47804713Y46263120D01*
X50633708Y49092118D01*
X50688223Y49119893D01*
X50741592Y49113577D01*
X50777580Y49098670D01*
X50980535Y49058300D01*
X50980536Y49058300D01*
X51187464Y49058300D01*
X51187465Y49058300D01*
X51390420Y49098670D01*
X51581598Y49177859D01*
X51753655Y49292823D01*
X51899977Y49439145D01*
X52014941Y49611202D01*
X52094130Y49802380D01*
X52134500Y50005335D01*
X52134500Y50212265D01*
X52094130Y50415220D01*
X52014941Y50606398D01*
X51899977Y50778455D01*
X51753655Y50924777D01*
X51581598Y51039741D01*
X51581599Y51039741D01*
X51581594Y51039744D01*
X51545613Y51054648D01*
X51499088Y51094385D01*
X51484500Y51146111D01*
X51484500Y51611491D01*
X51503407Y51669682D01*
X51545615Y51702955D01*
X51581598Y51717859D01*
X51753655Y51832823D01*
X51899977Y51979145D01*
X52014941Y52151202D01*
X52094130Y52342380D01*
X52134500Y52545335D01*
X52134500Y52752265D01*
X52094130Y52955220D01*
X52014941Y53146398D01*
X51899977Y53318455D01*
X51753655Y53464777D01*
X51581598Y53579741D01*
X51581599Y53579741D01*
X51581597Y53579742D01*
X51390418Y53658931D01*
X51187467Y53699300D01*
X51187465Y53699300D01*
X50980535Y53699300D01*
X50980532Y53699300D01*
X50777581Y53658931D01*
X50586402Y53579742D01*
X50414348Y53464780D01*
X50268020Y53318452D01*
X50153058Y53146398D01*
X50076579Y52961762D01*
X50036842Y52915236D01*
X49977347Y52900953D01*
X49920819Y52924368D01*
X49890960Y52969055D01*
X49822895Y53178537D01*
X49724282Y53372078D01*
X49724278Y53372083D01*
X49683129Y53428719D01*
X49028157Y52773748D01*
X49009925Y52841793D01*
X48944099Y52955807D01*
X48851007Y53048899D01*
X48736993Y53114725D01*
X48668946Y53132959D01*
X49323917Y53787930D01*
X49323917Y53787931D01*
X49267282Y53829079D01*
X49267277Y53829083D01*
X49073736Y53927696D01*
X48867146Y53994822D01*
X48652611Y54028800D01*
X48435389Y54028800D01*
X48220853Y53994822D01*
X48014263Y53927696D01*
X47820724Y53829084D01*
X47764082Y53787930D01*
X48419053Y53132959D01*
X48351007Y53114725D01*
X48236993Y53048899D01*
X48143901Y52955807D01*
X48078075Y52841793D01*
X48059841Y52773747D01*
X47404870Y53428718D01*
X47363716Y53372076D01*
X47265104Y53178537D01*
X47197039Y52969055D01*
X47161075Y52919555D01*
X47102884Y52900648D01*
X47044693Y52919555D01*
X47011420Y52961762D01*
X46942222Y53128819D01*
X46934941Y53146398D01*
X46819977Y53318455D01*
X46673655Y53464777D01*
X46501598Y53579741D01*
X46501599Y53579741D01*
X46501597Y53579742D01*
X46378052Y53630916D01*
X46310889Y53658736D01*
X46310420Y53658930D01*
X46107467Y53699300D01*
X46107465Y53699300D01*
X45900535Y53699300D01*
X45900532Y53699300D01*
X45697581Y53658931D01*
X45506402Y53579742D01*
X45334348Y53464780D01*
X45188020Y53318452D01*
X45073058Y53146398D01*
X44993869Y52955219D01*
X44953500Y52752268D01*
X44953500Y52545333D01*
X44993869Y52342382D01*
X45073058Y52151203D01*
X45188020Y51979149D01*
X45188023Y51979145D01*
X45334345Y51832823D01*
X45506402Y51717859D01*
X45697580Y51638670D01*
X45900535Y51598300D01*
X45900536Y51598300D01*
X46107464Y51598300D01*
X46107465Y51598300D01*
X46310420Y51638670D01*
X46501598Y51717859D01*
X46673655Y51832823D01*
X46819977Y51979145D01*
X46934941Y52151202D01*
X47011421Y52335841D01*
X47051157Y52382364D01*
X47110651Y52396648D01*
X47167179Y52373233D01*
X47197039Y52328546D01*
X47265104Y52119064D01*
X47363717Y51925523D01*
X47363721Y51925518D01*
X47404869Y51868883D01*
X47404870Y51868883D01*
X48059841Y52523854D01*
X48078075Y52455807D01*
X48143901Y52341793D01*
X48236993Y52248701D01*
X48351007Y52182875D01*
X48419052Y52164643D01*
X47764081Y51509671D01*
X47820722Y51468518D01*
X47823684Y51467008D01*
X47866947Y51423742D01*
X47876517Y51363309D01*
X47848737Y51308794D01*
X47823684Y51290592D01*
X47820728Y51289087D01*
X47820725Y51289085D01*
X47764082Y51247930D01*
X48419053Y50592959D01*
X48351007Y50574725D01*
X48236993Y50508899D01*
X48143901Y50415807D01*
X48078075Y50301793D01*
X48059841Y50233747D01*
X47404870Y50888718D01*
X47363716Y50832076D01*
X47265104Y50638537D01*
X47197039Y50429055D01*
X47161075Y50379555D01*
X47102884Y50360648D01*
X47044693Y50379555D01*
X47011420Y50421762D01*
X46942222Y50588819D01*
X46934941Y50606398D01*
X46819977Y50778455D01*
X46673655Y50924777D01*
X46501598Y51039741D01*
X46501599Y51039741D01*
X46501597Y51039742D01*
X46376007Y51091763D01*
X46310889Y51118736D01*
X46310420Y51118930D01*
X46107467Y51159300D01*
X46107465Y51159300D01*
X45900535Y51159300D01*
X45900532Y51159300D01*
X45697581Y51118931D01*
X45506402Y51039742D01*
X45334348Y50924780D01*
X45188020Y50778452D01*
X45073058Y50606398D01*
X44993869Y50415219D01*
X44953500Y50212268D01*
X44953500Y50005333D01*
X44993869Y49802382D01*
X45073058Y49611203D01*
X45188020Y49439149D01*
X45188023Y49439145D01*
X45334345Y49292823D01*
X45506402Y49177859D01*
X45697580Y49098670D01*
X45900535Y49058300D01*
X45900536Y49058300D01*
X46107464Y49058300D01*
X46107465Y49058300D01*
X46310420Y49098670D01*
X46501598Y49177859D01*
X46673655Y49292823D01*
X46819977Y49439145D01*
X46934941Y49611202D01*
X47011421Y49795841D01*
X47051157Y49842364D01*
X47110651Y49856648D01*
X47167179Y49833233D01*
X47197039Y49788546D01*
X47265104Y49579064D01*
X47363717Y49385523D01*
X47363721Y49385518D01*
X47404869Y49328883D01*
X47404870Y49328883D01*
X48059841Y49983854D01*
X48078075Y49915807D01*
X48143901Y49801793D01*
X48236993Y49708701D01*
X48351007Y49642875D01*
X48419052Y49624643D01*
X47764081Y48969671D01*
X47764081Y48969670D01*
X47820717Y48928522D01*
X47820722Y48928518D01*
X48014263Y48829905D01*
X48220853Y48762779D01*
X48435389Y48728800D01*
X48652611Y48728800D01*
X48867150Y48762780D01*
X48925928Y48781878D01*
X48987114Y48781879D01*
X49036614Y48745916D01*
X49055522Y48687725D01*
X49036615Y48629534D01*
X49026526Y48617720D01*
X47421903Y47013096D01*
X47367386Y46985319D01*
X47351899Y46984100D01*
X37644727Y46984100D01*
X37539273Y46984100D01*
X37476929Y46967396D01*
X37437407Y46956806D01*
X37346091Y46904084D01*
X32902716Y42460709D01*
X32849993Y42369389D01*
X32849992Y42369389D01*
X32849993Y42369388D01*
X32822700Y42267527D01*
X32822700Y34093744D01*
X32803793Y34035553D01*
X32793704Y34023741D01*
X32742679Y33972716D01*
X32690836Y33882920D01*
X32645367Y33841979D01*
X32584517Y33835583D01*
X32531529Y33866176D01*
X32506642Y33922072D01*
X32506100Y33932420D01*
X32506100Y43623500D01*
X32525007Y43681691D01*
X32535090Y43693498D01*
X37933708Y49092117D01*
X37988223Y49119892D01*
X38041595Y49113575D01*
X38077572Y49098673D01*
X38077574Y49098673D01*
X38077580Y49098670D01*
X38280535Y49058300D01*
X38280536Y49058300D01*
X38487464Y49058300D01*
X38487465Y49058300D01*
X38690420Y49098670D01*
X38881598Y49177859D01*
X39053655Y49292823D01*
X39199977Y49439145D01*
X39314941Y49611202D01*
X39394130Y49802380D01*
X39434500Y50005335D01*
X39434500Y50212265D01*
X39434499Y50212268D01*
X39873500Y50212268D01*
X39873500Y50005333D01*
X39913869Y49802382D01*
X39993058Y49611203D01*
X40108020Y49439149D01*
X40108023Y49439145D01*
X40254345Y49292823D01*
X40426402Y49177859D01*
X40617580Y49098670D01*
X40820535Y49058300D01*
X40820536Y49058300D01*
X41027464Y49058300D01*
X41027465Y49058300D01*
X41230420Y49098670D01*
X41421598Y49177859D01*
X41593655Y49292823D01*
X41739977Y49439145D01*
X41854941Y49611202D01*
X41934130Y49802380D01*
X41974500Y50005335D01*
X41974500Y50212265D01*
X41974499Y50212268D01*
X42413500Y50212268D01*
X42413500Y50005333D01*
X42453869Y49802382D01*
X42533058Y49611203D01*
X42648020Y49439149D01*
X42648023Y49439145D01*
X42794345Y49292823D01*
X42966402Y49177859D01*
X43157580Y49098670D01*
X43360535Y49058300D01*
X43360536Y49058300D01*
X43567464Y49058300D01*
X43567465Y49058300D01*
X43770420Y49098670D01*
X43961598Y49177859D01*
X44133655Y49292823D01*
X44279977Y49439145D01*
X44394941Y49611202D01*
X44474130Y49802380D01*
X44514500Y50005335D01*
X44514500Y50212265D01*
X44474130Y50415220D01*
X44394941Y50606398D01*
X44279977Y50778455D01*
X44133655Y50924777D01*
X43961598Y51039741D01*
X43961599Y51039741D01*
X43961597Y51039742D01*
X43770418Y51118931D01*
X43567467Y51159300D01*
X43567465Y51159300D01*
X43360535Y51159300D01*
X43360532Y51159300D01*
X43157581Y51118931D01*
X42966402Y51039742D01*
X42794348Y50924780D01*
X42648020Y50778452D01*
X42533058Y50606398D01*
X42453869Y50415219D01*
X42413500Y50212268D01*
X41974499Y50212268D01*
X41934130Y50415220D01*
X41854941Y50606398D01*
X41739977Y50778455D01*
X41593655Y50924777D01*
X41421598Y51039741D01*
X41421599Y51039741D01*
X41421597Y51039742D01*
X41230418Y51118931D01*
X41027467Y51159300D01*
X41027465Y51159300D01*
X40820535Y51159300D01*
X40820532Y51159300D01*
X40617581Y51118931D01*
X40426402Y51039742D01*
X40254348Y50924780D01*
X40108020Y50778452D01*
X39993058Y50606398D01*
X39913869Y50415219D01*
X39873500Y50212268D01*
X39434499Y50212268D01*
X39394130Y50415220D01*
X39314941Y50606398D01*
X39199977Y50778455D01*
X39053655Y50924777D01*
X38881598Y51039741D01*
X38881599Y51039741D01*
X38881597Y51039742D01*
X38690418Y51118931D01*
X38487467Y51159300D01*
X38487465Y51159300D01*
X38280535Y51159300D01*
X38280532Y51159300D01*
X38077581Y51118931D01*
X37886402Y51039742D01*
X37714348Y50924780D01*
X37568020Y50778452D01*
X37453058Y50606398D01*
X37373869Y50415219D01*
X37333500Y50212268D01*
X37333500Y50005333D01*
X37351308Y49915807D01*
X37363075Y49856648D01*
X37373870Y49802381D01*
X37373870Y49802379D01*
X37388774Y49766398D01*
X37393574Y49705401D01*
X37367314Y49658509D01*
X31875104Y44166297D01*
X31820587Y44138520D01*
X31760155Y44148091D01*
X31716890Y44191356D01*
X31706100Y44236301D01*
X31706100Y45363500D01*
X31725007Y45421691D01*
X31735090Y45433498D01*
X35393708Y49092117D01*
X35448223Y49119892D01*
X35501595Y49113575D01*
X35537572Y49098673D01*
X35537574Y49098673D01*
X35537580Y49098670D01*
X35740535Y49058300D01*
X35740536Y49058300D01*
X35947464Y49058300D01*
X35947465Y49058300D01*
X36150420Y49098670D01*
X36341598Y49177859D01*
X36513655Y49292823D01*
X36659977Y49439145D01*
X36774941Y49611202D01*
X36854130Y49802380D01*
X36894500Y50005335D01*
X36894500Y50212265D01*
X36854130Y50415220D01*
X36774941Y50606398D01*
X36659977Y50778455D01*
X36513655Y50924777D01*
X36341598Y51039741D01*
X36341599Y51039741D01*
X36341597Y51039742D01*
X36150418Y51118931D01*
X35947467Y51159300D01*
X35947465Y51159300D01*
X35740535Y51159300D01*
X35740532Y51159300D01*
X35537581Y51118931D01*
X35346402Y51039742D01*
X35174348Y50924780D01*
X35028020Y50778452D01*
X34913058Y50606398D01*
X34833869Y50415219D01*
X34793500Y50212268D01*
X34793500Y50005333D01*
X34811308Y49915807D01*
X34823075Y49856648D01*
X34833870Y49802381D01*
X34833870Y49802379D01*
X34848774Y49766398D01*
X34853574Y49705401D01*
X34827314Y49658509D01*
X30985117Y45816310D01*
X30985116Y45816309D01*
X30932394Y45724993D01*
X30905100Y45623126D01*
X30905100Y26532986D01*
X30902631Y26525389D01*
X30903881Y26517499D01*
X30893356Y26496844D01*
X30886193Y26474795D01*
X30876104Y26462982D01*
X30868997Y26455875D01*
X30814480Y26428098D01*
X30754048Y26437669D01*
X30723913Y26462733D01*
X30723808Y26462627D01*
X30722661Y26463774D01*
X30720451Y26465612D01*
X30719224Y26467211D01*
X30719221Y26467214D01*
X30719220Y26467216D01*
X30607416Y26579020D01*
X30470484Y26658077D01*
X30317757Y26699000D01*
X30159643Y26699000D01*
X30006916Y26658077D01*
X29869984Y26579020D01*
X29758180Y26467216D01*
X29679123Y26330284D01*
X29638200Y26177557D01*
X24086950Y26177557D01*
X24086950Y29270749D01*
X24105857Y29328940D01*
X24115946Y29340753D01*
X28994497Y34219304D01*
X29049014Y34247081D01*
X29064501Y34248300D01*
X29136655Y34248300D01*
X29136657Y34248300D01*
X29289384Y34289223D01*
X29426316Y34368280D01*
X29538120Y34480084D01*
X29617177Y34617016D01*
X29658100Y34769743D01*
X29658100Y34927857D01*
X29617177Y35080584D01*
X29538120Y35217516D01*
X29426316Y35329320D01*
X29289384Y35408377D01*
X29136657Y35449300D01*
X28978543Y35449300D01*
X28825816Y35408377D01*
X28688884Y35329320D01*
X28577080Y35217516D01*
X28498023Y35080584D01*
X28457100Y34927856D01*
X28457100Y34855701D01*
X28438193Y34797510D01*
X28428104Y34785697D01*
X23365966Y29723559D01*
X23313243Y29632239D01*
X23313242Y29632239D01*
X23313243Y29632238D01*
X23285950Y29530377D01*
X23285950Y25495094D01*
X23267043Y25436903D01*
X23256954Y25425091D01*
X23205932Y25374069D01*
X23205930Y25374067D01*
X23205930Y25374066D01*
X23126873Y25237134D01*
X23085950Y25084407D01*
X5344500Y25084407D01*
X5344500Y53540299D01*
X21764000Y53540299D01*
X21764000Y52902801D01*
X21764001Y52902800D01*
X22713297Y52902800D01*
X22678075Y52841793D01*
X22644000Y52714626D01*
X22644000Y52582974D01*
X22678075Y52455807D01*
X22713297Y52394800D01*
X21764001Y52394800D01*
X21764000Y52394799D01*
X21764000Y51757302D01*
X21774227Y51672137D01*
X21827678Y51536597D01*
X21915706Y51420515D01*
X21915714Y51420507D01*
X22031796Y51332479D01*
X22167336Y51279028D01*
X22209103Y51274013D01*
X22225747Y51279769D01*
X22258058Y51296233D01*
X22318491Y51286665D01*
X22343554Y51268457D01*
X23019052Y50592959D01*
X22951007Y50574725D01*
X22836993Y50508899D01*
X22743901Y50415807D01*
X22678075Y50301793D01*
X22659841Y50233747D01*
X22004870Y50888718D01*
X21963716Y50832076D01*
X21865104Y50638537D01*
X21797978Y50431947D01*
X21764000Y50217412D01*
X21764000Y50000189D01*
X21797978Y49785654D01*
X21865104Y49579064D01*
X21963717Y49385523D01*
X21963721Y49385518D01*
X22004869Y49328883D01*
X22004870Y49328883D01*
X22659841Y49983854D01*
X22678075Y49915807D01*
X22743901Y49801793D01*
X22836993Y49708701D01*
X22951007Y49642875D01*
X23019052Y49624643D01*
X22364081Y48969671D01*
X22364081Y48969670D01*
X22420717Y48928522D01*
X22420722Y48928518D01*
X22614263Y48829905D01*
X22820853Y48762779D01*
X23035389Y48728800D01*
X23252611Y48728800D01*
X23467146Y48762779D01*
X23673736Y48829905D01*
X23867271Y48928515D01*
X23867279Y48928520D01*
X23923917Y48969671D01*
X23268946Y49624642D01*
X23336993Y49642875D01*
X23451007Y49708701D01*
X23544099Y49801793D01*
X23609925Y49915807D01*
X23628158Y49983854D01*
X24283129Y49328883D01*
X24324280Y49385521D01*
X24324288Y49385534D01*
X24398460Y49531106D01*
X24441724Y49574371D01*
X24502156Y49583943D01*
X24556673Y49556166D01*
X24574880Y49531107D01*
X24604049Y49473858D01*
X24614476Y49453395D01*
X24730172Y49294154D01*
X24869354Y49154972D01*
X25028595Y49039276D01*
X25203975Y48949916D01*
X25391174Y48889091D01*
X25391175Y48889091D01*
X25391178Y48889090D01*
X25585580Y48858300D01*
X25585583Y48858300D01*
X25782420Y48858300D01*
X25976821Y48889090D01*
X25976822Y48889091D01*
X25976826Y48889091D01*
X26164025Y48949916D01*
X26339405Y49039276D01*
X26498646Y49154972D01*
X26637828Y49294154D01*
X26753524Y49453395D01*
X26842884Y49628775D01*
X26859845Y49680977D01*
X26895809Y49730476D01*
X26954000Y49749383D01*
X27012191Y49730476D01*
X27048155Y49680976D01*
X27065116Y49628775D01*
X27144049Y49473858D01*
X27154476Y49453395D01*
X27270172Y49294154D01*
X27409354Y49154972D01*
X27568595Y49039276D01*
X27743975Y48949916D01*
X27931174Y48889091D01*
X27931175Y48889091D01*
X27931178Y48889090D01*
X28125580Y48858300D01*
X28125583Y48858300D01*
X28322420Y48858300D01*
X28516821Y48889090D01*
X28516822Y48889091D01*
X28516826Y48889091D01*
X28704025Y48949916D01*
X28879405Y49039276D01*
X29038646Y49154972D01*
X29177828Y49294154D01*
X29293524Y49453395D01*
X29382884Y49628775D01*
X29443709Y49815974D01*
X29459521Y49915807D01*
X29474500Y50010380D01*
X29474500Y50207214D01*
X29474499Y50207227D01*
X29443710Y50401622D01*
X29437166Y50421762D01*
X29382884Y50588825D01*
X29293524Y50764205D01*
X29177828Y50923446D01*
X29038646Y51062628D01*
X28879405Y51178324D01*
X28879404Y51178325D01*
X28879402Y51178326D01*
X28704025Y51267684D01*
X28690800Y51271981D01*
X28651823Y51284646D01*
X28602324Y51320609D01*
X28583417Y51378800D01*
X28602324Y51436991D01*
X28651823Y51472955D01*
X28704025Y51489916D01*
X28879405Y51579276D01*
X29038646Y51694972D01*
X29177828Y51834154D01*
X29293524Y51993395D01*
X29333119Y52071107D01*
X29376383Y52114371D01*
X29436815Y52123943D01*
X29491332Y52096166D01*
X29509539Y52071107D01*
X29583717Y51925523D01*
X29583721Y51925518D01*
X29624869Y51868883D01*
X29624870Y51868883D01*
X30279841Y52523854D01*
X30298075Y52455807D01*
X30363901Y52341793D01*
X30456993Y52248701D01*
X30571007Y52182875D01*
X30639052Y52164643D01*
X29984081Y51509671D01*
X29984081Y51509670D01*
X30040717Y51468522D01*
X30040722Y51468518D01*
X30234263Y51369905D01*
X30443745Y51301840D01*
X30493245Y51265876D01*
X30512152Y51207685D01*
X30493245Y51149494D01*
X30451038Y51116221D01*
X30266402Y51039742D01*
X30094348Y50924780D01*
X29948020Y50778452D01*
X29833058Y50606398D01*
X29753869Y50415219D01*
X29713500Y50212268D01*
X29713500Y50005333D01*
X29753869Y49802382D01*
X29833058Y49611203D01*
X29948020Y49439149D01*
X29948023Y49439145D01*
X30094345Y49292823D01*
X30266402Y49177859D01*
X30457580Y49098670D01*
X30660535Y49058300D01*
X30660536Y49058300D01*
X30867464Y49058300D01*
X30867465Y49058300D01*
X31070420Y49098670D01*
X31261598Y49177859D01*
X31433655Y49292823D01*
X31579977Y49439145D01*
X31694941Y49611202D01*
X31774130Y49802380D01*
X31814500Y50005335D01*
X31814500Y50212265D01*
X31814499Y50212268D01*
X32253500Y50212268D01*
X32253500Y50005333D01*
X32293869Y49802382D01*
X32373058Y49611203D01*
X32488020Y49439149D01*
X32488023Y49439145D01*
X32634345Y49292823D01*
X32806402Y49177859D01*
X32997580Y49098670D01*
X33200535Y49058300D01*
X33200536Y49058300D01*
X33407464Y49058300D01*
X33407465Y49058300D01*
X33610420Y49098670D01*
X33801598Y49177859D01*
X33973655Y49292823D01*
X34119977Y49439145D01*
X34234941Y49611202D01*
X34314130Y49802380D01*
X34354500Y50005335D01*
X34354500Y50212265D01*
X34314130Y50415220D01*
X34234941Y50606398D01*
X34119977Y50778455D01*
X33973655Y50924777D01*
X33801598Y51039741D01*
X33801599Y51039741D01*
X33801597Y51039742D01*
X33610418Y51118931D01*
X33407467Y51159300D01*
X33407465Y51159300D01*
X33200535Y51159300D01*
X33200532Y51159300D01*
X32997581Y51118931D01*
X32806402Y51039742D01*
X32634348Y50924780D01*
X32488020Y50778452D01*
X32373058Y50606398D01*
X32293869Y50415219D01*
X32253500Y50212268D01*
X31814499Y50212268D01*
X31774130Y50415220D01*
X31694941Y50606398D01*
X31579977Y50778455D01*
X31433655Y50924777D01*
X31261598Y51039741D01*
X31261599Y51039741D01*
X31261597Y51039742D01*
X31076961Y51116221D01*
X31030435Y51155958D01*
X31016152Y51215453D01*
X31039567Y51271981D01*
X31084255Y51301840D01*
X31293734Y51369904D01*
X31487271Y51468515D01*
X31487279Y51468520D01*
X31543917Y51509671D01*
X30888946Y52164642D01*
X30956993Y52182875D01*
X31071007Y52248701D01*
X31164099Y52341793D01*
X31229925Y52455807D01*
X31248158Y52523854D01*
X31903129Y51868883D01*
X31944280Y51925521D01*
X31944285Y51925529D01*
X32042896Y52119066D01*
X32110960Y52328545D01*
X32146924Y52378046D01*
X32205115Y52396953D01*
X32263306Y52378046D01*
X32296579Y52335839D01*
X32373058Y52151203D01*
X32488020Y51979149D01*
X32488023Y51979145D01*
X32634345Y51832823D01*
X32806402Y51717859D01*
X32997580Y51638670D01*
X33200535Y51598300D01*
X33200536Y51598300D01*
X33407464Y51598300D01*
X33407465Y51598300D01*
X33610420Y51638670D01*
X33801598Y51717859D01*
X33973655Y51832823D01*
X34119977Y51979145D01*
X34234941Y52151202D01*
X34314130Y52342380D01*
X34354500Y52545335D01*
X34354500Y52752265D01*
X34354499Y52752268D01*
X34793500Y52752268D01*
X34793500Y52545333D01*
X34833869Y52342382D01*
X34913058Y52151203D01*
X35028020Y51979149D01*
X35028023Y51979145D01*
X35174345Y51832823D01*
X35346402Y51717859D01*
X35537580Y51638670D01*
X35740535Y51598300D01*
X35740536Y51598300D01*
X35947464Y51598300D01*
X35947465Y51598300D01*
X36150420Y51638670D01*
X36341598Y51717859D01*
X36513655Y51832823D01*
X36659977Y51979145D01*
X36774941Y52151202D01*
X36854130Y52342380D01*
X36894500Y52545335D01*
X36894500Y52752265D01*
X36894499Y52752268D01*
X37333500Y52752268D01*
X37333500Y52545333D01*
X37373869Y52342382D01*
X37453058Y52151203D01*
X37568020Y51979149D01*
X37568023Y51979145D01*
X37714345Y51832823D01*
X37886402Y51717859D01*
X38077580Y51638670D01*
X38280535Y51598300D01*
X38280536Y51598300D01*
X38487464Y51598300D01*
X38487465Y51598300D01*
X38690420Y51638670D01*
X38881598Y51717859D01*
X39053655Y51832823D01*
X39199977Y51979145D01*
X39314941Y52151202D01*
X39394130Y52342380D01*
X39434500Y52545335D01*
X39434500Y52752265D01*
X39434499Y52752268D01*
X39873500Y52752268D01*
X39873500Y52545333D01*
X39913869Y52342382D01*
X39993058Y52151203D01*
X40108020Y51979149D01*
X40108023Y51979145D01*
X40254345Y51832823D01*
X40426402Y51717859D01*
X40617580Y51638670D01*
X40820535Y51598300D01*
X40820536Y51598300D01*
X41027464Y51598300D01*
X41027465Y51598300D01*
X41230420Y51638670D01*
X41421598Y51717859D01*
X41593655Y51832823D01*
X41739977Y51979145D01*
X41854941Y52151202D01*
X41934130Y52342380D01*
X41974500Y52545335D01*
X41974500Y52752265D01*
X41974499Y52752268D01*
X42413500Y52752268D01*
X42413500Y52545333D01*
X42453869Y52342382D01*
X42533058Y52151203D01*
X42648020Y51979149D01*
X42648023Y51979145D01*
X42794345Y51832823D01*
X42966402Y51717859D01*
X43157580Y51638670D01*
X43360535Y51598300D01*
X43360536Y51598300D01*
X43567464Y51598300D01*
X43567465Y51598300D01*
X43770420Y51638670D01*
X43961598Y51717859D01*
X44133655Y51832823D01*
X44279977Y51979145D01*
X44394941Y52151202D01*
X44474130Y52342380D01*
X44514500Y52545335D01*
X44514500Y52752265D01*
X44474130Y52955220D01*
X44394941Y53146398D01*
X44279977Y53318455D01*
X44133655Y53464777D01*
X43961598Y53579741D01*
X43961599Y53579741D01*
X43961597Y53579742D01*
X43770418Y53658931D01*
X43567467Y53699300D01*
X43567465Y53699300D01*
X43360535Y53699300D01*
X43360532Y53699300D01*
X43157581Y53658931D01*
X42966402Y53579742D01*
X42794348Y53464780D01*
X42648020Y53318452D01*
X42533058Y53146398D01*
X42453869Y52955219D01*
X42413500Y52752268D01*
X41974499Y52752268D01*
X41934130Y52955220D01*
X41854941Y53146398D01*
X41739977Y53318455D01*
X41593655Y53464777D01*
X41421598Y53579741D01*
X41421599Y53579741D01*
X41421597Y53579742D01*
X41230418Y53658931D01*
X41027467Y53699300D01*
X41027465Y53699300D01*
X40820535Y53699300D01*
X40820532Y53699300D01*
X40617581Y53658931D01*
X40426402Y53579742D01*
X40254348Y53464780D01*
X40108020Y53318452D01*
X39993058Y53146398D01*
X39913869Y52955219D01*
X39873500Y52752268D01*
X39434499Y52752268D01*
X39394130Y52955220D01*
X39314941Y53146398D01*
X39199977Y53318455D01*
X39053655Y53464777D01*
X38881598Y53579741D01*
X38881599Y53579741D01*
X38881597Y53579742D01*
X38690418Y53658931D01*
X38487467Y53699300D01*
X38487465Y53699300D01*
X38280535Y53699300D01*
X38280532Y53699300D01*
X38077581Y53658931D01*
X37886402Y53579742D01*
X37714348Y53464780D01*
X37568020Y53318452D01*
X37453058Y53146398D01*
X37373869Y52955219D01*
X37333500Y52752268D01*
X36894499Y52752268D01*
X36854130Y52955220D01*
X36774941Y53146398D01*
X36659977Y53318455D01*
X36513655Y53464777D01*
X36341598Y53579741D01*
X36341599Y53579741D01*
X36341597Y53579742D01*
X36150418Y53658931D01*
X35947467Y53699300D01*
X35947465Y53699300D01*
X35740535Y53699300D01*
X35740532Y53699300D01*
X35537581Y53658931D01*
X35346402Y53579742D01*
X35174348Y53464780D01*
X35028020Y53318452D01*
X34913058Y53146398D01*
X34833869Y52955219D01*
X34793500Y52752268D01*
X34354499Y52752268D01*
X34314130Y52955220D01*
X34234941Y53146398D01*
X34119977Y53318455D01*
X33973655Y53464777D01*
X33801598Y53579741D01*
X33801599Y53579741D01*
X33801597Y53579742D01*
X33610418Y53658931D01*
X33407467Y53699300D01*
X33407465Y53699300D01*
X33200535Y53699300D01*
X33200532Y53699300D01*
X32997581Y53658931D01*
X32806402Y53579742D01*
X32634348Y53464780D01*
X32488020Y53318452D01*
X32373058Y53146398D01*
X32296579Y52961762D01*
X32256842Y52915236D01*
X32197347Y52900953D01*
X32140819Y52924368D01*
X32110960Y52969055D01*
X32042895Y53178537D01*
X31944282Y53372078D01*
X31944278Y53372083D01*
X31903129Y53428719D01*
X31248157Y52773748D01*
X31229925Y52841793D01*
X31164099Y52955807D01*
X31071007Y53048899D01*
X30956993Y53114725D01*
X30888946Y53132959D01*
X31543917Y53787930D01*
X31543917Y53787931D01*
X31487282Y53829079D01*
X31487277Y53829083D01*
X31293736Y53927696D01*
X31087146Y53994822D01*
X30872611Y54028800D01*
X30655389Y54028800D01*
X30440853Y53994822D01*
X30234263Y53927696D01*
X30040724Y53829084D01*
X29984082Y53787930D01*
X30639053Y53132959D01*
X30571007Y53114725D01*
X30456993Y53048899D01*
X30363901Y52955807D01*
X30298075Y52841793D01*
X30279841Y52773747D01*
X29624870Y53428718D01*
X29583716Y53372076D01*
X29509539Y53226494D01*
X29466274Y53183229D01*
X29405842Y53173658D01*
X29351325Y53201436D01*
X29333119Y53226495D01*
X29293527Y53304200D01*
X29293526Y53304202D01*
X29283173Y53318452D01*
X29177828Y53463446D01*
X29038646Y53602628D01*
X28945769Y53670108D01*
X28945768Y53670109D01*
X28879410Y53718321D01*
X28879404Y53718325D01*
X28704025Y53807684D01*
X28516821Y53868511D01*
X28322420Y53899300D01*
X28322417Y53899300D01*
X28125583Y53899300D01*
X28125580Y53899300D01*
X27931178Y53868511D01*
X27743974Y53807684D01*
X27568597Y53718326D01*
X27409355Y53602629D01*
X27270171Y53463445D01*
X27154474Y53304203D01*
X27065114Y53128822D01*
X27065112Y53128819D01*
X27048154Y53076625D01*
X27012190Y53027125D01*
X26953999Y53008218D01*
X26895809Y53027126D01*
X26859846Y53076625D01*
X26842887Y53128819D01*
X26842885Y53128822D01*
X26842884Y53128823D01*
X26842884Y53128825D01*
X26753524Y53304205D01*
X26637828Y53463446D01*
X26498646Y53602628D01*
X26339405Y53718324D01*
X26339404Y53718325D01*
X26339402Y53718326D01*
X26164025Y53807684D01*
X25976821Y53868511D01*
X25782420Y53899300D01*
X25782417Y53899300D01*
X25585583Y53899300D01*
X25585580Y53899300D01*
X25391178Y53868511D01*
X25203974Y53807684D01*
X25028597Y53718326D01*
X24869355Y53602629D01*
X24730170Y53463444D01*
X24703092Y53426174D01*
X24653592Y53390211D01*
X24592406Y53390212D01*
X24542907Y53426176D01*
X24524000Y53484366D01*
X24524000Y53540293D01*
X24523999Y53540299D01*
X24513772Y53625464D01*
X24460321Y53761004D01*
X24372293Y53877086D01*
X24372285Y53877094D01*
X24256203Y53965122D01*
X24120663Y54018573D01*
X24035498Y54028800D01*
X23398001Y54028800D01*
X23398000Y54028799D01*
X23398000Y53079503D01*
X23336993Y53114725D01*
X23209826Y53148800D01*
X23078174Y53148800D01*
X22951007Y53114725D01*
X22890000Y53079503D01*
X22890000Y54028799D01*
X22889999Y54028800D01*
X22252501Y54028800D01*
X22167336Y54018573D01*
X22031796Y53965122D01*
X21915714Y53877094D01*
X21915706Y53877086D01*
X21827678Y53761004D01*
X21774227Y53625464D01*
X21764000Y53540299D01*
X5344500Y53540299D01*
X5344500Y55516500D01*
X5363407Y55574691D01*
X5412907Y55610655D01*
X5443500Y55615500D01*
X75836500Y55615500D01*
X75894691Y55596593D01*
G37*
%TD.AperFunction*%
%TD*%
M02*
