M48
; DRILL file {KiCad 9.0.1+1} date 2025-11-25T21:21:07+0000
; FORMAT={3:3/ absolute / metric / suppress leading zeros}
; #@! TF.CreationDate,2025-11-25T21:21:07+00:00
; #@! TF.GenerationSoftware,Kicad,Pcbnew,9.0.1+1
; #@! TF.FileFunction,Plated,1,4,PTH
FMAT,2
METRIC,TZ
; #@! TA.AperFunction,Plated,PTH,ViaDrill
T1C0.400
; #@! TA.AperFunction,Plated,PTH,ComponentDrill
T2C0.500
; #@! TA.AperFunction,Plated,PTH,ComponentDrill
T3C1.000
; #@! TA.AperFunction,Plated,PTH,ComponentDrill
T4C3.000
%
G90
G05
T1
X103090Y-91377
X105762Y-109430
X107007Y-111871
X108145Y-95314
X108526Y-103772
X108755Y-113145
X108932Y-76137
X108932Y-78677
X108939Y-117927
X109009Y-80607
X109263Y-119850
X109948Y-84773
X110344Y-93344
X111472Y-76137
X111472Y-78677
X112012Y-113240
X112260Y-120130
X112895Y-98895
X114012Y-78677
X114419Y-80734
X116552Y-78677
X117060Y-116345
X118076Y-84646
X118381Y-111545
X118942Y-116371
X119092Y-78677
X119169Y-113597
X120058Y-102655
X120210Y-120435
X120406Y-106103
X121632Y-78677
X121632Y-116942
X122166Y-122441
X123995Y-81242
X124172Y-78677
X124172Y-116942
X124985Y-92749
X125131Y-107589
X126204Y-92647
X126712Y-116942
X126926Y-98476
X127474Y-93434
X127629Y-84826
X128080Y-106261
X129026Y-116942
X129252Y-76137
X129252Y-107735
X129564Y-90615
X130319Y-122721
X131615Y-92114
X131706Y-109955
X131792Y-76137
X132250Y-81369
X132707Y-122924
X133113Y-120435
X133956Y-105017
X134332Y-76137
X134663Y-82944
X134688Y-89599
X134956Y-119375
X134956Y-117143
X135983Y-113881
X136237Y-122492
X136466Y-106846
X136847Y-102594
X137863Y-91987
X137914Y-75121
X139514Y-118707
X140065Y-119639
X140307Y-114879
X140378Y-92164
X141025Y-102286
X141218Y-106134
X141550Y-107909
X141952Y-119317
X142006Y-113494
X142486Y-93383
X142714Y-82055
X142740Y-104864
X142918Y-101105
X143222Y-120409
X143857Y-110046
X143934Y-90310
X143984Y-84265
X144823Y-100140
X145181Y-94662
X146829Y-93553
X147007Y-115456
X147540Y-82995
X147876Y-95470
X147921Y-99708
X147972Y-98514
X148117Y-92351
X148150Y-87161
X148302Y-123242
X149318Y-76137
X149318Y-77915
X149572Y-112967
X149776Y-108700
X149776Y-110681
X149826Y-85865
X149953Y-82081
X150750Y-123242
X151604Y-75629
X151655Y-84163
X151858Y-96203
X152138Y-115482
X152265Y-112484
X152725Y-103723
X152976Y-82639
X153097Y-86181
X153105Y-87821
X153209Y-123363
X153382Y-75629
X153867Y-88542
X154085Y-86329
X154681Y-123718
X155160Y-75629
X155592Y-101760
X155684Y-85957
X156202Y-79972
X156314Y-97742
X156532Y-108611
X156684Y-75629
X156902Y-99875
X157065Y-77026
X157065Y-115380
X157099Y-88705
X157218Y-109538
X158081Y-78855
X158719Y-94402
X158970Y-77026
X159116Y-91343
X159490Y-93764
X159783Y-75731
X159783Y-114847
X160096Y-88698
X160164Y-110579
X160291Y-86043
X160420Y-94131
X160748Y-122619
X160750Y-89704
X161002Y-82233
X161096Y-91553
X161142Y-87034
X161250Y-92544
X162018Y-84113
X162501Y-101029
X163034Y-116726
X163415Y-106338
X164304Y-122619
X164406Y-101918
X164660Y-81801
X164762Y-75248
X165066Y-109843
X165143Y-117133
X165482Y-94619
X166032Y-84519
X166481Y-90653
X167149Y-111900
X167454Y-105753
X167931Y-87648
X168013Y-75934
X168064Y-116726
X168066Y-84223
X168114Y-122619
X168165Y-100140
X168306Y-112403
X168533Y-93656
X169854Y-81635
X170096Y-76416
X170400Y-122568
X170646Y-102903
X170985Y-87770
X171112Y-75172
X171158Y-107115
X171162Y-81852
X171826Y-110973
X171826Y-113623
X171916Y-106463
X172084Y-114961
X172178Y-97270
X172280Y-95162
X172737Y-99114
X172763Y-101054
X173194Y-105169
X173601Y-88380
X174439Y-84113
X175229Y-99239
X175328Y-91479
X175353Y-105474
X176750Y-105753
X176776Y-89269
X177276Y-109523
X177284Y-100610
X177301Y-112188
X177665Y-91428
X178173Y-96660
X178205Y-98826
X178401Y-101156
X178554Y-107252
X178935Y-89294
X178970Y-91406
X179214Y-75705
X179335Y-104903
X179341Y-87059
X179392Y-85535
X179443Y-114237
X179925Y-121984
X180136Y-103753
X180560Y-116650
X180595Y-114230
X180814Y-120079
X181348Y-75172
X182237Y-94069
X183075Y-74588
X184116Y-109411
X185640Y-102553
X185640Y-110046
X185691Y-103925
X185894Y-89853
X185945Y-74715
X186352Y-83147
X186402Y-81877
X186428Y-77813
X187164Y-89853
X187164Y-97600
X187164Y-108395
X187164Y-115126
X187164Y-116523
X187164Y-118047
X187164Y-119825
X187418Y-92647
X187545Y-94552
X187901Y-74588
X187926Y-102553
X188079Y-77864
X188434Y-98489
X188434Y-108395
X188688Y-89853
X189196Y-102553
X189247Y-74588
X189323Y-77813
T3
X87362Y-83812
X87362Y-86352
X87362Y-88892
X87362Y-91432
X87362Y-93972
X87362Y-96512
X87362Y-99052
X87362Y-101592
X87362Y-104132
X87362Y-106672
X87362Y-109212
X87362Y-111752
X87362Y-114292
X87362Y-116832
X87362Y-119372
X89902Y-83812
X89902Y-86352
X89902Y-88892
X89902Y-91432
X89902Y-93972
X89902Y-96512
X89902Y-99052
X89902Y-101592
X89902Y-104132
X89902Y-106672
X89902Y-109212
X89902Y-111752
X89902Y-114292
X89902Y-116832
X89902Y-119372
T4
X103852Y-78677
X103852Y-119317
X174972Y-78677
X174972Y-119317
T2
G00X139209Y-146624
M15
G01X139209Y-147024
M16
G05
G00X143459Y-146624
M15
G01X143459Y-147024
M16
G05
M30
