%TF.GenerationSoftware,KiCad,Pcbnew,9.0.6+1*%
%TF.CreationDate,2026-01-07T19:36:36+00:00*%
%TF.ProjectId,TFUNIPAYLOAD01,5446554e-4950-4415-994c-4f414430312e,rev?*%
%TF.SameCoordinates,PX66dd020PY81342c0*%
%TF.FileFunction,Paste,Bot*%
%TF.FilePolarity,Positive*%
%FSLAX46Y46*%
G04 Gerber Fmt 4.6, Leading zero omitted, Abs format (unit mm)*
G04 Created by KiCad (PCBNEW 9.0.6+1) date 2026-01-07 19:36:36*
%MOMM*%
%LPD*%
G01*
G04 APERTURE LIST*
G04 Aperture macros list*
%AMRoundRect*
0 Rectangle with rounded corners*
0 $1 Rounding radius*
0 $2 $3 $4 $5 $6 $7 $8 $9 X,Y pos of 4 corners*
0 Add a 4 corners polygon primitive as box body*
4,1,4,$2,$3,$4,$5,$6,$7,$8,$9,$2,$3,0*
0 Add four circle primitives for the rounded corners*
1,1,$1+$1,$2,$3*
1,1,$1+$1,$4,$5*
1,1,$1+$1,$6,$7*
1,1,$1+$1,$8,$9*
0 Add four rect primitives between the rounded corners*
20,1,$1+$1,$2,$3,$4,$5,0*
20,1,$1+$1,$4,$5,$6,$7,0*
20,1,$1+$1,$6,$7,$8,$9,0*
20,1,$1+$1,$8,$9,$2,$3,0*%
G04 Aperture macros list end*
%ADD10RoundRect,0.250000X0.250000X0.475000X-0.250000X0.475000X-0.250000X-0.475000X0.250000X-0.475000X0*%
%ADD11RoundRect,0.137500X0.137500X-0.600000X0.137500X0.600000X-0.137500X0.600000X-0.137500X-0.600000X0*%
%ADD12RoundRect,0.137500X0.600000X-0.137500X0.600000X0.137500X-0.600000X0.137500X-0.600000X-0.137500X0*%
%ADD13RoundRect,0.250000X-0.262500X-0.450000X0.262500X-0.450000X0.262500X0.450000X-0.262500X0.450000X0*%
%ADD14RoundRect,0.250000X-0.450000X0.262500X-0.450000X-0.262500X0.450000X-0.262500X0.450000X0.262500X0*%
%ADD15RoundRect,0.250000X-0.475000X0.250000X-0.475000X-0.250000X0.475000X-0.250000X0.475000X0.250000X0*%
%ADD16RoundRect,0.250000X0.475000X-0.250000X0.475000X0.250000X-0.475000X0.250000X-0.475000X-0.250000X0*%
%ADD17RoundRect,0.050000X0.285000X0.100000X-0.285000X0.100000X-0.285000X-0.100000X0.285000X-0.100000X0*%
%ADD18RoundRect,0.250000X-0.250000X-0.475000X0.250000X-0.475000X0.250000X0.475000X-0.250000X0.475000X0*%
%ADD19RoundRect,0.150000X0.150000X0.700000X-0.150000X0.700000X-0.150000X-0.700000X0.150000X-0.700000X0*%
%ADD20RoundRect,0.250000X0.250000X1.100000X-0.250000X1.100000X-0.250000X-1.100000X0.250000X-1.100000X0*%
%ADD21RoundRect,0.150000X0.587500X0.150000X-0.587500X0.150000X-0.587500X-0.150000X0.587500X-0.150000X0*%
%ADD22RoundRect,0.250000X0.262500X0.450000X-0.262500X0.450000X-0.262500X-0.450000X0.262500X-0.450000X0*%
%ADD23RoundRect,0.237500X-0.237500X0.287500X-0.237500X-0.287500X0.237500X-0.287500X0.237500X0.287500X0*%
%ADD24RoundRect,0.166667X0.458333X0.583333X-0.458333X0.583333X-0.458333X-0.583333X0.458333X-0.583333X0*%
%ADD25RoundRect,0.166667X-0.458333X-0.583333X0.458333X-0.583333X0.458333X0.583333X-0.458333X0.583333X0*%
%ADD26RoundRect,0.150000X0.200000X-0.150000X0.200000X0.150000X-0.200000X0.150000X-0.200000X-0.150000X0*%
%ADD27R,0.600000X0.700000*%
%ADD28RoundRect,0.250000X0.450000X-0.262500X0.450000X0.262500X-0.450000X0.262500X-0.450000X-0.262500X0*%
%ADD29RoundRect,0.250000X0.450000X0.350000X-0.450000X0.350000X-0.450000X-0.350000X0.450000X-0.350000X0*%
%ADD30RoundRect,0.166667X-0.583333X0.458333X-0.583333X-0.458333X0.583333X-0.458333X0.583333X0.458333X0*%
%ADD31RoundRect,0.166667X0.583333X-0.458333X0.583333X0.458333X-0.583333X0.458333X-0.583333X-0.458333X0*%
%ADD32RoundRect,0.250000X0.850000X-0.375000X0.850000X0.375000X-0.850000X0.375000X-0.850000X-0.375000X0*%
G04 APERTURE END LIST*
D10*
%TO.C,C9*%
X37399000Y40360600D03*
X35499000Y40360600D03*
%TD*%
%TO.C,C8*%
X37399000Y42418000D03*
X35499000Y42418000D03*
%TD*%
D11*
%TO.C,U2*%
X40601400Y26341500D03*
X39801400Y26341500D03*
X39001400Y26341500D03*
X38201400Y26341500D03*
X37401400Y26341500D03*
X36601400Y26341500D03*
X35801400Y26341500D03*
X35001400Y26341500D03*
X34201400Y26341500D03*
X33401400Y26341500D03*
X32601400Y26341500D03*
D12*
X30938900Y28004000D03*
X30938900Y28804000D03*
X30938900Y29604000D03*
X30938900Y30404000D03*
X30938900Y31204000D03*
X30938900Y32004000D03*
X30938900Y32804000D03*
X30938900Y33604000D03*
X30938900Y34404000D03*
X30938900Y35204000D03*
X30938900Y36004000D03*
D11*
X32601400Y37666500D03*
X33401400Y37666500D03*
X34201400Y37666500D03*
X35001400Y37666500D03*
X35801400Y37666500D03*
X36601400Y37666500D03*
X37401400Y37666500D03*
X38201400Y37666500D03*
X39001400Y37666500D03*
X39801400Y37666500D03*
X40601400Y37666500D03*
D12*
X42263900Y36004000D03*
X42263900Y35204000D03*
X42263900Y34404000D03*
X42263900Y33604000D03*
X42263900Y32804000D03*
X42263900Y32004000D03*
X42263900Y31204000D03*
X42263900Y30404000D03*
X42263900Y29604000D03*
X42263900Y28804000D03*
X42263900Y28004000D03*
%TD*%
D13*
%TO.C,R12*%
X24690700Y26009600D03*
X26515700Y26009600D03*
%TD*%
D14*
%TO.C,R5*%
X39598600Y24001100D03*
X39598600Y22176100D03*
%TD*%
D15*
%TO.C,C10*%
X37465000Y24064000D03*
X37465000Y22164000D03*
%TD*%
%TO.C,C11*%
X45034200Y32954000D03*
X45034200Y31054000D03*
%TD*%
D16*
%TO.C,C12*%
X27508200Y31054000D03*
X27508200Y32954000D03*
%TD*%
D15*
%TO.C,C2*%
X41529000Y24013200D03*
X41529000Y22113200D03*
%TD*%
D13*
%TO.C,R13*%
X24665300Y28524200D03*
X26490300Y28524200D03*
%TD*%
D17*
%TO.C,U1*%
X57432800Y34520700D03*
X57432800Y34020700D03*
X57432800Y33520700D03*
X57432800Y33020700D03*
X55952800Y33020700D03*
X55952800Y33520700D03*
X55952800Y34020700D03*
X55952800Y34520700D03*
%TD*%
D18*
%TO.C,C6*%
X58765400Y36855400D03*
X60665400Y36855400D03*
%TD*%
D19*
%TO.C,J1*%
X49419200Y10363200D03*
X48169200Y10363200D03*
X46919200Y10363200D03*
X45669200Y10363200D03*
X44419200Y10363200D03*
X43169200Y10363200D03*
D20*
X51269200Y7163200D03*
X41319200Y7163200D03*
%TD*%
D21*
%TO.C,Q2*%
X17371300Y42402800D03*
X17371300Y40502800D03*
X15496300Y41452800D03*
%TD*%
D18*
%TO.C,C13*%
X67503000Y30861000D03*
X69403000Y30861000D03*
%TD*%
D22*
%TO.C,R10*%
X57249700Y36042600D03*
X55424700Y36042600D03*
%TD*%
D15*
%TO.C,C3*%
X31013400Y20711200D03*
X31013400Y18811200D03*
%TD*%
D22*
%TO.C,R22*%
X67155700Y36144200D03*
X65330700Y36144200D03*
%TD*%
D23*
%TO.C,L1*%
X52959000Y14387800D03*
X52959000Y12637800D03*
%TD*%
D10*
%TO.C,C7*%
X57261800Y37973000D03*
X55361800Y37973000D03*
%TD*%
D19*
%TO.C,J2*%
X27005600Y10363200D03*
X25755600Y10363200D03*
X24505600Y10363200D03*
X23255600Y10363200D03*
X22005600Y10363200D03*
X20755600Y10363200D03*
X19505600Y10363200D03*
X18255600Y10363200D03*
D20*
X28855600Y7163200D03*
X16405600Y7163200D03*
%TD*%
D24*
%TO.C,D3*%
X10258200Y36969700D03*
D25*
X6658200Y36969700D03*
%TD*%
D22*
%TO.C,R7*%
X21740500Y38150800D03*
X19915500Y38150800D03*
%TD*%
%TO.C,R6*%
X13587100Y37134800D03*
X11762100Y37134800D03*
%TD*%
D14*
%TO.C,R21*%
X30988000Y24382100D03*
X30988000Y22557100D03*
%TD*%
D19*
%TO.C,J6*%
X63126000Y10363200D03*
X61876000Y10363200D03*
X60626000Y10363200D03*
X59376000Y10363200D03*
X58126000Y10363200D03*
X56876000Y10363200D03*
X55626000Y10363200D03*
D20*
X64976000Y7163200D03*
X53776000Y7163200D03*
%TD*%
D19*
%TO.C,J4*%
X36957400Y10363200D03*
X35707400Y10363200D03*
X34457400Y10363200D03*
X33207400Y10363200D03*
D20*
X38807400Y7163200D03*
X31357400Y7163200D03*
%TD*%
D26*
%TO.C,D1*%
X49936400Y14619200D03*
X49936400Y13219200D03*
%TD*%
D27*
%TO.C,SW2*%
X6882000Y22722800D03*
X9882000Y22722800D03*
X6882000Y24622800D03*
X9882000Y24622800D03*
%TD*%
D24*
%TO.C,D4*%
X10258200Y41529000D03*
D25*
X6658200Y41529000D03*
%TD*%
D28*
%TO.C,R28*%
X59156600Y12625700D03*
X59156600Y14450700D03*
%TD*%
D27*
%TO.C,SW1*%
X6882000Y27371000D03*
X9882000Y27371000D03*
X6882000Y29271000D03*
X9882000Y29271000D03*
%TD*%
D14*
%TO.C,R20*%
X28321000Y20394300D03*
X28321000Y18569300D03*
%TD*%
%TO.C,R4*%
X46151800Y14831700D03*
X46151800Y13006700D03*
%TD*%
%TO.C,R18*%
X25970700Y14710800D03*
X25970700Y12885800D03*
%TD*%
D13*
%TO.C,R15*%
X11787500Y32486600D03*
X13612500Y32486600D03*
%TD*%
D14*
%TO.C,R19*%
X24078400Y14710800D03*
X24078400Y12885800D03*
%TD*%
%TO.C,R23*%
X63525400Y36320100D03*
X63525400Y34495100D03*
%TD*%
D29*
%TO.C,Y1*%
X35214800Y18915800D03*
X33014800Y18915800D03*
X33014800Y20615800D03*
X35214800Y20615800D03*
%TD*%
D10*
%TO.C,C15*%
X67167800Y38074600D03*
X65267800Y38074600D03*
%TD*%
D18*
%TO.C,C1*%
X49977000Y16281400D03*
X51877000Y16281400D03*
%TD*%
D30*
%TO.C,D5*%
X61544200Y50134300D03*
D31*
X61544200Y46534300D03*
%TD*%
D22*
%TO.C,R3*%
X13333100Y22961600D03*
X11508100Y22961600D03*
%TD*%
D28*
%TO.C,R25*%
X63017400Y12625700D03*
X63017400Y14450700D03*
%TD*%
D32*
%TO.C,L3*%
X69291200Y32910200D03*
X69291200Y35060200D03*
%TD*%
D28*
%TO.C,R27*%
X61087000Y12625700D03*
X61087000Y14450700D03*
%TD*%
%TO.C,R30*%
X55295800Y12625700D03*
X55295800Y14450700D03*
%TD*%
D10*
%TO.C,C4*%
X35087600Y17018000D03*
X33187600Y17018000D03*
%TD*%
D32*
%TO.C,L2*%
X59385200Y32808600D03*
X59385200Y34958600D03*
%TD*%
D22*
%TO.C,R2*%
X13358500Y27559000D03*
X11533500Y27559000D03*
%TD*%
%TO.C,R8*%
X13409300Y41503600D03*
X11584300Y41503600D03*
%TD*%
D26*
%TO.C,D2*%
X51409600Y14644600D03*
X51409600Y13244600D03*
%TD*%
D21*
%TO.C,Q1*%
X17498300Y38186400D03*
X17498300Y36286400D03*
X15623300Y37236400D03*
%TD*%
D13*
%TO.C,R26*%
X28170500Y48387000D03*
X29995500Y48387000D03*
%TD*%
D18*
%TO.C,C14*%
X68671400Y36906200D03*
X70571400Y36906200D03*
%TD*%
D14*
%TO.C,R17*%
X27863000Y14708900D03*
X27863000Y12883900D03*
%TD*%
D28*
%TO.C,R29*%
X57226200Y12625700D03*
X57226200Y14450700D03*
%TD*%
%TO.C,R24*%
X64770000Y51665500D03*
X64770000Y53490500D03*
%TD*%
D14*
%TO.C,R11*%
X53695600Y36066100D03*
X53695600Y34241100D03*
%TD*%
D25*
%TO.C,D6*%
X6658200Y32410400D03*
D24*
X10258200Y32410400D03*
%TD*%
D30*
%TO.C,D7*%
X65100200Y50110800D03*
D31*
X65100200Y46510800D03*
%TD*%
D17*
%TO.C,U3*%
X67338800Y34622300D03*
X67338800Y34122300D03*
X67338800Y33622300D03*
X67338800Y33122300D03*
X65858800Y33122300D03*
X65858800Y33622300D03*
X65858800Y34122300D03*
X65858800Y34622300D03*
%TD*%
D28*
%TO.C,R14*%
X61468000Y51689000D03*
X61468000Y53514000D03*
%TD*%
D18*
%TO.C,C5*%
X57597000Y30759400D03*
X59497000Y30759400D03*
%TD*%
D22*
%TO.C,R9*%
X21613500Y42418000D03*
X19788500Y42418000D03*
%TD*%
D14*
%TO.C,R1*%
X48183800Y14831700D03*
X48183800Y13006700D03*
%TD*%
M02*
