%TF.GenerationSoftware,KiCad,Pcbnew,9.0.6+1*%
%TF.CreationDate,2025-12-27T00:11:24+00:00*%
%TF.ProjectId,TFUNIPAYLOAD01,5446554e-4950-4415-994c-4f414430312e,rev?*%
%TF.SameCoordinates,PX66dd020PY81342c0*%
%TF.FileFunction,Legend,Bot*%
%TF.FilePolarity,Positive*%
%FSLAX46Y46*%
G04 Gerber Fmt 4.6, Leading zero omitted, Abs format (unit mm)*
G04 Created by KiCad (PCBNEW 9.0.6+1) date 2025-12-27 00:11:24*
%MOMM*%
%LPD*%
G01*
G04 APERTURE LIST*
%ADD10C,0.150000*%
%ADD11C,0.200000*%
%ADD12C,0.100000*%
%ADD13C,0.050000*%
%ADD14C,0.120000*%
G04 APERTURE END LIST*
D10*
X40745580Y40552667D02*
X40793200Y40600286D01*
X40793200Y40600286D02*
X40840819Y40743143D01*
X40840819Y40743143D02*
X40840819Y40838381D01*
X40840819Y40838381D02*
X40793200Y40981238D01*
X40793200Y40981238D02*
X40697961Y41076476D01*
X40697961Y41076476D02*
X40602723Y41124095D01*
X40602723Y41124095D02*
X40412247Y41171714D01*
X40412247Y41171714D02*
X40269390Y41171714D01*
X40269390Y41171714D02*
X40078914Y41124095D01*
X40078914Y41124095D02*
X39983676Y41076476D01*
X39983676Y41076476D02*
X39888438Y40981238D01*
X39888438Y40981238D02*
X39840819Y40838381D01*
X39840819Y40838381D02*
X39840819Y40743143D01*
X39840819Y40743143D02*
X39888438Y40600286D01*
X39888438Y40600286D02*
X39936057Y40552667D01*
X40840819Y40076476D02*
X40840819Y39886000D01*
X40840819Y39886000D02*
X40793200Y39790762D01*
X40793200Y39790762D02*
X40745580Y39743143D01*
X40745580Y39743143D02*
X40602723Y39647905D01*
X40602723Y39647905D02*
X40412247Y39600286D01*
X40412247Y39600286D02*
X40031295Y39600286D01*
X40031295Y39600286D02*
X39936057Y39647905D01*
X39936057Y39647905D02*
X39888438Y39695524D01*
X39888438Y39695524D02*
X39840819Y39790762D01*
X39840819Y39790762D02*
X39840819Y39981238D01*
X39840819Y39981238D02*
X39888438Y40076476D01*
X39888438Y40076476D02*
X39936057Y40124095D01*
X39936057Y40124095D02*
X40031295Y40171714D01*
X40031295Y40171714D02*
X40269390Y40171714D01*
X40269390Y40171714D02*
X40364628Y40124095D01*
X40364628Y40124095D02*
X40412247Y40076476D01*
X40412247Y40076476D02*
X40459866Y39981238D01*
X40459866Y39981238D02*
X40459866Y39790762D01*
X40459866Y39790762D02*
X40412247Y39695524D01*
X40412247Y39695524D02*
X40364628Y39647905D01*
X40364628Y39647905D02*
X40269390Y39600286D01*
X38749266Y44649220D02*
X38796885Y44601600D01*
X38796885Y44601600D02*
X38939742Y44553981D01*
X38939742Y44553981D02*
X39034980Y44553981D01*
X39034980Y44553981D02*
X39177837Y44601600D01*
X39177837Y44601600D02*
X39273075Y44696839D01*
X39273075Y44696839D02*
X39320694Y44792077D01*
X39320694Y44792077D02*
X39368313Y44982553D01*
X39368313Y44982553D02*
X39368313Y45125410D01*
X39368313Y45125410D02*
X39320694Y45315886D01*
X39320694Y45315886D02*
X39273075Y45411124D01*
X39273075Y45411124D02*
X39177837Y45506362D01*
X39177837Y45506362D02*
X39034980Y45553981D01*
X39034980Y45553981D02*
X38939742Y45553981D01*
X38939742Y45553981D02*
X38796885Y45506362D01*
X38796885Y45506362D02*
X38749266Y45458743D01*
X38177837Y45125410D02*
X38273075Y45173029D01*
X38273075Y45173029D02*
X38320694Y45220648D01*
X38320694Y45220648D02*
X38368313Y45315886D01*
X38368313Y45315886D02*
X38368313Y45363505D01*
X38368313Y45363505D02*
X38320694Y45458743D01*
X38320694Y45458743D02*
X38273075Y45506362D01*
X38273075Y45506362D02*
X38177837Y45553981D01*
X38177837Y45553981D02*
X37987361Y45553981D01*
X37987361Y45553981D02*
X37892123Y45506362D01*
X37892123Y45506362D02*
X37844504Y45458743D01*
X37844504Y45458743D02*
X37796885Y45363505D01*
X37796885Y45363505D02*
X37796885Y45315886D01*
X37796885Y45315886D02*
X37844504Y45220648D01*
X37844504Y45220648D02*
X37892123Y45173029D01*
X37892123Y45173029D02*
X37987361Y45125410D01*
X37987361Y45125410D02*
X38177837Y45125410D01*
X38177837Y45125410D02*
X38273075Y45077791D01*
X38273075Y45077791D02*
X38320694Y45030172D01*
X38320694Y45030172D02*
X38368313Y44934934D01*
X38368313Y44934934D02*
X38368313Y44744458D01*
X38368313Y44744458D02*
X38320694Y44649220D01*
X38320694Y44649220D02*
X38273075Y44601600D01*
X38273075Y44601600D02*
X38177837Y44553981D01*
X38177837Y44553981D02*
X37987361Y44553981D01*
X37987361Y44553981D02*
X37892123Y44601600D01*
X37892123Y44601600D02*
X37844504Y44649220D01*
X37844504Y44649220D02*
X37796885Y44744458D01*
X37796885Y44744458D02*
X37796885Y44934934D01*
X37796885Y44934934D02*
X37844504Y45030172D01*
X37844504Y45030172D02*
X37892123Y45077791D01*
X37892123Y45077791D02*
X37987361Y45125410D01*
X36089219Y32761905D02*
X36898742Y32761905D01*
X36898742Y32761905D02*
X36993980Y32714286D01*
X36993980Y32714286D02*
X37041600Y32666667D01*
X37041600Y32666667D02*
X37089219Y32571429D01*
X37089219Y32571429D02*
X37089219Y32380953D01*
X37089219Y32380953D02*
X37041600Y32285715D01*
X37041600Y32285715D02*
X36993980Y32238096D01*
X36993980Y32238096D02*
X36898742Y32190477D01*
X36898742Y32190477D02*
X36089219Y32190477D01*
X36184457Y31761905D02*
X36136838Y31714286D01*
X36136838Y31714286D02*
X36089219Y31619048D01*
X36089219Y31619048D02*
X36089219Y31380953D01*
X36089219Y31380953D02*
X36136838Y31285715D01*
X36136838Y31285715D02*
X36184457Y31238096D01*
X36184457Y31238096D02*
X36279695Y31190477D01*
X36279695Y31190477D02*
X36374933Y31190477D01*
X36374933Y31190477D02*
X36517790Y31238096D01*
X36517790Y31238096D02*
X37089219Y31809524D01*
X37089219Y31809524D02*
X37089219Y31190477D01*
X29182219Y32011858D02*
X28706028Y32345191D01*
X29182219Y32583286D02*
X28182219Y32583286D01*
X28182219Y32583286D02*
X28182219Y32202334D01*
X28182219Y32202334D02*
X28229838Y32107096D01*
X28229838Y32107096D02*
X28277457Y32059477D01*
X28277457Y32059477D02*
X28372695Y32011858D01*
X28372695Y32011858D02*
X28515552Y32011858D01*
X28515552Y32011858D02*
X28610790Y32059477D01*
X28610790Y32059477D02*
X28658409Y32107096D01*
X28658409Y32107096D02*
X28706028Y32202334D01*
X28706028Y32202334D02*
X28706028Y32583286D01*
X29182219Y31059477D02*
X29182219Y31630905D01*
X29182219Y31345191D02*
X28182219Y31345191D01*
X28182219Y31345191D02*
X28325076Y31440429D01*
X28325076Y31440429D02*
X28420314Y31535667D01*
X28420314Y31535667D02*
X28467933Y31630905D01*
X28277457Y30678524D02*
X28229838Y30630905D01*
X28229838Y30630905D02*
X28182219Y30535667D01*
X28182219Y30535667D02*
X28182219Y30297572D01*
X28182219Y30297572D02*
X28229838Y30202334D01*
X28229838Y30202334D02*
X28277457Y30154715D01*
X28277457Y30154715D02*
X28372695Y30107096D01*
X28372695Y30107096D02*
X28467933Y30107096D01*
X28467933Y30107096D02*
X28610790Y30154715D01*
X28610790Y30154715D02*
X29182219Y30726143D01*
X29182219Y30726143D02*
X29182219Y30107096D01*
X40486219Y19315867D02*
X40010028Y19649200D01*
X40486219Y19887295D02*
X39486219Y19887295D01*
X39486219Y19887295D02*
X39486219Y19506343D01*
X39486219Y19506343D02*
X39533838Y19411105D01*
X39533838Y19411105D02*
X39581457Y19363486D01*
X39581457Y19363486D02*
X39676695Y19315867D01*
X39676695Y19315867D02*
X39819552Y19315867D01*
X39819552Y19315867D02*
X39914790Y19363486D01*
X39914790Y19363486D02*
X39962409Y19411105D01*
X39962409Y19411105D02*
X40010028Y19506343D01*
X40010028Y19506343D02*
X40010028Y19887295D01*
X39486219Y18411105D02*
X39486219Y18887295D01*
X39486219Y18887295D02*
X39962409Y18934914D01*
X39962409Y18934914D02*
X39914790Y18887295D01*
X39914790Y18887295D02*
X39867171Y18792057D01*
X39867171Y18792057D02*
X39867171Y18553962D01*
X39867171Y18553962D02*
X39914790Y18458724D01*
X39914790Y18458724D02*
X39962409Y18411105D01*
X39962409Y18411105D02*
X40057647Y18363486D01*
X40057647Y18363486D02*
X40295742Y18363486D01*
X40295742Y18363486D02*
X40390980Y18411105D01*
X40390980Y18411105D02*
X40438600Y18458724D01*
X40438600Y18458724D02*
X40486219Y18553962D01*
X40486219Y18553962D02*
X40486219Y18792057D01*
X40486219Y18792057D02*
X40438600Y18887295D01*
X40438600Y18887295D02*
X40390980Y18934914D01*
X40335457Y23545820D02*
X40383076Y23498200D01*
X40383076Y23498200D02*
X40525933Y23450581D01*
X40525933Y23450581D02*
X40621171Y23450581D01*
X40621171Y23450581D02*
X40764028Y23498200D01*
X40764028Y23498200D02*
X40859266Y23593439D01*
X40859266Y23593439D02*
X40906885Y23688677D01*
X40906885Y23688677D02*
X40954504Y23879153D01*
X40954504Y23879153D02*
X40954504Y24022010D01*
X40954504Y24022010D02*
X40906885Y24212486D01*
X40906885Y24212486D02*
X40859266Y24307724D01*
X40859266Y24307724D02*
X40764028Y24402962D01*
X40764028Y24402962D02*
X40621171Y24450581D01*
X40621171Y24450581D02*
X40525933Y24450581D01*
X40525933Y24450581D02*
X40383076Y24402962D01*
X40383076Y24402962D02*
X40335457Y24355343D01*
X39383076Y23450581D02*
X39954504Y23450581D01*
X39668790Y23450581D02*
X39668790Y24450581D01*
X39668790Y24450581D02*
X39764028Y24307724D01*
X39764028Y24307724D02*
X39859266Y24212486D01*
X39859266Y24212486D02*
X39954504Y24164867D01*
X38764028Y24450581D02*
X38668790Y24450581D01*
X38668790Y24450581D02*
X38573552Y24402962D01*
X38573552Y24402962D02*
X38525933Y24355343D01*
X38525933Y24355343D02*
X38478314Y24260105D01*
X38478314Y24260105D02*
X38430695Y24069629D01*
X38430695Y24069629D02*
X38430695Y23831534D01*
X38430695Y23831534D02*
X38478314Y23641058D01*
X38478314Y23641058D02*
X38525933Y23545820D01*
X38525933Y23545820D02*
X38573552Y23498200D01*
X38573552Y23498200D02*
X38668790Y23450581D01*
X38668790Y23450581D02*
X38764028Y23450581D01*
X38764028Y23450581D02*
X38859266Y23498200D01*
X38859266Y23498200D02*
X38906885Y23545820D01*
X38906885Y23545820D02*
X38954504Y23641058D01*
X38954504Y23641058D02*
X39002123Y23831534D01*
X39002123Y23831534D02*
X39002123Y24069629D01*
X39002123Y24069629D02*
X38954504Y24260105D01*
X38954504Y24260105D02*
X38906885Y24355343D01*
X38906885Y24355343D02*
X38859266Y24402962D01*
X38859266Y24402962D02*
X38764028Y24450581D01*
X47120980Y32875458D02*
X47168600Y32923077D01*
X47168600Y32923077D02*
X47216219Y33065934D01*
X47216219Y33065934D02*
X47216219Y33161172D01*
X47216219Y33161172D02*
X47168600Y33304029D01*
X47168600Y33304029D02*
X47073361Y33399267D01*
X47073361Y33399267D02*
X46978123Y33446886D01*
X46978123Y33446886D02*
X46787647Y33494505D01*
X46787647Y33494505D02*
X46644790Y33494505D01*
X46644790Y33494505D02*
X46454314Y33446886D01*
X46454314Y33446886D02*
X46359076Y33399267D01*
X46359076Y33399267D02*
X46263838Y33304029D01*
X46263838Y33304029D02*
X46216219Y33161172D01*
X46216219Y33161172D02*
X46216219Y33065934D01*
X46216219Y33065934D02*
X46263838Y32923077D01*
X46263838Y32923077D02*
X46311457Y32875458D01*
X47216219Y31923077D02*
X47216219Y32494505D01*
X47216219Y32208791D02*
X46216219Y32208791D01*
X46216219Y32208791D02*
X46359076Y32304029D01*
X46359076Y32304029D02*
X46454314Y32399267D01*
X46454314Y32399267D02*
X46501933Y32494505D01*
X47216219Y30970696D02*
X47216219Y31542124D01*
X47216219Y31256410D02*
X46216219Y31256410D01*
X46216219Y31256410D02*
X46359076Y31351648D01*
X46359076Y31351648D02*
X46454314Y31446886D01*
X46454314Y31446886D02*
X46501933Y31542124D01*
X25759580Y31757858D02*
X25807200Y31805477D01*
X25807200Y31805477D02*
X25854819Y31948334D01*
X25854819Y31948334D02*
X25854819Y32043572D01*
X25854819Y32043572D02*
X25807200Y32186429D01*
X25807200Y32186429D02*
X25711961Y32281667D01*
X25711961Y32281667D02*
X25616723Y32329286D01*
X25616723Y32329286D02*
X25426247Y32376905D01*
X25426247Y32376905D02*
X25283390Y32376905D01*
X25283390Y32376905D02*
X25092914Y32329286D01*
X25092914Y32329286D02*
X24997676Y32281667D01*
X24997676Y32281667D02*
X24902438Y32186429D01*
X24902438Y32186429D02*
X24854819Y32043572D01*
X24854819Y32043572D02*
X24854819Y31948334D01*
X24854819Y31948334D02*
X24902438Y31805477D01*
X24902438Y31805477D02*
X24950057Y31757858D01*
X25854819Y30805477D02*
X25854819Y31376905D01*
X25854819Y31091191D02*
X24854819Y31091191D01*
X24854819Y31091191D02*
X24997676Y31186429D01*
X24997676Y31186429D02*
X25092914Y31281667D01*
X25092914Y31281667D02*
X25140533Y31376905D01*
X24950057Y30424524D02*
X24902438Y30376905D01*
X24902438Y30376905D02*
X24854819Y30281667D01*
X24854819Y30281667D02*
X24854819Y30043572D01*
X24854819Y30043572D02*
X24902438Y29948334D01*
X24902438Y29948334D02*
X24950057Y29900715D01*
X24950057Y29900715D02*
X25045295Y29853096D01*
X25045295Y29853096D02*
X25140533Y29853096D01*
X25140533Y29853096D02*
X25283390Y29900715D01*
X25283390Y29900715D02*
X25854819Y30472143D01*
X25854819Y30472143D02*
X25854819Y29853096D01*
X50448980Y19210267D02*
X50496600Y19257886D01*
X50496600Y19257886D02*
X50544219Y19400743D01*
X50544219Y19400743D02*
X50544219Y19495981D01*
X50544219Y19495981D02*
X50496600Y19638838D01*
X50496600Y19638838D02*
X50401361Y19734076D01*
X50401361Y19734076D02*
X50306123Y19781695D01*
X50306123Y19781695D02*
X50115647Y19829314D01*
X50115647Y19829314D02*
X49972790Y19829314D01*
X49972790Y19829314D02*
X49782314Y19781695D01*
X49782314Y19781695D02*
X49687076Y19734076D01*
X49687076Y19734076D02*
X49591838Y19638838D01*
X49591838Y19638838D02*
X49544219Y19495981D01*
X49544219Y19495981D02*
X49544219Y19400743D01*
X49544219Y19400743D02*
X49591838Y19257886D01*
X49591838Y19257886D02*
X49639457Y19210267D01*
X49639457Y18829314D02*
X49591838Y18781695D01*
X49591838Y18781695D02*
X49544219Y18686457D01*
X49544219Y18686457D02*
X49544219Y18448362D01*
X49544219Y18448362D02*
X49591838Y18353124D01*
X49591838Y18353124D02*
X49639457Y18305505D01*
X49639457Y18305505D02*
X49734695Y18257886D01*
X49734695Y18257886D02*
X49829933Y18257886D01*
X49829933Y18257886D02*
X49972790Y18305505D01*
X49972790Y18305505D02*
X50544219Y18876933D01*
X50544219Y18876933D02*
X50544219Y18257886D01*
X25144619Y35237658D02*
X24668428Y35570991D01*
X25144619Y35809086D02*
X24144619Y35809086D01*
X24144619Y35809086D02*
X24144619Y35428134D01*
X24144619Y35428134D02*
X24192238Y35332896D01*
X24192238Y35332896D02*
X24239857Y35285277D01*
X24239857Y35285277D02*
X24335095Y35237658D01*
X24335095Y35237658D02*
X24477952Y35237658D01*
X24477952Y35237658D02*
X24573190Y35285277D01*
X24573190Y35285277D02*
X24620809Y35332896D01*
X24620809Y35332896D02*
X24668428Y35428134D01*
X24668428Y35428134D02*
X24668428Y35809086D01*
X25144619Y34285277D02*
X25144619Y34856705D01*
X25144619Y34570991D02*
X24144619Y34570991D01*
X24144619Y34570991D02*
X24287476Y34666229D01*
X24287476Y34666229D02*
X24382714Y34761467D01*
X24382714Y34761467D02*
X24430333Y34856705D01*
X24144619Y33951943D02*
X24144619Y33332896D01*
X24144619Y33332896D02*
X24525571Y33666229D01*
X24525571Y33666229D02*
X24525571Y33523372D01*
X24525571Y33523372D02*
X24573190Y33428134D01*
X24573190Y33428134D02*
X24620809Y33380515D01*
X24620809Y33380515D02*
X24716047Y33332896D01*
X24716047Y33332896D02*
X24954142Y33332896D01*
X24954142Y33332896D02*
X25049380Y33380515D01*
X25049380Y33380515D02*
X25097000Y33428134D01*
X25097000Y33428134D02*
X25144619Y33523372D01*
X25144619Y33523372D02*
X25144619Y33809086D01*
X25144619Y33809086D02*
X25097000Y33904324D01*
X25097000Y33904324D02*
X25049380Y33951943D01*
X107788280Y38531896D02*
X106978757Y38531896D01*
X106978757Y38531896D02*
X106883519Y38579515D01*
X106883519Y38579515D02*
X106835900Y38627134D01*
X106835900Y38627134D02*
X106788280Y38722372D01*
X106788280Y38722372D02*
X106788280Y38912848D01*
X106788280Y38912848D02*
X106835900Y39008086D01*
X106835900Y39008086D02*
X106883519Y39055705D01*
X106883519Y39055705D02*
X106978757Y39103324D01*
X106978757Y39103324D02*
X107788280Y39103324D01*
X106788280Y40103324D02*
X106788280Y39531896D01*
X106788280Y39817610D02*
X107788280Y39817610D01*
X107788280Y39817610D02*
X107645423Y39722372D01*
X107645423Y39722372D02*
X107550185Y39627134D01*
X107550185Y39627134D02*
X107502566Y39531896D01*
X92303207Y18109693D02*
X92350826Y18062073D01*
X92350826Y18062073D02*
X92493683Y18014454D01*
X92493683Y18014454D02*
X92588921Y18014454D01*
X92588921Y18014454D02*
X92731778Y18062073D01*
X92731778Y18062073D02*
X92827016Y18157312D01*
X92827016Y18157312D02*
X92874635Y18252550D01*
X92874635Y18252550D02*
X92922254Y18443026D01*
X92922254Y18443026D02*
X92922254Y18585883D01*
X92922254Y18585883D02*
X92874635Y18776359D01*
X92874635Y18776359D02*
X92827016Y18871597D01*
X92827016Y18871597D02*
X92731778Y18966835D01*
X92731778Y18966835D02*
X92588921Y19014454D01*
X92588921Y19014454D02*
X92493683Y19014454D01*
X92493683Y19014454D02*
X92350826Y18966835D01*
X92350826Y18966835D02*
X92303207Y18919216D01*
X91446064Y19014454D02*
X91636540Y19014454D01*
X91636540Y19014454D02*
X91731778Y18966835D01*
X91731778Y18966835D02*
X91779397Y18919216D01*
X91779397Y18919216D02*
X91874635Y18776359D01*
X91874635Y18776359D02*
X91922254Y18585883D01*
X91922254Y18585883D02*
X91922254Y18204931D01*
X91922254Y18204931D02*
X91874635Y18109693D01*
X91874635Y18109693D02*
X91827016Y18062073D01*
X91827016Y18062073D02*
X91731778Y18014454D01*
X91731778Y18014454D02*
X91541302Y18014454D01*
X91541302Y18014454D02*
X91446064Y18062073D01*
X91446064Y18062073D02*
X91398445Y18109693D01*
X91398445Y18109693D02*
X91350826Y18204931D01*
X91350826Y18204931D02*
X91350826Y18443026D01*
X91350826Y18443026D02*
X91398445Y18538264D01*
X91398445Y18538264D02*
X91446064Y18585883D01*
X91446064Y18585883D02*
X91541302Y18633502D01*
X91541302Y18633502D02*
X91731778Y18633502D01*
X91731778Y18633502D02*
X91827016Y18585883D01*
X91827016Y18585883D02*
X91874635Y18538264D01*
X91874635Y18538264D02*
X91922254Y18443026D01*
X66247533Y11868381D02*
X66247533Y11154096D01*
X66247533Y11154096D02*
X66295152Y11011239D01*
X66295152Y11011239D02*
X66390390Y10916000D01*
X66390390Y10916000D02*
X66533247Y10868381D01*
X66533247Y10868381D02*
X66628485Y10868381D01*
X65247533Y10868381D02*
X65818961Y10868381D01*
X65533247Y10868381D02*
X65533247Y11868381D01*
X65533247Y11868381D02*
X65628485Y11725524D01*
X65628485Y11725524D02*
X65723723Y11630286D01*
X65723723Y11630286D02*
X65818961Y11582667D01*
X10557657Y42386239D02*
X10510038Y42481477D01*
X10510038Y42481477D02*
X10414800Y42576715D01*
X10414800Y42576715D02*
X10271942Y42719572D01*
X10271942Y42719572D02*
X10224323Y42814810D01*
X10224323Y42814810D02*
X10224323Y42910048D01*
X10462419Y42862429D02*
X10414800Y42957667D01*
X10414800Y42957667D02*
X10319561Y43052905D01*
X10319561Y43052905D02*
X10129085Y43100524D01*
X10129085Y43100524D02*
X9795752Y43100524D01*
X9795752Y43100524D02*
X9605276Y43052905D01*
X9605276Y43052905D02*
X9510038Y42957667D01*
X9510038Y42957667D02*
X9462419Y42862429D01*
X9462419Y42862429D02*
X9462419Y42671953D01*
X9462419Y42671953D02*
X9510038Y42576715D01*
X9510038Y42576715D02*
X9605276Y42481477D01*
X9605276Y42481477D02*
X9795752Y42433858D01*
X9795752Y42433858D02*
X10129085Y42433858D01*
X10129085Y42433858D02*
X10319561Y42481477D01*
X10319561Y42481477D02*
X10414800Y42576715D01*
X10414800Y42576715D02*
X10462419Y42671953D01*
X10462419Y42671953D02*
X10462419Y42862429D01*
X9557657Y42052905D02*
X9510038Y42005286D01*
X9510038Y42005286D02*
X9462419Y41910048D01*
X9462419Y41910048D02*
X9462419Y41671953D01*
X9462419Y41671953D02*
X9510038Y41576715D01*
X9510038Y41576715D02*
X9557657Y41529096D01*
X9557657Y41529096D02*
X9652895Y41481477D01*
X9652895Y41481477D02*
X9748133Y41481477D01*
X9748133Y41481477D02*
X9890990Y41529096D01*
X9890990Y41529096D02*
X10462419Y42100524D01*
X10462419Y42100524D02*
X10462419Y41481477D01*
X92779398Y24129693D02*
X92827017Y24082073D01*
X92827017Y24082073D02*
X92969874Y24034454D01*
X92969874Y24034454D02*
X93065112Y24034454D01*
X93065112Y24034454D02*
X93207969Y24082073D01*
X93207969Y24082073D02*
X93303207Y24177312D01*
X93303207Y24177312D02*
X93350826Y24272550D01*
X93350826Y24272550D02*
X93398445Y24463026D01*
X93398445Y24463026D02*
X93398445Y24605883D01*
X93398445Y24605883D02*
X93350826Y24796359D01*
X93350826Y24796359D02*
X93303207Y24891597D01*
X93303207Y24891597D02*
X93207969Y24986835D01*
X93207969Y24986835D02*
X93065112Y25034454D01*
X93065112Y25034454D02*
X92969874Y25034454D01*
X92969874Y25034454D02*
X92827017Y24986835D01*
X92827017Y24986835D02*
X92779398Y24939216D01*
X91827017Y24034454D02*
X92398445Y24034454D01*
X92112731Y24034454D02*
X92112731Y25034454D01*
X92112731Y25034454D02*
X92207969Y24891597D01*
X92207969Y24891597D02*
X92303207Y24796359D01*
X92303207Y24796359D02*
X92398445Y24748740D01*
X91493683Y25034454D02*
X90874636Y25034454D01*
X90874636Y25034454D02*
X91207969Y24653502D01*
X91207969Y24653502D02*
X91065112Y24653502D01*
X91065112Y24653502D02*
X90969874Y24605883D01*
X90969874Y24605883D02*
X90922255Y24558264D01*
X90922255Y24558264D02*
X90874636Y24463026D01*
X90874636Y24463026D02*
X90874636Y24224931D01*
X90874636Y24224931D02*
X90922255Y24129693D01*
X90922255Y24129693D02*
X90969874Y24082073D01*
X90969874Y24082073D02*
X91065112Y24034454D01*
X91065112Y24034454D02*
X91350826Y24034454D01*
X91350826Y24034454D02*
X91446064Y24082073D01*
X91446064Y24082073D02*
X91493683Y24129693D01*
X88349398Y20904454D02*
X88682731Y21380645D01*
X88920826Y20904454D02*
X88920826Y21904454D01*
X88920826Y21904454D02*
X88539874Y21904454D01*
X88539874Y21904454D02*
X88444636Y21856835D01*
X88444636Y21856835D02*
X88397017Y21809216D01*
X88397017Y21809216D02*
X88349398Y21713978D01*
X88349398Y21713978D02*
X88349398Y21571121D01*
X88349398Y21571121D02*
X88397017Y21475883D01*
X88397017Y21475883D02*
X88444636Y21428264D01*
X88444636Y21428264D02*
X88539874Y21380645D01*
X88539874Y21380645D02*
X88920826Y21380645D01*
X87397017Y20904454D02*
X87968445Y20904454D01*
X87682731Y20904454D02*
X87682731Y21904454D01*
X87682731Y21904454D02*
X87777969Y21761597D01*
X87777969Y21761597D02*
X87873207Y21666359D01*
X87873207Y21666359D02*
X87968445Y21618740D01*
X86777969Y21904454D02*
X86682731Y21904454D01*
X86682731Y21904454D02*
X86587493Y21856835D01*
X86587493Y21856835D02*
X86539874Y21809216D01*
X86539874Y21809216D02*
X86492255Y21713978D01*
X86492255Y21713978D02*
X86444636Y21523502D01*
X86444636Y21523502D02*
X86444636Y21285407D01*
X86444636Y21285407D02*
X86492255Y21094931D01*
X86492255Y21094931D02*
X86539874Y20999693D01*
X86539874Y20999693D02*
X86587493Y20952073D01*
X86587493Y20952073D02*
X86682731Y20904454D01*
X86682731Y20904454D02*
X86777969Y20904454D01*
X86777969Y20904454D02*
X86873207Y20952073D01*
X86873207Y20952073D02*
X86920826Y20999693D01*
X86920826Y20999693D02*
X86968445Y21094931D01*
X86968445Y21094931D02*
X87016064Y21285407D01*
X87016064Y21285407D02*
X87016064Y21523502D01*
X87016064Y21523502D02*
X86968445Y21713978D01*
X86968445Y21713978D02*
X86920826Y21809216D01*
X86920826Y21809216D02*
X86873207Y21856835D01*
X86873207Y21856835D02*
X86777969Y21904454D01*
X29413580Y19902467D02*
X29461200Y19950086D01*
X29461200Y19950086D02*
X29508819Y20092943D01*
X29508819Y20092943D02*
X29508819Y20188181D01*
X29508819Y20188181D02*
X29461200Y20331038D01*
X29461200Y20331038D02*
X29365961Y20426276D01*
X29365961Y20426276D02*
X29270723Y20473895D01*
X29270723Y20473895D02*
X29080247Y20521514D01*
X29080247Y20521514D02*
X28937390Y20521514D01*
X28937390Y20521514D02*
X28746914Y20473895D01*
X28746914Y20473895D02*
X28651676Y20426276D01*
X28651676Y20426276D02*
X28556438Y20331038D01*
X28556438Y20331038D02*
X28508819Y20188181D01*
X28508819Y20188181D02*
X28508819Y20092943D01*
X28508819Y20092943D02*
X28556438Y19950086D01*
X28556438Y19950086D02*
X28604057Y19902467D01*
X28508819Y19569133D02*
X28508819Y18950086D01*
X28508819Y18950086D02*
X28889771Y19283419D01*
X28889771Y19283419D02*
X28889771Y19140562D01*
X28889771Y19140562D02*
X28937390Y19045324D01*
X28937390Y19045324D02*
X28985009Y18997705D01*
X28985009Y18997705D02*
X29080247Y18950086D01*
X29080247Y18950086D02*
X29318342Y18950086D01*
X29318342Y18950086D02*
X29413580Y18997705D01*
X29413580Y18997705D02*
X29461200Y19045324D01*
X29461200Y19045324D02*
X29508819Y19140562D01*
X29508819Y19140562D02*
X29508819Y19426276D01*
X29508819Y19426276D02*
X29461200Y19521514D01*
X29461200Y19521514D02*
X29413580Y19569133D01*
X20658057Y31142781D02*
X20991390Y31618972D01*
X21229485Y31142781D02*
X21229485Y32142781D01*
X21229485Y32142781D02*
X20848533Y32142781D01*
X20848533Y32142781D02*
X20753295Y32095162D01*
X20753295Y32095162D02*
X20705676Y32047543D01*
X20705676Y32047543D02*
X20658057Y31952305D01*
X20658057Y31952305D02*
X20658057Y31809448D01*
X20658057Y31809448D02*
X20705676Y31714210D01*
X20705676Y31714210D02*
X20753295Y31666591D01*
X20753295Y31666591D02*
X20848533Y31618972D01*
X20848533Y31618972D02*
X21229485Y31618972D01*
X19705676Y31142781D02*
X20277104Y31142781D01*
X19991390Y31142781D02*
X19991390Y32142781D01*
X19991390Y32142781D02*
X20086628Y31999924D01*
X20086628Y31999924D02*
X20181866Y31904686D01*
X20181866Y31904686D02*
X20277104Y31857067D01*
X18848533Y32142781D02*
X19039009Y32142781D01*
X19039009Y32142781D02*
X19134247Y32095162D01*
X19134247Y32095162D02*
X19181866Y32047543D01*
X19181866Y32047543D02*
X19277104Y31904686D01*
X19277104Y31904686D02*
X19324723Y31714210D01*
X19324723Y31714210D02*
X19324723Y31333258D01*
X19324723Y31333258D02*
X19277104Y31238020D01*
X19277104Y31238020D02*
X19229485Y31190400D01*
X19229485Y31190400D02*
X19134247Y31142781D01*
X19134247Y31142781D02*
X18943771Y31142781D01*
X18943771Y31142781D02*
X18848533Y31190400D01*
X18848533Y31190400D02*
X18800914Y31238020D01*
X18800914Y31238020D02*
X18753295Y31333258D01*
X18753295Y31333258D02*
X18753295Y31571353D01*
X18753295Y31571353D02*
X18800914Y31666591D01*
X18800914Y31666591D02*
X18848533Y31714210D01*
X18848533Y31714210D02*
X18943771Y31761829D01*
X18943771Y31761829D02*
X19134247Y31761829D01*
X19134247Y31761829D02*
X19229485Y31714210D01*
X19229485Y31714210D02*
X19277104Y31666591D01*
X19277104Y31666591D02*
X19324723Y31571353D01*
X88349398Y26804454D02*
X88682731Y27280645D01*
X88920826Y26804454D02*
X88920826Y27804454D01*
X88920826Y27804454D02*
X88539874Y27804454D01*
X88539874Y27804454D02*
X88444636Y27756835D01*
X88444636Y27756835D02*
X88397017Y27709216D01*
X88397017Y27709216D02*
X88349398Y27613978D01*
X88349398Y27613978D02*
X88349398Y27471121D01*
X88349398Y27471121D02*
X88397017Y27375883D01*
X88397017Y27375883D02*
X88444636Y27328264D01*
X88444636Y27328264D02*
X88539874Y27280645D01*
X88539874Y27280645D02*
X88920826Y27280645D01*
X87968445Y27709216D02*
X87920826Y27756835D01*
X87920826Y27756835D02*
X87825588Y27804454D01*
X87825588Y27804454D02*
X87587493Y27804454D01*
X87587493Y27804454D02*
X87492255Y27756835D01*
X87492255Y27756835D02*
X87444636Y27709216D01*
X87444636Y27709216D02*
X87397017Y27613978D01*
X87397017Y27613978D02*
X87397017Y27518740D01*
X87397017Y27518740D02*
X87444636Y27375883D01*
X87444636Y27375883D02*
X88016064Y26804454D01*
X88016064Y26804454D02*
X87397017Y26804454D01*
X87016064Y27709216D02*
X86968445Y27756835D01*
X86968445Y27756835D02*
X86873207Y27804454D01*
X86873207Y27804454D02*
X86635112Y27804454D01*
X86635112Y27804454D02*
X86539874Y27756835D01*
X86539874Y27756835D02*
X86492255Y27709216D01*
X86492255Y27709216D02*
X86444636Y27613978D01*
X86444636Y27613978D02*
X86444636Y27518740D01*
X86444636Y27518740D02*
X86492255Y27375883D01*
X86492255Y27375883D02*
X87063683Y26804454D01*
X87063683Y26804454D02*
X86444636Y26804454D01*
X64767619Y21985267D02*
X64767619Y22461457D01*
X64767619Y22461457D02*
X63767619Y22461457D01*
X64767619Y21128124D02*
X64767619Y21699552D01*
X64767619Y21413838D02*
X63767619Y21413838D01*
X63767619Y21413838D02*
X63910476Y21509076D01*
X63910476Y21509076D02*
X64005714Y21604314D01*
X64005714Y21604314D02*
X64053333Y21699552D01*
X92303207Y21119693D02*
X92350826Y21072073D01*
X92350826Y21072073D02*
X92493683Y21024454D01*
X92493683Y21024454D02*
X92588921Y21024454D01*
X92588921Y21024454D02*
X92731778Y21072073D01*
X92731778Y21072073D02*
X92827016Y21167312D01*
X92827016Y21167312D02*
X92874635Y21262550D01*
X92874635Y21262550D02*
X92922254Y21453026D01*
X92922254Y21453026D02*
X92922254Y21595883D01*
X92922254Y21595883D02*
X92874635Y21786359D01*
X92874635Y21786359D02*
X92827016Y21881597D01*
X92827016Y21881597D02*
X92731778Y21976835D01*
X92731778Y21976835D02*
X92588921Y22024454D01*
X92588921Y22024454D02*
X92493683Y22024454D01*
X92493683Y22024454D02*
X92350826Y21976835D01*
X92350826Y21976835D02*
X92303207Y21929216D01*
X91969873Y22024454D02*
X91303207Y22024454D01*
X91303207Y22024454D02*
X91731778Y21024454D01*
X27502533Y11967581D02*
X27502533Y11253296D01*
X27502533Y11253296D02*
X27550152Y11110439D01*
X27550152Y11110439D02*
X27645390Y11015200D01*
X27645390Y11015200D02*
X27788247Y10967581D01*
X27788247Y10967581D02*
X27883485Y10967581D01*
X27073961Y11872343D02*
X27026342Y11919962D01*
X27026342Y11919962D02*
X26931104Y11967581D01*
X26931104Y11967581D02*
X26693009Y11967581D01*
X26693009Y11967581D02*
X26597771Y11919962D01*
X26597771Y11919962D02*
X26550152Y11872343D01*
X26550152Y11872343D02*
X26502533Y11777105D01*
X26502533Y11777105D02*
X26502533Y11681867D01*
X26502533Y11681867D02*
X26550152Y11539010D01*
X26550152Y11539010D02*
X27121580Y10967581D01*
X27121580Y10967581D02*
X26502533Y10967581D01*
D11*
X9214523Y34181996D02*
X9214523Y35481996D01*
X9214523Y35481996D02*
X8904999Y35481996D01*
X8904999Y35481996D02*
X8719285Y35420091D01*
X8719285Y35420091D02*
X8595475Y35296281D01*
X8595475Y35296281D02*
X8533570Y35172472D01*
X8533570Y35172472D02*
X8471666Y34924853D01*
X8471666Y34924853D02*
X8471666Y34739139D01*
X8471666Y34739139D02*
X8533570Y34491520D01*
X8533570Y34491520D02*
X8595475Y34367710D01*
X8595475Y34367710D02*
X8719285Y34243900D01*
X8719285Y34243900D02*
X8904999Y34181996D01*
X8904999Y34181996D02*
X9214523Y34181996D01*
X8038332Y35481996D02*
X7233570Y35481996D01*
X7233570Y35481996D02*
X7666904Y34986758D01*
X7666904Y34986758D02*
X7481189Y34986758D01*
X7481189Y34986758D02*
X7357380Y34924853D01*
X7357380Y34924853D02*
X7295475Y34862948D01*
X7295475Y34862948D02*
X7233570Y34739139D01*
X7233570Y34739139D02*
X7233570Y34429615D01*
X7233570Y34429615D02*
X7295475Y34305805D01*
X7295475Y34305805D02*
X7357380Y34243900D01*
X7357380Y34243900D02*
X7481189Y34181996D01*
X7481189Y34181996D02*
X7852618Y34181996D01*
X7852618Y34181996D02*
X7976427Y34243900D01*
X7976427Y34243900D02*
X8038332Y34305805D01*
D10*
X20080266Y35968781D02*
X20413599Y36444972D01*
X20651694Y35968781D02*
X20651694Y36968781D01*
X20651694Y36968781D02*
X20270742Y36968781D01*
X20270742Y36968781D02*
X20175504Y36921162D01*
X20175504Y36921162D02*
X20127885Y36873543D01*
X20127885Y36873543D02*
X20080266Y36778305D01*
X20080266Y36778305D02*
X20080266Y36635448D01*
X20080266Y36635448D02*
X20127885Y36540210D01*
X20127885Y36540210D02*
X20175504Y36492591D01*
X20175504Y36492591D02*
X20270742Y36444972D01*
X20270742Y36444972D02*
X20651694Y36444972D01*
X19746932Y36968781D02*
X19080266Y36968781D01*
X19080266Y36968781D02*
X19508837Y35968781D01*
X5449866Y39042181D02*
X5783199Y39518372D01*
X6021294Y39042181D02*
X6021294Y40042181D01*
X6021294Y40042181D02*
X5640342Y40042181D01*
X5640342Y40042181D02*
X5545104Y39994562D01*
X5545104Y39994562D02*
X5497485Y39946943D01*
X5497485Y39946943D02*
X5449866Y39851705D01*
X5449866Y39851705D02*
X5449866Y39708848D01*
X5449866Y39708848D02*
X5497485Y39613610D01*
X5497485Y39613610D02*
X5545104Y39565991D01*
X5545104Y39565991D02*
X5640342Y39518372D01*
X5640342Y39518372D02*
X6021294Y39518372D01*
X4592723Y40042181D02*
X4783199Y40042181D01*
X4783199Y40042181D02*
X4878437Y39994562D01*
X4878437Y39994562D02*
X4926056Y39946943D01*
X4926056Y39946943D02*
X5021294Y39804086D01*
X5021294Y39804086D02*
X5068913Y39613610D01*
X5068913Y39613610D02*
X5068913Y39232658D01*
X5068913Y39232658D02*
X5021294Y39137420D01*
X5021294Y39137420D02*
X4973675Y39089800D01*
X4973675Y39089800D02*
X4878437Y39042181D01*
X4878437Y39042181D02*
X4687961Y39042181D01*
X4687961Y39042181D02*
X4592723Y39089800D01*
X4592723Y39089800D02*
X4545104Y39137420D01*
X4545104Y39137420D02*
X4497485Y39232658D01*
X4497485Y39232658D02*
X4497485Y39470753D01*
X4497485Y39470753D02*
X4545104Y39565991D01*
X4545104Y39565991D02*
X4592723Y39613610D01*
X4592723Y39613610D02*
X4687961Y39661229D01*
X4687961Y39661229D02*
X4878437Y39661229D01*
X4878437Y39661229D02*
X4973675Y39613610D01*
X4973675Y39613610D02*
X5021294Y39565991D01*
X5021294Y39565991D02*
X5068913Y39470753D01*
X15245963Y16140226D02*
X15818382Y16241241D01*
X15650024Y15736165D02*
X16357130Y16443272D01*
X16357130Y16443272D02*
X16087756Y16712646D01*
X16087756Y16712646D02*
X15986741Y16746318D01*
X15986741Y16746318D02*
X15919398Y16746318D01*
X15919398Y16746318D02*
X15818382Y16712646D01*
X15818382Y16712646D02*
X15717367Y16611631D01*
X15717367Y16611631D02*
X15683695Y16510615D01*
X15683695Y16510615D02*
X15683695Y16443272D01*
X15683695Y16443272D02*
X15717367Y16342257D01*
X15717367Y16342257D02*
X15986741Y16072883D01*
X15616352Y17049363D02*
X15616352Y17116707D01*
X15616352Y17116707D02*
X15582680Y17217722D01*
X15582680Y17217722D02*
X15414321Y17386081D01*
X15414321Y17386081D02*
X15313306Y17419753D01*
X15313306Y17419753D02*
X15245963Y17419753D01*
X15245963Y17419753D02*
X15144947Y17386081D01*
X15144947Y17386081D02*
X15077604Y17318737D01*
X15077604Y17318737D02*
X15010260Y17184050D01*
X15010260Y17184050D02*
X15010260Y16375928D01*
X15010260Y16375928D02*
X14572528Y16813661D01*
X13899092Y17487096D02*
X14303153Y17083035D01*
X14101123Y17285066D02*
X14808230Y17992173D01*
X14808230Y17992173D02*
X14774558Y17823814D01*
X14774558Y17823814D02*
X14774558Y17689127D01*
X14774558Y17689127D02*
X14808230Y17588112D01*
X48313933Y13309781D02*
X48313933Y12595496D01*
X48313933Y12595496D02*
X48361552Y12452639D01*
X48361552Y12452639D02*
X48456790Y12357400D01*
X48456790Y12357400D02*
X48599647Y12309781D01*
X48599647Y12309781D02*
X48694885Y12309781D01*
X47409171Y13309781D02*
X47599647Y13309781D01*
X47599647Y13309781D02*
X47694885Y13262162D01*
X47694885Y13262162D02*
X47742504Y13214543D01*
X47742504Y13214543D02*
X47837742Y13071686D01*
X47837742Y13071686D02*
X47885361Y12881210D01*
X47885361Y12881210D02*
X47885361Y12500258D01*
X47885361Y12500258D02*
X47837742Y12405020D01*
X47837742Y12405020D02*
X47790123Y12357400D01*
X47790123Y12357400D02*
X47694885Y12309781D01*
X47694885Y12309781D02*
X47504409Y12309781D01*
X47504409Y12309781D02*
X47409171Y12357400D01*
X47409171Y12357400D02*
X47361552Y12405020D01*
X47361552Y12405020D02*
X47313933Y12500258D01*
X47313933Y12500258D02*
X47313933Y12738353D01*
X47313933Y12738353D02*
X47361552Y12833591D01*
X47361552Y12833591D02*
X47409171Y12881210D01*
X47409171Y12881210D02*
X47504409Y12928829D01*
X47504409Y12928829D02*
X47694885Y12928829D01*
X47694885Y12928829D02*
X47790123Y12881210D01*
X47790123Y12881210D02*
X47837742Y12833591D01*
X47837742Y12833591D02*
X47885361Y12738353D01*
X35182133Y13157381D02*
X35182133Y12443096D01*
X35182133Y12443096D02*
X35229752Y12300239D01*
X35229752Y12300239D02*
X35324990Y12205000D01*
X35324990Y12205000D02*
X35467847Y12157381D01*
X35467847Y12157381D02*
X35563085Y12157381D01*
X34277371Y12824048D02*
X34277371Y12157381D01*
X34515466Y13205000D02*
X34753561Y12490715D01*
X34753561Y12490715D02*
X34134514Y12490715D01*
X67993419Y15343095D02*
X66993419Y15343095D01*
X66993419Y15343095D02*
X66993419Y15105000D01*
X66993419Y15105000D02*
X67041038Y14962143D01*
X67041038Y14962143D02*
X67136276Y14866905D01*
X67136276Y14866905D02*
X67231514Y14819286D01*
X67231514Y14819286D02*
X67421990Y14771667D01*
X67421990Y14771667D02*
X67564847Y14771667D01*
X67564847Y14771667D02*
X67755323Y14819286D01*
X67755323Y14819286D02*
X67850561Y14866905D01*
X67850561Y14866905D02*
X67945800Y14962143D01*
X67945800Y14962143D02*
X67993419Y15105000D01*
X67993419Y15105000D02*
X67993419Y15343095D01*
X67993419Y13819286D02*
X67993419Y14390714D01*
X67993419Y14105000D02*
X66993419Y14105000D01*
X66993419Y14105000D02*
X67136276Y14200238D01*
X67136276Y14200238D02*
X67231514Y14295476D01*
X67231514Y14295476D02*
X67279133Y14390714D01*
D12*
X48691667Y44344400D02*
X48577381Y44306305D01*
X48577381Y44306305D02*
X48386905Y44306305D01*
X48386905Y44306305D02*
X48310714Y44344400D01*
X48310714Y44344400D02*
X48272619Y44382496D01*
X48272619Y44382496D02*
X48234524Y44458686D01*
X48234524Y44458686D02*
X48234524Y44534877D01*
X48234524Y44534877D02*
X48272619Y44611067D01*
X48272619Y44611067D02*
X48310714Y44649162D01*
X48310714Y44649162D02*
X48386905Y44687258D01*
X48386905Y44687258D02*
X48539286Y44725353D01*
X48539286Y44725353D02*
X48615476Y44763448D01*
X48615476Y44763448D02*
X48653571Y44801543D01*
X48653571Y44801543D02*
X48691667Y44877734D01*
X48691667Y44877734D02*
X48691667Y44953924D01*
X48691667Y44953924D02*
X48653571Y45030115D01*
X48653571Y45030115D02*
X48615476Y45068210D01*
X48615476Y45068210D02*
X48539286Y45106305D01*
X48539286Y45106305D02*
X48348809Y45106305D01*
X48348809Y45106305D02*
X48234524Y45068210D01*
X47967857Y45106305D02*
X47777381Y44306305D01*
X47777381Y44306305D02*
X47625000Y44877734D01*
X47625000Y44877734D02*
X47472619Y44306305D01*
X47472619Y44306305D02*
X47282143Y45106305D01*
X47015476Y45030115D02*
X46977380Y45068210D01*
X46977380Y45068210D02*
X46901190Y45106305D01*
X46901190Y45106305D02*
X46710714Y45106305D01*
X46710714Y45106305D02*
X46634523Y45068210D01*
X46634523Y45068210D02*
X46596428Y45030115D01*
X46596428Y45030115D02*
X46558333Y44953924D01*
X46558333Y44953924D02*
X46558333Y44877734D01*
X46558333Y44877734D02*
X46596428Y44763448D01*
X46596428Y44763448D02*
X47053571Y44306305D01*
X47053571Y44306305D02*
X46558333Y44306305D01*
D11*
X9163723Y38648596D02*
X9163723Y39948596D01*
X9163723Y39948596D02*
X8854199Y39948596D01*
X8854199Y39948596D02*
X8668485Y39886691D01*
X8668485Y39886691D02*
X8544675Y39762881D01*
X8544675Y39762881D02*
X8482770Y39639072D01*
X8482770Y39639072D02*
X8420866Y39391453D01*
X8420866Y39391453D02*
X8420866Y39205739D01*
X8420866Y39205739D02*
X8482770Y38958120D01*
X8482770Y38958120D02*
X8544675Y38834310D01*
X8544675Y38834310D02*
X8668485Y38710500D01*
X8668485Y38710500D02*
X8854199Y38648596D01*
X8854199Y38648596D02*
X9163723Y38648596D01*
X7306580Y39515262D02*
X7306580Y38648596D01*
X7616104Y40010500D02*
X7925627Y39081929D01*
X7925627Y39081929D02*
X7120866Y39081929D01*
D10*
X49992419Y14384258D02*
X49516228Y14717591D01*
X49992419Y14955686D02*
X48992419Y14955686D01*
X48992419Y14955686D02*
X48992419Y14574734D01*
X48992419Y14574734D02*
X49040038Y14479496D01*
X49040038Y14479496D02*
X49087657Y14431877D01*
X49087657Y14431877D02*
X49182895Y14384258D01*
X49182895Y14384258D02*
X49325752Y14384258D01*
X49325752Y14384258D02*
X49420990Y14431877D01*
X49420990Y14431877D02*
X49468609Y14479496D01*
X49468609Y14479496D02*
X49516228Y14574734D01*
X49516228Y14574734D02*
X49516228Y14955686D01*
X49087657Y14003305D02*
X49040038Y13955686D01*
X49040038Y13955686D02*
X48992419Y13860448D01*
X48992419Y13860448D02*
X48992419Y13622353D01*
X48992419Y13622353D02*
X49040038Y13527115D01*
X49040038Y13527115D02*
X49087657Y13479496D01*
X49087657Y13479496D02*
X49182895Y13431877D01*
X49182895Y13431877D02*
X49278133Y13431877D01*
X49278133Y13431877D02*
X49420990Y13479496D01*
X49420990Y13479496D02*
X49992419Y14050924D01*
X49992419Y14050924D02*
X49992419Y13431877D01*
X49420990Y12860448D02*
X49373371Y12955686D01*
X49373371Y12955686D02*
X49325752Y13003305D01*
X49325752Y13003305D02*
X49230514Y13050924D01*
X49230514Y13050924D02*
X49182895Y13050924D01*
X49182895Y13050924D02*
X49087657Y13003305D01*
X49087657Y13003305D02*
X49040038Y12955686D01*
X49040038Y12955686D02*
X48992419Y12860448D01*
X48992419Y12860448D02*
X48992419Y12669972D01*
X48992419Y12669972D02*
X49040038Y12574734D01*
X49040038Y12574734D02*
X49087657Y12527115D01*
X49087657Y12527115D02*
X49182895Y12479496D01*
X49182895Y12479496D02*
X49230514Y12479496D01*
X49230514Y12479496D02*
X49325752Y12527115D01*
X49325752Y12527115D02*
X49373371Y12574734D01*
X49373371Y12574734D02*
X49420990Y12669972D01*
X49420990Y12669972D02*
X49420990Y12860448D01*
X49420990Y12860448D02*
X49468609Y12955686D01*
X49468609Y12955686D02*
X49516228Y13003305D01*
X49516228Y13003305D02*
X49611466Y13050924D01*
X49611466Y13050924D02*
X49801942Y13050924D01*
X49801942Y13050924D02*
X49897180Y13003305D01*
X49897180Y13003305D02*
X49944800Y12955686D01*
X49944800Y12955686D02*
X49992419Y12860448D01*
X49992419Y12860448D02*
X49992419Y12669972D01*
X49992419Y12669972D02*
X49944800Y12574734D01*
X49944800Y12574734D02*
X49897180Y12527115D01*
X49897180Y12527115D02*
X49801942Y12479496D01*
X49801942Y12479496D02*
X49611466Y12479496D01*
X49611466Y12479496D02*
X49516228Y12527115D01*
X49516228Y12527115D02*
X49468609Y12574734D01*
X49468609Y12574734D02*
X49420990Y12669972D01*
D12*
X19811867Y19975200D02*
X19697581Y19937105D01*
X19697581Y19937105D02*
X19507105Y19937105D01*
X19507105Y19937105D02*
X19430914Y19975200D01*
X19430914Y19975200D02*
X19392819Y20013296D01*
X19392819Y20013296D02*
X19354724Y20089486D01*
X19354724Y20089486D02*
X19354724Y20165677D01*
X19354724Y20165677D02*
X19392819Y20241867D01*
X19392819Y20241867D02*
X19430914Y20279962D01*
X19430914Y20279962D02*
X19507105Y20318058D01*
X19507105Y20318058D02*
X19659486Y20356153D01*
X19659486Y20356153D02*
X19735676Y20394248D01*
X19735676Y20394248D02*
X19773771Y20432343D01*
X19773771Y20432343D02*
X19811867Y20508534D01*
X19811867Y20508534D02*
X19811867Y20584724D01*
X19811867Y20584724D02*
X19773771Y20660915D01*
X19773771Y20660915D02*
X19735676Y20699010D01*
X19735676Y20699010D02*
X19659486Y20737105D01*
X19659486Y20737105D02*
X19469009Y20737105D01*
X19469009Y20737105D02*
X19354724Y20699010D01*
X19088057Y20737105D02*
X18897581Y19937105D01*
X18897581Y19937105D02*
X18745200Y20508534D01*
X18745200Y20508534D02*
X18592819Y19937105D01*
X18592819Y19937105D02*
X18402343Y20737105D01*
X17678533Y19937105D02*
X18135676Y19937105D01*
X17907104Y19937105D02*
X17907104Y20737105D01*
X17907104Y20737105D02*
X17983295Y20622820D01*
X17983295Y20622820D02*
X18059485Y20546629D01*
X18059485Y20546629D02*
X18135676Y20508534D01*
D10*
X17354163Y16064026D02*
X17926582Y16165041D01*
X17758224Y15659965D02*
X18465330Y16367072D01*
X18465330Y16367072D02*
X18195956Y16636446D01*
X18195956Y16636446D02*
X18094941Y16670118D01*
X18094941Y16670118D02*
X18027598Y16670118D01*
X18027598Y16670118D02*
X17926582Y16636446D01*
X17926582Y16636446D02*
X17825567Y16535431D01*
X17825567Y16535431D02*
X17791895Y16434415D01*
X17791895Y16434415D02*
X17791895Y16367072D01*
X17791895Y16367072D02*
X17825567Y16266057D01*
X17825567Y16266057D02*
X18094941Y15996683D01*
X17724552Y16973163D02*
X17724552Y17040507D01*
X17724552Y17040507D02*
X17690880Y17141522D01*
X17690880Y17141522D02*
X17522521Y17309881D01*
X17522521Y17309881D02*
X17421506Y17343553D01*
X17421506Y17343553D02*
X17354163Y17343553D01*
X17354163Y17343553D02*
X17253147Y17309881D01*
X17253147Y17309881D02*
X17185804Y17242537D01*
X17185804Y17242537D02*
X17118460Y17107850D01*
X17118460Y17107850D02*
X17118460Y16299728D01*
X17118460Y16299728D02*
X16680728Y16737461D01*
X16950101Y17882301D02*
X16882758Y17949644D01*
X16882758Y17949644D02*
X16781743Y17983316D01*
X16781743Y17983316D02*
X16714399Y17983316D01*
X16714399Y17983316D02*
X16613384Y17949644D01*
X16613384Y17949644D02*
X16445025Y17848629D01*
X16445025Y17848629D02*
X16276666Y17680270D01*
X16276666Y17680270D02*
X16175651Y17511912D01*
X16175651Y17511912D02*
X16141979Y17410896D01*
X16141979Y17410896D02*
X16141979Y17343553D01*
X16141979Y17343553D02*
X16175651Y17242538D01*
X16175651Y17242538D02*
X16242995Y17175194D01*
X16242995Y17175194D02*
X16344010Y17141522D01*
X16344010Y17141522D02*
X16411353Y17141522D01*
X16411353Y17141522D02*
X16512369Y17175194D01*
X16512369Y17175194D02*
X16680727Y17276209D01*
X16680727Y17276209D02*
X16849086Y17444568D01*
X16849086Y17444568D02*
X16950101Y17612927D01*
X16950101Y17612927D02*
X16983773Y17713942D01*
X16983773Y17713942D02*
X16983773Y17781286D01*
X16983773Y17781286D02*
X16950101Y17882301D01*
X62278419Y17692667D02*
X61802228Y18026000D01*
X62278419Y18264095D02*
X61278419Y18264095D01*
X61278419Y18264095D02*
X61278419Y17883143D01*
X61278419Y17883143D02*
X61326038Y17787905D01*
X61326038Y17787905D02*
X61373657Y17740286D01*
X61373657Y17740286D02*
X61468895Y17692667D01*
X61468895Y17692667D02*
X61611752Y17692667D01*
X61611752Y17692667D02*
X61706990Y17740286D01*
X61706990Y17740286D02*
X61754609Y17787905D01*
X61754609Y17787905D02*
X61802228Y17883143D01*
X61802228Y17883143D02*
X61802228Y18264095D01*
X61611752Y16835524D02*
X62278419Y16835524D01*
X61230800Y17073619D02*
X61945085Y17311714D01*
X61945085Y17311714D02*
X61945085Y16692667D01*
X22764363Y16191026D02*
X23336782Y16292041D01*
X23168424Y15786965D02*
X23875530Y16494072D01*
X23875530Y16494072D02*
X23606156Y16763446D01*
X23606156Y16763446D02*
X23505141Y16797118D01*
X23505141Y16797118D02*
X23437798Y16797118D01*
X23437798Y16797118D02*
X23336782Y16763446D01*
X23336782Y16763446D02*
X23235767Y16662431D01*
X23235767Y16662431D02*
X23202095Y16561415D01*
X23202095Y16561415D02*
X23202095Y16494072D01*
X23202095Y16494072D02*
X23235767Y16393057D01*
X23235767Y16393057D02*
X23505141Y16123683D01*
X22090928Y16864461D02*
X22494989Y16460400D01*
X22292958Y16662431D02*
X23000065Y17369537D01*
X23000065Y17369537D02*
X22966393Y17201179D01*
X22966393Y17201179D02*
X22966393Y17066492D01*
X22966393Y17066492D02*
X23000065Y16965476D01*
X22090927Y17672583D02*
X22191943Y17638912D01*
X22191943Y17638912D02*
X22259286Y17638912D01*
X22259286Y17638912D02*
X22360301Y17672583D01*
X22360301Y17672583D02*
X22393973Y17706255D01*
X22393973Y17706255D02*
X22427645Y17807270D01*
X22427645Y17807270D02*
X22427645Y17874614D01*
X22427645Y17874614D02*
X22393973Y17975629D01*
X22393973Y17975629D02*
X22259286Y18110316D01*
X22259286Y18110316D02*
X22158271Y18143988D01*
X22158271Y18143988D02*
X22090927Y18143988D01*
X22090927Y18143988D02*
X21989912Y18110316D01*
X21989912Y18110316D02*
X21956240Y18076644D01*
X21956240Y18076644D02*
X21922569Y17975629D01*
X21922569Y17975629D02*
X21922569Y17908286D01*
X21922569Y17908286D02*
X21956240Y17807270D01*
X21956240Y17807270D02*
X22090927Y17672583D01*
X22090927Y17672583D02*
X22124599Y17571568D01*
X22124599Y17571568D02*
X22124599Y17504225D01*
X22124599Y17504225D02*
X22090927Y17403209D01*
X22090927Y17403209D02*
X21956240Y17268522D01*
X21956240Y17268522D02*
X21855225Y17234851D01*
X21855225Y17234851D02*
X21787882Y17234851D01*
X21787882Y17234851D02*
X21686866Y17268522D01*
X21686866Y17268522D02*
X21552179Y17403209D01*
X21552179Y17403209D02*
X21518508Y17504225D01*
X21518508Y17504225D02*
X21518508Y17571568D01*
X21518508Y17571568D02*
X21552179Y17672583D01*
X21552179Y17672583D02*
X21686866Y17807270D01*
X21686866Y17807270D02*
X21787882Y17840942D01*
X21787882Y17840942D02*
X21855225Y17840942D01*
X21855225Y17840942D02*
X21956240Y17807270D01*
X6307057Y34673381D02*
X6640390Y35149572D01*
X6878485Y34673381D02*
X6878485Y35673381D01*
X6878485Y35673381D02*
X6497533Y35673381D01*
X6497533Y35673381D02*
X6402295Y35625762D01*
X6402295Y35625762D02*
X6354676Y35578143D01*
X6354676Y35578143D02*
X6307057Y35482905D01*
X6307057Y35482905D02*
X6307057Y35340048D01*
X6307057Y35340048D02*
X6354676Y35244810D01*
X6354676Y35244810D02*
X6402295Y35197191D01*
X6402295Y35197191D02*
X6497533Y35149572D01*
X6497533Y35149572D02*
X6878485Y35149572D01*
X5354676Y34673381D02*
X5926104Y34673381D01*
X5640390Y34673381D02*
X5640390Y35673381D01*
X5640390Y35673381D02*
X5735628Y35530524D01*
X5735628Y35530524D02*
X5830866Y35435286D01*
X5830866Y35435286D02*
X5926104Y35387667D01*
X4449914Y35673381D02*
X4926104Y35673381D01*
X4926104Y35673381D02*
X4973723Y35197191D01*
X4973723Y35197191D02*
X4926104Y35244810D01*
X4926104Y35244810D02*
X4830866Y35292429D01*
X4830866Y35292429D02*
X4592771Y35292429D01*
X4592771Y35292429D02*
X4497533Y35244810D01*
X4497533Y35244810D02*
X4449914Y35197191D01*
X4449914Y35197191D02*
X4402295Y35101953D01*
X4402295Y35101953D02*
X4402295Y34863858D01*
X4402295Y34863858D02*
X4449914Y34768620D01*
X4449914Y34768620D02*
X4497533Y34721000D01*
X4497533Y34721000D02*
X4592771Y34673381D01*
X4592771Y34673381D02*
X4830866Y34673381D01*
X4830866Y34673381D02*
X4926104Y34721000D01*
X4926104Y34721000D02*
X4973723Y34768620D01*
X28893419Y42486105D02*
X28893419Y41914677D01*
X29893419Y42200391D02*
X28893419Y42200391D01*
X29893419Y41581343D02*
X28893419Y41581343D01*
X28893419Y41581343D02*
X28893419Y41200391D01*
X28893419Y41200391D02*
X28941038Y41105153D01*
X28941038Y41105153D02*
X28988657Y41057534D01*
X28988657Y41057534D02*
X29083895Y41009915D01*
X29083895Y41009915D02*
X29226752Y41009915D01*
X29226752Y41009915D02*
X29321990Y41057534D01*
X29321990Y41057534D02*
X29369609Y41105153D01*
X29369609Y41105153D02*
X29417228Y41200391D01*
X29417228Y41200391D02*
X29417228Y41581343D01*
X28988657Y40628962D02*
X28941038Y40581343D01*
X28941038Y40581343D02*
X28893419Y40486105D01*
X28893419Y40486105D02*
X28893419Y40248010D01*
X28893419Y40248010D02*
X28941038Y40152772D01*
X28941038Y40152772D02*
X28988657Y40105153D01*
X28988657Y40105153D02*
X29083895Y40057534D01*
X29083895Y40057534D02*
X29179133Y40057534D01*
X29179133Y40057534D02*
X29321990Y40105153D01*
X29321990Y40105153D02*
X29893419Y40676581D01*
X29893419Y40676581D02*
X29893419Y40057534D01*
X19817963Y16191026D02*
X20390382Y16292041D01*
X20222024Y15786965D02*
X20929130Y16494072D01*
X20929130Y16494072D02*
X20659756Y16763446D01*
X20659756Y16763446D02*
X20558741Y16797118D01*
X20558741Y16797118D02*
X20491398Y16797118D01*
X20491398Y16797118D02*
X20390382Y16763446D01*
X20390382Y16763446D02*
X20289367Y16662431D01*
X20289367Y16662431D02*
X20255695Y16561415D01*
X20255695Y16561415D02*
X20255695Y16494072D01*
X20255695Y16494072D02*
X20289367Y16393057D01*
X20289367Y16393057D02*
X20558741Y16123683D01*
X19144528Y16864461D02*
X19548589Y16460400D01*
X19346558Y16662431D02*
X20053665Y17369537D01*
X20053665Y17369537D02*
X20019993Y17201179D01*
X20019993Y17201179D02*
X20019993Y17066492D01*
X20019993Y17066492D02*
X20053665Y16965476D01*
X18807810Y17201179D02*
X18673123Y17335866D01*
X18673123Y17335866D02*
X18639451Y17436881D01*
X18639451Y17436881D02*
X18639451Y17504225D01*
X18639451Y17504225D02*
X18673123Y17672583D01*
X18673123Y17672583D02*
X18774138Y17840942D01*
X18774138Y17840942D02*
X19043512Y18110316D01*
X19043512Y18110316D02*
X19144527Y18143988D01*
X19144527Y18143988D02*
X19211871Y18143988D01*
X19211871Y18143988D02*
X19312886Y18110316D01*
X19312886Y18110316D02*
X19447573Y17975629D01*
X19447573Y17975629D02*
X19481245Y17874614D01*
X19481245Y17874614D02*
X19481245Y17807270D01*
X19481245Y17807270D02*
X19447573Y17706255D01*
X19447573Y17706255D02*
X19279214Y17537896D01*
X19279214Y17537896D02*
X19178199Y17504225D01*
X19178199Y17504225D02*
X19110856Y17504225D01*
X19110856Y17504225D02*
X19009840Y17537896D01*
X19009840Y17537896D02*
X18875153Y17672583D01*
X18875153Y17672583D02*
X18841482Y17773599D01*
X18841482Y17773599D02*
X18841482Y17840942D01*
X18841482Y17840942D02*
X18875153Y17941957D01*
X27445619Y39946105D02*
X27445619Y39374677D01*
X28445619Y39660391D02*
X27445619Y39660391D01*
X28445619Y39041343D02*
X27445619Y39041343D01*
X27445619Y39041343D02*
X27445619Y38660391D01*
X27445619Y38660391D02*
X27493238Y38565153D01*
X27493238Y38565153D02*
X27540857Y38517534D01*
X27540857Y38517534D02*
X27636095Y38469915D01*
X27636095Y38469915D02*
X27778952Y38469915D01*
X27778952Y38469915D02*
X27874190Y38517534D01*
X27874190Y38517534D02*
X27921809Y38565153D01*
X27921809Y38565153D02*
X27969428Y38660391D01*
X27969428Y38660391D02*
X27969428Y39041343D01*
X28445619Y37517534D02*
X28445619Y38088962D01*
X28445619Y37803248D02*
X27445619Y37803248D01*
X27445619Y37803248D02*
X27588476Y37898486D01*
X27588476Y37898486D02*
X27683714Y37993724D01*
X27683714Y37993724D02*
X27731333Y38088962D01*
X88349398Y29754454D02*
X88682731Y30230645D01*
X88920826Y29754454D02*
X88920826Y30754454D01*
X88920826Y30754454D02*
X88539874Y30754454D01*
X88539874Y30754454D02*
X88444636Y30706835D01*
X88444636Y30706835D02*
X88397017Y30659216D01*
X88397017Y30659216D02*
X88349398Y30563978D01*
X88349398Y30563978D02*
X88349398Y30421121D01*
X88349398Y30421121D02*
X88397017Y30325883D01*
X88397017Y30325883D02*
X88444636Y30278264D01*
X88444636Y30278264D02*
X88539874Y30230645D01*
X88539874Y30230645D02*
X88920826Y30230645D01*
X87968445Y30659216D02*
X87920826Y30706835D01*
X87920826Y30706835D02*
X87825588Y30754454D01*
X87825588Y30754454D02*
X87587493Y30754454D01*
X87587493Y30754454D02*
X87492255Y30706835D01*
X87492255Y30706835D02*
X87444636Y30659216D01*
X87444636Y30659216D02*
X87397017Y30563978D01*
X87397017Y30563978D02*
X87397017Y30468740D01*
X87397017Y30468740D02*
X87444636Y30325883D01*
X87444636Y30325883D02*
X88016064Y29754454D01*
X88016064Y29754454D02*
X87397017Y29754454D01*
X87063683Y30754454D02*
X86444636Y30754454D01*
X86444636Y30754454D02*
X86777969Y30373502D01*
X86777969Y30373502D02*
X86635112Y30373502D01*
X86635112Y30373502D02*
X86539874Y30325883D01*
X86539874Y30325883D02*
X86492255Y30278264D01*
X86492255Y30278264D02*
X86444636Y30183026D01*
X86444636Y30183026D02*
X86444636Y29944931D01*
X86444636Y29944931D02*
X86492255Y29849693D01*
X86492255Y29849693D02*
X86539874Y29802073D01*
X86539874Y29802073D02*
X86635112Y29754454D01*
X86635112Y29754454D02*
X86920826Y29754454D01*
X86920826Y29754454D02*
X87016064Y29802073D01*
X87016064Y29802073D02*
X87063683Y29849693D01*
X34590990Y22237172D02*
X34590990Y21760981D01*
X34924323Y22760981D02*
X34590990Y22237172D01*
X34590990Y22237172D02*
X34257657Y22760981D01*
X33400514Y21760981D02*
X33971942Y21760981D01*
X33686228Y21760981D02*
X33686228Y22760981D01*
X33686228Y22760981D02*
X33781466Y22618124D01*
X33781466Y22618124D02*
X33876704Y22522886D01*
X33876704Y22522886D02*
X33971942Y22475267D01*
X58840019Y17978334D02*
X59554304Y17978334D01*
X59554304Y17978334D02*
X59697161Y18025953D01*
X59697161Y18025953D02*
X59792400Y18121191D01*
X59792400Y18121191D02*
X59840019Y18264048D01*
X59840019Y18264048D02*
X59840019Y18359286D01*
X59840019Y17502143D02*
X58840019Y17502143D01*
X58840019Y17502143D02*
X58840019Y17121191D01*
X58840019Y17121191D02*
X58887638Y17025953D01*
X58887638Y17025953D02*
X58935257Y16978334D01*
X58935257Y16978334D02*
X59030495Y16930715D01*
X59030495Y16930715D02*
X59173352Y16930715D01*
X59173352Y16930715D02*
X59268590Y16978334D01*
X59268590Y16978334D02*
X59316209Y17025953D01*
X59316209Y17025953D02*
X59363828Y17121191D01*
X59363828Y17121191D02*
X59363828Y17502143D01*
X59840019Y15978334D02*
X59840019Y16549762D01*
X59840019Y16264048D02*
X58840019Y16264048D01*
X58840019Y16264048D02*
X58982876Y16359286D01*
X58982876Y16359286D02*
X59078114Y16454524D01*
X59078114Y16454524D02*
X59125733Y16549762D01*
X92779398Y30149693D02*
X92827017Y30102073D01*
X92827017Y30102073D02*
X92969874Y30054454D01*
X92969874Y30054454D02*
X93065112Y30054454D01*
X93065112Y30054454D02*
X93207969Y30102073D01*
X93207969Y30102073D02*
X93303207Y30197312D01*
X93303207Y30197312D02*
X93350826Y30292550D01*
X93350826Y30292550D02*
X93398445Y30483026D01*
X93398445Y30483026D02*
X93398445Y30625883D01*
X93398445Y30625883D02*
X93350826Y30816359D01*
X93350826Y30816359D02*
X93303207Y30911597D01*
X93303207Y30911597D02*
X93207969Y31006835D01*
X93207969Y31006835D02*
X93065112Y31054454D01*
X93065112Y31054454D02*
X92969874Y31054454D01*
X92969874Y31054454D02*
X92827017Y31006835D01*
X92827017Y31006835D02*
X92779398Y30959216D01*
X91827017Y30054454D02*
X92398445Y30054454D01*
X92112731Y30054454D02*
X92112731Y31054454D01*
X92112731Y31054454D02*
X92207969Y30911597D01*
X92207969Y30911597D02*
X92303207Y30816359D01*
X92303207Y30816359D02*
X92398445Y30768740D01*
X90922255Y31054454D02*
X91398445Y31054454D01*
X91398445Y31054454D02*
X91446064Y30578264D01*
X91446064Y30578264D02*
X91398445Y30625883D01*
X91398445Y30625883D02*
X91303207Y30673502D01*
X91303207Y30673502D02*
X91065112Y30673502D01*
X91065112Y30673502D02*
X90969874Y30625883D01*
X90969874Y30625883D02*
X90922255Y30578264D01*
X90922255Y30578264D02*
X90874636Y30483026D01*
X90874636Y30483026D02*
X90874636Y30244931D01*
X90874636Y30244931D02*
X90922255Y30149693D01*
X90922255Y30149693D02*
X90969874Y30102073D01*
X90969874Y30102073D02*
X91065112Y30054454D01*
X91065112Y30054454D02*
X91303207Y30054454D01*
X91303207Y30054454D02*
X91398445Y30102073D01*
X91398445Y30102073D02*
X91446064Y30149693D01*
X70304466Y18227420D02*
X70352085Y18179800D01*
X70352085Y18179800D02*
X70494942Y18132181D01*
X70494942Y18132181D02*
X70590180Y18132181D01*
X70590180Y18132181D02*
X70733037Y18179800D01*
X70733037Y18179800D02*
X70828275Y18275039D01*
X70828275Y18275039D02*
X70875894Y18370277D01*
X70875894Y18370277D02*
X70923513Y18560753D01*
X70923513Y18560753D02*
X70923513Y18703610D01*
X70923513Y18703610D02*
X70875894Y18894086D01*
X70875894Y18894086D02*
X70828275Y18989324D01*
X70828275Y18989324D02*
X70733037Y19084562D01*
X70733037Y19084562D02*
X70590180Y19132181D01*
X70590180Y19132181D02*
X70494942Y19132181D01*
X70494942Y19132181D02*
X70352085Y19084562D01*
X70352085Y19084562D02*
X70304466Y19036943D01*
X69352085Y18132181D02*
X69923513Y18132181D01*
X69637799Y18132181D02*
X69637799Y19132181D01*
X69637799Y19132181D02*
X69733037Y18989324D01*
X69733037Y18989324D02*
X69828275Y18894086D01*
X69828275Y18894086D02*
X69923513Y18846467D01*
X10659257Y32073839D02*
X10611638Y32169077D01*
X10611638Y32169077D02*
X10516400Y32264315D01*
X10516400Y32264315D02*
X10373542Y32407172D01*
X10373542Y32407172D02*
X10325923Y32502410D01*
X10325923Y32502410D02*
X10325923Y32597648D01*
X10564019Y32550029D02*
X10516400Y32645267D01*
X10516400Y32645267D02*
X10421161Y32740505D01*
X10421161Y32740505D02*
X10230685Y32788124D01*
X10230685Y32788124D02*
X9897352Y32788124D01*
X9897352Y32788124D02*
X9706876Y32740505D01*
X9706876Y32740505D02*
X9611638Y32645267D01*
X9611638Y32645267D02*
X9564019Y32550029D01*
X9564019Y32550029D02*
X9564019Y32359553D01*
X9564019Y32359553D02*
X9611638Y32264315D01*
X9611638Y32264315D02*
X9706876Y32169077D01*
X9706876Y32169077D02*
X9897352Y32121458D01*
X9897352Y32121458D02*
X10230685Y32121458D01*
X10230685Y32121458D02*
X10421161Y32169077D01*
X10421161Y32169077D02*
X10516400Y32264315D01*
X10516400Y32264315D02*
X10564019Y32359553D01*
X10564019Y32359553D02*
X10564019Y32550029D01*
X9564019Y31788124D02*
X9564019Y31169077D01*
X9564019Y31169077D02*
X9944971Y31502410D01*
X9944971Y31502410D02*
X9944971Y31359553D01*
X9944971Y31359553D02*
X9992590Y31264315D01*
X9992590Y31264315D02*
X10040209Y31216696D01*
X10040209Y31216696D02*
X10135447Y31169077D01*
X10135447Y31169077D02*
X10373542Y31169077D01*
X10373542Y31169077D02*
X10468780Y31216696D01*
X10468780Y31216696D02*
X10516400Y31264315D01*
X10516400Y31264315D02*
X10564019Y31359553D01*
X10564019Y31359553D02*
X10564019Y31645267D01*
X10564019Y31645267D02*
X10516400Y31740505D01*
X10516400Y31740505D02*
X10468780Y31788124D01*
D13*
X45653342Y22783691D02*
X45939056Y22783691D01*
X45796199Y22783691D02*
X45796199Y23283691D01*
X45796199Y23283691D02*
X45843818Y23212262D01*
X45843818Y23212262D02*
X45891437Y23164643D01*
X45891437Y23164643D02*
X45939056Y23140834D01*
D11*
X62656804Y51962724D02*
X61356804Y51962724D01*
X61356804Y51962724D02*
X61356804Y51653200D01*
X61356804Y51653200D02*
X61418709Y51467486D01*
X61418709Y51467486D02*
X61542519Y51343676D01*
X61542519Y51343676D02*
X61666328Y51281771D01*
X61666328Y51281771D02*
X61913947Y51219867D01*
X61913947Y51219867D02*
X62099661Y51219867D01*
X62099661Y51219867D02*
X62347280Y51281771D01*
X62347280Y51281771D02*
X62471090Y51343676D01*
X62471090Y51343676D02*
X62594900Y51467486D01*
X62594900Y51467486D02*
X62656804Y51653200D01*
X62656804Y51653200D02*
X62656804Y51962724D01*
X61356804Y50043676D02*
X61356804Y50662724D01*
X61356804Y50662724D02*
X61975852Y50724628D01*
X61975852Y50724628D02*
X61913947Y50662724D01*
X61913947Y50662724D02*
X61852042Y50538914D01*
X61852042Y50538914D02*
X61852042Y50229390D01*
X61852042Y50229390D02*
X61913947Y50105581D01*
X61913947Y50105581D02*
X61975852Y50043676D01*
X61975852Y50043676D02*
X62099661Y49981771D01*
X62099661Y49981771D02*
X62409185Y49981771D01*
X62409185Y49981771D02*
X62532995Y50043676D01*
X62532995Y50043676D02*
X62594900Y50105581D01*
X62594900Y50105581D02*
X62656804Y50229390D01*
X62656804Y50229390D02*
X62656804Y50538914D01*
X62656804Y50538914D02*
X62594900Y50662724D01*
X62594900Y50662724D02*
X62532995Y50724628D01*
D10*
X47801125Y37420708D02*
X48134458Y37896899D01*
X48372553Y37420708D02*
X48372553Y38420708D01*
X48372553Y38420708D02*
X47991601Y38420708D01*
X47991601Y38420708D02*
X47896363Y38373089D01*
X47896363Y38373089D02*
X47848744Y38325470D01*
X47848744Y38325470D02*
X47801125Y38230232D01*
X47801125Y38230232D02*
X47801125Y38087375D01*
X47801125Y38087375D02*
X47848744Y37992137D01*
X47848744Y37992137D02*
X47896363Y37944518D01*
X47896363Y37944518D02*
X47991601Y37896899D01*
X47991601Y37896899D02*
X48372553Y37896899D01*
X47467791Y38420708D02*
X46848744Y38420708D01*
X46848744Y38420708D02*
X47182077Y38039756D01*
X47182077Y38039756D02*
X47039220Y38039756D01*
X47039220Y38039756D02*
X46943982Y37992137D01*
X46943982Y37992137D02*
X46896363Y37944518D01*
X46896363Y37944518D02*
X46848744Y37849280D01*
X46848744Y37849280D02*
X46848744Y37611185D01*
X46848744Y37611185D02*
X46896363Y37515947D01*
X46896363Y37515947D02*
X46943982Y37468327D01*
X46943982Y37468327D02*
X47039220Y37420708D01*
X47039220Y37420708D02*
X47324934Y37420708D01*
X47324934Y37420708D02*
X47420172Y37468327D01*
X47420172Y37468327D02*
X47467791Y37515947D01*
X53040419Y14384258D02*
X52564228Y14717591D01*
X53040419Y14955686D02*
X52040419Y14955686D01*
X52040419Y14955686D02*
X52040419Y14574734D01*
X52040419Y14574734D02*
X52088038Y14479496D01*
X52088038Y14479496D02*
X52135657Y14431877D01*
X52135657Y14431877D02*
X52230895Y14384258D01*
X52230895Y14384258D02*
X52373752Y14384258D01*
X52373752Y14384258D02*
X52468990Y14431877D01*
X52468990Y14431877D02*
X52516609Y14479496D01*
X52516609Y14479496D02*
X52564228Y14574734D01*
X52564228Y14574734D02*
X52564228Y14955686D01*
X52135657Y14003305D02*
X52088038Y13955686D01*
X52088038Y13955686D02*
X52040419Y13860448D01*
X52040419Y13860448D02*
X52040419Y13622353D01*
X52040419Y13622353D02*
X52088038Y13527115D01*
X52088038Y13527115D02*
X52135657Y13479496D01*
X52135657Y13479496D02*
X52230895Y13431877D01*
X52230895Y13431877D02*
X52326133Y13431877D01*
X52326133Y13431877D02*
X52468990Y13479496D01*
X52468990Y13479496D02*
X53040419Y14050924D01*
X53040419Y14050924D02*
X53040419Y13431877D01*
X52040419Y12527115D02*
X52040419Y13003305D01*
X52040419Y13003305D02*
X52516609Y13050924D01*
X52516609Y13050924D02*
X52468990Y13003305D01*
X52468990Y13003305D02*
X52421371Y12908067D01*
X52421371Y12908067D02*
X52421371Y12669972D01*
X52421371Y12669972D02*
X52468990Y12574734D01*
X52468990Y12574734D02*
X52516609Y12527115D01*
X52516609Y12527115D02*
X52611847Y12479496D01*
X52611847Y12479496D02*
X52849942Y12479496D01*
X52849942Y12479496D02*
X52945180Y12527115D01*
X52945180Y12527115D02*
X52992800Y12574734D01*
X52992800Y12574734D02*
X53040419Y12669972D01*
X53040419Y12669972D02*
X53040419Y12908067D01*
X53040419Y12908067D02*
X52992800Y13003305D01*
X52992800Y13003305D02*
X52945180Y13050924D01*
X112143207Y33654454D02*
X112619397Y33654454D01*
X112619397Y33654454D02*
X112619397Y34654454D01*
X111905111Y34654454D02*
X111286064Y34654454D01*
X111286064Y34654454D02*
X111619397Y34273502D01*
X111619397Y34273502D02*
X111476540Y34273502D01*
X111476540Y34273502D02*
X111381302Y34225883D01*
X111381302Y34225883D02*
X111333683Y34178264D01*
X111333683Y34178264D02*
X111286064Y34083026D01*
X111286064Y34083026D02*
X111286064Y33844931D01*
X111286064Y33844931D02*
X111333683Y33749693D01*
X111333683Y33749693D02*
X111381302Y33702073D01*
X111381302Y33702073D02*
X111476540Y33654454D01*
X111476540Y33654454D02*
X111762254Y33654454D01*
X111762254Y33654454D02*
X111857492Y33702073D01*
X111857492Y33702073D02*
X111905111Y33749693D01*
X51491019Y14358858D02*
X51014828Y14692191D01*
X51491019Y14930286D02*
X50491019Y14930286D01*
X50491019Y14930286D02*
X50491019Y14549334D01*
X50491019Y14549334D02*
X50538638Y14454096D01*
X50538638Y14454096D02*
X50586257Y14406477D01*
X50586257Y14406477D02*
X50681495Y14358858D01*
X50681495Y14358858D02*
X50824352Y14358858D01*
X50824352Y14358858D02*
X50919590Y14406477D01*
X50919590Y14406477D02*
X50967209Y14454096D01*
X50967209Y14454096D02*
X51014828Y14549334D01*
X51014828Y14549334D02*
X51014828Y14930286D01*
X50586257Y13977905D02*
X50538638Y13930286D01*
X50538638Y13930286D02*
X50491019Y13835048D01*
X50491019Y13835048D02*
X50491019Y13596953D01*
X50491019Y13596953D02*
X50538638Y13501715D01*
X50538638Y13501715D02*
X50586257Y13454096D01*
X50586257Y13454096D02*
X50681495Y13406477D01*
X50681495Y13406477D02*
X50776733Y13406477D01*
X50776733Y13406477D02*
X50919590Y13454096D01*
X50919590Y13454096D02*
X51491019Y14025524D01*
X51491019Y14025524D02*
X51491019Y13406477D01*
X50491019Y13073143D02*
X50491019Y12406477D01*
X50491019Y12406477D02*
X51491019Y12835048D01*
X46792019Y14358858D02*
X46315828Y14692191D01*
X46792019Y14930286D02*
X45792019Y14930286D01*
X45792019Y14930286D02*
X45792019Y14549334D01*
X45792019Y14549334D02*
X45839638Y14454096D01*
X45839638Y14454096D02*
X45887257Y14406477D01*
X45887257Y14406477D02*
X45982495Y14358858D01*
X45982495Y14358858D02*
X46125352Y14358858D01*
X46125352Y14358858D02*
X46220590Y14406477D01*
X46220590Y14406477D02*
X46268209Y14454096D01*
X46268209Y14454096D02*
X46315828Y14549334D01*
X46315828Y14549334D02*
X46315828Y14930286D01*
X45792019Y14025524D02*
X45792019Y13406477D01*
X45792019Y13406477D02*
X46172971Y13739810D01*
X46172971Y13739810D02*
X46172971Y13596953D01*
X46172971Y13596953D02*
X46220590Y13501715D01*
X46220590Y13501715D02*
X46268209Y13454096D01*
X46268209Y13454096D02*
X46363447Y13406477D01*
X46363447Y13406477D02*
X46601542Y13406477D01*
X46601542Y13406477D02*
X46696780Y13454096D01*
X46696780Y13454096D02*
X46744400Y13501715D01*
X46744400Y13501715D02*
X46792019Y13596953D01*
X46792019Y13596953D02*
X46792019Y13882667D01*
X46792019Y13882667D02*
X46744400Y13977905D01*
X46744400Y13977905D02*
X46696780Y14025524D01*
X45792019Y12787429D02*
X45792019Y12692191D01*
X45792019Y12692191D02*
X45839638Y12596953D01*
X45839638Y12596953D02*
X45887257Y12549334D01*
X45887257Y12549334D02*
X45982495Y12501715D01*
X45982495Y12501715D02*
X46172971Y12454096D01*
X46172971Y12454096D02*
X46411066Y12454096D01*
X46411066Y12454096D02*
X46601542Y12501715D01*
X46601542Y12501715D02*
X46696780Y12549334D01*
X46696780Y12549334D02*
X46744400Y12596953D01*
X46744400Y12596953D02*
X46792019Y12692191D01*
X46792019Y12692191D02*
X46792019Y12787429D01*
X46792019Y12787429D02*
X46744400Y12882667D01*
X46744400Y12882667D02*
X46696780Y12930286D01*
X46696780Y12930286D02*
X46601542Y12977905D01*
X46601542Y12977905D02*
X46411066Y13025524D01*
X46411066Y13025524D02*
X46172971Y13025524D01*
X46172971Y13025524D02*
X45982495Y12977905D01*
X45982495Y12977905D02*
X45887257Y12930286D01*
X45887257Y12930286D02*
X45839638Y12882667D01*
X45839638Y12882667D02*
X45792019Y12787429D01*
X39479180Y20004067D02*
X39526800Y20051686D01*
X39526800Y20051686D02*
X39574419Y20194543D01*
X39574419Y20194543D02*
X39574419Y20289781D01*
X39574419Y20289781D02*
X39526800Y20432638D01*
X39526800Y20432638D02*
X39431561Y20527876D01*
X39431561Y20527876D02*
X39336323Y20575495D01*
X39336323Y20575495D02*
X39145847Y20623114D01*
X39145847Y20623114D02*
X39002990Y20623114D01*
X39002990Y20623114D02*
X38812514Y20575495D01*
X38812514Y20575495D02*
X38717276Y20527876D01*
X38717276Y20527876D02*
X38622038Y20432638D01*
X38622038Y20432638D02*
X38574419Y20289781D01*
X38574419Y20289781D02*
X38574419Y20194543D01*
X38574419Y20194543D02*
X38622038Y20051686D01*
X38622038Y20051686D02*
X38669657Y20004067D01*
X38907752Y19146924D02*
X39574419Y19146924D01*
X38526800Y19385019D02*
X39241085Y19623114D01*
X39241085Y19623114D02*
X39241085Y19004067D01*
X105500466Y33080581D02*
X105976656Y33080581D01*
X105976656Y33080581D02*
X105976656Y34080581D01*
X105214751Y33985343D02*
X105167132Y34032962D01*
X105167132Y34032962D02*
X105071894Y34080581D01*
X105071894Y34080581D02*
X104833799Y34080581D01*
X104833799Y34080581D02*
X104738561Y34032962D01*
X104738561Y34032962D02*
X104690942Y33985343D01*
X104690942Y33985343D02*
X104643323Y33890105D01*
X104643323Y33890105D02*
X104643323Y33794867D01*
X104643323Y33794867D02*
X104690942Y33652010D01*
X104690942Y33652010D02*
X105262370Y33080581D01*
X105262370Y33080581D02*
X104643323Y33080581D01*
X18911866Y23371381D02*
X19245199Y23847572D01*
X19483294Y23371381D02*
X19483294Y24371381D01*
X19483294Y24371381D02*
X19102342Y24371381D01*
X19102342Y24371381D02*
X19007104Y24323762D01*
X19007104Y24323762D02*
X18959485Y24276143D01*
X18959485Y24276143D02*
X18911866Y24180905D01*
X18911866Y24180905D02*
X18911866Y24038048D01*
X18911866Y24038048D02*
X18959485Y23942810D01*
X18959485Y23942810D02*
X19007104Y23895191D01*
X19007104Y23895191D02*
X19102342Y23847572D01*
X19102342Y23847572D02*
X19483294Y23847572D01*
X18530913Y24276143D02*
X18483294Y24323762D01*
X18483294Y24323762D02*
X18388056Y24371381D01*
X18388056Y24371381D02*
X18149961Y24371381D01*
X18149961Y24371381D02*
X18054723Y24323762D01*
X18054723Y24323762D02*
X18007104Y24276143D01*
X18007104Y24276143D02*
X17959485Y24180905D01*
X17959485Y24180905D02*
X17959485Y24085667D01*
X17959485Y24085667D02*
X18007104Y23942810D01*
X18007104Y23942810D02*
X18578532Y23371381D01*
X18578532Y23371381D02*
X17959485Y23371381D01*
X6135666Y44249181D02*
X6468999Y44725372D01*
X6707094Y44249181D02*
X6707094Y45249181D01*
X6707094Y45249181D02*
X6326142Y45249181D01*
X6326142Y45249181D02*
X6230904Y45201562D01*
X6230904Y45201562D02*
X6183285Y45153943D01*
X6183285Y45153943D02*
X6135666Y45058705D01*
X6135666Y45058705D02*
X6135666Y44915848D01*
X6135666Y44915848D02*
X6183285Y44820610D01*
X6183285Y44820610D02*
X6230904Y44772991D01*
X6230904Y44772991D02*
X6326142Y44725372D01*
X6326142Y44725372D02*
X6707094Y44725372D01*
X5564237Y44820610D02*
X5659475Y44868229D01*
X5659475Y44868229D02*
X5707094Y44915848D01*
X5707094Y44915848D02*
X5754713Y45011086D01*
X5754713Y45011086D02*
X5754713Y45058705D01*
X5754713Y45058705D02*
X5707094Y45153943D01*
X5707094Y45153943D02*
X5659475Y45201562D01*
X5659475Y45201562D02*
X5564237Y45249181D01*
X5564237Y45249181D02*
X5373761Y45249181D01*
X5373761Y45249181D02*
X5278523Y45201562D01*
X5278523Y45201562D02*
X5230904Y45153943D01*
X5230904Y45153943D02*
X5183285Y45058705D01*
X5183285Y45058705D02*
X5183285Y45011086D01*
X5183285Y45011086D02*
X5230904Y44915848D01*
X5230904Y44915848D02*
X5278523Y44868229D01*
X5278523Y44868229D02*
X5373761Y44820610D01*
X5373761Y44820610D02*
X5564237Y44820610D01*
X5564237Y44820610D02*
X5659475Y44772991D01*
X5659475Y44772991D02*
X5707094Y44725372D01*
X5707094Y44725372D02*
X5754713Y44630134D01*
X5754713Y44630134D02*
X5754713Y44439658D01*
X5754713Y44439658D02*
X5707094Y44344420D01*
X5707094Y44344420D02*
X5659475Y44296800D01*
X5659475Y44296800D02*
X5564237Y44249181D01*
X5564237Y44249181D02*
X5373761Y44249181D01*
X5373761Y44249181D02*
X5278523Y44296800D01*
X5278523Y44296800D02*
X5230904Y44344420D01*
X5230904Y44344420D02*
X5183285Y44439658D01*
X5183285Y44439658D02*
X5183285Y44630134D01*
X5183285Y44630134D02*
X5230904Y44725372D01*
X5230904Y44725372D02*
X5278523Y44772991D01*
X5278523Y44772991D02*
X5373761Y44820610D01*
X69953094Y16232981D02*
X69953094Y17232981D01*
X69953094Y17232981D02*
X69714999Y17232981D01*
X69714999Y17232981D02*
X69572142Y17185362D01*
X69572142Y17185362D02*
X69476904Y17090124D01*
X69476904Y17090124D02*
X69429285Y16994886D01*
X69429285Y16994886D02*
X69381666Y16804410D01*
X69381666Y16804410D02*
X69381666Y16661553D01*
X69381666Y16661553D02*
X69429285Y16471077D01*
X69429285Y16471077D02*
X69476904Y16375839D01*
X69476904Y16375839D02*
X69572142Y16280600D01*
X69572142Y16280600D02*
X69714999Y16232981D01*
X69714999Y16232981D02*
X69953094Y16232981D01*
X69000713Y17137743D02*
X68953094Y17185362D01*
X68953094Y17185362D02*
X68857856Y17232981D01*
X68857856Y17232981D02*
X68619761Y17232981D01*
X68619761Y17232981D02*
X68524523Y17185362D01*
X68524523Y17185362D02*
X68476904Y17137743D01*
X68476904Y17137743D02*
X68429285Y17042505D01*
X68429285Y17042505D02*
X68429285Y16947267D01*
X68429285Y16947267D02*
X68476904Y16804410D01*
X68476904Y16804410D02*
X69048332Y16232981D01*
X69048332Y16232981D02*
X68429285Y16232981D01*
X10557657Y37230039D02*
X10510038Y37325277D01*
X10510038Y37325277D02*
X10414800Y37420515D01*
X10414800Y37420515D02*
X10271942Y37563372D01*
X10271942Y37563372D02*
X10224323Y37658610D01*
X10224323Y37658610D02*
X10224323Y37753848D01*
X10462419Y37706229D02*
X10414800Y37801467D01*
X10414800Y37801467D02*
X10319561Y37896705D01*
X10319561Y37896705D02*
X10129085Y37944324D01*
X10129085Y37944324D02*
X9795752Y37944324D01*
X9795752Y37944324D02*
X9605276Y37896705D01*
X9605276Y37896705D02*
X9510038Y37801467D01*
X9510038Y37801467D02*
X9462419Y37706229D01*
X9462419Y37706229D02*
X9462419Y37515753D01*
X9462419Y37515753D02*
X9510038Y37420515D01*
X9510038Y37420515D02*
X9605276Y37325277D01*
X9605276Y37325277D02*
X9795752Y37277658D01*
X9795752Y37277658D02*
X10129085Y37277658D01*
X10129085Y37277658D02*
X10319561Y37325277D01*
X10319561Y37325277D02*
X10414800Y37420515D01*
X10414800Y37420515D02*
X10462419Y37515753D01*
X10462419Y37515753D02*
X10462419Y37706229D01*
X10462419Y36325277D02*
X10462419Y36896705D01*
X10462419Y36610991D02*
X9462419Y36610991D01*
X9462419Y36610991D02*
X9605276Y36706229D01*
X9605276Y36706229D02*
X9700514Y36801467D01*
X9700514Y36801467D02*
X9748133Y36896705D01*
X30284657Y44605781D02*
X30617990Y45081972D01*
X30856085Y44605781D02*
X30856085Y45605781D01*
X30856085Y45605781D02*
X30475133Y45605781D01*
X30475133Y45605781D02*
X30379895Y45558162D01*
X30379895Y45558162D02*
X30332276Y45510543D01*
X30332276Y45510543D02*
X30284657Y45415305D01*
X30284657Y45415305D02*
X30284657Y45272448D01*
X30284657Y45272448D02*
X30332276Y45177210D01*
X30332276Y45177210D02*
X30379895Y45129591D01*
X30379895Y45129591D02*
X30475133Y45081972D01*
X30475133Y45081972D02*
X30856085Y45081972D01*
X29903704Y45510543D02*
X29856085Y45558162D01*
X29856085Y45558162D02*
X29760847Y45605781D01*
X29760847Y45605781D02*
X29522752Y45605781D01*
X29522752Y45605781D02*
X29427514Y45558162D01*
X29427514Y45558162D02*
X29379895Y45510543D01*
X29379895Y45510543D02*
X29332276Y45415305D01*
X29332276Y45415305D02*
X29332276Y45320067D01*
X29332276Y45320067D02*
X29379895Y45177210D01*
X29379895Y45177210D02*
X29951323Y44605781D01*
X29951323Y44605781D02*
X29332276Y44605781D01*
X28475133Y45605781D02*
X28665609Y45605781D01*
X28665609Y45605781D02*
X28760847Y45558162D01*
X28760847Y45558162D02*
X28808466Y45510543D01*
X28808466Y45510543D02*
X28903704Y45367686D01*
X28903704Y45367686D02*
X28951323Y45177210D01*
X28951323Y45177210D02*
X28951323Y44796258D01*
X28951323Y44796258D02*
X28903704Y44701020D01*
X28903704Y44701020D02*
X28856085Y44653400D01*
X28856085Y44653400D02*
X28760847Y44605781D01*
X28760847Y44605781D02*
X28570371Y44605781D01*
X28570371Y44605781D02*
X28475133Y44653400D01*
X28475133Y44653400D02*
X28427514Y44701020D01*
X28427514Y44701020D02*
X28379895Y44796258D01*
X28379895Y44796258D02*
X28379895Y45034353D01*
X28379895Y45034353D02*
X28427514Y45129591D01*
X28427514Y45129591D02*
X28475133Y45177210D01*
X28475133Y45177210D02*
X28570371Y45224829D01*
X28570371Y45224829D02*
X28760847Y45224829D01*
X28760847Y45224829D02*
X28856085Y45177210D01*
X28856085Y45177210D02*
X28903704Y45129591D01*
X28903704Y45129591D02*
X28951323Y45034353D01*
X92779398Y27139693D02*
X92827017Y27092073D01*
X92827017Y27092073D02*
X92969874Y27044454D01*
X92969874Y27044454D02*
X93065112Y27044454D01*
X93065112Y27044454D02*
X93207969Y27092073D01*
X93207969Y27092073D02*
X93303207Y27187312D01*
X93303207Y27187312D02*
X93350826Y27282550D01*
X93350826Y27282550D02*
X93398445Y27473026D01*
X93398445Y27473026D02*
X93398445Y27615883D01*
X93398445Y27615883D02*
X93350826Y27806359D01*
X93350826Y27806359D02*
X93303207Y27901597D01*
X93303207Y27901597D02*
X93207969Y27996835D01*
X93207969Y27996835D02*
X93065112Y28044454D01*
X93065112Y28044454D02*
X92969874Y28044454D01*
X92969874Y28044454D02*
X92827017Y27996835D01*
X92827017Y27996835D02*
X92779398Y27949216D01*
X91827017Y27044454D02*
X92398445Y27044454D01*
X92112731Y27044454D02*
X92112731Y28044454D01*
X92112731Y28044454D02*
X92207969Y27901597D01*
X92207969Y27901597D02*
X92303207Y27806359D01*
X92303207Y27806359D02*
X92398445Y27758740D01*
X90969874Y27711121D02*
X90969874Y27044454D01*
X91207969Y28092073D02*
X91446064Y27377788D01*
X91446064Y27377788D02*
X90827017Y27377788D01*
X28547219Y14130258D02*
X28071028Y14463591D01*
X28547219Y14701686D02*
X27547219Y14701686D01*
X27547219Y14701686D02*
X27547219Y14320734D01*
X27547219Y14320734D02*
X27594838Y14225496D01*
X27594838Y14225496D02*
X27642457Y14177877D01*
X27642457Y14177877D02*
X27737695Y14130258D01*
X27737695Y14130258D02*
X27880552Y14130258D01*
X27880552Y14130258D02*
X27975790Y14177877D01*
X27975790Y14177877D02*
X28023409Y14225496D01*
X28023409Y14225496D02*
X28071028Y14320734D01*
X28071028Y14320734D02*
X28071028Y14701686D01*
X28547219Y13177877D02*
X28547219Y13749305D01*
X28547219Y13463591D02*
X27547219Y13463591D01*
X27547219Y13463591D02*
X27690076Y13558829D01*
X27690076Y13558829D02*
X27785314Y13654067D01*
X27785314Y13654067D02*
X27832933Y13749305D01*
X27547219Y12844543D02*
X27547219Y12177877D01*
X27547219Y12177877D02*
X28547219Y12606448D01*
X48341419Y14460458D02*
X47865228Y14793791D01*
X48341419Y15031886D02*
X47341419Y15031886D01*
X47341419Y15031886D02*
X47341419Y14650934D01*
X47341419Y14650934D02*
X47389038Y14555696D01*
X47389038Y14555696D02*
X47436657Y14508077D01*
X47436657Y14508077D02*
X47531895Y14460458D01*
X47531895Y14460458D02*
X47674752Y14460458D01*
X47674752Y14460458D02*
X47769990Y14508077D01*
X47769990Y14508077D02*
X47817609Y14555696D01*
X47817609Y14555696D02*
X47865228Y14650934D01*
X47865228Y14650934D02*
X47865228Y15031886D01*
X47436657Y14079505D02*
X47389038Y14031886D01*
X47389038Y14031886D02*
X47341419Y13936648D01*
X47341419Y13936648D02*
X47341419Y13698553D01*
X47341419Y13698553D02*
X47389038Y13603315D01*
X47389038Y13603315D02*
X47436657Y13555696D01*
X47436657Y13555696D02*
X47531895Y13508077D01*
X47531895Y13508077D02*
X47627133Y13508077D01*
X47627133Y13508077D02*
X47769990Y13555696D01*
X47769990Y13555696D02*
X48341419Y14127124D01*
X48341419Y14127124D02*
X48341419Y13508077D01*
X48341419Y13031886D02*
X48341419Y12841410D01*
X48341419Y12841410D02*
X48293800Y12746172D01*
X48293800Y12746172D02*
X48246180Y12698553D01*
X48246180Y12698553D02*
X48103323Y12603315D01*
X48103323Y12603315D02*
X47912847Y12555696D01*
X47912847Y12555696D02*
X47531895Y12555696D01*
X47531895Y12555696D02*
X47436657Y12603315D01*
X47436657Y12603315D02*
X47389038Y12650934D01*
X47389038Y12650934D02*
X47341419Y12746172D01*
X47341419Y12746172D02*
X47341419Y12936648D01*
X47341419Y12936648D02*
X47389038Y13031886D01*
X47389038Y13031886D02*
X47436657Y13079505D01*
X47436657Y13079505D02*
X47531895Y13127124D01*
X47531895Y13127124D02*
X47769990Y13127124D01*
X47769990Y13127124D02*
X47865228Y13079505D01*
X47865228Y13079505D02*
X47912847Y13031886D01*
X47912847Y13031886D02*
X47960466Y12936648D01*
X47960466Y12936648D02*
X47960466Y12746172D01*
X47960466Y12746172D02*
X47912847Y12650934D01*
X47912847Y12650934D02*
X47865228Y12603315D01*
X47865228Y12603315D02*
X47769990Y12555696D01*
X88349398Y32704454D02*
X88682731Y33180645D01*
X88920826Y32704454D02*
X88920826Y33704454D01*
X88920826Y33704454D02*
X88539874Y33704454D01*
X88539874Y33704454D02*
X88444636Y33656835D01*
X88444636Y33656835D02*
X88397017Y33609216D01*
X88397017Y33609216D02*
X88349398Y33513978D01*
X88349398Y33513978D02*
X88349398Y33371121D01*
X88349398Y33371121D02*
X88397017Y33275883D01*
X88397017Y33275883D02*
X88444636Y33228264D01*
X88444636Y33228264D02*
X88539874Y33180645D01*
X88539874Y33180645D02*
X88920826Y33180645D01*
X87968445Y33609216D02*
X87920826Y33656835D01*
X87920826Y33656835D02*
X87825588Y33704454D01*
X87825588Y33704454D02*
X87587493Y33704454D01*
X87587493Y33704454D02*
X87492255Y33656835D01*
X87492255Y33656835D02*
X87444636Y33609216D01*
X87444636Y33609216D02*
X87397017Y33513978D01*
X87397017Y33513978D02*
X87397017Y33418740D01*
X87397017Y33418740D02*
X87444636Y33275883D01*
X87444636Y33275883D02*
X88016064Y32704454D01*
X88016064Y32704454D02*
X87397017Y32704454D01*
X86539874Y33371121D02*
X86539874Y32704454D01*
X86777969Y33752073D02*
X87016064Y33037788D01*
X87016064Y33037788D02*
X86397017Y33037788D01*
X88349398Y23854454D02*
X88682731Y24330645D01*
X88920826Y23854454D02*
X88920826Y24854454D01*
X88920826Y24854454D02*
X88539874Y24854454D01*
X88539874Y24854454D02*
X88444636Y24806835D01*
X88444636Y24806835D02*
X88397017Y24759216D01*
X88397017Y24759216D02*
X88349398Y24663978D01*
X88349398Y24663978D02*
X88349398Y24521121D01*
X88349398Y24521121D02*
X88397017Y24425883D01*
X88397017Y24425883D02*
X88444636Y24378264D01*
X88444636Y24378264D02*
X88539874Y24330645D01*
X88539874Y24330645D02*
X88920826Y24330645D01*
X87397017Y23854454D02*
X87968445Y23854454D01*
X87682731Y23854454D02*
X87682731Y24854454D01*
X87682731Y24854454D02*
X87777969Y24711597D01*
X87777969Y24711597D02*
X87873207Y24616359D01*
X87873207Y24616359D02*
X87968445Y24568740D01*
X86444636Y23854454D02*
X87016064Y23854454D01*
X86730350Y23854454D02*
X86730350Y24854454D01*
X86730350Y24854454D02*
X86825588Y24711597D01*
X86825588Y24711597D02*
X86920826Y24616359D01*
X86920826Y24616359D02*
X87016064Y24568740D01*
D11*
X9214523Y29435996D02*
X9214523Y30735996D01*
X9214523Y30735996D02*
X8904999Y30735996D01*
X8904999Y30735996D02*
X8719285Y30674091D01*
X8719285Y30674091D02*
X8595475Y30550281D01*
X8595475Y30550281D02*
X8533570Y30426472D01*
X8533570Y30426472D02*
X8471666Y30178853D01*
X8471666Y30178853D02*
X8471666Y29993139D01*
X8471666Y29993139D02*
X8533570Y29745520D01*
X8533570Y29745520D02*
X8595475Y29621710D01*
X8595475Y29621710D02*
X8719285Y29497900D01*
X8719285Y29497900D02*
X8904999Y29435996D01*
X8904999Y29435996D02*
X9214523Y29435996D01*
X7357380Y30735996D02*
X7604999Y30735996D01*
X7604999Y30735996D02*
X7728808Y30674091D01*
X7728808Y30674091D02*
X7790713Y30612186D01*
X7790713Y30612186D02*
X7914523Y30426472D01*
X7914523Y30426472D02*
X7976427Y30178853D01*
X7976427Y30178853D02*
X7976427Y29683615D01*
X7976427Y29683615D02*
X7914523Y29559805D01*
X7914523Y29559805D02*
X7852618Y29497900D01*
X7852618Y29497900D02*
X7728808Y29435996D01*
X7728808Y29435996D02*
X7481189Y29435996D01*
X7481189Y29435996D02*
X7357380Y29497900D01*
X7357380Y29497900D02*
X7295475Y29559805D01*
X7295475Y29559805D02*
X7233570Y29683615D01*
X7233570Y29683615D02*
X7233570Y29993139D01*
X7233570Y29993139D02*
X7295475Y30116948D01*
X7295475Y30116948D02*
X7357380Y30178853D01*
X7357380Y30178853D02*
X7481189Y30240758D01*
X7481189Y30240758D02*
X7728808Y30240758D01*
X7728808Y30240758D02*
X7852618Y30178853D01*
X7852618Y30178853D02*
X7914523Y30116948D01*
X7914523Y30116948D02*
X7976427Y29993139D01*
D10*
X91746294Y38278981D02*
X91746294Y39278981D01*
X91746294Y39278981D02*
X91508199Y39278981D01*
X91508199Y39278981D02*
X91365342Y39231362D01*
X91365342Y39231362D02*
X91270104Y39136124D01*
X91270104Y39136124D02*
X91222485Y39040886D01*
X91222485Y39040886D02*
X91174866Y38850410D01*
X91174866Y38850410D02*
X91174866Y38707553D01*
X91174866Y38707553D02*
X91222485Y38517077D01*
X91222485Y38517077D02*
X91270104Y38421839D01*
X91270104Y38421839D02*
X91365342Y38326600D01*
X91365342Y38326600D02*
X91508199Y38278981D01*
X91508199Y38278981D02*
X91746294Y38278981D01*
X90841532Y39278981D02*
X90174866Y39278981D01*
X90174866Y39278981D02*
X90603437Y38278981D01*
X109374636Y37789093D02*
X109374636Y38598616D01*
X109374636Y38598616D02*
X109422255Y38693854D01*
X109422255Y38693854D02*
X109469874Y38741473D01*
X109469874Y38741473D02*
X109565112Y38789093D01*
X109565112Y38789093D02*
X109755588Y38789093D01*
X109755588Y38789093D02*
X109850826Y38741473D01*
X109850826Y38741473D02*
X109898445Y38693854D01*
X109898445Y38693854D02*
X109946064Y38598616D01*
X109946064Y38598616D02*
X109946064Y37789093D01*
X110327017Y37789093D02*
X110946064Y37789093D01*
X110946064Y37789093D02*
X110612731Y38170045D01*
X110612731Y38170045D02*
X110755588Y38170045D01*
X110755588Y38170045D02*
X110850826Y38217664D01*
X110850826Y38217664D02*
X110898445Y38265283D01*
X110898445Y38265283D02*
X110946064Y38360521D01*
X110946064Y38360521D02*
X110946064Y38598616D01*
X110946064Y38598616D02*
X110898445Y38693854D01*
X110898445Y38693854D02*
X110850826Y38741473D01*
X110850826Y38741473D02*
X110755588Y38789093D01*
X110755588Y38789093D02*
X110469874Y38789093D01*
X110469874Y38789093D02*
X110374636Y38741473D01*
X110374636Y38741473D02*
X110327017Y38693854D01*
X63092219Y47531258D02*
X62616028Y47864591D01*
X63092219Y48102686D02*
X62092219Y48102686D01*
X62092219Y48102686D02*
X62092219Y47721734D01*
X62092219Y47721734D02*
X62139838Y47626496D01*
X62139838Y47626496D02*
X62187457Y47578877D01*
X62187457Y47578877D02*
X62282695Y47531258D01*
X62282695Y47531258D02*
X62425552Y47531258D01*
X62425552Y47531258D02*
X62520790Y47578877D01*
X62520790Y47578877D02*
X62568409Y47626496D01*
X62568409Y47626496D02*
X62616028Y47721734D01*
X62616028Y47721734D02*
X62616028Y48102686D01*
X63092219Y46578877D02*
X63092219Y47150305D01*
X63092219Y46864591D02*
X62092219Y46864591D01*
X62092219Y46864591D02*
X62235076Y46959829D01*
X62235076Y46959829D02*
X62330314Y47055067D01*
X62330314Y47055067D02*
X62377933Y47150305D01*
X62425552Y45721734D02*
X63092219Y45721734D01*
X62044600Y45959829D02*
X62758885Y46197924D01*
X62758885Y46197924D02*
X62758885Y45578877D01*
X92303207Y15099693D02*
X92350826Y15052073D01*
X92350826Y15052073D02*
X92493683Y15004454D01*
X92493683Y15004454D02*
X92588921Y15004454D01*
X92588921Y15004454D02*
X92731778Y15052073D01*
X92731778Y15052073D02*
X92827016Y15147312D01*
X92827016Y15147312D02*
X92874635Y15242550D01*
X92874635Y15242550D02*
X92922254Y15433026D01*
X92922254Y15433026D02*
X92922254Y15575883D01*
X92922254Y15575883D02*
X92874635Y15766359D01*
X92874635Y15766359D02*
X92827016Y15861597D01*
X92827016Y15861597D02*
X92731778Y15956835D01*
X92731778Y15956835D02*
X92588921Y16004454D01*
X92588921Y16004454D02*
X92493683Y16004454D01*
X92493683Y16004454D02*
X92350826Y15956835D01*
X92350826Y15956835D02*
X92303207Y15909216D01*
X91398445Y16004454D02*
X91874635Y16004454D01*
X91874635Y16004454D02*
X91922254Y15528264D01*
X91922254Y15528264D02*
X91874635Y15575883D01*
X91874635Y15575883D02*
X91779397Y15623502D01*
X91779397Y15623502D02*
X91541302Y15623502D01*
X91541302Y15623502D02*
X91446064Y15575883D01*
X91446064Y15575883D02*
X91398445Y15528264D01*
X91398445Y15528264D02*
X91350826Y15433026D01*
X91350826Y15433026D02*
X91350826Y15194931D01*
X91350826Y15194931D02*
X91398445Y15099693D01*
X91398445Y15099693D02*
X91446064Y15052073D01*
X91446064Y15052073D02*
X91541302Y15004454D01*
X91541302Y15004454D02*
X91779397Y15004454D01*
X91779397Y15004454D02*
X91874635Y15052073D01*
X91874635Y15052073D02*
X91922254Y15099693D01*
X20029466Y41175781D02*
X20362799Y41651972D01*
X20600894Y41175781D02*
X20600894Y42175781D01*
X20600894Y42175781D02*
X20219942Y42175781D01*
X20219942Y42175781D02*
X20124704Y42128162D01*
X20124704Y42128162D02*
X20077085Y42080543D01*
X20077085Y42080543D02*
X20029466Y41985305D01*
X20029466Y41985305D02*
X20029466Y41842448D01*
X20029466Y41842448D02*
X20077085Y41747210D01*
X20077085Y41747210D02*
X20124704Y41699591D01*
X20124704Y41699591D02*
X20219942Y41651972D01*
X20219942Y41651972D02*
X20600894Y41651972D01*
X19553275Y41175781D02*
X19362799Y41175781D01*
X19362799Y41175781D02*
X19267561Y41223400D01*
X19267561Y41223400D02*
X19219942Y41271020D01*
X19219942Y41271020D02*
X19124704Y41413877D01*
X19124704Y41413877D02*
X19077085Y41604353D01*
X19077085Y41604353D02*
X19077085Y41985305D01*
X19077085Y41985305D02*
X19124704Y42080543D01*
X19124704Y42080543D02*
X19172323Y42128162D01*
X19172323Y42128162D02*
X19267561Y42175781D01*
X19267561Y42175781D02*
X19458037Y42175781D01*
X19458037Y42175781D02*
X19553275Y42128162D01*
X19553275Y42128162D02*
X19600894Y42080543D01*
X19600894Y42080543D02*
X19648513Y41985305D01*
X19648513Y41985305D02*
X19648513Y41747210D01*
X19648513Y41747210D02*
X19600894Y41651972D01*
X19600894Y41651972D02*
X19553275Y41604353D01*
X19553275Y41604353D02*
X19458037Y41556734D01*
X19458037Y41556734D02*
X19267561Y41556734D01*
X19267561Y41556734D02*
X19172323Y41604353D01*
X19172323Y41604353D02*
X19124704Y41651972D01*
X19124704Y41651972D02*
X19077085Y41747210D01*
X64259619Y17718067D02*
X63783428Y18051400D01*
X64259619Y18289495D02*
X63259619Y18289495D01*
X63259619Y18289495D02*
X63259619Y17908543D01*
X63259619Y17908543D02*
X63307238Y17813305D01*
X63307238Y17813305D02*
X63354857Y17765686D01*
X63354857Y17765686D02*
X63450095Y17718067D01*
X63450095Y17718067D02*
X63592952Y17718067D01*
X63592952Y17718067D02*
X63688190Y17765686D01*
X63688190Y17765686D02*
X63735809Y17813305D01*
X63735809Y17813305D02*
X63783428Y17908543D01*
X63783428Y17908543D02*
X63783428Y18289495D01*
X64259619Y16765686D02*
X64259619Y17337114D01*
X64259619Y17051400D02*
X63259619Y17051400D01*
X63259619Y17051400D02*
X63402476Y17146638D01*
X63402476Y17146638D02*
X63497714Y17241876D01*
X63497714Y17241876D02*
X63545333Y17337114D01*
D14*
%TO.C,C9*%
X38488252Y41371000D02*
X37965748Y41371000D01*
X38488252Y39901000D02*
X37965748Y39901000D01*
%TO.C,C8*%
X36812400Y43857000D02*
X40722400Y43857000D01*
X40722400Y43857000D02*
X40722400Y41987000D01*
X40722400Y41987000D02*
X36812400Y41987000D01*
D10*
%TO.C,U2*%
X31426400Y37179000D02*
X31426400Y36504000D01*
X31426400Y37179000D02*
X32101400Y37179000D01*
X31426400Y26829000D02*
X31426400Y27504000D01*
X31426400Y26829000D02*
X32101400Y26829000D01*
X41201400Y26829000D02*
X41201400Y25554000D01*
X41776400Y37179000D02*
X41101400Y37179000D01*
X41776400Y37179000D02*
X41776400Y36504000D01*
X41776400Y26829000D02*
X41201400Y26829000D01*
X41776400Y26829000D02*
X41776400Y27504000D01*
D14*
%TO.C,R12*%
X27636800Y34821864D02*
X27636800Y34367736D01*
X29106800Y34821864D02*
X29106800Y34367736D01*
%TO.C,R5*%
X39193800Y22528264D02*
X39193800Y22074136D01*
X40663800Y22528264D02*
X40663800Y22074136D01*
%TO.C,C10*%
X36557852Y24611000D02*
X36035348Y24611000D01*
X36557852Y23141000D02*
X36035348Y23141000D01*
%TO.C,C11*%
X44299200Y32265252D02*
X44299200Y31742748D01*
X45769200Y32265252D02*
X45769200Y31742748D01*
%TO.C,C12*%
X26374399Y31143652D02*
X26374399Y30621148D01*
X27844399Y31143652D02*
X27844399Y30621148D01*
%TO.C,C2*%
X47338348Y20089800D02*
X47860852Y20089800D01*
X47338348Y18619800D02*
X47860852Y18619800D01*
%TO.C,R13*%
X25604800Y34821864D02*
X25604800Y34367736D01*
X27074800Y34821864D02*
X27074800Y34367736D01*
%TO.C,U1*%
X103883100Y39943800D02*
X103883100Y38643800D01*
X106203100Y39943800D02*
X106203100Y38893800D01*
X106203100Y38253800D02*
X106203100Y38533800D01*
X106483100Y38533800D01*
X106203100Y38253800D01*
G36*
X106203100Y38253800D02*
G01*
X106203100Y38533800D01*
X106483100Y38533800D01*
X106203100Y38253800D01*
G37*
%TO.C,C6*%
X91875289Y20884273D02*
X92397793Y20884273D01*
X91875289Y19414273D02*
X92397793Y19414273D01*
%TO.C,J1*%
X55551200Y10549200D02*
X57351200Y10549200D01*
X55551200Y9099200D02*
X55551200Y10549200D01*
X64721200Y10549200D02*
X64721200Y11539200D01*
X65251200Y6279200D02*
X56821200Y6279200D01*
X66521200Y10549200D02*
X64721200Y10549200D01*
X66521200Y9099200D02*
X66521200Y10549200D01*
%TO.C,Q2*%
X11165400Y42265600D02*
X11165400Y42915600D01*
X11165400Y42265600D02*
X11165400Y41615600D01*
X14285400Y42265600D02*
X14285400Y42915600D01*
X14285400Y42265600D02*
X14285400Y40590600D01*
%TO.C,C13*%
X91875289Y26904273D02*
X92397793Y26904273D01*
X91875289Y25434273D02*
X92397793Y25434273D01*
%TO.C,R10*%
X87479477Y23744273D02*
X87933605Y23744273D01*
X87479477Y22274273D02*
X87933605Y22274273D01*
%TO.C,C3*%
X29999000Y19997052D02*
X29999000Y19474548D01*
X31469000Y19997052D02*
X31469000Y19474548D01*
%TO.C,R16*%
X16864064Y32459600D02*
X16409936Y32459600D01*
X16864064Y30989600D02*
X16409936Y30989600D01*
%TO.C,R22*%
X87479477Y29644273D02*
X87933605Y29644273D01*
X87479477Y28174273D02*
X87933605Y28174273D01*
%TO.C,L1*%
X65250600Y21621933D02*
X65250600Y21964467D01*
X66270600Y21621933D02*
X66270600Y21964467D01*
%TO.C,C7*%
X91875289Y23894273D02*
X92397793Y23894273D01*
X91875289Y22424273D02*
X92397793Y22424273D01*
%TO.C,J2*%
X14296200Y10498400D02*
X16096200Y10498400D01*
X14296200Y9048400D02*
X14296200Y10498400D01*
X25966200Y10498400D02*
X25966200Y11488400D01*
X26496200Y6228400D02*
X15566200Y6228400D01*
X27766200Y10498400D02*
X25966200Y10498400D01*
X27766200Y9048400D02*
X27766200Y10498400D01*
%TO.C,D3*%
X6655000Y38346000D02*
X10540000Y38346000D01*
X10540000Y38346000D02*
X10540000Y36076000D01*
X10540000Y36076000D02*
X6655000Y36076000D01*
%TO.C,R7*%
X16864064Y37285600D02*
X16409936Y37285600D01*
X16864064Y35815600D02*
X16409936Y35815600D01*
%TO.C,R6*%
X8964664Y40155800D02*
X8510536Y40155800D01*
X8964664Y38685800D02*
X8510536Y38685800D01*
%TO.C,R21*%
X15724200Y14044664D02*
X15724200Y13590536D01*
X17194200Y14044664D02*
X17194200Y13590536D01*
%TO.C,J6*%
X41870600Y10574600D02*
X43670600Y10574600D01*
X41870600Y9124600D02*
X41870600Y10574600D01*
X52290600Y10574600D02*
X52290600Y11564600D01*
X52820600Y6304600D02*
X43140600Y6304600D01*
X54090600Y10574600D02*
X52290600Y10574600D01*
X54090600Y9124600D02*
X54090600Y10574600D01*
%TO.C,J4*%
X30613800Y10422200D02*
X32413800Y10422200D01*
X30613800Y8972200D02*
X30613800Y10422200D01*
X37283800Y10422200D02*
X37283800Y11412200D01*
X37813800Y6152200D02*
X31883800Y6152200D01*
X39083800Y10422200D02*
X37283800Y10422200D01*
X39083800Y8972200D02*
X39083800Y10422200D01*
%TO.C,D1*%
X65541600Y15865000D02*
X66741600Y15865000D01*
X65541600Y13905000D02*
X65541600Y15865000D01*
X66741600Y13905000D02*
X66741600Y15865000D01*
D12*
%TO.C,SW2*%
X46525000Y43921200D02*
X48725000Y43921200D01*
X47625000Y43921200D02*
X47625000Y43421200D01*
X47625000Y43421200D02*
X48225000Y41921200D01*
X47625000Y42021200D02*
X47625000Y41321200D01*
X48725000Y41321200D02*
X46525000Y41321200D01*
D14*
%TO.C,D4*%
X6604200Y42765600D02*
X10489200Y42765600D01*
X10489200Y42765600D02*
X10489200Y40495600D01*
X10489200Y40495600D02*
X6604200Y40495600D01*
%TO.C,R28*%
X47585100Y13504142D02*
X47585100Y13978658D01*
X48630100Y13504142D02*
X48630100Y13978658D01*
D12*
%TO.C,SW1*%
X17645200Y23652000D02*
X19845200Y23652000D01*
X18745200Y22952000D02*
X18745200Y23652000D01*
X18745200Y21552000D02*
X18145200Y23052000D01*
X18745200Y21052000D02*
X18745200Y21552000D01*
X19845200Y21052000D02*
X17645200Y21052000D01*
D14*
%TO.C,R20*%
X17807000Y14044664D02*
X17807000Y13590536D01*
X19277000Y14044664D02*
X19277000Y13590536D01*
%TO.C,R4*%
X61139400Y14654264D02*
X61139400Y14200136D01*
X62609400Y14654264D02*
X62609400Y14200136D01*
%TO.C,R18*%
X23598200Y14070064D02*
X23598200Y13615936D01*
X25068200Y14070064D02*
X25068200Y13615936D01*
%TO.C,R15*%
X9142464Y35660000D02*
X8688336Y35660000D01*
X9142464Y34190000D02*
X8688336Y34190000D01*
%TO.C,TP2*%
X31992800Y40284400D02*
G75*
G02*
X30592800Y40284400I-700000J0D01*
G01*
X30592800Y40284400D02*
G75*
G02*
X31992800Y40284400I700000J0D01*
G01*
%TO.C,R19*%
X20397800Y14044664D02*
X20397800Y13590536D01*
X21867800Y14044664D02*
X21867800Y13590536D01*
%TO.C,TP1*%
X30189400Y38404800D02*
G75*
G02*
X28789400Y38404800I-700000J0D01*
G01*
X28789400Y38404800D02*
G75*
G02*
X30189400Y38404800I700000J0D01*
G01*
%TO.C,R23*%
X87479477Y32594273D02*
X87933605Y32594273D01*
X87479477Y31124273D02*
X87933605Y31124273D01*
%TO.C,Y1*%
X36174800Y21475800D02*
X36174800Y18055800D01*
X36174800Y18055800D02*
X32054800Y18055800D01*
%TO.C,JP1*%
X58410600Y14746200D02*
X58410600Y13346200D01*
X59110600Y12646200D02*
X59710600Y12646200D01*
X59710600Y15446200D02*
X59110600Y15446200D01*
X60410600Y13346200D02*
X60410600Y14746200D01*
X58410600Y14746200D02*
G75*
G02*
X59110600Y15446200I699999J1D01*
G01*
X59110600Y12646200D02*
G75*
G02*
X58410600Y13346200I0J700000D01*
G01*
X59710600Y15446200D02*
G75*
G02*
X60410600Y14746200I1J-699999D01*
G01*
X60410600Y13346200D02*
G75*
G02*
X59710600Y12646200I-700000J0D01*
G01*
%TO.C,C15*%
X91875289Y32924273D02*
X92397793Y32924273D01*
X91875289Y31454273D02*
X92397793Y31454273D01*
%TO.C,C1*%
X66591548Y19454800D02*
X67114052Y19454800D01*
X66591548Y17984800D02*
X67114052Y17984800D01*
%TO.C,Q3*%
X11317800Y31775400D02*
X11317800Y32425400D01*
X11317800Y31775400D02*
X11317800Y31125400D01*
X14437800Y31775400D02*
X14437800Y32425400D01*
X14437800Y31775400D02*
X14437800Y30100400D01*
D10*
%TO.C,J3*%
X46177200Y29362400D02*
X46177200Y21742400D01*
X46177200Y21742400D02*
X51257200Y21742400D01*
X51257200Y29362400D02*
X46177200Y29362400D01*
X51257200Y21742400D02*
X51257200Y29362400D01*
D14*
%TO.C,D5*%
X63076200Y53440600D02*
X65346200Y53440600D01*
X63076200Y49555600D02*
X63076200Y53440600D01*
X65346200Y53440600D02*
X65346200Y49555600D01*
%TO.C,R3*%
X47407395Y40260527D02*
X47861523Y40260527D01*
X47407395Y38790527D02*
X47861523Y38790527D01*
%TO.C,R25*%
X50633100Y13504142D02*
X50633100Y13978658D01*
X51678100Y13504142D02*
X51678100Y13978658D01*
%TO.C,L3*%
X111715289Y37269273D02*
X112237793Y37269273D01*
X111715289Y35049273D02*
X112237793Y35049273D01*
%TO.C,R27*%
X49083700Y13478742D02*
X49083700Y13953258D01*
X50128700Y13478742D02*
X50128700Y13953258D01*
%TO.C,R30*%
X44384700Y13478742D02*
X44384700Y13953258D01*
X45429700Y13478742D02*
X45429700Y13953258D01*
%TO.C,C4*%
X36704600Y19576148D02*
X36704600Y20098652D01*
X38174600Y19576148D02*
X38174600Y20098652D01*
%TO.C,L2*%
X105072548Y36695400D02*
X105595052Y36695400D01*
X105072548Y34475400D02*
X105595052Y34475400D01*
%TO.C,R2*%
X18518136Y26211200D02*
X18972264Y26211200D01*
X18518136Y24741200D02*
X18972264Y24741200D01*
%TO.C,R8*%
X9447264Y45362800D02*
X8993136Y45362800D01*
X9447264Y43892800D02*
X8993136Y43892800D01*
%TO.C,D2*%
X65491200Y16189400D02*
X65491200Y17389400D01*
X67451200Y17389400D02*
X65491200Y17389400D01*
X67451200Y16189400D02*
X65491200Y16189400D01*
%TO.C,Q1*%
X11063800Y37134800D02*
X11063800Y37784800D01*
X11063800Y37134800D02*
X11063800Y36484800D01*
X14183800Y37134800D02*
X14183800Y37784800D01*
X14183800Y37134800D02*
X14183800Y35459800D01*
%TO.C,R26*%
X29414736Y47445600D02*
X29868864Y47445600D01*
X29414736Y45975600D02*
X29868864Y45975600D01*
%TO.C,C14*%
X91875289Y29914273D02*
X92397793Y29914273D01*
X91875289Y28444273D02*
X92397793Y28444273D01*
%TO.C,R17*%
X25528600Y14044664D02*
X25528600Y13590536D01*
X26998600Y14044664D02*
X26998600Y13590536D01*
%TO.C,R29*%
X45934100Y13580342D02*
X45934100Y14054858D01*
X46979100Y13580342D02*
X46979100Y14054858D01*
%TO.C,R24*%
X87479477Y35544273D02*
X87933605Y35544273D01*
X87479477Y34074273D02*
X87933605Y34074273D01*
%TO.C,R11*%
X87479477Y26694273D02*
X87933605Y26694273D01*
X87479477Y25224273D02*
X87933605Y25224273D01*
%TO.C,D6*%
X6655000Y33647000D02*
X10540000Y33647000D01*
X10540000Y33647000D02*
X10540000Y31377000D01*
X10540000Y31377000D02*
X6655000Y31377000D01*
%TO.C,D7*%
X88723200Y41698800D02*
X92608200Y41698800D01*
X88723200Y39428800D02*
X88723200Y41698800D01*
X92608200Y39428800D02*
X88723200Y39428800D01*
%TO.C,U3*%
X110786541Y41694273D02*
X109486541Y41694273D01*
X110786541Y39374273D02*
X109736541Y39374273D01*
X109376541Y39094273D02*
X109096541Y39374273D01*
X109376541Y39374273D01*
X109376541Y39094273D01*
G36*
X109376541Y39094273D02*
G01*
X109096541Y39374273D01*
X109376541Y39374273D01*
X109376541Y39094273D01*
G37*
%TO.C,R14*%
X63552400Y47115464D02*
X63552400Y46661336D01*
X65022400Y47115464D02*
X65022400Y46661336D01*
%TO.C,C5*%
X91875289Y17874273D02*
X92397793Y17874273D01*
X91875289Y16404273D02*
X92397793Y16404273D01*
%TO.C,R9*%
X16864064Y42365600D02*
X16409936Y42365600D01*
X16864064Y40895600D02*
X16409936Y40895600D01*
%TO.C,R1*%
X63171400Y14654264D02*
X63171400Y14200136D01*
X64641400Y14654264D02*
X64641400Y14200136D01*
%TD*%
M02*
