%TF.GenerationSoftware,KiCad,Pcbnew,9.0.6+1*%
%TF.CreationDate,2025-12-30T01:54:02+00:00*%
%TF.ProjectId,TFUNIPAYLOAD01,5446554e-4950-4415-994c-4f414430312e,rev?*%
%TF.SameCoordinates,PX66dd020PY81342c0*%
%TF.FileFunction,Legend,Top*%
%TF.FilePolarity,Positive*%
%FSLAX46Y46*%
G04 Gerber Fmt 4.6, Leading zero omitted, Abs format (unit mm)*
G04 Created by KiCad (PCBNEW 9.0.6+1) date 2025-12-30 01:54:02*
%MOMM*%
%LPD*%
G01*
G04 APERTURE LIST*
%ADD10C,0.150000*%
%ADD11C,0.300000*%
%ADD12C,0.200000*%
%ADD13C,0.000000*%
G04 APERTURE END LIST*
D10*
X52663400Y28899600D02*
X62763400Y28899600D01*
X62763400Y22199600D01*
X52663400Y22199600D01*
X52663400Y28899600D01*
D11*
X25953866Y43575747D02*
X26925295Y43575747D01*
X26439581Y41875747D02*
X26439581Y43575747D01*
X28058628Y42766223D02*
X27491961Y42766223D01*
X27491961Y41875747D02*
X27491961Y43575747D01*
X27491961Y43575747D02*
X28301485Y43575747D01*
X28949104Y43575747D02*
X28949104Y42199557D01*
X28949104Y42199557D02*
X29030057Y42037652D01*
X29030057Y42037652D02*
X29111009Y41956699D01*
X29111009Y41956699D02*
X29272914Y41875747D01*
X29272914Y41875747D02*
X29596723Y41875747D01*
X29596723Y41875747D02*
X29758628Y41956699D01*
X29758628Y41956699D02*
X29839581Y42037652D01*
X29839581Y42037652D02*
X29920533Y42199557D01*
X29920533Y42199557D02*
X29920533Y43575747D01*
X30730056Y41875747D02*
X30730056Y43575747D01*
X30730056Y43575747D02*
X31701485Y41875747D01*
X31701485Y41875747D02*
X31701485Y43575747D01*
X32511008Y41875747D02*
X32511008Y43575747D01*
X33320532Y41875747D02*
X33320532Y43575747D01*
X33320532Y43575747D02*
X33968151Y43575747D01*
X33968151Y43575747D02*
X34130056Y43494795D01*
X34130056Y43494795D02*
X34211009Y43413842D01*
X34211009Y43413842D02*
X34291961Y43251938D01*
X34291961Y43251938D02*
X34291961Y43009080D01*
X34291961Y43009080D02*
X34211009Y42847176D01*
X34211009Y42847176D02*
X34130056Y42766223D01*
X34130056Y42766223D02*
X33968151Y42685271D01*
X33968151Y42685271D02*
X33320532Y42685271D01*
X34939580Y42361461D02*
X35749104Y42361461D01*
X34777675Y41875747D02*
X35344342Y43575747D01*
X35344342Y43575747D02*
X35911009Y41875747D01*
X36801485Y42685271D02*
X36801485Y41875747D01*
X36234818Y43575747D02*
X36801485Y42685271D01*
X36801485Y42685271D02*
X37368152Y43575747D01*
X38744342Y41875747D02*
X37934818Y41875747D01*
X37934818Y41875747D02*
X37934818Y43575747D01*
X39634818Y43575747D02*
X39958627Y43575747D01*
X39958627Y43575747D02*
X40120532Y43494795D01*
X40120532Y43494795D02*
X40282437Y43332890D01*
X40282437Y43332890D02*
X40363389Y43009080D01*
X40363389Y43009080D02*
X40363389Y42442414D01*
X40363389Y42442414D02*
X40282437Y42118604D01*
X40282437Y42118604D02*
X40120532Y41956699D01*
X40120532Y41956699D02*
X39958627Y41875747D01*
X39958627Y41875747D02*
X39634818Y41875747D01*
X39634818Y41875747D02*
X39472913Y41956699D01*
X39472913Y41956699D02*
X39311008Y42118604D01*
X39311008Y42118604D02*
X39230056Y42442414D01*
X39230056Y42442414D02*
X39230056Y43009080D01*
X39230056Y43009080D02*
X39311008Y43332890D01*
X39311008Y43332890D02*
X39472913Y43494795D01*
X39472913Y43494795D02*
X39634818Y43575747D01*
X41011008Y42361461D02*
X41820532Y42361461D01*
X40849103Y41875747D02*
X41415770Y43575747D01*
X41415770Y43575747D02*
X41982437Y41875747D01*
X42549103Y41875747D02*
X42549103Y43575747D01*
X42549103Y43575747D02*
X42953865Y43575747D01*
X42953865Y43575747D02*
X43196722Y43494795D01*
X43196722Y43494795D02*
X43358627Y43332890D01*
X43358627Y43332890D02*
X43439580Y43170985D01*
X43439580Y43170985D02*
X43520532Y42847176D01*
X43520532Y42847176D02*
X43520532Y42604319D01*
X43520532Y42604319D02*
X43439580Y42280509D01*
X43439580Y42280509D02*
X43358627Y42118604D01*
X43358627Y42118604D02*
X43196722Y41956699D01*
X43196722Y41956699D02*
X42953865Y41875747D01*
X42953865Y41875747D02*
X42549103Y41875747D01*
X44572913Y43575747D02*
X44734818Y43575747D01*
X44734818Y43575747D02*
X44896722Y43494795D01*
X44896722Y43494795D02*
X44977675Y43413842D01*
X44977675Y43413842D02*
X45058627Y43251938D01*
X45058627Y43251938D02*
X45139580Y42928128D01*
X45139580Y42928128D02*
X45139580Y42523366D01*
X45139580Y42523366D02*
X45058627Y42199557D01*
X45058627Y42199557D02*
X44977675Y42037652D01*
X44977675Y42037652D02*
X44896722Y41956699D01*
X44896722Y41956699D02*
X44734818Y41875747D01*
X44734818Y41875747D02*
X44572913Y41875747D01*
X44572913Y41875747D02*
X44411008Y41956699D01*
X44411008Y41956699D02*
X44330056Y42037652D01*
X44330056Y42037652D02*
X44249103Y42199557D01*
X44249103Y42199557D02*
X44168151Y42523366D01*
X44168151Y42523366D02*
X44168151Y42928128D01*
X44168151Y42928128D02*
X44249103Y43251938D01*
X44249103Y43251938D02*
X44330056Y43413842D01*
X44330056Y43413842D02*
X44411008Y43494795D01*
X44411008Y43494795D02*
X44572913Y43575747D01*
X46758628Y41875747D02*
X45787199Y41875747D01*
X46272913Y41875747D02*
X46272913Y43575747D01*
X46272913Y43575747D02*
X46111009Y43332890D01*
X46111009Y43332890D02*
X45949104Y43170985D01*
X45949104Y43170985D02*
X45787199Y43090033D01*
X48053866Y42766223D02*
X48296723Y42685271D01*
X48296723Y42685271D02*
X48377676Y42604319D01*
X48377676Y42604319D02*
X48458628Y42442414D01*
X48458628Y42442414D02*
X48458628Y42199557D01*
X48458628Y42199557D02*
X48377676Y42037652D01*
X48377676Y42037652D02*
X48296723Y41956699D01*
X48296723Y41956699D02*
X48134818Y41875747D01*
X48134818Y41875747D02*
X47487199Y41875747D01*
X47487199Y41875747D02*
X47487199Y43575747D01*
X47487199Y43575747D02*
X48053866Y43575747D01*
X48053866Y43575747D02*
X48215771Y43494795D01*
X48215771Y43494795D02*
X48296723Y43413842D01*
X48296723Y43413842D02*
X48377676Y43251938D01*
X48377676Y43251938D02*
X48377676Y43090033D01*
X48377676Y43090033D02*
X48296723Y42928128D01*
X48296723Y42928128D02*
X48215771Y42847176D01*
X48215771Y42847176D02*
X48053866Y42766223D01*
X48053866Y42766223D02*
X47487199Y42766223D01*
D12*
X65818204Y39394239D02*
X64518204Y39394239D01*
X64518204Y39394239D02*
X64518204Y39889477D01*
X64518204Y39889477D02*
X64580109Y40013287D01*
X64580109Y40013287D02*
X64642014Y40075192D01*
X64642014Y40075192D02*
X64765823Y40137096D01*
X64765823Y40137096D02*
X64951538Y40137096D01*
X64951538Y40137096D02*
X65075347Y40075192D01*
X65075347Y40075192D02*
X65137252Y40013287D01*
X65137252Y40013287D02*
X65199157Y39889477D01*
X65199157Y39889477D02*
X65199157Y39394239D01*
X64518204Y40570430D02*
X65818204Y40879954D01*
X65818204Y40879954D02*
X64889633Y41127573D01*
X64889633Y41127573D02*
X65818204Y41375192D01*
X65818204Y41375192D02*
X64518204Y41684715D01*
X65818204Y42922810D02*
X65199157Y42489477D01*
X65818204Y42179953D02*
X64518204Y42179953D01*
X64518204Y42179953D02*
X64518204Y42675191D01*
X64518204Y42675191D02*
X64580109Y42799001D01*
X64580109Y42799001D02*
X64642014Y42860906D01*
X64642014Y42860906D02*
X64765823Y42922810D01*
X64765823Y42922810D02*
X64951538Y42922810D01*
X64951538Y42922810D02*
X65075347Y42860906D01*
X65075347Y42860906D02*
X65137252Y42799001D01*
X65137252Y42799001D02*
X65199157Y42675191D01*
X65199157Y42675191D02*
X65199157Y42179953D01*
X64518204Y45089477D02*
X64518204Y44470429D01*
X64518204Y44470429D02*
X65137252Y44408525D01*
X65137252Y44408525D02*
X65075347Y44470429D01*
X65075347Y44470429D02*
X65013442Y44594239D01*
X65013442Y44594239D02*
X65013442Y44903763D01*
X65013442Y44903763D02*
X65075347Y45027572D01*
X65075347Y45027572D02*
X65137252Y45089477D01*
X65137252Y45089477D02*
X65261061Y45151382D01*
X65261061Y45151382D02*
X65570585Y45151382D01*
X65570585Y45151382D02*
X65694395Y45089477D01*
X65694395Y45089477D02*
X65756300Y45027572D01*
X65756300Y45027572D02*
X65818204Y44903763D01*
X65818204Y44903763D02*
X65818204Y44594239D01*
X65818204Y44594239D02*
X65756300Y44470429D01*
X65756300Y44470429D02*
X65694395Y44408525D01*
X64518204Y45522810D02*
X65818204Y45956143D01*
X65818204Y45956143D02*
X64518204Y46389477D01*
X44763790Y10438259D02*
X44763790Y9385878D01*
X44763790Y9385878D02*
X44825695Y9262068D01*
X44825695Y9262068D02*
X44887600Y9200163D01*
X44887600Y9200163D02*
X45011409Y9138259D01*
X45011409Y9138259D02*
X45259028Y9138259D01*
X45259028Y9138259D02*
X45382838Y9200163D01*
X45382838Y9200163D02*
X45444743Y9262068D01*
X45444743Y9262068D02*
X45506647Y9385878D01*
X45506647Y9385878D02*
X45506647Y10438259D01*
X46063791Y9509687D02*
X46682838Y9509687D01*
X45939981Y9138259D02*
X46373314Y10438259D01*
X46373314Y10438259D02*
X46806648Y9138259D01*
X47982838Y9138259D02*
X47549505Y9757306D01*
X47239981Y9138259D02*
X47239981Y10438259D01*
X47239981Y10438259D02*
X47735219Y10438259D01*
X47735219Y10438259D02*
X47859029Y10376354D01*
X47859029Y10376354D02*
X47920934Y10314449D01*
X47920934Y10314449D02*
X47982838Y10190640D01*
X47982838Y10190640D02*
X47982838Y10004925D01*
X47982838Y10004925D02*
X47920934Y9881116D01*
X47920934Y9881116D02*
X47859029Y9819211D01*
X47859029Y9819211D02*
X47735219Y9757306D01*
X47735219Y9757306D02*
X47239981Y9757306D01*
X48354267Y10438259D02*
X49097124Y10438259D01*
X48725696Y9138259D02*
X48725696Y10438259D01*
X42163790Y7045332D02*
X42163790Y8345332D01*
X42163790Y8345332D02*
X42659028Y8345332D01*
X42659028Y8345332D02*
X42782838Y8283427D01*
X42782838Y8283427D02*
X42844743Y8221522D01*
X42844743Y8221522D02*
X42906647Y8097713D01*
X42906647Y8097713D02*
X42906647Y7911998D01*
X42906647Y7911998D02*
X42844743Y7788189D01*
X42844743Y7788189D02*
X42782838Y7726284D01*
X42782838Y7726284D02*
X42659028Y7664379D01*
X42659028Y7664379D02*
X42163790Y7664379D01*
X43959028Y7107236D02*
X43835219Y7045332D01*
X43835219Y7045332D02*
X43587600Y7045332D01*
X43587600Y7045332D02*
X43463790Y7107236D01*
X43463790Y7107236D02*
X43401886Y7231046D01*
X43401886Y7231046D02*
X43401886Y7726284D01*
X43401886Y7726284D02*
X43463790Y7850094D01*
X43463790Y7850094D02*
X43587600Y7911998D01*
X43587600Y7911998D02*
X43835219Y7911998D01*
X43835219Y7911998D02*
X43959028Y7850094D01*
X43959028Y7850094D02*
X44020933Y7726284D01*
X44020933Y7726284D02*
X44020933Y7602475D01*
X44020933Y7602475D02*
X43401886Y7478665D01*
X44578076Y7045332D02*
X44578076Y7911998D01*
X44578076Y7664379D02*
X44639981Y7788189D01*
X44639981Y7788189D02*
X44701886Y7850094D01*
X44701886Y7850094D02*
X44825695Y7911998D01*
X44825695Y7911998D02*
X44949505Y7911998D01*
X45382838Y7045332D02*
X45382838Y7911998D01*
X45382838Y8345332D02*
X45320934Y8283427D01*
X45320934Y8283427D02*
X45382838Y8221522D01*
X45382838Y8221522D02*
X45444743Y8283427D01*
X45444743Y8283427D02*
X45382838Y8345332D01*
X45382838Y8345332D02*
X45382838Y8221522D01*
X46001886Y7911998D02*
X46001886Y6611998D01*
X46001886Y7850094D02*
X46125696Y7911998D01*
X46125696Y7911998D02*
X46373315Y7911998D01*
X46373315Y7911998D02*
X46497124Y7850094D01*
X46497124Y7850094D02*
X46559029Y7788189D01*
X46559029Y7788189D02*
X46620934Y7664379D01*
X46620934Y7664379D02*
X46620934Y7292951D01*
X46620934Y7292951D02*
X46559029Y7169141D01*
X46559029Y7169141D02*
X46497124Y7107236D01*
X46497124Y7107236D02*
X46373315Y7045332D01*
X46373315Y7045332D02*
X46125696Y7045332D01*
X46125696Y7045332D02*
X46001886Y7107236D01*
X47178076Y7045332D02*
X47178076Y8345332D01*
X47735219Y7045332D02*
X47735219Y7726284D01*
X47735219Y7726284D02*
X47673314Y7850094D01*
X47673314Y7850094D02*
X47549505Y7911998D01*
X47549505Y7911998D02*
X47363791Y7911998D01*
X47363791Y7911998D02*
X47239981Y7850094D01*
X47239981Y7850094D02*
X47178076Y7788189D01*
X48849504Y7107236D02*
X48725695Y7045332D01*
X48725695Y7045332D02*
X48478076Y7045332D01*
X48478076Y7045332D02*
X48354266Y7107236D01*
X48354266Y7107236D02*
X48292362Y7231046D01*
X48292362Y7231046D02*
X48292362Y7726284D01*
X48292362Y7726284D02*
X48354266Y7850094D01*
X48354266Y7850094D02*
X48478076Y7911998D01*
X48478076Y7911998D02*
X48725695Y7911998D01*
X48725695Y7911998D02*
X48849504Y7850094D01*
X48849504Y7850094D02*
X48911409Y7726284D01*
X48911409Y7726284D02*
X48911409Y7602475D01*
X48911409Y7602475D02*
X48292362Y7478665D01*
X49468552Y7045332D02*
X49468552Y7911998D01*
X49468552Y7664379D02*
X49530457Y7788189D01*
X49530457Y7788189D02*
X49592362Y7850094D01*
X49592362Y7850094D02*
X49716171Y7911998D01*
X49716171Y7911998D02*
X49839981Y7911998D01*
X50830457Y7045332D02*
X50830457Y7726284D01*
X50830457Y7726284D02*
X50768552Y7850094D01*
X50768552Y7850094D02*
X50644743Y7911998D01*
X50644743Y7911998D02*
X50397124Y7911998D01*
X50397124Y7911998D02*
X50273314Y7850094D01*
X50830457Y7107236D02*
X50706648Y7045332D01*
X50706648Y7045332D02*
X50397124Y7045332D01*
X50397124Y7045332D02*
X50273314Y7107236D01*
X50273314Y7107236D02*
X50211410Y7231046D01*
X50211410Y7231046D02*
X50211410Y7354856D01*
X50211410Y7354856D02*
X50273314Y7478665D01*
X50273314Y7478665D02*
X50397124Y7540570D01*
X50397124Y7540570D02*
X50706648Y7540570D01*
X50706648Y7540570D02*
X50830457Y7602475D01*
X51635219Y7045332D02*
X51511409Y7107236D01*
X51511409Y7107236D02*
X51449504Y7231046D01*
X51449504Y7231046D02*
X51449504Y8345332D01*
X54285454Y28139618D02*
X54161644Y28201523D01*
X54161644Y28201523D02*
X53975930Y28201523D01*
X53975930Y28201523D02*
X53790216Y28139618D01*
X53790216Y28139618D02*
X53666406Y28015808D01*
X53666406Y28015808D02*
X53604501Y27891999D01*
X53604501Y27891999D02*
X53542597Y27644380D01*
X53542597Y27644380D02*
X53542597Y27458666D01*
X53542597Y27458666D02*
X53604501Y27211047D01*
X53604501Y27211047D02*
X53666406Y27087237D01*
X53666406Y27087237D02*
X53790216Y26963427D01*
X53790216Y26963427D02*
X53975930Y26901523D01*
X53975930Y26901523D02*
X54099739Y26901523D01*
X54099739Y26901523D02*
X54285454Y26963427D01*
X54285454Y26963427D02*
X54347358Y27025332D01*
X54347358Y27025332D02*
X54347358Y27458666D01*
X54347358Y27458666D02*
X54099739Y27458666D01*
X54904501Y26901523D02*
X54904501Y28201523D01*
X54904501Y28201523D02*
X55647358Y26901523D01*
X55647358Y26901523D02*
X55647358Y28201523D01*
X56266406Y26901523D02*
X56266406Y28201523D01*
X56266406Y28201523D02*
X56575930Y28201523D01*
X56575930Y28201523D02*
X56761644Y28139618D01*
X56761644Y28139618D02*
X56885454Y28015808D01*
X56885454Y28015808D02*
X56947359Y27891999D01*
X56947359Y27891999D02*
X57009263Y27644380D01*
X57009263Y27644380D02*
X57009263Y27458666D01*
X57009263Y27458666D02*
X56947359Y27211047D01*
X56947359Y27211047D02*
X56885454Y27087237D01*
X56885454Y27087237D02*
X56761644Y26963427D01*
X56761644Y26963427D02*
X56575930Y26901523D01*
X56575930Y26901523D02*
X56266406Y26901523D01*
X53604501Y24808596D02*
X53604501Y26108596D01*
X53604501Y26108596D02*
X54099739Y26108596D01*
X54099739Y26108596D02*
X54223549Y26046691D01*
X54223549Y26046691D02*
X54285454Y25984786D01*
X54285454Y25984786D02*
X54347358Y25860977D01*
X54347358Y25860977D02*
X54347358Y25675262D01*
X54347358Y25675262D02*
X54285454Y25551453D01*
X54285454Y25551453D02*
X54223549Y25489548D01*
X54223549Y25489548D02*
X54099739Y25427643D01*
X54099739Y25427643D02*
X53604501Y25427643D01*
X55337835Y25489548D02*
X55523549Y25427643D01*
X55523549Y25427643D02*
X55585454Y25365739D01*
X55585454Y25365739D02*
X55647358Y25241929D01*
X55647358Y25241929D02*
X55647358Y25056215D01*
X55647358Y25056215D02*
X55585454Y24932405D01*
X55585454Y24932405D02*
X55523549Y24870500D01*
X55523549Y24870500D02*
X55399739Y24808596D01*
X55399739Y24808596D02*
X54904501Y24808596D01*
X54904501Y24808596D02*
X54904501Y26108596D01*
X54904501Y26108596D02*
X55337835Y26108596D01*
X55337835Y26108596D02*
X55461644Y26046691D01*
X55461644Y26046691D02*
X55523549Y25984786D01*
X55523549Y25984786D02*
X55585454Y25860977D01*
X55585454Y25860977D02*
X55585454Y25737167D01*
X55585454Y25737167D02*
X55523549Y25613358D01*
X55523549Y25613358D02*
X55461644Y25551453D01*
X55461644Y25551453D02*
X55337835Y25489548D01*
X55337835Y25489548D02*
X54904501Y25489548D01*
X56823549Y26108596D02*
X56204501Y26108596D01*
X56204501Y26108596D02*
X56142597Y25489548D01*
X56142597Y25489548D02*
X56204501Y25551453D01*
X56204501Y25551453D02*
X56328311Y25613358D01*
X56328311Y25613358D02*
X56637835Y25613358D01*
X56637835Y25613358D02*
X56761644Y25551453D01*
X56761644Y25551453D02*
X56823549Y25489548D01*
X56823549Y25489548D02*
X56885454Y25365739D01*
X56885454Y25365739D02*
X56885454Y25056215D01*
X56885454Y25056215D02*
X56823549Y24932405D01*
X56823549Y24932405D02*
X56761644Y24870500D01*
X56761644Y24870500D02*
X56637835Y24808596D01*
X56637835Y24808596D02*
X56328311Y24808596D01*
X56328311Y24808596D02*
X56204501Y24870500D01*
X56204501Y24870500D02*
X56142597Y24932405D01*
X53480692Y24015669D02*
X54285454Y24015669D01*
X54285454Y24015669D02*
X53852120Y23520431D01*
X53852120Y23520431D02*
X54037835Y23520431D01*
X54037835Y23520431D02*
X54161644Y23458526D01*
X54161644Y23458526D02*
X54223549Y23396621D01*
X54223549Y23396621D02*
X54285454Y23272812D01*
X54285454Y23272812D02*
X54285454Y22963288D01*
X54285454Y22963288D02*
X54223549Y22839478D01*
X54223549Y22839478D02*
X54161644Y22777573D01*
X54161644Y22777573D02*
X54037835Y22715669D01*
X54037835Y22715669D02*
X53666406Y22715669D01*
X53666406Y22715669D02*
X53542597Y22777573D01*
X53542597Y22777573D02*
X53480692Y22839478D01*
X54656882Y24015669D02*
X55090215Y22715669D01*
X55090215Y22715669D02*
X55523549Y24015669D01*
X55833073Y24015669D02*
X56637835Y24015669D01*
X56637835Y24015669D02*
X56204501Y23520431D01*
X56204501Y23520431D02*
X56390216Y23520431D01*
X56390216Y23520431D02*
X56514025Y23458526D01*
X56514025Y23458526D02*
X56575930Y23396621D01*
X56575930Y23396621D02*
X56637835Y23272812D01*
X56637835Y23272812D02*
X56637835Y22963288D01*
X56637835Y22963288D02*
X56575930Y22839478D01*
X56575930Y22839478D02*
X56514025Y22777573D01*
X56514025Y22777573D02*
X56390216Y22715669D01*
X56390216Y22715669D02*
X56018787Y22715669D01*
X56018787Y22715669D02*
X55894978Y22777573D01*
X55894978Y22777573D02*
X55833073Y22839478D01*
X62236804Y38089391D02*
X60936804Y38089391D01*
X60936804Y38089391D02*
X60936804Y38584629D01*
X60936804Y38584629D02*
X60998709Y38708439D01*
X60998709Y38708439D02*
X61060614Y38770344D01*
X61060614Y38770344D02*
X61184423Y38832248D01*
X61184423Y38832248D02*
X61370138Y38832248D01*
X61370138Y38832248D02*
X61493947Y38770344D01*
X61493947Y38770344D02*
X61555852Y38708439D01*
X61555852Y38708439D02*
X61617757Y38584629D01*
X61617757Y38584629D02*
X61617757Y38089391D01*
X60936804Y39265582D02*
X62236804Y39575106D01*
X62236804Y39575106D02*
X61308233Y39822725D01*
X61308233Y39822725D02*
X62236804Y40070344D01*
X62236804Y40070344D02*
X60936804Y40379867D01*
X62236804Y41617962D02*
X61617757Y41184629D01*
X62236804Y40875105D02*
X60936804Y40875105D01*
X60936804Y40875105D02*
X60936804Y41370343D01*
X60936804Y41370343D02*
X60998709Y41494153D01*
X60998709Y41494153D02*
X61060614Y41556058D01*
X61060614Y41556058D02*
X61184423Y41617962D01*
X61184423Y41617962D02*
X61370138Y41617962D01*
X61370138Y41617962D02*
X61493947Y41556058D01*
X61493947Y41556058D02*
X61555852Y41494153D01*
X61555852Y41494153D02*
X61617757Y41370343D01*
X61617757Y41370343D02*
X61617757Y40875105D01*
X60936804Y43041772D02*
X60936804Y43846534D01*
X60936804Y43846534D02*
X61432042Y43413200D01*
X61432042Y43413200D02*
X61432042Y43598915D01*
X61432042Y43598915D02*
X61493947Y43722724D01*
X61493947Y43722724D02*
X61555852Y43784629D01*
X61555852Y43784629D02*
X61679661Y43846534D01*
X61679661Y43846534D02*
X61989185Y43846534D01*
X61989185Y43846534D02*
X62112995Y43784629D01*
X62112995Y43784629D02*
X62174900Y43722724D01*
X62174900Y43722724D02*
X62236804Y43598915D01*
X62236804Y43598915D02*
X62236804Y43227486D01*
X62236804Y43227486D02*
X62174900Y43103677D01*
X62174900Y43103677D02*
X62112995Y43041772D01*
X60936804Y44217962D02*
X62236804Y44651295D01*
X62236804Y44651295D02*
X60936804Y45084629D01*
X60936804Y45394153D02*
X60936804Y46198915D01*
X60936804Y46198915D02*
X61432042Y45765581D01*
X61432042Y45765581D02*
X61432042Y45951296D01*
X61432042Y45951296D02*
X61493947Y46075105D01*
X61493947Y46075105D02*
X61555852Y46137010D01*
X61555852Y46137010D02*
X61679661Y46198915D01*
X61679661Y46198915D02*
X61989185Y46198915D01*
X61989185Y46198915D02*
X62112995Y46137010D01*
X62112995Y46137010D02*
X62174900Y46075105D01*
X62174900Y46075105D02*
X62236804Y45951296D01*
X62236804Y45951296D02*
X62236804Y45579867D01*
X62236804Y45579867D02*
X62174900Y45456058D01*
X62174900Y45456058D02*
X62112995Y45394153D01*
X58747358Y26901523D02*
X58314025Y27520570D01*
X58004501Y26901523D02*
X58004501Y28201523D01*
X58004501Y28201523D02*
X58499739Y28201523D01*
X58499739Y28201523D02*
X58623549Y28139618D01*
X58623549Y28139618D02*
X58685454Y28077713D01*
X58685454Y28077713D02*
X58747358Y27953904D01*
X58747358Y27953904D02*
X58747358Y27768189D01*
X58747358Y27768189D02*
X58685454Y27644380D01*
X58685454Y27644380D02*
X58623549Y27582475D01*
X58623549Y27582475D02*
X58499739Y27520570D01*
X58499739Y27520570D02*
X58004501Y27520570D01*
X59242597Y26963427D02*
X59428311Y26901523D01*
X59428311Y26901523D02*
X59737835Y26901523D01*
X59737835Y26901523D02*
X59861644Y26963427D01*
X59861644Y26963427D02*
X59923549Y27025332D01*
X59923549Y27025332D02*
X59985454Y27149142D01*
X59985454Y27149142D02*
X59985454Y27272951D01*
X59985454Y27272951D02*
X59923549Y27396761D01*
X59923549Y27396761D02*
X59861644Y27458666D01*
X59861644Y27458666D02*
X59737835Y27520570D01*
X59737835Y27520570D02*
X59490216Y27582475D01*
X59490216Y27582475D02*
X59366406Y27644380D01*
X59366406Y27644380D02*
X59304501Y27706285D01*
X59304501Y27706285D02*
X59242597Y27830094D01*
X59242597Y27830094D02*
X59242597Y27953904D01*
X59242597Y27953904D02*
X59304501Y28077713D01*
X59304501Y28077713D02*
X59366406Y28139618D01*
X59366406Y28139618D02*
X59490216Y28201523D01*
X59490216Y28201523D02*
X59799739Y28201523D01*
X59799739Y28201523D02*
X59985454Y28139618D01*
X60356882Y28201523D02*
X61099739Y28201523D01*
X60728311Y26901523D02*
X60728311Y28201523D01*
X57824978Y28562427D02*
X61093549Y28562427D01*
X58004501Y24808596D02*
X58004501Y26108596D01*
X58004501Y26108596D02*
X58499739Y26108596D01*
X58499739Y26108596D02*
X58623549Y26046691D01*
X58623549Y26046691D02*
X58685454Y25984786D01*
X58685454Y25984786D02*
X58747358Y25860977D01*
X58747358Y25860977D02*
X58747358Y25675262D01*
X58747358Y25675262D02*
X58685454Y25551453D01*
X58685454Y25551453D02*
X58623549Y25489548D01*
X58623549Y25489548D02*
X58499739Y25427643D01*
X58499739Y25427643D02*
X58004501Y25427643D01*
X59737835Y25489548D02*
X59923549Y25427643D01*
X59923549Y25427643D02*
X59985454Y25365739D01*
X59985454Y25365739D02*
X60047358Y25241929D01*
X60047358Y25241929D02*
X60047358Y25056215D01*
X60047358Y25056215D02*
X59985454Y24932405D01*
X59985454Y24932405D02*
X59923549Y24870500D01*
X59923549Y24870500D02*
X59799739Y24808596D01*
X59799739Y24808596D02*
X59304501Y24808596D01*
X59304501Y24808596D02*
X59304501Y26108596D01*
X59304501Y26108596D02*
X59737835Y26108596D01*
X59737835Y26108596D02*
X59861644Y26046691D01*
X59861644Y26046691D02*
X59923549Y25984786D01*
X59923549Y25984786D02*
X59985454Y25860977D01*
X59985454Y25860977D02*
X59985454Y25737167D01*
X59985454Y25737167D02*
X59923549Y25613358D01*
X59923549Y25613358D02*
X59861644Y25551453D01*
X59861644Y25551453D02*
X59737835Y25489548D01*
X59737835Y25489548D02*
X59304501Y25489548D01*
X60480692Y26108596D02*
X61347358Y26108596D01*
X61347358Y26108596D02*
X60790216Y24808596D01*
X58004501Y22715669D02*
X58004501Y24015669D01*
X58004501Y24015669D02*
X58499739Y24015669D01*
X58499739Y24015669D02*
X58623549Y23953764D01*
X58623549Y23953764D02*
X58685454Y23891859D01*
X58685454Y23891859D02*
X58747358Y23768050D01*
X58747358Y23768050D02*
X58747358Y23582335D01*
X58747358Y23582335D02*
X58685454Y23458526D01*
X58685454Y23458526D02*
X58623549Y23396621D01*
X58623549Y23396621D02*
X58499739Y23334716D01*
X58499739Y23334716D02*
X58004501Y23334716D01*
X59737835Y23396621D02*
X59923549Y23334716D01*
X59923549Y23334716D02*
X59985454Y23272812D01*
X59985454Y23272812D02*
X60047358Y23149002D01*
X60047358Y23149002D02*
X60047358Y22963288D01*
X60047358Y22963288D02*
X59985454Y22839478D01*
X59985454Y22839478D02*
X59923549Y22777573D01*
X59923549Y22777573D02*
X59799739Y22715669D01*
X59799739Y22715669D02*
X59304501Y22715669D01*
X59304501Y22715669D02*
X59304501Y24015669D01*
X59304501Y24015669D02*
X59737835Y24015669D01*
X59737835Y24015669D02*
X59861644Y23953764D01*
X59861644Y23953764D02*
X59923549Y23891859D01*
X59923549Y23891859D02*
X59985454Y23768050D01*
X59985454Y23768050D02*
X59985454Y23644240D01*
X59985454Y23644240D02*
X59923549Y23520431D01*
X59923549Y23520431D02*
X59861644Y23458526D01*
X59861644Y23458526D02*
X59737835Y23396621D01*
X59737835Y23396621D02*
X59304501Y23396621D01*
X61161644Y24015669D02*
X60914025Y24015669D01*
X60914025Y24015669D02*
X60790216Y23953764D01*
X60790216Y23953764D02*
X60728311Y23891859D01*
X60728311Y23891859D02*
X60604501Y23706145D01*
X60604501Y23706145D02*
X60542597Y23458526D01*
X60542597Y23458526D02*
X60542597Y22963288D01*
X60542597Y22963288D02*
X60604501Y22839478D01*
X60604501Y22839478D02*
X60666406Y22777573D01*
X60666406Y22777573D02*
X60790216Y22715669D01*
X60790216Y22715669D02*
X61037835Y22715669D01*
X61037835Y22715669D02*
X61161644Y22777573D01*
X61161644Y22777573D02*
X61223549Y22839478D01*
X61223549Y22839478D02*
X61285454Y22963288D01*
X61285454Y22963288D02*
X61285454Y23272812D01*
X61285454Y23272812D02*
X61223549Y23396621D01*
X61223549Y23396621D02*
X61161644Y23458526D01*
X61161644Y23458526D02*
X61037835Y23520431D01*
X61037835Y23520431D02*
X60790216Y23520431D01*
X60790216Y23520431D02*
X60666406Y23458526D01*
X60666406Y23458526D02*
X60604501Y23396621D01*
X60604501Y23396621D02*
X60542597Y23272812D01*
X30945153Y39850396D02*
X31688010Y39850396D01*
X31316582Y38550396D02*
X31316582Y39850396D01*
X32121343Y38550396D02*
X32121343Y39850396D01*
X32678486Y38550396D02*
X32678486Y39231348D01*
X32678486Y39231348D02*
X32616581Y39355158D01*
X32616581Y39355158D02*
X32492772Y39417062D01*
X32492772Y39417062D02*
X32307058Y39417062D01*
X32307058Y39417062D02*
X32183248Y39355158D01*
X32183248Y39355158D02*
X32121343Y39293253D01*
X33854676Y39417062D02*
X33854676Y38550396D01*
X33297533Y39417062D02*
X33297533Y38736110D01*
X33297533Y38736110D02*
X33359438Y38612300D01*
X33359438Y38612300D02*
X33483248Y38550396D01*
X33483248Y38550396D02*
X33668962Y38550396D01*
X33668962Y38550396D02*
X33792771Y38612300D01*
X33792771Y38612300D02*
X33854676Y38674205D01*
X34473723Y39417062D02*
X34473723Y38550396D01*
X34473723Y39293253D02*
X34535628Y39355158D01*
X34535628Y39355158D02*
X34659438Y39417062D01*
X34659438Y39417062D02*
X34845152Y39417062D01*
X34845152Y39417062D02*
X34968961Y39355158D01*
X34968961Y39355158D02*
X35030866Y39231348D01*
X35030866Y39231348D02*
X35030866Y38550396D01*
X36207056Y38550396D02*
X36207056Y39850396D01*
X36207056Y38612300D02*
X36083247Y38550396D01*
X36083247Y38550396D02*
X35835628Y38550396D01*
X35835628Y38550396D02*
X35711818Y38612300D01*
X35711818Y38612300D02*
X35649913Y38674205D01*
X35649913Y38674205D02*
X35588009Y38798015D01*
X35588009Y38798015D02*
X35588009Y39169443D01*
X35588009Y39169443D02*
X35649913Y39293253D01*
X35649913Y39293253D02*
X35711818Y39355158D01*
X35711818Y39355158D02*
X35835628Y39417062D01*
X35835628Y39417062D02*
X36083247Y39417062D01*
X36083247Y39417062D02*
X36207056Y39355158D01*
X37321341Y38612300D02*
X37197532Y38550396D01*
X37197532Y38550396D02*
X36949913Y38550396D01*
X36949913Y38550396D02*
X36826103Y38612300D01*
X36826103Y38612300D02*
X36764199Y38736110D01*
X36764199Y38736110D02*
X36764199Y39231348D01*
X36764199Y39231348D02*
X36826103Y39355158D01*
X36826103Y39355158D02*
X36949913Y39417062D01*
X36949913Y39417062D02*
X37197532Y39417062D01*
X37197532Y39417062D02*
X37321341Y39355158D01*
X37321341Y39355158D02*
X37383246Y39231348D01*
X37383246Y39231348D02*
X37383246Y39107539D01*
X37383246Y39107539D02*
X36764199Y38983729D01*
X37940389Y38550396D02*
X37940389Y39417062D01*
X37940389Y39169443D02*
X38002294Y39293253D01*
X38002294Y39293253D02*
X38064199Y39355158D01*
X38064199Y39355158D02*
X38188008Y39417062D01*
X38188008Y39417062D02*
X38311818Y39417062D01*
X39178485Y39231348D02*
X38745151Y39231348D01*
X38745151Y38550396D02*
X38745151Y39850396D01*
X38745151Y39850396D02*
X39364199Y39850396D01*
X40045152Y38550396D02*
X39921342Y38612300D01*
X39921342Y38612300D02*
X39859437Y38736110D01*
X39859437Y38736110D02*
X39859437Y39850396D01*
X40416580Y39417062D02*
X40726104Y38550396D01*
X41035627Y39417062D02*
X40726104Y38550396D01*
X40726104Y38550396D02*
X40602294Y38240872D01*
X40602294Y38240872D02*
X40540389Y38178967D01*
X40540389Y38178967D02*
X40416580Y38117062D01*
X41530865Y38674205D02*
X41592770Y38612300D01*
X41592770Y38612300D02*
X41530865Y38550396D01*
X41530865Y38550396D02*
X41468961Y38612300D01*
X41468961Y38612300D02*
X41530865Y38674205D01*
X41530865Y38674205D02*
X41530865Y38550396D01*
X42707056Y38612300D02*
X42583247Y38550396D01*
X42583247Y38550396D02*
X42335628Y38550396D01*
X42335628Y38550396D02*
X42211818Y38612300D01*
X42211818Y38612300D02*
X42149913Y38674205D01*
X42149913Y38674205D02*
X42088009Y38798015D01*
X42088009Y38798015D02*
X42088009Y39169443D01*
X42088009Y39169443D02*
X42149913Y39293253D01*
X42149913Y39293253D02*
X42211818Y39355158D01*
X42211818Y39355158D02*
X42335628Y39417062D01*
X42335628Y39417062D02*
X42583247Y39417062D01*
X42583247Y39417062D02*
X42707056Y39355158D01*
X43140390Y39417062D02*
X43821342Y39417062D01*
X43821342Y39417062D02*
X43140390Y38550396D01*
X43140390Y38550396D02*
X43821342Y38550396D01*
X10635638Y36264396D02*
X10016590Y36264396D01*
X10016590Y36264396D02*
X10016590Y37564396D01*
X11068971Y36945348D02*
X11502305Y36945348D01*
X11688019Y36264396D02*
X11068971Y36264396D01*
X11068971Y36264396D02*
X11068971Y37564396D01*
X11068971Y37564396D02*
X11688019Y37564396D01*
X12245161Y36264396D02*
X12245161Y37564396D01*
X12245161Y37564396D02*
X12554685Y37564396D01*
X12554685Y37564396D02*
X12740399Y37502491D01*
X12740399Y37502491D02*
X12864209Y37378681D01*
X12864209Y37378681D02*
X12926114Y37254872D01*
X12926114Y37254872D02*
X12988018Y37007253D01*
X12988018Y37007253D02*
X12988018Y36821539D01*
X12988018Y36821539D02*
X12926114Y36573920D01*
X12926114Y36573920D02*
X12864209Y36450110D01*
X12864209Y36450110D02*
X12740399Y36326300D01*
X12740399Y36326300D02*
X12554685Y36264396D01*
X12554685Y36264396D02*
X12245161Y36264396D01*
X13483257Y37440586D02*
X13545161Y37502491D01*
X13545161Y37502491D02*
X13668971Y37564396D01*
X13668971Y37564396D02*
X13978495Y37564396D01*
X13978495Y37564396D02*
X14102304Y37502491D01*
X14102304Y37502491D02*
X14164209Y37440586D01*
X14164209Y37440586D02*
X14226114Y37316777D01*
X14226114Y37316777D02*
X14226114Y37192967D01*
X14226114Y37192967D02*
X14164209Y37007253D01*
X14164209Y37007253D02*
X13421352Y36264396D01*
X13421352Y36264396D02*
X14226114Y36264396D01*
X10584838Y40937996D02*
X9965790Y40937996D01*
X9965790Y40937996D02*
X9965790Y42237996D01*
X11018171Y41618948D02*
X11451505Y41618948D01*
X11637219Y40937996D02*
X11018171Y40937996D01*
X11018171Y40937996D02*
X11018171Y42237996D01*
X11018171Y42237996D02*
X11637219Y42237996D01*
X12194361Y40937996D02*
X12194361Y42237996D01*
X12194361Y42237996D02*
X12503885Y42237996D01*
X12503885Y42237996D02*
X12689599Y42176091D01*
X12689599Y42176091D02*
X12813409Y42052281D01*
X12813409Y42052281D02*
X12875314Y41928472D01*
X12875314Y41928472D02*
X12937218Y41680853D01*
X12937218Y41680853D02*
X12937218Y41495139D01*
X12937218Y41495139D02*
X12875314Y41247520D01*
X12875314Y41247520D02*
X12813409Y41123710D01*
X12813409Y41123710D02*
X12689599Y40999900D01*
X12689599Y40999900D02*
X12503885Y40937996D01*
X12503885Y40937996D02*
X12194361Y40937996D01*
X14175314Y40937996D02*
X13432457Y40937996D01*
X13803885Y40937996D02*
X13803885Y42237996D01*
X13803885Y42237996D02*
X13680076Y42052281D01*
X13680076Y42052281D02*
X13556266Y41928472D01*
X13556266Y41928472D02*
X13432457Y41866567D01*
X57689448Y9034127D02*
X57875162Y8972223D01*
X57875162Y8972223D02*
X58184686Y8972223D01*
X58184686Y8972223D02*
X58308495Y9034127D01*
X58308495Y9034127D02*
X58370400Y9096032D01*
X58370400Y9096032D02*
X58432305Y9219842D01*
X58432305Y9219842D02*
X58432305Y9343651D01*
X58432305Y9343651D02*
X58370400Y9467461D01*
X58370400Y9467461D02*
X58308495Y9529366D01*
X58308495Y9529366D02*
X58184686Y9591270D01*
X58184686Y9591270D02*
X57937067Y9653175D01*
X57937067Y9653175D02*
X57813257Y9715080D01*
X57813257Y9715080D02*
X57751352Y9776985D01*
X57751352Y9776985D02*
X57689448Y9900794D01*
X57689448Y9900794D02*
X57689448Y10024604D01*
X57689448Y10024604D02*
X57751352Y10148413D01*
X57751352Y10148413D02*
X57813257Y10210318D01*
X57813257Y10210318D02*
X57937067Y10272223D01*
X57937067Y10272223D02*
X58246590Y10272223D01*
X58246590Y10272223D02*
X58432305Y10210318D01*
X58989447Y8972223D02*
X58989447Y10272223D01*
X58989447Y10272223D02*
X59484685Y10272223D01*
X59484685Y10272223D02*
X59608495Y10210318D01*
X59608495Y10210318D02*
X59670400Y10148413D01*
X59670400Y10148413D02*
X59732304Y10024604D01*
X59732304Y10024604D02*
X59732304Y9838889D01*
X59732304Y9838889D02*
X59670400Y9715080D01*
X59670400Y9715080D02*
X59608495Y9653175D01*
X59608495Y9653175D02*
X59484685Y9591270D01*
X59484685Y9591270D02*
X58989447Y9591270D01*
X60289447Y8972223D02*
X60289447Y10272223D01*
X56018019Y6879296D02*
X56018019Y7745962D01*
X56018019Y7622153D02*
X56079924Y7684058D01*
X56079924Y7684058D02*
X56203734Y7745962D01*
X56203734Y7745962D02*
X56389448Y7745962D01*
X56389448Y7745962D02*
X56513257Y7684058D01*
X56513257Y7684058D02*
X56575162Y7560248D01*
X56575162Y7560248D02*
X56575162Y6879296D01*
X56575162Y7560248D02*
X56637067Y7684058D01*
X56637067Y7684058D02*
X56760876Y7745962D01*
X56760876Y7745962D02*
X56946591Y7745962D01*
X56946591Y7745962D02*
X57070400Y7684058D01*
X57070400Y7684058D02*
X57132305Y7560248D01*
X57132305Y7560248D02*
X57132305Y6879296D01*
X58308495Y6879296D02*
X58308495Y7560248D01*
X58308495Y7560248D02*
X58246590Y7684058D01*
X58246590Y7684058D02*
X58122781Y7745962D01*
X58122781Y7745962D02*
X57875162Y7745962D01*
X57875162Y7745962D02*
X57751352Y7684058D01*
X58308495Y6941200D02*
X58184686Y6879296D01*
X58184686Y6879296D02*
X57875162Y6879296D01*
X57875162Y6879296D02*
X57751352Y6941200D01*
X57751352Y6941200D02*
X57689448Y7065010D01*
X57689448Y7065010D02*
X57689448Y7188820D01*
X57689448Y7188820D02*
X57751352Y7312629D01*
X57751352Y7312629D02*
X57875162Y7374534D01*
X57875162Y7374534D02*
X58184686Y7374534D01*
X58184686Y7374534D02*
X58308495Y7436439D01*
X58865638Y6941200D02*
X58989447Y6879296D01*
X58989447Y6879296D02*
X59237066Y6879296D01*
X59237066Y6879296D02*
X59360876Y6941200D01*
X59360876Y6941200D02*
X59422780Y7065010D01*
X59422780Y7065010D02*
X59422780Y7126915D01*
X59422780Y7126915D02*
X59360876Y7250724D01*
X59360876Y7250724D02*
X59237066Y7312629D01*
X59237066Y7312629D02*
X59051352Y7312629D01*
X59051352Y7312629D02*
X58927542Y7374534D01*
X58927542Y7374534D02*
X58865638Y7498343D01*
X58865638Y7498343D02*
X58865638Y7560248D01*
X58865638Y7560248D02*
X58927542Y7684058D01*
X58927542Y7684058D02*
X59051352Y7745962D01*
X59051352Y7745962D02*
X59237066Y7745962D01*
X59237066Y7745962D02*
X59360876Y7684058D01*
X59794209Y7745962D02*
X60289447Y7745962D01*
X59979923Y8179296D02*
X59979923Y7065010D01*
X59979923Y7065010D02*
X60041828Y6941200D01*
X60041828Y6941200D02*
X60165638Y6879296D01*
X60165638Y6879296D02*
X60289447Y6879296D01*
X61218018Y6941200D02*
X61094209Y6879296D01*
X61094209Y6879296D02*
X60846590Y6879296D01*
X60846590Y6879296D02*
X60722780Y6941200D01*
X60722780Y6941200D02*
X60660876Y7065010D01*
X60660876Y7065010D02*
X60660876Y7560248D01*
X60660876Y7560248D02*
X60722780Y7684058D01*
X60722780Y7684058D02*
X60846590Y7745962D01*
X60846590Y7745962D02*
X61094209Y7745962D01*
X61094209Y7745962D02*
X61218018Y7684058D01*
X61218018Y7684058D02*
X61279923Y7560248D01*
X61279923Y7560248D02*
X61279923Y7436439D01*
X61279923Y7436439D02*
X60660876Y7312629D01*
X61837066Y6879296D02*
X61837066Y7745962D01*
X61837066Y7498343D02*
X61898971Y7622153D01*
X61898971Y7622153D02*
X61960876Y7684058D01*
X61960876Y7684058D02*
X62084685Y7745962D01*
X62084685Y7745962D02*
X62208495Y7745962D01*
X10686438Y31692396D02*
X10067390Y31692396D01*
X10067390Y31692396D02*
X10067390Y32992396D01*
X11119771Y32373348D02*
X11553105Y32373348D01*
X11738819Y31692396D02*
X11119771Y31692396D01*
X11119771Y31692396D02*
X11119771Y32992396D01*
X11119771Y32992396D02*
X11738819Y32992396D01*
X12295961Y31692396D02*
X12295961Y32992396D01*
X12295961Y32992396D02*
X12605485Y32992396D01*
X12605485Y32992396D02*
X12791199Y32930491D01*
X12791199Y32930491D02*
X12915009Y32806681D01*
X12915009Y32806681D02*
X12976914Y32682872D01*
X12976914Y32682872D02*
X13038818Y32435253D01*
X13038818Y32435253D02*
X13038818Y32249539D01*
X13038818Y32249539D02*
X12976914Y32001920D01*
X12976914Y32001920D02*
X12915009Y31878110D01*
X12915009Y31878110D02*
X12791199Y31754300D01*
X12791199Y31754300D02*
X12605485Y31692396D01*
X12605485Y31692396D02*
X12295961Y31692396D01*
X13472152Y32992396D02*
X14276914Y32992396D01*
X14276914Y32992396D02*
X13843580Y32497158D01*
X13843580Y32497158D02*
X14029295Y32497158D01*
X14029295Y32497158D02*
X14153104Y32435253D01*
X14153104Y32435253D02*
X14215009Y32373348D01*
X14215009Y32373348D02*
X14276914Y32249539D01*
X14276914Y32249539D02*
X14276914Y31940015D01*
X14276914Y31940015D02*
X14215009Y31816205D01*
X14215009Y31816205D02*
X14153104Y31754300D01*
X14153104Y31754300D02*
X14029295Y31692396D01*
X14029295Y31692396D02*
X13657866Y31692396D01*
X13657866Y31692396D02*
X13534057Y31754300D01*
X13534057Y31754300D02*
X13472152Y31816205D01*
X15769296Y10518459D02*
X16512153Y10518459D01*
X16140725Y9218459D02*
X16140725Y10518459D01*
X17378820Y9899411D02*
X16945486Y9899411D01*
X16945486Y9218459D02*
X16945486Y10518459D01*
X16945486Y10518459D02*
X17564534Y10518459D01*
X19050248Y9218459D02*
X19050248Y10518459D01*
X19050248Y10518459D02*
X19545486Y10518459D01*
X19545486Y10518459D02*
X19669296Y10456554D01*
X19669296Y10456554D02*
X19731201Y10394649D01*
X19731201Y10394649D02*
X19793105Y10270840D01*
X19793105Y10270840D02*
X19793105Y10085125D01*
X19793105Y10085125D02*
X19731201Y9961316D01*
X19731201Y9961316D02*
X19669296Y9899411D01*
X19669296Y9899411D02*
X19545486Y9837506D01*
X19545486Y9837506D02*
X19050248Y9837506D01*
X20907391Y9218459D02*
X20907391Y9899411D01*
X20907391Y9899411D02*
X20845486Y10023221D01*
X20845486Y10023221D02*
X20721677Y10085125D01*
X20721677Y10085125D02*
X20474058Y10085125D01*
X20474058Y10085125D02*
X20350248Y10023221D01*
X20907391Y9280363D02*
X20783582Y9218459D01*
X20783582Y9218459D02*
X20474058Y9218459D01*
X20474058Y9218459D02*
X20350248Y9280363D01*
X20350248Y9280363D02*
X20288344Y9404173D01*
X20288344Y9404173D02*
X20288344Y9527983D01*
X20288344Y9527983D02*
X20350248Y9651792D01*
X20350248Y9651792D02*
X20474058Y9713697D01*
X20474058Y9713697D02*
X20783582Y9713697D01*
X20783582Y9713697D02*
X20907391Y9775602D01*
X21402629Y10085125D02*
X21712153Y9218459D01*
X22021676Y10085125D02*
X21712153Y9218459D01*
X21712153Y9218459D02*
X21588343Y8908935D01*
X21588343Y8908935D02*
X21526438Y8847030D01*
X21526438Y8847030D02*
X21402629Y8785125D01*
X22702629Y9218459D02*
X22578819Y9280363D01*
X22578819Y9280363D02*
X22516914Y9404173D01*
X22516914Y9404173D02*
X22516914Y10518459D01*
X23383581Y9218459D02*
X23259771Y9280363D01*
X23259771Y9280363D02*
X23197866Y9342268D01*
X23197866Y9342268D02*
X23135962Y9466078D01*
X23135962Y9466078D02*
X23135962Y9837506D01*
X23135962Y9837506D02*
X23197866Y9961316D01*
X23197866Y9961316D02*
X23259771Y10023221D01*
X23259771Y10023221D02*
X23383581Y10085125D01*
X23383581Y10085125D02*
X23569295Y10085125D01*
X23569295Y10085125D02*
X23693104Y10023221D01*
X23693104Y10023221D02*
X23755009Y9961316D01*
X23755009Y9961316D02*
X23816914Y9837506D01*
X23816914Y9837506D02*
X23816914Y9466078D01*
X23816914Y9466078D02*
X23755009Y9342268D01*
X23755009Y9342268D02*
X23693104Y9280363D01*
X23693104Y9280363D02*
X23569295Y9218459D01*
X23569295Y9218459D02*
X23383581Y9218459D01*
X24931199Y9218459D02*
X24931199Y9899411D01*
X24931199Y9899411D02*
X24869294Y10023221D01*
X24869294Y10023221D02*
X24745485Y10085125D01*
X24745485Y10085125D02*
X24497866Y10085125D01*
X24497866Y10085125D02*
X24374056Y10023221D01*
X24931199Y9280363D02*
X24807390Y9218459D01*
X24807390Y9218459D02*
X24497866Y9218459D01*
X24497866Y9218459D02*
X24374056Y9280363D01*
X24374056Y9280363D02*
X24312152Y9404173D01*
X24312152Y9404173D02*
X24312152Y9527983D01*
X24312152Y9527983D02*
X24374056Y9651792D01*
X24374056Y9651792D02*
X24497866Y9713697D01*
X24497866Y9713697D02*
X24807390Y9713697D01*
X24807390Y9713697D02*
X24931199Y9775602D01*
X26107389Y9218459D02*
X26107389Y10518459D01*
X26107389Y9280363D02*
X25983580Y9218459D01*
X25983580Y9218459D02*
X25735961Y9218459D01*
X25735961Y9218459D02*
X25612151Y9280363D01*
X25612151Y9280363D02*
X25550246Y9342268D01*
X25550246Y9342268D02*
X25488342Y9466078D01*
X25488342Y9466078D02*
X25488342Y9837506D01*
X25488342Y9837506D02*
X25550246Y9961316D01*
X25550246Y9961316D02*
X25612151Y10023221D01*
X25612151Y10023221D02*
X25735961Y10085125D01*
X25735961Y10085125D02*
X25983580Y10085125D01*
X25983580Y10085125D02*
X26107389Y10023221D01*
X17193105Y7249341D02*
X17131201Y7187436D01*
X17131201Y7187436D02*
X16945486Y7125532D01*
X16945486Y7125532D02*
X16821677Y7125532D01*
X16821677Y7125532D02*
X16635963Y7187436D01*
X16635963Y7187436D02*
X16512153Y7311246D01*
X16512153Y7311246D02*
X16450248Y7435056D01*
X16450248Y7435056D02*
X16388344Y7682675D01*
X16388344Y7682675D02*
X16388344Y7868389D01*
X16388344Y7868389D02*
X16450248Y8116008D01*
X16450248Y8116008D02*
X16512153Y8239817D01*
X16512153Y8239817D02*
X16635963Y8363627D01*
X16635963Y8363627D02*
X16821677Y8425532D01*
X16821677Y8425532D02*
X16945486Y8425532D01*
X16945486Y8425532D02*
X17131201Y8363627D01*
X17131201Y8363627D02*
X17193105Y8301722D01*
X17935963Y7125532D02*
X17812153Y7187436D01*
X17812153Y7187436D02*
X17750248Y7249341D01*
X17750248Y7249341D02*
X17688344Y7373151D01*
X17688344Y7373151D02*
X17688344Y7744579D01*
X17688344Y7744579D02*
X17750248Y7868389D01*
X17750248Y7868389D02*
X17812153Y7930294D01*
X17812153Y7930294D02*
X17935963Y7992198D01*
X17935963Y7992198D02*
X18121677Y7992198D01*
X18121677Y7992198D02*
X18245486Y7930294D01*
X18245486Y7930294D02*
X18307391Y7868389D01*
X18307391Y7868389D02*
X18369296Y7744579D01*
X18369296Y7744579D02*
X18369296Y7373151D01*
X18369296Y7373151D02*
X18307391Y7249341D01*
X18307391Y7249341D02*
X18245486Y7187436D01*
X18245486Y7187436D02*
X18121677Y7125532D01*
X18121677Y7125532D02*
X17935963Y7125532D01*
X18926438Y7992198D02*
X18926438Y7125532D01*
X18926438Y7868389D02*
X18988343Y7930294D01*
X18988343Y7930294D02*
X19112153Y7992198D01*
X19112153Y7992198D02*
X19297867Y7992198D01*
X19297867Y7992198D02*
X19421676Y7930294D01*
X19421676Y7930294D02*
X19483581Y7806484D01*
X19483581Y7806484D02*
X19483581Y7125532D01*
X20102628Y7992198D02*
X20102628Y7125532D01*
X20102628Y7868389D02*
X20164533Y7930294D01*
X20164533Y7930294D02*
X20288343Y7992198D01*
X20288343Y7992198D02*
X20474057Y7992198D01*
X20474057Y7992198D02*
X20597866Y7930294D01*
X20597866Y7930294D02*
X20659771Y7806484D01*
X20659771Y7806484D02*
X20659771Y7125532D01*
X21774056Y7187436D02*
X21650247Y7125532D01*
X21650247Y7125532D02*
X21402628Y7125532D01*
X21402628Y7125532D02*
X21278818Y7187436D01*
X21278818Y7187436D02*
X21216914Y7311246D01*
X21216914Y7311246D02*
X21216914Y7806484D01*
X21216914Y7806484D02*
X21278818Y7930294D01*
X21278818Y7930294D02*
X21402628Y7992198D01*
X21402628Y7992198D02*
X21650247Y7992198D01*
X21650247Y7992198D02*
X21774056Y7930294D01*
X21774056Y7930294D02*
X21835961Y7806484D01*
X21835961Y7806484D02*
X21835961Y7682675D01*
X21835961Y7682675D02*
X21216914Y7558865D01*
X22950247Y7187436D02*
X22826438Y7125532D01*
X22826438Y7125532D02*
X22578819Y7125532D01*
X22578819Y7125532D02*
X22455009Y7187436D01*
X22455009Y7187436D02*
X22393104Y7249341D01*
X22393104Y7249341D02*
X22331200Y7373151D01*
X22331200Y7373151D02*
X22331200Y7744579D01*
X22331200Y7744579D02*
X22393104Y7868389D01*
X22393104Y7868389D02*
X22455009Y7930294D01*
X22455009Y7930294D02*
X22578819Y7992198D01*
X22578819Y7992198D02*
X22826438Y7992198D01*
X22826438Y7992198D02*
X22950247Y7930294D01*
X23321676Y7992198D02*
X23816914Y7992198D01*
X23507390Y8425532D02*
X23507390Y7311246D01*
X23507390Y7311246D02*
X23569295Y7187436D01*
X23569295Y7187436D02*
X23693105Y7125532D01*
X23693105Y7125532D02*
X23816914Y7125532D01*
X24435962Y7125532D02*
X24312152Y7187436D01*
X24312152Y7187436D02*
X24250247Y7249341D01*
X24250247Y7249341D02*
X24188343Y7373151D01*
X24188343Y7373151D02*
X24188343Y7744579D01*
X24188343Y7744579D02*
X24250247Y7868389D01*
X24250247Y7868389D02*
X24312152Y7930294D01*
X24312152Y7930294D02*
X24435962Y7992198D01*
X24435962Y7992198D02*
X24621676Y7992198D01*
X24621676Y7992198D02*
X24745485Y7930294D01*
X24745485Y7930294D02*
X24807390Y7868389D01*
X24807390Y7868389D02*
X24869295Y7744579D01*
X24869295Y7744579D02*
X24869295Y7373151D01*
X24869295Y7373151D02*
X24807390Y7249341D01*
X24807390Y7249341D02*
X24745485Y7187436D01*
X24745485Y7187436D02*
X24621676Y7125532D01*
X24621676Y7125532D02*
X24435962Y7125532D01*
X25426437Y7125532D02*
X25426437Y7992198D01*
X25426437Y7744579D02*
X25488342Y7868389D01*
X25488342Y7868389D02*
X25550247Y7930294D01*
X25550247Y7930294D02*
X25674056Y7992198D01*
X25674056Y7992198D02*
X25797866Y7992198D01*
X33579752Y9526823D02*
X33579752Y10826823D01*
X34136896Y10703013D02*
X34198800Y10764918D01*
X34198800Y10764918D02*
X34322610Y10826823D01*
X34322610Y10826823D02*
X34632134Y10826823D01*
X34632134Y10826823D02*
X34755943Y10764918D01*
X34755943Y10764918D02*
X34817848Y10703013D01*
X34817848Y10703013D02*
X34879753Y10579204D01*
X34879753Y10579204D02*
X34879753Y10455394D01*
X34879753Y10455394D02*
X34817848Y10269680D01*
X34817848Y10269680D02*
X34074991Y9526823D01*
X34074991Y9526823D02*
X34879753Y9526823D01*
X36179752Y9650632D02*
X36117848Y9588727D01*
X36117848Y9588727D02*
X35932133Y9526823D01*
X35932133Y9526823D02*
X35808324Y9526823D01*
X35808324Y9526823D02*
X35622610Y9588727D01*
X35622610Y9588727D02*
X35498800Y9712537D01*
X35498800Y9712537D02*
X35436895Y9836347D01*
X35436895Y9836347D02*
X35374991Y10083966D01*
X35374991Y10083966D02*
X35374991Y10269680D01*
X35374991Y10269680D02*
X35436895Y10517299D01*
X35436895Y10517299D02*
X35498800Y10641108D01*
X35498800Y10641108D02*
X35622610Y10764918D01*
X35622610Y10764918D02*
X35808324Y10826823D01*
X35808324Y10826823D02*
X35932133Y10826823D01*
X35932133Y10826823D02*
X36117848Y10764918D01*
X36117848Y10764918D02*
X36179752Y10703013D01*
X31846419Y7433896D02*
X31846419Y8300562D01*
X31846419Y8176753D02*
X31908324Y8238658D01*
X31908324Y8238658D02*
X32032134Y8300562D01*
X32032134Y8300562D02*
X32217848Y8300562D01*
X32217848Y8300562D02*
X32341657Y8238658D01*
X32341657Y8238658D02*
X32403562Y8114848D01*
X32403562Y8114848D02*
X32403562Y7433896D01*
X32403562Y8114848D02*
X32465467Y8238658D01*
X32465467Y8238658D02*
X32589276Y8300562D01*
X32589276Y8300562D02*
X32774991Y8300562D01*
X32774991Y8300562D02*
X32898800Y8238658D01*
X32898800Y8238658D02*
X32960705Y8114848D01*
X32960705Y8114848D02*
X32960705Y7433896D01*
X34136895Y7433896D02*
X34136895Y8114848D01*
X34136895Y8114848D02*
X34074990Y8238658D01*
X34074990Y8238658D02*
X33951181Y8300562D01*
X33951181Y8300562D02*
X33703562Y8300562D01*
X33703562Y8300562D02*
X33579752Y8238658D01*
X34136895Y7495800D02*
X34013086Y7433896D01*
X34013086Y7433896D02*
X33703562Y7433896D01*
X33703562Y7433896D02*
X33579752Y7495800D01*
X33579752Y7495800D02*
X33517848Y7619610D01*
X33517848Y7619610D02*
X33517848Y7743420D01*
X33517848Y7743420D02*
X33579752Y7867229D01*
X33579752Y7867229D02*
X33703562Y7929134D01*
X33703562Y7929134D02*
X34013086Y7929134D01*
X34013086Y7929134D02*
X34136895Y7991039D01*
X34694038Y7495800D02*
X34817847Y7433896D01*
X34817847Y7433896D02*
X35065466Y7433896D01*
X35065466Y7433896D02*
X35189276Y7495800D01*
X35189276Y7495800D02*
X35251180Y7619610D01*
X35251180Y7619610D02*
X35251180Y7681515D01*
X35251180Y7681515D02*
X35189276Y7805324D01*
X35189276Y7805324D02*
X35065466Y7867229D01*
X35065466Y7867229D02*
X34879752Y7867229D01*
X34879752Y7867229D02*
X34755942Y7929134D01*
X34755942Y7929134D02*
X34694038Y8052943D01*
X34694038Y8052943D02*
X34694038Y8114848D01*
X34694038Y8114848D02*
X34755942Y8238658D01*
X34755942Y8238658D02*
X34879752Y8300562D01*
X34879752Y8300562D02*
X35065466Y8300562D01*
X35065466Y8300562D02*
X35189276Y8238658D01*
X35622609Y8300562D02*
X36117847Y8300562D01*
X35808323Y8733896D02*
X35808323Y7619610D01*
X35808323Y7619610D02*
X35870228Y7495800D01*
X35870228Y7495800D02*
X35994038Y7433896D01*
X35994038Y7433896D02*
X36117847Y7433896D01*
X37046418Y7495800D02*
X36922609Y7433896D01*
X36922609Y7433896D02*
X36674990Y7433896D01*
X36674990Y7433896D02*
X36551180Y7495800D01*
X36551180Y7495800D02*
X36489276Y7619610D01*
X36489276Y7619610D02*
X36489276Y8114848D01*
X36489276Y8114848D02*
X36551180Y8238658D01*
X36551180Y8238658D02*
X36674990Y8300562D01*
X36674990Y8300562D02*
X36922609Y8300562D01*
X36922609Y8300562D02*
X37046418Y8238658D01*
X37046418Y8238658D02*
X37108323Y8114848D01*
X37108323Y8114848D02*
X37108323Y7991039D01*
X37108323Y7991039D02*
X36489276Y7867229D01*
X37665466Y7433896D02*
X37665466Y8300562D01*
X37665466Y8052943D02*
X37727371Y8176753D01*
X37727371Y8176753D02*
X37789276Y8238658D01*
X37789276Y8238658D02*
X37913085Y8300562D01*
X37913085Y8300562D02*
X38036895Y8300562D01*
D10*
%TO.C,J3*%
X46177200Y29362400D02*
X51257200Y29362400D01*
X46177200Y21742400D02*
X46177200Y29362400D01*
X51257200Y29362400D02*
X51257200Y21742400D01*
X51257200Y21742400D02*
X46177200Y21742400D01*
%TO.C,J5*%
X21590000Y54610000D02*
X59690000Y54610000D01*
X21590000Y49530000D02*
X21590000Y54610000D01*
X59690000Y54610000D02*
X59690000Y49530000D01*
X59690000Y49530000D02*
X21590000Y49530000D01*
D13*
%TO.C,G1*%
G36*
X19681513Y23602245D02*
G01*
X19183474Y23602245D01*
X19183474Y22163465D01*
X18862515Y22163465D01*
X18862515Y23602245D01*
X18364476Y23602245D01*
X18364476Y23912136D01*
X19681513Y23912136D01*
X19681513Y23602245D01*
G37*
G36*
X20179552Y23225948D02*
G01*
X20987483Y23225948D01*
X20987483Y23912136D01*
X21308441Y23912136D01*
X21308441Y22163465D01*
X20987483Y22163465D01*
X20987483Y22916057D01*
X20179552Y22916057D01*
X20179552Y22163465D01*
X19858594Y22163465D01*
X19858594Y23912136D01*
X20179552Y23912136D01*
X20179552Y23225948D01*
G37*
G36*
X24112845Y23350458D02*
G01*
X24484752Y22788781D01*
X24484788Y23350458D01*
X24484825Y23912136D01*
X24805783Y23912136D01*
X24805783Y22163465D01*
X24543752Y22163465D01*
X23743324Y23364293D01*
X23743300Y22163465D01*
X23422341Y22163465D01*
X23422341Y23912136D01*
X23740938Y23912136D01*
X24112845Y23350458D01*
G37*
G36*
X28059640Y23602245D02*
G01*
X27262777Y23602245D01*
X27262777Y23225948D01*
X27871491Y23225948D01*
X27871491Y22916057D01*
X27262777Y22916057D01*
X27262777Y22473356D01*
X28081775Y22473356D01*
X28081775Y22163465D01*
X26930751Y22163465D01*
X26930751Y23912136D01*
X28059640Y23912136D01*
X28059640Y23602245D01*
G37*
G36*
X29950033Y21742316D02*
G01*
X29997035Y21740501D01*
X30026116Y21737251D01*
X30039370Y21732392D01*
X30040729Y21729597D01*
X30038855Y21716837D01*
X30033430Y21683964D01*
X30024743Y21632667D01*
X30013088Y21564631D01*
X29998756Y21481545D01*
X29982039Y21385093D01*
X29963229Y21276964D01*
X29942618Y21158845D01*
X29920498Y21032421D01*
X29897160Y20899380D01*
X29891317Y20866122D01*
X29867734Y20731795D01*
X29845296Y20603727D01*
X29824296Y20483599D01*
X29805024Y20373091D01*
X29787772Y20273884D01*
X29772832Y20187659D01*
X29760495Y20116095D01*
X29751054Y20060874D01*
X29744799Y20023675D01*
X29742022Y20006180D01*
X29741905Y20005087D01*
X29731243Y20000745D01*
X29700844Y19997384D01*
X29653092Y19995163D01*
X29590370Y19994243D01*
X29580043Y19994227D01*
X29418180Y19994227D01*
X29423926Y20024663D01*
X29426714Y20040207D01*
X29433014Y20075815D01*
X29442520Y20129748D01*
X29454925Y20200265D01*
X29469926Y20285627D01*
X29487215Y20384094D01*
X29506488Y20493928D01*
X29527439Y20613387D01*
X29549762Y20740733D01*
X29573153Y20874226D01*
X29577488Y20898974D01*
X29725304Y21742850D01*
X29883017Y21742874D01*
X29950033Y21742316D01*
G37*
G36*
X32052965Y26062005D02*
G01*
X32050365Y26046477D01*
X32044241Y26010880D01*
X32034897Y25956948D01*
X32022634Y25886413D01*
X32007754Y25801009D01*
X31990561Y25702470D01*
X31971355Y25592528D01*
X31950440Y25472917D01*
X31928118Y25345369D01*
X31904690Y25211619D01*
X31899530Y25182175D01*
X31750664Y24332782D01*
X31592951Y24332742D01*
X31528262Y24333162D01*
X31482921Y24334633D01*
X31454157Y24337410D01*
X31439195Y24341750D01*
X31435239Y24347353D01*
X31437115Y24360620D01*
X31442507Y24393645D01*
X31451057Y24444399D01*
X31462409Y24510850D01*
X31476207Y24590968D01*
X31492093Y24682724D01*
X31509711Y24784088D01*
X31528704Y24893028D01*
X31548717Y25007514D01*
X31569391Y25125518D01*
X31590371Y25245008D01*
X31611299Y25363953D01*
X31631820Y25480325D01*
X31651576Y25592093D01*
X31670211Y25697226D01*
X31687369Y25793694D01*
X31702692Y25879467D01*
X31715824Y25952515D01*
X31726409Y26010808D01*
X31734089Y26052316D01*
X31738508Y26075008D01*
X31739361Y26078606D01*
X31748223Y26084530D01*
X31771293Y26088662D01*
X31810871Y26091197D01*
X31869257Y26092333D01*
X31900984Y26092441D01*
X32057533Y26092441D01*
X32052965Y26062005D01*
G37*
G36*
X30799014Y26067539D02*
G01*
X30796215Y26052847D01*
X30789922Y26018095D01*
X30780444Y25965031D01*
X30768089Y25895401D01*
X30753165Y25810953D01*
X30735980Y25713432D01*
X30716842Y25604586D01*
X30696060Y25486162D01*
X30673942Y25359906D01*
X30650796Y25227565D01*
X30649143Y25218105D01*
X30625915Y25085236D01*
X30603686Y24958202D01*
X30582766Y24838767D01*
X30563464Y24728693D01*
X30546090Y24629741D01*
X30530953Y24543674D01*
X30518363Y24472253D01*
X30508631Y24417242D01*
X30502065Y24380401D01*
X30498975Y24363493D01*
X30498904Y24363138D01*
X30492739Y24332702D01*
X30171140Y24332702D01*
X30177140Y24357604D01*
X30179989Y24372362D01*
X30186324Y24407146D01*
X30195832Y24460178D01*
X30208198Y24529678D01*
X30223107Y24613867D01*
X30240244Y24710965D01*
X30259296Y24819194D01*
X30279947Y24936774D01*
X30301883Y25061925D01*
X30322430Y25179369D01*
X30345433Y25310855D01*
X30367568Y25437154D01*
X30388503Y25556388D01*
X30407906Y25666682D01*
X30425446Y25766156D01*
X30440793Y25852934D01*
X30453613Y25925138D01*
X30463576Y25980891D01*
X30470351Y26018316D01*
X30473359Y26034336D01*
X30485000Y26092441D01*
X30804811Y26092441D01*
X30799014Y26067539D01*
G37*
G36*
X32512290Y21741357D02*
G01*
X32540111Y21739869D01*
X32555802Y21736625D01*
X32562694Y21731283D01*
X32564128Y21724283D01*
X32562249Y21710568D01*
X32556809Y21676759D01*
X32548101Y21624560D01*
X32536418Y21555674D01*
X32522052Y21471804D01*
X32505297Y21374652D01*
X32486445Y21265924D01*
X32465791Y21147320D01*
X32443626Y21020546D01*
X32420244Y20887304D01*
X32414716Y20855869D01*
X32391133Y20721759D01*
X32368696Y20594010D01*
X32347696Y20474292D01*
X32328424Y20364275D01*
X32311173Y20265627D01*
X32296233Y20180018D01*
X32283896Y20109118D01*
X32274454Y20054596D01*
X32268198Y20018121D01*
X32265421Y20001364D01*
X32265304Y20000453D01*
X32254886Y19998252D01*
X32226224Y19996392D01*
X32183209Y19995026D01*
X32129734Y19994303D01*
X32104825Y19994227D01*
X32048141Y19994766D01*
X32000321Y19996247D01*
X31965237Y19998471D01*
X31946762Y20001235D01*
X31944888Y20002528D01*
X31946850Y20014476D01*
X31952368Y20046562D01*
X31961152Y20097124D01*
X31972909Y20164503D01*
X31987351Y20247038D01*
X32004184Y20343067D01*
X32023120Y20450930D01*
X32043866Y20568967D01*
X32066131Y20695517D01*
X32089625Y20828919D01*
X32097587Y20874097D01*
X32249743Y21737365D01*
X32406935Y21740435D01*
X32469009Y21741432D01*
X32512290Y21741357D01*
G37*
G36*
X31298826Y21717996D02*
G01*
X31295995Y21703317D01*
X31289667Y21668573D01*
X31280152Y21615503D01*
X31267755Y21545850D01*
X31252786Y21461352D01*
X31235551Y21363751D01*
X31216358Y21254788D01*
X31195516Y21136201D01*
X31173332Y21009733D01*
X31150114Y20877124D01*
X31147648Y20863029D01*
X31124360Y20730046D01*
X31102080Y20603149D01*
X31081113Y20484062D01*
X31061767Y20374511D01*
X31044349Y20276221D01*
X31029163Y20190918D01*
X31016518Y20120327D01*
X31006719Y20066174D01*
X31000073Y20030184D01*
X30996887Y20014083D01*
X30996760Y20013595D01*
X30992420Y20005939D01*
X30982394Y20000594D01*
X30963251Y19997154D01*
X30931562Y19995217D01*
X30883896Y19994379D01*
X30832348Y19994227D01*
X30770095Y19994429D01*
X30726757Y19995304D01*
X30699116Y19997257D01*
X30683954Y20000691D01*
X30678053Y20006012D01*
X30678187Y20013595D01*
X30680780Y20027381D01*
X30686872Y20061241D01*
X30696156Y20113444D01*
X30708329Y20182258D01*
X30723086Y20265952D01*
X30740121Y20362795D01*
X30759129Y20471054D01*
X30779806Y20588999D01*
X30801848Y20714898D01*
X30824948Y20847019D01*
X30826778Y20857495D01*
X30850004Y20990365D01*
X30872231Y21117399D01*
X30893150Y21236834D01*
X30912453Y21346909D01*
X30929828Y21445861D01*
X30944966Y21531928D01*
X30957558Y21603348D01*
X30967295Y21658360D01*
X30973865Y21695200D01*
X30976960Y21712107D01*
X30977031Y21712463D01*
X30983228Y21742898D01*
X31304828Y21742898D01*
X31298826Y21717996D01*
G37*
G36*
X31501430Y23910007D02*
G01*
X31519982Y23909682D01*
X31674193Y23906602D01*
X31555754Y23231482D01*
X31534614Y23110928D01*
X31514467Y22995937D01*
X31495665Y22888518D01*
X31478557Y22790680D01*
X31463495Y22704433D01*
X31450830Y22631786D01*
X31440912Y22574749D01*
X31434093Y22535332D01*
X31430724Y22515543D01*
X31430613Y22514859D01*
X31423910Y22473356D01*
X31722864Y22473356D01*
X31812444Y22473248D01*
X31882295Y22472828D01*
X31934823Y22471951D01*
X31972434Y22470471D01*
X31997533Y22468243D01*
X32012525Y22465121D01*
X32019817Y22460960D01*
X32021814Y22455615D01*
X32021818Y22455292D01*
X32019967Y22437870D01*
X32014919Y22403537D01*
X32007431Y22357158D01*
X31998263Y22303603D01*
X31997690Y22300347D01*
X31973561Y22163465D01*
X31510718Y22163465D01*
X31411936Y22163529D01*
X31320378Y22163711D01*
X31238332Y22163998D01*
X31168087Y22164377D01*
X31111933Y22164833D01*
X31072158Y22165353D01*
X31051052Y22165923D01*
X31048214Y22166232D01*
X31051104Y22184935D01*
X31057448Y22222699D01*
X31066891Y22277524D01*
X31079073Y22347413D01*
X31093638Y22430368D01*
X31110228Y22524390D01*
X31128486Y22627482D01*
X31148054Y22737646D01*
X31168574Y22852884D01*
X31189690Y22971197D01*
X31211042Y23090587D01*
X31232275Y23209058D01*
X31253031Y23324609D01*
X31272951Y23435245D01*
X31291679Y23538965D01*
X31308857Y23633774D01*
X31324127Y23717671D01*
X31337133Y23788660D01*
X31347515Y23844742D01*
X31354918Y23883920D01*
X31358983Y23904195D01*
X31359627Y23906618D01*
X31372340Y23908631D01*
X31402999Y23909919D01*
X31447423Y23910405D01*
X31501430Y23910007D01*
G37*
G36*
X33225047Y26092140D02*
G01*
X33272730Y26091311D01*
X33307681Y26090069D01*
X33325995Y26088525D01*
X33327788Y26087836D01*
X33325920Y26076057D01*
X33320551Y26044495D01*
X33312036Y25995161D01*
X33300729Y25930068D01*
X33286984Y25851230D01*
X33271155Y25760658D01*
X33253596Y25660366D01*
X33234661Y25552367D01*
X33214704Y25438673D01*
X33194080Y25321297D01*
X33173143Y25202251D01*
X33152245Y25083549D01*
X33131743Y24967204D01*
X33111990Y24855227D01*
X33093339Y24749632D01*
X33076145Y24652432D01*
X33060762Y24565639D01*
X33047545Y24491266D01*
X33036847Y24431326D01*
X33029022Y24387832D01*
X33024425Y24362795D01*
X33023396Y24357604D01*
X33020285Y24347870D01*
X33014033Y24341074D01*
X33001142Y24336687D01*
X32978117Y24334184D01*
X32941462Y24333036D01*
X32887680Y24332716D01*
X32858243Y24332702D01*
X32795868Y24332903D01*
X32752414Y24333774D01*
X32724666Y24335717D01*
X32709412Y24339134D01*
X32703438Y24344428D01*
X32703531Y24352002D01*
X32703547Y24352070D01*
X32706142Y24365856D01*
X32712237Y24399715D01*
X32721528Y24451917D01*
X32733709Y24520730D01*
X32748475Y24604422D01*
X32765522Y24701263D01*
X32784543Y24809521D01*
X32805235Y24927464D01*
X32827291Y25053360D01*
X32850408Y25185479D01*
X32852242Y25195970D01*
X32875503Y25329007D01*
X32897771Y25456333D01*
X32918732Y25576173D01*
X32938078Y25686748D01*
X32955495Y25786281D01*
X32970674Y25872995D01*
X32983303Y25945113D01*
X32993072Y26000856D01*
X32999668Y26038448D01*
X33002782Y26056111D01*
X33002846Y26056471D01*
X33009293Y26092441D01*
X33168540Y26092441D01*
X33225047Y26092140D01*
G37*
G36*
X25583278Y23909211D02*
G01*
X25698701Y23907909D01*
X25794677Y23906460D01*
X25873895Y23904485D01*
X25939041Y23901607D01*
X25992803Y23897446D01*
X26037869Y23891623D01*
X26076925Y23883760D01*
X26112661Y23873479D01*
X26147762Y23860400D01*
X26184917Y23844145D01*
X26226813Y23824336D01*
X26243816Y23816144D01*
X26297619Y23788530D01*
X26341167Y23761315D01*
X26381996Y23729051D01*
X26427643Y23686288D01*
X26439036Y23674974D01*
X26484851Y23627238D01*
X26518973Y23585961D01*
X26546857Y23543603D01*
X26573956Y23492623D01*
X26580231Y23479755D01*
X26610738Y23414034D01*
X26633551Y23357216D01*
X26649752Y23303983D01*
X26660422Y23249018D01*
X26666641Y23187003D01*
X26669491Y23112621D01*
X26670072Y23037800D01*
X26669182Y22948763D01*
X26665789Y22876550D01*
X26658813Y22815894D01*
X26647172Y22761529D01*
X26629784Y22708190D01*
X26605569Y22650611D01*
X26579152Y22595099D01*
X26513983Y22487043D01*
X26431805Y22392148D01*
X26334534Y22312095D01*
X26224088Y22248565D01*
X26149379Y22218054D01*
X26107452Y22204115D01*
X26067318Y22192736D01*
X26026160Y22183664D01*
X25981156Y22176647D01*
X25929487Y22171430D01*
X25868334Y22167762D01*
X25794876Y22165390D01*
X25706294Y22164059D01*
X25599768Y22163518D01*
X25540801Y22163465D01*
X25159945Y22163465D01*
X25159945Y22449380D01*
X25159945Y23625901D01*
X25480903Y23625901D01*
X25480903Y22449380D01*
X25973409Y22456754D01*
X26047569Y22491887D01*
X26132566Y22543350D01*
X26201963Y22609930D01*
X26255878Y22691855D01*
X26294427Y22789353D01*
X26317725Y22902651D01*
X26325888Y23031977D01*
X26325902Y23037800D01*
X26318375Y23167809D01*
X26295720Y23281780D01*
X26257818Y23379941D01*
X26204555Y23462520D01*
X26135814Y23529744D01*
X26051479Y23581841D01*
X26047569Y23583713D01*
X25973409Y23618846D01*
X25727156Y23622374D01*
X25480903Y23625901D01*
X25159945Y23625901D01*
X25159945Y23913762D01*
X25583278Y23909211D01*
G37*
G36*
X28820221Y23912038D02*
G01*
X28904661Y23911656D01*
X28972450Y23910861D01*
X29026328Y23909521D01*
X29069039Y23907505D01*
X29103323Y23904683D01*
X29131922Y23900924D01*
X29157578Y23896096D01*
X29183032Y23890070D01*
X29183991Y23889826D01*
X29292503Y23853403D01*
X29383204Y23803864D01*
X29456261Y23740996D01*
X29511838Y23664587D01*
X29550100Y23574422D01*
X29571213Y23470289D01*
X29575892Y23383610D01*
X29567864Y23272185D01*
X29543290Y23174732D01*
X29501435Y23089731D01*
X29441563Y23015665D01*
X29368397Y22954794D01*
X29332831Y22929065D01*
X29305416Y22907670D01*
X29290369Y22893966D01*
X29288755Y22891351D01*
X29293644Y22880251D01*
X29307656Y22852306D01*
X29329395Y22810150D01*
X29357463Y22756412D01*
X29390465Y22693726D01*
X29427003Y22624723D01*
X29465681Y22552034D01*
X29505103Y22478291D01*
X29543873Y22406127D01*
X29580593Y22338172D01*
X29613867Y22277058D01*
X29638298Y22232637D01*
X29676584Y22163465D01*
X29496194Y22163698D01*
X29315805Y22163932D01*
X29148003Y22487424D01*
X28980202Y22810916D01*
X28818744Y22813978D01*
X28657287Y22817041D01*
X28657287Y22163465D01*
X28336328Y22163465D01*
X28336328Y23079839D01*
X28336328Y23648705D01*
X28657287Y23648705D01*
X28657287Y23079839D01*
X28842668Y23083721D01*
X28911205Y23085303D01*
X28961904Y23087166D01*
X28999056Y23089943D01*
X29026955Y23094269D01*
X29049895Y23100777D01*
X29072168Y23110099D01*
X29093974Y23120807D01*
X29157465Y23161384D01*
X29201791Y23210545D01*
X29229109Y23270929D01*
X29234572Y23292867D01*
X29243026Y23375733D01*
X29233212Y23451311D01*
X29206124Y23517207D01*
X29162754Y23571027D01*
X29104097Y23610378D01*
X29102551Y23611105D01*
X29078015Y23621966D01*
X29055229Y23629906D01*
X29029980Y23635482D01*
X28998051Y23639250D01*
X28955229Y23641768D01*
X28897297Y23643592D01*
X28848202Y23644697D01*
X28657287Y23648705D01*
X28336328Y23648705D01*
X28336328Y23912136D01*
X28716388Y23912136D01*
X28820221Y23912038D01*
G37*
G36*
X21963895Y23333857D02*
G01*
X21964748Y23205714D01*
X21965571Y23097706D01*
X21966451Y23007834D01*
X21967476Y22934097D01*
X21968732Y22874496D01*
X21970305Y22827031D01*
X21972282Y22789703D01*
X21974750Y22760512D01*
X21977795Y22737458D01*
X21981505Y22718541D01*
X21985965Y22701761D01*
X21991262Y22685120D01*
X21992116Y22682567D01*
X22030062Y22598675D01*
X22081806Y22532087D01*
X22147329Y22482813D01*
X22226610Y22450865D01*
X22319631Y22436252D01*
X22426371Y22438986D01*
X22433991Y22439787D01*
X22521827Y22457750D01*
X22595192Y22491195D01*
X22654727Y22540834D01*
X22701074Y22607378D01*
X22734873Y22691539D01*
X22756766Y22794028D01*
X22757443Y22798804D01*
X22760266Y22830835D01*
X22762783Y22882962D01*
X22764952Y22953148D01*
X22766733Y23039355D01*
X22768087Y23139545D01*
X22768971Y23251682D01*
X22769346Y23373728D01*
X22769356Y23398296D01*
X22769356Y23912136D01*
X23090315Y23912136D01*
X23090315Y23370627D01*
X23090169Y23231710D01*
X23089640Y23112800D01*
X23088589Y23011768D01*
X23086881Y22926486D01*
X23084378Y22854829D01*
X23080942Y22794667D01*
X23076437Y22743873D01*
X23070725Y22700320D01*
X23063668Y22661880D01*
X23055131Y22626425D01*
X23044975Y22591829D01*
X23038875Y22573070D01*
X22991006Y22459616D01*
X22928570Y22362798D01*
X22851349Y22282395D01*
X22759126Y22218191D01*
X22651684Y22169968D01*
X22631012Y22163064D01*
X22570418Y22148942D01*
X22494629Y22139027D01*
X22410216Y22133482D01*
X22323748Y22132472D01*
X22241794Y22136158D01*
X22170922Y22144706D01*
X22141608Y22150876D01*
X22026630Y22189954D01*
X21926455Y22245203D01*
X21840752Y22316955D01*
X21769190Y22405538D01*
X21711435Y22511282D01*
X21672187Y22617415D01*
X21666739Y22635905D01*
X21662126Y22653843D01*
X21658264Y22673199D01*
X21655070Y22695945D01*
X21652461Y22724051D01*
X21650355Y22759488D01*
X21648668Y22804228D01*
X21647316Y22860241D01*
X21646218Y22929499D01*
X21645290Y23013971D01*
X21644448Y23115629D01*
X21643610Y23236445D01*
X21643157Y23306188D01*
X21639256Y23912136D01*
X21960165Y23912136D01*
X21963895Y23333857D01*
G37*
G36*
X30723659Y23911939D02*
G01*
X30821231Y23911453D01*
X30909557Y23910681D01*
X30986468Y23909657D01*
X31049796Y23908416D01*
X31097372Y23906993D01*
X31127028Y23905422D01*
X31136628Y23903835D01*
X31134948Y23890406D01*
X31130196Y23859454D01*
X31123055Y23815270D01*
X31114209Y23762144D01*
X31111993Y23749038D01*
X31087145Y23602541D01*
X30727769Y23599626D01*
X30368394Y23596711D01*
X30337907Y23430698D01*
X30327220Y23371454D01*
X30318096Y23318898D01*
X30311260Y23277358D01*
X30307437Y23251166D01*
X30306886Y23245317D01*
X30308094Y23239339D01*
X30313772Y23234730D01*
X30326439Y23231313D01*
X30348614Y23228913D01*
X30382819Y23227353D01*
X30431573Y23226456D01*
X30497396Y23226047D01*
X30582808Y23225948D01*
X30583784Y23225948D01*
X30669274Y23225860D01*
X30735102Y23225477D01*
X30783743Y23224623D01*
X30817669Y23223123D01*
X30839354Y23220798D01*
X30851272Y23217475D01*
X30855896Y23212975D01*
X30855700Y23207124D01*
X30855547Y23206580D01*
X30851861Y23189926D01*
X30845514Y23157406D01*
X30837452Y23114270D01*
X30828617Y23065769D01*
X30819955Y23017153D01*
X30812409Y22973673D01*
X30806924Y22940580D01*
X30804444Y22923122D01*
X30804389Y22922111D01*
X30793813Y22920463D01*
X30764051Y22918985D01*
X30718052Y22917740D01*
X30658763Y22916792D01*
X30589135Y22916206D01*
X30524934Y22916040D01*
X30245478Y22916022D01*
X30202906Y22669787D01*
X30188860Y22588619D01*
X30174461Y22505554D01*
X30160695Y22426256D01*
X30148543Y22356386D01*
X30138988Y22301608D01*
X30137572Y22293508D01*
X30114809Y22163465D01*
X29954736Y22163465D01*
X29892357Y22163553D01*
X29848851Y22164165D01*
X29820954Y22165824D01*
X29805404Y22169053D01*
X29798939Y22174375D01*
X29798296Y22182312D01*
X29799313Y22188367D01*
X29801922Y22203001D01*
X29808049Y22237720D01*
X29817390Y22290805D01*
X29829644Y22360537D01*
X29844510Y22445197D01*
X29861686Y22543067D01*
X29880870Y22652428D01*
X29901761Y22771561D01*
X29924056Y22898748D01*
X29947455Y23032269D01*
X29952782Y23062671D01*
X30101600Y23912074D01*
X30619008Y23912105D01*
X30723659Y23911939D01*
G37*
G36*
X33426915Y23911466D02*
G01*
X33474914Y23910108D01*
X33504952Y23907534D01*
X33519105Y23903582D01*
X33520316Y23899201D01*
X33512186Y23888212D01*
X33491768Y23861397D01*
X33460343Y23820418D01*
X33419192Y23766938D01*
X33369596Y23702619D01*
X33312836Y23629122D01*
X33250194Y23548112D01*
X33182951Y23461249D01*
X33150707Y23419630D01*
X33081841Y23330726D01*
X33017035Y23246990D01*
X32957564Y23170073D01*
X32904699Y23101626D01*
X32859715Y23043297D01*
X32823884Y22996738D01*
X32798480Y22963599D01*
X32784775Y22945529D01*
X32782742Y22942718D01*
X32779817Y22930576D01*
X32773577Y22899677D01*
X32764576Y22853055D01*
X32753366Y22793747D01*
X32740503Y22724788D01*
X32726540Y22649216D01*
X32712032Y22570065D01*
X32697531Y22490373D01*
X32683592Y22413174D01*
X32670770Y22341505D01*
X32659617Y22278402D01*
X32650689Y22226901D01*
X32644538Y22190038D01*
X32641720Y22170849D01*
X32641600Y22169190D01*
X32631181Y22167167D01*
X32602516Y22165458D01*
X32559494Y22164201D01*
X32506003Y22163535D01*
X32480910Y22163465D01*
X32320220Y22163465D01*
X32326009Y22188367D01*
X32330085Y22208684D01*
X32337096Y22246645D01*
X32346501Y22299095D01*
X32357758Y22362877D01*
X32370324Y22434835D01*
X32383658Y22511814D01*
X32397219Y22590658D01*
X32410464Y22668211D01*
X32422851Y22741316D01*
X32433839Y22806818D01*
X32442885Y22861560D01*
X32449449Y22902388D01*
X32452987Y22926144D01*
X32453452Y22930628D01*
X32449271Y22943977D01*
X32437300Y22975580D01*
X32418404Y23023315D01*
X32393443Y23085063D01*
X32363282Y23158701D01*
X32328781Y23242110D01*
X32290803Y23333168D01*
X32258401Y23410325D01*
X32218096Y23506155D01*
X32180361Y23596144D01*
X32146087Y23678149D01*
X32116162Y23750031D01*
X32091477Y23809646D01*
X32072922Y23854855D01*
X32061387Y23883515D01*
X32057818Y23893063D01*
X32057119Y23900545D01*
X32062019Y23905743D01*
X32075638Y23908973D01*
X32101099Y23910555D01*
X32141524Y23910803D01*
X32200034Y23910037D01*
X32221167Y23909665D01*
X32390048Y23906602D01*
X32528306Y23566275D01*
X32561542Y23484996D01*
X32592350Y23410670D01*
X32619709Y23345687D01*
X32642594Y23292436D01*
X32659984Y23253305D01*
X32670855Y23230683D01*
X32674017Y23225948D01*
X32682041Y23234540D01*
X32701721Y23259033D01*
X32731589Y23297502D01*
X32770177Y23348024D01*
X32816017Y23408675D01*
X32867642Y23477529D01*
X32923583Y23552663D01*
X32935457Y23568675D01*
X33189444Y23911401D01*
X33358877Y23911768D01*
X33426915Y23911466D01*
G37*
%TD*%
M02*
