%TF.GenerationSoftware,KiCad,Pcbnew,9.0.6+1*%
%TF.CreationDate,2025-12-27T20:09:19+00:00*%
%TF.ProjectId,TFUNIPAYLOAD01,5446554e-4950-4415-994c-4f414430312e,rev?*%
%TF.SameCoordinates,PX66dd020PY81342c0*%
%TF.FileFunction,Soldermask,Bot*%
%TF.FilePolarity,Negative*%
%FSLAX46Y46*%
G04 Gerber Fmt 4.6, Leading zero omitted, Abs format (unit mm)*
G04 Created by KiCad (PCBNEW 9.0.6+1) date 2025-12-27 20:09:19*
%MOMM*%
%LPD*%
G01*
G04 APERTURE LIST*
G04 Aperture macros list*
%AMRoundRect*
0 Rectangle with rounded corners*
0 $1 Rounding radius*
0 $2 $3 $4 $5 $6 $7 $8 $9 X,Y pos of 4 corners*
0 Add a 4 corners polygon primitive as box body*
4,1,4,$2,$3,$4,$5,$6,$7,$8,$9,$2,$3,0*
0 Add four circle primitives for the rounded corners*
1,1,$1+$1,$2,$3*
1,1,$1+$1,$4,$5*
1,1,$1+$1,$6,$7*
1,1,$1+$1,$8,$9*
0 Add four rect primitives between the rounded corners*
20,1,$1+$1,$2,$3,$4,$5,0*
20,1,$1+$1,$4,$5,$6,$7,0*
20,1,$1+$1,$6,$7,$8,$9,0*
20,1,$1+$1,$8,$9,$2,$3,0*%
%AMFreePoly0*
4,1,43,0.551423,0.811284,0.578785,0.763892,0.580000,0.750000,0.580000,-0.750000,0.561284,-0.801423,0.513892,-0.828785,0.500000,-0.830000,0.000000,-0.830000,-0.011754,-0.825722,-0.065263,-0.825722,-0.085968,-0.822996,-0.212047,-0.789214,-0.231342,-0.781222,-0.344381,-0.715959,-0.360950,-0.703246,-0.453246,-0.610950,-0.465959,-0.594381,-0.531222,-0.481342,-0.539214,-0.462047,-0.572996,-0.335968,
-0.575722,-0.315263,-0.575722,-0.269197,-0.578785,-0.263892,-0.580000,-0.250000,-0.580000,0.250000,-0.575722,0.261753,-0.575722,0.315263,-0.572996,0.335968,-0.539214,0.462047,-0.531222,0.481342,-0.465959,0.594381,-0.453246,0.610950,-0.360950,0.703246,-0.344381,0.715959,-0.231342,0.781222,-0.212047,0.789214,-0.085968,0.822996,-0.065263,0.825722,-0.019197,0.825722,-0.013892,0.828785,
0.000000,0.830000,0.500000,0.830000,0.551423,0.811284,0.551423,0.811284,$1*%
%AMFreePoly1*
4,1,43,0.011754,0.825722,0.065263,0.825722,0.085968,0.822996,0.212047,0.789214,0.231342,0.781222,0.344381,0.715959,0.360950,0.703246,0.453246,0.610950,0.465959,0.594381,0.531222,0.481342,0.539214,0.462047,0.572996,0.335968,0.575722,0.315263,0.575722,0.269197,0.578785,0.263892,0.580000,0.250000,0.580000,-0.250000,0.575722,-0.261753,0.575722,-0.315263,0.572996,-0.335968,
0.539214,-0.462047,0.531222,-0.481342,0.465959,-0.594381,0.453246,-0.610950,0.360950,-0.703246,0.344381,-0.715959,0.231342,-0.781222,0.212047,-0.789214,0.085968,-0.822996,0.065263,-0.825722,0.019197,-0.825722,0.013892,-0.828785,0.000000,-0.830000,-0.500000,-0.830000,-0.551423,-0.811284,-0.578785,-0.763892,-0.580000,-0.750000,-0.580000,0.750000,-0.561284,0.801423,-0.513892,0.828785,
-0.500000,0.830000,0.000000,0.830000,0.011754,0.825722,0.011754,0.825722,$1*%
G04 Aperture macros list end*
%ADD10C,6.160000*%
%ADD11RoundRect,0.080000X0.850000X-0.850000X0.850000X0.850000X-0.850000X0.850000X-0.850000X-0.850000X0*%
%ADD12C,1.860000*%
%ADD13RoundRect,0.290000X0.290000X0.515000X-0.290000X0.515000X-0.290000X-0.515000X0.290000X-0.515000X0*%
%ADD14RoundRect,0.278777X0.508723X0.496223X-0.508723X0.496223X-0.508723X-0.496223X0.508723X-0.496223X0*%
%ADD15RoundRect,0.177500X0.177500X-0.640000X0.177500X0.640000X-0.177500X0.640000X-0.177500X-0.640000X0*%
%ADD16RoundRect,0.177500X0.640000X-0.177500X0.640000X0.177500X-0.640000X0.177500X-0.640000X-0.177500X0*%
%ADD17RoundRect,0.289024X-0.303476X-0.490976X0.303476X-0.490976X0.303476X0.490976X-0.303476X0.490976X0*%
%ADD18RoundRect,0.289024X-0.490976X0.303476X-0.490976X-0.303476X0.490976X-0.303476X0.490976X0.303476X0*%
%ADD19RoundRect,0.290000X-0.515000X0.290000X-0.515000X-0.290000X0.515000X-0.290000X0.515000X0.290000X0*%
%ADD20RoundRect,0.290000X0.515000X-0.290000X0.515000X0.290000X-0.515000X0.290000X-0.515000X-0.290000X0*%
%ADD21RoundRect,0.290000X-0.290000X-0.515000X0.290000X-0.515000X0.290000X0.515000X-0.290000X0.515000X0*%
%ADD22C,2.000000*%
%ADD23RoundRect,0.076667X0.338333X0.153333X-0.338333X0.153333X-0.338333X-0.153333X0.338333X-0.153333X0*%
%ADD24RoundRect,0.190000X0.190000X0.740000X-0.190000X0.740000X-0.190000X-0.740000X0.190000X-0.740000X0*%
%ADD25RoundRect,0.290000X0.290000X1.140000X-0.290000X1.140000X-0.290000X-1.140000X0.290000X-1.140000X0*%
%ADD26RoundRect,0.190000X0.190000X-0.627500X0.190000X0.627500X-0.190000X0.627500X-0.190000X-0.627500X0*%
%ADD27RoundRect,0.289024X0.303476X0.490976X-0.303476X0.490976X-0.303476X-0.490976X0.303476X-0.490976X0*%
%ADD28RoundRect,0.277500X-0.327500X-0.277500X0.327500X-0.277500X0.327500X0.277500X-0.327500X0.277500X0*%
%ADD29RoundRect,0.282000X0.423000X0.673000X-0.423000X0.673000X-0.423000X-0.673000X0.423000X-0.673000X0*%
%ADD30RoundRect,0.190000X0.240000X-0.190000X0.240000X0.190000X-0.240000X0.190000X-0.240000X-0.190000X0*%
%ADD31RoundRect,0.080000X-0.300000X-0.350000X0.300000X-0.350000X0.300000X0.350000X-0.300000X0.350000X0*%
%ADD32RoundRect,0.240000X0.315000X-0.240000X0.315000X0.240000X-0.315000X0.240000X-0.315000X-0.240000X0*%
%ADD33C,1.160000*%
%ADD34RoundRect,0.283333X0.496667X0.396667X-0.496667X0.396667X-0.496667X-0.396667X0.496667X-0.396667X0*%
%ADD35FreePoly0,270.000000*%
%ADD36FreePoly1,270.000000*%
%ADD37RoundRect,0.282000X-0.673000X0.423000X-0.673000X-0.423000X0.673000X-0.423000X0.673000X0.423000X0*%
%ADD38RoundRect,0.282000X0.898000X-0.423000X0.898000X0.423000X-0.898000X0.423000X-0.898000X-0.423000X0*%
%ADD39RoundRect,0.190000X0.190000X0.240000X-0.190000X0.240000X-0.190000X-0.240000X0.190000X-0.240000X0*%
G04 APERTURE END LIST*
%TO.C,JP1*%
G36*
X42658600Y14043800D02*
G01*
X44158600Y14043800D01*
X44158600Y13743800D01*
X42658600Y13743800D01*
X42658600Y14043800D01*
G37*
%TD*%
D10*
%TO.C,M2*%
X71120000Y50800000D03*
%TD*%
%TO.C,M3*%
X10160000Y10160000D03*
%TD*%
%TO.C,M4*%
X71120000Y10160000D03*
%TD*%
%TO.C,M1*%
X10160000Y50800000D03*
%TD*%
D11*
%TO.C,J5*%
X23144000Y52648800D03*
D12*
X23144000Y50108800D03*
X25684000Y52648800D03*
X25684000Y50108800D03*
X28224000Y52648800D03*
X28224000Y50108800D03*
X30764000Y52648800D03*
X30764000Y50108800D03*
X33304000Y52648800D03*
X33304000Y50108800D03*
X35844000Y52648800D03*
X35844000Y50108800D03*
X38384000Y52648800D03*
X38384000Y50108800D03*
X40924000Y52648800D03*
X40924000Y50108800D03*
X43464000Y52648800D03*
X43464000Y50108800D03*
X46004000Y52648800D03*
X46004000Y50108800D03*
X48544000Y52648800D03*
X48544000Y50108800D03*
X51084000Y52648800D03*
X51084000Y50108800D03*
X53624000Y52648800D03*
X53624000Y50108800D03*
X56164000Y52648800D03*
X56164000Y50108800D03*
X58704000Y52648800D03*
X58704000Y50108800D03*
%TD*%
D13*
%TO.C,C9*%
X39177000Y40636000D03*
X37277000Y40636000D03*
%TD*%
D14*
%TO.C,C8*%
X39764900Y42922000D03*
X37059900Y42922000D03*
%TD*%
D15*
%TO.C,U2*%
X40601400Y26341500D03*
X39801400Y26341500D03*
X39001400Y26341500D03*
X38201400Y26341500D03*
X37401400Y26341500D03*
X36601400Y26341500D03*
X35801400Y26341500D03*
X35001400Y26341500D03*
X34201400Y26341500D03*
X33401400Y26341500D03*
X32601400Y26341500D03*
D16*
X30938900Y28004000D03*
X30938900Y28804000D03*
X30938900Y29604000D03*
X30938900Y30404000D03*
X30938900Y31204000D03*
X30938900Y32004000D03*
X30938900Y32804000D03*
X30938900Y33604000D03*
X30938900Y34404000D03*
X30938900Y35204000D03*
X30938900Y36004000D03*
D15*
X32601400Y37666500D03*
X33401400Y37666500D03*
X34201400Y37666500D03*
X35001400Y37666500D03*
X35801400Y37666500D03*
X36601400Y37666500D03*
X37401400Y37666500D03*
X38201400Y37666500D03*
X39001400Y37666500D03*
X39801400Y37666500D03*
X40601400Y37666500D03*
D16*
X42263900Y36004000D03*
X42263900Y35204000D03*
X42263900Y34404000D03*
X42263900Y33604000D03*
X42263900Y32804000D03*
X42263900Y32004000D03*
X42263900Y31204000D03*
X42263900Y30404000D03*
X42263900Y29604000D03*
X42263900Y28804000D03*
X42263900Y28004000D03*
%TD*%
D17*
%TO.C,R12*%
X24690700Y26009600D03*
X26515700Y26009600D03*
%TD*%
D18*
%TO.C,R5*%
X39928800Y23213700D03*
X39928800Y21388700D03*
%TD*%
D13*
%TO.C,C10*%
X37805400Y23317200D03*
X35905400Y23317200D03*
%TD*%
D19*
%TO.C,C11*%
X45034200Y32954000D03*
X45034200Y31054000D03*
%TD*%
D20*
%TO.C,C12*%
X27508200Y31054000D03*
X27508200Y32954000D03*
%TD*%
D21*
%TO.C,C2*%
X41925200Y22555200D03*
X43825200Y22555200D03*
%TD*%
D17*
%TO.C,R13*%
X24665300Y28524200D03*
X26490300Y28524200D03*
%TD*%
D22*
%TO.C,FID1*%
X8509000Y16637000D03*
%TD*%
D23*
%TO.C,U1*%
X57432800Y34520700D03*
X57432800Y34020700D03*
X57432800Y33520700D03*
X57432800Y33020700D03*
X55952800Y33020700D03*
X55952800Y33520700D03*
X55952800Y34020700D03*
X55952800Y34520700D03*
%TD*%
D21*
%TO.C,C6*%
X58841600Y36753800D03*
X60741600Y36753800D03*
%TD*%
D24*
%TO.C,J1*%
X49419200Y10363200D03*
X48169200Y10363200D03*
X46919200Y10363200D03*
X45669200Y10363200D03*
X44419200Y10363200D03*
X43169200Y10363200D03*
D25*
X51269200Y7163200D03*
X41319200Y7163200D03*
%TD*%
D26*
%TO.C,Q2*%
X13675400Y41328100D03*
X11775400Y41328100D03*
X12725400Y43203100D03*
%TD*%
D21*
%TO.C,C13*%
X67503000Y30861000D03*
X69403000Y30861000D03*
%TD*%
D22*
%TO.C,FID3*%
X17119600Y52247800D03*
%TD*%
D27*
%TO.C,R10*%
X57249700Y36042600D03*
X55424700Y36042600D03*
%TD*%
D19*
%TO.C,C3*%
X31013400Y20711200D03*
X31013400Y18811200D03*
%TD*%
D27*
%TO.C,R16*%
X17549500Y31724600D03*
X15724500Y31724600D03*
%TD*%
%TO.C,R22*%
X66063500Y36855400D03*
X64238500Y36855400D03*
%TD*%
D28*
%TO.C,L1*%
X50509200Y20116800D03*
X52259200Y20116800D03*
%TD*%
D13*
%TO.C,C7*%
X57185600Y37973000D03*
X55285600Y37973000D03*
%TD*%
D24*
%TO.C,J2*%
X27005600Y10363200D03*
X25755600Y10363200D03*
X24505600Y10363200D03*
X23255600Y10363200D03*
X22005600Y10363200D03*
X20755600Y10363200D03*
X19505600Y10363200D03*
X18255600Y10363200D03*
D25*
X28855600Y7163200D03*
X16405600Y7163200D03*
%TD*%
D29*
%TO.C,D3*%
X9655000Y37211000D03*
X6855000Y37211000D03*
%TD*%
D27*
%TO.C,R7*%
X17549500Y36550600D03*
X15724500Y36550600D03*
%TD*%
%TO.C,R6*%
X9650100Y39420800D03*
X7825100Y39420800D03*
%TD*%
D18*
%TO.C,R21*%
X30988000Y24382100D03*
X30988000Y22557100D03*
%TD*%
D24*
%TO.C,J6*%
X63126000Y10363200D03*
X61876000Y10363200D03*
X60626000Y10363200D03*
X59376000Y10363200D03*
X58126000Y10363200D03*
X56876000Y10363200D03*
X55626000Y10363200D03*
D25*
X64976000Y7163200D03*
X53776000Y7163200D03*
%TD*%
D24*
%TO.C,J4*%
X36957400Y10363200D03*
X35707400Y10363200D03*
X34457400Y10363200D03*
X33207400Y10363200D03*
D25*
X38807400Y7163200D03*
X31357400Y7163200D03*
%TD*%
D30*
%TO.C,D1*%
X50596800Y14797000D03*
X50596800Y13397000D03*
%TD*%
D31*
%TO.C,SW2*%
X46125000Y41671200D03*
X49125000Y41671200D03*
X46125000Y43571200D03*
X49125000Y43571200D03*
%TD*%
D29*
%TO.C,D4*%
X9604200Y41630600D03*
X6804200Y41630600D03*
%TD*%
D32*
%TO.C,R28*%
X59426800Y12365800D03*
X59426800Y14015800D03*
%TD*%
D31*
%TO.C,SW1*%
X41781600Y41569600D03*
X44781600Y41569600D03*
X41781600Y43469600D03*
X44781600Y43469600D03*
%TD*%
D18*
%TO.C,R20*%
X28321000Y20394300D03*
X28321000Y18569300D03*
%TD*%
%TO.C,R4*%
X46151800Y14831700D03*
X46151800Y13006700D03*
%TD*%
%TO.C,R18*%
X25970700Y14710800D03*
X25970700Y12885800D03*
%TD*%
D27*
%TO.C,R15*%
X9827900Y34925000D03*
X8002900Y34925000D03*
%TD*%
D33*
%TO.C,TP2*%
X31292800Y40284400D03*
%TD*%
D18*
%TO.C,R19*%
X24078400Y14710800D03*
X24078400Y12885800D03*
%TD*%
D33*
%TO.C,TP1*%
X29489400Y38404800D03*
%TD*%
D18*
%TO.C,R23*%
X64109600Y35024700D03*
X64109600Y33199700D03*
%TD*%
D22*
%TO.C,FID2*%
X73710800Y15875000D03*
%TD*%
D34*
%TO.C,Y1*%
X35214800Y18915800D03*
X33014800Y18915800D03*
X33014800Y20615800D03*
X35214800Y20615800D03*
%TD*%
D35*
%TO.C,JP1*%
X43408600Y14543800D03*
D36*
X43408600Y13243800D03*
%TD*%
D13*
%TO.C,C15*%
X67447200Y38963600D03*
X65547200Y38963600D03*
%TD*%
D21*
%TO.C,C1*%
X50358000Y18211800D03*
X52258000Y18211800D03*
%TD*%
D26*
%TO.C,Q3*%
X13827800Y30837900D03*
X11927800Y30837900D03*
X12877800Y32712900D03*
%TD*%
D37*
%TO.C,D5*%
X61976000Y52555600D03*
X61976000Y49755600D03*
%TD*%
D17*
%TO.C,R3*%
X46721959Y39525527D03*
X48546959Y39525527D03*
%TD*%
D32*
%TO.C,R25*%
X62551000Y12365800D03*
X62551000Y14015800D03*
%TD*%
D38*
%TO.C,L3*%
X69265800Y32783200D03*
X69265800Y34933200D03*
%TD*%
D32*
%TO.C,R27*%
X60988900Y12365800D03*
X60988900Y14015800D03*
%TD*%
%TO.C,R30*%
X56302600Y12365800D03*
X56302600Y14015800D03*
%TD*%
D20*
%TO.C,C4*%
X37439600Y18887400D03*
X37439600Y20787400D03*
%TD*%
D38*
%TO.C,L2*%
X59385200Y32630800D03*
X59385200Y34780800D03*
%TD*%
D27*
%TO.C,R2*%
X44194100Y39395400D03*
X42369100Y39395400D03*
%TD*%
%TO.C,R8*%
X10132700Y44627800D03*
X8307700Y44627800D03*
%TD*%
D39*
%TO.C,D2*%
X50506400Y16281400D03*
X51906400Y16281400D03*
%TD*%
D26*
%TO.C,Q1*%
X13573800Y36197300D03*
X11673800Y36197300D03*
X12623800Y38072300D03*
%TD*%
D17*
%TO.C,R26*%
X28729300Y46710600D03*
X30554300Y46710600D03*
%TD*%
D21*
%TO.C,C14*%
X67731600Y36855400D03*
X69631600Y36855400D03*
%TD*%
D18*
%TO.C,R17*%
X27863000Y14708900D03*
X27863000Y12883900D03*
%TD*%
D32*
%TO.C,R29*%
X57864700Y12365800D03*
X57864700Y14015800D03*
%TD*%
D18*
%TO.C,R24*%
X65760600Y47800900D03*
X65760600Y45975900D03*
%TD*%
%TO.C,R11*%
X53695600Y36066100D03*
X53695600Y34241100D03*
%TD*%
D29*
%TO.C,D6*%
X9655000Y32512000D03*
X6855000Y32512000D03*
%TD*%
D37*
%TO.C,D7*%
X65430400Y52555600D03*
X65430400Y49755600D03*
%TD*%
D23*
%TO.C,U3*%
X67338800Y34622300D03*
X67338800Y34122300D03*
X67338800Y33622300D03*
X67338800Y33122300D03*
X65858800Y33122300D03*
X65858800Y33622300D03*
X65858800Y34122300D03*
X65858800Y34622300D03*
%TD*%
D18*
%TO.C,R14*%
X62052200Y47800900D03*
X62052200Y45975900D03*
%TD*%
D21*
%TO.C,C5*%
X57597000Y30759400D03*
X59497000Y30759400D03*
%TD*%
D27*
%TO.C,R9*%
X17549500Y41630600D03*
X15724500Y41630600D03*
%TD*%
D18*
%TO.C,R1*%
X48183800Y14831700D03*
X48183800Y13006700D03*
%TD*%
M02*
