M48
; DRILL file {KiCad 9.0.7+1} date 2026-02-15T02:32:47+0000
; FORMAT={3:3/ absolute / metric / suppress leading zeros}
; #@! TF.CreationDate,2026-02-15T02:32:47+00:00
; #@! TF.GenerationSoftware,Kicad,Pcbnew,9.0.7+1
; #@! TF.FileFunction,Plated,1,2,PTH
FMAT,2
METRIC,TZ
; #@! TA.AperFunction,Plated,PTH,ViaDrill
T1C0.400
; #@! TA.AperFunction,Plated,PTH,ComponentDrill
T2C0.889
; #@! TA.AperFunction,Plated,PTH,ComponentDrill
T3C3.000
%
G90
G05
T1
X16104Y28042
X16764Y32639
X17374Y21184
X18034Y14944
X18542Y31344
X22006Y13259
X22708Y40284
X23686Y25005
X24689Y45263
X26238Y32537
X26721Y42037
X27178Y36601
X27508Y31054
X28321Y35306
X28448Y44577
X29210Y32766
X29333Y38141
X29362Y34874
X29718Y43544
X31306Y26043
X32247Y28044
X33147Y31113
X33401Y35179
X33477Y29616
X33693Y23584
X33884Y41859
X34001Y33549
X34040Y24522
X34699Y22059
X34886Y34434
X35255Y44907
X35707Y13259
X35966Y31394
X36629Y17526
X37084Y16256
X37336Y35640
X37465Y19304
X37472Y47733
X37801Y34574
X38608Y49403
X38693Y27957
X39116Y11938
X39573Y34569
X39751Y20828
X40001Y29245
X40132Y16154
X40640Y39878
X40945Y30810
X42291Y10541
X42545Y7112
X42571Y44989
X42672Y22900
X43561Y20828
X43612Y43053
X43815Y31750
X44069Y35560
X44552Y47879
X44679Y43053
X44867Y23992
X45479Y44069
X45568Y19050
X45850Y17031
X45953Y25168
X46126Y35408
X46186Y28403
X46609Y32766
X47346Y47803
X47650Y39726
X48209Y17882
X48591Y21619
X49987Y36906
X50140Y39649
X50140Y32283
X50546Y20472
X50749Y47396
X51308Y44196
X51435Y12167
X51511Y24257
X51733Y25610
X53391Y37948
X53467Y22860
X53594Y32512
X54331Y11252
X55023Y34336
X57658Y46126
X58471Y38710
X61671Y35052
X63398Y32766
X63703Y40792
X64770Y19101
X64872Y34417
X66294Y16459
X66345Y20625
X70968Y41910
X71272Y30937
X72187Y36881
T2
X22860Y53340
X22860Y50800
X25400Y53340
X25400Y50800
X27940Y53340
X27940Y50800
X30480Y53340
X30480Y50800
X33020Y53340
X33020Y50800
X35560Y53340
X35560Y50800
X38100Y53340
X38100Y50800
X40640Y53340
X40640Y50800
X43180Y53340
X43180Y50800
X45720Y53340
X45720Y50800
X48260Y53340
X48260Y50800
X50800Y53340
X50800Y50800
X53340Y53340
X53340Y50800
X55880Y53340
X55880Y50800
X58420Y53340
X58420Y50800
T3
X10160Y50800
X10160Y10160
X71120Y50800
X71120Y10160
M30
