%TF.GenerationSoftware,KiCad,Pcbnew,9.0.6+1*%
%TF.CreationDate,2025-12-28T14:22:33+00:00*%
%TF.ProjectId,TFUNIPAYLOAD01,5446554e-4950-4415-994c-4f414430312e,rev?*%
%TF.SameCoordinates,PX66dd020PY81342c0*%
%TF.FileFunction,Soldermask,Bot*%
%TF.FilePolarity,Negative*%
%FSLAX46Y46*%
G04 Gerber Fmt 4.6, Leading zero omitted, Abs format (unit mm)*
G04 Created by KiCad (PCBNEW 9.0.6+1) date 2025-12-28 14:22:33*
%MOMM*%
%LPD*%
G01*
G04 APERTURE LIST*
G04 Aperture macros list*
%AMRoundRect*
0 Rectangle with rounded corners*
0 $1 Rounding radius*
0 $2 $3 $4 $5 $6 $7 $8 $9 X,Y pos of 4 corners*
0 Add a 4 corners polygon primitive as box body*
4,1,4,$2,$3,$4,$5,$6,$7,$8,$9,$2,$3,0*
0 Add four circle primitives for the rounded corners*
1,1,$1+$1,$2,$3*
1,1,$1+$1,$4,$5*
1,1,$1+$1,$6,$7*
1,1,$1+$1,$8,$9*
0 Add four rect primitives between the rounded corners*
20,1,$1+$1,$2,$3,$4,$5,0*
20,1,$1+$1,$4,$5,$6,$7,0*
20,1,$1+$1,$6,$7,$8,$9,0*
20,1,$1+$1,$8,$9,$2,$3,0*%
%AMFreePoly0*
4,1,43,0.551423,0.811284,0.578785,0.763892,0.580000,0.750000,0.580000,-0.750000,0.561284,-0.801423,0.513892,-0.828785,0.500000,-0.830000,0.000000,-0.830000,-0.011754,-0.825722,-0.065263,-0.825722,-0.085968,-0.822996,-0.212047,-0.789214,-0.231342,-0.781222,-0.344381,-0.715959,-0.360950,-0.703246,-0.453246,-0.610950,-0.465959,-0.594381,-0.531222,-0.481342,-0.539214,-0.462047,-0.572996,-0.335968,
-0.575722,-0.315263,-0.575722,-0.269197,-0.578785,-0.263892,-0.580000,-0.250000,-0.580000,0.250000,-0.575722,0.261753,-0.575722,0.315263,-0.572996,0.335968,-0.539214,0.462047,-0.531222,0.481342,-0.465959,0.594381,-0.453246,0.610950,-0.360950,0.703246,-0.344381,0.715959,-0.231342,0.781222,-0.212047,0.789214,-0.085968,0.822996,-0.065263,0.825722,-0.019197,0.825722,-0.013892,0.828785,
0.000000,0.830000,0.500000,0.830000,0.551423,0.811284,0.551423,0.811284,$1*%
%AMFreePoly1*
4,1,43,0.011754,0.825722,0.065263,0.825722,0.085968,0.822996,0.212047,0.789214,0.231342,0.781222,0.344381,0.715959,0.360950,0.703246,0.453246,0.610950,0.465959,0.594381,0.531222,0.481342,0.539214,0.462047,0.572996,0.335968,0.575722,0.315263,0.575722,0.269197,0.578785,0.263892,0.580000,0.250000,0.580000,-0.250000,0.575722,-0.261753,0.575722,-0.315263,0.572996,-0.335968,
0.539214,-0.462047,0.531222,-0.481342,0.465959,-0.594381,0.453246,-0.610950,0.360950,-0.703246,0.344381,-0.715959,0.231342,-0.781222,0.212047,-0.789214,0.085968,-0.822996,0.065263,-0.825722,0.019197,-0.825722,0.013892,-0.828785,0.000000,-0.830000,-0.500000,-0.830000,-0.551423,-0.811284,-0.578785,-0.763892,-0.580000,-0.750000,-0.580000,0.750000,-0.561284,0.801423,-0.513892,0.828785,
-0.500000,0.830000,0.000000,0.830000,0.011754,0.825722,0.011754,0.825722,$1*%
G04 Aperture macros list end*
%ADD10C,6.160000*%
%ADD11RoundRect,0.080000X0.762000X-0.762000X0.762000X0.762000X-0.762000X0.762000X-0.762000X-0.762000X0*%
%ADD12RoundRect,0.290000X0.290000X0.515000X-0.290000X0.515000X-0.290000X-0.515000X0.290000X-0.515000X0*%
%ADD13RoundRect,0.177500X0.177500X-0.640000X0.177500X0.640000X-0.177500X0.640000X-0.177500X-0.640000X0*%
%ADD14RoundRect,0.177500X0.640000X-0.177500X0.640000X0.177500X-0.640000X0.177500X-0.640000X-0.177500X0*%
%ADD15RoundRect,0.289024X-0.303476X-0.490976X0.303476X-0.490976X0.303476X0.490976X-0.303476X0.490976X0*%
%ADD16RoundRect,0.289024X-0.490976X0.303476X-0.490976X-0.303476X0.490976X-0.303476X0.490976X0.303476X0*%
%ADD17RoundRect,0.290000X-0.515000X0.290000X-0.515000X-0.290000X0.515000X-0.290000X0.515000X0.290000X0*%
%ADD18RoundRect,0.290000X0.515000X-0.290000X0.515000X0.290000X-0.515000X0.290000X-0.515000X-0.290000X0*%
%ADD19C,2.000000*%
%ADD20RoundRect,0.076667X0.338333X0.153333X-0.338333X0.153333X-0.338333X-0.153333X0.338333X-0.153333X0*%
%ADD21RoundRect,0.290000X-0.290000X-0.515000X0.290000X-0.515000X0.290000X0.515000X-0.290000X0.515000X0*%
%ADD22RoundRect,0.190000X0.190000X0.740000X-0.190000X0.740000X-0.190000X-0.740000X0.190000X-0.740000X0*%
%ADD23RoundRect,0.290000X0.290000X1.140000X-0.290000X1.140000X-0.290000X-1.140000X0.290000X-1.140000X0*%
%ADD24RoundRect,0.190000X0.627500X0.190000X-0.627500X0.190000X-0.627500X-0.190000X0.627500X-0.190000X0*%
%ADD25RoundRect,0.289024X0.303476X0.490976X-0.303476X0.490976X-0.303476X-0.490976X0.303476X-0.490976X0*%
%ADD26RoundRect,0.277500X-0.277500X0.327500X-0.277500X-0.327500X0.277500X-0.327500X0.277500X0.327500X0*%
%ADD27RoundRect,0.180000X0.495000X0.620000X-0.495000X0.620000X-0.495000X-0.620000X0.495000X-0.620000X0*%
%ADD28RoundRect,0.180000X-0.495000X-0.620000X0.495000X-0.620000X0.495000X0.620000X-0.495000X0.620000X0*%
%ADD29RoundRect,0.190000X0.240000X-0.190000X0.240000X0.190000X-0.240000X0.190000X-0.240000X-0.190000X0*%
%ADD30RoundRect,0.080000X-0.350000X0.300000X-0.350000X-0.300000X0.350000X-0.300000X0.350000X0.300000X0*%
%ADD31RoundRect,0.289024X0.490976X-0.303476X0.490976X0.303476X-0.490976X0.303476X-0.490976X-0.303476X0*%
%ADD32C,1.160000*%
%ADD33RoundRect,0.283333X0.496667X0.396667X-0.496667X0.396667X-0.496667X-0.396667X0.496667X-0.396667X0*%
%ADD34FreePoly0,0.000000*%
%ADD35FreePoly1,0.000000*%
%ADD36RoundRect,0.180000X-0.620000X0.495000X-0.620000X-0.495000X0.620000X-0.495000X0.620000X0.495000X0*%
%ADD37RoundRect,0.180000X0.620000X-0.495000X0.620000X0.495000X-0.620000X0.495000X-0.620000X-0.495000X0*%
%ADD38RoundRect,0.282000X0.898000X-0.423000X0.898000X0.423000X-0.898000X0.423000X-0.898000X-0.423000X0*%
G04 APERTURE END LIST*
%TO.C,JP1*%
G36*
X42268000Y12534200D02*
G01*
X42568000Y12534200D01*
X42568000Y14034200D01*
X42268000Y14034200D01*
X42268000Y12534200D01*
G37*
%TD*%
D10*
%TO.C,M2*%
X71120000Y50800000D03*
%TD*%
%TO.C,M3*%
X10160000Y10160000D03*
%TD*%
%TO.C,M4*%
X71120000Y10160000D03*
%TD*%
%TO.C,M1*%
X10160000Y50800000D03*
%TD*%
D11*
%TO.C,J5*%
X22860000Y50800000D03*
X22860000Y53340000D03*
X25400000Y50800000D03*
X25400000Y53340000D03*
X27940000Y50800000D03*
X27940000Y53340000D03*
X30480000Y50800000D03*
X30480000Y53340000D03*
X33020000Y50800000D03*
X33020000Y53340000D03*
X35560000Y50800000D03*
X35560000Y53340000D03*
X38100000Y50800000D03*
X38100000Y53340000D03*
X40640000Y50800000D03*
X40640000Y53340000D03*
X43180000Y50800000D03*
X43180000Y53340000D03*
X45720000Y50800000D03*
X45720000Y53340000D03*
X48260000Y50800000D03*
X48260000Y53340000D03*
X50800000Y50800000D03*
X50800000Y53340000D03*
X53340000Y50800000D03*
X53340000Y53340000D03*
X55880000Y50800000D03*
X55880000Y53340000D03*
X58420000Y50800000D03*
X58420000Y53340000D03*
%TD*%
D12*
%TO.C,C9*%
X37399000Y40360600D03*
X35499000Y40360600D03*
%TD*%
%TO.C,C8*%
X37399000Y42418000D03*
X35499000Y42418000D03*
%TD*%
D13*
%TO.C,U2*%
X40601400Y26341500D03*
X39801400Y26341500D03*
X39001400Y26341500D03*
X38201400Y26341500D03*
X37401400Y26341500D03*
X36601400Y26341500D03*
X35801400Y26341500D03*
X35001400Y26341500D03*
X34201400Y26341500D03*
X33401400Y26341500D03*
X32601400Y26341500D03*
D14*
X30938900Y28004000D03*
X30938900Y28804000D03*
X30938900Y29604000D03*
X30938900Y30404000D03*
X30938900Y31204000D03*
X30938900Y32004000D03*
X30938900Y32804000D03*
X30938900Y33604000D03*
X30938900Y34404000D03*
X30938900Y35204000D03*
X30938900Y36004000D03*
D13*
X32601400Y37666500D03*
X33401400Y37666500D03*
X34201400Y37666500D03*
X35001400Y37666500D03*
X35801400Y37666500D03*
X36601400Y37666500D03*
X37401400Y37666500D03*
X38201400Y37666500D03*
X39001400Y37666500D03*
X39801400Y37666500D03*
X40601400Y37666500D03*
D14*
X42263900Y36004000D03*
X42263900Y35204000D03*
X42263900Y34404000D03*
X42263900Y33604000D03*
X42263900Y32804000D03*
X42263900Y32004000D03*
X42263900Y31204000D03*
X42263900Y30404000D03*
X42263900Y29604000D03*
X42263900Y28804000D03*
X42263900Y28004000D03*
%TD*%
D15*
%TO.C,R12*%
X24690700Y26009600D03*
X26515700Y26009600D03*
%TD*%
D16*
%TO.C,R5*%
X39598600Y24001100D03*
X39598600Y22176100D03*
%TD*%
D17*
%TO.C,C10*%
X37312600Y24064000D03*
X37312600Y22164000D03*
%TD*%
%TO.C,C11*%
X45034200Y32954000D03*
X45034200Y31054000D03*
%TD*%
D18*
%TO.C,C12*%
X27508200Y31054000D03*
X27508200Y32954000D03*
%TD*%
D17*
%TO.C,C2*%
X41529000Y24013200D03*
X41529000Y22113200D03*
%TD*%
D15*
%TO.C,R13*%
X24665300Y28524200D03*
X26490300Y28524200D03*
%TD*%
D19*
%TO.C,FID1*%
X8509000Y16637000D03*
%TD*%
D20*
%TO.C,U1*%
X57432800Y34520700D03*
X57432800Y34020700D03*
X57432800Y33520700D03*
X57432800Y33020700D03*
X55952800Y33020700D03*
X55952800Y33520700D03*
X55952800Y34020700D03*
X55952800Y34520700D03*
%TD*%
D21*
%TO.C,C6*%
X58765400Y36855400D03*
X60665400Y36855400D03*
%TD*%
D22*
%TO.C,J1*%
X49419200Y10363200D03*
X48169200Y10363200D03*
X46919200Y10363200D03*
X45669200Y10363200D03*
X44419200Y10363200D03*
X43169200Y10363200D03*
D23*
X51269200Y7163200D03*
X41319200Y7163200D03*
%TD*%
D24*
%TO.C,Q2*%
X17371300Y42402800D03*
X17371300Y40502800D03*
X15496300Y41452800D03*
%TD*%
D21*
%TO.C,C13*%
X67503000Y30861000D03*
X69403000Y30861000D03*
%TD*%
D19*
%TO.C,FID3*%
X17119600Y52247800D03*
%TD*%
D25*
%TO.C,R10*%
X57249700Y36042600D03*
X55424700Y36042600D03*
%TD*%
D17*
%TO.C,C3*%
X31013400Y20711200D03*
X31013400Y18811200D03*
%TD*%
D25*
%TO.C,R22*%
X67155700Y36144200D03*
X65330700Y36144200D03*
%TD*%
D26*
%TO.C,L1*%
X52959000Y14387800D03*
X52959000Y12637800D03*
%TD*%
D12*
%TO.C,C7*%
X57261800Y37973000D03*
X55361800Y37973000D03*
%TD*%
D22*
%TO.C,J2*%
X27005600Y10363200D03*
X25755600Y10363200D03*
X24505600Y10363200D03*
X23255600Y10363200D03*
X22005600Y10363200D03*
X20755600Y10363200D03*
X19505600Y10363200D03*
X18255600Y10363200D03*
D23*
X28855600Y7163200D03*
X16405600Y7163200D03*
%TD*%
D27*
%TO.C,D3*%
X10258200Y36969700D03*
D28*
X6658200Y36969700D03*
%TD*%
D25*
%TO.C,R7*%
X21740500Y38150800D03*
X19915500Y38150800D03*
%TD*%
%TO.C,R6*%
X13587100Y37134800D03*
X11762100Y37134800D03*
%TD*%
D16*
%TO.C,R21*%
X30988000Y24382100D03*
X30988000Y22557100D03*
%TD*%
D22*
%TO.C,J6*%
X63126000Y10363200D03*
X61876000Y10363200D03*
X60626000Y10363200D03*
X59376000Y10363200D03*
X58126000Y10363200D03*
X56876000Y10363200D03*
X55626000Y10363200D03*
D23*
X64976000Y7163200D03*
X53776000Y7163200D03*
%TD*%
D22*
%TO.C,J4*%
X36957400Y10363200D03*
X35707400Y10363200D03*
X34457400Y10363200D03*
X33207400Y10363200D03*
D23*
X38807400Y7163200D03*
X31357400Y7163200D03*
%TD*%
D29*
%TO.C,D1*%
X49936400Y14619200D03*
X49936400Y13219200D03*
%TD*%
D30*
%TO.C,SW2*%
X45633600Y44197400D03*
X45633600Y41197400D03*
X47533600Y44197400D03*
X47533600Y41197400D03*
%TD*%
D27*
%TO.C,D4*%
X10258200Y41529000D03*
D28*
X6658200Y41529000D03*
%TD*%
D31*
%TO.C,R28*%
X59156600Y12625700D03*
X59156600Y14450700D03*
%TD*%
D30*
%TO.C,SW1*%
X42357000Y44197400D03*
X42357000Y41197400D03*
X44257000Y44197400D03*
X44257000Y41197400D03*
%TD*%
D16*
%TO.C,R20*%
X28321000Y20394300D03*
X28321000Y18569300D03*
%TD*%
%TO.C,R4*%
X46151800Y14831700D03*
X46151800Y13006700D03*
%TD*%
%TO.C,R18*%
X25970700Y14710800D03*
X25970700Y12885800D03*
%TD*%
D15*
%TO.C,R15*%
X11787500Y32486600D03*
X13612500Y32486600D03*
%TD*%
D32*
%TO.C,TP2*%
X31292800Y40284400D03*
%TD*%
D16*
%TO.C,R19*%
X24078400Y14710800D03*
X24078400Y12885800D03*
%TD*%
D32*
%TO.C,TP1*%
X28092400Y37541200D03*
%TD*%
D16*
%TO.C,R23*%
X63525400Y36320100D03*
X63525400Y34495100D03*
%TD*%
D19*
%TO.C,FID2*%
X73710800Y15875000D03*
%TD*%
D33*
%TO.C,Y1*%
X35214800Y18915800D03*
X33014800Y18915800D03*
X33014800Y20615800D03*
X35214800Y20615800D03*
%TD*%
D34*
%TO.C,JP1*%
X41768000Y13284200D03*
D35*
X43068000Y13284200D03*
%TD*%
D12*
%TO.C,C15*%
X67167800Y38074600D03*
X65267800Y38074600D03*
%TD*%
D21*
%TO.C,C1*%
X49977000Y16281400D03*
X51877000Y16281400D03*
%TD*%
D36*
%TO.C,D5*%
X61544200Y50134300D03*
D37*
X61544200Y46534300D03*
%TD*%
D31*
%TO.C,R3*%
X46050200Y37797100D03*
X46050200Y39622100D03*
%TD*%
%TO.C,R25*%
X63017400Y12625700D03*
X63017400Y14450700D03*
%TD*%
D38*
%TO.C,L3*%
X69291200Y32910200D03*
X69291200Y35060200D03*
%TD*%
D31*
%TO.C,R27*%
X61087000Y12625700D03*
X61087000Y14450700D03*
%TD*%
%TO.C,R30*%
X55295800Y12625700D03*
X55295800Y14450700D03*
%TD*%
D12*
%TO.C,C4*%
X35087600Y17018000D03*
X33187600Y17018000D03*
%TD*%
D38*
%TO.C,L2*%
X59385200Y32808600D03*
X59385200Y34958600D03*
%TD*%
D25*
%TO.C,R2*%
X44194100Y39395400D03*
X42369100Y39395400D03*
%TD*%
%TO.C,R8*%
X13409300Y41503600D03*
X11584300Y41503600D03*
%TD*%
D29*
%TO.C,D2*%
X51409600Y14644600D03*
X51409600Y13244600D03*
%TD*%
D24*
%TO.C,Q1*%
X17498300Y38186400D03*
X17498300Y36286400D03*
X15623300Y37236400D03*
%TD*%
D15*
%TO.C,R26*%
X28729300Y46710600D03*
X30554300Y46710600D03*
%TD*%
D21*
%TO.C,C14*%
X68671400Y36906200D03*
X70571400Y36906200D03*
%TD*%
D16*
%TO.C,R17*%
X27863000Y14708900D03*
X27863000Y12883900D03*
%TD*%
D31*
%TO.C,R29*%
X57226200Y12625700D03*
X57226200Y14450700D03*
%TD*%
%TO.C,R24*%
X64770000Y51665500D03*
X64770000Y53490500D03*
%TD*%
D16*
%TO.C,R11*%
X53695600Y36066100D03*
X53695600Y34241100D03*
%TD*%
D28*
%TO.C,D6*%
X6658200Y32410400D03*
D27*
X10258200Y32410400D03*
%TD*%
D36*
%TO.C,D7*%
X65100200Y50110800D03*
D37*
X65100200Y46510800D03*
%TD*%
D20*
%TO.C,U3*%
X67338800Y34622300D03*
X67338800Y34122300D03*
X67338800Y33622300D03*
X67338800Y33122300D03*
X65858800Y33122300D03*
X65858800Y33622300D03*
X65858800Y34122300D03*
X65858800Y34622300D03*
%TD*%
D31*
%TO.C,R14*%
X61468000Y51689000D03*
X61468000Y53514000D03*
%TD*%
D21*
%TO.C,C5*%
X57597000Y30759400D03*
X59497000Y30759400D03*
%TD*%
D25*
%TO.C,R9*%
X21613500Y42418000D03*
X19788500Y42418000D03*
%TD*%
D16*
%TO.C,R1*%
X48183800Y14831700D03*
X48183800Y13006700D03*
%TD*%
M02*
