%TF.GenerationSoftware,KiCad,Pcbnew,9.0.6+1*%
%TF.CreationDate,2025-12-27T00:11:24+00:00*%
%TF.ProjectId,TFUNIPAYLOAD01,5446554e-4950-4415-994c-4f414430312e,rev?*%
%TF.SameCoordinates,PX66dd020PY81342c0*%
%TF.FileFunction,Legend,Top*%
%TF.FilePolarity,Positive*%
%FSLAX46Y46*%
G04 Gerber Fmt 4.6, Leading zero omitted, Abs format (unit mm)*
G04 Created by KiCad (PCBNEW 9.0.6+1) date 2025-12-27 00:11:24*
%MOMM*%
%LPD*%
G01*
G04 APERTURE LIST*
%ADD10C,0.150000*%
%ADD11C,0.300000*%
%ADD12C,0.200000*%
%ADD13C,0.120000*%
G04 APERTURE END LIST*
D10*
X-54626200Y-4450600D02*
X-44526200Y-4450600D01*
X-44526200Y-11150600D01*
X-54626200Y-11150600D01*
X-54626200Y-4450600D01*
D11*
X-53954534Y28615147D02*
X-52983105Y28615147D01*
X-53468819Y26915147D02*
X-53468819Y28615147D01*
X-51849772Y27805623D02*
X-52416439Y27805623D01*
X-52416439Y26915147D02*
X-52416439Y28615147D01*
X-52416439Y28615147D02*
X-51606915Y28615147D01*
X-50959296Y28615147D02*
X-50959296Y27238957D01*
X-50959296Y27238957D02*
X-50878343Y27077052D01*
X-50878343Y27077052D02*
X-50797391Y26996099D01*
X-50797391Y26996099D02*
X-50635486Y26915147D01*
X-50635486Y26915147D02*
X-50311677Y26915147D01*
X-50311677Y26915147D02*
X-50149772Y26996099D01*
X-50149772Y26996099D02*
X-50068819Y27077052D01*
X-50068819Y27077052D02*
X-49987867Y27238957D01*
X-49987867Y27238957D02*
X-49987867Y28615147D01*
X-49178344Y26915147D02*
X-49178344Y28615147D01*
X-49178344Y28615147D02*
X-48206915Y26915147D01*
X-48206915Y26915147D02*
X-48206915Y28615147D01*
X-47397392Y26915147D02*
X-47397392Y28615147D01*
X-46587868Y26915147D02*
X-46587868Y28615147D01*
X-46587868Y28615147D02*
X-45940249Y28615147D01*
X-45940249Y28615147D02*
X-45778344Y28534195D01*
X-45778344Y28534195D02*
X-45697391Y28453242D01*
X-45697391Y28453242D02*
X-45616439Y28291338D01*
X-45616439Y28291338D02*
X-45616439Y28048480D01*
X-45616439Y28048480D02*
X-45697391Y27886576D01*
X-45697391Y27886576D02*
X-45778344Y27805623D01*
X-45778344Y27805623D02*
X-45940249Y27724671D01*
X-45940249Y27724671D02*
X-46587868Y27724671D01*
X-44968820Y27400861D02*
X-44159296Y27400861D01*
X-45130725Y26915147D02*
X-44564058Y28615147D01*
X-44564058Y28615147D02*
X-43997391Y26915147D01*
X-43106915Y27724671D02*
X-43106915Y26915147D01*
X-43673582Y28615147D02*
X-43106915Y27724671D01*
X-43106915Y27724671D02*
X-42540248Y28615147D01*
X-41164058Y26915147D02*
X-41973582Y26915147D01*
X-41973582Y26915147D02*
X-41973582Y28615147D01*
X-40273582Y28615147D02*
X-39949773Y28615147D01*
X-39949773Y28615147D02*
X-39787868Y28534195D01*
X-39787868Y28534195D02*
X-39625963Y28372290D01*
X-39625963Y28372290D02*
X-39545011Y28048480D01*
X-39545011Y28048480D02*
X-39545011Y27481814D01*
X-39545011Y27481814D02*
X-39625963Y27158004D01*
X-39625963Y27158004D02*
X-39787868Y26996099D01*
X-39787868Y26996099D02*
X-39949773Y26915147D01*
X-39949773Y26915147D02*
X-40273582Y26915147D01*
X-40273582Y26915147D02*
X-40435487Y26996099D01*
X-40435487Y26996099D02*
X-40597392Y27158004D01*
X-40597392Y27158004D02*
X-40678344Y27481814D01*
X-40678344Y27481814D02*
X-40678344Y28048480D01*
X-40678344Y28048480D02*
X-40597392Y28372290D01*
X-40597392Y28372290D02*
X-40435487Y28534195D01*
X-40435487Y28534195D02*
X-40273582Y28615147D01*
X-38897392Y27400861D02*
X-38087868Y27400861D01*
X-39059297Y26915147D02*
X-38492630Y28615147D01*
X-38492630Y28615147D02*
X-37925963Y26915147D01*
X-37359297Y26915147D02*
X-37359297Y28615147D01*
X-37359297Y28615147D02*
X-36954535Y28615147D01*
X-36954535Y28615147D02*
X-36711678Y28534195D01*
X-36711678Y28534195D02*
X-36549773Y28372290D01*
X-36549773Y28372290D02*
X-36468820Y28210385D01*
X-36468820Y28210385D02*
X-36387868Y27886576D01*
X-36387868Y27886576D02*
X-36387868Y27643719D01*
X-36387868Y27643719D02*
X-36468820Y27319909D01*
X-36468820Y27319909D02*
X-36549773Y27158004D01*
X-36549773Y27158004D02*
X-36711678Y26996099D01*
X-36711678Y26996099D02*
X-36954535Y26915147D01*
X-36954535Y26915147D02*
X-37359297Y26915147D01*
X-35335487Y28615147D02*
X-35173582Y28615147D01*
X-35173582Y28615147D02*
X-35011678Y28534195D01*
X-35011678Y28534195D02*
X-34930725Y28453242D01*
X-34930725Y28453242D02*
X-34849773Y28291338D01*
X-34849773Y28291338D02*
X-34768820Y27967528D01*
X-34768820Y27967528D02*
X-34768820Y27562766D01*
X-34768820Y27562766D02*
X-34849773Y27238957D01*
X-34849773Y27238957D02*
X-34930725Y27077052D01*
X-34930725Y27077052D02*
X-35011678Y26996099D01*
X-35011678Y26996099D02*
X-35173582Y26915147D01*
X-35173582Y26915147D02*
X-35335487Y26915147D01*
X-35335487Y26915147D02*
X-35497392Y26996099D01*
X-35497392Y26996099D02*
X-35578344Y27077052D01*
X-35578344Y27077052D02*
X-35659297Y27238957D01*
X-35659297Y27238957D02*
X-35740249Y27562766D01*
X-35740249Y27562766D02*
X-35740249Y27967528D01*
X-35740249Y27967528D02*
X-35659297Y28291338D01*
X-35659297Y28291338D02*
X-35578344Y28453242D01*
X-35578344Y28453242D02*
X-35497392Y28534195D01*
X-35497392Y28534195D02*
X-35335487Y28615147D01*
X-33149772Y26915147D02*
X-34121201Y26915147D01*
X-33635487Y26915147D02*
X-33635487Y28615147D01*
X-33635487Y28615147D02*
X-33797391Y28372290D01*
X-33797391Y28372290D02*
X-33959296Y28210385D01*
X-33959296Y28210385D02*
X-34121201Y28129433D01*
X-31854534Y27805623D02*
X-31611677Y27724671D01*
X-31611677Y27724671D02*
X-31530724Y27643719D01*
X-31530724Y27643719D02*
X-31449772Y27481814D01*
X-31449772Y27481814D02*
X-31449772Y27238957D01*
X-31449772Y27238957D02*
X-31530724Y27077052D01*
X-31530724Y27077052D02*
X-31611677Y26996099D01*
X-31611677Y26996099D02*
X-31773582Y26915147D01*
X-31773582Y26915147D02*
X-32421201Y26915147D01*
X-32421201Y26915147D02*
X-32421201Y28615147D01*
X-32421201Y28615147D02*
X-31854534Y28615147D01*
X-31854534Y28615147D02*
X-31692629Y28534195D01*
X-31692629Y28534195D02*
X-31611677Y28453242D01*
X-31611677Y28453242D02*
X-31530724Y28291338D01*
X-31530724Y28291338D02*
X-31530724Y28129433D01*
X-31530724Y28129433D02*
X-31611677Y27967528D01*
X-31611677Y27967528D02*
X-31692629Y27886576D01*
X-31692629Y27886576D02*
X-31854534Y27805623D01*
X-31854534Y27805623D02*
X-32421201Y27805623D01*
X78371526Y31879646D02*
X78300098Y31951074D01*
X78300098Y31951074D02*
X78228669Y32093931D01*
X78228669Y32093931D02*
X78228669Y32451074D01*
X78228669Y32451074D02*
X78300098Y32593931D01*
X78300098Y32593931D02*
X78371526Y32665360D01*
X78371526Y32665360D02*
X78514383Y32736789D01*
X78514383Y32736789D02*
X78657241Y32736789D01*
X78657241Y32736789D02*
X78871526Y32665360D01*
X78871526Y32665360D02*
X79728669Y31808217D01*
X79728669Y31808217D02*
X79728669Y32736789D01*
X78228669Y33665360D02*
X78228669Y33808217D01*
X78228669Y33808217D02*
X78300098Y33951074D01*
X78300098Y33951074D02*
X78371526Y34022502D01*
X78371526Y34022502D02*
X78514383Y34093931D01*
X78514383Y34093931D02*
X78800098Y34165360D01*
X78800098Y34165360D02*
X79157241Y34165360D01*
X79157241Y34165360D02*
X79442955Y34093931D01*
X79442955Y34093931D02*
X79585812Y34022502D01*
X79585812Y34022502D02*
X79657241Y33951074D01*
X79657241Y33951074D02*
X79728669Y33808217D01*
X79728669Y33808217D02*
X79728669Y33665360D01*
X79728669Y33665360D02*
X79657241Y33522502D01*
X79657241Y33522502D02*
X79585812Y33451074D01*
X79585812Y33451074D02*
X79442955Y33379645D01*
X79442955Y33379645D02*
X79157241Y33308217D01*
X79157241Y33308217D02*
X78800098Y33308217D01*
X78800098Y33308217D02*
X78514383Y33379645D01*
X78514383Y33379645D02*
X78371526Y33451074D01*
X78371526Y33451074D02*
X78300098Y33522502D01*
X78300098Y33522502D02*
X78228669Y33665360D01*
X78371526Y34736788D02*
X78300098Y34808216D01*
X78300098Y34808216D02*
X78228669Y34951073D01*
X78228669Y34951073D02*
X78228669Y35308216D01*
X78228669Y35308216D02*
X78300098Y35451073D01*
X78300098Y35451073D02*
X78371526Y35522502D01*
X78371526Y35522502D02*
X78514383Y35593931D01*
X78514383Y35593931D02*
X78657241Y35593931D01*
X78657241Y35593931D02*
X78871526Y35522502D01*
X78871526Y35522502D02*
X79728669Y34665359D01*
X79728669Y34665359D02*
X79728669Y35593931D01*
X78228669Y36093930D02*
X78228669Y37022502D01*
X78228669Y37022502D02*
X78800098Y36522502D01*
X78800098Y36522502D02*
X78800098Y36736787D01*
X78800098Y36736787D02*
X78871526Y36879644D01*
X78871526Y36879644D02*
X78942955Y36951073D01*
X78942955Y36951073D02*
X79085812Y37022502D01*
X79085812Y37022502D02*
X79442955Y37022502D01*
X79442955Y37022502D02*
X79585812Y36951073D01*
X79585812Y36951073D02*
X79657241Y36879644D01*
X79657241Y36879644D02*
X79728669Y36736787D01*
X79728669Y36736787D02*
X79728669Y36308216D01*
X79728669Y36308216D02*
X79657241Y36165359D01*
X79657241Y36165359D02*
X79585812Y36093930D01*
D12*
X-53004146Y-5210582D02*
X-53127956Y-5148677D01*
X-53127956Y-5148677D02*
X-53313670Y-5148677D01*
X-53313670Y-5148677D02*
X-53499384Y-5210582D01*
X-53499384Y-5210582D02*
X-53623194Y-5334392D01*
X-53623194Y-5334392D02*
X-53685099Y-5458201D01*
X-53685099Y-5458201D02*
X-53747003Y-5705820D01*
X-53747003Y-5705820D02*
X-53747003Y-5891534D01*
X-53747003Y-5891534D02*
X-53685099Y-6139153D01*
X-53685099Y-6139153D02*
X-53623194Y-6262963D01*
X-53623194Y-6262963D02*
X-53499384Y-6386773D01*
X-53499384Y-6386773D02*
X-53313670Y-6448677D01*
X-53313670Y-6448677D02*
X-53189861Y-6448677D01*
X-53189861Y-6448677D02*
X-53004146Y-6386773D01*
X-53004146Y-6386773D02*
X-52942242Y-6324868D01*
X-52942242Y-6324868D02*
X-52942242Y-5891534D01*
X-52942242Y-5891534D02*
X-53189861Y-5891534D01*
X-52385099Y-6448677D02*
X-52385099Y-5148677D01*
X-52385099Y-5148677D02*
X-51642242Y-6448677D01*
X-51642242Y-6448677D02*
X-51642242Y-5148677D01*
X-51023194Y-6448677D02*
X-51023194Y-5148677D01*
X-51023194Y-5148677D02*
X-50713670Y-5148677D01*
X-50713670Y-5148677D02*
X-50527956Y-5210582D01*
X-50527956Y-5210582D02*
X-50404146Y-5334392D01*
X-50404146Y-5334392D02*
X-50342241Y-5458201D01*
X-50342241Y-5458201D02*
X-50280337Y-5705820D01*
X-50280337Y-5705820D02*
X-50280337Y-5891534D01*
X-50280337Y-5891534D02*
X-50342241Y-6139153D01*
X-50342241Y-6139153D02*
X-50404146Y-6262963D01*
X-50404146Y-6262963D02*
X-50527956Y-6386773D01*
X-50527956Y-6386773D02*
X-50713670Y-6448677D01*
X-50713670Y-6448677D02*
X-51023194Y-6448677D01*
X-53685099Y-8541604D02*
X-53685099Y-7241604D01*
X-53685099Y-7241604D02*
X-53189861Y-7241604D01*
X-53189861Y-7241604D02*
X-53066051Y-7303509D01*
X-53066051Y-7303509D02*
X-53004146Y-7365414D01*
X-53004146Y-7365414D02*
X-52942242Y-7489223D01*
X-52942242Y-7489223D02*
X-52942242Y-7674938D01*
X-52942242Y-7674938D02*
X-53004146Y-7798747D01*
X-53004146Y-7798747D02*
X-53066051Y-7860652D01*
X-53066051Y-7860652D02*
X-53189861Y-7922557D01*
X-53189861Y-7922557D02*
X-53685099Y-7922557D01*
X-51951765Y-7860652D02*
X-51766051Y-7922557D01*
X-51766051Y-7922557D02*
X-51704146Y-7984461D01*
X-51704146Y-7984461D02*
X-51642242Y-8108271D01*
X-51642242Y-8108271D02*
X-51642242Y-8293985D01*
X-51642242Y-8293985D02*
X-51704146Y-8417795D01*
X-51704146Y-8417795D02*
X-51766051Y-8479700D01*
X-51766051Y-8479700D02*
X-51889861Y-8541604D01*
X-51889861Y-8541604D02*
X-52385099Y-8541604D01*
X-52385099Y-8541604D02*
X-52385099Y-7241604D01*
X-52385099Y-7241604D02*
X-51951765Y-7241604D01*
X-51951765Y-7241604D02*
X-51827956Y-7303509D01*
X-51827956Y-7303509D02*
X-51766051Y-7365414D01*
X-51766051Y-7365414D02*
X-51704146Y-7489223D01*
X-51704146Y-7489223D02*
X-51704146Y-7613033D01*
X-51704146Y-7613033D02*
X-51766051Y-7736842D01*
X-51766051Y-7736842D02*
X-51827956Y-7798747D01*
X-51827956Y-7798747D02*
X-51951765Y-7860652D01*
X-51951765Y-7860652D02*
X-52385099Y-7860652D01*
X-50466051Y-7241604D02*
X-51085099Y-7241604D01*
X-51085099Y-7241604D02*
X-51147003Y-7860652D01*
X-51147003Y-7860652D02*
X-51085099Y-7798747D01*
X-51085099Y-7798747D02*
X-50961289Y-7736842D01*
X-50961289Y-7736842D02*
X-50651765Y-7736842D01*
X-50651765Y-7736842D02*
X-50527956Y-7798747D01*
X-50527956Y-7798747D02*
X-50466051Y-7860652D01*
X-50466051Y-7860652D02*
X-50404146Y-7984461D01*
X-50404146Y-7984461D02*
X-50404146Y-8293985D01*
X-50404146Y-8293985D02*
X-50466051Y-8417795D01*
X-50466051Y-8417795D02*
X-50527956Y-8479700D01*
X-50527956Y-8479700D02*
X-50651765Y-8541604D01*
X-50651765Y-8541604D02*
X-50961289Y-8541604D01*
X-50961289Y-8541604D02*
X-51085099Y-8479700D01*
X-51085099Y-8479700D02*
X-51147003Y-8417795D01*
X-53808908Y-9334531D02*
X-53004146Y-9334531D01*
X-53004146Y-9334531D02*
X-53437480Y-9829769D01*
X-53437480Y-9829769D02*
X-53251765Y-9829769D01*
X-53251765Y-9829769D02*
X-53127956Y-9891674D01*
X-53127956Y-9891674D02*
X-53066051Y-9953579D01*
X-53066051Y-9953579D02*
X-53004146Y-10077388D01*
X-53004146Y-10077388D02*
X-53004146Y-10386912D01*
X-53004146Y-10386912D02*
X-53066051Y-10510722D01*
X-53066051Y-10510722D02*
X-53127956Y-10572627D01*
X-53127956Y-10572627D02*
X-53251765Y-10634531D01*
X-53251765Y-10634531D02*
X-53623194Y-10634531D01*
X-53623194Y-10634531D02*
X-53747003Y-10572627D01*
X-53747003Y-10572627D02*
X-53808908Y-10510722D01*
X-52632718Y-9334531D02*
X-52199385Y-10634531D01*
X-52199385Y-10634531D02*
X-51766051Y-9334531D01*
X-51456527Y-9334531D02*
X-50651765Y-9334531D01*
X-50651765Y-9334531D02*
X-51085099Y-9829769D01*
X-51085099Y-9829769D02*
X-50899384Y-9829769D01*
X-50899384Y-9829769D02*
X-50775575Y-9891674D01*
X-50775575Y-9891674D02*
X-50713670Y-9953579D01*
X-50713670Y-9953579D02*
X-50651765Y-10077388D01*
X-50651765Y-10077388D02*
X-50651765Y-10386912D01*
X-50651765Y-10386912D02*
X-50713670Y-10510722D01*
X-50713670Y-10510722D02*
X-50775575Y-10572627D01*
X-50775575Y-10572627D02*
X-50899384Y-10634531D01*
X-50899384Y-10634531D02*
X-51270813Y-10634531D01*
X-51270813Y-10634531D02*
X-51394622Y-10572627D01*
X-51394622Y-10572627D02*
X-51456527Y-10510722D01*
X58557345Y55637074D02*
X57257345Y55637074D01*
X57257345Y55637074D02*
X57257345Y56094217D01*
X57257345Y56094217D02*
X57319250Y56208502D01*
X57319250Y56208502D02*
X57381155Y56265645D01*
X57381155Y56265645D02*
X57504964Y56322788D01*
X57504964Y56322788D02*
X57690679Y56322788D01*
X57690679Y56322788D02*
X57814488Y56265645D01*
X57814488Y56265645D02*
X57876393Y56208502D01*
X57876393Y56208502D02*
X57938298Y56094217D01*
X57938298Y56094217D02*
X57938298Y55637074D01*
X57257345Y56722788D02*
X58557345Y57008502D01*
X58557345Y57008502D02*
X57628774Y57237074D01*
X57628774Y57237074D02*
X58557345Y57465645D01*
X58557345Y57465645D02*
X57257345Y57751359D01*
X58557345Y58894217D02*
X57938298Y58494217D01*
X58557345Y58208503D02*
X57257345Y58208503D01*
X57257345Y58208503D02*
X57257345Y58665646D01*
X57257345Y58665646D02*
X57319250Y58779931D01*
X57319250Y58779931D02*
X57381155Y58837074D01*
X57381155Y58837074D02*
X57504964Y58894217D01*
X57504964Y58894217D02*
X57690679Y58894217D01*
X57690679Y58894217D02*
X57814488Y58837074D01*
X57814488Y58837074D02*
X57876393Y58779931D01*
X57876393Y58779931D02*
X57938298Y58665646D01*
X57938298Y58665646D02*
X57938298Y58208503D01*
X-48542242Y-6448677D02*
X-48975575Y-5829630D01*
X-49285099Y-6448677D02*
X-49285099Y-5148677D01*
X-49285099Y-5148677D02*
X-48789861Y-5148677D01*
X-48789861Y-5148677D02*
X-48666051Y-5210582D01*
X-48666051Y-5210582D02*
X-48604146Y-5272487D01*
X-48604146Y-5272487D02*
X-48542242Y-5396296D01*
X-48542242Y-5396296D02*
X-48542242Y-5582011D01*
X-48542242Y-5582011D02*
X-48604146Y-5705820D01*
X-48604146Y-5705820D02*
X-48666051Y-5767725D01*
X-48666051Y-5767725D02*
X-48789861Y-5829630D01*
X-48789861Y-5829630D02*
X-49285099Y-5829630D01*
X-48047003Y-6386773D02*
X-47861289Y-6448677D01*
X-47861289Y-6448677D02*
X-47551765Y-6448677D01*
X-47551765Y-6448677D02*
X-47427956Y-6386773D01*
X-47427956Y-6386773D02*
X-47366051Y-6324868D01*
X-47366051Y-6324868D02*
X-47304146Y-6201058D01*
X-47304146Y-6201058D02*
X-47304146Y-6077249D01*
X-47304146Y-6077249D02*
X-47366051Y-5953439D01*
X-47366051Y-5953439D02*
X-47427956Y-5891534D01*
X-47427956Y-5891534D02*
X-47551765Y-5829630D01*
X-47551765Y-5829630D02*
X-47799384Y-5767725D01*
X-47799384Y-5767725D02*
X-47923194Y-5705820D01*
X-47923194Y-5705820D02*
X-47985099Y-5643915D01*
X-47985099Y-5643915D02*
X-48047003Y-5520106D01*
X-48047003Y-5520106D02*
X-48047003Y-5396296D01*
X-48047003Y-5396296D02*
X-47985099Y-5272487D01*
X-47985099Y-5272487D02*
X-47923194Y-5210582D01*
X-47923194Y-5210582D02*
X-47799384Y-5148677D01*
X-47799384Y-5148677D02*
X-47489861Y-5148677D01*
X-47489861Y-5148677D02*
X-47304146Y-5210582D01*
X-46932718Y-5148677D02*
X-46189861Y-5148677D01*
X-46561289Y-6448677D02*
X-46561289Y-5148677D01*
X-49464622Y-4787773D02*
X-46196051Y-4787773D01*
X-49285099Y-8541604D02*
X-49285099Y-7241604D01*
X-49285099Y-7241604D02*
X-48789861Y-7241604D01*
X-48789861Y-7241604D02*
X-48666051Y-7303509D01*
X-48666051Y-7303509D02*
X-48604146Y-7365414D01*
X-48604146Y-7365414D02*
X-48542242Y-7489223D01*
X-48542242Y-7489223D02*
X-48542242Y-7674938D01*
X-48542242Y-7674938D02*
X-48604146Y-7798747D01*
X-48604146Y-7798747D02*
X-48666051Y-7860652D01*
X-48666051Y-7860652D02*
X-48789861Y-7922557D01*
X-48789861Y-7922557D02*
X-49285099Y-7922557D01*
X-47551765Y-7860652D02*
X-47366051Y-7922557D01*
X-47366051Y-7922557D02*
X-47304146Y-7984461D01*
X-47304146Y-7984461D02*
X-47242242Y-8108271D01*
X-47242242Y-8108271D02*
X-47242242Y-8293985D01*
X-47242242Y-8293985D02*
X-47304146Y-8417795D01*
X-47304146Y-8417795D02*
X-47366051Y-8479700D01*
X-47366051Y-8479700D02*
X-47489861Y-8541604D01*
X-47489861Y-8541604D02*
X-47985099Y-8541604D01*
X-47985099Y-8541604D02*
X-47985099Y-7241604D01*
X-47985099Y-7241604D02*
X-47551765Y-7241604D01*
X-47551765Y-7241604D02*
X-47427956Y-7303509D01*
X-47427956Y-7303509D02*
X-47366051Y-7365414D01*
X-47366051Y-7365414D02*
X-47304146Y-7489223D01*
X-47304146Y-7489223D02*
X-47304146Y-7613033D01*
X-47304146Y-7613033D02*
X-47366051Y-7736842D01*
X-47366051Y-7736842D02*
X-47427956Y-7798747D01*
X-47427956Y-7798747D02*
X-47551765Y-7860652D01*
X-47551765Y-7860652D02*
X-47985099Y-7860652D01*
X-46808908Y-7241604D02*
X-45942242Y-7241604D01*
X-45942242Y-7241604D02*
X-46499384Y-8541604D01*
X-49285099Y-10634531D02*
X-49285099Y-9334531D01*
X-49285099Y-9334531D02*
X-48789861Y-9334531D01*
X-48789861Y-9334531D02*
X-48666051Y-9396436D01*
X-48666051Y-9396436D02*
X-48604146Y-9458341D01*
X-48604146Y-9458341D02*
X-48542242Y-9582150D01*
X-48542242Y-9582150D02*
X-48542242Y-9767865D01*
X-48542242Y-9767865D02*
X-48604146Y-9891674D01*
X-48604146Y-9891674D02*
X-48666051Y-9953579D01*
X-48666051Y-9953579D02*
X-48789861Y-10015484D01*
X-48789861Y-10015484D02*
X-49285099Y-10015484D01*
X-47551765Y-9953579D02*
X-47366051Y-10015484D01*
X-47366051Y-10015484D02*
X-47304146Y-10077388D01*
X-47304146Y-10077388D02*
X-47242242Y-10201198D01*
X-47242242Y-10201198D02*
X-47242242Y-10386912D01*
X-47242242Y-10386912D02*
X-47304146Y-10510722D01*
X-47304146Y-10510722D02*
X-47366051Y-10572627D01*
X-47366051Y-10572627D02*
X-47489861Y-10634531D01*
X-47489861Y-10634531D02*
X-47985099Y-10634531D01*
X-47985099Y-10634531D02*
X-47985099Y-9334531D01*
X-47985099Y-9334531D02*
X-47551765Y-9334531D01*
X-47551765Y-9334531D02*
X-47427956Y-9396436D01*
X-47427956Y-9396436D02*
X-47366051Y-9458341D01*
X-47366051Y-9458341D02*
X-47304146Y-9582150D01*
X-47304146Y-9582150D02*
X-47304146Y-9705960D01*
X-47304146Y-9705960D02*
X-47366051Y-9829769D01*
X-47366051Y-9829769D02*
X-47427956Y-9891674D01*
X-47427956Y-9891674D02*
X-47551765Y-9953579D01*
X-47551765Y-9953579D02*
X-47985099Y-9953579D01*
X-46127956Y-9334531D02*
X-46375575Y-9334531D01*
X-46375575Y-9334531D02*
X-46499384Y-9396436D01*
X-46499384Y-9396436D02*
X-46561289Y-9458341D01*
X-46561289Y-9458341D02*
X-46685099Y-9644055D01*
X-46685099Y-9644055D02*
X-46747003Y-9891674D01*
X-46747003Y-9891674D02*
X-46747003Y-10386912D01*
X-46747003Y-10386912D02*
X-46685099Y-10510722D01*
X-46685099Y-10510722D02*
X-46623194Y-10572627D01*
X-46623194Y-10572627D02*
X-46499384Y-10634531D01*
X-46499384Y-10634531D02*
X-46251765Y-10634531D01*
X-46251765Y-10634531D02*
X-46127956Y-10572627D01*
X-46127956Y-10572627D02*
X-46066051Y-10510722D01*
X-46066051Y-10510722D02*
X-46004146Y-10386912D01*
X-46004146Y-10386912D02*
X-46004146Y-10077388D01*
X-46004146Y-10077388D02*
X-46066051Y-9953579D01*
X-46066051Y-9953579D02*
X-46127956Y-9891674D01*
X-46127956Y-9891674D02*
X-46251765Y-9829769D01*
X-46251765Y-9829769D02*
X-46499384Y-9829769D01*
X-46499384Y-9829769D02*
X-46623194Y-9891674D01*
X-46623194Y-9891674D02*
X-46685099Y-9953579D01*
X-46685099Y-9953579D02*
X-46747003Y-10077388D01*
X-58233875Y9878396D02*
X-57491018Y9878396D01*
X-57862446Y8578396D02*
X-57862446Y9878396D01*
X-57057685Y8578396D02*
X-57057685Y9878396D01*
X-56500542Y8578396D02*
X-56500542Y9259348D01*
X-56500542Y9259348D02*
X-56562447Y9383158D01*
X-56562447Y9383158D02*
X-56686256Y9445062D01*
X-56686256Y9445062D02*
X-56871970Y9445062D01*
X-56871970Y9445062D02*
X-56995780Y9383158D01*
X-56995780Y9383158D02*
X-57057685Y9321253D01*
X-55324352Y9445062D02*
X-55324352Y8578396D01*
X-55881495Y9445062D02*
X-55881495Y8764110D01*
X-55881495Y8764110D02*
X-55819590Y8640300D01*
X-55819590Y8640300D02*
X-55695780Y8578396D01*
X-55695780Y8578396D02*
X-55510066Y8578396D01*
X-55510066Y8578396D02*
X-55386257Y8640300D01*
X-55386257Y8640300D02*
X-55324352Y8702205D01*
X-54705305Y9445062D02*
X-54705305Y8578396D01*
X-54705305Y9321253D02*
X-54643400Y9383158D01*
X-54643400Y9383158D02*
X-54519590Y9445062D01*
X-54519590Y9445062D02*
X-54333876Y9445062D01*
X-54333876Y9445062D02*
X-54210067Y9383158D01*
X-54210067Y9383158D02*
X-54148162Y9259348D01*
X-54148162Y9259348D02*
X-54148162Y8578396D01*
X-52971972Y8578396D02*
X-52971972Y9878396D01*
X-52971972Y8640300D02*
X-53095781Y8578396D01*
X-53095781Y8578396D02*
X-53343400Y8578396D01*
X-53343400Y8578396D02*
X-53467210Y8640300D01*
X-53467210Y8640300D02*
X-53529115Y8702205D01*
X-53529115Y8702205D02*
X-53591019Y8826015D01*
X-53591019Y8826015D02*
X-53591019Y9197443D01*
X-53591019Y9197443D02*
X-53529115Y9321253D01*
X-53529115Y9321253D02*
X-53467210Y9383158D01*
X-53467210Y9383158D02*
X-53343400Y9445062D01*
X-53343400Y9445062D02*
X-53095781Y9445062D01*
X-53095781Y9445062D02*
X-52971972Y9383158D01*
X-51857687Y8640300D02*
X-51981496Y8578396D01*
X-51981496Y8578396D02*
X-52229115Y8578396D01*
X-52229115Y8578396D02*
X-52352925Y8640300D01*
X-52352925Y8640300D02*
X-52414829Y8764110D01*
X-52414829Y8764110D02*
X-52414829Y9259348D01*
X-52414829Y9259348D02*
X-52352925Y9383158D01*
X-52352925Y9383158D02*
X-52229115Y9445062D01*
X-52229115Y9445062D02*
X-51981496Y9445062D01*
X-51981496Y9445062D02*
X-51857687Y9383158D01*
X-51857687Y9383158D02*
X-51795782Y9259348D01*
X-51795782Y9259348D02*
X-51795782Y9135539D01*
X-51795782Y9135539D02*
X-52414829Y9011729D01*
X-51238639Y8578396D02*
X-51238639Y9445062D01*
X-51238639Y9197443D02*
X-51176734Y9321253D01*
X-51176734Y9321253D02*
X-51114829Y9383158D01*
X-51114829Y9383158D02*
X-50991020Y9445062D01*
X-50991020Y9445062D02*
X-50867210Y9445062D01*
X-50000543Y9259348D02*
X-50433877Y9259348D01*
X-50433877Y8578396D02*
X-50433877Y9878396D01*
X-50433877Y9878396D02*
X-49814829Y9878396D01*
X-49133876Y8578396D02*
X-49257686Y8640300D01*
X-49257686Y8640300D02*
X-49319591Y8764110D01*
X-49319591Y8764110D02*
X-49319591Y9878396D01*
X-48762448Y9445062D02*
X-48452924Y8578396D01*
X-48143401Y9445062D02*
X-48452924Y8578396D01*
X-48452924Y8578396D02*
X-48576734Y8268872D01*
X-48576734Y8268872D02*
X-48638639Y8206967D01*
X-48638639Y8206967D02*
X-48762448Y8145062D01*
X-47648163Y8702205D02*
X-47586258Y8640300D01*
X-47586258Y8640300D02*
X-47648163Y8578396D01*
X-47648163Y8578396D02*
X-47710067Y8640300D01*
X-47710067Y8640300D02*
X-47648163Y8702205D01*
X-47648163Y8702205D02*
X-47648163Y8578396D01*
X-46471972Y8640300D02*
X-46595781Y8578396D01*
X-46595781Y8578396D02*
X-46843400Y8578396D01*
X-46843400Y8578396D02*
X-46967210Y8640300D01*
X-46967210Y8640300D02*
X-47029115Y8702205D01*
X-47029115Y8702205D02*
X-47091019Y8826015D01*
X-47091019Y8826015D02*
X-47091019Y9197443D01*
X-47091019Y9197443D02*
X-47029115Y9321253D01*
X-47029115Y9321253D02*
X-46967210Y9383158D01*
X-46967210Y9383158D02*
X-46843400Y9445062D01*
X-46843400Y9445062D02*
X-46595781Y9445062D01*
X-46595781Y9445062D02*
X-46471972Y9383158D01*
X-46038638Y9445062D02*
X-45357686Y9445062D01*
X-45357686Y9445062D02*
X-46038638Y8578396D01*
X-46038638Y8578396D02*
X-45357686Y8578396D01*
X-43933876Y9754586D02*
X-43871972Y9816491D01*
X-43871972Y9816491D02*
X-43748162Y9878396D01*
X-43748162Y9878396D02*
X-43438638Y9878396D01*
X-43438638Y9878396D02*
X-43314829Y9816491D01*
X-43314829Y9816491D02*
X-43252924Y9754586D01*
X-43252924Y9754586D02*
X-43191019Y9630777D01*
X-43191019Y9630777D02*
X-43191019Y9506967D01*
X-43191019Y9506967D02*
X-43252924Y9321253D01*
X-43252924Y9321253D02*
X-43995781Y8578396D01*
X-43995781Y8578396D02*
X-43191019Y8578396D01*
X-42386258Y9878396D02*
X-42262448Y9878396D01*
X-42262448Y9878396D02*
X-42138639Y9816491D01*
X-42138639Y9816491D02*
X-42076734Y9754586D01*
X-42076734Y9754586D02*
X-42014829Y9630777D01*
X-42014829Y9630777D02*
X-41952924Y9383158D01*
X-41952924Y9383158D02*
X-41952924Y9073634D01*
X-41952924Y9073634D02*
X-42014829Y8826015D01*
X-42014829Y8826015D02*
X-42076734Y8702205D01*
X-42076734Y8702205D02*
X-42138639Y8640300D01*
X-42138639Y8640300D02*
X-42262448Y8578396D01*
X-42262448Y8578396D02*
X-42386258Y8578396D01*
X-42386258Y8578396D02*
X-42510067Y8640300D01*
X-42510067Y8640300D02*
X-42571972Y8702205D01*
X-42571972Y8702205D02*
X-42633877Y8826015D01*
X-42633877Y8826015D02*
X-42695781Y9073634D01*
X-42695781Y9073634D02*
X-42695781Y9383158D01*
X-42695781Y9383158D02*
X-42633877Y9630777D01*
X-42633877Y9630777D02*
X-42571972Y9754586D01*
X-42571972Y9754586D02*
X-42510067Y9816491D01*
X-42510067Y9816491D02*
X-42386258Y9878396D01*
X-41457686Y9754586D02*
X-41395782Y9816491D01*
X-41395782Y9816491D02*
X-41271972Y9878396D01*
X-41271972Y9878396D02*
X-40962448Y9878396D01*
X-40962448Y9878396D02*
X-40838639Y9816491D01*
X-40838639Y9816491D02*
X-40776734Y9754586D01*
X-40776734Y9754586D02*
X-40714829Y9630777D01*
X-40714829Y9630777D02*
X-40714829Y9506967D01*
X-40714829Y9506967D02*
X-40776734Y9321253D01*
X-40776734Y9321253D02*
X-41519591Y8578396D01*
X-41519591Y8578396D02*
X-40714829Y8578396D01*
X-39538639Y9878396D02*
X-40157687Y9878396D01*
X-40157687Y9878396D02*
X-40219591Y9259348D01*
X-40219591Y9259348D02*
X-40157687Y9321253D01*
X-40157687Y9321253D02*
X-40033877Y9383158D01*
X-40033877Y9383158D02*
X-39724353Y9383158D01*
X-39724353Y9383158D02*
X-39600544Y9321253D01*
X-39600544Y9321253D02*
X-39538639Y9259348D01*
X-39538639Y9259348D02*
X-39476734Y9135539D01*
X-39476734Y9135539D02*
X-39476734Y8826015D01*
X-39476734Y8826015D02*
X-39538639Y8702205D01*
X-39538639Y8702205D02*
X-39600544Y8640300D01*
X-39600544Y8640300D02*
X-39724353Y8578396D01*
X-39724353Y8578396D02*
X-40033877Y8578396D01*
X-40033877Y8578396D02*
X-40157687Y8640300D01*
X-40157687Y8640300D02*
X-40219591Y8702205D01*
X65281342Y-17664342D02*
X64709914Y-17664342D01*
X64709914Y-17664342D02*
X64709914Y-16464342D01*
X65681343Y-17035771D02*
X66081343Y-17035771D01*
X66252771Y-17664342D02*
X65681343Y-17664342D01*
X65681343Y-17664342D02*
X65681343Y-16464342D01*
X65681343Y-16464342D02*
X66252771Y-16464342D01*
X66767057Y-17664342D02*
X66767057Y-16464342D01*
X66767057Y-16464342D02*
X67052771Y-16464342D01*
X67052771Y-16464342D02*
X67224200Y-16521485D01*
X67224200Y-16521485D02*
X67338485Y-16635771D01*
X67338485Y-16635771D02*
X67395628Y-16750057D01*
X67395628Y-16750057D02*
X67452771Y-16978628D01*
X67452771Y-16978628D02*
X67452771Y-17150057D01*
X67452771Y-17150057D02*
X67395628Y-17378628D01*
X67395628Y-17378628D02*
X67338485Y-17492914D01*
X67338485Y-17492914D02*
X67224200Y-17607200D01*
X67224200Y-17607200D02*
X67052771Y-17664342D01*
X67052771Y-17664342D02*
X66767057Y-17664342D01*
X67909914Y-16578628D02*
X67967057Y-16521485D01*
X67967057Y-16521485D02*
X68081343Y-16464342D01*
X68081343Y-16464342D02*
X68367057Y-16464342D01*
X68367057Y-16464342D02*
X68481343Y-16521485D01*
X68481343Y-16521485D02*
X68538485Y-16578628D01*
X68538485Y-16578628D02*
X68595628Y-16692914D01*
X68595628Y-16692914D02*
X68595628Y-16807200D01*
X68595628Y-16807200D02*
X68538485Y-16978628D01*
X68538485Y-16978628D02*
X67852771Y-17664342D01*
X67852771Y-17664342D02*
X68595628Y-17664342D01*
X53470342Y-16851542D02*
X52898914Y-16851542D01*
X52898914Y-16851542D02*
X52898914Y-15651542D01*
X53870343Y-16222971D02*
X54270343Y-16222971D01*
X54441771Y-16851542D02*
X53870343Y-16851542D01*
X53870343Y-16851542D02*
X53870343Y-15651542D01*
X53870343Y-15651542D02*
X54441771Y-15651542D01*
X54956057Y-16851542D02*
X54956057Y-15651542D01*
X54956057Y-15651542D02*
X55241771Y-15651542D01*
X55241771Y-15651542D02*
X55413200Y-15708685D01*
X55413200Y-15708685D02*
X55527485Y-15822971D01*
X55527485Y-15822971D02*
X55584628Y-15937257D01*
X55584628Y-15937257D02*
X55641771Y-16165828D01*
X55641771Y-16165828D02*
X55641771Y-16337257D01*
X55641771Y-16337257D02*
X55584628Y-16565828D01*
X55584628Y-16565828D02*
X55527485Y-16680114D01*
X55527485Y-16680114D02*
X55413200Y-16794400D01*
X55413200Y-16794400D02*
X55241771Y-16851542D01*
X55241771Y-16851542D02*
X54956057Y-16851542D01*
X56784628Y-16851542D02*
X56098914Y-16851542D01*
X56441771Y-16851542D02*
X56441771Y-15651542D01*
X56441771Y-15651542D02*
X56327485Y-15822971D01*
X56327485Y-15822971D02*
X56213200Y-15937257D01*
X56213200Y-15937257D02*
X56098914Y-15994400D01*
D11*
X77188669Y30697073D02*
X75688669Y30697073D01*
X77188669Y31554216D02*
X76331526Y30911359D01*
X75688669Y31554216D02*
X76545812Y30697073D01*
X76760098Y32125645D02*
X76760098Y32839930D01*
X77188669Y31982788D02*
X75688669Y32482788D01*
X75688669Y32482788D02*
X77188669Y32982788D01*
X77188669Y33482787D02*
X75688669Y33482787D01*
X77188669Y34339930D02*
X76331526Y33697073D01*
X75688669Y34339930D02*
X76545812Y33482787D01*
X77188669Y35697073D02*
X77188669Y34982787D01*
X77188669Y34982787D02*
X75688669Y34982787D01*
X77188669Y36197073D02*
X75688669Y36197073D01*
X77188669Y36911359D02*
X75688669Y36911359D01*
X77188669Y37768502D02*
X76331526Y37125645D01*
X75688669Y37768502D02*
X76545812Y36911359D01*
D12*
X71123342Y-15581542D02*
X70551914Y-15581542D01*
X70551914Y-15581542D02*
X70551914Y-14381542D01*
X71523343Y-14952971D02*
X71923343Y-14952971D01*
X72094771Y-15581542D02*
X71523343Y-15581542D01*
X71523343Y-15581542D02*
X71523343Y-14381542D01*
X71523343Y-14381542D02*
X72094771Y-14381542D01*
X72609057Y-15581542D02*
X72609057Y-14381542D01*
X72609057Y-14381542D02*
X72894771Y-14381542D01*
X72894771Y-14381542D02*
X73066200Y-14438685D01*
X73066200Y-14438685D02*
X73180485Y-14552971D01*
X73180485Y-14552971D02*
X73237628Y-14667257D01*
X73237628Y-14667257D02*
X73294771Y-14895828D01*
X73294771Y-14895828D02*
X73294771Y-15067257D01*
X73294771Y-15067257D02*
X73237628Y-15295828D01*
X73237628Y-15295828D02*
X73180485Y-15410114D01*
X73180485Y-15410114D02*
X73066200Y-15524400D01*
X73066200Y-15524400D02*
X72894771Y-15581542D01*
X72894771Y-15581542D02*
X72609057Y-15581542D01*
X73694771Y-14381542D02*
X74437628Y-14381542D01*
X74437628Y-14381542D02*
X74037628Y-14838685D01*
X74037628Y-14838685D02*
X74209057Y-14838685D01*
X74209057Y-14838685D02*
X74323343Y-14895828D01*
X74323343Y-14895828D02*
X74380485Y-14952971D01*
X74380485Y-14952971D02*
X74437628Y-15067257D01*
X74437628Y-15067257D02*
X74437628Y-15352971D01*
X74437628Y-15352971D02*
X74380485Y-15467257D01*
X74380485Y-15467257D02*
X74323343Y-15524400D01*
X74323343Y-15524400D02*
X74209057Y-15581542D01*
X74209057Y-15581542D02*
X73866200Y-15581542D01*
X73866200Y-15581542D02*
X73751914Y-15524400D01*
X73751914Y-15524400D02*
X73694771Y-15467257D01*
D10*
X19828819Y51045467D02*
X20543104Y51045467D01*
X20543104Y51045467D02*
X20685961Y50997848D01*
X20685961Y50997848D02*
X20781200Y50902610D01*
X20781200Y50902610D02*
X20828819Y50759753D01*
X20828819Y50759753D02*
X20828819Y50664515D01*
X19828819Y51997848D02*
X19828819Y51521658D01*
X19828819Y51521658D02*
X20305009Y51474039D01*
X20305009Y51474039D02*
X20257390Y51521658D01*
X20257390Y51521658D02*
X20209771Y51616896D01*
X20209771Y51616896D02*
X20209771Y51854991D01*
X20209771Y51854991D02*
X20257390Y51950229D01*
X20257390Y51950229D02*
X20305009Y51997848D01*
X20305009Y51997848D02*
X20400247Y52045467D01*
X20400247Y52045467D02*
X20638342Y52045467D01*
X20638342Y52045467D02*
X20733580Y51997848D01*
X20733580Y51997848D02*
X20781200Y51950229D01*
X20781200Y51950229D02*
X20828819Y51854991D01*
X20828819Y51854991D02*
X20828819Y51616896D01*
X20828819Y51616896D02*
X20781200Y51521658D01*
X20781200Y51521658D02*
X20733580Y51474039D01*
D13*
%TO.C,J5*%
X21814000Y53978800D02*
X23144000Y53978800D01*
X21814000Y52648800D02*
X21814000Y53978800D01*
X21814000Y51378800D02*
X24414000Y51378800D01*
X21814000Y48778800D02*
X21814000Y51378800D01*
X21814000Y48778800D02*
X60034000Y48778800D01*
X24414000Y53978800D02*
X60034000Y53978800D01*
X24414000Y51378800D02*
X24414000Y53978800D01*
X60034000Y48778800D02*
X60034000Y53978800D01*
%TD*%
M02*
