%TF.GenerationSoftware,KiCad,Pcbnew,9.0.6+1*%
%TF.CreationDate,2026-01-25T22:00:51+00:00*%
%TF.ProjectId,TFUNIPAYLOAD01,5446554e-4950-4415-994c-4f414430312e,rev?*%
%TF.SameCoordinates,PX66dd020PY81342c0*%
%TF.FileFunction,Legend,Bot*%
%TF.FilePolarity,Positive*%
%FSLAX46Y46*%
G04 Gerber Fmt 4.6, Leading zero omitted, Abs format (unit mm)*
G04 Created by KiCad (PCBNEW 9.0.6+1) date 2026-01-25 22:00:51*
%MOMM*%
%LPD*%
G01*
G04 APERTURE LIST*
%ADD10C,0.150000*%
%ADD11C,0.100000*%
%ADD12C,0.120000*%
%ADD13C,0.000000*%
G04 APERTURE END LIST*
D10*
X33847066Y39797820D02*
X33894685Y39750200D01*
X33894685Y39750200D02*
X34037542Y39702581D01*
X34037542Y39702581D02*
X34132780Y39702581D01*
X34132780Y39702581D02*
X34275637Y39750200D01*
X34275637Y39750200D02*
X34370875Y39845439D01*
X34370875Y39845439D02*
X34418494Y39940677D01*
X34418494Y39940677D02*
X34466113Y40131153D01*
X34466113Y40131153D02*
X34466113Y40274010D01*
X34466113Y40274010D02*
X34418494Y40464486D01*
X34418494Y40464486D02*
X34370875Y40559724D01*
X34370875Y40559724D02*
X34275637Y40654962D01*
X34275637Y40654962D02*
X34132780Y40702581D01*
X34132780Y40702581D02*
X34037542Y40702581D01*
X34037542Y40702581D02*
X33894685Y40654962D01*
X33894685Y40654962D02*
X33847066Y40607343D01*
X33370875Y39702581D02*
X33180399Y39702581D01*
X33180399Y39702581D02*
X33085161Y39750200D01*
X33085161Y39750200D02*
X33037542Y39797820D01*
X33037542Y39797820D02*
X32942304Y39940677D01*
X32942304Y39940677D02*
X32894685Y40131153D01*
X32894685Y40131153D02*
X32894685Y40512105D01*
X32894685Y40512105D02*
X32942304Y40607343D01*
X32942304Y40607343D02*
X32989923Y40654962D01*
X32989923Y40654962D02*
X33085161Y40702581D01*
X33085161Y40702581D02*
X33275637Y40702581D01*
X33275637Y40702581D02*
X33370875Y40654962D01*
X33370875Y40654962D02*
X33418494Y40607343D01*
X33418494Y40607343D02*
X33466113Y40512105D01*
X33466113Y40512105D02*
X33466113Y40274010D01*
X33466113Y40274010D02*
X33418494Y40178772D01*
X33418494Y40178772D02*
X33370875Y40131153D01*
X33370875Y40131153D02*
X33275637Y40083534D01*
X33275637Y40083534D02*
X33085161Y40083534D01*
X33085161Y40083534D02*
X32989923Y40131153D01*
X32989923Y40131153D02*
X32942304Y40178772D01*
X32942304Y40178772D02*
X32894685Y40274010D01*
X36615666Y43738420D02*
X36663285Y43690800D01*
X36663285Y43690800D02*
X36806142Y43643181D01*
X36806142Y43643181D02*
X36901380Y43643181D01*
X36901380Y43643181D02*
X37044237Y43690800D01*
X37044237Y43690800D02*
X37139475Y43786039D01*
X37139475Y43786039D02*
X37187094Y43881277D01*
X37187094Y43881277D02*
X37234713Y44071753D01*
X37234713Y44071753D02*
X37234713Y44214610D01*
X37234713Y44214610D02*
X37187094Y44405086D01*
X37187094Y44405086D02*
X37139475Y44500324D01*
X37139475Y44500324D02*
X37044237Y44595562D01*
X37044237Y44595562D02*
X36901380Y44643181D01*
X36901380Y44643181D02*
X36806142Y44643181D01*
X36806142Y44643181D02*
X36663285Y44595562D01*
X36663285Y44595562D02*
X36615666Y44547943D01*
X36044237Y44214610D02*
X36139475Y44262229D01*
X36139475Y44262229D02*
X36187094Y44309848D01*
X36187094Y44309848D02*
X36234713Y44405086D01*
X36234713Y44405086D02*
X36234713Y44452705D01*
X36234713Y44452705D02*
X36187094Y44547943D01*
X36187094Y44547943D02*
X36139475Y44595562D01*
X36139475Y44595562D02*
X36044237Y44643181D01*
X36044237Y44643181D02*
X35853761Y44643181D01*
X35853761Y44643181D02*
X35758523Y44595562D01*
X35758523Y44595562D02*
X35710904Y44547943D01*
X35710904Y44547943D02*
X35663285Y44452705D01*
X35663285Y44452705D02*
X35663285Y44405086D01*
X35663285Y44405086D02*
X35710904Y44309848D01*
X35710904Y44309848D02*
X35758523Y44262229D01*
X35758523Y44262229D02*
X35853761Y44214610D01*
X35853761Y44214610D02*
X36044237Y44214610D01*
X36044237Y44214610D02*
X36139475Y44166991D01*
X36139475Y44166991D02*
X36187094Y44119372D01*
X36187094Y44119372D02*
X36234713Y44024134D01*
X36234713Y44024134D02*
X36234713Y43833658D01*
X36234713Y43833658D02*
X36187094Y43738420D01*
X36187094Y43738420D02*
X36139475Y43690800D01*
X36139475Y43690800D02*
X36044237Y43643181D01*
X36044237Y43643181D02*
X35853761Y43643181D01*
X35853761Y43643181D02*
X35758523Y43690800D01*
X35758523Y43690800D02*
X35710904Y43738420D01*
X35710904Y43738420D02*
X35663285Y43833658D01*
X35663285Y43833658D02*
X35663285Y44024134D01*
X35663285Y44024134D02*
X35710904Y44119372D01*
X35710904Y44119372D02*
X35758523Y44166991D01*
X35758523Y44166991D02*
X35853761Y44214610D01*
X43840304Y26707181D02*
X43840304Y25897658D01*
X43840304Y25897658D02*
X43792685Y25802420D01*
X43792685Y25802420D02*
X43745066Y25754800D01*
X43745066Y25754800D02*
X43649828Y25707181D01*
X43649828Y25707181D02*
X43459352Y25707181D01*
X43459352Y25707181D02*
X43364114Y25754800D01*
X43364114Y25754800D02*
X43316495Y25802420D01*
X43316495Y25802420D02*
X43268876Y25897658D01*
X43268876Y25897658D02*
X43268876Y26707181D01*
X42840304Y26611943D02*
X42792685Y26659562D01*
X42792685Y26659562D02*
X42697447Y26707181D01*
X42697447Y26707181D02*
X42459352Y26707181D01*
X42459352Y26707181D02*
X42364114Y26659562D01*
X42364114Y26659562D02*
X42316495Y26611943D01*
X42316495Y26611943D02*
X42268876Y26516705D01*
X42268876Y26516705D02*
X42268876Y26421467D01*
X42268876Y26421467D02*
X42316495Y26278610D01*
X42316495Y26278610D02*
X42887923Y25707181D01*
X42887923Y25707181D02*
X42268876Y25707181D01*
X22893257Y25478581D02*
X23226590Y25954772D01*
X23464685Y25478581D02*
X23464685Y26478581D01*
X23464685Y26478581D02*
X23083733Y26478581D01*
X23083733Y26478581D02*
X22988495Y26430962D01*
X22988495Y26430962D02*
X22940876Y26383343D01*
X22940876Y26383343D02*
X22893257Y26288105D01*
X22893257Y26288105D02*
X22893257Y26145248D01*
X22893257Y26145248D02*
X22940876Y26050010D01*
X22940876Y26050010D02*
X22988495Y26002391D01*
X22988495Y26002391D02*
X23083733Y25954772D01*
X23083733Y25954772D02*
X23464685Y25954772D01*
X21940876Y25478581D02*
X22512304Y25478581D01*
X22226590Y25478581D02*
X22226590Y26478581D01*
X22226590Y26478581D02*
X22321828Y26335724D01*
X22321828Y26335724D02*
X22417066Y26240486D01*
X22417066Y26240486D02*
X22512304Y26192867D01*
X21559923Y26383343D02*
X21512304Y26430962D01*
X21512304Y26430962D02*
X21417066Y26478581D01*
X21417066Y26478581D02*
X21178971Y26478581D01*
X21178971Y26478581D02*
X21083733Y26430962D01*
X21083733Y26430962D02*
X21036114Y26383343D01*
X21036114Y26383343D02*
X20988495Y26288105D01*
X20988495Y26288105D02*
X20988495Y26192867D01*
X20988495Y26192867D02*
X21036114Y26050010D01*
X21036114Y26050010D02*
X21607542Y25478581D01*
X21607542Y25478581D02*
X20988495Y25478581D01*
X40156019Y20103267D02*
X39679828Y20436600D01*
X40156019Y20674695D02*
X39156019Y20674695D01*
X39156019Y20674695D02*
X39156019Y20293743D01*
X39156019Y20293743D02*
X39203638Y20198505D01*
X39203638Y20198505D02*
X39251257Y20150886D01*
X39251257Y20150886D02*
X39346495Y20103267D01*
X39346495Y20103267D02*
X39489352Y20103267D01*
X39489352Y20103267D02*
X39584590Y20150886D01*
X39584590Y20150886D02*
X39632209Y20198505D01*
X39632209Y20198505D02*
X39679828Y20293743D01*
X39679828Y20293743D02*
X39679828Y20674695D01*
X39156019Y19198505D02*
X39156019Y19674695D01*
X39156019Y19674695D02*
X39632209Y19722314D01*
X39632209Y19722314D02*
X39584590Y19674695D01*
X39584590Y19674695D02*
X39536971Y19579457D01*
X39536971Y19579457D02*
X39536971Y19341362D01*
X39536971Y19341362D02*
X39584590Y19246124D01*
X39584590Y19246124D02*
X39632209Y19198505D01*
X39632209Y19198505D02*
X39727447Y19150886D01*
X39727447Y19150886D02*
X39965542Y19150886D01*
X39965542Y19150886D02*
X40060780Y19198505D01*
X40060780Y19198505D02*
X40108400Y19246124D01*
X40108400Y19246124D02*
X40156019Y19341362D01*
X40156019Y19341362D02*
X40156019Y19579457D01*
X40156019Y19579457D02*
X40108400Y19674695D01*
X40108400Y19674695D02*
X40060780Y19722314D01*
X37773780Y20302458D02*
X37821400Y20350077D01*
X37821400Y20350077D02*
X37869019Y20492934D01*
X37869019Y20492934D02*
X37869019Y20588172D01*
X37869019Y20588172D02*
X37821400Y20731029D01*
X37821400Y20731029D02*
X37726161Y20826267D01*
X37726161Y20826267D02*
X37630923Y20873886D01*
X37630923Y20873886D02*
X37440447Y20921505D01*
X37440447Y20921505D02*
X37297590Y20921505D01*
X37297590Y20921505D02*
X37107114Y20873886D01*
X37107114Y20873886D02*
X37011876Y20826267D01*
X37011876Y20826267D02*
X36916638Y20731029D01*
X36916638Y20731029D02*
X36869019Y20588172D01*
X36869019Y20588172D02*
X36869019Y20492934D01*
X36869019Y20492934D02*
X36916638Y20350077D01*
X36916638Y20350077D02*
X36964257Y20302458D01*
X37869019Y19350077D02*
X37869019Y19921505D01*
X37869019Y19635791D02*
X36869019Y19635791D01*
X36869019Y19635791D02*
X37011876Y19731029D01*
X37011876Y19731029D02*
X37107114Y19826267D01*
X37107114Y19826267D02*
X37154733Y19921505D01*
X36869019Y18731029D02*
X36869019Y18635791D01*
X36869019Y18635791D02*
X36916638Y18540553D01*
X36916638Y18540553D02*
X36964257Y18492934D01*
X36964257Y18492934D02*
X37059495Y18445315D01*
X37059495Y18445315D02*
X37249971Y18397696D01*
X37249971Y18397696D02*
X37488066Y18397696D01*
X37488066Y18397696D02*
X37678542Y18445315D01*
X37678542Y18445315D02*
X37773780Y18492934D01*
X37773780Y18492934D02*
X37821400Y18540553D01*
X37821400Y18540553D02*
X37869019Y18635791D01*
X37869019Y18635791D02*
X37869019Y18731029D01*
X37869019Y18731029D02*
X37821400Y18826267D01*
X37821400Y18826267D02*
X37773780Y18873886D01*
X37773780Y18873886D02*
X37678542Y18921505D01*
X37678542Y18921505D02*
X37488066Y18969124D01*
X37488066Y18969124D02*
X37249971Y18969124D01*
X37249971Y18969124D02*
X37059495Y18921505D01*
X37059495Y18921505D02*
X36964257Y18873886D01*
X36964257Y18873886D02*
X36916638Y18826267D01*
X36916638Y18826267D02*
X36869019Y18731029D01*
X47120980Y32875458D02*
X47168600Y32923077D01*
X47168600Y32923077D02*
X47216219Y33065934D01*
X47216219Y33065934D02*
X47216219Y33161172D01*
X47216219Y33161172D02*
X47168600Y33304029D01*
X47168600Y33304029D02*
X47073361Y33399267D01*
X47073361Y33399267D02*
X46978123Y33446886D01*
X46978123Y33446886D02*
X46787647Y33494505D01*
X46787647Y33494505D02*
X46644790Y33494505D01*
X46644790Y33494505D02*
X46454314Y33446886D01*
X46454314Y33446886D02*
X46359076Y33399267D01*
X46359076Y33399267D02*
X46263838Y33304029D01*
X46263838Y33304029D02*
X46216219Y33161172D01*
X46216219Y33161172D02*
X46216219Y33065934D01*
X46216219Y33065934D02*
X46263838Y32923077D01*
X46263838Y32923077D02*
X46311457Y32875458D01*
X47216219Y31923077D02*
X47216219Y32494505D01*
X47216219Y32208791D02*
X46216219Y32208791D01*
X46216219Y32208791D02*
X46359076Y32304029D01*
X46359076Y32304029D02*
X46454314Y32399267D01*
X46454314Y32399267D02*
X46501933Y32494505D01*
X47216219Y30970696D02*
X47216219Y31542124D01*
X47216219Y31256410D02*
X46216219Y31256410D01*
X46216219Y31256410D02*
X46359076Y31351648D01*
X46359076Y31351648D02*
X46454314Y31446886D01*
X46454314Y31446886D02*
X46501933Y31542124D01*
X29577179Y32414258D02*
X29624799Y32461877D01*
X29624799Y32461877D02*
X29672418Y32604734D01*
X29672418Y32604734D02*
X29672418Y32699972D01*
X29672418Y32699972D02*
X29624799Y32842829D01*
X29624799Y32842829D02*
X29529560Y32938067D01*
X29529560Y32938067D02*
X29434322Y32985686D01*
X29434322Y32985686D02*
X29243846Y33033305D01*
X29243846Y33033305D02*
X29100989Y33033305D01*
X29100989Y33033305D02*
X28910513Y32985686D01*
X28910513Y32985686D02*
X28815275Y32938067D01*
X28815275Y32938067D02*
X28720037Y32842829D01*
X28720037Y32842829D02*
X28672418Y32699972D01*
X28672418Y32699972D02*
X28672418Y32604734D01*
X28672418Y32604734D02*
X28720037Y32461877D01*
X28720037Y32461877D02*
X28767656Y32414258D01*
X29672418Y31461877D02*
X29672418Y32033305D01*
X29672418Y31747591D02*
X28672418Y31747591D01*
X28672418Y31747591D02*
X28815275Y31842829D01*
X28815275Y31842829D02*
X28910513Y31938067D01*
X28910513Y31938067D02*
X28958132Y32033305D01*
X28767656Y31080924D02*
X28720037Y31033305D01*
X28720037Y31033305D02*
X28672418Y30938067D01*
X28672418Y30938067D02*
X28672418Y30699972D01*
X28672418Y30699972D02*
X28720037Y30604734D01*
X28720037Y30604734D02*
X28767656Y30557115D01*
X28767656Y30557115D02*
X28862894Y30509496D01*
X28862894Y30509496D02*
X28958132Y30509496D01*
X28958132Y30509496D02*
X29100989Y30557115D01*
X29100989Y30557115D02*
X29672418Y31128543D01*
X29672418Y31128543D02*
X29672418Y30509496D01*
X41964780Y20131067D02*
X42012400Y20178686D01*
X42012400Y20178686D02*
X42060019Y20321543D01*
X42060019Y20321543D02*
X42060019Y20416781D01*
X42060019Y20416781D02*
X42012400Y20559638D01*
X42012400Y20559638D02*
X41917161Y20654876D01*
X41917161Y20654876D02*
X41821923Y20702495D01*
X41821923Y20702495D02*
X41631447Y20750114D01*
X41631447Y20750114D02*
X41488590Y20750114D01*
X41488590Y20750114D02*
X41298114Y20702495D01*
X41298114Y20702495D02*
X41202876Y20654876D01*
X41202876Y20654876D02*
X41107638Y20559638D01*
X41107638Y20559638D02*
X41060019Y20416781D01*
X41060019Y20416781D02*
X41060019Y20321543D01*
X41060019Y20321543D02*
X41107638Y20178686D01*
X41107638Y20178686D02*
X41155257Y20131067D01*
X41155257Y19750114D02*
X41107638Y19702495D01*
X41107638Y19702495D02*
X41060019Y19607257D01*
X41060019Y19607257D02*
X41060019Y19369162D01*
X41060019Y19369162D02*
X41107638Y19273924D01*
X41107638Y19273924D02*
X41155257Y19226305D01*
X41155257Y19226305D02*
X41250495Y19178686D01*
X41250495Y19178686D02*
X41345733Y19178686D01*
X41345733Y19178686D02*
X41488590Y19226305D01*
X41488590Y19226305D02*
X42060019Y19797733D01*
X42060019Y19797733D02*
X42060019Y19178686D01*
X22867857Y28094781D02*
X23201190Y28570972D01*
X23439285Y28094781D02*
X23439285Y29094781D01*
X23439285Y29094781D02*
X23058333Y29094781D01*
X23058333Y29094781D02*
X22963095Y29047162D01*
X22963095Y29047162D02*
X22915476Y28999543D01*
X22915476Y28999543D02*
X22867857Y28904305D01*
X22867857Y28904305D02*
X22867857Y28761448D01*
X22867857Y28761448D02*
X22915476Y28666210D01*
X22915476Y28666210D02*
X22963095Y28618591D01*
X22963095Y28618591D02*
X23058333Y28570972D01*
X23058333Y28570972D02*
X23439285Y28570972D01*
X21915476Y28094781D02*
X22486904Y28094781D01*
X22201190Y28094781D02*
X22201190Y29094781D01*
X22201190Y29094781D02*
X22296428Y28951924D01*
X22296428Y28951924D02*
X22391666Y28856686D01*
X22391666Y28856686D02*
X22486904Y28809067D01*
X21582142Y29094781D02*
X20963095Y29094781D01*
X20963095Y29094781D02*
X21296428Y28713829D01*
X21296428Y28713829D02*
X21153571Y28713829D01*
X21153571Y28713829D02*
X21058333Y28666210D01*
X21058333Y28666210D02*
X21010714Y28618591D01*
X21010714Y28618591D02*
X20963095Y28523353D01*
X20963095Y28523353D02*
X20963095Y28285258D01*
X20963095Y28285258D02*
X21010714Y28190020D01*
X21010714Y28190020D02*
X21058333Y28142400D01*
X21058333Y28142400D02*
X21153571Y28094781D01*
X21153571Y28094781D02*
X21439285Y28094781D01*
X21439285Y28094781D02*
X21534523Y28142400D01*
X21534523Y28142400D02*
X21582142Y28190020D01*
X56362504Y32117381D02*
X56362504Y31307858D01*
X56362504Y31307858D02*
X56314885Y31212620D01*
X56314885Y31212620D02*
X56267266Y31165000D01*
X56267266Y31165000D02*
X56172028Y31117381D01*
X56172028Y31117381D02*
X55981552Y31117381D01*
X55981552Y31117381D02*
X55886314Y31165000D01*
X55886314Y31165000D02*
X55838695Y31212620D01*
X55838695Y31212620D02*
X55791076Y31307858D01*
X55791076Y31307858D02*
X55791076Y32117381D01*
X54791076Y31117381D02*
X55362504Y31117381D01*
X55076790Y31117381D02*
X55076790Y32117381D01*
X55076790Y32117381D02*
X55172028Y31974524D01*
X55172028Y31974524D02*
X55267266Y31879286D01*
X55267266Y31879286D02*
X55362504Y31831667D01*
X60009066Y38248420D02*
X60056685Y38200800D01*
X60056685Y38200800D02*
X60199542Y38153181D01*
X60199542Y38153181D02*
X60294780Y38153181D01*
X60294780Y38153181D02*
X60437637Y38200800D01*
X60437637Y38200800D02*
X60532875Y38296039D01*
X60532875Y38296039D02*
X60580494Y38391277D01*
X60580494Y38391277D02*
X60628113Y38581753D01*
X60628113Y38581753D02*
X60628113Y38724610D01*
X60628113Y38724610D02*
X60580494Y38915086D01*
X60580494Y38915086D02*
X60532875Y39010324D01*
X60532875Y39010324D02*
X60437637Y39105562D01*
X60437637Y39105562D02*
X60294780Y39153181D01*
X60294780Y39153181D02*
X60199542Y39153181D01*
X60199542Y39153181D02*
X60056685Y39105562D01*
X60056685Y39105562D02*
X60009066Y39057943D01*
X59151923Y39153181D02*
X59342399Y39153181D01*
X59342399Y39153181D02*
X59437637Y39105562D01*
X59437637Y39105562D02*
X59485256Y39057943D01*
X59485256Y39057943D02*
X59580494Y38915086D01*
X59580494Y38915086D02*
X59628113Y38724610D01*
X59628113Y38724610D02*
X59628113Y38343658D01*
X59628113Y38343658D02*
X59580494Y38248420D01*
X59580494Y38248420D02*
X59532875Y38200800D01*
X59532875Y38200800D02*
X59437637Y38153181D01*
X59437637Y38153181D02*
X59247161Y38153181D01*
X59247161Y38153181D02*
X59151923Y38200800D01*
X59151923Y38200800D02*
X59104304Y38248420D01*
X59104304Y38248420D02*
X59056685Y38343658D01*
X59056685Y38343658D02*
X59056685Y38581753D01*
X59056685Y38581753D02*
X59104304Y38676991D01*
X59104304Y38676991D02*
X59151923Y38724610D01*
X59151923Y38724610D02*
X59247161Y38772229D01*
X59247161Y38772229D02*
X59437637Y38772229D01*
X59437637Y38772229D02*
X59532875Y38724610D01*
X59532875Y38724610D02*
X59580494Y38676991D01*
X59580494Y38676991D02*
X59628113Y38581753D01*
X51488933Y11797381D02*
X51488933Y11083096D01*
X51488933Y11083096D02*
X51536552Y10940239D01*
X51536552Y10940239D02*
X51631790Y10845000D01*
X51631790Y10845000D02*
X51774647Y10797381D01*
X51774647Y10797381D02*
X51869885Y10797381D01*
X50488933Y10797381D02*
X51060361Y10797381D01*
X50774647Y10797381D02*
X50774647Y11797381D01*
X50774647Y11797381D02*
X50869885Y11654524D01*
X50869885Y11654524D02*
X50965123Y11559286D01*
X50965123Y11559286D02*
X51060361Y11511667D01*
X16427438Y43569743D02*
X16522676Y43617362D01*
X16522676Y43617362D02*
X16617914Y43712600D01*
X16617914Y43712600D02*
X16760771Y43855458D01*
X16760771Y43855458D02*
X16856009Y43903077D01*
X16856009Y43903077D02*
X16951247Y43903077D01*
X16903628Y43664981D02*
X16998866Y43712600D01*
X16998866Y43712600D02*
X17094104Y43807839D01*
X17094104Y43807839D02*
X17141723Y43998315D01*
X17141723Y43998315D02*
X17141723Y44331648D01*
X17141723Y44331648D02*
X17094104Y44522124D01*
X17094104Y44522124D02*
X16998866Y44617362D01*
X16998866Y44617362D02*
X16903628Y44664981D01*
X16903628Y44664981D02*
X16713152Y44664981D01*
X16713152Y44664981D02*
X16617914Y44617362D01*
X16617914Y44617362D02*
X16522676Y44522124D01*
X16522676Y44522124D02*
X16475057Y44331648D01*
X16475057Y44331648D02*
X16475057Y43998315D01*
X16475057Y43998315D02*
X16522676Y43807839D01*
X16522676Y43807839D02*
X16617914Y43712600D01*
X16617914Y43712600D02*
X16713152Y43664981D01*
X16713152Y43664981D02*
X16903628Y43664981D01*
X16094104Y44569743D02*
X16046485Y44617362D01*
X16046485Y44617362D02*
X15951247Y44664981D01*
X15951247Y44664981D02*
X15713152Y44664981D01*
X15713152Y44664981D02*
X15617914Y44617362D01*
X15617914Y44617362D02*
X15570295Y44569743D01*
X15570295Y44569743D02*
X15522676Y44474505D01*
X15522676Y44474505D02*
X15522676Y44379267D01*
X15522676Y44379267D02*
X15570295Y44236410D01*
X15570295Y44236410D02*
X16141723Y43664981D01*
X16141723Y43664981D02*
X15522676Y43664981D01*
X69095857Y28821420D02*
X69143476Y28773800D01*
X69143476Y28773800D02*
X69286333Y28726181D01*
X69286333Y28726181D02*
X69381571Y28726181D01*
X69381571Y28726181D02*
X69524428Y28773800D01*
X69524428Y28773800D02*
X69619666Y28869039D01*
X69619666Y28869039D02*
X69667285Y28964277D01*
X69667285Y28964277D02*
X69714904Y29154753D01*
X69714904Y29154753D02*
X69714904Y29297610D01*
X69714904Y29297610D02*
X69667285Y29488086D01*
X69667285Y29488086D02*
X69619666Y29583324D01*
X69619666Y29583324D02*
X69524428Y29678562D01*
X69524428Y29678562D02*
X69381571Y29726181D01*
X69381571Y29726181D02*
X69286333Y29726181D01*
X69286333Y29726181D02*
X69143476Y29678562D01*
X69143476Y29678562D02*
X69095857Y29630943D01*
X68143476Y28726181D02*
X68714904Y28726181D01*
X68429190Y28726181D02*
X68429190Y29726181D01*
X68429190Y29726181D02*
X68524428Y29583324D01*
X68524428Y29583324D02*
X68619666Y29488086D01*
X68619666Y29488086D02*
X68714904Y29440467D01*
X67810142Y29726181D02*
X67191095Y29726181D01*
X67191095Y29726181D02*
X67524428Y29345229D01*
X67524428Y29345229D02*
X67381571Y29345229D01*
X67381571Y29345229D02*
X67286333Y29297610D01*
X67286333Y29297610D02*
X67238714Y29249991D01*
X67238714Y29249991D02*
X67191095Y29154753D01*
X67191095Y29154753D02*
X67191095Y28916658D01*
X67191095Y28916658D02*
X67238714Y28821420D01*
X67238714Y28821420D02*
X67286333Y28773800D01*
X67286333Y28773800D02*
X67381571Y28726181D01*
X67381571Y28726181D02*
X67667285Y28726181D01*
X67667285Y28726181D02*
X67762523Y28773800D01*
X67762523Y28773800D02*
X67810142Y28821420D01*
X56878457Y39321581D02*
X57211790Y39797772D01*
X57449885Y39321581D02*
X57449885Y40321581D01*
X57449885Y40321581D02*
X57068933Y40321581D01*
X57068933Y40321581D02*
X56973695Y40273962D01*
X56973695Y40273962D02*
X56926076Y40226343D01*
X56926076Y40226343D02*
X56878457Y40131105D01*
X56878457Y40131105D02*
X56878457Y39988248D01*
X56878457Y39988248D02*
X56926076Y39893010D01*
X56926076Y39893010D02*
X56973695Y39845391D01*
X56973695Y39845391D02*
X57068933Y39797772D01*
X57068933Y39797772D02*
X57449885Y39797772D01*
X55926076Y39321581D02*
X56497504Y39321581D01*
X56211790Y39321581D02*
X56211790Y40321581D01*
X56211790Y40321581D02*
X56307028Y40178724D01*
X56307028Y40178724D02*
X56402266Y40083486D01*
X56402266Y40083486D02*
X56497504Y40035867D01*
X55307028Y40321581D02*
X55211790Y40321581D01*
X55211790Y40321581D02*
X55116552Y40273962D01*
X55116552Y40273962D02*
X55068933Y40226343D01*
X55068933Y40226343D02*
X55021314Y40131105D01*
X55021314Y40131105D02*
X54973695Y39940629D01*
X54973695Y39940629D02*
X54973695Y39702534D01*
X54973695Y39702534D02*
X55021314Y39512058D01*
X55021314Y39512058D02*
X55068933Y39416820D01*
X55068933Y39416820D02*
X55116552Y39369200D01*
X55116552Y39369200D02*
X55211790Y39321581D01*
X55211790Y39321581D02*
X55307028Y39321581D01*
X55307028Y39321581D02*
X55402266Y39369200D01*
X55402266Y39369200D02*
X55449885Y39416820D01*
X55449885Y39416820D02*
X55497504Y39512058D01*
X55497504Y39512058D02*
X55545123Y39702534D01*
X55545123Y39702534D02*
X55545123Y39940629D01*
X55545123Y39940629D02*
X55497504Y40131105D01*
X55497504Y40131105D02*
X55449885Y40226343D01*
X55449885Y40226343D02*
X55402266Y40273962D01*
X55402266Y40273962D02*
X55307028Y40321581D01*
X31372980Y17032267D02*
X31420600Y17079886D01*
X31420600Y17079886D02*
X31468219Y17222743D01*
X31468219Y17222743D02*
X31468219Y17317981D01*
X31468219Y17317981D02*
X31420600Y17460838D01*
X31420600Y17460838D02*
X31325361Y17556076D01*
X31325361Y17556076D02*
X31230123Y17603695D01*
X31230123Y17603695D02*
X31039647Y17651314D01*
X31039647Y17651314D02*
X30896790Y17651314D01*
X30896790Y17651314D02*
X30706314Y17603695D01*
X30706314Y17603695D02*
X30611076Y17556076D01*
X30611076Y17556076D02*
X30515838Y17460838D01*
X30515838Y17460838D02*
X30468219Y17317981D01*
X30468219Y17317981D02*
X30468219Y17222743D01*
X30468219Y17222743D02*
X30515838Y17079886D01*
X30515838Y17079886D02*
X30563457Y17032267D01*
X30468219Y16698933D02*
X30468219Y16079886D01*
X30468219Y16079886D02*
X30849171Y16413219D01*
X30849171Y16413219D02*
X30849171Y16270362D01*
X30849171Y16270362D02*
X30896790Y16175124D01*
X30896790Y16175124D02*
X30944409Y16127505D01*
X30944409Y16127505D02*
X31039647Y16079886D01*
X31039647Y16079886D02*
X31277742Y16079886D01*
X31277742Y16079886D02*
X31372980Y16127505D01*
X31372980Y16127505D02*
X31420600Y16175124D01*
X31420600Y16175124D02*
X31468219Y16270362D01*
X31468219Y16270362D02*
X31468219Y16556076D01*
X31468219Y16556076D02*
X31420600Y16651314D01*
X31420600Y16651314D02*
X31372980Y16698933D01*
X66759057Y39473981D02*
X67092390Y39950172D01*
X67330485Y39473981D02*
X67330485Y40473981D01*
X67330485Y40473981D02*
X66949533Y40473981D01*
X66949533Y40473981D02*
X66854295Y40426362D01*
X66854295Y40426362D02*
X66806676Y40378743D01*
X66806676Y40378743D02*
X66759057Y40283505D01*
X66759057Y40283505D02*
X66759057Y40140648D01*
X66759057Y40140648D02*
X66806676Y40045410D01*
X66806676Y40045410D02*
X66854295Y39997791D01*
X66854295Y39997791D02*
X66949533Y39950172D01*
X66949533Y39950172D02*
X67330485Y39950172D01*
X66378104Y40378743D02*
X66330485Y40426362D01*
X66330485Y40426362D02*
X66235247Y40473981D01*
X66235247Y40473981D02*
X65997152Y40473981D01*
X65997152Y40473981D02*
X65901914Y40426362D01*
X65901914Y40426362D02*
X65854295Y40378743D01*
X65854295Y40378743D02*
X65806676Y40283505D01*
X65806676Y40283505D02*
X65806676Y40188267D01*
X65806676Y40188267D02*
X65854295Y40045410D01*
X65854295Y40045410D02*
X66425723Y39473981D01*
X66425723Y39473981D02*
X65806676Y39473981D01*
X65425723Y40378743D02*
X65378104Y40426362D01*
X65378104Y40426362D02*
X65282866Y40473981D01*
X65282866Y40473981D02*
X65044771Y40473981D01*
X65044771Y40473981D02*
X64949533Y40426362D01*
X64949533Y40426362D02*
X64901914Y40378743D01*
X64901914Y40378743D02*
X64854295Y40283505D01*
X64854295Y40283505D02*
X64854295Y40188267D01*
X64854295Y40188267D02*
X64901914Y40045410D01*
X64901914Y40045410D02*
X65473342Y39473981D01*
X65473342Y39473981D02*
X64854295Y39473981D01*
X53328866Y10594181D02*
X53805056Y10594181D01*
X53805056Y10594181D02*
X53805056Y11594181D01*
X52471723Y10594181D02*
X53043151Y10594181D01*
X52757437Y10594181D02*
X52757437Y11594181D01*
X52757437Y11594181D02*
X52852675Y11451324D01*
X52852675Y11451324D02*
X52947913Y11356086D01*
X52947913Y11356086D02*
X53043151Y11308467D01*
X56275266Y40940820D02*
X56322885Y40893200D01*
X56322885Y40893200D02*
X56465742Y40845581D01*
X56465742Y40845581D02*
X56560980Y40845581D01*
X56560980Y40845581D02*
X56703837Y40893200D01*
X56703837Y40893200D02*
X56799075Y40988439D01*
X56799075Y40988439D02*
X56846694Y41083677D01*
X56846694Y41083677D02*
X56894313Y41274153D01*
X56894313Y41274153D02*
X56894313Y41417010D01*
X56894313Y41417010D02*
X56846694Y41607486D01*
X56846694Y41607486D02*
X56799075Y41702724D01*
X56799075Y41702724D02*
X56703837Y41797962D01*
X56703837Y41797962D02*
X56560980Y41845581D01*
X56560980Y41845581D02*
X56465742Y41845581D01*
X56465742Y41845581D02*
X56322885Y41797962D01*
X56322885Y41797962D02*
X56275266Y41750343D01*
X55941932Y41845581D02*
X55275266Y41845581D01*
X55275266Y41845581D02*
X55703837Y40845581D01*
X29101933Y11692381D02*
X29101933Y10978096D01*
X29101933Y10978096D02*
X29149552Y10835239D01*
X29149552Y10835239D02*
X29244790Y10740000D01*
X29244790Y10740000D02*
X29387647Y10692381D01*
X29387647Y10692381D02*
X29482885Y10692381D01*
X28673361Y11597143D02*
X28625742Y11644762D01*
X28625742Y11644762D02*
X28530504Y11692381D01*
X28530504Y11692381D02*
X28292409Y11692381D01*
X28292409Y11692381D02*
X28197171Y11644762D01*
X28197171Y11644762D02*
X28149552Y11597143D01*
X28149552Y11597143D02*
X28101933Y11501905D01*
X28101933Y11501905D02*
X28101933Y11406667D01*
X28101933Y11406667D02*
X28149552Y11263810D01*
X28149552Y11263810D02*
X28720980Y10692381D01*
X28720980Y10692381D02*
X28101933Y10692381D01*
X24118866Y37695981D02*
X24452199Y38172172D01*
X24690294Y37695981D02*
X24690294Y38695981D01*
X24690294Y38695981D02*
X24309342Y38695981D01*
X24309342Y38695981D02*
X24214104Y38648362D01*
X24214104Y38648362D02*
X24166485Y38600743D01*
X24166485Y38600743D02*
X24118866Y38505505D01*
X24118866Y38505505D02*
X24118866Y38362648D01*
X24118866Y38362648D02*
X24166485Y38267410D01*
X24166485Y38267410D02*
X24214104Y38219791D01*
X24214104Y38219791D02*
X24309342Y38172172D01*
X24309342Y38172172D02*
X24690294Y38172172D01*
X23785532Y38695981D02*
X23118866Y38695981D01*
X23118866Y38695981D02*
X23547437Y37695981D01*
X12993666Y38356381D02*
X13326999Y38832572D01*
X13565094Y38356381D02*
X13565094Y39356381D01*
X13565094Y39356381D02*
X13184142Y39356381D01*
X13184142Y39356381D02*
X13088904Y39308762D01*
X13088904Y39308762D02*
X13041285Y39261143D01*
X13041285Y39261143D02*
X12993666Y39165905D01*
X12993666Y39165905D02*
X12993666Y39023048D01*
X12993666Y39023048D02*
X13041285Y38927810D01*
X13041285Y38927810D02*
X13088904Y38880191D01*
X13088904Y38880191D02*
X13184142Y38832572D01*
X13184142Y38832572D02*
X13565094Y38832572D01*
X12136523Y39356381D02*
X12326999Y39356381D01*
X12326999Y39356381D02*
X12422237Y39308762D01*
X12422237Y39308762D02*
X12469856Y39261143D01*
X12469856Y39261143D02*
X12565094Y39118286D01*
X12565094Y39118286D02*
X12612713Y38927810D01*
X12612713Y38927810D02*
X12612713Y38546858D01*
X12612713Y38546858D02*
X12565094Y38451620D01*
X12565094Y38451620D02*
X12517475Y38404000D01*
X12517475Y38404000D02*
X12422237Y38356381D01*
X12422237Y38356381D02*
X12231761Y38356381D01*
X12231761Y38356381D02*
X12136523Y38404000D01*
X12136523Y38404000D02*
X12088904Y38451620D01*
X12088904Y38451620D02*
X12041285Y38546858D01*
X12041285Y38546858D02*
X12041285Y38784953D01*
X12041285Y38784953D02*
X12088904Y38880191D01*
X12088904Y38880191D02*
X12136523Y38927810D01*
X12136523Y38927810D02*
X12231761Y38975429D01*
X12231761Y38975429D02*
X12422237Y38975429D01*
X12422237Y38975429D02*
X12517475Y38927810D01*
X12517475Y38927810D02*
X12565094Y38880191D01*
X12565094Y38880191D02*
X12612713Y38784953D01*
X30163974Y25736164D02*
X30062959Y26308583D01*
X30568035Y26140225D02*
X29860928Y26847331D01*
X29860928Y26847331D02*
X29591554Y26577957D01*
X29591554Y26577957D02*
X29557882Y26476942D01*
X29557882Y26476942D02*
X29557882Y26409599D01*
X29557882Y26409599D02*
X29591554Y26308583D01*
X29591554Y26308583D02*
X29692569Y26207568D01*
X29692569Y26207568D02*
X29793585Y26173896D01*
X29793585Y26173896D02*
X29860928Y26173896D01*
X29860928Y26173896D02*
X29961943Y26207568D01*
X29961943Y26207568D02*
X30231317Y26476942D01*
X29254837Y26106553D02*
X29187493Y26106553D01*
X29187493Y26106553D02*
X29086478Y26072881D01*
X29086478Y26072881D02*
X28918119Y25904522D01*
X28918119Y25904522D02*
X28884447Y25803507D01*
X28884447Y25803507D02*
X28884447Y25736164D01*
X28884447Y25736164D02*
X28918119Y25635148D01*
X28918119Y25635148D02*
X28985463Y25567805D01*
X28985463Y25567805D02*
X29120150Y25500461D01*
X29120150Y25500461D02*
X29928272Y25500461D01*
X29928272Y25500461D02*
X29490539Y25062729D01*
X28817104Y24389293D02*
X29221165Y24793354D01*
X29019134Y24591324D02*
X28312027Y25298431D01*
X28312027Y25298431D02*
X28480386Y25264759D01*
X28480386Y25264759D02*
X28615073Y25264759D01*
X28615073Y25264759D02*
X28716088Y25298431D01*
X65281133Y11543381D02*
X65281133Y10829096D01*
X65281133Y10829096D02*
X65328752Y10686239D01*
X65328752Y10686239D02*
X65423990Y10591000D01*
X65423990Y10591000D02*
X65566847Y10543381D01*
X65566847Y10543381D02*
X65662085Y10543381D01*
X64376371Y11543381D02*
X64566847Y11543381D01*
X64566847Y11543381D02*
X64662085Y11495762D01*
X64662085Y11495762D02*
X64709704Y11448143D01*
X64709704Y11448143D02*
X64804942Y11305286D01*
X64804942Y11305286D02*
X64852561Y11114810D01*
X64852561Y11114810D02*
X64852561Y10733858D01*
X64852561Y10733858D02*
X64804942Y10638620D01*
X64804942Y10638620D02*
X64757323Y10591000D01*
X64757323Y10591000D02*
X64662085Y10543381D01*
X64662085Y10543381D02*
X64471609Y10543381D01*
X64471609Y10543381D02*
X64376371Y10591000D01*
X64376371Y10591000D02*
X64328752Y10638620D01*
X64328752Y10638620D02*
X64281133Y10733858D01*
X64281133Y10733858D02*
X64281133Y10971953D01*
X64281133Y10971953D02*
X64328752Y11067191D01*
X64328752Y11067191D02*
X64376371Y11114810D01*
X64376371Y11114810D02*
X64471609Y11162429D01*
X64471609Y11162429D02*
X64662085Y11162429D01*
X64662085Y11162429D02*
X64757323Y11114810D01*
X64757323Y11114810D02*
X64804942Y11067191D01*
X64804942Y11067191D02*
X64852561Y10971953D01*
X35415733Y12958381D02*
X35415733Y12244096D01*
X35415733Y12244096D02*
X35463352Y12101239D01*
X35463352Y12101239D02*
X35558590Y12006000D01*
X35558590Y12006000D02*
X35701447Y11958381D01*
X35701447Y11958381D02*
X35796685Y11958381D01*
X34510971Y12625048D02*
X34510971Y11958381D01*
X34749066Y13006000D02*
X34987161Y12291715D01*
X34987161Y12291715D02*
X34368114Y12291715D01*
X50416619Y18899095D02*
X49416619Y18899095D01*
X49416619Y18899095D02*
X49416619Y18661000D01*
X49416619Y18661000D02*
X49464238Y18518143D01*
X49464238Y18518143D02*
X49559476Y18422905D01*
X49559476Y18422905D02*
X49654714Y18375286D01*
X49654714Y18375286D02*
X49845190Y18327667D01*
X49845190Y18327667D02*
X49988047Y18327667D01*
X49988047Y18327667D02*
X50178523Y18375286D01*
X50178523Y18375286D02*
X50273761Y18422905D01*
X50273761Y18422905D02*
X50369000Y18518143D01*
X50369000Y18518143D02*
X50416619Y18661000D01*
X50416619Y18661000D02*
X50416619Y18899095D01*
X50416619Y17375286D02*
X50416619Y17946714D01*
X50416619Y17661000D02*
X49416619Y17661000D01*
X49416619Y17661000D02*
X49559476Y17756238D01*
X49559476Y17756238D02*
X49654714Y17851476D01*
X49654714Y17851476D02*
X49702333Y17946714D01*
D11*
X9448667Y25396000D02*
X9334381Y25357905D01*
X9334381Y25357905D02*
X9143905Y25357905D01*
X9143905Y25357905D02*
X9067714Y25396000D01*
X9067714Y25396000D02*
X9029619Y25434096D01*
X9029619Y25434096D02*
X8991524Y25510286D01*
X8991524Y25510286D02*
X8991524Y25586477D01*
X8991524Y25586477D02*
X9029619Y25662667D01*
X9029619Y25662667D02*
X9067714Y25700762D01*
X9067714Y25700762D02*
X9143905Y25738858D01*
X9143905Y25738858D02*
X9296286Y25776953D01*
X9296286Y25776953D02*
X9372476Y25815048D01*
X9372476Y25815048D02*
X9410571Y25853143D01*
X9410571Y25853143D02*
X9448667Y25929334D01*
X9448667Y25929334D02*
X9448667Y26005524D01*
X9448667Y26005524D02*
X9410571Y26081715D01*
X9410571Y26081715D02*
X9372476Y26119810D01*
X9372476Y26119810D02*
X9296286Y26157905D01*
X9296286Y26157905D02*
X9105809Y26157905D01*
X9105809Y26157905D02*
X8991524Y26119810D01*
X8724857Y26157905D02*
X8534381Y25357905D01*
X8534381Y25357905D02*
X8382000Y25929334D01*
X8382000Y25929334D02*
X8229619Y25357905D01*
X8229619Y25357905D02*
X8039143Y26157905D01*
X7772476Y26081715D02*
X7734380Y26119810D01*
X7734380Y26119810D02*
X7658190Y26157905D01*
X7658190Y26157905D02*
X7467714Y26157905D01*
X7467714Y26157905D02*
X7391523Y26119810D01*
X7391523Y26119810D02*
X7353428Y26081715D01*
X7353428Y26081715D02*
X7315333Y26005524D01*
X7315333Y26005524D02*
X7315333Y25929334D01*
X7315333Y25929334D02*
X7353428Y25815048D01*
X7353428Y25815048D02*
X7810571Y25357905D01*
X7810571Y25357905D02*
X7315333Y25357905D01*
D10*
X59738419Y17457658D02*
X59262228Y17790991D01*
X59738419Y18029086D02*
X58738419Y18029086D01*
X58738419Y18029086D02*
X58738419Y17648134D01*
X58738419Y17648134D02*
X58786038Y17552896D01*
X58786038Y17552896D02*
X58833657Y17505277D01*
X58833657Y17505277D02*
X58928895Y17457658D01*
X58928895Y17457658D02*
X59071752Y17457658D01*
X59071752Y17457658D02*
X59166990Y17505277D01*
X59166990Y17505277D02*
X59214609Y17552896D01*
X59214609Y17552896D02*
X59262228Y17648134D01*
X59262228Y17648134D02*
X59262228Y18029086D01*
X58833657Y17076705D02*
X58786038Y17029086D01*
X58786038Y17029086D02*
X58738419Y16933848D01*
X58738419Y16933848D02*
X58738419Y16695753D01*
X58738419Y16695753D02*
X58786038Y16600515D01*
X58786038Y16600515D02*
X58833657Y16552896D01*
X58833657Y16552896D02*
X58928895Y16505277D01*
X58928895Y16505277D02*
X59024133Y16505277D01*
X59024133Y16505277D02*
X59166990Y16552896D01*
X59166990Y16552896D02*
X59738419Y17124324D01*
X59738419Y17124324D02*
X59738419Y16505277D01*
X59166990Y15933848D02*
X59119371Y16029086D01*
X59119371Y16029086D02*
X59071752Y16076705D01*
X59071752Y16076705D02*
X58976514Y16124324D01*
X58976514Y16124324D02*
X58928895Y16124324D01*
X58928895Y16124324D02*
X58833657Y16076705D01*
X58833657Y16076705D02*
X58786038Y16029086D01*
X58786038Y16029086D02*
X58738419Y15933848D01*
X58738419Y15933848D02*
X58738419Y15743372D01*
X58738419Y15743372D02*
X58786038Y15648134D01*
X58786038Y15648134D02*
X58833657Y15600515D01*
X58833657Y15600515D02*
X58928895Y15552896D01*
X58928895Y15552896D02*
X58976514Y15552896D01*
X58976514Y15552896D02*
X59071752Y15600515D01*
X59071752Y15600515D02*
X59119371Y15648134D01*
X59119371Y15648134D02*
X59166990Y15743372D01*
X59166990Y15743372D02*
X59166990Y15933848D01*
X59166990Y15933848D02*
X59214609Y16029086D01*
X59214609Y16029086D02*
X59262228Y16076705D01*
X59262228Y16076705D02*
X59357466Y16124324D01*
X59357466Y16124324D02*
X59547942Y16124324D01*
X59547942Y16124324D02*
X59643180Y16076705D01*
X59643180Y16076705D02*
X59690800Y16029086D01*
X59690800Y16029086D02*
X59738419Y15933848D01*
X59738419Y15933848D02*
X59738419Y15743372D01*
X59738419Y15743372D02*
X59690800Y15648134D01*
X59690800Y15648134D02*
X59643180Y15600515D01*
X59643180Y15600515D02*
X59547942Y15552896D01*
X59547942Y15552896D02*
X59357466Y15552896D01*
X59357466Y15552896D02*
X59262228Y15600515D01*
X59262228Y15600515D02*
X59214609Y15648134D01*
X59214609Y15648134D02*
X59166990Y15743372D01*
D11*
X9448667Y30044200D02*
X9334381Y30006105D01*
X9334381Y30006105D02*
X9143905Y30006105D01*
X9143905Y30006105D02*
X9067714Y30044200D01*
X9067714Y30044200D02*
X9029619Y30082296D01*
X9029619Y30082296D02*
X8991524Y30158486D01*
X8991524Y30158486D02*
X8991524Y30234677D01*
X8991524Y30234677D02*
X9029619Y30310867D01*
X9029619Y30310867D02*
X9067714Y30348962D01*
X9067714Y30348962D02*
X9143905Y30387058D01*
X9143905Y30387058D02*
X9296286Y30425153D01*
X9296286Y30425153D02*
X9372476Y30463248D01*
X9372476Y30463248D02*
X9410571Y30501343D01*
X9410571Y30501343D02*
X9448667Y30577534D01*
X9448667Y30577534D02*
X9448667Y30653724D01*
X9448667Y30653724D02*
X9410571Y30729915D01*
X9410571Y30729915D02*
X9372476Y30768010D01*
X9372476Y30768010D02*
X9296286Y30806105D01*
X9296286Y30806105D02*
X9105809Y30806105D01*
X9105809Y30806105D02*
X8991524Y30768010D01*
X8724857Y30806105D02*
X8534381Y30006105D01*
X8534381Y30006105D02*
X8382000Y30577534D01*
X8382000Y30577534D02*
X8229619Y30006105D01*
X8229619Y30006105D02*
X8039143Y30806105D01*
X7315333Y30006105D02*
X7772476Y30006105D01*
X7543904Y30006105D02*
X7543904Y30806105D01*
X7543904Y30806105D02*
X7620095Y30691820D01*
X7620095Y30691820D02*
X7696285Y30615629D01*
X7696285Y30615629D02*
X7772476Y30577534D01*
D10*
X27666563Y21906026D02*
X28238982Y22007041D01*
X28070624Y21501965D02*
X28777730Y22209072D01*
X28777730Y22209072D02*
X28508356Y22478446D01*
X28508356Y22478446D02*
X28407341Y22512118D01*
X28407341Y22512118D02*
X28339998Y22512118D01*
X28339998Y22512118D02*
X28238982Y22478446D01*
X28238982Y22478446D02*
X28137967Y22377431D01*
X28137967Y22377431D02*
X28104295Y22276415D01*
X28104295Y22276415D02*
X28104295Y22209072D01*
X28104295Y22209072D02*
X28137967Y22108057D01*
X28137967Y22108057D02*
X28407341Y21838683D01*
X28036952Y22815163D02*
X28036952Y22882507D01*
X28036952Y22882507D02*
X28003280Y22983522D01*
X28003280Y22983522D02*
X27834921Y23151881D01*
X27834921Y23151881D02*
X27733906Y23185553D01*
X27733906Y23185553D02*
X27666563Y23185553D01*
X27666563Y23185553D02*
X27565547Y23151881D01*
X27565547Y23151881D02*
X27498204Y23084537D01*
X27498204Y23084537D02*
X27430860Y22949850D01*
X27430860Y22949850D02*
X27430860Y22141728D01*
X27430860Y22141728D02*
X26993128Y22579461D01*
X27262501Y23724301D02*
X27195158Y23791644D01*
X27195158Y23791644D02*
X27094143Y23825316D01*
X27094143Y23825316D02*
X27026799Y23825316D01*
X27026799Y23825316D02*
X26925784Y23791644D01*
X26925784Y23791644D02*
X26757425Y23690629D01*
X26757425Y23690629D02*
X26589066Y23522270D01*
X26589066Y23522270D02*
X26488051Y23353912D01*
X26488051Y23353912D02*
X26454379Y23252896D01*
X26454379Y23252896D02*
X26454379Y23185553D01*
X26454379Y23185553D02*
X26488051Y23084538D01*
X26488051Y23084538D02*
X26555395Y23017194D01*
X26555395Y23017194D02*
X26656410Y22983522D01*
X26656410Y22983522D02*
X26723753Y22983522D01*
X26723753Y22983522D02*
X26824769Y23017194D01*
X26824769Y23017194D02*
X26993127Y23118209D01*
X26993127Y23118209D02*
X27161486Y23286568D01*
X27161486Y23286568D02*
X27262501Y23454927D01*
X27262501Y23454927D02*
X27296173Y23555942D01*
X27296173Y23555942D02*
X27296173Y23623286D01*
X27296173Y23623286D02*
X27262501Y23724301D01*
X46657419Y16854467D02*
X46181228Y17187800D01*
X46657419Y17425895D02*
X45657419Y17425895D01*
X45657419Y17425895D02*
X45657419Y17044943D01*
X45657419Y17044943D02*
X45705038Y16949705D01*
X45705038Y16949705D02*
X45752657Y16902086D01*
X45752657Y16902086D02*
X45847895Y16854467D01*
X45847895Y16854467D02*
X45990752Y16854467D01*
X45990752Y16854467D02*
X46085990Y16902086D01*
X46085990Y16902086D02*
X46133609Y16949705D01*
X46133609Y16949705D02*
X46181228Y17044943D01*
X46181228Y17044943D02*
X46181228Y17425895D01*
X45990752Y15997324D02*
X46657419Y15997324D01*
X45609800Y16235419D02*
X46324085Y16473514D01*
X46324085Y16473514D02*
X46324085Y15854467D01*
X25075763Y16146326D02*
X25648182Y16247341D01*
X25479824Y15742265D02*
X26186930Y16449372D01*
X26186930Y16449372D02*
X25917556Y16718746D01*
X25917556Y16718746D02*
X25816541Y16752418D01*
X25816541Y16752418D02*
X25749198Y16752418D01*
X25749198Y16752418D02*
X25648182Y16718746D01*
X25648182Y16718746D02*
X25547167Y16617731D01*
X25547167Y16617731D02*
X25513495Y16516715D01*
X25513495Y16516715D02*
X25513495Y16449372D01*
X25513495Y16449372D02*
X25547167Y16348357D01*
X25547167Y16348357D02*
X25816541Y16078983D01*
X24402328Y16819761D02*
X24806389Y16415700D01*
X24604358Y16617731D02*
X25311465Y17324837D01*
X25311465Y17324837D02*
X25277793Y17156479D01*
X25277793Y17156479D02*
X25277793Y17021792D01*
X25277793Y17021792D02*
X25311465Y16920776D01*
X24402327Y17627883D02*
X24503343Y17594212D01*
X24503343Y17594212D02*
X24570686Y17594212D01*
X24570686Y17594212D02*
X24671701Y17627883D01*
X24671701Y17627883D02*
X24705373Y17661555D01*
X24705373Y17661555D02*
X24739045Y17762570D01*
X24739045Y17762570D02*
X24739045Y17829914D01*
X24739045Y17829914D02*
X24705373Y17930929D01*
X24705373Y17930929D02*
X24570686Y18065616D01*
X24570686Y18065616D02*
X24469671Y18099288D01*
X24469671Y18099288D02*
X24402327Y18099288D01*
X24402327Y18099288D02*
X24301312Y18065616D01*
X24301312Y18065616D02*
X24267640Y18031944D01*
X24267640Y18031944D02*
X24233969Y17930929D01*
X24233969Y17930929D02*
X24233969Y17863586D01*
X24233969Y17863586D02*
X24267640Y17762570D01*
X24267640Y17762570D02*
X24402327Y17627883D01*
X24402327Y17627883D02*
X24435999Y17526868D01*
X24435999Y17526868D02*
X24435999Y17459525D01*
X24435999Y17459525D02*
X24402327Y17358509D01*
X24402327Y17358509D02*
X24267640Y17223822D01*
X24267640Y17223822D02*
X24166625Y17190151D01*
X24166625Y17190151D02*
X24099282Y17190151D01*
X24099282Y17190151D02*
X23998266Y17223822D01*
X23998266Y17223822D02*
X23863579Y17358509D01*
X23863579Y17358509D02*
X23829908Y17459525D01*
X23829908Y17459525D02*
X23829908Y17526868D01*
X23829908Y17526868D02*
X23863579Y17627883D01*
X23863579Y17627883D02*
X23998266Y17762570D01*
X23998266Y17762570D02*
X24099282Y17796242D01*
X24099282Y17796242D02*
X24166625Y17796242D01*
X24166625Y17796242D02*
X24267640Y17762570D01*
X16543257Y32082581D02*
X16876590Y32558772D01*
X17114685Y32082581D02*
X17114685Y33082581D01*
X17114685Y33082581D02*
X16733733Y33082581D01*
X16733733Y33082581D02*
X16638495Y33034962D01*
X16638495Y33034962D02*
X16590876Y32987343D01*
X16590876Y32987343D02*
X16543257Y32892105D01*
X16543257Y32892105D02*
X16543257Y32749248D01*
X16543257Y32749248D02*
X16590876Y32654010D01*
X16590876Y32654010D02*
X16638495Y32606391D01*
X16638495Y32606391D02*
X16733733Y32558772D01*
X16733733Y32558772D02*
X17114685Y32558772D01*
X15590876Y32082581D02*
X16162304Y32082581D01*
X15876590Y32082581D02*
X15876590Y33082581D01*
X15876590Y33082581D02*
X15971828Y32939724D01*
X15971828Y32939724D02*
X16067066Y32844486D01*
X16067066Y32844486D02*
X16162304Y32796867D01*
X14686114Y33082581D02*
X15162304Y33082581D01*
X15162304Y33082581D02*
X15209923Y32606391D01*
X15209923Y32606391D02*
X15162304Y32654010D01*
X15162304Y32654010D02*
X15067066Y32701629D01*
X15067066Y32701629D02*
X14828971Y32701629D01*
X14828971Y32701629D02*
X14733733Y32654010D01*
X14733733Y32654010D02*
X14686114Y32606391D01*
X14686114Y32606391D02*
X14638495Y32511153D01*
X14638495Y32511153D02*
X14638495Y32273058D01*
X14638495Y32273058D02*
X14686114Y32177820D01*
X14686114Y32177820D02*
X14733733Y32130200D01*
X14733733Y32130200D02*
X14828971Y32082581D01*
X14828971Y32082581D02*
X15067066Y32082581D01*
X15067066Y32082581D02*
X15162304Y32130200D01*
X15162304Y32130200D02*
X15209923Y32177820D01*
X28893419Y42486105D02*
X28893419Y41914677D01*
X29893419Y42200391D02*
X28893419Y42200391D01*
X29893419Y41581343D02*
X28893419Y41581343D01*
X28893419Y41581343D02*
X28893419Y41200391D01*
X28893419Y41200391D02*
X28941038Y41105153D01*
X28941038Y41105153D02*
X28988657Y41057534D01*
X28988657Y41057534D02*
X29083895Y41009915D01*
X29083895Y41009915D02*
X29226752Y41009915D01*
X29226752Y41009915D02*
X29321990Y41057534D01*
X29321990Y41057534D02*
X29369609Y41105153D01*
X29369609Y41105153D02*
X29417228Y41200391D01*
X29417228Y41200391D02*
X29417228Y41581343D01*
X28988657Y40628962D02*
X28941038Y40581343D01*
X28941038Y40581343D02*
X28893419Y40486105D01*
X28893419Y40486105D02*
X28893419Y40248010D01*
X28893419Y40248010D02*
X28941038Y40152772D01*
X28941038Y40152772D02*
X28988657Y40105153D01*
X28988657Y40105153D02*
X29083895Y40057534D01*
X29083895Y40057534D02*
X29179133Y40057534D01*
X29179133Y40057534D02*
X29321990Y40105153D01*
X29321990Y40105153D02*
X29893419Y40676581D01*
X29893419Y40676581D02*
X29893419Y40057534D01*
X22891363Y16216426D02*
X23463782Y16317441D01*
X23295424Y15812365D02*
X24002530Y16519472D01*
X24002530Y16519472D02*
X23733156Y16788846D01*
X23733156Y16788846D02*
X23632141Y16822518D01*
X23632141Y16822518D02*
X23564798Y16822518D01*
X23564798Y16822518D02*
X23463782Y16788846D01*
X23463782Y16788846D02*
X23362767Y16687831D01*
X23362767Y16687831D02*
X23329095Y16586815D01*
X23329095Y16586815D02*
X23329095Y16519472D01*
X23329095Y16519472D02*
X23362767Y16418457D01*
X23362767Y16418457D02*
X23632141Y16149083D01*
X22217928Y16889861D02*
X22621989Y16485800D01*
X22419958Y16687831D02*
X23127065Y17394937D01*
X23127065Y17394937D02*
X23093393Y17226579D01*
X23093393Y17226579D02*
X23093393Y17091892D01*
X23093393Y17091892D02*
X23127065Y16990876D01*
X21881210Y17226579D02*
X21746523Y17361266D01*
X21746523Y17361266D02*
X21712851Y17462281D01*
X21712851Y17462281D02*
X21712851Y17529625D01*
X21712851Y17529625D02*
X21746523Y17697983D01*
X21746523Y17697983D02*
X21847538Y17866342D01*
X21847538Y17866342D02*
X22116912Y18135716D01*
X22116912Y18135716D02*
X22217927Y18169388D01*
X22217927Y18169388D02*
X22285271Y18169388D01*
X22285271Y18169388D02*
X22386286Y18135716D01*
X22386286Y18135716D02*
X22520973Y18001029D01*
X22520973Y18001029D02*
X22554645Y17900014D01*
X22554645Y17900014D02*
X22554645Y17832670D01*
X22554645Y17832670D02*
X22520973Y17731655D01*
X22520973Y17731655D02*
X22352614Y17563296D01*
X22352614Y17563296D02*
X22251599Y17529625D01*
X22251599Y17529625D02*
X22184256Y17529625D01*
X22184256Y17529625D02*
X22083240Y17563296D01*
X22083240Y17563296D02*
X21948553Y17697983D01*
X21948553Y17697983D02*
X21914882Y17798999D01*
X21914882Y17798999D02*
X21914882Y17866342D01*
X21914882Y17866342D02*
X21948553Y17967357D01*
X26658219Y38498305D02*
X26658219Y37926877D01*
X27658219Y38212591D02*
X26658219Y38212591D01*
X27658219Y37593543D02*
X26658219Y37593543D01*
X26658219Y37593543D02*
X26658219Y37212591D01*
X26658219Y37212591D02*
X26705838Y37117353D01*
X26705838Y37117353D02*
X26753457Y37069734D01*
X26753457Y37069734D02*
X26848695Y37022115D01*
X26848695Y37022115D02*
X26991552Y37022115D01*
X26991552Y37022115D02*
X27086790Y37069734D01*
X27086790Y37069734D02*
X27134409Y37117353D01*
X27134409Y37117353D02*
X27182028Y37212591D01*
X27182028Y37212591D02*
X27182028Y37593543D01*
X27658219Y36069734D02*
X27658219Y36641162D01*
X27658219Y36355448D02*
X26658219Y36355448D01*
X26658219Y36355448D02*
X26801076Y36450686D01*
X26801076Y36450686D02*
X26896314Y36545924D01*
X26896314Y36545924D02*
X26943933Y36641162D01*
X63980219Y39301658D02*
X63504028Y39634991D01*
X63980219Y39873086D02*
X62980219Y39873086D01*
X62980219Y39873086D02*
X62980219Y39492134D01*
X62980219Y39492134D02*
X63027838Y39396896D01*
X63027838Y39396896D02*
X63075457Y39349277D01*
X63075457Y39349277D02*
X63170695Y39301658D01*
X63170695Y39301658D02*
X63313552Y39301658D01*
X63313552Y39301658D02*
X63408790Y39349277D01*
X63408790Y39349277D02*
X63456409Y39396896D01*
X63456409Y39396896D02*
X63504028Y39492134D01*
X63504028Y39492134D02*
X63504028Y39873086D01*
X63075457Y38920705D02*
X63027838Y38873086D01*
X63027838Y38873086D02*
X62980219Y38777848D01*
X62980219Y38777848D02*
X62980219Y38539753D01*
X62980219Y38539753D02*
X63027838Y38444515D01*
X63027838Y38444515D02*
X63075457Y38396896D01*
X63075457Y38396896D02*
X63170695Y38349277D01*
X63170695Y38349277D02*
X63265933Y38349277D01*
X63265933Y38349277D02*
X63408790Y38396896D01*
X63408790Y38396896D02*
X63980219Y38968324D01*
X63980219Y38968324D02*
X63980219Y38349277D01*
X62980219Y38015943D02*
X62980219Y37396896D01*
X62980219Y37396896D02*
X63361171Y37730229D01*
X63361171Y37730229D02*
X63361171Y37587372D01*
X63361171Y37587372D02*
X63408790Y37492134D01*
X63408790Y37492134D02*
X63456409Y37444515D01*
X63456409Y37444515D02*
X63551647Y37396896D01*
X63551647Y37396896D02*
X63789742Y37396896D01*
X63789742Y37396896D02*
X63884980Y37444515D01*
X63884980Y37444515D02*
X63932600Y37492134D01*
X63932600Y37492134D02*
X63980219Y37587372D01*
X63980219Y37587372D02*
X63980219Y37873086D01*
X63980219Y37873086D02*
X63932600Y37968324D01*
X63932600Y37968324D02*
X63884980Y38015943D01*
X33648590Y22237172D02*
X33648590Y21760981D01*
X33981923Y22760981D02*
X33648590Y22237172D01*
X33648590Y22237172D02*
X33315257Y22760981D01*
X32458114Y21760981D02*
X33029542Y21760981D01*
X32743828Y21760981D02*
X32743828Y22760981D01*
X32743828Y22760981D02*
X32839066Y22618124D01*
X32839066Y22618124D02*
X32934304Y22522886D01*
X32934304Y22522886D02*
X33029542Y22475267D01*
X40152533Y13803981D02*
X40152533Y13089696D01*
X40152533Y13089696D02*
X40200152Y12946839D01*
X40200152Y12946839D02*
X40295390Y12851600D01*
X40295390Y12851600D02*
X40438247Y12803981D01*
X40438247Y12803981D02*
X40533485Y12803981D01*
X39676342Y12803981D02*
X39676342Y13803981D01*
X39676342Y13803981D02*
X39295390Y13803981D01*
X39295390Y13803981D02*
X39200152Y13756362D01*
X39200152Y13756362D02*
X39152533Y13708743D01*
X39152533Y13708743D02*
X39104914Y13613505D01*
X39104914Y13613505D02*
X39104914Y13470648D01*
X39104914Y13470648D02*
X39152533Y13375410D01*
X39152533Y13375410D02*
X39200152Y13327791D01*
X39200152Y13327791D02*
X39295390Y13280172D01*
X39295390Y13280172D02*
X39676342Y13280172D01*
X38152533Y12803981D02*
X38723961Y12803981D01*
X38438247Y12803981D02*
X38438247Y13803981D01*
X38438247Y13803981D02*
X38533485Y13661124D01*
X38533485Y13661124D02*
X38628723Y13565886D01*
X38628723Y13565886D02*
X38723961Y13518267D01*
X66733657Y41067820D02*
X66781276Y41020200D01*
X66781276Y41020200D02*
X66924133Y40972581D01*
X66924133Y40972581D02*
X67019371Y40972581D01*
X67019371Y40972581D02*
X67162228Y41020200D01*
X67162228Y41020200D02*
X67257466Y41115439D01*
X67257466Y41115439D02*
X67305085Y41210677D01*
X67305085Y41210677D02*
X67352704Y41401153D01*
X67352704Y41401153D02*
X67352704Y41544010D01*
X67352704Y41544010D02*
X67305085Y41734486D01*
X67305085Y41734486D02*
X67257466Y41829724D01*
X67257466Y41829724D02*
X67162228Y41924962D01*
X67162228Y41924962D02*
X67019371Y41972581D01*
X67019371Y41972581D02*
X66924133Y41972581D01*
X66924133Y41972581D02*
X66781276Y41924962D01*
X66781276Y41924962D02*
X66733657Y41877343D01*
X65781276Y40972581D02*
X66352704Y40972581D01*
X66066990Y40972581D02*
X66066990Y41972581D01*
X66066990Y41972581D02*
X66162228Y41829724D01*
X66162228Y41829724D02*
X66257466Y41734486D01*
X66257466Y41734486D02*
X66352704Y41686867D01*
X64876514Y41972581D02*
X65352704Y41972581D01*
X65352704Y41972581D02*
X65400323Y41496391D01*
X65400323Y41496391D02*
X65352704Y41544010D01*
X65352704Y41544010D02*
X65257466Y41591629D01*
X65257466Y41591629D02*
X65019371Y41591629D01*
X65019371Y41591629D02*
X64924133Y41544010D01*
X64924133Y41544010D02*
X64876514Y41496391D01*
X64876514Y41496391D02*
X64828895Y41401153D01*
X64828895Y41401153D02*
X64828895Y41163058D01*
X64828895Y41163058D02*
X64876514Y41067820D01*
X64876514Y41067820D02*
X64924133Y41020200D01*
X64924133Y41020200D02*
X65019371Y40972581D01*
X65019371Y40972581D02*
X65257466Y40972581D01*
X65257466Y40972581D02*
X65352704Y41020200D01*
X65352704Y41020200D02*
X65400323Y41067820D01*
X53862266Y16023420D02*
X53909885Y15975800D01*
X53909885Y15975800D02*
X54052742Y15928181D01*
X54052742Y15928181D02*
X54147980Y15928181D01*
X54147980Y15928181D02*
X54290837Y15975800D01*
X54290837Y15975800D02*
X54386075Y16071039D01*
X54386075Y16071039D02*
X54433694Y16166277D01*
X54433694Y16166277D02*
X54481313Y16356753D01*
X54481313Y16356753D02*
X54481313Y16499610D01*
X54481313Y16499610D02*
X54433694Y16690086D01*
X54433694Y16690086D02*
X54386075Y16785324D01*
X54386075Y16785324D02*
X54290837Y16880562D01*
X54290837Y16880562D02*
X54147980Y16928181D01*
X54147980Y16928181D02*
X54052742Y16928181D01*
X54052742Y16928181D02*
X53909885Y16880562D01*
X53909885Y16880562D02*
X53862266Y16832943D01*
X52909885Y15928181D02*
X53481313Y15928181D01*
X53195599Y15928181D02*
X53195599Y16928181D01*
X53195599Y16928181D02*
X53290837Y16785324D01*
X53290837Y16785324D02*
X53386075Y16690086D01*
X53386075Y16690086D02*
X53481313Y16642467D01*
X12587266Y24156781D02*
X12920599Y24632972D01*
X13158694Y24156781D02*
X13158694Y25156781D01*
X13158694Y25156781D02*
X12777742Y25156781D01*
X12777742Y25156781D02*
X12682504Y25109162D01*
X12682504Y25109162D02*
X12634885Y25061543D01*
X12634885Y25061543D02*
X12587266Y24966305D01*
X12587266Y24966305D02*
X12587266Y24823448D01*
X12587266Y24823448D02*
X12634885Y24728210D01*
X12634885Y24728210D02*
X12682504Y24680591D01*
X12682504Y24680591D02*
X12777742Y24632972D01*
X12777742Y24632972D02*
X13158694Y24632972D01*
X12253932Y25156781D02*
X11634885Y25156781D01*
X11634885Y25156781D02*
X11968218Y24775829D01*
X11968218Y24775829D02*
X11825361Y24775829D01*
X11825361Y24775829D02*
X11730123Y24728210D01*
X11730123Y24728210D02*
X11682504Y24680591D01*
X11682504Y24680591D02*
X11634885Y24585353D01*
X11634885Y24585353D02*
X11634885Y24347258D01*
X11634885Y24347258D02*
X11682504Y24252020D01*
X11682504Y24252020D02*
X11730123Y24204400D01*
X11730123Y24204400D02*
X11825361Y24156781D01*
X11825361Y24156781D02*
X12111075Y24156781D01*
X12111075Y24156781D02*
X12206313Y24204400D01*
X12206313Y24204400D02*
X12253932Y24252020D01*
X63650019Y17559258D02*
X63173828Y17892591D01*
X63650019Y18130686D02*
X62650019Y18130686D01*
X62650019Y18130686D02*
X62650019Y17749734D01*
X62650019Y17749734D02*
X62697638Y17654496D01*
X62697638Y17654496D02*
X62745257Y17606877D01*
X62745257Y17606877D02*
X62840495Y17559258D01*
X62840495Y17559258D02*
X62983352Y17559258D01*
X62983352Y17559258D02*
X63078590Y17606877D01*
X63078590Y17606877D02*
X63126209Y17654496D01*
X63126209Y17654496D02*
X63173828Y17749734D01*
X63173828Y17749734D02*
X63173828Y18130686D01*
X62745257Y17178305D02*
X62697638Y17130686D01*
X62697638Y17130686D02*
X62650019Y17035448D01*
X62650019Y17035448D02*
X62650019Y16797353D01*
X62650019Y16797353D02*
X62697638Y16702115D01*
X62697638Y16702115D02*
X62745257Y16654496D01*
X62745257Y16654496D02*
X62840495Y16606877D01*
X62840495Y16606877D02*
X62935733Y16606877D01*
X62935733Y16606877D02*
X63078590Y16654496D01*
X63078590Y16654496D02*
X63650019Y17225924D01*
X63650019Y17225924D02*
X63650019Y16606877D01*
X62650019Y15702115D02*
X62650019Y16178305D01*
X62650019Y16178305D02*
X63126209Y16225924D01*
X63126209Y16225924D02*
X63078590Y16178305D01*
X63078590Y16178305D02*
X63030971Y16083067D01*
X63030971Y16083067D02*
X63030971Y15844972D01*
X63030971Y15844972D02*
X63078590Y15749734D01*
X63078590Y15749734D02*
X63126209Y15702115D01*
X63126209Y15702115D02*
X63221447Y15654496D01*
X63221447Y15654496D02*
X63459542Y15654496D01*
X63459542Y15654496D02*
X63554780Y15702115D01*
X63554780Y15702115D02*
X63602400Y15749734D01*
X63602400Y15749734D02*
X63650019Y15844972D01*
X63650019Y15844972D02*
X63650019Y16083067D01*
X63650019Y16083067D02*
X63602400Y16178305D01*
X63602400Y16178305D02*
X63554780Y16225924D01*
X71796019Y34151867D02*
X71796019Y34628057D01*
X71796019Y34628057D02*
X70796019Y34628057D01*
X70796019Y33913771D02*
X70796019Y33294724D01*
X70796019Y33294724D02*
X71176971Y33628057D01*
X71176971Y33628057D02*
X71176971Y33485200D01*
X71176971Y33485200D02*
X71224590Y33389962D01*
X71224590Y33389962D02*
X71272209Y33342343D01*
X71272209Y33342343D02*
X71367447Y33294724D01*
X71367447Y33294724D02*
X71605542Y33294724D01*
X71605542Y33294724D02*
X71700780Y33342343D01*
X71700780Y33342343D02*
X71748400Y33389962D01*
X71748400Y33389962D02*
X71796019Y33485200D01*
X71796019Y33485200D02*
X71796019Y33770914D01*
X71796019Y33770914D02*
X71748400Y33866152D01*
X71748400Y33866152D02*
X71700780Y33913771D01*
X61618019Y17483058D02*
X61141828Y17816391D01*
X61618019Y18054486D02*
X60618019Y18054486D01*
X60618019Y18054486D02*
X60618019Y17673534D01*
X60618019Y17673534D02*
X60665638Y17578296D01*
X60665638Y17578296D02*
X60713257Y17530677D01*
X60713257Y17530677D02*
X60808495Y17483058D01*
X60808495Y17483058D02*
X60951352Y17483058D01*
X60951352Y17483058D02*
X61046590Y17530677D01*
X61046590Y17530677D02*
X61094209Y17578296D01*
X61094209Y17578296D02*
X61141828Y17673534D01*
X61141828Y17673534D02*
X61141828Y18054486D01*
X60713257Y17102105D02*
X60665638Y17054486D01*
X60665638Y17054486D02*
X60618019Y16959248D01*
X60618019Y16959248D02*
X60618019Y16721153D01*
X60618019Y16721153D02*
X60665638Y16625915D01*
X60665638Y16625915D02*
X60713257Y16578296D01*
X60713257Y16578296D02*
X60808495Y16530677D01*
X60808495Y16530677D02*
X60903733Y16530677D01*
X60903733Y16530677D02*
X61046590Y16578296D01*
X61046590Y16578296D02*
X61618019Y17149724D01*
X61618019Y17149724D02*
X61618019Y16530677D01*
X60618019Y16197343D02*
X60618019Y15530677D01*
X60618019Y15530677D02*
X61618019Y15959248D01*
X55903019Y17533858D02*
X55426828Y17867191D01*
X55903019Y18105286D02*
X54903019Y18105286D01*
X54903019Y18105286D02*
X54903019Y17724334D01*
X54903019Y17724334D02*
X54950638Y17629096D01*
X54950638Y17629096D02*
X54998257Y17581477D01*
X54998257Y17581477D02*
X55093495Y17533858D01*
X55093495Y17533858D02*
X55236352Y17533858D01*
X55236352Y17533858D02*
X55331590Y17581477D01*
X55331590Y17581477D02*
X55379209Y17629096D01*
X55379209Y17629096D02*
X55426828Y17724334D01*
X55426828Y17724334D02*
X55426828Y18105286D01*
X54903019Y17200524D02*
X54903019Y16581477D01*
X54903019Y16581477D02*
X55283971Y16914810D01*
X55283971Y16914810D02*
X55283971Y16771953D01*
X55283971Y16771953D02*
X55331590Y16676715D01*
X55331590Y16676715D02*
X55379209Y16629096D01*
X55379209Y16629096D02*
X55474447Y16581477D01*
X55474447Y16581477D02*
X55712542Y16581477D01*
X55712542Y16581477D02*
X55807780Y16629096D01*
X55807780Y16629096D02*
X55855400Y16676715D01*
X55855400Y16676715D02*
X55903019Y16771953D01*
X55903019Y16771953D02*
X55903019Y17057667D01*
X55903019Y17057667D02*
X55855400Y17152905D01*
X55855400Y17152905D02*
X55807780Y17200524D01*
X54903019Y15962429D02*
X54903019Y15867191D01*
X54903019Y15867191D02*
X54950638Y15771953D01*
X54950638Y15771953D02*
X54998257Y15724334D01*
X54998257Y15724334D02*
X55093495Y15676715D01*
X55093495Y15676715D02*
X55283971Y15629096D01*
X55283971Y15629096D02*
X55522066Y15629096D01*
X55522066Y15629096D02*
X55712542Y15676715D01*
X55712542Y15676715D02*
X55807780Y15724334D01*
X55807780Y15724334D02*
X55855400Y15771953D01*
X55855400Y15771953D02*
X55903019Y15867191D01*
X55903019Y15867191D02*
X55903019Y15962429D01*
X55903019Y15962429D02*
X55855400Y16057667D01*
X55855400Y16057667D02*
X55807780Y16105286D01*
X55807780Y16105286D02*
X55712542Y16152905D01*
X55712542Y16152905D02*
X55522066Y16200524D01*
X55522066Y16200524D02*
X55283971Y16200524D01*
X55283971Y16200524D02*
X55093495Y16152905D01*
X55093495Y16152905D02*
X54998257Y16105286D01*
X54998257Y16105286D02*
X54950638Y16057667D01*
X54950638Y16057667D02*
X54903019Y15962429D01*
X34228066Y14880420D02*
X34275685Y14832800D01*
X34275685Y14832800D02*
X34418542Y14785181D01*
X34418542Y14785181D02*
X34513780Y14785181D01*
X34513780Y14785181D02*
X34656637Y14832800D01*
X34656637Y14832800D02*
X34751875Y14928039D01*
X34751875Y14928039D02*
X34799494Y15023277D01*
X34799494Y15023277D02*
X34847113Y15213753D01*
X34847113Y15213753D02*
X34847113Y15356610D01*
X34847113Y15356610D02*
X34799494Y15547086D01*
X34799494Y15547086D02*
X34751875Y15642324D01*
X34751875Y15642324D02*
X34656637Y15737562D01*
X34656637Y15737562D02*
X34513780Y15785181D01*
X34513780Y15785181D02*
X34418542Y15785181D01*
X34418542Y15785181D02*
X34275685Y15737562D01*
X34275685Y15737562D02*
X34228066Y15689943D01*
X33370923Y15451848D02*
X33370923Y14785181D01*
X33609018Y15832800D02*
X33847113Y15118515D01*
X33847113Y15118515D02*
X33228066Y15118515D01*
X61890019Y34050267D02*
X61890019Y34526457D01*
X61890019Y34526457D02*
X60890019Y34526457D01*
X60985257Y33764552D02*
X60937638Y33716933D01*
X60937638Y33716933D02*
X60890019Y33621695D01*
X60890019Y33621695D02*
X60890019Y33383600D01*
X60890019Y33383600D02*
X60937638Y33288362D01*
X60937638Y33288362D02*
X60985257Y33240743D01*
X60985257Y33240743D02*
X61080495Y33193124D01*
X61080495Y33193124D02*
X61175733Y33193124D01*
X61175733Y33193124D02*
X61318590Y33240743D01*
X61318590Y33240743D02*
X61890019Y33812171D01*
X61890019Y33812171D02*
X61890019Y33193124D01*
X12612666Y28754181D02*
X12945999Y29230372D01*
X13184094Y28754181D02*
X13184094Y29754181D01*
X13184094Y29754181D02*
X12803142Y29754181D01*
X12803142Y29754181D02*
X12707904Y29706562D01*
X12707904Y29706562D02*
X12660285Y29658943D01*
X12660285Y29658943D02*
X12612666Y29563705D01*
X12612666Y29563705D02*
X12612666Y29420848D01*
X12612666Y29420848D02*
X12660285Y29325610D01*
X12660285Y29325610D02*
X12707904Y29277991D01*
X12707904Y29277991D02*
X12803142Y29230372D01*
X12803142Y29230372D02*
X13184094Y29230372D01*
X12231713Y29658943D02*
X12184094Y29706562D01*
X12184094Y29706562D02*
X12088856Y29754181D01*
X12088856Y29754181D02*
X11850761Y29754181D01*
X11850761Y29754181D02*
X11755523Y29706562D01*
X11755523Y29706562D02*
X11707904Y29658943D01*
X11707904Y29658943D02*
X11660285Y29563705D01*
X11660285Y29563705D02*
X11660285Y29468467D01*
X11660285Y29468467D02*
X11707904Y29325610D01*
X11707904Y29325610D02*
X12279332Y28754181D01*
X12279332Y28754181D02*
X11660285Y28754181D01*
X12765066Y42699781D02*
X13098399Y43175972D01*
X13336494Y42699781D02*
X13336494Y43699781D01*
X13336494Y43699781D02*
X12955542Y43699781D01*
X12955542Y43699781D02*
X12860304Y43652162D01*
X12860304Y43652162D02*
X12812685Y43604543D01*
X12812685Y43604543D02*
X12765066Y43509305D01*
X12765066Y43509305D02*
X12765066Y43366448D01*
X12765066Y43366448D02*
X12812685Y43271210D01*
X12812685Y43271210D02*
X12860304Y43223591D01*
X12860304Y43223591D02*
X12955542Y43175972D01*
X12955542Y43175972D02*
X13336494Y43175972D01*
X12193637Y43271210D02*
X12288875Y43318829D01*
X12288875Y43318829D02*
X12336494Y43366448D01*
X12336494Y43366448D02*
X12384113Y43461686D01*
X12384113Y43461686D02*
X12384113Y43509305D01*
X12384113Y43509305D02*
X12336494Y43604543D01*
X12336494Y43604543D02*
X12288875Y43652162D01*
X12288875Y43652162D02*
X12193637Y43699781D01*
X12193637Y43699781D02*
X12003161Y43699781D01*
X12003161Y43699781D02*
X11907923Y43652162D01*
X11907923Y43652162D02*
X11860304Y43604543D01*
X11860304Y43604543D02*
X11812685Y43509305D01*
X11812685Y43509305D02*
X11812685Y43461686D01*
X11812685Y43461686D02*
X11860304Y43366448D01*
X11860304Y43366448D02*
X11907923Y43318829D01*
X11907923Y43318829D02*
X12003161Y43271210D01*
X12003161Y43271210D02*
X12193637Y43271210D01*
X12193637Y43271210D02*
X12288875Y43223591D01*
X12288875Y43223591D02*
X12336494Y43175972D01*
X12336494Y43175972D02*
X12384113Y43080734D01*
X12384113Y43080734D02*
X12384113Y42890258D01*
X12384113Y42890258D02*
X12336494Y42795020D01*
X12336494Y42795020D02*
X12288875Y42747400D01*
X12288875Y42747400D02*
X12193637Y42699781D01*
X12193637Y42699781D02*
X12003161Y42699781D01*
X12003161Y42699781D02*
X11907923Y42747400D01*
X11907923Y42747400D02*
X11860304Y42795020D01*
X11860304Y42795020D02*
X11812685Y42890258D01*
X11812685Y42890258D02*
X11812685Y43080734D01*
X11812685Y43080734D02*
X11860304Y43175972D01*
X11860304Y43175972D02*
X11907923Y43223591D01*
X11907923Y43223591D02*
X12003161Y43271210D01*
X51864419Y19000695D02*
X50864419Y19000695D01*
X50864419Y19000695D02*
X50864419Y18762600D01*
X50864419Y18762600D02*
X50912038Y18619743D01*
X50912038Y18619743D02*
X51007276Y18524505D01*
X51007276Y18524505D02*
X51102514Y18476886D01*
X51102514Y18476886D02*
X51292990Y18429267D01*
X51292990Y18429267D02*
X51435847Y18429267D01*
X51435847Y18429267D02*
X51626323Y18476886D01*
X51626323Y18476886D02*
X51721561Y18524505D01*
X51721561Y18524505D02*
X51816800Y18619743D01*
X51816800Y18619743D02*
X51864419Y18762600D01*
X51864419Y18762600D02*
X51864419Y19000695D01*
X50959657Y18048314D02*
X50912038Y18000695D01*
X50912038Y18000695D02*
X50864419Y17905457D01*
X50864419Y17905457D02*
X50864419Y17667362D01*
X50864419Y17667362D02*
X50912038Y17572124D01*
X50912038Y17572124D02*
X50959657Y17524505D01*
X50959657Y17524505D02*
X51054895Y17476886D01*
X51054895Y17476886D02*
X51150133Y17476886D01*
X51150133Y17476886D02*
X51292990Y17524505D01*
X51292990Y17524505D02*
X51864419Y18095933D01*
X51864419Y18095933D02*
X51864419Y17476886D01*
X16656038Y34070143D02*
X16751276Y34117762D01*
X16751276Y34117762D02*
X16846514Y34213000D01*
X16846514Y34213000D02*
X16989371Y34355858D01*
X16989371Y34355858D02*
X17084609Y34403477D01*
X17084609Y34403477D02*
X17179847Y34403477D01*
X17132228Y34165381D02*
X17227466Y34213000D01*
X17227466Y34213000D02*
X17322704Y34308239D01*
X17322704Y34308239D02*
X17370323Y34498715D01*
X17370323Y34498715D02*
X17370323Y34832048D01*
X17370323Y34832048D02*
X17322704Y35022524D01*
X17322704Y35022524D02*
X17227466Y35117762D01*
X17227466Y35117762D02*
X17132228Y35165381D01*
X17132228Y35165381D02*
X16941752Y35165381D01*
X16941752Y35165381D02*
X16846514Y35117762D01*
X16846514Y35117762D02*
X16751276Y35022524D01*
X16751276Y35022524D02*
X16703657Y34832048D01*
X16703657Y34832048D02*
X16703657Y34498715D01*
X16703657Y34498715D02*
X16751276Y34308239D01*
X16751276Y34308239D02*
X16846514Y34213000D01*
X16846514Y34213000D02*
X16941752Y34165381D01*
X16941752Y34165381D02*
X17132228Y34165381D01*
X15751276Y34165381D02*
X16322704Y34165381D01*
X16036990Y34165381D02*
X16036990Y35165381D01*
X16036990Y35165381D02*
X16132228Y35022524D01*
X16132228Y35022524D02*
X16227466Y34927286D01*
X16227466Y34927286D02*
X16322704Y34879667D01*
X29725857Y46282181D02*
X30059190Y46758372D01*
X30297285Y46282181D02*
X30297285Y47282181D01*
X30297285Y47282181D02*
X29916333Y47282181D01*
X29916333Y47282181D02*
X29821095Y47234562D01*
X29821095Y47234562D02*
X29773476Y47186943D01*
X29773476Y47186943D02*
X29725857Y47091705D01*
X29725857Y47091705D02*
X29725857Y46948848D01*
X29725857Y46948848D02*
X29773476Y46853610D01*
X29773476Y46853610D02*
X29821095Y46805991D01*
X29821095Y46805991D02*
X29916333Y46758372D01*
X29916333Y46758372D02*
X30297285Y46758372D01*
X29344904Y47186943D02*
X29297285Y47234562D01*
X29297285Y47234562D02*
X29202047Y47282181D01*
X29202047Y47282181D02*
X28963952Y47282181D01*
X28963952Y47282181D02*
X28868714Y47234562D01*
X28868714Y47234562D02*
X28821095Y47186943D01*
X28821095Y47186943D02*
X28773476Y47091705D01*
X28773476Y47091705D02*
X28773476Y46996467D01*
X28773476Y46996467D02*
X28821095Y46853610D01*
X28821095Y46853610D02*
X29392523Y46282181D01*
X29392523Y46282181D02*
X28773476Y46282181D01*
X27916333Y47282181D02*
X28106809Y47282181D01*
X28106809Y47282181D02*
X28202047Y47234562D01*
X28202047Y47234562D02*
X28249666Y47186943D01*
X28249666Y47186943D02*
X28344904Y47044086D01*
X28344904Y47044086D02*
X28392523Y46853610D01*
X28392523Y46853610D02*
X28392523Y46472658D01*
X28392523Y46472658D02*
X28344904Y46377420D01*
X28344904Y46377420D02*
X28297285Y46329800D01*
X28297285Y46329800D02*
X28202047Y46282181D01*
X28202047Y46282181D02*
X28011571Y46282181D01*
X28011571Y46282181D02*
X27916333Y46329800D01*
X27916333Y46329800D02*
X27868714Y46377420D01*
X27868714Y46377420D02*
X27821095Y46472658D01*
X27821095Y46472658D02*
X27821095Y46710753D01*
X27821095Y46710753D02*
X27868714Y46805991D01*
X27868714Y46805991D02*
X27916333Y46853610D01*
X27916333Y46853610D02*
X28011571Y46901229D01*
X28011571Y46901229D02*
X28202047Y46901229D01*
X28202047Y46901229D02*
X28297285Y46853610D01*
X28297285Y46853610D02*
X28344904Y46805991D01*
X28344904Y46805991D02*
X28392523Y46710753D01*
X70365857Y38375420D02*
X70413476Y38327800D01*
X70413476Y38327800D02*
X70556333Y38280181D01*
X70556333Y38280181D02*
X70651571Y38280181D01*
X70651571Y38280181D02*
X70794428Y38327800D01*
X70794428Y38327800D02*
X70889666Y38423039D01*
X70889666Y38423039D02*
X70937285Y38518277D01*
X70937285Y38518277D02*
X70984904Y38708753D01*
X70984904Y38708753D02*
X70984904Y38851610D01*
X70984904Y38851610D02*
X70937285Y39042086D01*
X70937285Y39042086D02*
X70889666Y39137324D01*
X70889666Y39137324D02*
X70794428Y39232562D01*
X70794428Y39232562D02*
X70651571Y39280181D01*
X70651571Y39280181D02*
X70556333Y39280181D01*
X70556333Y39280181D02*
X70413476Y39232562D01*
X70413476Y39232562D02*
X70365857Y39184943D01*
X69413476Y38280181D02*
X69984904Y38280181D01*
X69699190Y38280181D02*
X69699190Y39280181D01*
X69699190Y39280181D02*
X69794428Y39137324D01*
X69794428Y39137324D02*
X69889666Y39042086D01*
X69889666Y39042086D02*
X69984904Y38994467D01*
X68556333Y38946848D02*
X68556333Y38280181D01*
X68794428Y39327800D02*
X69032523Y38613515D01*
X69032523Y38613515D02*
X68413476Y38613515D01*
X28786057Y15902781D02*
X29119390Y16378972D01*
X29357485Y15902781D02*
X29357485Y16902781D01*
X29357485Y16902781D02*
X28976533Y16902781D01*
X28976533Y16902781D02*
X28881295Y16855162D01*
X28881295Y16855162D02*
X28833676Y16807543D01*
X28833676Y16807543D02*
X28786057Y16712305D01*
X28786057Y16712305D02*
X28786057Y16569448D01*
X28786057Y16569448D02*
X28833676Y16474210D01*
X28833676Y16474210D02*
X28881295Y16426591D01*
X28881295Y16426591D02*
X28976533Y16378972D01*
X28976533Y16378972D02*
X29357485Y16378972D01*
X27833676Y15902781D02*
X28405104Y15902781D01*
X28119390Y15902781D02*
X28119390Y16902781D01*
X28119390Y16902781D02*
X28214628Y16759924D01*
X28214628Y16759924D02*
X28309866Y16664686D01*
X28309866Y16664686D02*
X28405104Y16617067D01*
X27500342Y16902781D02*
X26833676Y16902781D01*
X26833676Y16902781D02*
X27262247Y15902781D01*
X57858819Y17508458D02*
X57382628Y17841791D01*
X57858819Y18079886D02*
X56858819Y18079886D01*
X56858819Y18079886D02*
X56858819Y17698934D01*
X56858819Y17698934D02*
X56906438Y17603696D01*
X56906438Y17603696D02*
X56954057Y17556077D01*
X56954057Y17556077D02*
X57049295Y17508458D01*
X57049295Y17508458D02*
X57192152Y17508458D01*
X57192152Y17508458D02*
X57287390Y17556077D01*
X57287390Y17556077D02*
X57335009Y17603696D01*
X57335009Y17603696D02*
X57382628Y17698934D01*
X57382628Y17698934D02*
X57382628Y18079886D01*
X56954057Y17127505D02*
X56906438Y17079886D01*
X56906438Y17079886D02*
X56858819Y16984648D01*
X56858819Y16984648D02*
X56858819Y16746553D01*
X56858819Y16746553D02*
X56906438Y16651315D01*
X56906438Y16651315D02*
X56954057Y16603696D01*
X56954057Y16603696D02*
X57049295Y16556077D01*
X57049295Y16556077D02*
X57144533Y16556077D01*
X57144533Y16556077D02*
X57287390Y16603696D01*
X57287390Y16603696D02*
X57858819Y17175124D01*
X57858819Y17175124D02*
X57858819Y16556077D01*
X57858819Y16079886D02*
X57858819Y15889410D01*
X57858819Y15889410D02*
X57811200Y15794172D01*
X57811200Y15794172D02*
X57763580Y15746553D01*
X57763580Y15746553D02*
X57620723Y15651315D01*
X57620723Y15651315D02*
X57430247Y15603696D01*
X57430247Y15603696D02*
X57049295Y15603696D01*
X57049295Y15603696D02*
X56954057Y15651315D01*
X56954057Y15651315D02*
X56906438Y15698934D01*
X56906438Y15698934D02*
X56858819Y15794172D01*
X56858819Y15794172D02*
X56858819Y15984648D01*
X56858819Y15984648D02*
X56906438Y16079886D01*
X56906438Y16079886D02*
X56954057Y16127505D01*
X56954057Y16127505D02*
X57049295Y16175124D01*
X57049295Y16175124D02*
X57287390Y16175124D01*
X57287390Y16175124D02*
X57382628Y16127505D01*
X57382628Y16127505D02*
X57430247Y16079886D01*
X57430247Y16079886D02*
X57477866Y15984648D01*
X57477866Y15984648D02*
X57477866Y15794172D01*
X57477866Y15794172D02*
X57430247Y15698934D01*
X57430247Y15698934D02*
X57382628Y15651315D01*
X57382628Y15651315D02*
X57287390Y15603696D01*
X67129819Y53093858D02*
X66653628Y53427191D01*
X67129819Y53665286D02*
X66129819Y53665286D01*
X66129819Y53665286D02*
X66129819Y53284334D01*
X66129819Y53284334D02*
X66177438Y53189096D01*
X66177438Y53189096D02*
X66225057Y53141477D01*
X66225057Y53141477D02*
X66320295Y53093858D01*
X66320295Y53093858D02*
X66463152Y53093858D01*
X66463152Y53093858D02*
X66558390Y53141477D01*
X66558390Y53141477D02*
X66606009Y53189096D01*
X66606009Y53189096D02*
X66653628Y53284334D01*
X66653628Y53284334D02*
X66653628Y53665286D01*
X66225057Y52712905D02*
X66177438Y52665286D01*
X66177438Y52665286D02*
X66129819Y52570048D01*
X66129819Y52570048D02*
X66129819Y52331953D01*
X66129819Y52331953D02*
X66177438Y52236715D01*
X66177438Y52236715D02*
X66225057Y52189096D01*
X66225057Y52189096D02*
X66320295Y52141477D01*
X66320295Y52141477D02*
X66415533Y52141477D01*
X66415533Y52141477D02*
X66558390Y52189096D01*
X66558390Y52189096D02*
X67129819Y52760524D01*
X67129819Y52760524D02*
X67129819Y52141477D01*
X66463152Y51284334D02*
X67129819Y51284334D01*
X66082200Y51522429D02*
X66796485Y51760524D01*
X66796485Y51760524D02*
X66796485Y51141477D01*
X52500419Y35796458D02*
X52024228Y36129791D01*
X52500419Y36367886D02*
X51500419Y36367886D01*
X51500419Y36367886D02*
X51500419Y35986934D01*
X51500419Y35986934D02*
X51548038Y35891696D01*
X51548038Y35891696D02*
X51595657Y35844077D01*
X51595657Y35844077D02*
X51690895Y35796458D01*
X51690895Y35796458D02*
X51833752Y35796458D01*
X51833752Y35796458D02*
X51928990Y35844077D01*
X51928990Y35844077D02*
X51976609Y35891696D01*
X51976609Y35891696D02*
X52024228Y35986934D01*
X52024228Y35986934D02*
X52024228Y36367886D01*
X52500419Y34844077D02*
X52500419Y35415505D01*
X52500419Y35129791D02*
X51500419Y35129791D01*
X51500419Y35129791D02*
X51643276Y35225029D01*
X51643276Y35225029D02*
X51738514Y35320267D01*
X51738514Y35320267D02*
X51786133Y35415505D01*
X52500419Y33891696D02*
X52500419Y34463124D01*
X52500419Y34177410D02*
X51500419Y34177410D01*
X51500419Y34177410D02*
X51643276Y34272648D01*
X51643276Y34272648D02*
X51738514Y34367886D01*
X51738514Y34367886D02*
X51786133Y34463124D01*
X66065304Y31964981D02*
X66065304Y31155458D01*
X66065304Y31155458D02*
X66017685Y31060220D01*
X66017685Y31060220D02*
X65970066Y31012600D01*
X65970066Y31012600D02*
X65874828Y30964981D01*
X65874828Y30964981D02*
X65684352Y30964981D01*
X65684352Y30964981D02*
X65589114Y31012600D01*
X65589114Y31012600D02*
X65541495Y31060220D01*
X65541495Y31060220D02*
X65493876Y31155458D01*
X65493876Y31155458D02*
X65493876Y31964981D01*
X65112923Y31964981D02*
X64493876Y31964981D01*
X64493876Y31964981D02*
X64827209Y31584029D01*
X64827209Y31584029D02*
X64684352Y31584029D01*
X64684352Y31584029D02*
X64589114Y31536410D01*
X64589114Y31536410D02*
X64541495Y31488791D01*
X64541495Y31488791D02*
X64493876Y31393553D01*
X64493876Y31393553D02*
X64493876Y31155458D01*
X64493876Y31155458D02*
X64541495Y31060220D01*
X64541495Y31060220D02*
X64589114Y31012600D01*
X64589114Y31012600D02*
X64684352Y30964981D01*
X64684352Y30964981D02*
X64970066Y30964981D01*
X64970066Y30964981D02*
X65065304Y31012600D01*
X65065304Y31012600D02*
X65112923Y31060220D01*
X63599219Y53246258D02*
X63123028Y53579591D01*
X63599219Y53817686D02*
X62599219Y53817686D01*
X62599219Y53817686D02*
X62599219Y53436734D01*
X62599219Y53436734D02*
X62646838Y53341496D01*
X62646838Y53341496D02*
X62694457Y53293877D01*
X62694457Y53293877D02*
X62789695Y53246258D01*
X62789695Y53246258D02*
X62932552Y53246258D01*
X62932552Y53246258D02*
X63027790Y53293877D01*
X63027790Y53293877D02*
X63075409Y53341496D01*
X63075409Y53341496D02*
X63123028Y53436734D01*
X63123028Y53436734D02*
X63123028Y53817686D01*
X63599219Y52293877D02*
X63599219Y52865305D01*
X63599219Y52579591D02*
X62599219Y52579591D01*
X62599219Y52579591D02*
X62742076Y52674829D01*
X62742076Y52674829D02*
X62837314Y52770067D01*
X62837314Y52770067D02*
X62884933Y52865305D01*
X62932552Y51436734D02*
X63599219Y51436734D01*
X62551600Y51674829D02*
X63265885Y51912924D01*
X63265885Y51912924D02*
X63265885Y51293877D01*
X61482266Y30298220D02*
X61529885Y30250600D01*
X61529885Y30250600D02*
X61672742Y30202981D01*
X61672742Y30202981D02*
X61767980Y30202981D01*
X61767980Y30202981D02*
X61910837Y30250600D01*
X61910837Y30250600D02*
X62006075Y30345839D01*
X62006075Y30345839D02*
X62053694Y30441077D01*
X62053694Y30441077D02*
X62101313Y30631553D01*
X62101313Y30631553D02*
X62101313Y30774410D01*
X62101313Y30774410D02*
X62053694Y30964886D01*
X62053694Y30964886D02*
X62006075Y31060124D01*
X62006075Y31060124D02*
X61910837Y31155362D01*
X61910837Y31155362D02*
X61767980Y31202981D01*
X61767980Y31202981D02*
X61672742Y31202981D01*
X61672742Y31202981D02*
X61529885Y31155362D01*
X61529885Y31155362D02*
X61482266Y31107743D01*
X60577504Y31202981D02*
X61053694Y31202981D01*
X61053694Y31202981D02*
X61101313Y30726791D01*
X61101313Y30726791D02*
X61053694Y30774410D01*
X61053694Y30774410D02*
X60958456Y30822029D01*
X60958456Y30822029D02*
X60720361Y30822029D01*
X60720361Y30822029D02*
X60625123Y30774410D01*
X60625123Y30774410D02*
X60577504Y30726791D01*
X60577504Y30726791D02*
X60529885Y30631553D01*
X60529885Y30631553D02*
X60529885Y30393458D01*
X60529885Y30393458D02*
X60577504Y30298220D01*
X60577504Y30298220D02*
X60625123Y30250600D01*
X60625123Y30250600D02*
X60720361Y30202981D01*
X60720361Y30202981D02*
X60958456Y30202981D01*
X60958456Y30202981D02*
X61053694Y30250600D01*
X61053694Y30250600D02*
X61101313Y30298220D01*
X24093466Y41963181D02*
X24426799Y42439372D01*
X24664894Y41963181D02*
X24664894Y42963181D01*
X24664894Y42963181D02*
X24283942Y42963181D01*
X24283942Y42963181D02*
X24188704Y42915562D01*
X24188704Y42915562D02*
X24141085Y42867943D01*
X24141085Y42867943D02*
X24093466Y42772705D01*
X24093466Y42772705D02*
X24093466Y42629848D01*
X24093466Y42629848D02*
X24141085Y42534610D01*
X24141085Y42534610D02*
X24188704Y42486991D01*
X24188704Y42486991D02*
X24283942Y42439372D01*
X24283942Y42439372D02*
X24664894Y42439372D01*
X23617275Y41963181D02*
X23426799Y41963181D01*
X23426799Y41963181D02*
X23331561Y42010800D01*
X23331561Y42010800D02*
X23283942Y42058420D01*
X23283942Y42058420D02*
X23188704Y42201277D01*
X23188704Y42201277D02*
X23141085Y42391753D01*
X23141085Y42391753D02*
X23141085Y42772705D01*
X23141085Y42772705D02*
X23188704Y42867943D01*
X23188704Y42867943D02*
X23236323Y42915562D01*
X23236323Y42915562D02*
X23331561Y42963181D01*
X23331561Y42963181D02*
X23522037Y42963181D01*
X23522037Y42963181D02*
X23617275Y42915562D01*
X23617275Y42915562D02*
X23664894Y42867943D01*
X23664894Y42867943D02*
X23712513Y42772705D01*
X23712513Y42772705D02*
X23712513Y42534610D01*
X23712513Y42534610D02*
X23664894Y42439372D01*
X23664894Y42439372D02*
X23617275Y42391753D01*
X23617275Y42391753D02*
X23522037Y42344134D01*
X23522037Y42344134D02*
X23331561Y42344134D01*
X23331561Y42344134D02*
X23236323Y42391753D01*
X23236323Y42391753D02*
X23188704Y42439372D01*
X23188704Y42439372D02*
X23141085Y42534610D01*
X48740219Y16829067D02*
X48264028Y17162400D01*
X48740219Y17400495D02*
X47740219Y17400495D01*
X47740219Y17400495D02*
X47740219Y17019543D01*
X47740219Y17019543D02*
X47787838Y16924305D01*
X47787838Y16924305D02*
X47835457Y16876686D01*
X47835457Y16876686D02*
X47930695Y16829067D01*
X47930695Y16829067D02*
X48073552Y16829067D01*
X48073552Y16829067D02*
X48168790Y16876686D01*
X48168790Y16876686D02*
X48216409Y16924305D01*
X48216409Y16924305D02*
X48264028Y17019543D01*
X48264028Y17019543D02*
X48264028Y17400495D01*
X48740219Y15876686D02*
X48740219Y16448114D01*
X48740219Y16162400D02*
X47740219Y16162400D01*
X47740219Y16162400D02*
X47883076Y16257638D01*
X47883076Y16257638D02*
X47978314Y16352876D01*
X47978314Y16352876D02*
X48025933Y16448114D01*
D12*
%TO.C,C9*%
X36710252Y41095600D02*
X36187748Y41095600D01*
X36710252Y39625600D02*
X36187748Y39625600D01*
%TO.C,C8*%
X36710252Y43153000D02*
X36187748Y43153000D01*
X36710252Y41683000D02*
X36187748Y41683000D01*
%TO.C,U2*%
X31491400Y37114000D02*
X31491400Y36539000D01*
X31491400Y27469000D02*
X31491400Y26894000D01*
X31491400Y26894000D02*
X32066400Y26894000D01*
X32066400Y37114000D02*
X31491400Y37114000D01*
X41136400Y26894000D02*
X41711400Y26894000D01*
X41711400Y37114000D02*
X41136400Y37114000D01*
X41711400Y36539000D02*
X41711400Y37114000D01*
X41711400Y26894000D02*
X41711400Y27469000D01*
X41611400Y25914000D02*
X41141400Y26254000D01*
X41611400Y26594000D01*
X41611400Y25914000D01*
G36*
X41611400Y25914000D02*
G01*
X41141400Y26254000D01*
X41611400Y26594000D01*
X41611400Y25914000D01*
G37*
%TO.C,R12*%
X25376136Y26744600D02*
X25830264Y26744600D01*
X25376136Y25274600D02*
X25830264Y25274600D01*
%TO.C,R5*%
X38863600Y23315664D02*
X38863600Y22861536D01*
X40333600Y23315664D02*
X40333600Y22861536D01*
%TO.C,C10*%
X36730000Y23375252D02*
X36730000Y22852748D01*
X38200000Y23375252D02*
X38200000Y22852748D01*
%TO.C,C11*%
X44299200Y32265252D02*
X44299200Y31742748D01*
X45769200Y32265252D02*
X45769200Y31742748D01*
%TO.C,C12*%
X26773200Y31742748D02*
X26773200Y32265252D01*
X28243200Y31742748D02*
X28243200Y32265252D01*
%TO.C,C2*%
X40794000Y23324452D02*
X40794000Y22801948D01*
X42264000Y23324452D02*
X42264000Y22801948D01*
%TO.C,R13*%
X25350736Y29259200D02*
X25804864Y29259200D01*
X25350736Y27789200D02*
X25804864Y27789200D01*
%TO.C,U1*%
X56042800Y34930700D02*
X57092800Y34930700D01*
X56042800Y32610700D02*
X57342800Y32610700D01*
X57732800Y34930700D02*
X57452800Y34930700D01*
X57452800Y35210700D01*
X57732800Y34930700D01*
G36*
X57732800Y34930700D02*
G01*
X57452800Y34930700D01*
X57452800Y35210700D01*
X57732800Y34930700D01*
G37*
%TO.C,C6*%
X59454148Y37590400D02*
X59976652Y37590400D01*
X59454148Y36120400D02*
X59976652Y36120400D01*
%TO.C,J1*%
X40809200Y10223200D02*
X42609200Y10223200D01*
X40809200Y8773200D02*
X40809200Y10223200D01*
X49979200Y10223200D02*
X49979200Y11213200D01*
X50509200Y5953200D02*
X42079200Y5953200D01*
X51779200Y10223200D02*
X49979200Y10223200D01*
X51779200Y8773200D02*
X51779200Y10223200D01*
%TO.C,Q2*%
X15673800Y43012800D02*
X15673800Y42012800D01*
X15673800Y40892800D02*
X15673800Y39892800D01*
X15673800Y39892800D02*
X17193800Y39892800D01*
X17193800Y43012800D02*
X15673800Y43012800D01*
X17193800Y42962800D02*
X17193800Y43012800D01*
X17193800Y41062800D02*
X17193800Y41842800D01*
X17193800Y39892800D02*
X17193800Y39942800D01*
X17973800Y41502800D02*
X17493800Y41502800D01*
X17733800Y41832800D01*
X17973800Y41502800D01*
G36*
X17973800Y41502800D02*
G01*
X17493800Y41502800D01*
X17733800Y41832800D01*
X17973800Y41502800D01*
G37*
%TO.C,C13*%
X68191748Y31596000D02*
X68714252Y31596000D01*
X68191748Y30126000D02*
X68714252Y30126000D01*
%TO.C,R10*%
X56564264Y36777600D02*
X56110136Y36777600D01*
X56564264Y35307600D02*
X56110136Y35307600D01*
%TO.C,C3*%
X30278400Y20022452D02*
X30278400Y19499948D01*
X31748400Y20022452D02*
X31748400Y19499948D01*
%TO.C,R22*%
X66470264Y36879200D02*
X66016136Y36879200D01*
X66470264Y35409200D02*
X66016136Y35409200D01*
%TO.C,L1*%
X52449000Y13684067D02*
X52449000Y13341533D01*
X53469000Y13684067D02*
X53469000Y13341533D01*
%TO.C,C7*%
X56573052Y38708000D02*
X56050548Y38708000D01*
X56573052Y37238000D02*
X56050548Y37238000D01*
%TO.C,J2*%
X15895600Y10223200D02*
X17695600Y10223200D01*
X15895600Y8773200D02*
X15895600Y10223200D01*
X27565600Y10223200D02*
X27565600Y11213200D01*
X28095600Y5953200D02*
X17165600Y5953200D01*
X29365600Y10223200D02*
X27565600Y10223200D01*
X29365600Y8773200D02*
X29365600Y10223200D01*
%TO.C,R7*%
X21055064Y38885800D02*
X20600936Y38885800D01*
X21055064Y37415800D02*
X20600936Y37415800D01*
%TO.C,R6*%
X12901664Y37869800D02*
X12447536Y37869800D01*
X12901664Y36399800D02*
X12447536Y36399800D01*
%TO.C,R21*%
X30253000Y23696664D02*
X30253000Y23242536D01*
X31723000Y23696664D02*
X31723000Y23242536D01*
%TO.C,J6*%
X53266000Y10223200D02*
X55066000Y10223200D01*
X53266000Y8773200D02*
X53266000Y10223200D01*
X63686000Y10223200D02*
X63686000Y11213200D01*
X64216000Y5953200D02*
X54536000Y5953200D01*
X65486000Y10223200D02*
X63686000Y10223200D01*
X65486000Y8773200D02*
X65486000Y10223200D01*
%TO.C,J4*%
X30847400Y10223200D02*
X32647400Y10223200D01*
X30847400Y8773200D02*
X30847400Y10223200D01*
X37517400Y10223200D02*
X37517400Y11213200D01*
X38047400Y5953200D02*
X32117400Y5953200D01*
X39317400Y10223200D02*
X37517400Y10223200D01*
X39317400Y8773200D02*
X39317400Y10223200D01*
%TO.C,D1*%
X49336400Y15179200D02*
X50536400Y15179200D01*
X49336400Y13219200D02*
X49336400Y15179200D01*
X50536400Y13219200D02*
X50536400Y15179200D01*
D11*
%TO.C,SW2*%
X7282000Y24972800D02*
X9482000Y24972800D01*
X8382000Y24972800D02*
X8382000Y24472800D01*
X8382000Y24472800D02*
X8982000Y22972800D01*
X8382000Y23072800D02*
X8382000Y22372800D01*
X9482000Y22372800D02*
X7282000Y22372800D01*
D12*
%TO.C,R28*%
X58421600Y13311136D02*
X58421600Y13765264D01*
X59891600Y13311136D02*
X59891600Y13765264D01*
D11*
%TO.C,SW1*%
X7282000Y29621000D02*
X9482000Y29621000D01*
X8382000Y29621000D02*
X8382000Y29121000D01*
X8382000Y29121000D02*
X8982000Y27621000D01*
X8382000Y27721000D02*
X8382000Y27021000D01*
X9482000Y27021000D02*
X7282000Y27021000D01*
D12*
%TO.C,R20*%
X27586000Y19708864D02*
X27586000Y19254736D01*
X29056000Y19708864D02*
X29056000Y19254736D01*
%TO.C,R4*%
X45416800Y14146264D02*
X45416800Y13692136D01*
X46886800Y14146264D02*
X46886800Y13692136D01*
%TO.C,R18*%
X25235700Y14025364D02*
X25235700Y13571236D01*
X26705700Y14025364D02*
X26705700Y13571236D01*
%TO.C,R15*%
X12472936Y33221600D02*
X12927064Y33221600D01*
X12472936Y31751600D02*
X12927064Y31751600D01*
%TO.C,TP2*%
X31992800Y40284400D02*
G75*
G02*
X30592800Y40284400I-700000J0D01*
G01*
X30592800Y40284400D02*
G75*
G02*
X31992800Y40284400I700000J0D01*
G01*
%TO.C,R19*%
X23343400Y14025364D02*
X23343400Y13571236D01*
X24813400Y14025364D02*
X24813400Y13571236D01*
%TO.C,TP1*%
X29402000Y36957000D02*
G75*
G02*
X28002000Y36957000I-700000J0D01*
G01*
X28002000Y36957000D02*
G75*
G02*
X29402000Y36957000I700000J0D01*
G01*
%TO.C,R23*%
X62790400Y35634664D02*
X62790400Y35180536D01*
X64260400Y35634664D02*
X64260400Y35180536D01*
%TO.C,Y1*%
X36174800Y21475800D02*
X36174800Y18055800D01*
X36174800Y18055800D02*
X32054800Y18055800D01*
%TO.C,JP1*%
X41018000Y13584200D02*
X41018000Y12984200D01*
X41718000Y12284200D02*
X43118000Y12284200D01*
X43118000Y14284200D02*
X41718000Y14284200D01*
X43818000Y12984200D02*
X43818000Y13584200D01*
X41018000Y13584200D02*
G75*
G02*
X41718000Y14284200I699999J1D01*
G01*
X41718000Y12284200D02*
G75*
G02*
X41018000Y12984200I-1J699999D01*
G01*
X43118000Y14284200D02*
G75*
G02*
X43818000Y13584200I0J-700000D01*
G01*
X43818000Y12984200D02*
G75*
G02*
X43118000Y12284200I-700000J0D01*
G01*
%TO.C,C15*%
X66479052Y38809600D02*
X65956548Y38809600D01*
X66479052Y37339600D02*
X65956548Y37339600D01*
%TO.C,C1*%
X50665748Y17016400D02*
X51188252Y17016400D01*
X50665748Y15546400D02*
X51188252Y15546400D01*
%TO.C,R3*%
X12647664Y23696600D02*
X12193536Y23696600D01*
X12647664Y22226600D02*
X12193536Y22226600D01*
%TO.C,R25*%
X62282400Y13311136D02*
X62282400Y13765264D01*
X63752400Y13311136D02*
X63752400Y13765264D01*
%TO.C,L3*%
X68181200Y33723948D02*
X68181200Y34246452D01*
X70401200Y33723948D02*
X70401200Y34246452D01*
%TO.C,R27*%
X60352000Y13311136D02*
X60352000Y13765264D01*
X61822000Y13311136D02*
X61822000Y13765264D01*
%TO.C,R30*%
X54560800Y13311136D02*
X54560800Y13765264D01*
X56030800Y13311136D02*
X56030800Y13765264D01*
%TO.C,C4*%
X34398852Y17753000D02*
X33876348Y17753000D01*
X34398852Y16283000D02*
X33876348Y16283000D01*
%TO.C,L2*%
X58275200Y33622348D02*
X58275200Y34144852D01*
X60495200Y33622348D02*
X60495200Y34144852D01*
%TO.C,R2*%
X12673064Y28294000D02*
X12218936Y28294000D01*
X12673064Y26824000D02*
X12218936Y26824000D01*
%TO.C,R8*%
X12723864Y42238600D02*
X12269736Y42238600D01*
X12723864Y40768600D02*
X12269736Y40768600D01*
%TO.C,D2*%
X50809600Y15204600D02*
X52009600Y15204600D01*
X50809600Y13244600D02*
X50809600Y15204600D01*
X52009600Y13244600D02*
X52009600Y15204600D01*
%TO.C,Q1*%
X15800800Y38796400D02*
X15800800Y37796400D01*
X15800800Y36676400D02*
X15800800Y35676400D01*
X15800800Y35676400D02*
X17320800Y35676400D01*
X17320800Y38796400D02*
X15800800Y38796400D01*
X17320800Y38746400D02*
X17320800Y38796400D01*
X17320800Y36846400D02*
X17320800Y37626400D01*
X17320800Y35676400D02*
X17320800Y35726400D01*
X18100800Y37286400D02*
X17620800Y37286400D01*
X17860800Y37616400D01*
X18100800Y37286400D01*
G36*
X18100800Y37286400D02*
G01*
X17620800Y37286400D01*
X17860800Y37616400D01*
X18100800Y37286400D01*
G37*
%TO.C,R26*%
X28855936Y49122000D02*
X29310064Y49122000D01*
X28855936Y47652000D02*
X29310064Y47652000D01*
%TO.C,C14*%
X69360148Y37641200D02*
X69882652Y37641200D01*
X69360148Y36171200D02*
X69882652Y36171200D01*
%TO.C,R17*%
X27128000Y14023464D02*
X27128000Y13569336D01*
X28598000Y14023464D02*
X28598000Y13569336D01*
D13*
%TO.C,G\u002A\u002A\u002A*%
G36*
X52663728Y26941390D02*
G01*
X52672621Y26921221D01*
X52684790Y26888361D01*
X52698987Y26845937D01*
X52735373Y26732400D01*
X52662149Y26732400D01*
X52588924Y26732400D01*
X52622433Y26831904D01*
X52632689Y26862552D01*
X52645458Y26901318D01*
X52654824Y26930507D01*
X52659272Y26945441D01*
X52659360Y26945739D01*
X52663728Y26941390D01*
G37*
G36*
X52137600Y26793771D02*
G01*
X52137600Y26602401D01*
X52090100Y26602456D01*
X52086245Y26602478D01*
X52024385Y26608668D01*
X51976265Y26626644D01*
X51938844Y26657512D01*
X51922828Y26678670D01*
X51899431Y26728876D01*
X51889693Y26783216D01*
X51893090Y26837525D01*
X51909094Y26887642D01*
X51937183Y26929403D01*
X51976831Y26958645D01*
X51996935Y26965932D01*
X52034288Y26974636D01*
X52074331Y26980061D01*
X52137600Y26985139D01*
X52137600Y26793771D01*
G37*
G36*
X54832603Y28371471D02*
G01*
X54962523Y28230799D01*
X55142859Y28011376D01*
X55306451Y27781412D01*
X55452954Y27541591D01*
X55582025Y27292596D01*
X55592916Y27267400D01*
X55693320Y27035109D01*
X55786493Y26769815D01*
X55861202Y26497395D01*
X55917102Y26218533D01*
X55926707Y26158848D01*
X55942036Y26054505D01*
X55953519Y25959652D01*
X55961628Y25868402D01*
X55966841Y25774869D01*
X55969516Y25677400D01*
X55969632Y25673164D01*
X55970477Y25557400D01*
X55969967Y25464986D01*
X55967426Y25355394D01*
X55962362Y25254915D01*
X55954345Y25157388D01*
X55942943Y25056652D01*
X55940973Y25042400D01*
X55927725Y24946545D01*
X55916431Y24874722D01*
X55860840Y24601242D01*
X55786473Y24333232D01*
X55701311Y24092496D01*
X55693932Y24071634D01*
X55583819Y23817384D01*
X55456736Y23571426D01*
X55313286Y23334697D01*
X55154071Y23108140D01*
X55014784Y22936049D01*
X54979693Y22892693D01*
X54790755Y22689296D01*
X54587859Y22498888D01*
X54371606Y22322410D01*
X54142601Y22160802D01*
X53937933Y22034812D01*
X53694071Y21904745D01*
X53444414Y21792977D01*
X53188058Y21699219D01*
X52924102Y21623181D01*
X52651643Y21564573D01*
X52369776Y21523105D01*
X52077600Y21498489D01*
X52038161Y21497237D01*
X51978872Y21496958D01*
X51908312Y21497758D01*
X51831085Y21499507D01*
X51751799Y21502075D01*
X51675053Y21505334D01*
X51605452Y21509154D01*
X51547600Y21513403D01*
X51434348Y21525013D01*
X51159601Y21567209D01*
X50887917Y21628732D01*
X50620530Y21709135D01*
X50358676Y21807973D01*
X50103590Y21924799D01*
X49856506Y22059167D01*
X49618658Y22210630D01*
X49590150Y22230387D01*
X49365420Y22399600D01*
X49154052Y22583174D01*
X48956604Y22780199D01*
X48822396Y22933917D01*
X49827600Y22933917D01*
X49834656Y22925939D01*
X49855163Y22907709D01*
X49886644Y22881383D01*
X49926618Y22849036D01*
X49972600Y22812743D01*
X50017555Y22777551D01*
X50057623Y22745953D01*
X50089299Y22720723D01*
X50110114Y22703830D01*
X50117600Y22697236D01*
X50115309Y22688550D01*
X50108308Y22663509D01*
X50097458Y22625205D01*
X50083631Y22576719D01*
X50067700Y22521131D01*
X50053130Y22469892D01*
X50038990Y22419034D01*
X50027778Y22377457D01*
X50020385Y22348465D01*
X50017700Y22335369D01*
X50017773Y22335045D01*
X50026877Y22337803D01*
X50049479Y22350572D01*
X50083107Y22371796D01*
X50125290Y22399921D01*
X50173557Y22433392D01*
X50329515Y22543447D01*
X50356057Y22526487D01*
X50357777Y22525377D01*
X50377899Y22511876D01*
X50409758Y22490032D01*
X50449333Y22462616D01*
X50492600Y22432400D01*
X50498468Y22428289D01*
X50541880Y22398016D01*
X50581392Y22370702D01*
X50612854Y22349199D01*
X50632119Y22336364D01*
X50637225Y22333100D01*
X50653786Y22323311D01*
X50658193Y22324460D01*
X50654297Y22336584D01*
X50649642Y22350089D01*
X50640180Y22379722D01*
X50627634Y22420239D01*
X50613124Y22467890D01*
X50601239Y22507400D01*
X51406102Y22507400D01*
X51556516Y22389847D01*
X51557869Y22388787D01*
X51605033Y22351097D01*
X51645384Y22317324D01*
X51676638Y22289501D01*
X51696505Y22269664D01*
X51702699Y22259846D01*
X51701380Y22255640D01*
X51695041Y22234307D01*
X51684788Y22199187D01*
X51671699Y22153982D01*
X51656853Y22102401D01*
X51650447Y22080092D01*
X51635559Y22028307D01*
X51622517Y21983039D01*
X51612544Y21948525D01*
X51606859Y21929000D01*
X51605117Y21922758D01*
X51603349Y21906854D01*
X51610893Y21905362D01*
X51621122Y21911437D01*
X51645309Y21927481D01*
X51680313Y21951451D01*
X51723293Y21981399D01*
X51771406Y22015378D01*
X51919507Y22120630D01*
X52066054Y22018412D01*
X52080146Y22008582D01*
X52133975Y21971052D01*
X52173905Y21943391D01*
X52202000Y21924343D01*
X52220330Y21912651D01*
X52230963Y21907058D01*
X52235965Y21906309D01*
X52237404Y21909145D01*
X52237348Y21914310D01*
X52234951Y21925620D01*
X52227433Y21953364D01*
X52215730Y21993888D01*
X52200804Y22043877D01*
X52183610Y22100020D01*
X52130124Y22272640D01*
X52236362Y22355303D01*
X52239691Y22357891D01*
X52283477Y22391682D01*
X52325339Y22423566D01*
X52360677Y22450060D01*
X52384887Y22467683D01*
X52400441Y22479131D01*
X52419753Y22495366D01*
X52427387Y22504900D01*
X52423670Y22507006D01*
X52404091Y22510033D01*
X52371476Y22512331D01*
X52330100Y22513520D01*
X52318812Y22513681D01*
X52258932Y22515261D01*
X52194936Y22517865D01*
X52138882Y22521021D01*
X52045163Y22527400D01*
X52027964Y22572400D01*
X52018606Y22597299D01*
X52003875Y22637089D01*
X51986345Y22684832D01*
X51968092Y22734900D01*
X51966379Y22739603D01*
X51949812Y22783581D01*
X51935356Y22819427D01*
X51924511Y22843560D01*
X51918781Y22852400D01*
X51914813Y22846494D01*
X51904751Y22824585D01*
X51890155Y22789374D01*
X51872277Y22743901D01*
X51852372Y22691208D01*
X51836227Y22648504D01*
X51817337Y22600739D01*
X51801217Y22562399D01*
X51789196Y22536617D01*
X51782601Y22526526D01*
X51770987Y22525105D01*
X51742409Y22523030D01*
X51700374Y22520559D01*
X51648236Y22517891D01*
X51589351Y22515218D01*
X51406102Y22507400D01*
X50601239Y22507400D01*
X50597773Y22518924D01*
X50582699Y22569592D01*
X50569024Y22616145D01*
X50557869Y22654831D01*
X50550354Y22681901D01*
X50547600Y22693607D01*
X50554543Y22701554D01*
X50575006Y22719718D01*
X50606501Y22745914D01*
X50646532Y22778069D01*
X50692600Y22814105D01*
X50736865Y22848696D01*
X50777191Y22881001D01*
X50809087Y22907413D01*
X50830056Y22925859D01*
X50836949Y22933545D01*
X52997600Y22933545D01*
X52999240Y22930878D01*
X53013151Y22917367D01*
X53038953Y22895218D01*
X53073863Y22866779D01*
X53115100Y22834397D01*
X53130715Y22822327D01*
X53174089Y22788669D01*
X53212796Y22758453D01*
X53243108Y22734598D01*
X53261296Y22720019D01*
X53289991Y22696377D01*
X53238796Y22516598D01*
X53238764Y22516487D01*
X53235487Y22504900D01*
X53222636Y22459467D01*
X53208597Y22409098D01*
X53197505Y22368522D01*
X53190220Y22340883D01*
X53187600Y22329322D01*
X53190382Y22329308D01*
X53205886Y22337474D01*
X53231955Y22354023D01*
X53265100Y22376817D01*
X53275319Y22384058D01*
X53323883Y22418275D01*
X53376757Y22455298D01*
X53424186Y22488290D01*
X53505772Y22544769D01*
X53654186Y22440593D01*
X53668363Y22430642D01*
X53723339Y22392082D01*
X53764321Y22363507D01*
X53793264Y22343694D01*
X53812124Y22331420D01*
X53822856Y22325462D01*
X53827415Y22324598D01*
X53827757Y22327606D01*
X53825836Y22333260D01*
X53821966Y22345138D01*
X53813098Y22373452D01*
X53800392Y22414523D01*
X53784881Y22465015D01*
X53767597Y22521593D01*
X53714520Y22695784D01*
X53739710Y22716592D01*
X53754044Y22728169D01*
X53782613Y22750647D01*
X53813750Y22774665D01*
X53842746Y22796836D01*
X53902637Y22843153D01*
X53947935Y22879191D01*
X53979769Y22905992D01*
X53999273Y22924597D01*
X54007575Y22936049D01*
X54005808Y22941387D01*
X53995100Y22941654D01*
X53985106Y22941258D01*
X53957568Y22940948D01*
X53916433Y22940832D01*
X53865214Y22940919D01*
X53807418Y22941216D01*
X53632235Y22942400D01*
X53573667Y23104900D01*
X53557926Y23148122D01*
X53539719Y23196923D01*
X53524412Y23236623D01*
X53513265Y23263970D01*
X53507535Y23275715D01*
X53506235Y23276163D01*
X53498059Y23266997D01*
X53486018Y23243889D01*
X53472222Y23210715D01*
X53466656Y23196037D01*
X53448271Y23147773D01*
X53427508Y23093497D01*
X53407881Y23042400D01*
X53371291Y22947400D01*
X53184446Y22944680D01*
X53183073Y22944660D01*
X53124562Y22943363D01*
X53073662Y22941417D01*
X53033470Y22939010D01*
X53007084Y22936323D01*
X53000078Y22934271D01*
X52997600Y22933545D01*
X50836949Y22933545D01*
X50837600Y22934271D01*
X50837584Y22934377D01*
X50827362Y22936910D01*
X50800350Y22939112D01*
X50759635Y22940850D01*
X50708305Y22941991D01*
X50649442Y22942400D01*
X50461283Y22942400D01*
X50398286Y23112911D01*
X50378702Y23164907D01*
X50360413Y23211449D01*
X50345354Y23247660D01*
X50334704Y23270711D01*
X50329640Y23277773D01*
X50325823Y23270200D01*
X50315803Y23246435D01*
X50301070Y23209672D01*
X50282885Y23163064D01*
X50262509Y23109762D01*
X50201028Y22947400D01*
X50014314Y22944680D01*
X50013050Y22944661D01*
X49954550Y22943384D01*
X49903657Y22941492D01*
X49863469Y22939165D01*
X49837084Y22936580D01*
X49827600Y22933917D01*
X48822396Y22933917D01*
X48773637Y22989764D01*
X48605712Y23210957D01*
X48453389Y23442866D01*
X48317228Y23684581D01*
X48197790Y23935190D01*
X48134998Y24094138D01*
X48667600Y24094138D01*
X48674652Y24086096D01*
X48695156Y24067807D01*
X48726639Y24041431D01*
X48766615Y24009050D01*
X48812600Y23972743D01*
X48857641Y23937541D01*
X48897655Y23906150D01*
X48929271Y23881219D01*
X48950028Y23864691D01*
X48957463Y23858506D01*
X48957433Y23858384D01*
X48954220Y23847243D01*
X48946315Y23820145D01*
X48934582Y23780041D01*
X48919883Y23729880D01*
X48903082Y23672616D01*
X48901432Y23666991D01*
X48884931Y23610185D01*
X48870827Y23560663D01*
X48859944Y23521397D01*
X48853111Y23495358D01*
X48851148Y23485518D01*
X48851215Y23485495D01*
X48860514Y23490861D01*
X48883394Y23506014D01*
X48917306Y23529210D01*
X48959701Y23558707D01*
X49008030Y23592765D01*
X49010047Y23594194D01*
X49058595Y23628329D01*
X49101497Y23658011D01*
X49136099Y23681443D01*
X49159747Y23696825D01*
X49169788Y23702360D01*
X49179434Y23697180D01*
X49202837Y23682217D01*
X49237237Y23659272D01*
X49279927Y23630148D01*
X49328205Y23596651D01*
X49375689Y23563919D01*
X49418145Y23535567D01*
X49452280Y23513738D01*
X49475440Y23500130D01*
X49484971Y23496438D01*
X49485088Y23496738D01*
X49483002Y23509067D01*
X49476248Y23536390D01*
X49465889Y23575026D01*
X49452991Y23621293D01*
X49438617Y23671511D01*
X49423831Y23721999D01*
X49409699Y23769076D01*
X49397284Y23809061D01*
X49387650Y23838275D01*
X49381862Y23853035D01*
X49381836Y23853106D01*
X49388897Y23861029D01*
X49409435Y23878958D01*
X49441048Y23904919D01*
X49481330Y23936935D01*
X49527881Y23973035D01*
X49529007Y23973900D01*
X49575722Y24010104D01*
X49616387Y24042326D01*
X49648525Y24068545D01*
X49669661Y24086743D01*
X49677318Y24094899D01*
X49669618Y24097089D01*
X49644883Y24099213D01*
X49606175Y24100895D01*
X49556664Y24102002D01*
X49499512Y24102400D01*
X49450020Y24102615D01*
X49389788Y24103831D01*
X49346756Y24106211D01*
X49319247Y24109865D01*
X49305581Y24114900D01*
X49300071Y24122560D01*
X49287691Y24147133D01*
X49271248Y24184733D01*
X49252218Y24231934D01*
X49232079Y24285310D01*
X49216850Y24326012D01*
X49198782Y24371549D01*
X49183545Y24406868D01*
X49172403Y24429084D01*
X49166612Y24435310D01*
X49163060Y24428761D01*
X49153231Y24406409D01*
X49139072Y24372182D01*
X49122140Y24330040D01*
X49103985Y24283940D01*
X49086167Y24237841D01*
X49070239Y24195702D01*
X49057756Y24161480D01*
X49050273Y24139133D01*
X49048543Y24134407D01*
X49039699Y24122892D01*
X49023254Y24114404D01*
X48996731Y24108528D01*
X48957656Y24104846D01*
X48903555Y24102943D01*
X48831950Y24102400D01*
X48792368Y24102157D01*
X48742735Y24101068D01*
X48703195Y24099258D01*
X48677050Y24096893D01*
X48667600Y24094138D01*
X48134998Y24094138D01*
X48095634Y24193783D01*
X48011321Y24459447D01*
X47945411Y24731272D01*
X47898465Y25008347D01*
X47872402Y25264186D01*
X47862256Y25547235D01*
X47866568Y25676930D01*
X48232601Y25676930D01*
X48272839Y25647165D01*
X48297820Y25628506D01*
X48341985Y25594820D01*
X48387036Y25559737D01*
X48430173Y25525511D01*
X48468598Y25494393D01*
X48499511Y25468636D01*
X48520111Y25450492D01*
X48527600Y25442214D01*
X48525361Y25432290D01*
X48518364Y25405959D01*
X48507478Y25366550D01*
X48493583Y25317258D01*
X48477563Y25261276D01*
X48462888Y25209610D01*
X48449146Y25159621D01*
X48438537Y25119224D01*
X48431898Y25091617D01*
X48430068Y25080000D01*
X48430151Y25079867D01*
X48439569Y25083670D01*
X48462466Y25097481D01*
X48496306Y25119642D01*
X48538554Y25148496D01*
X48586676Y25182387D01*
X48589074Y25184099D01*
X48637141Y25218297D01*
X48679231Y25248023D01*
X48712771Y25271480D01*
X48735197Y25286871D01*
X48743940Y25292400D01*
X48744037Y25292378D01*
X48753741Y25286213D01*
X48777015Y25270353D01*
X48811295Y25246577D01*
X48854013Y25216666D01*
X48902601Y25182400D01*
X48905456Y25180381D01*
X48953985Y25146273D01*
X48996714Y25116634D01*
X49031023Y25093251D01*
X49054293Y25077911D01*
X49063901Y25072400D01*
X49065974Y25073833D01*
X49064613Y25085761D01*
X49060912Y25097034D01*
X49052259Y25124863D01*
X49039827Y25165536D01*
X49024635Y25215716D01*
X49007701Y25272062D01*
X48990428Y25330556D01*
X48976904Y25378924D01*
X48968561Y25413198D01*
X48964862Y25435954D01*
X48965273Y25449767D01*
X48969259Y25457212D01*
X48976741Y25463463D01*
X48990738Y25474638D01*
X50097600Y25474638D01*
X50097737Y25337886D01*
X50098163Y25204404D01*
X50098864Y25082528D01*
X50099825Y24973456D01*
X50101031Y24878388D01*
X50102465Y24798524D01*
X50104114Y24735061D01*
X50105961Y24689199D01*
X50107991Y24662138D01*
X50126950Y24550482D01*
X50165548Y24411969D01*
X50218800Y24283230D01*
X50226494Y24267757D01*
X50253068Y24218271D01*
X50279244Y24178252D01*
X50310253Y24140359D01*
X50351327Y24097251D01*
X50353777Y24094900D01*
X50383577Y24066306D01*
X50472274Y23995971D01*
X50569040Y23940395D01*
X50676955Y23897991D01*
X50799106Y23867178D01*
X50800934Y23866824D01*
X50852007Y23859405D01*
X50916586Y23853480D01*
X50989116Y23849230D01*
X51064038Y23846837D01*
X51135798Y23846477D01*
X51198837Y23848336D01*
X51247600Y23852592D01*
X51251562Y23853147D01*
X51390251Y23880573D01*
X51514366Y23921637D01*
X51624151Y23976550D01*
X51719849Y24045516D01*
X51801702Y24128745D01*
X51869953Y24226443D01*
X51911942Y24312401D01*
X52347600Y24312401D01*
X52347600Y24097401D01*
X52347600Y23882400D01*
X53042600Y23882400D01*
X53737600Y23882400D01*
X53737600Y24085749D01*
X54175191Y24085749D01*
X54188798Y24068871D01*
X54218020Y24043754D01*
X54262679Y24008769D01*
X54322600Y23962283D01*
X54330521Y23956072D01*
X54384295Y23912647D01*
X54421755Y23879739D01*
X54443295Y23856981D01*
X54449302Y23844011D01*
X54446552Y23833134D01*
X54438873Y23805230D01*
X54427357Y23764471D01*
X54412989Y23714332D01*
X54396750Y23658286D01*
X54382889Y23610232D01*
X54369145Y23561498D01*
X54358525Y23522597D01*
X54351877Y23496643D01*
X54350048Y23486754D01*
X54350107Y23486729D01*
X54359368Y23491964D01*
X54382232Y23506986D01*
X54416137Y23530056D01*
X54458525Y23559429D01*
X54506834Y23593368D01*
X54508437Y23594501D01*
X54557002Y23628552D01*
X54599951Y23658165D01*
X54634620Y23681542D01*
X54658345Y23696886D01*
X54668461Y23702400D01*
X54678225Y23697148D01*
X54701704Y23682085D01*
X54736144Y23659018D01*
X54778845Y23629757D01*
X54827105Y23596112D01*
X54874755Y23563085D01*
X54917124Y23534598D01*
X54951162Y23512642D01*
X54974227Y23498922D01*
X54983675Y23495141D01*
X54983307Y23502323D01*
X54978108Y23525990D01*
X54968422Y23562961D01*
X54955100Y23610014D01*
X54938996Y23663931D01*
X54926296Y23705651D01*
X54910974Y23756576D01*
X54898423Y23798974D01*
X54889684Y23829315D01*
X54885800Y23844074D01*
X54886158Y23847326D01*
X54897294Y23863205D01*
X54923786Y23888955D01*
X54966066Y23924977D01*
X55024569Y23971669D01*
X55066059Y24004307D01*
X55107181Y24037149D01*
X55140420Y24064234D01*
X55163128Y24083403D01*
X55172659Y24092496D01*
X55171526Y24094508D01*
X55154650Y24097903D01*
X55118864Y24100375D01*
X55064882Y24101887D01*
X54993421Y24102400D01*
X54972272Y24102404D01*
X54912490Y24102562D01*
X54868973Y24103196D01*
X54838836Y24104630D01*
X54819195Y24107192D01*
X54807166Y24111207D01*
X54799863Y24117001D01*
X54794403Y24124900D01*
X54790949Y24131610D01*
X54779987Y24156853D01*
X54764649Y24195062D01*
X54746468Y24242367D01*
X54726978Y24294900D01*
X54715639Y24325678D01*
X54698080Y24371963D01*
X54683394Y24408970D01*
X54672863Y24433512D01*
X54667765Y24442400D01*
X54663187Y24434531D01*
X54652752Y24410695D01*
X54637759Y24373816D01*
X54619409Y24326849D01*
X54598902Y24272753D01*
X54579528Y24221767D01*
X54560879Y24174418D01*
X54545438Y24137037D01*
X54534420Y24112563D01*
X54529043Y24103937D01*
X54517968Y24104136D01*
X54490025Y24104199D01*
X54448521Y24104123D01*
X54396718Y24103917D01*
X54337878Y24103585D01*
X54280430Y24103503D01*
X54229817Y24103266D01*
X54195524Y24101314D01*
X54177374Y24096020D01*
X54175191Y24085749D01*
X53737600Y24085749D01*
X53737600Y25042400D01*
X53737600Y25679251D01*
X54589746Y25679251D01*
X54590086Y25676319D01*
X54592569Y25672451D01*
X54596732Y25668139D01*
X54614679Y25652659D01*
X54643956Y25628763D01*
X54681715Y25598757D01*
X54725112Y25564951D01*
X54751468Y25544608D01*
X54792852Y25512654D01*
X54827472Y25485912D01*
X54852305Y25466715D01*
X54864328Y25457400D01*
X54867051Y25453506D01*
X54868333Y25441198D01*
X54865460Y25419301D01*
X54857956Y25385448D01*
X54845346Y25337270D01*
X54827153Y25272400D01*
X54812405Y25219843D01*
X54798736Y25169111D01*
X54788205Y25127768D01*
X54781642Y25099082D01*
X54779878Y25086319D01*
X54783811Y25086204D01*
X54801385Y25094756D01*
X54830494Y25112365D01*
X54868377Y25137329D01*
X54912275Y25167947D01*
X54937547Y25185955D01*
X54982321Y25217562D01*
X55021388Y25244771D01*
X55051241Y25265151D01*
X55068375Y25276268D01*
X55072981Y25278914D01*
X55082277Y25282740D01*
X55092697Y25282867D01*
X55106772Y25277984D01*
X55127036Y25266780D01*
X55156021Y25247945D01*
X55196260Y25220168D01*
X55250285Y25182139D01*
X55253080Y25180168D01*
X55301619Y25146129D01*
X55344336Y25116548D01*
X55378613Y25093211D01*
X55401830Y25077900D01*
X55411371Y25072400D01*
X55413270Y25073525D01*
X55412354Y25084900D01*
X55408641Y25095681D01*
X55399355Y25124743D01*
X55386981Y25164902D01*
X55372633Y25212380D01*
X55357429Y25263399D01*
X55342484Y25314180D01*
X55328919Y25360946D01*
X55317842Y25399918D01*
X55310375Y25427318D01*
X55307633Y25439369D01*
X55314891Y25448679D01*
X55335686Y25468009D01*
X55367525Y25495152D01*
X55407912Y25527981D01*
X55454351Y25564369D01*
X55601101Y25677400D01*
X55551851Y25684024D01*
X55547609Y25684541D01*
X55515823Y25687019D01*
X55470527Y25689151D01*
X55417131Y25690723D01*
X55361048Y25691524D01*
X55219496Y25692400D01*
X55156981Y25862501D01*
X55137667Y25914063D01*
X55119480Y25960618D01*
X55104503Y25996853D01*
X55093912Y26019931D01*
X55088881Y26027015D01*
X55085128Y26019548D01*
X55075175Y25995882D01*
X55060513Y25959200D01*
X55042402Y25912658D01*
X55022099Y25859415D01*
X54960903Y25697400D01*
X54786752Y25691119D01*
X54771426Y25690567D01*
X54706887Y25688238D01*
X54659355Y25686405D01*
X54626352Y25684827D01*
X54605402Y25683268D01*
X54594025Y25681489D01*
X54589746Y25679251D01*
X53737600Y25679251D01*
X53737600Y26202400D01*
X53067600Y26202400D01*
X52397600Y26202400D01*
X52397600Y26197400D01*
X52397600Y25987400D01*
X52397600Y25772400D01*
X52802600Y25772400D01*
X53207600Y25772400D01*
X53207600Y25517400D01*
X53207600Y25262400D01*
X52832600Y25262400D01*
X52457600Y25262400D01*
X52457600Y25047400D01*
X52457600Y24832400D01*
X52832600Y24832400D01*
X53207600Y24832400D01*
X53207600Y24572400D01*
X53207600Y24312400D01*
X52777600Y24312400D01*
X52347600Y24312401D01*
X51911942Y24312401D01*
X51924845Y24338815D01*
X51966621Y24466072D01*
X51973189Y24491578D01*
X51980675Y24522662D01*
X51987150Y24553280D01*
X51992688Y24585006D01*
X51997362Y24619415D01*
X52001242Y24658081D01*
X52004405Y24702579D01*
X52006922Y24754481D01*
X52008867Y24815364D01*
X52010312Y24886802D01*
X52011331Y24970367D01*
X52011996Y25067636D01*
X52012380Y25180181D01*
X52012558Y25309577D01*
X52012600Y25457400D01*
X52012600Y26197400D01*
X51747600Y26197400D01*
X51482600Y26197399D01*
X51477014Y25432400D01*
X51475839Y25283727D01*
X51474524Y25144763D01*
X51473123Y25024174D01*
X51471615Y24921122D01*
X51469983Y24834770D01*
X51468208Y24764283D01*
X51466272Y24708824D01*
X51464157Y24667556D01*
X51461845Y24639640D01*
X51459316Y24624245D01*
X51457015Y24616240D01*
X51423074Y24527168D01*
X51378165Y24451806D01*
X51323454Y24391770D01*
X51260112Y24348673D01*
X51203660Y24326173D01*
X51122796Y24308825D01*
X51036730Y24304014D01*
X50951440Y24311982D01*
X50872910Y24332972D01*
X50820829Y24359800D01*
X50765144Y24403853D01*
X50717295Y24457696D01*
X50682779Y24516036D01*
X50679778Y24522847D01*
X50670244Y24545256D01*
X50661947Y24567017D01*
X50654801Y24589604D01*
X50648721Y24614494D01*
X50643622Y24643158D01*
X50639415Y24677074D01*
X50636019Y24717716D01*
X50633343Y24766559D01*
X50631303Y24825079D01*
X50629813Y24894748D01*
X50628787Y24977043D01*
X50628139Y25073441D01*
X50627783Y25185411D01*
X50627632Y25314432D01*
X50627600Y25461979D01*
X50627600Y26202400D01*
X50362600Y26202399D01*
X50097600Y26202400D01*
X50097600Y25677216D01*
X50097600Y25474638D01*
X48990738Y25474638D01*
X48998599Y25480914D01*
X49031233Y25506573D01*
X49071718Y25538141D01*
X49117125Y25573319D01*
X49251650Y25677216D01*
X49212125Y25684232D01*
X49205275Y25685201D01*
X49174958Y25687649D01*
X49131184Y25689696D01*
X49078727Y25691152D01*
X49022362Y25691824D01*
X48872124Y25692400D01*
X48813248Y25854900D01*
X48797403Y25898232D01*
X48779201Y25946961D01*
X48763964Y25986574D01*
X48752946Y26013830D01*
X48747397Y26025490D01*
X48742107Y26019606D01*
X48731146Y25997687D01*
X48715779Y25962429D01*
X48697212Y25916606D01*
X48676652Y25862990D01*
X48612883Y25692400D01*
X48467742Y25691659D01*
X48452476Y25691545D01*
X48396691Y25690550D01*
X48345534Y25688809D01*
X48304130Y25686531D01*
X48277600Y25683924D01*
X48232601Y25676930D01*
X47866568Y25676930D01*
X47871611Y25828585D01*
X47900211Y26107346D01*
X47947802Y26382627D01*
X48014131Y26653538D01*
X48098944Y26919191D01*
X48201987Y27178694D01*
X48242553Y27263322D01*
X48667877Y27263322D01*
X48672785Y27258012D01*
X48691212Y27242072D01*
X48720884Y27217769D01*
X48759220Y27187212D01*
X48803636Y27152509D01*
X48838709Y27125233D01*
X48879970Y27092797D01*
X48913733Y27065858D01*
X48937212Y27046642D01*
X48947617Y27037381D01*
X48948041Y27027272D01*
X48943440Y27000101D01*
X48933991Y26958847D01*
X48920312Y26906181D01*
X48903022Y26844773D01*
X48901830Y26840671D01*
X48885788Y26784337D01*
X48872456Y26735408D01*
X48862590Y26696825D01*
X48856942Y26671527D01*
X48856266Y26662452D01*
X48856339Y26662458D01*
X48866595Y26668288D01*
X48890439Y26683839D01*
X48925217Y26707320D01*
X48968279Y26736945D01*
X49016975Y26770922D01*
X49171350Y26879342D01*
X49320126Y26775308D01*
X49364230Y26744662D01*
X49408286Y26714473D01*
X49444693Y26689982D01*
X49470554Y26673133D01*
X49482972Y26665874D01*
X49484761Y26665239D01*
X49491240Y26666074D01*
X49490441Y26677672D01*
X49482295Y26703938D01*
X49480175Y26710292D01*
X49470341Y26740812D01*
X49456706Y26784086D01*
X49440783Y26835293D01*
X49424082Y26889608D01*
X49380617Y27031814D01*
X49471089Y27102400D01*
X50097600Y27102400D01*
X50097600Y26792400D01*
X50097600Y26482400D01*
X50170249Y26482400D01*
X50242898Y26482400D01*
X50380066Y26689900D01*
X50517231Y26897400D01*
X50517415Y26689900D01*
X50517600Y26482400D01*
X50587600Y26482400D01*
X50657600Y26482400D01*
X50787600Y26482400D01*
X50862600Y26482400D01*
X50937600Y26482400D01*
X50937600Y26602401D01*
X51267600Y26602401D01*
X51267600Y26542400D01*
X51267600Y26482400D01*
X51452600Y26482400D01*
X51637600Y26482400D01*
X51637601Y26792400D01*
X51637601Y26800994D01*
X51737600Y26800994D01*
X51738384Y26792400D01*
X51744835Y26721758D01*
X51768124Y26648792D01*
X51807142Y26587800D01*
X51861544Y26539312D01*
X51930981Y26503865D01*
X51943115Y26499514D01*
X51968514Y26492136D01*
X51996299Y26487192D01*
X52030869Y26484226D01*
X52076628Y26482781D01*
X52137976Y26482400D01*
X52287600Y26482400D01*
X52287600Y26489658D01*
X52357599Y26489658D01*
X52358198Y26488762D01*
X52371597Y26485524D01*
X52399019Y26483256D01*
X52435675Y26482400D01*
X52513750Y26482400D01*
X52533723Y26544900D01*
X52553695Y26607400D01*
X52659723Y26610229D01*
X52765751Y26613058D01*
X52787491Y26547729D01*
X52809231Y26482400D01*
X52889486Y26482400D01*
X53027600Y26482400D01*
X53102600Y26482400D01*
X53177600Y26482400D01*
X53177961Y26699900D01*
X53178322Y26917400D01*
X53196253Y26867400D01*
X53202430Y26850007D01*
X53215508Y26812804D01*
X53232515Y26764169D01*
X53251937Y26708425D01*
X53272263Y26649900D01*
X53330342Y26482400D01*
X53391471Y26482474D01*
X53452600Y26482548D01*
X53529496Y26699974D01*
X53606391Y26917400D01*
X53606995Y26699900D01*
X53607600Y26482400D01*
X53672600Y26482400D01*
X53737600Y26482400D01*
X53737600Y26792400D01*
X53737600Y27102400D01*
X53633723Y27102400D01*
X53529847Y27102400D01*
X53469874Y26929900D01*
X53452992Y26881123D01*
X53433899Y26825419D01*
X53417375Y26776634D01*
X53404769Y26738755D01*
X53397427Y26715766D01*
X53384954Y26674132D01*
X53312627Y26885766D01*
X53240300Y27097400D01*
X53133950Y27100239D01*
X53027600Y27103077D01*
X53027600Y26792740D01*
X53027600Y26495968D01*
X53027600Y26482400D01*
X52889486Y26482400D01*
X52923163Y26482815D01*
X52950375Y26484830D01*
X52963138Y26489029D01*
X52964534Y26495968D01*
X52963088Y26499866D01*
X52955499Y26520666D01*
X52942402Y26556729D01*
X52924659Y26605673D01*
X52903135Y26665115D01*
X52878692Y26732674D01*
X52852194Y26805968D01*
X52745060Y27102400D01*
X52658830Y27102349D01*
X52572600Y27102297D01*
X52465099Y26799607D01*
X52462545Y26792400D01*
X52449991Y26756989D01*
X52425078Y26686389D01*
X52402909Y26623146D01*
X52384281Y26569556D01*
X52369989Y26527914D01*
X52360830Y26500516D01*
X52357599Y26489658D01*
X52287600Y26489658D01*
X52287600Y26792400D01*
X52287600Y27102400D01*
X52140100Y27102282D01*
X52126170Y27102234D01*
X52039528Y27099717D01*
X51969410Y27092813D01*
X51913049Y27080742D01*
X51867670Y27062717D01*
X51830504Y27037954D01*
X51798779Y27005668D01*
X51789921Y26994307D01*
X51760152Y26940975D01*
X51743063Y26877712D01*
X51737600Y26800994D01*
X51637601Y26800994D01*
X51637601Y27102400D01*
X51457599Y27102400D01*
X51277600Y27102400D01*
X51277600Y27042400D01*
X51277600Y26982400D01*
X51387600Y26982400D01*
X51497600Y26982400D01*
X51497600Y26917400D01*
X51497600Y26852400D01*
X51397600Y26852400D01*
X51297600Y26852400D01*
X51297600Y26792400D01*
X51297600Y26732400D01*
X51397599Y26732400D01*
X51497600Y26732400D01*
X51497600Y26667400D01*
X51497600Y26602400D01*
X51382600Y26602400D01*
X51267600Y26602401D01*
X50937600Y26602401D01*
X50937600Y26792400D01*
X50937600Y27102400D01*
X50862600Y27102400D01*
X50787600Y27102400D01*
X50787600Y26792400D01*
X50787600Y26482400D01*
X50657600Y26482400D01*
X50657600Y26792400D01*
X50657600Y27102400D01*
X50578656Y27102400D01*
X50499712Y27102400D01*
X50368656Y26900993D01*
X50237601Y26699586D01*
X50237600Y26900993D01*
X50237600Y27102400D01*
X50167601Y27102400D01*
X50097600Y27102400D01*
X49471089Y27102400D01*
X49508857Y27131867D01*
X49536514Y27153372D01*
X49579165Y27186248D01*
X49615645Y27214017D01*
X49642768Y27234261D01*
X49657349Y27244564D01*
X49670099Y27254232D01*
X49677600Y27264806D01*
X49677381Y27265254D01*
X49668483Y27267401D01*
X54154840Y27267401D01*
X54158159Y27264805D01*
X54305147Y27149919D01*
X54365942Y27102400D01*
X54455454Y27032437D01*
X54408018Y26869919D01*
X54396499Y26830511D01*
X54381122Y26778122D01*
X54367994Y26733624D01*
X54358229Y26700789D01*
X54352937Y26683388D01*
X54351135Y26677265D01*
X54350072Y26668301D01*
X54354128Y26665153D01*
X54365139Y26668822D01*
X54384945Y26680304D01*
X54415382Y26700595D01*
X54458291Y26730695D01*
X54515507Y26771599D01*
X54553205Y26798351D01*
X54595941Y26827879D01*
X54631196Y26851338D01*
X54656084Y26866816D01*
X54667716Y26872400D01*
X54678163Y26867543D01*
X54702456Y26852796D01*
X54737570Y26829968D01*
X54780689Y26800893D01*
X54828999Y26767400D01*
X54874733Y26735437D01*
X54917003Y26706202D01*
X54950921Y26683076D01*
X54973827Y26667871D01*
X54983061Y26662400D01*
X54983142Y26662401D01*
X54987569Y26669900D01*
X54985704Y26677674D01*
X54979009Y26701556D01*
X54968512Y26737731D01*
X54955337Y26782441D01*
X54940608Y26831930D01*
X54925448Y26882440D01*
X54910982Y26930214D01*
X54898333Y26971495D01*
X54888625Y27002526D01*
X54882981Y27019550D01*
X54882923Y27019802D01*
X54889918Y27030097D01*
X54910471Y27050251D01*
X54942275Y27078232D01*
X54983026Y27112010D01*
X55030422Y27149550D01*
X55182347Y27267400D01*
X54992888Y27274986D01*
X54990526Y27275081D01*
X54931093Y27277848D01*
X54878755Y27280967D01*
X54836732Y27284195D01*
X54808250Y27287283D01*
X54796535Y27289986D01*
X54793072Y27296652D01*
X54783378Y27319750D01*
X54769133Y27356009D01*
X54751617Y27402151D01*
X54732110Y27454900D01*
X54717390Y27494519D01*
X54699213Y27541462D01*
X54683881Y27578814D01*
X54672672Y27603489D01*
X54666865Y27612400D01*
X54665023Y27611602D01*
X54656432Y27598658D01*
X54646941Y27574900D01*
X54646093Y27572342D01*
X54636918Y27546470D01*
X54622532Y27507555D01*
X54604736Y27460424D01*
X54585331Y27409900D01*
X54535932Y27282400D01*
X54484266Y27281180D01*
X54480976Y27281097D01*
X54448871Y27280056D01*
X54403227Y27278326D01*
X54349643Y27276127D01*
X54293720Y27273680D01*
X54154840Y27267401D01*
X49668483Y27267401D01*
X49665350Y27268157D01*
X49637627Y27270681D01*
X49597961Y27272572D01*
X49550100Y27273569D01*
X49499283Y27274432D01*
X49443763Y27276165D01*
X49394869Y27278465D01*
X49359288Y27281069D01*
X49295976Y27287400D01*
X49235732Y27449900D01*
X49219037Y27494264D01*
X49200679Y27541387D01*
X49185400Y27578778D01*
X49174439Y27603412D01*
X49169044Y27612265D01*
X49165162Y27606410D01*
X49155156Y27584563D01*
X49140582Y27549415D01*
X49122696Y27504014D01*
X49102753Y27451404D01*
X49086774Y27408985D01*
X49068279Y27361198D01*
X49052833Y27322761D01*
X49041705Y27296817D01*
X49036167Y27286515D01*
X49026006Y27284985D01*
X48998788Y27282896D01*
X48957931Y27280542D01*
X48906739Y27278113D01*
X48848515Y27275797D01*
X48793957Y27273544D01*
X48743436Y27270879D01*
X48703491Y27268143D01*
X48677256Y27265552D01*
X48667877Y27263322D01*
X48242553Y27263322D01*
X48323003Y27431157D01*
X48461741Y27675689D01*
X48617948Y27911400D01*
X48791368Y28137400D01*
X48798940Y28146520D01*
X48852687Y28208317D01*
X48917034Y28278353D01*
X48988621Y28353266D01*
X49057588Y28423114D01*
X49832159Y28423114D01*
X49834415Y28420797D01*
X49849383Y28407910D01*
X49875557Y28386336D01*
X49909815Y28358570D01*
X49949032Y28327099D01*
X49990084Y28294419D01*
X50029846Y28263019D01*
X50065193Y28235393D01*
X50093000Y28214031D01*
X50110144Y28201426D01*
X50110300Y28190689D01*
X50105445Y28163837D01*
X50096254Y28124010D01*
X50083446Y28074319D01*
X50067738Y28017878D01*
X50052118Y27962672D01*
X50038389Y27912279D01*
X50027848Y27871526D01*
X50021316Y27843593D01*
X50019617Y27831664D01*
X50019702Y27831518D01*
X50029250Y27834905D01*
X50052332Y27848247D01*
X50086389Y27869918D01*
X50128868Y27898297D01*
X50177213Y27931760D01*
X50331826Y28040497D01*
X50412213Y27984866D01*
X50421849Y27978194D01*
X50470987Y27944085D01*
X50523277Y27907685D01*
X50568913Y27875817D01*
X50572044Y27873627D01*
X50610744Y27846941D01*
X50635799Y27830867D01*
X50649534Y27824263D01*
X50654277Y27825987D01*
X50652354Y27834900D01*
X50648392Y27846511D01*
X50639188Y27875479D01*
X50626876Y27915480D01*
X50612573Y27962744D01*
X50597398Y28013500D01*
X50582474Y28063978D01*
X50568915Y28110409D01*
X50557844Y28149022D01*
X50550376Y28176048D01*
X50547632Y28187716D01*
X50547632Y28187728D01*
X50555216Y28196880D01*
X50576226Y28216050D01*
X50608192Y28243144D01*
X50648641Y28276064D01*
X50695100Y28312716D01*
X50842600Y28427400D01*
X50747600Y28433781D01*
X50737912Y28434407D01*
X50678439Y28437516D01*
X50613708Y28439970D01*
X50556106Y28441281D01*
X50459612Y28442400D01*
X50413066Y28569900D01*
X50402128Y28599863D01*
X50379520Y28661665D01*
X50362506Y28707665D01*
X50350176Y28739988D01*
X50341618Y28760753D01*
X50335922Y28772083D01*
X50332178Y28776101D01*
X50329473Y28774930D01*
X50326899Y28770691D01*
X50324073Y28764527D01*
X50314586Y28741374D01*
X50300300Y28705126D01*
X50282593Y28659296D01*
X50262843Y28607400D01*
X50250389Y28574717D01*
X50231909Y28527294D01*
X50216350Y28488674D01*
X50205060Y28462171D01*
X50199385Y28451103D01*
X50198108Y28450554D01*
X50181924Y28448171D01*
X50150610Y28445406D01*
X50107997Y28442471D01*
X50057916Y28439572D01*
X50004196Y28436920D01*
X49950668Y28434723D01*
X49901163Y28433193D01*
X49859510Y28432536D01*
X49855665Y28432456D01*
X49836795Y28429333D01*
X49832159Y28423114D01*
X49057588Y28423114D01*
X49064091Y28429700D01*
X49140083Y28504296D01*
X49213238Y28573696D01*
X49280197Y28634541D01*
X49337600Y28683474D01*
X49453597Y28774579D01*
X49565543Y28853721D01*
X51417600Y28853721D01*
X51424647Y28845582D01*
X51445173Y28827228D01*
X51476703Y28800831D01*
X51516743Y28768475D01*
X51562805Y28732242D01*
X51578771Y28719815D01*
X51626618Y28682080D01*
X51660890Y28653854D01*
X51683529Y28633258D01*
X51696478Y28618408D01*
X51701684Y28607423D01*
X51701093Y28598422D01*
X51691520Y28568308D01*
X51677805Y28522794D01*
X51663106Y28472015D01*
X51650595Y28427400D01*
X51648371Y28419465D01*
X51634543Y28368636D01*
X51622574Y28323023D01*
X51613408Y28286117D01*
X51607993Y28261412D01*
X51607275Y28252400D01*
X51607703Y28252478D01*
X51619806Y28259214D01*
X51644960Y28275443D01*
X51680311Y28299203D01*
X51723006Y28328537D01*
X51770189Y28361485D01*
X51819005Y28396088D01*
X51866601Y28430387D01*
X51884470Y28442967D01*
X51906298Y28456959D01*
X51917753Y28462400D01*
X51927227Y28457330D01*
X51950520Y28442497D01*
X51984844Y28419695D01*
X52027483Y28390728D01*
X52075725Y28357400D01*
X52122297Y28325204D01*
X52165111Y28296056D01*
X52199676Y28273004D01*
X52223286Y28257852D01*
X52233240Y28252400D01*
X52236357Y28257553D01*
X52234986Y28274900D01*
X52234669Y28276248D01*
X52229482Y28295037D01*
X52219800Y28328120D01*
X52206889Y28371333D01*
X52192012Y28420513D01*
X52189908Y28427400D01*
X52992600Y28427400D01*
X53132600Y28318557D01*
X53172159Y28287761D01*
X53213565Y28255427D01*
X53247326Y28228954D01*
X53270721Y28210477D01*
X53281034Y28202124D01*
X53281135Y28202016D01*
X53280958Y28189798D01*
X53275811Y28161642D01*
X53266407Y28120659D01*
X53253458Y28069961D01*
X53237674Y28012660D01*
X53236930Y28010048D01*
X53221047Y27953217D01*
X53207648Y27903403D01*
X53197514Y27863651D01*
X53191421Y27837008D01*
X53190148Y27826520D01*
X53191065Y27826471D01*
X53203857Y27833023D01*
X53228926Y27848845D01*
X53263175Y27871920D01*
X53303507Y27900237D01*
X53305834Y27901901D01*
X53351302Y27934288D01*
X53395230Y27965397D01*
X53432718Y27991768D01*
X53458859Y28009937D01*
X53505119Y28041654D01*
X53660444Y27932027D01*
X53662938Y27930267D01*
X53711585Y27896204D01*
X53754538Y27866598D01*
X53789149Y27843236D01*
X53812770Y27827907D01*
X53822754Y27822400D01*
X53825395Y27823985D01*
X53824474Y27836125D01*
X53823991Y27837438D01*
X53818079Y27855664D01*
X53808700Y27886349D01*
X53797652Y27923625D01*
X53794301Y27935015D01*
X53779727Y27983581D01*
X53762908Y28038527D01*
X53746848Y28090020D01*
X53739186Y28114548D01*
X53728078Y28151223D01*
X53720441Y28177937D01*
X53717600Y28190152D01*
X53717692Y28190647D01*
X53726547Y28201040D01*
X53747025Y28219318D01*
X53775100Y28241862D01*
X53794639Y28256951D01*
X53834137Y28287672D01*
X53878802Y28322602D01*
X53922217Y28356730D01*
X54011834Y28427400D01*
X53917217Y28433781D01*
X53907988Y28434380D01*
X53848691Y28437501D01*
X53784083Y28439964D01*
X53726591Y28441281D01*
X53630581Y28442400D01*
X53572580Y28604900D01*
X53557030Y28648048D01*
X53539045Y28696843D01*
X53523971Y28736514D01*
X53513042Y28763813D01*
X53507500Y28775490D01*
X53502179Y28769606D01*
X53491190Y28747689D01*
X53475799Y28712431D01*
X53457218Y28666607D01*
X53436652Y28612990D01*
X53372883Y28442400D01*
X53272743Y28441342D01*
X53257549Y28441125D01*
X53197934Y28439528D01*
X53135877Y28436952D01*
X53082600Y28433842D01*
X52992600Y28427400D01*
X52189908Y28427400D01*
X52176436Y28471496D01*
X52161425Y28520118D01*
X52148243Y28562215D01*
X52138157Y28593623D01*
X52137811Y28594693D01*
X52135876Y28604377D01*
X52137937Y28614120D01*
X52145990Y28625919D01*
X52162030Y28641772D01*
X52188053Y28663675D01*
X52226053Y28693627D01*
X52278026Y28733623D01*
X52278542Y28734019D01*
X52325232Y28770161D01*
X52365917Y28802345D01*
X52398109Y28828546D01*
X52419319Y28846740D01*
X52427061Y28854900D01*
X52420670Y28856948D01*
X52397267Y28859144D01*
X52359732Y28860902D01*
X52311273Y28862081D01*
X52255100Y28862537D01*
X52228810Y28862594D01*
X52161368Y28863256D01*
X52111041Y28864833D01*
X52075665Y28867540D01*
X52053075Y28871599D01*
X52041109Y28877229D01*
X52037600Y28884651D01*
X52035593Y28895261D01*
X52027693Y28921212D01*
X52015129Y28957514D01*
X51999325Y29000523D01*
X51981707Y29046589D01*
X51963700Y29092064D01*
X51946731Y29133300D01*
X51932223Y29166650D01*
X51921604Y29188465D01*
X51916297Y29195097D01*
X51913299Y29189935D01*
X51903687Y29168389D01*
X51889413Y29133507D01*
X51871843Y29088665D01*
X51852346Y29037239D01*
X51840443Y29006027D01*
X51820793Y28957316D01*
X51803139Y28916875D01*
X51789052Y28888228D01*
X51780096Y28874900D01*
X51774173Y28871980D01*
X51752554Y28867628D01*
X51715855Y28864652D01*
X51662443Y28862945D01*
X51590689Y28862399D01*
X51543269Y28862067D01*
X51493115Y28860880D01*
X51453308Y28858985D01*
X51427064Y28856546D01*
X51417600Y28853721D01*
X49565543Y28853721D01*
X49689749Y28941531D01*
X49933841Y29090135D01*
X50185739Y29220334D01*
X50445309Y29332072D01*
X50712415Y29425297D01*
X50986923Y29499951D01*
X51268696Y29555978D01*
X51557600Y29593326D01*
X51604567Y29596973D01*
X51680418Y29600731D01*
X51767816Y29603279D01*
X51862259Y29604618D01*
X51959246Y29604750D01*
X52054275Y29603674D01*
X52142845Y29601392D01*
X52220454Y29597904D01*
X52282600Y29593211D01*
X52331178Y29588084D01*
X52619781Y29546388D01*
X52901097Y29486320D01*
X53174651Y29408105D01*
X53439972Y29311969D01*
X53696589Y29198138D01*
X53944030Y29066839D01*
X54181824Y28918296D01*
X54269005Y28854901D01*
X54409498Y28752737D01*
X54626582Y28570386D01*
X54774676Y28427400D01*
X54832603Y28371471D01*
G37*
D12*
%TO.C,R29*%
X56491200Y13311136D02*
X56491200Y13765264D01*
X57961200Y13311136D02*
X57961200Y13765264D01*
%TO.C,R24*%
X64035000Y52350936D02*
X64035000Y52805064D01*
X65505000Y52350936D02*
X65505000Y52805064D01*
%TO.C,R11*%
X52960600Y35380664D02*
X52960600Y34926536D01*
X54430600Y35380664D02*
X54430600Y34926536D01*
%TO.C,U3*%
X65948800Y35032300D02*
X66998800Y35032300D01*
X65948800Y32712300D02*
X67248800Y32712300D01*
X67638800Y35032300D02*
X67358800Y35032300D01*
X67358800Y35312300D01*
X67638800Y35032300D01*
G36*
X67638800Y35032300D02*
G01*
X67358800Y35032300D01*
X67358800Y35312300D01*
X67638800Y35032300D01*
G37*
%TO.C,R14*%
X60733000Y52374436D02*
X60733000Y52828564D01*
X62203000Y52374436D02*
X62203000Y52828564D01*
%TO.C,C5*%
X58285748Y31494400D02*
X58808252Y31494400D01*
X58285748Y30024400D02*
X58808252Y30024400D01*
%TO.C,R9*%
X20928064Y43153000D02*
X20473936Y43153000D01*
X20928064Y41683000D02*
X20473936Y41683000D01*
%TO.C,R1*%
X47448800Y14146264D02*
X47448800Y13692136D01*
X48918800Y14146264D02*
X48918800Y13692136D01*
%TD*%
M02*
