%TF.GenerationSoftware,KiCad,Pcbnew,9.0.1+1*%
%TF.CreationDate,2025-11-25T19:09:32+00:00*%
%TF.ProjectId,TFUNIPAYLOAD01,5446554e-4950-4415-994c-4f414430312e,rev?*%
%TF.SameCoordinates,Original*%
%TF.FileFunction,Copper,L1,Top*%
%TF.FilePolarity,Positive*%
%FSLAX46Y46*%
G04 Gerber Fmt 4.6, Leading zero omitted, Abs format (unit mm)*
G04 Created by KiCad (PCBNEW 9.0.1+1) date 2025-11-25 19:09:32*
%MOMM*%
%LPD*%
G01*
G04 APERTURE LIST*
G04 Aperture macros list*
%AMRoundRect*
0 Rectangle with rounded corners*
0 $1 Rounding radius*
0 $2 $3 $4 $5 $6 $7 $8 $9 X,Y pos of 4 corners*
0 Add a 4 corners polygon primitive as box body*
4,1,4,$2,$3,$4,$5,$6,$7,$8,$9,$2,$3,0*
0 Add four circle primitives for the rounded corners*
1,1,$1+$1,$2,$3*
1,1,$1+$1,$4,$5*
1,1,$1+$1,$6,$7*
1,1,$1+$1,$8,$9*
0 Add four rect primitives between the rounded corners*
20,1,$1+$1,$2,$3,$4,$5,0*
20,1,$1+$1,$4,$5,$6,$7,0*
20,1,$1+$1,$6,$7,$8,$9,0*
20,1,$1+$1,$8,$9,$2,$3,0*%
G04 Aperture macros list end*
%TA.AperFunction,ComponentPad*%
%ADD10C,6.000000*%
%TD*%
%TA.AperFunction,ComponentPad*%
%ADD11C,1.500000*%
%TD*%
%TA.AperFunction,SMDPad,CuDef*%
%ADD12RoundRect,0.050000X-0.285000X-0.100000X0.285000X-0.100000X0.285000X0.100000X-0.285000X0.100000X0*%
%TD*%
%TA.AperFunction,SMDPad,CuDef*%
%ADD13RoundRect,0.250000X-0.250000X-0.475000X0.250000X-0.475000X0.250000X0.475000X-0.250000X0.475000X0*%
%TD*%
%TA.AperFunction,SMDPad,CuDef*%
%ADD14RoundRect,0.250000X-0.262500X-0.450000X0.262500X-0.450000X0.262500X0.450000X-0.262500X0.450000X0*%
%TD*%
%TA.AperFunction,SMDPad,CuDef*%
%ADD15RoundRect,0.250000X-0.625000X0.375000X-0.625000X-0.375000X0.625000X-0.375000X0.625000X0.375000X0*%
%TD*%
%TA.AperFunction,SMDPad,CuDef*%
%ADD16RoundRect,0.150000X-0.150000X-0.700000X0.150000X-0.700000X0.150000X0.700000X-0.150000X0.700000X0*%
%TD*%
%TA.AperFunction,SMDPad,CuDef*%
%ADD17RoundRect,0.250000X-0.250000X-1.100000X0.250000X-1.100000X0.250000X1.100000X-0.250000X1.100000X0*%
%TD*%
%TA.AperFunction,SMDPad,CuDef*%
%ADD18R,0.600000X0.700000*%
%TD*%
%TA.AperFunction,SMDPad,CuDef*%
%ADD19RoundRect,0.200000X-0.200000X-0.275000X0.200000X-0.275000X0.200000X0.275000X-0.200000X0.275000X0*%
%TD*%
%TA.AperFunction,SMDPad,CuDef*%
%ADD20RoundRect,0.150000X-0.150000X-0.750000X0.150000X-0.750000X0.150000X0.750000X-0.150000X0.750000X0*%
%TD*%
%TA.AperFunction,SMDPad,CuDef*%
%ADD21RoundRect,0.187500X-0.187500X-0.712500X0.187500X-0.712500X0.187500X0.712500X-0.187500X0.712500X0*%
%TD*%
%TA.AperFunction,ComponentPad*%
%ADD22O,0.900000X1.300000*%
%TD*%
%TA.AperFunction,SMDPad,CuDef*%
%ADD23RoundRect,0.225000X-0.425000X-0.225000X0.425000X-0.225000X0.425000X0.225000X-0.425000X0.225000X0*%
%TD*%
%TA.AperFunction,SMDPad,CuDef*%
%ADD24C,1.000000*%
%TD*%
%TA.AperFunction,SMDPad,CuDef*%
%ADD25R,1.524000X1.524000*%
%TD*%
%TA.AperFunction,SMDPad,CuDef*%
%ADD26RoundRect,0.250000X-0.375000X-0.850000X0.375000X-0.850000X0.375000X0.850000X-0.375000X0.850000X0*%
%TD*%
%TA.AperFunction,ComponentPad*%
%ADD27R,1.700000X1.700000*%
%TD*%
%TA.AperFunction,ComponentPad*%
%ADD28C,1.700000*%
%TD*%
%TA.AperFunction,SMDPad,CuDef*%
%ADD29RoundRect,0.250000X-0.375000X-0.625000X0.375000X-0.625000X0.375000X0.625000X-0.375000X0.625000X0*%
%TD*%
%TA.AperFunction,ViaPad*%
%ADD30C,0.800000*%
%TD*%
%TA.AperFunction,Conductor*%
%ADD31C,0.400000*%
%TD*%
%TA.AperFunction,Conductor*%
%ADD32C,0.500000*%
%TD*%
%TA.AperFunction,Conductor*%
%ADD33C,0.300000*%
%TD*%
%TA.AperFunction,Conductor*%
%ADD34C,0.600000*%
%TD*%
%TA.AperFunction,Conductor*%
%ADD35C,0.700000*%
%TD*%
G04 APERTURE END LIST*
D10*
%TO.P,M2,1*%
%TO.N,GND*%
X174972341Y-78676927D03*
%TD*%
%TO.P,M3,1*%
%TO.N,GND*%
X103852341Y-78676927D03*
%TD*%
%TO.P,M4,1*%
%TO.N,GND*%
X103852341Y-119316927D03*
%TD*%
%TO.P,M1,1*%
%TO.N,GND*%
X174972341Y-119316927D03*
%TD*%
D11*
%TO.P,Y1,1,1*%
%TO.N,Net-(U2-XTAL2)*%
X155580541Y-77965727D03*
%TO.P,Y1,2,2*%
%TO.N,Net-(U2-XTAL1)*%
X160460541Y-77965727D03*
%TD*%
D12*
%TO.P,U1,1,VOUT*%
%TO.N,+3.3V*%
X139093741Y-160793727D03*
%TO.P,U1,2,LX2*%
%TO.N,Net-(U1-LX2)*%
X139093741Y-161293727D03*
%TO.P,U1,3,LX1*%
%TO.N,Net-(U1-LX1)*%
X139093741Y-161793727D03*
%TO.P,U1,4,VIN*%
%TO.N,+VSW*%
X139093741Y-162293727D03*
%TO.P,U1,5,EN*%
X140573741Y-162293727D03*
%TO.P,U1,6,MODE*%
X140573741Y-161793727D03*
%TO.P,U1,7,GND*%
%TO.N,GND*%
X140573741Y-161293727D03*
%TO.P,U1,8,FB*%
%TO.N,/3v3i_FB*%
X140573741Y-160793727D03*
%TD*%
D13*
%TO.P,C6,1*%
%TO.N,+3.3V*%
X124573741Y-141158727D03*
%TO.P,C6,2*%
%TO.N,GND*%
X126473741Y-141158727D03*
%TD*%
%TO.P,C13,1*%
%TO.N,+VSW*%
X124573741Y-147178727D03*
%TO.P,C13,2*%
%TO.N,GND*%
X126473741Y-147178727D03*
%TD*%
D14*
%TO.P,R10,1*%
%TO.N,+3.3V*%
X120181241Y-144018727D03*
%TO.P,R10,2*%
%TO.N,/3v3i_FB*%
X122006241Y-144018727D03*
%TD*%
%TO.P,R22,1*%
%TO.N,+5V*%
X120181241Y-149918727D03*
%TO.P,R22,2*%
%TO.N,/5v_FB*%
X122006241Y-149918727D03*
%TD*%
D13*
%TO.P,C7,1*%
%TO.N,+3.3V*%
X124573741Y-144168727D03*
%TO.P,C7,2*%
%TO.N,GND*%
X126473741Y-144168727D03*
%TD*%
D15*
%TO.P,D3,1,K*%
%TO.N,Net-(D3-K)*%
X153026341Y-117916927D03*
%TO.P,D3,2,A*%
%TO.N,Vin*%
X153026341Y-120716927D03*
%TD*%
D16*
%TO.P,J6,1*%
%TO.N,+5V*%
X131123741Y-138518727D03*
%TO.P,J6,2*%
%TO.N,Net-(J6-Pad2)*%
X132373741Y-138518727D03*
%TO.P,J6,3*%
%TO.N,Net-(J6-Pad3)*%
X133623741Y-138518727D03*
%TO.P,J6,4*%
%TO.N,Net-(J6-Pad4)*%
X134873741Y-138518727D03*
%TO.P,J6,5*%
%TO.N,Net-(J6-Pad5)*%
X136123741Y-138518727D03*
%TO.P,J6,6*%
%TO.N,Net-(J6-Pad6)*%
X137373741Y-138518727D03*
%TO.P,J6,7*%
%TO.N,GND*%
X138623741Y-138518727D03*
D17*
%TO.P,J6,MP*%
X129273741Y-141718727D03*
X140473741Y-141718727D03*
%TD*%
D16*
%TO.P,J4,1*%
%TO.N,+5V*%
X131128741Y-145968727D03*
%TO.P,J4,2*%
%TO.N,/SCL*%
X132378741Y-145968727D03*
%TO.P,J4,3*%
%TO.N,/SDA*%
X133628741Y-145968727D03*
%TO.P,J4,4*%
%TO.N,GND*%
X134878741Y-145968727D03*
D17*
%TO.P,J4,MP*%
X129278741Y-149168727D03*
X136728741Y-149168727D03*
%TD*%
D18*
%TO.P,SW2,1,1*%
%TO.N,/BTN_USER_B*%
X138938741Y-152593727D03*
X141938741Y-152593727D03*
%TO.P,SW2,2,2*%
%TO.N,GND*%
X138938741Y-154493727D03*
X141938741Y-154493727D03*
%TD*%
D15*
%TO.P,D4,1,K*%
%TO.N,Net-(D4-K)*%
X148026341Y-117916927D03*
%TO.P,D4,2,A*%
%TO.N,Vin*%
X148026341Y-120716927D03*
%TD*%
D19*
%TO.P,R28,1*%
%TO.N,Net-(J6-Pad4)*%
X128928741Y-157818727D03*
%TO.P,R28,2*%
%TO.N,/MOSI*%
X130578741Y-157818727D03*
%TD*%
D20*
%TO.P,SW1,1,1*%
%TO.N,/BTN_USER_A*%
X141333741Y-145923727D03*
D21*
%TO.P,SW1,2,2*%
%TO.N,GND*%
X140108741Y-145923727D03*
X142558741Y-145923727D03*
D22*
%TO.P,SW1,GND,SHIELD*%
X139208741Y-146823727D03*
D23*
X139483741Y-147873727D03*
X143183741Y-147873727D03*
D22*
X143458741Y-146823727D03*
%TD*%
D14*
%TO.P,R23,1*%
%TO.N,/5v_FB*%
X120181241Y-152868727D03*
%TO.P,R23,2*%
%TO.N,GND*%
X122006241Y-152868727D03*
%TD*%
D24*
%TO.P,FID2,*%
%TO.N,*%
X181830341Y-78270527D03*
%TD*%
D18*
%TO.P,SW3,1,1*%
%TO.N,GND*%
X138938741Y-156593727D03*
X141938741Y-156593727D03*
%TO.P,SW3,2,2*%
%TO.N,/RST#_P*%
X138938741Y-158493727D03*
X141938741Y-158493727D03*
%TD*%
D13*
%TO.P,C15,1*%
%TO.N,+5V*%
X124573741Y-153198727D03*
%TO.P,C15,2*%
%TO.N,GND*%
X126473741Y-153198727D03*
%TD*%
D24*
%TO.P,FID6,*%
%TO.N,*%
X126763141Y-76848127D03*
%TD*%
D25*
%TO.P,J3,1*%
%TO.N,/MISO*%
X133603741Y-153388727D03*
%TO.P,J3,2*%
%TO.N,+3.3V*%
X136143741Y-153388727D03*
%TO.P,J3,3*%
%TO.N,/SCLK*%
X133603741Y-155928727D03*
%TO.P,J3,4*%
%TO.N,/MOSI*%
X136143741Y-155928727D03*
%TO.P,J3,5*%
%TO.N,/RST#_P*%
X133603741Y-158468727D03*
%TO.P,J3,6*%
%TO.N,GND*%
X136143741Y-158468727D03*
%TD*%
D15*
%TO.P,D5,1,K*%
%TO.N,Net-(D5-K)*%
X168026341Y-77276927D03*
%TO.P,D5,2,A*%
%TO.N,+3.3V*%
X168026341Y-80076927D03*
%TD*%
D14*
%TO.P,R3,1*%
%TO.N,+3.3V*%
X120181241Y-141068727D03*
%TO.P,R3,2*%
%TO.N,/BTN_USER_B*%
X122006241Y-141068727D03*
%TD*%
D19*
%TO.P,R25,1*%
%TO.N,Net-(J6-Pad2)*%
X128928741Y-152798727D03*
%TO.P,R25,2*%
%TO.N,/SCK*%
X130578741Y-152798727D03*
%TD*%
D26*
%TO.P,L3,1,1*%
%TO.N,Net-(U3-LX1)*%
X144288741Y-157168727D03*
%TO.P,L3,2,2*%
%TO.N,Net-(U3-LX2)*%
X146438741Y-157168727D03*
%TD*%
D19*
%TO.P,R27,1*%
%TO.N,Net-(J6-Pad3)*%
X128928741Y-155308727D03*
%TO.P,R27,2*%
%TO.N,/MISO*%
X130578741Y-155308727D03*
%TD*%
%TO.P,R30,1*%
%TO.N,Net-(J6-Pad6)*%
X128928741Y-162838727D03*
%TO.P,R30,2*%
%TO.N,/CS2*%
X130578741Y-162838727D03*
%TD*%
D26*
%TO.P,L2,1,1*%
%TO.N,Net-(U1-LX1)*%
X144288741Y-153418727D03*
%TO.P,L2,2,2*%
%TO.N,Net-(U1-LX2)*%
X146438741Y-153418727D03*
%TD*%
D14*
%TO.P,R2,1*%
%TO.N,+3.3V*%
X120181241Y-138118727D03*
%TO.P,R2,2*%
%TO.N,/BTN_USER_A*%
X122006241Y-138118727D03*
%TD*%
%TO.P,R26,1*%
%TO.N,+3.3V*%
X120181241Y-158768727D03*
%TO.P,R26,2*%
%TO.N,/EXT_DETECTION*%
X122006241Y-158768727D03*
%TD*%
D13*
%TO.P,C14,1*%
%TO.N,+5V*%
X124573741Y-150188727D03*
%TO.P,C14,2*%
%TO.N,GND*%
X126473741Y-150188727D03*
%TD*%
D27*
%TO.P,J5,1*%
%TO.N,GND*%
X89902341Y-83812327D03*
D28*
%TO.P,J5,2*%
X87362341Y-83812327D03*
%TO.P,J5,3*%
%TO.N,+5V*%
X89902341Y-86352327D03*
%TO.P,J5,4*%
X87362341Y-86352327D03*
%TO.P,J5,5*%
%TO.N,+3.3V*%
X89902341Y-88892327D03*
%TO.P,J5,6*%
X87362341Y-88892327D03*
%TO.P,J5,7*%
%TO.N,GND*%
X89902341Y-91432327D03*
%TO.P,J5,8*%
%TO.N,/EXT_DETECTION*%
X87362341Y-91432327D03*
%TO.P,J5,9*%
%TO.N,/A0*%
X89902341Y-93972327D03*
%TO.P,J5,10*%
%TO.N,/~{RST}_EXT*%
X87362341Y-93972327D03*
%TO.P,J5,11*%
%TO.N,/A1*%
X89902341Y-96512327D03*
%TO.P,J5,12*%
%TO.N,/RX*%
X87362341Y-96512327D03*
%TO.P,J5,13*%
%TO.N,/B1*%
X89902341Y-99052327D03*
%TO.P,J5,14*%
%TO.N,/TX*%
X87362341Y-99052327D03*
%TO.P,J5,15*%
%TO.N,/B0*%
X89902341Y-101592327D03*
%TO.P,J5,16*%
%TO.N,/MOSI*%
X87362341Y-101592327D03*
%TO.P,J5,17*%
%TO.N,/C1*%
X89902341Y-104132327D03*
%TO.P,J5,18*%
%TO.N,/MISO*%
X87362341Y-104132327D03*
%TO.P,J5,19*%
%TO.N,/C0*%
X89902341Y-106672327D03*
%TO.P,J5,20*%
%TO.N,/SCLK*%
X87362341Y-106672327D03*
%TO.P,J5,21*%
%TO.N,GND*%
X89902341Y-109212327D03*
%TO.P,J5,22*%
X87362341Y-109212327D03*
%TO.P,J5,23*%
%TO.N,/SCL*%
X89902341Y-111752327D03*
%TO.P,J5,24*%
X87362341Y-111752327D03*
%TO.P,J5,25*%
%TO.N,/I2C_PWR*%
X89902341Y-114292327D03*
%TO.P,J5,26*%
X87362341Y-114292327D03*
%TO.P,J5,27*%
%TO.N,/SDA*%
X89902341Y-116832327D03*
%TO.P,J5,28*%
X87362341Y-116832327D03*
%TO.P,J5,29*%
%TO.N,GND*%
X89902341Y-119372327D03*
%TO.P,J5,30*%
X87362341Y-119372327D03*
%TD*%
D19*
%TO.P,R29,1*%
%TO.N,Net-(J6-Pad5)*%
X128928741Y-160328727D03*
%TO.P,R29,2*%
%TO.N,/CS1*%
X130578741Y-160328727D03*
%TD*%
D14*
%TO.P,R24,1*%
%TO.N,Net-(D7-K)*%
X120181241Y-155818727D03*
%TO.P,R24,2*%
%TO.N,GND*%
X122006241Y-155818727D03*
%TD*%
%TO.P,R11,1*%
%TO.N,/3v3i_FB*%
X120181241Y-146968727D03*
%TO.P,R11,2*%
%TO.N,GND*%
X122006241Y-146968727D03*
%TD*%
D15*
%TO.P,D6,1,K*%
%TO.N,Net-(D6-K)*%
X158026341Y-117916927D03*
%TO.P,D6,2,A*%
%TO.N,+3.3V*%
X158026341Y-120716927D03*
%TD*%
D29*
%TO.P,D7,1,K*%
%TO.N,Net-(D7-K)*%
X133203741Y-162008727D03*
%TO.P,D7,2,A*%
%TO.N,+5V*%
X136003741Y-162008727D03*
%TD*%
D12*
%TO.P,U3,1,VOUT*%
%TO.N,+5V*%
X142783741Y-160793727D03*
%TO.P,U3,2,LX2*%
%TO.N,Net-(U3-LX2)*%
X142783741Y-161293727D03*
%TO.P,U3,3,LX1*%
%TO.N,Net-(U3-LX1)*%
X142783741Y-161793727D03*
%TO.P,U3,4,VIN*%
%TO.N,+VSW*%
X142783741Y-162293727D03*
%TO.P,U3,5,EN*%
X144263741Y-162293727D03*
%TO.P,U3,6,MODE*%
X144263741Y-161793727D03*
%TO.P,U3,7,GND*%
%TO.N,GND*%
X144263741Y-161293727D03*
%TO.P,U3,8,FB*%
%TO.N,/5v_FB*%
X144263741Y-160793727D03*
%TD*%
D24*
%TO.P,FID1,*%
%TO.N,*%
X126712341Y-121501327D03*
%TD*%
D13*
%TO.P,C5,1*%
%TO.N,+VSW*%
X124573741Y-138148727D03*
%TO.P,C5,2*%
%TO.N,GND*%
X126473741Y-138148727D03*
%TD*%
D30*
%TO.N,*%
X168063539Y-116726127D03*
X145181381Y-94661915D03*
X168306341Y-112402927D03*
X182236741Y-94069327D03*
X180595156Y-114230135D03*
X179442755Y-114236913D03*
X127628641Y-84825627D03*
X180560341Y-116649927D03*
X177276341Y-109522927D03*
X152724916Y-103722632D03*
X176750341Y-105753327D03*
X163034341Y-116726127D03*
X147921341Y-99708127D03*
X172084160Y-114961455D03*
X180814341Y-120078927D03*
X129252341Y-107734527D03*
X171916484Y-106462927D03*
X119168541Y-113597425D03*
%TO.N,GND*%
X130319141Y-122720527D03*
X111472341Y-78676927D03*
X161002341Y-82232927D03*
X170400341Y-122568127D03*
X187926341Y-102552927D03*
X187164341Y-108394927D03*
X142739741Y-104864327D03*
X147540341Y-82994927D03*
X156201741Y-79972327D03*
X170095541Y-76416327D03*
X134687941Y-89598927D03*
X164761541Y-75247927D03*
X126712341Y-116941927D03*
X119092341Y-78676927D03*
X165142541Y-117132527D03*
X131792341Y-76136927D03*
X168114341Y-122618927D03*
X142005929Y-113493571D03*
X143933541Y-90310127D03*
X185640341Y-102552927D03*
X160748341Y-122618927D03*
X140306986Y-114878873D03*
X167149141Y-111900127D03*
X184116341Y-109410927D03*
X187164341Y-97599927D03*
X169854213Y-81635163D03*
X150749696Y-123241927D03*
X172178341Y-97269727D03*
X158970341Y-77025927D03*
X107007066Y-111870688D03*
X185640341Y-110045927D03*
X152975941Y-82639327D03*
X105762027Y-109429655D03*
X167930923Y-87647509D03*
X121632341Y-78676927D03*
X149318341Y-76136927D03*
X185691141Y-103924527D03*
X175327941Y-91478527D03*
X111472341Y-76136927D03*
X108939137Y-117926796D03*
X129026341Y-116941927D03*
X189247141Y-74587527D03*
X176775741Y-89268727D03*
X120209941Y-120434527D03*
X132706741Y-122923727D03*
X142917541Y-101105127D03*
X134662541Y-82944127D03*
X187164341Y-116522927D03*
X133113141Y-120434527D03*
X188434341Y-98488927D03*
X167453941Y-105753327D03*
X187418341Y-92646927D03*
X173600741Y-88379727D03*
X186427741Y-77813327D03*
X151604341Y-75628927D03*
X159783141Y-75730527D03*
X152264741Y-112484327D03*
X118942172Y-116370964D03*
X121632341Y-116941927D03*
X154681159Y-123718127D03*
X187164341Y-118046927D03*
X108932341Y-78676927D03*
X187164341Y-119824927D03*
X164405941Y-101917927D03*
X168165141Y-100139927D03*
X178553741Y-107251927D03*
X178934741Y-89294127D03*
X140377541Y-92164327D03*
X171162341Y-81851927D03*
X135983341Y-113881327D03*
X124172341Y-78676927D03*
X160164141Y-110579327D03*
X177664741Y-91427727D03*
X168066341Y-84222927D03*
X123994541Y-81242327D03*
X178401341Y-101155927D03*
X187164341Y-115125927D03*
X157065341Y-77025927D03*
X153382341Y-75628927D03*
X124172341Y-116941927D03*
X159116341Y-91342927D03*
X170984541Y-87770127D03*
X188688341Y-89852927D03*
X122165741Y-122441127D03*
X142714341Y-82055127D03*
X156684341Y-75628927D03*
X148302341Y-123241927D03*
X187900941Y-74587527D03*
X114012341Y-78676927D03*
X136237341Y-122491927D03*
X141024591Y-102285577D03*
X141952341Y-119316927D03*
X181347741Y-75171727D03*
X109262541Y-119850327D03*
X162500941Y-101028927D03*
X171111541Y-75171727D03*
X172762541Y-101054327D03*
X114418741Y-80734327D03*
X155160341Y-75628927D03*
X137862941Y-91986527D03*
X129252341Y-76136927D03*
X132249541Y-81369327D03*
X187164341Y-89852927D03*
X179925341Y-121983927D03*
X177300541Y-112188125D03*
X187545341Y-94551927D03*
X108932341Y-76136927D03*
X156531941Y-108610727D03*
X185894341Y-89852927D03*
X149775541Y-110680927D03*
X179335426Y-104902927D03*
X153209205Y-123362527D03*
X183074941Y-74587527D03*
X189323341Y-77813327D03*
X188078741Y-77864127D03*
X179214141Y-75705127D03*
X149953341Y-82080527D03*
X174438941Y-84112527D03*
X143984341Y-84264927D03*
X158081341Y-78854727D03*
X172279941Y-95161527D03*
X137913741Y-75120927D03*
X165066341Y-109842727D03*
X164659941Y-81801127D03*
X117060341Y-116345127D03*
X136465941Y-106845527D03*
X143222341Y-120409127D03*
X109008541Y-80607327D03*
X149318341Y-77914927D03*
X188434341Y-108394927D03*
X178970407Y-91405976D03*
X116552341Y-78676927D03*
X134332341Y-76136927D03*
X177284274Y-100610366D03*
X112259741Y-120129727D03*
X185945141Y-74714527D03*
X189196341Y-102552927D03*
X144822541Y-100139927D03*
X175228595Y-99239301D03*
X163415341Y-106337527D03*
X143857341Y-110045927D03*
X164304341Y-122618927D03*
%TO.N,/~{RST}_PRG*%
X155684341Y-85957019D03*
X170646341Y-102902923D03*
X142486341Y-93382927D03*
%TO.N,Net-(D6-K)*%
X157065341Y-115379927D03*
%TO.N,/SCL*%
X161095573Y-91552927D03*
X186351541Y-83147327D03*
X139513941Y-118707327D03*
X112012122Y-113239948D03*
X141217741Y-106134327D03*
X168532804Y-93655736D03*
%TO.N,/SDA*%
X161249741Y-92544392D03*
X186402341Y-81877327D03*
X165482091Y-94618777D03*
X141550006Y-107909262D03*
X108754543Y-113144728D03*
X140064693Y-119639079D03*
%TO.N,Net-(D3-K)*%
X152137741Y-115481527D03*
%TO.N,Net-(D4-K)*%
X147006939Y-115456127D03*
%TO.N,Net-(D5-K)*%
X168012741Y-75933727D03*
%TO.N,+3.3V*%
X171826341Y-113622927D03*
X173194341Y-105169127D03*
X160750309Y-89703727D03*
X134956336Y-119375432D03*
X134956341Y-117142927D03*
X157098949Y-88704742D03*
X166481142Y-90652927D03*
X136846941Y-102593520D03*
X171826341Y-110972927D03*
X180136341Y-103752927D03*
%TO.N,GNDA*%
X112894741Y-98895327D03*
X109948341Y-84772927D03*
X156902405Y-99875165D03*
X118076341Y-84645927D03*
X128080141Y-106261327D03*
X147875857Y-95470143D03*
X125130654Y-107589012D03*
X156313545Y-97742129D03*
X129564341Y-90614927D03*
X131614541Y-92113527D03*
X120057541Y-102654527D03*
X124985141Y-92748527D03*
X155592139Y-101760384D03*
X108525941Y-103772127D03*
X151858341Y-96202927D03*
X103090341Y-91376927D03*
X126204341Y-92646927D03*
X118381141Y-111544527D03*
%TO.N,/RX0*%
X171158421Y-107115112D03*
X178172741Y-96660127D03*
X161141941Y-87033526D03*
%TO.N,/TX0*%
X175353341Y-105473927D03*
X178204826Y-98825814D03*
X160291131Y-86042927D03*
%TO.N,Vin*%
X172737141Y-99113727D03*
%TO.N,/PC5_D1*%
X160419934Y-94130855D03*
X149572341Y-112966927D03*
%TO.N,/PC7_D3*%
X158719422Y-94401561D03*
X159783141Y-114846527D03*
%TO.N,/PC6_D2*%
X159489709Y-93763860D03*
X157217741Y-109537927D03*
%TO.N,/TX1*%
X179391941Y-85534927D03*
X166031541Y-84518925D03*
%TO.N,/RX1*%
X179341141Y-87058927D03*
X162018341Y-84112527D03*
%TO.N,/SCLK*%
X154085390Y-86329368D03*
%TO.N,/MOSI*%
X151655141Y-84163327D03*
%TO.N,/MISO*%
X153096509Y-86180641D03*
%TO.N,/CS1*%
X149826341Y-85865127D03*
%TO.N,/EXT_B1*%
X149775541Y-108699725D03*
X153104510Y-87820727D03*
%TO.N,/EXT_B0*%
X120406341Y-106103427D03*
X153867397Y-88541710D03*
%TO.N,/EXT_A0*%
X131705596Y-109955328D03*
X148117027Y-92350870D03*
%TO.N,/EXT_A1*%
X146829141Y-93552927D03*
X110343536Y-93343932D03*
X133956341Y-105016727D03*
X126926169Y-98476098D03*
X108144947Y-95313927D03*
%TO.N,unconnected-(U2-(PCINT2{slash}ADC2)PA2-Pad35)*%
X127474341Y-93434327D03*
X147972141Y-98514327D03*
%TO.N,unconnected-(U2-(PCINT31{slash}OC2A)PD7-Pad16)*%
X148149941Y-87160527D03*
X160096262Y-88697631D03*
%TD*%
D31*
%TO.N,*%
X153622341Y-99756927D02*
X151668341Y-99756927D01*
X153622341Y-102256927D02*
X151255641Y-102256927D01*
D32*
X151401141Y-97589727D02*
X149267541Y-97589727D01*
D31*
X151668341Y-99756927D02*
X151401141Y-99489727D01*
X151401141Y-99489727D02*
X149267541Y-99489727D01*
D32*
X153289541Y-97589727D02*
X153622341Y-97256927D01*
D31*
X168026341Y-117916927D02*
X168026341Y-116763325D01*
X147921341Y-99708127D02*
X149049141Y-99708127D01*
X179417341Y-114211499D02*
X179442755Y-114236913D01*
D33*
X180560341Y-114264950D02*
X180595156Y-114230135D01*
D31*
X168026341Y-116763325D02*
X168063539Y-116726127D01*
X179417341Y-108623527D02*
X179417341Y-114211499D01*
X182236741Y-105804127D02*
X179417341Y-108623527D01*
X179442755Y-114236913D02*
X172808702Y-114236913D01*
X180814341Y-120078927D02*
X179442755Y-118707341D01*
X149049141Y-99708127D02*
X149267541Y-99489727D01*
X163026341Y-117916927D02*
X163026341Y-116734127D01*
D33*
X153622341Y-104620057D02*
X152724916Y-103722632D01*
D31*
X163026341Y-116734127D02*
X163034341Y-116726127D01*
X172808702Y-114236913D02*
X172084160Y-114961455D01*
X151255641Y-102256927D02*
X151246841Y-102248127D01*
X182236741Y-94069327D02*
X182236741Y-105804127D01*
X179442755Y-118707341D02*
X179442755Y-114236913D01*
D33*
X180560341Y-116649927D02*
X180560341Y-114264950D01*
D32*
X151401141Y-97589727D02*
X153289541Y-97589727D01*
D31*
X153379341Y-99999927D02*
X153622341Y-99756927D01*
D33*
X153622341Y-104756927D02*
X153622341Y-104620057D01*
D31*
%TO.N,GND*%
X153622341Y-94756927D02*
X153542341Y-94836927D01*
D34*
X168066341Y-84222927D02*
X168066341Y-87512091D01*
D31*
X150958441Y-92256927D02*
X150942041Y-92240527D01*
X151246841Y-107175727D02*
X153611141Y-107175727D01*
D34*
X168066341Y-87512091D02*
X167930923Y-87647509D01*
D31*
X151258041Y-107186927D02*
X151246841Y-107175727D01*
X153622341Y-92256927D02*
X150958441Y-92256927D01*
X153622341Y-94756927D02*
X151016441Y-94756927D01*
X151016441Y-94756927D02*
X150942041Y-94831327D01*
X153611141Y-107175727D02*
X153622341Y-107186927D01*
%TO.N,/~{RST}_PRG*%
X142486341Y-93382927D02*
X140783941Y-95085327D01*
%TO.N,Net-(D6-K)*%
X158026341Y-117916927D02*
X158026341Y-116340927D01*
X158026341Y-116340927D02*
X157065341Y-115379927D01*
%TO.N,Net-(D3-K)*%
X153026341Y-117916927D02*
X153026341Y-116370127D01*
X153026341Y-116370127D02*
X152137741Y-115481527D01*
%TO.N,Net-(D4-K)*%
X148026341Y-117916927D02*
X148026341Y-116475529D01*
X148026341Y-116475529D02*
X147006939Y-115456127D01*
%TO.N,Net-(D5-K)*%
X168026341Y-75947327D02*
X168012741Y-75933727D01*
X168026341Y-77276927D02*
X168026341Y-75947327D01*
D35*
%TO.N,+3.3V*%
X163026341Y-120716927D02*
X168026341Y-120716927D01*
D34*
X169596341Y-83262927D02*
X169596341Y-87537728D01*
D35*
X170622341Y-114796927D02*
X170622341Y-118120927D01*
D31*
X158094734Y-89700527D02*
X157098949Y-88704742D01*
D35*
X163026341Y-120716927D02*
X158026341Y-120716927D01*
X180136341Y-103752927D02*
X174610541Y-103752927D01*
D31*
X160747109Y-89700527D02*
X158094734Y-89700527D01*
D35*
X170622341Y-118120927D02*
X168026341Y-120716927D01*
D34*
X168026341Y-80076927D02*
X168026341Y-81692927D01*
D35*
X174610541Y-103752927D02*
X173194341Y-105169127D01*
X173194341Y-109604927D02*
X173194341Y-105169127D01*
D34*
X169596341Y-87537728D02*
X166481142Y-90652927D01*
D35*
X171826341Y-113622927D02*
X171796341Y-113622927D01*
D31*
X160750309Y-89703727D02*
X160747109Y-89700527D01*
D35*
X171826341Y-110972927D02*
X173194341Y-109604927D01*
D34*
X168026341Y-81692927D02*
X169596341Y-83262927D01*
D35*
X171826341Y-111442927D02*
X171826341Y-110972927D01*
X171826341Y-113622927D02*
X171826341Y-111442927D01*
X171796341Y-113622927D02*
X170622341Y-114796927D01*
D31*
%TO.N,Vin*%
X153026341Y-120716927D02*
X148026341Y-120716927D01*
X172721941Y-99113727D02*
X172737141Y-99113727D01*
X154880941Y-119215327D02*
X159299941Y-119215327D01*
X161180141Y-113957527D02*
X161180141Y-110655527D01*
X153026341Y-120716927D02*
X153379341Y-120716927D01*
X161180141Y-110655527D02*
X172721941Y-99113727D01*
X153379341Y-120716927D02*
X154880941Y-119215327D01*
X161180141Y-117335127D02*
X161180141Y-113957527D01*
X159299941Y-119215327D02*
X161180141Y-117335127D01*
%TO.N,/SCLK*%
X155133770Y-87377748D02*
X155113041Y-87357019D01*
X154284341Y-86528319D02*
X154085390Y-86329368D01*
X155133770Y-93229956D02*
X155133770Y-87377748D01*
X149421841Y-102248127D02*
X145406741Y-102248127D01*
X150844241Y-100825727D02*
X157547941Y-100825727D01*
X155104442Y-87357019D02*
X154284341Y-86536918D01*
X158081341Y-100292327D02*
X158081341Y-96177527D01*
X158081341Y-96177527D02*
X155133770Y-93229956D01*
X154284341Y-86536918D02*
X154284341Y-86528319D01*
X155113041Y-87357019D02*
X155104442Y-87357019D01*
X145406741Y-102248127D02*
X140783941Y-97625327D01*
X157547941Y-100825727D02*
X158081341Y-100292327D01*
X149421841Y-102248127D02*
X150844241Y-100825727D01*
%TO.N,/MISO*%
X155811141Y-92738927D02*
X155811141Y-87201544D01*
X150641041Y-105956527D02*
X154626941Y-105956527D01*
X155366616Y-86757019D02*
X155352970Y-86757019D01*
X153748028Y-85529122D02*
X153096509Y-86180641D01*
X155811141Y-87201544D02*
X155366616Y-86757019D01*
X155352970Y-86757019D02*
X154884341Y-86288390D01*
X149421841Y-107175727D02*
X150641041Y-105956527D01*
X158884541Y-101698927D02*
X158884541Y-95812327D01*
X154421562Y-85529122D02*
X153748028Y-85529122D01*
X154884341Y-85991901D02*
X154421562Y-85529122D01*
X147794341Y-107175727D02*
X140783941Y-100165327D01*
X158884541Y-95812327D02*
X155811141Y-92738927D01*
X154626941Y-105956527D02*
X158884541Y-101698927D01*
X154884341Y-86288390D02*
X154884341Y-85991901D01*
X149421841Y-107175727D02*
X147794341Y-107175727D01*
%TO.N,/CS1*%
X149421841Y-92240527D02*
X149421841Y-88479427D01*
X149421841Y-88479427D02*
X149826341Y-88074927D01*
X149826341Y-88074927D02*
X149826341Y-85865127D01*
%TD*%
%TA.AperFunction,Conductor*%
%TO.N,GND*%
G36*
X189907032Y-73880334D02*
G01*
X189942996Y-73929834D01*
X189947841Y-73960427D01*
X189947841Y-124033427D01*
X189928934Y-124091618D01*
X189879434Y-124127582D01*
X189848841Y-124132427D01*
X99135841Y-124132427D01*
X99077650Y-124113520D01*
X99041686Y-124064020D01*
X99036841Y-124033427D01*
X99036841Y-121402783D01*
X125711841Y-121402783D01*
X125711841Y-121599870D01*
X125750290Y-121793161D01*
X125750290Y-121793163D01*
X125825708Y-121975240D01*
X125825709Y-121975241D01*
X125935202Y-122139109D01*
X126074559Y-122278466D01*
X126238427Y-122387959D01*
X126420506Y-122463378D01*
X126613800Y-122501827D01*
X126613801Y-122501827D01*
X126810881Y-122501827D01*
X126810882Y-122501827D01*
X127004176Y-122463378D01*
X127186255Y-122387959D01*
X127350123Y-122278466D01*
X127489480Y-122139109D01*
X127598973Y-121975241D01*
X127674392Y-121793162D01*
X127712841Y-121599868D01*
X127712841Y-121402786D01*
X127674392Y-121209492D01*
X127598973Y-121027413D01*
X127489480Y-120863545D01*
X127350123Y-120724188D01*
X127186255Y-120614695D01*
X127186256Y-120614695D01*
X127186254Y-120614694D01*
X127004176Y-120539276D01*
X126810884Y-120500827D01*
X126810882Y-120500827D01*
X126613800Y-120500827D01*
X126613797Y-120500827D01*
X126420506Y-120539276D01*
X126420504Y-120539276D01*
X126238427Y-120614694D01*
X126074559Y-120724188D01*
X126074555Y-120724191D01*
X125935205Y-120863541D01*
X125935202Y-120863545D01*
X125825708Y-121027413D01*
X125750290Y-121209490D01*
X125750290Y-121209492D01*
X125711841Y-121402783D01*
X99036841Y-121402783D01*
X99036841Y-120287652D01*
X146950841Y-120287652D01*
X146950841Y-121146201D01*
X146953694Y-121176621D01*
X146953696Y-121176630D01*
X146998548Y-121304810D01*
X147079186Y-121414071D01*
X147079188Y-121414073D01*
X147079191Y-121414077D01*
X147079194Y-121414079D01*
X147079196Y-121414081D01*
X147188457Y-121494719D01*
X147188458Y-121494719D01*
X147188459Y-121494720D01*
X147316642Y-121539573D01*
X147347066Y-121542426D01*
X147347068Y-121542427D01*
X147347075Y-121542427D01*
X148705614Y-121542427D01*
X148705614Y-121542426D01*
X148736040Y-121539573D01*
X148864223Y-121494720D01*
X148973491Y-121414077D01*
X149054134Y-121304809D01*
X149087487Y-121209492D01*
X149096502Y-121183729D01*
X149133567Y-121135049D01*
X149189946Y-121117427D01*
X151862736Y-121117427D01*
X151920927Y-121136334D01*
X151956180Y-121183729D01*
X151998548Y-121304810D01*
X152079186Y-121414071D01*
X152079188Y-121414073D01*
X152079191Y-121414077D01*
X152079194Y-121414079D01*
X152079196Y-121414081D01*
X152188457Y-121494719D01*
X152188458Y-121494719D01*
X152188459Y-121494720D01*
X152316642Y-121539573D01*
X152347066Y-121542426D01*
X152347068Y-121542427D01*
X152347075Y-121542427D01*
X153705614Y-121542427D01*
X153705614Y-121542426D01*
X153736040Y-121539573D01*
X153864223Y-121494720D01*
X153973491Y-121414077D01*
X154054134Y-121304809D01*
X154098987Y-121176626D01*
X154101840Y-121146200D01*
X154101841Y-121146200D01*
X154101841Y-120601828D01*
X154120748Y-120543637D01*
X154130837Y-120531824D01*
X155017838Y-119644823D01*
X155072355Y-119617046D01*
X155087842Y-119615827D01*
X156989334Y-119615827D01*
X157047525Y-119634734D01*
X157083489Y-119684234D01*
X157083489Y-119745420D01*
X157047525Y-119794920D01*
X157039729Y-119800040D01*
X156999479Y-119823843D01*
X156883259Y-119940063D01*
X156799597Y-120081529D01*
X156753744Y-120239354D01*
X156753742Y-120239361D01*
X156750841Y-120276238D01*
X156750841Y-121157615D01*
X156753742Y-121194492D01*
X156753742Y-121194495D01*
X156753743Y-121194496D01*
X156799597Y-121352325D01*
X156883260Y-121493792D01*
X156999476Y-121610008D01*
X157140943Y-121693671D01*
X157298772Y-121739525D01*
X157335647Y-121742427D01*
X157335652Y-121742427D01*
X158717030Y-121742427D01*
X158717035Y-121742427D01*
X158753910Y-121739525D01*
X158911739Y-121693671D01*
X159053206Y-121610008D01*
X159166792Y-121496421D01*
X159221307Y-121468646D01*
X159236794Y-121467427D01*
X168100258Y-121467427D01*
X168100259Y-121467427D01*
X168245254Y-121438585D01*
X168381836Y-121382011D01*
X168431070Y-121349113D01*
X168504757Y-121299879D01*
X171205292Y-118599343D01*
X171287425Y-118476422D01*
X171343999Y-118339840D01*
X171372841Y-118194845D01*
X171372841Y-118047010D01*
X171372841Y-115299887D01*
X171391748Y-115241696D01*
X171441248Y-115205732D01*
X171502434Y-115205732D01*
X171551934Y-115241696D01*
X171557569Y-115250374D01*
X171603640Y-115330171D01*
X171715444Y-115441975D01*
X171852376Y-115521032D01*
X172005103Y-115561955D01*
X172005105Y-115561955D01*
X172163215Y-115561955D01*
X172163217Y-115561955D01*
X172315944Y-115521032D01*
X172452876Y-115441975D01*
X172564680Y-115330171D01*
X172643737Y-115193239D01*
X172684660Y-115040512D01*
X172684660Y-114968356D01*
X172703567Y-114910165D01*
X172713656Y-114898352D01*
X172945599Y-114666409D01*
X173000116Y-114638632D01*
X173015603Y-114637413D01*
X178943255Y-114637413D01*
X179001446Y-114656320D01*
X179037410Y-114705820D01*
X179042255Y-114736413D01*
X179042255Y-118654614D01*
X179042255Y-118760068D01*
X179064240Y-118842120D01*
X179069549Y-118861933D01*
X179122271Y-118953249D01*
X179122273Y-118953251D01*
X179122275Y-118953254D01*
X179688372Y-119519350D01*
X180184845Y-120015823D01*
X180212622Y-120070340D01*
X180213841Y-120085827D01*
X180213841Y-120157984D01*
X180254764Y-120310711D01*
X180333821Y-120447643D01*
X180445625Y-120559447D01*
X180582557Y-120638504D01*
X180735284Y-120679427D01*
X180735286Y-120679427D01*
X180893396Y-120679427D01*
X180893398Y-120679427D01*
X181046125Y-120638504D01*
X181183057Y-120559447D01*
X181294861Y-120447643D01*
X181373918Y-120310711D01*
X181414841Y-120157984D01*
X181414841Y-119999870D01*
X181373918Y-119847143D01*
X181294861Y-119710211D01*
X181183057Y-119598407D01*
X181046125Y-119519350D01*
X180893398Y-119478427D01*
X180893396Y-119478427D01*
X180821241Y-119478427D01*
X180763050Y-119459520D01*
X180751237Y-119449431D01*
X179872251Y-118570444D01*
X179844474Y-118515927D01*
X179843255Y-118500440D01*
X179843255Y-116978370D01*
X179862162Y-116920179D01*
X179911662Y-116884215D01*
X179972848Y-116884215D01*
X180022348Y-116920179D01*
X180027983Y-116928856D01*
X180079821Y-117018643D01*
X180191625Y-117130447D01*
X180328557Y-117209504D01*
X180481284Y-117250427D01*
X180481286Y-117250427D01*
X180639396Y-117250427D01*
X180639398Y-117250427D01*
X180792125Y-117209504D01*
X180929057Y-117130447D01*
X181040861Y-117018643D01*
X181119918Y-116881711D01*
X181160841Y-116728984D01*
X181160841Y-116570870D01*
X181119918Y-116418143D01*
X181040861Y-116281211D01*
X180939835Y-116180185D01*
X180912060Y-116125671D01*
X180910841Y-116110184D01*
X180910841Y-114798429D01*
X180929748Y-114740238D01*
X180960340Y-114712693D01*
X180963872Y-114710655D01*
X181075676Y-114598851D01*
X181154733Y-114461919D01*
X181195656Y-114309192D01*
X181195656Y-114151078D01*
X181154733Y-113998351D01*
X181075676Y-113861419D01*
X180963872Y-113749615D01*
X180826940Y-113670558D01*
X180674213Y-113629635D01*
X180516099Y-113629635D01*
X180363372Y-113670558D01*
X180226440Y-113749615D01*
X180114634Y-113861421D01*
X180102733Y-113882034D01*
X180057262Y-113922974D01*
X179996412Y-113929368D01*
X179943563Y-113898927D01*
X179936518Y-113891135D01*
X179923275Y-113868197D01*
X179845084Y-113790006D01*
X179843406Y-113788150D01*
X179831871Y-113762385D01*
X179819060Y-113737241D01*
X179818728Y-113733028D01*
X179818405Y-113732306D01*
X179818598Y-113731384D01*
X179817841Y-113721755D01*
X179817841Y-108830426D01*
X179836748Y-108772235D01*
X179846831Y-108760428D01*
X182482651Y-106124608D01*
X182482654Y-106124607D01*
X182557221Y-106050040D01*
X182609948Y-105958714D01*
X182612594Y-105948840D01*
X182637242Y-105856854D01*
X182637242Y-105751400D01*
X182637242Y-105745338D01*
X182637241Y-105745320D01*
X182637241Y-94559070D01*
X182656148Y-94500879D01*
X182666231Y-94489072D01*
X182717261Y-94438043D01*
X182796318Y-94301111D01*
X182837241Y-94148384D01*
X182837241Y-93990270D01*
X182796318Y-93837543D01*
X182717261Y-93700611D01*
X182605457Y-93588807D01*
X182468525Y-93509750D01*
X182315798Y-93468827D01*
X182157684Y-93468827D01*
X182004957Y-93509750D01*
X181868025Y-93588807D01*
X181756221Y-93700611D01*
X181677164Y-93837543D01*
X181636241Y-93990270D01*
X181636241Y-94148384D01*
X181677164Y-94301111D01*
X181756221Y-94438043D01*
X181807246Y-94489068D01*
X181835022Y-94543583D01*
X181836241Y-94559070D01*
X181836241Y-105597226D01*
X181817334Y-105655417D01*
X181807245Y-105667230D01*
X179096857Y-108377618D01*
X179044134Y-108468938D01*
X179044133Y-108468938D01*
X179044134Y-108468939D01*
X179016841Y-108570800D01*
X179016841Y-113737413D01*
X178997934Y-113795604D01*
X178948434Y-113831568D01*
X178917841Y-113836413D01*
X172755972Y-113836413D01*
X172745056Y-113839338D01*
X172683955Y-113836133D01*
X172636407Y-113797625D01*
X172620574Y-113738524D01*
X172622341Y-113724395D01*
X172626839Y-113701779D01*
X172626841Y-113701767D01*
X172626841Y-113544086D01*
X172626840Y-113544082D01*
X172623343Y-113526503D01*
X172596078Y-113389430D01*
X172584375Y-113361177D01*
X172576841Y-113323295D01*
X172576841Y-111324801D01*
X172595748Y-111266610D01*
X172605831Y-111254803D01*
X173777292Y-110083343D01*
X173859425Y-109960422D01*
X173915999Y-109823840D01*
X173944841Y-109678845D01*
X173944841Y-109531010D01*
X173944841Y-109443870D01*
X176675841Y-109443870D01*
X176675841Y-109601984D01*
X176716764Y-109754711D01*
X176795821Y-109891643D01*
X176907625Y-110003447D01*
X177044557Y-110082504D01*
X177197284Y-110123427D01*
X177197286Y-110123427D01*
X177355396Y-110123427D01*
X177355398Y-110123427D01*
X177508125Y-110082504D01*
X177645057Y-110003447D01*
X177756861Y-109891643D01*
X177835918Y-109754711D01*
X177876841Y-109601984D01*
X177876841Y-109443870D01*
X177835918Y-109291143D01*
X177756861Y-109154211D01*
X177645057Y-109042407D01*
X177508125Y-108963350D01*
X177355398Y-108922427D01*
X177197284Y-108922427D01*
X177044557Y-108963350D01*
X176907625Y-109042407D01*
X176795821Y-109154211D01*
X176716764Y-109291143D01*
X176675841Y-109443870D01*
X173944841Y-109443870D01*
X173944841Y-105521002D01*
X173947309Y-105513404D01*
X173946060Y-105505515D01*
X173956584Y-105484859D01*
X173963748Y-105462811D01*
X173973837Y-105450998D01*
X174029965Y-105394870D01*
X174752841Y-105394870D01*
X174752841Y-105552984D01*
X174793764Y-105705711D01*
X174872821Y-105842643D01*
X174984625Y-105954447D01*
X175121557Y-106033504D01*
X175274284Y-106074427D01*
X175274286Y-106074427D01*
X175432396Y-106074427D01*
X175432398Y-106074427D01*
X175585125Y-106033504D01*
X175722057Y-105954447D01*
X175833861Y-105842643D01*
X175912918Y-105705711D01*
X175921343Y-105674270D01*
X176149841Y-105674270D01*
X176149841Y-105832384D01*
X176190764Y-105985111D01*
X176269821Y-106122043D01*
X176381625Y-106233847D01*
X176518557Y-106312904D01*
X176671284Y-106353827D01*
X176671286Y-106353827D01*
X176829396Y-106353827D01*
X176829398Y-106353827D01*
X176982125Y-106312904D01*
X177119057Y-106233847D01*
X177230861Y-106122043D01*
X177309918Y-105985111D01*
X177350841Y-105832384D01*
X177350841Y-105674270D01*
X177309918Y-105521543D01*
X177230861Y-105384611D01*
X177119057Y-105272807D01*
X176982125Y-105193750D01*
X176829398Y-105152827D01*
X176671284Y-105152827D01*
X176518557Y-105193750D01*
X176381625Y-105272807D01*
X176269821Y-105384611D01*
X176190764Y-105521543D01*
X176149841Y-105674270D01*
X175921343Y-105674270D01*
X175953841Y-105552984D01*
X175953841Y-105394870D01*
X175912918Y-105242143D01*
X175833861Y-105105211D01*
X175722057Y-104993407D01*
X175585125Y-104914350D01*
X175432398Y-104873427D01*
X175274284Y-104873427D01*
X175121557Y-104914350D01*
X174984625Y-104993407D01*
X174872821Y-105105211D01*
X174793764Y-105242143D01*
X174752841Y-105394870D01*
X174029965Y-105394870D01*
X174892412Y-104532423D01*
X174946929Y-104504646D01*
X174962416Y-104503427D01*
X179836710Y-104503427D01*
X179874594Y-104510962D01*
X179902844Y-104522664D01*
X180057499Y-104553427D01*
X180057500Y-104553427D01*
X180215182Y-104553427D01*
X180215183Y-104553427D01*
X180369838Y-104522664D01*
X180515520Y-104462321D01*
X180646630Y-104374716D01*
X180758130Y-104263216D01*
X180845735Y-104132106D01*
X180906078Y-103986424D01*
X180936841Y-103831769D01*
X180936841Y-103674085D01*
X180906078Y-103519430D01*
X180854132Y-103394020D01*
X180845737Y-103373752D01*
X180845731Y-103373741D01*
X180807383Y-103316350D01*
X180758130Y-103242638D01*
X180646630Y-103131138D01*
X180572831Y-103081827D01*
X180515526Y-103043536D01*
X180515515Y-103043530D01*
X180369838Y-102983190D01*
X180215185Y-102952427D01*
X180215183Y-102952427D01*
X180057499Y-102952427D01*
X180057496Y-102952427D01*
X179902844Y-102983190D01*
X179902842Y-102983190D01*
X179874595Y-102994891D01*
X179836710Y-103002427D01*
X174536622Y-103002427D01*
X174391626Y-103031269D01*
X174255048Y-103087841D01*
X174132125Y-103169975D01*
X172875526Y-104426571D01*
X172843412Y-104448030D01*
X172815164Y-104459731D01*
X172684052Y-104547338D01*
X172684048Y-104547341D01*
X172572555Y-104658834D01*
X172572552Y-104658838D01*
X172484950Y-104789941D01*
X172484944Y-104789952D01*
X172424604Y-104935628D01*
X172424604Y-104935630D01*
X172393841Y-105090282D01*
X172393841Y-105247971D01*
X172414349Y-105351072D01*
X172421186Y-105385443D01*
X172424604Y-105402623D01*
X172424604Y-105402625D01*
X172436305Y-105430873D01*
X172443841Y-105468758D01*
X172443841Y-105903384D01*
X172424934Y-105961575D01*
X172375434Y-105997539D01*
X172314248Y-105997539D01*
X172291013Y-105985315D01*
X172290819Y-105985652D01*
X172285202Y-105982409D01*
X172285200Y-105982407D01*
X172148268Y-105903350D01*
X171995541Y-105862427D01*
X171837427Y-105862427D01*
X171684700Y-105903350D01*
X171547768Y-105982407D01*
X171435964Y-106094211D01*
X171356907Y-106231143D01*
X171329023Y-106335210D01*
X171315984Y-106383871D01*
X171315984Y-106415612D01*
X171297077Y-106473803D01*
X171247577Y-106509767D01*
X171216984Y-106514612D01*
X171079364Y-106514612D01*
X170926637Y-106555535D01*
X170789705Y-106634592D01*
X170677901Y-106746396D01*
X170598844Y-106883328D01*
X170557921Y-107036055D01*
X170557921Y-107194169D01*
X170598844Y-107346896D01*
X170677901Y-107483828D01*
X170789705Y-107595632D01*
X170926637Y-107674689D01*
X171079364Y-107715612D01*
X171079366Y-107715612D01*
X171237476Y-107715612D01*
X171237478Y-107715612D01*
X171390205Y-107674689D01*
X171527137Y-107595632D01*
X171638941Y-107483828D01*
X171717998Y-107346896D01*
X171758921Y-107194169D01*
X171758921Y-107162427D01*
X171777828Y-107104236D01*
X171827328Y-107068272D01*
X171857921Y-107063427D01*
X171995539Y-107063427D01*
X171995541Y-107063427D01*
X172148268Y-107022504D01*
X172285200Y-106943447D01*
X172285202Y-106943444D01*
X172290819Y-106940202D01*
X172291544Y-106941458D01*
X172342247Y-106923503D01*
X172400914Y-106940879D01*
X172438162Y-106989420D01*
X172443841Y-107022469D01*
X172443841Y-109253050D01*
X172424934Y-109311241D01*
X172414845Y-109323054D01*
X171507527Y-110230371D01*
X171475412Y-110251830D01*
X171447164Y-110263531D01*
X171316052Y-110351138D01*
X171316048Y-110351141D01*
X171204555Y-110462634D01*
X171204552Y-110462638D01*
X171116950Y-110593741D01*
X171116944Y-110593752D01*
X171056604Y-110739428D01*
X171056604Y-110739430D01*
X171025841Y-110894082D01*
X171025841Y-111051771D01*
X171056604Y-111206423D01*
X171056604Y-111206425D01*
X171068305Y-111234673D01*
X171075841Y-111272558D01*
X171075841Y-113241051D01*
X171056934Y-113299242D01*
X171046845Y-113311055D01*
X170039386Y-114318514D01*
X170002696Y-114373427D01*
X169957255Y-114441434D01*
X169900683Y-114578012D01*
X169871841Y-114723008D01*
X169871841Y-117769051D01*
X169852934Y-117827242D01*
X169842845Y-117839055D01*
X167744469Y-119937431D01*
X167689952Y-119965208D01*
X167674465Y-119966427D01*
X159236794Y-119966427D01*
X159178603Y-119947520D01*
X159166796Y-119937436D01*
X159053206Y-119823846D01*
X159053203Y-119823844D01*
X159053202Y-119823843D01*
X159012953Y-119800040D01*
X158972490Y-119754145D01*
X158966732Y-119693231D01*
X158997878Y-119640566D01*
X159054031Y-119616266D01*
X159063348Y-119615827D01*
X159352666Y-119615827D01*
X159352668Y-119615827D01*
X159454529Y-119588534D01*
X159454531Y-119588532D01*
X159454533Y-119588532D01*
X159545849Y-119535810D01*
X159545849Y-119535809D01*
X159545854Y-119535807D01*
X161500621Y-117581040D01*
X161528457Y-117532827D01*
X161553348Y-117489714D01*
X161580641Y-117387854D01*
X161580641Y-116647070D01*
X162433841Y-116647070D01*
X162433841Y-116805184D01*
X162474764Y-116957911D01*
X162553821Y-117094843D01*
X162596846Y-117137868D01*
X162624622Y-117192383D01*
X162625841Y-117207870D01*
X162625841Y-117969654D01*
X162653134Y-118071514D01*
X162653135Y-118071516D01*
X162653135Y-118071517D01*
X162705859Y-118162837D01*
X162705861Y-118162840D01*
X162780428Y-118237407D01*
X162871754Y-118290134D01*
X162973614Y-118317427D01*
X162973616Y-118317427D01*
X163079066Y-118317427D01*
X163079068Y-118317427D01*
X163180928Y-118290134D01*
X163272254Y-118237407D01*
X163346821Y-118162840D01*
X163399548Y-118071514D01*
X163426841Y-117969654D01*
X163426841Y-117223870D01*
X163445748Y-117165679D01*
X163455831Y-117153872D01*
X163514861Y-117094843D01*
X163593918Y-116957911D01*
X163634841Y-116805184D01*
X163634841Y-116647070D01*
X167463039Y-116647070D01*
X167463039Y-116805184D01*
X167503962Y-116957911D01*
X167583019Y-117094843D01*
X167596846Y-117108670D01*
X167624622Y-117163185D01*
X167625841Y-117178672D01*
X167625841Y-117969654D01*
X167653134Y-118071514D01*
X167653135Y-118071516D01*
X167653135Y-118071517D01*
X167705859Y-118162837D01*
X167705861Y-118162840D01*
X167780428Y-118237407D01*
X167871754Y-118290134D01*
X167973614Y-118317427D01*
X167973616Y-118317427D01*
X168079066Y-118317427D01*
X168079068Y-118317427D01*
X168180928Y-118290134D01*
X168272254Y-118237407D01*
X168346821Y-118162840D01*
X168399548Y-118071514D01*
X168426841Y-117969654D01*
X168426841Y-117253068D01*
X168445748Y-117194877D01*
X168455831Y-117183070D01*
X168544059Y-117094843D01*
X168623116Y-116957911D01*
X168664039Y-116805184D01*
X168664039Y-116647070D01*
X168623116Y-116494343D01*
X168544059Y-116357411D01*
X168432255Y-116245607D01*
X168295323Y-116166550D01*
X168142596Y-116125627D01*
X167984482Y-116125627D01*
X167831755Y-116166550D01*
X167694823Y-116245607D01*
X167583019Y-116357411D01*
X167503962Y-116494343D01*
X167463039Y-116647070D01*
X163634841Y-116647070D01*
X163593918Y-116494343D01*
X163514861Y-116357411D01*
X163403057Y-116245607D01*
X163266125Y-116166550D01*
X163113398Y-116125627D01*
X162955284Y-116125627D01*
X162802557Y-116166550D01*
X162665625Y-116245607D01*
X162553821Y-116357411D01*
X162474764Y-116494343D01*
X162433841Y-116647070D01*
X161580641Y-116647070D01*
X161580641Y-113904800D01*
X161580641Y-112323870D01*
X167705841Y-112323870D01*
X167705841Y-112481984D01*
X167746764Y-112634711D01*
X167825821Y-112771643D01*
X167937625Y-112883447D01*
X168074557Y-112962504D01*
X168227284Y-113003427D01*
X168227286Y-113003427D01*
X168385396Y-113003427D01*
X168385398Y-113003427D01*
X168538125Y-112962504D01*
X168675057Y-112883447D01*
X168786861Y-112771643D01*
X168865918Y-112634711D01*
X168906841Y-112481984D01*
X168906841Y-112323870D01*
X168865918Y-112171143D01*
X168786861Y-112034211D01*
X168675057Y-111922407D01*
X168538125Y-111843350D01*
X168385398Y-111802427D01*
X168227284Y-111802427D01*
X168074557Y-111843350D01*
X167937625Y-111922407D01*
X167825821Y-112034211D01*
X167746764Y-112171143D01*
X167705841Y-112323870D01*
X161580641Y-112323870D01*
X161580641Y-110862428D01*
X161599548Y-110804237D01*
X161609637Y-110792424D01*
X169578195Y-102823866D01*
X170045841Y-102823866D01*
X170045841Y-102981980D01*
X170086764Y-103134707D01*
X170165821Y-103271639D01*
X170277625Y-103383443D01*
X170414557Y-103462500D01*
X170567284Y-103503423D01*
X170567286Y-103503423D01*
X170725396Y-103503423D01*
X170725398Y-103503423D01*
X170878125Y-103462500D01*
X171015057Y-103383443D01*
X171126861Y-103271639D01*
X171205918Y-103134707D01*
X171246841Y-102981980D01*
X171246841Y-102823866D01*
X171205918Y-102671139D01*
X171126861Y-102534207D01*
X171015057Y-102422403D01*
X170878125Y-102343346D01*
X170725398Y-102302423D01*
X170567284Y-102302423D01*
X170414557Y-102343346D01*
X170277625Y-102422403D01*
X170165821Y-102534207D01*
X170086764Y-102671139D01*
X170045841Y-102823866D01*
X169578195Y-102823866D01*
X172658838Y-99743223D01*
X172713355Y-99715446D01*
X172728842Y-99714227D01*
X172816196Y-99714227D01*
X172816198Y-99714227D01*
X172968925Y-99673304D01*
X173105857Y-99594247D01*
X173217661Y-99482443D01*
X173296718Y-99345511D01*
X173337641Y-99192784D01*
X173337641Y-99034670D01*
X173296718Y-98881943D01*
X173218669Y-98746757D01*
X177604326Y-98746757D01*
X177604326Y-98904871D01*
X177645249Y-99057598D01*
X177724306Y-99194530D01*
X177836110Y-99306334D01*
X177973042Y-99385391D01*
X178125769Y-99426314D01*
X178125771Y-99426314D01*
X178283881Y-99426314D01*
X178283883Y-99426314D01*
X178436610Y-99385391D01*
X178573542Y-99306334D01*
X178685346Y-99194530D01*
X178764403Y-99057598D01*
X178805326Y-98904871D01*
X178805326Y-98746757D01*
X178764403Y-98594030D01*
X178685346Y-98457098D01*
X178573542Y-98345294D01*
X178436610Y-98266237D01*
X178283883Y-98225314D01*
X178125769Y-98225314D01*
X177973042Y-98266237D01*
X177836110Y-98345294D01*
X177724306Y-98457098D01*
X177645249Y-98594030D01*
X177604326Y-98746757D01*
X173218669Y-98746757D01*
X173217661Y-98745011D01*
X173105857Y-98633207D01*
X172968925Y-98554150D01*
X172816198Y-98513227D01*
X172658084Y-98513227D01*
X172505357Y-98554150D01*
X172368425Y-98633207D01*
X172256621Y-98745011D01*
X172177564Y-98881943D01*
X172171421Y-98904871D01*
X172136641Y-99034671D01*
X172136641Y-99091626D01*
X172117734Y-99149817D01*
X172107645Y-99161630D01*
X160859657Y-110409618D01*
X160806934Y-110500938D01*
X160806933Y-110500938D01*
X160806934Y-110500939D01*
X160779641Y-110602800D01*
X160779641Y-117128226D01*
X160760734Y-117186417D01*
X160750645Y-117198230D01*
X159163044Y-118785831D01*
X159108527Y-118813608D01*
X159093040Y-118814827D01*
X159002342Y-118814827D01*
X158944151Y-118795920D01*
X158908187Y-118746420D01*
X158908187Y-118685234D01*
X158943554Y-118636172D01*
X158961174Y-118623166D01*
X158973491Y-118614077D01*
X159054134Y-118504809D01*
X159098987Y-118376626D01*
X159101840Y-118346200D01*
X159101841Y-118346200D01*
X159101841Y-117487654D01*
X159101840Y-117487652D01*
X159098987Y-117457232D01*
X159098987Y-117457228D01*
X159054134Y-117329045D01*
X158973491Y-117219777D01*
X158973487Y-117219774D01*
X158973485Y-117219772D01*
X158864224Y-117139134D01*
X158736044Y-117094282D01*
X158736035Y-117094280D01*
X158705615Y-117091427D01*
X158705607Y-117091427D01*
X158525841Y-117091427D01*
X158467650Y-117072520D01*
X158431686Y-117023020D01*
X158426841Y-116992427D01*
X158426841Y-116288201D01*
X158426841Y-116288200D01*
X158407372Y-116215539D01*
X158407372Y-116215538D01*
X158407372Y-116215537D01*
X158399548Y-116186339D01*
X158399546Y-116186335D01*
X158346824Y-116095018D01*
X158346823Y-116095017D01*
X158346822Y-116095016D01*
X158346821Y-116095014D01*
X157694837Y-115443030D01*
X157667060Y-115388513D01*
X157665841Y-115373026D01*
X157665841Y-115300871D01*
X157665841Y-115300870D01*
X157624918Y-115148143D01*
X157545861Y-115011211D01*
X157434057Y-114899407D01*
X157297125Y-114820350D01*
X157144398Y-114779427D01*
X156986284Y-114779427D01*
X156833557Y-114820350D01*
X156696625Y-114899407D01*
X156584821Y-115011211D01*
X156505764Y-115148143D01*
X156464841Y-115300870D01*
X156464841Y-115458984D01*
X156505764Y-115611711D01*
X156584821Y-115748643D01*
X156696625Y-115860447D01*
X156833557Y-115939504D01*
X156986284Y-115980427D01*
X157058440Y-115980427D01*
X157116631Y-115999334D01*
X157128444Y-116009423D01*
X157596845Y-116477824D01*
X157624622Y-116532341D01*
X157625841Y-116547828D01*
X157625841Y-116992427D01*
X157606934Y-117050618D01*
X157557434Y-117086582D01*
X157526841Y-117091427D01*
X157347066Y-117091427D01*
X157316646Y-117094280D01*
X157316637Y-117094282D01*
X157188457Y-117139134D01*
X157079196Y-117219772D01*
X157079186Y-117219782D01*
X156998548Y-117329043D01*
X156953696Y-117457223D01*
X156953694Y-117457232D01*
X156950841Y-117487652D01*
X156950841Y-118346201D01*
X156953694Y-118376621D01*
X156953696Y-118376630D01*
X156998548Y-118504810D01*
X157079186Y-118614071D01*
X157079188Y-118614073D01*
X157079191Y-118614077D01*
X157079194Y-118614079D01*
X157079196Y-118614081D01*
X157109128Y-118636172D01*
X157144721Y-118685940D01*
X157144263Y-118747123D01*
X157107930Y-118796353D01*
X157050340Y-118814827D01*
X154933668Y-118814827D01*
X154828214Y-118814827D01*
X154765870Y-118831531D01*
X154726348Y-118842121D01*
X154635032Y-118894843D01*
X153667444Y-119862431D01*
X153612927Y-119890208D01*
X153597440Y-119891427D01*
X152347066Y-119891427D01*
X152316646Y-119894280D01*
X152316637Y-119894282D01*
X152188457Y-119939134D01*
X152079196Y-120019772D01*
X152079186Y-120019782D01*
X151998548Y-120129043D01*
X151956180Y-120250125D01*
X151919115Y-120298805D01*
X151862736Y-120316427D01*
X149189946Y-120316427D01*
X149131755Y-120297520D01*
X149096502Y-120250125D01*
X149059776Y-120145169D01*
X149054134Y-120129045D01*
X149021496Y-120084822D01*
X148973495Y-120019782D01*
X148973493Y-120019780D01*
X148973491Y-120019777D01*
X148973487Y-120019774D01*
X148973485Y-120019772D01*
X148864224Y-119939134D01*
X148736044Y-119894282D01*
X148736035Y-119894280D01*
X148705615Y-119891427D01*
X148705607Y-119891427D01*
X147347075Y-119891427D01*
X147347066Y-119891427D01*
X147316646Y-119894280D01*
X147316637Y-119894282D01*
X147188457Y-119939134D01*
X147079196Y-120019772D01*
X147079186Y-120019782D01*
X146998548Y-120129043D01*
X146953696Y-120257223D01*
X146953694Y-120257232D01*
X146950841Y-120287652D01*
X99036841Y-120287652D01*
X99036841Y-119296587D01*
X134155836Y-119296587D01*
X134155836Y-119454276D01*
X134186599Y-119608928D01*
X134186599Y-119608930D01*
X134246939Y-119754606D01*
X134246945Y-119754617D01*
X134293201Y-119823843D01*
X134334547Y-119885721D01*
X134446047Y-119997221D01*
X134517282Y-120044819D01*
X134577150Y-120084822D01*
X134577161Y-120084828D01*
X134630974Y-120107117D01*
X134722839Y-120145169D01*
X134877494Y-120175932D01*
X134877495Y-120175932D01*
X135035177Y-120175932D01*
X135035178Y-120175932D01*
X135189833Y-120145169D01*
X135335515Y-120084826D01*
X135466625Y-119997221D01*
X135578125Y-119885721D01*
X135665730Y-119754611D01*
X135726073Y-119608929D01*
X135756836Y-119454274D01*
X135756836Y-119296590D01*
X135726073Y-119141935D01*
X135683262Y-119038579D01*
X135665732Y-118996257D01*
X135665726Y-118996246D01*
X135613931Y-118918731D01*
X135578125Y-118865143D01*
X135466625Y-118753643D01*
X135378441Y-118694720D01*
X135335521Y-118666041D01*
X135335510Y-118666035D01*
X135244335Y-118628270D01*
X138913441Y-118628270D01*
X138913441Y-118786384D01*
X138954364Y-118939111D01*
X139033421Y-119076043D01*
X139145225Y-119187847D01*
X139282157Y-119266904D01*
X139429653Y-119306425D01*
X139480965Y-119339748D01*
X139502892Y-119396869D01*
X139499655Y-119427673D01*
X139464193Y-119560022D01*
X139464193Y-119718136D01*
X139505116Y-119870863D01*
X139584173Y-120007795D01*
X139695977Y-120119599D01*
X139832909Y-120198656D01*
X139985636Y-120239579D01*
X139985638Y-120239579D01*
X140143748Y-120239579D01*
X140143750Y-120239579D01*
X140296477Y-120198656D01*
X140433409Y-120119599D01*
X140545213Y-120007795D01*
X140624270Y-119870863D01*
X140665193Y-119718136D01*
X140665193Y-119560022D01*
X140624270Y-119407295D01*
X140545213Y-119270363D01*
X140433409Y-119158559D01*
X140296477Y-119079502D01*
X140148981Y-119039980D01*
X140097667Y-119006657D01*
X140075741Y-118949535D01*
X140078977Y-118918735D01*
X140114441Y-118786384D01*
X140114441Y-118628270D01*
X140073518Y-118475543D01*
X139994461Y-118338611D01*
X139882657Y-118226807D01*
X139745725Y-118147750D01*
X139592998Y-118106827D01*
X139434884Y-118106827D01*
X139282157Y-118147750D01*
X139145225Y-118226807D01*
X139033421Y-118338611D01*
X138954364Y-118475543D01*
X138913441Y-118628270D01*
X135244335Y-118628270D01*
X135189833Y-118605695D01*
X135035180Y-118574932D01*
X135035178Y-118574932D01*
X134877494Y-118574932D01*
X134877491Y-118574932D01*
X134722839Y-118605695D01*
X134722837Y-118605695D01*
X134577161Y-118666035D01*
X134577150Y-118666041D01*
X134446047Y-118753643D01*
X134446043Y-118753646D01*
X134334550Y-118865139D01*
X134334547Y-118865143D01*
X134246945Y-118996246D01*
X134246939Y-118996257D01*
X134186599Y-119141933D01*
X134186599Y-119141935D01*
X134155836Y-119296587D01*
X99036841Y-119296587D01*
X99036841Y-117064082D01*
X134155841Y-117064082D01*
X134155841Y-117221771D01*
X134186604Y-117376423D01*
X134186604Y-117376425D01*
X134246944Y-117522101D01*
X134246950Y-117522112D01*
X134286323Y-117581037D01*
X134334552Y-117653216D01*
X134446052Y-117764716D01*
X134513913Y-117810059D01*
X134577155Y-117852317D01*
X134577166Y-117852323D01*
X134630979Y-117874612D01*
X134722844Y-117912664D01*
X134877499Y-117943427D01*
X134877500Y-117943427D01*
X135035182Y-117943427D01*
X135035183Y-117943427D01*
X135189838Y-117912664D01*
X135335520Y-117852321D01*
X135466630Y-117764716D01*
X135578130Y-117653216D01*
X135665735Y-117522106D01*
X135726078Y-117376424D01*
X135756841Y-117221769D01*
X135756841Y-117064085D01*
X135726078Y-116909430D01*
X135682898Y-116805184D01*
X135665737Y-116763752D01*
X135665731Y-116763741D01*
X135611400Y-116682430D01*
X135578130Y-116632638D01*
X135466630Y-116521138D01*
X135401806Y-116477824D01*
X135335526Y-116433536D01*
X135335515Y-116433530D01*
X135189838Y-116373190D01*
X135035185Y-116342427D01*
X135035183Y-116342427D01*
X134877499Y-116342427D01*
X134877496Y-116342427D01*
X134722844Y-116373190D01*
X134722842Y-116373190D01*
X134577166Y-116433530D01*
X134577155Y-116433536D01*
X134446052Y-116521138D01*
X134446048Y-116521141D01*
X134334555Y-116632634D01*
X134334552Y-116632638D01*
X134246950Y-116763741D01*
X134246944Y-116763752D01*
X134186604Y-116909428D01*
X134186604Y-116909430D01*
X134155841Y-117064082D01*
X99036841Y-117064082D01*
X99036841Y-115377070D01*
X146406439Y-115377070D01*
X146406439Y-115535184D01*
X146447362Y-115687911D01*
X146526419Y-115824843D01*
X146638223Y-115936647D01*
X146775155Y-116015704D01*
X146927882Y-116056627D01*
X147000038Y-116056627D01*
X147058229Y-116075534D01*
X147070042Y-116085623D01*
X147596845Y-116612426D01*
X147624622Y-116666943D01*
X147625841Y-116682430D01*
X147625841Y-116992427D01*
X147606934Y-117050618D01*
X147557434Y-117086582D01*
X147526841Y-117091427D01*
X147347066Y-117091427D01*
X147316646Y-117094280D01*
X147316637Y-117094282D01*
X147188457Y-117139134D01*
X147079196Y-117219772D01*
X147079186Y-117219782D01*
X146998548Y-117329043D01*
X146953696Y-117457223D01*
X146953694Y-117457232D01*
X146950841Y-117487652D01*
X146950841Y-118346201D01*
X146953694Y-118376621D01*
X146953696Y-118376630D01*
X146998548Y-118504810D01*
X147079186Y-118614071D01*
X147079188Y-118614073D01*
X147079191Y-118614077D01*
X147079194Y-118614079D01*
X147079196Y-118614081D01*
X147188457Y-118694719D01*
X147188458Y-118694719D01*
X147188459Y-118694720D01*
X147316642Y-118739573D01*
X147347066Y-118742426D01*
X147347068Y-118742427D01*
X147347075Y-118742427D01*
X148705614Y-118742427D01*
X148705614Y-118742426D01*
X148736040Y-118739573D01*
X148864223Y-118694720D01*
X148973491Y-118614077D01*
X149054134Y-118504809D01*
X149098987Y-118376626D01*
X149101840Y-118346200D01*
X149101841Y-118346200D01*
X149101841Y-117487654D01*
X149101840Y-117487652D01*
X149098987Y-117457232D01*
X149098987Y-117457228D01*
X149054134Y-117329045D01*
X148973491Y-117219777D01*
X148973487Y-117219774D01*
X148973485Y-117219772D01*
X148864224Y-117139134D01*
X148736044Y-117094282D01*
X148736035Y-117094280D01*
X148705615Y-117091427D01*
X148705607Y-117091427D01*
X148525841Y-117091427D01*
X148467650Y-117072520D01*
X148431686Y-117023020D01*
X148426841Y-116992427D01*
X148426841Y-116422803D01*
X148426840Y-116422799D01*
X148419031Y-116393653D01*
X148419031Y-116393654D01*
X148399548Y-116320941D01*
X148399546Y-116320938D01*
X148399546Y-116320936D01*
X148346824Y-116229620D01*
X148346823Y-116229619D01*
X148346822Y-116229618D01*
X148346821Y-116229616D01*
X147636435Y-115519230D01*
X147632808Y-115512112D01*
X147626346Y-115507417D01*
X147619182Y-115485368D01*
X147608658Y-115464713D01*
X147607439Y-115449226D01*
X147607439Y-115402470D01*
X151537241Y-115402470D01*
X151537241Y-115560584D01*
X151578164Y-115713311D01*
X151657221Y-115850243D01*
X151769025Y-115962047D01*
X151905957Y-116041104D01*
X152058684Y-116082027D01*
X152130840Y-116082027D01*
X152189031Y-116100934D01*
X152200844Y-116111023D01*
X152596845Y-116507024D01*
X152624622Y-116561541D01*
X152625841Y-116577028D01*
X152625841Y-116992427D01*
X152606934Y-117050618D01*
X152557434Y-117086582D01*
X152526841Y-117091427D01*
X152347066Y-117091427D01*
X152316646Y-117094280D01*
X152316637Y-117094282D01*
X152188457Y-117139134D01*
X152079196Y-117219772D01*
X152079186Y-117219782D01*
X151998548Y-117329043D01*
X151953696Y-117457223D01*
X151953694Y-117457232D01*
X151950841Y-117487652D01*
X151950841Y-118346201D01*
X151953694Y-118376621D01*
X151953696Y-118376630D01*
X151998548Y-118504810D01*
X152079186Y-118614071D01*
X152079188Y-118614073D01*
X152079191Y-118614077D01*
X152079194Y-118614079D01*
X152079196Y-118614081D01*
X152188457Y-118694719D01*
X152188458Y-118694719D01*
X152188459Y-118694720D01*
X152316642Y-118739573D01*
X152347066Y-118742426D01*
X152347068Y-118742427D01*
X152347075Y-118742427D01*
X153705614Y-118742427D01*
X153705614Y-118742426D01*
X153736040Y-118739573D01*
X153864223Y-118694720D01*
X153973491Y-118614077D01*
X154054134Y-118504809D01*
X154098987Y-118376626D01*
X154101840Y-118346200D01*
X154101841Y-118346200D01*
X154101841Y-117487654D01*
X154101840Y-117487652D01*
X154098987Y-117457232D01*
X154098987Y-117457228D01*
X154054134Y-117329045D01*
X153973491Y-117219777D01*
X153973487Y-117219774D01*
X153973485Y-117219772D01*
X153864224Y-117139134D01*
X153736044Y-117094282D01*
X153736035Y-117094280D01*
X153705615Y-117091427D01*
X153705607Y-117091427D01*
X153525841Y-117091427D01*
X153467650Y-117072520D01*
X153431686Y-117023020D01*
X153426841Y-116992427D01*
X153426841Y-116317401D01*
X153417144Y-116281211D01*
X153399548Y-116215539D01*
X153399546Y-116215536D01*
X153399546Y-116215534D01*
X153346824Y-116124218D01*
X153346823Y-116124217D01*
X153346822Y-116124216D01*
X153346821Y-116124214D01*
X152767237Y-115544630D01*
X152739460Y-115490113D01*
X152738241Y-115474626D01*
X152738241Y-115402471D01*
X152731435Y-115377070D01*
X152697318Y-115249743D01*
X152618261Y-115112811D01*
X152506457Y-115001007D01*
X152369525Y-114921950D01*
X152216798Y-114881027D01*
X152058684Y-114881027D01*
X151905957Y-114921950D01*
X151769025Y-115001007D01*
X151657221Y-115112811D01*
X151578164Y-115249743D01*
X151537241Y-115402470D01*
X147607439Y-115402470D01*
X147607439Y-115377071D01*
X147606355Y-115373026D01*
X147566516Y-115224343D01*
X147487459Y-115087411D01*
X147375655Y-114975607D01*
X147238723Y-114896550D01*
X147085996Y-114855627D01*
X146927882Y-114855627D01*
X146775155Y-114896550D01*
X146638223Y-114975607D01*
X146526419Y-115087411D01*
X146447362Y-115224343D01*
X146406439Y-115377070D01*
X99036841Y-115377070D01*
X99036841Y-114767470D01*
X159182641Y-114767470D01*
X159182641Y-114925584D01*
X159223564Y-115078311D01*
X159302621Y-115215243D01*
X159414425Y-115327047D01*
X159551357Y-115406104D01*
X159704084Y-115447027D01*
X159704086Y-115447027D01*
X159862196Y-115447027D01*
X159862198Y-115447027D01*
X160014925Y-115406104D01*
X160151857Y-115327047D01*
X160263661Y-115215243D01*
X160342718Y-115078311D01*
X160383641Y-114925584D01*
X160383641Y-114767470D01*
X160342718Y-114614743D01*
X160263661Y-114477811D01*
X160151857Y-114366007D01*
X160014925Y-114286950D01*
X159862198Y-114246027D01*
X159704084Y-114246027D01*
X159551357Y-114286950D01*
X159414425Y-114366007D01*
X159302621Y-114477811D01*
X159223564Y-114614743D01*
X159182641Y-114767470D01*
X99036841Y-114767470D01*
X99036841Y-113065671D01*
X108154043Y-113065671D01*
X108154043Y-113223785D01*
X108194966Y-113376512D01*
X108274023Y-113513444D01*
X108385827Y-113625248D01*
X108522759Y-113704305D01*
X108675486Y-113745228D01*
X108675488Y-113745228D01*
X108833598Y-113745228D01*
X108833600Y-113745228D01*
X108986327Y-113704305D01*
X109123259Y-113625248D01*
X109235063Y-113513444D01*
X109314120Y-113376512D01*
X109355043Y-113223785D01*
X109355043Y-113160891D01*
X111411622Y-113160891D01*
X111411622Y-113319005D01*
X111452545Y-113471732D01*
X111531602Y-113608664D01*
X111643406Y-113720468D01*
X111780338Y-113799525D01*
X111933065Y-113840448D01*
X111933067Y-113840448D01*
X112091177Y-113840448D01*
X112091179Y-113840448D01*
X112243906Y-113799525D01*
X112380838Y-113720468D01*
X112492642Y-113608664D01*
X112544774Y-113518368D01*
X118568041Y-113518368D01*
X118568041Y-113676482D01*
X118608964Y-113829209D01*
X118688021Y-113966141D01*
X118799825Y-114077945D01*
X118936757Y-114157002D01*
X119089484Y-114197925D01*
X119089486Y-114197925D01*
X119247596Y-114197925D01*
X119247598Y-114197925D01*
X119400325Y-114157002D01*
X119537257Y-114077945D01*
X119649061Y-113966141D01*
X119728118Y-113829209D01*
X119769041Y-113676482D01*
X119769041Y-113518368D01*
X119728118Y-113365641D01*
X119649061Y-113228709D01*
X119537257Y-113116905D01*
X119400325Y-113037848D01*
X119247598Y-112996925D01*
X119089484Y-112996925D01*
X118936757Y-113037848D01*
X118799825Y-113116905D01*
X118688021Y-113228709D01*
X118608964Y-113365641D01*
X118568041Y-113518368D01*
X112544774Y-113518368D01*
X112571699Y-113471732D01*
X112612622Y-113319005D01*
X112612622Y-113160891D01*
X112571699Y-113008164D01*
X112502248Y-112887870D01*
X148971841Y-112887870D01*
X148971841Y-113045984D01*
X149012764Y-113198711D01*
X149091821Y-113335643D01*
X149203625Y-113447447D01*
X149340557Y-113526504D01*
X149493284Y-113567427D01*
X149493286Y-113567427D01*
X149651396Y-113567427D01*
X149651398Y-113567427D01*
X149804125Y-113526504D01*
X149941057Y-113447447D01*
X150052861Y-113335643D01*
X150131918Y-113198711D01*
X150172841Y-113045984D01*
X150172841Y-112887870D01*
X150131918Y-112735143D01*
X150052861Y-112598211D01*
X149941057Y-112486407D01*
X149804125Y-112407350D01*
X149651398Y-112366427D01*
X149493284Y-112366427D01*
X149340557Y-112407350D01*
X149203625Y-112486407D01*
X149091821Y-112598211D01*
X149012764Y-112735143D01*
X148971841Y-112887870D01*
X112502248Y-112887870D01*
X112492642Y-112871232D01*
X112380838Y-112759428D01*
X112243906Y-112680371D01*
X112091179Y-112639448D01*
X111933065Y-112639448D01*
X111780338Y-112680371D01*
X111643406Y-112759428D01*
X111531602Y-112871232D01*
X111452545Y-113008164D01*
X111411622Y-113160891D01*
X109355043Y-113160891D01*
X109355043Y-113065671D01*
X109314120Y-112912944D01*
X109235063Y-112776012D01*
X109123259Y-112664208D01*
X108986327Y-112585151D01*
X108833600Y-112544228D01*
X108675486Y-112544228D01*
X108522759Y-112585151D01*
X108385827Y-112664208D01*
X108274023Y-112776012D01*
X108194966Y-112912944D01*
X108154043Y-113065671D01*
X99036841Y-113065671D01*
X99036841Y-111465470D01*
X117780641Y-111465470D01*
X117780641Y-111623584D01*
X117821564Y-111776311D01*
X117900621Y-111913243D01*
X118012425Y-112025047D01*
X118149357Y-112104104D01*
X118302084Y-112145027D01*
X118302086Y-112145027D01*
X118460196Y-112145027D01*
X118460198Y-112145027D01*
X118612925Y-112104104D01*
X118749857Y-112025047D01*
X118861661Y-111913243D01*
X118940718Y-111776311D01*
X118981641Y-111623584D01*
X118981641Y-111465470D01*
X118940718Y-111312743D01*
X118861661Y-111175811D01*
X118749857Y-111064007D01*
X118612925Y-110984950D01*
X118460198Y-110944027D01*
X118302084Y-110944027D01*
X118149357Y-110984950D01*
X118012425Y-111064007D01*
X117900621Y-111175811D01*
X117821564Y-111312743D01*
X117780641Y-111465470D01*
X99036841Y-111465470D01*
X99036841Y-109876271D01*
X131105096Y-109876271D01*
X131105096Y-110034385D01*
X131146019Y-110187112D01*
X131225076Y-110324044D01*
X131336880Y-110435848D01*
X131473812Y-110514905D01*
X131626539Y-110555828D01*
X131626541Y-110555828D01*
X131784651Y-110555828D01*
X131784653Y-110555828D01*
X131937380Y-110514905D01*
X132074312Y-110435848D01*
X132186116Y-110324044D01*
X132265173Y-110187112D01*
X132306096Y-110034385D01*
X132306096Y-109876271D01*
X132265173Y-109723544D01*
X132186116Y-109586612D01*
X132074312Y-109474808D01*
X132046706Y-109458870D01*
X156617241Y-109458870D01*
X156617241Y-109616984D01*
X156658164Y-109769711D01*
X156737221Y-109906643D01*
X156849025Y-110018447D01*
X156985957Y-110097504D01*
X157138684Y-110138427D01*
X157138686Y-110138427D01*
X157296796Y-110138427D01*
X157296798Y-110138427D01*
X157449525Y-110097504D01*
X157586457Y-110018447D01*
X157698261Y-109906643D01*
X157777318Y-109769711D01*
X157818241Y-109616984D01*
X157818241Y-109458870D01*
X157777318Y-109306143D01*
X157698261Y-109169211D01*
X157586457Y-109057407D01*
X157449525Y-108978350D01*
X157296798Y-108937427D01*
X157138684Y-108937427D01*
X156985957Y-108978350D01*
X156849025Y-109057407D01*
X156737221Y-109169211D01*
X156658164Y-109306143D01*
X156617241Y-109458870D01*
X132046706Y-109458870D01*
X131937380Y-109395751D01*
X131784653Y-109354828D01*
X131626539Y-109354828D01*
X131473812Y-109395751D01*
X131336880Y-109474808D01*
X131225076Y-109586612D01*
X131146019Y-109723544D01*
X131105096Y-109876271D01*
X99036841Y-109876271D01*
X99036841Y-108620668D01*
X149175041Y-108620668D01*
X149175041Y-108778782D01*
X149215964Y-108931509D01*
X149295021Y-109068441D01*
X149406825Y-109180245D01*
X149543757Y-109259302D01*
X149696484Y-109300225D01*
X149696486Y-109300225D01*
X149854596Y-109300225D01*
X149854598Y-109300225D01*
X150007325Y-109259302D01*
X150144257Y-109180245D01*
X150256061Y-109068441D01*
X150335118Y-108931509D01*
X150376041Y-108778782D01*
X150376041Y-108620668D01*
X150335118Y-108467941D01*
X150256061Y-108331009D01*
X150144257Y-108219205D01*
X150007325Y-108140148D01*
X149854598Y-108099225D01*
X149696484Y-108099225D01*
X149543757Y-108140148D01*
X149406825Y-108219205D01*
X149295021Y-108331009D01*
X149215964Y-108467941D01*
X149175041Y-108620668D01*
X99036841Y-108620668D01*
X99036841Y-107509955D01*
X124530154Y-107509955D01*
X124530154Y-107668069D01*
X124571077Y-107820796D01*
X124650134Y-107957728D01*
X124761938Y-108069532D01*
X124898870Y-108148589D01*
X125051597Y-108189512D01*
X125051599Y-108189512D01*
X125209709Y-108189512D01*
X125209711Y-108189512D01*
X125362438Y-108148589D01*
X125499370Y-108069532D01*
X125611174Y-107957728D01*
X125690231Y-107820796D01*
X125731154Y-107668069D01*
X125731154Y-107655470D01*
X128651841Y-107655470D01*
X128651841Y-107813584D01*
X128692764Y-107966311D01*
X128771821Y-108103243D01*
X128883625Y-108215047D01*
X129020557Y-108294104D01*
X129173284Y-108335027D01*
X129173286Y-108335027D01*
X129331396Y-108335027D01*
X129331398Y-108335027D01*
X129484125Y-108294104D01*
X129621057Y-108215047D01*
X129732861Y-108103243D01*
X129811918Y-107966311D01*
X129848387Y-107830205D01*
X140949506Y-107830205D01*
X140949506Y-107988319D01*
X140990429Y-108141046D01*
X141069486Y-108277978D01*
X141181290Y-108389782D01*
X141318222Y-108468839D01*
X141470949Y-108509762D01*
X141470951Y-108509762D01*
X141629061Y-108509762D01*
X141629063Y-108509762D01*
X141781790Y-108468839D01*
X141918722Y-108389782D01*
X142030526Y-108277978D01*
X142109583Y-108141046D01*
X142150506Y-107988319D01*
X142150506Y-107830205D01*
X142109583Y-107677478D01*
X142030526Y-107540546D01*
X141918722Y-107428742D01*
X141781790Y-107349685D01*
X141629063Y-107308762D01*
X141470949Y-107308762D01*
X141318222Y-107349685D01*
X141181290Y-107428742D01*
X141069486Y-107540546D01*
X140990429Y-107677478D01*
X140949506Y-107830205D01*
X129848387Y-107830205D01*
X129852841Y-107813584D01*
X129852841Y-107655470D01*
X129811918Y-107502743D01*
X129732861Y-107365811D01*
X129621057Y-107254007D01*
X129484125Y-107174950D01*
X129331398Y-107134027D01*
X129173284Y-107134027D01*
X129020557Y-107174950D01*
X128883625Y-107254007D01*
X128771821Y-107365811D01*
X128692764Y-107502743D01*
X128651841Y-107655470D01*
X125731154Y-107655470D01*
X125731154Y-107509955D01*
X125690231Y-107357228D01*
X125611174Y-107220296D01*
X125499370Y-107108492D01*
X125362438Y-107029435D01*
X125209711Y-106988512D01*
X125051597Y-106988512D01*
X124898870Y-107029435D01*
X124761938Y-107108492D01*
X124650134Y-107220296D01*
X124571077Y-107357228D01*
X124530154Y-107509955D01*
X99036841Y-107509955D01*
X99036841Y-106024370D01*
X119805841Y-106024370D01*
X119805841Y-106182484D01*
X119846764Y-106335211D01*
X119925821Y-106472143D01*
X120037625Y-106583947D01*
X120174557Y-106663004D01*
X120327284Y-106703927D01*
X120327286Y-106703927D01*
X120485396Y-106703927D01*
X120485398Y-106703927D01*
X120638125Y-106663004D01*
X120775057Y-106583947D01*
X120886861Y-106472143D01*
X120965918Y-106335211D01*
X121006841Y-106182484D01*
X121006841Y-106182270D01*
X127479641Y-106182270D01*
X127479641Y-106340384D01*
X127520564Y-106493111D01*
X127599621Y-106630043D01*
X127711425Y-106741847D01*
X127848357Y-106820904D01*
X128001084Y-106861827D01*
X128001086Y-106861827D01*
X128159196Y-106861827D01*
X128159198Y-106861827D01*
X128311925Y-106820904D01*
X128448857Y-106741847D01*
X128560661Y-106630043D01*
X128639718Y-106493111D01*
X128680641Y-106340384D01*
X128680641Y-106182270D01*
X128646612Y-106055270D01*
X140617241Y-106055270D01*
X140617241Y-106213384D01*
X140658164Y-106366111D01*
X140737221Y-106503043D01*
X140849025Y-106614847D01*
X140985957Y-106693904D01*
X141138684Y-106734827D01*
X141138686Y-106734827D01*
X141296796Y-106734827D01*
X141296798Y-106734827D01*
X141449525Y-106693904D01*
X141586457Y-106614847D01*
X141698261Y-106503043D01*
X141777318Y-106366111D01*
X141818241Y-106213384D01*
X141818241Y-106055270D01*
X141777318Y-105902543D01*
X141698261Y-105765611D01*
X141586457Y-105653807D01*
X141449525Y-105574750D01*
X141296798Y-105533827D01*
X141138684Y-105533827D01*
X140985957Y-105574750D01*
X140849025Y-105653807D01*
X140737221Y-105765611D01*
X140658164Y-105902543D01*
X140617241Y-106055270D01*
X128646612Y-106055270D01*
X128639718Y-106029543D01*
X128560661Y-105892611D01*
X128448857Y-105780807D01*
X128311925Y-105701750D01*
X128159198Y-105660827D01*
X128001084Y-105660827D01*
X127848357Y-105701750D01*
X127711425Y-105780807D01*
X127599621Y-105892611D01*
X127520564Y-106029543D01*
X127479641Y-106182270D01*
X121006841Y-106182270D01*
X121006841Y-106024370D01*
X120965918Y-105871643D01*
X120886861Y-105734711D01*
X120775057Y-105622907D01*
X120638125Y-105543850D01*
X120485398Y-105502927D01*
X120327284Y-105502927D01*
X120174557Y-105543850D01*
X120037625Y-105622907D01*
X119925821Y-105734711D01*
X119846764Y-105871643D01*
X119805841Y-106024370D01*
X99036841Y-106024370D01*
X99036841Y-104937670D01*
X133355841Y-104937670D01*
X133355841Y-105095784D01*
X133396764Y-105248511D01*
X133475821Y-105385443D01*
X133587625Y-105497247D01*
X133724557Y-105576304D01*
X133877284Y-105617227D01*
X133877286Y-105617227D01*
X134035396Y-105617227D01*
X134035398Y-105617227D01*
X134188125Y-105576304D01*
X134325057Y-105497247D01*
X134436861Y-105385443D01*
X134515918Y-105248511D01*
X134556841Y-105095784D01*
X134556841Y-104937670D01*
X134515918Y-104784943D01*
X134436861Y-104648011D01*
X134325057Y-104536207D01*
X134188125Y-104457150D01*
X134035398Y-104416227D01*
X133877284Y-104416227D01*
X133724557Y-104457150D01*
X133587625Y-104536207D01*
X133475821Y-104648011D01*
X133396764Y-104784943D01*
X133355841Y-104937670D01*
X99036841Y-104937670D01*
X99036841Y-103693070D01*
X107925441Y-103693070D01*
X107925441Y-103851184D01*
X107966364Y-104003911D01*
X108045421Y-104140843D01*
X108157225Y-104252647D01*
X108294157Y-104331704D01*
X108446884Y-104372627D01*
X108446886Y-104372627D01*
X108604996Y-104372627D01*
X108604998Y-104372627D01*
X108757725Y-104331704D01*
X108894657Y-104252647D01*
X109006461Y-104140843D01*
X109085518Y-104003911D01*
X109126441Y-103851184D01*
X109126441Y-103693070D01*
X109085518Y-103540343D01*
X109006461Y-103403411D01*
X108894657Y-103291607D01*
X108757725Y-103212550D01*
X108604998Y-103171627D01*
X108446884Y-103171627D01*
X108294157Y-103212550D01*
X108157225Y-103291607D01*
X108045421Y-103403411D01*
X107966364Y-103540343D01*
X107925441Y-103693070D01*
X99036841Y-103693070D01*
X99036841Y-102575470D01*
X119457041Y-102575470D01*
X119457041Y-102733584D01*
X119497964Y-102886311D01*
X119577021Y-103023243D01*
X119688825Y-103135047D01*
X119825757Y-103214104D01*
X119978484Y-103255027D01*
X119978486Y-103255027D01*
X120136596Y-103255027D01*
X120136598Y-103255027D01*
X120289325Y-103214104D01*
X120426257Y-103135047D01*
X120538061Y-103023243D01*
X120617118Y-102886311D01*
X120658041Y-102733584D01*
X120658041Y-102575470D01*
X120641751Y-102514675D01*
X136046441Y-102514675D01*
X136046441Y-102514678D01*
X136046441Y-102672362D01*
X136076577Y-102823867D01*
X136077204Y-102827016D01*
X136077204Y-102827018D01*
X136137544Y-102972694D01*
X136137550Y-102972705D01*
X136171319Y-103023243D01*
X136225152Y-103103809D01*
X136336652Y-103215309D01*
X136377547Y-103242634D01*
X136467755Y-103302910D01*
X136467766Y-103302916D01*
X136521579Y-103325205D01*
X136613444Y-103363257D01*
X136768099Y-103394020D01*
X136768100Y-103394020D01*
X136925782Y-103394020D01*
X136925783Y-103394020D01*
X137080438Y-103363257D01*
X137226120Y-103302914D01*
X137357230Y-103215309D01*
X137468730Y-103103809D01*
X137556335Y-102972699D01*
X137616678Y-102827017D01*
X137647441Y-102672362D01*
X137647441Y-102514678D01*
X137616678Y-102360023D01*
X137595814Y-102309652D01*
X137556337Y-102214345D01*
X137556331Y-102214334D01*
X137520958Y-102161396D01*
X137468730Y-102083231D01*
X137357230Y-101971731D01*
X137291248Y-101927643D01*
X137226126Y-101884129D01*
X137226115Y-101884123D01*
X137080438Y-101823783D01*
X136925785Y-101793020D01*
X136925783Y-101793020D01*
X136768099Y-101793020D01*
X136768096Y-101793020D01*
X136613444Y-101823783D01*
X136613442Y-101823783D01*
X136467766Y-101884123D01*
X136467755Y-101884129D01*
X136336652Y-101971731D01*
X136336648Y-101971734D01*
X136225155Y-102083227D01*
X136225152Y-102083231D01*
X136137550Y-102214334D01*
X136137544Y-102214345D01*
X136077204Y-102360021D01*
X136077204Y-102360023D01*
X136046441Y-102514675D01*
X120641751Y-102514675D01*
X120617118Y-102422743D01*
X120538061Y-102285811D01*
X120426257Y-102174007D01*
X120289325Y-102094950D01*
X120136598Y-102054027D01*
X119978484Y-102054027D01*
X119825757Y-102094950D01*
X119688825Y-102174007D01*
X119577021Y-102285811D01*
X119497964Y-102422743D01*
X119457041Y-102575470D01*
X99036841Y-102575470D01*
X99036841Y-98816270D01*
X112294241Y-98816270D01*
X112294241Y-98974384D01*
X112335164Y-99127111D01*
X112414221Y-99264043D01*
X112526025Y-99375847D01*
X112662957Y-99454904D01*
X112815684Y-99495827D01*
X112815686Y-99495827D01*
X112973796Y-99495827D01*
X112973798Y-99495827D01*
X113126525Y-99454904D01*
X113263457Y-99375847D01*
X113375261Y-99264043D01*
X113454318Y-99127111D01*
X113495241Y-98974384D01*
X113495241Y-98816270D01*
X113454318Y-98663543D01*
X113375261Y-98526611D01*
X113263457Y-98414807D01*
X113232685Y-98397041D01*
X126325669Y-98397041D01*
X126325669Y-98555155D01*
X126366592Y-98707882D01*
X126445649Y-98844814D01*
X126557453Y-98956618D01*
X126694385Y-99035675D01*
X126847112Y-99076598D01*
X126847114Y-99076598D01*
X127005224Y-99076598D01*
X127005226Y-99076598D01*
X127157953Y-99035675D01*
X127294885Y-98956618D01*
X127406689Y-98844814D01*
X127485746Y-98707882D01*
X127526669Y-98555155D01*
X127526669Y-98397041D01*
X127485746Y-98244314D01*
X127406689Y-98107382D01*
X127294885Y-97995578D01*
X127157953Y-97916521D01*
X127005226Y-97875598D01*
X126847112Y-97875598D01*
X126694385Y-97916521D01*
X126557453Y-97995578D01*
X126445649Y-98107382D01*
X126366592Y-98244314D01*
X126325669Y-98397041D01*
X113232685Y-98397041D01*
X113126525Y-98335750D01*
X112973798Y-98294827D01*
X112815684Y-98294827D01*
X112662957Y-98335750D01*
X112526025Y-98414807D01*
X112414221Y-98526611D01*
X112335164Y-98663543D01*
X112294241Y-98816270D01*
X99036841Y-98816270D01*
X99036841Y-97572600D01*
X140383441Y-97572600D01*
X140383441Y-97678054D01*
X140406366Y-97763613D01*
X140410735Y-97779919D01*
X140463457Y-97871235D01*
X140463458Y-97871236D01*
X140463459Y-97871237D01*
X140463461Y-97871240D01*
X142780865Y-100188644D01*
X145086260Y-102494039D01*
X145086261Y-102494040D01*
X145086260Y-102494040D01*
X145126428Y-102534207D01*
X145160828Y-102568607D01*
X145252154Y-102621334D01*
X145354014Y-102648627D01*
X145354016Y-102648627D01*
X149474566Y-102648627D01*
X149474568Y-102648627D01*
X149576429Y-102621334D01*
X149576431Y-102621332D01*
X149576433Y-102621332D01*
X149667749Y-102568610D01*
X149667749Y-102568609D01*
X149667754Y-102568607D01*
X150040961Y-102195400D01*
X150846341Y-102195400D01*
X150846341Y-102300854D01*
X150862195Y-102360023D01*
X150873635Y-102402719D01*
X150926357Y-102494035D01*
X150926359Y-102494037D01*
X150926361Y-102494040D01*
X151009728Y-102577407D01*
X151009730Y-102577408D01*
X151009732Y-102577410D01*
X151101049Y-102630132D01*
X151101047Y-102630132D01*
X151101051Y-102630133D01*
X151101053Y-102630134D01*
X151202914Y-102657427D01*
X151202916Y-102657427D01*
X153675066Y-102657427D01*
X153675068Y-102657427D01*
X153776928Y-102630134D01*
X153868254Y-102577407D01*
X153942821Y-102502840D01*
X153995548Y-102411514D01*
X154022841Y-102309654D01*
X154022841Y-102204200D01*
X153995548Y-102102340D01*
X153991281Y-102094950D01*
X153942822Y-102011016D01*
X153942821Y-102011014D01*
X153868254Y-101936447D01*
X153777636Y-101884129D01*
X153776930Y-101883721D01*
X153776929Y-101883720D01*
X153776928Y-101883720D01*
X153675068Y-101856427D01*
X153675066Y-101856427D01*
X151345444Y-101856427D01*
X151319822Y-101853054D01*
X151299568Y-101847627D01*
X151194114Y-101847627D01*
X151131770Y-101864331D01*
X151092248Y-101874921D01*
X151000932Y-101927643D01*
X150926357Y-102002218D01*
X150873635Y-102093534D01*
X150871276Y-102102340D01*
X150846341Y-102195400D01*
X150040961Y-102195400D01*
X150981138Y-101255223D01*
X151035655Y-101227446D01*
X151051142Y-101226227D01*
X155038053Y-101226227D01*
X155096244Y-101245134D01*
X155132208Y-101294634D01*
X155132208Y-101355820D01*
X155114091Y-101385383D01*
X155115570Y-101386518D01*
X155111624Y-101391660D01*
X155111619Y-101391667D01*
X155111619Y-101391668D01*
X155032562Y-101528600D01*
X154991639Y-101681327D01*
X154991639Y-101839441D01*
X155032562Y-101992168D01*
X155111619Y-102129100D01*
X155223423Y-102240904D01*
X155360355Y-102319961D01*
X155513082Y-102360884D01*
X155513084Y-102360884D01*
X155671194Y-102360884D01*
X155671196Y-102360884D01*
X155823923Y-102319961D01*
X155960855Y-102240904D01*
X156072659Y-102129100D01*
X156151716Y-101992168D01*
X156192639Y-101839441D01*
X156192639Y-101681327D01*
X156151716Y-101528600D01*
X156072659Y-101391668D01*
X156072655Y-101391664D01*
X156072653Y-101391660D01*
X156068708Y-101386518D01*
X156070917Y-101384822D01*
X156048444Y-101340714D01*
X156058015Y-101280282D01*
X156101280Y-101237017D01*
X156146225Y-101226227D01*
X157600666Y-101226227D01*
X157600668Y-101226227D01*
X157702529Y-101198934D01*
X157702531Y-101198932D01*
X157702533Y-101198932D01*
X157793849Y-101146210D01*
X157793849Y-101146209D01*
X157793854Y-101146207D01*
X158315037Y-100625021D01*
X158369554Y-100597244D01*
X158429986Y-100606815D01*
X158473251Y-100650080D01*
X158484041Y-100695025D01*
X158484041Y-101492026D01*
X158465134Y-101550217D01*
X158455045Y-101562030D01*
X154490044Y-105527031D01*
X154435527Y-105554808D01*
X154420040Y-105556027D01*
X150693768Y-105556027D01*
X150588314Y-105556027D01*
X150525970Y-105572731D01*
X150486448Y-105583321D01*
X150395132Y-105636043D01*
X149284944Y-106746231D01*
X149230427Y-106774008D01*
X149214940Y-106775227D01*
X148001241Y-106775227D01*
X147943050Y-106756320D01*
X147931237Y-106746231D01*
X144828581Y-103643575D01*
X152124416Y-103643575D01*
X152124416Y-103801689D01*
X152165339Y-103954416D01*
X152244396Y-104091348D01*
X152356200Y-104203152D01*
X152493132Y-104282209D01*
X152645859Y-104323132D01*
X152645861Y-104323132D01*
X152788726Y-104323132D01*
X152846917Y-104342039D01*
X152858730Y-104352128D01*
X153242845Y-104736243D01*
X153270622Y-104790760D01*
X153271219Y-104798347D01*
X153271840Y-104803068D01*
X153295728Y-104892217D01*
X153328110Y-104948304D01*
X153341872Y-104972139D01*
X153407129Y-105037396D01*
X153487053Y-105083541D01*
X153576197Y-105107427D01*
X153576199Y-105107427D01*
X153668483Y-105107427D01*
X153668485Y-105107427D01*
X153757629Y-105083541D01*
X153837553Y-105037396D01*
X153902810Y-104972139D01*
X153948955Y-104892215D01*
X153972841Y-104803071D01*
X153972841Y-104573913D01*
X153948955Y-104484769D01*
X153943075Y-104474585D01*
X153943073Y-104474581D01*
X153943073Y-104474580D01*
X153909382Y-104416227D01*
X153902811Y-104404845D01*
X153354412Y-103856446D01*
X153326635Y-103801929D01*
X153325416Y-103786442D01*
X153325416Y-103643576D01*
X153325416Y-103643575D01*
X153284493Y-103490848D01*
X153205436Y-103353916D01*
X153093632Y-103242112D01*
X152956700Y-103163055D01*
X152803973Y-103122132D01*
X152645859Y-103122132D01*
X152493132Y-103163055D01*
X152356200Y-103242112D01*
X152244396Y-103353916D01*
X152165339Y-103490848D01*
X152124416Y-103643575D01*
X144828581Y-103643575D01*
X144501356Y-103316350D01*
X141029854Y-99844847D01*
X141029851Y-99844845D01*
X141029849Y-99844843D01*
X140938532Y-99792121D01*
X140938534Y-99792121D01*
X140899011Y-99781531D01*
X140836668Y-99764827D01*
X140731214Y-99764827D01*
X140668870Y-99781531D01*
X140629348Y-99792121D01*
X140538032Y-99844843D01*
X140463457Y-99919418D01*
X140410735Y-100010734D01*
X140396876Y-100062457D01*
X140383441Y-100112600D01*
X140383441Y-100218054D01*
X140402970Y-100290939D01*
X140410735Y-100319919D01*
X140463457Y-100411235D01*
X140463459Y-100411237D01*
X140463461Y-100411240D01*
X147473859Y-107421637D01*
X147473861Y-107421640D01*
X147548428Y-107496207D01*
X147582039Y-107515612D01*
X147639753Y-107548934D01*
X147741614Y-107576228D01*
X147741616Y-107576228D01*
X147853131Y-107576228D01*
X147853147Y-107576227D01*
X149474566Y-107576227D01*
X149474568Y-107576227D01*
X149576429Y-107548934D01*
X149576431Y-107548932D01*
X149576433Y-107548932D01*
X149667749Y-107496210D01*
X149667749Y-107496209D01*
X149667754Y-107496207D01*
X150777938Y-106386023D01*
X150832455Y-106358246D01*
X150847942Y-106357027D01*
X154679666Y-106357027D01*
X154679668Y-106357027D01*
X154781529Y-106329734D01*
X154781531Y-106329732D01*
X154781533Y-106329732D01*
X154872849Y-106277010D01*
X154872849Y-106277009D01*
X154872854Y-106277007D01*
X159130451Y-102019408D01*
X159130454Y-102019407D01*
X159205021Y-101944840D01*
X159257748Y-101853514D01*
X159261519Y-101839441D01*
X159285042Y-101751654D01*
X159285042Y-101646200D01*
X159285042Y-101640138D01*
X159285041Y-101640120D01*
X159285041Y-96581070D01*
X177572241Y-96581070D01*
X177572241Y-96739184D01*
X177613164Y-96891911D01*
X177692221Y-97028843D01*
X177804025Y-97140647D01*
X177940957Y-97219704D01*
X178093684Y-97260627D01*
X178093686Y-97260627D01*
X178251796Y-97260627D01*
X178251798Y-97260627D01*
X178404525Y-97219704D01*
X178541457Y-97140647D01*
X178653261Y-97028843D01*
X178732318Y-96891911D01*
X178773241Y-96739184D01*
X178773241Y-96581070D01*
X178732318Y-96428343D01*
X178653261Y-96291411D01*
X178541457Y-96179607D01*
X178404525Y-96100550D01*
X178251798Y-96059627D01*
X178093684Y-96059627D01*
X177940957Y-96100550D01*
X177804025Y-96179607D01*
X177692221Y-96291411D01*
X177613164Y-96428343D01*
X177572241Y-96581070D01*
X159285041Y-96581070D01*
X159285041Y-95759601D01*
X159285041Y-95759600D01*
X159269588Y-95701927D01*
X159269588Y-95701926D01*
X159269588Y-95701925D01*
X159257748Y-95657739D01*
X159257746Y-95657735D01*
X159205024Y-95566418D01*
X159205020Y-95566413D01*
X158795267Y-95156659D01*
X158767490Y-95102143D01*
X158777061Y-95041711D01*
X158820326Y-94998446D01*
X158839640Y-94991031D01*
X158951206Y-94961138D01*
X159088138Y-94882081D01*
X159199942Y-94770277D01*
X159278999Y-94633345D01*
X159319922Y-94480618D01*
X159319922Y-94463360D01*
X159338829Y-94405169D01*
X159388329Y-94369205D01*
X159418922Y-94364360D01*
X159568764Y-94364360D01*
X159568766Y-94364360D01*
X159721493Y-94323437D01*
X159722922Y-94322612D01*
X159724080Y-94322365D01*
X159727491Y-94320953D01*
X159727752Y-94321584D01*
X159782769Y-94309885D01*
X159838667Y-94334767D01*
X159858165Y-94358844D01*
X159930269Y-94483731D01*
X159939414Y-94499571D01*
X160051218Y-94611375D01*
X160188150Y-94690432D01*
X160340877Y-94731355D01*
X160340879Y-94731355D01*
X160498989Y-94731355D01*
X160498991Y-94731355D01*
X160651718Y-94690432D01*
X160788650Y-94611375D01*
X160860305Y-94539720D01*
X164881591Y-94539720D01*
X164881591Y-94697834D01*
X164922514Y-94850561D01*
X165001571Y-94987493D01*
X165113375Y-95099297D01*
X165250307Y-95178354D01*
X165403034Y-95219277D01*
X165403036Y-95219277D01*
X165561146Y-95219277D01*
X165561148Y-95219277D01*
X165713875Y-95178354D01*
X165850807Y-95099297D01*
X165962611Y-94987493D01*
X166041668Y-94850561D01*
X166082591Y-94697834D01*
X166082591Y-94539720D01*
X166041668Y-94386993D01*
X165962611Y-94250061D01*
X165850807Y-94138257D01*
X165713875Y-94059200D01*
X165561148Y-94018277D01*
X165403034Y-94018277D01*
X165250307Y-94059200D01*
X165113375Y-94138257D01*
X165001571Y-94250061D01*
X164922514Y-94386993D01*
X164881591Y-94539720D01*
X160860305Y-94539720D01*
X160900454Y-94499571D01*
X160979511Y-94362639D01*
X161020434Y-94209912D01*
X161020434Y-94051798D01*
X160979511Y-93899071D01*
X160900454Y-93762139D01*
X160788650Y-93650335D01*
X160661073Y-93576679D01*
X167932304Y-93576679D01*
X167932304Y-93734793D01*
X167973227Y-93887520D01*
X168052284Y-94024452D01*
X168164088Y-94136256D01*
X168301020Y-94215313D01*
X168453747Y-94256236D01*
X168453749Y-94256236D01*
X168611859Y-94256236D01*
X168611861Y-94256236D01*
X168764588Y-94215313D01*
X168901520Y-94136256D01*
X169013324Y-94024452D01*
X169092381Y-93887520D01*
X169133304Y-93734793D01*
X169133304Y-93576679D01*
X169092381Y-93423952D01*
X169013324Y-93287020D01*
X168901520Y-93175216D01*
X168764588Y-93096159D01*
X168611861Y-93055236D01*
X168453747Y-93055236D01*
X168301020Y-93096159D01*
X168164088Y-93175216D01*
X168052284Y-93287020D01*
X167973227Y-93423952D01*
X167932304Y-93576679D01*
X160661073Y-93576679D01*
X160651718Y-93571278D01*
X160498991Y-93530355D01*
X160340877Y-93530355D01*
X160188150Y-93571278D01*
X160188148Y-93571279D01*
X160188146Y-93571279D01*
X160186710Y-93572109D01*
X160185548Y-93572355D01*
X160182156Y-93573761D01*
X160181895Y-93573132D01*
X160126861Y-93584828D01*
X160070966Y-93559940D01*
X160051476Y-93535871D01*
X160049286Y-93532079D01*
X160049286Y-93532076D01*
X159970229Y-93395144D01*
X159858425Y-93283340D01*
X159721493Y-93204283D01*
X159568766Y-93163360D01*
X159410652Y-93163360D01*
X159257925Y-93204283D01*
X159120993Y-93283340D01*
X159009189Y-93395144D01*
X158930132Y-93532076D01*
X158894218Y-93666111D01*
X158889209Y-93684804D01*
X158889209Y-93702061D01*
X158870302Y-93760252D01*
X158820802Y-93796216D01*
X158790209Y-93801061D01*
X158640365Y-93801061D01*
X158549639Y-93825371D01*
X158487638Y-93841984D01*
X158350706Y-93921041D01*
X158238902Y-94032845D01*
X158159843Y-94169779D01*
X158159843Y-94169780D01*
X158129952Y-94281335D01*
X158096628Y-94332649D01*
X158039507Y-94354575D01*
X157980406Y-94338739D01*
X157964322Y-94325715D01*
X156240637Y-92602030D01*
X156212860Y-92547513D01*
X156211641Y-92532026D01*
X156211641Y-91473870D01*
X160495073Y-91473870D01*
X160495073Y-91631984D01*
X160535996Y-91784711D01*
X160615053Y-91921643D01*
X160726857Y-92033447D01*
X160734479Y-92037848D01*
X160775420Y-92083316D01*
X160781817Y-92144166D01*
X160770717Y-92173083D01*
X160690164Y-92312606D01*
X160668057Y-92395114D01*
X160649241Y-92465335D01*
X160649241Y-92623449D01*
X160690164Y-92776176D01*
X160769221Y-92913108D01*
X160881025Y-93024912D01*
X161017957Y-93103969D01*
X161170684Y-93144892D01*
X161170686Y-93144892D01*
X161328796Y-93144892D01*
X161328798Y-93144892D01*
X161481525Y-93103969D01*
X161618457Y-93024912D01*
X161730261Y-92913108D01*
X161809318Y-92776176D01*
X161850241Y-92623449D01*
X161850241Y-92465335D01*
X161809318Y-92312608D01*
X161730261Y-92175676D01*
X161618457Y-92063872D01*
X161610831Y-92059469D01*
X161569892Y-92014000D01*
X161563497Y-91953150D01*
X161574596Y-91924234D01*
X161576090Y-91921645D01*
X161576093Y-91921643D01*
X161655150Y-91784711D01*
X161696073Y-91631984D01*
X161696073Y-91473870D01*
X161655150Y-91321143D01*
X161576093Y-91184211D01*
X161464289Y-91072407D01*
X161327357Y-90993350D01*
X161174630Y-90952427D01*
X161016516Y-90952427D01*
X160863789Y-90993350D01*
X160726857Y-91072407D01*
X160615053Y-91184211D01*
X160535996Y-91321143D01*
X160495073Y-91473870D01*
X156211641Y-91473870D01*
X156211641Y-90574082D01*
X165680642Y-90574082D01*
X165680642Y-90731771D01*
X165711405Y-90886423D01*
X165711405Y-90886425D01*
X165771745Y-91032101D01*
X165771751Y-91032112D01*
X165798676Y-91072407D01*
X165859353Y-91163216D01*
X165970853Y-91274716D01*
X166040336Y-91321143D01*
X166101956Y-91362317D01*
X166101967Y-91362323D01*
X166155780Y-91384612D01*
X166247645Y-91422664D01*
X166402300Y-91453427D01*
X166402301Y-91453427D01*
X166559983Y-91453427D01*
X166559984Y-91453427D01*
X166714639Y-91422664D01*
X166860321Y-91362321D01*
X166991431Y-91274716D01*
X167102931Y-91163216D01*
X167190536Y-91032106D01*
X167250879Y-90886424D01*
X167250879Y-90886422D01*
X167252236Y-90883147D01*
X167273693Y-90851031D01*
X170140455Y-87984271D01*
X170217116Y-87869539D01*
X170269921Y-87742056D01*
X170296841Y-87606722D01*
X170296841Y-87468734D01*
X170296841Y-86979870D01*
X178740641Y-86979870D01*
X178740641Y-87137984D01*
X178781564Y-87290711D01*
X178860621Y-87427643D01*
X178972425Y-87539447D01*
X179109357Y-87618504D01*
X179262084Y-87659427D01*
X179262086Y-87659427D01*
X179420196Y-87659427D01*
X179420198Y-87659427D01*
X179572925Y-87618504D01*
X179709857Y-87539447D01*
X179821661Y-87427643D01*
X179900718Y-87290711D01*
X179941641Y-87137984D01*
X179941641Y-86979870D01*
X179900718Y-86827143D01*
X179821661Y-86690211D01*
X179709857Y-86578407D01*
X179572925Y-86499350D01*
X179420198Y-86458427D01*
X179262084Y-86458427D01*
X179109357Y-86499350D01*
X178972425Y-86578407D01*
X178860621Y-86690211D01*
X178781564Y-86827143D01*
X178740641Y-86979870D01*
X170296841Y-86979870D01*
X170296841Y-85455870D01*
X178791441Y-85455870D01*
X178791441Y-85613984D01*
X178832364Y-85766711D01*
X178911421Y-85903643D01*
X179023225Y-86015447D01*
X179160157Y-86094504D01*
X179312884Y-86135427D01*
X179312886Y-86135427D01*
X179470996Y-86135427D01*
X179470998Y-86135427D01*
X179623725Y-86094504D01*
X179760657Y-86015447D01*
X179872461Y-85903643D01*
X179951518Y-85766711D01*
X179992441Y-85613984D01*
X179992441Y-85455870D01*
X179951518Y-85303143D01*
X179872461Y-85166211D01*
X179760657Y-85054407D01*
X179623725Y-84975350D01*
X179470998Y-84934427D01*
X179312884Y-84934427D01*
X179160157Y-84975350D01*
X179023225Y-85054407D01*
X178911421Y-85166211D01*
X178832364Y-85303143D01*
X178791441Y-85455870D01*
X170296841Y-85455870D01*
X170296841Y-83193934D01*
X170274396Y-83081095D01*
X170274396Y-83081093D01*
X170271845Y-83068270D01*
X185751041Y-83068270D01*
X185751041Y-83226384D01*
X185791964Y-83379111D01*
X185871021Y-83516043D01*
X185982825Y-83627847D01*
X186119757Y-83706904D01*
X186272484Y-83747827D01*
X186272486Y-83747827D01*
X186430596Y-83747827D01*
X186430598Y-83747827D01*
X186583325Y-83706904D01*
X186720257Y-83627847D01*
X186832061Y-83516043D01*
X186911118Y-83379111D01*
X186952041Y-83226384D01*
X186952041Y-83068270D01*
X186911118Y-82915543D01*
X186832061Y-82778611D01*
X186720257Y-82666807D01*
X186626270Y-82612544D01*
X186585331Y-82567076D01*
X186578935Y-82506226D01*
X186609528Y-82453238D01*
X186628979Y-82440969D01*
X186628505Y-82440148D01*
X186634122Y-82436904D01*
X186634125Y-82436904D01*
X186771057Y-82357847D01*
X186882861Y-82246043D01*
X186961918Y-82109111D01*
X187002841Y-81956384D01*
X187002841Y-81798270D01*
X186961918Y-81645543D01*
X186882861Y-81508611D01*
X186771057Y-81396807D01*
X186634125Y-81317750D01*
X186481398Y-81276827D01*
X186323284Y-81276827D01*
X186170557Y-81317750D01*
X186033625Y-81396807D01*
X185921821Y-81508611D01*
X185842764Y-81645543D01*
X185801841Y-81798270D01*
X185801841Y-81956384D01*
X185842764Y-82109111D01*
X185921821Y-82246043D01*
X186033625Y-82357847D01*
X186127609Y-82412108D01*
X186168550Y-82457577D01*
X186174946Y-82518427D01*
X186144353Y-82571415D01*
X186124904Y-82583688D01*
X186125377Y-82584506D01*
X186119759Y-82587749D01*
X186119757Y-82587750D01*
X185982825Y-82666807D01*
X185871021Y-82778611D01*
X185791964Y-82915543D01*
X185751041Y-83068270D01*
X170271845Y-83068270D01*
X170269922Y-83058605D01*
X170269921Y-83058599D01*
X170217116Y-82931116D01*
X170147446Y-82826847D01*
X170147446Y-82826846D01*
X170140459Y-82816389D01*
X170140457Y-82816387D01*
X170140455Y-82816384D01*
X168755837Y-81431766D01*
X168752210Y-81424648D01*
X168745748Y-81419953D01*
X168738584Y-81397904D01*
X168728060Y-81377249D01*
X168726841Y-81361762D01*
X168726841Y-81181719D01*
X168745748Y-81123528D01*
X168795248Y-81087564D01*
X168798141Y-81086674D01*
X168911739Y-81053671D01*
X169053206Y-80970008D01*
X169169422Y-80853792D01*
X169253085Y-80712325D01*
X169298939Y-80554496D01*
X169301841Y-80517621D01*
X169301841Y-79636233D01*
X169298939Y-79599358D01*
X169253085Y-79441529D01*
X169169422Y-79300062D01*
X169053206Y-79183846D01*
X168911739Y-79100183D01*
X168753910Y-79054329D01*
X168753909Y-79054328D01*
X168753906Y-79054328D01*
X168730481Y-79052485D01*
X168717035Y-79051427D01*
X167335647Y-79051427D01*
X167323114Y-79052413D01*
X167298775Y-79054328D01*
X167298768Y-79054330D01*
X167140943Y-79100183D01*
X166999477Y-79183845D01*
X166883259Y-79300063D01*
X166799597Y-79441529D01*
X166753744Y-79599354D01*
X166753742Y-79599361D01*
X166750841Y-79636238D01*
X166750841Y-80517615D01*
X166753742Y-80554492D01*
X166753742Y-80554495D01*
X166753743Y-80554496D01*
X166799597Y-80712325D01*
X166883260Y-80853792D01*
X166999476Y-80970008D01*
X167140943Y-81053671D01*
X167254464Y-81086652D01*
X167305066Y-81121041D01*
X167325792Y-81178609D01*
X167325841Y-81181719D01*
X167325841Y-81761923D01*
X167352761Y-81897254D01*
X167352761Y-81897256D01*
X167405564Y-82024735D01*
X167405565Y-82024737D01*
X167405566Y-82024738D01*
X167482227Y-82139470D01*
X168866846Y-83524089D01*
X168894622Y-83578604D01*
X168895841Y-83594091D01*
X168895841Y-87206562D01*
X168876934Y-87264753D01*
X168866845Y-87276566D01*
X166283037Y-89860373D01*
X166250919Y-89881833D01*
X166101964Y-89943532D01*
X166101956Y-89943536D01*
X165970853Y-90031138D01*
X165970849Y-90031141D01*
X165859356Y-90142634D01*
X165859353Y-90142638D01*
X165771751Y-90273741D01*
X165771745Y-90273752D01*
X165711405Y-90419428D01*
X165711405Y-90419430D01*
X165680642Y-90574082D01*
X156211641Y-90574082D01*
X156211641Y-89144014D01*
X156230548Y-89085823D01*
X156280048Y-89049859D01*
X156341234Y-89049859D01*
X156390734Y-89085823D01*
X156392956Y-89089012D01*
X156429708Y-89144014D01*
X156477160Y-89215031D01*
X156588660Y-89326531D01*
X156657236Y-89372352D01*
X156719763Y-89414132D01*
X156719774Y-89414138D01*
X156773587Y-89436427D01*
X156865452Y-89474479D01*
X156995415Y-89500330D01*
X157024877Y-89506191D01*
X157024552Y-89507822D01*
X157074287Y-89529561D01*
X157078549Y-89533577D01*
X157726018Y-90181047D01*
X157862950Y-90260104D01*
X157862952Y-90260104D01*
X157862953Y-90260105D01*
X157913843Y-90273741D01*
X158015674Y-90301027D01*
X158015676Y-90301028D01*
X158015677Y-90301028D01*
X158179855Y-90301028D01*
X158179871Y-90301027D01*
X160174757Y-90301027D01*
X160232948Y-90319934D01*
X160237555Y-90323493D01*
X160240019Y-90325515D01*
X160371123Y-90413117D01*
X160371134Y-90413123D01*
X160424947Y-90435412D01*
X160516812Y-90473464D01*
X160671467Y-90504227D01*
X160671468Y-90504227D01*
X160829150Y-90504227D01*
X160829151Y-90504227D01*
X160983806Y-90473464D01*
X161129488Y-90413121D01*
X161260598Y-90325516D01*
X161372098Y-90214016D01*
X161459703Y-90082906D01*
X161520046Y-89937224D01*
X161550809Y-89782569D01*
X161550809Y-89624885D01*
X161520046Y-89470230D01*
X161479504Y-89372352D01*
X161459705Y-89324552D01*
X161459699Y-89324541D01*
X161424326Y-89271603D01*
X161372098Y-89193438D01*
X161260598Y-89081938D01*
X161171239Y-89022230D01*
X161129494Y-88994336D01*
X161129483Y-88994330D01*
X160983806Y-88933990D01*
X160829153Y-88903227D01*
X160829151Y-88903227D01*
X160791875Y-88903227D01*
X160733684Y-88884320D01*
X160697720Y-88834820D01*
X160696368Y-88783181D01*
X160695915Y-88783122D01*
X160696292Y-88780255D01*
X160696249Y-88778602D01*
X160696762Y-88776688D01*
X160696762Y-88618574D01*
X160655839Y-88465847D01*
X160576782Y-88328915D01*
X160464978Y-88217111D01*
X160328046Y-88138054D01*
X160175319Y-88097131D01*
X160017205Y-88097131D01*
X159864478Y-88138054D01*
X159727546Y-88217111D01*
X159615742Y-88328915D01*
X159536685Y-88465847D01*
X159495762Y-88618574D01*
X159495762Y-88776688D01*
X159536685Y-88929415D01*
X159549452Y-88951529D01*
X159562173Y-89011376D01*
X159537286Y-89067271D01*
X159484298Y-89097864D01*
X159463715Y-89100027D01*
X158384478Y-89100027D01*
X158326287Y-89081120D01*
X158314474Y-89071031D01*
X157927785Y-88684342D01*
X157900434Y-88630662D01*
X157900398Y-88630670D01*
X157900372Y-88630539D01*
X157900008Y-88629825D01*
X157899604Y-88626681D01*
X157898428Y-88620767D01*
X157868686Y-88471245D01*
X157821924Y-88358350D01*
X157808345Y-88325567D01*
X157808339Y-88325556D01*
X157768189Y-88265469D01*
X157720738Y-88194453D01*
X157609238Y-88082953D01*
X157557008Y-88048054D01*
X157478134Y-87995351D01*
X157478123Y-87995345D01*
X157332446Y-87935005D01*
X157177793Y-87904242D01*
X157177791Y-87904242D01*
X157020107Y-87904242D01*
X157020104Y-87904242D01*
X156865452Y-87935005D01*
X156865450Y-87935005D01*
X156719774Y-87995345D01*
X156719763Y-87995351D01*
X156588660Y-88082953D01*
X156588656Y-88082956D01*
X156477159Y-88194453D01*
X156392956Y-88320471D01*
X156344906Y-88358350D01*
X156283767Y-88360752D01*
X156232894Y-88326758D01*
X156211717Y-88269355D01*
X156211641Y-88265469D01*
X156211641Y-87148816D01*
X156201692Y-87111687D01*
X156201682Y-87111652D01*
X156184348Y-87046956D01*
X156184346Y-87046953D01*
X156184346Y-87046951D01*
X156131624Y-86955635D01*
X156131622Y-86955633D01*
X156131621Y-86955631D01*
X155861072Y-86685082D01*
X155833297Y-86630568D01*
X155842868Y-86570136D01*
X155886133Y-86526871D01*
X155905456Y-86519454D01*
X155916125Y-86516596D01*
X156053057Y-86437539D01*
X156164861Y-86325735D01*
X156243918Y-86188803D01*
X156284841Y-86036076D01*
X156284841Y-85963870D01*
X159690631Y-85963870D01*
X159690631Y-86121984D01*
X159731554Y-86274711D01*
X159810611Y-86411643D01*
X159922415Y-86523447D01*
X160059347Y-86602504D01*
X160212074Y-86643427D01*
X160212076Y-86643427D01*
X160370186Y-86643427D01*
X160370188Y-86643427D01*
X160498465Y-86609055D01*
X160559564Y-86612257D01*
X160607114Y-86650763D01*
X160622950Y-86709863D01*
X160609823Y-86754181D01*
X160582364Y-86801740D01*
X160574162Y-86832352D01*
X160541441Y-86954469D01*
X160541441Y-87112583D01*
X160582364Y-87265310D01*
X160661421Y-87402242D01*
X160773225Y-87514046D01*
X160910157Y-87593103D01*
X161062884Y-87634026D01*
X161062886Y-87634026D01*
X161220996Y-87634026D01*
X161220998Y-87634026D01*
X161373725Y-87593103D01*
X161510657Y-87514046D01*
X161622461Y-87402242D01*
X161701518Y-87265310D01*
X161742441Y-87112583D01*
X161742441Y-86954469D01*
X161701518Y-86801742D01*
X161622461Y-86664810D01*
X161510657Y-86553006D01*
X161373725Y-86473949D01*
X161220998Y-86433026D01*
X161062884Y-86433026D01*
X161025621Y-86443010D01*
X160934607Y-86467397D01*
X160873506Y-86464194D01*
X160825956Y-86425689D01*
X160810121Y-86366588D01*
X160823247Y-86322274D01*
X160850708Y-86274711D01*
X160891631Y-86121984D01*
X160891631Y-85963870D01*
X160850708Y-85811143D01*
X160771651Y-85674211D01*
X160659847Y-85562407D01*
X160522915Y-85483350D01*
X160370188Y-85442427D01*
X160212074Y-85442427D01*
X160059347Y-85483350D01*
X159922415Y-85562407D01*
X159810611Y-85674211D01*
X159731554Y-85811143D01*
X159690631Y-85963870D01*
X156284841Y-85963870D01*
X156284841Y-85877962D01*
X156243918Y-85725235D01*
X156164861Y-85588303D01*
X156053057Y-85476499D01*
X155916125Y-85397442D01*
X155763398Y-85356519D01*
X155605284Y-85356519D01*
X155452557Y-85397442D01*
X155315625Y-85476499D01*
X155203821Y-85588303D01*
X155203819Y-85588305D01*
X155199233Y-85592892D01*
X155198131Y-85591790D01*
X155154072Y-85622059D01*
X155092908Y-85620446D01*
X155055969Y-85597135D01*
X154667475Y-85208642D01*
X154667470Y-85208638D01*
X154576153Y-85155916D01*
X154576155Y-85155916D01*
X154522881Y-85141642D01*
X154474289Y-85128622D01*
X153800755Y-85128622D01*
X153695301Y-85128622D01*
X153646709Y-85141642D01*
X153593435Y-85155916D01*
X153502119Y-85208638D01*
X153502114Y-85208642D01*
X153159611Y-85551145D01*
X153105095Y-85578922D01*
X153089608Y-85580141D01*
X153017452Y-85580141D01*
X152864725Y-85621064D01*
X152727793Y-85700121D01*
X152615989Y-85811925D01*
X152536932Y-85948857D01*
X152496009Y-86101584D01*
X152496009Y-86259698D01*
X152536932Y-86412425D01*
X152615989Y-86549357D01*
X152727793Y-86661161D01*
X152864725Y-86740218D01*
X153017452Y-86781141D01*
X153017454Y-86781141D01*
X153175564Y-86781141D01*
X153175566Y-86781141D01*
X153328293Y-86740218D01*
X153465225Y-86661161D01*
X153465226Y-86661159D01*
X153468234Y-86659423D01*
X153528082Y-86646701D01*
X153583978Y-86671588D01*
X153603471Y-86695661D01*
X153604870Y-86698084D01*
X153716674Y-86809888D01*
X153853606Y-86888945D01*
X154006333Y-86929868D01*
X154069890Y-86929868D01*
X154128081Y-86948775D01*
X154139894Y-86958864D01*
X154704274Y-87523244D01*
X154732051Y-87577761D01*
X154733270Y-87593248D01*
X154733270Y-93177229D01*
X154733270Y-93282683D01*
X154757340Y-93372515D01*
X154760564Y-93384548D01*
X154813286Y-93475864D01*
X154813288Y-93475866D01*
X154813290Y-93475869D01*
X157651846Y-96314425D01*
X157679622Y-96368940D01*
X157680841Y-96384427D01*
X157680841Y-99708195D01*
X157661934Y-99766386D01*
X157612434Y-99802350D01*
X157551248Y-99802350D01*
X157501748Y-99766386D01*
X157486214Y-99733818D01*
X157461982Y-99643381D01*
X157382925Y-99506449D01*
X157271121Y-99394645D01*
X157134189Y-99315588D01*
X156981462Y-99274665D01*
X156823348Y-99274665D01*
X156670621Y-99315588D01*
X156533689Y-99394645D01*
X156421885Y-99506449D01*
X156342828Y-99643381D01*
X156301905Y-99796108D01*
X156301905Y-99954222D01*
X156342828Y-100106949D01*
X156421885Y-100243881D01*
X156434229Y-100256225D01*
X156462005Y-100310740D01*
X156452434Y-100371172D01*
X156409169Y-100414437D01*
X156364224Y-100425227D01*
X153759441Y-100425227D01*
X153701250Y-100406320D01*
X153665286Y-100356820D01*
X153665286Y-100295634D01*
X153689435Y-100256225D01*
X153942821Y-100002840D01*
X153970892Y-99954220D01*
X153995546Y-99911519D01*
X153995546Y-99911517D01*
X153995548Y-99911515D01*
X154022841Y-99809654D01*
X154022841Y-99704200D01*
X153995548Y-99602339D01*
X153995546Y-99602336D01*
X153995546Y-99602334D01*
X153942824Y-99511018D01*
X153942822Y-99511016D01*
X153942821Y-99511014D01*
X153868254Y-99436447D01*
X153868251Y-99436445D01*
X153868249Y-99436443D01*
X153776932Y-99383721D01*
X153776934Y-99383721D01*
X153737411Y-99373131D01*
X153675068Y-99356427D01*
X153675066Y-99356427D01*
X151875242Y-99356427D01*
X151817051Y-99337520D01*
X151805239Y-99327431D01*
X151647054Y-99169247D01*
X151647049Y-99169243D01*
X151555732Y-99116521D01*
X151555734Y-99116521D01*
X151513884Y-99105308D01*
X151453868Y-99089227D01*
X149320268Y-99089227D01*
X149214814Y-99089227D01*
X149154798Y-99105308D01*
X149112948Y-99116521D01*
X149021632Y-99169243D01*
X149021627Y-99169247D01*
X148912243Y-99278631D01*
X148857727Y-99306408D01*
X148842240Y-99307627D01*
X148411085Y-99307627D01*
X148407812Y-99306563D01*
X148404476Y-99307406D01*
X148389542Y-99300627D01*
X148352894Y-99288720D01*
X148347678Y-99284657D01*
X148344238Y-99281788D01*
X148290057Y-99227607D01*
X148255006Y-99207371D01*
X148248472Y-99201921D01*
X148236492Y-99182878D01*
X148221438Y-99166158D01*
X148220527Y-99157499D01*
X148215892Y-99150130D01*
X148217393Y-99127683D01*
X148215042Y-99105308D01*
X148219395Y-99097767D01*
X148219977Y-99089081D01*
X148234386Y-99071803D01*
X148245635Y-99052320D01*
X148258322Y-99043101D01*
X148259164Y-99042093D01*
X148260002Y-99041881D01*
X148262371Y-99040160D01*
X148340857Y-98994847D01*
X148452661Y-98883043D01*
X148531718Y-98746111D01*
X148572641Y-98593384D01*
X148572641Y-98435270D01*
X148531718Y-98282543D01*
X148452661Y-98145611D01*
X148340857Y-98033807D01*
X148203925Y-97954750D01*
X148051198Y-97913827D01*
X147893084Y-97913827D01*
X147740357Y-97954750D01*
X147603425Y-98033807D01*
X147491621Y-98145611D01*
X147412564Y-98282543D01*
X147371641Y-98435270D01*
X147371641Y-98593384D01*
X147412564Y-98746111D01*
X147491621Y-98883043D01*
X147603425Y-98994847D01*
X147631102Y-99010826D01*
X147672043Y-99056294D01*
X147678439Y-99117144D01*
X147647847Y-99170133D01*
X147631102Y-99182298D01*
X147552627Y-99227605D01*
X147552625Y-99227607D01*
X147440821Y-99339411D01*
X147361764Y-99476343D01*
X147320841Y-99629070D01*
X147320841Y-99787184D01*
X147361764Y-99939911D01*
X147440821Y-100076843D01*
X147552625Y-100188647D01*
X147689557Y-100267704D01*
X147842284Y-100308627D01*
X147842286Y-100308627D01*
X148000396Y-100308627D01*
X148000398Y-100308627D01*
X148153125Y-100267704D01*
X148290057Y-100188647D01*
X148321277Y-100157427D01*
X148341082Y-100137623D01*
X148395599Y-100109846D01*
X148411085Y-100108627D01*
X149101866Y-100108627D01*
X149101868Y-100108627D01*
X149203729Y-100081334D01*
X149203731Y-100081332D01*
X149203733Y-100081332D01*
X149295049Y-100028610D01*
X149295049Y-100028609D01*
X149295054Y-100028607D01*
X149369441Y-99954220D01*
X149404439Y-99919223D01*
X149458955Y-99891446D01*
X149474442Y-99890227D01*
X151194240Y-99890227D01*
X151252431Y-99909134D01*
X151264243Y-99919223D01*
X151422427Y-100077406D01*
X151422432Y-100077410D01*
X151513749Y-100130132D01*
X151513747Y-100130132D01*
X151513751Y-100130133D01*
X151513753Y-100130134D01*
X151615614Y-100157427D01*
X151721068Y-100157427D01*
X152950658Y-100157427D01*
X152966500Y-100162574D01*
X152983152Y-100162912D01*
X152993261Y-100171269D01*
X153008849Y-100176334D01*
X153031913Y-100199871D01*
X153034302Y-100203304D01*
X153058861Y-100245840D01*
X153075467Y-100262446D01*
X153080496Y-100269671D01*
X153086933Y-100290939D01*
X153097022Y-100310740D01*
X153095615Y-100319623D01*
X153098221Y-100328233D01*
X153090927Y-100349223D01*
X153087451Y-100371172D01*
X153081089Y-100377533D01*
X153078138Y-100386028D01*
X153059901Y-100398721D01*
X153044186Y-100414437D01*
X153033709Y-100416952D01*
X153027920Y-100420982D01*
X153017779Y-100420776D01*
X152999241Y-100425227D01*
X150791514Y-100425227D01*
X150729172Y-100441931D01*
X150689649Y-100452521D01*
X150649566Y-100475663D01*
X150649567Y-100475664D01*
X150598329Y-100505246D01*
X149284944Y-101818631D01*
X149230427Y-101846408D01*
X149214940Y-101847627D01*
X145613642Y-101847627D01*
X145555451Y-101828720D01*
X145543638Y-101818631D01*
X143433202Y-99708195D01*
X141255425Y-97530418D01*
X148817041Y-97530418D01*
X148817041Y-97649036D01*
X148844115Y-97750078D01*
X148847743Y-97763617D01*
X148907048Y-97866335D01*
X148907050Y-97866337D01*
X148907052Y-97866340D01*
X148990928Y-97950216D01*
X148990930Y-97950217D01*
X148990932Y-97950219D01*
X149093651Y-98009524D01*
X149093652Y-98009524D01*
X149093655Y-98009526D01*
X149208232Y-98040227D01*
X149208234Y-98040227D01*
X153348850Y-98040227D01*
X153439210Y-98016014D01*
X153439213Y-98016014D01*
X153452444Y-98012468D01*
X153463428Y-98009526D01*
X153566155Y-97950216D01*
X153853299Y-97663072D01*
X155713045Y-97663072D01*
X155713045Y-97821186D01*
X155753968Y-97973913D01*
X155833025Y-98110845D01*
X155944829Y-98222649D01*
X156081761Y-98301706D01*
X156234488Y-98342629D01*
X156234490Y-98342629D01*
X156392600Y-98342629D01*
X156392602Y-98342629D01*
X156545329Y-98301706D01*
X156682261Y-98222649D01*
X156794065Y-98110845D01*
X156873122Y-97973913D01*
X156914045Y-97821186D01*
X156914045Y-97663072D01*
X156873122Y-97510345D01*
X156794065Y-97373413D01*
X156682261Y-97261609D01*
X156545329Y-97182552D01*
X156392602Y-97141629D01*
X156234488Y-97141629D01*
X156081761Y-97182552D01*
X155944829Y-97261609D01*
X155833025Y-97373413D01*
X155753968Y-97510345D01*
X155713045Y-97663072D01*
X153853299Y-97663072D01*
X153982830Y-97533541D01*
X154042139Y-97430814D01*
X154072840Y-97316236D01*
X154072840Y-97197618D01*
X154042139Y-97083040D01*
X153982830Y-96980313D01*
X153898955Y-96896438D01*
X153796228Y-96837129D01*
X153681650Y-96806428D01*
X153563032Y-96806428D01*
X153448454Y-96837129D01*
X153345724Y-96896440D01*
X153131933Y-97110231D01*
X153077417Y-97138008D01*
X153061930Y-97139227D01*
X151460450Y-97139227D01*
X149208232Y-97139227D01*
X149138108Y-97158016D01*
X149093650Y-97169929D01*
X148990932Y-97229234D01*
X148907048Y-97313118D01*
X148847743Y-97415836D01*
X148847742Y-97415841D01*
X148817041Y-97530418D01*
X141255425Y-97530418D01*
X141029854Y-97304847D01*
X141029851Y-97304845D01*
X141029849Y-97304843D01*
X140938532Y-97252121D01*
X140938534Y-97252121D01*
X140899011Y-97241531D01*
X140836668Y-97224827D01*
X140731214Y-97224827D01*
X140668870Y-97241531D01*
X140629348Y-97252121D01*
X140538032Y-97304843D01*
X140463457Y-97379418D01*
X140410735Y-97470734D01*
X140410734Y-97470739D01*
X140383441Y-97572600D01*
X99036841Y-97572600D01*
X99036841Y-96123870D01*
X151257841Y-96123870D01*
X151257841Y-96281984D01*
X151298764Y-96434711D01*
X151377821Y-96571643D01*
X151489625Y-96683447D01*
X151626557Y-96762504D01*
X151779284Y-96803427D01*
X151779286Y-96803427D01*
X151937396Y-96803427D01*
X151937398Y-96803427D01*
X152090125Y-96762504D01*
X152227057Y-96683447D01*
X152338861Y-96571643D01*
X152417918Y-96434711D01*
X152458841Y-96281984D01*
X152458841Y-96123870D01*
X152417918Y-95971143D01*
X152338861Y-95834211D01*
X152227057Y-95722407D01*
X152090125Y-95643350D01*
X151937398Y-95602427D01*
X151779284Y-95602427D01*
X151626557Y-95643350D01*
X151489625Y-95722407D01*
X151377821Y-95834211D01*
X151298764Y-95971143D01*
X151257841Y-96123870D01*
X99036841Y-96123870D01*
X99036841Y-95234870D01*
X107544447Y-95234870D01*
X107544447Y-95392984D01*
X107585370Y-95545711D01*
X107664427Y-95682643D01*
X107776231Y-95794447D01*
X107913163Y-95873504D01*
X108065890Y-95914427D01*
X108065892Y-95914427D01*
X108224002Y-95914427D01*
X108224004Y-95914427D01*
X108376731Y-95873504D01*
X108513663Y-95794447D01*
X108625467Y-95682643D01*
X108704524Y-95545711D01*
X108745447Y-95392984D01*
X108745447Y-95234870D01*
X108704524Y-95082143D01*
X108675921Y-95032600D01*
X140383441Y-95032600D01*
X140383441Y-95138054D01*
X140394239Y-95178353D01*
X140410735Y-95239919D01*
X140463457Y-95331235D01*
X140463459Y-95331237D01*
X140463461Y-95331240D01*
X140538028Y-95405807D01*
X140538030Y-95405808D01*
X140538032Y-95405810D01*
X140629349Y-95458532D01*
X140629347Y-95458532D01*
X140629351Y-95458533D01*
X140629353Y-95458534D01*
X140731214Y-95485827D01*
X140731216Y-95485827D01*
X140836666Y-95485827D01*
X140836668Y-95485827D01*
X140938529Y-95458534D01*
X140938531Y-95458532D01*
X140938533Y-95458532D01*
X141029849Y-95405810D01*
X141029849Y-95405809D01*
X141029854Y-95405807D01*
X141044575Y-95391086D01*
X147275357Y-95391086D01*
X147275357Y-95549200D01*
X147316280Y-95701927D01*
X147395337Y-95838859D01*
X147507141Y-95950663D01*
X147644073Y-96029720D01*
X147796800Y-96070643D01*
X147796802Y-96070643D01*
X147954912Y-96070643D01*
X147954914Y-96070643D01*
X148107641Y-96029720D01*
X148244573Y-95950663D01*
X148356377Y-95838859D01*
X148435434Y-95701927D01*
X148476357Y-95549200D01*
X148476357Y-95391086D01*
X148435434Y-95238359D01*
X148356377Y-95101427D01*
X148244573Y-94989623D01*
X148107641Y-94910566D01*
X147954914Y-94869643D01*
X147796800Y-94869643D01*
X147644073Y-94910566D01*
X147507141Y-94989623D01*
X147395337Y-95101427D01*
X147316280Y-95238359D01*
X147275357Y-95391086D01*
X141044575Y-95391086D01*
X141852803Y-94582858D01*
X144580881Y-94582858D01*
X144580881Y-94740972D01*
X144621804Y-94893699D01*
X144700861Y-95030631D01*
X144812665Y-95142435D01*
X144949597Y-95221492D01*
X145102324Y-95262415D01*
X145102326Y-95262415D01*
X145260436Y-95262415D01*
X145260438Y-95262415D01*
X145413165Y-95221492D01*
X145550097Y-95142435D01*
X145661901Y-95030631D01*
X145740958Y-94893699D01*
X145781881Y-94740972D01*
X145781881Y-94582858D01*
X145740958Y-94430131D01*
X145661901Y-94293199D01*
X145550097Y-94181395D01*
X145413165Y-94102338D01*
X145260438Y-94061415D01*
X145102324Y-94061415D01*
X144949597Y-94102338D01*
X144812665Y-94181395D01*
X144700861Y-94293199D01*
X144621804Y-94430131D01*
X144580881Y-94582858D01*
X141852803Y-94582858D01*
X142423238Y-94012423D01*
X142477755Y-93984646D01*
X142493242Y-93983427D01*
X142565396Y-93983427D01*
X142565398Y-93983427D01*
X142718125Y-93942504D01*
X142855057Y-93863447D01*
X142966861Y-93751643D01*
X143045918Y-93614711D01*
X143083656Y-93473870D01*
X146228641Y-93473870D01*
X146228641Y-93631984D01*
X146269564Y-93784711D01*
X146348621Y-93921643D01*
X146460425Y-94033447D01*
X146597357Y-94112504D01*
X146750084Y-94153427D01*
X146750086Y-94153427D01*
X146908196Y-94153427D01*
X146908198Y-94153427D01*
X147060925Y-94112504D01*
X147197857Y-94033447D01*
X147309661Y-93921643D01*
X147388718Y-93784711D01*
X147429641Y-93631984D01*
X147429641Y-93473870D01*
X147388718Y-93321143D01*
X147309661Y-93184211D01*
X147197857Y-93072407D01*
X147060925Y-92993350D01*
X146908198Y-92952427D01*
X146750084Y-92952427D01*
X146597357Y-92993350D01*
X146460425Y-93072407D01*
X146348621Y-93184211D01*
X146269564Y-93321143D01*
X146228641Y-93473870D01*
X143083656Y-93473870D01*
X143086841Y-93461984D01*
X143086841Y-93303870D01*
X143045918Y-93151143D01*
X142966861Y-93014211D01*
X142855057Y-92902407D01*
X142718125Y-92823350D01*
X142565398Y-92782427D01*
X142407284Y-92782427D01*
X142254557Y-92823350D01*
X142117625Y-92902407D01*
X142005821Y-93014211D01*
X141926764Y-93151143D01*
X141896290Y-93264876D01*
X141885841Y-93303871D01*
X141885841Y-93376026D01*
X141866934Y-93434217D01*
X141856845Y-93446030D01*
X140463457Y-94839418D01*
X140410735Y-94930734D01*
X140410734Y-94930739D01*
X140383441Y-95032600D01*
X108675921Y-95032600D01*
X108625467Y-94945211D01*
X108513663Y-94833407D01*
X108376731Y-94754350D01*
X108224004Y-94713427D01*
X108065890Y-94713427D01*
X107913163Y-94754350D01*
X107776231Y-94833407D01*
X107664427Y-94945211D01*
X107585370Y-95082143D01*
X107544447Y-95234870D01*
X99036841Y-95234870D01*
X99036841Y-93264875D01*
X109743036Y-93264875D01*
X109743036Y-93422989D01*
X109783959Y-93575716D01*
X109863016Y-93712648D01*
X109974820Y-93824452D01*
X110111752Y-93903509D01*
X110264479Y-93944432D01*
X110264481Y-93944432D01*
X110422591Y-93944432D01*
X110422593Y-93944432D01*
X110575320Y-93903509D01*
X110712252Y-93824452D01*
X110824056Y-93712648D01*
X110903113Y-93575716D01*
X110944036Y-93422989D01*
X110944036Y-93355270D01*
X126873841Y-93355270D01*
X126873841Y-93513384D01*
X126914764Y-93666111D01*
X126993821Y-93803043D01*
X127105625Y-93914847D01*
X127242557Y-93993904D01*
X127395284Y-94034827D01*
X127395286Y-94034827D01*
X127553396Y-94034827D01*
X127553398Y-94034827D01*
X127706125Y-93993904D01*
X127843057Y-93914847D01*
X127954861Y-93803043D01*
X128033918Y-93666111D01*
X128074841Y-93513384D01*
X128074841Y-93355270D01*
X128033918Y-93202543D01*
X127954861Y-93065611D01*
X127843057Y-92953807D01*
X127706125Y-92874750D01*
X127553398Y-92833827D01*
X127395284Y-92833827D01*
X127242557Y-92874750D01*
X127105625Y-92953807D01*
X126993821Y-93065611D01*
X126914764Y-93202543D01*
X126873841Y-93355270D01*
X110944036Y-93355270D01*
X110944036Y-93264875D01*
X110903113Y-93112148D01*
X110824056Y-92975216D01*
X110712252Y-92863412D01*
X110575320Y-92784355D01*
X110422593Y-92743432D01*
X110264479Y-92743432D01*
X110111752Y-92784355D01*
X109974820Y-92863412D01*
X109863016Y-92975216D01*
X109783959Y-93112148D01*
X109743036Y-93264875D01*
X99036841Y-93264875D01*
X99036841Y-92669470D01*
X124384641Y-92669470D01*
X124384641Y-92827584D01*
X124425564Y-92980311D01*
X124504621Y-93117243D01*
X124616425Y-93229047D01*
X124753357Y-93308104D01*
X124906084Y-93349027D01*
X124906086Y-93349027D01*
X125064196Y-93349027D01*
X125064198Y-93349027D01*
X125216925Y-93308104D01*
X125353857Y-93229047D01*
X125465661Y-93117243D01*
X125538334Y-92991367D01*
X125583803Y-92950427D01*
X125644653Y-92944031D01*
X125697641Y-92974624D01*
X125709804Y-92991365D01*
X125723821Y-93015643D01*
X125835625Y-93127447D01*
X125972557Y-93206504D01*
X126125284Y-93247427D01*
X126125286Y-93247427D01*
X126283396Y-93247427D01*
X126283398Y-93247427D01*
X126436125Y-93206504D01*
X126573057Y-93127447D01*
X126684861Y-93015643D01*
X126763918Y-92878711D01*
X126804841Y-92725984D01*
X126804841Y-92567870D01*
X126763918Y-92415143D01*
X126684861Y-92278211D01*
X126573057Y-92166407D01*
X126436125Y-92087350D01*
X126283398Y-92046427D01*
X126125284Y-92046427D01*
X125987612Y-92083316D01*
X125972557Y-92087350D01*
X125835625Y-92166407D01*
X125723819Y-92278213D01*
X125651147Y-92404085D01*
X125605678Y-92445026D01*
X125544827Y-92451422D01*
X125491839Y-92420829D01*
X125479674Y-92404083D01*
X125465662Y-92379813D01*
X125465661Y-92379811D01*
X125353857Y-92268007D01*
X125216925Y-92188950D01*
X125064198Y-92148027D01*
X124906084Y-92148027D01*
X124753357Y-92188950D01*
X124616425Y-92268007D01*
X124504621Y-92379811D01*
X124425564Y-92516743D01*
X124384641Y-92669470D01*
X99036841Y-92669470D01*
X99036841Y-92034470D01*
X131014041Y-92034470D01*
X131014041Y-92192584D01*
X131054964Y-92345311D01*
X131134021Y-92482243D01*
X131245825Y-92594047D01*
X131382757Y-92673104D01*
X131535484Y-92714027D01*
X131535486Y-92714027D01*
X131693596Y-92714027D01*
X131693598Y-92714027D01*
X131846325Y-92673104D01*
X131983257Y-92594047D01*
X132095061Y-92482243D01*
X132174118Y-92345311D01*
X132193812Y-92271813D01*
X147516527Y-92271813D01*
X147516527Y-92429927D01*
X147557450Y-92582654D01*
X147636507Y-92719586D01*
X147748311Y-92831390D01*
X147885243Y-92910447D01*
X148037970Y-92951370D01*
X148037972Y-92951370D01*
X148196082Y-92951370D01*
X148196084Y-92951370D01*
X148348811Y-92910447D01*
X148485743Y-92831390D01*
X148597547Y-92719586D01*
X148676604Y-92582654D01*
X148717527Y-92429927D01*
X148717527Y-92271813D01*
X148676604Y-92119086D01*
X148597547Y-91982154D01*
X148485743Y-91870350D01*
X148348811Y-91791293D01*
X148196084Y-91750370D01*
X148037970Y-91750370D01*
X147885243Y-91791293D01*
X147748311Y-91870350D01*
X147636507Y-91982154D01*
X147557450Y-92119086D01*
X147516527Y-92271813D01*
X132193812Y-92271813D01*
X132215041Y-92192584D01*
X132215041Y-92034470D01*
X132174118Y-91881743D01*
X132095061Y-91744811D01*
X131983257Y-91633007D01*
X131846325Y-91553950D01*
X131693598Y-91513027D01*
X131535484Y-91513027D01*
X131382757Y-91553950D01*
X131245825Y-91633007D01*
X131134021Y-91744811D01*
X131054964Y-91881743D01*
X131014041Y-92034470D01*
X99036841Y-92034470D01*
X99036841Y-91297870D01*
X102489841Y-91297870D01*
X102489841Y-91455984D01*
X102530764Y-91608711D01*
X102609821Y-91745643D01*
X102721625Y-91857447D01*
X102858557Y-91936504D01*
X103011284Y-91977427D01*
X103011286Y-91977427D01*
X103169396Y-91977427D01*
X103169398Y-91977427D01*
X103322125Y-91936504D01*
X103459057Y-91857447D01*
X103570861Y-91745643D01*
X103649918Y-91608711D01*
X103690841Y-91455984D01*
X103690841Y-91297870D01*
X103649918Y-91145143D01*
X103570861Y-91008211D01*
X103459057Y-90896407D01*
X103322125Y-90817350D01*
X103169398Y-90776427D01*
X103011284Y-90776427D01*
X102858557Y-90817350D01*
X102721625Y-90896407D01*
X102609821Y-91008211D01*
X102530764Y-91145143D01*
X102489841Y-91297870D01*
X99036841Y-91297870D01*
X99036841Y-90535870D01*
X128963841Y-90535870D01*
X128963841Y-90693984D01*
X129004764Y-90846711D01*
X129083821Y-90983643D01*
X129195625Y-91095447D01*
X129332557Y-91174504D01*
X129485284Y-91215427D01*
X129485286Y-91215427D01*
X129643396Y-91215427D01*
X129643398Y-91215427D01*
X129796125Y-91174504D01*
X129933057Y-91095447D01*
X130044861Y-90983643D01*
X130123918Y-90846711D01*
X130164841Y-90693984D01*
X130164841Y-90535870D01*
X130123918Y-90383143D01*
X130044861Y-90246211D01*
X129933057Y-90134407D01*
X129796125Y-90055350D01*
X129643398Y-90014427D01*
X129485284Y-90014427D01*
X129332557Y-90055350D01*
X129195625Y-90134407D01*
X129083821Y-90246211D01*
X129004764Y-90383143D01*
X128963841Y-90535870D01*
X99036841Y-90535870D01*
X99036841Y-88426700D01*
X149021341Y-88426700D01*
X149021341Y-92293254D01*
X149048634Y-92395114D01*
X149048635Y-92395116D01*
X149048635Y-92395117D01*
X149098937Y-92482242D01*
X149101361Y-92486440D01*
X149175928Y-92561007D01*
X149267254Y-92613734D01*
X149369114Y-92641027D01*
X149369116Y-92641027D01*
X149474566Y-92641027D01*
X149474568Y-92641027D01*
X149576428Y-92613734D01*
X149667754Y-92561007D01*
X149742321Y-92486440D01*
X149795048Y-92395114D01*
X149822341Y-92293254D01*
X149822341Y-88686327D01*
X149841248Y-88628136D01*
X149851331Y-88616329D01*
X150146821Y-88320840D01*
X150160509Y-88297131D01*
X150199548Y-88229514D01*
X150226841Y-88127654D01*
X150226841Y-87741670D01*
X152504010Y-87741670D01*
X152504010Y-87899784D01*
X152544933Y-88052511D01*
X152623990Y-88189443D01*
X152735794Y-88301247D01*
X152872726Y-88380304D01*
X153025453Y-88421227D01*
X153025455Y-88421227D01*
X153167897Y-88421227D01*
X153226088Y-88440134D01*
X153262052Y-88489634D01*
X153266897Y-88520227D01*
X153266897Y-88620767D01*
X153307820Y-88773494D01*
X153386877Y-88910426D01*
X153498681Y-89022230D01*
X153635613Y-89101287D01*
X153788340Y-89142210D01*
X153788342Y-89142210D01*
X153946452Y-89142210D01*
X153946454Y-89142210D01*
X154099181Y-89101287D01*
X154236113Y-89022230D01*
X154347917Y-88910426D01*
X154426974Y-88773494D01*
X154467897Y-88620767D01*
X154467897Y-88462653D01*
X154426974Y-88309926D01*
X154347917Y-88172994D01*
X154236113Y-88061190D01*
X154099181Y-87982133D01*
X153946454Y-87941210D01*
X153804010Y-87941210D01*
X153745819Y-87922303D01*
X153709855Y-87872803D01*
X153705010Y-87842210D01*
X153705010Y-87741671D01*
X153705010Y-87741670D01*
X153664087Y-87588943D01*
X153585030Y-87452011D01*
X153473226Y-87340207D01*
X153336294Y-87261150D01*
X153183567Y-87220227D01*
X153025453Y-87220227D01*
X152872726Y-87261150D01*
X152735794Y-87340207D01*
X152623990Y-87452011D01*
X152544933Y-87588943D01*
X152504010Y-87741670D01*
X150226841Y-87741670D01*
X150226841Y-86354870D01*
X150245748Y-86296679D01*
X150255831Y-86284872D01*
X150306861Y-86233843D01*
X150385918Y-86096911D01*
X150426841Y-85944184D01*
X150426841Y-85786070D01*
X150385918Y-85633343D01*
X150306861Y-85496411D01*
X150195057Y-85384607D01*
X150058125Y-85305550D01*
X149905398Y-85264627D01*
X149747284Y-85264627D01*
X149594557Y-85305550D01*
X149457625Y-85384607D01*
X149345821Y-85496411D01*
X149266764Y-85633343D01*
X149225841Y-85786070D01*
X149225841Y-85944184D01*
X149266764Y-86096911D01*
X149345821Y-86233843D01*
X149396846Y-86284868D01*
X149424622Y-86339383D01*
X149425841Y-86354870D01*
X149425841Y-87868026D01*
X149406934Y-87926217D01*
X149396845Y-87938029D01*
X149101361Y-88233513D01*
X149101357Y-88233518D01*
X149048636Y-88324833D01*
X149048634Y-88324837D01*
X149048634Y-88324839D01*
X149029726Y-88395407D01*
X149021341Y-88426700D01*
X99036841Y-88426700D01*
X99036841Y-87081470D01*
X147549441Y-87081470D01*
X147549441Y-87239584D01*
X147590364Y-87392311D01*
X147669421Y-87529243D01*
X147781225Y-87641047D01*
X147918157Y-87720104D01*
X148070884Y-87761027D01*
X148070886Y-87761027D01*
X148228996Y-87761027D01*
X148228998Y-87761027D01*
X148381725Y-87720104D01*
X148518657Y-87641047D01*
X148630461Y-87529243D01*
X148709518Y-87392311D01*
X148750441Y-87239584D01*
X148750441Y-87081470D01*
X148709518Y-86928743D01*
X148630461Y-86791811D01*
X148518657Y-86680007D01*
X148381725Y-86600950D01*
X148228998Y-86560027D01*
X148070884Y-86560027D01*
X147918157Y-86600950D01*
X147781225Y-86680007D01*
X147669421Y-86791811D01*
X147590364Y-86928743D01*
X147549441Y-87081470D01*
X99036841Y-87081470D01*
X99036841Y-84693870D01*
X109347841Y-84693870D01*
X109347841Y-84851984D01*
X109388764Y-85004711D01*
X109467821Y-85141643D01*
X109579625Y-85253447D01*
X109716557Y-85332504D01*
X109869284Y-85373427D01*
X109869286Y-85373427D01*
X110027396Y-85373427D01*
X110027398Y-85373427D01*
X110180125Y-85332504D01*
X110317057Y-85253447D01*
X110428861Y-85141643D01*
X110507918Y-85004711D01*
X110548841Y-84851984D01*
X110548841Y-84693870D01*
X110514812Y-84566870D01*
X117475841Y-84566870D01*
X117475841Y-84724984D01*
X117516764Y-84877711D01*
X117595821Y-85014643D01*
X117707625Y-85126447D01*
X117844557Y-85205504D01*
X117997284Y-85246427D01*
X117997286Y-85246427D01*
X118155396Y-85246427D01*
X118155398Y-85246427D01*
X118308125Y-85205504D01*
X118445057Y-85126447D01*
X118556861Y-85014643D01*
X118635918Y-84877711D01*
X118671057Y-84746570D01*
X127028141Y-84746570D01*
X127028141Y-84904684D01*
X127069064Y-85057411D01*
X127148121Y-85194343D01*
X127259925Y-85306147D01*
X127396857Y-85385204D01*
X127549584Y-85426127D01*
X127549586Y-85426127D01*
X127707696Y-85426127D01*
X127707698Y-85426127D01*
X127860425Y-85385204D01*
X127997357Y-85306147D01*
X128109161Y-85194343D01*
X128188218Y-85057411D01*
X128229141Y-84904684D01*
X128229141Y-84746570D01*
X128188218Y-84593843D01*
X128109161Y-84456911D01*
X127997357Y-84345107D01*
X127860425Y-84266050D01*
X127707698Y-84225127D01*
X127549584Y-84225127D01*
X127396857Y-84266050D01*
X127259925Y-84345107D01*
X127148121Y-84456911D01*
X127069064Y-84593843D01*
X127028141Y-84746570D01*
X118671057Y-84746570D01*
X118676841Y-84724984D01*
X118676841Y-84566870D01*
X118635918Y-84414143D01*
X118556861Y-84277211D01*
X118445057Y-84165407D01*
X118308125Y-84086350D01*
X118300362Y-84084270D01*
X151054641Y-84084270D01*
X151054641Y-84242384D01*
X151095564Y-84395111D01*
X151174621Y-84532043D01*
X151286425Y-84643847D01*
X151423357Y-84722904D01*
X151576084Y-84763827D01*
X151576086Y-84763827D01*
X151734196Y-84763827D01*
X151734198Y-84763827D01*
X151886925Y-84722904D01*
X152023857Y-84643847D01*
X152135661Y-84532043D01*
X152214718Y-84395111D01*
X152255641Y-84242384D01*
X152255641Y-84084270D01*
X152242029Y-84033470D01*
X161417841Y-84033470D01*
X161417841Y-84191584D01*
X161458764Y-84344311D01*
X161537821Y-84481243D01*
X161649625Y-84593047D01*
X161786557Y-84672104D01*
X161939284Y-84713027D01*
X161939286Y-84713027D01*
X162097396Y-84713027D01*
X162097398Y-84713027D01*
X162250125Y-84672104D01*
X162387057Y-84593047D01*
X162498861Y-84481243D01*
X162522749Y-84439868D01*
X165431041Y-84439868D01*
X165431041Y-84597982D01*
X165471964Y-84750709D01*
X165551021Y-84887641D01*
X165662825Y-84999445D01*
X165799757Y-85078502D01*
X165952484Y-85119425D01*
X165952486Y-85119425D01*
X166110596Y-85119425D01*
X166110598Y-85119425D01*
X166263325Y-85078502D01*
X166400257Y-84999445D01*
X166512061Y-84887641D01*
X166591118Y-84750709D01*
X166632041Y-84597982D01*
X166632041Y-84439868D01*
X166591118Y-84287141D01*
X166512061Y-84150209D01*
X166400257Y-84038405D01*
X166263325Y-83959348D01*
X166110598Y-83918425D01*
X165952484Y-83918425D01*
X165799757Y-83959348D01*
X165662825Y-84038405D01*
X165551021Y-84150209D01*
X165471964Y-84287141D01*
X165431041Y-84439868D01*
X162522749Y-84439868D01*
X162577918Y-84344311D01*
X162618841Y-84191584D01*
X162618841Y-84033470D01*
X162577918Y-83880743D01*
X162498861Y-83743811D01*
X162387057Y-83632007D01*
X162250125Y-83552950D01*
X162097398Y-83512027D01*
X161939284Y-83512027D01*
X161786557Y-83552950D01*
X161649625Y-83632007D01*
X161537821Y-83743811D01*
X161458764Y-83880743D01*
X161417841Y-84033470D01*
X152242029Y-84033470D01*
X152214718Y-83931543D01*
X152135661Y-83794611D01*
X152023857Y-83682807D01*
X151886925Y-83603750D01*
X151734198Y-83562827D01*
X151576084Y-83562827D01*
X151423357Y-83603750D01*
X151286425Y-83682807D01*
X151174621Y-83794611D01*
X151095564Y-83931543D01*
X151054641Y-84084270D01*
X118300362Y-84084270D01*
X118155398Y-84045427D01*
X117997284Y-84045427D01*
X117844557Y-84086350D01*
X117707625Y-84165407D01*
X117595821Y-84277211D01*
X117516764Y-84414143D01*
X117475841Y-84566870D01*
X110514812Y-84566870D01*
X110507918Y-84541143D01*
X110428861Y-84404211D01*
X110317057Y-84292407D01*
X110180125Y-84213350D01*
X110027398Y-84172427D01*
X109869284Y-84172427D01*
X109716557Y-84213350D01*
X109579625Y-84292407D01*
X109467821Y-84404211D01*
X109388764Y-84541143D01*
X109347841Y-84693870D01*
X99036841Y-84693870D01*
X99036841Y-77872108D01*
X154630041Y-77872108D01*
X154630041Y-78059345D01*
X154666567Y-78242976D01*
X154738218Y-78415956D01*
X154738222Y-78415965D01*
X154812606Y-78527286D01*
X154842239Y-78571635D01*
X154974633Y-78704029D01*
X155035112Y-78744440D01*
X155130302Y-78808045D01*
X155130308Y-78808047D01*
X155130310Y-78808049D01*
X155303290Y-78879700D01*
X155486925Y-78916227D01*
X155486926Y-78916227D01*
X155674156Y-78916227D01*
X155674157Y-78916227D01*
X155857792Y-78879700D01*
X156030772Y-78808049D01*
X156030775Y-78808046D01*
X156030779Y-78808045D01*
X156075728Y-78778009D01*
X156186449Y-78704029D01*
X156318843Y-78571635D01*
X156392823Y-78460914D01*
X156422859Y-78415965D01*
X156422860Y-78415961D01*
X156422863Y-78415958D01*
X156494514Y-78242978D01*
X156531041Y-78059343D01*
X156531041Y-77872111D01*
X156531040Y-77872108D01*
X159510041Y-77872108D01*
X159510041Y-78059345D01*
X159546567Y-78242976D01*
X159618218Y-78415956D01*
X159618222Y-78415965D01*
X159692606Y-78527286D01*
X159722239Y-78571635D01*
X159854633Y-78704029D01*
X159915112Y-78744440D01*
X160010302Y-78808045D01*
X160010308Y-78808047D01*
X160010310Y-78808049D01*
X160183290Y-78879700D01*
X160366925Y-78916227D01*
X160366926Y-78916227D01*
X160554156Y-78916227D01*
X160554157Y-78916227D01*
X160737792Y-78879700D01*
X160910772Y-78808049D01*
X160910775Y-78808046D01*
X160910779Y-78808045D01*
X160955728Y-78778009D01*
X161066449Y-78704029D01*
X161198843Y-78571635D01*
X161272823Y-78460914D01*
X161302859Y-78415965D01*
X161302860Y-78415961D01*
X161302863Y-78415958D01*
X161374514Y-78242978D01*
X161388636Y-78171983D01*
X180829841Y-78171983D01*
X180829841Y-78369070D01*
X180868290Y-78562361D01*
X180868290Y-78562363D01*
X180943708Y-78744440D01*
X180943709Y-78744441D01*
X181053202Y-78908309D01*
X181192559Y-79047666D01*
X181356427Y-79157159D01*
X181538506Y-79232578D01*
X181731800Y-79271027D01*
X181731801Y-79271027D01*
X181928881Y-79271027D01*
X181928882Y-79271027D01*
X182122176Y-79232578D01*
X182304255Y-79157159D01*
X182468123Y-79047666D01*
X182607480Y-78908309D01*
X182716973Y-78744441D01*
X182792392Y-78562362D01*
X182830841Y-78369068D01*
X182830841Y-78171986D01*
X182792392Y-77978692D01*
X182716973Y-77796613D01*
X182607480Y-77632745D01*
X182468123Y-77493388D01*
X182304255Y-77383895D01*
X182304256Y-77383895D01*
X182304254Y-77383894D01*
X182122176Y-77308476D01*
X181928884Y-77270027D01*
X181928882Y-77270027D01*
X181731800Y-77270027D01*
X181731797Y-77270027D01*
X181538506Y-77308476D01*
X181538504Y-77308476D01*
X181356427Y-77383894D01*
X181192559Y-77493388D01*
X181192555Y-77493391D01*
X181053205Y-77632741D01*
X181053202Y-77632745D01*
X180943708Y-77796613D01*
X180868290Y-77978690D01*
X180868290Y-77978692D01*
X180829841Y-78171983D01*
X161388636Y-78171983D01*
X161411041Y-78059343D01*
X161411041Y-77872111D01*
X161374514Y-77688476D01*
X161302863Y-77515496D01*
X161302861Y-77515494D01*
X161302859Y-77515488D01*
X161243190Y-77426190D01*
X161198843Y-77359819D01*
X161066449Y-77227425D01*
X161022100Y-77197792D01*
X160910779Y-77123408D01*
X160910770Y-77123404D01*
X160737790Y-77051753D01*
X160554159Y-77015227D01*
X160554157Y-77015227D01*
X160366925Y-77015227D01*
X160366922Y-77015227D01*
X160183291Y-77051753D01*
X160010311Y-77123404D01*
X160010302Y-77123408D01*
X159854633Y-77227425D01*
X159854629Y-77227428D01*
X159722242Y-77359815D01*
X159722239Y-77359819D01*
X159618222Y-77515488D01*
X159618218Y-77515497D01*
X159546567Y-77688477D01*
X159510041Y-77872108D01*
X156531040Y-77872108D01*
X156494514Y-77688476D01*
X156422863Y-77515496D01*
X156422861Y-77515494D01*
X156422859Y-77515488D01*
X156363190Y-77426190D01*
X156318843Y-77359819D01*
X156186449Y-77227425D01*
X156142100Y-77197792D01*
X156030779Y-77123408D01*
X156030770Y-77123404D01*
X155857790Y-77051753D01*
X155674159Y-77015227D01*
X155674157Y-77015227D01*
X155486925Y-77015227D01*
X155486922Y-77015227D01*
X155303291Y-77051753D01*
X155130311Y-77123404D01*
X155130302Y-77123408D01*
X154974633Y-77227425D01*
X154974629Y-77227428D01*
X154842242Y-77359815D01*
X154842239Y-77359819D01*
X154738222Y-77515488D01*
X154738218Y-77515497D01*
X154666567Y-77688477D01*
X154630041Y-77872108D01*
X99036841Y-77872108D01*
X99036841Y-76749583D01*
X125762641Y-76749583D01*
X125762641Y-76749586D01*
X125762641Y-76946668D01*
X125797796Y-77123404D01*
X125801090Y-77139961D01*
X125801090Y-77139963D01*
X125876508Y-77322040D01*
X125876509Y-77322041D01*
X125986002Y-77485909D01*
X126125359Y-77625266D01*
X126289227Y-77734759D01*
X126471306Y-77810178D01*
X126664600Y-77848627D01*
X126664601Y-77848627D01*
X126861681Y-77848627D01*
X126861682Y-77848627D01*
X127054976Y-77810178D01*
X127237055Y-77734759D01*
X127400923Y-77625266D01*
X127540280Y-77485909D01*
X127649773Y-77322041D01*
X127725192Y-77139962D01*
X127763641Y-76946668D01*
X127763641Y-76847652D01*
X166950841Y-76847652D01*
X166950841Y-77706201D01*
X166953694Y-77736621D01*
X166953696Y-77736630D01*
X166998548Y-77864810D01*
X167079186Y-77974071D01*
X167079188Y-77974073D01*
X167079191Y-77974077D01*
X167079194Y-77974079D01*
X167079196Y-77974081D01*
X167188457Y-78054719D01*
X167188458Y-78054719D01*
X167188459Y-78054720D01*
X167316642Y-78099573D01*
X167347066Y-78102426D01*
X167347068Y-78102427D01*
X167347075Y-78102427D01*
X168705614Y-78102427D01*
X168705614Y-78102426D01*
X168736040Y-78099573D01*
X168781808Y-78083557D01*
X168810045Y-78073678D01*
X168829710Y-78066796D01*
X168864223Y-78054720D01*
X168973491Y-77974077D01*
X169054134Y-77864809D01*
X169098987Y-77736626D01*
X169101840Y-77706200D01*
X169101841Y-77706200D01*
X169101841Y-76847654D01*
X169101840Y-76847652D01*
X169098987Y-76817232D01*
X169098987Y-76817228D01*
X169054134Y-76689045D01*
X168973491Y-76579777D01*
X168973487Y-76579774D01*
X168973485Y-76579772D01*
X168864224Y-76499134D01*
X168736044Y-76454282D01*
X168736035Y-76454280D01*
X168705615Y-76451427D01*
X168705607Y-76451427D01*
X168578718Y-76451427D01*
X168520527Y-76432520D01*
X168484563Y-76383020D01*
X168484563Y-76321834D01*
X168492981Y-76302927D01*
X168493259Y-76302444D01*
X168493261Y-76302443D01*
X168572318Y-76165511D01*
X168613241Y-76012784D01*
X168613241Y-75854670D01*
X168572318Y-75701943D01*
X168493261Y-75565011D01*
X168381457Y-75453207D01*
X168244525Y-75374150D01*
X168091798Y-75333227D01*
X167933684Y-75333227D01*
X167780957Y-75374150D01*
X167644025Y-75453207D01*
X167532221Y-75565011D01*
X167453164Y-75701943D01*
X167412241Y-75854670D01*
X167412241Y-76012784D01*
X167453164Y-76165511D01*
X167532221Y-76302443D01*
X167532222Y-76302444D01*
X167532501Y-76302927D01*
X167545222Y-76362776D01*
X167520335Y-76418671D01*
X167467347Y-76449264D01*
X167446764Y-76451427D01*
X167347066Y-76451427D01*
X167316646Y-76454280D01*
X167316637Y-76454282D01*
X167188457Y-76499134D01*
X167079196Y-76579772D01*
X167079186Y-76579782D01*
X166998548Y-76689043D01*
X166953696Y-76817223D01*
X166953694Y-76817232D01*
X166950841Y-76847652D01*
X127763641Y-76847652D01*
X127763641Y-76749586D01*
X127725192Y-76556292D01*
X127649773Y-76374213D01*
X127540280Y-76210345D01*
X127400923Y-76070988D01*
X127237055Y-75961495D01*
X127237056Y-75961495D01*
X127237054Y-75961494D01*
X127054976Y-75886076D01*
X126861684Y-75847627D01*
X126861682Y-75847627D01*
X126664600Y-75847627D01*
X126664597Y-75847627D01*
X126471306Y-75886076D01*
X126471304Y-75886076D01*
X126289227Y-75961494D01*
X126125359Y-76070988D01*
X126125355Y-76070991D01*
X125986005Y-76210341D01*
X125986002Y-76210345D01*
X125876508Y-76374213D01*
X125801090Y-76556290D01*
X125801090Y-76556292D01*
X125762641Y-76749583D01*
X99036841Y-76749583D01*
X99036841Y-73960427D01*
X99055748Y-73902236D01*
X99105248Y-73866272D01*
X99135841Y-73861427D01*
X189848841Y-73861427D01*
X189907032Y-73880334D01*
G37*
%TD.AperFunction*%
%TD*%
M02*
