M48
; DRILL file {KiCad 9.0.6+1} date 2025-12-27T18:04:55+0000
; FORMAT={3:3/ absolute / metric / suppress leading zeros}
; #@! TF.CreationDate,2025-12-27T18:04:55+00:00
; #@! TF.GenerationSoftware,Kicad,Pcbnew,9.0.6+1
; #@! TF.FileFunction,Plated,1,2,PTH
FMAT,2
METRIC,TZ
; #@! TA.AperFunction,Plated,PTH,ComponentDrill
T1C1.000
; #@! TA.AperFunction,Plated,PTH,ComponentDrill
T2C3.000
%
G90
G05
T1
X23144Y52649
X23144Y50109
X25684Y52649
X25684Y50109
X28224Y52649
X28224Y50109
X30764Y52649
X30764Y50109
X33304Y52649
X33304Y50109
X35844Y52649
X35844Y50109
X38384Y52649
X38384Y50109
X40924Y52649
X40924Y50109
X43464Y52649
X43464Y50109
X46004Y52649
X46004Y50109
X48544Y52649
X48544Y50109
X51084Y52649
X51084Y50109
X53624Y52649
X53624Y50109
X56164Y52649
X56164Y50109
X58704Y52649
X58704Y50109
T2
X10160Y50800
X10160Y10160
X71120Y50800
X71120Y10160
M30
