%TF.GenerationSoftware,KiCad,Pcbnew,9.0.6+1*%
%TF.CreationDate,2025-12-27T18:04:55+00:00*%
%TF.ProjectId,TFUNIPAYLOAD01,5446554e-4950-4415-994c-4f414430312e,rev?*%
%TF.SameCoordinates,PX66dd020PY81342c0*%
%TF.FileFunction,Copper,L1,Top*%
%TF.FilePolarity,Positive*%
%FSLAX46Y46*%
G04 Gerber Fmt 4.6, Leading zero omitted, Abs format (unit mm)*
G04 Created by KiCad (PCBNEW 9.0.6+1) date 2025-12-27 18:04:55*
%MOMM*%
%LPD*%
G01*
G04 APERTURE LIST*
%TA.AperFunction,ComponentPad*%
%ADD10C,6.000000*%
%TD*%
%TA.AperFunction,SMDPad,CuDef*%
%ADD11R,1.524000X1.524000*%
%TD*%
%TA.AperFunction,ComponentPad*%
%ADD12R,1.700000X1.700000*%
%TD*%
%TA.AperFunction,ComponentPad*%
%ADD13C,1.700000*%
%TD*%
G04 APERTURE END LIST*
D10*
%TO.P,M2,1*%
%TO.N,GND*%
X71120000Y50800000D03*
%TD*%
%TO.P,M3,1*%
%TO.N,GND*%
X10160000Y10160000D03*
%TD*%
%TO.P,M4,1*%
%TO.N,GND*%
X71120000Y10160000D03*
%TD*%
%TO.P,M1,1*%
%TO.N,GND*%
X10160000Y50800000D03*
%TD*%
D11*
%TO.P,J3,1*%
%TO.N,/MISO*%
X49987200Y23012400D03*
%TO.P,J3,2*%
%TO.N,+3.3V*%
X47447200Y23012400D03*
%TO.P,J3,3*%
%TO.N,/SCLK*%
X49987200Y25552400D03*
%TO.P,J3,4*%
%TO.N,/MOSI*%
X47447200Y25552400D03*
%TO.P,J3,5*%
%TO.N,/RST#_P*%
X49987200Y28092400D03*
%TO.P,J3,6*%
%TO.N,GND*%
X47447200Y28092400D03*
%TD*%
D12*
%TO.P,J5,1*%
%TO.N,GND*%
X23144000Y52648800D03*
D13*
%TO.P,J5,2*%
X23144000Y50108800D03*
%TO.P,J5,3*%
%TO.N,+5V*%
X25684000Y52648800D03*
%TO.P,J5,4*%
X25684000Y50108800D03*
%TO.P,J5,5*%
%TO.N,+3.3V*%
X28224000Y52648800D03*
%TO.P,J5,6*%
X28224000Y50108800D03*
%TO.P,J5,7*%
%TO.N,GND*%
X30764000Y52648800D03*
%TO.P,J5,8*%
%TO.N,/EXT_DETECTION*%
X30764000Y50108800D03*
%TO.P,J5,9*%
%TO.N,/A0*%
X33304000Y52648800D03*
%TO.P,J5,10*%
%TO.N,/~{RST}_EXT*%
X33304000Y50108800D03*
%TO.P,J5,11*%
%TO.N,/A1*%
X35844000Y52648800D03*
%TO.P,J5,12*%
%TO.N,/RX1*%
X35844000Y50108800D03*
%TO.P,J5,13*%
%TO.N,/B1*%
X38384000Y52648800D03*
%TO.P,J5,14*%
%TO.N,/TX1*%
X38384000Y50108800D03*
%TO.P,J5,15*%
%TO.N,/B0*%
X40924000Y52648800D03*
%TO.P,J5,16*%
%TO.N,/MOSI*%
X40924000Y50108800D03*
%TO.P,J5,17*%
%TO.N,/C1*%
X43464000Y52648800D03*
%TO.P,J5,18*%
%TO.N,/MISO*%
X43464000Y50108800D03*
%TO.P,J5,19*%
%TO.N,/C0*%
X46004000Y52648800D03*
%TO.P,J5,20*%
%TO.N,/SCLK*%
X46004000Y50108800D03*
%TO.P,J5,21*%
%TO.N,GND*%
X48544000Y52648800D03*
%TO.P,J5,22*%
X48544000Y50108800D03*
%TO.P,J5,23*%
%TO.N,/SCL*%
X51084000Y52648800D03*
%TO.P,J5,24*%
X51084000Y50108800D03*
%TO.P,J5,25*%
%TO.N,+3.3V*%
X53624000Y52648800D03*
%TO.P,J5,26*%
X53624000Y50108800D03*
%TO.P,J5,27*%
%TO.N,/SDA*%
X56164000Y52648800D03*
%TO.P,J5,28*%
X56164000Y50108800D03*
%TO.P,J5,29*%
%TO.N,GND*%
X58704000Y52648800D03*
%TO.P,J5,30*%
X58704000Y50108800D03*
%TD*%
%TA.AperFunction,Conductor*%
%TO.N,GND*%
G36*
X24703091Y51871428D02*
G01*
X24730172Y51834154D01*
X24869354Y51694972D01*
X25028595Y51579276D01*
X25203975Y51489916D01*
X25203977Y51489916D01*
X25203978Y51489915D01*
X25203981Y51489913D01*
X25256175Y51472954D01*
X25305675Y51436990D01*
X25324582Y51378799D01*
X25305674Y51320609D01*
X25256175Y51284646D01*
X25203981Y51267688D01*
X25203978Y51267686D01*
X25028597Y51178326D01*
X24869355Y51062629D01*
X24730171Y50923445D01*
X24614474Y50764203D01*
X24574880Y50686494D01*
X24531615Y50643229D01*
X24471183Y50633658D01*
X24416666Y50661436D01*
X24398460Y50686494D01*
X24324282Y50832078D01*
X24324278Y50832083D01*
X24283129Y50888719D01*
X23628157Y50233748D01*
X23609925Y50301793D01*
X23544099Y50415807D01*
X23451007Y50508899D01*
X23336993Y50574725D01*
X23268945Y50592959D01*
X23944444Y51268456D01*
X23998961Y51296233D01*
X24059393Y51286662D01*
X24074906Y51275391D01*
X24078894Y51274012D01*
X24120663Y51279028D01*
X24256202Y51332478D01*
X24256203Y51332478D01*
X24372285Y51420507D01*
X24372293Y51420515D01*
X24460321Y51536597D01*
X24513772Y51672137D01*
X24523999Y51757302D01*
X24524000Y51757308D01*
X24524000Y51813235D01*
X24542907Y51871426D01*
X24592407Y51907390D01*
X24653593Y51907390D01*
X24703091Y51871428D01*
G37*
%TD.AperFunction*%
%TA.AperFunction,Conductor*%
G36*
X75894691Y55596593D02*
G01*
X75930655Y55547093D01*
X75935500Y55516500D01*
X75935500Y5443501D01*
X75916593Y5385310D01*
X75867093Y5349346D01*
X75836500Y5344501D01*
X5443500Y5344501D01*
X5385309Y5363408D01*
X5349345Y5412908D01*
X5344500Y5443501D01*
X5344500Y23805922D01*
X46284700Y23805922D01*
X46284700Y22218879D01*
X46284701Y22218877D01*
X46299552Y22125101D01*
X46299554Y22125096D01*
X46357150Y22012058D01*
X46446858Y21922350D01*
X46559896Y21864754D01*
X46653681Y21849900D01*
X48240718Y21849901D01*
X48240721Y21849901D01*
X48240722Y21849902D01*
X48287611Y21857328D01*
X48334499Y21864753D01*
X48334499Y21864754D01*
X48334504Y21864754D01*
X48447542Y21922350D01*
X48537250Y22012058D01*
X48594846Y22125096D01*
X48609700Y22218881D01*
X48609699Y23794147D01*
X49024700Y23794147D01*
X49024700Y22230654D01*
X49024701Y22230642D01*
X49036332Y22172173D01*
X49036334Y22172167D01*
X49080645Y22105852D01*
X49080648Y22105848D01*
X49146969Y22061533D01*
X49191431Y22052689D01*
X49205441Y22049902D01*
X49205446Y22049902D01*
X49205452Y22049900D01*
X49205453Y22049900D01*
X50768947Y22049900D01*
X50768948Y22049900D01*
X50827431Y22061533D01*
X50893752Y22105848D01*
X50938067Y22172169D01*
X50949700Y22230652D01*
X50949700Y23794148D01*
X50938067Y23852631D01*
X50893752Y23918952D01*
X50893748Y23918955D01*
X50827433Y23963266D01*
X50827431Y23963267D01*
X50827428Y23963268D01*
X50827427Y23963268D01*
X50768958Y23974899D01*
X50768948Y23974900D01*
X49205452Y23974900D01*
X49205451Y23974900D01*
X49205441Y23974899D01*
X49146972Y23963268D01*
X49146966Y23963266D01*
X49080651Y23918955D01*
X49080645Y23918949D01*
X49036334Y23852634D01*
X49036332Y23852628D01*
X49024701Y23794159D01*
X49024700Y23794147D01*
X48609699Y23794147D01*
X48609699Y23805918D01*
X48609699Y23805919D01*
X48609699Y23805922D01*
X48609698Y23805924D01*
X48594847Y23899700D01*
X48594846Y23899702D01*
X48594846Y23899704D01*
X48537250Y24012742D01*
X48447542Y24102450D01*
X48334504Y24160046D01*
X48334505Y24160046D01*
X48240721Y24174900D01*
X46653678Y24174900D01*
X46653676Y24174899D01*
X46559900Y24160048D01*
X46559895Y24160046D01*
X46446859Y24102451D01*
X46357149Y24012741D01*
X46299554Y23899705D01*
X46284700Y23805922D01*
X5344500Y23805922D01*
X5344500Y26334147D01*
X46484700Y26334147D01*
X46484700Y24770654D01*
X46484701Y24770642D01*
X46496332Y24712173D01*
X46496333Y24712169D01*
X46540648Y24645848D01*
X46606969Y24601533D01*
X46651431Y24592689D01*
X46665441Y24589902D01*
X46665446Y24589902D01*
X46665452Y24589900D01*
X46665453Y24589900D01*
X48228947Y24589900D01*
X48228948Y24589900D01*
X48287431Y24601533D01*
X48353752Y24645848D01*
X48398067Y24712169D01*
X48409700Y24770652D01*
X48409700Y26334147D01*
X49024700Y26334147D01*
X49024700Y24770654D01*
X49024701Y24770642D01*
X49036332Y24712173D01*
X49036333Y24712169D01*
X49080648Y24645848D01*
X49146969Y24601533D01*
X49191431Y24592689D01*
X49205441Y24589902D01*
X49205446Y24589902D01*
X49205452Y24589900D01*
X49205453Y24589900D01*
X50768947Y24589900D01*
X50768948Y24589900D01*
X50827431Y24601533D01*
X50893752Y24645848D01*
X50938067Y24712169D01*
X50949700Y24770652D01*
X50949700Y26334148D01*
X50938067Y26392631D01*
X50893752Y26458952D01*
X50893748Y26458955D01*
X50827433Y26503266D01*
X50827431Y26503267D01*
X50827428Y26503268D01*
X50827427Y26503268D01*
X50768958Y26514899D01*
X50768948Y26514900D01*
X49205452Y26514900D01*
X49205451Y26514900D01*
X49205441Y26514899D01*
X49146972Y26503268D01*
X49146966Y26503266D01*
X49080651Y26458955D01*
X49080645Y26458949D01*
X49036334Y26392634D01*
X49036332Y26392628D01*
X49024701Y26334159D01*
X49024700Y26334147D01*
X48409700Y26334147D01*
X48409700Y26334148D01*
X48398067Y26392631D01*
X48353752Y26458952D01*
X48353748Y26458955D01*
X48287433Y26503266D01*
X48287431Y26503267D01*
X48287428Y26503268D01*
X48287427Y26503268D01*
X48228958Y26514899D01*
X48228948Y26514900D01*
X46665452Y26514900D01*
X46665451Y26514900D01*
X46665441Y26514899D01*
X46606972Y26503268D01*
X46606966Y26503266D01*
X46540651Y26458955D01*
X46540645Y26458949D01*
X46496334Y26392634D01*
X46496332Y26392628D01*
X46484701Y26334159D01*
X46484700Y26334147D01*
X5344500Y26334147D01*
X5344500Y27838399D01*
X46155200Y27838399D01*
X46155200Y27288902D01*
X46165427Y27203737D01*
X46218878Y27068197D01*
X46306906Y26952115D01*
X46306914Y26952107D01*
X46422996Y26864079D01*
X46558536Y26810628D01*
X46643701Y26800401D01*
X46643708Y26800400D01*
X47193199Y26800400D01*
X47193200Y26800401D01*
X47193200Y27838399D01*
X47701200Y27838399D01*
X47701200Y26800401D01*
X47701201Y26800400D01*
X48250692Y26800400D01*
X48250698Y26800401D01*
X48335863Y26810628D01*
X48471403Y26864079D01*
X48587485Y26952107D01*
X48587493Y26952115D01*
X48675521Y27068197D01*
X48728972Y27203737D01*
X48739199Y27288902D01*
X48739200Y27288908D01*
X48739200Y27838399D01*
X48739199Y27838400D01*
X47701201Y27838400D01*
X47701200Y27838399D01*
X47193200Y27838399D01*
X47193199Y27838400D01*
X46155201Y27838400D01*
X46155200Y27838399D01*
X5344500Y27838399D01*
X5344500Y28895899D01*
X46155200Y28895899D01*
X46155200Y28346401D01*
X46155201Y28346400D01*
X47193199Y28346400D01*
X47193200Y28346401D01*
X47193200Y29384399D01*
X47701200Y29384399D01*
X47701200Y28346401D01*
X47701201Y28346400D01*
X48739199Y28346400D01*
X48739200Y28346401D01*
X48739200Y28874147D01*
X49024700Y28874147D01*
X49024700Y27310654D01*
X49024701Y27310642D01*
X49036332Y27252173D01*
X49036334Y27252167D01*
X49080645Y27185852D01*
X49080648Y27185848D01*
X49146969Y27141533D01*
X49191431Y27132689D01*
X49205441Y27129902D01*
X49205446Y27129902D01*
X49205452Y27129900D01*
X49205453Y27129900D01*
X50768947Y27129900D01*
X50768948Y27129900D01*
X50827431Y27141533D01*
X50893752Y27185848D01*
X50938067Y27252169D01*
X50949700Y27310652D01*
X50949700Y28874148D01*
X50938067Y28932631D01*
X50893752Y28998952D01*
X50893748Y28998955D01*
X50827433Y29043266D01*
X50827431Y29043267D01*
X50827428Y29043268D01*
X50827427Y29043268D01*
X50768958Y29054899D01*
X50768948Y29054900D01*
X49205452Y29054900D01*
X49205451Y29054900D01*
X49205441Y29054899D01*
X49146972Y29043268D01*
X49146966Y29043266D01*
X49080651Y28998955D01*
X49080645Y28998949D01*
X49036334Y28932634D01*
X49036332Y28932628D01*
X49024701Y28874159D01*
X49024700Y28874147D01*
X48739200Y28874147D01*
X48739200Y28895893D01*
X48739199Y28895899D01*
X48728972Y28981064D01*
X48675521Y29116604D01*
X48587493Y29232686D01*
X48587485Y29232694D01*
X48471403Y29320722D01*
X48335863Y29374173D01*
X48250698Y29384400D01*
X47701201Y29384400D01*
X47701200Y29384399D01*
X47193200Y29384399D01*
X47193199Y29384400D01*
X46643701Y29384400D01*
X46558536Y29374173D01*
X46422996Y29320722D01*
X46306914Y29232694D01*
X46306906Y29232686D01*
X46218878Y29116604D01*
X46165427Y28981064D01*
X46155200Y28895899D01*
X5344500Y28895899D01*
X5344500Y53540299D01*
X21764000Y53540299D01*
X21764000Y52902801D01*
X21764001Y52902800D01*
X22713297Y52902800D01*
X22678075Y52841793D01*
X22644000Y52714626D01*
X22644000Y52582974D01*
X22678075Y52455807D01*
X22713297Y52394800D01*
X21764001Y52394800D01*
X21764000Y52394799D01*
X21764000Y51757302D01*
X21774227Y51672137D01*
X21827678Y51536597D01*
X21915706Y51420515D01*
X21915714Y51420507D01*
X22031796Y51332479D01*
X22167336Y51279028D01*
X22209103Y51274013D01*
X22225747Y51279769D01*
X22258058Y51296233D01*
X22318491Y51286665D01*
X22343554Y51268457D01*
X23019052Y50592959D01*
X22951007Y50574725D01*
X22836993Y50508899D01*
X22743901Y50415807D01*
X22678075Y50301793D01*
X22659841Y50233747D01*
X22004870Y50888718D01*
X21963716Y50832076D01*
X21865104Y50638537D01*
X21797978Y50431947D01*
X21764000Y50217412D01*
X21764000Y50000189D01*
X21797978Y49785654D01*
X21865104Y49579064D01*
X21963717Y49385523D01*
X21963721Y49385518D01*
X22004869Y49328883D01*
X22004870Y49328883D01*
X22659841Y49983854D01*
X22678075Y49915807D01*
X22743901Y49801793D01*
X22836993Y49708701D01*
X22951007Y49642875D01*
X23019052Y49624643D01*
X22364081Y48969671D01*
X22364081Y48969670D01*
X22420717Y48928522D01*
X22420722Y48928518D01*
X22614263Y48829905D01*
X22820853Y48762779D01*
X23035389Y48728800D01*
X23252611Y48728800D01*
X23467146Y48762779D01*
X23673736Y48829905D01*
X23867271Y48928515D01*
X23867279Y48928520D01*
X23923917Y48969671D01*
X23268946Y49624642D01*
X23336993Y49642875D01*
X23451007Y49708701D01*
X23544099Y49801793D01*
X23609925Y49915807D01*
X23628158Y49983854D01*
X24283129Y49328883D01*
X24324280Y49385521D01*
X24324288Y49385534D01*
X24398460Y49531106D01*
X24441724Y49574371D01*
X24502156Y49583943D01*
X24556673Y49556166D01*
X24574880Y49531107D01*
X24614476Y49453395D01*
X24730172Y49294154D01*
X24869354Y49154972D01*
X25028595Y49039276D01*
X25203975Y48949916D01*
X25391174Y48889091D01*
X25391175Y48889091D01*
X25391178Y48889090D01*
X25585580Y48858300D01*
X25585583Y48858300D01*
X25782420Y48858300D01*
X25976821Y48889090D01*
X25976822Y48889091D01*
X25976826Y48889091D01*
X26164025Y48949916D01*
X26339405Y49039276D01*
X26498646Y49154972D01*
X26637828Y49294154D01*
X26753524Y49453395D01*
X26842884Y49628775D01*
X26859845Y49680977D01*
X26895809Y49730476D01*
X26954000Y49749383D01*
X27012191Y49730476D01*
X27048155Y49680976D01*
X27065116Y49628775D01*
X27114880Y49531106D01*
X27154476Y49453395D01*
X27270172Y49294154D01*
X27409354Y49154972D01*
X27568595Y49039276D01*
X27743975Y48949916D01*
X27931174Y48889091D01*
X27931175Y48889091D01*
X27931178Y48889090D01*
X28125580Y48858300D01*
X28125583Y48858300D01*
X28322420Y48858300D01*
X28516821Y48889090D01*
X28516822Y48889091D01*
X28516826Y48889091D01*
X28704025Y48949916D01*
X28879405Y49039276D01*
X29038646Y49154972D01*
X29177828Y49294154D01*
X29293524Y49453395D01*
X29382884Y49628775D01*
X29443709Y49815974D01*
X29450151Y49856648D01*
X29474500Y50010380D01*
X29474500Y50207214D01*
X29474499Y50207227D01*
X29443710Y50401622D01*
X29437166Y50421762D01*
X29382884Y50588825D01*
X29293524Y50764205D01*
X29177828Y50923446D01*
X29038646Y51062628D01*
X28879405Y51178324D01*
X28879404Y51178325D01*
X28879402Y51178326D01*
X28704025Y51267684D01*
X28690800Y51271981D01*
X28651823Y51284646D01*
X28602324Y51320609D01*
X28583417Y51378800D01*
X28602324Y51436991D01*
X28651823Y51472955D01*
X28704025Y51489916D01*
X28879405Y51579276D01*
X29038646Y51694972D01*
X29177828Y51834154D01*
X29293524Y51993395D01*
X29333119Y52071107D01*
X29376383Y52114371D01*
X29436815Y52123943D01*
X29491332Y52096166D01*
X29509539Y52071107D01*
X29583717Y51925523D01*
X29583721Y51925518D01*
X29624869Y51868883D01*
X29624870Y51868883D01*
X30279841Y52523854D01*
X30298075Y52455807D01*
X30363901Y52341793D01*
X30456993Y52248701D01*
X30571007Y52182875D01*
X30639052Y52164643D01*
X29984081Y51509671D01*
X29984081Y51509670D01*
X30040717Y51468522D01*
X30040722Y51468518D01*
X30234263Y51369905D01*
X30443745Y51301840D01*
X30493245Y51265876D01*
X30512152Y51207685D01*
X30493245Y51149494D01*
X30451038Y51116221D01*
X30266402Y51039742D01*
X30094348Y50924780D01*
X29948020Y50778452D01*
X29833058Y50606398D01*
X29753869Y50415219D01*
X29713500Y50212268D01*
X29713500Y50005333D01*
X29753869Y49802382D01*
X29833058Y49611203D01*
X29948020Y49439149D01*
X29948023Y49439145D01*
X30094345Y49292823D01*
X30266402Y49177859D01*
X30457580Y49098670D01*
X30660535Y49058300D01*
X30660536Y49058300D01*
X30867464Y49058300D01*
X30867465Y49058300D01*
X31070420Y49098670D01*
X31261598Y49177859D01*
X31433655Y49292823D01*
X31579977Y49439145D01*
X31694941Y49611202D01*
X31774130Y49802380D01*
X31814500Y50005335D01*
X31814500Y50212265D01*
X31814499Y50212268D01*
X32253500Y50212268D01*
X32253500Y50005333D01*
X32293869Y49802382D01*
X32373058Y49611203D01*
X32488020Y49439149D01*
X32488023Y49439145D01*
X32634345Y49292823D01*
X32806402Y49177859D01*
X32997580Y49098670D01*
X33200535Y49058300D01*
X33200536Y49058300D01*
X33407464Y49058300D01*
X33407465Y49058300D01*
X33610420Y49098670D01*
X33801598Y49177859D01*
X33973655Y49292823D01*
X34119977Y49439145D01*
X34234941Y49611202D01*
X34314130Y49802380D01*
X34354500Y50005335D01*
X34354500Y50212265D01*
X34354499Y50212268D01*
X34793500Y50212268D01*
X34793500Y50005333D01*
X34833869Y49802382D01*
X34913058Y49611203D01*
X35028020Y49439149D01*
X35028023Y49439145D01*
X35174345Y49292823D01*
X35346402Y49177859D01*
X35537580Y49098670D01*
X35740535Y49058300D01*
X35740536Y49058300D01*
X35947464Y49058300D01*
X35947465Y49058300D01*
X36150420Y49098670D01*
X36341598Y49177859D01*
X36513655Y49292823D01*
X36659977Y49439145D01*
X36774941Y49611202D01*
X36854130Y49802380D01*
X36894500Y50005335D01*
X36894500Y50212265D01*
X36894499Y50212268D01*
X37333500Y50212268D01*
X37333500Y50005333D01*
X37373869Y49802382D01*
X37453058Y49611203D01*
X37568020Y49439149D01*
X37568023Y49439145D01*
X37714345Y49292823D01*
X37886402Y49177859D01*
X38077580Y49098670D01*
X38280535Y49058300D01*
X38280536Y49058300D01*
X38487464Y49058300D01*
X38487465Y49058300D01*
X38690420Y49098670D01*
X38881598Y49177859D01*
X39053655Y49292823D01*
X39199977Y49439145D01*
X39314941Y49611202D01*
X39394130Y49802380D01*
X39434500Y50005335D01*
X39434500Y50212265D01*
X39434499Y50212268D01*
X39873500Y50212268D01*
X39873500Y50005333D01*
X39913869Y49802382D01*
X39993058Y49611203D01*
X40108020Y49439149D01*
X40108023Y49439145D01*
X40254345Y49292823D01*
X40426402Y49177859D01*
X40617580Y49098670D01*
X40820535Y49058300D01*
X40820536Y49058300D01*
X41027464Y49058300D01*
X41027465Y49058300D01*
X41230420Y49098670D01*
X41421598Y49177859D01*
X41593655Y49292823D01*
X41739977Y49439145D01*
X41854941Y49611202D01*
X41934130Y49802380D01*
X41974500Y50005335D01*
X41974500Y50212265D01*
X41974499Y50212268D01*
X42413500Y50212268D01*
X42413500Y50005333D01*
X42453869Y49802382D01*
X42533058Y49611203D01*
X42648020Y49439149D01*
X42648023Y49439145D01*
X42794345Y49292823D01*
X42966402Y49177859D01*
X43157580Y49098670D01*
X43360535Y49058300D01*
X43360536Y49058300D01*
X43567464Y49058300D01*
X43567465Y49058300D01*
X43770420Y49098670D01*
X43961598Y49177859D01*
X44133655Y49292823D01*
X44279977Y49439145D01*
X44394941Y49611202D01*
X44474130Y49802380D01*
X44514500Y50005335D01*
X44514500Y50212265D01*
X44474130Y50415220D01*
X44394941Y50606398D01*
X44279977Y50778455D01*
X44133655Y50924777D01*
X43961598Y51039741D01*
X43961599Y51039741D01*
X43961597Y51039742D01*
X43770418Y51118931D01*
X43567467Y51159300D01*
X43567465Y51159300D01*
X43360535Y51159300D01*
X43360532Y51159300D01*
X43157581Y51118931D01*
X42966402Y51039742D01*
X42794348Y50924780D01*
X42648020Y50778452D01*
X42533058Y50606398D01*
X42453869Y50415219D01*
X42413500Y50212268D01*
X41974499Y50212268D01*
X41934130Y50415220D01*
X41854941Y50606398D01*
X41739977Y50778455D01*
X41593655Y50924777D01*
X41421598Y51039741D01*
X41421599Y51039741D01*
X41421597Y51039742D01*
X41230418Y51118931D01*
X41027467Y51159300D01*
X41027465Y51159300D01*
X40820535Y51159300D01*
X40820532Y51159300D01*
X40617581Y51118931D01*
X40426402Y51039742D01*
X40254348Y50924780D01*
X40108020Y50778452D01*
X39993058Y50606398D01*
X39913869Y50415219D01*
X39873500Y50212268D01*
X39434499Y50212268D01*
X39394130Y50415220D01*
X39314941Y50606398D01*
X39199977Y50778455D01*
X39053655Y50924777D01*
X38881598Y51039741D01*
X38881599Y51039741D01*
X38881597Y51039742D01*
X38690418Y51118931D01*
X38487467Y51159300D01*
X38487465Y51159300D01*
X38280535Y51159300D01*
X38280532Y51159300D01*
X38077581Y51118931D01*
X37886402Y51039742D01*
X37714348Y50924780D01*
X37568020Y50778452D01*
X37453058Y50606398D01*
X37373869Y50415219D01*
X37333500Y50212268D01*
X36894499Y50212268D01*
X36854130Y50415220D01*
X36774941Y50606398D01*
X36659977Y50778455D01*
X36513655Y50924777D01*
X36341598Y51039741D01*
X36341599Y51039741D01*
X36341597Y51039742D01*
X36150418Y51118931D01*
X35947467Y51159300D01*
X35947465Y51159300D01*
X35740535Y51159300D01*
X35740532Y51159300D01*
X35537581Y51118931D01*
X35346402Y51039742D01*
X35174348Y50924780D01*
X35028020Y50778452D01*
X34913058Y50606398D01*
X34833869Y50415219D01*
X34793500Y50212268D01*
X34354499Y50212268D01*
X34314130Y50415220D01*
X34234941Y50606398D01*
X34119977Y50778455D01*
X33973655Y50924777D01*
X33801598Y51039741D01*
X33801599Y51039741D01*
X33801597Y51039742D01*
X33610418Y51118931D01*
X33407467Y51159300D01*
X33407465Y51159300D01*
X33200535Y51159300D01*
X33200532Y51159300D01*
X32997581Y51118931D01*
X32806402Y51039742D01*
X32634348Y50924780D01*
X32488020Y50778452D01*
X32373058Y50606398D01*
X32293869Y50415219D01*
X32253500Y50212268D01*
X31814499Y50212268D01*
X31774130Y50415220D01*
X31694941Y50606398D01*
X31579977Y50778455D01*
X31433655Y50924777D01*
X31261598Y51039741D01*
X31261599Y51039741D01*
X31261597Y51039742D01*
X31076961Y51116221D01*
X31030435Y51155958D01*
X31016152Y51215453D01*
X31039567Y51271981D01*
X31084255Y51301840D01*
X31293734Y51369904D01*
X31487271Y51468515D01*
X31487279Y51468520D01*
X31543917Y51509671D01*
X30888946Y52164642D01*
X30956993Y52182875D01*
X31071007Y52248701D01*
X31164099Y52341793D01*
X31229925Y52455807D01*
X31248158Y52523854D01*
X31903129Y51868883D01*
X31944280Y51925521D01*
X31944285Y51925529D01*
X32042896Y52119066D01*
X32110960Y52328545D01*
X32146924Y52378046D01*
X32205115Y52396953D01*
X32263306Y52378046D01*
X32296579Y52335839D01*
X32373058Y52151203D01*
X32488020Y51979149D01*
X32488023Y51979145D01*
X32634345Y51832823D01*
X32806402Y51717859D01*
X32997580Y51638670D01*
X33200535Y51598300D01*
X33200536Y51598300D01*
X33407464Y51598300D01*
X33407465Y51598300D01*
X33610420Y51638670D01*
X33801598Y51717859D01*
X33973655Y51832823D01*
X34119977Y51979145D01*
X34234941Y52151202D01*
X34314130Y52342380D01*
X34354500Y52545335D01*
X34354500Y52752265D01*
X34354499Y52752268D01*
X34793500Y52752268D01*
X34793500Y52545333D01*
X34833869Y52342382D01*
X34913058Y52151203D01*
X35028020Y51979149D01*
X35028023Y51979145D01*
X35174345Y51832823D01*
X35346402Y51717859D01*
X35537580Y51638670D01*
X35740535Y51598300D01*
X35740536Y51598300D01*
X35947464Y51598300D01*
X35947465Y51598300D01*
X36150420Y51638670D01*
X36341598Y51717859D01*
X36513655Y51832823D01*
X36659977Y51979145D01*
X36774941Y52151202D01*
X36854130Y52342380D01*
X36894500Y52545335D01*
X36894500Y52752265D01*
X36894499Y52752268D01*
X37333500Y52752268D01*
X37333500Y52545333D01*
X37373869Y52342382D01*
X37453058Y52151203D01*
X37568020Y51979149D01*
X37568023Y51979145D01*
X37714345Y51832823D01*
X37886402Y51717859D01*
X38077580Y51638670D01*
X38280535Y51598300D01*
X38280536Y51598300D01*
X38487464Y51598300D01*
X38487465Y51598300D01*
X38690420Y51638670D01*
X38881598Y51717859D01*
X39053655Y51832823D01*
X39199977Y51979145D01*
X39314941Y52151202D01*
X39394130Y52342380D01*
X39434500Y52545335D01*
X39434500Y52752265D01*
X39434499Y52752268D01*
X39873500Y52752268D01*
X39873500Y52545333D01*
X39913869Y52342382D01*
X39993058Y52151203D01*
X40108020Y51979149D01*
X40108023Y51979145D01*
X40254345Y51832823D01*
X40426402Y51717859D01*
X40617580Y51638670D01*
X40820535Y51598300D01*
X40820536Y51598300D01*
X41027464Y51598300D01*
X41027465Y51598300D01*
X41230420Y51638670D01*
X41421598Y51717859D01*
X41593655Y51832823D01*
X41739977Y51979145D01*
X41854941Y52151202D01*
X41934130Y52342380D01*
X41974500Y52545335D01*
X41974500Y52752265D01*
X41974499Y52752268D01*
X42413500Y52752268D01*
X42413500Y52545333D01*
X42453869Y52342382D01*
X42533058Y52151203D01*
X42648020Y51979149D01*
X42648023Y51979145D01*
X42794345Y51832823D01*
X42966402Y51717859D01*
X43157580Y51638670D01*
X43360535Y51598300D01*
X43360536Y51598300D01*
X43567464Y51598300D01*
X43567465Y51598300D01*
X43770420Y51638670D01*
X43961598Y51717859D01*
X44133655Y51832823D01*
X44279977Y51979145D01*
X44394941Y52151202D01*
X44474130Y52342380D01*
X44514500Y52545335D01*
X44514500Y52752265D01*
X44514499Y52752268D01*
X44953500Y52752268D01*
X44953500Y52545333D01*
X44993869Y52342382D01*
X45073058Y52151203D01*
X45188020Y51979149D01*
X45188023Y51979145D01*
X45334345Y51832823D01*
X45506402Y51717859D01*
X45697580Y51638670D01*
X45900535Y51598300D01*
X45900536Y51598300D01*
X46107464Y51598300D01*
X46107465Y51598300D01*
X46310420Y51638670D01*
X46501598Y51717859D01*
X46673655Y51832823D01*
X46819977Y51979145D01*
X46934941Y52151202D01*
X47011421Y52335841D01*
X47051157Y52382364D01*
X47110651Y52396648D01*
X47167179Y52373233D01*
X47197039Y52328546D01*
X47265104Y52119064D01*
X47363717Y51925523D01*
X47363721Y51925518D01*
X47404869Y51868883D01*
X47404870Y51868883D01*
X48059841Y52523854D01*
X48078075Y52455807D01*
X48143901Y52341793D01*
X48236993Y52248701D01*
X48351007Y52182875D01*
X48419052Y52164643D01*
X47764081Y51509671D01*
X47820722Y51468518D01*
X47823684Y51467008D01*
X47866947Y51423742D01*
X47876517Y51363309D01*
X47848737Y51308794D01*
X47823684Y51290592D01*
X47820728Y51289087D01*
X47820725Y51289085D01*
X47764082Y51247930D01*
X48419053Y50592959D01*
X48351007Y50574725D01*
X48236993Y50508899D01*
X48143901Y50415807D01*
X48078075Y50301793D01*
X48059841Y50233747D01*
X47404870Y50888718D01*
X47363716Y50832076D01*
X47265104Y50638537D01*
X47197039Y50429055D01*
X47161075Y50379555D01*
X47102884Y50360648D01*
X47044693Y50379555D01*
X47011420Y50421762D01*
X46942222Y50588819D01*
X46934941Y50606398D01*
X46819977Y50778455D01*
X46673655Y50924777D01*
X46501598Y51039741D01*
X46501599Y51039741D01*
X46501597Y51039742D01*
X46378052Y51090916D01*
X46310889Y51118736D01*
X46310420Y51118930D01*
X46107467Y51159300D01*
X46107465Y51159300D01*
X45900535Y51159300D01*
X45900532Y51159300D01*
X45697581Y51118931D01*
X45506402Y51039742D01*
X45334348Y50924780D01*
X45188020Y50778452D01*
X45073058Y50606398D01*
X44993869Y50415219D01*
X44953500Y50212268D01*
X44953500Y50005333D01*
X44993869Y49802382D01*
X45073058Y49611203D01*
X45188020Y49439149D01*
X45188023Y49439145D01*
X45334345Y49292823D01*
X45506402Y49177859D01*
X45697580Y49098670D01*
X45900535Y49058300D01*
X45900536Y49058300D01*
X46107464Y49058300D01*
X46107465Y49058300D01*
X46310420Y49098670D01*
X46501598Y49177859D01*
X46673655Y49292823D01*
X46819977Y49439145D01*
X46934941Y49611202D01*
X47011421Y49795841D01*
X47051157Y49842364D01*
X47110651Y49856648D01*
X47167179Y49833233D01*
X47197039Y49788546D01*
X47265104Y49579064D01*
X47363717Y49385523D01*
X47363721Y49385518D01*
X47404869Y49328883D01*
X47404870Y49328883D01*
X48059841Y49983854D01*
X48078075Y49915807D01*
X48143901Y49801793D01*
X48236993Y49708701D01*
X48351007Y49642875D01*
X48419052Y49624643D01*
X47764081Y48969671D01*
X47764081Y48969670D01*
X47820717Y48928522D01*
X47820722Y48928518D01*
X48014263Y48829905D01*
X48220853Y48762779D01*
X48435389Y48728800D01*
X48652611Y48728800D01*
X48867146Y48762779D01*
X49073736Y48829905D01*
X49267271Y48928515D01*
X49267279Y48928520D01*
X49323917Y48969671D01*
X48668946Y49624642D01*
X48736993Y49642875D01*
X48851007Y49708701D01*
X48944099Y49801793D01*
X49009925Y49915807D01*
X49028158Y49983854D01*
X49683129Y49328883D01*
X49724280Y49385521D01*
X49724285Y49385529D01*
X49822896Y49579066D01*
X49890960Y49788545D01*
X49926924Y49838046D01*
X49985115Y49856953D01*
X50043306Y49838046D01*
X50076579Y49795839D01*
X50153058Y49611203D01*
X50268020Y49439149D01*
X50268023Y49439145D01*
X50414345Y49292823D01*
X50586402Y49177859D01*
X50777580Y49098670D01*
X50980535Y49058300D01*
X50980536Y49058300D01*
X51187464Y49058300D01*
X51187465Y49058300D01*
X51390420Y49098670D01*
X51581598Y49177859D01*
X51753655Y49292823D01*
X51899977Y49439145D01*
X52014941Y49611202D01*
X52094130Y49802380D01*
X52134500Y50005335D01*
X52134500Y50212265D01*
X52094130Y50415220D01*
X52014941Y50606398D01*
X51899977Y50778455D01*
X51753655Y50924777D01*
X51581598Y51039741D01*
X51581599Y51039741D01*
X51581597Y51039742D01*
X51390418Y51118931D01*
X51187467Y51159300D01*
X51187465Y51159300D01*
X50980535Y51159300D01*
X50980532Y51159300D01*
X50777581Y51118931D01*
X50586402Y51039742D01*
X50414348Y50924780D01*
X50268020Y50778452D01*
X50153058Y50606398D01*
X50076579Y50421762D01*
X50036842Y50375236D01*
X49977347Y50360953D01*
X49920819Y50384368D01*
X49890960Y50429055D01*
X49822895Y50638537D01*
X49724282Y50832078D01*
X49724278Y50832083D01*
X49683129Y50888719D01*
X49028157Y50233748D01*
X49009925Y50301793D01*
X48944099Y50415807D01*
X48851007Y50508899D01*
X48736993Y50574725D01*
X48668946Y50592959D01*
X49323917Y51247930D01*
X49323917Y51247931D01*
X49267282Y51289079D01*
X49267278Y51289082D01*
X49264320Y51290589D01*
X49221055Y51333853D01*
X49211481Y51394284D01*
X49239258Y51448802D01*
X49264320Y51467011D01*
X49267272Y51468516D01*
X49267279Y51468520D01*
X49323917Y51509671D01*
X48668946Y52164642D01*
X48736993Y52182875D01*
X48851007Y52248701D01*
X48944099Y52341793D01*
X49009925Y52455807D01*
X49028158Y52523854D01*
X49683129Y51868883D01*
X49724280Y51925521D01*
X49724285Y51925529D01*
X49822896Y52119066D01*
X49890960Y52328545D01*
X49926924Y52378046D01*
X49985115Y52396953D01*
X50043306Y52378046D01*
X50076579Y52335839D01*
X50153058Y52151203D01*
X50268020Y51979149D01*
X50268023Y51979145D01*
X50414345Y51832823D01*
X50586402Y51717859D01*
X50777580Y51638670D01*
X50980535Y51598300D01*
X50980536Y51598300D01*
X51187464Y51598300D01*
X51187465Y51598300D01*
X51390420Y51638670D01*
X51581598Y51717859D01*
X51753655Y51832823D01*
X51899977Y51979145D01*
X52014941Y52151202D01*
X52094130Y52342380D01*
X52134500Y52545335D01*
X52134500Y52747221D01*
X52373500Y52747221D01*
X52373500Y52550380D01*
X52404289Y52355979D01*
X52465116Y52168775D01*
X52554473Y51993399D01*
X52554476Y51993395D01*
X52670172Y51834154D01*
X52809354Y51694972D01*
X52968595Y51579276D01*
X53143975Y51489916D01*
X53143977Y51489916D01*
X53143978Y51489915D01*
X53143981Y51489913D01*
X53196175Y51472954D01*
X53245675Y51436990D01*
X53264582Y51378799D01*
X53245674Y51320609D01*
X53196175Y51284646D01*
X53143981Y51267688D01*
X53143978Y51267686D01*
X52968597Y51178326D01*
X52809355Y51062629D01*
X52670171Y50923445D01*
X52554474Y50764203D01*
X52465116Y50588826D01*
X52404289Y50401622D01*
X52373500Y50207221D01*
X52373500Y50010380D01*
X52404289Y49815979D01*
X52465116Y49628775D01*
X52514880Y49531106D01*
X52554476Y49453395D01*
X52670172Y49294154D01*
X52809354Y49154972D01*
X52968595Y49039276D01*
X53143975Y48949916D01*
X53331174Y48889091D01*
X53331175Y48889091D01*
X53331178Y48889090D01*
X53525580Y48858300D01*
X53525583Y48858300D01*
X53722420Y48858300D01*
X53916821Y48889090D01*
X53916822Y48889091D01*
X53916826Y48889091D01*
X54104025Y48949916D01*
X54279405Y49039276D01*
X54438646Y49154972D01*
X54577828Y49294154D01*
X54693524Y49453395D01*
X54782884Y49628775D01*
X54843709Y49815974D01*
X54850151Y49856648D01*
X54874500Y50010380D01*
X54874500Y50207214D01*
X54874499Y50207227D01*
X54843710Y50401622D01*
X54837166Y50421762D01*
X54782884Y50588825D01*
X54693524Y50764205D01*
X54577828Y50923446D01*
X54438646Y51062628D01*
X54279405Y51178324D01*
X54279404Y51178325D01*
X54279402Y51178326D01*
X54104025Y51267684D01*
X54090800Y51271981D01*
X54051823Y51284646D01*
X54002324Y51320609D01*
X53983417Y51378800D01*
X54002324Y51436991D01*
X54051823Y51472955D01*
X54104025Y51489916D01*
X54279405Y51579276D01*
X54438646Y51694972D01*
X54577828Y51834154D01*
X54693524Y51993395D01*
X54782884Y52168775D01*
X54843709Y52355974D01*
X54849858Y52394799D01*
X54874500Y52550380D01*
X54874500Y52747214D01*
X54874499Y52747227D01*
X54873701Y52752268D01*
X55113500Y52752268D01*
X55113500Y52545333D01*
X55153869Y52342382D01*
X55233058Y52151203D01*
X55348020Y51979149D01*
X55348023Y51979145D01*
X55494345Y51832823D01*
X55666402Y51717859D01*
X55857580Y51638670D01*
X56060535Y51598300D01*
X56060536Y51598300D01*
X56267464Y51598300D01*
X56267465Y51598300D01*
X56470420Y51638670D01*
X56661598Y51717859D01*
X56833655Y51832823D01*
X56979977Y51979145D01*
X57094941Y52151202D01*
X57171421Y52335841D01*
X57211157Y52382364D01*
X57270651Y52396648D01*
X57327179Y52373233D01*
X57357039Y52328546D01*
X57425104Y52119064D01*
X57523717Y51925523D01*
X57523721Y51925518D01*
X57564869Y51868883D01*
X57564870Y51868883D01*
X58219841Y52523854D01*
X58238075Y52455807D01*
X58303901Y52341793D01*
X58396993Y52248701D01*
X58511007Y52182875D01*
X58579052Y52164643D01*
X57924081Y51509671D01*
X57980722Y51468518D01*
X57983684Y51467008D01*
X58026947Y51423742D01*
X58036517Y51363309D01*
X58008737Y51308794D01*
X57983684Y51290592D01*
X57980728Y51289087D01*
X57980725Y51289085D01*
X57924082Y51247930D01*
X58579053Y50592959D01*
X58511007Y50574725D01*
X58396993Y50508899D01*
X58303901Y50415807D01*
X58238075Y50301793D01*
X58219841Y50233747D01*
X57564870Y50888718D01*
X57523716Y50832076D01*
X57425104Y50638537D01*
X57357039Y50429055D01*
X57321075Y50379555D01*
X57262884Y50360648D01*
X57204693Y50379555D01*
X57171420Y50421762D01*
X57102222Y50588819D01*
X57094941Y50606398D01*
X56979977Y50778455D01*
X56833655Y50924777D01*
X56661598Y51039741D01*
X56661599Y51039741D01*
X56661597Y51039742D01*
X56538052Y51090916D01*
X56470889Y51118736D01*
X56470420Y51118930D01*
X56267467Y51159300D01*
X56267465Y51159300D01*
X56060535Y51159300D01*
X56060532Y51159300D01*
X55857581Y51118931D01*
X55666402Y51039742D01*
X55494348Y50924780D01*
X55348020Y50778452D01*
X55233058Y50606398D01*
X55153869Y50415219D01*
X55113500Y50212268D01*
X55113500Y50005333D01*
X55153869Y49802382D01*
X55233058Y49611203D01*
X55348020Y49439149D01*
X55348023Y49439145D01*
X55494345Y49292823D01*
X55666402Y49177859D01*
X55857580Y49098670D01*
X56060535Y49058300D01*
X56060536Y49058300D01*
X56267464Y49058300D01*
X56267465Y49058300D01*
X56470420Y49098670D01*
X56661598Y49177859D01*
X56833655Y49292823D01*
X56979977Y49439145D01*
X57094941Y49611202D01*
X57171421Y49795841D01*
X57211157Y49842364D01*
X57270651Y49856648D01*
X57327179Y49833233D01*
X57357039Y49788546D01*
X57425104Y49579064D01*
X57523717Y49385523D01*
X57523721Y49385518D01*
X57564869Y49328883D01*
X57564870Y49328883D01*
X58219841Y49983854D01*
X58238075Y49915807D01*
X58303901Y49801793D01*
X58396993Y49708701D01*
X58511007Y49642875D01*
X58579052Y49624643D01*
X57924081Y48969671D01*
X57924081Y48969670D01*
X57980717Y48928522D01*
X57980722Y48928518D01*
X58174263Y48829905D01*
X58380853Y48762779D01*
X58595389Y48728800D01*
X58812611Y48728800D01*
X59027146Y48762779D01*
X59233736Y48829905D01*
X59427271Y48928515D01*
X59427279Y48928520D01*
X59483917Y48969671D01*
X58828946Y49624642D01*
X58896993Y49642875D01*
X59011007Y49708701D01*
X59104099Y49801793D01*
X59169925Y49915807D01*
X59188158Y49983854D01*
X59843129Y49328883D01*
X59884280Y49385521D01*
X59884285Y49385529D01*
X59982895Y49579064D01*
X60050021Y49785654D01*
X60084000Y50000189D01*
X60084000Y50217412D01*
X60050021Y50431947D01*
X59982895Y50638537D01*
X59884282Y50832078D01*
X59884278Y50832083D01*
X59843129Y50888719D01*
X59188157Y50233748D01*
X59169925Y50301793D01*
X59104099Y50415807D01*
X59011007Y50508899D01*
X58896993Y50574725D01*
X58828946Y50592959D01*
X59483917Y51247930D01*
X59483917Y51247931D01*
X59427282Y51289079D01*
X59427278Y51289082D01*
X59424320Y51290589D01*
X59381055Y51333853D01*
X59371481Y51394284D01*
X59399258Y51448802D01*
X59424320Y51467011D01*
X59427272Y51468516D01*
X59427279Y51468520D01*
X59483917Y51509671D01*
X58828946Y52164642D01*
X58896993Y52182875D01*
X59011007Y52248701D01*
X59104099Y52341793D01*
X59169925Y52455807D01*
X59188158Y52523854D01*
X59843129Y51868883D01*
X59884280Y51925521D01*
X59884285Y51925529D01*
X59982895Y52119064D01*
X60050021Y52325654D01*
X60084000Y52540189D01*
X60084000Y52757412D01*
X60050021Y52971947D01*
X59982895Y53178537D01*
X59884282Y53372078D01*
X59884278Y53372083D01*
X59843129Y53428719D01*
X59188157Y52773748D01*
X59169925Y52841793D01*
X59104099Y52955807D01*
X59011007Y53048899D01*
X58896993Y53114725D01*
X58828946Y53132959D01*
X59483917Y53787930D01*
X59483917Y53787931D01*
X59427282Y53829079D01*
X59427277Y53829083D01*
X59233736Y53927696D01*
X59027146Y53994822D01*
X58812611Y54028800D01*
X58595389Y54028800D01*
X58380853Y53994822D01*
X58174263Y53927696D01*
X57980724Y53829084D01*
X57924082Y53787930D01*
X58579053Y53132959D01*
X58511007Y53114725D01*
X58396993Y53048899D01*
X58303901Y52955807D01*
X58238075Y52841793D01*
X58219841Y52773747D01*
X57564870Y53428718D01*
X57523716Y53372076D01*
X57425104Y53178537D01*
X57357039Y52969055D01*
X57321075Y52919555D01*
X57262884Y52900648D01*
X57204693Y52919555D01*
X57171420Y52961762D01*
X57102222Y53128819D01*
X57094941Y53146398D01*
X56979977Y53318455D01*
X56833655Y53464777D01*
X56661598Y53579741D01*
X56661599Y53579741D01*
X56661597Y53579742D01*
X56538052Y53630916D01*
X56470889Y53658736D01*
X56470420Y53658930D01*
X56267467Y53699300D01*
X56267465Y53699300D01*
X56060535Y53699300D01*
X56060532Y53699300D01*
X55857581Y53658931D01*
X55666402Y53579742D01*
X55494348Y53464780D01*
X55348020Y53318452D01*
X55233058Y53146398D01*
X55153869Y52955219D01*
X55113500Y52752268D01*
X54873701Y52752268D01*
X54843710Y52941622D01*
X54837166Y52961762D01*
X54782884Y53128825D01*
X54693524Y53304205D01*
X54577828Y53463446D01*
X54438646Y53602628D01*
X54279405Y53718324D01*
X54279404Y53718325D01*
X54279402Y53718326D01*
X54104025Y53807684D01*
X53916821Y53868511D01*
X53722420Y53899300D01*
X53722417Y53899300D01*
X53525583Y53899300D01*
X53525580Y53899300D01*
X53331178Y53868511D01*
X53143974Y53807684D01*
X52968597Y53718326D01*
X52809355Y53602629D01*
X52670171Y53463445D01*
X52554474Y53304203D01*
X52465116Y53128826D01*
X52404289Y52941622D01*
X52373500Y52747221D01*
X52134500Y52747221D01*
X52134500Y52752265D01*
X52094130Y52955220D01*
X52014941Y53146398D01*
X51899977Y53318455D01*
X51753655Y53464777D01*
X51581598Y53579741D01*
X51581599Y53579741D01*
X51581597Y53579742D01*
X51390418Y53658931D01*
X51187467Y53699300D01*
X51187465Y53699300D01*
X50980535Y53699300D01*
X50980532Y53699300D01*
X50777581Y53658931D01*
X50586402Y53579742D01*
X50414348Y53464780D01*
X50268020Y53318452D01*
X50153058Y53146398D01*
X50076579Y52961762D01*
X50036842Y52915236D01*
X49977347Y52900953D01*
X49920819Y52924368D01*
X49890960Y52969055D01*
X49822895Y53178537D01*
X49724282Y53372078D01*
X49724278Y53372083D01*
X49683129Y53428719D01*
X49028157Y52773748D01*
X49009925Y52841793D01*
X48944099Y52955807D01*
X48851007Y53048899D01*
X48736993Y53114725D01*
X48668946Y53132959D01*
X49323917Y53787930D01*
X49323917Y53787931D01*
X49267282Y53829079D01*
X49267277Y53829083D01*
X49073736Y53927696D01*
X48867146Y53994822D01*
X48652611Y54028800D01*
X48435389Y54028800D01*
X48220853Y53994822D01*
X48014263Y53927696D01*
X47820724Y53829084D01*
X47764082Y53787930D01*
X48419053Y53132959D01*
X48351007Y53114725D01*
X48236993Y53048899D01*
X48143901Y52955807D01*
X48078075Y52841793D01*
X48059841Y52773747D01*
X47404870Y53428718D01*
X47363716Y53372076D01*
X47265104Y53178537D01*
X47197039Y52969055D01*
X47161075Y52919555D01*
X47102884Y52900648D01*
X47044693Y52919555D01*
X47011420Y52961762D01*
X46942222Y53128819D01*
X46934941Y53146398D01*
X46819977Y53318455D01*
X46673655Y53464777D01*
X46501598Y53579741D01*
X46501599Y53579741D01*
X46501597Y53579742D01*
X46378052Y53630916D01*
X46310889Y53658736D01*
X46310420Y53658930D01*
X46107467Y53699300D01*
X46107465Y53699300D01*
X45900535Y53699300D01*
X45900532Y53699300D01*
X45697581Y53658931D01*
X45506402Y53579742D01*
X45334348Y53464780D01*
X45188020Y53318452D01*
X45073058Y53146398D01*
X44993869Y52955219D01*
X44953500Y52752268D01*
X44514499Y52752268D01*
X44474130Y52955220D01*
X44394941Y53146398D01*
X44279977Y53318455D01*
X44133655Y53464777D01*
X43961598Y53579741D01*
X43961599Y53579741D01*
X43961597Y53579742D01*
X43770418Y53658931D01*
X43567467Y53699300D01*
X43567465Y53699300D01*
X43360535Y53699300D01*
X43360532Y53699300D01*
X43157581Y53658931D01*
X42966402Y53579742D01*
X42794348Y53464780D01*
X42648020Y53318452D01*
X42533058Y53146398D01*
X42453869Y52955219D01*
X42413500Y52752268D01*
X41974499Y52752268D01*
X41934130Y52955220D01*
X41854941Y53146398D01*
X41739977Y53318455D01*
X41593655Y53464777D01*
X41421598Y53579741D01*
X41421599Y53579741D01*
X41421597Y53579742D01*
X41230418Y53658931D01*
X41027467Y53699300D01*
X41027465Y53699300D01*
X40820535Y53699300D01*
X40820532Y53699300D01*
X40617581Y53658931D01*
X40426402Y53579742D01*
X40254348Y53464780D01*
X40108020Y53318452D01*
X39993058Y53146398D01*
X39913869Y52955219D01*
X39873500Y52752268D01*
X39434499Y52752268D01*
X39394130Y52955220D01*
X39314941Y53146398D01*
X39199977Y53318455D01*
X39053655Y53464777D01*
X38881598Y53579741D01*
X38881599Y53579741D01*
X38881597Y53579742D01*
X38690418Y53658931D01*
X38487467Y53699300D01*
X38487465Y53699300D01*
X38280535Y53699300D01*
X38280532Y53699300D01*
X38077581Y53658931D01*
X37886402Y53579742D01*
X37714348Y53464780D01*
X37568020Y53318452D01*
X37453058Y53146398D01*
X37373869Y52955219D01*
X37333500Y52752268D01*
X36894499Y52752268D01*
X36854130Y52955220D01*
X36774941Y53146398D01*
X36659977Y53318455D01*
X36513655Y53464777D01*
X36341598Y53579741D01*
X36341599Y53579741D01*
X36341597Y53579742D01*
X36150418Y53658931D01*
X35947467Y53699300D01*
X35947465Y53699300D01*
X35740535Y53699300D01*
X35740532Y53699300D01*
X35537581Y53658931D01*
X35346402Y53579742D01*
X35174348Y53464780D01*
X35028020Y53318452D01*
X34913058Y53146398D01*
X34833869Y52955219D01*
X34793500Y52752268D01*
X34354499Y52752268D01*
X34314130Y52955220D01*
X34234941Y53146398D01*
X34119977Y53318455D01*
X33973655Y53464777D01*
X33801598Y53579741D01*
X33801599Y53579741D01*
X33801597Y53579742D01*
X33610418Y53658931D01*
X33407467Y53699300D01*
X33407465Y53699300D01*
X33200535Y53699300D01*
X33200532Y53699300D01*
X32997581Y53658931D01*
X32806402Y53579742D01*
X32634348Y53464780D01*
X32488020Y53318452D01*
X32373058Y53146398D01*
X32296579Y52961762D01*
X32256842Y52915236D01*
X32197347Y52900953D01*
X32140819Y52924368D01*
X32110960Y52969055D01*
X32042895Y53178537D01*
X31944282Y53372078D01*
X31944278Y53372083D01*
X31903129Y53428719D01*
X31248157Y52773748D01*
X31229925Y52841793D01*
X31164099Y52955807D01*
X31071007Y53048899D01*
X30956993Y53114725D01*
X30888946Y53132959D01*
X31543917Y53787930D01*
X31543917Y53787931D01*
X31487282Y53829079D01*
X31487277Y53829083D01*
X31293736Y53927696D01*
X31087146Y53994822D01*
X30872611Y54028800D01*
X30655389Y54028800D01*
X30440853Y53994822D01*
X30234263Y53927696D01*
X30040724Y53829084D01*
X29984082Y53787930D01*
X30639053Y53132959D01*
X30571007Y53114725D01*
X30456993Y53048899D01*
X30363901Y52955807D01*
X30298075Y52841793D01*
X30279841Y52773747D01*
X29624870Y53428718D01*
X29583716Y53372076D01*
X29509539Y53226494D01*
X29466274Y53183229D01*
X29405842Y53173658D01*
X29351325Y53201436D01*
X29333119Y53226495D01*
X29293527Y53304200D01*
X29293526Y53304202D01*
X29283173Y53318452D01*
X29177828Y53463446D01*
X29038646Y53602628D01*
X28945769Y53670108D01*
X28945768Y53670109D01*
X28879410Y53718321D01*
X28879404Y53718325D01*
X28704025Y53807684D01*
X28516821Y53868511D01*
X28322420Y53899300D01*
X28322417Y53899300D01*
X28125583Y53899300D01*
X28125580Y53899300D01*
X27931178Y53868511D01*
X27743974Y53807684D01*
X27568597Y53718326D01*
X27409355Y53602629D01*
X27270171Y53463445D01*
X27154474Y53304203D01*
X27065114Y53128822D01*
X27065112Y53128819D01*
X27048154Y53076625D01*
X27012190Y53027125D01*
X26953999Y53008218D01*
X26895809Y53027126D01*
X26859846Y53076625D01*
X26842887Y53128819D01*
X26842885Y53128822D01*
X26842884Y53128823D01*
X26842884Y53128825D01*
X26753524Y53304205D01*
X26637828Y53463446D01*
X26498646Y53602628D01*
X26339405Y53718324D01*
X26339404Y53718325D01*
X26339402Y53718326D01*
X26164025Y53807684D01*
X25976821Y53868511D01*
X25782420Y53899300D01*
X25782417Y53899300D01*
X25585583Y53899300D01*
X25585580Y53899300D01*
X25391178Y53868511D01*
X25203974Y53807684D01*
X25028597Y53718326D01*
X24869355Y53602629D01*
X24730170Y53463444D01*
X24703092Y53426174D01*
X24653592Y53390211D01*
X24592406Y53390212D01*
X24542907Y53426176D01*
X24524000Y53484366D01*
X24524000Y53540293D01*
X24523999Y53540299D01*
X24513772Y53625464D01*
X24460321Y53761004D01*
X24372293Y53877086D01*
X24372285Y53877094D01*
X24256203Y53965122D01*
X24120663Y54018573D01*
X24035498Y54028800D01*
X23398001Y54028800D01*
X23398000Y54028799D01*
X23398000Y53079503D01*
X23336993Y53114725D01*
X23209826Y53148800D01*
X23078174Y53148800D01*
X22951007Y53114725D01*
X22890000Y53079503D01*
X22890000Y54028799D01*
X22889999Y54028800D01*
X22252501Y54028800D01*
X22167336Y54018573D01*
X22031796Y53965122D01*
X21915714Y53877094D01*
X21915706Y53877086D01*
X21827678Y53761004D01*
X21774227Y53625464D01*
X21764000Y53540299D01*
X5344500Y53540299D01*
X5344500Y55516500D01*
X5363407Y55574691D01*
X5412907Y55610655D01*
X5443500Y55615500D01*
X75836500Y55615500D01*
X75894691Y55596593D01*
G37*
%TD.AperFunction*%
%TD*%
M02*
