M48
; DRILL file {KiCad 9.0.6+1} date 2025-12-29T17:07:16+0000
; FORMAT={3:3/ absolute / metric / suppress leading zeros}
; #@! TF.CreationDate,2025-12-29T17:07:16+00:00
; #@! TF.GenerationSoftware,Kicad,Pcbnew,9.0.6+1
; #@! TF.FileFunction,Plated,1,2,PTH
FMAT,2
METRIC,TZ
; #@! TA.AperFunction,Plated,PTH,ViaDrill
T1C0.400
; #@! TA.AperFunction,Plated,PTH,ComponentDrill
T2C0.889
; #@! TA.AperFunction,Plated,PTH,ComponentDrill
T3C3.000
%
G90
G05
T1
X16764Y32639
X18034Y14944
X22006Y13259
X23686Y25005
X26238Y32537
X26721Y42037
X27178Y36601
X27508Y31054
X28321Y35306
X28448Y44577
X29210Y32766
X29333Y38141
X29362Y34874
X29718Y43544
X31306Y26043
X32247Y28044
X33147Y31113
X33401Y35179
X33693Y23584
X34001Y33549
X34040Y24522
X34699Y22059
X34886Y34434
X35707Y13259
X36629Y17526
X37084Y16256
X37336Y35640
X37465Y19304
X37472Y47733
X37801Y34574
X38608Y49403
X38693Y27957
X39573Y34569
X39751Y20828
X40001Y29245
X40945Y30810
X42291Y10541
X42545Y7112
X42564Y23008
X42571Y44989
X43561Y20828
X43612Y43053
X43815Y31750
X44069Y35560
X44552Y47879
X44679Y43053
X44958Y24130
X45479Y44069
X45850Y17031
X46068Y25283
X46121Y28341
X46126Y35408
X46609Y32766
X46836Y17200
X47650Y39726
X48591Y21619
X49987Y36906
X50140Y39649
X50140Y32283
X51435Y12167
X51511Y24257
X51733Y25610
X53467Y22860
X54331Y11252
X55023Y34336
X64872Y34417
T2
X22860Y53340
X22860Y50800
X25400Y53340
X25400Y50800
X27940Y53340
X27940Y50800
X30480Y53340
X30480Y50800
X33020Y53340
X33020Y50800
X35560Y53340
X35560Y50800
X38100Y53340
X38100Y50800
X40640Y53340
X40640Y50800
X43180Y53340
X43180Y50800
X45720Y53340
X45720Y50800
X48260Y53340
X48260Y50800
X50800Y53340
X50800Y50800
X53340Y53340
X53340Y50800
X55880Y53340
X55880Y50800
X58420Y53340
X58420Y50800
T3
X10160Y50800
X10160Y10160
X71120Y50800
X71120Y10160
M30
