%TF.GenerationSoftware,KiCad,Pcbnew,9.0.1+1*%
%TF.CreationDate,2025-11-25T21:21:07+00:00*%
%TF.ProjectId,TFUNIPAYLOAD01,5446554e-4950-4415-994c-4f414430312e,rev?*%
%TF.SameCoordinates,Original*%
%TF.FileFunction,Soldermask,Top*%
%TF.FilePolarity,Negative*%
%FSLAX46Y46*%
G04 Gerber Fmt 4.6, Leading zero omitted, Abs format (unit mm)*
G04 Created by KiCad (PCBNEW 9.0.1+1) date 2025-11-25 21:21:07*
%MOMM*%
%LPD*%
G01*
G04 APERTURE LIST*
G04 Aperture macros list*
%AMRoundRect*
0 Rectangle with rounded corners*
0 $1 Rounding radius*
0 $2 $3 $4 $5 $6 $7 $8 $9 X,Y pos of 4 corners*
0 Add a 4 corners polygon primitive as box body*
4,1,4,$2,$3,$4,$5,$6,$7,$8,$9,$2,$3,0*
0 Add four circle primitives for the rounded corners*
1,1,$1+$1,$2,$3*
1,1,$1+$1,$4,$5*
1,1,$1+$1,$6,$7*
1,1,$1+$1,$8,$9*
0 Add four rect primitives between the rounded corners*
20,1,$1+$1,$2,$3,$4,$5,0*
20,1,$1+$1,$4,$5,$6,$7,0*
20,1,$1+$1,$6,$7,$8,$9,0*
20,1,$1+$1,$8,$9,$2,$3,0*%
G04 Aperture macros list end*
%ADD10C,6.160000*%
%ADD11RoundRect,0.076667X-0.338333X-0.153333X0.338333X-0.153333X0.338333X0.153333X-0.338333X0.153333X0*%
%ADD12RoundRect,0.290000X-0.290000X-0.515000X0.290000X-0.515000X0.290000X0.515000X-0.290000X0.515000X0*%
%ADD13RoundRect,0.289024X-0.303476X-0.490976X0.303476X-0.490976X0.303476X0.490976X-0.303476X0.490976X0*%
%ADD14RoundRect,0.282000X-0.673000X0.423000X-0.673000X-0.423000X0.673000X-0.423000X0.673000X0.423000X0*%
%ADD15RoundRect,0.190000X-0.190000X-0.740000X0.190000X-0.740000X0.190000X0.740000X-0.190000X0.740000X0*%
%ADD16RoundRect,0.290000X-0.290000X-1.140000X0.290000X-1.140000X0.290000X1.140000X-0.290000X1.140000X0*%
%ADD17RoundRect,0.080000X-0.300000X-0.350000X0.300000X-0.350000X0.300000X0.350000X-0.300000X0.350000X0*%
%ADD18RoundRect,0.240000X-0.240000X-0.315000X0.240000X-0.315000X0.240000X0.315000X-0.240000X0.315000X0*%
%ADD19RoundRect,0.190000X-0.190000X-0.790000X0.190000X-0.790000X0.190000X0.790000X-0.190000X0.790000X0*%
%ADD20RoundRect,0.227500X-0.227500X-0.752500X0.227500X-0.752500X0.227500X0.752500X-0.227500X0.752500X0*%
%ADD21O,1.060000X1.460000*%
%ADD22RoundRect,0.265000X-0.465000X-0.265000X0.465000X-0.265000X0.465000X0.265000X-0.465000X0.265000X0*%
%ADD23C,2.000000*%
%ADD24RoundRect,0.283333X-0.496667X-0.396667X0.496667X-0.396667X0.496667X0.396667X-0.496667X0.396667X0*%
%ADD25RoundRect,0.080000X-0.762000X-0.762000X0.762000X-0.762000X0.762000X0.762000X-0.762000X0.762000X0*%
%ADD26RoundRect,0.282000X-0.423000X-0.898000X0.423000X-0.898000X0.423000X0.898000X-0.423000X0.898000X0*%
%ADD27RoundRect,0.080000X-0.850000X-0.850000X0.850000X-0.850000X0.850000X0.850000X-0.850000X0.850000X0*%
%ADD28C,1.860000*%
%ADD29RoundRect,0.282000X-0.423000X-0.673000X0.423000X-0.673000X0.423000X0.673000X-0.423000X0.673000X0*%
G04 APERTURE END LIST*
D10*
%TO.C,M2*%
X174972341Y-78676927D03*
%TD*%
%TO.C,M3*%
X103852341Y-78676927D03*
%TD*%
%TO.C,M4*%
X103852341Y-119316927D03*
%TD*%
%TO.C,M1*%
X174972341Y-119316927D03*
%TD*%
D11*
%TO.C,U1*%
X139093741Y-160793727D03*
X139093741Y-161293727D03*
X139093741Y-161793727D03*
X139093741Y-162293727D03*
X140573741Y-162293727D03*
X140573741Y-161793727D03*
X140573741Y-161293727D03*
X140573741Y-160793727D03*
%TD*%
D12*
%TO.C,C6*%
X124573741Y-141158727D03*
X126473741Y-141158727D03*
%TD*%
%TO.C,C13*%
X124573741Y-147178727D03*
X126473741Y-147178727D03*
%TD*%
D13*
%TO.C,R10*%
X120181241Y-144018727D03*
X122006241Y-144018727D03*
%TD*%
D12*
%TO.C,C3*%
X152126341Y-67522927D03*
X154026341Y-67522927D03*
%TD*%
D13*
%TO.C,R22*%
X120181241Y-149918727D03*
X122006241Y-149918727D03*
%TD*%
D12*
%TO.C,C7*%
X124573741Y-144168727D03*
X126473741Y-144168727D03*
%TD*%
D14*
%TO.C,D3*%
X153026341Y-117916927D03*
X153026341Y-120716927D03*
%TD*%
D15*
%TO.C,J6*%
X131123741Y-138518727D03*
X132373741Y-138518727D03*
X133623741Y-138518727D03*
X134873741Y-138518727D03*
X136123741Y-138518727D03*
X137373741Y-138518727D03*
X138623741Y-138518727D03*
D16*
X129273741Y-141718727D03*
X140473741Y-141718727D03*
%TD*%
D15*
%TO.C,J4*%
X131128741Y-145968727D03*
X132378741Y-145968727D03*
X133628741Y-145968727D03*
X134878741Y-145968727D03*
D16*
X129278741Y-149168727D03*
X136728741Y-149168727D03*
%TD*%
D17*
%TO.C,SW2*%
X138938741Y-152593727D03*
X141938741Y-152593727D03*
X138938741Y-154493727D03*
X141938741Y-154493727D03*
%TD*%
D14*
%TO.C,D4*%
X148026341Y-117916927D03*
X148026341Y-120716927D03*
%TD*%
D18*
%TO.C,R28*%
X128928741Y-157818727D03*
X130578741Y-157818727D03*
%TD*%
D19*
%TO.C,SW1*%
X141333741Y-145923727D03*
D20*
X140108741Y-145923727D03*
X142558741Y-145923727D03*
D21*
X139208741Y-146823727D03*
D22*
X139483741Y-147873727D03*
X143183741Y-147873727D03*
D21*
X143458741Y-146823727D03*
%TD*%
D13*
%TO.C,R23*%
X120181241Y-152868727D03*
X122006241Y-152868727D03*
%TD*%
D23*
%TO.C,FID2*%
X181830341Y-78270527D03*
%TD*%
D24*
%TO.C,Y1*%
X156826341Y-69142927D03*
X159026341Y-69142927D03*
X159026341Y-67442927D03*
X156826341Y-67442927D03*
%TD*%
D17*
%TO.C,SW3*%
X138938741Y-156593727D03*
X141938741Y-156593727D03*
X138938741Y-158493727D03*
X141938741Y-158493727D03*
%TD*%
D12*
%TO.C,C15*%
X124573741Y-153198727D03*
X126473741Y-153198727D03*
%TD*%
D23*
%TO.C,FID6*%
X126763141Y-76848127D03*
%TD*%
D25*
%TO.C,J3*%
X133603741Y-153388727D03*
X136143741Y-153388727D03*
X133603741Y-155928727D03*
X136143741Y-155928727D03*
X133603741Y-158468727D03*
X136143741Y-158468727D03*
%TD*%
D14*
%TO.C,D5*%
X168026341Y-77276927D03*
X168026341Y-80076927D03*
%TD*%
D13*
%TO.C,R3*%
X120181241Y-141068727D03*
X122006241Y-141068727D03*
%TD*%
D18*
%TO.C,R25*%
X128928741Y-152798727D03*
X130578741Y-152798727D03*
%TD*%
D26*
%TO.C,L3*%
X144288741Y-157168727D03*
X146438741Y-157168727D03*
%TD*%
D18*
%TO.C,R27*%
X128928741Y-155308727D03*
X130578741Y-155308727D03*
%TD*%
%TO.C,R30*%
X128928741Y-162838727D03*
X130578741Y-162838727D03*
%TD*%
D12*
%TO.C,C4*%
X152126341Y-70532927D03*
X154026341Y-70532927D03*
%TD*%
D26*
%TO.C,L2*%
X144288741Y-153418727D03*
X146438741Y-153418727D03*
%TD*%
D13*
%TO.C,R2*%
X120181241Y-138118727D03*
X122006241Y-138118727D03*
%TD*%
%TO.C,R26*%
X120181241Y-158768727D03*
X122006241Y-158768727D03*
%TD*%
D12*
%TO.C,C14*%
X124573741Y-150188727D03*
X126473741Y-150188727D03*
%TD*%
D27*
%TO.C,J5*%
X89902341Y-83812327D03*
D28*
X87362341Y-83812327D03*
X89902341Y-86352327D03*
X87362341Y-86352327D03*
X89902341Y-88892327D03*
X87362341Y-88892327D03*
X89902341Y-91432327D03*
X87362341Y-91432327D03*
X89902341Y-93972327D03*
X87362341Y-93972327D03*
X89902341Y-96512327D03*
X87362341Y-96512327D03*
X89902341Y-99052327D03*
X87362341Y-99052327D03*
X89902341Y-101592327D03*
X87362341Y-101592327D03*
X89902341Y-104132327D03*
X87362341Y-104132327D03*
X89902341Y-106672327D03*
X87362341Y-106672327D03*
X89902341Y-109212327D03*
X87362341Y-109212327D03*
X89902341Y-111752327D03*
X87362341Y-111752327D03*
X89902341Y-114292327D03*
X87362341Y-114292327D03*
X89902341Y-116832327D03*
X87362341Y-116832327D03*
X89902341Y-119372327D03*
X87362341Y-119372327D03*
%TD*%
D18*
%TO.C,R29*%
X128928741Y-160328727D03*
X130578741Y-160328727D03*
%TD*%
D13*
%TO.C,R24*%
X120181241Y-155818727D03*
X122006241Y-155818727D03*
%TD*%
%TO.C,R11*%
X120181241Y-146968727D03*
X122006241Y-146968727D03*
%TD*%
D14*
%TO.C,D6*%
X158026341Y-117916927D03*
X158026341Y-120716927D03*
%TD*%
D29*
%TO.C,D7*%
X133203741Y-162008727D03*
X136003741Y-162008727D03*
%TD*%
D11*
%TO.C,U3*%
X142783741Y-160793727D03*
X142783741Y-161293727D03*
X142783741Y-161793727D03*
X142783741Y-162293727D03*
X144263741Y-162293727D03*
X144263741Y-161793727D03*
X144263741Y-161293727D03*
X144263741Y-160793727D03*
%TD*%
D23*
%TO.C,FID1*%
X126712341Y-121501327D03*
%TD*%
D12*
%TO.C,C5*%
X124573741Y-138148727D03*
X126473741Y-138148727D03*
%TD*%
M02*
