%TF.GenerationSoftware,KiCad,Pcbnew,9.0.6+1*%
%TF.CreationDate,2026-01-20T21:50:30+00:00*%
%TF.ProjectId,TFUNIPAYLOAD01,5446554e-4950-4415-994c-4f414430312e,rev?*%
%TF.SameCoordinates,PX66dd020PY81342c0*%
%TF.FileFunction,Soldermask,Top*%
%TF.FilePolarity,Negative*%
%FSLAX46Y46*%
G04 Gerber Fmt 4.6, Leading zero omitted, Abs format (unit mm)*
G04 Created by KiCad (PCBNEW 9.0.6+1) date 2026-01-20 21:50:30*
%MOMM*%
%LPD*%
G01*
G04 APERTURE LIST*
G04 Aperture macros list*
%AMRoundRect*
0 Rectangle with rounded corners*
0 $1 Rounding radius*
0 $2 $3 $4 $5 $6 $7 $8 $9 X,Y pos of 4 corners*
0 Add a 4 corners polygon primitive as box body*
4,1,4,$2,$3,$4,$5,$6,$7,$8,$9,$2,$3,0*
0 Add four circle primitives for the rounded corners*
1,1,$1+$1,$2,$3*
1,1,$1+$1,$4,$5*
1,1,$1+$1,$6,$7*
1,1,$1+$1,$8,$9*
0 Add four rect primitives between the rounded corners*
20,1,$1+$1,$2,$3,$4,$5,0*
20,1,$1+$1,$4,$5,$6,$7,0*
20,1,$1+$1,$6,$7,$8,$9,0*
20,1,$1+$1,$8,$9,$2,$3,0*%
G04 Aperture macros list end*
%ADD10C,6.100000*%
%ADD11RoundRect,0.050000X0.762000X0.762000X-0.762000X0.762000X-0.762000X-0.762000X0.762000X-0.762000X0*%
%ADD12RoundRect,0.050000X0.762000X-0.762000X0.762000X0.762000X-0.762000X0.762000X-0.762000X-0.762000X0*%
G04 APERTURE END LIST*
D10*
%TO.C,M2*%
X71120000Y50800000D03*
%TD*%
%TO.C,M3*%
X10160000Y10160000D03*
%TD*%
%TO.C,M4*%
X71120000Y10160000D03*
%TD*%
%TO.C,M1*%
X10160000Y50800000D03*
%TD*%
D11*
%TO.C,J3*%
X49987200Y23012400D03*
X47447200Y23012400D03*
X49987200Y25552400D03*
X47447200Y25552400D03*
X49987200Y28092400D03*
X47447200Y28092400D03*
%TD*%
D12*
%TO.C,J5*%
X22860000Y50800000D03*
X22860000Y53340000D03*
X25400000Y50800000D03*
X25400000Y53340000D03*
X27940000Y50800000D03*
X27940000Y53340000D03*
X30480000Y50800000D03*
X30480000Y53340000D03*
X33020000Y50800000D03*
X33020000Y53340000D03*
X35560000Y50800000D03*
X35560000Y53340000D03*
X38100000Y50800000D03*
X38100000Y53340000D03*
X40640000Y50800000D03*
X40640000Y53340000D03*
X43180000Y50800000D03*
X43180000Y53340000D03*
X45720000Y50800000D03*
X45720000Y53340000D03*
X48260000Y50800000D03*
X48260000Y53340000D03*
X50800000Y50800000D03*
X50800000Y53340000D03*
X53340000Y50800000D03*
X53340000Y53340000D03*
X55880000Y50800000D03*
X55880000Y53340000D03*
X58420000Y50800000D03*
X58420000Y53340000D03*
%TD*%
M02*
