%TF.GenerationSoftware,KiCad,Pcbnew,9.0.6+1*%
%TF.CreationDate,2026-01-16T16:58:56+00:00*%
%TF.ProjectId,TFUNIPAYLOAD01,5446554e-4950-4415-994c-4f414430312e,rev?*%
%TF.SameCoordinates,PX66dd020PY81342c0*%
%TF.FileFunction,Legend,Bot*%
%TF.FilePolarity,Positive*%
%FSLAX46Y46*%
G04 Gerber Fmt 4.6, Leading zero omitted, Abs format (unit mm)*
G04 Created by KiCad (PCBNEW 9.0.6+1) date 2026-01-16 16:58:56*
%MOMM*%
%LPD*%
G01*
G04 APERTURE LIST*
%ADD10C,0.150000*%
%ADD11C,0.100000*%
%ADD12C,0.120000*%
G04 APERTURE END LIST*
D10*
X33847066Y39797820D02*
X33894685Y39750200D01*
X33894685Y39750200D02*
X34037542Y39702581D01*
X34037542Y39702581D02*
X34132780Y39702581D01*
X34132780Y39702581D02*
X34275637Y39750200D01*
X34275637Y39750200D02*
X34370875Y39845439D01*
X34370875Y39845439D02*
X34418494Y39940677D01*
X34418494Y39940677D02*
X34466113Y40131153D01*
X34466113Y40131153D02*
X34466113Y40274010D01*
X34466113Y40274010D02*
X34418494Y40464486D01*
X34418494Y40464486D02*
X34370875Y40559724D01*
X34370875Y40559724D02*
X34275637Y40654962D01*
X34275637Y40654962D02*
X34132780Y40702581D01*
X34132780Y40702581D02*
X34037542Y40702581D01*
X34037542Y40702581D02*
X33894685Y40654962D01*
X33894685Y40654962D02*
X33847066Y40607343D01*
X33370875Y39702581D02*
X33180399Y39702581D01*
X33180399Y39702581D02*
X33085161Y39750200D01*
X33085161Y39750200D02*
X33037542Y39797820D01*
X33037542Y39797820D02*
X32942304Y39940677D01*
X32942304Y39940677D02*
X32894685Y40131153D01*
X32894685Y40131153D02*
X32894685Y40512105D01*
X32894685Y40512105D02*
X32942304Y40607343D01*
X32942304Y40607343D02*
X32989923Y40654962D01*
X32989923Y40654962D02*
X33085161Y40702581D01*
X33085161Y40702581D02*
X33275637Y40702581D01*
X33275637Y40702581D02*
X33370875Y40654962D01*
X33370875Y40654962D02*
X33418494Y40607343D01*
X33418494Y40607343D02*
X33466113Y40512105D01*
X33466113Y40512105D02*
X33466113Y40274010D01*
X33466113Y40274010D02*
X33418494Y40178772D01*
X33418494Y40178772D02*
X33370875Y40131153D01*
X33370875Y40131153D02*
X33275637Y40083534D01*
X33275637Y40083534D02*
X33085161Y40083534D01*
X33085161Y40083534D02*
X32989923Y40131153D01*
X32989923Y40131153D02*
X32942304Y40178772D01*
X32942304Y40178772D02*
X32894685Y40274010D01*
X36615666Y43738420D02*
X36663285Y43690800D01*
X36663285Y43690800D02*
X36806142Y43643181D01*
X36806142Y43643181D02*
X36901380Y43643181D01*
X36901380Y43643181D02*
X37044237Y43690800D01*
X37044237Y43690800D02*
X37139475Y43786039D01*
X37139475Y43786039D02*
X37187094Y43881277D01*
X37187094Y43881277D02*
X37234713Y44071753D01*
X37234713Y44071753D02*
X37234713Y44214610D01*
X37234713Y44214610D02*
X37187094Y44405086D01*
X37187094Y44405086D02*
X37139475Y44500324D01*
X37139475Y44500324D02*
X37044237Y44595562D01*
X37044237Y44595562D02*
X36901380Y44643181D01*
X36901380Y44643181D02*
X36806142Y44643181D01*
X36806142Y44643181D02*
X36663285Y44595562D01*
X36663285Y44595562D02*
X36615666Y44547943D01*
X36044237Y44214610D02*
X36139475Y44262229D01*
X36139475Y44262229D02*
X36187094Y44309848D01*
X36187094Y44309848D02*
X36234713Y44405086D01*
X36234713Y44405086D02*
X36234713Y44452705D01*
X36234713Y44452705D02*
X36187094Y44547943D01*
X36187094Y44547943D02*
X36139475Y44595562D01*
X36139475Y44595562D02*
X36044237Y44643181D01*
X36044237Y44643181D02*
X35853761Y44643181D01*
X35853761Y44643181D02*
X35758523Y44595562D01*
X35758523Y44595562D02*
X35710904Y44547943D01*
X35710904Y44547943D02*
X35663285Y44452705D01*
X35663285Y44452705D02*
X35663285Y44405086D01*
X35663285Y44405086D02*
X35710904Y44309848D01*
X35710904Y44309848D02*
X35758523Y44262229D01*
X35758523Y44262229D02*
X35853761Y44214610D01*
X35853761Y44214610D02*
X36044237Y44214610D01*
X36044237Y44214610D02*
X36139475Y44166991D01*
X36139475Y44166991D02*
X36187094Y44119372D01*
X36187094Y44119372D02*
X36234713Y44024134D01*
X36234713Y44024134D02*
X36234713Y43833658D01*
X36234713Y43833658D02*
X36187094Y43738420D01*
X36187094Y43738420D02*
X36139475Y43690800D01*
X36139475Y43690800D02*
X36044237Y43643181D01*
X36044237Y43643181D02*
X35853761Y43643181D01*
X35853761Y43643181D02*
X35758523Y43690800D01*
X35758523Y43690800D02*
X35710904Y43738420D01*
X35710904Y43738420D02*
X35663285Y43833658D01*
X35663285Y43833658D02*
X35663285Y44024134D01*
X35663285Y44024134D02*
X35710904Y44119372D01*
X35710904Y44119372D02*
X35758523Y44166991D01*
X35758523Y44166991D02*
X35853761Y44214610D01*
X43840304Y26707181D02*
X43840304Y25897658D01*
X43840304Y25897658D02*
X43792685Y25802420D01*
X43792685Y25802420D02*
X43745066Y25754800D01*
X43745066Y25754800D02*
X43649828Y25707181D01*
X43649828Y25707181D02*
X43459352Y25707181D01*
X43459352Y25707181D02*
X43364114Y25754800D01*
X43364114Y25754800D02*
X43316495Y25802420D01*
X43316495Y25802420D02*
X43268876Y25897658D01*
X43268876Y25897658D02*
X43268876Y26707181D01*
X42840304Y26611943D02*
X42792685Y26659562D01*
X42792685Y26659562D02*
X42697447Y26707181D01*
X42697447Y26707181D02*
X42459352Y26707181D01*
X42459352Y26707181D02*
X42364114Y26659562D01*
X42364114Y26659562D02*
X42316495Y26611943D01*
X42316495Y26611943D02*
X42268876Y26516705D01*
X42268876Y26516705D02*
X42268876Y26421467D01*
X42268876Y26421467D02*
X42316495Y26278610D01*
X42316495Y26278610D02*
X42887923Y25707181D01*
X42887923Y25707181D02*
X42268876Y25707181D01*
X22893257Y25478581D02*
X23226590Y25954772D01*
X23464685Y25478581D02*
X23464685Y26478581D01*
X23464685Y26478581D02*
X23083733Y26478581D01*
X23083733Y26478581D02*
X22988495Y26430962D01*
X22988495Y26430962D02*
X22940876Y26383343D01*
X22940876Y26383343D02*
X22893257Y26288105D01*
X22893257Y26288105D02*
X22893257Y26145248D01*
X22893257Y26145248D02*
X22940876Y26050010D01*
X22940876Y26050010D02*
X22988495Y26002391D01*
X22988495Y26002391D02*
X23083733Y25954772D01*
X23083733Y25954772D02*
X23464685Y25954772D01*
X21940876Y25478581D02*
X22512304Y25478581D01*
X22226590Y25478581D02*
X22226590Y26478581D01*
X22226590Y26478581D02*
X22321828Y26335724D01*
X22321828Y26335724D02*
X22417066Y26240486D01*
X22417066Y26240486D02*
X22512304Y26192867D01*
X21559923Y26383343D02*
X21512304Y26430962D01*
X21512304Y26430962D02*
X21417066Y26478581D01*
X21417066Y26478581D02*
X21178971Y26478581D01*
X21178971Y26478581D02*
X21083733Y26430962D01*
X21083733Y26430962D02*
X21036114Y26383343D01*
X21036114Y26383343D02*
X20988495Y26288105D01*
X20988495Y26288105D02*
X20988495Y26192867D01*
X20988495Y26192867D02*
X21036114Y26050010D01*
X21036114Y26050010D02*
X21607542Y25478581D01*
X21607542Y25478581D02*
X20988495Y25478581D01*
X40156019Y20103267D02*
X39679828Y20436600D01*
X40156019Y20674695D02*
X39156019Y20674695D01*
X39156019Y20674695D02*
X39156019Y20293743D01*
X39156019Y20293743D02*
X39203638Y20198505D01*
X39203638Y20198505D02*
X39251257Y20150886D01*
X39251257Y20150886D02*
X39346495Y20103267D01*
X39346495Y20103267D02*
X39489352Y20103267D01*
X39489352Y20103267D02*
X39584590Y20150886D01*
X39584590Y20150886D02*
X39632209Y20198505D01*
X39632209Y20198505D02*
X39679828Y20293743D01*
X39679828Y20293743D02*
X39679828Y20674695D01*
X39156019Y19198505D02*
X39156019Y19674695D01*
X39156019Y19674695D02*
X39632209Y19722314D01*
X39632209Y19722314D02*
X39584590Y19674695D01*
X39584590Y19674695D02*
X39536971Y19579457D01*
X39536971Y19579457D02*
X39536971Y19341362D01*
X39536971Y19341362D02*
X39584590Y19246124D01*
X39584590Y19246124D02*
X39632209Y19198505D01*
X39632209Y19198505D02*
X39727447Y19150886D01*
X39727447Y19150886D02*
X39965542Y19150886D01*
X39965542Y19150886D02*
X40060780Y19198505D01*
X40060780Y19198505D02*
X40108400Y19246124D01*
X40108400Y19246124D02*
X40156019Y19341362D01*
X40156019Y19341362D02*
X40156019Y19579457D01*
X40156019Y19579457D02*
X40108400Y19674695D01*
X40108400Y19674695D02*
X40060780Y19722314D01*
X37773780Y20302458D02*
X37821400Y20350077D01*
X37821400Y20350077D02*
X37869019Y20492934D01*
X37869019Y20492934D02*
X37869019Y20588172D01*
X37869019Y20588172D02*
X37821400Y20731029D01*
X37821400Y20731029D02*
X37726161Y20826267D01*
X37726161Y20826267D02*
X37630923Y20873886D01*
X37630923Y20873886D02*
X37440447Y20921505D01*
X37440447Y20921505D02*
X37297590Y20921505D01*
X37297590Y20921505D02*
X37107114Y20873886D01*
X37107114Y20873886D02*
X37011876Y20826267D01*
X37011876Y20826267D02*
X36916638Y20731029D01*
X36916638Y20731029D02*
X36869019Y20588172D01*
X36869019Y20588172D02*
X36869019Y20492934D01*
X36869019Y20492934D02*
X36916638Y20350077D01*
X36916638Y20350077D02*
X36964257Y20302458D01*
X37869019Y19350077D02*
X37869019Y19921505D01*
X37869019Y19635791D02*
X36869019Y19635791D01*
X36869019Y19635791D02*
X37011876Y19731029D01*
X37011876Y19731029D02*
X37107114Y19826267D01*
X37107114Y19826267D02*
X37154733Y19921505D01*
X36869019Y18731029D02*
X36869019Y18635791D01*
X36869019Y18635791D02*
X36916638Y18540553D01*
X36916638Y18540553D02*
X36964257Y18492934D01*
X36964257Y18492934D02*
X37059495Y18445315D01*
X37059495Y18445315D02*
X37249971Y18397696D01*
X37249971Y18397696D02*
X37488066Y18397696D01*
X37488066Y18397696D02*
X37678542Y18445315D01*
X37678542Y18445315D02*
X37773780Y18492934D01*
X37773780Y18492934D02*
X37821400Y18540553D01*
X37821400Y18540553D02*
X37869019Y18635791D01*
X37869019Y18635791D02*
X37869019Y18731029D01*
X37869019Y18731029D02*
X37821400Y18826267D01*
X37821400Y18826267D02*
X37773780Y18873886D01*
X37773780Y18873886D02*
X37678542Y18921505D01*
X37678542Y18921505D02*
X37488066Y18969124D01*
X37488066Y18969124D02*
X37249971Y18969124D01*
X37249971Y18969124D02*
X37059495Y18921505D01*
X37059495Y18921505D02*
X36964257Y18873886D01*
X36964257Y18873886D02*
X36916638Y18826267D01*
X36916638Y18826267D02*
X36869019Y18731029D01*
X47120980Y32875458D02*
X47168600Y32923077D01*
X47168600Y32923077D02*
X47216219Y33065934D01*
X47216219Y33065934D02*
X47216219Y33161172D01*
X47216219Y33161172D02*
X47168600Y33304029D01*
X47168600Y33304029D02*
X47073361Y33399267D01*
X47073361Y33399267D02*
X46978123Y33446886D01*
X46978123Y33446886D02*
X46787647Y33494505D01*
X46787647Y33494505D02*
X46644790Y33494505D01*
X46644790Y33494505D02*
X46454314Y33446886D01*
X46454314Y33446886D02*
X46359076Y33399267D01*
X46359076Y33399267D02*
X46263838Y33304029D01*
X46263838Y33304029D02*
X46216219Y33161172D01*
X46216219Y33161172D02*
X46216219Y33065934D01*
X46216219Y33065934D02*
X46263838Y32923077D01*
X46263838Y32923077D02*
X46311457Y32875458D01*
X47216219Y31923077D02*
X47216219Y32494505D01*
X47216219Y32208791D02*
X46216219Y32208791D01*
X46216219Y32208791D02*
X46359076Y32304029D01*
X46359076Y32304029D02*
X46454314Y32399267D01*
X46454314Y32399267D02*
X46501933Y32494505D01*
X47216219Y30970696D02*
X47216219Y31542124D01*
X47216219Y31256410D02*
X46216219Y31256410D01*
X46216219Y31256410D02*
X46359076Y31351648D01*
X46359076Y31351648D02*
X46454314Y31446886D01*
X46454314Y31446886D02*
X46501933Y31542124D01*
X29577179Y32414258D02*
X29624799Y32461877D01*
X29624799Y32461877D02*
X29672418Y32604734D01*
X29672418Y32604734D02*
X29672418Y32699972D01*
X29672418Y32699972D02*
X29624799Y32842829D01*
X29624799Y32842829D02*
X29529560Y32938067D01*
X29529560Y32938067D02*
X29434322Y32985686D01*
X29434322Y32985686D02*
X29243846Y33033305D01*
X29243846Y33033305D02*
X29100989Y33033305D01*
X29100989Y33033305D02*
X28910513Y32985686D01*
X28910513Y32985686D02*
X28815275Y32938067D01*
X28815275Y32938067D02*
X28720037Y32842829D01*
X28720037Y32842829D02*
X28672418Y32699972D01*
X28672418Y32699972D02*
X28672418Y32604734D01*
X28672418Y32604734D02*
X28720037Y32461877D01*
X28720037Y32461877D02*
X28767656Y32414258D01*
X29672418Y31461877D02*
X29672418Y32033305D01*
X29672418Y31747591D02*
X28672418Y31747591D01*
X28672418Y31747591D02*
X28815275Y31842829D01*
X28815275Y31842829D02*
X28910513Y31938067D01*
X28910513Y31938067D02*
X28958132Y32033305D01*
X28767656Y31080924D02*
X28720037Y31033305D01*
X28720037Y31033305D02*
X28672418Y30938067D01*
X28672418Y30938067D02*
X28672418Y30699972D01*
X28672418Y30699972D02*
X28720037Y30604734D01*
X28720037Y30604734D02*
X28767656Y30557115D01*
X28767656Y30557115D02*
X28862894Y30509496D01*
X28862894Y30509496D02*
X28958132Y30509496D01*
X28958132Y30509496D02*
X29100989Y30557115D01*
X29100989Y30557115D02*
X29672418Y31128543D01*
X29672418Y31128543D02*
X29672418Y30509496D01*
X41964780Y20131067D02*
X42012400Y20178686D01*
X42012400Y20178686D02*
X42060019Y20321543D01*
X42060019Y20321543D02*
X42060019Y20416781D01*
X42060019Y20416781D02*
X42012400Y20559638D01*
X42012400Y20559638D02*
X41917161Y20654876D01*
X41917161Y20654876D02*
X41821923Y20702495D01*
X41821923Y20702495D02*
X41631447Y20750114D01*
X41631447Y20750114D02*
X41488590Y20750114D01*
X41488590Y20750114D02*
X41298114Y20702495D01*
X41298114Y20702495D02*
X41202876Y20654876D01*
X41202876Y20654876D02*
X41107638Y20559638D01*
X41107638Y20559638D02*
X41060019Y20416781D01*
X41060019Y20416781D02*
X41060019Y20321543D01*
X41060019Y20321543D02*
X41107638Y20178686D01*
X41107638Y20178686D02*
X41155257Y20131067D01*
X41155257Y19750114D02*
X41107638Y19702495D01*
X41107638Y19702495D02*
X41060019Y19607257D01*
X41060019Y19607257D02*
X41060019Y19369162D01*
X41060019Y19369162D02*
X41107638Y19273924D01*
X41107638Y19273924D02*
X41155257Y19226305D01*
X41155257Y19226305D02*
X41250495Y19178686D01*
X41250495Y19178686D02*
X41345733Y19178686D01*
X41345733Y19178686D02*
X41488590Y19226305D01*
X41488590Y19226305D02*
X42060019Y19797733D01*
X42060019Y19797733D02*
X42060019Y19178686D01*
X22867857Y28094781D02*
X23201190Y28570972D01*
X23439285Y28094781D02*
X23439285Y29094781D01*
X23439285Y29094781D02*
X23058333Y29094781D01*
X23058333Y29094781D02*
X22963095Y29047162D01*
X22963095Y29047162D02*
X22915476Y28999543D01*
X22915476Y28999543D02*
X22867857Y28904305D01*
X22867857Y28904305D02*
X22867857Y28761448D01*
X22867857Y28761448D02*
X22915476Y28666210D01*
X22915476Y28666210D02*
X22963095Y28618591D01*
X22963095Y28618591D02*
X23058333Y28570972D01*
X23058333Y28570972D02*
X23439285Y28570972D01*
X21915476Y28094781D02*
X22486904Y28094781D01*
X22201190Y28094781D02*
X22201190Y29094781D01*
X22201190Y29094781D02*
X22296428Y28951924D01*
X22296428Y28951924D02*
X22391666Y28856686D01*
X22391666Y28856686D02*
X22486904Y28809067D01*
X21582142Y29094781D02*
X20963095Y29094781D01*
X20963095Y29094781D02*
X21296428Y28713829D01*
X21296428Y28713829D02*
X21153571Y28713829D01*
X21153571Y28713829D02*
X21058333Y28666210D01*
X21058333Y28666210D02*
X21010714Y28618591D01*
X21010714Y28618591D02*
X20963095Y28523353D01*
X20963095Y28523353D02*
X20963095Y28285258D01*
X20963095Y28285258D02*
X21010714Y28190020D01*
X21010714Y28190020D02*
X21058333Y28142400D01*
X21058333Y28142400D02*
X21153571Y28094781D01*
X21153571Y28094781D02*
X21439285Y28094781D01*
X21439285Y28094781D02*
X21534523Y28142400D01*
X21534523Y28142400D02*
X21582142Y28190020D01*
X9580428Y14755991D02*
X9913761Y14755991D01*
X9913761Y14232181D02*
X9913761Y15232181D01*
X9913761Y15232181D02*
X9437571Y15232181D01*
X9056618Y14232181D02*
X9056618Y15232181D01*
X8580428Y14232181D02*
X8580428Y15232181D01*
X8580428Y15232181D02*
X8342333Y15232181D01*
X8342333Y15232181D02*
X8199476Y15184562D01*
X8199476Y15184562D02*
X8104238Y15089324D01*
X8104238Y15089324D02*
X8056619Y14994086D01*
X8056619Y14994086D02*
X8009000Y14803610D01*
X8009000Y14803610D02*
X8009000Y14660753D01*
X8009000Y14660753D02*
X8056619Y14470277D01*
X8056619Y14470277D02*
X8104238Y14375039D01*
X8104238Y14375039D02*
X8199476Y14279800D01*
X8199476Y14279800D02*
X8342333Y14232181D01*
X8342333Y14232181D02*
X8580428Y14232181D01*
X7056619Y14232181D02*
X7628047Y14232181D01*
X7342333Y14232181D02*
X7342333Y15232181D01*
X7342333Y15232181D02*
X7437571Y15089324D01*
X7437571Y15089324D02*
X7532809Y14994086D01*
X7532809Y14994086D02*
X7628047Y14946467D01*
X55752904Y31710981D02*
X55752904Y30901458D01*
X55752904Y30901458D02*
X55705285Y30806220D01*
X55705285Y30806220D02*
X55657666Y30758600D01*
X55657666Y30758600D02*
X55562428Y30710981D01*
X55562428Y30710981D02*
X55371952Y30710981D01*
X55371952Y30710981D02*
X55276714Y30758600D01*
X55276714Y30758600D02*
X55229095Y30806220D01*
X55229095Y30806220D02*
X55181476Y30901458D01*
X55181476Y30901458D02*
X55181476Y31710981D01*
X54181476Y30710981D02*
X54752904Y30710981D01*
X54467190Y30710981D02*
X54467190Y31710981D01*
X54467190Y31710981D02*
X54562428Y31568124D01*
X54562428Y31568124D02*
X54657666Y31472886D01*
X54657666Y31472886D02*
X54752904Y31425267D01*
X60009066Y38248420D02*
X60056685Y38200800D01*
X60056685Y38200800D02*
X60199542Y38153181D01*
X60199542Y38153181D02*
X60294780Y38153181D01*
X60294780Y38153181D02*
X60437637Y38200800D01*
X60437637Y38200800D02*
X60532875Y38296039D01*
X60532875Y38296039D02*
X60580494Y38391277D01*
X60580494Y38391277D02*
X60628113Y38581753D01*
X60628113Y38581753D02*
X60628113Y38724610D01*
X60628113Y38724610D02*
X60580494Y38915086D01*
X60580494Y38915086D02*
X60532875Y39010324D01*
X60532875Y39010324D02*
X60437637Y39105562D01*
X60437637Y39105562D02*
X60294780Y39153181D01*
X60294780Y39153181D02*
X60199542Y39153181D01*
X60199542Y39153181D02*
X60056685Y39105562D01*
X60056685Y39105562D02*
X60009066Y39057943D01*
X59151923Y39153181D02*
X59342399Y39153181D01*
X59342399Y39153181D02*
X59437637Y39105562D01*
X59437637Y39105562D02*
X59485256Y39057943D01*
X59485256Y39057943D02*
X59580494Y38915086D01*
X59580494Y38915086D02*
X59628113Y38724610D01*
X59628113Y38724610D02*
X59628113Y38343658D01*
X59628113Y38343658D02*
X59580494Y38248420D01*
X59580494Y38248420D02*
X59532875Y38200800D01*
X59532875Y38200800D02*
X59437637Y38153181D01*
X59437637Y38153181D02*
X59247161Y38153181D01*
X59247161Y38153181D02*
X59151923Y38200800D01*
X59151923Y38200800D02*
X59104304Y38248420D01*
X59104304Y38248420D02*
X59056685Y38343658D01*
X59056685Y38343658D02*
X59056685Y38581753D01*
X59056685Y38581753D02*
X59104304Y38676991D01*
X59104304Y38676991D02*
X59151923Y38724610D01*
X59151923Y38724610D02*
X59247161Y38772229D01*
X59247161Y38772229D02*
X59437637Y38772229D01*
X59437637Y38772229D02*
X59532875Y38724610D01*
X59532875Y38724610D02*
X59580494Y38676991D01*
X59580494Y38676991D02*
X59628113Y38581753D01*
X51488933Y11797381D02*
X51488933Y11083096D01*
X51488933Y11083096D02*
X51536552Y10940239D01*
X51536552Y10940239D02*
X51631790Y10845000D01*
X51631790Y10845000D02*
X51774647Y10797381D01*
X51774647Y10797381D02*
X51869885Y10797381D01*
X50488933Y10797381D02*
X51060361Y10797381D01*
X50774647Y10797381D02*
X50774647Y11797381D01*
X50774647Y11797381D02*
X50869885Y11654524D01*
X50869885Y11654524D02*
X50965123Y11559286D01*
X50965123Y11559286D02*
X51060361Y11511667D01*
X16427438Y43569743D02*
X16522676Y43617362D01*
X16522676Y43617362D02*
X16617914Y43712600D01*
X16617914Y43712600D02*
X16760771Y43855458D01*
X16760771Y43855458D02*
X16856009Y43903077D01*
X16856009Y43903077D02*
X16951247Y43903077D01*
X16903628Y43664981D02*
X16998866Y43712600D01*
X16998866Y43712600D02*
X17094104Y43807839D01*
X17094104Y43807839D02*
X17141723Y43998315D01*
X17141723Y43998315D02*
X17141723Y44331648D01*
X17141723Y44331648D02*
X17094104Y44522124D01*
X17094104Y44522124D02*
X16998866Y44617362D01*
X16998866Y44617362D02*
X16903628Y44664981D01*
X16903628Y44664981D02*
X16713152Y44664981D01*
X16713152Y44664981D02*
X16617914Y44617362D01*
X16617914Y44617362D02*
X16522676Y44522124D01*
X16522676Y44522124D02*
X16475057Y44331648D01*
X16475057Y44331648D02*
X16475057Y43998315D01*
X16475057Y43998315D02*
X16522676Y43807839D01*
X16522676Y43807839D02*
X16617914Y43712600D01*
X16617914Y43712600D02*
X16713152Y43664981D01*
X16713152Y43664981D02*
X16903628Y43664981D01*
X16094104Y44569743D02*
X16046485Y44617362D01*
X16046485Y44617362D02*
X15951247Y44664981D01*
X15951247Y44664981D02*
X15713152Y44664981D01*
X15713152Y44664981D02*
X15617914Y44617362D01*
X15617914Y44617362D02*
X15570295Y44569743D01*
X15570295Y44569743D02*
X15522676Y44474505D01*
X15522676Y44474505D02*
X15522676Y44379267D01*
X15522676Y44379267D02*
X15570295Y44236410D01*
X15570295Y44236410D02*
X16141723Y43664981D01*
X16141723Y43664981D02*
X15522676Y43664981D01*
X69095857Y28821420D02*
X69143476Y28773800D01*
X69143476Y28773800D02*
X69286333Y28726181D01*
X69286333Y28726181D02*
X69381571Y28726181D01*
X69381571Y28726181D02*
X69524428Y28773800D01*
X69524428Y28773800D02*
X69619666Y28869039D01*
X69619666Y28869039D02*
X69667285Y28964277D01*
X69667285Y28964277D02*
X69714904Y29154753D01*
X69714904Y29154753D02*
X69714904Y29297610D01*
X69714904Y29297610D02*
X69667285Y29488086D01*
X69667285Y29488086D02*
X69619666Y29583324D01*
X69619666Y29583324D02*
X69524428Y29678562D01*
X69524428Y29678562D02*
X69381571Y29726181D01*
X69381571Y29726181D02*
X69286333Y29726181D01*
X69286333Y29726181D02*
X69143476Y29678562D01*
X69143476Y29678562D02*
X69095857Y29630943D01*
X68143476Y28726181D02*
X68714904Y28726181D01*
X68429190Y28726181D02*
X68429190Y29726181D01*
X68429190Y29726181D02*
X68524428Y29583324D01*
X68524428Y29583324D02*
X68619666Y29488086D01*
X68619666Y29488086D02*
X68714904Y29440467D01*
X67810142Y29726181D02*
X67191095Y29726181D01*
X67191095Y29726181D02*
X67524428Y29345229D01*
X67524428Y29345229D02*
X67381571Y29345229D01*
X67381571Y29345229D02*
X67286333Y29297610D01*
X67286333Y29297610D02*
X67238714Y29249991D01*
X67238714Y29249991D02*
X67191095Y29154753D01*
X67191095Y29154753D02*
X67191095Y28916658D01*
X67191095Y28916658D02*
X67238714Y28821420D01*
X67238714Y28821420D02*
X67286333Y28773800D01*
X67286333Y28773800D02*
X67381571Y28726181D01*
X67381571Y28726181D02*
X67667285Y28726181D01*
X67667285Y28726181D02*
X67762523Y28773800D01*
X67762523Y28773800D02*
X67810142Y28821420D01*
X56878457Y39321581D02*
X57211790Y39797772D01*
X57449885Y39321581D02*
X57449885Y40321581D01*
X57449885Y40321581D02*
X57068933Y40321581D01*
X57068933Y40321581D02*
X56973695Y40273962D01*
X56973695Y40273962D02*
X56926076Y40226343D01*
X56926076Y40226343D02*
X56878457Y40131105D01*
X56878457Y40131105D02*
X56878457Y39988248D01*
X56878457Y39988248D02*
X56926076Y39893010D01*
X56926076Y39893010D02*
X56973695Y39845391D01*
X56973695Y39845391D02*
X57068933Y39797772D01*
X57068933Y39797772D02*
X57449885Y39797772D01*
X55926076Y39321581D02*
X56497504Y39321581D01*
X56211790Y39321581D02*
X56211790Y40321581D01*
X56211790Y40321581D02*
X56307028Y40178724D01*
X56307028Y40178724D02*
X56402266Y40083486D01*
X56402266Y40083486D02*
X56497504Y40035867D01*
X55307028Y40321581D02*
X55211790Y40321581D01*
X55211790Y40321581D02*
X55116552Y40273962D01*
X55116552Y40273962D02*
X55068933Y40226343D01*
X55068933Y40226343D02*
X55021314Y40131105D01*
X55021314Y40131105D02*
X54973695Y39940629D01*
X54973695Y39940629D02*
X54973695Y39702534D01*
X54973695Y39702534D02*
X55021314Y39512058D01*
X55021314Y39512058D02*
X55068933Y39416820D01*
X55068933Y39416820D02*
X55116552Y39369200D01*
X55116552Y39369200D02*
X55211790Y39321581D01*
X55211790Y39321581D02*
X55307028Y39321581D01*
X55307028Y39321581D02*
X55402266Y39369200D01*
X55402266Y39369200D02*
X55449885Y39416820D01*
X55449885Y39416820D02*
X55497504Y39512058D01*
X55497504Y39512058D02*
X55545123Y39702534D01*
X55545123Y39702534D02*
X55545123Y39940629D01*
X55545123Y39940629D02*
X55497504Y40131105D01*
X55497504Y40131105D02*
X55449885Y40226343D01*
X55449885Y40226343D02*
X55402266Y40273962D01*
X55402266Y40273962D02*
X55307028Y40321581D01*
X31372980Y17032267D02*
X31420600Y17079886D01*
X31420600Y17079886D02*
X31468219Y17222743D01*
X31468219Y17222743D02*
X31468219Y17317981D01*
X31468219Y17317981D02*
X31420600Y17460838D01*
X31420600Y17460838D02*
X31325361Y17556076D01*
X31325361Y17556076D02*
X31230123Y17603695D01*
X31230123Y17603695D02*
X31039647Y17651314D01*
X31039647Y17651314D02*
X30896790Y17651314D01*
X30896790Y17651314D02*
X30706314Y17603695D01*
X30706314Y17603695D02*
X30611076Y17556076D01*
X30611076Y17556076D02*
X30515838Y17460838D01*
X30515838Y17460838D02*
X30468219Y17317981D01*
X30468219Y17317981D02*
X30468219Y17222743D01*
X30468219Y17222743D02*
X30515838Y17079886D01*
X30515838Y17079886D02*
X30563457Y17032267D01*
X30468219Y16698933D02*
X30468219Y16079886D01*
X30468219Y16079886D02*
X30849171Y16413219D01*
X30849171Y16413219D02*
X30849171Y16270362D01*
X30849171Y16270362D02*
X30896790Y16175124D01*
X30896790Y16175124D02*
X30944409Y16127505D01*
X30944409Y16127505D02*
X31039647Y16079886D01*
X31039647Y16079886D02*
X31277742Y16079886D01*
X31277742Y16079886D02*
X31372980Y16127505D01*
X31372980Y16127505D02*
X31420600Y16175124D01*
X31420600Y16175124D02*
X31468219Y16270362D01*
X31468219Y16270362D02*
X31468219Y16556076D01*
X31468219Y16556076D02*
X31420600Y16651314D01*
X31420600Y16651314D02*
X31372980Y16698933D01*
X66759057Y39473981D02*
X67092390Y39950172D01*
X67330485Y39473981D02*
X67330485Y40473981D01*
X67330485Y40473981D02*
X66949533Y40473981D01*
X66949533Y40473981D02*
X66854295Y40426362D01*
X66854295Y40426362D02*
X66806676Y40378743D01*
X66806676Y40378743D02*
X66759057Y40283505D01*
X66759057Y40283505D02*
X66759057Y40140648D01*
X66759057Y40140648D02*
X66806676Y40045410D01*
X66806676Y40045410D02*
X66854295Y39997791D01*
X66854295Y39997791D02*
X66949533Y39950172D01*
X66949533Y39950172D02*
X67330485Y39950172D01*
X66378104Y40378743D02*
X66330485Y40426362D01*
X66330485Y40426362D02*
X66235247Y40473981D01*
X66235247Y40473981D02*
X65997152Y40473981D01*
X65997152Y40473981D02*
X65901914Y40426362D01*
X65901914Y40426362D02*
X65854295Y40378743D01*
X65854295Y40378743D02*
X65806676Y40283505D01*
X65806676Y40283505D02*
X65806676Y40188267D01*
X65806676Y40188267D02*
X65854295Y40045410D01*
X65854295Y40045410D02*
X66425723Y39473981D01*
X66425723Y39473981D02*
X65806676Y39473981D01*
X65425723Y40378743D02*
X65378104Y40426362D01*
X65378104Y40426362D02*
X65282866Y40473981D01*
X65282866Y40473981D02*
X65044771Y40473981D01*
X65044771Y40473981D02*
X64949533Y40426362D01*
X64949533Y40426362D02*
X64901914Y40378743D01*
X64901914Y40378743D02*
X64854295Y40283505D01*
X64854295Y40283505D02*
X64854295Y40188267D01*
X64854295Y40188267D02*
X64901914Y40045410D01*
X64901914Y40045410D02*
X65473342Y39473981D01*
X65473342Y39473981D02*
X64854295Y39473981D01*
X53328866Y10594181D02*
X53805056Y10594181D01*
X53805056Y10594181D02*
X53805056Y11594181D01*
X52471723Y10594181D02*
X53043151Y10594181D01*
X52757437Y10594181D02*
X52757437Y11594181D01*
X52757437Y11594181D02*
X52852675Y11451324D01*
X52852675Y11451324D02*
X52947913Y11356086D01*
X52947913Y11356086D02*
X53043151Y11308467D01*
X56275266Y40940820D02*
X56322885Y40893200D01*
X56322885Y40893200D02*
X56465742Y40845581D01*
X56465742Y40845581D02*
X56560980Y40845581D01*
X56560980Y40845581D02*
X56703837Y40893200D01*
X56703837Y40893200D02*
X56799075Y40988439D01*
X56799075Y40988439D02*
X56846694Y41083677D01*
X56846694Y41083677D02*
X56894313Y41274153D01*
X56894313Y41274153D02*
X56894313Y41417010D01*
X56894313Y41417010D02*
X56846694Y41607486D01*
X56846694Y41607486D02*
X56799075Y41702724D01*
X56799075Y41702724D02*
X56703837Y41797962D01*
X56703837Y41797962D02*
X56560980Y41845581D01*
X56560980Y41845581D02*
X56465742Y41845581D01*
X56465742Y41845581D02*
X56322885Y41797962D01*
X56322885Y41797962D02*
X56275266Y41750343D01*
X55941932Y41845581D02*
X55275266Y41845581D01*
X55275266Y41845581D02*
X55703837Y40845581D01*
X29101933Y11692381D02*
X29101933Y10978096D01*
X29101933Y10978096D02*
X29149552Y10835239D01*
X29149552Y10835239D02*
X29244790Y10740000D01*
X29244790Y10740000D02*
X29387647Y10692381D01*
X29387647Y10692381D02*
X29482885Y10692381D01*
X28673361Y11597143D02*
X28625742Y11644762D01*
X28625742Y11644762D02*
X28530504Y11692381D01*
X28530504Y11692381D02*
X28292409Y11692381D01*
X28292409Y11692381D02*
X28197171Y11644762D01*
X28197171Y11644762D02*
X28149552Y11597143D01*
X28149552Y11597143D02*
X28101933Y11501905D01*
X28101933Y11501905D02*
X28101933Y11406667D01*
X28101933Y11406667D02*
X28149552Y11263810D01*
X28149552Y11263810D02*
X28720980Y10692381D01*
X28720980Y10692381D02*
X28101933Y10692381D01*
X24118866Y37695981D02*
X24452199Y38172172D01*
X24690294Y37695981D02*
X24690294Y38695981D01*
X24690294Y38695981D02*
X24309342Y38695981D01*
X24309342Y38695981D02*
X24214104Y38648362D01*
X24214104Y38648362D02*
X24166485Y38600743D01*
X24166485Y38600743D02*
X24118866Y38505505D01*
X24118866Y38505505D02*
X24118866Y38362648D01*
X24118866Y38362648D02*
X24166485Y38267410D01*
X24166485Y38267410D02*
X24214104Y38219791D01*
X24214104Y38219791D02*
X24309342Y38172172D01*
X24309342Y38172172D02*
X24690294Y38172172D01*
X23785532Y38695981D02*
X23118866Y38695981D01*
X23118866Y38695981D02*
X23547437Y37695981D01*
X12993666Y38356381D02*
X13326999Y38832572D01*
X13565094Y38356381D02*
X13565094Y39356381D01*
X13565094Y39356381D02*
X13184142Y39356381D01*
X13184142Y39356381D02*
X13088904Y39308762D01*
X13088904Y39308762D02*
X13041285Y39261143D01*
X13041285Y39261143D02*
X12993666Y39165905D01*
X12993666Y39165905D02*
X12993666Y39023048D01*
X12993666Y39023048D02*
X13041285Y38927810D01*
X13041285Y38927810D02*
X13088904Y38880191D01*
X13088904Y38880191D02*
X13184142Y38832572D01*
X13184142Y38832572D02*
X13565094Y38832572D01*
X12136523Y39356381D02*
X12326999Y39356381D01*
X12326999Y39356381D02*
X12422237Y39308762D01*
X12422237Y39308762D02*
X12469856Y39261143D01*
X12469856Y39261143D02*
X12565094Y39118286D01*
X12565094Y39118286D02*
X12612713Y38927810D01*
X12612713Y38927810D02*
X12612713Y38546858D01*
X12612713Y38546858D02*
X12565094Y38451620D01*
X12565094Y38451620D02*
X12517475Y38404000D01*
X12517475Y38404000D02*
X12422237Y38356381D01*
X12422237Y38356381D02*
X12231761Y38356381D01*
X12231761Y38356381D02*
X12136523Y38404000D01*
X12136523Y38404000D02*
X12088904Y38451620D01*
X12088904Y38451620D02*
X12041285Y38546858D01*
X12041285Y38546858D02*
X12041285Y38784953D01*
X12041285Y38784953D02*
X12088904Y38880191D01*
X12088904Y38880191D02*
X12136523Y38927810D01*
X12136523Y38927810D02*
X12231761Y38975429D01*
X12231761Y38975429D02*
X12422237Y38975429D01*
X12422237Y38975429D02*
X12517475Y38927810D01*
X12517475Y38927810D02*
X12565094Y38880191D01*
X12565094Y38880191D02*
X12612713Y38784953D01*
X30163974Y25736164D02*
X30062959Y26308583D01*
X30568035Y26140225D02*
X29860928Y26847331D01*
X29860928Y26847331D02*
X29591554Y26577957D01*
X29591554Y26577957D02*
X29557882Y26476942D01*
X29557882Y26476942D02*
X29557882Y26409599D01*
X29557882Y26409599D02*
X29591554Y26308583D01*
X29591554Y26308583D02*
X29692569Y26207568D01*
X29692569Y26207568D02*
X29793585Y26173896D01*
X29793585Y26173896D02*
X29860928Y26173896D01*
X29860928Y26173896D02*
X29961943Y26207568D01*
X29961943Y26207568D02*
X30231317Y26476942D01*
X29254837Y26106553D02*
X29187493Y26106553D01*
X29187493Y26106553D02*
X29086478Y26072881D01*
X29086478Y26072881D02*
X28918119Y25904522D01*
X28918119Y25904522D02*
X28884447Y25803507D01*
X28884447Y25803507D02*
X28884447Y25736164D01*
X28884447Y25736164D02*
X28918119Y25635148D01*
X28918119Y25635148D02*
X28985463Y25567805D01*
X28985463Y25567805D02*
X29120150Y25500461D01*
X29120150Y25500461D02*
X29928272Y25500461D01*
X29928272Y25500461D02*
X29490539Y25062729D01*
X28817104Y24389293D02*
X29221165Y24793354D01*
X29019134Y24591324D02*
X28312027Y25298431D01*
X28312027Y25298431D02*
X28480386Y25264759D01*
X28480386Y25264759D02*
X28615073Y25264759D01*
X28615073Y25264759D02*
X28716088Y25298431D01*
X65281133Y11543381D02*
X65281133Y10829096D01*
X65281133Y10829096D02*
X65328752Y10686239D01*
X65328752Y10686239D02*
X65423990Y10591000D01*
X65423990Y10591000D02*
X65566847Y10543381D01*
X65566847Y10543381D02*
X65662085Y10543381D01*
X64376371Y11543381D02*
X64566847Y11543381D01*
X64566847Y11543381D02*
X64662085Y11495762D01*
X64662085Y11495762D02*
X64709704Y11448143D01*
X64709704Y11448143D02*
X64804942Y11305286D01*
X64804942Y11305286D02*
X64852561Y11114810D01*
X64852561Y11114810D02*
X64852561Y10733858D01*
X64852561Y10733858D02*
X64804942Y10638620D01*
X64804942Y10638620D02*
X64757323Y10591000D01*
X64757323Y10591000D02*
X64662085Y10543381D01*
X64662085Y10543381D02*
X64471609Y10543381D01*
X64471609Y10543381D02*
X64376371Y10591000D01*
X64376371Y10591000D02*
X64328752Y10638620D01*
X64328752Y10638620D02*
X64281133Y10733858D01*
X64281133Y10733858D02*
X64281133Y10971953D01*
X64281133Y10971953D02*
X64328752Y11067191D01*
X64328752Y11067191D02*
X64376371Y11114810D01*
X64376371Y11114810D02*
X64471609Y11162429D01*
X64471609Y11162429D02*
X64662085Y11162429D01*
X64662085Y11162429D02*
X64757323Y11114810D01*
X64757323Y11114810D02*
X64804942Y11067191D01*
X64804942Y11067191D02*
X64852561Y10971953D01*
X35415733Y12958381D02*
X35415733Y12244096D01*
X35415733Y12244096D02*
X35463352Y12101239D01*
X35463352Y12101239D02*
X35558590Y12006000D01*
X35558590Y12006000D02*
X35701447Y11958381D01*
X35701447Y11958381D02*
X35796685Y11958381D01*
X34510971Y12625048D02*
X34510971Y11958381D01*
X34749066Y13006000D02*
X34987161Y12291715D01*
X34987161Y12291715D02*
X34368114Y12291715D01*
X50416619Y18899095D02*
X49416619Y18899095D01*
X49416619Y18899095D02*
X49416619Y18661000D01*
X49416619Y18661000D02*
X49464238Y18518143D01*
X49464238Y18518143D02*
X49559476Y18422905D01*
X49559476Y18422905D02*
X49654714Y18375286D01*
X49654714Y18375286D02*
X49845190Y18327667D01*
X49845190Y18327667D02*
X49988047Y18327667D01*
X49988047Y18327667D02*
X50178523Y18375286D01*
X50178523Y18375286D02*
X50273761Y18422905D01*
X50273761Y18422905D02*
X50369000Y18518143D01*
X50369000Y18518143D02*
X50416619Y18661000D01*
X50416619Y18661000D02*
X50416619Y18899095D01*
X50416619Y17375286D02*
X50416619Y17946714D01*
X50416619Y17661000D02*
X49416619Y17661000D01*
X49416619Y17661000D02*
X49559476Y17756238D01*
X49559476Y17756238D02*
X49654714Y17851476D01*
X49654714Y17851476D02*
X49702333Y17946714D01*
D11*
X9448667Y25396000D02*
X9334381Y25357905D01*
X9334381Y25357905D02*
X9143905Y25357905D01*
X9143905Y25357905D02*
X9067714Y25396000D01*
X9067714Y25396000D02*
X9029619Y25434096D01*
X9029619Y25434096D02*
X8991524Y25510286D01*
X8991524Y25510286D02*
X8991524Y25586477D01*
X8991524Y25586477D02*
X9029619Y25662667D01*
X9029619Y25662667D02*
X9067714Y25700762D01*
X9067714Y25700762D02*
X9143905Y25738858D01*
X9143905Y25738858D02*
X9296286Y25776953D01*
X9296286Y25776953D02*
X9372476Y25815048D01*
X9372476Y25815048D02*
X9410571Y25853143D01*
X9410571Y25853143D02*
X9448667Y25929334D01*
X9448667Y25929334D02*
X9448667Y26005524D01*
X9448667Y26005524D02*
X9410571Y26081715D01*
X9410571Y26081715D02*
X9372476Y26119810D01*
X9372476Y26119810D02*
X9296286Y26157905D01*
X9296286Y26157905D02*
X9105809Y26157905D01*
X9105809Y26157905D02*
X8991524Y26119810D01*
X8724857Y26157905D02*
X8534381Y25357905D01*
X8534381Y25357905D02*
X8382000Y25929334D01*
X8382000Y25929334D02*
X8229619Y25357905D01*
X8229619Y25357905D02*
X8039143Y26157905D01*
X7772476Y26081715D02*
X7734380Y26119810D01*
X7734380Y26119810D02*
X7658190Y26157905D01*
X7658190Y26157905D02*
X7467714Y26157905D01*
X7467714Y26157905D02*
X7391523Y26119810D01*
X7391523Y26119810D02*
X7353428Y26081715D01*
X7353428Y26081715D02*
X7315333Y26005524D01*
X7315333Y26005524D02*
X7315333Y25929334D01*
X7315333Y25929334D02*
X7353428Y25815048D01*
X7353428Y25815048D02*
X7810571Y25357905D01*
X7810571Y25357905D02*
X7315333Y25357905D01*
D10*
X59738419Y17457658D02*
X59262228Y17790991D01*
X59738419Y18029086D02*
X58738419Y18029086D01*
X58738419Y18029086D02*
X58738419Y17648134D01*
X58738419Y17648134D02*
X58786038Y17552896D01*
X58786038Y17552896D02*
X58833657Y17505277D01*
X58833657Y17505277D02*
X58928895Y17457658D01*
X58928895Y17457658D02*
X59071752Y17457658D01*
X59071752Y17457658D02*
X59166990Y17505277D01*
X59166990Y17505277D02*
X59214609Y17552896D01*
X59214609Y17552896D02*
X59262228Y17648134D01*
X59262228Y17648134D02*
X59262228Y18029086D01*
X58833657Y17076705D02*
X58786038Y17029086D01*
X58786038Y17029086D02*
X58738419Y16933848D01*
X58738419Y16933848D02*
X58738419Y16695753D01*
X58738419Y16695753D02*
X58786038Y16600515D01*
X58786038Y16600515D02*
X58833657Y16552896D01*
X58833657Y16552896D02*
X58928895Y16505277D01*
X58928895Y16505277D02*
X59024133Y16505277D01*
X59024133Y16505277D02*
X59166990Y16552896D01*
X59166990Y16552896D02*
X59738419Y17124324D01*
X59738419Y17124324D02*
X59738419Y16505277D01*
X59166990Y15933848D02*
X59119371Y16029086D01*
X59119371Y16029086D02*
X59071752Y16076705D01*
X59071752Y16076705D02*
X58976514Y16124324D01*
X58976514Y16124324D02*
X58928895Y16124324D01*
X58928895Y16124324D02*
X58833657Y16076705D01*
X58833657Y16076705D02*
X58786038Y16029086D01*
X58786038Y16029086D02*
X58738419Y15933848D01*
X58738419Y15933848D02*
X58738419Y15743372D01*
X58738419Y15743372D02*
X58786038Y15648134D01*
X58786038Y15648134D02*
X58833657Y15600515D01*
X58833657Y15600515D02*
X58928895Y15552896D01*
X58928895Y15552896D02*
X58976514Y15552896D01*
X58976514Y15552896D02*
X59071752Y15600515D01*
X59071752Y15600515D02*
X59119371Y15648134D01*
X59119371Y15648134D02*
X59166990Y15743372D01*
X59166990Y15743372D02*
X59166990Y15933848D01*
X59166990Y15933848D02*
X59214609Y16029086D01*
X59214609Y16029086D02*
X59262228Y16076705D01*
X59262228Y16076705D02*
X59357466Y16124324D01*
X59357466Y16124324D02*
X59547942Y16124324D01*
X59547942Y16124324D02*
X59643180Y16076705D01*
X59643180Y16076705D02*
X59690800Y16029086D01*
X59690800Y16029086D02*
X59738419Y15933848D01*
X59738419Y15933848D02*
X59738419Y15743372D01*
X59738419Y15743372D02*
X59690800Y15648134D01*
X59690800Y15648134D02*
X59643180Y15600515D01*
X59643180Y15600515D02*
X59547942Y15552896D01*
X59547942Y15552896D02*
X59357466Y15552896D01*
X59357466Y15552896D02*
X59262228Y15600515D01*
X59262228Y15600515D02*
X59214609Y15648134D01*
X59214609Y15648134D02*
X59166990Y15743372D01*
D11*
X9448667Y30044200D02*
X9334381Y30006105D01*
X9334381Y30006105D02*
X9143905Y30006105D01*
X9143905Y30006105D02*
X9067714Y30044200D01*
X9067714Y30044200D02*
X9029619Y30082296D01*
X9029619Y30082296D02*
X8991524Y30158486D01*
X8991524Y30158486D02*
X8991524Y30234677D01*
X8991524Y30234677D02*
X9029619Y30310867D01*
X9029619Y30310867D02*
X9067714Y30348962D01*
X9067714Y30348962D02*
X9143905Y30387058D01*
X9143905Y30387058D02*
X9296286Y30425153D01*
X9296286Y30425153D02*
X9372476Y30463248D01*
X9372476Y30463248D02*
X9410571Y30501343D01*
X9410571Y30501343D02*
X9448667Y30577534D01*
X9448667Y30577534D02*
X9448667Y30653724D01*
X9448667Y30653724D02*
X9410571Y30729915D01*
X9410571Y30729915D02*
X9372476Y30768010D01*
X9372476Y30768010D02*
X9296286Y30806105D01*
X9296286Y30806105D02*
X9105809Y30806105D01*
X9105809Y30806105D02*
X8991524Y30768010D01*
X8724857Y30806105D02*
X8534381Y30006105D01*
X8534381Y30006105D02*
X8382000Y30577534D01*
X8382000Y30577534D02*
X8229619Y30006105D01*
X8229619Y30006105D02*
X8039143Y30806105D01*
X7315333Y30006105D02*
X7772476Y30006105D01*
X7543904Y30006105D02*
X7543904Y30806105D01*
X7543904Y30806105D02*
X7620095Y30691820D01*
X7620095Y30691820D02*
X7696285Y30615629D01*
X7696285Y30615629D02*
X7772476Y30577534D01*
D10*
X27666563Y21906026D02*
X28238982Y22007041D01*
X28070624Y21501965D02*
X28777730Y22209072D01*
X28777730Y22209072D02*
X28508356Y22478446D01*
X28508356Y22478446D02*
X28407341Y22512118D01*
X28407341Y22512118D02*
X28339998Y22512118D01*
X28339998Y22512118D02*
X28238982Y22478446D01*
X28238982Y22478446D02*
X28137967Y22377431D01*
X28137967Y22377431D02*
X28104295Y22276415D01*
X28104295Y22276415D02*
X28104295Y22209072D01*
X28104295Y22209072D02*
X28137967Y22108057D01*
X28137967Y22108057D02*
X28407341Y21838683D01*
X28036952Y22815163D02*
X28036952Y22882507D01*
X28036952Y22882507D02*
X28003280Y22983522D01*
X28003280Y22983522D02*
X27834921Y23151881D01*
X27834921Y23151881D02*
X27733906Y23185553D01*
X27733906Y23185553D02*
X27666563Y23185553D01*
X27666563Y23185553D02*
X27565547Y23151881D01*
X27565547Y23151881D02*
X27498204Y23084537D01*
X27498204Y23084537D02*
X27430860Y22949850D01*
X27430860Y22949850D02*
X27430860Y22141728D01*
X27430860Y22141728D02*
X26993128Y22579461D01*
X27262501Y23724301D02*
X27195158Y23791644D01*
X27195158Y23791644D02*
X27094143Y23825316D01*
X27094143Y23825316D02*
X27026799Y23825316D01*
X27026799Y23825316D02*
X26925784Y23791644D01*
X26925784Y23791644D02*
X26757425Y23690629D01*
X26757425Y23690629D02*
X26589066Y23522270D01*
X26589066Y23522270D02*
X26488051Y23353912D01*
X26488051Y23353912D02*
X26454379Y23252896D01*
X26454379Y23252896D02*
X26454379Y23185553D01*
X26454379Y23185553D02*
X26488051Y23084538D01*
X26488051Y23084538D02*
X26555395Y23017194D01*
X26555395Y23017194D02*
X26656410Y22983522D01*
X26656410Y22983522D02*
X26723753Y22983522D01*
X26723753Y22983522D02*
X26824769Y23017194D01*
X26824769Y23017194D02*
X26993127Y23118209D01*
X26993127Y23118209D02*
X27161486Y23286568D01*
X27161486Y23286568D02*
X27262501Y23454927D01*
X27262501Y23454927D02*
X27296173Y23555942D01*
X27296173Y23555942D02*
X27296173Y23623286D01*
X27296173Y23623286D02*
X27262501Y23724301D01*
X46657419Y16854467D02*
X46181228Y17187800D01*
X46657419Y17425895D02*
X45657419Y17425895D01*
X45657419Y17425895D02*
X45657419Y17044943D01*
X45657419Y17044943D02*
X45705038Y16949705D01*
X45705038Y16949705D02*
X45752657Y16902086D01*
X45752657Y16902086D02*
X45847895Y16854467D01*
X45847895Y16854467D02*
X45990752Y16854467D01*
X45990752Y16854467D02*
X46085990Y16902086D01*
X46085990Y16902086D02*
X46133609Y16949705D01*
X46133609Y16949705D02*
X46181228Y17044943D01*
X46181228Y17044943D02*
X46181228Y17425895D01*
X45990752Y15997324D02*
X46657419Y15997324D01*
X45609800Y16235419D02*
X46324085Y16473514D01*
X46324085Y16473514D02*
X46324085Y15854467D01*
X25075763Y16146326D02*
X25648182Y16247341D01*
X25479824Y15742265D02*
X26186930Y16449372D01*
X26186930Y16449372D02*
X25917556Y16718746D01*
X25917556Y16718746D02*
X25816541Y16752418D01*
X25816541Y16752418D02*
X25749198Y16752418D01*
X25749198Y16752418D02*
X25648182Y16718746D01*
X25648182Y16718746D02*
X25547167Y16617731D01*
X25547167Y16617731D02*
X25513495Y16516715D01*
X25513495Y16516715D02*
X25513495Y16449372D01*
X25513495Y16449372D02*
X25547167Y16348357D01*
X25547167Y16348357D02*
X25816541Y16078983D01*
X24402328Y16819761D02*
X24806389Y16415700D01*
X24604358Y16617731D02*
X25311465Y17324837D01*
X25311465Y17324837D02*
X25277793Y17156479D01*
X25277793Y17156479D02*
X25277793Y17021792D01*
X25277793Y17021792D02*
X25311465Y16920776D01*
X24402327Y17627883D02*
X24503343Y17594212D01*
X24503343Y17594212D02*
X24570686Y17594212D01*
X24570686Y17594212D02*
X24671701Y17627883D01*
X24671701Y17627883D02*
X24705373Y17661555D01*
X24705373Y17661555D02*
X24739045Y17762570D01*
X24739045Y17762570D02*
X24739045Y17829914D01*
X24739045Y17829914D02*
X24705373Y17930929D01*
X24705373Y17930929D02*
X24570686Y18065616D01*
X24570686Y18065616D02*
X24469671Y18099288D01*
X24469671Y18099288D02*
X24402327Y18099288D01*
X24402327Y18099288D02*
X24301312Y18065616D01*
X24301312Y18065616D02*
X24267640Y18031944D01*
X24267640Y18031944D02*
X24233969Y17930929D01*
X24233969Y17930929D02*
X24233969Y17863586D01*
X24233969Y17863586D02*
X24267640Y17762570D01*
X24267640Y17762570D02*
X24402327Y17627883D01*
X24402327Y17627883D02*
X24435999Y17526868D01*
X24435999Y17526868D02*
X24435999Y17459525D01*
X24435999Y17459525D02*
X24402327Y17358509D01*
X24402327Y17358509D02*
X24267640Y17223822D01*
X24267640Y17223822D02*
X24166625Y17190151D01*
X24166625Y17190151D02*
X24099282Y17190151D01*
X24099282Y17190151D02*
X23998266Y17223822D01*
X23998266Y17223822D02*
X23863579Y17358509D01*
X23863579Y17358509D02*
X23829908Y17459525D01*
X23829908Y17459525D02*
X23829908Y17526868D01*
X23829908Y17526868D02*
X23863579Y17627883D01*
X23863579Y17627883D02*
X23998266Y17762570D01*
X23998266Y17762570D02*
X24099282Y17796242D01*
X24099282Y17796242D02*
X24166625Y17796242D01*
X24166625Y17796242D02*
X24267640Y17762570D01*
X16543257Y32082581D02*
X16876590Y32558772D01*
X17114685Y32082581D02*
X17114685Y33082581D01*
X17114685Y33082581D02*
X16733733Y33082581D01*
X16733733Y33082581D02*
X16638495Y33034962D01*
X16638495Y33034962D02*
X16590876Y32987343D01*
X16590876Y32987343D02*
X16543257Y32892105D01*
X16543257Y32892105D02*
X16543257Y32749248D01*
X16543257Y32749248D02*
X16590876Y32654010D01*
X16590876Y32654010D02*
X16638495Y32606391D01*
X16638495Y32606391D02*
X16733733Y32558772D01*
X16733733Y32558772D02*
X17114685Y32558772D01*
X15590876Y32082581D02*
X16162304Y32082581D01*
X15876590Y32082581D02*
X15876590Y33082581D01*
X15876590Y33082581D02*
X15971828Y32939724D01*
X15971828Y32939724D02*
X16067066Y32844486D01*
X16067066Y32844486D02*
X16162304Y32796867D01*
X14686114Y33082581D02*
X15162304Y33082581D01*
X15162304Y33082581D02*
X15209923Y32606391D01*
X15209923Y32606391D02*
X15162304Y32654010D01*
X15162304Y32654010D02*
X15067066Y32701629D01*
X15067066Y32701629D02*
X14828971Y32701629D01*
X14828971Y32701629D02*
X14733733Y32654010D01*
X14733733Y32654010D02*
X14686114Y32606391D01*
X14686114Y32606391D02*
X14638495Y32511153D01*
X14638495Y32511153D02*
X14638495Y32273058D01*
X14638495Y32273058D02*
X14686114Y32177820D01*
X14686114Y32177820D02*
X14733733Y32130200D01*
X14733733Y32130200D02*
X14828971Y32082581D01*
X14828971Y32082581D02*
X15067066Y32082581D01*
X15067066Y32082581D02*
X15162304Y32130200D01*
X15162304Y32130200D02*
X15209923Y32177820D01*
X28893419Y42486105D02*
X28893419Y41914677D01*
X29893419Y42200391D02*
X28893419Y42200391D01*
X29893419Y41581343D02*
X28893419Y41581343D01*
X28893419Y41581343D02*
X28893419Y41200391D01*
X28893419Y41200391D02*
X28941038Y41105153D01*
X28941038Y41105153D02*
X28988657Y41057534D01*
X28988657Y41057534D02*
X29083895Y41009915D01*
X29083895Y41009915D02*
X29226752Y41009915D01*
X29226752Y41009915D02*
X29321990Y41057534D01*
X29321990Y41057534D02*
X29369609Y41105153D01*
X29369609Y41105153D02*
X29417228Y41200391D01*
X29417228Y41200391D02*
X29417228Y41581343D01*
X28988657Y40628962D02*
X28941038Y40581343D01*
X28941038Y40581343D02*
X28893419Y40486105D01*
X28893419Y40486105D02*
X28893419Y40248010D01*
X28893419Y40248010D02*
X28941038Y40152772D01*
X28941038Y40152772D02*
X28988657Y40105153D01*
X28988657Y40105153D02*
X29083895Y40057534D01*
X29083895Y40057534D02*
X29179133Y40057534D01*
X29179133Y40057534D02*
X29321990Y40105153D01*
X29321990Y40105153D02*
X29893419Y40676581D01*
X29893419Y40676581D02*
X29893419Y40057534D01*
X22891363Y16216426D02*
X23463782Y16317441D01*
X23295424Y15812365D02*
X24002530Y16519472D01*
X24002530Y16519472D02*
X23733156Y16788846D01*
X23733156Y16788846D02*
X23632141Y16822518D01*
X23632141Y16822518D02*
X23564798Y16822518D01*
X23564798Y16822518D02*
X23463782Y16788846D01*
X23463782Y16788846D02*
X23362767Y16687831D01*
X23362767Y16687831D02*
X23329095Y16586815D01*
X23329095Y16586815D02*
X23329095Y16519472D01*
X23329095Y16519472D02*
X23362767Y16418457D01*
X23362767Y16418457D02*
X23632141Y16149083D01*
X22217928Y16889861D02*
X22621989Y16485800D01*
X22419958Y16687831D02*
X23127065Y17394937D01*
X23127065Y17394937D02*
X23093393Y17226579D01*
X23093393Y17226579D02*
X23093393Y17091892D01*
X23093393Y17091892D02*
X23127065Y16990876D01*
X21881210Y17226579D02*
X21746523Y17361266D01*
X21746523Y17361266D02*
X21712851Y17462281D01*
X21712851Y17462281D02*
X21712851Y17529625D01*
X21712851Y17529625D02*
X21746523Y17697983D01*
X21746523Y17697983D02*
X21847538Y17866342D01*
X21847538Y17866342D02*
X22116912Y18135716D01*
X22116912Y18135716D02*
X22217927Y18169388D01*
X22217927Y18169388D02*
X22285271Y18169388D01*
X22285271Y18169388D02*
X22386286Y18135716D01*
X22386286Y18135716D02*
X22520973Y18001029D01*
X22520973Y18001029D02*
X22554645Y17900014D01*
X22554645Y17900014D02*
X22554645Y17832670D01*
X22554645Y17832670D02*
X22520973Y17731655D01*
X22520973Y17731655D02*
X22352614Y17563296D01*
X22352614Y17563296D02*
X22251599Y17529625D01*
X22251599Y17529625D02*
X22184256Y17529625D01*
X22184256Y17529625D02*
X22083240Y17563296D01*
X22083240Y17563296D02*
X21948553Y17697983D01*
X21948553Y17697983D02*
X21914882Y17798999D01*
X21914882Y17798999D02*
X21914882Y17866342D01*
X21914882Y17866342D02*
X21948553Y17967357D01*
X26658219Y38498305D02*
X26658219Y37926877D01*
X27658219Y38212591D02*
X26658219Y38212591D01*
X27658219Y37593543D02*
X26658219Y37593543D01*
X26658219Y37593543D02*
X26658219Y37212591D01*
X26658219Y37212591D02*
X26705838Y37117353D01*
X26705838Y37117353D02*
X26753457Y37069734D01*
X26753457Y37069734D02*
X26848695Y37022115D01*
X26848695Y37022115D02*
X26991552Y37022115D01*
X26991552Y37022115D02*
X27086790Y37069734D01*
X27086790Y37069734D02*
X27134409Y37117353D01*
X27134409Y37117353D02*
X27182028Y37212591D01*
X27182028Y37212591D02*
X27182028Y37593543D01*
X27658219Y36069734D02*
X27658219Y36641162D01*
X27658219Y36355448D02*
X26658219Y36355448D01*
X26658219Y36355448D02*
X26801076Y36450686D01*
X26801076Y36450686D02*
X26896314Y36545924D01*
X26896314Y36545924D02*
X26943933Y36641162D01*
X63980219Y39301658D02*
X63504028Y39634991D01*
X63980219Y39873086D02*
X62980219Y39873086D01*
X62980219Y39873086D02*
X62980219Y39492134D01*
X62980219Y39492134D02*
X63027838Y39396896D01*
X63027838Y39396896D02*
X63075457Y39349277D01*
X63075457Y39349277D02*
X63170695Y39301658D01*
X63170695Y39301658D02*
X63313552Y39301658D01*
X63313552Y39301658D02*
X63408790Y39349277D01*
X63408790Y39349277D02*
X63456409Y39396896D01*
X63456409Y39396896D02*
X63504028Y39492134D01*
X63504028Y39492134D02*
X63504028Y39873086D01*
X63075457Y38920705D02*
X63027838Y38873086D01*
X63027838Y38873086D02*
X62980219Y38777848D01*
X62980219Y38777848D02*
X62980219Y38539753D01*
X62980219Y38539753D02*
X63027838Y38444515D01*
X63027838Y38444515D02*
X63075457Y38396896D01*
X63075457Y38396896D02*
X63170695Y38349277D01*
X63170695Y38349277D02*
X63265933Y38349277D01*
X63265933Y38349277D02*
X63408790Y38396896D01*
X63408790Y38396896D02*
X63980219Y38968324D01*
X63980219Y38968324D02*
X63980219Y38349277D01*
X62980219Y38015943D02*
X62980219Y37396896D01*
X62980219Y37396896D02*
X63361171Y37730229D01*
X63361171Y37730229D02*
X63361171Y37587372D01*
X63361171Y37587372D02*
X63408790Y37492134D01*
X63408790Y37492134D02*
X63456409Y37444515D01*
X63456409Y37444515D02*
X63551647Y37396896D01*
X63551647Y37396896D02*
X63789742Y37396896D01*
X63789742Y37396896D02*
X63884980Y37444515D01*
X63884980Y37444515D02*
X63932600Y37492134D01*
X63932600Y37492134D02*
X63980219Y37587372D01*
X63980219Y37587372D02*
X63980219Y37873086D01*
X63980219Y37873086D02*
X63932600Y37968324D01*
X63932600Y37968324D02*
X63884980Y38015943D01*
X34590990Y22237172D02*
X34590990Y21760981D01*
X34924323Y22760981D02*
X34590990Y22237172D01*
X34590990Y22237172D02*
X34257657Y22760981D01*
X33400514Y21760981D02*
X33971942Y21760981D01*
X33686228Y21760981D02*
X33686228Y22760981D01*
X33686228Y22760981D02*
X33781466Y22618124D01*
X33781466Y22618124D02*
X33876704Y22522886D01*
X33876704Y22522886D02*
X33971942Y22475267D01*
X40152533Y13803981D02*
X40152533Y13089696D01*
X40152533Y13089696D02*
X40200152Y12946839D01*
X40200152Y12946839D02*
X40295390Y12851600D01*
X40295390Y12851600D02*
X40438247Y12803981D01*
X40438247Y12803981D02*
X40533485Y12803981D01*
X39676342Y12803981D02*
X39676342Y13803981D01*
X39676342Y13803981D02*
X39295390Y13803981D01*
X39295390Y13803981D02*
X39200152Y13756362D01*
X39200152Y13756362D02*
X39152533Y13708743D01*
X39152533Y13708743D02*
X39104914Y13613505D01*
X39104914Y13613505D02*
X39104914Y13470648D01*
X39104914Y13470648D02*
X39152533Y13375410D01*
X39152533Y13375410D02*
X39200152Y13327791D01*
X39200152Y13327791D02*
X39295390Y13280172D01*
X39295390Y13280172D02*
X39676342Y13280172D01*
X38152533Y12803981D02*
X38723961Y12803981D01*
X38438247Y12803981D02*
X38438247Y13803981D01*
X38438247Y13803981D02*
X38533485Y13661124D01*
X38533485Y13661124D02*
X38628723Y13565886D01*
X38628723Y13565886D02*
X38723961Y13518267D01*
X66733657Y41067820D02*
X66781276Y41020200D01*
X66781276Y41020200D02*
X66924133Y40972581D01*
X66924133Y40972581D02*
X67019371Y40972581D01*
X67019371Y40972581D02*
X67162228Y41020200D01*
X67162228Y41020200D02*
X67257466Y41115439D01*
X67257466Y41115439D02*
X67305085Y41210677D01*
X67305085Y41210677D02*
X67352704Y41401153D01*
X67352704Y41401153D02*
X67352704Y41544010D01*
X67352704Y41544010D02*
X67305085Y41734486D01*
X67305085Y41734486D02*
X67257466Y41829724D01*
X67257466Y41829724D02*
X67162228Y41924962D01*
X67162228Y41924962D02*
X67019371Y41972581D01*
X67019371Y41972581D02*
X66924133Y41972581D01*
X66924133Y41972581D02*
X66781276Y41924962D01*
X66781276Y41924962D02*
X66733657Y41877343D01*
X65781276Y40972581D02*
X66352704Y40972581D01*
X66066990Y40972581D02*
X66066990Y41972581D01*
X66066990Y41972581D02*
X66162228Y41829724D01*
X66162228Y41829724D02*
X66257466Y41734486D01*
X66257466Y41734486D02*
X66352704Y41686867D01*
X64876514Y41972581D02*
X65352704Y41972581D01*
X65352704Y41972581D02*
X65400323Y41496391D01*
X65400323Y41496391D02*
X65352704Y41544010D01*
X65352704Y41544010D02*
X65257466Y41591629D01*
X65257466Y41591629D02*
X65019371Y41591629D01*
X65019371Y41591629D02*
X64924133Y41544010D01*
X64924133Y41544010D02*
X64876514Y41496391D01*
X64876514Y41496391D02*
X64828895Y41401153D01*
X64828895Y41401153D02*
X64828895Y41163058D01*
X64828895Y41163058D02*
X64876514Y41067820D01*
X64876514Y41067820D02*
X64924133Y41020200D01*
X64924133Y41020200D02*
X65019371Y40972581D01*
X65019371Y40972581D02*
X65257466Y40972581D01*
X65257466Y40972581D02*
X65352704Y41020200D01*
X65352704Y41020200D02*
X65400323Y41067820D01*
X53862266Y16023420D02*
X53909885Y15975800D01*
X53909885Y15975800D02*
X54052742Y15928181D01*
X54052742Y15928181D02*
X54147980Y15928181D01*
X54147980Y15928181D02*
X54290837Y15975800D01*
X54290837Y15975800D02*
X54386075Y16071039D01*
X54386075Y16071039D02*
X54433694Y16166277D01*
X54433694Y16166277D02*
X54481313Y16356753D01*
X54481313Y16356753D02*
X54481313Y16499610D01*
X54481313Y16499610D02*
X54433694Y16690086D01*
X54433694Y16690086D02*
X54386075Y16785324D01*
X54386075Y16785324D02*
X54290837Y16880562D01*
X54290837Y16880562D02*
X54147980Y16928181D01*
X54147980Y16928181D02*
X54052742Y16928181D01*
X54052742Y16928181D02*
X53909885Y16880562D01*
X53909885Y16880562D02*
X53862266Y16832943D01*
X52909885Y15928181D02*
X53481313Y15928181D01*
X53195599Y15928181D02*
X53195599Y16928181D01*
X53195599Y16928181D02*
X53290837Y16785324D01*
X53290837Y16785324D02*
X53386075Y16690086D01*
X53386075Y16690086D02*
X53481313Y16642467D01*
X12587266Y24156781D02*
X12920599Y24632972D01*
X13158694Y24156781D02*
X13158694Y25156781D01*
X13158694Y25156781D02*
X12777742Y25156781D01*
X12777742Y25156781D02*
X12682504Y25109162D01*
X12682504Y25109162D02*
X12634885Y25061543D01*
X12634885Y25061543D02*
X12587266Y24966305D01*
X12587266Y24966305D02*
X12587266Y24823448D01*
X12587266Y24823448D02*
X12634885Y24728210D01*
X12634885Y24728210D02*
X12682504Y24680591D01*
X12682504Y24680591D02*
X12777742Y24632972D01*
X12777742Y24632972D02*
X13158694Y24632972D01*
X12253932Y25156781D02*
X11634885Y25156781D01*
X11634885Y25156781D02*
X11968218Y24775829D01*
X11968218Y24775829D02*
X11825361Y24775829D01*
X11825361Y24775829D02*
X11730123Y24728210D01*
X11730123Y24728210D02*
X11682504Y24680591D01*
X11682504Y24680591D02*
X11634885Y24585353D01*
X11634885Y24585353D02*
X11634885Y24347258D01*
X11634885Y24347258D02*
X11682504Y24252020D01*
X11682504Y24252020D02*
X11730123Y24204400D01*
X11730123Y24204400D02*
X11825361Y24156781D01*
X11825361Y24156781D02*
X12111075Y24156781D01*
X12111075Y24156781D02*
X12206313Y24204400D01*
X12206313Y24204400D02*
X12253932Y24252020D01*
X63650019Y17559258D02*
X63173828Y17892591D01*
X63650019Y18130686D02*
X62650019Y18130686D01*
X62650019Y18130686D02*
X62650019Y17749734D01*
X62650019Y17749734D02*
X62697638Y17654496D01*
X62697638Y17654496D02*
X62745257Y17606877D01*
X62745257Y17606877D02*
X62840495Y17559258D01*
X62840495Y17559258D02*
X62983352Y17559258D01*
X62983352Y17559258D02*
X63078590Y17606877D01*
X63078590Y17606877D02*
X63126209Y17654496D01*
X63126209Y17654496D02*
X63173828Y17749734D01*
X63173828Y17749734D02*
X63173828Y18130686D01*
X62745257Y17178305D02*
X62697638Y17130686D01*
X62697638Y17130686D02*
X62650019Y17035448D01*
X62650019Y17035448D02*
X62650019Y16797353D01*
X62650019Y16797353D02*
X62697638Y16702115D01*
X62697638Y16702115D02*
X62745257Y16654496D01*
X62745257Y16654496D02*
X62840495Y16606877D01*
X62840495Y16606877D02*
X62935733Y16606877D01*
X62935733Y16606877D02*
X63078590Y16654496D01*
X63078590Y16654496D02*
X63650019Y17225924D01*
X63650019Y17225924D02*
X63650019Y16606877D01*
X62650019Y15702115D02*
X62650019Y16178305D01*
X62650019Y16178305D02*
X63126209Y16225924D01*
X63126209Y16225924D02*
X63078590Y16178305D01*
X63078590Y16178305D02*
X63030971Y16083067D01*
X63030971Y16083067D02*
X63030971Y15844972D01*
X63030971Y15844972D02*
X63078590Y15749734D01*
X63078590Y15749734D02*
X63126209Y15702115D01*
X63126209Y15702115D02*
X63221447Y15654496D01*
X63221447Y15654496D02*
X63459542Y15654496D01*
X63459542Y15654496D02*
X63554780Y15702115D01*
X63554780Y15702115D02*
X63602400Y15749734D01*
X63602400Y15749734D02*
X63650019Y15844972D01*
X63650019Y15844972D02*
X63650019Y16083067D01*
X63650019Y16083067D02*
X63602400Y16178305D01*
X63602400Y16178305D02*
X63554780Y16225924D01*
X71796019Y34151867D02*
X71796019Y34628057D01*
X71796019Y34628057D02*
X70796019Y34628057D01*
X70796019Y33913771D02*
X70796019Y33294724D01*
X70796019Y33294724D02*
X71176971Y33628057D01*
X71176971Y33628057D02*
X71176971Y33485200D01*
X71176971Y33485200D02*
X71224590Y33389962D01*
X71224590Y33389962D02*
X71272209Y33342343D01*
X71272209Y33342343D02*
X71367447Y33294724D01*
X71367447Y33294724D02*
X71605542Y33294724D01*
X71605542Y33294724D02*
X71700780Y33342343D01*
X71700780Y33342343D02*
X71748400Y33389962D01*
X71748400Y33389962D02*
X71796019Y33485200D01*
X71796019Y33485200D02*
X71796019Y33770914D01*
X71796019Y33770914D02*
X71748400Y33866152D01*
X71748400Y33866152D02*
X71700780Y33913771D01*
X61618019Y17483058D02*
X61141828Y17816391D01*
X61618019Y18054486D02*
X60618019Y18054486D01*
X60618019Y18054486D02*
X60618019Y17673534D01*
X60618019Y17673534D02*
X60665638Y17578296D01*
X60665638Y17578296D02*
X60713257Y17530677D01*
X60713257Y17530677D02*
X60808495Y17483058D01*
X60808495Y17483058D02*
X60951352Y17483058D01*
X60951352Y17483058D02*
X61046590Y17530677D01*
X61046590Y17530677D02*
X61094209Y17578296D01*
X61094209Y17578296D02*
X61141828Y17673534D01*
X61141828Y17673534D02*
X61141828Y18054486D01*
X60713257Y17102105D02*
X60665638Y17054486D01*
X60665638Y17054486D02*
X60618019Y16959248D01*
X60618019Y16959248D02*
X60618019Y16721153D01*
X60618019Y16721153D02*
X60665638Y16625915D01*
X60665638Y16625915D02*
X60713257Y16578296D01*
X60713257Y16578296D02*
X60808495Y16530677D01*
X60808495Y16530677D02*
X60903733Y16530677D01*
X60903733Y16530677D02*
X61046590Y16578296D01*
X61046590Y16578296D02*
X61618019Y17149724D01*
X61618019Y17149724D02*
X61618019Y16530677D01*
X60618019Y16197343D02*
X60618019Y15530677D01*
X60618019Y15530677D02*
X61618019Y15959248D01*
X55903019Y17533858D02*
X55426828Y17867191D01*
X55903019Y18105286D02*
X54903019Y18105286D01*
X54903019Y18105286D02*
X54903019Y17724334D01*
X54903019Y17724334D02*
X54950638Y17629096D01*
X54950638Y17629096D02*
X54998257Y17581477D01*
X54998257Y17581477D02*
X55093495Y17533858D01*
X55093495Y17533858D02*
X55236352Y17533858D01*
X55236352Y17533858D02*
X55331590Y17581477D01*
X55331590Y17581477D02*
X55379209Y17629096D01*
X55379209Y17629096D02*
X55426828Y17724334D01*
X55426828Y17724334D02*
X55426828Y18105286D01*
X54903019Y17200524D02*
X54903019Y16581477D01*
X54903019Y16581477D02*
X55283971Y16914810D01*
X55283971Y16914810D02*
X55283971Y16771953D01*
X55283971Y16771953D02*
X55331590Y16676715D01*
X55331590Y16676715D02*
X55379209Y16629096D01*
X55379209Y16629096D02*
X55474447Y16581477D01*
X55474447Y16581477D02*
X55712542Y16581477D01*
X55712542Y16581477D02*
X55807780Y16629096D01*
X55807780Y16629096D02*
X55855400Y16676715D01*
X55855400Y16676715D02*
X55903019Y16771953D01*
X55903019Y16771953D02*
X55903019Y17057667D01*
X55903019Y17057667D02*
X55855400Y17152905D01*
X55855400Y17152905D02*
X55807780Y17200524D01*
X54903019Y15962429D02*
X54903019Y15867191D01*
X54903019Y15867191D02*
X54950638Y15771953D01*
X54950638Y15771953D02*
X54998257Y15724334D01*
X54998257Y15724334D02*
X55093495Y15676715D01*
X55093495Y15676715D02*
X55283971Y15629096D01*
X55283971Y15629096D02*
X55522066Y15629096D01*
X55522066Y15629096D02*
X55712542Y15676715D01*
X55712542Y15676715D02*
X55807780Y15724334D01*
X55807780Y15724334D02*
X55855400Y15771953D01*
X55855400Y15771953D02*
X55903019Y15867191D01*
X55903019Y15867191D02*
X55903019Y15962429D01*
X55903019Y15962429D02*
X55855400Y16057667D01*
X55855400Y16057667D02*
X55807780Y16105286D01*
X55807780Y16105286D02*
X55712542Y16152905D01*
X55712542Y16152905D02*
X55522066Y16200524D01*
X55522066Y16200524D02*
X55283971Y16200524D01*
X55283971Y16200524D02*
X55093495Y16152905D01*
X55093495Y16152905D02*
X54998257Y16105286D01*
X54998257Y16105286D02*
X54950638Y16057667D01*
X54950638Y16057667D02*
X54903019Y15962429D01*
X34228066Y14880420D02*
X34275685Y14832800D01*
X34275685Y14832800D02*
X34418542Y14785181D01*
X34418542Y14785181D02*
X34513780Y14785181D01*
X34513780Y14785181D02*
X34656637Y14832800D01*
X34656637Y14832800D02*
X34751875Y14928039D01*
X34751875Y14928039D02*
X34799494Y15023277D01*
X34799494Y15023277D02*
X34847113Y15213753D01*
X34847113Y15213753D02*
X34847113Y15356610D01*
X34847113Y15356610D02*
X34799494Y15547086D01*
X34799494Y15547086D02*
X34751875Y15642324D01*
X34751875Y15642324D02*
X34656637Y15737562D01*
X34656637Y15737562D02*
X34513780Y15785181D01*
X34513780Y15785181D02*
X34418542Y15785181D01*
X34418542Y15785181D02*
X34275685Y15737562D01*
X34275685Y15737562D02*
X34228066Y15689943D01*
X33370923Y15451848D02*
X33370923Y14785181D01*
X33609018Y15832800D02*
X33847113Y15118515D01*
X33847113Y15118515D02*
X33228066Y15118515D01*
X61890019Y34050267D02*
X61890019Y34526457D01*
X61890019Y34526457D02*
X60890019Y34526457D01*
X60985257Y33764552D02*
X60937638Y33716933D01*
X60937638Y33716933D02*
X60890019Y33621695D01*
X60890019Y33621695D02*
X60890019Y33383600D01*
X60890019Y33383600D02*
X60937638Y33288362D01*
X60937638Y33288362D02*
X60985257Y33240743D01*
X60985257Y33240743D02*
X61080495Y33193124D01*
X61080495Y33193124D02*
X61175733Y33193124D01*
X61175733Y33193124D02*
X61318590Y33240743D01*
X61318590Y33240743D02*
X61890019Y33812171D01*
X61890019Y33812171D02*
X61890019Y33193124D01*
X12612666Y28754181D02*
X12945999Y29230372D01*
X13184094Y28754181D02*
X13184094Y29754181D01*
X13184094Y29754181D02*
X12803142Y29754181D01*
X12803142Y29754181D02*
X12707904Y29706562D01*
X12707904Y29706562D02*
X12660285Y29658943D01*
X12660285Y29658943D02*
X12612666Y29563705D01*
X12612666Y29563705D02*
X12612666Y29420848D01*
X12612666Y29420848D02*
X12660285Y29325610D01*
X12660285Y29325610D02*
X12707904Y29277991D01*
X12707904Y29277991D02*
X12803142Y29230372D01*
X12803142Y29230372D02*
X13184094Y29230372D01*
X12231713Y29658943D02*
X12184094Y29706562D01*
X12184094Y29706562D02*
X12088856Y29754181D01*
X12088856Y29754181D02*
X11850761Y29754181D01*
X11850761Y29754181D02*
X11755523Y29706562D01*
X11755523Y29706562D02*
X11707904Y29658943D01*
X11707904Y29658943D02*
X11660285Y29563705D01*
X11660285Y29563705D02*
X11660285Y29468467D01*
X11660285Y29468467D02*
X11707904Y29325610D01*
X11707904Y29325610D02*
X12279332Y28754181D01*
X12279332Y28754181D02*
X11660285Y28754181D01*
X12765066Y42699781D02*
X13098399Y43175972D01*
X13336494Y42699781D02*
X13336494Y43699781D01*
X13336494Y43699781D02*
X12955542Y43699781D01*
X12955542Y43699781D02*
X12860304Y43652162D01*
X12860304Y43652162D02*
X12812685Y43604543D01*
X12812685Y43604543D02*
X12765066Y43509305D01*
X12765066Y43509305D02*
X12765066Y43366448D01*
X12765066Y43366448D02*
X12812685Y43271210D01*
X12812685Y43271210D02*
X12860304Y43223591D01*
X12860304Y43223591D02*
X12955542Y43175972D01*
X12955542Y43175972D02*
X13336494Y43175972D01*
X12193637Y43271210D02*
X12288875Y43318829D01*
X12288875Y43318829D02*
X12336494Y43366448D01*
X12336494Y43366448D02*
X12384113Y43461686D01*
X12384113Y43461686D02*
X12384113Y43509305D01*
X12384113Y43509305D02*
X12336494Y43604543D01*
X12336494Y43604543D02*
X12288875Y43652162D01*
X12288875Y43652162D02*
X12193637Y43699781D01*
X12193637Y43699781D02*
X12003161Y43699781D01*
X12003161Y43699781D02*
X11907923Y43652162D01*
X11907923Y43652162D02*
X11860304Y43604543D01*
X11860304Y43604543D02*
X11812685Y43509305D01*
X11812685Y43509305D02*
X11812685Y43461686D01*
X11812685Y43461686D02*
X11860304Y43366448D01*
X11860304Y43366448D02*
X11907923Y43318829D01*
X11907923Y43318829D02*
X12003161Y43271210D01*
X12003161Y43271210D02*
X12193637Y43271210D01*
X12193637Y43271210D02*
X12288875Y43223591D01*
X12288875Y43223591D02*
X12336494Y43175972D01*
X12336494Y43175972D02*
X12384113Y43080734D01*
X12384113Y43080734D02*
X12384113Y42890258D01*
X12384113Y42890258D02*
X12336494Y42795020D01*
X12336494Y42795020D02*
X12288875Y42747400D01*
X12288875Y42747400D02*
X12193637Y42699781D01*
X12193637Y42699781D02*
X12003161Y42699781D01*
X12003161Y42699781D02*
X11907923Y42747400D01*
X11907923Y42747400D02*
X11860304Y42795020D01*
X11860304Y42795020D02*
X11812685Y42890258D01*
X11812685Y42890258D02*
X11812685Y43080734D01*
X11812685Y43080734D02*
X11860304Y43175972D01*
X11860304Y43175972D02*
X11907923Y43223591D01*
X11907923Y43223591D02*
X12003161Y43271210D01*
X51864419Y19000695D02*
X50864419Y19000695D01*
X50864419Y19000695D02*
X50864419Y18762600D01*
X50864419Y18762600D02*
X50912038Y18619743D01*
X50912038Y18619743D02*
X51007276Y18524505D01*
X51007276Y18524505D02*
X51102514Y18476886D01*
X51102514Y18476886D02*
X51292990Y18429267D01*
X51292990Y18429267D02*
X51435847Y18429267D01*
X51435847Y18429267D02*
X51626323Y18476886D01*
X51626323Y18476886D02*
X51721561Y18524505D01*
X51721561Y18524505D02*
X51816800Y18619743D01*
X51816800Y18619743D02*
X51864419Y18762600D01*
X51864419Y18762600D02*
X51864419Y19000695D01*
X50959657Y18048314D02*
X50912038Y18000695D01*
X50912038Y18000695D02*
X50864419Y17905457D01*
X50864419Y17905457D02*
X50864419Y17667362D01*
X50864419Y17667362D02*
X50912038Y17572124D01*
X50912038Y17572124D02*
X50959657Y17524505D01*
X50959657Y17524505D02*
X51054895Y17476886D01*
X51054895Y17476886D02*
X51150133Y17476886D01*
X51150133Y17476886D02*
X51292990Y17524505D01*
X51292990Y17524505D02*
X51864419Y18095933D01*
X51864419Y18095933D02*
X51864419Y17476886D01*
X16656038Y34070143D02*
X16751276Y34117762D01*
X16751276Y34117762D02*
X16846514Y34213000D01*
X16846514Y34213000D02*
X16989371Y34355858D01*
X16989371Y34355858D02*
X17084609Y34403477D01*
X17084609Y34403477D02*
X17179847Y34403477D01*
X17132228Y34165381D02*
X17227466Y34213000D01*
X17227466Y34213000D02*
X17322704Y34308239D01*
X17322704Y34308239D02*
X17370323Y34498715D01*
X17370323Y34498715D02*
X17370323Y34832048D01*
X17370323Y34832048D02*
X17322704Y35022524D01*
X17322704Y35022524D02*
X17227466Y35117762D01*
X17227466Y35117762D02*
X17132228Y35165381D01*
X17132228Y35165381D02*
X16941752Y35165381D01*
X16941752Y35165381D02*
X16846514Y35117762D01*
X16846514Y35117762D02*
X16751276Y35022524D01*
X16751276Y35022524D02*
X16703657Y34832048D01*
X16703657Y34832048D02*
X16703657Y34498715D01*
X16703657Y34498715D02*
X16751276Y34308239D01*
X16751276Y34308239D02*
X16846514Y34213000D01*
X16846514Y34213000D02*
X16941752Y34165381D01*
X16941752Y34165381D02*
X17132228Y34165381D01*
X15751276Y34165381D02*
X16322704Y34165381D01*
X16036990Y34165381D02*
X16036990Y35165381D01*
X16036990Y35165381D02*
X16132228Y35022524D01*
X16132228Y35022524D02*
X16227466Y34927286D01*
X16227466Y34927286D02*
X16322704Y34879667D01*
X29725857Y46282181D02*
X30059190Y46758372D01*
X30297285Y46282181D02*
X30297285Y47282181D01*
X30297285Y47282181D02*
X29916333Y47282181D01*
X29916333Y47282181D02*
X29821095Y47234562D01*
X29821095Y47234562D02*
X29773476Y47186943D01*
X29773476Y47186943D02*
X29725857Y47091705D01*
X29725857Y47091705D02*
X29725857Y46948848D01*
X29725857Y46948848D02*
X29773476Y46853610D01*
X29773476Y46853610D02*
X29821095Y46805991D01*
X29821095Y46805991D02*
X29916333Y46758372D01*
X29916333Y46758372D02*
X30297285Y46758372D01*
X29344904Y47186943D02*
X29297285Y47234562D01*
X29297285Y47234562D02*
X29202047Y47282181D01*
X29202047Y47282181D02*
X28963952Y47282181D01*
X28963952Y47282181D02*
X28868714Y47234562D01*
X28868714Y47234562D02*
X28821095Y47186943D01*
X28821095Y47186943D02*
X28773476Y47091705D01*
X28773476Y47091705D02*
X28773476Y46996467D01*
X28773476Y46996467D02*
X28821095Y46853610D01*
X28821095Y46853610D02*
X29392523Y46282181D01*
X29392523Y46282181D02*
X28773476Y46282181D01*
X27916333Y47282181D02*
X28106809Y47282181D01*
X28106809Y47282181D02*
X28202047Y47234562D01*
X28202047Y47234562D02*
X28249666Y47186943D01*
X28249666Y47186943D02*
X28344904Y47044086D01*
X28344904Y47044086D02*
X28392523Y46853610D01*
X28392523Y46853610D02*
X28392523Y46472658D01*
X28392523Y46472658D02*
X28344904Y46377420D01*
X28344904Y46377420D02*
X28297285Y46329800D01*
X28297285Y46329800D02*
X28202047Y46282181D01*
X28202047Y46282181D02*
X28011571Y46282181D01*
X28011571Y46282181D02*
X27916333Y46329800D01*
X27916333Y46329800D02*
X27868714Y46377420D01*
X27868714Y46377420D02*
X27821095Y46472658D01*
X27821095Y46472658D02*
X27821095Y46710753D01*
X27821095Y46710753D02*
X27868714Y46805991D01*
X27868714Y46805991D02*
X27916333Y46853610D01*
X27916333Y46853610D02*
X28011571Y46901229D01*
X28011571Y46901229D02*
X28202047Y46901229D01*
X28202047Y46901229D02*
X28297285Y46853610D01*
X28297285Y46853610D02*
X28344904Y46805991D01*
X28344904Y46805991D02*
X28392523Y46710753D01*
X70365857Y38375420D02*
X70413476Y38327800D01*
X70413476Y38327800D02*
X70556333Y38280181D01*
X70556333Y38280181D02*
X70651571Y38280181D01*
X70651571Y38280181D02*
X70794428Y38327800D01*
X70794428Y38327800D02*
X70889666Y38423039D01*
X70889666Y38423039D02*
X70937285Y38518277D01*
X70937285Y38518277D02*
X70984904Y38708753D01*
X70984904Y38708753D02*
X70984904Y38851610D01*
X70984904Y38851610D02*
X70937285Y39042086D01*
X70937285Y39042086D02*
X70889666Y39137324D01*
X70889666Y39137324D02*
X70794428Y39232562D01*
X70794428Y39232562D02*
X70651571Y39280181D01*
X70651571Y39280181D02*
X70556333Y39280181D01*
X70556333Y39280181D02*
X70413476Y39232562D01*
X70413476Y39232562D02*
X70365857Y39184943D01*
X69413476Y38280181D02*
X69984904Y38280181D01*
X69699190Y38280181D02*
X69699190Y39280181D01*
X69699190Y39280181D02*
X69794428Y39137324D01*
X69794428Y39137324D02*
X69889666Y39042086D01*
X69889666Y39042086D02*
X69984904Y38994467D01*
X68556333Y38946848D02*
X68556333Y38280181D01*
X68794428Y39327800D02*
X69032523Y38613515D01*
X69032523Y38613515D02*
X68413476Y38613515D01*
X28786057Y15902781D02*
X29119390Y16378972D01*
X29357485Y15902781D02*
X29357485Y16902781D01*
X29357485Y16902781D02*
X28976533Y16902781D01*
X28976533Y16902781D02*
X28881295Y16855162D01*
X28881295Y16855162D02*
X28833676Y16807543D01*
X28833676Y16807543D02*
X28786057Y16712305D01*
X28786057Y16712305D02*
X28786057Y16569448D01*
X28786057Y16569448D02*
X28833676Y16474210D01*
X28833676Y16474210D02*
X28881295Y16426591D01*
X28881295Y16426591D02*
X28976533Y16378972D01*
X28976533Y16378972D02*
X29357485Y16378972D01*
X27833676Y15902781D02*
X28405104Y15902781D01*
X28119390Y15902781D02*
X28119390Y16902781D01*
X28119390Y16902781D02*
X28214628Y16759924D01*
X28214628Y16759924D02*
X28309866Y16664686D01*
X28309866Y16664686D02*
X28405104Y16617067D01*
X27500342Y16902781D02*
X26833676Y16902781D01*
X26833676Y16902781D02*
X27262247Y15902781D01*
X57858819Y17508458D02*
X57382628Y17841791D01*
X57858819Y18079886D02*
X56858819Y18079886D01*
X56858819Y18079886D02*
X56858819Y17698934D01*
X56858819Y17698934D02*
X56906438Y17603696D01*
X56906438Y17603696D02*
X56954057Y17556077D01*
X56954057Y17556077D02*
X57049295Y17508458D01*
X57049295Y17508458D02*
X57192152Y17508458D01*
X57192152Y17508458D02*
X57287390Y17556077D01*
X57287390Y17556077D02*
X57335009Y17603696D01*
X57335009Y17603696D02*
X57382628Y17698934D01*
X57382628Y17698934D02*
X57382628Y18079886D01*
X56954057Y17127505D02*
X56906438Y17079886D01*
X56906438Y17079886D02*
X56858819Y16984648D01*
X56858819Y16984648D02*
X56858819Y16746553D01*
X56858819Y16746553D02*
X56906438Y16651315D01*
X56906438Y16651315D02*
X56954057Y16603696D01*
X56954057Y16603696D02*
X57049295Y16556077D01*
X57049295Y16556077D02*
X57144533Y16556077D01*
X57144533Y16556077D02*
X57287390Y16603696D01*
X57287390Y16603696D02*
X57858819Y17175124D01*
X57858819Y17175124D02*
X57858819Y16556077D01*
X57858819Y16079886D02*
X57858819Y15889410D01*
X57858819Y15889410D02*
X57811200Y15794172D01*
X57811200Y15794172D02*
X57763580Y15746553D01*
X57763580Y15746553D02*
X57620723Y15651315D01*
X57620723Y15651315D02*
X57430247Y15603696D01*
X57430247Y15603696D02*
X57049295Y15603696D01*
X57049295Y15603696D02*
X56954057Y15651315D01*
X56954057Y15651315D02*
X56906438Y15698934D01*
X56906438Y15698934D02*
X56858819Y15794172D01*
X56858819Y15794172D02*
X56858819Y15984648D01*
X56858819Y15984648D02*
X56906438Y16079886D01*
X56906438Y16079886D02*
X56954057Y16127505D01*
X56954057Y16127505D02*
X57049295Y16175124D01*
X57049295Y16175124D02*
X57287390Y16175124D01*
X57287390Y16175124D02*
X57382628Y16127505D01*
X57382628Y16127505D02*
X57430247Y16079886D01*
X57430247Y16079886D02*
X57477866Y15984648D01*
X57477866Y15984648D02*
X57477866Y15794172D01*
X57477866Y15794172D02*
X57430247Y15698934D01*
X57430247Y15698934D02*
X57382628Y15651315D01*
X57382628Y15651315D02*
X57287390Y15603696D01*
X67129819Y53093858D02*
X66653628Y53427191D01*
X67129819Y53665286D02*
X66129819Y53665286D01*
X66129819Y53665286D02*
X66129819Y53284334D01*
X66129819Y53284334D02*
X66177438Y53189096D01*
X66177438Y53189096D02*
X66225057Y53141477D01*
X66225057Y53141477D02*
X66320295Y53093858D01*
X66320295Y53093858D02*
X66463152Y53093858D01*
X66463152Y53093858D02*
X66558390Y53141477D01*
X66558390Y53141477D02*
X66606009Y53189096D01*
X66606009Y53189096D02*
X66653628Y53284334D01*
X66653628Y53284334D02*
X66653628Y53665286D01*
X66225057Y52712905D02*
X66177438Y52665286D01*
X66177438Y52665286D02*
X66129819Y52570048D01*
X66129819Y52570048D02*
X66129819Y52331953D01*
X66129819Y52331953D02*
X66177438Y52236715D01*
X66177438Y52236715D02*
X66225057Y52189096D01*
X66225057Y52189096D02*
X66320295Y52141477D01*
X66320295Y52141477D02*
X66415533Y52141477D01*
X66415533Y52141477D02*
X66558390Y52189096D01*
X66558390Y52189096D02*
X67129819Y52760524D01*
X67129819Y52760524D02*
X67129819Y52141477D01*
X66463152Y51284334D02*
X67129819Y51284334D01*
X66082200Y51522429D02*
X66796485Y51760524D01*
X66796485Y51760524D02*
X66796485Y51141477D01*
X52500419Y35796458D02*
X52024228Y36129791D01*
X52500419Y36367886D02*
X51500419Y36367886D01*
X51500419Y36367886D02*
X51500419Y35986934D01*
X51500419Y35986934D02*
X51548038Y35891696D01*
X51548038Y35891696D02*
X51595657Y35844077D01*
X51595657Y35844077D02*
X51690895Y35796458D01*
X51690895Y35796458D02*
X51833752Y35796458D01*
X51833752Y35796458D02*
X51928990Y35844077D01*
X51928990Y35844077D02*
X51976609Y35891696D01*
X51976609Y35891696D02*
X52024228Y35986934D01*
X52024228Y35986934D02*
X52024228Y36367886D01*
X52500419Y34844077D02*
X52500419Y35415505D01*
X52500419Y35129791D02*
X51500419Y35129791D01*
X51500419Y35129791D02*
X51643276Y35225029D01*
X51643276Y35225029D02*
X51738514Y35320267D01*
X51738514Y35320267D02*
X51786133Y35415505D01*
X52500419Y33891696D02*
X52500419Y34463124D01*
X52500419Y34177410D02*
X51500419Y34177410D01*
X51500419Y34177410D02*
X51643276Y34272648D01*
X51643276Y34272648D02*
X51738514Y34367886D01*
X51738514Y34367886D02*
X51786133Y34463124D01*
X66065304Y31964981D02*
X66065304Y31155458D01*
X66065304Y31155458D02*
X66017685Y31060220D01*
X66017685Y31060220D02*
X65970066Y31012600D01*
X65970066Y31012600D02*
X65874828Y30964981D01*
X65874828Y30964981D02*
X65684352Y30964981D01*
X65684352Y30964981D02*
X65589114Y31012600D01*
X65589114Y31012600D02*
X65541495Y31060220D01*
X65541495Y31060220D02*
X65493876Y31155458D01*
X65493876Y31155458D02*
X65493876Y31964981D01*
X65112923Y31964981D02*
X64493876Y31964981D01*
X64493876Y31964981D02*
X64827209Y31584029D01*
X64827209Y31584029D02*
X64684352Y31584029D01*
X64684352Y31584029D02*
X64589114Y31536410D01*
X64589114Y31536410D02*
X64541495Y31488791D01*
X64541495Y31488791D02*
X64493876Y31393553D01*
X64493876Y31393553D02*
X64493876Y31155458D01*
X64493876Y31155458D02*
X64541495Y31060220D01*
X64541495Y31060220D02*
X64589114Y31012600D01*
X64589114Y31012600D02*
X64684352Y30964981D01*
X64684352Y30964981D02*
X64970066Y30964981D01*
X64970066Y30964981D02*
X65065304Y31012600D01*
X65065304Y31012600D02*
X65112923Y31060220D01*
X63599219Y53246258D02*
X63123028Y53579591D01*
X63599219Y53817686D02*
X62599219Y53817686D01*
X62599219Y53817686D02*
X62599219Y53436734D01*
X62599219Y53436734D02*
X62646838Y53341496D01*
X62646838Y53341496D02*
X62694457Y53293877D01*
X62694457Y53293877D02*
X62789695Y53246258D01*
X62789695Y53246258D02*
X62932552Y53246258D01*
X62932552Y53246258D02*
X63027790Y53293877D01*
X63027790Y53293877D02*
X63075409Y53341496D01*
X63075409Y53341496D02*
X63123028Y53436734D01*
X63123028Y53436734D02*
X63123028Y53817686D01*
X63599219Y52293877D02*
X63599219Y52865305D01*
X63599219Y52579591D02*
X62599219Y52579591D01*
X62599219Y52579591D02*
X62742076Y52674829D01*
X62742076Y52674829D02*
X62837314Y52770067D01*
X62837314Y52770067D02*
X62884933Y52865305D01*
X62932552Y51436734D02*
X63599219Y51436734D01*
X62551600Y51674829D02*
X63265885Y51912924D01*
X63265885Y51912924D02*
X63265885Y51293877D01*
X61482266Y30298220D02*
X61529885Y30250600D01*
X61529885Y30250600D02*
X61672742Y30202981D01*
X61672742Y30202981D02*
X61767980Y30202981D01*
X61767980Y30202981D02*
X61910837Y30250600D01*
X61910837Y30250600D02*
X62006075Y30345839D01*
X62006075Y30345839D02*
X62053694Y30441077D01*
X62053694Y30441077D02*
X62101313Y30631553D01*
X62101313Y30631553D02*
X62101313Y30774410D01*
X62101313Y30774410D02*
X62053694Y30964886D01*
X62053694Y30964886D02*
X62006075Y31060124D01*
X62006075Y31060124D02*
X61910837Y31155362D01*
X61910837Y31155362D02*
X61767980Y31202981D01*
X61767980Y31202981D02*
X61672742Y31202981D01*
X61672742Y31202981D02*
X61529885Y31155362D01*
X61529885Y31155362D02*
X61482266Y31107743D01*
X60577504Y31202981D02*
X61053694Y31202981D01*
X61053694Y31202981D02*
X61101313Y30726791D01*
X61101313Y30726791D02*
X61053694Y30774410D01*
X61053694Y30774410D02*
X60958456Y30822029D01*
X60958456Y30822029D02*
X60720361Y30822029D01*
X60720361Y30822029D02*
X60625123Y30774410D01*
X60625123Y30774410D02*
X60577504Y30726791D01*
X60577504Y30726791D02*
X60529885Y30631553D01*
X60529885Y30631553D02*
X60529885Y30393458D01*
X60529885Y30393458D02*
X60577504Y30298220D01*
X60577504Y30298220D02*
X60625123Y30250600D01*
X60625123Y30250600D02*
X60720361Y30202981D01*
X60720361Y30202981D02*
X60958456Y30202981D01*
X60958456Y30202981D02*
X61053694Y30250600D01*
X61053694Y30250600D02*
X61101313Y30298220D01*
X24093466Y41963181D02*
X24426799Y42439372D01*
X24664894Y41963181D02*
X24664894Y42963181D01*
X24664894Y42963181D02*
X24283942Y42963181D01*
X24283942Y42963181D02*
X24188704Y42915562D01*
X24188704Y42915562D02*
X24141085Y42867943D01*
X24141085Y42867943D02*
X24093466Y42772705D01*
X24093466Y42772705D02*
X24093466Y42629848D01*
X24093466Y42629848D02*
X24141085Y42534610D01*
X24141085Y42534610D02*
X24188704Y42486991D01*
X24188704Y42486991D02*
X24283942Y42439372D01*
X24283942Y42439372D02*
X24664894Y42439372D01*
X23617275Y41963181D02*
X23426799Y41963181D01*
X23426799Y41963181D02*
X23331561Y42010800D01*
X23331561Y42010800D02*
X23283942Y42058420D01*
X23283942Y42058420D02*
X23188704Y42201277D01*
X23188704Y42201277D02*
X23141085Y42391753D01*
X23141085Y42391753D02*
X23141085Y42772705D01*
X23141085Y42772705D02*
X23188704Y42867943D01*
X23188704Y42867943D02*
X23236323Y42915562D01*
X23236323Y42915562D02*
X23331561Y42963181D01*
X23331561Y42963181D02*
X23522037Y42963181D01*
X23522037Y42963181D02*
X23617275Y42915562D01*
X23617275Y42915562D02*
X23664894Y42867943D01*
X23664894Y42867943D02*
X23712513Y42772705D01*
X23712513Y42772705D02*
X23712513Y42534610D01*
X23712513Y42534610D02*
X23664894Y42439372D01*
X23664894Y42439372D02*
X23617275Y42391753D01*
X23617275Y42391753D02*
X23522037Y42344134D01*
X23522037Y42344134D02*
X23331561Y42344134D01*
X23331561Y42344134D02*
X23236323Y42391753D01*
X23236323Y42391753D02*
X23188704Y42439372D01*
X23188704Y42439372D02*
X23141085Y42534610D01*
X48740219Y16829067D02*
X48264028Y17162400D01*
X48740219Y17400495D02*
X47740219Y17400495D01*
X47740219Y17400495D02*
X47740219Y17019543D01*
X47740219Y17019543D02*
X47787838Y16924305D01*
X47787838Y16924305D02*
X47835457Y16876686D01*
X47835457Y16876686D02*
X47930695Y16829067D01*
X47930695Y16829067D02*
X48073552Y16829067D01*
X48073552Y16829067D02*
X48168790Y16876686D01*
X48168790Y16876686D02*
X48216409Y16924305D01*
X48216409Y16924305D02*
X48264028Y17019543D01*
X48264028Y17019543D02*
X48264028Y17400495D01*
X48740219Y15876686D02*
X48740219Y16448114D01*
X48740219Y16162400D02*
X47740219Y16162400D01*
X47740219Y16162400D02*
X47883076Y16257638D01*
X47883076Y16257638D02*
X47978314Y16352876D01*
X47978314Y16352876D02*
X48025933Y16448114D01*
D12*
%TO.C,C9*%
X36710252Y41095600D02*
X36187748Y41095600D01*
X36710252Y39625600D02*
X36187748Y39625600D01*
%TO.C,C8*%
X36710252Y43153000D02*
X36187748Y43153000D01*
X36710252Y41683000D02*
X36187748Y41683000D01*
%TO.C,U2*%
X31491400Y37114000D02*
X31491400Y36539000D01*
X31491400Y27469000D02*
X31491400Y26894000D01*
X31491400Y26894000D02*
X32066400Y26894000D01*
X32066400Y37114000D02*
X31491400Y37114000D01*
X41136400Y26894000D02*
X41711400Y26894000D01*
X41711400Y37114000D02*
X41136400Y37114000D01*
X41711400Y36539000D02*
X41711400Y37114000D01*
X41711400Y26894000D02*
X41711400Y27469000D01*
X41611400Y25914000D02*
X41141400Y26254000D01*
X41611400Y26594000D01*
X41611400Y25914000D01*
G36*
X41611400Y25914000D02*
G01*
X41141400Y26254000D01*
X41611400Y26594000D01*
X41611400Y25914000D01*
G37*
%TO.C,R12*%
X25376136Y26744600D02*
X25830264Y26744600D01*
X25376136Y25274600D02*
X25830264Y25274600D01*
%TO.C,R5*%
X38863600Y23315664D02*
X38863600Y22861536D01*
X40333600Y23315664D02*
X40333600Y22861536D01*
%TO.C,C10*%
X36730000Y23375252D02*
X36730000Y22852748D01*
X38200000Y23375252D02*
X38200000Y22852748D01*
%TO.C,C11*%
X44299200Y32265252D02*
X44299200Y31742748D01*
X45769200Y32265252D02*
X45769200Y31742748D01*
%TO.C,C12*%
X26773200Y31742748D02*
X26773200Y32265252D01*
X28243200Y31742748D02*
X28243200Y32265252D01*
%TO.C,C2*%
X40794000Y23324452D02*
X40794000Y22801948D01*
X42264000Y23324452D02*
X42264000Y22801948D01*
%TO.C,R13*%
X25350736Y29259200D02*
X25804864Y29259200D01*
X25350736Y27789200D02*
X25804864Y27789200D01*
%TO.C,U1*%
X56042800Y34930700D02*
X57092800Y34930700D01*
X56042800Y32610700D02*
X57342800Y32610700D01*
X57732800Y34930700D02*
X57452800Y34930700D01*
X57452800Y35210700D01*
X57732800Y34930700D01*
G36*
X57732800Y34930700D02*
G01*
X57452800Y34930700D01*
X57452800Y35210700D01*
X57732800Y34930700D01*
G37*
%TO.C,C6*%
X59454148Y37590400D02*
X59976652Y37590400D01*
X59454148Y36120400D02*
X59976652Y36120400D01*
%TO.C,J1*%
X40809200Y10223200D02*
X42609200Y10223200D01*
X40809200Y8773200D02*
X40809200Y10223200D01*
X49979200Y10223200D02*
X49979200Y11213200D01*
X50509200Y5953200D02*
X42079200Y5953200D01*
X51779200Y10223200D02*
X49979200Y10223200D01*
X51779200Y8773200D02*
X51779200Y10223200D01*
%TO.C,Q2*%
X15673800Y43012800D02*
X15673800Y42012800D01*
X15673800Y40892800D02*
X15673800Y39892800D01*
X15673800Y39892800D02*
X17193800Y39892800D01*
X17193800Y43012800D02*
X15673800Y43012800D01*
X17193800Y42962800D02*
X17193800Y43012800D01*
X17193800Y41062800D02*
X17193800Y41842800D01*
X17193800Y39892800D02*
X17193800Y39942800D01*
X17973800Y41502800D02*
X17493800Y41502800D01*
X17733800Y41832800D01*
X17973800Y41502800D01*
G36*
X17973800Y41502800D02*
G01*
X17493800Y41502800D01*
X17733800Y41832800D01*
X17973800Y41502800D01*
G37*
%TO.C,C13*%
X68191748Y31596000D02*
X68714252Y31596000D01*
X68191748Y30126000D02*
X68714252Y30126000D01*
%TO.C,R10*%
X56564264Y36777600D02*
X56110136Y36777600D01*
X56564264Y35307600D02*
X56110136Y35307600D01*
%TO.C,C3*%
X30278400Y20022452D02*
X30278400Y19499948D01*
X31748400Y20022452D02*
X31748400Y19499948D01*
%TO.C,R22*%
X66470264Y36879200D02*
X66016136Y36879200D01*
X66470264Y35409200D02*
X66016136Y35409200D01*
%TO.C,L1*%
X52449000Y13684067D02*
X52449000Y13341533D01*
X53469000Y13684067D02*
X53469000Y13341533D01*
%TO.C,C7*%
X56573052Y38708000D02*
X56050548Y38708000D01*
X56573052Y37238000D02*
X56050548Y37238000D01*
%TO.C,J2*%
X15895600Y10223200D02*
X17695600Y10223200D01*
X15895600Y8773200D02*
X15895600Y10223200D01*
X27565600Y10223200D02*
X27565600Y11213200D01*
X28095600Y5953200D02*
X17165600Y5953200D01*
X29365600Y10223200D02*
X27565600Y10223200D01*
X29365600Y8773200D02*
X29365600Y10223200D01*
%TO.C,R7*%
X21055064Y38885800D02*
X20600936Y38885800D01*
X21055064Y37415800D02*
X20600936Y37415800D01*
%TO.C,R6*%
X12901664Y37869800D02*
X12447536Y37869800D01*
X12901664Y36399800D02*
X12447536Y36399800D01*
%TO.C,R21*%
X30253000Y23696664D02*
X30253000Y23242536D01*
X31723000Y23696664D02*
X31723000Y23242536D01*
%TO.C,J6*%
X53266000Y10223200D02*
X55066000Y10223200D01*
X53266000Y8773200D02*
X53266000Y10223200D01*
X63686000Y10223200D02*
X63686000Y11213200D01*
X64216000Y5953200D02*
X54536000Y5953200D01*
X65486000Y10223200D02*
X63686000Y10223200D01*
X65486000Y8773200D02*
X65486000Y10223200D01*
%TO.C,J4*%
X30847400Y10223200D02*
X32647400Y10223200D01*
X30847400Y8773200D02*
X30847400Y10223200D01*
X37517400Y10223200D02*
X37517400Y11213200D01*
X38047400Y5953200D02*
X32117400Y5953200D01*
X39317400Y10223200D02*
X37517400Y10223200D01*
X39317400Y8773200D02*
X39317400Y10223200D01*
%TO.C,D1*%
X49336400Y15179200D02*
X50536400Y15179200D01*
X49336400Y13219200D02*
X49336400Y15179200D01*
X50536400Y13219200D02*
X50536400Y15179200D01*
D11*
%TO.C,SW2*%
X7282000Y24972800D02*
X9482000Y24972800D01*
X8382000Y24972800D02*
X8382000Y24472800D01*
X8382000Y24472800D02*
X8982000Y22972800D01*
X8382000Y23072800D02*
X8382000Y22372800D01*
X9482000Y22372800D02*
X7282000Y22372800D01*
D12*
%TO.C,R28*%
X58421600Y13311136D02*
X58421600Y13765264D01*
X59891600Y13311136D02*
X59891600Y13765264D01*
D11*
%TO.C,SW1*%
X7282000Y29621000D02*
X9482000Y29621000D01*
X8382000Y29621000D02*
X8382000Y29121000D01*
X8382000Y29121000D02*
X8982000Y27621000D01*
X8382000Y27721000D02*
X8382000Y27021000D01*
X9482000Y27021000D02*
X7282000Y27021000D01*
D12*
%TO.C,R20*%
X27586000Y19708864D02*
X27586000Y19254736D01*
X29056000Y19708864D02*
X29056000Y19254736D01*
%TO.C,R4*%
X45416800Y14146264D02*
X45416800Y13692136D01*
X46886800Y14146264D02*
X46886800Y13692136D01*
%TO.C,R18*%
X25235700Y14025364D02*
X25235700Y13571236D01*
X26705700Y14025364D02*
X26705700Y13571236D01*
%TO.C,R15*%
X12472936Y33221600D02*
X12927064Y33221600D01*
X12472936Y31751600D02*
X12927064Y31751600D01*
%TO.C,TP2*%
X31992800Y40284400D02*
G75*
G02*
X30592800Y40284400I-700000J0D01*
G01*
X30592800Y40284400D02*
G75*
G02*
X31992800Y40284400I700000J0D01*
G01*
%TO.C,R19*%
X23343400Y14025364D02*
X23343400Y13571236D01*
X24813400Y14025364D02*
X24813400Y13571236D01*
%TO.C,TP1*%
X29402000Y36957000D02*
G75*
G02*
X28002000Y36957000I-700000J0D01*
G01*
X28002000Y36957000D02*
G75*
G02*
X29402000Y36957000I700000J0D01*
G01*
%TO.C,R23*%
X62790400Y35634664D02*
X62790400Y35180536D01*
X64260400Y35634664D02*
X64260400Y35180536D01*
%TO.C,Y1*%
X36174800Y21475800D02*
X36174800Y18055800D01*
X36174800Y18055800D02*
X32054800Y18055800D01*
%TO.C,JP1*%
X41018000Y13584200D02*
X41018000Y12984200D01*
X41718000Y12284200D02*
X43118000Y12284200D01*
X43118000Y14284200D02*
X41718000Y14284200D01*
X43818000Y12984200D02*
X43818000Y13584200D01*
X41018000Y13584200D02*
G75*
G02*
X41718000Y14284200I699999J1D01*
G01*
X41718000Y12284200D02*
G75*
G02*
X41018000Y12984200I-1J699999D01*
G01*
X43118000Y14284200D02*
G75*
G02*
X43818000Y13584200I0J-700000D01*
G01*
X43818000Y12984200D02*
G75*
G02*
X43118000Y12284200I-700000J0D01*
G01*
%TO.C,C15*%
X66479052Y38809600D02*
X65956548Y38809600D01*
X66479052Y37339600D02*
X65956548Y37339600D01*
%TO.C,C1*%
X50665748Y17016400D02*
X51188252Y17016400D01*
X50665748Y15546400D02*
X51188252Y15546400D01*
%TO.C,R3*%
X12647664Y23696600D02*
X12193536Y23696600D01*
X12647664Y22226600D02*
X12193536Y22226600D01*
%TO.C,R25*%
X62282400Y13311136D02*
X62282400Y13765264D01*
X63752400Y13311136D02*
X63752400Y13765264D01*
%TO.C,L3*%
X68181200Y33723948D02*
X68181200Y34246452D01*
X70401200Y33723948D02*
X70401200Y34246452D01*
%TO.C,R27*%
X60352000Y13311136D02*
X60352000Y13765264D01*
X61822000Y13311136D02*
X61822000Y13765264D01*
%TO.C,R30*%
X54560800Y13311136D02*
X54560800Y13765264D01*
X56030800Y13311136D02*
X56030800Y13765264D01*
%TO.C,C4*%
X34398852Y17753000D02*
X33876348Y17753000D01*
X34398852Y16283000D02*
X33876348Y16283000D01*
%TO.C,L2*%
X58275200Y33622348D02*
X58275200Y34144852D01*
X60495200Y33622348D02*
X60495200Y34144852D01*
%TO.C,R2*%
X12673064Y28294000D02*
X12218936Y28294000D01*
X12673064Y26824000D02*
X12218936Y26824000D01*
%TO.C,R8*%
X12723864Y42238600D02*
X12269736Y42238600D01*
X12723864Y40768600D02*
X12269736Y40768600D01*
%TO.C,D2*%
X50809600Y15204600D02*
X52009600Y15204600D01*
X50809600Y13244600D02*
X50809600Y15204600D01*
X52009600Y13244600D02*
X52009600Y15204600D01*
%TO.C,Q1*%
X15800800Y38796400D02*
X15800800Y37796400D01*
X15800800Y36676400D02*
X15800800Y35676400D01*
X15800800Y35676400D02*
X17320800Y35676400D01*
X17320800Y38796400D02*
X15800800Y38796400D01*
X17320800Y38746400D02*
X17320800Y38796400D01*
X17320800Y36846400D02*
X17320800Y37626400D01*
X17320800Y35676400D02*
X17320800Y35726400D01*
X18100800Y37286400D02*
X17620800Y37286400D01*
X17860800Y37616400D01*
X18100800Y37286400D01*
G36*
X18100800Y37286400D02*
G01*
X17620800Y37286400D01*
X17860800Y37616400D01*
X18100800Y37286400D01*
G37*
%TO.C,R26*%
X28855936Y49122000D02*
X29310064Y49122000D01*
X28855936Y47652000D02*
X29310064Y47652000D01*
%TO.C,C14*%
X69360148Y37641200D02*
X69882652Y37641200D01*
X69360148Y36171200D02*
X69882652Y36171200D01*
%TO.C,R17*%
X27128000Y14023464D02*
X27128000Y13569336D01*
X28598000Y14023464D02*
X28598000Y13569336D01*
%TO.C,R29*%
X56491200Y13311136D02*
X56491200Y13765264D01*
X57961200Y13311136D02*
X57961200Y13765264D01*
%TO.C,R24*%
X64035000Y52350936D02*
X64035000Y52805064D01*
X65505000Y52350936D02*
X65505000Y52805064D01*
%TO.C,R11*%
X52960600Y35380664D02*
X52960600Y34926536D01*
X54430600Y35380664D02*
X54430600Y34926536D01*
%TO.C,U3*%
X65948800Y35032300D02*
X66998800Y35032300D01*
X65948800Y32712300D02*
X67248800Y32712300D01*
X67638800Y35032300D02*
X67358800Y35032300D01*
X67358800Y35312300D01*
X67638800Y35032300D01*
G36*
X67638800Y35032300D02*
G01*
X67358800Y35032300D01*
X67358800Y35312300D01*
X67638800Y35032300D01*
G37*
%TO.C,R14*%
X60733000Y52374436D02*
X60733000Y52828564D01*
X62203000Y52374436D02*
X62203000Y52828564D01*
%TO.C,C5*%
X58285748Y31494400D02*
X58808252Y31494400D01*
X58285748Y30024400D02*
X58808252Y30024400D01*
%TO.C,R9*%
X20928064Y43153000D02*
X20473936Y43153000D01*
X20928064Y41683000D02*
X20473936Y41683000D01*
%TO.C,R1*%
X47448800Y14146264D02*
X47448800Y13692136D01*
X48918800Y14146264D02*
X48918800Y13692136D01*
%TD*%
M02*
