%TF.GenerationSoftware,KiCad,Pcbnew,9.0.6+1*%
%TF.CreationDate,2025-12-27T18:04:55+00:00*%
%TF.ProjectId,TFUNIPAYLOAD01,5446554e-4950-4415-994c-4f414430312e,rev?*%
%TF.SameCoordinates,PX66dd020PY81342c0*%
%TF.FileFunction,Legend,Top*%
%TF.FilePolarity,Positive*%
%FSLAX46Y46*%
G04 Gerber Fmt 4.6, Leading zero omitted, Abs format (unit mm)*
G04 Created by KiCad (PCBNEW 9.0.6+1) date 2025-12-27 18:04:55*
%MOMM*%
%LPD*%
G01*
G04 APERTURE LIST*
%ADD10C,0.150000*%
%ADD11C,0.300000*%
%ADD12C,0.200000*%
%ADD13C,0.050000*%
%ADD14C,0.120000*%
G04 APERTURE END LIST*
D10*
X52663400Y28899600D02*
X62763400Y28899600D01*
X62763400Y22199600D01*
X52663400Y22199600D01*
X52663400Y28899600D01*
D11*
X29768066Y39181547D02*
X30739495Y39181547D01*
X30253781Y37481547D02*
X30253781Y39181547D01*
X31872828Y38372023D02*
X31306161Y38372023D01*
X31306161Y37481547D02*
X31306161Y39181547D01*
X31306161Y39181547D02*
X32115685Y39181547D01*
X32763304Y39181547D02*
X32763304Y37805357D01*
X32763304Y37805357D02*
X32844257Y37643452D01*
X32844257Y37643452D02*
X32925209Y37562499D01*
X32925209Y37562499D02*
X33087114Y37481547D01*
X33087114Y37481547D02*
X33410923Y37481547D01*
X33410923Y37481547D02*
X33572828Y37562499D01*
X33572828Y37562499D02*
X33653781Y37643452D01*
X33653781Y37643452D02*
X33734733Y37805357D01*
X33734733Y37805357D02*
X33734733Y39181547D01*
X34544256Y37481547D02*
X34544256Y39181547D01*
X34544256Y39181547D02*
X35515685Y37481547D01*
X35515685Y37481547D02*
X35515685Y39181547D01*
X36325208Y37481547D02*
X36325208Y39181547D01*
X37134732Y37481547D02*
X37134732Y39181547D01*
X37134732Y39181547D02*
X37782351Y39181547D01*
X37782351Y39181547D02*
X37944256Y39100595D01*
X37944256Y39100595D02*
X38025209Y39019642D01*
X38025209Y39019642D02*
X38106161Y38857738D01*
X38106161Y38857738D02*
X38106161Y38614880D01*
X38106161Y38614880D02*
X38025209Y38452976D01*
X38025209Y38452976D02*
X37944256Y38372023D01*
X37944256Y38372023D02*
X37782351Y38291071D01*
X37782351Y38291071D02*
X37134732Y38291071D01*
X38753780Y37967261D02*
X39563304Y37967261D01*
X38591875Y37481547D02*
X39158542Y39181547D01*
X39158542Y39181547D02*
X39725209Y37481547D01*
X40615685Y38291071D02*
X40615685Y37481547D01*
X40049018Y39181547D02*
X40615685Y38291071D01*
X40615685Y38291071D02*
X41182352Y39181547D01*
X42558542Y37481547D02*
X41749018Y37481547D01*
X41749018Y37481547D02*
X41749018Y39181547D01*
X43449018Y39181547D02*
X43772827Y39181547D01*
X43772827Y39181547D02*
X43934732Y39100595D01*
X43934732Y39100595D02*
X44096637Y38938690D01*
X44096637Y38938690D02*
X44177589Y38614880D01*
X44177589Y38614880D02*
X44177589Y38048214D01*
X44177589Y38048214D02*
X44096637Y37724404D01*
X44096637Y37724404D02*
X43934732Y37562499D01*
X43934732Y37562499D02*
X43772827Y37481547D01*
X43772827Y37481547D02*
X43449018Y37481547D01*
X43449018Y37481547D02*
X43287113Y37562499D01*
X43287113Y37562499D02*
X43125208Y37724404D01*
X43125208Y37724404D02*
X43044256Y38048214D01*
X43044256Y38048214D02*
X43044256Y38614880D01*
X43044256Y38614880D02*
X43125208Y38938690D01*
X43125208Y38938690D02*
X43287113Y39100595D01*
X43287113Y39100595D02*
X43449018Y39181547D01*
X44825208Y37967261D02*
X45634732Y37967261D01*
X44663303Y37481547D02*
X45229970Y39181547D01*
X45229970Y39181547D02*
X45796637Y37481547D01*
X46363303Y37481547D02*
X46363303Y39181547D01*
X46363303Y39181547D02*
X46768065Y39181547D01*
X46768065Y39181547D02*
X47010922Y39100595D01*
X47010922Y39100595D02*
X47172827Y38938690D01*
X47172827Y38938690D02*
X47253780Y38776785D01*
X47253780Y38776785D02*
X47334732Y38452976D01*
X47334732Y38452976D02*
X47334732Y38210119D01*
X47334732Y38210119D02*
X47253780Y37886309D01*
X47253780Y37886309D02*
X47172827Y37724404D01*
X47172827Y37724404D02*
X47010922Y37562499D01*
X47010922Y37562499D02*
X46768065Y37481547D01*
X46768065Y37481547D02*
X46363303Y37481547D01*
X48387113Y39181547D02*
X48549018Y39181547D01*
X48549018Y39181547D02*
X48710922Y39100595D01*
X48710922Y39100595D02*
X48791875Y39019642D01*
X48791875Y39019642D02*
X48872827Y38857738D01*
X48872827Y38857738D02*
X48953780Y38533928D01*
X48953780Y38533928D02*
X48953780Y38129166D01*
X48953780Y38129166D02*
X48872827Y37805357D01*
X48872827Y37805357D02*
X48791875Y37643452D01*
X48791875Y37643452D02*
X48710922Y37562499D01*
X48710922Y37562499D02*
X48549018Y37481547D01*
X48549018Y37481547D02*
X48387113Y37481547D01*
X48387113Y37481547D02*
X48225208Y37562499D01*
X48225208Y37562499D02*
X48144256Y37643452D01*
X48144256Y37643452D02*
X48063303Y37805357D01*
X48063303Y37805357D02*
X47982351Y38129166D01*
X47982351Y38129166D02*
X47982351Y38533928D01*
X47982351Y38533928D02*
X48063303Y38857738D01*
X48063303Y38857738D02*
X48144256Y39019642D01*
X48144256Y39019642D02*
X48225208Y39100595D01*
X48225208Y39100595D02*
X48387113Y39181547D01*
X50572828Y37481547D02*
X49601399Y37481547D01*
X50087113Y37481547D02*
X50087113Y39181547D01*
X50087113Y39181547D02*
X49925209Y38938690D01*
X49925209Y38938690D02*
X49763304Y38776785D01*
X49763304Y38776785D02*
X49601399Y38695833D01*
X51868066Y38372023D02*
X52110923Y38291071D01*
X52110923Y38291071D02*
X52191876Y38210119D01*
X52191876Y38210119D02*
X52272828Y38048214D01*
X52272828Y38048214D02*
X52272828Y37805357D01*
X52272828Y37805357D02*
X52191876Y37643452D01*
X52191876Y37643452D02*
X52110923Y37562499D01*
X52110923Y37562499D02*
X51949018Y37481547D01*
X51949018Y37481547D02*
X51301399Y37481547D01*
X51301399Y37481547D02*
X51301399Y39181547D01*
X51301399Y39181547D02*
X51868066Y39181547D01*
X51868066Y39181547D02*
X52029971Y39100595D01*
X52029971Y39100595D02*
X52110923Y39019642D01*
X52110923Y39019642D02*
X52191876Y38857738D01*
X52191876Y38857738D02*
X52191876Y38695833D01*
X52191876Y38695833D02*
X52110923Y38533928D01*
X52110923Y38533928D02*
X52029971Y38452976D01*
X52029971Y38452976D02*
X51868066Y38372023D01*
X51868066Y38372023D02*
X51301399Y38372023D01*
D12*
X66377004Y46303039D02*
X65077004Y46303039D01*
X65077004Y46303039D02*
X65077004Y46798277D01*
X65077004Y46798277D02*
X65138909Y46922087D01*
X65138909Y46922087D02*
X65200814Y46983992D01*
X65200814Y46983992D02*
X65324623Y47045896D01*
X65324623Y47045896D02*
X65510338Y47045896D01*
X65510338Y47045896D02*
X65634147Y46983992D01*
X65634147Y46983992D02*
X65696052Y46922087D01*
X65696052Y46922087D02*
X65757957Y46798277D01*
X65757957Y46798277D02*
X65757957Y46303039D01*
X65077004Y47479230D02*
X66377004Y47788754D01*
X66377004Y47788754D02*
X65448433Y48036373D01*
X65448433Y48036373D02*
X66377004Y48283992D01*
X66377004Y48283992D02*
X65077004Y48593515D01*
X66377004Y49831610D02*
X65757957Y49398277D01*
X66377004Y49088753D02*
X65077004Y49088753D01*
X65077004Y49088753D02*
X65077004Y49583991D01*
X65077004Y49583991D02*
X65138909Y49707801D01*
X65138909Y49707801D02*
X65200814Y49769706D01*
X65200814Y49769706D02*
X65324623Y49831610D01*
X65324623Y49831610D02*
X65510338Y49831610D01*
X65510338Y49831610D02*
X65634147Y49769706D01*
X65634147Y49769706D02*
X65696052Y49707801D01*
X65696052Y49707801D02*
X65757957Y49583991D01*
X65757957Y49583991D02*
X65757957Y49088753D01*
X65077004Y51998277D02*
X65077004Y51379229D01*
X65077004Y51379229D02*
X65696052Y51317325D01*
X65696052Y51317325D02*
X65634147Y51379229D01*
X65634147Y51379229D02*
X65572242Y51503039D01*
X65572242Y51503039D02*
X65572242Y51812563D01*
X65572242Y51812563D02*
X65634147Y51936372D01*
X65634147Y51936372D02*
X65696052Y51998277D01*
X65696052Y51998277D02*
X65819861Y52060182D01*
X65819861Y52060182D02*
X66129385Y52060182D01*
X66129385Y52060182D02*
X66253195Y51998277D01*
X66253195Y51998277D02*
X66315100Y51936372D01*
X66315100Y51936372D02*
X66377004Y51812563D01*
X66377004Y51812563D02*
X66377004Y51503039D01*
X66377004Y51503039D02*
X66315100Y51379229D01*
X66315100Y51379229D02*
X66253195Y51317325D01*
X65077004Y52431610D02*
X66377004Y52864943D01*
X66377004Y52864943D02*
X65077004Y53298277D01*
X44763790Y10137459D02*
X44763790Y9085078D01*
X44763790Y9085078D02*
X44825695Y8961268D01*
X44825695Y8961268D02*
X44887600Y8899363D01*
X44887600Y8899363D02*
X45011409Y8837459D01*
X45011409Y8837459D02*
X45259028Y8837459D01*
X45259028Y8837459D02*
X45382838Y8899363D01*
X45382838Y8899363D02*
X45444743Y8961268D01*
X45444743Y8961268D02*
X45506647Y9085078D01*
X45506647Y9085078D02*
X45506647Y10137459D01*
X46063791Y9208887D02*
X46682838Y9208887D01*
X45939981Y8837459D02*
X46373314Y10137459D01*
X46373314Y10137459D02*
X46806648Y8837459D01*
X47982838Y8837459D02*
X47549505Y9456506D01*
X47239981Y8837459D02*
X47239981Y10137459D01*
X47239981Y10137459D02*
X47735219Y10137459D01*
X47735219Y10137459D02*
X47859029Y10075554D01*
X47859029Y10075554D02*
X47920934Y10013649D01*
X47920934Y10013649D02*
X47982838Y9889840D01*
X47982838Y9889840D02*
X47982838Y9704125D01*
X47982838Y9704125D02*
X47920934Y9580316D01*
X47920934Y9580316D02*
X47859029Y9518411D01*
X47859029Y9518411D02*
X47735219Y9456506D01*
X47735219Y9456506D02*
X47239981Y9456506D01*
X48354267Y10137459D02*
X49097124Y10137459D01*
X48725696Y8837459D02*
X48725696Y10137459D01*
X42163790Y6744532D02*
X42163790Y8044532D01*
X42163790Y8044532D02*
X42659028Y8044532D01*
X42659028Y8044532D02*
X42782838Y7982627D01*
X42782838Y7982627D02*
X42844743Y7920722D01*
X42844743Y7920722D02*
X42906647Y7796913D01*
X42906647Y7796913D02*
X42906647Y7611198D01*
X42906647Y7611198D02*
X42844743Y7487389D01*
X42844743Y7487389D02*
X42782838Y7425484D01*
X42782838Y7425484D02*
X42659028Y7363579D01*
X42659028Y7363579D02*
X42163790Y7363579D01*
X43959028Y6806436D02*
X43835219Y6744532D01*
X43835219Y6744532D02*
X43587600Y6744532D01*
X43587600Y6744532D02*
X43463790Y6806436D01*
X43463790Y6806436D02*
X43401886Y6930246D01*
X43401886Y6930246D02*
X43401886Y7425484D01*
X43401886Y7425484D02*
X43463790Y7549294D01*
X43463790Y7549294D02*
X43587600Y7611198D01*
X43587600Y7611198D02*
X43835219Y7611198D01*
X43835219Y7611198D02*
X43959028Y7549294D01*
X43959028Y7549294D02*
X44020933Y7425484D01*
X44020933Y7425484D02*
X44020933Y7301675D01*
X44020933Y7301675D02*
X43401886Y7177865D01*
X44578076Y6744532D02*
X44578076Y7611198D01*
X44578076Y7363579D02*
X44639981Y7487389D01*
X44639981Y7487389D02*
X44701886Y7549294D01*
X44701886Y7549294D02*
X44825695Y7611198D01*
X44825695Y7611198D02*
X44949505Y7611198D01*
X45382838Y6744532D02*
X45382838Y7611198D01*
X45382838Y8044532D02*
X45320934Y7982627D01*
X45320934Y7982627D02*
X45382838Y7920722D01*
X45382838Y7920722D02*
X45444743Y7982627D01*
X45444743Y7982627D02*
X45382838Y8044532D01*
X45382838Y8044532D02*
X45382838Y7920722D01*
X46001886Y7611198D02*
X46001886Y6311198D01*
X46001886Y7549294D02*
X46125696Y7611198D01*
X46125696Y7611198D02*
X46373315Y7611198D01*
X46373315Y7611198D02*
X46497124Y7549294D01*
X46497124Y7549294D02*
X46559029Y7487389D01*
X46559029Y7487389D02*
X46620934Y7363579D01*
X46620934Y7363579D02*
X46620934Y6992151D01*
X46620934Y6992151D02*
X46559029Y6868341D01*
X46559029Y6868341D02*
X46497124Y6806436D01*
X46497124Y6806436D02*
X46373315Y6744532D01*
X46373315Y6744532D02*
X46125696Y6744532D01*
X46125696Y6744532D02*
X46001886Y6806436D01*
X47178076Y6744532D02*
X47178076Y8044532D01*
X47735219Y6744532D02*
X47735219Y7425484D01*
X47735219Y7425484D02*
X47673314Y7549294D01*
X47673314Y7549294D02*
X47549505Y7611198D01*
X47549505Y7611198D02*
X47363791Y7611198D01*
X47363791Y7611198D02*
X47239981Y7549294D01*
X47239981Y7549294D02*
X47178076Y7487389D01*
X48849504Y6806436D02*
X48725695Y6744532D01*
X48725695Y6744532D02*
X48478076Y6744532D01*
X48478076Y6744532D02*
X48354266Y6806436D01*
X48354266Y6806436D02*
X48292362Y6930246D01*
X48292362Y6930246D02*
X48292362Y7425484D01*
X48292362Y7425484D02*
X48354266Y7549294D01*
X48354266Y7549294D02*
X48478076Y7611198D01*
X48478076Y7611198D02*
X48725695Y7611198D01*
X48725695Y7611198D02*
X48849504Y7549294D01*
X48849504Y7549294D02*
X48911409Y7425484D01*
X48911409Y7425484D02*
X48911409Y7301675D01*
X48911409Y7301675D02*
X48292362Y7177865D01*
X49468552Y6744532D02*
X49468552Y7611198D01*
X49468552Y7363579D02*
X49530457Y7487389D01*
X49530457Y7487389D02*
X49592362Y7549294D01*
X49592362Y7549294D02*
X49716171Y7611198D01*
X49716171Y7611198D02*
X49839981Y7611198D01*
X50830457Y6744532D02*
X50830457Y7425484D01*
X50830457Y7425484D02*
X50768552Y7549294D01*
X50768552Y7549294D02*
X50644743Y7611198D01*
X50644743Y7611198D02*
X50397124Y7611198D01*
X50397124Y7611198D02*
X50273314Y7549294D01*
X50830457Y6806436D02*
X50706648Y6744532D01*
X50706648Y6744532D02*
X50397124Y6744532D01*
X50397124Y6744532D02*
X50273314Y6806436D01*
X50273314Y6806436D02*
X50211410Y6930246D01*
X50211410Y6930246D02*
X50211410Y7054056D01*
X50211410Y7054056D02*
X50273314Y7177865D01*
X50273314Y7177865D02*
X50397124Y7239770D01*
X50397124Y7239770D02*
X50706648Y7239770D01*
X50706648Y7239770D02*
X50830457Y7301675D01*
X51635219Y6744532D02*
X51511409Y6806436D01*
X51511409Y6806436D02*
X51449504Y6930246D01*
X51449504Y6930246D02*
X51449504Y8044532D01*
X54285454Y28139618D02*
X54161644Y28201523D01*
X54161644Y28201523D02*
X53975930Y28201523D01*
X53975930Y28201523D02*
X53790216Y28139618D01*
X53790216Y28139618D02*
X53666406Y28015808D01*
X53666406Y28015808D02*
X53604501Y27891999D01*
X53604501Y27891999D02*
X53542597Y27644380D01*
X53542597Y27644380D02*
X53542597Y27458666D01*
X53542597Y27458666D02*
X53604501Y27211047D01*
X53604501Y27211047D02*
X53666406Y27087237D01*
X53666406Y27087237D02*
X53790216Y26963427D01*
X53790216Y26963427D02*
X53975930Y26901523D01*
X53975930Y26901523D02*
X54099739Y26901523D01*
X54099739Y26901523D02*
X54285454Y26963427D01*
X54285454Y26963427D02*
X54347358Y27025332D01*
X54347358Y27025332D02*
X54347358Y27458666D01*
X54347358Y27458666D02*
X54099739Y27458666D01*
X54904501Y26901523D02*
X54904501Y28201523D01*
X54904501Y28201523D02*
X55647358Y26901523D01*
X55647358Y26901523D02*
X55647358Y28201523D01*
X56266406Y26901523D02*
X56266406Y28201523D01*
X56266406Y28201523D02*
X56575930Y28201523D01*
X56575930Y28201523D02*
X56761644Y28139618D01*
X56761644Y28139618D02*
X56885454Y28015808D01*
X56885454Y28015808D02*
X56947359Y27891999D01*
X56947359Y27891999D02*
X57009263Y27644380D01*
X57009263Y27644380D02*
X57009263Y27458666D01*
X57009263Y27458666D02*
X56947359Y27211047D01*
X56947359Y27211047D02*
X56885454Y27087237D01*
X56885454Y27087237D02*
X56761644Y26963427D01*
X56761644Y26963427D02*
X56575930Y26901523D01*
X56575930Y26901523D02*
X56266406Y26901523D01*
X53604501Y24808596D02*
X53604501Y26108596D01*
X53604501Y26108596D02*
X54099739Y26108596D01*
X54099739Y26108596D02*
X54223549Y26046691D01*
X54223549Y26046691D02*
X54285454Y25984786D01*
X54285454Y25984786D02*
X54347358Y25860977D01*
X54347358Y25860977D02*
X54347358Y25675262D01*
X54347358Y25675262D02*
X54285454Y25551453D01*
X54285454Y25551453D02*
X54223549Y25489548D01*
X54223549Y25489548D02*
X54099739Y25427643D01*
X54099739Y25427643D02*
X53604501Y25427643D01*
X55337835Y25489548D02*
X55523549Y25427643D01*
X55523549Y25427643D02*
X55585454Y25365739D01*
X55585454Y25365739D02*
X55647358Y25241929D01*
X55647358Y25241929D02*
X55647358Y25056215D01*
X55647358Y25056215D02*
X55585454Y24932405D01*
X55585454Y24932405D02*
X55523549Y24870500D01*
X55523549Y24870500D02*
X55399739Y24808596D01*
X55399739Y24808596D02*
X54904501Y24808596D01*
X54904501Y24808596D02*
X54904501Y26108596D01*
X54904501Y26108596D02*
X55337835Y26108596D01*
X55337835Y26108596D02*
X55461644Y26046691D01*
X55461644Y26046691D02*
X55523549Y25984786D01*
X55523549Y25984786D02*
X55585454Y25860977D01*
X55585454Y25860977D02*
X55585454Y25737167D01*
X55585454Y25737167D02*
X55523549Y25613358D01*
X55523549Y25613358D02*
X55461644Y25551453D01*
X55461644Y25551453D02*
X55337835Y25489548D01*
X55337835Y25489548D02*
X54904501Y25489548D01*
X56823549Y26108596D02*
X56204501Y26108596D01*
X56204501Y26108596D02*
X56142597Y25489548D01*
X56142597Y25489548D02*
X56204501Y25551453D01*
X56204501Y25551453D02*
X56328311Y25613358D01*
X56328311Y25613358D02*
X56637835Y25613358D01*
X56637835Y25613358D02*
X56761644Y25551453D01*
X56761644Y25551453D02*
X56823549Y25489548D01*
X56823549Y25489548D02*
X56885454Y25365739D01*
X56885454Y25365739D02*
X56885454Y25056215D01*
X56885454Y25056215D02*
X56823549Y24932405D01*
X56823549Y24932405D02*
X56761644Y24870500D01*
X56761644Y24870500D02*
X56637835Y24808596D01*
X56637835Y24808596D02*
X56328311Y24808596D01*
X56328311Y24808596D02*
X56204501Y24870500D01*
X56204501Y24870500D02*
X56142597Y24932405D01*
X53480692Y24015669D02*
X54285454Y24015669D01*
X54285454Y24015669D02*
X53852120Y23520431D01*
X53852120Y23520431D02*
X54037835Y23520431D01*
X54037835Y23520431D02*
X54161644Y23458526D01*
X54161644Y23458526D02*
X54223549Y23396621D01*
X54223549Y23396621D02*
X54285454Y23272812D01*
X54285454Y23272812D02*
X54285454Y22963288D01*
X54285454Y22963288D02*
X54223549Y22839478D01*
X54223549Y22839478D02*
X54161644Y22777573D01*
X54161644Y22777573D02*
X54037835Y22715669D01*
X54037835Y22715669D02*
X53666406Y22715669D01*
X53666406Y22715669D02*
X53542597Y22777573D01*
X53542597Y22777573D02*
X53480692Y22839478D01*
X54656882Y24015669D02*
X55090215Y22715669D01*
X55090215Y22715669D02*
X55523549Y24015669D01*
X55833073Y24015669D02*
X56637835Y24015669D01*
X56637835Y24015669D02*
X56204501Y23520431D01*
X56204501Y23520431D02*
X56390216Y23520431D01*
X56390216Y23520431D02*
X56514025Y23458526D01*
X56514025Y23458526D02*
X56575930Y23396621D01*
X56575930Y23396621D02*
X56637835Y23272812D01*
X56637835Y23272812D02*
X56637835Y22963288D01*
X56637835Y22963288D02*
X56575930Y22839478D01*
X56575930Y22839478D02*
X56514025Y22777573D01*
X56514025Y22777573D02*
X56390216Y22715669D01*
X56390216Y22715669D02*
X56018787Y22715669D01*
X56018787Y22715669D02*
X55894978Y22777573D01*
X55894978Y22777573D02*
X55833073Y22839478D01*
X62668604Y45175991D02*
X61368604Y45175991D01*
X61368604Y45175991D02*
X61368604Y45671229D01*
X61368604Y45671229D02*
X61430509Y45795039D01*
X61430509Y45795039D02*
X61492414Y45856944D01*
X61492414Y45856944D02*
X61616223Y45918848D01*
X61616223Y45918848D02*
X61801938Y45918848D01*
X61801938Y45918848D02*
X61925747Y45856944D01*
X61925747Y45856944D02*
X61987652Y45795039D01*
X61987652Y45795039D02*
X62049557Y45671229D01*
X62049557Y45671229D02*
X62049557Y45175991D01*
X61368604Y46352182D02*
X62668604Y46661706D01*
X62668604Y46661706D02*
X61740033Y46909325D01*
X61740033Y46909325D02*
X62668604Y47156944D01*
X62668604Y47156944D02*
X61368604Y47466467D01*
X62668604Y48704562D02*
X62049557Y48271229D01*
X62668604Y47961705D02*
X61368604Y47961705D01*
X61368604Y47961705D02*
X61368604Y48456943D01*
X61368604Y48456943D02*
X61430509Y48580753D01*
X61430509Y48580753D02*
X61492414Y48642658D01*
X61492414Y48642658D02*
X61616223Y48704562D01*
X61616223Y48704562D02*
X61801938Y48704562D01*
X61801938Y48704562D02*
X61925747Y48642658D01*
X61925747Y48642658D02*
X61987652Y48580753D01*
X61987652Y48580753D02*
X62049557Y48456943D01*
X62049557Y48456943D02*
X62049557Y47961705D01*
X61368604Y50128372D02*
X61368604Y50933134D01*
X61368604Y50933134D02*
X61863842Y50499800D01*
X61863842Y50499800D02*
X61863842Y50685515D01*
X61863842Y50685515D02*
X61925747Y50809324D01*
X61925747Y50809324D02*
X61987652Y50871229D01*
X61987652Y50871229D02*
X62111461Y50933134D01*
X62111461Y50933134D02*
X62420985Y50933134D01*
X62420985Y50933134D02*
X62544795Y50871229D01*
X62544795Y50871229D02*
X62606700Y50809324D01*
X62606700Y50809324D02*
X62668604Y50685515D01*
X62668604Y50685515D02*
X62668604Y50314086D01*
X62668604Y50314086D02*
X62606700Y50190277D01*
X62606700Y50190277D02*
X62544795Y50128372D01*
X61368604Y51304562D02*
X62668604Y51737895D01*
X62668604Y51737895D02*
X61368604Y52171229D01*
X61368604Y52480753D02*
X61368604Y53285515D01*
X61368604Y53285515D02*
X61863842Y52852181D01*
X61863842Y52852181D02*
X61863842Y53037896D01*
X61863842Y53037896D02*
X61925747Y53161705D01*
X61925747Y53161705D02*
X61987652Y53223610D01*
X61987652Y53223610D02*
X62111461Y53285515D01*
X62111461Y53285515D02*
X62420985Y53285515D01*
X62420985Y53285515D02*
X62544795Y53223610D01*
X62544795Y53223610D02*
X62606700Y53161705D01*
X62606700Y53161705D02*
X62668604Y53037896D01*
X62668604Y53037896D02*
X62668604Y52666467D01*
X62668604Y52666467D02*
X62606700Y52542658D01*
X62606700Y52542658D02*
X62544795Y52480753D01*
X58747358Y26901523D02*
X58314025Y27520570D01*
X58004501Y26901523D02*
X58004501Y28201523D01*
X58004501Y28201523D02*
X58499739Y28201523D01*
X58499739Y28201523D02*
X58623549Y28139618D01*
X58623549Y28139618D02*
X58685454Y28077713D01*
X58685454Y28077713D02*
X58747358Y27953904D01*
X58747358Y27953904D02*
X58747358Y27768189D01*
X58747358Y27768189D02*
X58685454Y27644380D01*
X58685454Y27644380D02*
X58623549Y27582475D01*
X58623549Y27582475D02*
X58499739Y27520570D01*
X58499739Y27520570D02*
X58004501Y27520570D01*
X59242597Y26963427D02*
X59428311Y26901523D01*
X59428311Y26901523D02*
X59737835Y26901523D01*
X59737835Y26901523D02*
X59861644Y26963427D01*
X59861644Y26963427D02*
X59923549Y27025332D01*
X59923549Y27025332D02*
X59985454Y27149142D01*
X59985454Y27149142D02*
X59985454Y27272951D01*
X59985454Y27272951D02*
X59923549Y27396761D01*
X59923549Y27396761D02*
X59861644Y27458666D01*
X59861644Y27458666D02*
X59737835Y27520570D01*
X59737835Y27520570D02*
X59490216Y27582475D01*
X59490216Y27582475D02*
X59366406Y27644380D01*
X59366406Y27644380D02*
X59304501Y27706285D01*
X59304501Y27706285D02*
X59242597Y27830094D01*
X59242597Y27830094D02*
X59242597Y27953904D01*
X59242597Y27953904D02*
X59304501Y28077713D01*
X59304501Y28077713D02*
X59366406Y28139618D01*
X59366406Y28139618D02*
X59490216Y28201523D01*
X59490216Y28201523D02*
X59799739Y28201523D01*
X59799739Y28201523D02*
X59985454Y28139618D01*
X60356882Y28201523D02*
X61099739Y28201523D01*
X60728311Y26901523D02*
X60728311Y28201523D01*
X57824978Y28562427D02*
X61093549Y28562427D01*
X58004501Y24808596D02*
X58004501Y26108596D01*
X58004501Y26108596D02*
X58499739Y26108596D01*
X58499739Y26108596D02*
X58623549Y26046691D01*
X58623549Y26046691D02*
X58685454Y25984786D01*
X58685454Y25984786D02*
X58747358Y25860977D01*
X58747358Y25860977D02*
X58747358Y25675262D01*
X58747358Y25675262D02*
X58685454Y25551453D01*
X58685454Y25551453D02*
X58623549Y25489548D01*
X58623549Y25489548D02*
X58499739Y25427643D01*
X58499739Y25427643D02*
X58004501Y25427643D01*
X59737835Y25489548D02*
X59923549Y25427643D01*
X59923549Y25427643D02*
X59985454Y25365739D01*
X59985454Y25365739D02*
X60047358Y25241929D01*
X60047358Y25241929D02*
X60047358Y25056215D01*
X60047358Y25056215D02*
X59985454Y24932405D01*
X59985454Y24932405D02*
X59923549Y24870500D01*
X59923549Y24870500D02*
X59799739Y24808596D01*
X59799739Y24808596D02*
X59304501Y24808596D01*
X59304501Y24808596D02*
X59304501Y26108596D01*
X59304501Y26108596D02*
X59737835Y26108596D01*
X59737835Y26108596D02*
X59861644Y26046691D01*
X59861644Y26046691D02*
X59923549Y25984786D01*
X59923549Y25984786D02*
X59985454Y25860977D01*
X59985454Y25860977D02*
X59985454Y25737167D01*
X59985454Y25737167D02*
X59923549Y25613358D01*
X59923549Y25613358D02*
X59861644Y25551453D01*
X59861644Y25551453D02*
X59737835Y25489548D01*
X59737835Y25489548D02*
X59304501Y25489548D01*
X60480692Y26108596D02*
X61347358Y26108596D01*
X61347358Y26108596D02*
X60790216Y24808596D01*
X58004501Y22715669D02*
X58004501Y24015669D01*
X58004501Y24015669D02*
X58499739Y24015669D01*
X58499739Y24015669D02*
X58623549Y23953764D01*
X58623549Y23953764D02*
X58685454Y23891859D01*
X58685454Y23891859D02*
X58747358Y23768050D01*
X58747358Y23768050D02*
X58747358Y23582335D01*
X58747358Y23582335D02*
X58685454Y23458526D01*
X58685454Y23458526D02*
X58623549Y23396621D01*
X58623549Y23396621D02*
X58499739Y23334716D01*
X58499739Y23334716D02*
X58004501Y23334716D01*
X59737835Y23396621D02*
X59923549Y23334716D01*
X59923549Y23334716D02*
X59985454Y23272812D01*
X59985454Y23272812D02*
X60047358Y23149002D01*
X60047358Y23149002D02*
X60047358Y22963288D01*
X60047358Y22963288D02*
X59985454Y22839478D01*
X59985454Y22839478D02*
X59923549Y22777573D01*
X59923549Y22777573D02*
X59799739Y22715669D01*
X59799739Y22715669D02*
X59304501Y22715669D01*
X59304501Y22715669D02*
X59304501Y24015669D01*
X59304501Y24015669D02*
X59737835Y24015669D01*
X59737835Y24015669D02*
X59861644Y23953764D01*
X59861644Y23953764D02*
X59923549Y23891859D01*
X59923549Y23891859D02*
X59985454Y23768050D01*
X59985454Y23768050D02*
X59985454Y23644240D01*
X59985454Y23644240D02*
X59923549Y23520431D01*
X59923549Y23520431D02*
X59861644Y23458526D01*
X59861644Y23458526D02*
X59737835Y23396621D01*
X59737835Y23396621D02*
X59304501Y23396621D01*
X61161644Y24015669D02*
X60914025Y24015669D01*
X60914025Y24015669D02*
X60790216Y23953764D01*
X60790216Y23953764D02*
X60728311Y23891859D01*
X60728311Y23891859D02*
X60604501Y23706145D01*
X60604501Y23706145D02*
X60542597Y23458526D01*
X60542597Y23458526D02*
X60542597Y22963288D01*
X60542597Y22963288D02*
X60604501Y22839478D01*
X60604501Y22839478D02*
X60666406Y22777573D01*
X60666406Y22777573D02*
X60790216Y22715669D01*
X60790216Y22715669D02*
X61037835Y22715669D01*
X61037835Y22715669D02*
X61161644Y22777573D01*
X61161644Y22777573D02*
X61223549Y22839478D01*
X61223549Y22839478D02*
X61285454Y22963288D01*
X61285454Y22963288D02*
X61285454Y23272812D01*
X61285454Y23272812D02*
X61223549Y23396621D01*
X61223549Y23396621D02*
X61161644Y23458526D01*
X61161644Y23458526D02*
X61037835Y23520431D01*
X61037835Y23520431D02*
X60790216Y23520431D01*
X60790216Y23520431D02*
X60666406Y23458526D01*
X60666406Y23458526D02*
X60604501Y23396621D01*
X60604501Y23396621D02*
X60542597Y23272812D01*
X31758325Y35202196D02*
X32501182Y35202196D01*
X32129754Y33902196D02*
X32129754Y35202196D01*
X32934515Y33902196D02*
X32934515Y35202196D01*
X33491658Y33902196D02*
X33491658Y34583148D01*
X33491658Y34583148D02*
X33429753Y34706958D01*
X33429753Y34706958D02*
X33305944Y34768862D01*
X33305944Y34768862D02*
X33120230Y34768862D01*
X33120230Y34768862D02*
X32996420Y34706958D01*
X32996420Y34706958D02*
X32934515Y34645053D01*
X34667848Y34768862D02*
X34667848Y33902196D01*
X34110705Y34768862D02*
X34110705Y34087910D01*
X34110705Y34087910D02*
X34172610Y33964100D01*
X34172610Y33964100D02*
X34296420Y33902196D01*
X34296420Y33902196D02*
X34482134Y33902196D01*
X34482134Y33902196D02*
X34605943Y33964100D01*
X34605943Y33964100D02*
X34667848Y34026005D01*
X35286895Y34768862D02*
X35286895Y33902196D01*
X35286895Y34645053D02*
X35348800Y34706958D01*
X35348800Y34706958D02*
X35472610Y34768862D01*
X35472610Y34768862D02*
X35658324Y34768862D01*
X35658324Y34768862D02*
X35782133Y34706958D01*
X35782133Y34706958D02*
X35844038Y34583148D01*
X35844038Y34583148D02*
X35844038Y33902196D01*
X37020228Y33902196D02*
X37020228Y35202196D01*
X37020228Y33964100D02*
X36896419Y33902196D01*
X36896419Y33902196D02*
X36648800Y33902196D01*
X36648800Y33902196D02*
X36524990Y33964100D01*
X36524990Y33964100D02*
X36463085Y34026005D01*
X36463085Y34026005D02*
X36401181Y34149815D01*
X36401181Y34149815D02*
X36401181Y34521243D01*
X36401181Y34521243D02*
X36463085Y34645053D01*
X36463085Y34645053D02*
X36524990Y34706958D01*
X36524990Y34706958D02*
X36648800Y34768862D01*
X36648800Y34768862D02*
X36896419Y34768862D01*
X36896419Y34768862D02*
X37020228Y34706958D01*
X38134513Y33964100D02*
X38010704Y33902196D01*
X38010704Y33902196D02*
X37763085Y33902196D01*
X37763085Y33902196D02*
X37639275Y33964100D01*
X37639275Y33964100D02*
X37577371Y34087910D01*
X37577371Y34087910D02*
X37577371Y34583148D01*
X37577371Y34583148D02*
X37639275Y34706958D01*
X37639275Y34706958D02*
X37763085Y34768862D01*
X37763085Y34768862D02*
X38010704Y34768862D01*
X38010704Y34768862D02*
X38134513Y34706958D01*
X38134513Y34706958D02*
X38196418Y34583148D01*
X38196418Y34583148D02*
X38196418Y34459339D01*
X38196418Y34459339D02*
X37577371Y34335529D01*
X38753561Y33902196D02*
X38753561Y34768862D01*
X38753561Y34521243D02*
X38815466Y34645053D01*
X38815466Y34645053D02*
X38877371Y34706958D01*
X38877371Y34706958D02*
X39001180Y34768862D01*
X39001180Y34768862D02*
X39124990Y34768862D01*
X39991657Y34583148D02*
X39558323Y34583148D01*
X39558323Y33902196D02*
X39558323Y35202196D01*
X39558323Y35202196D02*
X40177371Y35202196D01*
X40858324Y33902196D02*
X40734514Y33964100D01*
X40734514Y33964100D02*
X40672609Y34087910D01*
X40672609Y34087910D02*
X40672609Y35202196D01*
X41229752Y34768862D02*
X41539276Y33902196D01*
X41848799Y34768862D02*
X41539276Y33902196D01*
X41539276Y33902196D02*
X41415466Y33592672D01*
X41415466Y33592672D02*
X41353561Y33530767D01*
X41353561Y33530767D02*
X41229752Y33468862D01*
X42344037Y34026005D02*
X42405942Y33964100D01*
X42405942Y33964100D02*
X42344037Y33902196D01*
X42344037Y33902196D02*
X42282133Y33964100D01*
X42282133Y33964100D02*
X42344037Y34026005D01*
X42344037Y34026005D02*
X42344037Y33902196D01*
X43520228Y33964100D02*
X43396419Y33902196D01*
X43396419Y33902196D02*
X43148800Y33902196D01*
X43148800Y33902196D02*
X43024990Y33964100D01*
X43024990Y33964100D02*
X42963085Y34026005D01*
X42963085Y34026005D02*
X42901181Y34149815D01*
X42901181Y34149815D02*
X42901181Y34521243D01*
X42901181Y34521243D02*
X42963085Y34645053D01*
X42963085Y34645053D02*
X43024990Y34706958D01*
X43024990Y34706958D02*
X43148800Y34768862D01*
X43148800Y34768862D02*
X43396419Y34768862D01*
X43396419Y34768862D02*
X43520228Y34706958D01*
X43953562Y34768862D02*
X44634514Y34768862D01*
X44634514Y34768862D02*
X43953562Y33902196D01*
X43953562Y33902196D02*
X44634514Y33902196D01*
X46058324Y35078386D02*
X46120228Y35140291D01*
X46120228Y35140291D02*
X46244038Y35202196D01*
X46244038Y35202196D02*
X46553562Y35202196D01*
X46553562Y35202196D02*
X46677371Y35140291D01*
X46677371Y35140291D02*
X46739276Y35078386D01*
X46739276Y35078386D02*
X46801181Y34954577D01*
X46801181Y34954577D02*
X46801181Y34830767D01*
X46801181Y34830767D02*
X46739276Y34645053D01*
X46739276Y34645053D02*
X45996419Y33902196D01*
X45996419Y33902196D02*
X46801181Y33902196D01*
X47605942Y35202196D02*
X47729752Y35202196D01*
X47729752Y35202196D02*
X47853561Y35140291D01*
X47853561Y35140291D02*
X47915466Y35078386D01*
X47915466Y35078386D02*
X47977371Y34954577D01*
X47977371Y34954577D02*
X48039276Y34706958D01*
X48039276Y34706958D02*
X48039276Y34397434D01*
X48039276Y34397434D02*
X47977371Y34149815D01*
X47977371Y34149815D02*
X47915466Y34026005D01*
X47915466Y34026005D02*
X47853561Y33964100D01*
X47853561Y33964100D02*
X47729752Y33902196D01*
X47729752Y33902196D02*
X47605942Y33902196D01*
X47605942Y33902196D02*
X47482133Y33964100D01*
X47482133Y33964100D02*
X47420228Y34026005D01*
X47420228Y34026005D02*
X47358323Y34149815D01*
X47358323Y34149815D02*
X47296419Y34397434D01*
X47296419Y34397434D02*
X47296419Y34706958D01*
X47296419Y34706958D02*
X47358323Y34954577D01*
X47358323Y34954577D02*
X47420228Y35078386D01*
X47420228Y35078386D02*
X47482133Y35140291D01*
X47482133Y35140291D02*
X47605942Y35202196D01*
X48534514Y35078386D02*
X48596418Y35140291D01*
X48596418Y35140291D02*
X48720228Y35202196D01*
X48720228Y35202196D02*
X49029752Y35202196D01*
X49029752Y35202196D02*
X49153561Y35140291D01*
X49153561Y35140291D02*
X49215466Y35078386D01*
X49215466Y35078386D02*
X49277371Y34954577D01*
X49277371Y34954577D02*
X49277371Y34830767D01*
X49277371Y34830767D02*
X49215466Y34645053D01*
X49215466Y34645053D02*
X48472609Y33902196D01*
X48472609Y33902196D02*
X49277371Y33902196D01*
X50453561Y35202196D02*
X49834513Y35202196D01*
X49834513Y35202196D02*
X49772609Y34583148D01*
X49772609Y34583148D02*
X49834513Y34645053D01*
X49834513Y34645053D02*
X49958323Y34706958D01*
X49958323Y34706958D02*
X50267847Y34706958D01*
X50267847Y34706958D02*
X50391656Y34645053D01*
X50391656Y34645053D02*
X50453561Y34583148D01*
X50453561Y34583148D02*
X50515466Y34459339D01*
X50515466Y34459339D02*
X50515466Y34149815D01*
X50515466Y34149815D02*
X50453561Y34026005D01*
X50453561Y34026005D02*
X50391656Y33964100D01*
X50391656Y33964100D02*
X50267847Y33902196D01*
X50267847Y33902196D02*
X49958323Y33902196D01*
X49958323Y33902196D02*
X49834513Y33964100D01*
X49834513Y33964100D02*
X49772609Y34026005D01*
X7003438Y36619996D02*
X6384390Y36619996D01*
X6384390Y36619996D02*
X6384390Y37919996D01*
X7436771Y37300948D02*
X7870105Y37300948D01*
X8055819Y36619996D02*
X7436771Y36619996D01*
X7436771Y36619996D02*
X7436771Y37919996D01*
X7436771Y37919996D02*
X8055819Y37919996D01*
X8612961Y36619996D02*
X8612961Y37919996D01*
X8612961Y37919996D02*
X8922485Y37919996D01*
X8922485Y37919996D02*
X9108199Y37858091D01*
X9108199Y37858091D02*
X9232009Y37734281D01*
X9232009Y37734281D02*
X9293914Y37610472D01*
X9293914Y37610472D02*
X9355818Y37362853D01*
X9355818Y37362853D02*
X9355818Y37177139D01*
X9355818Y37177139D02*
X9293914Y36929520D01*
X9293914Y36929520D02*
X9232009Y36805710D01*
X9232009Y36805710D02*
X9108199Y36681900D01*
X9108199Y36681900D02*
X8922485Y36619996D01*
X8922485Y36619996D02*
X8612961Y36619996D01*
X9851057Y37796186D02*
X9912961Y37858091D01*
X9912961Y37858091D02*
X10036771Y37919996D01*
X10036771Y37919996D02*
X10346295Y37919996D01*
X10346295Y37919996D02*
X10470104Y37858091D01*
X10470104Y37858091D02*
X10532009Y37796186D01*
X10532009Y37796186D02*
X10593914Y37672377D01*
X10593914Y37672377D02*
X10593914Y37548567D01*
X10593914Y37548567D02*
X10532009Y37362853D01*
X10532009Y37362853D02*
X9789152Y36619996D01*
X9789152Y36619996D02*
X10593914Y36619996D01*
X6978038Y31870196D02*
X6358990Y31870196D01*
X6358990Y31870196D02*
X6358990Y33170196D01*
X7411371Y32551148D02*
X7844705Y32551148D01*
X8030419Y31870196D02*
X7411371Y31870196D01*
X7411371Y31870196D02*
X7411371Y33170196D01*
X7411371Y33170196D02*
X8030419Y33170196D01*
X8587561Y31870196D02*
X8587561Y33170196D01*
X8587561Y33170196D02*
X8897085Y33170196D01*
X8897085Y33170196D02*
X9082799Y33108291D01*
X9082799Y33108291D02*
X9206609Y32984481D01*
X9206609Y32984481D02*
X9268514Y32860672D01*
X9268514Y32860672D02*
X9330418Y32613053D01*
X9330418Y32613053D02*
X9330418Y32427339D01*
X9330418Y32427339D02*
X9268514Y32179720D01*
X9268514Y32179720D02*
X9206609Y32055910D01*
X9206609Y32055910D02*
X9082799Y31932100D01*
X9082799Y31932100D02*
X8897085Y31870196D01*
X8897085Y31870196D02*
X8587561Y31870196D01*
X10568514Y31870196D02*
X9825657Y31870196D01*
X10197085Y31870196D02*
X10197085Y33170196D01*
X10197085Y33170196D02*
X10073276Y32984481D01*
X10073276Y32984481D02*
X9949466Y32860672D01*
X9949466Y32860672D02*
X9825657Y32798767D01*
D10*
X75181619Y21441353D02*
X74181619Y21441353D01*
X75181619Y22012781D02*
X74610190Y21584210D01*
X74181619Y22012781D02*
X74753047Y21441353D01*
X74895904Y22393734D02*
X74895904Y22869924D01*
X75181619Y22298496D02*
X74181619Y22631829D01*
X74181619Y22631829D02*
X75181619Y22965162D01*
X75181619Y23298496D02*
X74181619Y23298496D01*
X75181619Y23869924D02*
X74610190Y23441353D01*
X74181619Y23869924D02*
X74753047Y23298496D01*
X75181619Y24774686D02*
X75181619Y24298496D01*
X75181619Y24298496D02*
X74181619Y24298496D01*
X75181619Y25108020D02*
X74181619Y25108020D01*
X75181619Y25584210D02*
X74181619Y25584210D01*
X75181619Y26155638D02*
X74610190Y25727067D01*
X74181619Y26155638D02*
X74753047Y25584210D01*
X74276857Y27298496D02*
X74229238Y27346115D01*
X74229238Y27346115D02*
X74181619Y27441353D01*
X74181619Y27441353D02*
X74181619Y27679448D01*
X74181619Y27679448D02*
X74229238Y27774686D01*
X74229238Y27774686D02*
X74276857Y27822305D01*
X74276857Y27822305D02*
X74372095Y27869924D01*
X74372095Y27869924D02*
X74467333Y27869924D01*
X74467333Y27869924D02*
X74610190Y27822305D01*
X74610190Y27822305D02*
X75181619Y27250877D01*
X75181619Y27250877D02*
X75181619Y27869924D01*
X74181619Y28488972D02*
X74181619Y28584210D01*
X74181619Y28584210D02*
X74229238Y28679448D01*
X74229238Y28679448D02*
X74276857Y28727067D01*
X74276857Y28727067D02*
X74372095Y28774686D01*
X74372095Y28774686D02*
X74562571Y28822305D01*
X74562571Y28822305D02*
X74800666Y28822305D01*
X74800666Y28822305D02*
X74991142Y28774686D01*
X74991142Y28774686D02*
X75086380Y28727067D01*
X75086380Y28727067D02*
X75134000Y28679448D01*
X75134000Y28679448D02*
X75181619Y28584210D01*
X75181619Y28584210D02*
X75181619Y28488972D01*
X75181619Y28488972D02*
X75134000Y28393734D01*
X75134000Y28393734D02*
X75086380Y28346115D01*
X75086380Y28346115D02*
X74991142Y28298496D01*
X74991142Y28298496D02*
X74800666Y28250877D01*
X74800666Y28250877D02*
X74562571Y28250877D01*
X74562571Y28250877D02*
X74372095Y28298496D01*
X74372095Y28298496D02*
X74276857Y28346115D01*
X74276857Y28346115D02*
X74229238Y28393734D01*
X74229238Y28393734D02*
X74181619Y28488972D01*
X74276857Y29203258D02*
X74229238Y29250877D01*
X74229238Y29250877D02*
X74181619Y29346115D01*
X74181619Y29346115D02*
X74181619Y29584210D01*
X74181619Y29584210D02*
X74229238Y29679448D01*
X74229238Y29679448D02*
X74276857Y29727067D01*
X74276857Y29727067D02*
X74372095Y29774686D01*
X74372095Y29774686D02*
X74467333Y29774686D01*
X74467333Y29774686D02*
X74610190Y29727067D01*
X74610190Y29727067D02*
X75181619Y29155639D01*
X75181619Y29155639D02*
X75181619Y29774686D01*
X74181619Y30679448D02*
X74181619Y30203258D01*
X74181619Y30203258D02*
X74657809Y30155639D01*
X74657809Y30155639D02*
X74610190Y30203258D01*
X74610190Y30203258D02*
X74562571Y30298496D01*
X74562571Y30298496D02*
X74562571Y30536591D01*
X74562571Y30536591D02*
X74610190Y30631829D01*
X74610190Y30631829D02*
X74657809Y30679448D01*
X74657809Y30679448D02*
X74753047Y30727067D01*
X74753047Y30727067D02*
X74991142Y30727067D01*
X74991142Y30727067D02*
X75086380Y30679448D01*
X75086380Y30679448D02*
X75134000Y30631829D01*
X75134000Y30631829D02*
X75181619Y30536591D01*
X75181619Y30536591D02*
X75181619Y30298496D01*
X75181619Y30298496D02*
X75134000Y30203258D01*
X75134000Y30203258D02*
X75086380Y30155639D01*
D12*
X58486048Y9385527D02*
X58671762Y9323623D01*
X58671762Y9323623D02*
X58981286Y9323623D01*
X58981286Y9323623D02*
X59105095Y9385527D01*
X59105095Y9385527D02*
X59167000Y9447432D01*
X59167000Y9447432D02*
X59228905Y9571242D01*
X59228905Y9571242D02*
X59228905Y9695051D01*
X59228905Y9695051D02*
X59167000Y9818861D01*
X59167000Y9818861D02*
X59105095Y9880766D01*
X59105095Y9880766D02*
X58981286Y9942670D01*
X58981286Y9942670D02*
X58733667Y10004575D01*
X58733667Y10004575D02*
X58609857Y10066480D01*
X58609857Y10066480D02*
X58547952Y10128385D01*
X58547952Y10128385D02*
X58486048Y10252194D01*
X58486048Y10252194D02*
X58486048Y10376004D01*
X58486048Y10376004D02*
X58547952Y10499813D01*
X58547952Y10499813D02*
X58609857Y10561718D01*
X58609857Y10561718D02*
X58733667Y10623623D01*
X58733667Y10623623D02*
X59043190Y10623623D01*
X59043190Y10623623D02*
X59228905Y10561718D01*
X59786047Y9323623D02*
X59786047Y10623623D01*
X59786047Y10623623D02*
X60281285Y10623623D01*
X60281285Y10623623D02*
X60405095Y10561718D01*
X60405095Y10561718D02*
X60467000Y10499813D01*
X60467000Y10499813D02*
X60528904Y10376004D01*
X60528904Y10376004D02*
X60528904Y10190289D01*
X60528904Y10190289D02*
X60467000Y10066480D01*
X60467000Y10066480D02*
X60405095Y10004575D01*
X60405095Y10004575D02*
X60281285Y9942670D01*
X60281285Y9942670D02*
X59786047Y9942670D01*
X61086047Y9323623D02*
X61086047Y10623623D01*
X56814619Y7230696D02*
X56814619Y8097362D01*
X56814619Y7973553D02*
X56876524Y8035458D01*
X56876524Y8035458D02*
X57000334Y8097362D01*
X57000334Y8097362D02*
X57186048Y8097362D01*
X57186048Y8097362D02*
X57309857Y8035458D01*
X57309857Y8035458D02*
X57371762Y7911648D01*
X57371762Y7911648D02*
X57371762Y7230696D01*
X57371762Y7911648D02*
X57433667Y8035458D01*
X57433667Y8035458D02*
X57557476Y8097362D01*
X57557476Y8097362D02*
X57743191Y8097362D01*
X57743191Y8097362D02*
X57867000Y8035458D01*
X57867000Y8035458D02*
X57928905Y7911648D01*
X57928905Y7911648D02*
X57928905Y7230696D01*
X59105095Y7230696D02*
X59105095Y7911648D01*
X59105095Y7911648D02*
X59043190Y8035458D01*
X59043190Y8035458D02*
X58919381Y8097362D01*
X58919381Y8097362D02*
X58671762Y8097362D01*
X58671762Y8097362D02*
X58547952Y8035458D01*
X59105095Y7292600D02*
X58981286Y7230696D01*
X58981286Y7230696D02*
X58671762Y7230696D01*
X58671762Y7230696D02*
X58547952Y7292600D01*
X58547952Y7292600D02*
X58486048Y7416410D01*
X58486048Y7416410D02*
X58486048Y7540220D01*
X58486048Y7540220D02*
X58547952Y7664029D01*
X58547952Y7664029D02*
X58671762Y7725934D01*
X58671762Y7725934D02*
X58981286Y7725934D01*
X58981286Y7725934D02*
X59105095Y7787839D01*
X59662238Y7292600D02*
X59786047Y7230696D01*
X59786047Y7230696D02*
X60033666Y7230696D01*
X60033666Y7230696D02*
X60157476Y7292600D01*
X60157476Y7292600D02*
X60219380Y7416410D01*
X60219380Y7416410D02*
X60219380Y7478315D01*
X60219380Y7478315D02*
X60157476Y7602124D01*
X60157476Y7602124D02*
X60033666Y7664029D01*
X60033666Y7664029D02*
X59847952Y7664029D01*
X59847952Y7664029D02*
X59724142Y7725934D01*
X59724142Y7725934D02*
X59662238Y7849743D01*
X59662238Y7849743D02*
X59662238Y7911648D01*
X59662238Y7911648D02*
X59724142Y8035458D01*
X59724142Y8035458D02*
X59847952Y8097362D01*
X59847952Y8097362D02*
X60033666Y8097362D01*
X60033666Y8097362D02*
X60157476Y8035458D01*
X60590809Y8097362D02*
X61086047Y8097362D01*
X60776523Y8530696D02*
X60776523Y7416410D01*
X60776523Y7416410D02*
X60838428Y7292600D01*
X60838428Y7292600D02*
X60962238Y7230696D01*
X60962238Y7230696D02*
X61086047Y7230696D01*
X62014618Y7292600D02*
X61890809Y7230696D01*
X61890809Y7230696D02*
X61643190Y7230696D01*
X61643190Y7230696D02*
X61519380Y7292600D01*
X61519380Y7292600D02*
X61457476Y7416410D01*
X61457476Y7416410D02*
X61457476Y7911648D01*
X61457476Y7911648D02*
X61519380Y8035458D01*
X61519380Y8035458D02*
X61643190Y8097362D01*
X61643190Y8097362D02*
X61890809Y8097362D01*
X61890809Y8097362D02*
X62014618Y8035458D01*
X62014618Y8035458D02*
X62076523Y7911648D01*
X62076523Y7911648D02*
X62076523Y7787839D01*
X62076523Y7787839D02*
X61457476Y7664029D01*
X62633666Y7230696D02*
X62633666Y8097362D01*
X62633666Y7849743D02*
X62695571Y7973553D01*
X62695571Y7973553D02*
X62757476Y8035458D01*
X62757476Y8035458D02*
X62881285Y8097362D01*
X62881285Y8097362D02*
X63005095Y8097362D01*
X6774838Y40912596D02*
X6155790Y40912596D01*
X6155790Y40912596D02*
X6155790Y42212596D01*
X7208171Y41593548D02*
X7641505Y41593548D01*
X7827219Y40912596D02*
X7208171Y40912596D01*
X7208171Y40912596D02*
X7208171Y42212596D01*
X7208171Y42212596D02*
X7827219Y42212596D01*
X8384361Y40912596D02*
X8384361Y42212596D01*
X8384361Y42212596D02*
X8693885Y42212596D01*
X8693885Y42212596D02*
X8879599Y42150691D01*
X8879599Y42150691D02*
X9003409Y42026881D01*
X9003409Y42026881D02*
X9065314Y41903072D01*
X9065314Y41903072D02*
X9127218Y41655453D01*
X9127218Y41655453D02*
X9127218Y41469739D01*
X9127218Y41469739D02*
X9065314Y41222120D01*
X9065314Y41222120D02*
X9003409Y41098310D01*
X9003409Y41098310D02*
X8879599Y40974500D01*
X8879599Y40974500D02*
X8693885Y40912596D01*
X8693885Y40912596D02*
X8384361Y40912596D01*
X9560552Y42212596D02*
X10365314Y42212596D01*
X10365314Y42212596D02*
X9931980Y41717358D01*
X9931980Y41717358D02*
X10117695Y41717358D01*
X10117695Y41717358D02*
X10241504Y41655453D01*
X10241504Y41655453D02*
X10303409Y41593548D01*
X10303409Y41593548D02*
X10365314Y41469739D01*
X10365314Y41469739D02*
X10365314Y41160215D01*
X10365314Y41160215D02*
X10303409Y41036405D01*
X10303409Y41036405D02*
X10241504Y40974500D01*
X10241504Y40974500D02*
X10117695Y40912596D01*
X10117695Y40912596D02*
X9746266Y40912596D01*
X9746266Y40912596D02*
X9622457Y40974500D01*
X9622457Y40974500D02*
X9560552Y41036405D01*
X15769296Y10518459D02*
X16512153Y10518459D01*
X16140725Y9218459D02*
X16140725Y10518459D01*
X17378820Y9899411D02*
X16945486Y9899411D01*
X16945486Y9218459D02*
X16945486Y10518459D01*
X16945486Y10518459D02*
X17564534Y10518459D01*
X19050248Y9218459D02*
X19050248Y10518459D01*
X19050248Y10518459D02*
X19545486Y10518459D01*
X19545486Y10518459D02*
X19669296Y10456554D01*
X19669296Y10456554D02*
X19731201Y10394649D01*
X19731201Y10394649D02*
X19793105Y10270840D01*
X19793105Y10270840D02*
X19793105Y10085125D01*
X19793105Y10085125D02*
X19731201Y9961316D01*
X19731201Y9961316D02*
X19669296Y9899411D01*
X19669296Y9899411D02*
X19545486Y9837506D01*
X19545486Y9837506D02*
X19050248Y9837506D01*
X20907391Y9218459D02*
X20907391Y9899411D01*
X20907391Y9899411D02*
X20845486Y10023221D01*
X20845486Y10023221D02*
X20721677Y10085125D01*
X20721677Y10085125D02*
X20474058Y10085125D01*
X20474058Y10085125D02*
X20350248Y10023221D01*
X20907391Y9280363D02*
X20783582Y9218459D01*
X20783582Y9218459D02*
X20474058Y9218459D01*
X20474058Y9218459D02*
X20350248Y9280363D01*
X20350248Y9280363D02*
X20288344Y9404173D01*
X20288344Y9404173D02*
X20288344Y9527983D01*
X20288344Y9527983D02*
X20350248Y9651792D01*
X20350248Y9651792D02*
X20474058Y9713697D01*
X20474058Y9713697D02*
X20783582Y9713697D01*
X20783582Y9713697D02*
X20907391Y9775602D01*
X21402629Y10085125D02*
X21712153Y9218459D01*
X22021676Y10085125D02*
X21712153Y9218459D01*
X21712153Y9218459D02*
X21588343Y8908935D01*
X21588343Y8908935D02*
X21526438Y8847030D01*
X21526438Y8847030D02*
X21402629Y8785125D01*
X22702629Y9218459D02*
X22578819Y9280363D01*
X22578819Y9280363D02*
X22516914Y9404173D01*
X22516914Y9404173D02*
X22516914Y10518459D01*
X23383581Y9218459D02*
X23259771Y9280363D01*
X23259771Y9280363D02*
X23197866Y9342268D01*
X23197866Y9342268D02*
X23135962Y9466078D01*
X23135962Y9466078D02*
X23135962Y9837506D01*
X23135962Y9837506D02*
X23197866Y9961316D01*
X23197866Y9961316D02*
X23259771Y10023221D01*
X23259771Y10023221D02*
X23383581Y10085125D01*
X23383581Y10085125D02*
X23569295Y10085125D01*
X23569295Y10085125D02*
X23693104Y10023221D01*
X23693104Y10023221D02*
X23755009Y9961316D01*
X23755009Y9961316D02*
X23816914Y9837506D01*
X23816914Y9837506D02*
X23816914Y9466078D01*
X23816914Y9466078D02*
X23755009Y9342268D01*
X23755009Y9342268D02*
X23693104Y9280363D01*
X23693104Y9280363D02*
X23569295Y9218459D01*
X23569295Y9218459D02*
X23383581Y9218459D01*
X24931199Y9218459D02*
X24931199Y9899411D01*
X24931199Y9899411D02*
X24869294Y10023221D01*
X24869294Y10023221D02*
X24745485Y10085125D01*
X24745485Y10085125D02*
X24497866Y10085125D01*
X24497866Y10085125D02*
X24374056Y10023221D01*
X24931199Y9280363D02*
X24807390Y9218459D01*
X24807390Y9218459D02*
X24497866Y9218459D01*
X24497866Y9218459D02*
X24374056Y9280363D01*
X24374056Y9280363D02*
X24312152Y9404173D01*
X24312152Y9404173D02*
X24312152Y9527983D01*
X24312152Y9527983D02*
X24374056Y9651792D01*
X24374056Y9651792D02*
X24497866Y9713697D01*
X24497866Y9713697D02*
X24807390Y9713697D01*
X24807390Y9713697D02*
X24931199Y9775602D01*
X26107389Y9218459D02*
X26107389Y10518459D01*
X26107389Y9280363D02*
X25983580Y9218459D01*
X25983580Y9218459D02*
X25735961Y9218459D01*
X25735961Y9218459D02*
X25612151Y9280363D01*
X25612151Y9280363D02*
X25550246Y9342268D01*
X25550246Y9342268D02*
X25488342Y9466078D01*
X25488342Y9466078D02*
X25488342Y9837506D01*
X25488342Y9837506D02*
X25550246Y9961316D01*
X25550246Y9961316D02*
X25612151Y10023221D01*
X25612151Y10023221D02*
X25735961Y10085125D01*
X25735961Y10085125D02*
X25983580Y10085125D01*
X25983580Y10085125D02*
X26107389Y10023221D01*
X17193105Y7249341D02*
X17131201Y7187436D01*
X17131201Y7187436D02*
X16945486Y7125532D01*
X16945486Y7125532D02*
X16821677Y7125532D01*
X16821677Y7125532D02*
X16635963Y7187436D01*
X16635963Y7187436D02*
X16512153Y7311246D01*
X16512153Y7311246D02*
X16450248Y7435056D01*
X16450248Y7435056D02*
X16388344Y7682675D01*
X16388344Y7682675D02*
X16388344Y7868389D01*
X16388344Y7868389D02*
X16450248Y8116008D01*
X16450248Y8116008D02*
X16512153Y8239817D01*
X16512153Y8239817D02*
X16635963Y8363627D01*
X16635963Y8363627D02*
X16821677Y8425532D01*
X16821677Y8425532D02*
X16945486Y8425532D01*
X16945486Y8425532D02*
X17131201Y8363627D01*
X17131201Y8363627D02*
X17193105Y8301722D01*
X17935963Y7125532D02*
X17812153Y7187436D01*
X17812153Y7187436D02*
X17750248Y7249341D01*
X17750248Y7249341D02*
X17688344Y7373151D01*
X17688344Y7373151D02*
X17688344Y7744579D01*
X17688344Y7744579D02*
X17750248Y7868389D01*
X17750248Y7868389D02*
X17812153Y7930294D01*
X17812153Y7930294D02*
X17935963Y7992198D01*
X17935963Y7992198D02*
X18121677Y7992198D01*
X18121677Y7992198D02*
X18245486Y7930294D01*
X18245486Y7930294D02*
X18307391Y7868389D01*
X18307391Y7868389D02*
X18369296Y7744579D01*
X18369296Y7744579D02*
X18369296Y7373151D01*
X18369296Y7373151D02*
X18307391Y7249341D01*
X18307391Y7249341D02*
X18245486Y7187436D01*
X18245486Y7187436D02*
X18121677Y7125532D01*
X18121677Y7125532D02*
X17935963Y7125532D01*
X18926438Y7992198D02*
X18926438Y7125532D01*
X18926438Y7868389D02*
X18988343Y7930294D01*
X18988343Y7930294D02*
X19112153Y7992198D01*
X19112153Y7992198D02*
X19297867Y7992198D01*
X19297867Y7992198D02*
X19421676Y7930294D01*
X19421676Y7930294D02*
X19483581Y7806484D01*
X19483581Y7806484D02*
X19483581Y7125532D01*
X20102628Y7992198D02*
X20102628Y7125532D01*
X20102628Y7868389D02*
X20164533Y7930294D01*
X20164533Y7930294D02*
X20288343Y7992198D01*
X20288343Y7992198D02*
X20474057Y7992198D01*
X20474057Y7992198D02*
X20597866Y7930294D01*
X20597866Y7930294D02*
X20659771Y7806484D01*
X20659771Y7806484D02*
X20659771Y7125532D01*
X21774056Y7187436D02*
X21650247Y7125532D01*
X21650247Y7125532D02*
X21402628Y7125532D01*
X21402628Y7125532D02*
X21278818Y7187436D01*
X21278818Y7187436D02*
X21216914Y7311246D01*
X21216914Y7311246D02*
X21216914Y7806484D01*
X21216914Y7806484D02*
X21278818Y7930294D01*
X21278818Y7930294D02*
X21402628Y7992198D01*
X21402628Y7992198D02*
X21650247Y7992198D01*
X21650247Y7992198D02*
X21774056Y7930294D01*
X21774056Y7930294D02*
X21835961Y7806484D01*
X21835961Y7806484D02*
X21835961Y7682675D01*
X21835961Y7682675D02*
X21216914Y7558865D01*
X22950247Y7187436D02*
X22826438Y7125532D01*
X22826438Y7125532D02*
X22578819Y7125532D01*
X22578819Y7125532D02*
X22455009Y7187436D01*
X22455009Y7187436D02*
X22393104Y7249341D01*
X22393104Y7249341D02*
X22331200Y7373151D01*
X22331200Y7373151D02*
X22331200Y7744579D01*
X22331200Y7744579D02*
X22393104Y7868389D01*
X22393104Y7868389D02*
X22455009Y7930294D01*
X22455009Y7930294D02*
X22578819Y7992198D01*
X22578819Y7992198D02*
X22826438Y7992198D01*
X22826438Y7992198D02*
X22950247Y7930294D01*
X23321676Y7992198D02*
X23816914Y7992198D01*
X23507390Y8425532D02*
X23507390Y7311246D01*
X23507390Y7311246D02*
X23569295Y7187436D01*
X23569295Y7187436D02*
X23693105Y7125532D01*
X23693105Y7125532D02*
X23816914Y7125532D01*
X24435962Y7125532D02*
X24312152Y7187436D01*
X24312152Y7187436D02*
X24250247Y7249341D01*
X24250247Y7249341D02*
X24188343Y7373151D01*
X24188343Y7373151D02*
X24188343Y7744579D01*
X24188343Y7744579D02*
X24250247Y7868389D01*
X24250247Y7868389D02*
X24312152Y7930294D01*
X24312152Y7930294D02*
X24435962Y7992198D01*
X24435962Y7992198D02*
X24621676Y7992198D01*
X24621676Y7992198D02*
X24745485Y7930294D01*
X24745485Y7930294D02*
X24807390Y7868389D01*
X24807390Y7868389D02*
X24869295Y7744579D01*
X24869295Y7744579D02*
X24869295Y7373151D01*
X24869295Y7373151D02*
X24807390Y7249341D01*
X24807390Y7249341D02*
X24745485Y7187436D01*
X24745485Y7187436D02*
X24621676Y7125532D01*
X24621676Y7125532D02*
X24435962Y7125532D01*
X25426437Y7125532D02*
X25426437Y7992198D01*
X25426437Y7744579D02*
X25488342Y7868389D01*
X25488342Y7868389D02*
X25550247Y7930294D01*
X25550247Y7930294D02*
X25674056Y7992198D01*
X25674056Y7992198D02*
X25797866Y7992198D01*
X33579752Y9526823D02*
X33579752Y10826823D01*
X34136896Y10703013D02*
X34198800Y10764918D01*
X34198800Y10764918D02*
X34322610Y10826823D01*
X34322610Y10826823D02*
X34632134Y10826823D01*
X34632134Y10826823D02*
X34755943Y10764918D01*
X34755943Y10764918D02*
X34817848Y10703013D01*
X34817848Y10703013D02*
X34879753Y10579204D01*
X34879753Y10579204D02*
X34879753Y10455394D01*
X34879753Y10455394D02*
X34817848Y10269680D01*
X34817848Y10269680D02*
X34074991Y9526823D01*
X34074991Y9526823D02*
X34879753Y9526823D01*
X36179752Y9650632D02*
X36117848Y9588727D01*
X36117848Y9588727D02*
X35932133Y9526823D01*
X35932133Y9526823D02*
X35808324Y9526823D01*
X35808324Y9526823D02*
X35622610Y9588727D01*
X35622610Y9588727D02*
X35498800Y9712537D01*
X35498800Y9712537D02*
X35436895Y9836347D01*
X35436895Y9836347D02*
X35374991Y10083966D01*
X35374991Y10083966D02*
X35374991Y10269680D01*
X35374991Y10269680D02*
X35436895Y10517299D01*
X35436895Y10517299D02*
X35498800Y10641108D01*
X35498800Y10641108D02*
X35622610Y10764918D01*
X35622610Y10764918D02*
X35808324Y10826823D01*
X35808324Y10826823D02*
X35932133Y10826823D01*
X35932133Y10826823D02*
X36117848Y10764918D01*
X36117848Y10764918D02*
X36179752Y10703013D01*
X31846419Y7433896D02*
X31846419Y8300562D01*
X31846419Y8176753D02*
X31908324Y8238658D01*
X31908324Y8238658D02*
X32032134Y8300562D01*
X32032134Y8300562D02*
X32217848Y8300562D01*
X32217848Y8300562D02*
X32341657Y8238658D01*
X32341657Y8238658D02*
X32403562Y8114848D01*
X32403562Y8114848D02*
X32403562Y7433896D01*
X32403562Y8114848D02*
X32465467Y8238658D01*
X32465467Y8238658D02*
X32589276Y8300562D01*
X32589276Y8300562D02*
X32774991Y8300562D01*
X32774991Y8300562D02*
X32898800Y8238658D01*
X32898800Y8238658D02*
X32960705Y8114848D01*
X32960705Y8114848D02*
X32960705Y7433896D01*
X34136895Y7433896D02*
X34136895Y8114848D01*
X34136895Y8114848D02*
X34074990Y8238658D01*
X34074990Y8238658D02*
X33951181Y8300562D01*
X33951181Y8300562D02*
X33703562Y8300562D01*
X33703562Y8300562D02*
X33579752Y8238658D01*
X34136895Y7495800D02*
X34013086Y7433896D01*
X34013086Y7433896D02*
X33703562Y7433896D01*
X33703562Y7433896D02*
X33579752Y7495800D01*
X33579752Y7495800D02*
X33517848Y7619610D01*
X33517848Y7619610D02*
X33517848Y7743420D01*
X33517848Y7743420D02*
X33579752Y7867229D01*
X33579752Y7867229D02*
X33703562Y7929134D01*
X33703562Y7929134D02*
X34013086Y7929134D01*
X34013086Y7929134D02*
X34136895Y7991039D01*
X34694038Y7495800D02*
X34817847Y7433896D01*
X34817847Y7433896D02*
X35065466Y7433896D01*
X35065466Y7433896D02*
X35189276Y7495800D01*
X35189276Y7495800D02*
X35251180Y7619610D01*
X35251180Y7619610D02*
X35251180Y7681515D01*
X35251180Y7681515D02*
X35189276Y7805324D01*
X35189276Y7805324D02*
X35065466Y7867229D01*
X35065466Y7867229D02*
X34879752Y7867229D01*
X34879752Y7867229D02*
X34755942Y7929134D01*
X34755942Y7929134D02*
X34694038Y8052943D01*
X34694038Y8052943D02*
X34694038Y8114848D01*
X34694038Y8114848D02*
X34755942Y8238658D01*
X34755942Y8238658D02*
X34879752Y8300562D01*
X34879752Y8300562D02*
X35065466Y8300562D01*
X35065466Y8300562D02*
X35189276Y8238658D01*
X35622609Y8300562D02*
X36117847Y8300562D01*
X35808323Y8733896D02*
X35808323Y7619610D01*
X35808323Y7619610D02*
X35870228Y7495800D01*
X35870228Y7495800D02*
X35994038Y7433896D01*
X35994038Y7433896D02*
X36117847Y7433896D01*
X37046418Y7495800D02*
X36922609Y7433896D01*
X36922609Y7433896D02*
X36674990Y7433896D01*
X36674990Y7433896D02*
X36551180Y7495800D01*
X36551180Y7495800D02*
X36489276Y7619610D01*
X36489276Y7619610D02*
X36489276Y8114848D01*
X36489276Y8114848D02*
X36551180Y8238658D01*
X36551180Y8238658D02*
X36674990Y8300562D01*
X36674990Y8300562D02*
X36922609Y8300562D01*
X36922609Y8300562D02*
X37046418Y8238658D01*
X37046418Y8238658D02*
X37108323Y8114848D01*
X37108323Y8114848D02*
X37108323Y7991039D01*
X37108323Y7991039D02*
X36489276Y7867229D01*
X37665466Y7433896D02*
X37665466Y8300562D01*
X37665466Y8052943D02*
X37727371Y8176753D01*
X37727371Y8176753D02*
X37789276Y8238658D01*
X37789276Y8238658D02*
X37913085Y8300562D01*
X37913085Y8300562D02*
X38036895Y8300562D01*
D13*
X51781057Y22783691D02*
X51495343Y22783691D01*
X51638200Y22783691D02*
X51638200Y23283691D01*
X51638200Y23283691D02*
X51590581Y23212262D01*
X51590581Y23212262D02*
X51542962Y23164643D01*
X51542962Y23164643D02*
X51495343Y23140834D01*
D10*
X19828819Y51045467D02*
X20543104Y51045467D01*
X20543104Y51045467D02*
X20685961Y50997848D01*
X20685961Y50997848D02*
X20781200Y50902610D01*
X20781200Y50902610D02*
X20828819Y50759753D01*
X20828819Y50759753D02*
X20828819Y50664515D01*
X19828819Y51997848D02*
X19828819Y51521658D01*
X19828819Y51521658D02*
X20305009Y51474039D01*
X20305009Y51474039D02*
X20257390Y51521658D01*
X20257390Y51521658D02*
X20209771Y51616896D01*
X20209771Y51616896D02*
X20209771Y51854991D01*
X20209771Y51854991D02*
X20257390Y51950229D01*
X20257390Y51950229D02*
X20305009Y51997848D01*
X20305009Y51997848D02*
X20400247Y52045467D01*
X20400247Y52045467D02*
X20638342Y52045467D01*
X20638342Y52045467D02*
X20733580Y51997848D01*
X20733580Y51997848D02*
X20781200Y51950229D01*
X20781200Y51950229D02*
X20828819Y51854991D01*
X20828819Y51854991D02*
X20828819Y51616896D01*
X20828819Y51616896D02*
X20781200Y51521658D01*
X20781200Y51521658D02*
X20733580Y51474039D01*
%TO.C,J3*%
X46177200Y29362400D02*
X51257200Y29362400D01*
X46177200Y21742400D02*
X46177200Y29362400D01*
X51257200Y29362400D02*
X51257200Y21742400D01*
X51257200Y21742400D02*
X46177200Y21742400D01*
D14*
%TO.C,J5*%
X21814000Y53978800D02*
X23144000Y53978800D01*
X21814000Y52648800D02*
X21814000Y53978800D01*
X21814000Y51378800D02*
X24414000Y51378800D01*
X21814000Y48778800D02*
X21814000Y51378800D01*
X21814000Y48778800D02*
X60034000Y48778800D01*
X24414000Y53978800D02*
X60034000Y53978800D01*
X24414000Y51378800D02*
X24414000Y53978800D01*
X60034000Y48778800D02*
X60034000Y53978800D01*
%TD*%
M02*
