%TF.GenerationSoftware,KiCad,Pcbnew,9.0.1+1*%
%TF.CreationDate,2025-11-25T19:09:32+00:00*%
%TF.ProjectId,TFUNIPAYLOAD01,5446554e-4950-4415-994c-4f414430312e,rev?*%
%TF.SameCoordinates,Original*%
%TF.FileFunction,Soldermask,Bot*%
%TF.FilePolarity,Negative*%
%FSLAX46Y46*%
G04 Gerber Fmt 4.6, Leading zero omitted, Abs format (unit mm)*
G04 Created by KiCad (PCBNEW 9.0.1+1) date 2025-11-25 19:09:32*
%MOMM*%
%LPD*%
G01*
G04 APERTURE LIST*
G04 Aperture macros list*
%AMRoundRect*
0 Rectangle with rounded corners*
0 $1 Rounding radius*
0 $2 $3 $4 $5 $6 $7 $8 $9 X,Y pos of 4 corners*
0 Add a 4 corners polygon primitive as box body*
4,1,4,$2,$3,$4,$5,$6,$7,$8,$9,$2,$3,0*
0 Add four circle primitives for the rounded corners*
1,1,$1+$1,$2,$3*
1,1,$1+$1,$4,$5*
1,1,$1+$1,$6,$7*
1,1,$1+$1,$8,$9*
0 Add four rect primitives between the rounded corners*
20,1,$1+$1,$2,$3,$4,$5,0*
20,1,$1+$1,$4,$5,$6,$7,0*
20,1,$1+$1,$6,$7,$8,$9,0*
20,1,$1+$1,$8,$9,$2,$3,0*%
%AMFreePoly0*
4,1,43,0.551423,0.811284,0.578785,0.763892,0.580000,0.750000,0.580000,-0.750000,0.561284,-0.801423,0.513892,-0.828785,0.500000,-0.830000,0.000000,-0.830000,-0.011754,-0.825722,-0.065263,-0.825722,-0.085968,-0.822996,-0.212047,-0.789214,-0.231342,-0.781222,-0.344381,-0.715959,-0.360950,-0.703246,-0.453246,-0.610950,-0.465959,-0.594381,-0.531222,-0.481342,-0.539214,-0.462047,-0.572996,-0.335968,
-0.575722,-0.315263,-0.575722,-0.269197,-0.578785,-0.263892,-0.580000,-0.250000,-0.580000,0.250000,-0.575722,0.261753,-0.575722,0.315263,-0.572996,0.335968,-0.539214,0.462047,-0.531222,0.481342,-0.465959,0.594381,-0.453246,0.610950,-0.360950,0.703246,-0.344381,0.715959,-0.231342,0.781222,-0.212047,0.789214,-0.085968,0.822996,-0.065263,0.825722,-0.019197,0.825722,-0.013892,0.828785,
0.000000,0.830000,0.500000,0.830000,0.551423,0.811284,0.551423,0.811284,$1*%
%AMFreePoly1*
4,1,43,0.011754,0.825722,0.065263,0.825722,0.085968,0.822996,0.212047,0.789214,0.231342,0.781222,0.344381,0.715959,0.360950,0.703246,0.453246,0.610950,0.465959,0.594381,0.531222,0.481342,0.539214,0.462047,0.572996,0.335968,0.575722,0.315263,0.575722,0.269197,0.578785,0.263892,0.580000,0.250000,0.580000,-0.250000,0.575722,-0.261753,0.575722,-0.315263,0.572996,-0.335968,
0.539214,-0.462047,0.531222,-0.481342,0.465959,-0.594381,0.453246,-0.610950,0.360950,-0.703246,0.344381,-0.715959,0.231342,-0.781222,0.212047,-0.789214,0.085968,-0.822996,0.065263,-0.825722,0.019197,-0.825722,0.013892,-0.828785,0.000000,-0.830000,-0.500000,-0.830000,-0.551423,-0.811284,-0.578785,-0.763892,-0.580000,-0.750000,-0.580000,0.750000,-0.561284,0.801423,-0.513892,0.828785,
-0.500000,0.830000,0.000000,0.830000,0.011754,0.825722,0.011754,0.825722,$1*%
G04 Aperture macros list end*
%ADD10C,6.160000*%
%ADD11C,1.660000*%
%ADD12O,1.060000X1.460000*%
%ADD13RoundRect,0.080000X-0.850000X-0.850000X0.850000X-0.850000X0.850000X0.850000X-0.850000X0.850000X0*%
%ADD14C,1.860000*%
%ADD15RoundRect,0.290000X-0.290000X-0.515000X0.290000X-0.515000X0.290000X0.515000X-0.290000X0.515000X0*%
%ADD16RoundRect,0.279629X-0.500371X-0.475371X0.500371X-0.475371X0.500371X0.475371X-0.500371X0.475371X0*%
%ADD17RoundRect,0.080000X-0.275000X0.750000X-0.275000X-0.750000X0.275000X-0.750000X0.275000X0.750000X0*%
%ADD18RoundRect,0.080000X0.750000X0.275000X-0.750000X0.275000X-0.750000X-0.275000X0.750000X-0.275000X0*%
%ADD19RoundRect,0.289024X0.490976X-0.303476X0.490976X0.303476X-0.490976X0.303476X-0.490976X-0.303476X0*%
%ADD20RoundRect,0.289024X0.303476X0.490976X-0.303476X0.490976X-0.303476X-0.490976X0.303476X-0.490976X0*%
%ADD21RoundRect,0.290000X0.290000X0.515000X-0.290000X0.515000X-0.290000X-0.515000X0.290000X-0.515000X0*%
%ADD22RoundRect,0.290000X0.515000X-0.290000X0.515000X0.290000X-0.515000X0.290000X-0.515000X-0.290000X0*%
%ADD23RoundRect,0.190000X-0.740000X0.190000X-0.740000X-0.190000X0.740000X-0.190000X0.740000X0.190000X0*%
%ADD24RoundRect,0.290000X-1.140000X0.290000X-1.140000X-0.290000X1.140000X-0.290000X1.140000X0.290000X0*%
%ADD25RoundRect,0.190000X0.627500X0.190000X-0.627500X0.190000X-0.627500X-0.190000X0.627500X-0.190000X0*%
%ADD26C,2.000000*%
%ADD27RoundRect,0.289024X-0.490976X0.303476X-0.490976X-0.303476X0.490976X-0.303476X0.490976X0.303476X0*%
%ADD28RoundRect,0.277500X-0.277500X0.327500X-0.277500X-0.327500X0.277500X-0.327500X0.277500X0.327500X0*%
%ADD29RoundRect,0.289024X-0.303476X-0.490976X0.303476X-0.490976X0.303476X0.490976X-0.303476X0.490976X0*%
%ADD30RoundRect,0.190000X0.190000X0.240000X-0.190000X0.240000X-0.190000X-0.240000X0.190000X-0.240000X0*%
%ADD31C,1.160000*%
%ADD32FreePoly0,0.000000*%
%ADD33FreePoly1,0.000000*%
%ADD34RoundRect,0.190000X-0.240000X0.190000X-0.240000X-0.190000X0.240000X-0.190000X0.240000X0.190000X0*%
G04 APERTURE END LIST*
D10*
%TO.C,M2*%
X174972341Y-78676927D03*
%TD*%
%TO.C,M3*%
X103852341Y-78676927D03*
%TD*%
%TO.C,M4*%
X103852341Y-119316927D03*
%TD*%
%TO.C,M1*%
X174972341Y-119316927D03*
%TD*%
D11*
%TO.C,Y1*%
X155580541Y-77965727D03*
X160460541Y-77965727D03*
%TD*%
D12*
%TO.C,SW1*%
X139208741Y-146823727D03*
X143458741Y-146823727D03*
%TD*%
D13*
%TO.C,J5*%
X89902341Y-83812327D03*
D14*
X87362341Y-83812327D03*
X89902341Y-86352327D03*
X87362341Y-86352327D03*
X89902341Y-88892327D03*
X87362341Y-88892327D03*
X89902341Y-91432327D03*
X87362341Y-91432327D03*
X89902341Y-93972327D03*
X87362341Y-93972327D03*
X89902341Y-96512327D03*
X87362341Y-96512327D03*
X89902341Y-99052327D03*
X87362341Y-99052327D03*
X89902341Y-101592327D03*
X87362341Y-101592327D03*
X89902341Y-104132327D03*
X87362341Y-104132327D03*
X89902341Y-106672327D03*
X87362341Y-106672327D03*
X89902341Y-109212327D03*
X87362341Y-109212327D03*
X89902341Y-111752327D03*
X87362341Y-111752327D03*
X89902341Y-114292327D03*
X87362341Y-114292327D03*
X89902341Y-116832327D03*
X87362341Y-116832327D03*
X89902341Y-119372327D03*
X87362341Y-119372327D03*
%TD*%
D15*
%TO.C,C9*%
X154413541Y-98535727D03*
X156313541Y-98535727D03*
%TD*%
D16*
%TO.C,C8*%
X153828141Y-100821727D03*
X156528141Y-100821727D03*
%TD*%
D17*
%TO.C,U2*%
X152989141Y-84203727D03*
X153789141Y-84203727D03*
X154589141Y-84203727D03*
X155389141Y-84203727D03*
X156189141Y-84203727D03*
X156989141Y-84203727D03*
X157789141Y-84203727D03*
X158589141Y-84203727D03*
X159389141Y-84203727D03*
X160189141Y-84203727D03*
X160989141Y-84203727D03*
D18*
X162689141Y-85903727D03*
X162689141Y-86703727D03*
X162689141Y-87503727D03*
X162689141Y-88303727D03*
X162689141Y-89103727D03*
X162689141Y-89903727D03*
X162689141Y-90703727D03*
X162689141Y-91503727D03*
X162689141Y-92303727D03*
X162689141Y-93103727D03*
X162689141Y-93903727D03*
D17*
X160989141Y-95603727D03*
X160189141Y-95603727D03*
X159389141Y-95603727D03*
X158589141Y-95603727D03*
X157789141Y-95603727D03*
X156989141Y-95603727D03*
X156189141Y-95603727D03*
X155389141Y-95603727D03*
X154589141Y-95603727D03*
X153789141Y-95603727D03*
X152989141Y-95603727D03*
D18*
X151289141Y-93903727D03*
X151289141Y-93103727D03*
X151289141Y-92303727D03*
X151289141Y-91503727D03*
X151289141Y-90703727D03*
X151289141Y-89903727D03*
X151289141Y-89103727D03*
X151289141Y-88303727D03*
X151289141Y-87503727D03*
X151289141Y-86703727D03*
X151289141Y-85903727D03*
%TD*%
D19*
%TO.C,R12*%
X165218741Y-93407027D03*
X165218741Y-91582027D03*
%TD*%
D20*
%TO.C,R5*%
X169638841Y-102932927D03*
X167813841Y-102932927D03*
%TD*%
D21*
%TO.C,C3*%
X153671941Y-77965727D03*
X151771941Y-77965727D03*
%TD*%
D15*
%TO.C,C4*%
X162338341Y-77965727D03*
X164238341Y-77965727D03*
%TD*%
%TO.C,C10*%
X154609141Y-81263727D03*
X156509141Y-81263727D03*
%TD*%
D22*
%TO.C,C11*%
X148556341Y-90853727D03*
X148556341Y-88953727D03*
%TD*%
%TO.C,C12*%
X166481142Y-89732127D03*
X166481142Y-87832127D03*
%TD*%
D15*
%TO.C,C2*%
X171456341Y-102952927D03*
X173356341Y-102952927D03*
%TD*%
D19*
%TO.C,R13*%
X167250741Y-93407027D03*
X167250741Y-91582027D03*
%TD*%
D23*
%TO.C,J1*%
X184806341Y-93077927D03*
X184806341Y-94327927D03*
X184806341Y-95577927D03*
X184806341Y-96827927D03*
X184806341Y-98077927D03*
X184806341Y-99327927D03*
D24*
X188006341Y-91227927D03*
X188006341Y-101177927D03*
%TD*%
D25*
%TO.C,Q2*%
X147461841Y-118874927D03*
X147461841Y-120774927D03*
X145586841Y-119824927D03*
%TD*%
D26*
%TO.C,FID3*%
X110405541Y-77432327D03*
%TD*%
D27*
%TO.C,R16*%
X158208341Y-114340427D03*
X158208341Y-116165427D03*
%TD*%
D28*
%TO.C,L1*%
X173905541Y-95023127D03*
X173905541Y-96773127D03*
%TD*%
D23*
%TO.C,J2*%
X184806341Y-78111927D03*
X184806341Y-79361927D03*
X184806341Y-80611927D03*
X184806341Y-81861927D03*
X184806341Y-83111927D03*
X184806341Y-84361927D03*
X184806341Y-85611927D03*
X184806341Y-86861927D03*
D24*
X188006341Y-76261927D03*
X188006341Y-88711927D03*
%TD*%
D27*
%TO.C,R7*%
X153382341Y-114340427D03*
X153382341Y-116165427D03*
%TD*%
D19*
%TO.C,R6*%
X150842341Y-117181427D03*
X150842341Y-115356427D03*
%TD*%
D29*
%TO.C,R21*%
X180714641Y-87058927D03*
X182539641Y-87058927D03*
%TD*%
D23*
%TO.C,J7*%
X184806341Y-105620927D03*
X184806341Y-106870927D03*
X184806341Y-108120927D03*
D24*
X188006341Y-103770927D03*
X188006341Y-109970927D03*
%TD*%
D30*
%TO.C,D1*%
X179911141Y-93053327D03*
X181311141Y-93053327D03*
%TD*%
D29*
%TO.C,R20*%
X180714641Y-84976127D03*
X182539641Y-84976127D03*
%TD*%
%TO.C,R4*%
X179495441Y-98742927D03*
X181320441Y-98742927D03*
%TD*%
%TO.C,R18*%
X180714641Y-79743727D03*
X182539641Y-79743727D03*
%TD*%
D19*
%TO.C,R15*%
X155922341Y-117181427D03*
X155922341Y-115356427D03*
%TD*%
D26*
%TO.C,FID5*%
X172381541Y-83604527D03*
%TD*%
D31*
%TO.C,TP2*%
X162297741Y-98184127D03*
%TD*%
D29*
%TO.C,R19*%
X180714641Y-82385327D03*
X182539641Y-82385327D03*
%TD*%
D31*
%TO.C,TP1*%
X164101141Y-96304527D03*
%TD*%
D32*
%TO.C,JP1*%
X180418341Y-101079727D03*
D33*
X181718341Y-101079727D03*
%TD*%
D22*
%TO.C,C1*%
X172096341Y-93452927D03*
X172096341Y-91552927D03*
%TD*%
D25*
%TO.C,Q3*%
X157367841Y-118874927D03*
X157367841Y-120774927D03*
X155492841Y-119824927D03*
%TD*%
D26*
%TO.C,FID4*%
X117156341Y-121832927D03*
%TD*%
D19*
%TO.C,R8*%
X145762341Y-117181427D03*
X145762341Y-115356427D03*
%TD*%
D34*
%TO.C,D2*%
X173905541Y-93397727D03*
X173905541Y-91997727D03*
%TD*%
D25*
%TO.C,Q1*%
X152541841Y-118874927D03*
X152541841Y-120774927D03*
X150666841Y-119824927D03*
%TD*%
D29*
%TO.C,R17*%
X180714641Y-77254527D03*
X182539641Y-77254527D03*
%TD*%
D27*
%TO.C,R14*%
X168063541Y-77256427D03*
X168063541Y-79081427D03*
%TD*%
%TO.C,R9*%
X148302341Y-114340427D03*
X148302341Y-116165427D03*
%TD*%
D29*
%TO.C,R1*%
X179495441Y-96660127D03*
X181320441Y-96660127D03*
%TD*%
M02*
