%TF.GenerationSoftware,KiCad,Pcbnew,9.0.1+1*%
%TF.CreationDate,2025-11-25T19:09:32+00:00*%
%TF.ProjectId,TFUNIPAYLOAD01,5446554e-4950-4415-994c-4f414430312e,rev?*%
%TF.SameCoordinates,Original*%
%TF.FileFunction,Legend,Bot*%
%TF.FilePolarity,Positive*%
%FSLAX46Y46*%
G04 Gerber Fmt 4.6, Leading zero omitted, Abs format (unit mm)*
G04 Created by KiCad (PCBNEW 9.0.1+1) date 2025-11-25 19:09:32*
%MOMM*%
%LPD*%
G01*
G04 APERTURE LIST*
%ADD10C,0.150000*%
%ADD11C,0.120000*%
G04 APERTURE END LIST*
D10*
X153564121Y-98119060D02*
X153611741Y-98071441D01*
X153611741Y-98071441D02*
X153659360Y-97928584D01*
X153659360Y-97928584D02*
X153659360Y-97833346D01*
X153659360Y-97833346D02*
X153611741Y-97690489D01*
X153611741Y-97690489D02*
X153516502Y-97595251D01*
X153516502Y-97595251D02*
X153421264Y-97547632D01*
X153421264Y-97547632D02*
X153230788Y-97500013D01*
X153230788Y-97500013D02*
X153087931Y-97500013D01*
X153087931Y-97500013D02*
X152897455Y-97547632D01*
X152897455Y-97547632D02*
X152802217Y-97595251D01*
X152802217Y-97595251D02*
X152706979Y-97690489D01*
X152706979Y-97690489D02*
X152659360Y-97833346D01*
X152659360Y-97833346D02*
X152659360Y-97928584D01*
X152659360Y-97928584D02*
X152706979Y-98071441D01*
X152706979Y-98071441D02*
X152754598Y-98119060D01*
X153659360Y-98595251D02*
X153659360Y-98785727D01*
X153659360Y-98785727D02*
X153611741Y-98880965D01*
X153611741Y-98880965D02*
X153564121Y-98928584D01*
X153564121Y-98928584D02*
X153421264Y-99023822D01*
X153421264Y-99023822D02*
X153230788Y-99071441D01*
X153230788Y-99071441D02*
X152849836Y-99071441D01*
X152849836Y-99071441D02*
X152754598Y-99023822D01*
X152754598Y-99023822D02*
X152706979Y-98976203D01*
X152706979Y-98976203D02*
X152659360Y-98880965D01*
X152659360Y-98880965D02*
X152659360Y-98690489D01*
X152659360Y-98690489D02*
X152706979Y-98595251D01*
X152706979Y-98595251D02*
X152754598Y-98547632D01*
X152754598Y-98547632D02*
X152849836Y-98500013D01*
X152849836Y-98500013D02*
X153087931Y-98500013D01*
X153087931Y-98500013D02*
X153183169Y-98547632D01*
X153183169Y-98547632D02*
X153230788Y-98595251D01*
X153230788Y-98595251D02*
X153278407Y-98690489D01*
X153278407Y-98690489D02*
X153278407Y-98880965D01*
X153278407Y-98880965D02*
X153230788Y-98976203D01*
X153230788Y-98976203D02*
X153183169Y-99023822D01*
X153183169Y-99023822D02*
X153087931Y-99071441D01*
X155174607Y-103268107D02*
X155222226Y-103315727D01*
X155222226Y-103315727D02*
X155365083Y-103363346D01*
X155365083Y-103363346D02*
X155460321Y-103363346D01*
X155460321Y-103363346D02*
X155603178Y-103315727D01*
X155603178Y-103315727D02*
X155698416Y-103220488D01*
X155698416Y-103220488D02*
X155746035Y-103125250D01*
X155746035Y-103125250D02*
X155793654Y-102934774D01*
X155793654Y-102934774D02*
X155793654Y-102791917D01*
X155793654Y-102791917D02*
X155746035Y-102601441D01*
X155746035Y-102601441D02*
X155698416Y-102506203D01*
X155698416Y-102506203D02*
X155603178Y-102410965D01*
X155603178Y-102410965D02*
X155460321Y-102363346D01*
X155460321Y-102363346D02*
X155365083Y-102363346D01*
X155365083Y-102363346D02*
X155222226Y-102410965D01*
X155222226Y-102410965D02*
X155174607Y-102458584D01*
X154603178Y-102791917D02*
X154698416Y-102744298D01*
X154698416Y-102744298D02*
X154746035Y-102696679D01*
X154746035Y-102696679D02*
X154793654Y-102601441D01*
X154793654Y-102601441D02*
X154793654Y-102553822D01*
X154793654Y-102553822D02*
X154746035Y-102458584D01*
X154746035Y-102458584D02*
X154698416Y-102410965D01*
X154698416Y-102410965D02*
X154603178Y-102363346D01*
X154603178Y-102363346D02*
X154412702Y-102363346D01*
X154412702Y-102363346D02*
X154317464Y-102410965D01*
X154317464Y-102410965D02*
X154269845Y-102458584D01*
X154269845Y-102458584D02*
X154222226Y-102553822D01*
X154222226Y-102553822D02*
X154222226Y-102601441D01*
X154222226Y-102601441D02*
X154269845Y-102696679D01*
X154269845Y-102696679D02*
X154317464Y-102744298D01*
X154317464Y-102744298D02*
X154412702Y-102791917D01*
X154412702Y-102791917D02*
X154603178Y-102791917D01*
X154603178Y-102791917D02*
X154698416Y-102839536D01*
X154698416Y-102839536D02*
X154746035Y-102887155D01*
X154746035Y-102887155D02*
X154793654Y-102982393D01*
X154793654Y-102982393D02*
X154793654Y-103172869D01*
X154793654Y-103172869D02*
X154746035Y-103268107D01*
X154746035Y-103268107D02*
X154698416Y-103315727D01*
X154698416Y-103315727D02*
X154603178Y-103363346D01*
X154603178Y-103363346D02*
X154412702Y-103363346D01*
X154412702Y-103363346D02*
X154317464Y-103315727D01*
X154317464Y-103315727D02*
X154269845Y-103268107D01*
X154269845Y-103268107D02*
X154222226Y-103172869D01*
X154222226Y-103172869D02*
X154222226Y-102982393D01*
X154222226Y-102982393D02*
X154269845Y-102887155D01*
X154269845Y-102887155D02*
X154317464Y-102839536D01*
X154317464Y-102839536D02*
X154412702Y-102791917D01*
X156410960Y-89137822D02*
X157220483Y-89137822D01*
X157220483Y-89137822D02*
X157315721Y-89185441D01*
X157315721Y-89185441D02*
X157363341Y-89233060D01*
X157363341Y-89233060D02*
X157410960Y-89328298D01*
X157410960Y-89328298D02*
X157410960Y-89518774D01*
X157410960Y-89518774D02*
X157363341Y-89614012D01*
X157363341Y-89614012D02*
X157315721Y-89661631D01*
X157315721Y-89661631D02*
X157220483Y-89709250D01*
X157220483Y-89709250D02*
X156410960Y-89709250D01*
X156506198Y-90137822D02*
X156458579Y-90185441D01*
X156458579Y-90185441D02*
X156410960Y-90280679D01*
X156410960Y-90280679D02*
X156410960Y-90518774D01*
X156410960Y-90518774D02*
X156458579Y-90614012D01*
X156458579Y-90614012D02*
X156506198Y-90661631D01*
X156506198Y-90661631D02*
X156601436Y-90709250D01*
X156601436Y-90709250D02*
X156696674Y-90709250D01*
X156696674Y-90709250D02*
X156839531Y-90661631D01*
X156839531Y-90661631D02*
X157410960Y-90090203D01*
X157410960Y-90090203D02*
X157410960Y-90709250D01*
X165317960Y-88625869D02*
X164841769Y-88292536D01*
X165317960Y-88054441D02*
X164317960Y-88054441D01*
X164317960Y-88054441D02*
X164317960Y-88435393D01*
X164317960Y-88435393D02*
X164365579Y-88530631D01*
X164365579Y-88530631D02*
X164413198Y-88578250D01*
X164413198Y-88578250D02*
X164508436Y-88625869D01*
X164508436Y-88625869D02*
X164651293Y-88625869D01*
X164651293Y-88625869D02*
X164746531Y-88578250D01*
X164746531Y-88578250D02*
X164794150Y-88530631D01*
X164794150Y-88530631D02*
X164841769Y-88435393D01*
X164841769Y-88435393D02*
X164841769Y-88054441D01*
X165317960Y-89578250D02*
X165317960Y-89006822D01*
X165317960Y-89292536D02*
X164317960Y-89292536D01*
X164317960Y-89292536D02*
X164460817Y-89197298D01*
X164460817Y-89197298D02*
X164556055Y-89102060D01*
X164556055Y-89102060D02*
X164603674Y-89006822D01*
X164413198Y-89959203D02*
X164365579Y-90006822D01*
X164365579Y-90006822D02*
X164317960Y-90102060D01*
X164317960Y-90102060D02*
X164317960Y-90340155D01*
X164317960Y-90340155D02*
X164365579Y-90435393D01*
X164365579Y-90435393D02*
X164413198Y-90483012D01*
X164413198Y-90483012D02*
X164508436Y-90530631D01*
X164508436Y-90530631D02*
X164603674Y-90530631D01*
X164603674Y-90530631D02*
X164746531Y-90483012D01*
X164746531Y-90483012D02*
X165317960Y-89911584D01*
X165317960Y-89911584D02*
X165317960Y-90530631D01*
X165741007Y-103490346D02*
X166074340Y-103014155D01*
X166312435Y-103490346D02*
X166312435Y-102490346D01*
X166312435Y-102490346D02*
X165931483Y-102490346D01*
X165931483Y-102490346D02*
X165836245Y-102537965D01*
X165836245Y-102537965D02*
X165788626Y-102585584D01*
X165788626Y-102585584D02*
X165741007Y-102680822D01*
X165741007Y-102680822D02*
X165741007Y-102823679D01*
X165741007Y-102823679D02*
X165788626Y-102918917D01*
X165788626Y-102918917D02*
X165836245Y-102966536D01*
X165836245Y-102966536D02*
X165931483Y-103014155D01*
X165931483Y-103014155D02*
X166312435Y-103014155D01*
X164836245Y-102490346D02*
X165312435Y-102490346D01*
X165312435Y-102490346D02*
X165360054Y-102966536D01*
X165360054Y-102966536D02*
X165312435Y-102918917D01*
X165312435Y-102918917D02*
X165217197Y-102871298D01*
X165217197Y-102871298D02*
X164979102Y-102871298D01*
X164979102Y-102871298D02*
X164883864Y-102918917D01*
X164883864Y-102918917D02*
X164836245Y-102966536D01*
X164836245Y-102966536D02*
X164788626Y-103061774D01*
X164788626Y-103061774D02*
X164788626Y-103299869D01*
X164788626Y-103299869D02*
X164836245Y-103395107D01*
X164836245Y-103395107D02*
X164883864Y-103442727D01*
X164883864Y-103442727D02*
X164979102Y-103490346D01*
X164979102Y-103490346D02*
X165217197Y-103490346D01*
X165217197Y-103490346D02*
X165312435Y-103442727D01*
X165312435Y-103442727D02*
X165360054Y-103395107D01*
X152888607Y-76645307D02*
X152936226Y-76692927D01*
X152936226Y-76692927D02*
X153079083Y-76740546D01*
X153079083Y-76740546D02*
X153174321Y-76740546D01*
X153174321Y-76740546D02*
X153317178Y-76692927D01*
X153317178Y-76692927D02*
X153412416Y-76597688D01*
X153412416Y-76597688D02*
X153460035Y-76502450D01*
X153460035Y-76502450D02*
X153507654Y-76311974D01*
X153507654Y-76311974D02*
X153507654Y-76169117D01*
X153507654Y-76169117D02*
X153460035Y-75978641D01*
X153460035Y-75978641D02*
X153412416Y-75883403D01*
X153412416Y-75883403D02*
X153317178Y-75788165D01*
X153317178Y-75788165D02*
X153174321Y-75740546D01*
X153174321Y-75740546D02*
X153079083Y-75740546D01*
X153079083Y-75740546D02*
X152936226Y-75788165D01*
X152936226Y-75788165D02*
X152888607Y-75835784D01*
X152555273Y-75740546D02*
X151936226Y-75740546D01*
X151936226Y-75740546D02*
X152269559Y-76121498D01*
X152269559Y-76121498D02*
X152126702Y-76121498D01*
X152126702Y-76121498D02*
X152031464Y-76169117D01*
X152031464Y-76169117D02*
X151983845Y-76216736D01*
X151983845Y-76216736D02*
X151936226Y-76311974D01*
X151936226Y-76311974D02*
X151936226Y-76550069D01*
X151936226Y-76550069D02*
X151983845Y-76645307D01*
X151983845Y-76645307D02*
X152031464Y-76692927D01*
X152031464Y-76692927D02*
X152126702Y-76740546D01*
X152126702Y-76740546D02*
X152412416Y-76740546D01*
X152412416Y-76740546D02*
X152507654Y-76692927D01*
X152507654Y-76692927D02*
X152555273Y-76645307D01*
X163455007Y-80408107D02*
X163502626Y-80455727D01*
X163502626Y-80455727D02*
X163645483Y-80503346D01*
X163645483Y-80503346D02*
X163740721Y-80503346D01*
X163740721Y-80503346D02*
X163883578Y-80455727D01*
X163883578Y-80455727D02*
X163978816Y-80360488D01*
X163978816Y-80360488D02*
X164026435Y-80265250D01*
X164026435Y-80265250D02*
X164074054Y-80074774D01*
X164074054Y-80074774D02*
X164074054Y-79931917D01*
X164074054Y-79931917D02*
X164026435Y-79741441D01*
X164026435Y-79741441D02*
X163978816Y-79646203D01*
X163978816Y-79646203D02*
X163883578Y-79550965D01*
X163883578Y-79550965D02*
X163740721Y-79503346D01*
X163740721Y-79503346D02*
X163645483Y-79503346D01*
X163645483Y-79503346D02*
X163502626Y-79550965D01*
X163502626Y-79550965D02*
X163455007Y-79598584D01*
X162597864Y-79836679D02*
X162597864Y-80503346D01*
X162835959Y-79455727D02*
X163074054Y-80170012D01*
X163074054Y-80170012D02*
X162455007Y-80170012D01*
X152805998Y-81652707D02*
X152853617Y-81700327D01*
X152853617Y-81700327D02*
X152996474Y-81747946D01*
X152996474Y-81747946D02*
X153091712Y-81747946D01*
X153091712Y-81747946D02*
X153234569Y-81700327D01*
X153234569Y-81700327D02*
X153329807Y-81605088D01*
X153329807Y-81605088D02*
X153377426Y-81509850D01*
X153377426Y-81509850D02*
X153425045Y-81319374D01*
X153425045Y-81319374D02*
X153425045Y-81176517D01*
X153425045Y-81176517D02*
X153377426Y-80986041D01*
X153377426Y-80986041D02*
X153329807Y-80890803D01*
X153329807Y-80890803D02*
X153234569Y-80795565D01*
X153234569Y-80795565D02*
X153091712Y-80747946D01*
X153091712Y-80747946D02*
X152996474Y-80747946D01*
X152996474Y-80747946D02*
X152853617Y-80795565D01*
X152853617Y-80795565D02*
X152805998Y-80843184D01*
X151853617Y-81747946D02*
X152425045Y-81747946D01*
X152139331Y-81747946D02*
X152139331Y-80747946D01*
X152139331Y-80747946D02*
X152234569Y-80890803D01*
X152234569Y-80890803D02*
X152329807Y-80986041D01*
X152329807Y-80986041D02*
X152425045Y-81033660D01*
X151234569Y-80747946D02*
X151139331Y-80747946D01*
X151139331Y-80747946D02*
X151044093Y-80795565D01*
X151044093Y-80795565D02*
X150996474Y-80843184D01*
X150996474Y-80843184D02*
X150948855Y-80938422D01*
X150948855Y-80938422D02*
X150901236Y-81128898D01*
X150901236Y-81128898D02*
X150901236Y-81366993D01*
X150901236Y-81366993D02*
X150948855Y-81557469D01*
X150948855Y-81557469D02*
X150996474Y-81652707D01*
X150996474Y-81652707D02*
X151044093Y-81700327D01*
X151044093Y-81700327D02*
X151139331Y-81747946D01*
X151139331Y-81747946D02*
X151234569Y-81747946D01*
X151234569Y-81747946D02*
X151329807Y-81700327D01*
X151329807Y-81700327D02*
X151377426Y-81652707D01*
X151377426Y-81652707D02*
X151425045Y-81557469D01*
X151425045Y-81557469D02*
X151472664Y-81366993D01*
X151472664Y-81366993D02*
X151472664Y-81128898D01*
X151472664Y-81128898D02*
X151425045Y-80938422D01*
X151425045Y-80938422D02*
X151377426Y-80843184D01*
X151377426Y-80843184D02*
X151329807Y-80795565D01*
X151329807Y-80795565D02*
X151234569Y-80747946D01*
X147188721Y-89489469D02*
X147236341Y-89441850D01*
X147236341Y-89441850D02*
X147283960Y-89298993D01*
X147283960Y-89298993D02*
X147283960Y-89203755D01*
X147283960Y-89203755D02*
X147236341Y-89060898D01*
X147236341Y-89060898D02*
X147141102Y-88965660D01*
X147141102Y-88965660D02*
X147045864Y-88918041D01*
X147045864Y-88918041D02*
X146855388Y-88870422D01*
X146855388Y-88870422D02*
X146712531Y-88870422D01*
X146712531Y-88870422D02*
X146522055Y-88918041D01*
X146522055Y-88918041D02*
X146426817Y-88965660D01*
X146426817Y-88965660D02*
X146331579Y-89060898D01*
X146331579Y-89060898D02*
X146283960Y-89203755D01*
X146283960Y-89203755D02*
X146283960Y-89298993D01*
X146283960Y-89298993D02*
X146331579Y-89441850D01*
X146331579Y-89441850D02*
X146379198Y-89489469D01*
X147283960Y-90441850D02*
X147283960Y-89870422D01*
X147283960Y-90156136D02*
X146283960Y-90156136D01*
X146283960Y-90156136D02*
X146426817Y-90060898D01*
X146426817Y-90060898D02*
X146522055Y-89965660D01*
X146522055Y-89965660D02*
X146569674Y-89870422D01*
X147283960Y-91394231D02*
X147283960Y-90822803D01*
X147283960Y-91108517D02*
X146283960Y-91108517D01*
X146283960Y-91108517D02*
X146426817Y-91013279D01*
X146426817Y-91013279D02*
X146522055Y-90918041D01*
X146522055Y-90918041D02*
X146569674Y-90822803D01*
X168550121Y-88371869D02*
X168597741Y-88324250D01*
X168597741Y-88324250D02*
X168645360Y-88181393D01*
X168645360Y-88181393D02*
X168645360Y-88086155D01*
X168645360Y-88086155D02*
X168597741Y-87943298D01*
X168597741Y-87943298D02*
X168502502Y-87848060D01*
X168502502Y-87848060D02*
X168407264Y-87800441D01*
X168407264Y-87800441D02*
X168216788Y-87752822D01*
X168216788Y-87752822D02*
X168073931Y-87752822D01*
X168073931Y-87752822D02*
X167883455Y-87800441D01*
X167883455Y-87800441D02*
X167788217Y-87848060D01*
X167788217Y-87848060D02*
X167692979Y-87943298D01*
X167692979Y-87943298D02*
X167645360Y-88086155D01*
X167645360Y-88086155D02*
X167645360Y-88181393D01*
X167645360Y-88181393D02*
X167692979Y-88324250D01*
X167692979Y-88324250D02*
X167740598Y-88371869D01*
X168645360Y-89324250D02*
X168645360Y-88752822D01*
X168645360Y-89038536D02*
X167645360Y-89038536D01*
X167645360Y-89038536D02*
X167788217Y-88943298D01*
X167788217Y-88943298D02*
X167883455Y-88848060D01*
X167883455Y-88848060D02*
X167931074Y-88752822D01*
X167740598Y-89705203D02*
X167692979Y-89752822D01*
X167692979Y-89752822D02*
X167645360Y-89848060D01*
X167645360Y-89848060D02*
X167645360Y-90086155D01*
X167645360Y-90086155D02*
X167692979Y-90181393D01*
X167692979Y-90181393D02*
X167740598Y-90229012D01*
X167740598Y-90229012D02*
X167835836Y-90276631D01*
X167835836Y-90276631D02*
X167931074Y-90276631D01*
X167931074Y-90276631D02*
X168073931Y-90229012D01*
X168073931Y-90229012D02*
X168645360Y-89657584D01*
X168645360Y-89657584D02*
X168645360Y-90276631D01*
X175255721Y-103097460D02*
X175303341Y-103049841D01*
X175303341Y-103049841D02*
X175350960Y-102906984D01*
X175350960Y-102906984D02*
X175350960Y-102811746D01*
X175350960Y-102811746D02*
X175303341Y-102668889D01*
X175303341Y-102668889D02*
X175208102Y-102573651D01*
X175208102Y-102573651D02*
X175112864Y-102526032D01*
X175112864Y-102526032D02*
X174922388Y-102478413D01*
X174922388Y-102478413D02*
X174779531Y-102478413D01*
X174779531Y-102478413D02*
X174589055Y-102526032D01*
X174589055Y-102526032D02*
X174493817Y-102573651D01*
X174493817Y-102573651D02*
X174398579Y-102668889D01*
X174398579Y-102668889D02*
X174350960Y-102811746D01*
X174350960Y-102811746D02*
X174350960Y-102906984D01*
X174350960Y-102906984D02*
X174398579Y-103049841D01*
X174398579Y-103049841D02*
X174446198Y-103097460D01*
X174446198Y-103478413D02*
X174398579Y-103526032D01*
X174398579Y-103526032D02*
X174350960Y-103621270D01*
X174350960Y-103621270D02*
X174350960Y-103859365D01*
X174350960Y-103859365D02*
X174398579Y-103954603D01*
X174398579Y-103954603D02*
X174446198Y-104002222D01*
X174446198Y-104002222D02*
X174541436Y-104049841D01*
X174541436Y-104049841D02*
X174636674Y-104049841D01*
X174636674Y-104049841D02*
X174779531Y-104002222D01*
X174779531Y-104002222D02*
X175350960Y-103430794D01*
X175350960Y-103430794D02*
X175350960Y-104049841D01*
X169355560Y-91851669D02*
X168879369Y-91518336D01*
X169355560Y-91280241D02*
X168355560Y-91280241D01*
X168355560Y-91280241D02*
X168355560Y-91661193D01*
X168355560Y-91661193D02*
X168403179Y-91756431D01*
X168403179Y-91756431D02*
X168450798Y-91804050D01*
X168450798Y-91804050D02*
X168546036Y-91851669D01*
X168546036Y-91851669D02*
X168688893Y-91851669D01*
X168688893Y-91851669D02*
X168784131Y-91804050D01*
X168784131Y-91804050D02*
X168831750Y-91756431D01*
X168831750Y-91756431D02*
X168879369Y-91661193D01*
X168879369Y-91661193D02*
X168879369Y-91280241D01*
X169355560Y-92804050D02*
X169355560Y-92232622D01*
X169355560Y-92518336D02*
X168355560Y-92518336D01*
X168355560Y-92518336D02*
X168498417Y-92423098D01*
X168498417Y-92423098D02*
X168593655Y-92327860D01*
X168593655Y-92327860D02*
X168641274Y-92232622D01*
X168355560Y-93137384D02*
X168355560Y-93756431D01*
X168355560Y-93756431D02*
X168736512Y-93423098D01*
X168736512Y-93423098D02*
X168736512Y-93565955D01*
X168736512Y-93565955D02*
X168784131Y-93661193D01*
X168784131Y-93661193D02*
X168831750Y-93708812D01*
X168831750Y-93708812D02*
X168926988Y-93756431D01*
X168926988Y-93756431D02*
X169165083Y-93756431D01*
X169165083Y-93756431D02*
X169260321Y-93708812D01*
X169260321Y-93708812D02*
X169307941Y-93661193D01*
X169307941Y-93661193D02*
X169355560Y-93565955D01*
X169355560Y-93565955D02*
X169355560Y-93280241D01*
X169355560Y-93280241D02*
X169307941Y-93185003D01*
X169307941Y-93185003D02*
X169260321Y-93137384D01*
X183627160Y-90991593D02*
X184341445Y-90991593D01*
X184341445Y-90991593D02*
X184484302Y-90943974D01*
X184484302Y-90943974D02*
X184579541Y-90848736D01*
X184579541Y-90848736D02*
X184627160Y-90705879D01*
X184627160Y-90705879D02*
X184627160Y-90610641D01*
X184627160Y-91991593D02*
X184627160Y-91420165D01*
X184627160Y-91705879D02*
X183627160Y-91705879D01*
X183627160Y-91705879D02*
X183770017Y-91610641D01*
X183770017Y-91610641D02*
X183865255Y-91515403D01*
X183865255Y-91515403D02*
X183912874Y-91420165D01*
X146594179Y-123092784D02*
X146689417Y-123045165D01*
X146689417Y-123045165D02*
X146784655Y-122949927D01*
X146784655Y-122949927D02*
X146927512Y-122807069D01*
X146927512Y-122807069D02*
X147022750Y-122759450D01*
X147022750Y-122759450D02*
X147117988Y-122759450D01*
X147070369Y-122997546D02*
X147165607Y-122949927D01*
X147165607Y-122949927D02*
X147260845Y-122854688D01*
X147260845Y-122854688D02*
X147308464Y-122664212D01*
X147308464Y-122664212D02*
X147308464Y-122330879D01*
X147308464Y-122330879D02*
X147260845Y-122140403D01*
X147260845Y-122140403D02*
X147165607Y-122045165D01*
X147165607Y-122045165D02*
X147070369Y-121997546D01*
X147070369Y-121997546D02*
X146879893Y-121997546D01*
X146879893Y-121997546D02*
X146784655Y-122045165D01*
X146784655Y-122045165D02*
X146689417Y-122140403D01*
X146689417Y-122140403D02*
X146641798Y-122330879D01*
X146641798Y-122330879D02*
X146641798Y-122664212D01*
X146641798Y-122664212D02*
X146689417Y-122854688D01*
X146689417Y-122854688D02*
X146784655Y-122949927D01*
X146784655Y-122949927D02*
X146879893Y-122997546D01*
X146879893Y-122997546D02*
X147070369Y-122997546D01*
X146260845Y-122092784D02*
X146213226Y-122045165D01*
X146213226Y-122045165D02*
X146117988Y-121997546D01*
X146117988Y-121997546D02*
X145879893Y-121997546D01*
X145879893Y-121997546D02*
X145784655Y-122045165D01*
X145784655Y-122045165D02*
X145737036Y-122092784D01*
X145737036Y-122092784D02*
X145689417Y-122188022D01*
X145689417Y-122188022D02*
X145689417Y-122283260D01*
X145689417Y-122283260D02*
X145737036Y-122426117D01*
X145737036Y-122426117D02*
X146308464Y-122997546D01*
X146308464Y-122997546D02*
X145689417Y-122997546D01*
X158790160Y-111231869D02*
X158313969Y-110898536D01*
X158790160Y-110660441D02*
X157790160Y-110660441D01*
X157790160Y-110660441D02*
X157790160Y-111041393D01*
X157790160Y-111041393D02*
X157837779Y-111136631D01*
X157837779Y-111136631D02*
X157885398Y-111184250D01*
X157885398Y-111184250D02*
X157980636Y-111231869D01*
X157980636Y-111231869D02*
X158123493Y-111231869D01*
X158123493Y-111231869D02*
X158218731Y-111184250D01*
X158218731Y-111184250D02*
X158266350Y-111136631D01*
X158266350Y-111136631D02*
X158313969Y-111041393D01*
X158313969Y-111041393D02*
X158313969Y-110660441D01*
X158790160Y-112184250D02*
X158790160Y-111612822D01*
X158790160Y-111898536D02*
X157790160Y-111898536D01*
X157790160Y-111898536D02*
X157933017Y-111803298D01*
X157933017Y-111803298D02*
X158028255Y-111708060D01*
X158028255Y-111708060D02*
X158075874Y-111612822D01*
X157790160Y-113041393D02*
X157790160Y-112850917D01*
X157790160Y-112850917D02*
X157837779Y-112755679D01*
X157837779Y-112755679D02*
X157885398Y-112708060D01*
X157885398Y-112708060D02*
X158028255Y-112612822D01*
X158028255Y-112612822D02*
X158218731Y-112565203D01*
X158218731Y-112565203D02*
X158599683Y-112565203D01*
X158599683Y-112565203D02*
X158694921Y-112612822D01*
X158694921Y-112612822D02*
X158742541Y-112660441D01*
X158742541Y-112660441D02*
X158790160Y-112755679D01*
X158790160Y-112755679D02*
X158790160Y-112946155D01*
X158790160Y-112946155D02*
X158742541Y-113041393D01*
X158742541Y-113041393D02*
X158694921Y-113089012D01*
X158694921Y-113089012D02*
X158599683Y-113136631D01*
X158599683Y-113136631D02*
X158361588Y-113136631D01*
X158361588Y-113136631D02*
X158266350Y-113089012D01*
X158266350Y-113089012D02*
X158218731Y-113041393D01*
X158218731Y-113041393D02*
X158171112Y-112946155D01*
X158171112Y-112946155D02*
X158171112Y-112755679D01*
X158171112Y-112755679D02*
X158218731Y-112660441D01*
X158218731Y-112660441D02*
X158266350Y-112612822D01*
X158266350Y-112612822D02*
X158361588Y-112565203D01*
X175808160Y-95756860D02*
X175808160Y-95280670D01*
X175808160Y-95280670D02*
X174808160Y-95280670D01*
X175808160Y-96614003D02*
X175808160Y-96042575D01*
X175808160Y-96328289D02*
X174808160Y-96328289D01*
X174808160Y-96328289D02*
X174951017Y-96233051D01*
X174951017Y-96233051D02*
X175046255Y-96137813D01*
X175046255Y-96137813D02*
X175093874Y-96042575D01*
X183477160Y-76015593D02*
X184191445Y-76015593D01*
X184191445Y-76015593D02*
X184334302Y-75967974D01*
X184334302Y-75967974D02*
X184429541Y-75872736D01*
X184429541Y-75872736D02*
X184477160Y-75729879D01*
X184477160Y-75729879D02*
X184477160Y-75634641D01*
X183572398Y-76444165D02*
X183524779Y-76491784D01*
X183524779Y-76491784D02*
X183477160Y-76587022D01*
X183477160Y-76587022D02*
X183477160Y-76825117D01*
X183477160Y-76825117D02*
X183524779Y-76920355D01*
X183524779Y-76920355D02*
X183572398Y-76967974D01*
X183572398Y-76967974D02*
X183667636Y-77015593D01*
X183667636Y-77015593D02*
X183762874Y-77015593D01*
X183762874Y-77015593D02*
X183905731Y-76967974D01*
X183905731Y-76967974D02*
X184477160Y-76396546D01*
X184477160Y-76396546D02*
X184477160Y-77015593D01*
X153964160Y-111809660D02*
X153487969Y-111476327D01*
X153964160Y-111238232D02*
X152964160Y-111238232D01*
X152964160Y-111238232D02*
X152964160Y-111619184D01*
X152964160Y-111619184D02*
X153011779Y-111714422D01*
X153011779Y-111714422D02*
X153059398Y-111762041D01*
X153059398Y-111762041D02*
X153154636Y-111809660D01*
X153154636Y-111809660D02*
X153297493Y-111809660D01*
X153297493Y-111809660D02*
X153392731Y-111762041D01*
X153392731Y-111762041D02*
X153440350Y-111714422D01*
X153440350Y-111714422D02*
X153487969Y-111619184D01*
X153487969Y-111619184D02*
X153487969Y-111238232D01*
X152964160Y-112142994D02*
X152964160Y-112809660D01*
X152964160Y-112809660D02*
X153964160Y-112381089D01*
X151373360Y-112647860D02*
X150897169Y-112314527D01*
X151373360Y-112076432D02*
X150373360Y-112076432D01*
X150373360Y-112076432D02*
X150373360Y-112457384D01*
X150373360Y-112457384D02*
X150420979Y-112552622D01*
X150420979Y-112552622D02*
X150468598Y-112600241D01*
X150468598Y-112600241D02*
X150563836Y-112647860D01*
X150563836Y-112647860D02*
X150706693Y-112647860D01*
X150706693Y-112647860D02*
X150801931Y-112600241D01*
X150801931Y-112600241D02*
X150849550Y-112552622D01*
X150849550Y-112552622D02*
X150897169Y-112457384D01*
X150897169Y-112457384D02*
X150897169Y-112076432D01*
X150373360Y-113505003D02*
X150373360Y-113314527D01*
X150373360Y-113314527D02*
X150420979Y-113219289D01*
X150420979Y-113219289D02*
X150468598Y-113171670D01*
X150468598Y-113171670D02*
X150611455Y-113076432D01*
X150611455Y-113076432D02*
X150801931Y-113028813D01*
X150801931Y-113028813D02*
X151182883Y-113028813D01*
X151182883Y-113028813D02*
X151278121Y-113076432D01*
X151278121Y-113076432D02*
X151325741Y-113124051D01*
X151325741Y-113124051D02*
X151373360Y-113219289D01*
X151373360Y-113219289D02*
X151373360Y-113409765D01*
X151373360Y-113409765D02*
X151325741Y-113505003D01*
X151325741Y-113505003D02*
X151278121Y-113552622D01*
X151278121Y-113552622D02*
X151182883Y-113600241D01*
X151182883Y-113600241D02*
X150944788Y-113600241D01*
X150944788Y-113600241D02*
X150849550Y-113552622D01*
X150849550Y-113552622D02*
X150801931Y-113505003D01*
X150801931Y-113505003D02*
X150754312Y-113409765D01*
X150754312Y-113409765D02*
X150754312Y-113219289D01*
X150754312Y-113219289D02*
X150801931Y-113124051D01*
X150801931Y-113124051D02*
X150849550Y-113076432D01*
X150849550Y-113076432D02*
X150944788Y-113028813D01*
X179304515Y-88272163D02*
X179203500Y-87699744D01*
X179708576Y-87868102D02*
X179001469Y-87160996D01*
X179001469Y-87160996D02*
X178732095Y-87430370D01*
X178732095Y-87430370D02*
X178698423Y-87531385D01*
X178698423Y-87531385D02*
X178698423Y-87598728D01*
X178698423Y-87598728D02*
X178732095Y-87699744D01*
X178732095Y-87699744D02*
X178833110Y-87800759D01*
X178833110Y-87800759D02*
X178934126Y-87834431D01*
X178934126Y-87834431D02*
X179001469Y-87834431D01*
X179001469Y-87834431D02*
X179102484Y-87800759D01*
X179102484Y-87800759D02*
X179371858Y-87531385D01*
X178395378Y-87901774D02*
X178328034Y-87901774D01*
X178328034Y-87901774D02*
X178227019Y-87935446D01*
X178227019Y-87935446D02*
X178058660Y-88103805D01*
X178058660Y-88103805D02*
X178024988Y-88204820D01*
X178024988Y-88204820D02*
X178024988Y-88272163D01*
X178024988Y-88272163D02*
X178058660Y-88373179D01*
X178058660Y-88373179D02*
X178126004Y-88440522D01*
X178126004Y-88440522D02*
X178260691Y-88507866D01*
X178260691Y-88507866D02*
X179068813Y-88507866D01*
X179068813Y-88507866D02*
X178631080Y-88945598D01*
X177957645Y-89619034D02*
X178361706Y-89214973D01*
X178159675Y-89417003D02*
X177452568Y-88709896D01*
X177452568Y-88709896D02*
X177620927Y-88743568D01*
X177620927Y-88743568D02*
X177755614Y-88743568D01*
X177755614Y-88743568D02*
X177856629Y-88709896D01*
X183621960Y-109864993D02*
X184336245Y-109864993D01*
X184336245Y-109864993D02*
X184479102Y-109817374D01*
X184479102Y-109817374D02*
X184574341Y-109722136D01*
X184574341Y-109722136D02*
X184621960Y-109579279D01*
X184621960Y-109579279D02*
X184621960Y-109484041D01*
X183621960Y-110245946D02*
X183621960Y-110912612D01*
X183621960Y-110912612D02*
X184621960Y-110484041D01*
X181349235Y-92111146D02*
X181349235Y-91111146D01*
X181349235Y-91111146D02*
X181111140Y-91111146D01*
X181111140Y-91111146D02*
X180968283Y-91158765D01*
X180968283Y-91158765D02*
X180873045Y-91254003D01*
X180873045Y-91254003D02*
X180825426Y-91349241D01*
X180825426Y-91349241D02*
X180777807Y-91539717D01*
X180777807Y-91539717D02*
X180777807Y-91682574D01*
X180777807Y-91682574D02*
X180825426Y-91873050D01*
X180825426Y-91873050D02*
X180873045Y-91968288D01*
X180873045Y-91968288D02*
X180968283Y-92063527D01*
X180968283Y-92063527D02*
X181111140Y-92111146D01*
X181111140Y-92111146D02*
X181349235Y-92111146D01*
X179825426Y-92111146D02*
X180396854Y-92111146D01*
X180111140Y-92111146D02*
X180111140Y-91111146D01*
X180111140Y-91111146D02*
X180206378Y-91254003D01*
X180206378Y-91254003D02*
X180301616Y-91349241D01*
X180301616Y-91349241D02*
X180396854Y-91396860D01*
X179380715Y-86163963D02*
X179279700Y-85591544D01*
X179784776Y-85759902D02*
X179077669Y-85052796D01*
X179077669Y-85052796D02*
X178808295Y-85322170D01*
X178808295Y-85322170D02*
X178774623Y-85423185D01*
X178774623Y-85423185D02*
X178774623Y-85490528D01*
X178774623Y-85490528D02*
X178808295Y-85591544D01*
X178808295Y-85591544D02*
X178909310Y-85692559D01*
X178909310Y-85692559D02*
X179010326Y-85726231D01*
X179010326Y-85726231D02*
X179077669Y-85726231D01*
X179077669Y-85726231D02*
X179178684Y-85692559D01*
X179178684Y-85692559D02*
X179448058Y-85423185D01*
X178471578Y-85793574D02*
X178404234Y-85793574D01*
X178404234Y-85793574D02*
X178303219Y-85827246D01*
X178303219Y-85827246D02*
X178134860Y-85995605D01*
X178134860Y-85995605D02*
X178101188Y-86096620D01*
X178101188Y-86096620D02*
X178101188Y-86163963D01*
X178101188Y-86163963D02*
X178134860Y-86264979D01*
X178134860Y-86264979D02*
X178202204Y-86332322D01*
X178202204Y-86332322D02*
X178336891Y-86399666D01*
X178336891Y-86399666D02*
X179145013Y-86399666D01*
X179145013Y-86399666D02*
X178707280Y-86837398D01*
X177562440Y-86568025D02*
X177495097Y-86635368D01*
X177495097Y-86635368D02*
X177461425Y-86736383D01*
X177461425Y-86736383D02*
X177461425Y-86803727D01*
X177461425Y-86803727D02*
X177495097Y-86904742D01*
X177495097Y-86904742D02*
X177596112Y-87073101D01*
X177596112Y-87073101D02*
X177764471Y-87241460D01*
X177764471Y-87241460D02*
X177932829Y-87342475D01*
X177932829Y-87342475D02*
X178033845Y-87376147D01*
X178033845Y-87376147D02*
X178101188Y-87376147D01*
X178101188Y-87376147D02*
X178202203Y-87342475D01*
X178202203Y-87342475D02*
X178269547Y-87275131D01*
X178269547Y-87275131D02*
X178303219Y-87174116D01*
X178303219Y-87174116D02*
X178303219Y-87106773D01*
X178303219Y-87106773D02*
X178269547Y-87005757D01*
X178269547Y-87005757D02*
X178168532Y-86837399D01*
X178168532Y-86837399D02*
X178000173Y-86669040D01*
X178000173Y-86669040D02*
X177831814Y-86568025D01*
X177831814Y-86568025D02*
X177730799Y-86534353D01*
X177730799Y-86534353D02*
X177663455Y-86534353D01*
X177663455Y-86534353D02*
X177562440Y-86568025D01*
X177475807Y-99248546D02*
X177809140Y-98772355D01*
X178047235Y-99248546D02*
X178047235Y-98248546D01*
X178047235Y-98248546D02*
X177666283Y-98248546D01*
X177666283Y-98248546D02*
X177571045Y-98296165D01*
X177571045Y-98296165D02*
X177523426Y-98343784D01*
X177523426Y-98343784D02*
X177475807Y-98439022D01*
X177475807Y-98439022D02*
X177475807Y-98581879D01*
X177475807Y-98581879D02*
X177523426Y-98677117D01*
X177523426Y-98677117D02*
X177571045Y-98724736D01*
X177571045Y-98724736D02*
X177666283Y-98772355D01*
X177666283Y-98772355D02*
X178047235Y-98772355D01*
X176618664Y-98581879D02*
X176618664Y-99248546D01*
X176856759Y-98200927D02*
X177094854Y-98915212D01*
X177094854Y-98915212D02*
X176475807Y-98915212D01*
X179279115Y-81312563D02*
X179178100Y-80740144D01*
X179683176Y-80908502D02*
X178976069Y-80201396D01*
X178976069Y-80201396D02*
X178706695Y-80470770D01*
X178706695Y-80470770D02*
X178673023Y-80571785D01*
X178673023Y-80571785D02*
X178673023Y-80639128D01*
X178673023Y-80639128D02*
X178706695Y-80740144D01*
X178706695Y-80740144D02*
X178807710Y-80841159D01*
X178807710Y-80841159D02*
X178908726Y-80874831D01*
X178908726Y-80874831D02*
X178976069Y-80874831D01*
X178976069Y-80874831D02*
X179077084Y-80841159D01*
X179077084Y-80841159D02*
X179346458Y-80571785D01*
X178605680Y-81985998D02*
X179009741Y-81581937D01*
X178807710Y-81783968D02*
X178100604Y-81076861D01*
X178100604Y-81076861D02*
X178268962Y-81110533D01*
X178268962Y-81110533D02*
X178403649Y-81110533D01*
X178403649Y-81110533D02*
X178504665Y-81076861D01*
X177797558Y-81985999D02*
X177831229Y-81884983D01*
X177831229Y-81884983D02*
X177831229Y-81817640D01*
X177831229Y-81817640D02*
X177797558Y-81716625D01*
X177797558Y-81716625D02*
X177763886Y-81682953D01*
X177763886Y-81682953D02*
X177662871Y-81649281D01*
X177662871Y-81649281D02*
X177595527Y-81649281D01*
X177595527Y-81649281D02*
X177494512Y-81682953D01*
X177494512Y-81682953D02*
X177359825Y-81817640D01*
X177359825Y-81817640D02*
X177326153Y-81918655D01*
X177326153Y-81918655D02*
X177326153Y-81985999D01*
X177326153Y-81985999D02*
X177359825Y-82087014D01*
X177359825Y-82087014D02*
X177393497Y-82120686D01*
X177393497Y-82120686D02*
X177494512Y-82154357D01*
X177494512Y-82154357D02*
X177561855Y-82154357D01*
X177561855Y-82154357D02*
X177662871Y-82120686D01*
X177662871Y-82120686D02*
X177797558Y-81985999D01*
X177797558Y-81985999D02*
X177898573Y-81952327D01*
X177898573Y-81952327D02*
X177965916Y-81952327D01*
X177965916Y-81952327D02*
X178066932Y-81985999D01*
X178066932Y-81985999D02*
X178201619Y-82120686D01*
X178201619Y-82120686D02*
X178235290Y-82221701D01*
X178235290Y-82221701D02*
X178235290Y-82289044D01*
X178235290Y-82289044D02*
X178201619Y-82390060D01*
X178201619Y-82390060D02*
X178066932Y-82524747D01*
X178066932Y-82524747D02*
X177965916Y-82558418D01*
X177965916Y-82558418D02*
X177898573Y-82558418D01*
X177898573Y-82558418D02*
X177797558Y-82524747D01*
X177797558Y-82524747D02*
X177662871Y-82390060D01*
X177662871Y-82390060D02*
X177629199Y-82289044D01*
X177629199Y-82289044D02*
X177629199Y-82221701D01*
X177629199Y-82221701D02*
X177662871Y-82120686D01*
X156580360Y-112374869D02*
X156104169Y-112041536D01*
X156580360Y-111803441D02*
X155580360Y-111803441D01*
X155580360Y-111803441D02*
X155580360Y-112184393D01*
X155580360Y-112184393D02*
X155627979Y-112279631D01*
X155627979Y-112279631D02*
X155675598Y-112327250D01*
X155675598Y-112327250D02*
X155770836Y-112374869D01*
X155770836Y-112374869D02*
X155913693Y-112374869D01*
X155913693Y-112374869D02*
X156008931Y-112327250D01*
X156008931Y-112327250D02*
X156056550Y-112279631D01*
X156056550Y-112279631D02*
X156104169Y-112184393D01*
X156104169Y-112184393D02*
X156104169Y-111803441D01*
X156580360Y-113327250D02*
X156580360Y-112755822D01*
X156580360Y-113041536D02*
X155580360Y-113041536D01*
X155580360Y-113041536D02*
X155723217Y-112946298D01*
X155723217Y-112946298D02*
X155818455Y-112851060D01*
X155818455Y-112851060D02*
X155866074Y-112755822D01*
X155580360Y-114232012D02*
X155580360Y-113755822D01*
X155580360Y-113755822D02*
X156056550Y-113708203D01*
X156056550Y-113708203D02*
X156008931Y-113755822D01*
X156008931Y-113755822D02*
X155961312Y-113851060D01*
X155961312Y-113851060D02*
X155961312Y-114089155D01*
X155961312Y-114089155D02*
X156008931Y-114184393D01*
X156008931Y-114184393D02*
X156056550Y-114232012D01*
X156056550Y-114232012D02*
X156151788Y-114279631D01*
X156151788Y-114279631D02*
X156389883Y-114279631D01*
X156389883Y-114279631D02*
X156485121Y-114232012D01*
X156485121Y-114232012D02*
X156532741Y-114184393D01*
X156532741Y-114184393D02*
X156580360Y-114089155D01*
X156580360Y-114089155D02*
X156580360Y-113851060D01*
X156580360Y-113851060D02*
X156532741Y-113755822D01*
X156532741Y-113755822D02*
X156485121Y-113708203D01*
X163606760Y-97862022D02*
X163606760Y-98433450D01*
X164606760Y-98147736D02*
X163606760Y-98147736D01*
X164606760Y-98766784D02*
X163606760Y-98766784D01*
X163606760Y-98766784D02*
X163606760Y-99147736D01*
X163606760Y-99147736D02*
X163654379Y-99242974D01*
X163654379Y-99242974D02*
X163701998Y-99290593D01*
X163701998Y-99290593D02*
X163797236Y-99338212D01*
X163797236Y-99338212D02*
X163940093Y-99338212D01*
X163940093Y-99338212D02*
X164035331Y-99290593D01*
X164035331Y-99290593D02*
X164082950Y-99242974D01*
X164082950Y-99242974D02*
X164130569Y-99147736D01*
X164130569Y-99147736D02*
X164130569Y-98766784D01*
X163701998Y-99719165D02*
X163654379Y-99766784D01*
X163654379Y-99766784D02*
X163606760Y-99862022D01*
X163606760Y-99862022D02*
X163606760Y-100100117D01*
X163606760Y-100100117D02*
X163654379Y-100195355D01*
X163654379Y-100195355D02*
X163701998Y-100242974D01*
X163701998Y-100242974D02*
X163797236Y-100290593D01*
X163797236Y-100290593D02*
X163892474Y-100290593D01*
X163892474Y-100290593D02*
X164035331Y-100242974D01*
X164035331Y-100242974D02*
X164606760Y-99671546D01*
X164606760Y-99671546D02*
X164606760Y-100290593D01*
X179253715Y-83700163D02*
X179152700Y-83127744D01*
X179657776Y-83296102D02*
X178950669Y-82588996D01*
X178950669Y-82588996D02*
X178681295Y-82858370D01*
X178681295Y-82858370D02*
X178647623Y-82959385D01*
X178647623Y-82959385D02*
X178647623Y-83026728D01*
X178647623Y-83026728D02*
X178681295Y-83127744D01*
X178681295Y-83127744D02*
X178782310Y-83228759D01*
X178782310Y-83228759D02*
X178883326Y-83262431D01*
X178883326Y-83262431D02*
X178950669Y-83262431D01*
X178950669Y-83262431D02*
X179051684Y-83228759D01*
X179051684Y-83228759D02*
X179321058Y-82959385D01*
X178580280Y-84373598D02*
X178984341Y-83969537D01*
X178782310Y-84171568D02*
X178075204Y-83464461D01*
X178075204Y-83464461D02*
X178243562Y-83498133D01*
X178243562Y-83498133D02*
X178378249Y-83498133D01*
X178378249Y-83498133D02*
X178479265Y-83464461D01*
X178243562Y-84710316D02*
X178108875Y-84845003D01*
X178108875Y-84845003D02*
X178007860Y-84878675D01*
X178007860Y-84878675D02*
X177940516Y-84878675D01*
X177940516Y-84878675D02*
X177772158Y-84845003D01*
X177772158Y-84845003D02*
X177603799Y-84743988D01*
X177603799Y-84743988D02*
X177334425Y-84474614D01*
X177334425Y-84474614D02*
X177300753Y-84373599D01*
X177300753Y-84373599D02*
X177300753Y-84306255D01*
X177300753Y-84306255D02*
X177334425Y-84205240D01*
X177334425Y-84205240D02*
X177469112Y-84070553D01*
X177469112Y-84070553D02*
X177570127Y-84036881D01*
X177570127Y-84036881D02*
X177637471Y-84036881D01*
X177637471Y-84036881D02*
X177738486Y-84070553D01*
X177738486Y-84070553D02*
X177906845Y-84238912D01*
X177906845Y-84238912D02*
X177940516Y-84339927D01*
X177940516Y-84339927D02*
X177940516Y-84407270D01*
X177940516Y-84407270D02*
X177906845Y-84508286D01*
X177906845Y-84508286D02*
X177772158Y-84642973D01*
X177772158Y-84642973D02*
X177671142Y-84676644D01*
X177671142Y-84676644D02*
X177603799Y-84676644D01*
X177603799Y-84676644D02*
X177502784Y-84642973D01*
X165054560Y-95322022D02*
X165054560Y-95893450D01*
X166054560Y-95607736D02*
X165054560Y-95607736D01*
X166054560Y-96226784D02*
X165054560Y-96226784D01*
X165054560Y-96226784D02*
X165054560Y-96607736D01*
X165054560Y-96607736D02*
X165102179Y-96702974D01*
X165102179Y-96702974D02*
X165149798Y-96750593D01*
X165149798Y-96750593D02*
X165245036Y-96798212D01*
X165245036Y-96798212D02*
X165387893Y-96798212D01*
X165387893Y-96798212D02*
X165483131Y-96750593D01*
X165483131Y-96750593D02*
X165530750Y-96702974D01*
X165530750Y-96702974D02*
X165578369Y-96607736D01*
X165578369Y-96607736D02*
X165578369Y-96226784D01*
X166054560Y-97750593D02*
X166054560Y-97179165D01*
X166054560Y-97464879D02*
X165054560Y-97464879D01*
X165054560Y-97464879D02*
X165197417Y-97369641D01*
X165197417Y-97369641D02*
X165292655Y-97274403D01*
X165292655Y-97274403D02*
X165340274Y-97179165D01*
X178802874Y-100559946D02*
X178802874Y-101274231D01*
X178802874Y-101274231D02*
X178850493Y-101417088D01*
X178850493Y-101417088D02*
X178945731Y-101512327D01*
X178945731Y-101512327D02*
X179088588Y-101559946D01*
X179088588Y-101559946D02*
X179183826Y-101559946D01*
X178326683Y-101559946D02*
X178326683Y-100559946D01*
X178326683Y-100559946D02*
X177945731Y-100559946D01*
X177945731Y-100559946D02*
X177850493Y-100607565D01*
X177850493Y-100607565D02*
X177802874Y-100655184D01*
X177802874Y-100655184D02*
X177755255Y-100750422D01*
X177755255Y-100750422D02*
X177755255Y-100893279D01*
X177755255Y-100893279D02*
X177802874Y-100988517D01*
X177802874Y-100988517D02*
X177850493Y-101036136D01*
X177850493Y-101036136D02*
X177945731Y-101083755D01*
X177945731Y-101083755D02*
X178326683Y-101083755D01*
X176802874Y-101559946D02*
X177374302Y-101559946D01*
X177088588Y-101559946D02*
X177088588Y-100559946D01*
X177088588Y-100559946D02*
X177183826Y-100702803D01*
X177183826Y-100702803D02*
X177279064Y-100798041D01*
X177279064Y-100798041D02*
X177374302Y-100845660D01*
X172588721Y-89051260D02*
X172636341Y-89003641D01*
X172636341Y-89003641D02*
X172683960Y-88860784D01*
X172683960Y-88860784D02*
X172683960Y-88765546D01*
X172683960Y-88765546D02*
X172636341Y-88622689D01*
X172636341Y-88622689D02*
X172541102Y-88527451D01*
X172541102Y-88527451D02*
X172445864Y-88479832D01*
X172445864Y-88479832D02*
X172255388Y-88432213D01*
X172255388Y-88432213D02*
X172112531Y-88432213D01*
X172112531Y-88432213D02*
X171922055Y-88479832D01*
X171922055Y-88479832D02*
X171826817Y-88527451D01*
X171826817Y-88527451D02*
X171731579Y-88622689D01*
X171731579Y-88622689D02*
X171683960Y-88765546D01*
X171683960Y-88765546D02*
X171683960Y-88860784D01*
X171683960Y-88860784D02*
X171731579Y-89003641D01*
X171731579Y-89003641D02*
X171779198Y-89051260D01*
X172683960Y-90003641D02*
X172683960Y-89432213D01*
X172683960Y-89717927D02*
X171683960Y-89717927D01*
X171683960Y-89717927D02*
X171826817Y-89622689D01*
X171826817Y-89622689D02*
X171922055Y-89527451D01*
X171922055Y-89527451D02*
X171969674Y-89432213D01*
X156322379Y-123143584D02*
X156417617Y-123095965D01*
X156417617Y-123095965D02*
X156512855Y-123000727D01*
X156512855Y-123000727D02*
X156655712Y-122857869D01*
X156655712Y-122857869D02*
X156750950Y-122810250D01*
X156750950Y-122810250D02*
X156846188Y-122810250D01*
X156798569Y-123048346D02*
X156893807Y-123000727D01*
X156893807Y-123000727D02*
X156989045Y-122905488D01*
X156989045Y-122905488D02*
X157036664Y-122715012D01*
X157036664Y-122715012D02*
X157036664Y-122381679D01*
X157036664Y-122381679D02*
X156989045Y-122191203D01*
X156989045Y-122191203D02*
X156893807Y-122095965D01*
X156893807Y-122095965D02*
X156798569Y-122048346D01*
X156798569Y-122048346D02*
X156608093Y-122048346D01*
X156608093Y-122048346D02*
X156512855Y-122095965D01*
X156512855Y-122095965D02*
X156417617Y-122191203D01*
X156417617Y-122191203D02*
X156369998Y-122381679D01*
X156369998Y-122381679D02*
X156369998Y-122715012D01*
X156369998Y-122715012D02*
X156417617Y-122905488D01*
X156417617Y-122905488D02*
X156512855Y-123000727D01*
X156512855Y-123000727D02*
X156608093Y-123048346D01*
X156608093Y-123048346D02*
X156798569Y-123048346D01*
X156036664Y-122048346D02*
X155417617Y-122048346D01*
X155417617Y-122048346D02*
X155750950Y-122429298D01*
X155750950Y-122429298D02*
X155608093Y-122429298D01*
X155608093Y-122429298D02*
X155512855Y-122476917D01*
X155512855Y-122476917D02*
X155465236Y-122524536D01*
X155465236Y-122524536D02*
X155417617Y-122619774D01*
X155417617Y-122619774D02*
X155417617Y-122857869D01*
X155417617Y-122857869D02*
X155465236Y-122953107D01*
X155465236Y-122953107D02*
X155512855Y-123000727D01*
X155512855Y-123000727D02*
X155608093Y-123048346D01*
X155608093Y-123048346D02*
X155893807Y-123048346D01*
X155893807Y-123048346D02*
X155989045Y-123000727D01*
X155989045Y-123000727D02*
X156036664Y-122953107D01*
X146293360Y-112851060D02*
X145817169Y-112517727D01*
X146293360Y-112279632D02*
X145293360Y-112279632D01*
X145293360Y-112279632D02*
X145293360Y-112660584D01*
X145293360Y-112660584D02*
X145340979Y-112755822D01*
X145340979Y-112755822D02*
X145388598Y-112803441D01*
X145388598Y-112803441D02*
X145483836Y-112851060D01*
X145483836Y-112851060D02*
X145626693Y-112851060D01*
X145626693Y-112851060D02*
X145721931Y-112803441D01*
X145721931Y-112803441D02*
X145769550Y-112755822D01*
X145769550Y-112755822D02*
X145817169Y-112660584D01*
X145817169Y-112660584D02*
X145817169Y-112279632D01*
X145721931Y-113422489D02*
X145674312Y-113327251D01*
X145674312Y-113327251D02*
X145626693Y-113279632D01*
X145626693Y-113279632D02*
X145531455Y-113232013D01*
X145531455Y-113232013D02*
X145483836Y-113232013D01*
X145483836Y-113232013D02*
X145388598Y-113279632D01*
X145388598Y-113279632D02*
X145340979Y-113327251D01*
X145340979Y-113327251D02*
X145293360Y-113422489D01*
X145293360Y-113422489D02*
X145293360Y-113612965D01*
X145293360Y-113612965D02*
X145340979Y-113708203D01*
X145340979Y-113708203D02*
X145388598Y-113755822D01*
X145388598Y-113755822D02*
X145483836Y-113803441D01*
X145483836Y-113803441D02*
X145531455Y-113803441D01*
X145531455Y-113803441D02*
X145626693Y-113755822D01*
X145626693Y-113755822D02*
X145674312Y-113708203D01*
X145674312Y-113708203D02*
X145721931Y-113612965D01*
X145721931Y-113612965D02*
X145721931Y-113422489D01*
X145721931Y-113422489D02*
X145769550Y-113327251D01*
X145769550Y-113327251D02*
X145817169Y-113279632D01*
X145817169Y-113279632D02*
X145912407Y-113232013D01*
X145912407Y-113232013D02*
X146102883Y-113232013D01*
X146102883Y-113232013D02*
X146198121Y-113279632D01*
X146198121Y-113279632D02*
X146245741Y-113327251D01*
X146245741Y-113327251D02*
X146293360Y-113422489D01*
X146293360Y-113422489D02*
X146293360Y-113612965D01*
X146293360Y-113612965D02*
X146245741Y-113708203D01*
X146245741Y-113708203D02*
X146198121Y-113755822D01*
X146198121Y-113755822D02*
X146102883Y-113803441D01*
X146102883Y-113803441D02*
X145912407Y-113803441D01*
X145912407Y-113803441D02*
X145817169Y-113755822D01*
X145817169Y-113755822D02*
X145769550Y-113708203D01*
X145769550Y-113708203D02*
X145721931Y-113612965D01*
X174461960Y-89495832D02*
X173461960Y-89495832D01*
X173461960Y-89495832D02*
X173461960Y-89733927D01*
X173461960Y-89733927D02*
X173509579Y-89876784D01*
X173509579Y-89876784D02*
X173604817Y-89972022D01*
X173604817Y-89972022D02*
X173700055Y-90019641D01*
X173700055Y-90019641D02*
X173890531Y-90067260D01*
X173890531Y-90067260D02*
X174033388Y-90067260D01*
X174033388Y-90067260D02*
X174223864Y-90019641D01*
X174223864Y-90019641D02*
X174319102Y-89972022D01*
X174319102Y-89972022D02*
X174414341Y-89876784D01*
X174414341Y-89876784D02*
X174461960Y-89733927D01*
X174461960Y-89733927D02*
X174461960Y-89495832D01*
X173557198Y-90448213D02*
X173509579Y-90495832D01*
X173509579Y-90495832D02*
X173461960Y-90591070D01*
X173461960Y-90591070D02*
X173461960Y-90829165D01*
X173461960Y-90829165D02*
X173509579Y-90924403D01*
X173509579Y-90924403D02*
X173557198Y-90972022D01*
X173557198Y-90972022D02*
X173652436Y-91019641D01*
X173652436Y-91019641D02*
X173747674Y-91019641D01*
X173747674Y-91019641D02*
X173890531Y-90972022D01*
X173890531Y-90972022D02*
X174461960Y-90400594D01*
X174461960Y-90400594D02*
X174461960Y-91019641D01*
X151699579Y-122991184D02*
X151794817Y-122943565D01*
X151794817Y-122943565D02*
X151890055Y-122848327D01*
X151890055Y-122848327D02*
X152032912Y-122705469D01*
X152032912Y-122705469D02*
X152128150Y-122657850D01*
X152128150Y-122657850D02*
X152223388Y-122657850D01*
X152175769Y-122895946D02*
X152271007Y-122848327D01*
X152271007Y-122848327D02*
X152366245Y-122753088D01*
X152366245Y-122753088D02*
X152413864Y-122562612D01*
X152413864Y-122562612D02*
X152413864Y-122229279D01*
X152413864Y-122229279D02*
X152366245Y-122038803D01*
X152366245Y-122038803D02*
X152271007Y-121943565D01*
X152271007Y-121943565D02*
X152175769Y-121895946D01*
X152175769Y-121895946D02*
X151985293Y-121895946D01*
X151985293Y-121895946D02*
X151890055Y-121943565D01*
X151890055Y-121943565D02*
X151794817Y-122038803D01*
X151794817Y-122038803D02*
X151747198Y-122229279D01*
X151747198Y-122229279D02*
X151747198Y-122562612D01*
X151747198Y-122562612D02*
X151794817Y-122753088D01*
X151794817Y-122753088D02*
X151890055Y-122848327D01*
X151890055Y-122848327D02*
X151985293Y-122895946D01*
X151985293Y-122895946D02*
X152175769Y-122895946D01*
X150794817Y-122895946D02*
X151366245Y-122895946D01*
X151080531Y-122895946D02*
X151080531Y-121895946D01*
X151080531Y-121895946D02*
X151175769Y-122038803D01*
X151175769Y-122038803D02*
X151271007Y-122134041D01*
X151271007Y-122134041D02*
X151366245Y-122181660D01*
X182600198Y-75880546D02*
X182933531Y-75404355D01*
X183171626Y-75880546D02*
X183171626Y-74880546D01*
X183171626Y-74880546D02*
X182790674Y-74880546D01*
X182790674Y-74880546D02*
X182695436Y-74928165D01*
X182695436Y-74928165D02*
X182647817Y-74975784D01*
X182647817Y-74975784D02*
X182600198Y-75071022D01*
X182600198Y-75071022D02*
X182600198Y-75213879D01*
X182600198Y-75213879D02*
X182647817Y-75309117D01*
X182647817Y-75309117D02*
X182695436Y-75356736D01*
X182695436Y-75356736D02*
X182790674Y-75404355D01*
X182790674Y-75404355D02*
X183171626Y-75404355D01*
X181647817Y-75880546D02*
X182219245Y-75880546D01*
X181933531Y-75880546D02*
X181933531Y-74880546D01*
X181933531Y-74880546D02*
X182028769Y-75023403D01*
X182028769Y-75023403D02*
X182124007Y-75118641D01*
X182124007Y-75118641D02*
X182219245Y-75166260D01*
X181314483Y-74880546D02*
X180647817Y-74880546D01*
X180647817Y-74880546D02*
X181076388Y-75880546D01*
X166868360Y-77526069D02*
X166392169Y-77192736D01*
X166868360Y-76954641D02*
X165868360Y-76954641D01*
X165868360Y-76954641D02*
X165868360Y-77335593D01*
X165868360Y-77335593D02*
X165915979Y-77430831D01*
X165915979Y-77430831D02*
X165963598Y-77478450D01*
X165963598Y-77478450D02*
X166058836Y-77526069D01*
X166058836Y-77526069D02*
X166201693Y-77526069D01*
X166201693Y-77526069D02*
X166296931Y-77478450D01*
X166296931Y-77478450D02*
X166344550Y-77430831D01*
X166344550Y-77430831D02*
X166392169Y-77335593D01*
X166392169Y-77335593D02*
X166392169Y-76954641D01*
X166868360Y-78478450D02*
X166868360Y-77907022D01*
X166868360Y-78192736D02*
X165868360Y-78192736D01*
X165868360Y-78192736D02*
X166011217Y-78097498D01*
X166011217Y-78097498D02*
X166106455Y-78002260D01*
X166106455Y-78002260D02*
X166154074Y-77907022D01*
X166201693Y-79335593D02*
X166868360Y-79335593D01*
X165820741Y-79097498D02*
X166535026Y-78859403D01*
X166535026Y-78859403D02*
X166535026Y-79478450D01*
X148757160Y-111860460D02*
X148280969Y-111527127D01*
X148757160Y-111289032D02*
X147757160Y-111289032D01*
X147757160Y-111289032D02*
X147757160Y-111669984D01*
X147757160Y-111669984D02*
X147804779Y-111765222D01*
X147804779Y-111765222D02*
X147852398Y-111812841D01*
X147852398Y-111812841D02*
X147947636Y-111860460D01*
X147947636Y-111860460D02*
X148090493Y-111860460D01*
X148090493Y-111860460D02*
X148185731Y-111812841D01*
X148185731Y-111812841D02*
X148233350Y-111765222D01*
X148233350Y-111765222D02*
X148280969Y-111669984D01*
X148280969Y-111669984D02*
X148280969Y-111289032D01*
X148757160Y-112336651D02*
X148757160Y-112527127D01*
X148757160Y-112527127D02*
X148709541Y-112622365D01*
X148709541Y-112622365D02*
X148661921Y-112669984D01*
X148661921Y-112669984D02*
X148519064Y-112765222D01*
X148519064Y-112765222D02*
X148328588Y-112812841D01*
X148328588Y-112812841D02*
X147947636Y-112812841D01*
X147947636Y-112812841D02*
X147852398Y-112765222D01*
X147852398Y-112765222D02*
X147804779Y-112717603D01*
X147804779Y-112717603D02*
X147757160Y-112622365D01*
X147757160Y-112622365D02*
X147757160Y-112431889D01*
X147757160Y-112431889D02*
X147804779Y-112336651D01*
X147804779Y-112336651D02*
X147852398Y-112289032D01*
X147852398Y-112289032D02*
X147947636Y-112241413D01*
X147947636Y-112241413D02*
X148185731Y-112241413D01*
X148185731Y-112241413D02*
X148280969Y-112289032D01*
X148280969Y-112289032D02*
X148328588Y-112336651D01*
X148328588Y-112336651D02*
X148376207Y-112431889D01*
X148376207Y-112431889D02*
X148376207Y-112622365D01*
X148376207Y-112622365D02*
X148328588Y-112717603D01*
X148328588Y-112717603D02*
X148280969Y-112765222D01*
X148280969Y-112765222D02*
X148185731Y-112812841D01*
X177450407Y-97216546D02*
X177783740Y-96740355D01*
X178021835Y-97216546D02*
X178021835Y-96216546D01*
X178021835Y-96216546D02*
X177640883Y-96216546D01*
X177640883Y-96216546D02*
X177545645Y-96264165D01*
X177545645Y-96264165D02*
X177498026Y-96311784D01*
X177498026Y-96311784D02*
X177450407Y-96407022D01*
X177450407Y-96407022D02*
X177450407Y-96549879D01*
X177450407Y-96549879D02*
X177498026Y-96645117D01*
X177498026Y-96645117D02*
X177545645Y-96692736D01*
X177545645Y-96692736D02*
X177640883Y-96740355D01*
X177640883Y-96740355D02*
X178021835Y-96740355D01*
X176498026Y-97216546D02*
X177069454Y-97216546D01*
X176783740Y-97216546D02*
X176783740Y-96216546D01*
X176783740Y-96216546D02*
X176878978Y-96359403D01*
X176878978Y-96359403D02*
X176974216Y-96454641D01*
X176974216Y-96454641D02*
X177069454Y-96502260D01*
D11*
%TO.C,C9*%
X155102289Y-97800727D02*
X155624793Y-97800727D01*
X155102289Y-99270727D02*
X155624793Y-99270727D01*
%TO.C,C8*%
X152868141Y-99886727D02*
X156778141Y-99886727D01*
X152868141Y-101756727D02*
X152868141Y-99886727D01*
X156778141Y-101756727D02*
X152868141Y-101756727D01*
D10*
%TO.C,U2*%
X151814141Y-84728727D02*
X151814141Y-85403727D01*
X151814141Y-84728727D02*
X152389141Y-84728727D01*
X151814141Y-95078727D02*
X151814141Y-94403727D01*
X151814141Y-95078727D02*
X152489141Y-95078727D01*
X152389141Y-84728727D02*
X152389141Y-83453727D01*
X162164141Y-84728727D02*
X161489141Y-84728727D01*
X162164141Y-84728727D02*
X162164141Y-85403727D01*
X162164141Y-95078727D02*
X161489141Y-95078727D01*
X162164141Y-95078727D02*
X162164141Y-94403727D01*
D11*
%TO.C,R12*%
X164483741Y-92721591D02*
X164483741Y-92267463D01*
X165953741Y-92721591D02*
X165953741Y-92267463D01*
%TO.C,R5*%
X168953405Y-102197927D02*
X168499277Y-102197927D01*
X168953405Y-103667927D02*
X168499277Y-103667927D01*
%TO.C,C3*%
X152983193Y-77230727D02*
X152460689Y-77230727D01*
X152983193Y-78700727D02*
X152460689Y-78700727D01*
%TO.C,C4*%
X163027089Y-77230727D02*
X163549593Y-77230727D01*
X163027089Y-78700727D02*
X163549593Y-78700727D01*
%TO.C,C10*%
X155297889Y-80528727D02*
X155820393Y-80528727D01*
X155297889Y-81998727D02*
X155820393Y-81998727D01*
%TO.C,C11*%
X147821341Y-90164979D02*
X147821341Y-89642475D01*
X149291341Y-90164979D02*
X149291341Y-89642475D01*
%TO.C,C12*%
X165746142Y-89043379D02*
X165746142Y-88520875D01*
X167216142Y-89043379D02*
X167216142Y-88520875D01*
%TO.C,C2*%
X172145089Y-102217927D02*
X172667593Y-102217927D01*
X172145089Y-103687927D02*
X172667593Y-103687927D01*
%TO.C,R13*%
X166515741Y-92721591D02*
X166515741Y-92267463D01*
X167985741Y-92721591D02*
X167985741Y-92267463D01*
%TO.C,J1*%
X184946341Y-90717927D02*
X184946341Y-92517927D01*
X184946341Y-92517927D02*
X183956341Y-92517927D01*
X184946341Y-101687927D02*
X184946341Y-99887927D01*
X186396341Y-90717927D02*
X184946341Y-90717927D01*
X186396341Y-101687927D02*
X184946341Y-101687927D01*
X189216341Y-91987927D02*
X189216341Y-100417927D01*
%TO.C,Q2*%
X146524341Y-118264927D02*
X145874341Y-118264927D01*
X146524341Y-118264927D02*
X148199341Y-118264927D01*
X146524341Y-121384927D02*
X145874341Y-121384927D01*
X146524341Y-121384927D02*
X147174341Y-121384927D01*
%TO.C,R16*%
X157473341Y-115025863D02*
X157473341Y-115479991D01*
X158943341Y-115025863D02*
X158943341Y-115479991D01*
%TO.C,L1*%
X173395541Y-95726860D02*
X173395541Y-96069394D01*
X174415541Y-95726860D02*
X174415541Y-96069394D01*
%TO.C,J2*%
X184946341Y-75751927D02*
X184946341Y-77551927D01*
X184946341Y-77551927D02*
X183956341Y-77551927D01*
X184946341Y-89221927D02*
X184946341Y-87421927D01*
X186396341Y-75751927D02*
X184946341Y-75751927D01*
X186396341Y-89221927D02*
X184946341Y-89221927D01*
X189216341Y-77021927D02*
X189216341Y-87951927D01*
%TO.C,R7*%
X152647341Y-115025863D02*
X152647341Y-115479991D01*
X154117341Y-115025863D02*
X154117341Y-115479991D01*
%TO.C,R6*%
X150107341Y-116495991D02*
X150107341Y-116041863D01*
X151577341Y-116495991D02*
X151577341Y-116041863D01*
%TO.C,R21*%
X181400077Y-86323927D02*
X181854205Y-86323927D01*
X181400077Y-87793927D02*
X181854205Y-87793927D01*
%TO.C,J7*%
X184946341Y-103260927D02*
X184946341Y-105060927D01*
X184946341Y-105060927D02*
X183956341Y-105060927D01*
X184946341Y-110480927D02*
X184946341Y-108680927D01*
X186396341Y-103260927D02*
X184946341Y-103260927D01*
X186396341Y-110480927D02*
X184946341Y-110480927D01*
X189216341Y-104530927D02*
X189216341Y-109210927D01*
%TO.C,D1*%
X179351141Y-93653327D02*
X179351141Y-92453327D01*
X181311141Y-92453327D02*
X179351141Y-92453327D01*
X181311141Y-93653327D02*
X179351141Y-93653327D01*
%TO.C,R20*%
X181400077Y-84241127D02*
X181854205Y-84241127D01*
X181400077Y-85711127D02*
X181854205Y-85711127D01*
%TO.C,R4*%
X180180877Y-98007927D02*
X180635005Y-98007927D01*
X180180877Y-99477927D02*
X180635005Y-99477927D01*
%TO.C,R18*%
X181400077Y-79008727D02*
X181854205Y-79008727D01*
X181400077Y-80478727D02*
X181854205Y-80478727D01*
%TO.C,R15*%
X155187341Y-116495991D02*
X155187341Y-116041863D01*
X156657341Y-116495991D02*
X156657341Y-116041863D01*
%TO.C,TP2*%
X162997741Y-98184127D02*
G75*
G02*
X161597741Y-98184127I-700000J0D01*
G01*
X161597741Y-98184127D02*
G75*
G02*
X162997741Y-98184127I700000J0D01*
G01*
%TO.C,R19*%
X181400077Y-81650327D02*
X181854205Y-81650327D01*
X181400077Y-83120327D02*
X181854205Y-83120327D01*
%TO.C,TP1*%
X164801141Y-96304527D02*
G75*
G02*
X163401141Y-96304527I-700000J0D01*
G01*
X163401141Y-96304527D02*
G75*
G02*
X164801141Y-96304527I700000J0D01*
G01*
%TO.C,JP1*%
X179668341Y-100779727D02*
X179668341Y-101379727D01*
X180368341Y-102079727D02*
X181768341Y-102079727D01*
X181768341Y-100079727D02*
X180368341Y-100079727D01*
X182468341Y-101379727D02*
X182468341Y-100779727D01*
X179668341Y-100779727D02*
G75*
G02*
X180368341Y-100079727I699999J1D01*
G01*
X180368341Y-102079727D02*
G75*
G02*
X179668341Y-101379727I-1J699999D01*
G01*
X181768341Y-100079727D02*
G75*
G02*
X182468341Y-100779727I0J-700000D01*
G01*
X182468341Y-101379727D02*
G75*
G02*
X181768341Y-102079727I-700000J0D01*
G01*
%TO.C,C1*%
X171361341Y-92764179D02*
X171361341Y-92241675D01*
X172831341Y-92764179D02*
X172831341Y-92241675D01*
%TO.C,Q3*%
X156430341Y-118264927D02*
X155780341Y-118264927D01*
X156430341Y-118264927D02*
X158105341Y-118264927D01*
X156430341Y-121384927D02*
X155780341Y-121384927D01*
X156430341Y-121384927D02*
X157080341Y-121384927D01*
%TO.C,R8*%
X145027341Y-116495991D02*
X145027341Y-116041863D01*
X146497341Y-116495991D02*
X146497341Y-116041863D01*
%TO.C,D2*%
X173305541Y-91997727D02*
X173305541Y-93957727D01*
X174505541Y-91997727D02*
X174505541Y-93957727D01*
X174505541Y-93957727D02*
X173305541Y-93957727D01*
%TO.C,Q1*%
X151604341Y-118264927D02*
X150954341Y-118264927D01*
X151604341Y-118264927D02*
X153279341Y-118264927D01*
X151604341Y-121384927D02*
X150954341Y-121384927D01*
X151604341Y-121384927D02*
X152254341Y-121384927D01*
%TO.C,R17*%
X181400077Y-76519527D02*
X181854205Y-76519527D01*
X181400077Y-77989527D02*
X181854205Y-77989527D01*
%TO.C,R14*%
X167328541Y-77941863D02*
X167328541Y-78395991D01*
X168798541Y-77941863D02*
X168798541Y-78395991D01*
%TO.C,R9*%
X147567341Y-115025863D02*
X147567341Y-115479991D01*
X149037341Y-115025863D02*
X149037341Y-115479991D01*
%TO.C,R1*%
X180180877Y-95925127D02*
X180635005Y-95925127D01*
X180180877Y-97395127D02*
X180635005Y-97395127D01*
%TD*%
M02*
