M48
; DRILL file {KiCad 9.0.6+1} date 2025-12-27T23:03:06+0000
; FORMAT={3:3/ absolute / metric / suppress leading zeros}
; #@! TF.CreationDate,2025-12-27T23:03:06+00:00
; #@! TF.GenerationSoftware,Kicad,Pcbnew,9.0.6+1
; #@! TF.FileFunction,Plated,1,2,PTH
FMAT,2
METRIC,TZ
; #@! TA.AperFunction,Plated,PTH,ViaDrill
T1C0.400
; #@! TA.AperFunction,Plated,PTH,ComponentDrill
T2C0.889
; #@! TA.AperFunction,Plated,PTH,ComponentDrill
T3C3.000
%
G90
G05
T1
X23686Y25005
X29058Y34849
X30239Y26098
X31306Y26043
X33223Y33604
X33317Y24489
X34099Y25143
X34188Y34265
X34519Y21971
X39293Y44603
X39776Y36325
X40767Y36195
X42291Y37440
X42373Y25242
X42824Y23952
X45249Y19855
X45850Y17031
X45974Y25578
X46836Y17200
X49987Y21895
X51715Y23303
X52438Y22541
X54661Y17970
X55247Y19731
X55796Y20567
X58039Y21209
X58242Y18491
T2
X22860Y53340
X22860Y50800
X25400Y53340
X25400Y50800
X27940Y53340
X27940Y50800
X30480Y53340
X30480Y50800
X33020Y53340
X33020Y50800
X35560Y53340
X35560Y50800
X38100Y53340
X38100Y50800
X40640Y53340
X40640Y50800
X43180Y53340
X43180Y50800
X45720Y53340
X45720Y50800
X48260Y53340
X48260Y50800
X50800Y53340
X50800Y50800
X53340Y53340
X53340Y50800
X55880Y53340
X55880Y50800
X58420Y53340
X58420Y50800
T3
X10160Y50800
X10160Y10160
X71120Y50800
X71120Y10160
M30
