%TF.GenerationSoftware,KiCad,Pcbnew,9.0.1+1*%
%TF.CreationDate,2025-11-25T21:21:07+00:00*%
%TF.ProjectId,TFUNIPAYLOAD01,5446554e-4950-4415-994c-4f414430312e,rev?*%
%TF.SameCoordinates,Original*%
%TF.FileFunction,Copper,L2,Inr*%
%TF.FilePolarity,Positive*%
%FSLAX46Y46*%
G04 Gerber Fmt 4.6, Leading zero omitted, Abs format (unit mm)*
G04 Created by KiCad (PCBNEW 9.0.1+1) date 2025-11-25 21:21:07*
%MOMM*%
%LPD*%
G01*
G04 APERTURE LIST*
%TA.AperFunction,ComponentPad*%
%ADD10C,6.000000*%
%TD*%
%TA.AperFunction,ComponentPad*%
%ADD11O,0.900000X1.300000*%
%TD*%
%TA.AperFunction,ComponentPad*%
%ADD12R,1.700000X1.700000*%
%TD*%
%TA.AperFunction,ComponentPad*%
%ADD13C,1.700000*%
%TD*%
%TA.AperFunction,ViaPad*%
%ADD14C,0.800000*%
%TD*%
%TA.AperFunction,Conductor*%
%ADD15C,0.400000*%
%TD*%
G04 APERTURE END LIST*
D10*
%TO.N,GND*%
%TO.C,M2*%
X174972341Y-78676927D03*
%TD*%
%TO.N,GND*%
%TO.C,M3*%
X103852341Y-78676927D03*
%TD*%
%TO.N,GND*%
%TO.C,M4*%
X103852341Y-119316927D03*
%TD*%
%TO.N,GND*%
%TO.C,M1*%
X174972341Y-119316927D03*
%TD*%
D11*
%TO.N,GND*%
%TO.C,SW1*%
X139208741Y-146823727D03*
X143458741Y-146823727D03*
%TD*%
D12*
%TO.N,GND*%
%TO.C,J5*%
X89902341Y-83812327D03*
D13*
X87362341Y-83812327D03*
%TO.N,+5V*%
X89902341Y-86352327D03*
X87362341Y-86352327D03*
%TO.N,+3.3V*%
X89902341Y-88892327D03*
X87362341Y-88892327D03*
%TO.N,GND*%
X89902341Y-91432327D03*
%TO.N,/EXT_DETECTION*%
X87362341Y-91432327D03*
%TO.N,/A0*%
X89902341Y-93972327D03*
%TO.N,/~{RST}_EXT*%
X87362341Y-93972327D03*
%TO.N,/A1*%
X89902341Y-96512327D03*
%TO.N,/RX1*%
X87362341Y-96512327D03*
%TO.N,/B1*%
X89902341Y-99052327D03*
%TO.N,/TX1*%
X87362341Y-99052327D03*
%TO.N,/B0*%
X89902341Y-101592327D03*
%TO.N,/MOSI*%
X87362341Y-101592327D03*
%TO.N,/C1*%
X89902341Y-104132327D03*
%TO.N,/MISO*%
X87362341Y-104132327D03*
%TO.N,/C0*%
X89902341Y-106672327D03*
%TO.N,/SCLK*%
X87362341Y-106672327D03*
%TO.N,GND*%
X89902341Y-109212327D03*
X87362341Y-109212327D03*
%TO.N,/SCL*%
X89902341Y-111752327D03*
X87362341Y-111752327D03*
%TO.N,+3.3V*%
X89902341Y-114292327D03*
X87362341Y-114292327D03*
%TO.N,/SDA*%
X89902341Y-116832327D03*
X87362341Y-116832327D03*
%TO.N,GND*%
X89902341Y-119372327D03*
X87362341Y-119372327D03*
%TD*%
D14*
%TO.N,*%
X168063539Y-116726127D03*
X145181381Y-94661915D03*
X168306341Y-112402927D03*
X182236741Y-94069327D03*
X180595156Y-114230135D03*
X147875857Y-95470143D03*
X179442755Y-114236913D03*
X127628641Y-84825627D03*
X180560341Y-116649927D03*
X177276341Y-109522927D03*
X152724916Y-103722632D03*
X176750341Y-105753327D03*
X163034341Y-116726127D03*
X147921341Y-99708127D03*
X172084160Y-114961455D03*
X180814341Y-120078927D03*
X129252341Y-107734527D03*
X171916484Y-106462927D03*
X119168541Y-113597425D03*
%TO.N,GND*%
X130319141Y-122720527D03*
X112894741Y-98895327D03*
X109948341Y-84772927D03*
X111472341Y-78676927D03*
X161002341Y-82232927D03*
X170400341Y-122568127D03*
X187926341Y-102552927D03*
X187164341Y-108394927D03*
X142739741Y-104864327D03*
X147540341Y-82994927D03*
X156201741Y-79972327D03*
X170095541Y-76416327D03*
X134687941Y-89598927D03*
X164761541Y-75247927D03*
X126712341Y-116941927D03*
X119092341Y-78676927D03*
X165142541Y-117132527D03*
X131792341Y-76136927D03*
X168114341Y-122618927D03*
X142005929Y-113493571D03*
X143933541Y-90310127D03*
X185640341Y-102552927D03*
X160748341Y-122618927D03*
X140306986Y-114878873D03*
X167149141Y-111900127D03*
X184116341Y-109410927D03*
X187164341Y-97599927D03*
X169854213Y-81635163D03*
X150749696Y-123241927D03*
X172178341Y-97269727D03*
X156902405Y-99875165D03*
X158970341Y-77025927D03*
X107007066Y-111870688D03*
X185640341Y-110045927D03*
X152975941Y-82639327D03*
X105762027Y-109429655D03*
X167930923Y-87647509D03*
X118076341Y-84645927D03*
X121632341Y-78676927D03*
X128080141Y-106261327D03*
X149318341Y-76136927D03*
X185691141Y-103924527D03*
X175327941Y-91478527D03*
X111472341Y-76136927D03*
X108939137Y-117926796D03*
X129026341Y-116941927D03*
X189247141Y-74587527D03*
X176775741Y-89268727D03*
X120209941Y-120434527D03*
X132706741Y-122923727D03*
X142917541Y-101105127D03*
X134662541Y-82944127D03*
X187164341Y-116522927D03*
X133113141Y-120434527D03*
X188434341Y-98488927D03*
X167453941Y-105753327D03*
X187418341Y-92646927D03*
X173600741Y-88379727D03*
X125130654Y-107589012D03*
X186427741Y-77813327D03*
X151604341Y-75628927D03*
X159783141Y-75730527D03*
X152264741Y-112484327D03*
X118942172Y-116370964D03*
X156313545Y-97742129D03*
X121632341Y-116941927D03*
X154681159Y-123718127D03*
X187164341Y-118046927D03*
X108932341Y-78676927D03*
X187164341Y-119824927D03*
X164405941Y-101917927D03*
X168165141Y-100139927D03*
X129564341Y-90614927D03*
X178553741Y-107251927D03*
X178934741Y-89294127D03*
X140377541Y-92164327D03*
X131614541Y-92113527D03*
X120057541Y-102654527D03*
X171162341Y-81851927D03*
X135983341Y-113881327D03*
X124172341Y-78676927D03*
X160164141Y-110579327D03*
X177664741Y-91427727D03*
X168066341Y-84222927D03*
X123994541Y-81242327D03*
X178401341Y-101155927D03*
X124985141Y-92748527D03*
X187164341Y-115125927D03*
X157065341Y-77025927D03*
X153382341Y-75628927D03*
X124172341Y-116941927D03*
X159116341Y-91342927D03*
X170984541Y-87770127D03*
X155592139Y-101760384D03*
X188688341Y-89852927D03*
X122165741Y-122441127D03*
X142714341Y-82055127D03*
X156684341Y-75628927D03*
X148302341Y-123241927D03*
X187900941Y-74587527D03*
X114012341Y-78676927D03*
X136237341Y-122491927D03*
X141024591Y-102285577D03*
X141952341Y-119316927D03*
X181347741Y-75171727D03*
X109262541Y-119850327D03*
X162500941Y-101028927D03*
X171111541Y-75171727D03*
X172762541Y-101054327D03*
X114418741Y-80734327D03*
X155160341Y-75628927D03*
X137862941Y-91986527D03*
X129252341Y-76136927D03*
X132249541Y-81369327D03*
X108525941Y-103772127D03*
X187164341Y-89852927D03*
X179925341Y-121983927D03*
X177300541Y-112188125D03*
X187545341Y-94551927D03*
X108932341Y-76136927D03*
X156531941Y-108610727D03*
X151858341Y-96202927D03*
X185894341Y-89852927D03*
X149775541Y-110680927D03*
X179335426Y-104902927D03*
X153209205Y-123362527D03*
X183074941Y-74587527D03*
X189323341Y-77813327D03*
X188078741Y-77864127D03*
X179214141Y-75705127D03*
X149953341Y-82080527D03*
X174438941Y-84112527D03*
X143984341Y-84264927D03*
X158081341Y-78854727D03*
X172279941Y-95161527D03*
X137913741Y-75120927D03*
X165066341Y-109842727D03*
X103090341Y-91376927D03*
X164659941Y-81801127D03*
X117060341Y-116345127D03*
X136465941Y-106845527D03*
X143222341Y-120409127D03*
X109008541Y-80607327D03*
X149318341Y-77914927D03*
X188434341Y-108394927D03*
X178970407Y-91405976D03*
X116552341Y-78676927D03*
X134332341Y-76136927D03*
X177284274Y-100610366D03*
X112259741Y-120129727D03*
X185945141Y-74714527D03*
X189196341Y-102552927D03*
X144822541Y-100139927D03*
X175228595Y-99239301D03*
X126204341Y-92646927D03*
X163415341Y-106337527D03*
X118381141Y-111544527D03*
X143857341Y-110045927D03*
X164304341Y-122618927D03*
%TO.N,/~{RST}_PRG*%
X155684341Y-85957019D03*
X170646341Y-102902923D03*
X142486341Y-93382927D03*
%TO.N,Net-(D6-K)*%
X157065341Y-115379927D03*
%TO.N,/SCL*%
X161095573Y-91552927D03*
X186351541Y-83147327D03*
X139513941Y-118707327D03*
X112012122Y-113239948D03*
X141217741Y-106134327D03*
X168532804Y-93655736D03*
%TO.N,/SDA*%
X161249741Y-92544392D03*
X186402341Y-81877327D03*
X165482091Y-94618777D03*
X141550006Y-107909262D03*
X108754543Y-113144728D03*
X140064693Y-119639079D03*
%TO.N,Net-(D3-K)*%
X152137741Y-115481527D03*
%TO.N,/A0*%
X131705596Y-109955328D03*
X148117027Y-92350870D03*
%TO.N,Net-(D4-K)*%
X147006939Y-115456127D03*
%TO.N,Net-(D5-K)*%
X168012741Y-75933727D03*
%TO.N,+3.3V*%
X171826341Y-113622927D03*
X173194341Y-105169127D03*
X160750309Y-89703727D03*
X134956336Y-119375432D03*
X134956341Y-117142927D03*
X157098949Y-88704742D03*
X166481142Y-90652927D03*
X136846941Y-102593520D03*
X171826341Y-110972927D03*
X180136341Y-103752927D03*
%TO.N,unconnected-(U2-PA2-Pad35)*%
X127474341Y-93434327D03*
X147972141Y-98514327D03*
%TO.N,/RX0*%
X171158421Y-107115112D03*
X178172741Y-96660127D03*
X161141941Y-87033526D03*
%TO.N,/TX0*%
X175353341Y-105473927D03*
X178204826Y-98825814D03*
X160291131Y-86042927D03*
%TO.N,Vin*%
X172737141Y-99113727D03*
%TO.N,/PC5_D1*%
X160419934Y-94130855D03*
X149572341Y-112966927D03*
%TO.N,/PC7_D3*%
X158719422Y-94401561D03*
X159783141Y-114846527D03*
%TO.N,/PC6_D2*%
X159489709Y-93763860D03*
X157217741Y-109537927D03*
%TO.N,/TX1*%
X179391941Y-85534927D03*
X166031541Y-84518925D03*
%TO.N,/RX1*%
X179341141Y-87058927D03*
X162018341Y-84112527D03*
%TO.N,/SCLK*%
X154085390Y-86329368D03*
%TO.N,/C1*%
X148149941Y-87160527D03*
X160096262Y-88697631D03*
%TO.N,/MOSI*%
X151655141Y-84163327D03*
%TO.N,/B1*%
X149775541Y-108699725D03*
X153104510Y-87820727D03*
%TO.N,/MISO*%
X153096509Y-86180641D03*
%TO.N,/B0*%
X120406341Y-106103427D03*
X153867397Y-88541710D03*
%TO.N,/A1*%
X146829141Y-93552927D03*
X110343536Y-93343932D03*
X133956341Y-105016727D03*
X126926169Y-98476098D03*
X108144947Y-95313927D03*
%TO.N,/CS1*%
X149826341Y-85865127D03*
%TD*%
D15*
%TO.N,*%
X176750341Y-105753327D02*
X176013741Y-106489927D01*
X168306341Y-112402927D02*
X174396341Y-112402927D01*
X176013741Y-106489927D02*
X171943484Y-106489927D01*
X171943484Y-106489927D02*
X171916484Y-106462927D01*
X174396341Y-112402927D02*
X177276341Y-109522927D01*
%TO.N,/SCL*%
X168532804Y-93655736D02*
X166449150Y-93655736D01*
X164348141Y-91554727D02*
X161097373Y-91554727D01*
X166449150Y-93655736D02*
X164348141Y-91554727D01*
X161097373Y-91554727D02*
X161095573Y-91552927D01*
%TO.N,/RX0*%
X178172741Y-96660127D02*
X170075541Y-88562927D01*
X162671342Y-88562927D02*
X161141941Y-87033526D01*
X170075541Y-88562927D02*
X162671342Y-88562927D01*
%TO.N,/TX0*%
X160291131Y-86042927D02*
X160291131Y-87631484D01*
X175353341Y-105473927D02*
X175353341Y-101409927D01*
X168825539Y-89446527D02*
X178204826Y-98825814D01*
X177937454Y-98825814D02*
X178204826Y-98825814D01*
X162106174Y-89446527D02*
X168825539Y-89446527D01*
X160291131Y-87631484D02*
X162106174Y-89446527D01*
X175353341Y-101409927D02*
X177937454Y-98825814D01*
%TO.N,/PC5_D1*%
X158097141Y-92808927D02*
X157309741Y-93596327D01*
X160419934Y-94130855D02*
X160419934Y-93562714D01*
X157309741Y-94989199D02*
X159646541Y-97325999D01*
X157309741Y-93596327D02*
X157309741Y-94989199D01*
X160419934Y-93562714D02*
X159666147Y-92808927D01*
X159646541Y-102892727D02*
X149572341Y-112966927D01*
X159666147Y-92808927D02*
X158097141Y-92808927D01*
X159646541Y-97325999D02*
X159646541Y-102892727D01*
%TO.N,/PC7_D3*%
X159000188Y-94682327D02*
X158719422Y-94401561D01*
X159783141Y-114846527D02*
X161506941Y-113122727D01*
X159614325Y-94682327D02*
X159000188Y-94682327D01*
X161506941Y-96574943D02*
X159614325Y-94682327D01*
X161506941Y-113122727D02*
X161506941Y-96574943D01*
%TO.N,/PC6_D2*%
X160906941Y-105848727D02*
X157217741Y-109537927D01*
X158345669Y-93408927D02*
X157909741Y-93844855D01*
X157909741Y-93844855D02*
X157909741Y-94740671D01*
X160906941Y-97737871D02*
X160906941Y-105848727D01*
X157909741Y-94740671D02*
X160906941Y-97737871D01*
X159134776Y-93408927D02*
X158345669Y-93408927D01*
X159489709Y-93763860D02*
X159134776Y-93408927D01*
%TO.N,/TX1*%
X167047543Y-85534927D02*
X166031541Y-84518925D01*
X179391941Y-85534927D02*
X167047543Y-85534927D01*
%TO.N,/RX1*%
X164753323Y-86847509D02*
X162018341Y-84112527D01*
X177410741Y-87084327D02*
X177173923Y-86847509D01*
X177173923Y-86847509D02*
X164753323Y-86847509D01*
X179341141Y-87058927D02*
X179315741Y-87084327D01*
X179315741Y-87084327D02*
X177410741Y-87084327D01*
%TO.N,/C1*%
X153611912Y-87020727D02*
X153731784Y-87140599D01*
X158539230Y-87140599D02*
X160096262Y-88697631D01*
X148226141Y-87236727D02*
X150172212Y-87236727D01*
X153731784Y-87140599D02*
X158539230Y-87140599D01*
X150388212Y-87020727D02*
X153611912Y-87020727D01*
X150172212Y-87236727D02*
X150388212Y-87020727D01*
X148149941Y-87160527D02*
X148226141Y-87236727D01*
%TO.N,/B1*%
X156608141Y-89903727D02*
X156608141Y-95136127D01*
X153104510Y-87820727D02*
X153184638Y-87740599D01*
X153184638Y-87740599D02*
X154445013Y-87740599D01*
X152747343Y-108699725D02*
X149775541Y-108699725D01*
X159046541Y-97574527D02*
X159046541Y-102400527D01*
X156608141Y-95136127D02*
X159046541Y-97574527D01*
X154445013Y-87740599D02*
X156608141Y-89903727D01*
X159046541Y-102400527D02*
X152747343Y-108699725D01*
%TD*%
%TA.AperFunction,Conductor*%
%TO.N,GND*%
G36*
X189907032Y-73880334D02*
G01*
X189942996Y-73929834D01*
X189947841Y-73960427D01*
X189947841Y-124033427D01*
X189928934Y-124091618D01*
X189879434Y-124127582D01*
X189848841Y-124132427D01*
X99135841Y-124132427D01*
X99077650Y-124113520D01*
X99041686Y-124064020D01*
X99036841Y-124033427D01*
X99036841Y-119296587D01*
X134155836Y-119296587D01*
X134155836Y-119454276D01*
X134186599Y-119608928D01*
X134186599Y-119608930D01*
X134246939Y-119754606D01*
X134246945Y-119754617D01*
X134299648Y-119833491D01*
X134334547Y-119885721D01*
X134446047Y-119997221D01*
X134524212Y-120049449D01*
X134577150Y-120084822D01*
X134577161Y-120084828D01*
X134630974Y-120107117D01*
X134722839Y-120145169D01*
X134877494Y-120175932D01*
X134877495Y-120175932D01*
X135035177Y-120175932D01*
X135035178Y-120175932D01*
X135189833Y-120145169D01*
X135335515Y-120084826D01*
X135466625Y-119997221D01*
X135578125Y-119885721D01*
X135665730Y-119754611D01*
X135726073Y-119608929D01*
X135756836Y-119454274D01*
X135756836Y-119296590D01*
X135726073Y-119141935D01*
X135683262Y-119038579D01*
X135665732Y-118996257D01*
X135665726Y-118996246D01*
X135613931Y-118918731D01*
X135578125Y-118865143D01*
X135466625Y-118753643D01*
X135392473Y-118704096D01*
X135335521Y-118666041D01*
X135335510Y-118666035D01*
X135244335Y-118628270D01*
X138913441Y-118628270D01*
X138913441Y-118786384D01*
X138954364Y-118939111D01*
X139033421Y-119076043D01*
X139145225Y-119187847D01*
X139282157Y-119266904D01*
X139429653Y-119306425D01*
X139480965Y-119339748D01*
X139502892Y-119396869D01*
X139499655Y-119427673D01*
X139486056Y-119478427D01*
X139464193Y-119560022D01*
X139464193Y-119718136D01*
X139505116Y-119870863D01*
X139584173Y-120007795D01*
X139695977Y-120119599D01*
X139832909Y-120198656D01*
X139985636Y-120239579D01*
X139985638Y-120239579D01*
X140143748Y-120239579D01*
X140143750Y-120239579D01*
X140296477Y-120198656D01*
X140433409Y-120119599D01*
X140545213Y-120007795D01*
X140549788Y-119999870D01*
X180213841Y-119999870D01*
X180213841Y-120157984D01*
X180254764Y-120310711D01*
X180333821Y-120447643D01*
X180445625Y-120559447D01*
X180582557Y-120638504D01*
X180735284Y-120679427D01*
X180735286Y-120679427D01*
X180893396Y-120679427D01*
X180893398Y-120679427D01*
X181046125Y-120638504D01*
X181183057Y-120559447D01*
X181294861Y-120447643D01*
X181373918Y-120310711D01*
X181414841Y-120157984D01*
X181414841Y-119999870D01*
X181373918Y-119847143D01*
X181294861Y-119710211D01*
X181183057Y-119598407D01*
X181046125Y-119519350D01*
X180893398Y-119478427D01*
X180735284Y-119478427D01*
X180582557Y-119519350D01*
X180445625Y-119598407D01*
X180333821Y-119710211D01*
X180254764Y-119847143D01*
X180213841Y-119999870D01*
X140549788Y-119999870D01*
X140565892Y-119971976D01*
X140582114Y-119943881D01*
X140624269Y-119870864D01*
X140624270Y-119870863D01*
X140665193Y-119718136D01*
X140665193Y-119560022D01*
X140624270Y-119407295D01*
X140545213Y-119270363D01*
X140433409Y-119158559D01*
X140296477Y-119079502D01*
X140148981Y-119039980D01*
X140097667Y-119006657D01*
X140075741Y-118949535D01*
X140078977Y-118918735D01*
X140114441Y-118786384D01*
X140114441Y-118628270D01*
X140073518Y-118475543D01*
X139994461Y-118338611D01*
X139882657Y-118226807D01*
X139745725Y-118147750D01*
X139592998Y-118106827D01*
X139434884Y-118106827D01*
X139282157Y-118147750D01*
X139145225Y-118226807D01*
X139033421Y-118338611D01*
X138954364Y-118475543D01*
X138913441Y-118628270D01*
X135244335Y-118628270D01*
X135189833Y-118605695D01*
X135035180Y-118574932D01*
X135035178Y-118574932D01*
X134877494Y-118574932D01*
X134877491Y-118574932D01*
X134722839Y-118605695D01*
X134722837Y-118605695D01*
X134577161Y-118666035D01*
X134577150Y-118666041D01*
X134446047Y-118753643D01*
X134446043Y-118753646D01*
X134334550Y-118865139D01*
X134334547Y-118865143D01*
X134246945Y-118996246D01*
X134246939Y-118996257D01*
X134186599Y-119141933D01*
X134186599Y-119141935D01*
X134155836Y-119296587D01*
X99036841Y-119296587D01*
X99036841Y-117064082D01*
X134155841Y-117064082D01*
X134155841Y-117221771D01*
X134186604Y-117376423D01*
X134186604Y-117376425D01*
X134246944Y-117522101D01*
X134246950Y-117522112D01*
X134299653Y-117600986D01*
X134334552Y-117653216D01*
X134446052Y-117764716D01*
X134524217Y-117816944D01*
X134577155Y-117852317D01*
X134577166Y-117852323D01*
X134630979Y-117874612D01*
X134722844Y-117912664D01*
X134877499Y-117943427D01*
X134877500Y-117943427D01*
X135035182Y-117943427D01*
X135035183Y-117943427D01*
X135189838Y-117912664D01*
X135335520Y-117852321D01*
X135466630Y-117764716D01*
X135578130Y-117653216D01*
X135665735Y-117522106D01*
X135726078Y-117376424D01*
X135756841Y-117221769D01*
X135756841Y-117064085D01*
X135726078Y-116909430D01*
X135682898Y-116805184D01*
X135665737Y-116763752D01*
X135665731Y-116763740D01*
X135620189Y-116695583D01*
X135587773Y-116647070D01*
X162433841Y-116647070D01*
X162433841Y-116805184D01*
X162474764Y-116957911D01*
X162553821Y-117094843D01*
X162665625Y-117206647D01*
X162802557Y-117285704D01*
X162955284Y-117326627D01*
X162955286Y-117326627D01*
X163113396Y-117326627D01*
X163113398Y-117326627D01*
X163266125Y-117285704D01*
X163403057Y-117206647D01*
X163514861Y-117094843D01*
X163593918Y-116957911D01*
X163634841Y-116805184D01*
X163634841Y-116647070D01*
X167463039Y-116647070D01*
X167463039Y-116805184D01*
X167503962Y-116957911D01*
X167583019Y-117094843D01*
X167694823Y-117206647D01*
X167831755Y-117285704D01*
X167984482Y-117326627D01*
X167984484Y-117326627D01*
X168142594Y-117326627D01*
X168142596Y-117326627D01*
X168295323Y-117285704D01*
X168432255Y-117206647D01*
X168544059Y-117094843D01*
X168623116Y-116957911D01*
X168664039Y-116805184D01*
X168664039Y-116647070D01*
X168643621Y-116570870D01*
X179959841Y-116570870D01*
X179959841Y-116728984D01*
X180000764Y-116881711D01*
X180079821Y-117018643D01*
X180191625Y-117130447D01*
X180328557Y-117209504D01*
X180481284Y-117250427D01*
X180481286Y-117250427D01*
X180639396Y-117250427D01*
X180639398Y-117250427D01*
X180792125Y-117209504D01*
X180929057Y-117130447D01*
X181040861Y-117018643D01*
X181119918Y-116881711D01*
X181160841Y-116728984D01*
X181160841Y-116570870D01*
X181119918Y-116418143D01*
X181040861Y-116281211D01*
X180929057Y-116169407D01*
X180792125Y-116090350D01*
X180639398Y-116049427D01*
X180481284Y-116049427D01*
X180328557Y-116090350D01*
X180191625Y-116169407D01*
X180079821Y-116281211D01*
X180000764Y-116418143D01*
X179959841Y-116570870D01*
X168643621Y-116570870D01*
X168623116Y-116494343D01*
X168544059Y-116357411D01*
X168432255Y-116245607D01*
X168295323Y-116166550D01*
X168142596Y-116125627D01*
X167984482Y-116125627D01*
X167831755Y-116166550D01*
X167694823Y-116245607D01*
X167583019Y-116357411D01*
X167503962Y-116494343D01*
X167463039Y-116647070D01*
X163634841Y-116647070D01*
X163593918Y-116494343D01*
X163514861Y-116357411D01*
X163403057Y-116245607D01*
X163266125Y-116166550D01*
X163113398Y-116125627D01*
X162955284Y-116125627D01*
X162802557Y-116166550D01*
X162665625Y-116245607D01*
X162553821Y-116357411D01*
X162474764Y-116494343D01*
X162433841Y-116647070D01*
X135587773Y-116647070D01*
X135578130Y-116632638D01*
X135466633Y-116521141D01*
X135466630Y-116521138D01*
X135414400Y-116486239D01*
X135335526Y-116433536D01*
X135335515Y-116433530D01*
X135189838Y-116373190D01*
X135035185Y-116342427D01*
X135035183Y-116342427D01*
X134877499Y-116342427D01*
X134877496Y-116342427D01*
X134722844Y-116373190D01*
X134722842Y-116373190D01*
X134577166Y-116433530D01*
X134577155Y-116433536D01*
X134446052Y-116521138D01*
X134446048Y-116521141D01*
X134334555Y-116632634D01*
X134334552Y-116632638D01*
X134246950Y-116763741D01*
X134246944Y-116763752D01*
X134186604Y-116909428D01*
X134186604Y-116909430D01*
X134155841Y-117064082D01*
X99036841Y-117064082D01*
X99036841Y-115377070D01*
X146406439Y-115377070D01*
X146406439Y-115535184D01*
X146447362Y-115687911D01*
X146526419Y-115824843D01*
X146638223Y-115936647D01*
X146775155Y-116015704D01*
X146927882Y-116056627D01*
X146927884Y-116056627D01*
X147085994Y-116056627D01*
X147085996Y-116056627D01*
X147238723Y-116015704D01*
X147375655Y-115936647D01*
X147487459Y-115824843D01*
X147566516Y-115687911D01*
X147607439Y-115535184D01*
X147607439Y-115402470D01*
X151537241Y-115402470D01*
X151537241Y-115560584D01*
X151578164Y-115713311D01*
X151657221Y-115850243D01*
X151769025Y-115962047D01*
X151905957Y-116041104D01*
X152058684Y-116082027D01*
X152058686Y-116082027D01*
X152216796Y-116082027D01*
X152216798Y-116082027D01*
X152369525Y-116041104D01*
X152506457Y-115962047D01*
X152618261Y-115850243D01*
X152697318Y-115713311D01*
X152738241Y-115560584D01*
X152738241Y-115402470D01*
X152711017Y-115300870D01*
X156464841Y-115300870D01*
X156464841Y-115458984D01*
X156505764Y-115611711D01*
X156584821Y-115748643D01*
X156696625Y-115860447D01*
X156833557Y-115939504D01*
X156986284Y-115980427D01*
X156986286Y-115980427D01*
X157144396Y-115980427D01*
X157144398Y-115980427D01*
X157297125Y-115939504D01*
X157434057Y-115860447D01*
X157545861Y-115748643D01*
X157624918Y-115611711D01*
X157665841Y-115458984D01*
X157665841Y-115300870D01*
X157624918Y-115148143D01*
X157545861Y-115011211D01*
X157434057Y-114899407D01*
X157297125Y-114820350D01*
X157144398Y-114779427D01*
X156986284Y-114779427D01*
X156833557Y-114820350D01*
X156696625Y-114899407D01*
X156584821Y-115011211D01*
X156505764Y-115148143D01*
X156464841Y-115300870D01*
X152711017Y-115300870D01*
X152697318Y-115249743D01*
X152618261Y-115112811D01*
X152506457Y-115001007D01*
X152369525Y-114921950D01*
X152216798Y-114881027D01*
X152058684Y-114881027D01*
X151905957Y-114921950D01*
X151769025Y-115001007D01*
X151657221Y-115112811D01*
X151578164Y-115249743D01*
X151537241Y-115402470D01*
X147607439Y-115402470D01*
X147607439Y-115377070D01*
X147566516Y-115224343D01*
X147487459Y-115087411D01*
X147375655Y-114975607D01*
X147238723Y-114896550D01*
X147085996Y-114855627D01*
X146927882Y-114855627D01*
X146775155Y-114896550D01*
X146638223Y-114975607D01*
X146526419Y-115087411D01*
X146447362Y-115224343D01*
X146406439Y-115377070D01*
X99036841Y-115377070D01*
X99036841Y-113065671D01*
X108154043Y-113065671D01*
X108154043Y-113223785D01*
X108194966Y-113376512D01*
X108274023Y-113513444D01*
X108385827Y-113625248D01*
X108522759Y-113704305D01*
X108675486Y-113745228D01*
X108675488Y-113745228D01*
X108833598Y-113745228D01*
X108833600Y-113745228D01*
X108986327Y-113704305D01*
X109123259Y-113625248D01*
X109235063Y-113513444D01*
X109314120Y-113376512D01*
X109355043Y-113223785D01*
X109355043Y-113160891D01*
X111411622Y-113160891D01*
X111411622Y-113319005D01*
X111452545Y-113471732D01*
X111531602Y-113608664D01*
X111643406Y-113720468D01*
X111780338Y-113799525D01*
X111933065Y-113840448D01*
X111933067Y-113840448D01*
X112091177Y-113840448D01*
X112091179Y-113840448D01*
X112243906Y-113799525D01*
X112380838Y-113720468D01*
X112492642Y-113608664D01*
X112544774Y-113518368D01*
X118568041Y-113518368D01*
X118568041Y-113676482D01*
X118608964Y-113829209D01*
X118688021Y-113966141D01*
X118799825Y-114077945D01*
X118936757Y-114157002D01*
X119089484Y-114197925D01*
X119089486Y-114197925D01*
X119247596Y-114197925D01*
X119247598Y-114197925D01*
X119400325Y-114157002D01*
X119537257Y-114077945D01*
X119649061Y-113966141D01*
X119728118Y-113829209D01*
X119769041Y-113676482D01*
X119769041Y-113518368D01*
X119728118Y-113365641D01*
X119649061Y-113228709D01*
X119537257Y-113116905D01*
X119400325Y-113037848D01*
X119247598Y-112996925D01*
X119089484Y-112996925D01*
X118936757Y-113037848D01*
X118799825Y-113116905D01*
X118688021Y-113228709D01*
X118608964Y-113365641D01*
X118568041Y-113518368D01*
X112544774Y-113518368D01*
X112571699Y-113471732D01*
X112612622Y-113319005D01*
X112612622Y-113160891D01*
X112571699Y-113008164D01*
X112492642Y-112871232D01*
X112380838Y-112759428D01*
X112243906Y-112680371D01*
X112091179Y-112639448D01*
X111933065Y-112639448D01*
X111780338Y-112680371D01*
X111643406Y-112759428D01*
X111531602Y-112871232D01*
X111452545Y-113008164D01*
X111411622Y-113160891D01*
X109355043Y-113160891D01*
X109355043Y-113065671D01*
X109314120Y-112912944D01*
X109235063Y-112776012D01*
X109123259Y-112664208D01*
X108986327Y-112585151D01*
X108833600Y-112544228D01*
X108675486Y-112544228D01*
X108522759Y-112585151D01*
X108385827Y-112664208D01*
X108274023Y-112776012D01*
X108194966Y-112912944D01*
X108154043Y-113065671D01*
X99036841Y-113065671D01*
X99036841Y-109876271D01*
X131105096Y-109876271D01*
X131105096Y-110034385D01*
X131146019Y-110187112D01*
X131225076Y-110324044D01*
X131336880Y-110435848D01*
X131473812Y-110514905D01*
X131626539Y-110555828D01*
X131626541Y-110555828D01*
X131784651Y-110555828D01*
X131784653Y-110555828D01*
X131937380Y-110514905D01*
X132074312Y-110435848D01*
X132186116Y-110324044D01*
X132265173Y-110187112D01*
X132306096Y-110034385D01*
X132306096Y-109876271D01*
X132265173Y-109723544D01*
X132186116Y-109586612D01*
X132074312Y-109474808D01*
X131937380Y-109395751D01*
X131784653Y-109354828D01*
X131626539Y-109354828D01*
X131473812Y-109395751D01*
X131336880Y-109474808D01*
X131225076Y-109586612D01*
X131146019Y-109723544D01*
X131105096Y-109876271D01*
X99036841Y-109876271D01*
X99036841Y-107655470D01*
X128651841Y-107655470D01*
X128651841Y-107813584D01*
X128692764Y-107966311D01*
X128771821Y-108103243D01*
X128883625Y-108215047D01*
X129020557Y-108294104D01*
X129173284Y-108335027D01*
X129173286Y-108335027D01*
X129331396Y-108335027D01*
X129331398Y-108335027D01*
X129484125Y-108294104D01*
X129621057Y-108215047D01*
X129732861Y-108103243D01*
X129811918Y-107966311D01*
X129848387Y-107830205D01*
X140949506Y-107830205D01*
X140949506Y-107988319D01*
X140990429Y-108141046D01*
X141069486Y-108277978D01*
X141181290Y-108389782D01*
X141318222Y-108468839D01*
X141470949Y-108509762D01*
X141470951Y-108509762D01*
X141629061Y-108509762D01*
X141629063Y-108509762D01*
X141781790Y-108468839D01*
X141918722Y-108389782D01*
X142030526Y-108277978D01*
X142109583Y-108141046D01*
X142150506Y-107988319D01*
X142150506Y-107830205D01*
X142109583Y-107677478D01*
X142030526Y-107540546D01*
X141918722Y-107428742D01*
X141781790Y-107349685D01*
X141629063Y-107308762D01*
X141470949Y-107308762D01*
X141318222Y-107349685D01*
X141181290Y-107428742D01*
X141069486Y-107540546D01*
X140990429Y-107677478D01*
X140949506Y-107830205D01*
X129848387Y-107830205D01*
X129852841Y-107813584D01*
X129852841Y-107655470D01*
X129811918Y-107502743D01*
X129732861Y-107365811D01*
X129621057Y-107254007D01*
X129484125Y-107174950D01*
X129331398Y-107134027D01*
X129173284Y-107134027D01*
X129020557Y-107174950D01*
X128883625Y-107254007D01*
X128771821Y-107365811D01*
X128692764Y-107502743D01*
X128651841Y-107655470D01*
X99036841Y-107655470D01*
X99036841Y-106024370D01*
X119805841Y-106024370D01*
X119805841Y-106182484D01*
X119846764Y-106335211D01*
X119925821Y-106472143D01*
X120037625Y-106583947D01*
X120174557Y-106663004D01*
X120327284Y-106703927D01*
X120327286Y-106703927D01*
X120485396Y-106703927D01*
X120485398Y-106703927D01*
X120638125Y-106663004D01*
X120775057Y-106583947D01*
X120886861Y-106472143D01*
X120965918Y-106335211D01*
X121006841Y-106182484D01*
X121006841Y-106055270D01*
X140617241Y-106055270D01*
X140617241Y-106213384D01*
X140658164Y-106366111D01*
X140737221Y-106503043D01*
X140849025Y-106614847D01*
X140985957Y-106693904D01*
X141138684Y-106734827D01*
X141138686Y-106734827D01*
X141296796Y-106734827D01*
X141296798Y-106734827D01*
X141449525Y-106693904D01*
X141586457Y-106614847D01*
X141698261Y-106503043D01*
X141777318Y-106366111D01*
X141818241Y-106213384D01*
X141818241Y-106055270D01*
X141777318Y-105902543D01*
X141698261Y-105765611D01*
X141586457Y-105653807D01*
X141449525Y-105574750D01*
X141296798Y-105533827D01*
X141138684Y-105533827D01*
X140985957Y-105574750D01*
X140849025Y-105653807D01*
X140737221Y-105765611D01*
X140658164Y-105902543D01*
X140617241Y-106055270D01*
X121006841Y-106055270D01*
X121006841Y-106024370D01*
X120965918Y-105871643D01*
X120886861Y-105734711D01*
X120775057Y-105622907D01*
X120638125Y-105543850D01*
X120485398Y-105502927D01*
X120327284Y-105502927D01*
X120174557Y-105543850D01*
X120037625Y-105622907D01*
X119925821Y-105734711D01*
X119846764Y-105871643D01*
X119805841Y-106024370D01*
X99036841Y-106024370D01*
X99036841Y-104937670D01*
X133355841Y-104937670D01*
X133355841Y-105095784D01*
X133396764Y-105248511D01*
X133475821Y-105385443D01*
X133587625Y-105497247D01*
X133724557Y-105576304D01*
X133877284Y-105617227D01*
X133877286Y-105617227D01*
X134035396Y-105617227D01*
X134035398Y-105617227D01*
X134188125Y-105576304D01*
X134325057Y-105497247D01*
X134436861Y-105385443D01*
X134515918Y-105248511D01*
X134556841Y-105095784D01*
X134556841Y-104937670D01*
X134515918Y-104784943D01*
X134436861Y-104648011D01*
X134325057Y-104536207D01*
X134188125Y-104457150D01*
X134035398Y-104416227D01*
X133877284Y-104416227D01*
X133724557Y-104457150D01*
X133587625Y-104536207D01*
X133475821Y-104648011D01*
X133396764Y-104784943D01*
X133355841Y-104937670D01*
X99036841Y-104937670D01*
X99036841Y-103643575D01*
X152124416Y-103643575D01*
X152124416Y-103801689D01*
X152165339Y-103954416D01*
X152244396Y-104091348D01*
X152356200Y-104203152D01*
X152493132Y-104282209D01*
X152645859Y-104323132D01*
X152645861Y-104323132D01*
X152803971Y-104323132D01*
X152803973Y-104323132D01*
X152956700Y-104282209D01*
X153093632Y-104203152D01*
X153205436Y-104091348D01*
X153284493Y-103954416D01*
X153325416Y-103801689D01*
X153325416Y-103643575D01*
X153284493Y-103490848D01*
X153205436Y-103353916D01*
X153093632Y-103242112D01*
X152956700Y-103163055D01*
X152803973Y-103122132D01*
X152645859Y-103122132D01*
X152493132Y-103163055D01*
X152356200Y-103242112D01*
X152244396Y-103353916D01*
X152165339Y-103490848D01*
X152124416Y-103643575D01*
X99036841Y-103643575D01*
X99036841Y-102514675D01*
X136046441Y-102514675D01*
X136046441Y-102514678D01*
X136046441Y-102672362D01*
X136076577Y-102823867D01*
X136077204Y-102827016D01*
X136077204Y-102827018D01*
X136137544Y-102972694D01*
X136137550Y-102972705D01*
X136190253Y-103051579D01*
X136225152Y-103103809D01*
X136336652Y-103215309D01*
X136377547Y-103242634D01*
X136467755Y-103302910D01*
X136467766Y-103302916D01*
X136521579Y-103325205D01*
X136613444Y-103363257D01*
X136768099Y-103394020D01*
X136768100Y-103394020D01*
X136925782Y-103394020D01*
X136925783Y-103394020D01*
X137080438Y-103363257D01*
X137226120Y-103302914D01*
X137357230Y-103215309D01*
X137468730Y-103103809D01*
X137556335Y-102972699D01*
X137616678Y-102827017D01*
X137647441Y-102672362D01*
X137647441Y-102514678D01*
X137616678Y-102360023D01*
X137596563Y-102311462D01*
X137556337Y-102214345D01*
X137556331Y-102214334D01*
X137520958Y-102161396D01*
X137468730Y-102083231D01*
X137357230Y-101971731D01*
X137305000Y-101936832D01*
X137226126Y-101884129D01*
X137226115Y-101884123D01*
X137080438Y-101823783D01*
X136925785Y-101793020D01*
X136925783Y-101793020D01*
X136768099Y-101793020D01*
X136768096Y-101793020D01*
X136613444Y-101823783D01*
X136613442Y-101823783D01*
X136467766Y-101884123D01*
X136467755Y-101884129D01*
X136336652Y-101971731D01*
X136336648Y-101971734D01*
X136225155Y-102083227D01*
X136225152Y-102083231D01*
X136137550Y-102214334D01*
X136137544Y-102214345D01*
X136077204Y-102360021D01*
X136077204Y-102360023D01*
X136046441Y-102514675D01*
X99036841Y-102514675D01*
X99036841Y-99629070D01*
X147320841Y-99629070D01*
X147320841Y-99787184D01*
X147361764Y-99939911D01*
X147440821Y-100076843D01*
X147552625Y-100188647D01*
X147689557Y-100267704D01*
X147842284Y-100308627D01*
X147842286Y-100308627D01*
X148000396Y-100308627D01*
X148000398Y-100308627D01*
X148153125Y-100267704D01*
X148290057Y-100188647D01*
X148401861Y-100076843D01*
X148480918Y-99939911D01*
X148521841Y-99787184D01*
X148521841Y-99629070D01*
X148480918Y-99476343D01*
X148401861Y-99339411D01*
X148290057Y-99227607D01*
X148262377Y-99211626D01*
X148221438Y-99166158D01*
X148215042Y-99105308D01*
X148245635Y-99052320D01*
X148262371Y-99040160D01*
X148340857Y-98994847D01*
X148452661Y-98883043D01*
X148531718Y-98746111D01*
X148572641Y-98593384D01*
X148572641Y-98435270D01*
X148531718Y-98282543D01*
X148452661Y-98145611D01*
X148340857Y-98033807D01*
X148203925Y-97954750D01*
X148051198Y-97913827D01*
X147893084Y-97913827D01*
X147740357Y-97954750D01*
X147603425Y-98033807D01*
X147491621Y-98145611D01*
X147412564Y-98282543D01*
X147371641Y-98435270D01*
X147371641Y-98593384D01*
X147412564Y-98746111D01*
X147491621Y-98883043D01*
X147603425Y-98994847D01*
X147631102Y-99010826D01*
X147672043Y-99056294D01*
X147678439Y-99117144D01*
X147647847Y-99170133D01*
X147631102Y-99182298D01*
X147552627Y-99227605D01*
X147552625Y-99227607D01*
X147440821Y-99339411D01*
X147361764Y-99476343D01*
X147320841Y-99629070D01*
X99036841Y-99629070D01*
X99036841Y-98397041D01*
X126325669Y-98397041D01*
X126325669Y-98555155D01*
X126366592Y-98707882D01*
X126445649Y-98844814D01*
X126557453Y-98956618D01*
X126694385Y-99035675D01*
X126847112Y-99076598D01*
X126847114Y-99076598D01*
X127005224Y-99076598D01*
X127005226Y-99076598D01*
X127157953Y-99035675D01*
X127294885Y-98956618D01*
X127406689Y-98844814D01*
X127485746Y-98707882D01*
X127526669Y-98555155D01*
X127526669Y-98397041D01*
X127485746Y-98244314D01*
X127406689Y-98107382D01*
X127294885Y-97995578D01*
X127157953Y-97916521D01*
X127005226Y-97875598D01*
X126847112Y-97875598D01*
X126694385Y-97916521D01*
X126557453Y-97995578D01*
X126445649Y-98107382D01*
X126366592Y-98244314D01*
X126325669Y-98397041D01*
X99036841Y-98397041D01*
X99036841Y-95234870D01*
X107544447Y-95234870D01*
X107544447Y-95392984D01*
X107585370Y-95545711D01*
X107664427Y-95682643D01*
X107776231Y-95794447D01*
X107913163Y-95873504D01*
X108065890Y-95914427D01*
X108065892Y-95914427D01*
X108224002Y-95914427D01*
X108224004Y-95914427D01*
X108376731Y-95873504D01*
X108513663Y-95794447D01*
X108625467Y-95682643D01*
X108704524Y-95545711D01*
X108745447Y-95392984D01*
X108745447Y-95391086D01*
X147275357Y-95391086D01*
X147275357Y-95549200D01*
X147316280Y-95701927D01*
X147395337Y-95838859D01*
X147507141Y-95950663D01*
X147644073Y-96029720D01*
X147796800Y-96070643D01*
X147796802Y-96070643D01*
X147954912Y-96070643D01*
X147954914Y-96070643D01*
X148107641Y-96029720D01*
X148244573Y-95950663D01*
X148356377Y-95838859D01*
X148435434Y-95701927D01*
X148476357Y-95549200D01*
X148476357Y-95391086D01*
X148435434Y-95238359D01*
X148356377Y-95101427D01*
X148244573Y-94989623D01*
X148107641Y-94910566D01*
X147954914Y-94869643D01*
X147796800Y-94869643D01*
X147644073Y-94910566D01*
X147507141Y-94989623D01*
X147395337Y-95101427D01*
X147316280Y-95238359D01*
X147275357Y-95391086D01*
X108745447Y-95391086D01*
X108745447Y-95234870D01*
X108704524Y-95082143D01*
X108625467Y-94945211D01*
X108513663Y-94833407D01*
X108376731Y-94754350D01*
X108224004Y-94713427D01*
X108065890Y-94713427D01*
X107913163Y-94754350D01*
X107776231Y-94833407D01*
X107664427Y-94945211D01*
X107585370Y-95082143D01*
X107544447Y-95234870D01*
X99036841Y-95234870D01*
X99036841Y-94582858D01*
X144580881Y-94582858D01*
X144580881Y-94740972D01*
X144621804Y-94893699D01*
X144700861Y-95030631D01*
X144812665Y-95142435D01*
X144949597Y-95221492D01*
X145102324Y-95262415D01*
X145102326Y-95262415D01*
X145260436Y-95262415D01*
X145260438Y-95262415D01*
X145413165Y-95221492D01*
X145550097Y-95142435D01*
X145661901Y-95030631D01*
X145740958Y-94893699D01*
X145781881Y-94740972D01*
X145781881Y-94582858D01*
X145740958Y-94430131D01*
X145661901Y-94293199D01*
X145550097Y-94181395D01*
X145413165Y-94102338D01*
X145260438Y-94061415D01*
X145102324Y-94061415D01*
X144949597Y-94102338D01*
X144812665Y-94181395D01*
X144700861Y-94293199D01*
X144621804Y-94430131D01*
X144580881Y-94582858D01*
X99036841Y-94582858D01*
X99036841Y-93264875D01*
X109743036Y-93264875D01*
X109743036Y-93422989D01*
X109783959Y-93575716D01*
X109863016Y-93712648D01*
X109974820Y-93824452D01*
X110111752Y-93903509D01*
X110264479Y-93944432D01*
X110264481Y-93944432D01*
X110422591Y-93944432D01*
X110422593Y-93944432D01*
X110575320Y-93903509D01*
X110712252Y-93824452D01*
X110824056Y-93712648D01*
X110903113Y-93575716D01*
X110944036Y-93422989D01*
X110944036Y-93355270D01*
X126873841Y-93355270D01*
X126873841Y-93513384D01*
X126914764Y-93666111D01*
X126993821Y-93803043D01*
X127105625Y-93914847D01*
X127242557Y-93993904D01*
X127395284Y-94034827D01*
X127395286Y-94034827D01*
X127553396Y-94034827D01*
X127553398Y-94034827D01*
X127706125Y-93993904D01*
X127843057Y-93914847D01*
X127954861Y-93803043D01*
X128033918Y-93666111D01*
X128074841Y-93513384D01*
X128074841Y-93355270D01*
X128061068Y-93303870D01*
X141885841Y-93303870D01*
X141885841Y-93461984D01*
X141926764Y-93614711D01*
X142005821Y-93751643D01*
X142117625Y-93863447D01*
X142254557Y-93942504D01*
X142407284Y-93983427D01*
X142407286Y-93983427D01*
X142565396Y-93983427D01*
X142565398Y-93983427D01*
X142718125Y-93942504D01*
X142855057Y-93863447D01*
X142966861Y-93751643D01*
X143045918Y-93614711D01*
X143083656Y-93473870D01*
X146228641Y-93473870D01*
X146228641Y-93631984D01*
X146269564Y-93784711D01*
X146348621Y-93921643D01*
X146460425Y-94033447D01*
X146597357Y-94112504D01*
X146750084Y-94153427D01*
X146750086Y-94153427D01*
X146908196Y-94153427D01*
X146908198Y-94153427D01*
X147060925Y-94112504D01*
X147197857Y-94033447D01*
X147309661Y-93921643D01*
X147388718Y-93784711D01*
X147429641Y-93631984D01*
X147429641Y-93473870D01*
X147388718Y-93321143D01*
X147309661Y-93184211D01*
X147197857Y-93072407D01*
X147060925Y-92993350D01*
X146908198Y-92952427D01*
X146750084Y-92952427D01*
X146597357Y-92993350D01*
X146460425Y-93072407D01*
X146348621Y-93184211D01*
X146269564Y-93321143D01*
X146228641Y-93473870D01*
X143083656Y-93473870D01*
X143086841Y-93461984D01*
X143086841Y-93303870D01*
X143045918Y-93151143D01*
X142966861Y-93014211D01*
X142855057Y-92902407D01*
X142718125Y-92823350D01*
X142565398Y-92782427D01*
X142407284Y-92782427D01*
X142254557Y-92823350D01*
X142117625Y-92902407D01*
X142005821Y-93014211D01*
X141926764Y-93151143D01*
X141885841Y-93303870D01*
X128061068Y-93303870D01*
X128033918Y-93202543D01*
X127954861Y-93065611D01*
X127843057Y-92953807D01*
X127706125Y-92874750D01*
X127553398Y-92833827D01*
X127395284Y-92833827D01*
X127242557Y-92874750D01*
X127105625Y-92953807D01*
X126993821Y-93065611D01*
X126914764Y-93202543D01*
X126873841Y-93355270D01*
X110944036Y-93355270D01*
X110944036Y-93264875D01*
X110903113Y-93112148D01*
X110824056Y-92975216D01*
X110712252Y-92863412D01*
X110575320Y-92784355D01*
X110422593Y-92743432D01*
X110264479Y-92743432D01*
X110111752Y-92784355D01*
X109974820Y-92863412D01*
X109863016Y-92975216D01*
X109783959Y-93112148D01*
X109743036Y-93264875D01*
X99036841Y-93264875D01*
X99036841Y-92271813D01*
X147516527Y-92271813D01*
X147516527Y-92429927D01*
X147557450Y-92582654D01*
X147636507Y-92719586D01*
X147748311Y-92831390D01*
X147885243Y-92910447D01*
X148037970Y-92951370D01*
X148037972Y-92951370D01*
X148196082Y-92951370D01*
X148196084Y-92951370D01*
X148348811Y-92910447D01*
X148485743Y-92831390D01*
X148597547Y-92719586D01*
X148676604Y-92582654D01*
X148717527Y-92429927D01*
X148717527Y-92271813D01*
X148676604Y-92119086D01*
X148597547Y-91982154D01*
X148485743Y-91870350D01*
X148348811Y-91791293D01*
X148196084Y-91750370D01*
X148037970Y-91750370D01*
X147885243Y-91791293D01*
X147748311Y-91870350D01*
X147636507Y-91982154D01*
X147557450Y-92119086D01*
X147516527Y-92271813D01*
X99036841Y-92271813D01*
X99036841Y-87081470D01*
X147549441Y-87081470D01*
X147549441Y-87239584D01*
X147590364Y-87392311D01*
X147669421Y-87529243D01*
X147781225Y-87641047D01*
X147918157Y-87720104D01*
X148070884Y-87761027D01*
X148070886Y-87761027D01*
X148228996Y-87761027D01*
X148228998Y-87761027D01*
X148381725Y-87720104D01*
X148502302Y-87650489D01*
X148551800Y-87637227D01*
X150224937Y-87637227D01*
X150224939Y-87637227D01*
X150326800Y-87609934D01*
X150326802Y-87609932D01*
X150326804Y-87609932D01*
X150418120Y-87557210D01*
X150418120Y-87557209D01*
X150418125Y-87557207D01*
X150490505Y-87484827D01*
X150525110Y-87450223D01*
X150579626Y-87422446D01*
X150595113Y-87421227D01*
X152470291Y-87421227D01*
X152528482Y-87440134D01*
X152564446Y-87489634D01*
X152564446Y-87550820D01*
X152556030Y-87569721D01*
X152544933Y-87588943D01*
X152504010Y-87741670D01*
X152504010Y-87899784D01*
X152544933Y-88052511D01*
X152623990Y-88189443D01*
X152735794Y-88301247D01*
X152872726Y-88380304D01*
X153025453Y-88421227D01*
X153025455Y-88421227D01*
X153167897Y-88421227D01*
X153226088Y-88440134D01*
X153262052Y-88489634D01*
X153266897Y-88520227D01*
X153266897Y-88620767D01*
X153307820Y-88773494D01*
X153386877Y-88910426D01*
X153498681Y-89022230D01*
X153635613Y-89101287D01*
X153788340Y-89142210D01*
X153788342Y-89142210D01*
X153946452Y-89142210D01*
X153946454Y-89142210D01*
X154099181Y-89101287D01*
X154236113Y-89022230D01*
X154347917Y-88910426D01*
X154426974Y-88773494D01*
X154467897Y-88620767D01*
X154467897Y-88568884D01*
X154486804Y-88510693D01*
X154536304Y-88474729D01*
X154597490Y-88474729D01*
X154636901Y-88498880D01*
X156178645Y-90040624D01*
X156206422Y-90095141D01*
X156207641Y-90110628D01*
X156207641Y-95083400D01*
X156207641Y-95188854D01*
X156209908Y-95197314D01*
X156234935Y-95290719D01*
X156287657Y-95382035D01*
X156287659Y-95382037D01*
X156287661Y-95382040D01*
X158617046Y-97711425D01*
X158644822Y-97765940D01*
X158646041Y-97781427D01*
X158646041Y-102193626D01*
X158627134Y-102251817D01*
X158617045Y-102263630D01*
X152610446Y-108270229D01*
X152555929Y-108298006D01*
X152540442Y-108299225D01*
X150265285Y-108299225D01*
X150207094Y-108280318D01*
X150195282Y-108270229D01*
X150144259Y-108219207D01*
X150144257Y-108219205D01*
X150007325Y-108140148D01*
X149854598Y-108099225D01*
X149696484Y-108099225D01*
X149543757Y-108140148D01*
X149406825Y-108219205D01*
X149295021Y-108331009D01*
X149215964Y-108467941D01*
X149175041Y-108620668D01*
X149175041Y-108778782D01*
X149215964Y-108931509D01*
X149295021Y-109068441D01*
X149406825Y-109180245D01*
X149543757Y-109259302D01*
X149696484Y-109300225D01*
X149696486Y-109300225D01*
X149854596Y-109300225D01*
X149854598Y-109300225D01*
X150007325Y-109259302D01*
X150144257Y-109180245D01*
X150170291Y-109154211D01*
X150195282Y-109129221D01*
X150249799Y-109101444D01*
X150265285Y-109100225D01*
X152633641Y-109100225D01*
X152691832Y-109119132D01*
X152727796Y-109168632D01*
X152727796Y-109229818D01*
X152703645Y-109269229D01*
X149635444Y-112337431D01*
X149580927Y-112365208D01*
X149565440Y-112366427D01*
X149493284Y-112366427D01*
X149340557Y-112407350D01*
X149203625Y-112486407D01*
X149091821Y-112598211D01*
X149012764Y-112735143D01*
X148971841Y-112887870D01*
X148971841Y-113045984D01*
X149012764Y-113198711D01*
X149091821Y-113335643D01*
X149203625Y-113447447D01*
X149340557Y-113526504D01*
X149493284Y-113567427D01*
X149493286Y-113567427D01*
X149651396Y-113567427D01*
X149651398Y-113567427D01*
X149804125Y-113526504D01*
X149941057Y-113447447D01*
X150052861Y-113335643D01*
X150131918Y-113198711D01*
X150172841Y-113045984D01*
X150172841Y-112973827D01*
X150191748Y-112915636D01*
X150201831Y-112903829D01*
X159967021Y-103138640D01*
X159971352Y-103131138D01*
X160019746Y-103047319D01*
X160019746Y-103047317D01*
X160019748Y-103047315D01*
X160047041Y-102945454D01*
X160047041Y-102840000D01*
X160047041Y-97683372D01*
X160065948Y-97625181D01*
X160115448Y-97589217D01*
X160176634Y-97589217D01*
X160216045Y-97613368D01*
X160477445Y-97874768D01*
X160505222Y-97929285D01*
X160506441Y-97944772D01*
X160506441Y-105641826D01*
X160487534Y-105700017D01*
X160477445Y-105711830D01*
X157280844Y-108908431D01*
X157226327Y-108936208D01*
X157210840Y-108937427D01*
X157138684Y-108937427D01*
X156985957Y-108978350D01*
X156849025Y-109057407D01*
X156737221Y-109169211D01*
X156658164Y-109306143D01*
X156617241Y-109458870D01*
X156617241Y-109616984D01*
X156658164Y-109769711D01*
X156737221Y-109906643D01*
X156849025Y-110018447D01*
X156985957Y-110097504D01*
X157138684Y-110138427D01*
X157138686Y-110138427D01*
X157296796Y-110138427D01*
X157296798Y-110138427D01*
X157449525Y-110097504D01*
X157586457Y-110018447D01*
X157698261Y-109906643D01*
X157777318Y-109769711D01*
X157818241Y-109616984D01*
X157818241Y-109544827D01*
X157837148Y-109486636D01*
X157847237Y-109474823D01*
X160937437Y-106384623D01*
X160991954Y-106356846D01*
X161052386Y-106366417D01*
X161095651Y-106409682D01*
X161106441Y-106454627D01*
X161106441Y-112915826D01*
X161087534Y-112974017D01*
X161077445Y-112985830D01*
X159846244Y-114217031D01*
X159791727Y-114244808D01*
X159776240Y-114246027D01*
X159704084Y-114246027D01*
X159551357Y-114286950D01*
X159414425Y-114366007D01*
X159302621Y-114477811D01*
X159223564Y-114614743D01*
X159182641Y-114767470D01*
X159182641Y-114925584D01*
X159223564Y-115078311D01*
X159302621Y-115215243D01*
X159414425Y-115327047D01*
X159551357Y-115406104D01*
X159704084Y-115447027D01*
X159704086Y-115447027D01*
X159862196Y-115447027D01*
X159862198Y-115447027D01*
X160014925Y-115406104D01*
X160151857Y-115327047D01*
X160263661Y-115215243D01*
X160342718Y-115078311D01*
X160383641Y-114925584D01*
X160383641Y-114853427D01*
X160402548Y-114795236D01*
X160412631Y-114783429D01*
X161827421Y-113368640D01*
X161856078Y-113319005D01*
X161856080Y-113319003D01*
X161864101Y-113305108D01*
X161880148Y-113277314D01*
X161907441Y-113175454D01*
X161907441Y-112323870D01*
X167705841Y-112323870D01*
X167705841Y-112481984D01*
X167746764Y-112634711D01*
X167825821Y-112771643D01*
X167937625Y-112883447D01*
X168074557Y-112962504D01*
X168227284Y-113003427D01*
X168227286Y-113003427D01*
X168385396Y-113003427D01*
X168385398Y-113003427D01*
X168538125Y-112962504D01*
X168675057Y-112883447D01*
X168705314Y-112853190D01*
X168726082Y-112832423D01*
X168780599Y-112804646D01*
X168796085Y-112803427D01*
X171285589Y-112803427D01*
X171343780Y-112822334D01*
X171379744Y-112871834D01*
X171379744Y-112933020D01*
X171343780Y-112982520D01*
X171340606Y-112984730D01*
X171322357Y-112996925D01*
X171316052Y-113001138D01*
X171316048Y-113001141D01*
X171204555Y-113112634D01*
X171204552Y-113112638D01*
X171116950Y-113243741D01*
X171116944Y-113243752D01*
X171056604Y-113389428D01*
X171056604Y-113389430D01*
X171025841Y-113544082D01*
X171025841Y-113701771D01*
X171056604Y-113856423D01*
X171056604Y-113856425D01*
X171116944Y-114002101D01*
X171116950Y-114002112D01*
X171167620Y-114077944D01*
X171204552Y-114133216D01*
X171316052Y-114244716D01*
X171379260Y-114286950D01*
X171447155Y-114332317D01*
X171447166Y-114332323D01*
X171516291Y-114360955D01*
X171592844Y-114392664D01*
X171592852Y-114392665D01*
X171596578Y-114393796D01*
X171646774Y-114428782D01*
X171666819Y-114486591D01*
X171649057Y-114545141D01*
X171637842Y-114558536D01*
X171603642Y-114592736D01*
X171603640Y-114592738D01*
X171603640Y-114592739D01*
X171524583Y-114729671D01*
X171483660Y-114882398D01*
X171483660Y-115040512D01*
X171524583Y-115193239D01*
X171603640Y-115330171D01*
X171715444Y-115441975D01*
X171852376Y-115521032D01*
X172005103Y-115561955D01*
X172005105Y-115561955D01*
X172163215Y-115561955D01*
X172163217Y-115561955D01*
X172315944Y-115521032D01*
X172452876Y-115441975D01*
X172564680Y-115330171D01*
X172643737Y-115193239D01*
X172684660Y-115040512D01*
X172684660Y-114882398D01*
X172643737Y-114729671D01*
X172564680Y-114592739D01*
X172452876Y-114480935D01*
X172338733Y-114415035D01*
X172297794Y-114369567D01*
X172291398Y-114308717D01*
X172321991Y-114255729D01*
X172333221Y-114246993D01*
X172336630Y-114244716D01*
X172423490Y-114157856D01*
X178842255Y-114157856D01*
X178842255Y-114315970D01*
X178883178Y-114468697D01*
X178962235Y-114605629D01*
X179074039Y-114717433D01*
X179210971Y-114796490D01*
X179363698Y-114837413D01*
X179363700Y-114837413D01*
X179521810Y-114837413D01*
X179521812Y-114837413D01*
X179674539Y-114796490D01*
X179811471Y-114717433D01*
X179923275Y-114605629D01*
X179935175Y-114585016D01*
X179980643Y-114544075D01*
X180041494Y-114537678D01*
X180094482Y-114568270D01*
X180106646Y-114585012D01*
X180114636Y-114598851D01*
X180226440Y-114710655D01*
X180363372Y-114789712D01*
X180516099Y-114830635D01*
X180516101Y-114830635D01*
X180674211Y-114830635D01*
X180674213Y-114830635D01*
X180826940Y-114789712D01*
X180963872Y-114710655D01*
X181075676Y-114598851D01*
X181154733Y-114461919D01*
X181195656Y-114309192D01*
X181195656Y-114151078D01*
X181154733Y-113998351D01*
X181075676Y-113861419D01*
X180963872Y-113749615D01*
X180826940Y-113670558D01*
X180674213Y-113629635D01*
X180516099Y-113629635D01*
X180363372Y-113670558D01*
X180226440Y-113749615D01*
X180114634Y-113861421D01*
X180102733Y-113882034D01*
X180057262Y-113922974D01*
X179996412Y-113929368D01*
X179943425Y-113898774D01*
X179931264Y-113882034D01*
X179923275Y-113868197D01*
X179811471Y-113756393D01*
X179674539Y-113677336D01*
X179521812Y-113636413D01*
X179363698Y-113636413D01*
X179210971Y-113677336D01*
X179074039Y-113756393D01*
X178962235Y-113868197D01*
X178883178Y-114005129D01*
X178842255Y-114157856D01*
X172423490Y-114157856D01*
X172448130Y-114133216D01*
X172485062Y-114077944D01*
X172535731Y-114002113D01*
X172535737Y-114002101D01*
X172591201Y-113868198D01*
X172596078Y-113856424D01*
X172626841Y-113701769D01*
X172626841Y-113544085D01*
X172596078Y-113389430D01*
X172549639Y-113277316D01*
X172535737Y-113243752D01*
X172535731Y-113243741D01*
X172480372Y-113160892D01*
X172448130Y-113112638D01*
X172336630Y-113001138D01*
X172312090Y-112984741D01*
X172274212Y-112936692D01*
X172271810Y-112875554D01*
X172305803Y-112824680D01*
X172363207Y-112803503D01*
X172367093Y-112803427D01*
X174449066Y-112803427D01*
X174449068Y-112803427D01*
X174550929Y-112776134D01*
X174550931Y-112776132D01*
X174550933Y-112776132D01*
X174642249Y-112723410D01*
X174642249Y-112723409D01*
X174642254Y-112723407D01*
X177213238Y-110152423D01*
X177267755Y-110124646D01*
X177283242Y-110123427D01*
X177355396Y-110123427D01*
X177355398Y-110123427D01*
X177508125Y-110082504D01*
X177645057Y-110003447D01*
X177756861Y-109891643D01*
X177835918Y-109754711D01*
X177876841Y-109601984D01*
X177876841Y-109443870D01*
X177835918Y-109291143D01*
X177756861Y-109154211D01*
X177645057Y-109042407D01*
X177508125Y-108963350D01*
X177355398Y-108922427D01*
X177197284Y-108922427D01*
X177044557Y-108963350D01*
X176907625Y-109042407D01*
X176795821Y-109154211D01*
X176716764Y-109291143D01*
X176688735Y-109395751D01*
X176675841Y-109443871D01*
X176675841Y-109516026D01*
X176656934Y-109574217D01*
X176646845Y-109586030D01*
X174259444Y-111973431D01*
X174204927Y-112001208D01*
X174189440Y-112002427D01*
X168796085Y-112002427D01*
X168737894Y-111983520D01*
X168726082Y-111973431D01*
X168675059Y-111922409D01*
X168675057Y-111922407D01*
X168538125Y-111843350D01*
X168385398Y-111802427D01*
X168227284Y-111802427D01*
X168074557Y-111843350D01*
X167937625Y-111922407D01*
X167825821Y-112034211D01*
X167746764Y-112171143D01*
X167705841Y-112323870D01*
X161907441Y-112323870D01*
X161907441Y-110894082D01*
X171025841Y-110894082D01*
X171025841Y-111051771D01*
X171056604Y-111206423D01*
X171056604Y-111206425D01*
X171116944Y-111352101D01*
X171116950Y-111352112D01*
X171169653Y-111430986D01*
X171204552Y-111483216D01*
X171316052Y-111594716D01*
X171394217Y-111646944D01*
X171447155Y-111682317D01*
X171447166Y-111682323D01*
X171500979Y-111704612D01*
X171592844Y-111742664D01*
X171747499Y-111773427D01*
X171747500Y-111773427D01*
X171905182Y-111773427D01*
X171905183Y-111773427D01*
X172059838Y-111742664D01*
X172205520Y-111682321D01*
X172336630Y-111594716D01*
X172448130Y-111483216D01*
X172535735Y-111352106D01*
X172596078Y-111206424D01*
X172626841Y-111051769D01*
X172626841Y-110894085D01*
X172596078Y-110739430D01*
X172535735Y-110593748D01*
X172535734Y-110593746D01*
X172535731Y-110593741D01*
X172500358Y-110540803D01*
X172448130Y-110462638D01*
X172336630Y-110351138D01*
X172284400Y-110316239D01*
X172205526Y-110263536D01*
X172205515Y-110263530D01*
X172059838Y-110203190D01*
X171905185Y-110172427D01*
X171905183Y-110172427D01*
X171747499Y-110172427D01*
X171747496Y-110172427D01*
X171592844Y-110203190D01*
X171592842Y-110203190D01*
X171447166Y-110263530D01*
X171447155Y-110263536D01*
X171316052Y-110351138D01*
X171316048Y-110351141D01*
X171204555Y-110462634D01*
X171204552Y-110462638D01*
X171116950Y-110593741D01*
X171116944Y-110593752D01*
X171056604Y-110739428D01*
X171056604Y-110739430D01*
X171025841Y-110894082D01*
X161907441Y-110894082D01*
X161907441Y-102823866D01*
X170045841Y-102823866D01*
X170045841Y-102981980D01*
X170086764Y-103134707D01*
X170165821Y-103271639D01*
X170277625Y-103383443D01*
X170414557Y-103462500D01*
X170567284Y-103503423D01*
X170567286Y-103503423D01*
X170725396Y-103503423D01*
X170725398Y-103503423D01*
X170878125Y-103462500D01*
X171015057Y-103383443D01*
X171126861Y-103271639D01*
X171205918Y-103134707D01*
X171246841Y-102981980D01*
X171246841Y-102823866D01*
X171205918Y-102671139D01*
X171126861Y-102534207D01*
X171015057Y-102422403D01*
X170878125Y-102343346D01*
X170725398Y-102302423D01*
X170567284Y-102302423D01*
X170414557Y-102343346D01*
X170277625Y-102422403D01*
X170165821Y-102534207D01*
X170086764Y-102671139D01*
X170045841Y-102823866D01*
X161907441Y-102823866D01*
X161907441Y-99034670D01*
X172136641Y-99034670D01*
X172136641Y-99192784D01*
X172177564Y-99345511D01*
X172256621Y-99482443D01*
X172368425Y-99594247D01*
X172505357Y-99673304D01*
X172658084Y-99714227D01*
X172658086Y-99714227D01*
X172816196Y-99714227D01*
X172816198Y-99714227D01*
X172968925Y-99673304D01*
X173105857Y-99594247D01*
X173217661Y-99482443D01*
X173296718Y-99345511D01*
X173337641Y-99192784D01*
X173337641Y-99034670D01*
X173296718Y-98881943D01*
X173217661Y-98745011D01*
X173105857Y-98633207D01*
X172968925Y-98554150D01*
X172816198Y-98513227D01*
X172658084Y-98513227D01*
X172505357Y-98554150D01*
X172368425Y-98633207D01*
X172256621Y-98745011D01*
X172177564Y-98881943D01*
X172136641Y-99034670D01*
X161907441Y-99034670D01*
X161907441Y-96522216D01*
X161902973Y-96505540D01*
X161880148Y-96420355D01*
X161880146Y-96420352D01*
X161880146Y-96420350D01*
X161827424Y-96329034D01*
X161827423Y-96329033D01*
X161827422Y-96329032D01*
X161827421Y-96329030D01*
X160398750Y-94900359D01*
X160370973Y-94845842D01*
X160380544Y-94785410D01*
X160423809Y-94742145D01*
X160468754Y-94731355D01*
X160498989Y-94731355D01*
X160498991Y-94731355D01*
X160651718Y-94690432D01*
X160788650Y-94611375D01*
X160860305Y-94539720D01*
X164881591Y-94539720D01*
X164881591Y-94697834D01*
X164922514Y-94850561D01*
X165001571Y-94987493D01*
X165113375Y-95099297D01*
X165250307Y-95178354D01*
X165403034Y-95219277D01*
X165403036Y-95219277D01*
X165561146Y-95219277D01*
X165561148Y-95219277D01*
X165713875Y-95178354D01*
X165850807Y-95099297D01*
X165962611Y-94987493D01*
X166041668Y-94850561D01*
X166082591Y-94697834D01*
X166082591Y-94539720D01*
X166041668Y-94386993D01*
X165962611Y-94250061D01*
X165850807Y-94138257D01*
X165713875Y-94059200D01*
X165561148Y-94018277D01*
X165403034Y-94018277D01*
X165250307Y-94059200D01*
X165113375Y-94138257D01*
X165001571Y-94250061D01*
X164922514Y-94386993D01*
X164881591Y-94539720D01*
X160860305Y-94539720D01*
X160900454Y-94499571D01*
X160979511Y-94362639D01*
X161020434Y-94209912D01*
X161020434Y-94051798D01*
X160979511Y-93899071D01*
X160900454Y-93762139D01*
X160889957Y-93751642D01*
X160849430Y-93711114D01*
X160821653Y-93656597D01*
X160820434Y-93641111D01*
X160820434Y-93509988D01*
X160820434Y-93509987D01*
X160802587Y-93443380D01*
X160802587Y-93443379D01*
X160802587Y-93443378D01*
X160793140Y-93408124D01*
X160793139Y-93408122D01*
X160740417Y-93316805D01*
X160740415Y-93316803D01*
X160740414Y-93316801D01*
X159912060Y-92488447D01*
X159912057Y-92488445D01*
X159912055Y-92488443D01*
X159820738Y-92435721D01*
X159820740Y-92435721D01*
X159781217Y-92425131D01*
X159718874Y-92408427D01*
X159718872Y-92408427D01*
X158155947Y-92408427D01*
X158155931Y-92408426D01*
X158149868Y-92408426D01*
X158044414Y-92408426D01*
X157942553Y-92435720D01*
X157942552Y-92435720D01*
X157942550Y-92435721D01*
X157917023Y-92450459D01*
X157896891Y-92462083D01*
X157867941Y-92478797D01*
X157851227Y-92488447D01*
X157776660Y-92563013D01*
X157776661Y-92563014D01*
X157177645Y-93162030D01*
X157123128Y-93189807D01*
X157062696Y-93180236D01*
X157019431Y-93136971D01*
X157008641Y-93092026D01*
X157008641Y-91473870D01*
X160495073Y-91473870D01*
X160495073Y-91631984D01*
X160535996Y-91784711D01*
X160615053Y-91921643D01*
X160726857Y-92033447D01*
X160734479Y-92037848D01*
X160775420Y-92083316D01*
X160781817Y-92144166D01*
X160770717Y-92173083D01*
X160690164Y-92312606D01*
X160664490Y-92408426D01*
X160649241Y-92465335D01*
X160649241Y-92623449D01*
X160690164Y-92776176D01*
X160769221Y-92913108D01*
X160881025Y-93024912D01*
X161017957Y-93103969D01*
X161170684Y-93144892D01*
X161170686Y-93144892D01*
X161328796Y-93144892D01*
X161328798Y-93144892D01*
X161481525Y-93103969D01*
X161618457Y-93024912D01*
X161730261Y-92913108D01*
X161809318Y-92776176D01*
X161850241Y-92623449D01*
X161850241Y-92465335D01*
X161809318Y-92312608D01*
X161730261Y-92175676D01*
X161678813Y-92124228D01*
X161651038Y-92069714D01*
X161660609Y-92009282D01*
X161703874Y-91966017D01*
X161748819Y-91955227D01*
X164141240Y-91955227D01*
X164199431Y-91974134D01*
X164211244Y-91984223D01*
X166128670Y-93901649D01*
X166128669Y-93901649D01*
X166169524Y-93942503D01*
X166203237Y-93976216D01*
X166294563Y-94028943D01*
X166396423Y-94056236D01*
X166501877Y-94056236D01*
X168043060Y-94056236D01*
X168101251Y-94075143D01*
X168113063Y-94085232D01*
X168140335Y-94112503D01*
X168164088Y-94136256D01*
X168301020Y-94215313D01*
X168453747Y-94256236D01*
X168453749Y-94256236D01*
X168611859Y-94256236D01*
X168611861Y-94256236D01*
X168764588Y-94215313D01*
X168901520Y-94136256D01*
X169013324Y-94024452D01*
X169092381Y-93887520D01*
X169133304Y-93734793D01*
X169133304Y-93576679D01*
X169092381Y-93423952D01*
X169013324Y-93287020D01*
X168901520Y-93175216D01*
X168764588Y-93096159D01*
X168611861Y-93055236D01*
X168453747Y-93055236D01*
X168301020Y-93096159D01*
X168196766Y-93156350D01*
X168164085Y-93175218D01*
X168113063Y-93226240D01*
X168058546Y-93254017D01*
X168043060Y-93255236D01*
X166656051Y-93255236D01*
X166597860Y-93236329D01*
X166586047Y-93226240D01*
X165608111Y-92248304D01*
X164594054Y-91234247D01*
X164594051Y-91234245D01*
X164594050Y-91234244D01*
X164594049Y-91234243D01*
X164502732Y-91181521D01*
X164502734Y-91181521D01*
X164463211Y-91170931D01*
X164400868Y-91154227D01*
X164400866Y-91154227D01*
X161587117Y-91154227D01*
X161528926Y-91135320D01*
X161517114Y-91125231D01*
X161464291Y-91072409D01*
X161464289Y-91072407D01*
X161327357Y-90993350D01*
X161174630Y-90952427D01*
X161016516Y-90952427D01*
X160863789Y-90993350D01*
X160726857Y-91072407D01*
X160615053Y-91184211D01*
X160535996Y-91321143D01*
X160495073Y-91473870D01*
X157008641Y-91473870D01*
X157008641Y-89851001D01*
X157008641Y-89851000D01*
X156990305Y-89782569D01*
X156981348Y-89749139D01*
X156928621Y-89657814D01*
X156927263Y-89656456D01*
X156922711Y-89647057D01*
X156919003Y-89620137D01*
X156913353Y-89593556D01*
X156914872Y-89590143D01*
X156914363Y-89586444D01*
X156927182Y-89562494D01*
X156938239Y-89537660D01*
X156941475Y-89535791D01*
X156943237Y-89532500D01*
X156967682Y-89520660D01*
X156991227Y-89507067D01*
X156996337Y-89506782D01*
X156998304Y-89505830D01*
X157001893Y-89506473D01*
X157015243Y-89505730D01*
X157015243Y-89505242D01*
X157177790Y-89505242D01*
X157177791Y-89505242D01*
X157332446Y-89474479D01*
X157478128Y-89414136D01*
X157609238Y-89326531D01*
X157720738Y-89215031D01*
X157808343Y-89083921D01*
X157868686Y-88938239D01*
X157899449Y-88783584D01*
X157899449Y-88625900D01*
X157868686Y-88471245D01*
X157808343Y-88325563D01*
X157808342Y-88325561D01*
X157808339Y-88325556D01*
X157772966Y-88272618D01*
X157720738Y-88194453D01*
X157609238Y-88082953D01*
X157557008Y-88048054D01*
X157478134Y-87995351D01*
X157478123Y-87995345D01*
X157332446Y-87935005D01*
X157177793Y-87904242D01*
X157177791Y-87904242D01*
X157020107Y-87904242D01*
X157020104Y-87904242D01*
X156865452Y-87935005D01*
X156865450Y-87935005D01*
X156719774Y-87995345D01*
X156719763Y-87995351D01*
X156588660Y-88082953D01*
X156588656Y-88082956D01*
X156477163Y-88194449D01*
X156477160Y-88194453D01*
X156389558Y-88325556D01*
X156389552Y-88325567D01*
X156329212Y-88471243D01*
X156329212Y-88471245D01*
X156298449Y-88625897D01*
X156298449Y-88788448D01*
X156295938Y-88788448D01*
X156284810Y-88838833D01*
X156239017Y-88879412D01*
X156178118Y-88885324D01*
X156129465Y-88858658D01*
X154980910Y-87710103D01*
X154953133Y-87655586D01*
X154962704Y-87595154D01*
X155005969Y-87551889D01*
X155050914Y-87541099D01*
X158332329Y-87541099D01*
X158390520Y-87560006D01*
X158402333Y-87570095D01*
X159466766Y-88634527D01*
X159494543Y-88689044D01*
X159495762Y-88704531D01*
X159495762Y-88776688D01*
X159536685Y-88929415D01*
X159615742Y-89066347D01*
X159727546Y-89178151D01*
X159864478Y-89257208D01*
X159939356Y-89277271D01*
X159990668Y-89310594D01*
X160012595Y-89367715D01*
X160005196Y-89410781D01*
X159980571Y-89470231D01*
X159949809Y-89624882D01*
X159949809Y-89624885D01*
X159949809Y-89782569D01*
X159976978Y-89919153D01*
X159980572Y-89937223D01*
X159980572Y-89937225D01*
X160040912Y-90082901D01*
X160040918Y-90082912D01*
X160080953Y-90142827D01*
X160128520Y-90214016D01*
X160240020Y-90325516D01*
X160318185Y-90377744D01*
X160371123Y-90413117D01*
X160371134Y-90413123D01*
X160424947Y-90435412D01*
X160516812Y-90473464D01*
X160671467Y-90504227D01*
X160671468Y-90504227D01*
X160829150Y-90504227D01*
X160829151Y-90504227D01*
X160983806Y-90473464D01*
X161129488Y-90413121D01*
X161260598Y-90325516D01*
X161372098Y-90214016D01*
X161459703Y-90082906D01*
X161520046Y-89937224D01*
X161550809Y-89782569D01*
X161550809Y-89696563D01*
X161569716Y-89638372D01*
X161619216Y-89602408D01*
X161680402Y-89602408D01*
X161719813Y-89626559D01*
X161785694Y-89692440D01*
X161785693Y-89692440D01*
X161842393Y-89749139D01*
X161860261Y-89767007D01*
X161951587Y-89819734D01*
X162053447Y-89847027D01*
X162158901Y-89847027D01*
X165920036Y-89847027D01*
X165978227Y-89865934D01*
X166014191Y-89915434D01*
X166014191Y-89976620D01*
X165978227Y-90026120D01*
X165975039Y-90028341D01*
X165970856Y-90031135D01*
X165970849Y-90031141D01*
X165859356Y-90142634D01*
X165859353Y-90142638D01*
X165771751Y-90273741D01*
X165771745Y-90273752D01*
X165711405Y-90419428D01*
X165711405Y-90419430D01*
X165680642Y-90574082D01*
X165680642Y-90731771D01*
X165711405Y-90886423D01*
X165711405Y-90886425D01*
X165771745Y-91032101D01*
X165771751Y-91032112D01*
X165824454Y-91110986D01*
X165859353Y-91163216D01*
X165970853Y-91274716D01*
X166040336Y-91321143D01*
X166101956Y-91362317D01*
X166101967Y-91362323D01*
X166155780Y-91384612D01*
X166247645Y-91422664D01*
X166402300Y-91453427D01*
X166402301Y-91453427D01*
X166559983Y-91453427D01*
X166559984Y-91453427D01*
X166714639Y-91422664D01*
X166860321Y-91362321D01*
X166991431Y-91274716D01*
X167102931Y-91163216D01*
X167190536Y-91032106D01*
X167250879Y-90886424D01*
X167281642Y-90731769D01*
X167281642Y-90574085D01*
X167250879Y-90419430D01*
X167211979Y-90325516D01*
X167190538Y-90273752D01*
X167190532Y-90273741D01*
X167150624Y-90214015D01*
X167102931Y-90142638D01*
X166991431Y-90031138D01*
X166987245Y-90028341D01*
X166949366Y-89980291D01*
X166946965Y-89919153D01*
X166980959Y-89868279D01*
X167038363Y-89847103D01*
X167042248Y-89847027D01*
X168618638Y-89847027D01*
X168676829Y-89865934D01*
X168688642Y-89876023D01*
X177434743Y-98622124D01*
X177462520Y-98676641D01*
X177452949Y-98737073D01*
X177434743Y-98762132D01*
X175032857Y-101164018D01*
X174980134Y-101255338D01*
X174980133Y-101255338D01*
X174980134Y-101255339D01*
X174952841Y-101357200D01*
X174952841Y-104984183D01*
X174933934Y-105042374D01*
X174923845Y-105054186D01*
X174872823Y-105105208D01*
X174872821Y-105105210D01*
X174872821Y-105105211D01*
X174793764Y-105242143D01*
X174752841Y-105394870D01*
X174752841Y-105552984D01*
X174793764Y-105705711D01*
X174872821Y-105842643D01*
X174950603Y-105920425D01*
X174978379Y-105974940D01*
X174968808Y-106035372D01*
X174925543Y-106078637D01*
X174880598Y-106089427D01*
X173562054Y-106089427D01*
X173503863Y-106070520D01*
X173467899Y-106021020D01*
X173467899Y-105959834D01*
X173503863Y-105910334D01*
X173524169Y-105898963D01*
X173573515Y-105878523D01*
X173573514Y-105878523D01*
X173573520Y-105878521D01*
X173704630Y-105790916D01*
X173816130Y-105679416D01*
X173903735Y-105548306D01*
X173964078Y-105402624D01*
X173994841Y-105247969D01*
X173994841Y-105090285D01*
X173964078Y-104935630D01*
X173903735Y-104789948D01*
X173903734Y-104789946D01*
X173903731Y-104789941D01*
X173868358Y-104737003D01*
X173816130Y-104658838D01*
X173704630Y-104547338D01*
X173652400Y-104512439D01*
X173573526Y-104459736D01*
X173573515Y-104459730D01*
X173427838Y-104399390D01*
X173273185Y-104368627D01*
X173273183Y-104368627D01*
X173115499Y-104368627D01*
X173115496Y-104368627D01*
X172960844Y-104399390D01*
X172960842Y-104399390D01*
X172815166Y-104459730D01*
X172815155Y-104459736D01*
X172684052Y-104547338D01*
X172684048Y-104547341D01*
X172572555Y-104658834D01*
X172572552Y-104658838D01*
X172484950Y-104789941D01*
X172484944Y-104789952D01*
X172424604Y-104935628D01*
X172424604Y-104935630D01*
X172393841Y-105090282D01*
X172393841Y-105247971D01*
X172414349Y-105351072D01*
X172421186Y-105385443D01*
X172424604Y-105402623D01*
X172424604Y-105402625D01*
X172484944Y-105548301D01*
X172484950Y-105548312D01*
X172534072Y-105621827D01*
X172572552Y-105679416D01*
X172684052Y-105790916D01*
X172746110Y-105832382D01*
X172815155Y-105878517D01*
X172815166Y-105878523D01*
X172864513Y-105898963D01*
X172911039Y-105938699D01*
X172925323Y-105998194D01*
X172901909Y-106054722D01*
X172849740Y-106086692D01*
X172826628Y-106089427D01*
X172433228Y-106089427D01*
X172375037Y-106070520D01*
X172363225Y-106060431D01*
X172285202Y-105982409D01*
X172285200Y-105982407D01*
X172148268Y-105903350D01*
X171995541Y-105862427D01*
X171837427Y-105862427D01*
X171684700Y-105903350D01*
X171547768Y-105982407D01*
X171435964Y-106094211D01*
X171356907Y-106231143D01*
X171316265Y-106382824D01*
X171315984Y-106383871D01*
X171315984Y-106415612D01*
X171297077Y-106473803D01*
X171247577Y-106509767D01*
X171216984Y-106514612D01*
X171079364Y-106514612D01*
X170926637Y-106555535D01*
X170789705Y-106634592D01*
X170677901Y-106746396D01*
X170598844Y-106883328D01*
X170557921Y-107036055D01*
X170557921Y-107194169D01*
X170598844Y-107346896D01*
X170677901Y-107483828D01*
X170789705Y-107595632D01*
X170926637Y-107674689D01*
X171079364Y-107715612D01*
X171079366Y-107715612D01*
X171237476Y-107715612D01*
X171237478Y-107715612D01*
X171390205Y-107674689D01*
X171527137Y-107595632D01*
X171638941Y-107483828D01*
X171717998Y-107346896D01*
X171758921Y-107194169D01*
X171758921Y-107162427D01*
X171777828Y-107104236D01*
X171827328Y-107068272D01*
X171857921Y-107063427D01*
X171995539Y-107063427D01*
X171995541Y-107063427D01*
X172148268Y-107022504D01*
X172285200Y-106943447D01*
X172309225Y-106919421D01*
X172363740Y-106891646D01*
X172379227Y-106890427D01*
X176066466Y-106890427D01*
X176066468Y-106890427D01*
X176168329Y-106863134D01*
X176168331Y-106863132D01*
X176168333Y-106863132D01*
X176259649Y-106810410D01*
X176259649Y-106810409D01*
X176259654Y-106810407D01*
X176687236Y-106382823D01*
X176741753Y-106355046D01*
X176757240Y-106353827D01*
X176829396Y-106353827D01*
X176829398Y-106353827D01*
X176982125Y-106312904D01*
X177119057Y-106233847D01*
X177230861Y-106122043D01*
X177309918Y-105985111D01*
X177350841Y-105832384D01*
X177350841Y-105674270D01*
X177309918Y-105521543D01*
X177230861Y-105384611D01*
X177119057Y-105272807D01*
X176982125Y-105193750D01*
X176829398Y-105152827D01*
X176671284Y-105152827D01*
X176518557Y-105193750D01*
X176381625Y-105272807D01*
X176269821Y-105384611D01*
X176190764Y-105521543D01*
X176158535Y-105641826D01*
X176149841Y-105674271D01*
X176149841Y-105746426D01*
X176147372Y-105754023D01*
X176148622Y-105761913D01*
X176138098Y-105782566D01*
X176130934Y-105804617D01*
X176120844Y-105816430D01*
X176009370Y-105927903D01*
X175954854Y-105955680D01*
X175894422Y-105946108D01*
X175851157Y-105902844D01*
X175841586Y-105842412D01*
X175853630Y-105808401D01*
X175912918Y-105705711D01*
X175953841Y-105552984D01*
X175953841Y-105394870D01*
X175912918Y-105242143D01*
X175833861Y-105105211D01*
X175818932Y-105090282D01*
X175782837Y-105054186D01*
X175755060Y-104999669D01*
X175753841Y-104984183D01*
X175753841Y-103674082D01*
X179335841Y-103674082D01*
X179335841Y-103831771D01*
X179366604Y-103986423D01*
X179366604Y-103986425D01*
X179426944Y-104132101D01*
X179426950Y-104132112D01*
X179474418Y-104203151D01*
X179514552Y-104263216D01*
X179626052Y-104374716D01*
X179688178Y-104416227D01*
X179757155Y-104462317D01*
X179757166Y-104462323D01*
X179810979Y-104484612D01*
X179902844Y-104522664D01*
X180057499Y-104553427D01*
X180057500Y-104553427D01*
X180215182Y-104553427D01*
X180215183Y-104553427D01*
X180369838Y-104522664D01*
X180515520Y-104462321D01*
X180646630Y-104374716D01*
X180758130Y-104263216D01*
X180845735Y-104132106D01*
X180906078Y-103986424D01*
X180936841Y-103831769D01*
X180936841Y-103674085D01*
X180906078Y-103519430D01*
X180854132Y-103394020D01*
X180845737Y-103373752D01*
X180845731Y-103373741D01*
X180807383Y-103316350D01*
X180758130Y-103242638D01*
X180646630Y-103131138D01*
X180572831Y-103081827D01*
X180515526Y-103043536D01*
X180515515Y-103043530D01*
X180369838Y-102983190D01*
X180215185Y-102952427D01*
X180215183Y-102952427D01*
X180057499Y-102952427D01*
X180057496Y-102952427D01*
X179902844Y-102983190D01*
X179902842Y-102983190D01*
X179757166Y-103043530D01*
X179757155Y-103043536D01*
X179626052Y-103131138D01*
X179626048Y-103131141D01*
X179514555Y-103242634D01*
X179514552Y-103242638D01*
X179426950Y-103373741D01*
X179426944Y-103373752D01*
X179366604Y-103519428D01*
X179366604Y-103519430D01*
X179335841Y-103674082D01*
X175753841Y-103674082D01*
X175753841Y-101616826D01*
X175772748Y-101558635D01*
X175782831Y-101546828D01*
X177909934Y-99419724D01*
X177964449Y-99391949D01*
X178005554Y-99394102D01*
X178125769Y-99426314D01*
X178125771Y-99426314D01*
X178283881Y-99426314D01*
X178283883Y-99426314D01*
X178436610Y-99385391D01*
X178573542Y-99306334D01*
X178685346Y-99194530D01*
X178764403Y-99057598D01*
X178805326Y-98904871D01*
X178805326Y-98746757D01*
X178764403Y-98594030D01*
X178685346Y-98457098D01*
X178573542Y-98345294D01*
X178436610Y-98266237D01*
X178283883Y-98225314D01*
X178283881Y-98225314D01*
X178211727Y-98225314D01*
X178153536Y-98206407D01*
X178141723Y-98196318D01*
X173611312Y-93665907D01*
X169077833Y-89132428D01*
X169050058Y-89077914D01*
X169059629Y-89017482D01*
X169102894Y-88974217D01*
X169147839Y-88963427D01*
X169868640Y-88963427D01*
X169926831Y-88982334D01*
X169938644Y-88992423D01*
X177543245Y-96597024D01*
X177571022Y-96651541D01*
X177572241Y-96667028D01*
X177572241Y-96739184D01*
X177613164Y-96891911D01*
X177692221Y-97028843D01*
X177804025Y-97140647D01*
X177940957Y-97219704D01*
X178093684Y-97260627D01*
X178093686Y-97260627D01*
X178251796Y-97260627D01*
X178251798Y-97260627D01*
X178404525Y-97219704D01*
X178541457Y-97140647D01*
X178653261Y-97028843D01*
X178732318Y-96891911D01*
X178773241Y-96739184D01*
X178773241Y-96581070D01*
X178732318Y-96428343D01*
X178653261Y-96291411D01*
X178541457Y-96179607D01*
X178404525Y-96100550D01*
X178251798Y-96059627D01*
X178251796Y-96059627D01*
X178179642Y-96059627D01*
X178121451Y-96040720D01*
X178109638Y-96030631D01*
X176132792Y-94053785D01*
X176069277Y-93990270D01*
X181636241Y-93990270D01*
X181636241Y-94148384D01*
X181677164Y-94301111D01*
X181756221Y-94438043D01*
X181868025Y-94549847D01*
X182004957Y-94628904D01*
X182157684Y-94669827D01*
X182157686Y-94669827D01*
X182315796Y-94669827D01*
X182315798Y-94669827D01*
X182468525Y-94628904D01*
X182605457Y-94549847D01*
X182717261Y-94438043D01*
X182796318Y-94301111D01*
X182837241Y-94148384D01*
X182837241Y-93990270D01*
X182796318Y-93837543D01*
X182717261Y-93700611D01*
X182605457Y-93588807D01*
X182468525Y-93509750D01*
X182315798Y-93468827D01*
X182157684Y-93468827D01*
X182004957Y-93509750D01*
X181868025Y-93588807D01*
X181756221Y-93700611D01*
X181677164Y-93837543D01*
X181636241Y-93990270D01*
X176069277Y-93990270D01*
X173233234Y-91154227D01*
X170321454Y-88242447D01*
X170321451Y-88242445D01*
X170321450Y-88242444D01*
X170321449Y-88242443D01*
X170230132Y-88189721D01*
X170230134Y-88189721D01*
X170190611Y-88179131D01*
X170128268Y-88162427D01*
X170128266Y-88162427D01*
X162878242Y-88162427D01*
X162820051Y-88143520D01*
X162808238Y-88133431D01*
X161771437Y-87096629D01*
X161743660Y-87042112D01*
X161742441Y-87026625D01*
X161742441Y-86954470D01*
X161742441Y-86954469D01*
X161701518Y-86801742D01*
X161622461Y-86664810D01*
X161510657Y-86553006D01*
X161373725Y-86473949D01*
X161220998Y-86433026D01*
X161062884Y-86433026D01*
X161025621Y-86443010D01*
X160934607Y-86467397D01*
X160873506Y-86464194D01*
X160825956Y-86425689D01*
X160810121Y-86366588D01*
X160823247Y-86322274D01*
X160850708Y-86274711D01*
X160891631Y-86121984D01*
X160891631Y-85963870D01*
X160850708Y-85811143D01*
X160771651Y-85674211D01*
X160659847Y-85562407D01*
X160522915Y-85483350D01*
X160370188Y-85442427D01*
X160212074Y-85442427D01*
X160059347Y-85483350D01*
X159922415Y-85562407D01*
X159810611Y-85674211D01*
X159731554Y-85811143D01*
X159690631Y-85963870D01*
X159690631Y-86121984D01*
X159731554Y-86274711D01*
X159810611Y-86411643D01*
X159861636Y-86462668D01*
X159889412Y-86517183D01*
X159890631Y-86532670D01*
X159890631Y-87686600D01*
X159871724Y-87744791D01*
X159822224Y-87780755D01*
X159761038Y-87780755D01*
X159721627Y-87756604D01*
X159430614Y-87465591D01*
X158785143Y-86820119D01*
X158785140Y-86820117D01*
X158785138Y-86820115D01*
X158693821Y-86767393D01*
X158693823Y-86767393D01*
X158654300Y-86756803D01*
X158591957Y-86740099D01*
X158591955Y-86740099D01*
X155833979Y-86740099D01*
X155775788Y-86721192D01*
X155739824Y-86671692D01*
X155739824Y-86610506D01*
X155775788Y-86561006D01*
X155808353Y-86545473D01*
X155916125Y-86516596D01*
X156053057Y-86437539D01*
X156164861Y-86325735D01*
X156243918Y-86188803D01*
X156284841Y-86036076D01*
X156284841Y-85877962D01*
X156243918Y-85725235D01*
X156164861Y-85588303D01*
X156053057Y-85476499D01*
X155916125Y-85397442D01*
X155763398Y-85356519D01*
X155605284Y-85356519D01*
X155452557Y-85397442D01*
X155315625Y-85476499D01*
X155203821Y-85588303D01*
X155124764Y-85725235D01*
X155083841Y-85877962D01*
X155083841Y-86036076D01*
X155124764Y-86188803D01*
X155203821Y-86325735D01*
X155315625Y-86437539D01*
X155452557Y-86516596D01*
X155560327Y-86545472D01*
X155611640Y-86578796D01*
X155633567Y-86635918D01*
X155617731Y-86695018D01*
X155570182Y-86733523D01*
X155534703Y-86740099D01*
X154713125Y-86740099D01*
X154654934Y-86721192D01*
X154618970Y-86671692D01*
X154618970Y-86610506D01*
X154627388Y-86591600D01*
X154629771Y-86587472D01*
X154644967Y-86561152D01*
X154685890Y-86408425D01*
X154685890Y-86250311D01*
X154644967Y-86097584D01*
X154565910Y-85960652D01*
X154454106Y-85848848D01*
X154317174Y-85769791D01*
X154164447Y-85728868D01*
X154006333Y-85728868D01*
X153929969Y-85749329D01*
X153853604Y-85769791D01*
X153713664Y-85850585D01*
X153653816Y-85863306D01*
X153597920Y-85838419D01*
X153578428Y-85814348D01*
X153577030Y-85811927D01*
X153577029Y-85811925D01*
X153465225Y-85700121D01*
X153328293Y-85621064D01*
X153175566Y-85580141D01*
X153017452Y-85580141D01*
X152864725Y-85621064D01*
X152727793Y-85700121D01*
X152615989Y-85811925D01*
X152536932Y-85948857D01*
X152496009Y-86101584D01*
X152496009Y-86259698D01*
X152500032Y-86274711D01*
X152536932Y-86412426D01*
X152571170Y-86471728D01*
X152583891Y-86531576D01*
X152559004Y-86587472D01*
X152506015Y-86618064D01*
X152485433Y-86620227D01*
X150440939Y-86620227D01*
X150335485Y-86620227D01*
X150281843Y-86634600D01*
X150233619Y-86647521D01*
X150142303Y-86700243D01*
X150142298Y-86700247D01*
X150035314Y-86807231D01*
X149980798Y-86835008D01*
X149965311Y-86836227D01*
X148713263Y-86836227D01*
X148655072Y-86817320D01*
X148635789Y-86795906D01*
X148634414Y-86796962D01*
X148630465Y-86791816D01*
X148630462Y-86791813D01*
X148630461Y-86791811D01*
X148518657Y-86680007D01*
X148381725Y-86600950D01*
X148228998Y-86560027D01*
X148070884Y-86560027D01*
X147918157Y-86600950D01*
X147781225Y-86680007D01*
X147669421Y-86791811D01*
X147590364Y-86928743D01*
X147549441Y-87081470D01*
X99036841Y-87081470D01*
X99036841Y-85786070D01*
X149225841Y-85786070D01*
X149225841Y-85944184D01*
X149266764Y-86096911D01*
X149345821Y-86233843D01*
X149457625Y-86345647D01*
X149594557Y-86424704D01*
X149747284Y-86465627D01*
X149747286Y-86465627D01*
X149905396Y-86465627D01*
X149905398Y-86465627D01*
X150058125Y-86424704D01*
X150195057Y-86345647D01*
X150306861Y-86233843D01*
X150385918Y-86096911D01*
X150426841Y-85944184D01*
X150426841Y-85786070D01*
X150385918Y-85633343D01*
X150306861Y-85496411D01*
X150195057Y-85384607D01*
X150058125Y-85305550D01*
X149905398Y-85264627D01*
X149747284Y-85264627D01*
X149594557Y-85305550D01*
X149457625Y-85384607D01*
X149345821Y-85496411D01*
X149266764Y-85633343D01*
X149225841Y-85786070D01*
X99036841Y-85786070D01*
X99036841Y-84746570D01*
X127028141Y-84746570D01*
X127028141Y-84904684D01*
X127069064Y-85057411D01*
X127148121Y-85194343D01*
X127259925Y-85306147D01*
X127396857Y-85385204D01*
X127549584Y-85426127D01*
X127549586Y-85426127D01*
X127707696Y-85426127D01*
X127707698Y-85426127D01*
X127860425Y-85385204D01*
X127997357Y-85306147D01*
X128109161Y-85194343D01*
X128188218Y-85057411D01*
X128229141Y-84904684D01*
X128229141Y-84746570D01*
X128188218Y-84593843D01*
X128109161Y-84456911D01*
X127997357Y-84345107D01*
X127860425Y-84266050D01*
X127707698Y-84225127D01*
X127549584Y-84225127D01*
X127396857Y-84266050D01*
X127259925Y-84345107D01*
X127148121Y-84456911D01*
X127069064Y-84593843D01*
X127028141Y-84746570D01*
X99036841Y-84746570D01*
X99036841Y-84084270D01*
X151054641Y-84084270D01*
X151054641Y-84242384D01*
X151095564Y-84395111D01*
X151174621Y-84532043D01*
X151286425Y-84643847D01*
X151423357Y-84722904D01*
X151576084Y-84763827D01*
X151576086Y-84763827D01*
X151734196Y-84763827D01*
X151734198Y-84763827D01*
X151886925Y-84722904D01*
X152023857Y-84643847D01*
X152135661Y-84532043D01*
X152214718Y-84395111D01*
X152255641Y-84242384D01*
X152255641Y-84084270D01*
X152242029Y-84033470D01*
X161417841Y-84033470D01*
X161417841Y-84191584D01*
X161458764Y-84344311D01*
X161537821Y-84481243D01*
X161649625Y-84593047D01*
X161786557Y-84672104D01*
X161939284Y-84713027D01*
X162011440Y-84713027D01*
X162069631Y-84731934D01*
X162081444Y-84742023D01*
X163263287Y-85923865D01*
X164432841Y-87093419D01*
X164432843Y-87093422D01*
X164507410Y-87167989D01*
X164507412Y-87167990D01*
X164594409Y-87218219D01*
X164594418Y-87218222D01*
X164598736Y-87220716D01*
X164700596Y-87248010D01*
X164700598Y-87248010D01*
X164812113Y-87248010D01*
X164812129Y-87248009D01*
X176967022Y-87248009D01*
X177025213Y-87266916D01*
X177037025Y-87277005D01*
X177164827Y-87404806D01*
X177164832Y-87404810D01*
X177256149Y-87457532D01*
X177256147Y-87457532D01*
X177256151Y-87457533D01*
X177256153Y-87457534D01*
X177358014Y-87484827D01*
X178876797Y-87484827D01*
X178934988Y-87503734D01*
X178946799Y-87513822D01*
X178962220Y-87529242D01*
X178972425Y-87539447D01*
X179109357Y-87618504D01*
X179262084Y-87659427D01*
X179262086Y-87659427D01*
X179420196Y-87659427D01*
X179420198Y-87659427D01*
X179572925Y-87618504D01*
X179709857Y-87539447D01*
X179821661Y-87427643D01*
X179900718Y-87290711D01*
X179941641Y-87137984D01*
X179941641Y-86979870D01*
X179900718Y-86827143D01*
X179821661Y-86690211D01*
X179709857Y-86578407D01*
X179572925Y-86499350D01*
X179420198Y-86458427D01*
X179262084Y-86458427D01*
X179109357Y-86499350D01*
X179004261Y-86560027D01*
X178972422Y-86578409D01*
X178896000Y-86654831D01*
X178841483Y-86682608D01*
X178825997Y-86683827D01*
X177617642Y-86683827D01*
X177559451Y-86664920D01*
X177547639Y-86654831D01*
X177419836Y-86527029D01*
X177419831Y-86527025D01*
X177328514Y-86474303D01*
X177328516Y-86474303D01*
X177269263Y-86458427D01*
X177226650Y-86447009D01*
X177226648Y-86447009D01*
X164960223Y-86447009D01*
X164902032Y-86428102D01*
X164890219Y-86418013D01*
X162975590Y-84503383D01*
X162912075Y-84439868D01*
X165431041Y-84439868D01*
X165431041Y-84597982D01*
X165471964Y-84750709D01*
X165551021Y-84887641D01*
X165662825Y-84999445D01*
X165799757Y-85078502D01*
X165952484Y-85119425D01*
X166024640Y-85119425D01*
X166082831Y-85138332D01*
X166094644Y-85148421D01*
X166801630Y-85855407D01*
X166801632Y-85855408D01*
X166801633Y-85855409D01*
X166801634Y-85855410D01*
X166892951Y-85908132D01*
X166892949Y-85908132D01*
X166892953Y-85908133D01*
X166892955Y-85908134D01*
X166994816Y-85935427D01*
X178902197Y-85935427D01*
X178960388Y-85954334D01*
X178972200Y-85964423D01*
X179023222Y-86015444D01*
X179023225Y-86015447D01*
X179160157Y-86094504D01*
X179312884Y-86135427D01*
X179312886Y-86135427D01*
X179470996Y-86135427D01*
X179470998Y-86135427D01*
X179623725Y-86094504D01*
X179760657Y-86015447D01*
X179872461Y-85903643D01*
X179951518Y-85766711D01*
X179992441Y-85613984D01*
X179992441Y-85455870D01*
X179951518Y-85303143D01*
X179872461Y-85166211D01*
X179760657Y-85054407D01*
X179623725Y-84975350D01*
X179470998Y-84934427D01*
X179312884Y-84934427D01*
X179160157Y-84975350D01*
X179023222Y-85054409D01*
X178972200Y-85105431D01*
X178917683Y-85133208D01*
X178902197Y-85134427D01*
X167254444Y-85134427D01*
X167196253Y-85115520D01*
X167184440Y-85105431D01*
X166661037Y-84582028D01*
X166633260Y-84527511D01*
X166632041Y-84512024D01*
X166632041Y-84439869D01*
X166620048Y-84395110D01*
X166591118Y-84287141D01*
X166512061Y-84150209D01*
X166400257Y-84038405D01*
X166263325Y-83959348D01*
X166110598Y-83918425D01*
X165952484Y-83918425D01*
X165799757Y-83959348D01*
X165662825Y-84038405D01*
X165551021Y-84150209D01*
X165471964Y-84287141D01*
X165431041Y-84439868D01*
X162912075Y-84439868D01*
X162647837Y-84175630D01*
X162620060Y-84121113D01*
X162618841Y-84105626D01*
X162618841Y-84033471D01*
X162618841Y-84033470D01*
X162577918Y-83880743D01*
X162498861Y-83743811D01*
X162387057Y-83632007D01*
X162250125Y-83552950D01*
X162097398Y-83512027D01*
X161939284Y-83512027D01*
X161786557Y-83552950D01*
X161649625Y-83632007D01*
X161537821Y-83743811D01*
X161458764Y-83880743D01*
X161417841Y-84033470D01*
X152242029Y-84033470D01*
X152214718Y-83931543D01*
X152135661Y-83794611D01*
X152023857Y-83682807D01*
X151886925Y-83603750D01*
X151734198Y-83562827D01*
X151576084Y-83562827D01*
X151423357Y-83603750D01*
X151286425Y-83682807D01*
X151174621Y-83794611D01*
X151095564Y-83931543D01*
X151054641Y-84084270D01*
X99036841Y-84084270D01*
X99036841Y-83068270D01*
X185751041Y-83068270D01*
X185751041Y-83226384D01*
X185791964Y-83379111D01*
X185871021Y-83516043D01*
X185982825Y-83627847D01*
X186119757Y-83706904D01*
X186272484Y-83747827D01*
X186272486Y-83747827D01*
X186430596Y-83747827D01*
X186430598Y-83747827D01*
X186583325Y-83706904D01*
X186720257Y-83627847D01*
X186832061Y-83516043D01*
X186911118Y-83379111D01*
X186952041Y-83226384D01*
X186952041Y-83068270D01*
X186911118Y-82915543D01*
X186832061Y-82778611D01*
X186720257Y-82666807D01*
X186626270Y-82612544D01*
X186585331Y-82567076D01*
X186578935Y-82506226D01*
X186609528Y-82453238D01*
X186628979Y-82440969D01*
X186628505Y-82440148D01*
X186634122Y-82436904D01*
X186634125Y-82436904D01*
X186771057Y-82357847D01*
X186882861Y-82246043D01*
X186961918Y-82109111D01*
X187002841Y-81956384D01*
X187002841Y-81798270D01*
X186961918Y-81645543D01*
X186882861Y-81508611D01*
X186771057Y-81396807D01*
X186634125Y-81317750D01*
X186481398Y-81276827D01*
X186323284Y-81276827D01*
X186170557Y-81317750D01*
X186033625Y-81396807D01*
X185921821Y-81508611D01*
X185842764Y-81645543D01*
X185801841Y-81798270D01*
X185801841Y-81956384D01*
X185842764Y-82109111D01*
X185921821Y-82246043D01*
X186033625Y-82357847D01*
X186127609Y-82412108D01*
X186168550Y-82457577D01*
X186174946Y-82518427D01*
X186144353Y-82571415D01*
X186124904Y-82583688D01*
X186125377Y-82584506D01*
X186119759Y-82587749D01*
X186119757Y-82587750D01*
X185982825Y-82666807D01*
X185871021Y-82778611D01*
X185791964Y-82915543D01*
X185751041Y-83068270D01*
X99036841Y-83068270D01*
X99036841Y-75854670D01*
X167412241Y-75854670D01*
X167412241Y-76012784D01*
X167453164Y-76165511D01*
X167532221Y-76302443D01*
X167644025Y-76414247D01*
X167780957Y-76493304D01*
X167933684Y-76534227D01*
X167933686Y-76534227D01*
X168091796Y-76534227D01*
X168091798Y-76534227D01*
X168244525Y-76493304D01*
X168381457Y-76414247D01*
X168493261Y-76302443D01*
X168572318Y-76165511D01*
X168613241Y-76012784D01*
X168613241Y-75854670D01*
X168572318Y-75701943D01*
X168493261Y-75565011D01*
X168381457Y-75453207D01*
X168244525Y-75374150D01*
X168091798Y-75333227D01*
X167933684Y-75333227D01*
X167780957Y-75374150D01*
X167644025Y-75453207D01*
X167532221Y-75565011D01*
X167453164Y-75701943D01*
X167412241Y-75854670D01*
X99036841Y-75854670D01*
X99036841Y-73960427D01*
X99055748Y-73902236D01*
X99105248Y-73866272D01*
X99135841Y-73861427D01*
X189848841Y-73861427D01*
X189907032Y-73880334D01*
G37*
%TD.AperFunction*%
%TD*%
M02*
