%TF.GenerationSoftware,KiCad,Pcbnew,9.0.6+1*%
%TF.CreationDate,2025-12-27T23:03:06+00:00*%
%TF.ProjectId,TFUNIPAYLOAD01,5446554e-4950-4415-994c-4f414430312e,rev?*%
%TF.SameCoordinates,PX66dd020PY81342c0*%
%TF.FileFunction,Profile,NP*%
%FSLAX46Y46*%
G04 Gerber Fmt 4.6, Leading zero omitted, Abs format (unit mm)*
G04 Created by KiCad (PCBNEW 9.0.6+1) date 2025-12-27 23:03:06*
%MOMM*%
%LPD*%
G01*
G04 APERTURE LIST*
%TA.AperFunction,Profile*%
%ADD10C,0.150000*%
%TD*%
%TA.AperFunction,Profile*%
%ADD11C,0.050000*%
%TD*%
G04 APERTURE END LIST*
D10*
X5334000Y55626000D02*
X75946000Y55626000D01*
X75946000Y5334001D01*
X5334000Y5334001D01*
X5334000Y55626000D01*
D11*
%TO.C,D3*%
X7358200Y36269700D02*
X7358200Y37669700D01*
X7658200Y37969700D02*
X9258200Y37969700D01*
X9258200Y35969700D02*
X7658200Y35969700D01*
X9558200Y37669700D02*
X9558200Y36269700D01*
X7358200Y37669700D02*
G75*
G02*
X7658200Y37969700I300000J0D01*
G01*
X7658200Y35969700D02*
G75*
G02*
X7358200Y36269700I0J300000D01*
G01*
X9258200Y37969700D02*
G75*
G02*
X9558200Y37669700I0J-300000D01*
G01*
X9558200Y36269700D02*
G75*
G02*
X9258200Y35969700I-300000J0D01*
G01*
%TO.C,D4*%
X7358200Y40829000D02*
X7358200Y42229000D01*
X7658200Y42529000D02*
X9258200Y42529000D01*
X9258200Y40529000D02*
X7658200Y40529000D01*
X9558200Y42229000D02*
X9558200Y40829000D01*
X7358200Y42229000D02*
G75*
G02*
X7658200Y42529000I300000J0D01*
G01*
X7658200Y40529000D02*
G75*
G02*
X7358200Y40829000I0J300000D01*
G01*
X9258200Y42529000D02*
G75*
G02*
X9558200Y42229000I0J-300000D01*
G01*
X9558200Y40829000D02*
G75*
G02*
X9258200Y40529000I-300000J0D01*
G01*
%TO.C,D5*%
X60976000Y50355600D02*
X60976000Y51955600D01*
X61276000Y52255600D02*
X62676000Y52255600D01*
X62676000Y50055600D02*
X61276000Y50055600D01*
X62976000Y51955600D02*
X62976000Y50355600D01*
X60976000Y51955600D02*
G75*
G02*
X61276000Y52255600I300000J0D01*
G01*
X61276000Y50055600D02*
G75*
G02*
X60976000Y50355600I0J300000D01*
G01*
X62676000Y52255600D02*
G75*
G02*
X62976000Y51955600I0J-300000D01*
G01*
X62976000Y50355600D02*
G75*
G02*
X62676000Y50055600I-300000J0D01*
G01*
%TO.C,D6*%
X7358200Y31710400D02*
X7358200Y33110400D01*
X7658200Y33410400D02*
X9258200Y33410400D01*
X9258200Y31410400D02*
X7658200Y31410400D01*
X9558200Y33110400D02*
X9558200Y31710400D01*
X7358200Y33110400D02*
G75*
G02*
X7658200Y33410400I300000J0D01*
G01*
X7658200Y31410400D02*
G75*
G02*
X7358200Y31710400I0J300000D01*
G01*
X9258200Y33410400D02*
G75*
G02*
X9558200Y33110400I0J-300000D01*
G01*
X9558200Y31710400D02*
G75*
G02*
X9258200Y31410400I-300000J0D01*
G01*
%TO.C,D7*%
X64430400Y50355600D02*
X64430400Y51955600D01*
X64730400Y52255600D02*
X66130400Y52255600D01*
X66130400Y50055600D02*
X64730400Y50055600D01*
X66430400Y51955600D02*
X66430400Y50355600D01*
X64430400Y51955600D02*
G75*
G02*
X64730400Y52255600I300000J0D01*
G01*
X64730400Y50055600D02*
G75*
G02*
X64430400Y50355600I0J300000D01*
G01*
X66130400Y52255600D02*
G75*
G02*
X66430400Y51955600I0J-300000D01*
G01*
X66430400Y50355600D02*
G75*
G02*
X66130400Y50055600I-300000J0D01*
G01*
%TD*%
M02*
