%TF.GenerationSoftware,KiCad,Pcbnew,9.0.1+1*%
%TF.CreationDate,2025-11-25T21:21:07+00:00*%
%TF.ProjectId,TFUNIPAYLOAD01,5446554e-4950-4415-994c-4f414430312e,rev?*%
%TF.SameCoordinates,Original*%
%TF.FileFunction,Paste,Bot*%
%TF.FilePolarity,Positive*%
%FSLAX46Y46*%
G04 Gerber Fmt 4.6, Leading zero omitted, Abs format (unit mm)*
G04 Created by KiCad (PCBNEW 9.0.1+1) date 2025-11-25 21:21:07*
%MOMM*%
%LPD*%
G01*
G04 APERTURE LIST*
G04 Aperture macros list*
%AMRoundRect*
0 Rectangle with rounded corners*
0 $1 Rounding radius*
0 $2 $3 $4 $5 $6 $7 $8 $9 X,Y pos of 4 corners*
0 Add a 4 corners polygon primitive as box body*
4,1,4,$2,$3,$4,$5,$6,$7,$8,$9,$2,$3,0*
0 Add four circle primitives for the rounded corners*
1,1,$1+$1,$2,$3*
1,1,$1+$1,$4,$5*
1,1,$1+$1,$6,$7*
1,1,$1+$1,$8,$9*
0 Add four rect primitives between the rounded corners*
20,1,$1+$1,$2,$3,$4,$5,0*
20,1,$1+$1,$4,$5,$6,$7,0*
20,1,$1+$1,$6,$7,$8,$9,0*
20,1,$1+$1,$8,$9,$2,$3,0*%
G04 Aperture macros list end*
%ADD10RoundRect,0.250000X-0.250000X-0.475000X0.250000X-0.475000X0.250000X0.475000X-0.250000X0.475000X0*%
%ADD11RoundRect,0.250000X-0.450000X-0.425000X0.450000X-0.425000X0.450000X0.425000X-0.450000X0.425000X0*%
%ADD12R,0.550000X1.500000*%
%ADD13R,1.500000X0.550000*%
%ADD14RoundRect,0.250000X0.450000X-0.262500X0.450000X0.262500X-0.450000X0.262500X-0.450000X-0.262500X0*%
%ADD15RoundRect,0.250000X0.262500X0.450000X-0.262500X0.450000X-0.262500X-0.450000X0.262500X-0.450000X0*%
%ADD16RoundRect,0.250000X0.475000X-0.250000X0.475000X0.250000X-0.475000X0.250000X-0.475000X-0.250000X0*%
%ADD17RoundRect,0.150000X-0.700000X0.150000X-0.700000X-0.150000X0.700000X-0.150000X0.700000X0.150000X0*%
%ADD18RoundRect,0.250000X-1.100000X0.250000X-1.100000X-0.250000X1.100000X-0.250000X1.100000X0.250000X0*%
%ADD19RoundRect,0.150000X0.587500X0.150000X-0.587500X0.150000X-0.587500X-0.150000X0.587500X-0.150000X0*%
%ADD20RoundRect,0.250000X-0.450000X0.262500X-0.450000X-0.262500X0.450000X-0.262500X0.450000X0.262500X0*%
%ADD21RoundRect,0.237500X-0.237500X0.287500X-0.237500X-0.287500X0.237500X-0.287500X0.237500X0.287500X0*%
%ADD22RoundRect,0.250000X-0.262500X-0.450000X0.262500X-0.450000X0.262500X0.450000X-0.262500X0.450000X0*%
%ADD23RoundRect,0.150000X0.150000X0.200000X-0.150000X0.200000X-0.150000X-0.200000X0.150000X-0.200000X0*%
%ADD24RoundRect,0.150000X-0.200000X0.150000X-0.200000X-0.150000X0.200000X-0.150000X0.200000X0.150000X0*%
G04 APERTURE END LIST*
D10*
%TO.C,C9*%
X154413541Y-98535727D03*
X156313541Y-98535727D03*
%TD*%
D11*
%TO.C,C8*%
X153828141Y-100821727D03*
X156528141Y-100821727D03*
%TD*%
D12*
%TO.C,U2*%
X152989141Y-84203727D03*
X153789141Y-84203727D03*
X154589141Y-84203727D03*
X155389141Y-84203727D03*
X156189141Y-84203727D03*
X156989141Y-84203727D03*
X157789141Y-84203727D03*
X158589141Y-84203727D03*
X159389141Y-84203727D03*
X160189141Y-84203727D03*
X160989141Y-84203727D03*
D13*
X162689141Y-85903727D03*
X162689141Y-86703727D03*
X162689141Y-87503727D03*
X162689141Y-88303727D03*
X162689141Y-89103727D03*
X162689141Y-89903727D03*
X162689141Y-90703727D03*
X162689141Y-91503727D03*
X162689141Y-92303727D03*
X162689141Y-93103727D03*
X162689141Y-93903727D03*
D12*
X160989141Y-95603727D03*
X160189141Y-95603727D03*
X159389141Y-95603727D03*
X158589141Y-95603727D03*
X157789141Y-95603727D03*
X156989141Y-95603727D03*
X156189141Y-95603727D03*
X155389141Y-95603727D03*
X154589141Y-95603727D03*
X153789141Y-95603727D03*
X152989141Y-95603727D03*
D13*
X151289141Y-93903727D03*
X151289141Y-93103727D03*
X151289141Y-92303727D03*
X151289141Y-91503727D03*
X151289141Y-90703727D03*
X151289141Y-89903727D03*
X151289141Y-89103727D03*
X151289141Y-88303727D03*
X151289141Y-87503727D03*
X151289141Y-86703727D03*
X151289141Y-85903727D03*
%TD*%
D14*
%TO.C,R12*%
X165218741Y-93407027D03*
X165218741Y-91582027D03*
%TD*%
D15*
%TO.C,R5*%
X169638841Y-102932927D03*
X167813841Y-102932927D03*
%TD*%
D10*
%TO.C,C10*%
X154609141Y-81263727D03*
X156509141Y-81263727D03*
%TD*%
D16*
%TO.C,C11*%
X148556341Y-90853727D03*
X148556341Y-88953727D03*
%TD*%
%TO.C,C12*%
X166481142Y-89732127D03*
X166481142Y-87832127D03*
%TD*%
D10*
%TO.C,C2*%
X171456341Y-102952927D03*
X173356341Y-102952927D03*
%TD*%
D14*
%TO.C,R13*%
X167250741Y-93407027D03*
X167250741Y-91582027D03*
%TD*%
D17*
%TO.C,J1*%
X184806341Y-93077927D03*
X184806341Y-94327927D03*
X184806341Y-95577927D03*
X184806341Y-96827927D03*
X184806341Y-98077927D03*
X184806341Y-99327927D03*
D18*
X188006341Y-91227927D03*
X188006341Y-101177927D03*
%TD*%
D19*
%TO.C,Q2*%
X147461841Y-118874927D03*
X147461841Y-120774927D03*
X145586841Y-119824927D03*
%TD*%
D20*
%TO.C,R16*%
X158208341Y-114340427D03*
X158208341Y-116165427D03*
%TD*%
D21*
%TO.C,L1*%
X173905541Y-95023127D03*
X173905541Y-96773127D03*
%TD*%
D17*
%TO.C,J2*%
X184806341Y-78111927D03*
X184806341Y-79361927D03*
X184806341Y-80611927D03*
X184806341Y-81861927D03*
X184806341Y-83111927D03*
X184806341Y-84361927D03*
X184806341Y-85611927D03*
X184806341Y-86861927D03*
D18*
X188006341Y-76261927D03*
X188006341Y-88711927D03*
%TD*%
D20*
%TO.C,R7*%
X153382341Y-114340427D03*
X153382341Y-116165427D03*
%TD*%
D14*
%TO.C,R6*%
X150842341Y-117181427D03*
X150842341Y-115356427D03*
%TD*%
D22*
%TO.C,R21*%
X180714641Y-87058927D03*
X182539641Y-87058927D03*
%TD*%
D23*
%TO.C,D1*%
X179911141Y-93053327D03*
X181311141Y-93053327D03*
%TD*%
D22*
%TO.C,R20*%
X180714641Y-84976127D03*
X182539641Y-84976127D03*
%TD*%
%TO.C,R4*%
X179495441Y-98742927D03*
X181320441Y-98742927D03*
%TD*%
%TO.C,R18*%
X180714641Y-79743727D03*
X182539641Y-79743727D03*
%TD*%
D14*
%TO.C,R15*%
X155922341Y-117181427D03*
X155922341Y-115356427D03*
%TD*%
D22*
%TO.C,R19*%
X180714641Y-82385327D03*
X182539641Y-82385327D03*
%TD*%
D16*
%TO.C,C1*%
X172096341Y-93452927D03*
X172096341Y-91552927D03*
%TD*%
D19*
%TO.C,Q3*%
X157367841Y-118874927D03*
X157367841Y-120774927D03*
X155492841Y-119824927D03*
%TD*%
D14*
%TO.C,R8*%
X145762341Y-117181427D03*
X145762341Y-115356427D03*
%TD*%
D24*
%TO.C,D2*%
X173905541Y-93397727D03*
X173905541Y-91997727D03*
%TD*%
D19*
%TO.C,Q1*%
X152541841Y-118874927D03*
X152541841Y-120774927D03*
X150666841Y-119824927D03*
%TD*%
D22*
%TO.C,R17*%
X180714641Y-77254527D03*
X182539641Y-77254527D03*
%TD*%
D20*
%TO.C,R14*%
X168063541Y-77256427D03*
X168063541Y-79081427D03*
%TD*%
%TO.C,R9*%
X148302341Y-114340427D03*
X148302341Y-116165427D03*
%TD*%
D22*
%TO.C,R1*%
X179495441Y-96660127D03*
X181320441Y-96660127D03*
%TD*%
M02*
