%TF.GenerationSoftware,KiCad,Pcbnew,9.0.6+1*%
%TF.CreationDate,2025-12-27T20:09:19+00:00*%
%TF.ProjectId,TFUNIPAYLOAD01,5446554e-4950-4415-994c-4f414430312e,rev?*%
%TF.SameCoordinates,PX66dd020PY81342c0*%
%TF.FileFunction,Legend,Bot*%
%TF.FilePolarity,Positive*%
%FSLAX46Y46*%
G04 Gerber Fmt 4.6, Leading zero omitted, Abs format (unit mm)*
G04 Created by KiCad (PCBNEW 9.0.6+1) date 2025-12-27 20:09:19*
%MOMM*%
%LPD*%
G01*
G04 APERTURE LIST*
%ADD10C,0.150000*%
%ADD11C,0.200000*%
%ADD12C,0.100000*%
%ADD13C,0.120000*%
G04 APERTURE END LIST*
D10*
X40745580Y40552667D02*
X40793200Y40600286D01*
X40793200Y40600286D02*
X40840819Y40743143D01*
X40840819Y40743143D02*
X40840819Y40838381D01*
X40840819Y40838381D02*
X40793200Y40981238D01*
X40793200Y40981238D02*
X40697961Y41076476D01*
X40697961Y41076476D02*
X40602723Y41124095D01*
X40602723Y41124095D02*
X40412247Y41171714D01*
X40412247Y41171714D02*
X40269390Y41171714D01*
X40269390Y41171714D02*
X40078914Y41124095D01*
X40078914Y41124095D02*
X39983676Y41076476D01*
X39983676Y41076476D02*
X39888438Y40981238D01*
X39888438Y40981238D02*
X39840819Y40838381D01*
X39840819Y40838381D02*
X39840819Y40743143D01*
X39840819Y40743143D02*
X39888438Y40600286D01*
X39888438Y40600286D02*
X39936057Y40552667D01*
X40840819Y40076476D02*
X40840819Y39886000D01*
X40840819Y39886000D02*
X40793200Y39790762D01*
X40793200Y39790762D02*
X40745580Y39743143D01*
X40745580Y39743143D02*
X40602723Y39647905D01*
X40602723Y39647905D02*
X40412247Y39600286D01*
X40412247Y39600286D02*
X40031295Y39600286D01*
X40031295Y39600286D02*
X39936057Y39647905D01*
X39936057Y39647905D02*
X39888438Y39695524D01*
X39888438Y39695524D02*
X39840819Y39790762D01*
X39840819Y39790762D02*
X39840819Y39981238D01*
X39840819Y39981238D02*
X39888438Y40076476D01*
X39888438Y40076476D02*
X39936057Y40124095D01*
X39936057Y40124095D02*
X40031295Y40171714D01*
X40031295Y40171714D02*
X40269390Y40171714D01*
X40269390Y40171714D02*
X40364628Y40124095D01*
X40364628Y40124095D02*
X40412247Y40076476D01*
X40412247Y40076476D02*
X40459866Y39981238D01*
X40459866Y39981238D02*
X40459866Y39790762D01*
X40459866Y39790762D02*
X40412247Y39695524D01*
X40412247Y39695524D02*
X40364628Y39647905D01*
X40364628Y39647905D02*
X40269390Y39600286D01*
X38749266Y44649220D02*
X38796885Y44601600D01*
X38796885Y44601600D02*
X38939742Y44553981D01*
X38939742Y44553981D02*
X39034980Y44553981D01*
X39034980Y44553981D02*
X39177837Y44601600D01*
X39177837Y44601600D02*
X39273075Y44696839D01*
X39273075Y44696839D02*
X39320694Y44792077D01*
X39320694Y44792077D02*
X39368313Y44982553D01*
X39368313Y44982553D02*
X39368313Y45125410D01*
X39368313Y45125410D02*
X39320694Y45315886D01*
X39320694Y45315886D02*
X39273075Y45411124D01*
X39273075Y45411124D02*
X39177837Y45506362D01*
X39177837Y45506362D02*
X39034980Y45553981D01*
X39034980Y45553981D02*
X38939742Y45553981D01*
X38939742Y45553981D02*
X38796885Y45506362D01*
X38796885Y45506362D02*
X38749266Y45458743D01*
X38177837Y45125410D02*
X38273075Y45173029D01*
X38273075Y45173029D02*
X38320694Y45220648D01*
X38320694Y45220648D02*
X38368313Y45315886D01*
X38368313Y45315886D02*
X38368313Y45363505D01*
X38368313Y45363505D02*
X38320694Y45458743D01*
X38320694Y45458743D02*
X38273075Y45506362D01*
X38273075Y45506362D02*
X38177837Y45553981D01*
X38177837Y45553981D02*
X37987361Y45553981D01*
X37987361Y45553981D02*
X37892123Y45506362D01*
X37892123Y45506362D02*
X37844504Y45458743D01*
X37844504Y45458743D02*
X37796885Y45363505D01*
X37796885Y45363505D02*
X37796885Y45315886D01*
X37796885Y45315886D02*
X37844504Y45220648D01*
X37844504Y45220648D02*
X37892123Y45173029D01*
X37892123Y45173029D02*
X37987361Y45125410D01*
X37987361Y45125410D02*
X38177837Y45125410D01*
X38177837Y45125410D02*
X38273075Y45077791D01*
X38273075Y45077791D02*
X38320694Y45030172D01*
X38320694Y45030172D02*
X38368313Y44934934D01*
X38368313Y44934934D02*
X38368313Y44744458D01*
X38368313Y44744458D02*
X38320694Y44649220D01*
X38320694Y44649220D02*
X38273075Y44601600D01*
X38273075Y44601600D02*
X38177837Y44553981D01*
X38177837Y44553981D02*
X37987361Y44553981D01*
X37987361Y44553981D02*
X37892123Y44601600D01*
X37892123Y44601600D02*
X37844504Y44649220D01*
X37844504Y44649220D02*
X37796885Y44744458D01*
X37796885Y44744458D02*
X37796885Y44934934D01*
X37796885Y44934934D02*
X37844504Y45030172D01*
X37844504Y45030172D02*
X37892123Y45077791D01*
X37892123Y45077791D02*
X37987361Y45125410D01*
X36089219Y32761905D02*
X36898742Y32761905D01*
X36898742Y32761905D02*
X36993980Y32714286D01*
X36993980Y32714286D02*
X37041600Y32666667D01*
X37041600Y32666667D02*
X37089219Y32571429D01*
X37089219Y32571429D02*
X37089219Y32380953D01*
X37089219Y32380953D02*
X37041600Y32285715D01*
X37041600Y32285715D02*
X36993980Y32238096D01*
X36993980Y32238096D02*
X36898742Y32190477D01*
X36898742Y32190477D02*
X36089219Y32190477D01*
X36184457Y31761905D02*
X36136838Y31714286D01*
X36136838Y31714286D02*
X36089219Y31619048D01*
X36089219Y31619048D02*
X36089219Y31380953D01*
X36089219Y31380953D02*
X36136838Y31285715D01*
X36136838Y31285715D02*
X36184457Y31238096D01*
X36184457Y31238096D02*
X36279695Y31190477D01*
X36279695Y31190477D02*
X36374933Y31190477D01*
X36374933Y31190477D02*
X36517790Y31238096D01*
X36517790Y31238096D02*
X37089219Y31809524D01*
X37089219Y31809524D02*
X37089219Y31190477D01*
X29471857Y25910381D02*
X29805190Y26386572D01*
X30043285Y25910381D02*
X30043285Y26910381D01*
X30043285Y26910381D02*
X29662333Y26910381D01*
X29662333Y26910381D02*
X29567095Y26862762D01*
X29567095Y26862762D02*
X29519476Y26815143D01*
X29519476Y26815143D02*
X29471857Y26719905D01*
X29471857Y26719905D02*
X29471857Y26577048D01*
X29471857Y26577048D02*
X29519476Y26481810D01*
X29519476Y26481810D02*
X29567095Y26434191D01*
X29567095Y26434191D02*
X29662333Y26386572D01*
X29662333Y26386572D02*
X30043285Y26386572D01*
X28519476Y25910381D02*
X29090904Y25910381D01*
X28805190Y25910381D02*
X28805190Y26910381D01*
X28805190Y26910381D02*
X28900428Y26767524D01*
X28900428Y26767524D02*
X28995666Y26672286D01*
X28995666Y26672286D02*
X29090904Y26624667D01*
X28138523Y26815143D02*
X28090904Y26862762D01*
X28090904Y26862762D02*
X27995666Y26910381D01*
X27995666Y26910381D02*
X27757571Y26910381D01*
X27757571Y26910381D02*
X27662333Y26862762D01*
X27662333Y26862762D02*
X27614714Y26815143D01*
X27614714Y26815143D02*
X27567095Y26719905D01*
X27567095Y26719905D02*
X27567095Y26624667D01*
X27567095Y26624667D02*
X27614714Y26481810D01*
X27614714Y26481810D02*
X28186142Y25910381D01*
X28186142Y25910381D02*
X27567095Y25910381D01*
X40486219Y19315867D02*
X40010028Y19649200D01*
X40486219Y19887295D02*
X39486219Y19887295D01*
X39486219Y19887295D02*
X39486219Y19506343D01*
X39486219Y19506343D02*
X39533838Y19411105D01*
X39533838Y19411105D02*
X39581457Y19363486D01*
X39581457Y19363486D02*
X39676695Y19315867D01*
X39676695Y19315867D02*
X39819552Y19315867D01*
X39819552Y19315867D02*
X39914790Y19363486D01*
X39914790Y19363486D02*
X39962409Y19411105D01*
X39962409Y19411105D02*
X40010028Y19506343D01*
X40010028Y19506343D02*
X40010028Y19887295D01*
X39486219Y18411105D02*
X39486219Y18887295D01*
X39486219Y18887295D02*
X39962409Y18934914D01*
X39962409Y18934914D02*
X39914790Y18887295D01*
X39914790Y18887295D02*
X39867171Y18792057D01*
X39867171Y18792057D02*
X39867171Y18553962D01*
X39867171Y18553962D02*
X39914790Y18458724D01*
X39914790Y18458724D02*
X39962409Y18411105D01*
X39962409Y18411105D02*
X40057647Y18363486D01*
X40057647Y18363486D02*
X40295742Y18363486D01*
X40295742Y18363486D02*
X40390980Y18411105D01*
X40390980Y18411105D02*
X40438600Y18458724D01*
X40438600Y18458724D02*
X40486219Y18553962D01*
X40486219Y18553962D02*
X40486219Y18792057D01*
X40486219Y18792057D02*
X40438600Y18887295D01*
X40438600Y18887295D02*
X40390980Y18934914D01*
X40894257Y22987020D02*
X40941876Y22939400D01*
X40941876Y22939400D02*
X41084733Y22891781D01*
X41084733Y22891781D02*
X41179971Y22891781D01*
X41179971Y22891781D02*
X41322828Y22939400D01*
X41322828Y22939400D02*
X41418066Y23034639D01*
X41418066Y23034639D02*
X41465685Y23129877D01*
X41465685Y23129877D02*
X41513304Y23320353D01*
X41513304Y23320353D02*
X41513304Y23463210D01*
X41513304Y23463210D02*
X41465685Y23653686D01*
X41465685Y23653686D02*
X41418066Y23748924D01*
X41418066Y23748924D02*
X41322828Y23844162D01*
X41322828Y23844162D02*
X41179971Y23891781D01*
X41179971Y23891781D02*
X41084733Y23891781D01*
X41084733Y23891781D02*
X40941876Y23844162D01*
X40941876Y23844162D02*
X40894257Y23796543D01*
X39941876Y22891781D02*
X40513304Y22891781D01*
X40227590Y22891781D02*
X40227590Y23891781D01*
X40227590Y23891781D02*
X40322828Y23748924D01*
X40322828Y23748924D02*
X40418066Y23653686D01*
X40418066Y23653686D02*
X40513304Y23606067D01*
X39322828Y23891781D02*
X39227590Y23891781D01*
X39227590Y23891781D02*
X39132352Y23844162D01*
X39132352Y23844162D02*
X39084733Y23796543D01*
X39084733Y23796543D02*
X39037114Y23701305D01*
X39037114Y23701305D02*
X38989495Y23510829D01*
X38989495Y23510829D02*
X38989495Y23272734D01*
X38989495Y23272734D02*
X39037114Y23082258D01*
X39037114Y23082258D02*
X39084733Y22987020D01*
X39084733Y22987020D02*
X39132352Y22939400D01*
X39132352Y22939400D02*
X39227590Y22891781D01*
X39227590Y22891781D02*
X39322828Y22891781D01*
X39322828Y22891781D02*
X39418066Y22939400D01*
X39418066Y22939400D02*
X39465685Y22987020D01*
X39465685Y22987020D02*
X39513304Y23082258D01*
X39513304Y23082258D02*
X39560923Y23272734D01*
X39560923Y23272734D02*
X39560923Y23510829D01*
X39560923Y23510829D02*
X39513304Y23701305D01*
X39513304Y23701305D02*
X39465685Y23796543D01*
X39465685Y23796543D02*
X39418066Y23844162D01*
X39418066Y23844162D02*
X39322828Y23891781D01*
X47120980Y32875458D02*
X47168600Y32923077D01*
X47168600Y32923077D02*
X47216219Y33065934D01*
X47216219Y33065934D02*
X47216219Y33161172D01*
X47216219Y33161172D02*
X47168600Y33304029D01*
X47168600Y33304029D02*
X47073361Y33399267D01*
X47073361Y33399267D02*
X46978123Y33446886D01*
X46978123Y33446886D02*
X46787647Y33494505D01*
X46787647Y33494505D02*
X46644790Y33494505D01*
X46644790Y33494505D02*
X46454314Y33446886D01*
X46454314Y33446886D02*
X46359076Y33399267D01*
X46359076Y33399267D02*
X46263838Y33304029D01*
X46263838Y33304029D02*
X46216219Y33161172D01*
X46216219Y33161172D02*
X46216219Y33065934D01*
X46216219Y33065934D02*
X46263838Y32923077D01*
X46263838Y32923077D02*
X46311457Y32875458D01*
X47216219Y31923077D02*
X47216219Y32494505D01*
X47216219Y32208791D02*
X46216219Y32208791D01*
X46216219Y32208791D02*
X46359076Y32304029D01*
X46359076Y32304029D02*
X46454314Y32399267D01*
X46454314Y32399267D02*
X46501933Y32494505D01*
X47216219Y30970696D02*
X47216219Y31542124D01*
X47216219Y31256410D02*
X46216219Y31256410D01*
X46216219Y31256410D02*
X46359076Y31351648D01*
X46359076Y31351648D02*
X46454314Y31446886D01*
X46454314Y31446886D02*
X46501933Y31542124D01*
X29577179Y32414258D02*
X29624799Y32461877D01*
X29624799Y32461877D02*
X29672418Y32604734D01*
X29672418Y32604734D02*
X29672418Y32699972D01*
X29672418Y32699972D02*
X29624799Y32842829D01*
X29624799Y32842829D02*
X29529560Y32938067D01*
X29529560Y32938067D02*
X29434322Y32985686D01*
X29434322Y32985686D02*
X29243846Y33033305D01*
X29243846Y33033305D02*
X29100989Y33033305D01*
X29100989Y33033305D02*
X28910513Y32985686D01*
X28910513Y32985686D02*
X28815275Y32938067D01*
X28815275Y32938067D02*
X28720037Y32842829D01*
X28720037Y32842829D02*
X28672418Y32699972D01*
X28672418Y32699972D02*
X28672418Y32604734D01*
X28672418Y32604734D02*
X28720037Y32461877D01*
X28720037Y32461877D02*
X28767656Y32414258D01*
X29672418Y31461877D02*
X29672418Y32033305D01*
X29672418Y31747591D02*
X28672418Y31747591D01*
X28672418Y31747591D02*
X28815275Y31842829D01*
X28815275Y31842829D02*
X28910513Y31938067D01*
X28910513Y31938067D02*
X28958132Y32033305D01*
X28767656Y31080924D02*
X28720037Y31033305D01*
X28720037Y31033305D02*
X28672418Y30938067D01*
X28672418Y30938067D02*
X28672418Y30699972D01*
X28672418Y30699972D02*
X28720037Y30604734D01*
X28720037Y30604734D02*
X28767656Y30557115D01*
X28767656Y30557115D02*
X28862894Y30509496D01*
X28862894Y30509496D02*
X28958132Y30509496D01*
X28958132Y30509496D02*
X29100989Y30557115D01*
X29100989Y30557115D02*
X29672418Y31128543D01*
X29672418Y31128543D02*
X29672418Y30509496D01*
X45724580Y22410667D02*
X45772200Y22458286D01*
X45772200Y22458286D02*
X45819819Y22601143D01*
X45819819Y22601143D02*
X45819819Y22696381D01*
X45819819Y22696381D02*
X45772200Y22839238D01*
X45772200Y22839238D02*
X45676961Y22934476D01*
X45676961Y22934476D02*
X45581723Y22982095D01*
X45581723Y22982095D02*
X45391247Y23029714D01*
X45391247Y23029714D02*
X45248390Y23029714D01*
X45248390Y23029714D02*
X45057914Y22982095D01*
X45057914Y22982095D02*
X44962676Y22934476D01*
X44962676Y22934476D02*
X44867438Y22839238D01*
X44867438Y22839238D02*
X44819819Y22696381D01*
X44819819Y22696381D02*
X44819819Y22601143D01*
X44819819Y22601143D02*
X44867438Y22458286D01*
X44867438Y22458286D02*
X44915057Y22410667D01*
X44915057Y22029714D02*
X44867438Y21982095D01*
X44867438Y21982095D02*
X44819819Y21886857D01*
X44819819Y21886857D02*
X44819819Y21648762D01*
X44819819Y21648762D02*
X44867438Y21553524D01*
X44867438Y21553524D02*
X44915057Y21505905D01*
X44915057Y21505905D02*
X45010295Y21458286D01*
X45010295Y21458286D02*
X45105533Y21458286D01*
X45105533Y21458286D02*
X45248390Y21505905D01*
X45248390Y21505905D02*
X45819819Y22077333D01*
X45819819Y22077333D02*
X45819819Y21458286D01*
X26220657Y26419381D02*
X26553990Y26895572D01*
X26792085Y26419381D02*
X26792085Y27419381D01*
X26792085Y27419381D02*
X26411133Y27419381D01*
X26411133Y27419381D02*
X26315895Y27371762D01*
X26315895Y27371762D02*
X26268276Y27324143D01*
X26268276Y27324143D02*
X26220657Y27228905D01*
X26220657Y27228905D02*
X26220657Y27086048D01*
X26220657Y27086048D02*
X26268276Y26990810D01*
X26268276Y26990810D02*
X26315895Y26943191D01*
X26315895Y26943191D02*
X26411133Y26895572D01*
X26411133Y26895572D02*
X26792085Y26895572D01*
X25268276Y26419381D02*
X25839704Y26419381D01*
X25553990Y26419381D02*
X25553990Y27419381D01*
X25553990Y27419381D02*
X25649228Y27276524D01*
X25649228Y27276524D02*
X25744466Y27181286D01*
X25744466Y27181286D02*
X25839704Y27133667D01*
X24934942Y27419381D02*
X24315895Y27419381D01*
X24315895Y27419381D02*
X24649228Y27038429D01*
X24649228Y27038429D02*
X24506371Y27038429D01*
X24506371Y27038429D02*
X24411133Y26990810D01*
X24411133Y26990810D02*
X24363514Y26943191D01*
X24363514Y26943191D02*
X24315895Y26847953D01*
X24315895Y26847953D02*
X24315895Y26609858D01*
X24315895Y26609858D02*
X24363514Y26514620D01*
X24363514Y26514620D02*
X24411133Y26467000D01*
X24411133Y26467000D02*
X24506371Y26419381D01*
X24506371Y26419381D02*
X24792085Y26419381D01*
X24792085Y26419381D02*
X24887323Y26467000D01*
X24887323Y26467000D02*
X24934942Y26514620D01*
X9580428Y14755991D02*
X9913761Y14755991D01*
X9913761Y14232181D02*
X9913761Y15232181D01*
X9913761Y15232181D02*
X9437571Y15232181D01*
X9056618Y14232181D02*
X9056618Y15232181D01*
X8580428Y14232181D02*
X8580428Y15232181D01*
X8580428Y15232181D02*
X8342333Y15232181D01*
X8342333Y15232181D02*
X8199476Y15184562D01*
X8199476Y15184562D02*
X8104238Y15089324D01*
X8104238Y15089324D02*
X8056619Y14994086D01*
X8056619Y14994086D02*
X8009000Y14803610D01*
X8009000Y14803610D02*
X8009000Y14660753D01*
X8009000Y14660753D02*
X8056619Y14470277D01*
X8056619Y14470277D02*
X8104238Y14375039D01*
X8104238Y14375039D02*
X8199476Y14279800D01*
X8199476Y14279800D02*
X8342333Y14232181D01*
X8342333Y14232181D02*
X8580428Y14232181D01*
X7056619Y14232181D02*
X7628047Y14232181D01*
X7342333Y14232181D02*
X7342333Y15232181D01*
X7342333Y15232181D02*
X7437571Y15089324D01*
X7437571Y15089324D02*
X7532809Y14994086D01*
X7532809Y14994086D02*
X7628047Y14946467D01*
X57454704Y36515881D02*
X57454704Y35706358D01*
X57454704Y35706358D02*
X57407085Y35611120D01*
X57407085Y35611120D02*
X57359466Y35563500D01*
X57359466Y35563500D02*
X57264228Y35515881D01*
X57264228Y35515881D02*
X57073752Y35515881D01*
X57073752Y35515881D02*
X56978514Y35563500D01*
X56978514Y35563500D02*
X56930895Y35611120D01*
X56930895Y35611120D02*
X56883276Y35706358D01*
X56883276Y35706358D02*
X56883276Y36515881D01*
X55883276Y35515881D02*
X56454704Y35515881D01*
X56168990Y35515881D02*
X56168990Y36515881D01*
X56168990Y36515881D02*
X56264228Y36373024D01*
X56264228Y36373024D02*
X56359466Y36277786D01*
X56359466Y36277786D02*
X56454704Y36230167D01*
X59958266Y34714220D02*
X60005885Y34666600D01*
X60005885Y34666600D02*
X60148742Y34618981D01*
X60148742Y34618981D02*
X60243980Y34618981D01*
X60243980Y34618981D02*
X60386837Y34666600D01*
X60386837Y34666600D02*
X60482075Y34761839D01*
X60482075Y34761839D02*
X60529694Y34857077D01*
X60529694Y34857077D02*
X60577313Y35047553D01*
X60577313Y35047553D02*
X60577313Y35190410D01*
X60577313Y35190410D02*
X60529694Y35380886D01*
X60529694Y35380886D02*
X60482075Y35476124D01*
X60482075Y35476124D02*
X60386837Y35571362D01*
X60386837Y35571362D02*
X60243980Y35618981D01*
X60243980Y35618981D02*
X60148742Y35618981D01*
X60148742Y35618981D02*
X60005885Y35571362D01*
X60005885Y35571362D02*
X59958266Y35523743D01*
X59101123Y35618981D02*
X59291599Y35618981D01*
X59291599Y35618981D02*
X59386837Y35571362D01*
X59386837Y35571362D02*
X59434456Y35523743D01*
X59434456Y35523743D02*
X59529694Y35380886D01*
X59529694Y35380886D02*
X59577313Y35190410D01*
X59577313Y35190410D02*
X59577313Y34809458D01*
X59577313Y34809458D02*
X59529694Y34714220D01*
X59529694Y34714220D02*
X59482075Y34666600D01*
X59482075Y34666600D02*
X59386837Y34618981D01*
X59386837Y34618981D02*
X59196361Y34618981D01*
X59196361Y34618981D02*
X59101123Y34666600D01*
X59101123Y34666600D02*
X59053504Y34714220D01*
X59053504Y34714220D02*
X59005885Y34809458D01*
X59005885Y34809458D02*
X59005885Y35047553D01*
X59005885Y35047553D02*
X59053504Y35142791D01*
X59053504Y35142791D02*
X59101123Y35190410D01*
X59101123Y35190410D02*
X59196361Y35238029D01*
X59196361Y35238029D02*
X59386837Y35238029D01*
X59386837Y35238029D02*
X59482075Y35190410D01*
X59482075Y35190410D02*
X59529694Y35142791D01*
X59529694Y35142791D02*
X59577313Y35047553D01*
X51505533Y11542381D02*
X51505533Y10828096D01*
X51505533Y10828096D02*
X51553152Y10685239D01*
X51553152Y10685239D02*
X51648390Y10590000D01*
X51648390Y10590000D02*
X51791247Y10542381D01*
X51791247Y10542381D02*
X51886485Y10542381D01*
X50505533Y10542381D02*
X51076961Y10542381D01*
X50791247Y10542381D02*
X50791247Y11542381D01*
X50791247Y11542381D02*
X50886485Y11399524D01*
X50886485Y11399524D02*
X50981723Y11304286D01*
X50981723Y11304286D02*
X51076961Y11256667D01*
X10557657Y42386239D02*
X10510038Y42481477D01*
X10510038Y42481477D02*
X10414800Y42576715D01*
X10414800Y42576715D02*
X10271942Y42719572D01*
X10271942Y42719572D02*
X10224323Y42814810D01*
X10224323Y42814810D02*
X10224323Y42910048D01*
X10462419Y42862429D02*
X10414800Y42957667D01*
X10414800Y42957667D02*
X10319561Y43052905D01*
X10319561Y43052905D02*
X10129085Y43100524D01*
X10129085Y43100524D02*
X9795752Y43100524D01*
X9795752Y43100524D02*
X9605276Y43052905D01*
X9605276Y43052905D02*
X9510038Y42957667D01*
X9510038Y42957667D02*
X9462419Y42862429D01*
X9462419Y42862429D02*
X9462419Y42671953D01*
X9462419Y42671953D02*
X9510038Y42576715D01*
X9510038Y42576715D02*
X9605276Y42481477D01*
X9605276Y42481477D02*
X9795752Y42433858D01*
X9795752Y42433858D02*
X10129085Y42433858D01*
X10129085Y42433858D02*
X10319561Y42481477D01*
X10319561Y42481477D02*
X10414800Y42576715D01*
X10414800Y42576715D02*
X10462419Y42671953D01*
X10462419Y42671953D02*
X10462419Y42862429D01*
X9557657Y42052905D02*
X9510038Y42005286D01*
X9510038Y42005286D02*
X9462419Y41910048D01*
X9462419Y41910048D02*
X9462419Y41671953D01*
X9462419Y41671953D02*
X9510038Y41576715D01*
X9510038Y41576715D02*
X9557657Y41529096D01*
X9557657Y41529096D02*
X9652895Y41481477D01*
X9652895Y41481477D02*
X9748133Y41481477D01*
X9748133Y41481477D02*
X9890990Y41529096D01*
X9890990Y41529096D02*
X10462419Y42100524D01*
X10462419Y42100524D02*
X10462419Y41481477D01*
X69095857Y28821420D02*
X69143476Y28773800D01*
X69143476Y28773800D02*
X69286333Y28726181D01*
X69286333Y28726181D02*
X69381571Y28726181D01*
X69381571Y28726181D02*
X69524428Y28773800D01*
X69524428Y28773800D02*
X69619666Y28869039D01*
X69619666Y28869039D02*
X69667285Y28964277D01*
X69667285Y28964277D02*
X69714904Y29154753D01*
X69714904Y29154753D02*
X69714904Y29297610D01*
X69714904Y29297610D02*
X69667285Y29488086D01*
X69667285Y29488086D02*
X69619666Y29583324D01*
X69619666Y29583324D02*
X69524428Y29678562D01*
X69524428Y29678562D02*
X69381571Y29726181D01*
X69381571Y29726181D02*
X69286333Y29726181D01*
X69286333Y29726181D02*
X69143476Y29678562D01*
X69143476Y29678562D02*
X69095857Y29630943D01*
X68143476Y28726181D02*
X68714904Y28726181D01*
X68429190Y28726181D02*
X68429190Y29726181D01*
X68429190Y29726181D02*
X68524428Y29583324D01*
X68524428Y29583324D02*
X68619666Y29488086D01*
X68619666Y29488086D02*
X68714904Y29440467D01*
X67810142Y29726181D02*
X67191095Y29726181D01*
X67191095Y29726181D02*
X67524428Y29345229D01*
X67524428Y29345229D02*
X67381571Y29345229D01*
X67381571Y29345229D02*
X67286333Y29297610D01*
X67286333Y29297610D02*
X67238714Y29249991D01*
X67238714Y29249991D02*
X67191095Y29154753D01*
X67191095Y29154753D02*
X67191095Y28916658D01*
X67191095Y28916658D02*
X67238714Y28821420D01*
X67238714Y28821420D02*
X67286333Y28773800D01*
X67286333Y28773800D02*
X67381571Y28726181D01*
X67381571Y28726181D02*
X67667285Y28726181D01*
X67667285Y28726181D02*
X67762523Y28773800D01*
X67762523Y28773800D02*
X67810142Y28821420D01*
X56980057Y37237781D02*
X57313390Y37713972D01*
X57551485Y37237781D02*
X57551485Y38237781D01*
X57551485Y38237781D02*
X57170533Y38237781D01*
X57170533Y38237781D02*
X57075295Y38190162D01*
X57075295Y38190162D02*
X57027676Y38142543D01*
X57027676Y38142543D02*
X56980057Y38047305D01*
X56980057Y38047305D02*
X56980057Y37904448D01*
X56980057Y37904448D02*
X57027676Y37809210D01*
X57027676Y37809210D02*
X57075295Y37761591D01*
X57075295Y37761591D02*
X57170533Y37713972D01*
X57170533Y37713972D02*
X57551485Y37713972D01*
X56027676Y37237781D02*
X56599104Y37237781D01*
X56313390Y37237781D02*
X56313390Y38237781D01*
X56313390Y38237781D02*
X56408628Y38094924D01*
X56408628Y38094924D02*
X56503866Y37999686D01*
X56503866Y37999686D02*
X56599104Y37952067D01*
X55408628Y38237781D02*
X55313390Y38237781D01*
X55313390Y38237781D02*
X55218152Y38190162D01*
X55218152Y38190162D02*
X55170533Y38142543D01*
X55170533Y38142543D02*
X55122914Y38047305D01*
X55122914Y38047305D02*
X55075295Y37856829D01*
X55075295Y37856829D02*
X55075295Y37618734D01*
X55075295Y37618734D02*
X55122914Y37428258D01*
X55122914Y37428258D02*
X55170533Y37333020D01*
X55170533Y37333020D02*
X55218152Y37285400D01*
X55218152Y37285400D02*
X55313390Y37237781D01*
X55313390Y37237781D02*
X55408628Y37237781D01*
X55408628Y37237781D02*
X55503866Y37285400D01*
X55503866Y37285400D02*
X55551485Y37333020D01*
X55551485Y37333020D02*
X55599104Y37428258D01*
X55599104Y37428258D02*
X55646723Y37618734D01*
X55646723Y37618734D02*
X55646723Y37856829D01*
X55646723Y37856829D02*
X55599104Y38047305D01*
X55599104Y38047305D02*
X55551485Y38142543D01*
X55551485Y38142543D02*
X55503866Y38190162D01*
X55503866Y38190162D02*
X55408628Y38237781D01*
X29692980Y19927867D02*
X29740600Y19975486D01*
X29740600Y19975486D02*
X29788219Y20118343D01*
X29788219Y20118343D02*
X29788219Y20213581D01*
X29788219Y20213581D02*
X29740600Y20356438D01*
X29740600Y20356438D02*
X29645361Y20451676D01*
X29645361Y20451676D02*
X29550123Y20499295D01*
X29550123Y20499295D02*
X29359647Y20546914D01*
X29359647Y20546914D02*
X29216790Y20546914D01*
X29216790Y20546914D02*
X29026314Y20499295D01*
X29026314Y20499295D02*
X28931076Y20451676D01*
X28931076Y20451676D02*
X28835838Y20356438D01*
X28835838Y20356438D02*
X28788219Y20213581D01*
X28788219Y20213581D02*
X28788219Y20118343D01*
X28788219Y20118343D02*
X28835838Y19975486D01*
X28835838Y19975486D02*
X28883457Y19927867D01*
X28788219Y19594533D02*
X28788219Y18975486D01*
X28788219Y18975486D02*
X29169171Y19308819D01*
X29169171Y19308819D02*
X29169171Y19165962D01*
X29169171Y19165962D02*
X29216790Y19070724D01*
X29216790Y19070724D02*
X29264409Y19023105D01*
X29264409Y19023105D02*
X29359647Y18975486D01*
X29359647Y18975486D02*
X29597742Y18975486D01*
X29597742Y18975486D02*
X29692980Y19023105D01*
X29692980Y19023105D02*
X29740600Y19070724D01*
X29740600Y19070724D02*
X29788219Y19165962D01*
X29788219Y19165962D02*
X29788219Y19451676D01*
X29788219Y19451676D02*
X29740600Y19546914D01*
X29740600Y19546914D02*
X29692980Y19594533D01*
X20658057Y31142781D02*
X20991390Y31618972D01*
X21229485Y31142781D02*
X21229485Y32142781D01*
X21229485Y32142781D02*
X20848533Y32142781D01*
X20848533Y32142781D02*
X20753295Y32095162D01*
X20753295Y32095162D02*
X20705676Y32047543D01*
X20705676Y32047543D02*
X20658057Y31952305D01*
X20658057Y31952305D02*
X20658057Y31809448D01*
X20658057Y31809448D02*
X20705676Y31714210D01*
X20705676Y31714210D02*
X20753295Y31666591D01*
X20753295Y31666591D02*
X20848533Y31618972D01*
X20848533Y31618972D02*
X21229485Y31618972D01*
X19705676Y31142781D02*
X20277104Y31142781D01*
X19991390Y31142781D02*
X19991390Y32142781D01*
X19991390Y32142781D02*
X20086628Y31999924D01*
X20086628Y31999924D02*
X20181866Y31904686D01*
X20181866Y31904686D02*
X20277104Y31857067D01*
X18848533Y32142781D02*
X19039009Y32142781D01*
X19039009Y32142781D02*
X19134247Y32095162D01*
X19134247Y32095162D02*
X19181866Y32047543D01*
X19181866Y32047543D02*
X19277104Y31904686D01*
X19277104Y31904686D02*
X19324723Y31714210D01*
X19324723Y31714210D02*
X19324723Y31333258D01*
X19324723Y31333258D02*
X19277104Y31238020D01*
X19277104Y31238020D02*
X19229485Y31190400D01*
X19229485Y31190400D02*
X19134247Y31142781D01*
X19134247Y31142781D02*
X18943771Y31142781D01*
X18943771Y31142781D02*
X18848533Y31190400D01*
X18848533Y31190400D02*
X18800914Y31238020D01*
X18800914Y31238020D02*
X18753295Y31333258D01*
X18753295Y31333258D02*
X18753295Y31571353D01*
X18753295Y31571353D02*
X18800914Y31666591D01*
X18800914Y31666591D02*
X18848533Y31714210D01*
X18848533Y31714210D02*
X18943771Y31761829D01*
X18943771Y31761829D02*
X19134247Y31761829D01*
X19134247Y31761829D02*
X19229485Y31714210D01*
X19229485Y31714210D02*
X19277104Y31666591D01*
X19277104Y31666591D02*
X19324723Y31571353D01*
X65793857Y38050581D02*
X66127190Y38526772D01*
X66365285Y38050581D02*
X66365285Y39050581D01*
X66365285Y39050581D02*
X65984333Y39050581D01*
X65984333Y39050581D02*
X65889095Y39002962D01*
X65889095Y39002962D02*
X65841476Y38955343D01*
X65841476Y38955343D02*
X65793857Y38860105D01*
X65793857Y38860105D02*
X65793857Y38717248D01*
X65793857Y38717248D02*
X65841476Y38622010D01*
X65841476Y38622010D02*
X65889095Y38574391D01*
X65889095Y38574391D02*
X65984333Y38526772D01*
X65984333Y38526772D02*
X66365285Y38526772D01*
X65412904Y38955343D02*
X65365285Y39002962D01*
X65365285Y39002962D02*
X65270047Y39050581D01*
X65270047Y39050581D02*
X65031952Y39050581D01*
X65031952Y39050581D02*
X64936714Y39002962D01*
X64936714Y39002962D02*
X64889095Y38955343D01*
X64889095Y38955343D02*
X64841476Y38860105D01*
X64841476Y38860105D02*
X64841476Y38764867D01*
X64841476Y38764867D02*
X64889095Y38622010D01*
X64889095Y38622010D02*
X65460523Y38050581D01*
X65460523Y38050581D02*
X64841476Y38050581D01*
X64460523Y38955343D02*
X64412904Y39002962D01*
X64412904Y39002962D02*
X64317666Y39050581D01*
X64317666Y39050581D02*
X64079571Y39050581D01*
X64079571Y39050581D02*
X63984333Y39002962D01*
X63984333Y39002962D02*
X63936714Y38955343D01*
X63936714Y38955343D02*
X63889095Y38860105D01*
X63889095Y38860105D02*
X63889095Y38764867D01*
X63889095Y38764867D02*
X63936714Y38622010D01*
X63936714Y38622010D02*
X64508142Y38050581D01*
X64508142Y38050581D02*
X63889095Y38050581D01*
X51576266Y21109781D02*
X52052456Y21109781D01*
X52052456Y21109781D02*
X52052456Y22109781D01*
X50719123Y21109781D02*
X51290551Y21109781D01*
X51004837Y21109781D02*
X51004837Y22109781D01*
X51004837Y22109781D02*
X51100075Y21966924D01*
X51100075Y21966924D02*
X51195313Y21871686D01*
X51195313Y21871686D02*
X51290551Y21824067D01*
X56402266Y39293420D02*
X56449885Y39245800D01*
X56449885Y39245800D02*
X56592742Y39198181D01*
X56592742Y39198181D02*
X56687980Y39198181D01*
X56687980Y39198181D02*
X56830837Y39245800D01*
X56830837Y39245800D02*
X56926075Y39341039D01*
X56926075Y39341039D02*
X56973694Y39436277D01*
X56973694Y39436277D02*
X57021313Y39626753D01*
X57021313Y39626753D02*
X57021313Y39769610D01*
X57021313Y39769610D02*
X56973694Y39960086D01*
X56973694Y39960086D02*
X56926075Y40055324D01*
X56926075Y40055324D02*
X56830837Y40150562D01*
X56830837Y40150562D02*
X56687980Y40198181D01*
X56687980Y40198181D02*
X56592742Y40198181D01*
X56592742Y40198181D02*
X56449885Y40150562D01*
X56449885Y40150562D02*
X56402266Y40102943D01*
X56068932Y40198181D02*
X55402266Y40198181D01*
X55402266Y40198181D02*
X55830837Y39198181D01*
X29101933Y11692381D02*
X29101933Y10978096D01*
X29101933Y10978096D02*
X29149552Y10835239D01*
X29149552Y10835239D02*
X29244790Y10740000D01*
X29244790Y10740000D02*
X29387647Y10692381D01*
X29387647Y10692381D02*
X29482885Y10692381D01*
X28673361Y11597143D02*
X28625742Y11644762D01*
X28625742Y11644762D02*
X28530504Y11692381D01*
X28530504Y11692381D02*
X28292409Y11692381D01*
X28292409Y11692381D02*
X28197171Y11644762D01*
X28197171Y11644762D02*
X28149552Y11597143D01*
X28149552Y11597143D02*
X28101933Y11501905D01*
X28101933Y11501905D02*
X28101933Y11406667D01*
X28101933Y11406667D02*
X28149552Y11263810D01*
X28149552Y11263810D02*
X28720980Y10692381D01*
X28720980Y10692381D02*
X28101933Y10692381D01*
D11*
X9214523Y34181996D02*
X9214523Y35481996D01*
X9214523Y35481996D02*
X8904999Y35481996D01*
X8904999Y35481996D02*
X8719285Y35420091D01*
X8719285Y35420091D02*
X8595475Y35296281D01*
X8595475Y35296281D02*
X8533570Y35172472D01*
X8533570Y35172472D02*
X8471666Y34924853D01*
X8471666Y34924853D02*
X8471666Y34739139D01*
X8471666Y34739139D02*
X8533570Y34491520D01*
X8533570Y34491520D02*
X8595475Y34367710D01*
X8595475Y34367710D02*
X8719285Y34243900D01*
X8719285Y34243900D02*
X8904999Y34181996D01*
X8904999Y34181996D02*
X9214523Y34181996D01*
X8038332Y35481996D02*
X7233570Y35481996D01*
X7233570Y35481996D02*
X7666904Y34986758D01*
X7666904Y34986758D02*
X7481189Y34986758D01*
X7481189Y34986758D02*
X7357380Y34924853D01*
X7357380Y34924853D02*
X7295475Y34862948D01*
X7295475Y34862948D02*
X7233570Y34739139D01*
X7233570Y34739139D02*
X7233570Y34429615D01*
X7233570Y34429615D02*
X7295475Y34305805D01*
X7295475Y34305805D02*
X7357380Y34243900D01*
X7357380Y34243900D02*
X7481189Y34181996D01*
X7481189Y34181996D02*
X7852618Y34181996D01*
X7852618Y34181996D02*
X7976427Y34243900D01*
X7976427Y34243900D02*
X8038332Y34305805D01*
D10*
X20080266Y35968781D02*
X20413599Y36444972D01*
X20651694Y35968781D02*
X20651694Y36968781D01*
X20651694Y36968781D02*
X20270742Y36968781D01*
X20270742Y36968781D02*
X20175504Y36921162D01*
X20175504Y36921162D02*
X20127885Y36873543D01*
X20127885Y36873543D02*
X20080266Y36778305D01*
X20080266Y36778305D02*
X20080266Y36635448D01*
X20080266Y36635448D02*
X20127885Y36540210D01*
X20127885Y36540210D02*
X20175504Y36492591D01*
X20175504Y36492591D02*
X20270742Y36444972D01*
X20270742Y36444972D02*
X20651694Y36444972D01*
X19746932Y36968781D02*
X19080266Y36968781D01*
X19080266Y36968781D02*
X19508837Y35968781D01*
X5449866Y39042181D02*
X5783199Y39518372D01*
X6021294Y39042181D02*
X6021294Y40042181D01*
X6021294Y40042181D02*
X5640342Y40042181D01*
X5640342Y40042181D02*
X5545104Y39994562D01*
X5545104Y39994562D02*
X5497485Y39946943D01*
X5497485Y39946943D02*
X5449866Y39851705D01*
X5449866Y39851705D02*
X5449866Y39708848D01*
X5449866Y39708848D02*
X5497485Y39613610D01*
X5497485Y39613610D02*
X5545104Y39565991D01*
X5545104Y39565991D02*
X5640342Y39518372D01*
X5640342Y39518372D02*
X6021294Y39518372D01*
X4592723Y40042181D02*
X4783199Y40042181D01*
X4783199Y40042181D02*
X4878437Y39994562D01*
X4878437Y39994562D02*
X4926056Y39946943D01*
X4926056Y39946943D02*
X5021294Y39804086D01*
X5021294Y39804086D02*
X5068913Y39613610D01*
X5068913Y39613610D02*
X5068913Y39232658D01*
X5068913Y39232658D02*
X5021294Y39137420D01*
X5021294Y39137420D02*
X4973675Y39089800D01*
X4973675Y39089800D02*
X4878437Y39042181D01*
X4878437Y39042181D02*
X4687961Y39042181D01*
X4687961Y39042181D02*
X4592723Y39089800D01*
X4592723Y39089800D02*
X4545104Y39137420D01*
X4545104Y39137420D02*
X4497485Y39232658D01*
X4497485Y39232658D02*
X4497485Y39470753D01*
X4497485Y39470753D02*
X4545104Y39565991D01*
X4545104Y39565991D02*
X4592723Y39613610D01*
X4592723Y39613610D02*
X4687961Y39661229D01*
X4687961Y39661229D02*
X4878437Y39661229D01*
X4878437Y39661229D02*
X4973675Y39613610D01*
X4973675Y39613610D02*
X5021294Y39565991D01*
X5021294Y39565991D02*
X5068913Y39470753D01*
X29774763Y25792226D02*
X30347182Y25893241D01*
X30178824Y25388165D02*
X30885930Y26095272D01*
X30885930Y26095272D02*
X30616556Y26364646D01*
X30616556Y26364646D02*
X30515541Y26398318D01*
X30515541Y26398318D02*
X30448198Y26398318D01*
X30448198Y26398318D02*
X30347182Y26364646D01*
X30347182Y26364646D02*
X30246167Y26263631D01*
X30246167Y26263631D02*
X30212495Y26162615D01*
X30212495Y26162615D02*
X30212495Y26095272D01*
X30212495Y26095272D02*
X30246167Y25994257D01*
X30246167Y25994257D02*
X30515541Y25724883D01*
X30145152Y26701363D02*
X30145152Y26768707D01*
X30145152Y26768707D02*
X30111480Y26869722D01*
X30111480Y26869722D02*
X29943121Y27038081D01*
X29943121Y27038081D02*
X29842106Y27071753D01*
X29842106Y27071753D02*
X29774763Y27071753D01*
X29774763Y27071753D02*
X29673747Y27038081D01*
X29673747Y27038081D02*
X29606404Y26970737D01*
X29606404Y26970737D02*
X29539060Y26836050D01*
X29539060Y26836050D02*
X29539060Y26027928D01*
X29539060Y26027928D02*
X29101328Y26465661D01*
X28427892Y27139096D02*
X28831953Y26735035D01*
X28629923Y26937066D02*
X29337030Y27644173D01*
X29337030Y27644173D02*
X29303358Y27475814D01*
X29303358Y27475814D02*
X29303358Y27341127D01*
X29303358Y27341127D02*
X29337030Y27240112D01*
X59709333Y12958381D02*
X59709333Y12244096D01*
X59709333Y12244096D02*
X59756952Y12101239D01*
X59756952Y12101239D02*
X59852190Y12006000D01*
X59852190Y12006000D02*
X59995047Y11958381D01*
X59995047Y11958381D02*
X60090285Y11958381D01*
X58804571Y12958381D02*
X58995047Y12958381D01*
X58995047Y12958381D02*
X59090285Y12910762D01*
X59090285Y12910762D02*
X59137904Y12863143D01*
X59137904Y12863143D02*
X59233142Y12720286D01*
X59233142Y12720286D02*
X59280761Y12529810D01*
X59280761Y12529810D02*
X59280761Y12148858D01*
X59280761Y12148858D02*
X59233142Y12053620D01*
X59233142Y12053620D02*
X59185523Y12006000D01*
X59185523Y12006000D02*
X59090285Y11958381D01*
X59090285Y11958381D02*
X58899809Y11958381D01*
X58899809Y11958381D02*
X58804571Y12006000D01*
X58804571Y12006000D02*
X58756952Y12053620D01*
X58756952Y12053620D02*
X58709333Y12148858D01*
X58709333Y12148858D02*
X58709333Y12386953D01*
X58709333Y12386953D02*
X58756952Y12482191D01*
X58756952Y12482191D02*
X58804571Y12529810D01*
X58804571Y12529810D02*
X58899809Y12577429D01*
X58899809Y12577429D02*
X59090285Y12577429D01*
X59090285Y12577429D02*
X59185523Y12529810D01*
X59185523Y12529810D02*
X59233142Y12482191D01*
X59233142Y12482191D02*
X59280761Y12386953D01*
X35415733Y12958381D02*
X35415733Y12244096D01*
X35415733Y12244096D02*
X35463352Y12101239D01*
X35463352Y12101239D02*
X35558590Y12006000D01*
X35558590Y12006000D02*
X35701447Y11958381D01*
X35701447Y11958381D02*
X35796685Y11958381D01*
X34510971Y12625048D02*
X34510971Y11958381D01*
X34749066Y13006000D02*
X34987161Y12291715D01*
X34987161Y12291715D02*
X34368114Y12291715D01*
X52448619Y14835095D02*
X51448619Y14835095D01*
X51448619Y14835095D02*
X51448619Y14597000D01*
X51448619Y14597000D02*
X51496238Y14454143D01*
X51496238Y14454143D02*
X51591476Y14358905D01*
X51591476Y14358905D02*
X51686714Y14311286D01*
X51686714Y14311286D02*
X51877190Y14263667D01*
X51877190Y14263667D02*
X52020047Y14263667D01*
X52020047Y14263667D02*
X52210523Y14311286D01*
X52210523Y14311286D02*
X52305761Y14358905D01*
X52305761Y14358905D02*
X52401000Y14454143D01*
X52401000Y14454143D02*
X52448619Y14597000D01*
X52448619Y14597000D02*
X52448619Y14835095D01*
X52448619Y13311286D02*
X52448619Y13882714D01*
X52448619Y13597000D02*
X51448619Y13597000D01*
X51448619Y13597000D02*
X51591476Y13692238D01*
X51591476Y13692238D02*
X51686714Y13787476D01*
X51686714Y13787476D02*
X51734333Y13882714D01*
D12*
X48691667Y44344400D02*
X48577381Y44306305D01*
X48577381Y44306305D02*
X48386905Y44306305D01*
X48386905Y44306305D02*
X48310714Y44344400D01*
X48310714Y44344400D02*
X48272619Y44382496D01*
X48272619Y44382496D02*
X48234524Y44458686D01*
X48234524Y44458686D02*
X48234524Y44534877D01*
X48234524Y44534877D02*
X48272619Y44611067D01*
X48272619Y44611067D02*
X48310714Y44649162D01*
X48310714Y44649162D02*
X48386905Y44687258D01*
X48386905Y44687258D02*
X48539286Y44725353D01*
X48539286Y44725353D02*
X48615476Y44763448D01*
X48615476Y44763448D02*
X48653571Y44801543D01*
X48653571Y44801543D02*
X48691667Y44877734D01*
X48691667Y44877734D02*
X48691667Y44953924D01*
X48691667Y44953924D02*
X48653571Y45030115D01*
X48653571Y45030115D02*
X48615476Y45068210D01*
X48615476Y45068210D02*
X48539286Y45106305D01*
X48539286Y45106305D02*
X48348809Y45106305D01*
X48348809Y45106305D02*
X48234524Y45068210D01*
X47967857Y45106305D02*
X47777381Y44306305D01*
X47777381Y44306305D02*
X47625000Y44877734D01*
X47625000Y44877734D02*
X47472619Y44306305D01*
X47472619Y44306305D02*
X47282143Y45106305D01*
X47015476Y45030115D02*
X46977380Y45068210D01*
X46977380Y45068210D02*
X46901190Y45106305D01*
X46901190Y45106305D02*
X46710714Y45106305D01*
X46710714Y45106305D02*
X46634523Y45068210D01*
X46634523Y45068210D02*
X46596428Y45030115D01*
X46596428Y45030115D02*
X46558333Y44953924D01*
X46558333Y44953924D02*
X46558333Y44877734D01*
X46558333Y44877734D02*
X46596428Y44763448D01*
X46596428Y44763448D02*
X47053571Y44306305D01*
X47053571Y44306305D02*
X46558333Y44306305D01*
D11*
X9163723Y38648596D02*
X9163723Y39948596D01*
X9163723Y39948596D02*
X8854199Y39948596D01*
X8854199Y39948596D02*
X8668485Y39886691D01*
X8668485Y39886691D02*
X8544675Y39762881D01*
X8544675Y39762881D02*
X8482770Y39639072D01*
X8482770Y39639072D02*
X8420866Y39391453D01*
X8420866Y39391453D02*
X8420866Y39205739D01*
X8420866Y39205739D02*
X8482770Y38958120D01*
X8482770Y38958120D02*
X8544675Y38834310D01*
X8544675Y38834310D02*
X8668485Y38710500D01*
X8668485Y38710500D02*
X8854199Y38648596D01*
X8854199Y38648596D02*
X9163723Y38648596D01*
X7306580Y39515262D02*
X7306580Y38648596D01*
X7616104Y40010500D02*
X7925627Y39081929D01*
X7925627Y39081929D02*
X7120866Y39081929D01*
D10*
X61311619Y13833658D02*
X60835428Y14166991D01*
X61311619Y14405086D02*
X60311619Y14405086D01*
X60311619Y14405086D02*
X60311619Y14024134D01*
X60311619Y14024134D02*
X60359238Y13928896D01*
X60359238Y13928896D02*
X60406857Y13881277D01*
X60406857Y13881277D02*
X60502095Y13833658D01*
X60502095Y13833658D02*
X60644952Y13833658D01*
X60644952Y13833658D02*
X60740190Y13881277D01*
X60740190Y13881277D02*
X60787809Y13928896D01*
X60787809Y13928896D02*
X60835428Y14024134D01*
X60835428Y14024134D02*
X60835428Y14405086D01*
X60406857Y13452705D02*
X60359238Y13405086D01*
X60359238Y13405086D02*
X60311619Y13309848D01*
X60311619Y13309848D02*
X60311619Y13071753D01*
X60311619Y13071753D02*
X60359238Y12976515D01*
X60359238Y12976515D02*
X60406857Y12928896D01*
X60406857Y12928896D02*
X60502095Y12881277D01*
X60502095Y12881277D02*
X60597333Y12881277D01*
X60597333Y12881277D02*
X60740190Y12928896D01*
X60740190Y12928896D02*
X61311619Y13500324D01*
X61311619Y13500324D02*
X61311619Y12881277D01*
X60740190Y12309848D02*
X60692571Y12405086D01*
X60692571Y12405086D02*
X60644952Y12452705D01*
X60644952Y12452705D02*
X60549714Y12500324D01*
X60549714Y12500324D02*
X60502095Y12500324D01*
X60502095Y12500324D02*
X60406857Y12452705D01*
X60406857Y12452705D02*
X60359238Y12405086D01*
X60359238Y12405086D02*
X60311619Y12309848D01*
X60311619Y12309848D02*
X60311619Y12119372D01*
X60311619Y12119372D02*
X60359238Y12024134D01*
X60359238Y12024134D02*
X60406857Y11976515D01*
X60406857Y11976515D02*
X60502095Y11928896D01*
X60502095Y11928896D02*
X60549714Y11928896D01*
X60549714Y11928896D02*
X60644952Y11976515D01*
X60644952Y11976515D02*
X60692571Y12024134D01*
X60692571Y12024134D02*
X60740190Y12119372D01*
X60740190Y12119372D02*
X60740190Y12309848D01*
X60740190Y12309848D02*
X60787809Y12405086D01*
X60787809Y12405086D02*
X60835428Y12452705D01*
X60835428Y12452705D02*
X60930666Y12500324D01*
X60930666Y12500324D02*
X61121142Y12500324D01*
X61121142Y12500324D02*
X61216380Y12452705D01*
X61216380Y12452705D02*
X61264000Y12405086D01*
X61264000Y12405086D02*
X61311619Y12309848D01*
X61311619Y12309848D02*
X61311619Y12119372D01*
X61311619Y12119372D02*
X61264000Y12024134D01*
X61264000Y12024134D02*
X61216380Y11976515D01*
X61216380Y11976515D02*
X61121142Y11928896D01*
X61121142Y11928896D02*
X60930666Y11928896D01*
X60930666Y11928896D02*
X60835428Y11976515D01*
X60835428Y11976515D02*
X60787809Y12024134D01*
X60787809Y12024134D02*
X60740190Y12119372D01*
D12*
X44348267Y44242800D02*
X44233981Y44204705D01*
X44233981Y44204705D02*
X44043505Y44204705D01*
X44043505Y44204705D02*
X43967314Y44242800D01*
X43967314Y44242800D02*
X43929219Y44280896D01*
X43929219Y44280896D02*
X43891124Y44357086D01*
X43891124Y44357086D02*
X43891124Y44433277D01*
X43891124Y44433277D02*
X43929219Y44509467D01*
X43929219Y44509467D02*
X43967314Y44547562D01*
X43967314Y44547562D02*
X44043505Y44585658D01*
X44043505Y44585658D02*
X44195886Y44623753D01*
X44195886Y44623753D02*
X44272076Y44661848D01*
X44272076Y44661848D02*
X44310171Y44699943D01*
X44310171Y44699943D02*
X44348267Y44776134D01*
X44348267Y44776134D02*
X44348267Y44852324D01*
X44348267Y44852324D02*
X44310171Y44928515D01*
X44310171Y44928515D02*
X44272076Y44966610D01*
X44272076Y44966610D02*
X44195886Y45004705D01*
X44195886Y45004705D02*
X44005409Y45004705D01*
X44005409Y45004705D02*
X43891124Y44966610D01*
X43624457Y45004705D02*
X43433981Y44204705D01*
X43433981Y44204705D02*
X43281600Y44776134D01*
X43281600Y44776134D02*
X43129219Y44204705D01*
X43129219Y44204705D02*
X42938743Y45004705D01*
X42214933Y44204705D02*
X42672076Y44204705D01*
X42443504Y44204705D02*
X42443504Y45004705D01*
X42443504Y45004705D02*
X42519695Y44890420D01*
X42519695Y44890420D02*
X42595885Y44814229D01*
X42595885Y44814229D02*
X42672076Y44776134D01*
D10*
X27133163Y21728226D02*
X27705582Y21829241D01*
X27537224Y21324165D02*
X28244330Y22031272D01*
X28244330Y22031272D02*
X27974956Y22300646D01*
X27974956Y22300646D02*
X27873941Y22334318D01*
X27873941Y22334318D02*
X27806598Y22334318D01*
X27806598Y22334318D02*
X27705582Y22300646D01*
X27705582Y22300646D02*
X27604567Y22199631D01*
X27604567Y22199631D02*
X27570895Y22098615D01*
X27570895Y22098615D02*
X27570895Y22031272D01*
X27570895Y22031272D02*
X27604567Y21930257D01*
X27604567Y21930257D02*
X27873941Y21660883D01*
X27503552Y22637363D02*
X27503552Y22704707D01*
X27503552Y22704707D02*
X27469880Y22805722D01*
X27469880Y22805722D02*
X27301521Y22974081D01*
X27301521Y22974081D02*
X27200506Y23007753D01*
X27200506Y23007753D02*
X27133163Y23007753D01*
X27133163Y23007753D02*
X27032147Y22974081D01*
X27032147Y22974081D02*
X26964804Y22906737D01*
X26964804Y22906737D02*
X26897460Y22772050D01*
X26897460Y22772050D02*
X26897460Y21963928D01*
X26897460Y21963928D02*
X26459728Y22401661D01*
X26729101Y23546501D02*
X26661758Y23613844D01*
X26661758Y23613844D02*
X26560743Y23647516D01*
X26560743Y23647516D02*
X26493399Y23647516D01*
X26493399Y23647516D02*
X26392384Y23613844D01*
X26392384Y23613844D02*
X26224025Y23512829D01*
X26224025Y23512829D02*
X26055666Y23344470D01*
X26055666Y23344470D02*
X25954651Y23176112D01*
X25954651Y23176112D02*
X25920979Y23075096D01*
X25920979Y23075096D02*
X25920979Y23007753D01*
X25920979Y23007753D02*
X25954651Y22906738D01*
X25954651Y22906738D02*
X26021995Y22839394D01*
X26021995Y22839394D02*
X26123010Y22805722D01*
X26123010Y22805722D02*
X26190353Y22805722D01*
X26190353Y22805722D02*
X26291369Y22839394D01*
X26291369Y22839394D02*
X26459727Y22940409D01*
X26459727Y22940409D02*
X26628086Y23108768D01*
X26628086Y23108768D02*
X26729101Y23277127D01*
X26729101Y23277127D02*
X26762773Y23378142D01*
X26762773Y23378142D02*
X26762773Y23445486D01*
X26762773Y23445486D02*
X26729101Y23546501D01*
X46555819Y17184667D02*
X46079628Y17518000D01*
X46555819Y17756095D02*
X45555819Y17756095D01*
X45555819Y17756095D02*
X45555819Y17375143D01*
X45555819Y17375143D02*
X45603438Y17279905D01*
X45603438Y17279905D02*
X45651057Y17232286D01*
X45651057Y17232286D02*
X45746295Y17184667D01*
X45746295Y17184667D02*
X45889152Y17184667D01*
X45889152Y17184667D02*
X45984390Y17232286D01*
X45984390Y17232286D02*
X46032009Y17279905D01*
X46032009Y17279905D02*
X46079628Y17375143D01*
X46079628Y17375143D02*
X46079628Y17756095D01*
X45889152Y16327524D02*
X46555819Y16327524D01*
X45508200Y16565619D02*
X46222485Y16803714D01*
X46222485Y16803714D02*
X46222485Y16184667D01*
X24401863Y16146326D02*
X24974282Y16247341D01*
X24805924Y15742265D02*
X25513030Y16449372D01*
X25513030Y16449372D02*
X25243656Y16718746D01*
X25243656Y16718746D02*
X25142641Y16752418D01*
X25142641Y16752418D02*
X25075298Y16752418D01*
X25075298Y16752418D02*
X24974282Y16718746D01*
X24974282Y16718746D02*
X24873267Y16617731D01*
X24873267Y16617731D02*
X24839595Y16516715D01*
X24839595Y16516715D02*
X24839595Y16449372D01*
X24839595Y16449372D02*
X24873267Y16348357D01*
X24873267Y16348357D02*
X25142641Y16078983D01*
X23728428Y16819761D02*
X24132489Y16415700D01*
X23930458Y16617731D02*
X24637565Y17324837D01*
X24637565Y17324837D02*
X24603893Y17156479D01*
X24603893Y17156479D02*
X24603893Y17021792D01*
X24603893Y17021792D02*
X24637565Y16920776D01*
X23728427Y17627883D02*
X23829443Y17594212D01*
X23829443Y17594212D02*
X23896786Y17594212D01*
X23896786Y17594212D02*
X23997801Y17627883D01*
X23997801Y17627883D02*
X24031473Y17661555D01*
X24031473Y17661555D02*
X24065145Y17762570D01*
X24065145Y17762570D02*
X24065145Y17829914D01*
X24065145Y17829914D02*
X24031473Y17930929D01*
X24031473Y17930929D02*
X23896786Y18065616D01*
X23896786Y18065616D02*
X23795771Y18099288D01*
X23795771Y18099288D02*
X23728427Y18099288D01*
X23728427Y18099288D02*
X23627412Y18065616D01*
X23627412Y18065616D02*
X23593740Y18031944D01*
X23593740Y18031944D02*
X23560069Y17930929D01*
X23560069Y17930929D02*
X23560069Y17863586D01*
X23560069Y17863586D02*
X23593740Y17762570D01*
X23593740Y17762570D02*
X23728427Y17627883D01*
X23728427Y17627883D02*
X23762099Y17526868D01*
X23762099Y17526868D02*
X23762099Y17459525D01*
X23762099Y17459525D02*
X23728427Y17358509D01*
X23728427Y17358509D02*
X23593740Y17223822D01*
X23593740Y17223822D02*
X23492725Y17190151D01*
X23492725Y17190151D02*
X23425382Y17190151D01*
X23425382Y17190151D02*
X23324366Y17223822D01*
X23324366Y17223822D02*
X23189679Y17358509D01*
X23189679Y17358509D02*
X23156008Y17459525D01*
X23156008Y17459525D02*
X23156008Y17526868D01*
X23156008Y17526868D02*
X23189679Y17627883D01*
X23189679Y17627883D02*
X23324366Y17762570D01*
X23324366Y17762570D02*
X23425382Y17796242D01*
X23425382Y17796242D02*
X23492725Y17796242D01*
X23492725Y17796242D02*
X23593740Y17762570D01*
X6307057Y34673381D02*
X6640390Y35149572D01*
X6878485Y34673381D02*
X6878485Y35673381D01*
X6878485Y35673381D02*
X6497533Y35673381D01*
X6497533Y35673381D02*
X6402295Y35625762D01*
X6402295Y35625762D02*
X6354676Y35578143D01*
X6354676Y35578143D02*
X6307057Y35482905D01*
X6307057Y35482905D02*
X6307057Y35340048D01*
X6307057Y35340048D02*
X6354676Y35244810D01*
X6354676Y35244810D02*
X6402295Y35197191D01*
X6402295Y35197191D02*
X6497533Y35149572D01*
X6497533Y35149572D02*
X6878485Y35149572D01*
X5354676Y34673381D02*
X5926104Y34673381D01*
X5640390Y34673381D02*
X5640390Y35673381D01*
X5640390Y35673381D02*
X5735628Y35530524D01*
X5735628Y35530524D02*
X5830866Y35435286D01*
X5830866Y35435286D02*
X5926104Y35387667D01*
X4449914Y35673381D02*
X4926104Y35673381D01*
X4926104Y35673381D02*
X4973723Y35197191D01*
X4973723Y35197191D02*
X4926104Y35244810D01*
X4926104Y35244810D02*
X4830866Y35292429D01*
X4830866Y35292429D02*
X4592771Y35292429D01*
X4592771Y35292429D02*
X4497533Y35244810D01*
X4497533Y35244810D02*
X4449914Y35197191D01*
X4449914Y35197191D02*
X4402295Y35101953D01*
X4402295Y35101953D02*
X4402295Y34863858D01*
X4402295Y34863858D02*
X4449914Y34768620D01*
X4449914Y34768620D02*
X4497533Y34721000D01*
X4497533Y34721000D02*
X4592771Y34673381D01*
X4592771Y34673381D02*
X4830866Y34673381D01*
X4830866Y34673381D02*
X4926104Y34721000D01*
X4926104Y34721000D02*
X4973723Y34768620D01*
X28893419Y42486105D02*
X28893419Y41914677D01*
X29893419Y42200391D02*
X28893419Y42200391D01*
X29893419Y41581343D02*
X28893419Y41581343D01*
X28893419Y41581343D02*
X28893419Y41200391D01*
X28893419Y41200391D02*
X28941038Y41105153D01*
X28941038Y41105153D02*
X28988657Y41057534D01*
X28988657Y41057534D02*
X29083895Y41009915D01*
X29083895Y41009915D02*
X29226752Y41009915D01*
X29226752Y41009915D02*
X29321990Y41057534D01*
X29321990Y41057534D02*
X29369609Y41105153D01*
X29369609Y41105153D02*
X29417228Y41200391D01*
X29417228Y41200391D02*
X29417228Y41581343D01*
X28988657Y40628962D02*
X28941038Y40581343D01*
X28941038Y40581343D02*
X28893419Y40486105D01*
X28893419Y40486105D02*
X28893419Y40248010D01*
X28893419Y40248010D02*
X28941038Y40152772D01*
X28941038Y40152772D02*
X28988657Y40105153D01*
X28988657Y40105153D02*
X29083895Y40057534D01*
X29083895Y40057534D02*
X29179133Y40057534D01*
X29179133Y40057534D02*
X29321990Y40105153D01*
X29321990Y40105153D02*
X29893419Y40676581D01*
X29893419Y40676581D02*
X29893419Y40057534D01*
X22763563Y16171726D02*
X23335982Y16272741D01*
X23167624Y15767665D02*
X23874730Y16474772D01*
X23874730Y16474772D02*
X23605356Y16744146D01*
X23605356Y16744146D02*
X23504341Y16777818D01*
X23504341Y16777818D02*
X23436998Y16777818D01*
X23436998Y16777818D02*
X23335982Y16744146D01*
X23335982Y16744146D02*
X23234967Y16643131D01*
X23234967Y16643131D02*
X23201295Y16542115D01*
X23201295Y16542115D02*
X23201295Y16474772D01*
X23201295Y16474772D02*
X23234967Y16373757D01*
X23234967Y16373757D02*
X23504341Y16104383D01*
X22090128Y16845161D02*
X22494189Y16441100D01*
X22292158Y16643131D02*
X22999265Y17350237D01*
X22999265Y17350237D02*
X22965593Y17181879D01*
X22965593Y17181879D02*
X22965593Y17047192D01*
X22965593Y17047192D02*
X22999265Y16946176D01*
X21753410Y17181879D02*
X21618723Y17316566D01*
X21618723Y17316566D02*
X21585051Y17417581D01*
X21585051Y17417581D02*
X21585051Y17484925D01*
X21585051Y17484925D02*
X21618723Y17653283D01*
X21618723Y17653283D02*
X21719738Y17821642D01*
X21719738Y17821642D02*
X21989112Y18091016D01*
X21989112Y18091016D02*
X22090127Y18124688D01*
X22090127Y18124688D02*
X22157471Y18124688D01*
X22157471Y18124688D02*
X22258486Y18091016D01*
X22258486Y18091016D02*
X22393173Y17956329D01*
X22393173Y17956329D02*
X22426845Y17855314D01*
X22426845Y17855314D02*
X22426845Y17787970D01*
X22426845Y17787970D02*
X22393173Y17686955D01*
X22393173Y17686955D02*
X22224814Y17518596D01*
X22224814Y17518596D02*
X22123799Y17484925D01*
X22123799Y17484925D02*
X22056456Y17484925D01*
X22056456Y17484925D02*
X21955440Y17518596D01*
X21955440Y17518596D02*
X21820753Y17653283D01*
X21820753Y17653283D02*
X21787082Y17754299D01*
X21787082Y17754299D02*
X21787082Y17821642D01*
X21787082Y17821642D02*
X21820753Y17922657D01*
X27445619Y39946105D02*
X27445619Y39374677D01*
X28445619Y39660391D02*
X27445619Y39660391D01*
X28445619Y39041343D02*
X27445619Y39041343D01*
X27445619Y39041343D02*
X27445619Y38660391D01*
X27445619Y38660391D02*
X27493238Y38565153D01*
X27493238Y38565153D02*
X27540857Y38517534D01*
X27540857Y38517534D02*
X27636095Y38469915D01*
X27636095Y38469915D02*
X27778952Y38469915D01*
X27778952Y38469915D02*
X27874190Y38517534D01*
X27874190Y38517534D02*
X27921809Y38565153D01*
X27921809Y38565153D02*
X27969428Y38660391D01*
X27969428Y38660391D02*
X27969428Y39041343D01*
X28445619Y37517534D02*
X28445619Y38088962D01*
X28445619Y37803248D02*
X27445619Y37803248D01*
X27445619Y37803248D02*
X27588476Y37898486D01*
X27588476Y37898486D02*
X27683714Y37993724D01*
X27683714Y37993724D02*
X27731333Y38088962D01*
X62914419Y34755058D02*
X62438228Y35088391D01*
X62914419Y35326486D02*
X61914419Y35326486D01*
X61914419Y35326486D02*
X61914419Y34945534D01*
X61914419Y34945534D02*
X61962038Y34850296D01*
X61962038Y34850296D02*
X62009657Y34802677D01*
X62009657Y34802677D02*
X62104895Y34755058D01*
X62104895Y34755058D02*
X62247752Y34755058D01*
X62247752Y34755058D02*
X62342990Y34802677D01*
X62342990Y34802677D02*
X62390609Y34850296D01*
X62390609Y34850296D02*
X62438228Y34945534D01*
X62438228Y34945534D02*
X62438228Y35326486D01*
X62009657Y34374105D02*
X61962038Y34326486D01*
X61962038Y34326486D02*
X61914419Y34231248D01*
X61914419Y34231248D02*
X61914419Y33993153D01*
X61914419Y33993153D02*
X61962038Y33897915D01*
X61962038Y33897915D02*
X62009657Y33850296D01*
X62009657Y33850296D02*
X62104895Y33802677D01*
X62104895Y33802677D02*
X62200133Y33802677D01*
X62200133Y33802677D02*
X62342990Y33850296D01*
X62342990Y33850296D02*
X62914419Y34421724D01*
X62914419Y34421724D02*
X62914419Y33802677D01*
X61914419Y33469343D02*
X61914419Y32850296D01*
X61914419Y32850296D02*
X62295371Y33183629D01*
X62295371Y33183629D02*
X62295371Y33040772D01*
X62295371Y33040772D02*
X62342990Y32945534D01*
X62342990Y32945534D02*
X62390609Y32897915D01*
X62390609Y32897915D02*
X62485847Y32850296D01*
X62485847Y32850296D02*
X62723942Y32850296D01*
X62723942Y32850296D02*
X62819180Y32897915D01*
X62819180Y32897915D02*
X62866800Y32945534D01*
X62866800Y32945534D02*
X62914419Y33040772D01*
X62914419Y33040772D02*
X62914419Y33326486D01*
X62914419Y33326486D02*
X62866800Y33421724D01*
X62866800Y33421724D02*
X62819180Y33469343D01*
X34590990Y22237172D02*
X34590990Y21760981D01*
X34924323Y22760981D02*
X34590990Y22237172D01*
X34590990Y22237172D02*
X34257657Y22760981D01*
X33400514Y21760981D02*
X33971942Y21760981D01*
X33686228Y21760981D02*
X33686228Y22760981D01*
X33686228Y22760981D02*
X33781466Y22618124D01*
X33781466Y22618124D02*
X33876704Y22522886D01*
X33876704Y22522886D02*
X33971942Y22475267D01*
X42838019Y17825934D02*
X43552304Y17825934D01*
X43552304Y17825934D02*
X43695161Y17873553D01*
X43695161Y17873553D02*
X43790400Y17968791D01*
X43790400Y17968791D02*
X43838019Y18111648D01*
X43838019Y18111648D02*
X43838019Y18206886D01*
X43838019Y17349743D02*
X42838019Y17349743D01*
X42838019Y17349743D02*
X42838019Y16968791D01*
X42838019Y16968791D02*
X42885638Y16873553D01*
X42885638Y16873553D02*
X42933257Y16825934D01*
X42933257Y16825934D02*
X43028495Y16778315D01*
X43028495Y16778315D02*
X43171352Y16778315D01*
X43171352Y16778315D02*
X43266590Y16825934D01*
X43266590Y16825934D02*
X43314209Y16873553D01*
X43314209Y16873553D02*
X43361828Y16968791D01*
X43361828Y16968791D02*
X43361828Y17349743D01*
X43838019Y15825934D02*
X43838019Y16397362D01*
X43838019Y16111648D02*
X42838019Y16111648D01*
X42838019Y16111648D02*
X42980876Y16206886D01*
X42980876Y16206886D02*
X43076114Y16302124D01*
X43076114Y16302124D02*
X43123733Y16397362D01*
X67140057Y40284020D02*
X67187676Y40236400D01*
X67187676Y40236400D02*
X67330533Y40188781D01*
X67330533Y40188781D02*
X67425771Y40188781D01*
X67425771Y40188781D02*
X67568628Y40236400D01*
X67568628Y40236400D02*
X67663866Y40331639D01*
X67663866Y40331639D02*
X67711485Y40426877D01*
X67711485Y40426877D02*
X67759104Y40617353D01*
X67759104Y40617353D02*
X67759104Y40760210D01*
X67759104Y40760210D02*
X67711485Y40950686D01*
X67711485Y40950686D02*
X67663866Y41045924D01*
X67663866Y41045924D02*
X67568628Y41141162D01*
X67568628Y41141162D02*
X67425771Y41188781D01*
X67425771Y41188781D02*
X67330533Y41188781D01*
X67330533Y41188781D02*
X67187676Y41141162D01*
X67187676Y41141162D02*
X67140057Y41093543D01*
X66187676Y40188781D02*
X66759104Y40188781D01*
X66473390Y40188781D02*
X66473390Y41188781D01*
X66473390Y41188781D02*
X66568628Y41045924D01*
X66568628Y41045924D02*
X66663866Y40950686D01*
X66663866Y40950686D02*
X66759104Y40903067D01*
X65282914Y41188781D02*
X65759104Y41188781D01*
X65759104Y41188781D02*
X65806723Y40712591D01*
X65806723Y40712591D02*
X65759104Y40760210D01*
X65759104Y40760210D02*
X65663866Y40807829D01*
X65663866Y40807829D02*
X65425771Y40807829D01*
X65425771Y40807829D02*
X65330533Y40760210D01*
X65330533Y40760210D02*
X65282914Y40712591D01*
X65282914Y40712591D02*
X65235295Y40617353D01*
X65235295Y40617353D02*
X65235295Y40379258D01*
X65235295Y40379258D02*
X65282914Y40284020D01*
X65282914Y40284020D02*
X65330533Y40236400D01*
X65330533Y40236400D02*
X65425771Y40188781D01*
X65425771Y40188781D02*
X65663866Y40188781D01*
X65663866Y40188781D02*
X65759104Y40236400D01*
X65759104Y40236400D02*
X65806723Y40284020D01*
X54759666Y17719420D02*
X54807285Y17671800D01*
X54807285Y17671800D02*
X54950142Y17624181D01*
X54950142Y17624181D02*
X55045380Y17624181D01*
X55045380Y17624181D02*
X55188237Y17671800D01*
X55188237Y17671800D02*
X55283475Y17767039D01*
X55283475Y17767039D02*
X55331094Y17862277D01*
X55331094Y17862277D02*
X55378713Y18052753D01*
X55378713Y18052753D02*
X55378713Y18195610D01*
X55378713Y18195610D02*
X55331094Y18386086D01*
X55331094Y18386086D02*
X55283475Y18481324D01*
X55283475Y18481324D02*
X55188237Y18576562D01*
X55188237Y18576562D02*
X55045380Y18624181D01*
X55045380Y18624181D02*
X54950142Y18624181D01*
X54950142Y18624181D02*
X54807285Y18576562D01*
X54807285Y18576562D02*
X54759666Y18528943D01*
X53807285Y17624181D02*
X54378713Y17624181D01*
X54092999Y17624181D02*
X54092999Y18624181D01*
X54092999Y18624181D02*
X54188237Y18481324D01*
X54188237Y18481324D02*
X54283475Y18386086D01*
X54283475Y18386086D02*
X54378713Y18338467D01*
X10659257Y32073839D02*
X10611638Y32169077D01*
X10611638Y32169077D02*
X10516400Y32264315D01*
X10516400Y32264315D02*
X10373542Y32407172D01*
X10373542Y32407172D02*
X10325923Y32502410D01*
X10325923Y32502410D02*
X10325923Y32597648D01*
X10564019Y32550029D02*
X10516400Y32645267D01*
X10516400Y32645267D02*
X10421161Y32740505D01*
X10421161Y32740505D02*
X10230685Y32788124D01*
X10230685Y32788124D02*
X9897352Y32788124D01*
X9897352Y32788124D02*
X9706876Y32740505D01*
X9706876Y32740505D02*
X9611638Y32645267D01*
X9611638Y32645267D02*
X9564019Y32550029D01*
X9564019Y32550029D02*
X9564019Y32359553D01*
X9564019Y32359553D02*
X9611638Y32264315D01*
X9611638Y32264315D02*
X9706876Y32169077D01*
X9706876Y32169077D02*
X9897352Y32121458D01*
X9897352Y32121458D02*
X10230685Y32121458D01*
X10230685Y32121458D02*
X10421161Y32169077D01*
X10421161Y32169077D02*
X10516400Y32264315D01*
X10516400Y32264315D02*
X10564019Y32359553D01*
X10564019Y32359553D02*
X10564019Y32550029D01*
X9564019Y31788124D02*
X9564019Y31169077D01*
X9564019Y31169077D02*
X9944971Y31502410D01*
X9944971Y31502410D02*
X9944971Y31359553D01*
X9944971Y31359553D02*
X9992590Y31264315D01*
X9992590Y31264315D02*
X10040209Y31216696D01*
X10040209Y31216696D02*
X10135447Y31169077D01*
X10135447Y31169077D02*
X10373542Y31169077D01*
X10373542Y31169077D02*
X10468780Y31216696D01*
X10468780Y31216696D02*
X10516400Y31264315D01*
X10516400Y31264315D02*
X10564019Y31359553D01*
X10564019Y31359553D02*
X10564019Y31645267D01*
X10564019Y31645267D02*
X10516400Y31740505D01*
X10516400Y31740505D02*
X10468780Y31788124D01*
D11*
X60421604Y51962724D02*
X59121604Y51962724D01*
X59121604Y51962724D02*
X59121604Y51653200D01*
X59121604Y51653200D02*
X59183509Y51467486D01*
X59183509Y51467486D02*
X59307319Y51343676D01*
X59307319Y51343676D02*
X59431128Y51281771D01*
X59431128Y51281771D02*
X59678747Y51219867D01*
X59678747Y51219867D02*
X59864461Y51219867D01*
X59864461Y51219867D02*
X60112080Y51281771D01*
X60112080Y51281771D02*
X60235890Y51343676D01*
X60235890Y51343676D02*
X60359700Y51467486D01*
X60359700Y51467486D02*
X60421604Y51653200D01*
X60421604Y51653200D02*
X60421604Y51962724D01*
X59121604Y50043676D02*
X59121604Y50662724D01*
X59121604Y50662724D02*
X59740652Y50724628D01*
X59740652Y50724628D02*
X59678747Y50662724D01*
X59678747Y50662724D02*
X59616842Y50538914D01*
X59616842Y50538914D02*
X59616842Y50229390D01*
X59616842Y50229390D02*
X59678747Y50105581D01*
X59678747Y50105581D02*
X59740652Y50043676D01*
X59740652Y50043676D02*
X59864461Y49981771D01*
X59864461Y49981771D02*
X60173985Y49981771D01*
X60173985Y49981771D02*
X60297795Y50043676D01*
X60297795Y50043676D02*
X60359700Y50105581D01*
X60359700Y50105581D02*
X60421604Y50229390D01*
X60421604Y50229390D02*
X60421604Y50538914D01*
X60421604Y50538914D02*
X60359700Y50662724D01*
X60359700Y50662724D02*
X60297795Y50724628D01*
D10*
X47801125Y37420708D02*
X48134458Y37896899D01*
X48372553Y37420708D02*
X48372553Y38420708D01*
X48372553Y38420708D02*
X47991601Y38420708D01*
X47991601Y38420708D02*
X47896363Y38373089D01*
X47896363Y38373089D02*
X47848744Y38325470D01*
X47848744Y38325470D02*
X47801125Y38230232D01*
X47801125Y38230232D02*
X47801125Y38087375D01*
X47801125Y38087375D02*
X47848744Y37992137D01*
X47848744Y37992137D02*
X47896363Y37944518D01*
X47896363Y37944518D02*
X47991601Y37896899D01*
X47991601Y37896899D02*
X48372553Y37896899D01*
X47467791Y38420708D02*
X46848744Y38420708D01*
X46848744Y38420708D02*
X47182077Y38039756D01*
X47182077Y38039756D02*
X47039220Y38039756D01*
X47039220Y38039756D02*
X46943982Y37992137D01*
X46943982Y37992137D02*
X46896363Y37944518D01*
X46896363Y37944518D02*
X46848744Y37849280D01*
X46848744Y37849280D02*
X46848744Y37611185D01*
X46848744Y37611185D02*
X46896363Y37515947D01*
X46896363Y37515947D02*
X46943982Y37468327D01*
X46943982Y37468327D02*
X47039220Y37420708D01*
X47039220Y37420708D02*
X47324934Y37420708D01*
X47324934Y37420708D02*
X47420172Y37468327D01*
X47420172Y37468327D02*
X47467791Y37515947D01*
X64435819Y13833658D02*
X63959628Y14166991D01*
X64435819Y14405086D02*
X63435819Y14405086D01*
X63435819Y14405086D02*
X63435819Y14024134D01*
X63435819Y14024134D02*
X63483438Y13928896D01*
X63483438Y13928896D02*
X63531057Y13881277D01*
X63531057Y13881277D02*
X63626295Y13833658D01*
X63626295Y13833658D02*
X63769152Y13833658D01*
X63769152Y13833658D02*
X63864390Y13881277D01*
X63864390Y13881277D02*
X63912009Y13928896D01*
X63912009Y13928896D02*
X63959628Y14024134D01*
X63959628Y14024134D02*
X63959628Y14405086D01*
X63531057Y13452705D02*
X63483438Y13405086D01*
X63483438Y13405086D02*
X63435819Y13309848D01*
X63435819Y13309848D02*
X63435819Y13071753D01*
X63435819Y13071753D02*
X63483438Y12976515D01*
X63483438Y12976515D02*
X63531057Y12928896D01*
X63531057Y12928896D02*
X63626295Y12881277D01*
X63626295Y12881277D02*
X63721533Y12881277D01*
X63721533Y12881277D02*
X63864390Y12928896D01*
X63864390Y12928896D02*
X64435819Y13500324D01*
X64435819Y13500324D02*
X64435819Y12881277D01*
X63435819Y11976515D02*
X63435819Y12452705D01*
X63435819Y12452705D02*
X63912009Y12500324D01*
X63912009Y12500324D02*
X63864390Y12452705D01*
X63864390Y12452705D02*
X63816771Y12357467D01*
X63816771Y12357467D02*
X63816771Y12119372D01*
X63816771Y12119372D02*
X63864390Y12024134D01*
X63864390Y12024134D02*
X63912009Y11976515D01*
X63912009Y11976515D02*
X64007247Y11928896D01*
X64007247Y11928896D02*
X64245342Y11928896D01*
X64245342Y11928896D02*
X64340580Y11976515D01*
X64340580Y11976515D02*
X64388200Y12024134D01*
X64388200Y12024134D02*
X64435819Y12119372D01*
X64435819Y12119372D02*
X64435819Y12357467D01*
X64435819Y12357467D02*
X64388200Y12452705D01*
X64388200Y12452705D02*
X64340580Y12500324D01*
X71770619Y34024867D02*
X71770619Y34501057D01*
X71770619Y34501057D02*
X70770619Y34501057D01*
X70770619Y33786771D02*
X70770619Y33167724D01*
X70770619Y33167724D02*
X71151571Y33501057D01*
X71151571Y33501057D02*
X71151571Y33358200D01*
X71151571Y33358200D02*
X71199190Y33262962D01*
X71199190Y33262962D02*
X71246809Y33215343D01*
X71246809Y33215343D02*
X71342047Y33167724D01*
X71342047Y33167724D02*
X71580142Y33167724D01*
X71580142Y33167724D02*
X71675380Y33215343D01*
X71675380Y33215343D02*
X71723000Y33262962D01*
X71723000Y33262962D02*
X71770619Y33358200D01*
X71770619Y33358200D02*
X71770619Y33643914D01*
X71770619Y33643914D02*
X71723000Y33739152D01*
X71723000Y33739152D02*
X71675380Y33786771D01*
X62873719Y13833658D02*
X62397528Y14166991D01*
X62873719Y14405086D02*
X61873719Y14405086D01*
X61873719Y14405086D02*
X61873719Y14024134D01*
X61873719Y14024134D02*
X61921338Y13928896D01*
X61921338Y13928896D02*
X61968957Y13881277D01*
X61968957Y13881277D02*
X62064195Y13833658D01*
X62064195Y13833658D02*
X62207052Y13833658D01*
X62207052Y13833658D02*
X62302290Y13881277D01*
X62302290Y13881277D02*
X62349909Y13928896D01*
X62349909Y13928896D02*
X62397528Y14024134D01*
X62397528Y14024134D02*
X62397528Y14405086D01*
X61968957Y13452705D02*
X61921338Y13405086D01*
X61921338Y13405086D02*
X61873719Y13309848D01*
X61873719Y13309848D02*
X61873719Y13071753D01*
X61873719Y13071753D02*
X61921338Y12976515D01*
X61921338Y12976515D02*
X61968957Y12928896D01*
X61968957Y12928896D02*
X62064195Y12881277D01*
X62064195Y12881277D02*
X62159433Y12881277D01*
X62159433Y12881277D02*
X62302290Y12928896D01*
X62302290Y12928896D02*
X62873719Y13500324D01*
X62873719Y13500324D02*
X62873719Y12881277D01*
X61873719Y12547943D02*
X61873719Y11881277D01*
X61873719Y11881277D02*
X62873719Y12309848D01*
X58187419Y13833658D02*
X57711228Y14166991D01*
X58187419Y14405086D02*
X57187419Y14405086D01*
X57187419Y14405086D02*
X57187419Y14024134D01*
X57187419Y14024134D02*
X57235038Y13928896D01*
X57235038Y13928896D02*
X57282657Y13881277D01*
X57282657Y13881277D02*
X57377895Y13833658D01*
X57377895Y13833658D02*
X57520752Y13833658D01*
X57520752Y13833658D02*
X57615990Y13881277D01*
X57615990Y13881277D02*
X57663609Y13928896D01*
X57663609Y13928896D02*
X57711228Y14024134D01*
X57711228Y14024134D02*
X57711228Y14405086D01*
X57187419Y13500324D02*
X57187419Y12881277D01*
X57187419Y12881277D02*
X57568371Y13214610D01*
X57568371Y13214610D02*
X57568371Y13071753D01*
X57568371Y13071753D02*
X57615990Y12976515D01*
X57615990Y12976515D02*
X57663609Y12928896D01*
X57663609Y12928896D02*
X57758847Y12881277D01*
X57758847Y12881277D02*
X57996942Y12881277D01*
X57996942Y12881277D02*
X58092180Y12928896D01*
X58092180Y12928896D02*
X58139800Y12976515D01*
X58139800Y12976515D02*
X58187419Y13071753D01*
X58187419Y13071753D02*
X58187419Y13357467D01*
X58187419Y13357467D02*
X58139800Y13452705D01*
X58139800Y13452705D02*
X58092180Y13500324D01*
X57187419Y12262229D02*
X57187419Y12166991D01*
X57187419Y12166991D02*
X57235038Y12071753D01*
X57235038Y12071753D02*
X57282657Y12024134D01*
X57282657Y12024134D02*
X57377895Y11976515D01*
X57377895Y11976515D02*
X57568371Y11928896D01*
X57568371Y11928896D02*
X57806466Y11928896D01*
X57806466Y11928896D02*
X57996942Y11976515D01*
X57996942Y11976515D02*
X58092180Y12024134D01*
X58092180Y12024134D02*
X58139800Y12071753D01*
X58139800Y12071753D02*
X58187419Y12166991D01*
X58187419Y12166991D02*
X58187419Y12262229D01*
X58187419Y12262229D02*
X58139800Y12357467D01*
X58139800Y12357467D02*
X58092180Y12405086D01*
X58092180Y12405086D02*
X57996942Y12452705D01*
X57996942Y12452705D02*
X57806466Y12500324D01*
X57806466Y12500324D02*
X57568371Y12500324D01*
X57568371Y12500324D02*
X57377895Y12452705D01*
X57377895Y12452705D02*
X57282657Y12405086D01*
X57282657Y12405086D02*
X57235038Y12357467D01*
X57235038Y12357467D02*
X57187419Y12262229D01*
X39479180Y20004067D02*
X39526800Y20051686D01*
X39526800Y20051686D02*
X39574419Y20194543D01*
X39574419Y20194543D02*
X39574419Y20289781D01*
X39574419Y20289781D02*
X39526800Y20432638D01*
X39526800Y20432638D02*
X39431561Y20527876D01*
X39431561Y20527876D02*
X39336323Y20575495D01*
X39336323Y20575495D02*
X39145847Y20623114D01*
X39145847Y20623114D02*
X39002990Y20623114D01*
X39002990Y20623114D02*
X38812514Y20575495D01*
X38812514Y20575495D02*
X38717276Y20527876D01*
X38717276Y20527876D02*
X38622038Y20432638D01*
X38622038Y20432638D02*
X38574419Y20289781D01*
X38574419Y20289781D02*
X38574419Y20194543D01*
X38574419Y20194543D02*
X38622038Y20051686D01*
X38622038Y20051686D02*
X38669657Y20004067D01*
X38907752Y19146924D02*
X39574419Y19146924D01*
X38526800Y19385019D02*
X39241085Y19623114D01*
X39241085Y19623114D02*
X39241085Y19004067D01*
X61890019Y33872467D02*
X61890019Y34348657D01*
X61890019Y34348657D02*
X60890019Y34348657D01*
X60985257Y33586752D02*
X60937638Y33539133D01*
X60937638Y33539133D02*
X60890019Y33443895D01*
X60890019Y33443895D02*
X60890019Y33205800D01*
X60890019Y33205800D02*
X60937638Y33110562D01*
X60937638Y33110562D02*
X60985257Y33062943D01*
X60985257Y33062943D02*
X61080495Y33015324D01*
X61080495Y33015324D02*
X61175733Y33015324D01*
X61175733Y33015324D02*
X61318590Y33062943D01*
X61318590Y33062943D02*
X61890019Y33634371D01*
X61890019Y33634371D02*
X61890019Y33015324D01*
X43448266Y40590581D02*
X43781599Y41066772D01*
X44019694Y40590581D02*
X44019694Y41590581D01*
X44019694Y41590581D02*
X43638742Y41590581D01*
X43638742Y41590581D02*
X43543504Y41542962D01*
X43543504Y41542962D02*
X43495885Y41495343D01*
X43495885Y41495343D02*
X43448266Y41400105D01*
X43448266Y41400105D02*
X43448266Y41257248D01*
X43448266Y41257248D02*
X43495885Y41162010D01*
X43495885Y41162010D02*
X43543504Y41114391D01*
X43543504Y41114391D02*
X43638742Y41066772D01*
X43638742Y41066772D02*
X44019694Y41066772D01*
X43067313Y41495343D02*
X43019694Y41542962D01*
X43019694Y41542962D02*
X42924456Y41590581D01*
X42924456Y41590581D02*
X42686361Y41590581D01*
X42686361Y41590581D02*
X42591123Y41542962D01*
X42591123Y41542962D02*
X42543504Y41495343D01*
X42543504Y41495343D02*
X42495885Y41400105D01*
X42495885Y41400105D02*
X42495885Y41304867D01*
X42495885Y41304867D02*
X42543504Y41162010D01*
X42543504Y41162010D02*
X43114932Y40590581D01*
X43114932Y40590581D02*
X42495885Y40590581D01*
X6135666Y44249181D02*
X6468999Y44725372D01*
X6707094Y44249181D02*
X6707094Y45249181D01*
X6707094Y45249181D02*
X6326142Y45249181D01*
X6326142Y45249181D02*
X6230904Y45201562D01*
X6230904Y45201562D02*
X6183285Y45153943D01*
X6183285Y45153943D02*
X6135666Y45058705D01*
X6135666Y45058705D02*
X6135666Y44915848D01*
X6135666Y44915848D02*
X6183285Y44820610D01*
X6183285Y44820610D02*
X6230904Y44772991D01*
X6230904Y44772991D02*
X6326142Y44725372D01*
X6326142Y44725372D02*
X6707094Y44725372D01*
X5564237Y44820610D02*
X5659475Y44868229D01*
X5659475Y44868229D02*
X5707094Y44915848D01*
X5707094Y44915848D02*
X5754713Y45011086D01*
X5754713Y45011086D02*
X5754713Y45058705D01*
X5754713Y45058705D02*
X5707094Y45153943D01*
X5707094Y45153943D02*
X5659475Y45201562D01*
X5659475Y45201562D02*
X5564237Y45249181D01*
X5564237Y45249181D02*
X5373761Y45249181D01*
X5373761Y45249181D02*
X5278523Y45201562D01*
X5278523Y45201562D02*
X5230904Y45153943D01*
X5230904Y45153943D02*
X5183285Y45058705D01*
X5183285Y45058705D02*
X5183285Y45011086D01*
X5183285Y45011086D02*
X5230904Y44915848D01*
X5230904Y44915848D02*
X5278523Y44868229D01*
X5278523Y44868229D02*
X5373761Y44820610D01*
X5373761Y44820610D02*
X5564237Y44820610D01*
X5564237Y44820610D02*
X5659475Y44772991D01*
X5659475Y44772991D02*
X5707094Y44725372D01*
X5707094Y44725372D02*
X5754713Y44630134D01*
X5754713Y44630134D02*
X5754713Y44439658D01*
X5754713Y44439658D02*
X5707094Y44344420D01*
X5707094Y44344420D02*
X5659475Y44296800D01*
X5659475Y44296800D02*
X5564237Y44249181D01*
X5564237Y44249181D02*
X5373761Y44249181D01*
X5373761Y44249181D02*
X5278523Y44296800D01*
X5278523Y44296800D02*
X5230904Y44344420D01*
X5230904Y44344420D02*
X5183285Y44439658D01*
X5183285Y44439658D02*
X5183285Y44630134D01*
X5183285Y44630134D02*
X5230904Y44725372D01*
X5230904Y44725372D02*
X5278523Y44772991D01*
X5278523Y44772991D02*
X5373761Y44820610D01*
X54408294Y15724981D02*
X54408294Y16724981D01*
X54408294Y16724981D02*
X54170199Y16724981D01*
X54170199Y16724981D02*
X54027342Y16677362D01*
X54027342Y16677362D02*
X53932104Y16582124D01*
X53932104Y16582124D02*
X53884485Y16486886D01*
X53884485Y16486886D02*
X53836866Y16296410D01*
X53836866Y16296410D02*
X53836866Y16153553D01*
X53836866Y16153553D02*
X53884485Y15963077D01*
X53884485Y15963077D02*
X53932104Y15867839D01*
X53932104Y15867839D02*
X54027342Y15772600D01*
X54027342Y15772600D02*
X54170199Y15724981D01*
X54170199Y15724981D02*
X54408294Y15724981D01*
X53455913Y16629743D02*
X53408294Y16677362D01*
X53408294Y16677362D02*
X53313056Y16724981D01*
X53313056Y16724981D02*
X53074961Y16724981D01*
X53074961Y16724981D02*
X52979723Y16677362D01*
X52979723Y16677362D02*
X52932104Y16629743D01*
X52932104Y16629743D02*
X52884485Y16534505D01*
X52884485Y16534505D02*
X52884485Y16439267D01*
X52884485Y16439267D02*
X52932104Y16296410D01*
X52932104Y16296410D02*
X53503532Y15724981D01*
X53503532Y15724981D02*
X52884485Y15724981D01*
X10557657Y37230039D02*
X10510038Y37325277D01*
X10510038Y37325277D02*
X10414800Y37420515D01*
X10414800Y37420515D02*
X10271942Y37563372D01*
X10271942Y37563372D02*
X10224323Y37658610D01*
X10224323Y37658610D02*
X10224323Y37753848D01*
X10462419Y37706229D02*
X10414800Y37801467D01*
X10414800Y37801467D02*
X10319561Y37896705D01*
X10319561Y37896705D02*
X10129085Y37944324D01*
X10129085Y37944324D02*
X9795752Y37944324D01*
X9795752Y37944324D02*
X9605276Y37896705D01*
X9605276Y37896705D02*
X9510038Y37801467D01*
X9510038Y37801467D02*
X9462419Y37706229D01*
X9462419Y37706229D02*
X9462419Y37515753D01*
X9462419Y37515753D02*
X9510038Y37420515D01*
X9510038Y37420515D02*
X9605276Y37325277D01*
X9605276Y37325277D02*
X9795752Y37277658D01*
X9795752Y37277658D02*
X10129085Y37277658D01*
X10129085Y37277658D02*
X10319561Y37325277D01*
X10319561Y37325277D02*
X10414800Y37420515D01*
X10414800Y37420515D02*
X10462419Y37515753D01*
X10462419Y37515753D02*
X10462419Y37706229D01*
X10462419Y36325277D02*
X10462419Y36896705D01*
X10462419Y36610991D02*
X9462419Y36610991D01*
X9462419Y36610991D02*
X9605276Y36706229D01*
X9605276Y36706229D02*
X9700514Y36801467D01*
X9700514Y36801467D02*
X9748133Y36896705D01*
X30284657Y44605781D02*
X30617990Y45081972D01*
X30856085Y44605781D02*
X30856085Y45605781D01*
X30856085Y45605781D02*
X30475133Y45605781D01*
X30475133Y45605781D02*
X30379895Y45558162D01*
X30379895Y45558162D02*
X30332276Y45510543D01*
X30332276Y45510543D02*
X30284657Y45415305D01*
X30284657Y45415305D02*
X30284657Y45272448D01*
X30284657Y45272448D02*
X30332276Y45177210D01*
X30332276Y45177210D02*
X30379895Y45129591D01*
X30379895Y45129591D02*
X30475133Y45081972D01*
X30475133Y45081972D02*
X30856085Y45081972D01*
X29903704Y45510543D02*
X29856085Y45558162D01*
X29856085Y45558162D02*
X29760847Y45605781D01*
X29760847Y45605781D02*
X29522752Y45605781D01*
X29522752Y45605781D02*
X29427514Y45558162D01*
X29427514Y45558162D02*
X29379895Y45510543D01*
X29379895Y45510543D02*
X29332276Y45415305D01*
X29332276Y45415305D02*
X29332276Y45320067D01*
X29332276Y45320067D02*
X29379895Y45177210D01*
X29379895Y45177210D02*
X29951323Y44605781D01*
X29951323Y44605781D02*
X29332276Y44605781D01*
X28475133Y45605781D02*
X28665609Y45605781D01*
X28665609Y45605781D02*
X28760847Y45558162D01*
X28760847Y45558162D02*
X28808466Y45510543D01*
X28808466Y45510543D02*
X28903704Y45367686D01*
X28903704Y45367686D02*
X28951323Y45177210D01*
X28951323Y45177210D02*
X28951323Y44796258D01*
X28951323Y44796258D02*
X28903704Y44701020D01*
X28903704Y44701020D02*
X28856085Y44653400D01*
X28856085Y44653400D02*
X28760847Y44605781D01*
X28760847Y44605781D02*
X28570371Y44605781D01*
X28570371Y44605781D02*
X28475133Y44653400D01*
X28475133Y44653400D02*
X28427514Y44701020D01*
X28427514Y44701020D02*
X28379895Y44796258D01*
X28379895Y44796258D02*
X28379895Y45034353D01*
X28379895Y45034353D02*
X28427514Y45129591D01*
X28427514Y45129591D02*
X28475133Y45177210D01*
X28475133Y45177210D02*
X28570371Y45224829D01*
X28570371Y45224829D02*
X28760847Y45224829D01*
X28760847Y45224829D02*
X28856085Y45177210D01*
X28856085Y45177210D02*
X28903704Y45129591D01*
X28903704Y45129591D02*
X28951323Y45034353D01*
X69324457Y34815820D02*
X69372076Y34768200D01*
X69372076Y34768200D02*
X69514933Y34720581D01*
X69514933Y34720581D02*
X69610171Y34720581D01*
X69610171Y34720581D02*
X69753028Y34768200D01*
X69753028Y34768200D02*
X69848266Y34863439D01*
X69848266Y34863439D02*
X69895885Y34958677D01*
X69895885Y34958677D02*
X69943504Y35149153D01*
X69943504Y35149153D02*
X69943504Y35292010D01*
X69943504Y35292010D02*
X69895885Y35482486D01*
X69895885Y35482486D02*
X69848266Y35577724D01*
X69848266Y35577724D02*
X69753028Y35672962D01*
X69753028Y35672962D02*
X69610171Y35720581D01*
X69610171Y35720581D02*
X69514933Y35720581D01*
X69514933Y35720581D02*
X69372076Y35672962D01*
X69372076Y35672962D02*
X69324457Y35625343D01*
X68372076Y34720581D02*
X68943504Y34720581D01*
X68657790Y34720581D02*
X68657790Y35720581D01*
X68657790Y35720581D02*
X68753028Y35577724D01*
X68753028Y35577724D02*
X68848266Y35482486D01*
X68848266Y35482486D02*
X68943504Y35434867D01*
X67514933Y35387248D02*
X67514933Y34720581D01*
X67753028Y35768200D02*
X67991123Y35053915D01*
X67991123Y35053915D02*
X67372076Y35053915D01*
X30146619Y14109058D02*
X29670428Y14442391D01*
X30146619Y14680486D02*
X29146619Y14680486D01*
X29146619Y14680486D02*
X29146619Y14299534D01*
X29146619Y14299534D02*
X29194238Y14204296D01*
X29194238Y14204296D02*
X29241857Y14156677D01*
X29241857Y14156677D02*
X29337095Y14109058D01*
X29337095Y14109058D02*
X29479952Y14109058D01*
X29479952Y14109058D02*
X29575190Y14156677D01*
X29575190Y14156677D02*
X29622809Y14204296D01*
X29622809Y14204296D02*
X29670428Y14299534D01*
X29670428Y14299534D02*
X29670428Y14680486D01*
X30146619Y13156677D02*
X30146619Y13728105D01*
X30146619Y13442391D02*
X29146619Y13442391D01*
X29146619Y13442391D02*
X29289476Y13537629D01*
X29289476Y13537629D02*
X29384714Y13632867D01*
X29384714Y13632867D02*
X29432333Y13728105D01*
X29146619Y12823343D02*
X29146619Y12156677D01*
X29146619Y12156677D02*
X30146619Y12585248D01*
X59749519Y13833658D02*
X59273328Y14166991D01*
X59749519Y14405086D02*
X58749519Y14405086D01*
X58749519Y14405086D02*
X58749519Y14024134D01*
X58749519Y14024134D02*
X58797138Y13928896D01*
X58797138Y13928896D02*
X58844757Y13881277D01*
X58844757Y13881277D02*
X58939995Y13833658D01*
X58939995Y13833658D02*
X59082852Y13833658D01*
X59082852Y13833658D02*
X59178090Y13881277D01*
X59178090Y13881277D02*
X59225709Y13928896D01*
X59225709Y13928896D02*
X59273328Y14024134D01*
X59273328Y14024134D02*
X59273328Y14405086D01*
X58844757Y13452705D02*
X58797138Y13405086D01*
X58797138Y13405086D02*
X58749519Y13309848D01*
X58749519Y13309848D02*
X58749519Y13071753D01*
X58749519Y13071753D02*
X58797138Y12976515D01*
X58797138Y12976515D02*
X58844757Y12928896D01*
X58844757Y12928896D02*
X58939995Y12881277D01*
X58939995Y12881277D02*
X59035233Y12881277D01*
X59035233Y12881277D02*
X59178090Y12928896D01*
X59178090Y12928896D02*
X59749519Y13500324D01*
X59749519Y13500324D02*
X59749519Y12881277D01*
X59749519Y12405086D02*
X59749519Y12214610D01*
X59749519Y12214610D02*
X59701900Y12119372D01*
X59701900Y12119372D02*
X59654280Y12071753D01*
X59654280Y12071753D02*
X59511423Y11976515D01*
X59511423Y11976515D02*
X59320947Y11928896D01*
X59320947Y11928896D02*
X58939995Y11928896D01*
X58939995Y11928896D02*
X58844757Y11976515D01*
X58844757Y11976515D02*
X58797138Y12024134D01*
X58797138Y12024134D02*
X58749519Y12119372D01*
X58749519Y12119372D02*
X58749519Y12309848D01*
X58749519Y12309848D02*
X58797138Y12405086D01*
X58797138Y12405086D02*
X58844757Y12452705D01*
X58844757Y12452705D02*
X58939995Y12500324D01*
X58939995Y12500324D02*
X59178090Y12500324D01*
X59178090Y12500324D02*
X59273328Y12452705D01*
X59273328Y12452705D02*
X59320947Y12405086D01*
X59320947Y12405086D02*
X59368566Y12309848D01*
X59368566Y12309848D02*
X59368566Y12119372D01*
X59368566Y12119372D02*
X59320947Y12024134D01*
X59320947Y12024134D02*
X59273328Y11976515D01*
X59273328Y11976515D02*
X59178090Y11928896D01*
X64565419Y47531258D02*
X64089228Y47864591D01*
X64565419Y48102686D02*
X63565419Y48102686D01*
X63565419Y48102686D02*
X63565419Y47721734D01*
X63565419Y47721734D02*
X63613038Y47626496D01*
X63613038Y47626496D02*
X63660657Y47578877D01*
X63660657Y47578877D02*
X63755895Y47531258D01*
X63755895Y47531258D02*
X63898752Y47531258D01*
X63898752Y47531258D02*
X63993990Y47578877D01*
X63993990Y47578877D02*
X64041609Y47626496D01*
X64041609Y47626496D02*
X64089228Y47721734D01*
X64089228Y47721734D02*
X64089228Y48102686D01*
X63660657Y47150305D02*
X63613038Y47102686D01*
X63613038Y47102686D02*
X63565419Y47007448D01*
X63565419Y47007448D02*
X63565419Y46769353D01*
X63565419Y46769353D02*
X63613038Y46674115D01*
X63613038Y46674115D02*
X63660657Y46626496D01*
X63660657Y46626496D02*
X63755895Y46578877D01*
X63755895Y46578877D02*
X63851133Y46578877D01*
X63851133Y46578877D02*
X63993990Y46626496D01*
X63993990Y46626496D02*
X64565419Y47197924D01*
X64565419Y47197924D02*
X64565419Y46578877D01*
X63898752Y45721734D02*
X64565419Y45721734D01*
X63517800Y45959829D02*
X64232085Y46197924D01*
X64232085Y46197924D02*
X64232085Y45578877D01*
X52500419Y35796458D02*
X52024228Y36129791D01*
X52500419Y36367886D02*
X51500419Y36367886D01*
X51500419Y36367886D02*
X51500419Y35986934D01*
X51500419Y35986934D02*
X51548038Y35891696D01*
X51548038Y35891696D02*
X51595657Y35844077D01*
X51595657Y35844077D02*
X51690895Y35796458D01*
X51690895Y35796458D02*
X51833752Y35796458D01*
X51833752Y35796458D02*
X51928990Y35844077D01*
X51928990Y35844077D02*
X51976609Y35891696D01*
X51976609Y35891696D02*
X52024228Y35986934D01*
X52024228Y35986934D02*
X52024228Y36367886D01*
X52500419Y34844077D02*
X52500419Y35415505D01*
X52500419Y35129791D02*
X51500419Y35129791D01*
X51500419Y35129791D02*
X51643276Y35225029D01*
X51643276Y35225029D02*
X51738514Y35320267D01*
X51738514Y35320267D02*
X51786133Y35415505D01*
X52500419Y33891696D02*
X52500419Y34463124D01*
X52500419Y34177410D02*
X51500419Y34177410D01*
X51500419Y34177410D02*
X51643276Y34272648D01*
X51643276Y34272648D02*
X51738514Y34367886D01*
X51738514Y34367886D02*
X51786133Y34463124D01*
D11*
X9214523Y29435996D02*
X9214523Y30735996D01*
X9214523Y30735996D02*
X8904999Y30735996D01*
X8904999Y30735996D02*
X8719285Y30674091D01*
X8719285Y30674091D02*
X8595475Y30550281D01*
X8595475Y30550281D02*
X8533570Y30426472D01*
X8533570Y30426472D02*
X8471666Y30178853D01*
X8471666Y30178853D02*
X8471666Y29993139D01*
X8471666Y29993139D02*
X8533570Y29745520D01*
X8533570Y29745520D02*
X8595475Y29621710D01*
X8595475Y29621710D02*
X8719285Y29497900D01*
X8719285Y29497900D02*
X8904999Y29435996D01*
X8904999Y29435996D02*
X9214523Y29435996D01*
X7357380Y30735996D02*
X7604999Y30735996D01*
X7604999Y30735996D02*
X7728808Y30674091D01*
X7728808Y30674091D02*
X7790713Y30612186D01*
X7790713Y30612186D02*
X7914523Y30426472D01*
X7914523Y30426472D02*
X7976427Y30178853D01*
X7976427Y30178853D02*
X7976427Y29683615D01*
X7976427Y29683615D02*
X7914523Y29559805D01*
X7914523Y29559805D02*
X7852618Y29497900D01*
X7852618Y29497900D02*
X7728808Y29435996D01*
X7728808Y29435996D02*
X7481189Y29435996D01*
X7481189Y29435996D02*
X7357380Y29497900D01*
X7357380Y29497900D02*
X7295475Y29559805D01*
X7295475Y29559805D02*
X7233570Y29683615D01*
X7233570Y29683615D02*
X7233570Y29993139D01*
X7233570Y29993139D02*
X7295475Y30116948D01*
X7295475Y30116948D02*
X7357380Y30178853D01*
X7357380Y30178853D02*
X7481189Y30240758D01*
X7481189Y30240758D02*
X7728808Y30240758D01*
X7728808Y30240758D02*
X7852618Y30178853D01*
X7852618Y30178853D02*
X7914523Y30116948D01*
X7914523Y30116948D02*
X7976427Y29993139D01*
D10*
X64055219Y51893695D02*
X63055219Y51893695D01*
X63055219Y51893695D02*
X63055219Y51655600D01*
X63055219Y51655600D02*
X63102838Y51512743D01*
X63102838Y51512743D02*
X63198076Y51417505D01*
X63198076Y51417505D02*
X63293314Y51369886D01*
X63293314Y51369886D02*
X63483790Y51322267D01*
X63483790Y51322267D02*
X63626647Y51322267D01*
X63626647Y51322267D02*
X63817123Y51369886D01*
X63817123Y51369886D02*
X63912361Y51417505D01*
X63912361Y51417505D02*
X64007600Y51512743D01*
X64007600Y51512743D02*
X64055219Y51655600D01*
X64055219Y51655600D02*
X64055219Y51893695D01*
X63055219Y50988933D02*
X63055219Y50322267D01*
X63055219Y50322267D02*
X64055219Y50750838D01*
X67360704Y36617481D02*
X67360704Y35807958D01*
X67360704Y35807958D02*
X67313085Y35712720D01*
X67313085Y35712720D02*
X67265466Y35665100D01*
X67265466Y35665100D02*
X67170228Y35617481D01*
X67170228Y35617481D02*
X66979752Y35617481D01*
X66979752Y35617481D02*
X66884514Y35665100D01*
X66884514Y35665100D02*
X66836895Y35712720D01*
X66836895Y35712720D02*
X66789276Y35807958D01*
X66789276Y35807958D02*
X66789276Y36617481D01*
X66408323Y36617481D02*
X65789276Y36617481D01*
X65789276Y36617481D02*
X66122609Y36236529D01*
X66122609Y36236529D02*
X65979752Y36236529D01*
X65979752Y36236529D02*
X65884514Y36188910D01*
X65884514Y36188910D02*
X65836895Y36141291D01*
X65836895Y36141291D02*
X65789276Y36046053D01*
X65789276Y36046053D02*
X65789276Y35807958D01*
X65789276Y35807958D02*
X65836895Y35712720D01*
X65836895Y35712720D02*
X65884514Y35665100D01*
X65884514Y35665100D02*
X65979752Y35617481D01*
X65979752Y35617481D02*
X66265466Y35617481D01*
X66265466Y35617481D02*
X66360704Y35665100D01*
X66360704Y35665100D02*
X66408323Y35712720D01*
X60857019Y47531258D02*
X60380828Y47864591D01*
X60857019Y48102686D02*
X59857019Y48102686D01*
X59857019Y48102686D02*
X59857019Y47721734D01*
X59857019Y47721734D02*
X59904638Y47626496D01*
X59904638Y47626496D02*
X59952257Y47578877D01*
X59952257Y47578877D02*
X60047495Y47531258D01*
X60047495Y47531258D02*
X60190352Y47531258D01*
X60190352Y47531258D02*
X60285590Y47578877D01*
X60285590Y47578877D02*
X60333209Y47626496D01*
X60333209Y47626496D02*
X60380828Y47721734D01*
X60380828Y47721734D02*
X60380828Y48102686D01*
X60857019Y46578877D02*
X60857019Y47150305D01*
X60857019Y46864591D02*
X59857019Y46864591D01*
X59857019Y46864591D02*
X59999876Y46959829D01*
X59999876Y46959829D02*
X60095114Y47055067D01*
X60095114Y47055067D02*
X60142733Y47150305D01*
X60190352Y45721734D02*
X60857019Y45721734D01*
X59809400Y45959829D02*
X60523685Y46197924D01*
X60523685Y46197924D02*
X60523685Y45578877D01*
X58713666Y28719820D02*
X58761285Y28672200D01*
X58761285Y28672200D02*
X58904142Y28624581D01*
X58904142Y28624581D02*
X58999380Y28624581D01*
X58999380Y28624581D02*
X59142237Y28672200D01*
X59142237Y28672200D02*
X59237475Y28767439D01*
X59237475Y28767439D02*
X59285094Y28862677D01*
X59285094Y28862677D02*
X59332713Y29053153D01*
X59332713Y29053153D02*
X59332713Y29196010D01*
X59332713Y29196010D02*
X59285094Y29386486D01*
X59285094Y29386486D02*
X59237475Y29481724D01*
X59237475Y29481724D02*
X59142237Y29576962D01*
X59142237Y29576962D02*
X58999380Y29624581D01*
X58999380Y29624581D02*
X58904142Y29624581D01*
X58904142Y29624581D02*
X58761285Y29576962D01*
X58761285Y29576962D02*
X58713666Y29529343D01*
X57808904Y29624581D02*
X58285094Y29624581D01*
X58285094Y29624581D02*
X58332713Y29148391D01*
X58332713Y29148391D02*
X58285094Y29196010D01*
X58285094Y29196010D02*
X58189856Y29243629D01*
X58189856Y29243629D02*
X57951761Y29243629D01*
X57951761Y29243629D02*
X57856523Y29196010D01*
X57856523Y29196010D02*
X57808904Y29148391D01*
X57808904Y29148391D02*
X57761285Y29053153D01*
X57761285Y29053153D02*
X57761285Y28815058D01*
X57761285Y28815058D02*
X57808904Y28719820D01*
X57808904Y28719820D02*
X57856523Y28672200D01*
X57856523Y28672200D02*
X57951761Y28624581D01*
X57951761Y28624581D02*
X58189856Y28624581D01*
X58189856Y28624581D02*
X58285094Y28672200D01*
X58285094Y28672200D02*
X58332713Y28719820D01*
X20029466Y41175781D02*
X20362799Y41651972D01*
X20600894Y41175781D02*
X20600894Y42175781D01*
X20600894Y42175781D02*
X20219942Y42175781D01*
X20219942Y42175781D02*
X20124704Y42128162D01*
X20124704Y42128162D02*
X20077085Y42080543D01*
X20077085Y42080543D02*
X20029466Y41985305D01*
X20029466Y41985305D02*
X20029466Y41842448D01*
X20029466Y41842448D02*
X20077085Y41747210D01*
X20077085Y41747210D02*
X20124704Y41699591D01*
X20124704Y41699591D02*
X20219942Y41651972D01*
X20219942Y41651972D02*
X20600894Y41651972D01*
X19553275Y41175781D02*
X19362799Y41175781D01*
X19362799Y41175781D02*
X19267561Y41223400D01*
X19267561Y41223400D02*
X19219942Y41271020D01*
X19219942Y41271020D02*
X19124704Y41413877D01*
X19124704Y41413877D02*
X19077085Y41604353D01*
X19077085Y41604353D02*
X19077085Y41985305D01*
X19077085Y41985305D02*
X19124704Y42080543D01*
X19124704Y42080543D02*
X19172323Y42128162D01*
X19172323Y42128162D02*
X19267561Y42175781D01*
X19267561Y42175781D02*
X19458037Y42175781D01*
X19458037Y42175781D02*
X19553275Y42128162D01*
X19553275Y42128162D02*
X19600894Y42080543D01*
X19600894Y42080543D02*
X19648513Y41985305D01*
X19648513Y41985305D02*
X19648513Y41747210D01*
X19648513Y41747210D02*
X19600894Y41651972D01*
X19600894Y41651972D02*
X19553275Y41604353D01*
X19553275Y41604353D02*
X19458037Y41556734D01*
X19458037Y41556734D02*
X19267561Y41556734D01*
X19267561Y41556734D02*
X19172323Y41604353D01*
X19172323Y41604353D02*
X19124704Y41651972D01*
X19124704Y41651972D02*
X19077085Y41747210D01*
X48537019Y17210067D02*
X48060828Y17543400D01*
X48537019Y17781495D02*
X47537019Y17781495D01*
X47537019Y17781495D02*
X47537019Y17400543D01*
X47537019Y17400543D02*
X47584638Y17305305D01*
X47584638Y17305305D02*
X47632257Y17257686D01*
X47632257Y17257686D02*
X47727495Y17210067D01*
X47727495Y17210067D02*
X47870352Y17210067D01*
X47870352Y17210067D02*
X47965590Y17257686D01*
X47965590Y17257686D02*
X48013209Y17305305D01*
X48013209Y17305305D02*
X48060828Y17400543D01*
X48060828Y17400543D02*
X48060828Y17781495D01*
X48537019Y16257686D02*
X48537019Y16829114D01*
X48537019Y16543400D02*
X47537019Y16543400D01*
X47537019Y16543400D02*
X47679876Y16638638D01*
X47679876Y16638638D02*
X47775114Y16733876D01*
X47775114Y16733876D02*
X47822733Y16829114D01*
D13*
%TO.C,C9*%
X38488252Y41371000D02*
X37965748Y41371000D01*
X38488252Y39901000D02*
X37965748Y39901000D01*
%TO.C,C8*%
X36812400Y43877000D02*
X40732400Y43877000D01*
X40732400Y43877000D02*
X40732400Y41967000D01*
X40732400Y41967000D02*
X36812400Y41967000D01*
%TO.C,U2*%
X31491400Y37114000D02*
X31491400Y36539000D01*
X31491400Y27469000D02*
X31491400Y26894000D01*
X31491400Y26894000D02*
X32066400Y26894000D01*
X32066400Y37114000D02*
X31491400Y37114000D01*
X41136400Y26894000D02*
X41711400Y26894000D01*
X41711400Y37114000D02*
X41136400Y37114000D01*
X41711400Y36539000D02*
X41711400Y37114000D01*
X41711400Y26894000D02*
X41711400Y27469000D01*
X41611400Y25914000D02*
X41141400Y26254000D01*
X41611400Y26594000D01*
X41611400Y25914000D01*
G36*
X41611400Y25914000D02*
G01*
X41141400Y26254000D01*
X41611400Y26594000D01*
X41611400Y25914000D01*
G37*
%TO.C,R12*%
X25376136Y26744600D02*
X25830264Y26744600D01*
X25376136Y25274600D02*
X25830264Y25274600D01*
%TO.C,R5*%
X39193800Y22528264D02*
X39193800Y22074136D01*
X40663800Y22528264D02*
X40663800Y22074136D01*
%TO.C,C10*%
X37116652Y24052200D02*
X36594148Y24052200D01*
X37116652Y22582200D02*
X36594148Y22582200D01*
%TO.C,C11*%
X44299200Y32265252D02*
X44299200Y31742748D01*
X45769200Y32265252D02*
X45769200Y31742748D01*
%TO.C,C12*%
X26773200Y31742748D02*
X26773200Y32265252D01*
X28243200Y31742748D02*
X28243200Y32265252D01*
%TO.C,C2*%
X42613948Y23290200D02*
X43136452Y23290200D01*
X42613948Y21820200D02*
X43136452Y21820200D01*
%TO.C,R13*%
X25350736Y29259200D02*
X25804864Y29259200D01*
X25350736Y27789200D02*
X25804864Y27789200D01*
%TO.C,U1*%
X56042800Y34930700D02*
X57092800Y34930700D01*
X56042800Y32610700D02*
X57342800Y32610700D01*
X57732800Y34930700D02*
X57452800Y34930700D01*
X57452800Y35210700D01*
X57732800Y34930700D01*
G36*
X57732800Y34930700D02*
G01*
X57452800Y34930700D01*
X57452800Y35210700D01*
X57732800Y34930700D01*
G37*
%TO.C,C6*%
X59530348Y37488800D02*
X60052852Y37488800D01*
X59530348Y36018800D02*
X60052852Y36018800D01*
%TO.C,J1*%
X40809200Y10223200D02*
X42609200Y10223200D01*
X40809200Y8773200D02*
X40809200Y10223200D01*
X49979200Y10223200D02*
X49979200Y11213200D01*
X50509200Y5953200D02*
X42079200Y5953200D01*
X51779200Y10223200D02*
X49979200Y10223200D01*
X51779200Y8773200D02*
X51779200Y10223200D01*
%TO.C,Q2*%
X11165400Y43025600D02*
X11165400Y41505600D01*
X11165400Y41505600D02*
X11215400Y41505600D01*
X12165400Y43025600D02*
X11165400Y43025600D01*
X12335400Y41505600D02*
X13115400Y41505600D01*
X14235400Y41505600D02*
X14285400Y41505600D01*
X14285400Y43025600D02*
X13285400Y43025600D01*
X14285400Y41505600D02*
X14285400Y43025600D01*
X13105400Y40965600D02*
X12775400Y40725600D01*
X12775400Y41205600D01*
X13105400Y40965600D01*
G36*
X13105400Y40965600D02*
G01*
X12775400Y40725600D01*
X12775400Y41205600D01*
X13105400Y40965600D01*
G37*
%TO.C,C13*%
X68191748Y31596000D02*
X68714252Y31596000D01*
X68191748Y30126000D02*
X68714252Y30126000D01*
%TO.C,R10*%
X56564264Y36777600D02*
X56110136Y36777600D01*
X56564264Y35307600D02*
X56110136Y35307600D01*
%TO.C,C3*%
X30278400Y20022452D02*
X30278400Y19499948D01*
X31748400Y20022452D02*
X31748400Y19499948D01*
%TO.C,R16*%
X16864064Y32459600D02*
X16409936Y32459600D01*
X16864064Y30989600D02*
X16409936Y30989600D01*
%TO.C,R22*%
X65378064Y37590400D02*
X64923936Y37590400D01*
X65378064Y36120400D02*
X64923936Y36120400D01*
%TO.C,L1*%
X51212933Y20626800D02*
X51555467Y20626800D01*
X51212933Y19606800D02*
X51555467Y19606800D01*
%TO.C,C7*%
X56496852Y38708000D02*
X55974348Y38708000D01*
X56496852Y37238000D02*
X55974348Y37238000D01*
%TO.C,J2*%
X15895600Y10223200D02*
X17695600Y10223200D01*
X15895600Y8773200D02*
X15895600Y10223200D01*
X27565600Y10223200D02*
X27565600Y11213200D01*
X28095600Y5953200D02*
X17165600Y5953200D01*
X29365600Y10223200D02*
X27565600Y10223200D01*
X29365600Y8773200D02*
X29365600Y10223200D01*
%TO.C,D3*%
X6655000Y38346000D02*
X10540000Y38346000D01*
X10540000Y38346000D02*
X10540000Y36076000D01*
X10540000Y36076000D02*
X6655000Y36076000D01*
%TO.C,R7*%
X16864064Y37285600D02*
X16409936Y37285600D01*
X16864064Y35815600D02*
X16409936Y35815600D01*
%TO.C,R6*%
X8964664Y40155800D02*
X8510536Y40155800D01*
X8964664Y38685800D02*
X8510536Y38685800D01*
%TO.C,R21*%
X30253000Y23696664D02*
X30253000Y23242536D01*
X31723000Y23696664D02*
X31723000Y23242536D01*
%TO.C,J6*%
X53266000Y10223200D02*
X55066000Y10223200D01*
X53266000Y8773200D02*
X53266000Y10223200D01*
X63686000Y10223200D02*
X63686000Y11213200D01*
X64216000Y5953200D02*
X54536000Y5953200D01*
X65486000Y10223200D02*
X63686000Y10223200D01*
X65486000Y8773200D02*
X65486000Y10223200D01*
%TO.C,J4*%
X30847400Y10223200D02*
X32647400Y10223200D01*
X30847400Y8773200D02*
X30847400Y10223200D01*
X37517400Y10223200D02*
X37517400Y11213200D01*
X38047400Y5953200D02*
X32117400Y5953200D01*
X39317400Y10223200D02*
X37517400Y10223200D01*
X39317400Y8773200D02*
X39317400Y10223200D01*
%TO.C,D1*%
X49996800Y15357000D02*
X51196800Y15357000D01*
X49996800Y13397000D02*
X49996800Y15357000D01*
X51196800Y13397000D02*
X51196800Y15357000D01*
D12*
%TO.C,SW2*%
X46525000Y43921200D02*
X48725000Y43921200D01*
X47625000Y43921200D02*
X47625000Y43421200D01*
X47625000Y43421200D02*
X48225000Y41921200D01*
X47625000Y42021200D02*
X47625000Y41321200D01*
X48725000Y41321200D02*
X46525000Y41321200D01*
D13*
%TO.C,D4*%
X6604200Y42765600D02*
X10489200Y42765600D01*
X10489200Y42765600D02*
X10489200Y40495600D01*
X10489200Y40495600D02*
X6604200Y40495600D01*
%TO.C,R28*%
X58904300Y12953542D02*
X58904300Y13428058D01*
X59949300Y12953542D02*
X59949300Y13428058D01*
D12*
%TO.C,SW1*%
X42181600Y43819600D02*
X44381600Y43819600D01*
X43281600Y43819600D02*
X43281600Y43319600D01*
X43281600Y43319600D02*
X43881600Y41819600D01*
X43281600Y41919600D02*
X43281600Y41219600D01*
X44381600Y41219600D02*
X42181600Y41219600D01*
D13*
%TO.C,R20*%
X27586000Y19708864D02*
X27586000Y19254736D01*
X29056000Y19708864D02*
X29056000Y19254736D01*
%TO.C,R4*%
X45416800Y14146264D02*
X45416800Y13692136D01*
X46886800Y14146264D02*
X46886800Y13692136D01*
%TO.C,R18*%
X25235700Y14025364D02*
X25235700Y13571236D01*
X26705700Y14025364D02*
X26705700Y13571236D01*
%TO.C,R15*%
X9142464Y35660000D02*
X8688336Y35660000D01*
X9142464Y34190000D02*
X8688336Y34190000D01*
%TO.C,TP2*%
X31992800Y40284400D02*
G75*
G02*
X30592800Y40284400I-700000J0D01*
G01*
X30592800Y40284400D02*
G75*
G02*
X31992800Y40284400I700000J0D01*
G01*
%TO.C,R19*%
X23343400Y14025364D02*
X23343400Y13571236D01*
X24813400Y14025364D02*
X24813400Y13571236D01*
%TO.C,TP1*%
X30189400Y38404800D02*
G75*
G02*
X28789400Y38404800I-700000J0D01*
G01*
X28789400Y38404800D02*
G75*
G02*
X30189400Y38404800I700000J0D01*
G01*
%TO.C,R23*%
X63374600Y34339264D02*
X63374600Y33885136D01*
X64844600Y34339264D02*
X64844600Y33885136D01*
%TO.C,Y1*%
X36174800Y21475800D02*
X36174800Y18055800D01*
X36174800Y18055800D02*
X32054800Y18055800D01*
%TO.C,JP1*%
X42408600Y14593800D02*
X42408600Y13193800D01*
X43108600Y12493800D02*
X43708600Y12493800D01*
X43708600Y15293800D02*
X43108600Y15293800D01*
X44408600Y13193800D02*
X44408600Y14593800D01*
X42408600Y14593800D02*
G75*
G02*
X43108600Y15293800I699999J1D01*
G01*
X43108600Y12493800D02*
G75*
G02*
X42408600Y13193800I0J700000D01*
G01*
X43708600Y15293800D02*
G75*
G02*
X44408600Y14593800I1J-699999D01*
G01*
X44408600Y13193800D02*
G75*
G02*
X43708600Y12493800I-700000J0D01*
G01*
%TO.C,C15*%
X66758452Y39698600D02*
X66235948Y39698600D01*
X66758452Y38228600D02*
X66235948Y38228600D01*
%TO.C,C1*%
X51046748Y18946800D02*
X51569252Y18946800D01*
X51046748Y17476800D02*
X51569252Y17476800D01*
%TO.C,Q3*%
X11317800Y32535400D02*
X11317800Y31015400D01*
X11317800Y31015400D02*
X11367800Y31015400D01*
X12317800Y32535400D02*
X11317800Y32535400D01*
X12487800Y31015400D02*
X13267800Y31015400D01*
X14387800Y31015400D02*
X14437800Y31015400D01*
X14437800Y32535400D02*
X13437800Y32535400D01*
X14437800Y31015400D02*
X14437800Y32535400D01*
X13257800Y30475400D02*
X12927800Y30235400D01*
X12927800Y30715400D01*
X13257800Y30475400D01*
G36*
X13257800Y30475400D02*
G01*
X12927800Y30235400D01*
X12927800Y30715400D01*
X13257800Y30475400D01*
G37*
%TO.C,D5*%
X60841000Y53440600D02*
X63111000Y53440600D01*
X60841000Y49555600D02*
X60841000Y53440600D01*
X63111000Y53440600D02*
X63111000Y49555600D01*
%TO.C,R3*%
X47407395Y40260527D02*
X47861523Y40260527D01*
X47407395Y38790527D02*
X47861523Y38790527D01*
%TO.C,R25*%
X62028500Y12953542D02*
X62028500Y13428058D01*
X63073500Y12953542D02*
X63073500Y13428058D01*
%TO.C,L3*%
X68155800Y33596948D02*
X68155800Y34119452D01*
X70375800Y33596948D02*
X70375800Y34119452D01*
%TO.C,R27*%
X60466400Y12953542D02*
X60466400Y13428058D01*
X61511400Y12953542D02*
X61511400Y13428058D01*
%TO.C,R30*%
X55780100Y12953542D02*
X55780100Y13428058D01*
X56825100Y12953542D02*
X56825100Y13428058D01*
%TO.C,C4*%
X36704600Y19576148D02*
X36704600Y20098652D01*
X38174600Y19576148D02*
X38174600Y20098652D01*
%TO.C,L2*%
X58275200Y33444548D02*
X58275200Y33967052D01*
X60495200Y33444548D02*
X60495200Y33967052D01*
%TO.C,R2*%
X43508664Y40130400D02*
X43054536Y40130400D01*
X43508664Y38660400D02*
X43054536Y38660400D01*
%TO.C,R8*%
X9447264Y45362800D02*
X8993136Y45362800D01*
X9447264Y43892800D02*
X8993136Y43892800D01*
%TO.C,D2*%
X49946400Y15681400D02*
X49946400Y16881400D01*
X51906400Y16881400D02*
X49946400Y16881400D01*
X51906400Y15681400D02*
X49946400Y15681400D01*
%TO.C,Q1*%
X11063800Y37894800D02*
X11063800Y36374800D01*
X11063800Y36374800D02*
X11113800Y36374800D01*
X12063800Y37894800D02*
X11063800Y37894800D01*
X12233800Y36374800D02*
X13013800Y36374800D01*
X14133800Y36374800D02*
X14183800Y36374800D01*
X14183800Y37894800D02*
X13183800Y37894800D01*
X14183800Y36374800D02*
X14183800Y37894800D01*
X13003800Y35834800D02*
X12673800Y35594800D01*
X12673800Y36074800D01*
X13003800Y35834800D01*
G36*
X13003800Y35834800D02*
G01*
X12673800Y35594800D01*
X12673800Y36074800D01*
X13003800Y35834800D01*
G37*
%TO.C,R26*%
X29414736Y47445600D02*
X29868864Y47445600D01*
X29414736Y45975600D02*
X29868864Y45975600D01*
%TO.C,C14*%
X68420348Y37590400D02*
X68942852Y37590400D01*
X68420348Y36120400D02*
X68942852Y36120400D01*
%TO.C,R17*%
X27128000Y14023464D02*
X27128000Y13569336D01*
X28598000Y14023464D02*
X28598000Y13569336D01*
%TO.C,R29*%
X57342200Y12953542D02*
X57342200Y13428058D01*
X58387200Y12953542D02*
X58387200Y13428058D01*
%TO.C,R24*%
X65025600Y47115464D02*
X65025600Y46661336D01*
X66495600Y47115464D02*
X66495600Y46661336D01*
%TO.C,R11*%
X52960600Y35380664D02*
X52960600Y34926536D01*
X54430600Y35380664D02*
X54430600Y34926536D01*
%TO.C,D6*%
X6655000Y33647000D02*
X10540000Y33647000D01*
X10540000Y33647000D02*
X10540000Y31377000D01*
X10540000Y31377000D02*
X6655000Y31377000D01*
%TO.C,D7*%
X64295400Y53440600D02*
X66565400Y53440600D01*
X64295400Y49555600D02*
X64295400Y53440600D01*
X66565400Y53440600D02*
X66565400Y49555600D01*
%TO.C,U3*%
X65948800Y35032300D02*
X66998800Y35032300D01*
X65948800Y32712300D02*
X67248800Y32712300D01*
X67638800Y35032300D02*
X67358800Y35032300D01*
X67358800Y35312300D01*
X67638800Y35032300D01*
G36*
X67638800Y35032300D02*
G01*
X67358800Y35032300D01*
X67358800Y35312300D01*
X67638800Y35032300D01*
G37*
%TO.C,R14*%
X61317200Y47115464D02*
X61317200Y46661336D01*
X62787200Y47115464D02*
X62787200Y46661336D01*
%TO.C,C5*%
X58285748Y31494400D02*
X58808252Y31494400D01*
X58285748Y30024400D02*
X58808252Y30024400D01*
%TO.C,R9*%
X16864064Y42365600D02*
X16409936Y42365600D01*
X16864064Y40895600D02*
X16409936Y40895600D01*
%TO.C,R1*%
X47448800Y14146264D02*
X47448800Y13692136D01*
X48918800Y14146264D02*
X48918800Y13692136D01*
%TD*%
M02*
