%TF.GenerationSoftware,KiCad,Pcbnew,9.0.6+1*%
%TF.CreationDate,2026-01-07T19:36:36+00:00*%
%TF.ProjectId,TFUNIPAYLOAD01,5446554e-4950-4415-994c-4f414430312e,rev?*%
%TF.SameCoordinates,PX66dd020PY81342c0*%
%TF.FileFunction,Legend,Top*%
%TF.FilePolarity,Positive*%
%FSLAX46Y46*%
G04 Gerber Fmt 4.6, Leading zero omitted, Abs format (unit mm)*
G04 Created by KiCad (PCBNEW 9.0.6+1) date 2026-01-07 19:36:36*
%MOMM*%
%LPD*%
G01*
G04 APERTURE LIST*
%ADD10C,0.150000*%
%ADD11C,0.300000*%
%ADD12C,0.200000*%
%ADD13C,0.000000*%
G04 APERTURE END LIST*
D10*
X52663400Y28899600D02*
X62763400Y28899600D01*
X62763400Y22199600D01*
X52663400Y22199600D01*
X52663400Y28899600D01*
D11*
X25953866Y43575747D02*
X26925295Y43575747D01*
X26439581Y41875747D02*
X26439581Y43575747D01*
X28058628Y42766223D02*
X27491961Y42766223D01*
X27491961Y41875747D02*
X27491961Y43575747D01*
X27491961Y43575747D02*
X28301485Y43575747D01*
X28949104Y43575747D02*
X28949104Y42199557D01*
X28949104Y42199557D02*
X29030057Y42037652D01*
X29030057Y42037652D02*
X29111009Y41956699D01*
X29111009Y41956699D02*
X29272914Y41875747D01*
X29272914Y41875747D02*
X29596723Y41875747D01*
X29596723Y41875747D02*
X29758628Y41956699D01*
X29758628Y41956699D02*
X29839581Y42037652D01*
X29839581Y42037652D02*
X29920533Y42199557D01*
X29920533Y42199557D02*
X29920533Y43575747D01*
X30730056Y41875747D02*
X30730056Y43575747D01*
X30730056Y43575747D02*
X31701485Y41875747D01*
X31701485Y41875747D02*
X31701485Y43575747D01*
X32511008Y41875747D02*
X32511008Y43575747D01*
X33320532Y41875747D02*
X33320532Y43575747D01*
X33320532Y43575747D02*
X33968151Y43575747D01*
X33968151Y43575747D02*
X34130056Y43494795D01*
X34130056Y43494795D02*
X34211009Y43413842D01*
X34211009Y43413842D02*
X34291961Y43251938D01*
X34291961Y43251938D02*
X34291961Y43009080D01*
X34291961Y43009080D02*
X34211009Y42847176D01*
X34211009Y42847176D02*
X34130056Y42766223D01*
X34130056Y42766223D02*
X33968151Y42685271D01*
X33968151Y42685271D02*
X33320532Y42685271D01*
X34939580Y42361461D02*
X35749104Y42361461D01*
X34777675Y41875747D02*
X35344342Y43575747D01*
X35344342Y43575747D02*
X35911009Y41875747D01*
X36801485Y42685271D02*
X36801485Y41875747D01*
X36234818Y43575747D02*
X36801485Y42685271D01*
X36801485Y42685271D02*
X37368152Y43575747D01*
X38744342Y41875747D02*
X37934818Y41875747D01*
X37934818Y41875747D02*
X37934818Y43575747D01*
X39634818Y43575747D02*
X39958627Y43575747D01*
X39958627Y43575747D02*
X40120532Y43494795D01*
X40120532Y43494795D02*
X40282437Y43332890D01*
X40282437Y43332890D02*
X40363389Y43009080D01*
X40363389Y43009080D02*
X40363389Y42442414D01*
X40363389Y42442414D02*
X40282437Y42118604D01*
X40282437Y42118604D02*
X40120532Y41956699D01*
X40120532Y41956699D02*
X39958627Y41875747D01*
X39958627Y41875747D02*
X39634818Y41875747D01*
X39634818Y41875747D02*
X39472913Y41956699D01*
X39472913Y41956699D02*
X39311008Y42118604D01*
X39311008Y42118604D02*
X39230056Y42442414D01*
X39230056Y42442414D02*
X39230056Y43009080D01*
X39230056Y43009080D02*
X39311008Y43332890D01*
X39311008Y43332890D02*
X39472913Y43494795D01*
X39472913Y43494795D02*
X39634818Y43575747D01*
X41011008Y42361461D02*
X41820532Y42361461D01*
X40849103Y41875747D02*
X41415770Y43575747D01*
X41415770Y43575747D02*
X41982437Y41875747D01*
X42549103Y41875747D02*
X42549103Y43575747D01*
X42549103Y43575747D02*
X42953865Y43575747D01*
X42953865Y43575747D02*
X43196722Y43494795D01*
X43196722Y43494795D02*
X43358627Y43332890D01*
X43358627Y43332890D02*
X43439580Y43170985D01*
X43439580Y43170985D02*
X43520532Y42847176D01*
X43520532Y42847176D02*
X43520532Y42604319D01*
X43520532Y42604319D02*
X43439580Y42280509D01*
X43439580Y42280509D02*
X43358627Y42118604D01*
X43358627Y42118604D02*
X43196722Y41956699D01*
X43196722Y41956699D02*
X42953865Y41875747D01*
X42953865Y41875747D02*
X42549103Y41875747D01*
X44572913Y43575747D02*
X44734818Y43575747D01*
X44734818Y43575747D02*
X44896722Y43494795D01*
X44896722Y43494795D02*
X44977675Y43413842D01*
X44977675Y43413842D02*
X45058627Y43251938D01*
X45058627Y43251938D02*
X45139580Y42928128D01*
X45139580Y42928128D02*
X45139580Y42523366D01*
X45139580Y42523366D02*
X45058627Y42199557D01*
X45058627Y42199557D02*
X44977675Y42037652D01*
X44977675Y42037652D02*
X44896722Y41956699D01*
X44896722Y41956699D02*
X44734818Y41875747D01*
X44734818Y41875747D02*
X44572913Y41875747D01*
X44572913Y41875747D02*
X44411008Y41956699D01*
X44411008Y41956699D02*
X44330056Y42037652D01*
X44330056Y42037652D02*
X44249103Y42199557D01*
X44249103Y42199557D02*
X44168151Y42523366D01*
X44168151Y42523366D02*
X44168151Y42928128D01*
X44168151Y42928128D02*
X44249103Y43251938D01*
X44249103Y43251938D02*
X44330056Y43413842D01*
X44330056Y43413842D02*
X44411008Y43494795D01*
X44411008Y43494795D02*
X44572913Y43575747D01*
X46758628Y41875747D02*
X45787199Y41875747D01*
X46272913Y41875747D02*
X46272913Y43575747D01*
X46272913Y43575747D02*
X46111009Y43332890D01*
X46111009Y43332890D02*
X45949104Y43170985D01*
X45949104Y43170985D02*
X45787199Y43090033D01*
X48053866Y42766223D02*
X48296723Y42685271D01*
X48296723Y42685271D02*
X48377676Y42604319D01*
X48377676Y42604319D02*
X48458628Y42442414D01*
X48458628Y42442414D02*
X48458628Y42199557D01*
X48458628Y42199557D02*
X48377676Y42037652D01*
X48377676Y42037652D02*
X48296723Y41956699D01*
X48296723Y41956699D02*
X48134818Y41875747D01*
X48134818Y41875747D02*
X47487199Y41875747D01*
X47487199Y41875747D02*
X47487199Y43575747D01*
X47487199Y43575747D02*
X48053866Y43575747D01*
X48053866Y43575747D02*
X48215771Y43494795D01*
X48215771Y43494795D02*
X48296723Y43413842D01*
X48296723Y43413842D02*
X48377676Y43251938D01*
X48377676Y43251938D02*
X48377676Y43090033D01*
X48377676Y43090033D02*
X48296723Y42928128D01*
X48296723Y42928128D02*
X48215771Y42847176D01*
X48215771Y42847176D02*
X48053866Y42766223D01*
X48053866Y42766223D02*
X47487199Y42766223D01*
D12*
X65818204Y39394239D02*
X64518204Y39394239D01*
X64518204Y39394239D02*
X64518204Y39889477D01*
X64518204Y39889477D02*
X64580109Y40013287D01*
X64580109Y40013287D02*
X64642014Y40075192D01*
X64642014Y40075192D02*
X64765823Y40137096D01*
X64765823Y40137096D02*
X64951538Y40137096D01*
X64951538Y40137096D02*
X65075347Y40075192D01*
X65075347Y40075192D02*
X65137252Y40013287D01*
X65137252Y40013287D02*
X65199157Y39889477D01*
X65199157Y39889477D02*
X65199157Y39394239D01*
X64518204Y40570430D02*
X65818204Y40879954D01*
X65818204Y40879954D02*
X64889633Y41127573D01*
X64889633Y41127573D02*
X65818204Y41375192D01*
X65818204Y41375192D02*
X64518204Y41684715D01*
X65818204Y42922810D02*
X65199157Y42489477D01*
X65818204Y42179953D02*
X64518204Y42179953D01*
X64518204Y42179953D02*
X64518204Y42675191D01*
X64518204Y42675191D02*
X64580109Y42799001D01*
X64580109Y42799001D02*
X64642014Y42860906D01*
X64642014Y42860906D02*
X64765823Y42922810D01*
X64765823Y42922810D02*
X64951538Y42922810D01*
X64951538Y42922810D02*
X65075347Y42860906D01*
X65075347Y42860906D02*
X65137252Y42799001D01*
X65137252Y42799001D02*
X65199157Y42675191D01*
X65199157Y42675191D02*
X65199157Y42179953D01*
X64518204Y45089477D02*
X64518204Y44470429D01*
X64518204Y44470429D02*
X65137252Y44408525D01*
X65137252Y44408525D02*
X65075347Y44470429D01*
X65075347Y44470429D02*
X65013442Y44594239D01*
X65013442Y44594239D02*
X65013442Y44903763D01*
X65013442Y44903763D02*
X65075347Y45027572D01*
X65075347Y45027572D02*
X65137252Y45089477D01*
X65137252Y45089477D02*
X65261061Y45151382D01*
X65261061Y45151382D02*
X65570585Y45151382D01*
X65570585Y45151382D02*
X65694395Y45089477D01*
X65694395Y45089477D02*
X65756300Y45027572D01*
X65756300Y45027572D02*
X65818204Y44903763D01*
X65818204Y44903763D02*
X65818204Y44594239D01*
X65818204Y44594239D02*
X65756300Y44470429D01*
X65756300Y44470429D02*
X65694395Y44408525D01*
X64518204Y45522810D02*
X65818204Y45956143D01*
X65818204Y45956143D02*
X64518204Y46389477D01*
X44763790Y10438259D02*
X44763790Y9385878D01*
X44763790Y9385878D02*
X44825695Y9262068D01*
X44825695Y9262068D02*
X44887600Y9200163D01*
X44887600Y9200163D02*
X45011409Y9138259D01*
X45011409Y9138259D02*
X45259028Y9138259D01*
X45259028Y9138259D02*
X45382838Y9200163D01*
X45382838Y9200163D02*
X45444743Y9262068D01*
X45444743Y9262068D02*
X45506647Y9385878D01*
X45506647Y9385878D02*
X45506647Y10438259D01*
X46063791Y9509687D02*
X46682838Y9509687D01*
X45939981Y9138259D02*
X46373314Y10438259D01*
X46373314Y10438259D02*
X46806648Y9138259D01*
X47982838Y9138259D02*
X47549505Y9757306D01*
X47239981Y9138259D02*
X47239981Y10438259D01*
X47239981Y10438259D02*
X47735219Y10438259D01*
X47735219Y10438259D02*
X47859029Y10376354D01*
X47859029Y10376354D02*
X47920934Y10314449D01*
X47920934Y10314449D02*
X47982838Y10190640D01*
X47982838Y10190640D02*
X47982838Y10004925D01*
X47982838Y10004925D02*
X47920934Y9881116D01*
X47920934Y9881116D02*
X47859029Y9819211D01*
X47859029Y9819211D02*
X47735219Y9757306D01*
X47735219Y9757306D02*
X47239981Y9757306D01*
X48354267Y10438259D02*
X49097124Y10438259D01*
X48725696Y9138259D02*
X48725696Y10438259D01*
X42163790Y7045332D02*
X42163790Y8345332D01*
X42163790Y8345332D02*
X42659028Y8345332D01*
X42659028Y8345332D02*
X42782838Y8283427D01*
X42782838Y8283427D02*
X42844743Y8221522D01*
X42844743Y8221522D02*
X42906647Y8097713D01*
X42906647Y8097713D02*
X42906647Y7911998D01*
X42906647Y7911998D02*
X42844743Y7788189D01*
X42844743Y7788189D02*
X42782838Y7726284D01*
X42782838Y7726284D02*
X42659028Y7664379D01*
X42659028Y7664379D02*
X42163790Y7664379D01*
X43959028Y7107236D02*
X43835219Y7045332D01*
X43835219Y7045332D02*
X43587600Y7045332D01*
X43587600Y7045332D02*
X43463790Y7107236D01*
X43463790Y7107236D02*
X43401886Y7231046D01*
X43401886Y7231046D02*
X43401886Y7726284D01*
X43401886Y7726284D02*
X43463790Y7850094D01*
X43463790Y7850094D02*
X43587600Y7911998D01*
X43587600Y7911998D02*
X43835219Y7911998D01*
X43835219Y7911998D02*
X43959028Y7850094D01*
X43959028Y7850094D02*
X44020933Y7726284D01*
X44020933Y7726284D02*
X44020933Y7602475D01*
X44020933Y7602475D02*
X43401886Y7478665D01*
X44578076Y7045332D02*
X44578076Y7911998D01*
X44578076Y7664379D02*
X44639981Y7788189D01*
X44639981Y7788189D02*
X44701886Y7850094D01*
X44701886Y7850094D02*
X44825695Y7911998D01*
X44825695Y7911998D02*
X44949505Y7911998D01*
X45382838Y7045332D02*
X45382838Y7911998D01*
X45382838Y8345332D02*
X45320934Y8283427D01*
X45320934Y8283427D02*
X45382838Y8221522D01*
X45382838Y8221522D02*
X45444743Y8283427D01*
X45444743Y8283427D02*
X45382838Y8345332D01*
X45382838Y8345332D02*
X45382838Y8221522D01*
X46001886Y7911998D02*
X46001886Y6611998D01*
X46001886Y7850094D02*
X46125696Y7911998D01*
X46125696Y7911998D02*
X46373315Y7911998D01*
X46373315Y7911998D02*
X46497124Y7850094D01*
X46497124Y7850094D02*
X46559029Y7788189D01*
X46559029Y7788189D02*
X46620934Y7664379D01*
X46620934Y7664379D02*
X46620934Y7292951D01*
X46620934Y7292951D02*
X46559029Y7169141D01*
X46559029Y7169141D02*
X46497124Y7107236D01*
X46497124Y7107236D02*
X46373315Y7045332D01*
X46373315Y7045332D02*
X46125696Y7045332D01*
X46125696Y7045332D02*
X46001886Y7107236D01*
X47178076Y7045332D02*
X47178076Y8345332D01*
X47735219Y7045332D02*
X47735219Y7726284D01*
X47735219Y7726284D02*
X47673314Y7850094D01*
X47673314Y7850094D02*
X47549505Y7911998D01*
X47549505Y7911998D02*
X47363791Y7911998D01*
X47363791Y7911998D02*
X47239981Y7850094D01*
X47239981Y7850094D02*
X47178076Y7788189D01*
X48849504Y7107236D02*
X48725695Y7045332D01*
X48725695Y7045332D02*
X48478076Y7045332D01*
X48478076Y7045332D02*
X48354266Y7107236D01*
X48354266Y7107236D02*
X48292362Y7231046D01*
X48292362Y7231046D02*
X48292362Y7726284D01*
X48292362Y7726284D02*
X48354266Y7850094D01*
X48354266Y7850094D02*
X48478076Y7911998D01*
X48478076Y7911998D02*
X48725695Y7911998D01*
X48725695Y7911998D02*
X48849504Y7850094D01*
X48849504Y7850094D02*
X48911409Y7726284D01*
X48911409Y7726284D02*
X48911409Y7602475D01*
X48911409Y7602475D02*
X48292362Y7478665D01*
X49468552Y7045332D02*
X49468552Y7911998D01*
X49468552Y7664379D02*
X49530457Y7788189D01*
X49530457Y7788189D02*
X49592362Y7850094D01*
X49592362Y7850094D02*
X49716171Y7911998D01*
X49716171Y7911998D02*
X49839981Y7911998D01*
X50830457Y7045332D02*
X50830457Y7726284D01*
X50830457Y7726284D02*
X50768552Y7850094D01*
X50768552Y7850094D02*
X50644743Y7911998D01*
X50644743Y7911998D02*
X50397124Y7911998D01*
X50397124Y7911998D02*
X50273314Y7850094D01*
X50830457Y7107236D02*
X50706648Y7045332D01*
X50706648Y7045332D02*
X50397124Y7045332D01*
X50397124Y7045332D02*
X50273314Y7107236D01*
X50273314Y7107236D02*
X50211410Y7231046D01*
X50211410Y7231046D02*
X50211410Y7354856D01*
X50211410Y7354856D02*
X50273314Y7478665D01*
X50273314Y7478665D02*
X50397124Y7540570D01*
X50397124Y7540570D02*
X50706648Y7540570D01*
X50706648Y7540570D02*
X50830457Y7602475D01*
X51635219Y7045332D02*
X51511409Y7107236D01*
X51511409Y7107236D02*
X51449504Y7231046D01*
X51449504Y7231046D02*
X51449504Y8345332D01*
X54285454Y28139618D02*
X54161644Y28201523D01*
X54161644Y28201523D02*
X53975930Y28201523D01*
X53975930Y28201523D02*
X53790216Y28139618D01*
X53790216Y28139618D02*
X53666406Y28015808D01*
X53666406Y28015808D02*
X53604501Y27891999D01*
X53604501Y27891999D02*
X53542597Y27644380D01*
X53542597Y27644380D02*
X53542597Y27458666D01*
X53542597Y27458666D02*
X53604501Y27211047D01*
X53604501Y27211047D02*
X53666406Y27087237D01*
X53666406Y27087237D02*
X53790216Y26963427D01*
X53790216Y26963427D02*
X53975930Y26901523D01*
X53975930Y26901523D02*
X54099739Y26901523D01*
X54099739Y26901523D02*
X54285454Y26963427D01*
X54285454Y26963427D02*
X54347358Y27025332D01*
X54347358Y27025332D02*
X54347358Y27458666D01*
X54347358Y27458666D02*
X54099739Y27458666D01*
X54904501Y26901523D02*
X54904501Y28201523D01*
X54904501Y28201523D02*
X55647358Y26901523D01*
X55647358Y26901523D02*
X55647358Y28201523D01*
X56266406Y26901523D02*
X56266406Y28201523D01*
X56266406Y28201523D02*
X56575930Y28201523D01*
X56575930Y28201523D02*
X56761644Y28139618D01*
X56761644Y28139618D02*
X56885454Y28015808D01*
X56885454Y28015808D02*
X56947359Y27891999D01*
X56947359Y27891999D02*
X57009263Y27644380D01*
X57009263Y27644380D02*
X57009263Y27458666D01*
X57009263Y27458666D02*
X56947359Y27211047D01*
X56947359Y27211047D02*
X56885454Y27087237D01*
X56885454Y27087237D02*
X56761644Y26963427D01*
X56761644Y26963427D02*
X56575930Y26901523D01*
X56575930Y26901523D02*
X56266406Y26901523D01*
X53604501Y24808596D02*
X53604501Y26108596D01*
X53604501Y26108596D02*
X54099739Y26108596D01*
X54099739Y26108596D02*
X54223549Y26046691D01*
X54223549Y26046691D02*
X54285454Y25984786D01*
X54285454Y25984786D02*
X54347358Y25860977D01*
X54347358Y25860977D02*
X54347358Y25675262D01*
X54347358Y25675262D02*
X54285454Y25551453D01*
X54285454Y25551453D02*
X54223549Y25489548D01*
X54223549Y25489548D02*
X54099739Y25427643D01*
X54099739Y25427643D02*
X53604501Y25427643D01*
X55337835Y25489548D02*
X55523549Y25427643D01*
X55523549Y25427643D02*
X55585454Y25365739D01*
X55585454Y25365739D02*
X55647358Y25241929D01*
X55647358Y25241929D02*
X55647358Y25056215D01*
X55647358Y25056215D02*
X55585454Y24932405D01*
X55585454Y24932405D02*
X55523549Y24870500D01*
X55523549Y24870500D02*
X55399739Y24808596D01*
X55399739Y24808596D02*
X54904501Y24808596D01*
X54904501Y24808596D02*
X54904501Y26108596D01*
X54904501Y26108596D02*
X55337835Y26108596D01*
X55337835Y26108596D02*
X55461644Y26046691D01*
X55461644Y26046691D02*
X55523549Y25984786D01*
X55523549Y25984786D02*
X55585454Y25860977D01*
X55585454Y25860977D02*
X55585454Y25737167D01*
X55585454Y25737167D02*
X55523549Y25613358D01*
X55523549Y25613358D02*
X55461644Y25551453D01*
X55461644Y25551453D02*
X55337835Y25489548D01*
X55337835Y25489548D02*
X54904501Y25489548D01*
X56823549Y26108596D02*
X56204501Y26108596D01*
X56204501Y26108596D02*
X56142597Y25489548D01*
X56142597Y25489548D02*
X56204501Y25551453D01*
X56204501Y25551453D02*
X56328311Y25613358D01*
X56328311Y25613358D02*
X56637835Y25613358D01*
X56637835Y25613358D02*
X56761644Y25551453D01*
X56761644Y25551453D02*
X56823549Y25489548D01*
X56823549Y25489548D02*
X56885454Y25365739D01*
X56885454Y25365739D02*
X56885454Y25056215D01*
X56885454Y25056215D02*
X56823549Y24932405D01*
X56823549Y24932405D02*
X56761644Y24870500D01*
X56761644Y24870500D02*
X56637835Y24808596D01*
X56637835Y24808596D02*
X56328311Y24808596D01*
X56328311Y24808596D02*
X56204501Y24870500D01*
X56204501Y24870500D02*
X56142597Y24932405D01*
X53480692Y24015669D02*
X54285454Y24015669D01*
X54285454Y24015669D02*
X53852120Y23520431D01*
X53852120Y23520431D02*
X54037835Y23520431D01*
X54037835Y23520431D02*
X54161644Y23458526D01*
X54161644Y23458526D02*
X54223549Y23396621D01*
X54223549Y23396621D02*
X54285454Y23272812D01*
X54285454Y23272812D02*
X54285454Y22963288D01*
X54285454Y22963288D02*
X54223549Y22839478D01*
X54223549Y22839478D02*
X54161644Y22777573D01*
X54161644Y22777573D02*
X54037835Y22715669D01*
X54037835Y22715669D02*
X53666406Y22715669D01*
X53666406Y22715669D02*
X53542597Y22777573D01*
X53542597Y22777573D02*
X53480692Y22839478D01*
X54656882Y24015669D02*
X55090215Y22715669D01*
X55090215Y22715669D02*
X55523549Y24015669D01*
X55833073Y24015669D02*
X56637835Y24015669D01*
X56637835Y24015669D02*
X56204501Y23520431D01*
X56204501Y23520431D02*
X56390216Y23520431D01*
X56390216Y23520431D02*
X56514025Y23458526D01*
X56514025Y23458526D02*
X56575930Y23396621D01*
X56575930Y23396621D02*
X56637835Y23272812D01*
X56637835Y23272812D02*
X56637835Y22963288D01*
X56637835Y22963288D02*
X56575930Y22839478D01*
X56575930Y22839478D02*
X56514025Y22777573D01*
X56514025Y22777573D02*
X56390216Y22715669D01*
X56390216Y22715669D02*
X56018787Y22715669D01*
X56018787Y22715669D02*
X55894978Y22777573D01*
X55894978Y22777573D02*
X55833073Y22839478D01*
X62236804Y38089391D02*
X60936804Y38089391D01*
X60936804Y38089391D02*
X60936804Y38584629D01*
X60936804Y38584629D02*
X60998709Y38708439D01*
X60998709Y38708439D02*
X61060614Y38770344D01*
X61060614Y38770344D02*
X61184423Y38832248D01*
X61184423Y38832248D02*
X61370138Y38832248D01*
X61370138Y38832248D02*
X61493947Y38770344D01*
X61493947Y38770344D02*
X61555852Y38708439D01*
X61555852Y38708439D02*
X61617757Y38584629D01*
X61617757Y38584629D02*
X61617757Y38089391D01*
X60936804Y39265582D02*
X62236804Y39575106D01*
X62236804Y39575106D02*
X61308233Y39822725D01*
X61308233Y39822725D02*
X62236804Y40070344D01*
X62236804Y40070344D02*
X60936804Y40379867D01*
X62236804Y41617962D02*
X61617757Y41184629D01*
X62236804Y40875105D02*
X60936804Y40875105D01*
X60936804Y40875105D02*
X60936804Y41370343D01*
X60936804Y41370343D02*
X60998709Y41494153D01*
X60998709Y41494153D02*
X61060614Y41556058D01*
X61060614Y41556058D02*
X61184423Y41617962D01*
X61184423Y41617962D02*
X61370138Y41617962D01*
X61370138Y41617962D02*
X61493947Y41556058D01*
X61493947Y41556058D02*
X61555852Y41494153D01*
X61555852Y41494153D02*
X61617757Y41370343D01*
X61617757Y41370343D02*
X61617757Y40875105D01*
X60936804Y43041772D02*
X60936804Y43846534D01*
X60936804Y43846534D02*
X61432042Y43413200D01*
X61432042Y43413200D02*
X61432042Y43598915D01*
X61432042Y43598915D02*
X61493947Y43722724D01*
X61493947Y43722724D02*
X61555852Y43784629D01*
X61555852Y43784629D02*
X61679661Y43846534D01*
X61679661Y43846534D02*
X61989185Y43846534D01*
X61989185Y43846534D02*
X62112995Y43784629D01*
X62112995Y43784629D02*
X62174900Y43722724D01*
X62174900Y43722724D02*
X62236804Y43598915D01*
X62236804Y43598915D02*
X62236804Y43227486D01*
X62236804Y43227486D02*
X62174900Y43103677D01*
X62174900Y43103677D02*
X62112995Y43041772D01*
X60936804Y44217962D02*
X62236804Y44651295D01*
X62236804Y44651295D02*
X60936804Y45084629D01*
X60936804Y45394153D02*
X60936804Y46198915D01*
X60936804Y46198915D02*
X61432042Y45765581D01*
X61432042Y45765581D02*
X61432042Y45951296D01*
X61432042Y45951296D02*
X61493947Y46075105D01*
X61493947Y46075105D02*
X61555852Y46137010D01*
X61555852Y46137010D02*
X61679661Y46198915D01*
X61679661Y46198915D02*
X61989185Y46198915D01*
X61989185Y46198915D02*
X62112995Y46137010D01*
X62112995Y46137010D02*
X62174900Y46075105D01*
X62174900Y46075105D02*
X62236804Y45951296D01*
X62236804Y45951296D02*
X62236804Y45579867D01*
X62236804Y45579867D02*
X62174900Y45456058D01*
X62174900Y45456058D02*
X62112995Y45394153D01*
X58747358Y26901523D02*
X58314025Y27520570D01*
X58004501Y26901523D02*
X58004501Y28201523D01*
X58004501Y28201523D02*
X58499739Y28201523D01*
X58499739Y28201523D02*
X58623549Y28139618D01*
X58623549Y28139618D02*
X58685454Y28077713D01*
X58685454Y28077713D02*
X58747358Y27953904D01*
X58747358Y27953904D02*
X58747358Y27768189D01*
X58747358Y27768189D02*
X58685454Y27644380D01*
X58685454Y27644380D02*
X58623549Y27582475D01*
X58623549Y27582475D02*
X58499739Y27520570D01*
X58499739Y27520570D02*
X58004501Y27520570D01*
X59242597Y26963427D02*
X59428311Y26901523D01*
X59428311Y26901523D02*
X59737835Y26901523D01*
X59737835Y26901523D02*
X59861644Y26963427D01*
X59861644Y26963427D02*
X59923549Y27025332D01*
X59923549Y27025332D02*
X59985454Y27149142D01*
X59985454Y27149142D02*
X59985454Y27272951D01*
X59985454Y27272951D02*
X59923549Y27396761D01*
X59923549Y27396761D02*
X59861644Y27458666D01*
X59861644Y27458666D02*
X59737835Y27520570D01*
X59737835Y27520570D02*
X59490216Y27582475D01*
X59490216Y27582475D02*
X59366406Y27644380D01*
X59366406Y27644380D02*
X59304501Y27706285D01*
X59304501Y27706285D02*
X59242597Y27830094D01*
X59242597Y27830094D02*
X59242597Y27953904D01*
X59242597Y27953904D02*
X59304501Y28077713D01*
X59304501Y28077713D02*
X59366406Y28139618D01*
X59366406Y28139618D02*
X59490216Y28201523D01*
X59490216Y28201523D02*
X59799739Y28201523D01*
X59799739Y28201523D02*
X59985454Y28139618D01*
X60356882Y28201523D02*
X61099739Y28201523D01*
X60728311Y26901523D02*
X60728311Y28201523D01*
X57824978Y28562427D02*
X61093549Y28562427D01*
X58004501Y24808596D02*
X58004501Y26108596D01*
X58004501Y26108596D02*
X58499739Y26108596D01*
X58499739Y26108596D02*
X58623549Y26046691D01*
X58623549Y26046691D02*
X58685454Y25984786D01*
X58685454Y25984786D02*
X58747358Y25860977D01*
X58747358Y25860977D02*
X58747358Y25675262D01*
X58747358Y25675262D02*
X58685454Y25551453D01*
X58685454Y25551453D02*
X58623549Y25489548D01*
X58623549Y25489548D02*
X58499739Y25427643D01*
X58499739Y25427643D02*
X58004501Y25427643D01*
X59737835Y25489548D02*
X59923549Y25427643D01*
X59923549Y25427643D02*
X59985454Y25365739D01*
X59985454Y25365739D02*
X60047358Y25241929D01*
X60047358Y25241929D02*
X60047358Y25056215D01*
X60047358Y25056215D02*
X59985454Y24932405D01*
X59985454Y24932405D02*
X59923549Y24870500D01*
X59923549Y24870500D02*
X59799739Y24808596D01*
X59799739Y24808596D02*
X59304501Y24808596D01*
X59304501Y24808596D02*
X59304501Y26108596D01*
X59304501Y26108596D02*
X59737835Y26108596D01*
X59737835Y26108596D02*
X59861644Y26046691D01*
X59861644Y26046691D02*
X59923549Y25984786D01*
X59923549Y25984786D02*
X59985454Y25860977D01*
X59985454Y25860977D02*
X59985454Y25737167D01*
X59985454Y25737167D02*
X59923549Y25613358D01*
X59923549Y25613358D02*
X59861644Y25551453D01*
X59861644Y25551453D02*
X59737835Y25489548D01*
X59737835Y25489548D02*
X59304501Y25489548D01*
X60480692Y26108596D02*
X61347358Y26108596D01*
X61347358Y26108596D02*
X60790216Y24808596D01*
X58004501Y22715669D02*
X58004501Y24015669D01*
X58004501Y24015669D02*
X58499739Y24015669D01*
X58499739Y24015669D02*
X58623549Y23953764D01*
X58623549Y23953764D02*
X58685454Y23891859D01*
X58685454Y23891859D02*
X58747358Y23768050D01*
X58747358Y23768050D02*
X58747358Y23582335D01*
X58747358Y23582335D02*
X58685454Y23458526D01*
X58685454Y23458526D02*
X58623549Y23396621D01*
X58623549Y23396621D02*
X58499739Y23334716D01*
X58499739Y23334716D02*
X58004501Y23334716D01*
X59737835Y23396621D02*
X59923549Y23334716D01*
X59923549Y23334716D02*
X59985454Y23272812D01*
X59985454Y23272812D02*
X60047358Y23149002D01*
X60047358Y23149002D02*
X60047358Y22963288D01*
X60047358Y22963288D02*
X59985454Y22839478D01*
X59985454Y22839478D02*
X59923549Y22777573D01*
X59923549Y22777573D02*
X59799739Y22715669D01*
X59799739Y22715669D02*
X59304501Y22715669D01*
X59304501Y22715669D02*
X59304501Y24015669D01*
X59304501Y24015669D02*
X59737835Y24015669D01*
X59737835Y24015669D02*
X59861644Y23953764D01*
X59861644Y23953764D02*
X59923549Y23891859D01*
X59923549Y23891859D02*
X59985454Y23768050D01*
X59985454Y23768050D02*
X59985454Y23644240D01*
X59985454Y23644240D02*
X59923549Y23520431D01*
X59923549Y23520431D02*
X59861644Y23458526D01*
X59861644Y23458526D02*
X59737835Y23396621D01*
X59737835Y23396621D02*
X59304501Y23396621D01*
X61161644Y24015669D02*
X60914025Y24015669D01*
X60914025Y24015669D02*
X60790216Y23953764D01*
X60790216Y23953764D02*
X60728311Y23891859D01*
X60728311Y23891859D02*
X60604501Y23706145D01*
X60604501Y23706145D02*
X60542597Y23458526D01*
X60542597Y23458526D02*
X60542597Y22963288D01*
X60542597Y22963288D02*
X60604501Y22839478D01*
X60604501Y22839478D02*
X60666406Y22777573D01*
X60666406Y22777573D02*
X60790216Y22715669D01*
X60790216Y22715669D02*
X61037835Y22715669D01*
X61037835Y22715669D02*
X61161644Y22777573D01*
X61161644Y22777573D02*
X61223549Y22839478D01*
X61223549Y22839478D02*
X61285454Y22963288D01*
X61285454Y22963288D02*
X61285454Y23272812D01*
X61285454Y23272812D02*
X61223549Y23396621D01*
X61223549Y23396621D02*
X61161644Y23458526D01*
X61161644Y23458526D02*
X61037835Y23520431D01*
X61037835Y23520431D02*
X60790216Y23520431D01*
X60790216Y23520431D02*
X60666406Y23458526D01*
X60666406Y23458526D02*
X60604501Y23396621D01*
X60604501Y23396621D02*
X60542597Y23272812D01*
X73205004Y14993954D02*
X73205004Y15736811D01*
X74505004Y15365383D02*
X73205004Y15365383D01*
X74505004Y16170144D02*
X73205004Y16170144D01*
X74505004Y16727287D02*
X73824052Y16727287D01*
X73824052Y16727287D02*
X73700242Y16665382D01*
X73700242Y16665382D02*
X73638338Y16541573D01*
X73638338Y16541573D02*
X73638338Y16355859D01*
X73638338Y16355859D02*
X73700242Y16232049D01*
X73700242Y16232049D02*
X73762147Y16170144D01*
X73638338Y17903477D02*
X74505004Y17903477D01*
X73638338Y17346334D02*
X74319290Y17346334D01*
X74319290Y17346334D02*
X74443100Y17408239D01*
X74443100Y17408239D02*
X74505004Y17532049D01*
X74505004Y17532049D02*
X74505004Y17717763D01*
X74505004Y17717763D02*
X74443100Y17841572D01*
X74443100Y17841572D02*
X74381195Y17903477D01*
X73638338Y18522524D02*
X74505004Y18522524D01*
X73762147Y18522524D02*
X73700242Y18584429D01*
X73700242Y18584429D02*
X73638338Y18708239D01*
X73638338Y18708239D02*
X73638338Y18893953D01*
X73638338Y18893953D02*
X73700242Y19017762D01*
X73700242Y19017762D02*
X73824052Y19079667D01*
X73824052Y19079667D02*
X74505004Y19079667D01*
X74505004Y20255857D02*
X73205004Y20255857D01*
X74443100Y20255857D02*
X74505004Y20132048D01*
X74505004Y20132048D02*
X74505004Y19884429D01*
X74505004Y19884429D02*
X74443100Y19760619D01*
X74443100Y19760619D02*
X74381195Y19698714D01*
X74381195Y19698714D02*
X74257385Y19636810D01*
X74257385Y19636810D02*
X73885957Y19636810D01*
X73885957Y19636810D02*
X73762147Y19698714D01*
X73762147Y19698714D02*
X73700242Y19760619D01*
X73700242Y19760619D02*
X73638338Y19884429D01*
X73638338Y19884429D02*
X73638338Y20132048D01*
X73638338Y20132048D02*
X73700242Y20255857D01*
X74443100Y21370142D02*
X74505004Y21246333D01*
X74505004Y21246333D02*
X74505004Y20998714D01*
X74505004Y20998714D02*
X74443100Y20874904D01*
X74443100Y20874904D02*
X74319290Y20813000D01*
X74319290Y20813000D02*
X73824052Y20813000D01*
X73824052Y20813000D02*
X73700242Y20874904D01*
X73700242Y20874904D02*
X73638338Y20998714D01*
X73638338Y20998714D02*
X73638338Y21246333D01*
X73638338Y21246333D02*
X73700242Y21370142D01*
X73700242Y21370142D02*
X73824052Y21432047D01*
X73824052Y21432047D02*
X73947861Y21432047D01*
X73947861Y21432047D02*
X74071671Y20813000D01*
X74505004Y21989190D02*
X73638338Y21989190D01*
X73885957Y21989190D02*
X73762147Y22051095D01*
X73762147Y22051095D02*
X73700242Y22113000D01*
X73700242Y22113000D02*
X73638338Y22236809D01*
X73638338Y22236809D02*
X73638338Y22360619D01*
X73824052Y23227286D02*
X73824052Y22793952D01*
X74505004Y22793952D02*
X73205004Y22793952D01*
X73205004Y22793952D02*
X73205004Y23413000D01*
X74505004Y24093953D02*
X74443100Y23970143D01*
X74443100Y23970143D02*
X74319290Y23908238D01*
X74319290Y23908238D02*
X73205004Y23908238D01*
X73638338Y24465381D02*
X74505004Y24774905D01*
X73638338Y25084428D02*
X74505004Y24774905D01*
X74505004Y24774905D02*
X74814528Y24651095D01*
X74814528Y24651095D02*
X74876433Y24589190D01*
X74876433Y24589190D02*
X74938338Y24465381D01*
X74381195Y25579666D02*
X74443100Y25641571D01*
X74443100Y25641571D02*
X74505004Y25579666D01*
X74505004Y25579666D02*
X74443100Y25517762D01*
X74443100Y25517762D02*
X74381195Y25579666D01*
X74381195Y25579666D02*
X74505004Y25579666D01*
X74443100Y26755857D02*
X74505004Y26632048D01*
X74505004Y26632048D02*
X74505004Y26384429D01*
X74505004Y26384429D02*
X74443100Y26260619D01*
X74443100Y26260619D02*
X74381195Y26198714D01*
X74381195Y26198714D02*
X74257385Y26136810D01*
X74257385Y26136810D02*
X73885957Y26136810D01*
X73885957Y26136810D02*
X73762147Y26198714D01*
X73762147Y26198714D02*
X73700242Y26260619D01*
X73700242Y26260619D02*
X73638338Y26384429D01*
X73638338Y26384429D02*
X73638338Y26632048D01*
X73638338Y26632048D02*
X73700242Y26755857D01*
X73638338Y27189191D02*
X73638338Y27870143D01*
X73638338Y27870143D02*
X74505004Y27189191D01*
X74505004Y27189191D02*
X74505004Y27870143D01*
X10635638Y36264396D02*
X10016590Y36264396D01*
X10016590Y36264396D02*
X10016590Y37564396D01*
X11068971Y36945348D02*
X11502305Y36945348D01*
X11688019Y36264396D02*
X11068971Y36264396D01*
X11068971Y36264396D02*
X11068971Y37564396D01*
X11068971Y37564396D02*
X11688019Y37564396D01*
X12245161Y36264396D02*
X12245161Y37564396D01*
X12245161Y37564396D02*
X12554685Y37564396D01*
X12554685Y37564396D02*
X12740399Y37502491D01*
X12740399Y37502491D02*
X12864209Y37378681D01*
X12864209Y37378681D02*
X12926114Y37254872D01*
X12926114Y37254872D02*
X12988018Y37007253D01*
X12988018Y37007253D02*
X12988018Y36821539D01*
X12988018Y36821539D02*
X12926114Y36573920D01*
X12926114Y36573920D02*
X12864209Y36450110D01*
X12864209Y36450110D02*
X12740399Y36326300D01*
X12740399Y36326300D02*
X12554685Y36264396D01*
X12554685Y36264396D02*
X12245161Y36264396D01*
X13483257Y37440586D02*
X13545161Y37502491D01*
X13545161Y37502491D02*
X13668971Y37564396D01*
X13668971Y37564396D02*
X13978495Y37564396D01*
X13978495Y37564396D02*
X14102304Y37502491D01*
X14102304Y37502491D02*
X14164209Y37440586D01*
X14164209Y37440586D02*
X14226114Y37316777D01*
X14226114Y37316777D02*
X14226114Y37192967D01*
X14226114Y37192967D02*
X14164209Y37007253D01*
X14164209Y37007253D02*
X13421352Y36264396D01*
X13421352Y36264396D02*
X14226114Y36264396D01*
X10584838Y40937996D02*
X9965790Y40937996D01*
X9965790Y40937996D02*
X9965790Y42237996D01*
X11018171Y41618948D02*
X11451505Y41618948D01*
X11637219Y40937996D02*
X11018171Y40937996D01*
X11018171Y40937996D02*
X11018171Y42237996D01*
X11018171Y42237996D02*
X11637219Y42237996D01*
X12194361Y40937996D02*
X12194361Y42237996D01*
X12194361Y42237996D02*
X12503885Y42237996D01*
X12503885Y42237996D02*
X12689599Y42176091D01*
X12689599Y42176091D02*
X12813409Y42052281D01*
X12813409Y42052281D02*
X12875314Y41928472D01*
X12875314Y41928472D02*
X12937218Y41680853D01*
X12937218Y41680853D02*
X12937218Y41495139D01*
X12937218Y41495139D02*
X12875314Y41247520D01*
X12875314Y41247520D02*
X12813409Y41123710D01*
X12813409Y41123710D02*
X12689599Y40999900D01*
X12689599Y40999900D02*
X12503885Y40937996D01*
X12503885Y40937996D02*
X12194361Y40937996D01*
X14175314Y40937996D02*
X13432457Y40937996D01*
X13803885Y40937996D02*
X13803885Y42237996D01*
X13803885Y42237996D02*
X13680076Y42052281D01*
X13680076Y42052281D02*
X13556266Y41928472D01*
X13556266Y41928472D02*
X13432457Y41866567D01*
X57689448Y9034127D02*
X57875162Y8972223D01*
X57875162Y8972223D02*
X58184686Y8972223D01*
X58184686Y8972223D02*
X58308495Y9034127D01*
X58308495Y9034127D02*
X58370400Y9096032D01*
X58370400Y9096032D02*
X58432305Y9219842D01*
X58432305Y9219842D02*
X58432305Y9343651D01*
X58432305Y9343651D02*
X58370400Y9467461D01*
X58370400Y9467461D02*
X58308495Y9529366D01*
X58308495Y9529366D02*
X58184686Y9591270D01*
X58184686Y9591270D02*
X57937067Y9653175D01*
X57937067Y9653175D02*
X57813257Y9715080D01*
X57813257Y9715080D02*
X57751352Y9776985D01*
X57751352Y9776985D02*
X57689448Y9900794D01*
X57689448Y9900794D02*
X57689448Y10024604D01*
X57689448Y10024604D02*
X57751352Y10148413D01*
X57751352Y10148413D02*
X57813257Y10210318D01*
X57813257Y10210318D02*
X57937067Y10272223D01*
X57937067Y10272223D02*
X58246590Y10272223D01*
X58246590Y10272223D02*
X58432305Y10210318D01*
X58989447Y8972223D02*
X58989447Y10272223D01*
X58989447Y10272223D02*
X59484685Y10272223D01*
X59484685Y10272223D02*
X59608495Y10210318D01*
X59608495Y10210318D02*
X59670400Y10148413D01*
X59670400Y10148413D02*
X59732304Y10024604D01*
X59732304Y10024604D02*
X59732304Y9838889D01*
X59732304Y9838889D02*
X59670400Y9715080D01*
X59670400Y9715080D02*
X59608495Y9653175D01*
X59608495Y9653175D02*
X59484685Y9591270D01*
X59484685Y9591270D02*
X58989447Y9591270D01*
X60289447Y8972223D02*
X60289447Y10272223D01*
X56018019Y6879296D02*
X56018019Y7745962D01*
X56018019Y7622153D02*
X56079924Y7684058D01*
X56079924Y7684058D02*
X56203734Y7745962D01*
X56203734Y7745962D02*
X56389448Y7745962D01*
X56389448Y7745962D02*
X56513257Y7684058D01*
X56513257Y7684058D02*
X56575162Y7560248D01*
X56575162Y7560248D02*
X56575162Y6879296D01*
X56575162Y7560248D02*
X56637067Y7684058D01*
X56637067Y7684058D02*
X56760876Y7745962D01*
X56760876Y7745962D02*
X56946591Y7745962D01*
X56946591Y7745962D02*
X57070400Y7684058D01*
X57070400Y7684058D02*
X57132305Y7560248D01*
X57132305Y7560248D02*
X57132305Y6879296D01*
X58308495Y6879296D02*
X58308495Y7560248D01*
X58308495Y7560248D02*
X58246590Y7684058D01*
X58246590Y7684058D02*
X58122781Y7745962D01*
X58122781Y7745962D02*
X57875162Y7745962D01*
X57875162Y7745962D02*
X57751352Y7684058D01*
X58308495Y6941200D02*
X58184686Y6879296D01*
X58184686Y6879296D02*
X57875162Y6879296D01*
X57875162Y6879296D02*
X57751352Y6941200D01*
X57751352Y6941200D02*
X57689448Y7065010D01*
X57689448Y7065010D02*
X57689448Y7188820D01*
X57689448Y7188820D02*
X57751352Y7312629D01*
X57751352Y7312629D02*
X57875162Y7374534D01*
X57875162Y7374534D02*
X58184686Y7374534D01*
X58184686Y7374534D02*
X58308495Y7436439D01*
X58865638Y6941200D02*
X58989447Y6879296D01*
X58989447Y6879296D02*
X59237066Y6879296D01*
X59237066Y6879296D02*
X59360876Y6941200D01*
X59360876Y6941200D02*
X59422780Y7065010D01*
X59422780Y7065010D02*
X59422780Y7126915D01*
X59422780Y7126915D02*
X59360876Y7250724D01*
X59360876Y7250724D02*
X59237066Y7312629D01*
X59237066Y7312629D02*
X59051352Y7312629D01*
X59051352Y7312629D02*
X58927542Y7374534D01*
X58927542Y7374534D02*
X58865638Y7498343D01*
X58865638Y7498343D02*
X58865638Y7560248D01*
X58865638Y7560248D02*
X58927542Y7684058D01*
X58927542Y7684058D02*
X59051352Y7745962D01*
X59051352Y7745962D02*
X59237066Y7745962D01*
X59237066Y7745962D02*
X59360876Y7684058D01*
X59794209Y7745962D02*
X60289447Y7745962D01*
X59979923Y8179296D02*
X59979923Y7065010D01*
X59979923Y7065010D02*
X60041828Y6941200D01*
X60041828Y6941200D02*
X60165638Y6879296D01*
X60165638Y6879296D02*
X60289447Y6879296D01*
X61218018Y6941200D02*
X61094209Y6879296D01*
X61094209Y6879296D02*
X60846590Y6879296D01*
X60846590Y6879296D02*
X60722780Y6941200D01*
X60722780Y6941200D02*
X60660876Y7065010D01*
X60660876Y7065010D02*
X60660876Y7560248D01*
X60660876Y7560248D02*
X60722780Y7684058D01*
X60722780Y7684058D02*
X60846590Y7745962D01*
X60846590Y7745962D02*
X61094209Y7745962D01*
X61094209Y7745962D02*
X61218018Y7684058D01*
X61218018Y7684058D02*
X61279923Y7560248D01*
X61279923Y7560248D02*
X61279923Y7436439D01*
X61279923Y7436439D02*
X60660876Y7312629D01*
X61837066Y6879296D02*
X61837066Y7745962D01*
X61837066Y7498343D02*
X61898971Y7622153D01*
X61898971Y7622153D02*
X61960876Y7684058D01*
X61960876Y7684058D02*
X62084685Y7745962D01*
X62084685Y7745962D02*
X62208495Y7745962D01*
X10686438Y31692396D02*
X10067390Y31692396D01*
X10067390Y31692396D02*
X10067390Y32992396D01*
X11119771Y32373348D02*
X11553105Y32373348D01*
X11738819Y31692396D02*
X11119771Y31692396D01*
X11119771Y31692396D02*
X11119771Y32992396D01*
X11119771Y32992396D02*
X11738819Y32992396D01*
X12295961Y31692396D02*
X12295961Y32992396D01*
X12295961Y32992396D02*
X12605485Y32992396D01*
X12605485Y32992396D02*
X12791199Y32930491D01*
X12791199Y32930491D02*
X12915009Y32806681D01*
X12915009Y32806681D02*
X12976914Y32682872D01*
X12976914Y32682872D02*
X13038818Y32435253D01*
X13038818Y32435253D02*
X13038818Y32249539D01*
X13038818Y32249539D02*
X12976914Y32001920D01*
X12976914Y32001920D02*
X12915009Y31878110D01*
X12915009Y31878110D02*
X12791199Y31754300D01*
X12791199Y31754300D02*
X12605485Y31692396D01*
X12605485Y31692396D02*
X12295961Y31692396D01*
X13472152Y32992396D02*
X14276914Y32992396D01*
X14276914Y32992396D02*
X13843580Y32497158D01*
X13843580Y32497158D02*
X14029295Y32497158D01*
X14029295Y32497158D02*
X14153104Y32435253D01*
X14153104Y32435253D02*
X14215009Y32373348D01*
X14215009Y32373348D02*
X14276914Y32249539D01*
X14276914Y32249539D02*
X14276914Y31940015D01*
X14276914Y31940015D02*
X14215009Y31816205D01*
X14215009Y31816205D02*
X14153104Y31754300D01*
X14153104Y31754300D02*
X14029295Y31692396D01*
X14029295Y31692396D02*
X13657866Y31692396D01*
X13657866Y31692396D02*
X13534057Y31754300D01*
X13534057Y31754300D02*
X13472152Y31816205D01*
X15769296Y10518459D02*
X16512153Y10518459D01*
X16140725Y9218459D02*
X16140725Y10518459D01*
X17378820Y9899411D02*
X16945486Y9899411D01*
X16945486Y9218459D02*
X16945486Y10518459D01*
X16945486Y10518459D02*
X17564534Y10518459D01*
X19050248Y9218459D02*
X19050248Y10518459D01*
X19050248Y10518459D02*
X19545486Y10518459D01*
X19545486Y10518459D02*
X19669296Y10456554D01*
X19669296Y10456554D02*
X19731201Y10394649D01*
X19731201Y10394649D02*
X19793105Y10270840D01*
X19793105Y10270840D02*
X19793105Y10085125D01*
X19793105Y10085125D02*
X19731201Y9961316D01*
X19731201Y9961316D02*
X19669296Y9899411D01*
X19669296Y9899411D02*
X19545486Y9837506D01*
X19545486Y9837506D02*
X19050248Y9837506D01*
X20907391Y9218459D02*
X20907391Y9899411D01*
X20907391Y9899411D02*
X20845486Y10023221D01*
X20845486Y10023221D02*
X20721677Y10085125D01*
X20721677Y10085125D02*
X20474058Y10085125D01*
X20474058Y10085125D02*
X20350248Y10023221D01*
X20907391Y9280363D02*
X20783582Y9218459D01*
X20783582Y9218459D02*
X20474058Y9218459D01*
X20474058Y9218459D02*
X20350248Y9280363D01*
X20350248Y9280363D02*
X20288344Y9404173D01*
X20288344Y9404173D02*
X20288344Y9527983D01*
X20288344Y9527983D02*
X20350248Y9651792D01*
X20350248Y9651792D02*
X20474058Y9713697D01*
X20474058Y9713697D02*
X20783582Y9713697D01*
X20783582Y9713697D02*
X20907391Y9775602D01*
X21402629Y10085125D02*
X21712153Y9218459D01*
X22021676Y10085125D02*
X21712153Y9218459D01*
X21712153Y9218459D02*
X21588343Y8908935D01*
X21588343Y8908935D02*
X21526438Y8847030D01*
X21526438Y8847030D02*
X21402629Y8785125D01*
X22702629Y9218459D02*
X22578819Y9280363D01*
X22578819Y9280363D02*
X22516914Y9404173D01*
X22516914Y9404173D02*
X22516914Y10518459D01*
X23383581Y9218459D02*
X23259771Y9280363D01*
X23259771Y9280363D02*
X23197866Y9342268D01*
X23197866Y9342268D02*
X23135962Y9466078D01*
X23135962Y9466078D02*
X23135962Y9837506D01*
X23135962Y9837506D02*
X23197866Y9961316D01*
X23197866Y9961316D02*
X23259771Y10023221D01*
X23259771Y10023221D02*
X23383581Y10085125D01*
X23383581Y10085125D02*
X23569295Y10085125D01*
X23569295Y10085125D02*
X23693104Y10023221D01*
X23693104Y10023221D02*
X23755009Y9961316D01*
X23755009Y9961316D02*
X23816914Y9837506D01*
X23816914Y9837506D02*
X23816914Y9466078D01*
X23816914Y9466078D02*
X23755009Y9342268D01*
X23755009Y9342268D02*
X23693104Y9280363D01*
X23693104Y9280363D02*
X23569295Y9218459D01*
X23569295Y9218459D02*
X23383581Y9218459D01*
X24931199Y9218459D02*
X24931199Y9899411D01*
X24931199Y9899411D02*
X24869294Y10023221D01*
X24869294Y10023221D02*
X24745485Y10085125D01*
X24745485Y10085125D02*
X24497866Y10085125D01*
X24497866Y10085125D02*
X24374056Y10023221D01*
X24931199Y9280363D02*
X24807390Y9218459D01*
X24807390Y9218459D02*
X24497866Y9218459D01*
X24497866Y9218459D02*
X24374056Y9280363D01*
X24374056Y9280363D02*
X24312152Y9404173D01*
X24312152Y9404173D02*
X24312152Y9527983D01*
X24312152Y9527983D02*
X24374056Y9651792D01*
X24374056Y9651792D02*
X24497866Y9713697D01*
X24497866Y9713697D02*
X24807390Y9713697D01*
X24807390Y9713697D02*
X24931199Y9775602D01*
X26107389Y9218459D02*
X26107389Y10518459D01*
X26107389Y9280363D02*
X25983580Y9218459D01*
X25983580Y9218459D02*
X25735961Y9218459D01*
X25735961Y9218459D02*
X25612151Y9280363D01*
X25612151Y9280363D02*
X25550246Y9342268D01*
X25550246Y9342268D02*
X25488342Y9466078D01*
X25488342Y9466078D02*
X25488342Y9837506D01*
X25488342Y9837506D02*
X25550246Y9961316D01*
X25550246Y9961316D02*
X25612151Y10023221D01*
X25612151Y10023221D02*
X25735961Y10085125D01*
X25735961Y10085125D02*
X25983580Y10085125D01*
X25983580Y10085125D02*
X26107389Y10023221D01*
X17193105Y7249341D02*
X17131201Y7187436D01*
X17131201Y7187436D02*
X16945486Y7125532D01*
X16945486Y7125532D02*
X16821677Y7125532D01*
X16821677Y7125532D02*
X16635963Y7187436D01*
X16635963Y7187436D02*
X16512153Y7311246D01*
X16512153Y7311246D02*
X16450248Y7435056D01*
X16450248Y7435056D02*
X16388344Y7682675D01*
X16388344Y7682675D02*
X16388344Y7868389D01*
X16388344Y7868389D02*
X16450248Y8116008D01*
X16450248Y8116008D02*
X16512153Y8239817D01*
X16512153Y8239817D02*
X16635963Y8363627D01*
X16635963Y8363627D02*
X16821677Y8425532D01*
X16821677Y8425532D02*
X16945486Y8425532D01*
X16945486Y8425532D02*
X17131201Y8363627D01*
X17131201Y8363627D02*
X17193105Y8301722D01*
X17935963Y7125532D02*
X17812153Y7187436D01*
X17812153Y7187436D02*
X17750248Y7249341D01*
X17750248Y7249341D02*
X17688344Y7373151D01*
X17688344Y7373151D02*
X17688344Y7744579D01*
X17688344Y7744579D02*
X17750248Y7868389D01*
X17750248Y7868389D02*
X17812153Y7930294D01*
X17812153Y7930294D02*
X17935963Y7992198D01*
X17935963Y7992198D02*
X18121677Y7992198D01*
X18121677Y7992198D02*
X18245486Y7930294D01*
X18245486Y7930294D02*
X18307391Y7868389D01*
X18307391Y7868389D02*
X18369296Y7744579D01*
X18369296Y7744579D02*
X18369296Y7373151D01*
X18369296Y7373151D02*
X18307391Y7249341D01*
X18307391Y7249341D02*
X18245486Y7187436D01*
X18245486Y7187436D02*
X18121677Y7125532D01*
X18121677Y7125532D02*
X17935963Y7125532D01*
X18926438Y7992198D02*
X18926438Y7125532D01*
X18926438Y7868389D02*
X18988343Y7930294D01*
X18988343Y7930294D02*
X19112153Y7992198D01*
X19112153Y7992198D02*
X19297867Y7992198D01*
X19297867Y7992198D02*
X19421676Y7930294D01*
X19421676Y7930294D02*
X19483581Y7806484D01*
X19483581Y7806484D02*
X19483581Y7125532D01*
X20102628Y7992198D02*
X20102628Y7125532D01*
X20102628Y7868389D02*
X20164533Y7930294D01*
X20164533Y7930294D02*
X20288343Y7992198D01*
X20288343Y7992198D02*
X20474057Y7992198D01*
X20474057Y7992198D02*
X20597866Y7930294D01*
X20597866Y7930294D02*
X20659771Y7806484D01*
X20659771Y7806484D02*
X20659771Y7125532D01*
X21774056Y7187436D02*
X21650247Y7125532D01*
X21650247Y7125532D02*
X21402628Y7125532D01*
X21402628Y7125532D02*
X21278818Y7187436D01*
X21278818Y7187436D02*
X21216914Y7311246D01*
X21216914Y7311246D02*
X21216914Y7806484D01*
X21216914Y7806484D02*
X21278818Y7930294D01*
X21278818Y7930294D02*
X21402628Y7992198D01*
X21402628Y7992198D02*
X21650247Y7992198D01*
X21650247Y7992198D02*
X21774056Y7930294D01*
X21774056Y7930294D02*
X21835961Y7806484D01*
X21835961Y7806484D02*
X21835961Y7682675D01*
X21835961Y7682675D02*
X21216914Y7558865D01*
X22950247Y7187436D02*
X22826438Y7125532D01*
X22826438Y7125532D02*
X22578819Y7125532D01*
X22578819Y7125532D02*
X22455009Y7187436D01*
X22455009Y7187436D02*
X22393104Y7249341D01*
X22393104Y7249341D02*
X22331200Y7373151D01*
X22331200Y7373151D02*
X22331200Y7744579D01*
X22331200Y7744579D02*
X22393104Y7868389D01*
X22393104Y7868389D02*
X22455009Y7930294D01*
X22455009Y7930294D02*
X22578819Y7992198D01*
X22578819Y7992198D02*
X22826438Y7992198D01*
X22826438Y7992198D02*
X22950247Y7930294D01*
X23321676Y7992198D02*
X23816914Y7992198D01*
X23507390Y8425532D02*
X23507390Y7311246D01*
X23507390Y7311246D02*
X23569295Y7187436D01*
X23569295Y7187436D02*
X23693105Y7125532D01*
X23693105Y7125532D02*
X23816914Y7125532D01*
X24435962Y7125532D02*
X24312152Y7187436D01*
X24312152Y7187436D02*
X24250247Y7249341D01*
X24250247Y7249341D02*
X24188343Y7373151D01*
X24188343Y7373151D02*
X24188343Y7744579D01*
X24188343Y7744579D02*
X24250247Y7868389D01*
X24250247Y7868389D02*
X24312152Y7930294D01*
X24312152Y7930294D02*
X24435962Y7992198D01*
X24435962Y7992198D02*
X24621676Y7992198D01*
X24621676Y7992198D02*
X24745485Y7930294D01*
X24745485Y7930294D02*
X24807390Y7868389D01*
X24807390Y7868389D02*
X24869295Y7744579D01*
X24869295Y7744579D02*
X24869295Y7373151D01*
X24869295Y7373151D02*
X24807390Y7249341D01*
X24807390Y7249341D02*
X24745485Y7187436D01*
X24745485Y7187436D02*
X24621676Y7125532D01*
X24621676Y7125532D02*
X24435962Y7125532D01*
X25426437Y7125532D02*
X25426437Y7992198D01*
X25426437Y7744579D02*
X25488342Y7868389D01*
X25488342Y7868389D02*
X25550247Y7930294D01*
X25550247Y7930294D02*
X25674056Y7992198D01*
X25674056Y7992198D02*
X25797866Y7992198D01*
X33579752Y9526823D02*
X33579752Y10826823D01*
X34136896Y10703013D02*
X34198800Y10764918D01*
X34198800Y10764918D02*
X34322610Y10826823D01*
X34322610Y10826823D02*
X34632134Y10826823D01*
X34632134Y10826823D02*
X34755943Y10764918D01*
X34755943Y10764918D02*
X34817848Y10703013D01*
X34817848Y10703013D02*
X34879753Y10579204D01*
X34879753Y10579204D02*
X34879753Y10455394D01*
X34879753Y10455394D02*
X34817848Y10269680D01*
X34817848Y10269680D02*
X34074991Y9526823D01*
X34074991Y9526823D02*
X34879753Y9526823D01*
X36179752Y9650632D02*
X36117848Y9588727D01*
X36117848Y9588727D02*
X35932133Y9526823D01*
X35932133Y9526823D02*
X35808324Y9526823D01*
X35808324Y9526823D02*
X35622610Y9588727D01*
X35622610Y9588727D02*
X35498800Y9712537D01*
X35498800Y9712537D02*
X35436895Y9836347D01*
X35436895Y9836347D02*
X35374991Y10083966D01*
X35374991Y10083966D02*
X35374991Y10269680D01*
X35374991Y10269680D02*
X35436895Y10517299D01*
X35436895Y10517299D02*
X35498800Y10641108D01*
X35498800Y10641108D02*
X35622610Y10764918D01*
X35622610Y10764918D02*
X35808324Y10826823D01*
X35808324Y10826823D02*
X35932133Y10826823D01*
X35932133Y10826823D02*
X36117848Y10764918D01*
X36117848Y10764918D02*
X36179752Y10703013D01*
X31846419Y7433896D02*
X31846419Y8300562D01*
X31846419Y8176753D02*
X31908324Y8238658D01*
X31908324Y8238658D02*
X32032134Y8300562D01*
X32032134Y8300562D02*
X32217848Y8300562D01*
X32217848Y8300562D02*
X32341657Y8238658D01*
X32341657Y8238658D02*
X32403562Y8114848D01*
X32403562Y8114848D02*
X32403562Y7433896D01*
X32403562Y8114848D02*
X32465467Y8238658D01*
X32465467Y8238658D02*
X32589276Y8300562D01*
X32589276Y8300562D02*
X32774991Y8300562D01*
X32774991Y8300562D02*
X32898800Y8238658D01*
X32898800Y8238658D02*
X32960705Y8114848D01*
X32960705Y8114848D02*
X32960705Y7433896D01*
X34136895Y7433896D02*
X34136895Y8114848D01*
X34136895Y8114848D02*
X34074990Y8238658D01*
X34074990Y8238658D02*
X33951181Y8300562D01*
X33951181Y8300562D02*
X33703562Y8300562D01*
X33703562Y8300562D02*
X33579752Y8238658D01*
X34136895Y7495800D02*
X34013086Y7433896D01*
X34013086Y7433896D02*
X33703562Y7433896D01*
X33703562Y7433896D02*
X33579752Y7495800D01*
X33579752Y7495800D02*
X33517848Y7619610D01*
X33517848Y7619610D02*
X33517848Y7743420D01*
X33517848Y7743420D02*
X33579752Y7867229D01*
X33579752Y7867229D02*
X33703562Y7929134D01*
X33703562Y7929134D02*
X34013086Y7929134D01*
X34013086Y7929134D02*
X34136895Y7991039D01*
X34694038Y7495800D02*
X34817847Y7433896D01*
X34817847Y7433896D02*
X35065466Y7433896D01*
X35065466Y7433896D02*
X35189276Y7495800D01*
X35189276Y7495800D02*
X35251180Y7619610D01*
X35251180Y7619610D02*
X35251180Y7681515D01*
X35251180Y7681515D02*
X35189276Y7805324D01*
X35189276Y7805324D02*
X35065466Y7867229D01*
X35065466Y7867229D02*
X34879752Y7867229D01*
X34879752Y7867229D02*
X34755942Y7929134D01*
X34755942Y7929134D02*
X34694038Y8052943D01*
X34694038Y8052943D02*
X34694038Y8114848D01*
X34694038Y8114848D02*
X34755942Y8238658D01*
X34755942Y8238658D02*
X34879752Y8300562D01*
X34879752Y8300562D02*
X35065466Y8300562D01*
X35065466Y8300562D02*
X35189276Y8238658D01*
X35622609Y8300562D02*
X36117847Y8300562D01*
X35808323Y8733896D02*
X35808323Y7619610D01*
X35808323Y7619610D02*
X35870228Y7495800D01*
X35870228Y7495800D02*
X35994038Y7433896D01*
X35994038Y7433896D02*
X36117847Y7433896D01*
X37046418Y7495800D02*
X36922609Y7433896D01*
X36922609Y7433896D02*
X36674990Y7433896D01*
X36674990Y7433896D02*
X36551180Y7495800D01*
X36551180Y7495800D02*
X36489276Y7619610D01*
X36489276Y7619610D02*
X36489276Y8114848D01*
X36489276Y8114848D02*
X36551180Y8238658D01*
X36551180Y8238658D02*
X36674990Y8300562D01*
X36674990Y8300562D02*
X36922609Y8300562D01*
X36922609Y8300562D02*
X37046418Y8238658D01*
X37046418Y8238658D02*
X37108323Y8114848D01*
X37108323Y8114848D02*
X37108323Y7991039D01*
X37108323Y7991039D02*
X36489276Y7867229D01*
X37665466Y7433896D02*
X37665466Y8300562D01*
X37665466Y8052943D02*
X37727371Y8176753D01*
X37727371Y8176753D02*
X37789276Y8238658D01*
X37789276Y8238658D02*
X37913085Y8300562D01*
X37913085Y8300562D02*
X38036895Y8300562D01*
D13*
%TO.C,G\u002A\u002A\u002A*%
G36*
X37973777Y28321892D02*
G01*
X38094683Y28157729D01*
X38172115Y27979799D01*
X38156151Y27872584D01*
X38075691Y27790480D01*
X37970428Y27724900D01*
X37731973Y27590462D01*
X37377405Y27396361D01*
X36923804Y27151792D01*
X36388249Y26865950D01*
X35787820Y26548029D01*
X35139596Y26207225D01*
X34967332Y26117047D01*
X34032507Y25627220D01*
X33237682Y25208668D01*
X32572123Y24855515D01*
X32025094Y24561885D01*
X31585860Y24321902D01*
X31243685Y24129687D01*
X30987834Y23979367D01*
X30807573Y23865063D01*
X30692164Y23780900D01*
X30678448Y23769362D01*
X30626576Y23706599D01*
X30621017Y23623340D01*
X30674009Y23493297D01*
X30797792Y23290180D01*
X31004603Y22987702D01*
X31116357Y22828688D01*
X31381195Y22443875D01*
X31641525Y22049508D01*
X31862525Y21699150D01*
X31979480Y21501116D01*
X32264476Y20993116D01*
X33107904Y20943979D01*
X33573062Y20906318D01*
X33927667Y20848168D01*
X34230294Y20757398D01*
X34443885Y20667350D01*
X34708043Y20555857D01*
X34911355Y20489386D01*
X35003703Y20481431D01*
X35028547Y20578571D01*
X35040129Y20805471D01*
X35037294Y21122988D01*
X35028781Y21329560D01*
X35011141Y21702814D01*
X35009125Y21938568D01*
X35028073Y22068339D01*
X35073331Y22123649D01*
X35150241Y22136016D01*
X35165511Y22136116D01*
X35373824Y22075299D01*
X35510534Y21886607D01*
X35578925Y21560680D01*
X35582276Y21088156D01*
X35574946Y20968318D01*
X35561033Y20507002D01*
X35577240Y20033907D01*
X35617702Y19657990D01*
X35665194Y19292895D01*
X35662785Y19042632D01*
X35613840Y18867894D01*
X35498980Y18699617D01*
X35387014Y18695351D01*
X35282330Y18849781D01*
X35189315Y19157591D01*
X35135681Y19447157D01*
X35086957Y19763864D01*
X34490369Y19463427D01*
X34146429Y19304595D01*
X33709097Y19122998D01*
X33246634Y18946290D01*
X32991224Y18856065D01*
X32603362Y18727773D01*
X32297251Y18641049D01*
X32019632Y18587621D01*
X31717244Y18559216D01*
X31336828Y18547563D01*
X30987999Y18544913D01*
X30487354Y18549227D01*
X29966993Y18564149D01*
X29492696Y18587249D01*
X29167666Y18612208D01*
X28884185Y18633178D01*
X28582655Y18638470D01*
X28233950Y18626384D01*
X27808948Y18595216D01*
X27278524Y18543267D01*
X26613554Y18468833D01*
X26512858Y18457082D01*
X25946010Y18388228D01*
X25424826Y18320280D01*
X24976564Y18257164D01*
X24628483Y18202804D01*
X24407839Y18161123D01*
X24353858Y18146276D01*
X24203369Y18051465D01*
X23973763Y17861894D01*
X23700047Y17607903D01*
X23494999Y17401852D01*
X23036366Y16969989D01*
X22598903Y16665884D01*
X22134301Y16462872D01*
X21594250Y16334287D01*
X21546789Y16326489D01*
X21328791Y16302550D01*
X21230894Y16332858D01*
X21208999Y16424239D01*
X21248150Y16565398D01*
X21352341Y16808107D01*
X21501682Y17107421D01*
X21555927Y17208124D01*
X21731824Y17548121D01*
X21813422Y17772274D01*
X21800457Y17905560D01*
X21692668Y17972955D01*
X21547666Y17995435D01*
X21376875Y18009655D01*
X21142104Y18029196D01*
X21138101Y18029529D01*
X20921243Y18067390D01*
X20781847Y18127002D01*
X20778018Y18130563D01*
X20694414Y18255781D01*
X20571351Y18490557D01*
X20423778Y18800247D01*
X20266644Y19150211D01*
X20114899Y19505804D01*
X19983491Y19832385D01*
X19982051Y19836324D01*
X23908488Y19836324D01*
X24134273Y19627074D01*
X24263671Y19490723D01*
X24321853Y19355502D01*
X24324514Y19158840D01*
X24302436Y18956636D01*
X24274740Y18692160D01*
X24283636Y18554289D01*
X24339163Y18502394D01*
X24416374Y18495449D01*
X24544581Y18505104D01*
X24816461Y18532283D01*
X25207562Y18574310D01*
X25693433Y18628508D01*
X26249623Y18692202D01*
X26771967Y18753290D01*
X27376118Y18826617D01*
X27937044Y18898473D01*
X28428905Y18965251D01*
X28825861Y19023340D01*
X29102072Y19069132D01*
X29221810Y19095435D01*
X29395567Y19179070D01*
X29520409Y19328201D01*
X29635419Y19591157D01*
X29645786Y19619728D01*
X29800425Y19950163D01*
X30021736Y20208347D01*
X30205475Y20356926D01*
X30407068Y20514871D01*
X30532125Y20655729D01*
X30587186Y20817515D01*
X30578793Y21038246D01*
X30513489Y21355937D01*
X30502501Y21399267D01*
X31456482Y21399267D01*
X31488679Y21238785D01*
X31569107Y21051091D01*
X31663263Y20905666D01*
X31721256Y20866116D01*
X31785685Y20934214D01*
X31792332Y20983736D01*
X31754627Y21102843D01*
X31665855Y21246681D01*
X31562533Y21370070D01*
X31481178Y21427830D01*
X31456482Y21399267D01*
X30502501Y21399267D01*
X30432406Y21675670D01*
X30285883Y22231213D01*
X30171354Y22641950D01*
X30081827Y22927862D01*
X30010310Y23108927D01*
X29949813Y23205126D01*
X29893344Y23236436D01*
X29886127Y23236783D01*
X29776187Y23194393D01*
X29551161Y23077678D01*
X29239394Y22902322D01*
X28869230Y22684007D01*
X28685635Y22572548D01*
X28099408Y22219066D01*
X27406780Y21810635D01*
X26650742Y21372029D01*
X25874286Y20928023D01*
X25120401Y20503392D01*
X24484910Y20151791D01*
X23908488Y19836324D01*
X19982051Y19836324D01*
X19887370Y20095312D01*
X19841485Y20259942D01*
X19843406Y20296390D01*
X19977913Y20347401D01*
X20241918Y20386436D01*
X20595927Y20412279D01*
X21000448Y20423711D01*
X21415986Y20419518D01*
X21803050Y20398481D01*
X22086160Y20365488D01*
X22717426Y20263654D01*
X25956386Y21832793D01*
X26658819Y22174716D01*
X27325003Y22502091D01*
X27936965Y22805863D01*
X28476735Y23076975D01*
X28926343Y23306371D01*
X29267818Y23484996D01*
X29483188Y23603794D01*
X29536425Y23636858D01*
X29783881Y23796410D01*
X30112261Y23993957D01*
X30452852Y24188227D01*
X30471236Y24198361D01*
X30692881Y24323972D01*
X31036094Y24523222D01*
X31477444Y24782285D01*
X31993502Y25087338D01*
X32560838Y25424558D01*
X33156022Y25780119D01*
X33397150Y25924687D01*
X34289297Y26459614D01*
X35048080Y26913186D01*
X35684916Y27291868D01*
X36211222Y27602126D01*
X36638413Y27850425D01*
X36977906Y28043232D01*
X37241116Y28187013D01*
X37439462Y28288233D01*
X37584357Y28353359D01*
X37687220Y28388856D01*
X37759465Y28401190D01*
X37770127Y28401449D01*
X37973777Y28321892D01*
G37*
D10*
%TO.C,J3*%
X46177200Y29362400D02*
X51257200Y29362400D01*
X46177200Y21742400D02*
X46177200Y29362400D01*
X51257200Y29362400D02*
X51257200Y21742400D01*
X51257200Y21742400D02*
X46177200Y21742400D01*
%TO.C,J5*%
X21590000Y54610000D02*
X59690000Y54610000D01*
X21590000Y49530000D02*
X21590000Y54610000D01*
X59690000Y54610000D02*
X59690000Y49530000D01*
X59690000Y49530000D02*
X21590000Y49530000D01*
D13*
%TO.C,G1*%
G36*
X20023476Y26057897D02*
G01*
X19592161Y25808878D01*
X20311551Y24562858D01*
X20033593Y24402380D01*
X19314203Y25648398D01*
X18882888Y25399379D01*
X18727943Y25667752D01*
X19868530Y26326271D01*
X20023476Y26057897D01*
G37*
G36*
X22151827Y25625341D02*
G01*
X21873869Y25464862D01*
X21497573Y26116626D01*
X20797884Y25712660D01*
X21174181Y25060896D01*
X20896222Y24900418D01*
X20021887Y26414811D01*
X20299845Y26575292D01*
X20642939Y25981034D01*
X21342627Y26385000D01*
X20999533Y26979256D01*
X21277492Y27139735D01*
X22151827Y25625341D01*
G37*
G36*
X25180614Y27374012D02*
G01*
X24953688Y27242997D01*
X23660085Y27882730D01*
X24260476Y26842771D01*
X23982518Y26682291D01*
X23108183Y28196685D01*
X23384095Y28355983D01*
X23987015Y28055509D01*
X24589935Y27755036D01*
X24309128Y28241481D01*
X24028320Y28727927D01*
X24306278Y28888406D01*
X25180614Y27374012D01*
G37*
G36*
X27279146Y30246961D02*
G01*
X26589043Y29848529D01*
X26777191Y29522647D01*
X27304353Y29827004D01*
X27459299Y29558630D01*
X26932137Y29254273D01*
X27153487Y28870883D01*
X27862760Y29280383D01*
X28017706Y29012008D01*
X27020890Y28436496D01*
X26146554Y29950890D01*
X27124201Y30515334D01*
X27279146Y30246961D01*
G37*
G36*
X29507588Y34373837D02*
G01*
X29513100Y34359090D01*
X29525596Y34325201D01*
X29544469Y34273822D01*
X29569116Y34206605D01*
X29598932Y34125203D01*
X29633311Y34031269D01*
X29671650Y33926454D01*
X29713343Y33812410D01*
X29757785Y33690789D01*
X29804370Y33563244D01*
X29814623Y33535166D01*
X30110399Y32725136D01*
X29973835Y32646246D01*
X29917604Y32614265D01*
X29877601Y32592868D01*
X29851302Y32580891D01*
X29836175Y32577167D01*
X29829947Y32580043D01*
X29824938Y32592470D01*
X29813095Y32623767D01*
X29795123Y32671996D01*
X29771728Y32735220D01*
X29743619Y32811503D01*
X29711498Y32898910D01*
X29676074Y32995502D01*
X29638053Y33099343D01*
X29598141Y33208498D01*
X29557043Y33321030D01*
X29515467Y33435002D01*
X29474119Y33548474D01*
X29433705Y33659516D01*
X29394931Y33766187D01*
X29358502Y33866553D01*
X29325128Y33958675D01*
X29295511Y34040619D01*
X29270360Y34110448D01*
X29250380Y34166222D01*
X29236277Y34206009D01*
X29228758Y34227870D01*
X29227697Y34231412D01*
X29232411Y34240974D01*
X29250324Y34256087D01*
X29283330Y34278072D01*
X29333327Y34308248D01*
X29360750Y34324206D01*
X29496325Y34402480D01*
X29507588Y34373837D01*
G37*
G36*
X29931144Y29615744D02*
G01*
X29935902Y29603757D01*
X29947639Y29572576D01*
X29965765Y29523808D01*
X29989689Y29459060D01*
X30018820Y29379939D01*
X30052569Y29288050D01*
X30090343Y29185003D01*
X30131555Y29072403D01*
X30175609Y28951856D01*
X30221918Y28824971D01*
X30233487Y28793247D01*
X30280227Y28665125D01*
X30324829Y28542996D01*
X30366706Y28428462D01*
X30405270Y28323123D01*
X30439933Y28228582D01*
X30470107Y28146439D01*
X30495205Y28078294D01*
X30514639Y28025750D01*
X30527822Y27990407D01*
X30534165Y27973868D01*
X30534609Y27972862D01*
X30527547Y27963772D01*
X30502902Y27945661D01*
X30462657Y27919862D01*
X30408799Y27887704D01*
X30399863Y27882526D01*
X30259685Y27801596D01*
X30249444Y27830827D01*
X30244086Y27845682D01*
X30231738Y27879670D01*
X30213004Y27931130D01*
X30188489Y27998403D01*
X30158799Y28079828D01*
X30124539Y28173748D01*
X30086312Y28278503D01*
X30044727Y28392433D01*
X30000386Y28513880D01*
X29953896Y28641184D01*
X29945276Y28664784D01*
X29651351Y29469510D01*
X29787921Y29548387D01*
X29846238Y29581411D01*
X29887851Y29603340D01*
X29914663Y29615067D01*
X29928570Y29617485D01*
X29931144Y29615744D01*
G37*
G36*
X28418867Y33751655D02*
G01*
X28423789Y33737532D01*
X28435715Y33704289D01*
X28454039Y33653595D01*
X28478154Y33587117D01*
X28507454Y33506520D01*
X28541332Y33413471D01*
X28579181Y33309640D01*
X28620394Y33196692D01*
X28664368Y33076291D01*
X28710493Y32950107D01*
X28713792Y32941088D01*
X28760111Y32814407D01*
X28804376Y32693277D01*
X28845977Y32579383D01*
X28884297Y32474405D01*
X28918728Y32380022D01*
X28948652Y32297918D01*
X28973459Y32229771D01*
X28992537Y32177263D01*
X29005270Y32142076D01*
X29011048Y32125888D01*
X29011165Y32125545D01*
X29021043Y32096105D01*
X28742530Y31935305D01*
X28735276Y31959870D01*
X28730364Y31974076D01*
X28718458Y32007368D01*
X28700176Y32058048D01*
X28676136Y32124420D01*
X28646953Y32204784D01*
X28613245Y32297442D01*
X28575630Y32400697D01*
X28534724Y32512850D01*
X28491146Y32632202D01*
X28450218Y32744185D01*
X28404396Y32869557D01*
X28360416Y32990003D01*
X28318929Y33103731D01*
X28280587Y33208948D01*
X28246039Y33303866D01*
X28215941Y33386691D01*
X28190942Y33455631D01*
X28171693Y33508897D01*
X28158848Y33544695D01*
X28153443Y33560073D01*
X28134470Y33616214D01*
X28411436Y33776120D01*
X28418867Y33751655D01*
G37*
G36*
X32114386Y30878187D02*
G01*
X32119128Y30872841D01*
X32124358Y30860024D01*
X32136552Y30828026D01*
X32155110Y30778466D01*
X32179435Y30712967D01*
X32208929Y30633151D01*
X32242995Y30540637D01*
X32281033Y30437050D01*
X32322448Y30324008D01*
X32366639Y30203137D01*
X32413011Y30076055D01*
X32423940Y30046068D01*
X32470572Y29918133D01*
X32515015Y29796280D01*
X32556689Y29682102D01*
X32595007Y29577188D01*
X32629391Y29483132D01*
X32659257Y29401522D01*
X32684023Y29333952D01*
X32703107Y29282014D01*
X32715927Y29247298D01*
X32721900Y29231397D01*
X32722254Y29230549D01*
X32714332Y29223434D01*
X32690440Y29207493D01*
X32653871Y29184802D01*
X32607923Y29157437D01*
X32586388Y29144918D01*
X32537029Y29117041D01*
X32494875Y29094416D01*
X32463380Y29078799D01*
X32445998Y29071956D01*
X32443729Y29072137D01*
X32439454Y29083467D01*
X32428189Y29114013D01*
X32410515Y29162193D01*
X32387007Y29226424D01*
X32358248Y29305122D01*
X32324811Y29396702D01*
X32287278Y29499582D01*
X32246226Y29612178D01*
X32202233Y29732906D01*
X32155879Y29860182D01*
X32140185Y29903289D01*
X31840322Y30726979D01*
X31974920Y30808233D01*
X32028179Y30840133D01*
X32065699Y30861710D01*
X32090536Y30874332D01*
X32105747Y30879367D01*
X32114386Y30878187D01*
G37*
G36*
X31026488Y30234746D02*
G01*
X31031376Y30220618D01*
X31043267Y30187366D01*
X31061563Y30136647D01*
X31085653Y30070128D01*
X31114939Y29989465D01*
X31148813Y29896324D01*
X31186673Y29792362D01*
X31227917Y29679242D01*
X31271939Y29558625D01*
X31318136Y29432174D01*
X31323048Y29418734D01*
X31369370Y29291923D01*
X31413524Y29170888D01*
X31454911Y29057272D01*
X31492931Y28952725D01*
X31526992Y28858894D01*
X31556493Y28777427D01*
X31580837Y28709970D01*
X31599428Y28658173D01*
X31611667Y28623682D01*
X31616958Y28608145D01*
X31617092Y28607659D01*
X31617161Y28598858D01*
X31611151Y28589216D01*
X31596293Y28576666D01*
X31569818Y28559144D01*
X31528956Y28534585D01*
X31484391Y28508679D01*
X31430378Y28477728D01*
X31392408Y28456817D01*
X31367494Y28444688D01*
X31352646Y28440080D01*
X31344875Y28441738D01*
X31341199Y28448373D01*
X31336551Y28461607D01*
X31324898Y28493977D01*
X31306837Y28543828D01*
X31282972Y28609510D01*
X31253905Y28689369D01*
X31220236Y28781755D01*
X31182568Y28885014D01*
X31141502Y28997496D01*
X31097642Y29117548D01*
X31051586Y29243519D01*
X31047934Y29253507D01*
X31001613Y29380188D01*
X30957345Y29501316D01*
X30915744Y29615209D01*
X30877423Y29720189D01*
X30842995Y29814571D01*
X30813071Y29896677D01*
X30788265Y29964824D01*
X30769192Y30017334D01*
X30756462Y30052524D01*
X30750689Y30068715D01*
X30750572Y30069057D01*
X30740721Y30098513D01*
X31019236Y30259313D01*
X31026488Y30234746D01*
G37*
G36*
X30492251Y31673928D02*
G01*
X30534221Y31558954D01*
X30574268Y31449296D01*
X30611695Y31346867D01*
X30645798Y31253583D01*
X30675877Y31171360D01*
X30701233Y31102113D01*
X30721162Y31047759D01*
X30734965Y31010213D01*
X30741942Y30991391D01*
X30742187Y30990743D01*
X30757135Y30951450D01*
X31016036Y31100927D01*
X31093669Y31145623D01*
X31154371Y31180184D01*
X31200300Y31205689D01*
X31233613Y31223212D01*
X31256463Y31233832D01*
X31271007Y31238625D01*
X31279403Y31238667D01*
X31283804Y31235037D01*
X31283970Y31234759D01*
X31291078Y31218746D01*
X31303873Y31186488D01*
X31320579Y31142579D01*
X31339415Y31091616D01*
X31340547Y31088509D01*
X31388092Y30957901D01*
X30987258Y30726480D01*
X30901677Y30677145D01*
X30822295Y30631523D01*
X30751098Y30590749D01*
X30690075Y30555954D01*
X30641215Y30528271D01*
X30606509Y30508836D01*
X30587946Y30498776D01*
X30585334Y30497624D01*
X30578485Y30515266D01*
X30565097Y30551143D01*
X30545863Y30603346D01*
X30521468Y30669959D01*
X30492604Y30749085D01*
X30459960Y30838804D01*
X30424227Y30937214D01*
X30386091Y31042403D01*
X30346243Y31152462D01*
X30305373Y31265482D01*
X30264170Y31379553D01*
X30223322Y31492769D01*
X30183522Y31603216D01*
X30145455Y31708990D01*
X30109814Y31808178D01*
X30077286Y31898874D01*
X30048563Y31979167D01*
X30024333Y32047147D01*
X30005281Y32100907D01*
X29992103Y32138538D01*
X29985486Y32158129D01*
X29984833Y32160549D01*
X29994835Y32168648D01*
X30020742Y32185093D01*
X30058973Y32207727D01*
X30105943Y32234386D01*
X30122172Y32243380D01*
X30257262Y32317818D01*
X30492251Y31673928D01*
G37*
G36*
X30602971Y35022485D02*
G01*
X30614104Y34992467D01*
X30631397Y34945485D01*
X30654152Y34883460D01*
X30681666Y34808310D01*
X30713244Y34721959D01*
X30748184Y34626324D01*
X30785785Y34523326D01*
X30825349Y34414887D01*
X30866176Y34302923D01*
X30907567Y34189358D01*
X30948820Y34076110D01*
X30989237Y33965101D01*
X31028119Y33858250D01*
X31064764Y33757477D01*
X31098474Y33664702D01*
X31128548Y33581846D01*
X31154288Y33510828D01*
X31174993Y33453570D01*
X31189964Y33411990D01*
X31198501Y33388009D01*
X31200204Y33382999D01*
X31202379Y33373013D01*
X31200362Y33364002D01*
X31191392Y33353757D01*
X31172703Y33340077D01*
X31141533Y33320755D01*
X31095116Y33293587D01*
X31069630Y33278857D01*
X31015511Y33247843D01*
X30977444Y33226871D01*
X30952442Y33214679D01*
X30937522Y33210012D01*
X30929702Y33211609D01*
X30925996Y33218215D01*
X30925975Y33218282D01*
X30921330Y33231518D01*
X30909679Y33263888D01*
X30891623Y33313743D01*
X30867766Y33379427D01*
X30838708Y33459289D01*
X30805050Y33551679D01*
X30767395Y33654944D01*
X30726342Y33767432D01*
X30682495Y33887489D01*
X30636456Y34013466D01*
X30632799Y34023468D01*
X30586426Y34150312D01*
X30542047Y34271714D01*
X30500279Y34385979D01*
X30461746Y34491412D01*
X30427063Y34586319D01*
X30396852Y34669005D01*
X30371730Y34737775D01*
X30352318Y34790934D01*
X30339235Y34826788D01*
X30333100Y34843642D01*
X30332975Y34843985D01*
X30320574Y34878360D01*
X30458486Y34957983D01*
X30507573Y34985976D01*
X30549282Y35009100D01*
X30580172Y35025500D01*
X30596803Y35033319D01*
X30598701Y35033620D01*
X30602971Y35022485D01*
G37*
G36*
X25711370Y29525483D02*
G01*
X25762862Y29517956D01*
X25823774Y29503746D01*
X25839298Y29499644D01*
X25902843Y29481211D01*
X25953032Y29462525D01*
X25998359Y29439784D01*
X26047318Y29409182D01*
X26059186Y29401177D01*
X26118466Y29359514D01*
X26166632Y29321715D01*
X26207280Y29283715D01*
X26244002Y29241448D01*
X26280395Y29190851D01*
X26320054Y29127859D01*
X26357967Y29063352D01*
X26401716Y28985799D01*
X26434884Y28921565D01*
X26459170Y28865548D01*
X26476272Y28812644D01*
X26487883Y28757758D01*
X26495701Y28695786D01*
X26500578Y28634502D01*
X26498170Y28508339D01*
X26474448Y28385068D01*
X26430236Y28267105D01*
X26366352Y28156863D01*
X26316908Y28093086D01*
X26287567Y28060051D01*
X26258499Y28030129D01*
X26227391Y28001693D01*
X26191925Y27973115D01*
X26149788Y27942763D01*
X26098662Y27909009D01*
X26036229Y27870226D01*
X25960182Y27824782D01*
X25868197Y27771050D01*
X25817158Y27741521D01*
X25487326Y27551093D01*
X25344369Y27798702D01*
X24663457Y28978079D01*
X25034067Y28978079D01*
X25622328Y27959182D01*
X26045163Y28211821D01*
X26091821Y28279327D01*
X26139699Y28366394D01*
X26166508Y28458752D01*
X26172238Y28556659D01*
X26156874Y28660370D01*
X26120401Y28770137D01*
X26062807Y28886218D01*
X26059907Y28891267D01*
X25988385Y29000095D01*
X25911780Y29087469D01*
X25829873Y29153529D01*
X25742458Y29198411D01*
X25649315Y29222260D01*
X25550230Y29225210D01*
X25545907Y29224876D01*
X25464117Y29218222D01*
X25249092Y29098151D01*
X25034067Y28978079D01*
X24663457Y28978079D01*
X24612179Y29066895D01*
X24981071Y29274621D01*
X25081681Y29331204D01*
X25165523Y29377937D01*
X25235116Y29415836D01*
X25292973Y29445916D01*
X25341612Y29469195D01*
X25383552Y29486684D01*
X25421307Y29499402D01*
X25457396Y29508365D01*
X25494334Y29514590D01*
X25534639Y29519091D01*
X25580826Y29522884D01*
X25599647Y29524291D01*
X25660049Y29527278D01*
X25711370Y29525483D01*
G37*
G36*
X28419280Y31065433D02*
G01*
X28505616Y31027049D01*
X28583836Y30968095D01*
X28654185Y30888470D01*
X28701577Y30815743D01*
X28750336Y30715233D01*
X28777782Y30618549D01*
X28784035Y30524008D01*
X28769217Y30429929D01*
X28736288Y30340630D01*
X28718354Y30300565D01*
X28705308Y30268329D01*
X28699128Y30248938D01*
X28699038Y30245866D01*
X28708823Y30238698D01*
X28734930Y30221503D01*
X28774834Y30195864D01*
X28826011Y30163359D01*
X28885935Y30125573D01*
X28952078Y30084083D01*
X29021919Y30040472D01*
X29092932Y29996319D01*
X29162589Y29953208D01*
X29228367Y29912718D01*
X29287741Y29876429D01*
X29331108Y29850175D01*
X29398852Y29809412D01*
X29242512Y29719420D01*
X29086174Y29629428D01*
X28779107Y29825679D01*
X28472041Y30021931D01*
X28330683Y29943854D01*
X28189326Y29865777D01*
X28516114Y29299764D01*
X28238155Y29139285D01*
X27779968Y29932888D01*
X27402881Y30586020D01*
X27773494Y30586020D01*
X28057926Y30093368D01*
X28216531Y30189420D01*
X28275094Y30225058D01*
X28318069Y30252021D01*
X28348856Y30273002D01*
X28370854Y30290698D01*
X28387466Y30307804D01*
X28402095Y30327014D01*
X28415625Y30347191D01*
X28450322Y30414076D01*
X28464128Y30478814D01*
X28457594Y30544767D01*
X28451356Y30566497D01*
X28417245Y30642488D01*
X28370957Y30703034D01*
X28314550Y30746558D01*
X28250080Y30771482D01*
X28179606Y30776233D01*
X28177903Y30776090D01*
X28151224Y30773227D01*
X28127521Y30768710D01*
X28102867Y30760915D01*
X28073332Y30748213D01*
X28034987Y30728983D01*
X27983906Y30701597D01*
X27940835Y30678006D01*
X27773494Y30586020D01*
X27402881Y30586020D01*
X27363819Y30653678D01*
X27692961Y30843708D01*
X27782933Y30895540D01*
X27856251Y30937429D01*
X27915355Y30970635D01*
X27962685Y30996414D01*
X28000682Y31016023D01*
X28031783Y31030721D01*
X28058430Y31041765D01*
X28083065Y31050412D01*
X28108119Y31057920D01*
X28109072Y31058190D01*
X28221258Y31080901D01*
X28324577Y31083350D01*
X28419280Y31065433D01*
G37*
G36*
X23091394Y27561711D02*
G01*
X23160726Y27441332D01*
X23219723Y27338089D01*
X23269329Y27250067D01*
X23310491Y27175357D01*
X23344151Y27112049D01*
X23371256Y27058230D01*
X23392752Y27011987D01*
X23409582Y26971413D01*
X23422690Y26934595D01*
X23433025Y26899621D01*
X23441528Y26864583D01*
X23445624Y26845287D01*
X23460896Y26723098D01*
X23455233Y26608033D01*
X23428559Y26499792D01*
X23380794Y26398078D01*
X23311858Y26302594D01*
X23297407Y26286280D01*
X23251993Y26243753D01*
X23191315Y26197271D01*
X23120984Y26150263D01*
X23046605Y26106154D01*
X22973788Y26068369D01*
X22908137Y26040336D01*
X22879665Y26031022D01*
X22760553Y26007375D01*
X22646173Y26005136D01*
X22536076Y26024423D01*
X22429810Y26065357D01*
X22326921Y26128057D01*
X22239865Y26200346D01*
X22225902Y26213635D01*
X22212937Y26226863D01*
X22199917Y26241695D01*
X22185776Y26259797D01*
X22169464Y26282832D01*
X22149922Y26312468D01*
X22126091Y26350372D01*
X22096913Y26398204D01*
X22061333Y26457635D01*
X22018294Y26530325D01*
X21966735Y26617943D01*
X21905602Y26722153D01*
X21870339Y26782327D01*
X21563985Y27305142D01*
X21841900Y27465598D01*
X22134271Y26966658D01*
X22199081Y26856109D01*
X22253798Y26762983D01*
X22299495Y26685591D01*
X22337252Y26622246D01*
X22368140Y26571258D01*
X22393234Y26530938D01*
X22413611Y26499600D01*
X22430344Y26475553D01*
X22444508Y26457111D01*
X22457179Y26442583D01*
X22469432Y26430281D01*
X22482339Y26418519D01*
X22484356Y26416734D01*
X22559164Y26363055D01*
X22637269Y26331260D01*
X22718651Y26321349D01*
X22803284Y26333321D01*
X22891150Y26367176D01*
X22982222Y26422914D01*
X22988421Y26427418D01*
X23055507Y26486893D01*
X23102321Y26552539D01*
X23129060Y26625296D01*
X23135926Y26706098D01*
X23123116Y26795883D01*
X23090831Y26895587D01*
X23089029Y26900061D01*
X23075458Y26929214D01*
X23051576Y26975615D01*
X23018360Y27037482D01*
X22976799Y27113030D01*
X22927879Y27200474D01*
X22872574Y27298030D01*
X22811876Y27403912D01*
X22799600Y27425195D01*
X22542681Y27870192D01*
X22820639Y28030672D01*
X23091394Y27561711D01*
G37*
G36*
X29798361Y32034169D02*
G01*
X29809721Y32004988D01*
X29825629Y31963153D01*
X29844531Y31912722D01*
X29849166Y31900264D01*
X29900894Y31760970D01*
X29591123Y31578757D01*
X29281353Y31396546D01*
X29337957Y31237530D01*
X29358323Y31180880D01*
X29376701Y31130804D01*
X29391550Y31091410D01*
X29401335Y31066816D01*
X29403782Y31061474D01*
X29407818Y31056902D01*
X29415040Y31055749D01*
X29427718Y31059124D01*
X29448122Y31068133D01*
X29478525Y31083884D01*
X29521195Y31107484D01*
X29578404Y31140042D01*
X29652423Y31182662D01*
X29653268Y31183150D01*
X29727349Y31225819D01*
X29784549Y31258401D01*
X29827100Y31281982D01*
X29857230Y31297645D01*
X29877173Y31306475D01*
X29889156Y31309556D01*
X29895410Y31307971D01*
X29898166Y31302806D01*
X29898306Y31302259D01*
X29903440Y31285993D01*
X29914204Y31254656D01*
X29928790Y31213267D01*
X29945388Y31166848D01*
X29962195Y31120414D01*
X29977401Y31078986D01*
X29989196Y31047584D01*
X29995778Y31031225D01*
X29996234Y31030322D01*
X29987901Y31023607D01*
X29962866Y31007446D01*
X29923652Y30983368D01*
X29872779Y30952902D01*
X29812773Y30917581D01*
X29757257Y30885337D01*
X29515249Y30745593D01*
X29601499Y30511062D01*
X29629918Y30433745D01*
X29658980Y30354608D01*
X29686708Y30279052D01*
X29711120Y30212466D01*
X29730233Y30160250D01*
X29733057Y30152527D01*
X29778365Y30028525D01*
X29639738Y29948488D01*
X29585672Y29917375D01*
X29547689Y29896152D01*
X29522699Y29883641D01*
X29507618Y29878662D01*
X29499359Y29880039D01*
X29494832Y29886590D01*
X29492687Y29892343D01*
X29487629Y29906321D01*
X29475576Y29939452D01*
X29457122Y29990095D01*
X29432869Y30056612D01*
X29403414Y30137362D01*
X29369353Y30230709D01*
X29331286Y30335010D01*
X29289812Y30448628D01*
X29245527Y30569923D01*
X29199030Y30697255D01*
X29188443Y30726247D01*
X28892621Y31536260D01*
X29340695Y31794992D01*
X29431408Y31847173D01*
X29516150Y31895538D01*
X29593029Y31939033D01*
X29660148Y31976601D01*
X29715612Y32007191D01*
X29757526Y32029746D01*
X29783994Y32043214D01*
X29793101Y32046640D01*
X29798361Y32034169D01*
G37*
G36*
X31859753Y33234470D02*
G01*
X31858206Y33220889D01*
X31853932Y33187457D01*
X31847205Y33136255D01*
X31838308Y33069365D01*
X31827516Y32988865D01*
X31815109Y32896835D01*
X31801364Y32795357D01*
X31786562Y32686510D01*
X31779448Y32634345D01*
X31764260Y32522919D01*
X31750003Y32417999D01*
X31736959Y32321651D01*
X31725402Y32235941D01*
X31715608Y32162936D01*
X31707857Y32104697D01*
X31702425Y32063297D01*
X31699592Y32040796D01*
X31699237Y32037345D01*
X31702774Y32025367D01*
X31712820Y31995487D01*
X31728336Y31950611D01*
X31748281Y31893644D01*
X31771621Y31827492D01*
X31797314Y31755064D01*
X31824326Y31679263D01*
X31851614Y31602997D01*
X31878142Y31529171D01*
X31902872Y31460693D01*
X31924765Y31400468D01*
X31942783Y31351402D01*
X31955888Y31316403D01*
X31963042Y31298375D01*
X31963767Y31296880D01*
X31955756Y31289917D01*
X31931786Y31274105D01*
X31895156Y31251505D01*
X31849163Y31224183D01*
X31827468Y31211577D01*
X31688307Y31131231D01*
X31680870Y31155691D01*
X31674240Y31175323D01*
X31661333Y31211704D01*
X31643252Y31261830D01*
X31621110Y31322696D01*
X31596014Y31391296D01*
X31569071Y31464628D01*
X31541394Y31539690D01*
X31514087Y31613476D01*
X31488262Y31682979D01*
X31465027Y31745200D01*
X31445490Y31797131D01*
X31430761Y31835771D01*
X31421947Y31858114D01*
X31420108Y31862229D01*
X31409812Y31871699D01*
X31383644Y31893083D01*
X31343411Y31924974D01*
X31290921Y31965969D01*
X31227983Y32014662D01*
X31156399Y32069645D01*
X31077980Y32129515D01*
X31011341Y32180134D01*
X30928520Y32242973D01*
X30850846Y32302038D01*
X30780162Y32355920D01*
X30718305Y32403208D01*
X30667119Y32442494D01*
X30628446Y32472368D01*
X30604126Y32491422D01*
X30596261Y32497905D01*
X30591915Y32504036D01*
X30593559Y32510987D01*
X30603738Y32520593D01*
X30624997Y32534694D01*
X30659883Y32555121D01*
X30710937Y32583713D01*
X30729425Y32593958D01*
X30877211Y32675746D01*
X31167110Y32450143D01*
X31236532Y32396371D01*
X31300376Y32347407D01*
X31356561Y32304810D01*
X31403005Y32270135D01*
X31437632Y32244942D01*
X31458357Y32230786D01*
X31463463Y32228266D01*
X31466117Y32239720D01*
X31470913Y32270771D01*
X31477545Y32319020D01*
X31485701Y32382067D01*
X31495073Y32457513D01*
X31505357Y32542954D01*
X31516235Y32635992D01*
X31518513Y32655797D01*
X31567109Y33079600D01*
X31713659Y33164634D01*
X31772733Y33198391D01*
X31814978Y33221215D01*
X31842281Y33234005D01*
X31856514Y33237658D01*
X31859753Y33234470D01*
G37*
%TD*%
M02*
