M48
; DRILL file {KiCad 9.0.6+1} date 2025-12-28T14:22:33+0000
; FORMAT={3:3/ absolute / metric / suppress leading zeros}
; #@! TF.CreationDate,2025-12-28T14:22:33+00:00
; #@! TF.GenerationSoftware,Kicad,Pcbnew,9.0.6+1
; #@! TF.FileFunction,Plated,1,2,PTH
FMAT,2
METRIC,TZ
; #@! TA.AperFunction,Plated,PTH,ViaDrill
T1C0.400
; #@! TA.AperFunction,Plated,PTH,ComponentDrill
T2C0.889
; #@! TA.AperFunction,Plated,PTH,ComponentDrill
T3C3.000
%
G90
G05
T1
X19003Y18828
X21874Y14944
X23686Y25005
X27263Y43022
X31306Y26043
X32247Y28044
X33317Y24489
X33528Y31242
X34001Y33549
X34099Y25143
X34519Y21971
X34801Y34485
X35306Y45974
X35931Y14530
X37656Y17271
X38024Y34574
X38207Y18362
X38693Y27957
X39293Y44603
X40001Y29245
X40747Y34842
X40894Y48895
X42032Y38020
X42266Y45822
X42801Y46780
X43788Y34635
X43993Y23673
X44882Y22530
X45249Y19855
X45806Y25113
X45850Y17031
X46228Y47498
X46836Y17200
X47079Y34739
X47901Y35741
X49801Y21117
X51435Y12167
X51511Y24257
X51791Y25552
X52286Y23025
X59036Y38886
T2
X22860Y53340
X22860Y50800
X25400Y53340
X25400Y50800
X27940Y53340
X27940Y50800
X30480Y53340
X30480Y50800
X33020Y53340
X33020Y50800
X35560Y53340
X35560Y50800
X38100Y53340
X38100Y50800
X40640Y53340
X40640Y50800
X43180Y53340
X43180Y50800
X45720Y53340
X45720Y50800
X48260Y53340
X48260Y50800
X50800Y53340
X50800Y50800
X53340Y53340
X53340Y50800
X55880Y53340
X55880Y50800
X58420Y53340
X58420Y50800
T3
X10160Y50800
X10160Y10160
X71120Y50800
X71120Y10160
M30
