%TF.GenerationSoftware,KiCad,Pcbnew,9.0.1+1*%
%TF.CreationDate,2025-11-25T21:21:07+00:00*%
%TF.ProjectId,TFUNIPAYLOAD01,5446554e-4950-4415-994c-4f414430312e,rev?*%
%TF.SameCoordinates,Original*%
%TF.FileFunction,Copper,L3,Inr*%
%TF.FilePolarity,Positive*%
%FSLAX46Y46*%
G04 Gerber Fmt 4.6, Leading zero omitted, Abs format (unit mm)*
G04 Created by KiCad (PCBNEW 9.0.1+1) date 2025-11-25 21:21:07*
%MOMM*%
%LPD*%
G01*
G04 APERTURE LIST*
%TA.AperFunction,ComponentPad*%
%ADD10C,6.000000*%
%TD*%
%TA.AperFunction,ComponentPad*%
%ADD11O,0.900000X1.300000*%
%TD*%
%TA.AperFunction,ComponentPad*%
%ADD12R,1.700000X1.700000*%
%TD*%
%TA.AperFunction,ComponentPad*%
%ADD13C,1.700000*%
%TD*%
%TA.AperFunction,ViaPad*%
%ADD14C,0.800000*%
%TD*%
%TA.AperFunction,Conductor*%
%ADD15C,0.400000*%
%TD*%
G04 APERTURE END LIST*
D10*
%TO.N,GND*%
%TO.C,M2*%
X174972341Y-78676927D03*
%TD*%
%TO.N,GND*%
%TO.C,M3*%
X103852341Y-78676927D03*
%TD*%
%TO.N,GND*%
%TO.C,M4*%
X103852341Y-119316927D03*
%TD*%
%TO.N,GND*%
%TO.C,M1*%
X174972341Y-119316927D03*
%TD*%
D11*
%TO.N,GND*%
%TO.C,SW1*%
X139208741Y-146823727D03*
X143458741Y-146823727D03*
%TD*%
D12*
%TO.N,GND*%
%TO.C,J5*%
X89902341Y-83812327D03*
D13*
X87362341Y-83812327D03*
%TO.N,+5V*%
X89902341Y-86352327D03*
X87362341Y-86352327D03*
%TO.N,+3.3V*%
X89902341Y-88892327D03*
X87362341Y-88892327D03*
%TO.N,GND*%
X89902341Y-91432327D03*
%TO.N,/EXT_DETECTION*%
X87362341Y-91432327D03*
%TO.N,/A0*%
X89902341Y-93972327D03*
%TO.N,/~{RST}_EXT*%
X87362341Y-93972327D03*
%TO.N,/A1*%
X89902341Y-96512327D03*
%TO.N,/RX1*%
X87362341Y-96512327D03*
%TO.N,/B1*%
X89902341Y-99052327D03*
%TO.N,/TX1*%
X87362341Y-99052327D03*
%TO.N,/B0*%
X89902341Y-101592327D03*
%TO.N,/MOSI*%
X87362341Y-101592327D03*
%TO.N,/C1*%
X89902341Y-104132327D03*
%TO.N,/MISO*%
X87362341Y-104132327D03*
%TO.N,/C0*%
X89902341Y-106672327D03*
%TO.N,/SCLK*%
X87362341Y-106672327D03*
%TO.N,GND*%
X89902341Y-109212327D03*
X87362341Y-109212327D03*
%TO.N,/SCL*%
X89902341Y-111752327D03*
X87362341Y-111752327D03*
%TO.N,+3.3V*%
X89902341Y-114292327D03*
X87362341Y-114292327D03*
%TO.N,/SDA*%
X89902341Y-116832327D03*
X87362341Y-116832327D03*
%TO.N,GND*%
X89902341Y-119372327D03*
X87362341Y-119372327D03*
%TD*%
D14*
%TO.N,*%
X168063539Y-116726127D03*
X145181381Y-94661915D03*
X168306341Y-112402927D03*
X182236741Y-94069327D03*
X180595156Y-114230135D03*
X147875857Y-95470143D03*
X179442755Y-114236913D03*
X127628641Y-84825627D03*
X180560341Y-116649927D03*
X177276341Y-109522927D03*
X152724916Y-103722632D03*
X176750341Y-105753327D03*
X163034341Y-116726127D03*
X147921341Y-99708127D03*
X172084160Y-114961455D03*
X180814341Y-120078927D03*
X129252341Y-107734527D03*
X171916484Y-106462927D03*
X119168541Y-113597425D03*
%TO.N,GND*%
X130319141Y-122720527D03*
X112894741Y-98895327D03*
X109948341Y-84772927D03*
X111472341Y-78676927D03*
X161002341Y-82232927D03*
X170400341Y-122568127D03*
X187926341Y-102552927D03*
X187164341Y-108394927D03*
X142739741Y-104864327D03*
X147540341Y-82994927D03*
X156201741Y-79972327D03*
X170095541Y-76416327D03*
X134687941Y-89598927D03*
X164761541Y-75247927D03*
X126712341Y-116941927D03*
X119092341Y-78676927D03*
X165142541Y-117132527D03*
X131792341Y-76136927D03*
X168114341Y-122618927D03*
X142005929Y-113493571D03*
X143933541Y-90310127D03*
X185640341Y-102552927D03*
X160748341Y-122618927D03*
X140306986Y-114878873D03*
X167149141Y-111900127D03*
X184116341Y-109410927D03*
X187164341Y-97599927D03*
X169854213Y-81635163D03*
X150749696Y-123241927D03*
X172178341Y-97269727D03*
X156902405Y-99875165D03*
X158970341Y-77025927D03*
X107007066Y-111870688D03*
X185640341Y-110045927D03*
X152975941Y-82639327D03*
X105762027Y-109429655D03*
X167930923Y-87647509D03*
X118076341Y-84645927D03*
X121632341Y-78676927D03*
X128080141Y-106261327D03*
X149318341Y-76136927D03*
X185691141Y-103924527D03*
X175327941Y-91478527D03*
X111472341Y-76136927D03*
X108939137Y-117926796D03*
X129026341Y-116941927D03*
X189247141Y-74587527D03*
X176775741Y-89268727D03*
X120209941Y-120434527D03*
X132706741Y-122923727D03*
X142917541Y-101105127D03*
X134662541Y-82944127D03*
X187164341Y-116522927D03*
X133113141Y-120434527D03*
X188434341Y-98488927D03*
X167453941Y-105753327D03*
X187418341Y-92646927D03*
X173600741Y-88379727D03*
X125130654Y-107589012D03*
X186427741Y-77813327D03*
X151604341Y-75628927D03*
X159783141Y-75730527D03*
X152264741Y-112484327D03*
X118942172Y-116370964D03*
X156313545Y-97742129D03*
X121632341Y-116941927D03*
X154681159Y-123718127D03*
X187164341Y-118046927D03*
X108932341Y-78676927D03*
X187164341Y-119824927D03*
X164405941Y-101917927D03*
X168165141Y-100139927D03*
X129564341Y-90614927D03*
X178553741Y-107251927D03*
X178934741Y-89294127D03*
X140377541Y-92164327D03*
X131614541Y-92113527D03*
X120057541Y-102654527D03*
X171162341Y-81851927D03*
X135983341Y-113881327D03*
X124172341Y-78676927D03*
X160164141Y-110579327D03*
X177664741Y-91427727D03*
X168066341Y-84222927D03*
X123994541Y-81242327D03*
X178401341Y-101155927D03*
X124985141Y-92748527D03*
X187164341Y-115125927D03*
X157065341Y-77025927D03*
X153382341Y-75628927D03*
X124172341Y-116941927D03*
X159116341Y-91342927D03*
X170984541Y-87770127D03*
X155592139Y-101760384D03*
X188688341Y-89852927D03*
X122165741Y-122441127D03*
X142714341Y-82055127D03*
X156684341Y-75628927D03*
X148302341Y-123241927D03*
X187900941Y-74587527D03*
X114012341Y-78676927D03*
X136237341Y-122491927D03*
X141024591Y-102285577D03*
X141952341Y-119316927D03*
X181347741Y-75171727D03*
X109262541Y-119850327D03*
X162500941Y-101028927D03*
X171111541Y-75171727D03*
X172762541Y-101054327D03*
X114418741Y-80734327D03*
X155160341Y-75628927D03*
X137862941Y-91986527D03*
X129252341Y-76136927D03*
X132249541Y-81369327D03*
X108525941Y-103772127D03*
X187164341Y-89852927D03*
X179925341Y-121983927D03*
X177300541Y-112188125D03*
X187545341Y-94551927D03*
X108932341Y-76136927D03*
X156531941Y-108610727D03*
X151858341Y-96202927D03*
X185894341Y-89852927D03*
X149775541Y-110680927D03*
X179335426Y-104902927D03*
X153209205Y-123362527D03*
X183074941Y-74587527D03*
X189323341Y-77813327D03*
X188078741Y-77864127D03*
X179214141Y-75705127D03*
X149953341Y-82080527D03*
X174438941Y-84112527D03*
X143984341Y-84264927D03*
X158081341Y-78854727D03*
X172279941Y-95161527D03*
X137913741Y-75120927D03*
X165066341Y-109842727D03*
X103090341Y-91376927D03*
X164659941Y-81801127D03*
X117060341Y-116345127D03*
X136465941Y-106845527D03*
X143222341Y-120409127D03*
X109008541Y-80607327D03*
X149318341Y-77914927D03*
X188434341Y-108394927D03*
X178970407Y-91405976D03*
X116552341Y-78676927D03*
X134332341Y-76136927D03*
X177284274Y-100610366D03*
X112259741Y-120129727D03*
X185945141Y-74714527D03*
X189196341Y-102552927D03*
X144822541Y-100139927D03*
X175228595Y-99239301D03*
X126204341Y-92646927D03*
X163415341Y-106337527D03*
X118381141Y-111544527D03*
X143857341Y-110045927D03*
X164304341Y-122618927D03*
%TO.N,/~{RST}_PRG*%
X155684341Y-85957019D03*
X170646341Y-102902923D03*
X142486341Y-93382927D03*
%TO.N,Net-(D6-K)*%
X157065341Y-115379927D03*
%TO.N,/SCL*%
X161095573Y-91552927D03*
X186351541Y-83147327D03*
X139513941Y-118707327D03*
X112012122Y-113239948D03*
X141217741Y-106134327D03*
X168532804Y-93655736D03*
%TO.N,/SDA*%
X161249741Y-92544392D03*
X186402341Y-81877327D03*
X165482091Y-94618777D03*
X141550006Y-107909262D03*
X108754543Y-113144728D03*
X140064693Y-119639079D03*
%TO.N,Net-(D3-K)*%
X152137741Y-115481527D03*
%TO.N,/A0*%
X131705596Y-109955328D03*
X148117027Y-92350870D03*
%TO.N,Net-(D4-K)*%
X147006939Y-115456127D03*
%TO.N,Net-(D5-K)*%
X168012741Y-75933727D03*
%TO.N,+3.3V*%
X171826341Y-113622927D03*
X173194341Y-105169127D03*
X160750309Y-89703727D03*
X134956336Y-119375432D03*
X134956341Y-117142927D03*
X157098949Y-88704742D03*
X166481142Y-90652927D03*
X136846941Y-102593520D03*
X171826341Y-110972927D03*
X180136341Y-103752927D03*
%TO.N,unconnected-(U2-PA2-Pad35)*%
X127474341Y-93434327D03*
X147972141Y-98514327D03*
%TO.N,/RX0*%
X171158421Y-107115112D03*
X178172741Y-96660127D03*
X161141941Y-87033526D03*
%TO.N,/TX0*%
X175353341Y-105473927D03*
X178204826Y-98825814D03*
X160291131Y-86042927D03*
%TO.N,Vin*%
X172737141Y-99113727D03*
%TO.N,/PC5_D1*%
X160419934Y-94130855D03*
X149572341Y-112966927D03*
%TO.N,/PC7_D3*%
X158719422Y-94401561D03*
X159783141Y-114846527D03*
%TO.N,/PC6_D2*%
X159489709Y-93763860D03*
X157217741Y-109537927D03*
%TO.N,/TX1*%
X179391941Y-85534927D03*
X166031541Y-84518925D03*
%TO.N,/RX1*%
X179341141Y-87058927D03*
X162018341Y-84112527D03*
%TO.N,/SCLK*%
X154085390Y-86329368D03*
%TO.N,/C1*%
X148149941Y-87160527D03*
X160096262Y-88697631D03*
%TO.N,/MOSI*%
X151655141Y-84163327D03*
%TO.N,/B1*%
X149775541Y-108699725D03*
X153104510Y-87820727D03*
%TO.N,/MISO*%
X153096509Y-86180641D03*
%TO.N,/B0*%
X120406341Y-106103427D03*
X153867397Y-88541710D03*
%TO.N,/A1*%
X146829141Y-93552927D03*
X110343536Y-93343932D03*
X133956341Y-105016727D03*
X126926169Y-98476098D03*
X108144947Y-95313927D03*
%TO.N,/CS1*%
X149826341Y-85865127D03*
%TD*%
D15*
%TO.N,/~{RST}_PRG*%
X162026341Y-92294399D02*
X162026341Y-89340327D01*
X170646341Y-100914399D02*
X162026341Y-92294399D01*
X162026341Y-89340327D02*
X160514627Y-87828613D01*
X152888112Y-85153927D02*
X154881249Y-85153927D01*
X142486341Y-93382927D02*
X146638741Y-89230527D01*
X170646341Y-102902923D02*
X170646341Y-100914399D01*
X154881249Y-85153927D02*
X155684341Y-85957019D01*
X148811512Y-89230527D02*
X152888112Y-85153927D01*
X155709433Y-85957019D02*
X155684341Y-85957019D01*
X157581027Y-87828613D02*
X155709433Y-85957019D01*
X160514627Y-87828613D02*
X157581027Y-87828613D01*
X146638741Y-89230527D02*
X148811512Y-89230527D01*
%TO.N,/SCL*%
X180560341Y-83147327D02*
X170051932Y-93655736D01*
X160449741Y-92189727D02*
X161086541Y-91552927D01*
X161316341Y-93862927D02*
X160449741Y-92996327D01*
X160449741Y-92996327D02*
X160449741Y-92189727D01*
X170051932Y-93655736D02*
X168532804Y-93655736D01*
X141217741Y-106134327D02*
X158424941Y-106134327D01*
X186351541Y-83147327D02*
X180560341Y-83147327D01*
X158424941Y-106134327D02*
X161316341Y-103242927D01*
X161086541Y-91552927D02*
X161095573Y-91552927D01*
X161316341Y-103242927D02*
X161316341Y-93862927D01*
%TO.N,/SDA*%
X178223541Y-81877327D02*
X165482091Y-94618777D01*
X141550006Y-107909262D02*
X141648541Y-107810727D01*
X141648541Y-107810727D02*
X159518541Y-107810727D01*
X159518541Y-107810727D02*
X163415341Y-103913927D01*
X163415341Y-94709992D02*
X161249741Y-92544392D01*
X186402341Y-81877327D02*
X178223541Y-81877327D01*
X163415341Y-103913927D02*
X163415341Y-94709992D01*
%TO.N,/RX0*%
X178172741Y-97566527D02*
X170823388Y-104915880D01*
X170823388Y-104915880D02*
X170823388Y-106780079D01*
X178172741Y-96660127D02*
X178172741Y-97566527D01*
X170823388Y-106780079D02*
X171158421Y-107115112D01*
%TD*%
%TA.AperFunction,Conductor*%
%TO.N,GND*%
G36*
X159838667Y-94334767D02*
G01*
X159858165Y-94358844D01*
X159939412Y-94499568D01*
X159939414Y-94499571D01*
X160051218Y-94611375D01*
X160188150Y-94690432D01*
X160340877Y-94731355D01*
X160340879Y-94731355D01*
X160498989Y-94731355D01*
X160498991Y-94731355D01*
X160651718Y-94690432D01*
X160767342Y-94623676D01*
X160827189Y-94610955D01*
X160883085Y-94635842D01*
X160913678Y-94688830D01*
X160915841Y-94709413D01*
X160915841Y-97011727D01*
X158149942Y-97011727D01*
X158149941Y-94596383D01*
X158159845Y-94633345D01*
X158238902Y-94770277D01*
X158350706Y-94882081D01*
X158487638Y-94961138D01*
X158640365Y-95002061D01*
X158640367Y-95002061D01*
X158798477Y-95002061D01*
X158798479Y-95002061D01*
X158951206Y-94961138D01*
X159088138Y-94882081D01*
X159199942Y-94770277D01*
X159278999Y-94633345D01*
X159319922Y-94480618D01*
X159319922Y-94463360D01*
X159338829Y-94405169D01*
X159388329Y-94369205D01*
X159418922Y-94364360D01*
X159568764Y-94364360D01*
X159568766Y-94364360D01*
X159721493Y-94323437D01*
X159722922Y-94322612D01*
X159724080Y-94322365D01*
X159727491Y-94320953D01*
X159727752Y-94321584D01*
X159782769Y-94309885D01*
X159838667Y-94334767D01*
G37*
%TD.AperFunction*%
%TA.AperFunction,Conductor*%
G36*
X189907032Y-73880334D02*
G01*
X189942996Y-73929834D01*
X189947841Y-73960427D01*
X189947841Y-124033427D01*
X189928934Y-124091618D01*
X189879434Y-124127582D01*
X189848841Y-124132427D01*
X99135841Y-124132427D01*
X99077650Y-124113520D01*
X99041686Y-124064020D01*
X99036841Y-124033427D01*
X99036841Y-119296587D01*
X134155836Y-119296587D01*
X134155836Y-119454276D01*
X134186599Y-119608928D01*
X134186599Y-119608930D01*
X134246939Y-119754606D01*
X134246945Y-119754617D01*
X134299648Y-119833491D01*
X134334547Y-119885721D01*
X134446047Y-119997221D01*
X134524212Y-120049449D01*
X134577150Y-120084822D01*
X134577161Y-120084828D01*
X134630974Y-120107117D01*
X134722839Y-120145169D01*
X134877494Y-120175932D01*
X134877495Y-120175932D01*
X135035177Y-120175932D01*
X135035178Y-120175932D01*
X135189833Y-120145169D01*
X135335515Y-120084826D01*
X135466625Y-119997221D01*
X135578125Y-119885721D01*
X135665730Y-119754611D01*
X135726073Y-119608929D01*
X135756836Y-119454274D01*
X135756836Y-119296590D01*
X135726073Y-119141935D01*
X135683262Y-119038579D01*
X135665732Y-118996257D01*
X135665726Y-118996246D01*
X135613931Y-118918731D01*
X135578125Y-118865143D01*
X135466625Y-118753643D01*
X135392473Y-118704096D01*
X135335521Y-118666041D01*
X135335510Y-118666035D01*
X135244335Y-118628270D01*
X138913441Y-118628270D01*
X138913441Y-118786384D01*
X138954364Y-118939111D01*
X139033421Y-119076043D01*
X139145225Y-119187847D01*
X139282157Y-119266904D01*
X139429653Y-119306425D01*
X139480965Y-119339748D01*
X139502892Y-119396869D01*
X139499655Y-119427673D01*
X139486056Y-119478427D01*
X139464193Y-119560022D01*
X139464193Y-119718136D01*
X139505116Y-119870863D01*
X139584173Y-120007795D01*
X139695977Y-120119599D01*
X139832909Y-120198656D01*
X139985636Y-120239579D01*
X139985638Y-120239579D01*
X140143748Y-120239579D01*
X140143750Y-120239579D01*
X140296477Y-120198656D01*
X140433409Y-120119599D01*
X140545213Y-120007795D01*
X140549788Y-119999870D01*
X180213841Y-119999870D01*
X180213841Y-120157984D01*
X180254764Y-120310711D01*
X180333821Y-120447643D01*
X180445625Y-120559447D01*
X180582557Y-120638504D01*
X180735284Y-120679427D01*
X180735286Y-120679427D01*
X180893396Y-120679427D01*
X180893398Y-120679427D01*
X181046125Y-120638504D01*
X181183057Y-120559447D01*
X181294861Y-120447643D01*
X181373918Y-120310711D01*
X181414841Y-120157984D01*
X181414841Y-119999870D01*
X181373918Y-119847143D01*
X181294861Y-119710211D01*
X181183057Y-119598407D01*
X181046125Y-119519350D01*
X180893398Y-119478427D01*
X180735284Y-119478427D01*
X180582557Y-119519350D01*
X180445625Y-119598407D01*
X180333821Y-119710211D01*
X180254764Y-119847143D01*
X180213841Y-119999870D01*
X140549788Y-119999870D01*
X140565892Y-119971976D01*
X140582114Y-119943881D01*
X140624269Y-119870864D01*
X140624270Y-119870863D01*
X140665193Y-119718136D01*
X140665193Y-119560022D01*
X140624270Y-119407295D01*
X140545213Y-119270363D01*
X140433409Y-119158559D01*
X140296477Y-119079502D01*
X140148981Y-119039980D01*
X140097667Y-119006657D01*
X140075741Y-118949535D01*
X140078977Y-118918735D01*
X140114441Y-118786384D01*
X140114441Y-118628270D01*
X140073518Y-118475543D01*
X139994461Y-118338611D01*
X139882657Y-118226807D01*
X139745725Y-118147750D01*
X139592998Y-118106827D01*
X139434884Y-118106827D01*
X139282157Y-118147750D01*
X139145225Y-118226807D01*
X139033421Y-118338611D01*
X138954364Y-118475543D01*
X138913441Y-118628270D01*
X135244335Y-118628270D01*
X135189833Y-118605695D01*
X135035180Y-118574932D01*
X135035178Y-118574932D01*
X134877494Y-118574932D01*
X134877491Y-118574932D01*
X134722839Y-118605695D01*
X134722837Y-118605695D01*
X134577161Y-118666035D01*
X134577150Y-118666041D01*
X134446047Y-118753643D01*
X134446043Y-118753646D01*
X134334550Y-118865139D01*
X134334547Y-118865143D01*
X134246945Y-118996246D01*
X134246939Y-118996257D01*
X134186599Y-119141933D01*
X134186599Y-119141935D01*
X134155836Y-119296587D01*
X99036841Y-119296587D01*
X99036841Y-117064082D01*
X134155841Y-117064082D01*
X134155841Y-117221771D01*
X134186604Y-117376423D01*
X134186604Y-117376425D01*
X134246944Y-117522101D01*
X134246950Y-117522112D01*
X134299653Y-117600986D01*
X134334552Y-117653216D01*
X134446052Y-117764716D01*
X134524217Y-117816944D01*
X134577155Y-117852317D01*
X134577166Y-117852323D01*
X134630979Y-117874612D01*
X134722844Y-117912664D01*
X134877499Y-117943427D01*
X134877500Y-117943427D01*
X135035182Y-117943427D01*
X135035183Y-117943427D01*
X135189838Y-117912664D01*
X135335520Y-117852321D01*
X135466630Y-117764716D01*
X135578130Y-117653216D01*
X135665735Y-117522106D01*
X135726078Y-117376424D01*
X135756841Y-117221769D01*
X135756841Y-117064085D01*
X135726078Y-116909430D01*
X135682898Y-116805184D01*
X135665737Y-116763752D01*
X135665731Y-116763740D01*
X135620189Y-116695583D01*
X135587773Y-116647070D01*
X162433841Y-116647070D01*
X162433841Y-116805184D01*
X162474764Y-116957911D01*
X162553821Y-117094843D01*
X162665625Y-117206647D01*
X162802557Y-117285704D01*
X162955284Y-117326627D01*
X162955286Y-117326627D01*
X163113396Y-117326627D01*
X163113398Y-117326627D01*
X163266125Y-117285704D01*
X163403057Y-117206647D01*
X163514861Y-117094843D01*
X163593918Y-116957911D01*
X163634841Y-116805184D01*
X163634841Y-116647070D01*
X167463039Y-116647070D01*
X167463039Y-116805184D01*
X167503962Y-116957911D01*
X167583019Y-117094843D01*
X167694823Y-117206647D01*
X167831755Y-117285704D01*
X167984482Y-117326627D01*
X167984484Y-117326627D01*
X168142594Y-117326627D01*
X168142596Y-117326627D01*
X168295323Y-117285704D01*
X168432255Y-117206647D01*
X168544059Y-117094843D01*
X168623116Y-116957911D01*
X168664039Y-116805184D01*
X168664039Y-116647070D01*
X168643621Y-116570870D01*
X179959841Y-116570870D01*
X179959841Y-116728984D01*
X180000764Y-116881711D01*
X180079821Y-117018643D01*
X180191625Y-117130447D01*
X180328557Y-117209504D01*
X180481284Y-117250427D01*
X180481286Y-117250427D01*
X180639396Y-117250427D01*
X180639398Y-117250427D01*
X180792125Y-117209504D01*
X180929057Y-117130447D01*
X181040861Y-117018643D01*
X181119918Y-116881711D01*
X181160841Y-116728984D01*
X181160841Y-116570870D01*
X181119918Y-116418143D01*
X181040861Y-116281211D01*
X180929057Y-116169407D01*
X180792125Y-116090350D01*
X180639398Y-116049427D01*
X180481284Y-116049427D01*
X180328557Y-116090350D01*
X180191625Y-116169407D01*
X180079821Y-116281211D01*
X180000764Y-116418143D01*
X179959841Y-116570870D01*
X168643621Y-116570870D01*
X168623116Y-116494343D01*
X168544059Y-116357411D01*
X168432255Y-116245607D01*
X168295323Y-116166550D01*
X168142596Y-116125627D01*
X167984482Y-116125627D01*
X167831755Y-116166550D01*
X167694823Y-116245607D01*
X167583019Y-116357411D01*
X167503962Y-116494343D01*
X167463039Y-116647070D01*
X163634841Y-116647070D01*
X163593918Y-116494343D01*
X163514861Y-116357411D01*
X163403057Y-116245607D01*
X163266125Y-116166550D01*
X163113398Y-116125627D01*
X162955284Y-116125627D01*
X162802557Y-116166550D01*
X162665625Y-116245607D01*
X162553821Y-116357411D01*
X162474764Y-116494343D01*
X162433841Y-116647070D01*
X135587773Y-116647070D01*
X135578130Y-116632638D01*
X135466633Y-116521141D01*
X135466630Y-116521138D01*
X135414400Y-116486239D01*
X135335526Y-116433536D01*
X135335515Y-116433530D01*
X135189838Y-116373190D01*
X135035185Y-116342427D01*
X135035183Y-116342427D01*
X134877499Y-116342427D01*
X134877496Y-116342427D01*
X134722844Y-116373190D01*
X134722842Y-116373190D01*
X134577166Y-116433530D01*
X134577155Y-116433536D01*
X134446052Y-116521138D01*
X134446048Y-116521141D01*
X134334555Y-116632634D01*
X134334552Y-116632638D01*
X134246950Y-116763741D01*
X134246944Y-116763752D01*
X134186604Y-116909428D01*
X134186604Y-116909430D01*
X134155841Y-117064082D01*
X99036841Y-117064082D01*
X99036841Y-115377070D01*
X146406439Y-115377070D01*
X146406439Y-115535184D01*
X146447362Y-115687911D01*
X146526419Y-115824843D01*
X146638223Y-115936647D01*
X146775155Y-116015704D01*
X146927882Y-116056627D01*
X146927884Y-116056627D01*
X147085994Y-116056627D01*
X147085996Y-116056627D01*
X147238723Y-116015704D01*
X147375655Y-115936647D01*
X147487459Y-115824843D01*
X147566516Y-115687911D01*
X147607439Y-115535184D01*
X147607439Y-115402470D01*
X151537241Y-115402470D01*
X151537241Y-115560584D01*
X151578164Y-115713311D01*
X151657221Y-115850243D01*
X151769025Y-115962047D01*
X151905957Y-116041104D01*
X152058684Y-116082027D01*
X152058686Y-116082027D01*
X152216796Y-116082027D01*
X152216798Y-116082027D01*
X152369525Y-116041104D01*
X152506457Y-115962047D01*
X152618261Y-115850243D01*
X152697318Y-115713311D01*
X152738241Y-115560584D01*
X152738241Y-115402470D01*
X152711017Y-115300870D01*
X156464841Y-115300870D01*
X156464841Y-115458984D01*
X156505764Y-115611711D01*
X156584821Y-115748643D01*
X156696625Y-115860447D01*
X156833557Y-115939504D01*
X156986284Y-115980427D01*
X156986286Y-115980427D01*
X157144396Y-115980427D01*
X157144398Y-115980427D01*
X157297125Y-115939504D01*
X157434057Y-115860447D01*
X157545861Y-115748643D01*
X157624918Y-115611711D01*
X157665841Y-115458984D01*
X157665841Y-115300870D01*
X157624918Y-115148143D01*
X157545861Y-115011211D01*
X157434057Y-114899407D01*
X157297125Y-114820350D01*
X157144398Y-114779427D01*
X156986284Y-114779427D01*
X156833557Y-114820350D01*
X156696625Y-114899407D01*
X156584821Y-115011211D01*
X156505764Y-115148143D01*
X156464841Y-115300870D01*
X152711017Y-115300870D01*
X152697318Y-115249743D01*
X152618261Y-115112811D01*
X152506457Y-115001007D01*
X152369525Y-114921950D01*
X152216798Y-114881027D01*
X152058684Y-114881027D01*
X151905957Y-114921950D01*
X151769025Y-115001007D01*
X151657221Y-115112811D01*
X151578164Y-115249743D01*
X151537241Y-115402470D01*
X147607439Y-115402470D01*
X147607439Y-115377070D01*
X147566516Y-115224343D01*
X147487459Y-115087411D01*
X147375655Y-114975607D01*
X147238723Y-114896550D01*
X147085996Y-114855627D01*
X146927882Y-114855627D01*
X146775155Y-114896550D01*
X146638223Y-114975607D01*
X146526419Y-115087411D01*
X146447362Y-115224343D01*
X146406439Y-115377070D01*
X99036841Y-115377070D01*
X99036841Y-114767470D01*
X159182641Y-114767470D01*
X159182641Y-114925584D01*
X159223564Y-115078311D01*
X159302621Y-115215243D01*
X159414425Y-115327047D01*
X159551357Y-115406104D01*
X159704084Y-115447027D01*
X159704086Y-115447027D01*
X159862196Y-115447027D01*
X159862198Y-115447027D01*
X160014925Y-115406104D01*
X160151857Y-115327047D01*
X160263661Y-115215243D01*
X160342718Y-115078311D01*
X160383641Y-114925584D01*
X160383641Y-114767470D01*
X160342718Y-114614743D01*
X160263661Y-114477811D01*
X160151857Y-114366007D01*
X160014925Y-114286950D01*
X159862198Y-114246027D01*
X159704084Y-114246027D01*
X159551357Y-114286950D01*
X159414425Y-114366007D01*
X159302621Y-114477811D01*
X159223564Y-114614743D01*
X159182641Y-114767470D01*
X99036841Y-114767470D01*
X99036841Y-113065671D01*
X108154043Y-113065671D01*
X108154043Y-113223785D01*
X108194966Y-113376512D01*
X108274023Y-113513444D01*
X108385827Y-113625248D01*
X108522759Y-113704305D01*
X108675486Y-113745228D01*
X108675488Y-113745228D01*
X108833598Y-113745228D01*
X108833600Y-113745228D01*
X108986327Y-113704305D01*
X109123259Y-113625248D01*
X109235063Y-113513444D01*
X109314120Y-113376512D01*
X109355043Y-113223785D01*
X109355043Y-113160891D01*
X111411622Y-113160891D01*
X111411622Y-113319005D01*
X111452545Y-113471732D01*
X111531602Y-113608664D01*
X111643406Y-113720468D01*
X111780338Y-113799525D01*
X111933065Y-113840448D01*
X111933067Y-113840448D01*
X112091177Y-113840448D01*
X112091179Y-113840448D01*
X112243906Y-113799525D01*
X112380838Y-113720468D01*
X112492642Y-113608664D01*
X112544774Y-113518368D01*
X118568041Y-113518368D01*
X118568041Y-113676482D01*
X118608964Y-113829209D01*
X118688021Y-113966141D01*
X118799825Y-114077945D01*
X118936757Y-114157002D01*
X119089484Y-114197925D01*
X119089486Y-114197925D01*
X119247596Y-114197925D01*
X119247598Y-114197925D01*
X119400325Y-114157002D01*
X119537257Y-114077945D01*
X119649061Y-113966141D01*
X119728118Y-113829209D01*
X119769041Y-113676482D01*
X119769041Y-113518368D01*
X119728118Y-113365641D01*
X119649061Y-113228709D01*
X119537257Y-113116905D01*
X119400325Y-113037848D01*
X119247598Y-112996925D01*
X119089484Y-112996925D01*
X118936757Y-113037848D01*
X118799825Y-113116905D01*
X118688021Y-113228709D01*
X118608964Y-113365641D01*
X118568041Y-113518368D01*
X112544774Y-113518368D01*
X112571699Y-113471732D01*
X112612622Y-113319005D01*
X112612622Y-113160891D01*
X112571699Y-113008164D01*
X112502248Y-112887870D01*
X148971841Y-112887870D01*
X148971841Y-113045984D01*
X149012764Y-113198711D01*
X149091821Y-113335643D01*
X149203625Y-113447447D01*
X149340557Y-113526504D01*
X149493284Y-113567427D01*
X149493286Y-113567427D01*
X149651396Y-113567427D01*
X149651398Y-113567427D01*
X149738523Y-113544082D01*
X171025841Y-113544082D01*
X171025841Y-113701771D01*
X171056604Y-113856423D01*
X171056604Y-113856425D01*
X171116944Y-114002101D01*
X171116950Y-114002112D01*
X171167620Y-114077944D01*
X171204552Y-114133216D01*
X171316052Y-114244716D01*
X171379260Y-114286950D01*
X171447155Y-114332317D01*
X171447166Y-114332323D01*
X171516291Y-114360955D01*
X171592844Y-114392664D01*
X171592852Y-114392665D01*
X171596578Y-114393796D01*
X171646774Y-114428782D01*
X171666819Y-114486591D01*
X171649057Y-114545141D01*
X171637842Y-114558536D01*
X171603642Y-114592736D01*
X171603640Y-114592738D01*
X171603640Y-114592739D01*
X171524583Y-114729671D01*
X171483660Y-114882398D01*
X171483660Y-115040512D01*
X171524583Y-115193239D01*
X171603640Y-115330171D01*
X171715444Y-115441975D01*
X171852376Y-115521032D01*
X172005103Y-115561955D01*
X172005105Y-115561955D01*
X172163215Y-115561955D01*
X172163217Y-115561955D01*
X172315944Y-115521032D01*
X172452876Y-115441975D01*
X172564680Y-115330171D01*
X172643737Y-115193239D01*
X172684660Y-115040512D01*
X172684660Y-114882398D01*
X172643737Y-114729671D01*
X172564680Y-114592739D01*
X172452876Y-114480935D01*
X172338733Y-114415035D01*
X172297794Y-114369567D01*
X172291398Y-114308717D01*
X172321991Y-114255729D01*
X172333221Y-114246993D01*
X172336630Y-114244716D01*
X172423490Y-114157856D01*
X178842255Y-114157856D01*
X178842255Y-114315970D01*
X178883178Y-114468697D01*
X178962235Y-114605629D01*
X179074039Y-114717433D01*
X179210971Y-114796490D01*
X179363698Y-114837413D01*
X179363700Y-114837413D01*
X179521810Y-114837413D01*
X179521812Y-114837413D01*
X179674539Y-114796490D01*
X179811471Y-114717433D01*
X179923275Y-114605629D01*
X179935175Y-114585016D01*
X179980643Y-114544075D01*
X180041494Y-114537678D01*
X180094482Y-114568270D01*
X180106646Y-114585012D01*
X180114636Y-114598851D01*
X180226440Y-114710655D01*
X180363372Y-114789712D01*
X180516099Y-114830635D01*
X180516101Y-114830635D01*
X180674211Y-114830635D01*
X180674213Y-114830635D01*
X180826940Y-114789712D01*
X180963872Y-114710655D01*
X181075676Y-114598851D01*
X181154733Y-114461919D01*
X181195656Y-114309192D01*
X181195656Y-114151078D01*
X181154733Y-113998351D01*
X181075676Y-113861419D01*
X180963872Y-113749615D01*
X180826940Y-113670558D01*
X180674213Y-113629635D01*
X180516099Y-113629635D01*
X180363372Y-113670558D01*
X180226440Y-113749615D01*
X180114634Y-113861421D01*
X180102733Y-113882034D01*
X180057262Y-113922974D01*
X179996412Y-113929368D01*
X179943425Y-113898774D01*
X179931264Y-113882034D01*
X179923275Y-113868197D01*
X179811471Y-113756393D01*
X179674539Y-113677336D01*
X179521812Y-113636413D01*
X179363698Y-113636413D01*
X179210971Y-113677336D01*
X179074039Y-113756393D01*
X178962235Y-113868197D01*
X178883178Y-114005129D01*
X178842255Y-114157856D01*
X172423490Y-114157856D01*
X172448130Y-114133216D01*
X172485062Y-114077944D01*
X172535731Y-114002113D01*
X172535737Y-114002101D01*
X172591201Y-113868198D01*
X172596078Y-113856424D01*
X172626841Y-113701769D01*
X172626841Y-113544085D01*
X172596078Y-113389430D01*
X172535735Y-113243748D01*
X172535734Y-113243746D01*
X172535731Y-113243741D01*
X172480372Y-113160892D01*
X172448130Y-113112638D01*
X172336630Y-113001138D01*
X172278809Y-112962503D01*
X172205526Y-112913536D01*
X172205515Y-112913530D01*
X172059838Y-112853190D01*
X171905185Y-112822427D01*
X171905183Y-112822427D01*
X171747499Y-112822427D01*
X171747496Y-112822427D01*
X171592844Y-112853190D01*
X171592842Y-112853190D01*
X171447166Y-112913530D01*
X171447155Y-112913536D01*
X171316052Y-113001138D01*
X171316048Y-113001141D01*
X171204555Y-113112634D01*
X171204552Y-113112638D01*
X171116950Y-113243741D01*
X171116944Y-113243752D01*
X171056604Y-113389428D01*
X171056604Y-113389430D01*
X171025841Y-113544082D01*
X149738523Y-113544082D01*
X149804125Y-113526504D01*
X149941057Y-113447447D01*
X150052861Y-113335643D01*
X150131918Y-113198711D01*
X150172841Y-113045984D01*
X150172841Y-112887870D01*
X150131918Y-112735143D01*
X150052861Y-112598211D01*
X149941057Y-112486407D01*
X149804125Y-112407350D01*
X149651398Y-112366427D01*
X149493284Y-112366427D01*
X149340557Y-112407350D01*
X149203625Y-112486407D01*
X149091821Y-112598211D01*
X149012764Y-112735143D01*
X148971841Y-112887870D01*
X112502248Y-112887870D01*
X112492642Y-112871232D01*
X112380838Y-112759428D01*
X112243906Y-112680371D01*
X112091179Y-112639448D01*
X111933065Y-112639448D01*
X111780338Y-112680371D01*
X111643406Y-112759428D01*
X111531602Y-112871232D01*
X111452545Y-113008164D01*
X111411622Y-113160891D01*
X109355043Y-113160891D01*
X109355043Y-113065671D01*
X109314120Y-112912944D01*
X109235063Y-112776012D01*
X109123259Y-112664208D01*
X108986327Y-112585151D01*
X108833600Y-112544228D01*
X108675486Y-112544228D01*
X108522759Y-112585151D01*
X108385827Y-112664208D01*
X108274023Y-112776012D01*
X108194966Y-112912944D01*
X108154043Y-113065671D01*
X99036841Y-113065671D01*
X99036841Y-112323870D01*
X167705841Y-112323870D01*
X167705841Y-112481984D01*
X167746764Y-112634711D01*
X167825821Y-112771643D01*
X167937625Y-112883447D01*
X168074557Y-112962504D01*
X168227284Y-113003427D01*
X168227286Y-113003427D01*
X168385396Y-113003427D01*
X168385398Y-113003427D01*
X168538125Y-112962504D01*
X168675057Y-112883447D01*
X168786861Y-112771643D01*
X168865918Y-112634711D01*
X168906841Y-112481984D01*
X168906841Y-112323870D01*
X168865918Y-112171143D01*
X168786861Y-112034211D01*
X168675057Y-111922407D01*
X168538125Y-111843350D01*
X168385398Y-111802427D01*
X168227284Y-111802427D01*
X168074557Y-111843350D01*
X167937625Y-111922407D01*
X167825821Y-112034211D01*
X167746764Y-112171143D01*
X167705841Y-112323870D01*
X99036841Y-112323870D01*
X99036841Y-110894082D01*
X171025841Y-110894082D01*
X171025841Y-111051771D01*
X171056604Y-111206423D01*
X171056604Y-111206425D01*
X171116944Y-111352101D01*
X171116950Y-111352112D01*
X171169653Y-111430986D01*
X171204552Y-111483216D01*
X171316052Y-111594716D01*
X171394217Y-111646944D01*
X171447155Y-111682317D01*
X171447166Y-111682323D01*
X171500979Y-111704612D01*
X171592844Y-111742664D01*
X171747499Y-111773427D01*
X171747500Y-111773427D01*
X171905182Y-111773427D01*
X171905183Y-111773427D01*
X172059838Y-111742664D01*
X172205520Y-111682321D01*
X172336630Y-111594716D01*
X172448130Y-111483216D01*
X172535735Y-111352106D01*
X172596078Y-111206424D01*
X172626841Y-111051769D01*
X172626841Y-110894085D01*
X172596078Y-110739430D01*
X172535735Y-110593748D01*
X172535734Y-110593746D01*
X172535731Y-110593741D01*
X172500358Y-110540803D01*
X172448130Y-110462638D01*
X172336630Y-110351138D01*
X172284400Y-110316239D01*
X172205526Y-110263536D01*
X172205515Y-110263530D01*
X172059838Y-110203190D01*
X171905185Y-110172427D01*
X171905183Y-110172427D01*
X171747499Y-110172427D01*
X171747496Y-110172427D01*
X171592844Y-110203190D01*
X171592842Y-110203190D01*
X171447166Y-110263530D01*
X171447155Y-110263536D01*
X171316052Y-110351138D01*
X171316048Y-110351141D01*
X171204555Y-110462634D01*
X171204552Y-110462638D01*
X171116950Y-110593741D01*
X171116944Y-110593752D01*
X171056604Y-110739428D01*
X171056604Y-110739430D01*
X171025841Y-110894082D01*
X99036841Y-110894082D01*
X99036841Y-109876271D01*
X131105096Y-109876271D01*
X131105096Y-110034385D01*
X131146019Y-110187112D01*
X131225076Y-110324044D01*
X131336880Y-110435848D01*
X131473812Y-110514905D01*
X131626539Y-110555828D01*
X131626541Y-110555828D01*
X131784651Y-110555828D01*
X131784653Y-110555828D01*
X131937380Y-110514905D01*
X132074312Y-110435848D01*
X132186116Y-110324044D01*
X132265173Y-110187112D01*
X132306096Y-110034385D01*
X132306096Y-109876271D01*
X132265173Y-109723544D01*
X132186116Y-109586612D01*
X132074312Y-109474808D01*
X132046706Y-109458870D01*
X156617241Y-109458870D01*
X156617241Y-109616984D01*
X156658164Y-109769711D01*
X156737221Y-109906643D01*
X156849025Y-110018447D01*
X156985957Y-110097504D01*
X157138684Y-110138427D01*
X157138686Y-110138427D01*
X157296796Y-110138427D01*
X157296798Y-110138427D01*
X157449525Y-110097504D01*
X157586457Y-110018447D01*
X157698261Y-109906643D01*
X157777318Y-109769711D01*
X157818241Y-109616984D01*
X157818241Y-109458870D01*
X157814222Y-109443870D01*
X176675841Y-109443870D01*
X176675841Y-109601984D01*
X176716764Y-109754711D01*
X176795821Y-109891643D01*
X176907625Y-110003447D01*
X177044557Y-110082504D01*
X177197284Y-110123427D01*
X177197286Y-110123427D01*
X177355396Y-110123427D01*
X177355398Y-110123427D01*
X177508125Y-110082504D01*
X177645057Y-110003447D01*
X177756861Y-109891643D01*
X177835918Y-109754711D01*
X177876841Y-109601984D01*
X177876841Y-109443870D01*
X177835918Y-109291143D01*
X177756861Y-109154211D01*
X177645057Y-109042407D01*
X177508125Y-108963350D01*
X177355398Y-108922427D01*
X177197284Y-108922427D01*
X177044557Y-108963350D01*
X176907625Y-109042407D01*
X176795821Y-109154211D01*
X176716764Y-109291143D01*
X176675841Y-109443870D01*
X157814222Y-109443870D01*
X157777318Y-109306143D01*
X157698261Y-109169211D01*
X157586457Y-109057407D01*
X157449525Y-108978350D01*
X157296798Y-108937427D01*
X157138684Y-108937427D01*
X156985957Y-108978350D01*
X156849025Y-109057407D01*
X156737221Y-109169211D01*
X156658164Y-109306143D01*
X156617241Y-109458870D01*
X132046706Y-109458870D01*
X131937380Y-109395751D01*
X131784653Y-109354828D01*
X131626539Y-109354828D01*
X131473812Y-109395751D01*
X131336880Y-109474808D01*
X131225076Y-109586612D01*
X131146019Y-109723544D01*
X131105096Y-109876271D01*
X99036841Y-109876271D01*
X99036841Y-107655470D01*
X128651841Y-107655470D01*
X128651841Y-107813584D01*
X128692764Y-107966311D01*
X128771821Y-108103243D01*
X128883625Y-108215047D01*
X129020557Y-108294104D01*
X129173284Y-108335027D01*
X129173286Y-108335027D01*
X129331396Y-108335027D01*
X129331398Y-108335027D01*
X129484125Y-108294104D01*
X129621057Y-108215047D01*
X129732861Y-108103243D01*
X129811918Y-107966311D01*
X129852841Y-107813584D01*
X129852841Y-107655470D01*
X129811918Y-107502743D01*
X129732861Y-107365811D01*
X129621057Y-107254007D01*
X129484125Y-107174950D01*
X129331398Y-107134027D01*
X129173284Y-107134027D01*
X129020557Y-107174950D01*
X128883625Y-107254007D01*
X128771821Y-107365811D01*
X128692764Y-107502743D01*
X128651841Y-107655470D01*
X99036841Y-107655470D01*
X99036841Y-106024370D01*
X119805841Y-106024370D01*
X119805841Y-106182484D01*
X119846764Y-106335211D01*
X119925821Y-106472143D01*
X120037625Y-106583947D01*
X120174557Y-106663004D01*
X120327284Y-106703927D01*
X120327286Y-106703927D01*
X120485396Y-106703927D01*
X120485398Y-106703927D01*
X120638125Y-106663004D01*
X120775057Y-106583947D01*
X120886861Y-106472143D01*
X120965918Y-106335211D01*
X121006841Y-106182484D01*
X121006841Y-106055270D01*
X140617241Y-106055270D01*
X140617241Y-106213384D01*
X140658164Y-106366111D01*
X140737221Y-106503043D01*
X140849025Y-106614847D01*
X140985957Y-106693904D01*
X141138684Y-106734827D01*
X141138686Y-106734827D01*
X141296796Y-106734827D01*
X141296798Y-106734827D01*
X141449525Y-106693904D01*
X141586457Y-106614847D01*
X141617358Y-106583946D01*
X141637482Y-106563823D01*
X141691999Y-106536046D01*
X141707485Y-106534827D01*
X158477666Y-106534827D01*
X158477668Y-106534827D01*
X158579529Y-106507534D01*
X158579531Y-106507532D01*
X158579533Y-106507532D01*
X158670849Y-106454810D01*
X158670849Y-106454809D01*
X158670854Y-106454807D01*
X161636821Y-103488840D01*
X161689548Y-103397515D01*
X161716841Y-103295654D01*
X161716841Y-103190200D01*
X161716841Y-93816893D01*
X161735748Y-93758702D01*
X161785248Y-93722738D01*
X161846434Y-93722738D01*
X161885845Y-93746889D01*
X162985845Y-94846889D01*
X163013622Y-94901406D01*
X163014841Y-94916893D01*
X163014841Y-103707026D01*
X162995934Y-103765217D01*
X162985845Y-103777030D01*
X159381644Y-107381231D01*
X159327127Y-107409008D01*
X159311640Y-107410227D01*
X141913180Y-107410227D01*
X141863681Y-107396964D01*
X141781791Y-107349685D01*
X141730881Y-107336044D01*
X141629063Y-107308762D01*
X141470949Y-107308762D01*
X141318222Y-107349685D01*
X141181290Y-107428742D01*
X141069486Y-107540546D01*
X140990429Y-107677478D01*
X140949506Y-107830205D01*
X140949506Y-107988319D01*
X140990429Y-108141046D01*
X141069486Y-108277978D01*
X141181290Y-108389782D01*
X141318222Y-108468839D01*
X141470949Y-108509762D01*
X141470951Y-108509762D01*
X141629061Y-108509762D01*
X141629063Y-108509762D01*
X141781790Y-108468839D01*
X141918722Y-108389782D01*
X142030526Y-108277978D01*
X142040486Y-108260725D01*
X142085955Y-108219786D01*
X142126222Y-108211227D01*
X149192705Y-108211227D01*
X149250896Y-108230134D01*
X149286860Y-108279634D01*
X149286860Y-108340820D01*
X149278446Y-108359717D01*
X149215964Y-108467941D01*
X149175041Y-108620668D01*
X149175041Y-108778782D01*
X149215964Y-108931509D01*
X149295021Y-109068441D01*
X149406825Y-109180245D01*
X149543757Y-109259302D01*
X149696484Y-109300225D01*
X149696486Y-109300225D01*
X149854596Y-109300225D01*
X149854598Y-109300225D01*
X150007325Y-109259302D01*
X150144257Y-109180245D01*
X150256061Y-109068441D01*
X150335118Y-108931509D01*
X150376041Y-108778782D01*
X150376041Y-108620668D01*
X150335118Y-108467941D01*
X150272639Y-108359723D01*
X150259919Y-108299879D01*
X150284806Y-108243983D01*
X150337794Y-108213390D01*
X150358377Y-108211227D01*
X159571266Y-108211227D01*
X159571268Y-108211227D01*
X159673129Y-108183934D01*
X159673131Y-108183932D01*
X159673133Y-108183932D01*
X159764449Y-108131210D01*
X159764449Y-108131209D01*
X159764454Y-108131207D01*
X163032508Y-104863153D01*
X170422888Y-104863153D01*
X170422888Y-106727352D01*
X170422888Y-106832806D01*
X170446958Y-106922638D01*
X170450182Y-106934671D01*
X170502904Y-107025987D01*
X170502906Y-107025989D01*
X170502908Y-107025992D01*
X170528926Y-107052010D01*
X170556702Y-107106525D01*
X170557921Y-107122012D01*
X170557921Y-107194169D01*
X170598844Y-107346896D01*
X170677901Y-107483828D01*
X170789705Y-107595632D01*
X170926637Y-107674689D01*
X171079364Y-107715612D01*
X171079366Y-107715612D01*
X171237476Y-107715612D01*
X171237478Y-107715612D01*
X171390205Y-107674689D01*
X171527137Y-107595632D01*
X171638941Y-107483828D01*
X171717998Y-107346896D01*
X171758921Y-107194169D01*
X171758921Y-107162427D01*
X171777828Y-107104236D01*
X171827328Y-107068272D01*
X171857921Y-107063427D01*
X171995539Y-107063427D01*
X171995541Y-107063427D01*
X172148268Y-107022504D01*
X172285200Y-106943447D01*
X172397004Y-106831643D01*
X172476061Y-106694711D01*
X172516984Y-106541984D01*
X172516984Y-106383870D01*
X172476061Y-106231143D01*
X172397004Y-106094211D01*
X172285200Y-105982407D01*
X172148268Y-105903350D01*
X171995541Y-105862427D01*
X171837427Y-105862427D01*
X171687712Y-105902543D01*
X171684700Y-105903350D01*
X171547768Y-105982407D01*
X171435962Y-106094213D01*
X171408624Y-106141565D01*
X171363155Y-106182506D01*
X171302305Y-106188902D01*
X171249317Y-106158309D01*
X171224430Y-106102413D01*
X171223888Y-106092065D01*
X171223888Y-105122779D01*
X171226356Y-105115181D01*
X171225107Y-105107292D01*
X171233773Y-105090282D01*
X172393841Y-105090282D01*
X172393841Y-105247971D01*
X172414349Y-105351072D01*
X172421186Y-105385443D01*
X172424604Y-105402623D01*
X172424604Y-105402625D01*
X172484944Y-105548301D01*
X172484950Y-105548312D01*
X172534072Y-105621827D01*
X172572552Y-105679416D01*
X172684052Y-105790916D01*
X172746110Y-105832382D01*
X172815155Y-105878517D01*
X172815166Y-105878523D01*
X172868979Y-105900812D01*
X172960844Y-105938864D01*
X173115499Y-105969627D01*
X173115500Y-105969627D01*
X173273182Y-105969627D01*
X173273183Y-105969627D01*
X173427838Y-105938864D01*
X173573520Y-105878521D01*
X173704630Y-105790916D01*
X173816130Y-105679416D01*
X173903735Y-105548306D01*
X173964078Y-105402624D01*
X173965620Y-105394870D01*
X174752841Y-105394870D01*
X174752841Y-105552984D01*
X174793764Y-105705711D01*
X174872821Y-105842643D01*
X174984625Y-105954447D01*
X175121557Y-106033504D01*
X175274284Y-106074427D01*
X175274286Y-106074427D01*
X175432396Y-106074427D01*
X175432398Y-106074427D01*
X175585125Y-106033504D01*
X175722057Y-105954447D01*
X175833861Y-105842643D01*
X175912918Y-105705711D01*
X175921343Y-105674270D01*
X176149841Y-105674270D01*
X176149841Y-105832384D01*
X176190764Y-105985111D01*
X176269821Y-106122043D01*
X176381625Y-106233847D01*
X176518557Y-106312904D01*
X176671284Y-106353827D01*
X176671286Y-106353827D01*
X176829396Y-106353827D01*
X176829398Y-106353827D01*
X176982125Y-106312904D01*
X177119057Y-106233847D01*
X177230861Y-106122043D01*
X177309918Y-105985111D01*
X177350841Y-105832384D01*
X177350841Y-105674270D01*
X177309918Y-105521543D01*
X177230861Y-105384611D01*
X177119057Y-105272807D01*
X176982125Y-105193750D01*
X176829398Y-105152827D01*
X176671284Y-105152827D01*
X176518557Y-105193750D01*
X176381625Y-105272807D01*
X176269821Y-105384611D01*
X176190764Y-105521543D01*
X176149841Y-105674270D01*
X175921343Y-105674270D01*
X175953841Y-105552984D01*
X175953841Y-105394870D01*
X175912918Y-105242143D01*
X175833861Y-105105211D01*
X175722057Y-104993407D01*
X175585125Y-104914350D01*
X175432398Y-104873427D01*
X175274284Y-104873427D01*
X175121557Y-104914350D01*
X174984625Y-104993407D01*
X174872821Y-105105211D01*
X174793764Y-105242143D01*
X174752841Y-105394870D01*
X173965620Y-105394870D01*
X173994841Y-105247969D01*
X173994841Y-105090285D01*
X173964078Y-104935630D01*
X173934057Y-104863153D01*
X173903737Y-104789952D01*
X173903731Y-104789941D01*
X173868358Y-104737003D01*
X173816130Y-104658838D01*
X173704630Y-104547338D01*
X173652400Y-104512439D01*
X173573526Y-104459736D01*
X173573515Y-104459730D01*
X173427838Y-104399390D01*
X173273185Y-104368627D01*
X173273183Y-104368627D01*
X173115499Y-104368627D01*
X173115496Y-104368627D01*
X172960844Y-104399390D01*
X172960842Y-104399390D01*
X172815166Y-104459730D01*
X172815155Y-104459736D01*
X172684052Y-104547338D01*
X172684048Y-104547341D01*
X172572555Y-104658834D01*
X172572552Y-104658838D01*
X172484950Y-104789941D01*
X172484944Y-104789952D01*
X172424604Y-104935628D01*
X172424604Y-104935630D01*
X172393841Y-105090282D01*
X171233773Y-105090282D01*
X171235631Y-105086636D01*
X171242795Y-105064588D01*
X171252878Y-105052781D01*
X172631577Y-103674082D01*
X179335841Y-103674082D01*
X179335841Y-103674085D01*
X179335841Y-103831769D01*
X179362671Y-103966654D01*
X179366604Y-103986423D01*
X179366604Y-103986425D01*
X179426944Y-104132101D01*
X179426950Y-104132112D01*
X179445478Y-104159840D01*
X179514552Y-104263216D01*
X179626052Y-104374716D01*
X179688178Y-104416227D01*
X179757155Y-104462317D01*
X179757166Y-104462323D01*
X179810979Y-104484612D01*
X179902844Y-104522664D01*
X180057499Y-104553427D01*
X180057500Y-104553427D01*
X180215182Y-104553427D01*
X180215183Y-104553427D01*
X180369838Y-104522664D01*
X180515520Y-104462321D01*
X180646630Y-104374716D01*
X180758130Y-104263216D01*
X180845735Y-104132106D01*
X180906078Y-103986424D01*
X180936841Y-103831769D01*
X180936841Y-103674085D01*
X180906078Y-103519430D01*
X180854132Y-103394020D01*
X180845737Y-103373752D01*
X180845731Y-103373741D01*
X180807383Y-103316350D01*
X180758130Y-103242638D01*
X180646630Y-103131138D01*
X180565658Y-103077034D01*
X180515526Y-103043536D01*
X180515515Y-103043530D01*
X180369838Y-102983190D01*
X180215185Y-102952427D01*
X180215183Y-102952427D01*
X180057499Y-102952427D01*
X180057496Y-102952427D01*
X179902844Y-102983190D01*
X179902842Y-102983190D01*
X179757166Y-103043530D01*
X179757155Y-103043536D01*
X179626052Y-103131138D01*
X179626048Y-103131141D01*
X179514555Y-103242634D01*
X179514552Y-103242638D01*
X179426950Y-103373741D01*
X179426944Y-103373752D01*
X179366604Y-103519428D01*
X179366604Y-103519430D01*
X179335841Y-103674082D01*
X172631577Y-103674082D01*
X177440065Y-98865593D01*
X177494580Y-98837818D01*
X177555012Y-98847389D01*
X177598277Y-98890654D01*
X177605693Y-98909974D01*
X177645249Y-99057598D01*
X177724306Y-99194530D01*
X177836110Y-99306334D01*
X177973042Y-99385391D01*
X178125769Y-99426314D01*
X178125771Y-99426314D01*
X178283881Y-99426314D01*
X178283883Y-99426314D01*
X178436610Y-99385391D01*
X178573542Y-99306334D01*
X178685346Y-99194530D01*
X178764403Y-99057598D01*
X178805326Y-98904871D01*
X178805326Y-98746757D01*
X178764403Y-98594030D01*
X178685346Y-98457098D01*
X178573542Y-98345294D01*
X178436610Y-98266237D01*
X178288987Y-98226681D01*
X178237673Y-98193358D01*
X178215747Y-98136236D01*
X178231583Y-98077136D01*
X178244602Y-98061056D01*
X178418651Y-97887008D01*
X178418654Y-97887007D01*
X178493221Y-97812440D01*
X178545948Y-97721114D01*
X178573242Y-97619254D01*
X178573242Y-97513800D01*
X178573242Y-97507738D01*
X178573241Y-97507720D01*
X178573241Y-97149870D01*
X178592148Y-97091679D01*
X178602231Y-97079872D01*
X178653261Y-97028843D01*
X178732318Y-96891911D01*
X178773241Y-96739184D01*
X178773241Y-96581070D01*
X178732318Y-96428343D01*
X178653261Y-96291411D01*
X178541457Y-96179607D01*
X178404525Y-96100550D01*
X178251798Y-96059627D01*
X178093684Y-96059627D01*
X177940957Y-96100550D01*
X177804025Y-96179607D01*
X177692221Y-96291411D01*
X177613164Y-96428343D01*
X177572241Y-96581070D01*
X177572241Y-96739184D01*
X177613164Y-96891911D01*
X177692221Y-97028843D01*
X177743246Y-97079868D01*
X177771022Y-97134383D01*
X177772241Y-97149870D01*
X177772241Y-97359626D01*
X177753334Y-97417817D01*
X177743245Y-97429630D01*
X170502904Y-104669971D01*
X170450183Y-104761286D01*
X170450181Y-104761290D01*
X170450181Y-104761292D01*
X170438227Y-104805907D01*
X170422888Y-104863153D01*
X163032508Y-104863153D01*
X163735821Y-104159840D01*
X163772772Y-104095839D01*
X163775366Y-104091347D01*
X163778760Y-104085465D01*
X163788548Y-104068514D01*
X163815841Y-103966654D01*
X163815841Y-94889300D01*
X163834748Y-94831109D01*
X163884248Y-94795145D01*
X163945434Y-94795145D01*
X163984845Y-94819296D01*
X170216845Y-101051296D01*
X170244622Y-101105813D01*
X170245841Y-101121300D01*
X170245841Y-102413179D01*
X170226934Y-102471370D01*
X170216845Y-102483182D01*
X170165823Y-102534204D01*
X170165821Y-102534206D01*
X170165821Y-102534207D01*
X170086764Y-102671139D01*
X170045841Y-102823866D01*
X170045841Y-102981980D01*
X170086764Y-103134707D01*
X170165821Y-103271639D01*
X170277625Y-103383443D01*
X170414557Y-103462500D01*
X170567284Y-103503423D01*
X170567286Y-103503423D01*
X170725396Y-103503423D01*
X170725398Y-103503423D01*
X170878125Y-103462500D01*
X171015057Y-103383443D01*
X171126861Y-103271639D01*
X171205918Y-103134707D01*
X171246841Y-102981980D01*
X171246841Y-102823866D01*
X171205918Y-102671139D01*
X171126861Y-102534207D01*
X171107329Y-102514675D01*
X171075837Y-102483182D01*
X171048060Y-102428665D01*
X171046841Y-102413179D01*
X171046841Y-100861673D01*
X171046841Y-100861672D01*
X171019548Y-100759811D01*
X171019546Y-100759808D01*
X171019546Y-100759806D01*
X170966824Y-100668490D01*
X170966822Y-100668488D01*
X170966821Y-100668486D01*
X169333005Y-99034670D01*
X172136641Y-99034670D01*
X172136641Y-99192784D01*
X172177564Y-99345511D01*
X172256621Y-99482443D01*
X172368425Y-99594247D01*
X172505357Y-99673304D01*
X172658084Y-99714227D01*
X172658086Y-99714227D01*
X172816196Y-99714227D01*
X172816198Y-99714227D01*
X172968925Y-99673304D01*
X173105857Y-99594247D01*
X173217661Y-99482443D01*
X173296718Y-99345511D01*
X173337641Y-99192784D01*
X173337641Y-99034670D01*
X173296718Y-98881943D01*
X173217661Y-98745011D01*
X173105857Y-98633207D01*
X172968925Y-98554150D01*
X172816198Y-98513227D01*
X172658084Y-98513227D01*
X172505357Y-98554150D01*
X172368425Y-98633207D01*
X172256621Y-98745011D01*
X172177564Y-98881943D01*
X172136641Y-99034670D01*
X169333005Y-99034670D01*
X165648062Y-95349727D01*
X165620285Y-95295210D01*
X165629856Y-95234778D01*
X165673121Y-95191513D01*
X165692440Y-95184097D01*
X165713875Y-95178354D01*
X165850807Y-95099297D01*
X165962611Y-94987493D01*
X166041668Y-94850561D01*
X166082591Y-94697834D01*
X166082591Y-94625678D01*
X166101498Y-94567487D01*
X166111587Y-94555674D01*
X178360438Y-82306823D01*
X178414955Y-82279046D01*
X178430442Y-82277827D01*
X185912597Y-82277827D01*
X185970788Y-82296734D01*
X185982600Y-82306823D01*
X186033624Y-82357846D01*
X186033625Y-82357847D01*
X186127609Y-82412108D01*
X186168550Y-82457577D01*
X186174946Y-82518427D01*
X186144353Y-82571415D01*
X186124904Y-82583688D01*
X186125377Y-82584506D01*
X186119759Y-82587749D01*
X186119757Y-82587750D01*
X185982825Y-82666807D01*
X185982822Y-82666809D01*
X185931800Y-82717831D01*
X185877283Y-82745608D01*
X185861797Y-82746827D01*
X180619147Y-82746827D01*
X180619131Y-82746826D01*
X180613068Y-82746826D01*
X180507615Y-82746826D01*
X180405754Y-82774120D01*
X180405752Y-82774120D01*
X180405748Y-82774122D01*
X180314428Y-82826846D01*
X180239860Y-82901413D01*
X180239861Y-82901414D01*
X169915035Y-93226240D01*
X169860518Y-93254017D01*
X169845031Y-93255236D01*
X169022548Y-93255236D01*
X168964357Y-93236329D01*
X168952545Y-93226240D01*
X168901522Y-93175218D01*
X168901520Y-93175216D01*
X168764588Y-93096159D01*
X168611861Y-93055236D01*
X168453747Y-93055236D01*
X168301020Y-93096159D01*
X168164088Y-93175216D01*
X168052284Y-93287020D01*
X167973227Y-93423952D01*
X167932304Y-93576679D01*
X167932304Y-93734793D01*
X167973227Y-93887520D01*
X168052284Y-94024452D01*
X168164088Y-94136256D01*
X168301020Y-94215313D01*
X168453747Y-94256236D01*
X168453749Y-94256236D01*
X168611859Y-94256236D01*
X168611861Y-94256236D01*
X168764588Y-94215313D01*
X168901520Y-94136256D01*
X168935438Y-94102338D01*
X168952545Y-94085232D01*
X169007062Y-94057455D01*
X169022548Y-94056236D01*
X170104657Y-94056236D01*
X170104659Y-94056236D01*
X170206520Y-94028943D01*
X170206522Y-94028941D01*
X170206524Y-94028941D01*
X170273503Y-93990270D01*
X181636241Y-93990270D01*
X181636241Y-94148384D01*
X181677164Y-94301111D01*
X181756221Y-94438043D01*
X181868025Y-94549847D01*
X182004957Y-94628904D01*
X182157684Y-94669827D01*
X182157686Y-94669827D01*
X182315796Y-94669827D01*
X182315798Y-94669827D01*
X182468525Y-94628904D01*
X182605457Y-94549847D01*
X182717261Y-94438043D01*
X182796318Y-94301111D01*
X182837241Y-94148384D01*
X182837241Y-93990270D01*
X182796318Y-93837543D01*
X182717261Y-93700611D01*
X182605457Y-93588807D01*
X182468525Y-93509750D01*
X182315798Y-93468827D01*
X182157684Y-93468827D01*
X182004957Y-93509750D01*
X181868025Y-93588807D01*
X181756221Y-93700611D01*
X181677164Y-93837543D01*
X181636241Y-93990270D01*
X170273503Y-93990270D01*
X170297840Y-93976219D01*
X170297840Y-93976218D01*
X170297845Y-93976216D01*
X177294189Y-86979870D01*
X178740641Y-86979870D01*
X178740641Y-87137984D01*
X178781564Y-87290711D01*
X178860621Y-87427643D01*
X178972425Y-87539447D01*
X179109357Y-87618504D01*
X179262084Y-87659427D01*
X179262086Y-87659427D01*
X179420196Y-87659427D01*
X179420198Y-87659427D01*
X179572925Y-87618504D01*
X179709857Y-87539447D01*
X179821661Y-87427643D01*
X179900718Y-87290711D01*
X179941641Y-87137984D01*
X179941641Y-86979870D01*
X179900718Y-86827143D01*
X179821661Y-86690211D01*
X179709857Y-86578407D01*
X179572925Y-86499350D01*
X179420198Y-86458427D01*
X179262084Y-86458427D01*
X179109357Y-86499350D01*
X178972425Y-86578407D01*
X178860621Y-86690211D01*
X178781564Y-86827143D01*
X178740641Y-86979870D01*
X177294189Y-86979870D01*
X178642432Y-85631627D01*
X178696947Y-85603852D01*
X178757379Y-85613423D01*
X178800644Y-85656688D01*
X178808060Y-85676008D01*
X178832364Y-85766711D01*
X178911421Y-85903643D01*
X179023225Y-86015447D01*
X179160157Y-86094504D01*
X179312884Y-86135427D01*
X179312886Y-86135427D01*
X179470996Y-86135427D01*
X179470998Y-86135427D01*
X179623725Y-86094504D01*
X179760657Y-86015447D01*
X179872461Y-85903643D01*
X179951518Y-85766711D01*
X179992441Y-85613984D01*
X179992441Y-85455870D01*
X179951518Y-85303143D01*
X179872461Y-85166211D01*
X179760657Y-85054407D01*
X179623725Y-84975350D01*
X179533023Y-84951046D01*
X179481709Y-84917723D01*
X179459783Y-84860601D01*
X179475619Y-84801501D01*
X179488638Y-84785421D01*
X180697237Y-83576823D01*
X180751754Y-83549046D01*
X180767241Y-83547827D01*
X185861797Y-83547827D01*
X185919988Y-83566734D01*
X185931800Y-83576823D01*
X185958728Y-83603750D01*
X185982825Y-83627847D01*
X186119757Y-83706904D01*
X186272484Y-83747827D01*
X186272486Y-83747827D01*
X186430596Y-83747827D01*
X186430598Y-83747827D01*
X186583325Y-83706904D01*
X186720257Y-83627847D01*
X186832061Y-83516043D01*
X186911118Y-83379111D01*
X186952041Y-83226384D01*
X186952041Y-83068270D01*
X186911118Y-82915543D01*
X186832061Y-82778611D01*
X186720257Y-82666807D01*
X186626270Y-82612544D01*
X186585331Y-82567076D01*
X186578935Y-82506226D01*
X186609528Y-82453238D01*
X186628979Y-82440969D01*
X186628505Y-82440148D01*
X186634122Y-82436904D01*
X186634125Y-82436904D01*
X186771057Y-82357847D01*
X186882861Y-82246043D01*
X186961918Y-82109111D01*
X187002841Y-81956384D01*
X187002841Y-81798270D01*
X186961918Y-81645543D01*
X186882861Y-81508611D01*
X186771057Y-81396807D01*
X186634125Y-81317750D01*
X186481398Y-81276827D01*
X186323284Y-81276827D01*
X186170557Y-81317750D01*
X186033622Y-81396809D01*
X185982600Y-81447831D01*
X185928083Y-81475608D01*
X185912597Y-81476827D01*
X178170814Y-81476827D01*
X178068954Y-81504120D01*
X178068953Y-81504120D01*
X178068951Y-81504121D01*
X178068950Y-81504121D01*
X177977630Y-81556845D01*
X165545194Y-93989281D01*
X165490677Y-94017058D01*
X165475190Y-94018277D01*
X165403034Y-94018277D01*
X165250307Y-94059200D01*
X165113375Y-94138257D01*
X165001571Y-94250061D01*
X164922514Y-94386993D01*
X164922514Y-94386994D01*
X164916770Y-94408428D01*
X164883444Y-94459741D01*
X164826322Y-94481666D01*
X164767222Y-94465827D01*
X164751140Y-94452805D01*
X162455837Y-92157502D01*
X162428060Y-92102985D01*
X162426841Y-92087498D01*
X162426841Y-90574082D01*
X165680642Y-90574082D01*
X165680642Y-90731771D01*
X165711405Y-90886423D01*
X165711405Y-90886425D01*
X165771745Y-91032101D01*
X165771751Y-91032112D01*
X165810280Y-91089773D01*
X165859353Y-91163216D01*
X165970853Y-91274716D01*
X166040336Y-91321143D01*
X166101956Y-91362317D01*
X166101967Y-91362323D01*
X166155780Y-91384612D01*
X166247645Y-91422664D01*
X166402300Y-91453427D01*
X166402301Y-91453427D01*
X166559983Y-91453427D01*
X166559984Y-91453427D01*
X166714639Y-91422664D01*
X166860321Y-91362321D01*
X166991431Y-91274716D01*
X167102931Y-91163216D01*
X167190536Y-91032106D01*
X167250879Y-90886424D01*
X167281642Y-90731769D01*
X167281642Y-90574085D01*
X167250879Y-90419430D01*
X167211979Y-90325516D01*
X167190538Y-90273752D01*
X167190532Y-90273741D01*
X167150624Y-90214015D01*
X167102931Y-90142638D01*
X166991431Y-90031138D01*
X166939201Y-89996239D01*
X166860327Y-89943536D01*
X166860316Y-89943530D01*
X166714639Y-89883190D01*
X166559986Y-89852427D01*
X166559984Y-89852427D01*
X166402300Y-89852427D01*
X166402297Y-89852427D01*
X166247645Y-89883190D01*
X166247643Y-89883190D01*
X166101967Y-89943530D01*
X166101956Y-89943536D01*
X165970853Y-90031138D01*
X165970849Y-90031141D01*
X165859356Y-90142634D01*
X165859353Y-90142638D01*
X165771751Y-90273741D01*
X165771745Y-90273752D01*
X165711405Y-90419428D01*
X165711405Y-90419430D01*
X165680642Y-90574082D01*
X162426841Y-90574082D01*
X162426841Y-89287601D01*
X162424073Y-89277270D01*
X162399548Y-89185740D01*
X162395166Y-89178151D01*
X162346821Y-89094414D01*
X162272254Y-89019846D01*
X162272254Y-89019847D01*
X161055434Y-87803027D01*
X161027659Y-87748513D01*
X161037230Y-87688081D01*
X161080495Y-87644816D01*
X161125440Y-87634026D01*
X161220996Y-87634026D01*
X161220998Y-87634026D01*
X161373725Y-87593103D01*
X161510657Y-87514046D01*
X161622461Y-87402242D01*
X161701518Y-87265310D01*
X161742441Y-87112583D01*
X161742441Y-86954469D01*
X161701518Y-86801742D01*
X161622461Y-86664810D01*
X161510657Y-86553006D01*
X161373725Y-86473949D01*
X161220998Y-86433026D01*
X161062884Y-86433026D01*
X161025621Y-86443010D01*
X160934607Y-86467397D01*
X160873506Y-86464194D01*
X160825956Y-86425689D01*
X160810121Y-86366588D01*
X160823247Y-86322274D01*
X160850708Y-86274711D01*
X160891631Y-86121984D01*
X160891631Y-85963870D01*
X160850708Y-85811143D01*
X160771651Y-85674211D01*
X160659847Y-85562407D01*
X160522915Y-85483350D01*
X160370188Y-85442427D01*
X160212074Y-85442427D01*
X160059347Y-85483350D01*
X159922415Y-85562407D01*
X159810611Y-85674211D01*
X159731554Y-85811143D01*
X159690631Y-85963870D01*
X159690631Y-86121984D01*
X159731554Y-86274711D01*
X159810611Y-86411643D01*
X159922415Y-86523447D01*
X160059347Y-86602504D01*
X160212074Y-86643427D01*
X160212076Y-86643427D01*
X160370186Y-86643427D01*
X160370188Y-86643427D01*
X160498465Y-86609055D01*
X160559564Y-86612257D01*
X160607114Y-86650763D01*
X160622950Y-86709863D01*
X160609823Y-86754181D01*
X160582364Y-86801740D01*
X160574162Y-86832352D01*
X160541441Y-86954469D01*
X160541441Y-87112583D01*
X160556015Y-87166973D01*
X160582364Y-87265310D01*
X160590623Y-87279615D01*
X160603342Y-87339463D01*
X160578455Y-87395358D01*
X160525466Y-87425950D01*
X160504885Y-87428113D01*
X157787927Y-87428113D01*
X157729736Y-87409206D01*
X157717923Y-87399117D01*
X156313837Y-85995030D01*
X156286060Y-85940513D01*
X156284841Y-85925026D01*
X156284841Y-85877963D01*
X156277040Y-85848848D01*
X156243918Y-85725235D01*
X156164861Y-85588303D01*
X156053057Y-85476499D01*
X155916125Y-85397442D01*
X155763398Y-85356519D01*
X155763396Y-85356519D01*
X155691241Y-85356519D01*
X155633050Y-85337612D01*
X155621237Y-85327523D01*
X155395541Y-85101827D01*
X155127162Y-84833447D01*
X155127159Y-84833445D01*
X155127157Y-84833443D01*
X155035840Y-84780721D01*
X155035842Y-84780721D01*
X154996319Y-84770131D01*
X154933976Y-84753427D01*
X152940839Y-84753427D01*
X152835385Y-84753427D01*
X152773041Y-84770131D01*
X152733519Y-84780721D01*
X152642203Y-84833443D01*
X148674615Y-88801031D01*
X148620098Y-88828808D01*
X148604611Y-88830027D01*
X146586014Y-88830027D01*
X146523672Y-88846731D01*
X146484149Y-88857321D01*
X146404642Y-88903226D01*
X146404641Y-88903227D01*
X146401508Y-88905036D01*
X146392829Y-88910046D01*
X142549444Y-92753431D01*
X142494927Y-92781208D01*
X142479440Y-92782427D01*
X142407284Y-92782427D01*
X142254557Y-92823350D01*
X142117625Y-92902407D01*
X142005821Y-93014211D01*
X141926764Y-93151143D01*
X141885841Y-93303870D01*
X141885841Y-93461984D01*
X141926764Y-93614711D01*
X142005821Y-93751643D01*
X142117625Y-93863447D01*
X142254557Y-93942504D01*
X142407284Y-93983427D01*
X142407286Y-93983427D01*
X142565396Y-93983427D01*
X142565398Y-93983427D01*
X142718125Y-93942504D01*
X142855057Y-93863447D01*
X142966861Y-93751643D01*
X143045918Y-93614711D01*
X143083656Y-93473870D01*
X146228641Y-93473870D01*
X146228641Y-93631984D01*
X146269564Y-93784711D01*
X146348621Y-93921643D01*
X146460425Y-94033447D01*
X146597357Y-94112504D01*
X146750084Y-94153427D01*
X146750086Y-94153427D01*
X146908196Y-94153427D01*
X146908198Y-94153427D01*
X147060925Y-94112504D01*
X147197857Y-94033447D01*
X147309661Y-93921643D01*
X147388718Y-93784711D01*
X147429641Y-93631984D01*
X147429641Y-93473870D01*
X147388718Y-93321143D01*
X147309661Y-93184211D01*
X147197857Y-93072407D01*
X147060925Y-92993350D01*
X146908198Y-92952427D01*
X146750084Y-92952427D01*
X146597357Y-92993350D01*
X146460425Y-93072407D01*
X146348621Y-93184211D01*
X146269564Y-93321143D01*
X146228641Y-93473870D01*
X143083656Y-93473870D01*
X143086841Y-93461984D01*
X143086841Y-93389828D01*
X143105748Y-93331637D01*
X143115837Y-93319824D01*
X146775638Y-89660023D01*
X146830155Y-89632246D01*
X146845642Y-89631027D01*
X148864237Y-89631027D01*
X148864239Y-89631027D01*
X148966100Y-89603734D01*
X148966102Y-89603732D01*
X148966104Y-89603732D01*
X149057420Y-89551010D01*
X149057420Y-89551009D01*
X149057425Y-89551007D01*
X150866761Y-87741670D01*
X152504010Y-87741670D01*
X152504010Y-87899784D01*
X152544933Y-88052511D01*
X152623990Y-88189443D01*
X152735794Y-88301247D01*
X152872726Y-88380304D01*
X153025453Y-88421227D01*
X153025455Y-88421227D01*
X153167897Y-88421227D01*
X153226088Y-88440134D01*
X153262052Y-88489634D01*
X153266897Y-88520227D01*
X153266897Y-88620767D01*
X153307820Y-88773494D01*
X153386877Y-88910426D01*
X153498681Y-89022230D01*
X153635613Y-89101287D01*
X153788340Y-89142210D01*
X153788342Y-89142210D01*
X153946452Y-89142210D01*
X153946454Y-89142210D01*
X154099181Y-89101287D01*
X154236113Y-89022230D01*
X154347917Y-88910426D01*
X154426974Y-88773494D01*
X154467897Y-88620767D01*
X154467897Y-88462653D01*
X154426974Y-88309926D01*
X154347917Y-88172994D01*
X154236113Y-88061190D01*
X154099181Y-87982133D01*
X153946454Y-87941210D01*
X153804010Y-87941210D01*
X153745819Y-87922303D01*
X153709855Y-87872803D01*
X153705010Y-87842210D01*
X153705010Y-87741671D01*
X153705010Y-87741670D01*
X153664087Y-87588943D01*
X153585030Y-87452011D01*
X153473226Y-87340207D01*
X153336294Y-87261150D01*
X153183567Y-87220227D01*
X153025453Y-87220227D01*
X152872726Y-87261150D01*
X152735794Y-87340207D01*
X152623990Y-87452011D01*
X152544933Y-87588943D01*
X152504010Y-87741670D01*
X150866761Y-87741670D01*
X152343638Y-86264793D01*
X152398153Y-86237018D01*
X152458585Y-86246589D01*
X152501850Y-86289854D01*
X152509265Y-86309172D01*
X152536932Y-86412425D01*
X152615989Y-86549357D01*
X152727793Y-86661161D01*
X152864725Y-86740218D01*
X153017452Y-86781141D01*
X153017454Y-86781141D01*
X153175564Y-86781141D01*
X153175566Y-86781141D01*
X153328293Y-86740218D01*
X153465225Y-86661161D01*
X153465226Y-86661159D01*
X153468234Y-86659423D01*
X153528082Y-86646701D01*
X153583978Y-86671588D01*
X153603471Y-86695661D01*
X153604870Y-86698084D01*
X153716674Y-86809888D01*
X153853606Y-86888945D01*
X154006333Y-86929868D01*
X154006335Y-86929868D01*
X154164445Y-86929868D01*
X154164447Y-86929868D01*
X154317174Y-86888945D01*
X154454106Y-86809888D01*
X154565910Y-86698084D01*
X154644967Y-86561152D01*
X154685890Y-86408425D01*
X154685890Y-86250311D01*
X154644967Y-86097584D01*
X154565910Y-85960652D01*
X154454106Y-85848848D01*
X154317174Y-85769791D01*
X154239778Y-85749052D01*
X154188466Y-85715730D01*
X154166539Y-85658608D01*
X154182375Y-85599508D01*
X154229924Y-85561003D01*
X154265403Y-85554427D01*
X154674349Y-85554427D01*
X154732540Y-85573334D01*
X154744352Y-85583423D01*
X155054844Y-85893914D01*
X155082622Y-85948431D01*
X155083841Y-85963918D01*
X155083841Y-86036076D01*
X155124764Y-86188803D01*
X155203821Y-86325735D01*
X155315625Y-86437539D01*
X155452557Y-86516596D01*
X155605284Y-86557519D01*
X155702532Y-86557519D01*
X155760723Y-86576426D01*
X155772536Y-86586515D01*
X156406248Y-87220227D01*
X156947656Y-87761634D01*
X156975433Y-87816151D01*
X156965862Y-87876583D01*
X156922597Y-87919848D01*
X156896968Y-87928735D01*
X156865458Y-87935003D01*
X156865450Y-87935005D01*
X156719774Y-87995345D01*
X156719763Y-87995351D01*
X156588660Y-88082953D01*
X156588656Y-88082956D01*
X156477163Y-88194449D01*
X156477160Y-88194453D01*
X156389558Y-88325556D01*
X156389552Y-88325567D01*
X156329212Y-88471243D01*
X156329212Y-88471245D01*
X156298449Y-88625897D01*
X156298449Y-88783586D01*
X156307687Y-88830027D01*
X156323679Y-88910425D01*
X156329212Y-88938238D01*
X156329212Y-88938240D01*
X156389552Y-89083916D01*
X156389558Y-89083927D01*
X156442261Y-89162801D01*
X156477160Y-89215031D01*
X156588660Y-89326531D01*
X156650296Y-89367715D01*
X156719763Y-89414132D01*
X156719774Y-89414138D01*
X156773587Y-89436427D01*
X156865452Y-89474479D01*
X157020107Y-89505242D01*
X157020108Y-89505242D01*
X157177790Y-89505242D01*
X157177791Y-89505242D01*
X157332446Y-89474479D01*
X157478128Y-89414136D01*
X157609238Y-89326531D01*
X157720738Y-89215031D01*
X157808343Y-89083921D01*
X157868686Y-88938239D01*
X157899449Y-88783584D01*
X157899449Y-88625900D01*
X157868686Y-88471245D01*
X157836677Y-88393967D01*
X157825092Y-88365998D01*
X157820292Y-88305001D01*
X157852261Y-88252832D01*
X157908789Y-88229418D01*
X157916556Y-88229113D01*
X159501890Y-88229113D01*
X159560081Y-88248020D01*
X159596045Y-88297520D01*
X159596045Y-88358706D01*
X159587628Y-88377608D01*
X159536685Y-88465847D01*
X159495762Y-88618574D01*
X159495762Y-88776688D01*
X159536685Y-88929415D01*
X159615742Y-89066347D01*
X159727546Y-89178151D01*
X159864478Y-89257208D01*
X159939356Y-89277271D01*
X159990668Y-89310594D01*
X160012595Y-89367715D01*
X160005196Y-89410781D01*
X159980571Y-89470231D01*
X159949809Y-89624882D01*
X159949809Y-89782571D01*
X159980572Y-89937223D01*
X159980572Y-89937225D01*
X160040912Y-90082901D01*
X160040918Y-90082912D01*
X160080953Y-90142827D01*
X160128520Y-90214016D01*
X160240020Y-90325516D01*
X160318185Y-90377744D01*
X160371123Y-90413117D01*
X160371134Y-90413123D01*
X160424947Y-90435412D01*
X160516812Y-90473464D01*
X160671467Y-90504227D01*
X160671468Y-90504227D01*
X160829150Y-90504227D01*
X160829151Y-90504227D01*
X160983806Y-90473464D01*
X161129488Y-90413121D01*
X161260598Y-90325516D01*
X161372098Y-90214016D01*
X161444526Y-90105620D01*
X161492576Y-90067741D01*
X161553714Y-90065339D01*
X161604588Y-90099332D01*
X161625765Y-90156736D01*
X161625841Y-90160622D01*
X161625841Y-90995618D01*
X161606934Y-91053809D01*
X161557434Y-91089773D01*
X161496248Y-91089773D01*
X161466577Y-91074163D01*
X161464294Y-91072412D01*
X161464289Y-91072407D01*
X161327357Y-90993350D01*
X161174630Y-90952427D01*
X161016516Y-90952427D01*
X160863789Y-90993350D01*
X160726857Y-91072407D01*
X160615053Y-91184211D01*
X160535996Y-91321143D01*
X160524964Y-91362317D01*
X160495073Y-91473871D01*
X160495073Y-91536994D01*
X160476166Y-91595185D01*
X160466077Y-91606997D01*
X160129261Y-91943813D01*
X160129257Y-91943818D01*
X160076534Y-92035138D01*
X160076533Y-92035138D01*
X160076534Y-92035139D01*
X160076534Y-92035140D01*
X160049241Y-92137000D01*
X160049241Y-92943600D01*
X160049241Y-93049054D01*
X160066147Y-93112148D01*
X160076535Y-93150919D01*
X160129257Y-93242235D01*
X160129259Y-93242237D01*
X160129261Y-93242240D01*
X160279961Y-93392940D01*
X160283644Y-93400169D01*
X160290198Y-93404957D01*
X160297267Y-93426907D01*
X160307737Y-93447455D01*
X160306467Y-93455470D01*
X160308956Y-93463197D01*
X160301773Y-93485111D01*
X160298166Y-93507887D01*
X160292427Y-93513625D01*
X160289899Y-93521339D01*
X160273418Y-93532634D01*
X160254901Y-93551152D01*
X160240306Y-93557175D01*
X160237943Y-93557935D01*
X160188150Y-93571278D01*
X160177590Y-93577374D01*
X160167563Y-93580604D01*
X160146985Y-93580551D01*
X160126861Y-93584828D01*
X160117083Y-93580474D01*
X160106378Y-93580447D01*
X160089761Y-93568308D01*
X160070966Y-93559940D01*
X160060338Y-93546816D01*
X160056971Y-93544356D01*
X160056062Y-93541534D01*
X160051476Y-93535871D01*
X160049286Y-93532079D01*
X160049286Y-93532076D01*
X159970229Y-93395144D01*
X159858425Y-93283340D01*
X159721493Y-93204283D01*
X159568766Y-93163360D01*
X159410652Y-93163360D01*
X159257925Y-93204283D01*
X159120993Y-93283340D01*
X159009189Y-93395144D01*
X158930132Y-93532076D01*
X158894218Y-93666111D01*
X158889209Y-93684804D01*
X158889209Y-93702061D01*
X158870302Y-93760252D01*
X158820802Y-93796216D01*
X158790209Y-93801061D01*
X158640365Y-93801061D01*
X158487638Y-93841984D01*
X158350706Y-93921041D01*
X158238902Y-94032845D01*
X158159845Y-94169777D01*
X158127325Y-94291142D01*
X158099141Y-94319327D01*
X152866741Y-94319327D01*
X152866741Y-91118927D01*
X149463141Y-91118927D01*
X148153299Y-91750370D01*
X148037970Y-91750370D01*
X147885243Y-91791293D01*
X147748311Y-91870350D01*
X147636507Y-91982154D01*
X147622627Y-92006193D01*
X147566341Y-92033328D01*
X147566336Y-92103693D01*
X147557450Y-92119086D01*
X147516527Y-92271813D01*
X147516527Y-92429927D01*
X147557450Y-92582654D01*
X147566305Y-92597992D01*
X147566158Y-94955549D01*
X147507141Y-94989623D01*
X147395337Y-95101427D01*
X147316280Y-95238359D01*
X147275357Y-95391086D01*
X147275357Y-95549200D01*
X147316280Y-95701927D01*
X147395337Y-95838859D01*
X147507141Y-95950663D01*
X147566094Y-95984699D01*
X147565963Y-98071268D01*
X147491621Y-98145611D01*
X147412564Y-98282543D01*
X147371641Y-98435270D01*
X147371641Y-98593384D01*
X147412564Y-98746111D01*
X147491621Y-98883043D01*
X147565908Y-98957330D01*
X147565891Y-99219946D01*
X147552627Y-99227605D01*
X147552625Y-99227607D01*
X147440821Y-99339411D01*
X147361764Y-99476343D01*
X147320841Y-99629070D01*
X147320841Y-99787184D01*
X147361764Y-99939911D01*
X147440821Y-100076843D01*
X147552625Y-100188647D01*
X147565830Y-100196271D01*
X147565741Y-101634527D01*
X154644741Y-101634527D01*
X155914741Y-102904527D01*
X160842341Y-102904527D01*
X160915841Y-102831027D01*
X160915841Y-103036026D01*
X160896934Y-103094217D01*
X160886845Y-103106030D01*
X158288044Y-105704831D01*
X158233527Y-105732608D01*
X158218040Y-105733827D01*
X141707485Y-105733827D01*
X141649294Y-105714920D01*
X141637482Y-105704831D01*
X141586459Y-105653809D01*
X141586457Y-105653807D01*
X141449525Y-105574750D01*
X141296798Y-105533827D01*
X141138684Y-105533827D01*
X140985957Y-105574750D01*
X140849025Y-105653807D01*
X140737221Y-105765611D01*
X140658164Y-105902543D01*
X140617241Y-106055270D01*
X121006841Y-106055270D01*
X121006841Y-106024370D01*
X120965918Y-105871643D01*
X120886861Y-105734711D01*
X120775057Y-105622907D01*
X120638125Y-105543850D01*
X120485398Y-105502927D01*
X120327284Y-105502927D01*
X120174557Y-105543850D01*
X120037625Y-105622907D01*
X119925821Y-105734711D01*
X119846764Y-105871643D01*
X119805841Y-106024370D01*
X99036841Y-106024370D01*
X99036841Y-104937670D01*
X133355841Y-104937670D01*
X133355841Y-105095784D01*
X133396764Y-105248511D01*
X133475821Y-105385443D01*
X133587625Y-105497247D01*
X133724557Y-105576304D01*
X133877284Y-105617227D01*
X133877286Y-105617227D01*
X134035396Y-105617227D01*
X134035398Y-105617227D01*
X134188125Y-105576304D01*
X134325057Y-105497247D01*
X134436861Y-105385443D01*
X134515918Y-105248511D01*
X134556841Y-105095784D01*
X134556841Y-104937670D01*
X134515918Y-104784943D01*
X134436861Y-104648011D01*
X134325057Y-104536207D01*
X134188125Y-104457150D01*
X134035398Y-104416227D01*
X133877284Y-104416227D01*
X133724557Y-104457150D01*
X133587625Y-104536207D01*
X133475821Y-104648011D01*
X133396764Y-104784943D01*
X133355841Y-104937670D01*
X99036841Y-104937670D01*
X99036841Y-103643575D01*
X152124416Y-103643575D01*
X152124416Y-103801689D01*
X152165339Y-103954416D01*
X152244396Y-104091348D01*
X152356200Y-104203152D01*
X152493132Y-104282209D01*
X152645859Y-104323132D01*
X152645861Y-104323132D01*
X152803971Y-104323132D01*
X152803973Y-104323132D01*
X152956700Y-104282209D01*
X153093632Y-104203152D01*
X153205436Y-104091348D01*
X153284493Y-103954416D01*
X153325416Y-103801689D01*
X153325416Y-103643575D01*
X153284493Y-103490848D01*
X153205436Y-103353916D01*
X153093632Y-103242112D01*
X152956700Y-103163055D01*
X152803973Y-103122132D01*
X152645859Y-103122132D01*
X152493132Y-103163055D01*
X152356200Y-103242112D01*
X152244396Y-103353916D01*
X152165339Y-103490848D01*
X152124416Y-103643575D01*
X99036841Y-103643575D01*
X99036841Y-102514675D01*
X136046441Y-102514675D01*
X136046441Y-102514678D01*
X136046441Y-102672362D01*
X136076577Y-102823867D01*
X136077204Y-102827016D01*
X136077204Y-102827018D01*
X136137544Y-102972694D01*
X136137550Y-102972705D01*
X136179861Y-103036026D01*
X136225152Y-103103809D01*
X136336652Y-103215309D01*
X136377547Y-103242634D01*
X136467755Y-103302910D01*
X136467766Y-103302916D01*
X136521579Y-103325205D01*
X136613444Y-103363257D01*
X136768099Y-103394020D01*
X136768100Y-103394020D01*
X136925782Y-103394020D01*
X136925783Y-103394020D01*
X137080438Y-103363257D01*
X137226120Y-103302914D01*
X137357230Y-103215309D01*
X137468730Y-103103809D01*
X137556335Y-102972699D01*
X137616678Y-102827017D01*
X137647441Y-102672362D01*
X137647441Y-102514678D01*
X137616678Y-102360023D01*
X137596563Y-102311462D01*
X137556337Y-102214345D01*
X137556331Y-102214334D01*
X137520958Y-102161396D01*
X137468730Y-102083231D01*
X137357230Y-101971731D01*
X137305000Y-101936832D01*
X137226126Y-101884129D01*
X137226115Y-101884123D01*
X137080438Y-101823783D01*
X136925785Y-101793020D01*
X136925783Y-101793020D01*
X136768099Y-101793020D01*
X136768096Y-101793020D01*
X136613444Y-101823783D01*
X136613442Y-101823783D01*
X136467766Y-101884123D01*
X136467755Y-101884129D01*
X136336652Y-101971731D01*
X136336648Y-101971734D01*
X136225155Y-102083227D01*
X136225152Y-102083231D01*
X136137550Y-102214334D01*
X136137544Y-102214345D01*
X136077204Y-102360021D01*
X136077204Y-102360023D01*
X136046441Y-102514675D01*
X99036841Y-102514675D01*
X99036841Y-98397041D01*
X126325669Y-98397041D01*
X126325669Y-98555155D01*
X126366592Y-98707882D01*
X126445649Y-98844814D01*
X126557453Y-98956618D01*
X126694385Y-99035675D01*
X126847112Y-99076598D01*
X126847114Y-99076598D01*
X127005224Y-99076598D01*
X127005226Y-99076598D01*
X127157953Y-99035675D01*
X127294885Y-98956618D01*
X127406689Y-98844814D01*
X127485746Y-98707882D01*
X127526669Y-98555155D01*
X127526669Y-98397041D01*
X127485746Y-98244314D01*
X127406689Y-98107382D01*
X127294885Y-97995578D01*
X127157953Y-97916521D01*
X127005226Y-97875598D01*
X126847112Y-97875598D01*
X126694385Y-97916521D01*
X126557453Y-97995578D01*
X126445649Y-98107382D01*
X126366592Y-98244314D01*
X126325669Y-98397041D01*
X99036841Y-98397041D01*
X99036841Y-95234870D01*
X107544447Y-95234870D01*
X107544447Y-95392984D01*
X107585370Y-95545711D01*
X107664427Y-95682643D01*
X107776231Y-95794447D01*
X107913163Y-95873504D01*
X108065890Y-95914427D01*
X108065892Y-95914427D01*
X108224002Y-95914427D01*
X108224004Y-95914427D01*
X108376731Y-95873504D01*
X108513663Y-95794447D01*
X108625467Y-95682643D01*
X108704524Y-95545711D01*
X108745447Y-95392984D01*
X108745447Y-95234870D01*
X108704524Y-95082143D01*
X108625467Y-94945211D01*
X108513663Y-94833407D01*
X108376731Y-94754350D01*
X108224004Y-94713427D01*
X108065890Y-94713427D01*
X107913163Y-94754350D01*
X107776231Y-94833407D01*
X107664427Y-94945211D01*
X107585370Y-95082143D01*
X107544447Y-95234870D01*
X99036841Y-95234870D01*
X99036841Y-94582858D01*
X144580881Y-94582858D01*
X144580881Y-94740972D01*
X144621804Y-94893699D01*
X144700861Y-95030631D01*
X144812665Y-95142435D01*
X144949597Y-95221492D01*
X145102324Y-95262415D01*
X145102326Y-95262415D01*
X145260436Y-95262415D01*
X145260438Y-95262415D01*
X145413165Y-95221492D01*
X145550097Y-95142435D01*
X145661901Y-95030631D01*
X145740958Y-94893699D01*
X145781881Y-94740972D01*
X145781881Y-94582858D01*
X145740958Y-94430131D01*
X145661901Y-94293199D01*
X145550097Y-94181395D01*
X145413165Y-94102338D01*
X145260438Y-94061415D01*
X145102324Y-94061415D01*
X144949597Y-94102338D01*
X144812665Y-94181395D01*
X144700861Y-94293199D01*
X144621804Y-94430131D01*
X144580881Y-94582858D01*
X99036841Y-94582858D01*
X99036841Y-93264875D01*
X109743036Y-93264875D01*
X109743036Y-93422989D01*
X109783959Y-93575716D01*
X109863016Y-93712648D01*
X109974820Y-93824452D01*
X110111752Y-93903509D01*
X110264479Y-93944432D01*
X110264481Y-93944432D01*
X110422591Y-93944432D01*
X110422593Y-93944432D01*
X110575320Y-93903509D01*
X110712252Y-93824452D01*
X110824056Y-93712648D01*
X110903113Y-93575716D01*
X110944036Y-93422989D01*
X110944036Y-93355270D01*
X126873841Y-93355270D01*
X126873841Y-93513384D01*
X126914764Y-93666111D01*
X126993821Y-93803043D01*
X127105625Y-93914847D01*
X127242557Y-93993904D01*
X127395284Y-94034827D01*
X127395286Y-94034827D01*
X127553396Y-94034827D01*
X127553398Y-94034827D01*
X127706125Y-93993904D01*
X127843057Y-93914847D01*
X127954861Y-93803043D01*
X128033918Y-93666111D01*
X128074841Y-93513384D01*
X128074841Y-93355270D01*
X128033918Y-93202543D01*
X127954861Y-93065611D01*
X127843057Y-92953807D01*
X127706125Y-92874750D01*
X127553398Y-92833827D01*
X127395284Y-92833827D01*
X127242557Y-92874750D01*
X127105625Y-92953807D01*
X126993821Y-93065611D01*
X126914764Y-93202543D01*
X126873841Y-93355270D01*
X110944036Y-93355270D01*
X110944036Y-93264875D01*
X110903113Y-93112148D01*
X110824056Y-92975216D01*
X110712252Y-92863412D01*
X110575320Y-92784355D01*
X110422593Y-92743432D01*
X110264479Y-92743432D01*
X110111752Y-92784355D01*
X109974820Y-92863412D01*
X109863016Y-92975216D01*
X109783959Y-93112148D01*
X109743036Y-93264875D01*
X99036841Y-93264875D01*
X99036841Y-87081470D01*
X147549441Y-87081470D01*
X147549441Y-87239584D01*
X147590364Y-87392311D01*
X147669421Y-87529243D01*
X147781225Y-87641047D01*
X147918157Y-87720104D01*
X148070884Y-87761027D01*
X148070886Y-87761027D01*
X148228996Y-87761027D01*
X148228998Y-87761027D01*
X148381725Y-87720104D01*
X148518657Y-87641047D01*
X148630461Y-87529243D01*
X148709518Y-87392311D01*
X148750441Y-87239584D01*
X148750441Y-87081470D01*
X148709518Y-86928743D01*
X148630461Y-86791811D01*
X148518657Y-86680007D01*
X148381725Y-86600950D01*
X148228998Y-86560027D01*
X148070884Y-86560027D01*
X147918157Y-86600950D01*
X147781225Y-86680007D01*
X147669421Y-86791811D01*
X147590364Y-86928743D01*
X147549441Y-87081470D01*
X99036841Y-87081470D01*
X99036841Y-85786070D01*
X149225841Y-85786070D01*
X149225841Y-85944184D01*
X149266764Y-86096911D01*
X149345821Y-86233843D01*
X149457625Y-86345647D01*
X149594557Y-86424704D01*
X149747284Y-86465627D01*
X149747286Y-86465627D01*
X149905396Y-86465627D01*
X149905398Y-86465627D01*
X150058125Y-86424704D01*
X150195057Y-86345647D01*
X150306861Y-86233843D01*
X150385918Y-86096911D01*
X150426841Y-85944184D01*
X150426841Y-85786070D01*
X150385918Y-85633343D01*
X150306861Y-85496411D01*
X150195057Y-85384607D01*
X150058125Y-85305550D01*
X149905398Y-85264627D01*
X149747284Y-85264627D01*
X149594557Y-85305550D01*
X149457625Y-85384607D01*
X149345821Y-85496411D01*
X149266764Y-85633343D01*
X149225841Y-85786070D01*
X99036841Y-85786070D01*
X99036841Y-84746570D01*
X127028141Y-84746570D01*
X127028141Y-84904684D01*
X127069064Y-85057411D01*
X127148121Y-85194343D01*
X127259925Y-85306147D01*
X127396857Y-85385204D01*
X127549584Y-85426127D01*
X127549586Y-85426127D01*
X127707696Y-85426127D01*
X127707698Y-85426127D01*
X127860425Y-85385204D01*
X127997357Y-85306147D01*
X128109161Y-85194343D01*
X128188218Y-85057411D01*
X128229141Y-84904684D01*
X128229141Y-84746570D01*
X128188218Y-84593843D01*
X128109161Y-84456911D01*
X127997357Y-84345107D01*
X127860425Y-84266050D01*
X127707698Y-84225127D01*
X127549584Y-84225127D01*
X127396857Y-84266050D01*
X127259925Y-84345107D01*
X127148121Y-84456911D01*
X127069064Y-84593843D01*
X127028141Y-84746570D01*
X99036841Y-84746570D01*
X99036841Y-84084270D01*
X151054641Y-84084270D01*
X151054641Y-84242384D01*
X151095564Y-84395111D01*
X151174621Y-84532043D01*
X151286425Y-84643847D01*
X151423357Y-84722904D01*
X151576084Y-84763827D01*
X151576086Y-84763827D01*
X151734196Y-84763827D01*
X151734198Y-84763827D01*
X151886925Y-84722904D01*
X152023857Y-84643847D01*
X152135661Y-84532043D01*
X152214718Y-84395111D01*
X152255641Y-84242384D01*
X152255641Y-84084270D01*
X152242029Y-84033470D01*
X161417841Y-84033470D01*
X161417841Y-84191584D01*
X161458764Y-84344311D01*
X161537821Y-84481243D01*
X161649625Y-84593047D01*
X161786557Y-84672104D01*
X161939284Y-84713027D01*
X161939286Y-84713027D01*
X162097396Y-84713027D01*
X162097398Y-84713027D01*
X162250125Y-84672104D01*
X162387057Y-84593047D01*
X162498861Y-84481243D01*
X162522749Y-84439868D01*
X165431041Y-84439868D01*
X165431041Y-84597982D01*
X165471964Y-84750709D01*
X165551021Y-84887641D01*
X165662825Y-84999445D01*
X165799757Y-85078502D01*
X165952484Y-85119425D01*
X165952486Y-85119425D01*
X166110596Y-85119425D01*
X166110598Y-85119425D01*
X166263325Y-85078502D01*
X166400257Y-84999445D01*
X166512061Y-84887641D01*
X166591118Y-84750709D01*
X166632041Y-84597982D01*
X166632041Y-84439868D01*
X166591118Y-84287141D01*
X166512061Y-84150209D01*
X166400257Y-84038405D01*
X166263325Y-83959348D01*
X166110598Y-83918425D01*
X165952484Y-83918425D01*
X165799757Y-83959348D01*
X165662825Y-84038405D01*
X165551021Y-84150209D01*
X165471964Y-84287141D01*
X165431041Y-84439868D01*
X162522749Y-84439868D01*
X162577918Y-84344311D01*
X162618841Y-84191584D01*
X162618841Y-84033470D01*
X162577918Y-83880743D01*
X162498861Y-83743811D01*
X162387057Y-83632007D01*
X162250125Y-83552950D01*
X162097398Y-83512027D01*
X161939284Y-83512027D01*
X161786557Y-83552950D01*
X161649625Y-83632007D01*
X161537821Y-83743811D01*
X161458764Y-83880743D01*
X161417841Y-84033470D01*
X152242029Y-84033470D01*
X152214718Y-83931543D01*
X152135661Y-83794611D01*
X152023857Y-83682807D01*
X151886925Y-83603750D01*
X151734198Y-83562827D01*
X151576084Y-83562827D01*
X151423357Y-83603750D01*
X151286425Y-83682807D01*
X151174621Y-83794611D01*
X151095564Y-83931543D01*
X151054641Y-84084270D01*
X99036841Y-84084270D01*
X99036841Y-75854670D01*
X167412241Y-75854670D01*
X167412241Y-76012784D01*
X167453164Y-76165511D01*
X167532221Y-76302443D01*
X167644025Y-76414247D01*
X167780957Y-76493304D01*
X167933684Y-76534227D01*
X167933686Y-76534227D01*
X168091796Y-76534227D01*
X168091798Y-76534227D01*
X168244525Y-76493304D01*
X168381457Y-76414247D01*
X168493261Y-76302443D01*
X168572318Y-76165511D01*
X168613241Y-76012784D01*
X168613241Y-75854670D01*
X168572318Y-75701943D01*
X168493261Y-75565011D01*
X168381457Y-75453207D01*
X168244525Y-75374150D01*
X168091798Y-75333227D01*
X167933684Y-75333227D01*
X167780957Y-75374150D01*
X167644025Y-75453207D01*
X167532221Y-75565011D01*
X167453164Y-75701943D01*
X167412241Y-75854670D01*
X99036841Y-75854670D01*
X99036841Y-73960427D01*
X99055748Y-73902236D01*
X99105248Y-73866272D01*
X99135841Y-73861427D01*
X189848841Y-73861427D01*
X189907032Y-73880334D01*
G37*
%TD.AperFunction*%
%TD*%
%TA.AperFunction,Conductor*%
%TO.N,GND*%
G36*
X152866741Y-94319327D02*
G01*
X158099141Y-94319327D01*
X158127324Y-94291143D01*
X158118922Y-94322502D01*
X158118922Y-94322504D01*
X158118922Y-94480618D01*
X158149941Y-94596382D01*
X158149942Y-97011727D01*
X160915841Y-97011727D01*
X160915841Y-102831027D01*
X160842341Y-102904527D01*
X155914741Y-102904527D01*
X154644741Y-101634527D01*
X147565741Y-101634527D01*
X147565830Y-100196271D01*
X147689557Y-100267704D01*
X147842284Y-100308627D01*
X147842286Y-100308627D01*
X148000396Y-100308627D01*
X148000398Y-100308627D01*
X148153125Y-100267704D01*
X148290057Y-100188647D01*
X148401861Y-100076843D01*
X148480918Y-99939911D01*
X148521841Y-99787184D01*
X148521841Y-99629070D01*
X148480918Y-99476343D01*
X148480914Y-99476336D01*
X148401865Y-99339417D01*
X148401859Y-99339409D01*
X148290053Y-99227603D01*
X148285995Y-99224489D01*
X148244795Y-99168059D01*
X148240645Y-99098313D01*
X148274861Y-99037394D01*
X148299485Y-99018732D01*
X148340857Y-98994847D01*
X148452661Y-98883043D01*
X148531718Y-98746111D01*
X148572641Y-98593384D01*
X148572641Y-98435270D01*
X148531718Y-98282543D01*
X148531714Y-98282536D01*
X148452665Y-98145617D01*
X148452659Y-98145609D01*
X148340858Y-98033808D01*
X148340850Y-98033802D01*
X148203931Y-97954753D01*
X148203927Y-97954751D01*
X148203925Y-97954750D01*
X148051198Y-97913827D01*
X147893084Y-97913827D01*
X147740357Y-97954750D01*
X147740350Y-97954753D01*
X147603431Y-98033802D01*
X147603427Y-98033805D01*
X147565963Y-98071268D01*
X147566094Y-95984699D01*
X147644073Y-96029720D01*
X147796800Y-96070643D01*
X147796802Y-96070643D01*
X147954912Y-96070643D01*
X147954914Y-96070643D01*
X148107641Y-96029720D01*
X148244573Y-95950663D01*
X148356377Y-95838859D01*
X148435434Y-95701927D01*
X148476357Y-95549200D01*
X148476357Y-95391086D01*
X148435434Y-95238359D01*
X148361611Y-95110492D01*
X148356381Y-95101433D01*
X148356375Y-95101425D01*
X148244574Y-94989624D01*
X148244566Y-94989618D01*
X148107647Y-94910569D01*
X148107643Y-94910567D01*
X148107641Y-94910566D01*
X147954914Y-94869643D01*
X147796800Y-94869643D01*
X147644073Y-94910566D01*
X147644072Y-94910566D01*
X147566158Y-94955549D01*
X147566305Y-92597994D01*
X147636502Y-92719579D01*
X147636506Y-92719584D01*
X147636507Y-92719586D01*
X147748311Y-92831390D01*
X147748313Y-92831391D01*
X147748317Y-92831394D01*
X147885236Y-92910443D01*
X147885243Y-92910447D01*
X148037970Y-92951370D01*
X148037972Y-92951370D01*
X148196082Y-92951370D01*
X148196084Y-92951370D01*
X148348811Y-92910447D01*
X148485743Y-92831390D01*
X148597547Y-92719586D01*
X148676604Y-92582654D01*
X148717527Y-92429927D01*
X148717527Y-92271813D01*
X148676604Y-92119086D01*
X148648990Y-92071256D01*
X148597551Y-91982160D01*
X148597545Y-91982152D01*
X148485744Y-91870351D01*
X148485736Y-91870345D01*
X148348817Y-91791296D01*
X148348813Y-91791294D01*
X148348811Y-91791293D01*
X148196084Y-91750370D01*
X148153299Y-91750370D01*
X149463141Y-91118927D01*
X152866741Y-91118927D01*
X152866741Y-94319327D01*
G37*
%TD.AperFunction*%
%TD*%
M02*
