%TF.GenerationSoftware,KiCad,Pcbnew,9.0.6+1*%
%TF.CreationDate,2025-12-27T00:11:24+00:00*%
%TF.ProjectId,TFUNIPAYLOAD01,5446554e-4950-4415-994c-4f414430312e,rev?*%
%TF.SameCoordinates,PX66dd020PY81342c0*%
%TF.FileFunction,Soldermask,Bot*%
%TF.FilePolarity,Negative*%
%FSLAX46Y46*%
G04 Gerber Fmt 4.6, Leading zero omitted, Abs format (unit mm)*
G04 Created by KiCad (PCBNEW 9.0.6+1) date 2025-12-27 00:11:24*
%MOMM*%
%LPD*%
G01*
G04 APERTURE LIST*
G04 Aperture macros list*
%AMRoundRect*
0 Rectangle with rounded corners*
0 $1 Rounding radius*
0 $2 $3 $4 $5 $6 $7 $8 $9 X,Y pos of 4 corners*
0 Add a 4 corners polygon primitive as box body*
4,1,4,$2,$3,$4,$5,$6,$7,$8,$9,$2,$3,0*
0 Add four circle primitives for the rounded corners*
1,1,$1+$1,$2,$3*
1,1,$1+$1,$4,$5*
1,1,$1+$1,$6,$7*
1,1,$1+$1,$8,$9*
0 Add four rect primitives between the rounded corners*
20,1,$1+$1,$2,$3,$4,$5,0*
20,1,$1+$1,$4,$5,$6,$7,0*
20,1,$1+$1,$6,$7,$8,$9,0*
20,1,$1+$1,$8,$9,$2,$3,0*%
%AMFreePoly0*
4,1,43,0.551423,0.811284,0.578785,0.763892,0.580000,0.750000,0.580000,-0.750000,0.561284,-0.801423,0.513892,-0.828785,0.500000,-0.830000,0.000000,-0.830000,-0.011754,-0.825722,-0.065263,-0.825722,-0.085968,-0.822996,-0.212047,-0.789214,-0.231342,-0.781222,-0.344381,-0.715959,-0.360950,-0.703246,-0.453246,-0.610950,-0.465959,-0.594381,-0.531222,-0.481342,-0.539214,-0.462047,-0.572996,-0.335968,
-0.575722,-0.315263,-0.575722,-0.269197,-0.578785,-0.263892,-0.580000,-0.250000,-0.580000,0.250000,-0.575722,0.261753,-0.575722,0.315263,-0.572996,0.335968,-0.539214,0.462047,-0.531222,0.481342,-0.465959,0.594381,-0.453246,0.610950,-0.360950,0.703246,-0.344381,0.715959,-0.231342,0.781222,-0.212047,0.789214,-0.085968,0.822996,-0.065263,0.825722,-0.019197,0.825722,-0.013892,0.828785,
0.000000,0.830000,0.500000,0.830000,0.551423,0.811284,0.551423,0.811284,$1*%
%AMFreePoly1*
4,1,43,0.011754,0.825722,0.065263,0.825722,0.085968,0.822996,0.212047,0.789214,0.231342,0.781222,0.344381,0.715959,0.360950,0.703246,0.453246,0.610950,0.465959,0.594381,0.531222,0.481342,0.539214,0.462047,0.572996,0.335968,0.575722,0.315263,0.575722,0.269197,0.578785,0.263892,0.580000,0.250000,0.580000,-0.250000,0.575722,-0.261753,0.575722,-0.315263,0.572996,-0.335968,
0.539214,-0.462047,0.531222,-0.481342,0.465959,-0.594381,0.453246,-0.610950,0.360950,-0.703246,0.344381,-0.715959,0.231342,-0.781222,0.212047,-0.789214,0.085968,-0.822996,0.065263,-0.825722,0.019197,-0.825722,0.013892,-0.828785,0.000000,-0.830000,-0.500000,-0.830000,-0.551423,-0.811284,-0.578785,-0.763892,-0.580000,-0.750000,-0.580000,0.750000,-0.561284,0.801423,-0.513892,0.828785,
-0.500000,0.830000,0.000000,0.830000,0.011754,0.825722,0.011754,0.825722,$1*%
G04 Aperture macros list end*
%ADD10C,6.160000*%
%ADD11RoundRect,0.080000X0.850000X-0.850000X0.850000X0.850000X-0.850000X0.850000X-0.850000X-0.850000X0*%
%ADD12C,1.860000*%
%ADD13RoundRect,0.290000X0.290000X0.515000X-0.290000X0.515000X-0.290000X-0.515000X0.290000X-0.515000X0*%
%ADD14RoundRect,0.279629X0.500371X0.475371X-0.500371X0.475371X-0.500371X-0.475371X0.500371X-0.475371X0*%
%ADD15RoundRect,0.080000X0.275000X-0.750000X0.275000X0.750000X-0.275000X0.750000X-0.275000X-0.750000X0*%
%ADD16RoundRect,0.080000X-0.750000X-0.275000X0.750000X-0.275000X0.750000X0.275000X-0.750000X0.275000X0*%
%ADD17RoundRect,0.289024X-0.490976X0.303476X-0.490976X-0.303476X0.490976X-0.303476X0.490976X0.303476X0*%
%ADD18RoundRect,0.290000X-0.515000X0.290000X-0.515000X-0.290000X0.515000X-0.290000X0.515000X0.290000X0*%
%ADD19RoundRect,0.290000X-0.290000X-0.515000X0.290000X-0.515000X0.290000X0.515000X-0.290000X0.515000X0*%
%ADD20RoundRect,0.076667X0.153333X-0.338333X0.153333X0.338333X-0.153333X0.338333X-0.153333X-0.338333X0*%
%ADD21RoundRect,0.190000X0.190000X0.740000X-0.190000X0.740000X-0.190000X-0.740000X0.190000X-0.740000X0*%
%ADD22RoundRect,0.290000X0.290000X1.140000X-0.290000X1.140000X-0.290000X-1.140000X0.290000X-1.140000X0*%
%ADD23RoundRect,0.190000X0.190000X-0.627500X0.190000X0.627500X-0.190000X0.627500X-0.190000X-0.627500X0*%
%ADD24C,2.000000*%
%ADD25RoundRect,0.289024X-0.303476X-0.490976X0.303476X-0.490976X0.303476X0.490976X-0.303476X0.490976X0*%
%ADD26RoundRect,0.289024X0.303476X0.490976X-0.303476X0.490976X-0.303476X-0.490976X0.303476X-0.490976X0*%
%ADD27RoundRect,0.277500X0.277500X-0.327500X0.277500X0.327500X-0.277500X0.327500X-0.277500X-0.327500X0*%
%ADD28RoundRect,0.282000X0.423000X0.673000X-0.423000X0.673000X-0.423000X-0.673000X0.423000X-0.673000X0*%
%ADD29RoundRect,0.190000X0.240000X-0.190000X0.240000X0.190000X-0.240000X0.190000X-0.240000X-0.190000X0*%
%ADD30RoundRect,0.080000X-0.300000X-0.350000X0.300000X-0.350000X0.300000X0.350000X-0.300000X0.350000X0*%
%ADD31RoundRect,0.240000X0.315000X-0.240000X0.315000X0.240000X-0.315000X0.240000X-0.315000X-0.240000X0*%
%ADD32RoundRect,0.080000X0.300000X0.350000X-0.300000X0.350000X-0.300000X-0.350000X0.300000X-0.350000X0*%
%ADD33C,1.160000*%
%ADD34RoundRect,0.283333X0.496667X0.396667X-0.496667X0.396667X-0.496667X-0.396667X0.496667X-0.396667X0*%
%ADD35FreePoly0,270.000000*%
%ADD36FreePoly1,270.000000*%
%ADD37RoundRect,0.080000X-0.762000X-0.762000X0.762000X-0.762000X0.762000X0.762000X-0.762000X0.762000X0*%
%ADD38RoundRect,0.282000X-0.673000X0.423000X-0.673000X-0.423000X0.673000X-0.423000X0.673000X0.423000X0*%
%ADD39RoundRect,0.282000X-0.423000X-0.898000X0.423000X-0.898000X0.423000X0.898000X-0.423000X0.898000X0*%
%ADD40RoundRect,0.290000X0.515000X-0.290000X0.515000X0.290000X-0.515000X0.290000X-0.515000X-0.290000X0*%
%ADD41RoundRect,0.190000X0.190000X0.240000X-0.190000X0.240000X-0.190000X-0.240000X0.190000X-0.240000X0*%
%ADD42RoundRect,0.282000X-0.423000X-0.673000X0.423000X-0.673000X0.423000X0.673000X-0.423000X0.673000X0*%
%ADD43RoundRect,0.076667X-0.338333X-0.153333X0.338333X-0.153333X0.338333X0.153333X-0.338333X0.153333X0*%
G04 APERTURE END LIST*
D10*
%TO.C,M2*%
X71120000Y50800000D03*
%TD*%
%TO.C,M3*%
X10160000Y10160000D03*
%TD*%
%TO.C,M4*%
X71120000Y10160000D03*
%TD*%
%TO.C,M1*%
X10160000Y50800000D03*
%TD*%
D11*
%TO.C,J5*%
X23144000Y52648800D03*
D12*
X23144000Y50108800D03*
X25684000Y52648800D03*
X25684000Y50108800D03*
X28224000Y52648800D03*
X28224000Y50108800D03*
X30764000Y52648800D03*
X30764000Y50108800D03*
X33304000Y52648800D03*
X33304000Y50108800D03*
X35844000Y52648800D03*
X35844000Y50108800D03*
X38384000Y52648800D03*
X38384000Y50108800D03*
X40924000Y52648800D03*
X40924000Y50108800D03*
X43464000Y52648800D03*
X43464000Y50108800D03*
X46004000Y52648800D03*
X46004000Y50108800D03*
X48544000Y52648800D03*
X48544000Y50108800D03*
X51084000Y52648800D03*
X51084000Y50108800D03*
X53624000Y52648800D03*
X53624000Y50108800D03*
X56164000Y52648800D03*
X56164000Y50108800D03*
X58704000Y52648800D03*
X58704000Y50108800D03*
%TD*%
D13*
%TO.C,C9*%
X39177000Y40636000D03*
X37277000Y40636000D03*
%TD*%
D14*
%TO.C,C8*%
X39762400Y42922000D03*
X37062400Y42922000D03*
%TD*%
D15*
%TO.C,U2*%
X40601400Y26304000D03*
X39801400Y26304000D03*
X39001400Y26304000D03*
X38201400Y26304000D03*
X37401400Y26304000D03*
X36601400Y26304000D03*
X35801400Y26304000D03*
X35001400Y26304000D03*
X34201400Y26304000D03*
X33401400Y26304000D03*
X32601400Y26304000D03*
D16*
X30901400Y28004000D03*
X30901400Y28804000D03*
X30901400Y29604000D03*
X30901400Y30404000D03*
X30901400Y31204000D03*
X30901400Y32004000D03*
X30901400Y32804000D03*
X30901400Y33604000D03*
X30901400Y34404000D03*
X30901400Y35204000D03*
X30901400Y36004000D03*
D15*
X32601400Y37704000D03*
X33401400Y37704000D03*
X34201400Y37704000D03*
X35001400Y37704000D03*
X35801400Y37704000D03*
X36601400Y37704000D03*
X37401400Y37704000D03*
X38201400Y37704000D03*
X39001400Y37704000D03*
X39801400Y37704000D03*
X40601400Y37704000D03*
D16*
X42301400Y36004000D03*
X42301400Y35204000D03*
X42301400Y34404000D03*
X42301400Y33604000D03*
X42301400Y32804000D03*
X42301400Y32004000D03*
X42301400Y31204000D03*
X42301400Y30404000D03*
X42301400Y29604000D03*
X42301400Y28804000D03*
X42301400Y28004000D03*
%TD*%
D17*
%TO.C,R12*%
X28371800Y35507300D03*
X28371800Y33682300D03*
%TD*%
%TO.C,R5*%
X39928800Y23213700D03*
X39928800Y21388700D03*
%TD*%
D13*
%TO.C,C10*%
X37246600Y23876000D03*
X35346600Y23876000D03*
%TD*%
D18*
%TO.C,C11*%
X45034200Y32954000D03*
X45034200Y31054000D03*
%TD*%
%TO.C,C12*%
X27109399Y31832400D03*
X27109399Y29932400D03*
%TD*%
D19*
%TO.C,C2*%
X46649600Y19354800D03*
X48549600Y19354800D03*
%TD*%
D17*
%TO.C,R13*%
X26339800Y35507300D03*
X26339800Y33682300D03*
%TD*%
D20*
%TO.C,U1*%
X105793100Y38553800D03*
X105293100Y38553800D03*
X104793100Y38553800D03*
X104293100Y38553800D03*
X104293100Y40033800D03*
X104793100Y40033800D03*
X105293100Y40033800D03*
X105793100Y40033800D03*
%TD*%
D19*
%TO.C,C6*%
X91186541Y20149273D03*
X93086541Y20149273D03*
%TD*%
D21*
%TO.C,J1*%
X64161200Y10689200D03*
X62911200Y10689200D03*
X61661200Y10689200D03*
X60411200Y10689200D03*
X59161200Y10689200D03*
X57911200Y10689200D03*
D22*
X66011200Y7489200D03*
X56061200Y7489200D03*
%TD*%
D23*
%TO.C,Q2*%
X13675400Y41328100D03*
X11775400Y41328100D03*
X12725400Y43203100D03*
%TD*%
D19*
%TO.C,C13*%
X91186541Y26169273D03*
X93086541Y26169273D03*
%TD*%
D24*
%TO.C,FID3*%
X-2153459Y71509673D03*
%TD*%
D25*
%TO.C,R10*%
X86794041Y23009273D03*
X88619041Y23009273D03*
%TD*%
D18*
%TO.C,C3*%
X30734000Y20685800D03*
X30734000Y18785800D03*
%TD*%
D26*
%TO.C,R16*%
X17549500Y31724600D03*
X15724500Y31724600D03*
%TD*%
D25*
%TO.C,R22*%
X86794041Y28909273D03*
X88619041Y28909273D03*
%TD*%
D27*
%TO.C,L1*%
X65760600Y20918200D03*
X65760600Y22668200D03*
%TD*%
D19*
%TO.C,C7*%
X91186541Y23159273D03*
X93086541Y23159273D03*
%TD*%
D21*
%TO.C,J2*%
X25406200Y10638400D03*
X24156200Y10638400D03*
X22906200Y10638400D03*
X21656200Y10638400D03*
X20406200Y10638400D03*
X19156200Y10638400D03*
X17906200Y10638400D03*
X16656200Y10638400D03*
D22*
X27256200Y7438400D03*
X14806200Y7438400D03*
%TD*%
D28*
%TO.C,D3*%
X9655000Y37211000D03*
X6855000Y37211000D03*
%TD*%
D26*
%TO.C,R7*%
X17549500Y36550600D03*
X15724500Y36550600D03*
%TD*%
%TO.C,R6*%
X9650100Y39420800D03*
X7825100Y39420800D03*
%TD*%
D17*
%TO.C,R21*%
X16459200Y14730100D03*
X16459200Y12905100D03*
%TD*%
D21*
%TO.C,J6*%
X51730600Y10714600D03*
X50480600Y10714600D03*
X49230600Y10714600D03*
X47980600Y10714600D03*
X46730600Y10714600D03*
X45480600Y10714600D03*
X44230600Y10714600D03*
D22*
X53580600Y7514600D03*
X42380600Y7514600D03*
%TD*%
D21*
%TO.C,J4*%
X36723800Y10562200D03*
X35473800Y10562200D03*
X34223800Y10562200D03*
X32973800Y10562200D03*
D22*
X38573800Y7362200D03*
X31123800Y7362200D03*
%TD*%
D29*
%TO.C,D1*%
X66141600Y15305000D03*
X66141600Y13905000D03*
%TD*%
D30*
%TO.C,SW2*%
X46125000Y41671200D03*
X49125000Y41671200D03*
X46125000Y43571200D03*
X49125000Y43571200D03*
%TD*%
D28*
%TO.C,D4*%
X9604200Y41630600D03*
X6804200Y41630600D03*
%TD*%
D31*
%TO.C,R28*%
X48107600Y12916400D03*
X48107600Y14566400D03*
%TD*%
D32*
%TO.C,SW1*%
X20245200Y23302000D03*
X17245200Y23302000D03*
X20245200Y21402000D03*
X17245200Y21402000D03*
%TD*%
D17*
%TO.C,R20*%
X18542000Y14730100D03*
X18542000Y12905100D03*
%TD*%
%TO.C,R4*%
X61874400Y15339700D03*
X61874400Y13514700D03*
%TD*%
%TO.C,R18*%
X24333200Y14755500D03*
X24333200Y12930500D03*
%TD*%
D26*
%TO.C,R15*%
X9827900Y34925000D03*
X8002900Y34925000D03*
%TD*%
D24*
%TO.C,FID5*%
X67360800Y82169000D03*
%TD*%
D33*
%TO.C,TP2*%
X31292800Y40284400D03*
%TD*%
D17*
%TO.C,R19*%
X21132800Y14730100D03*
X21132800Y12905100D03*
%TD*%
D33*
%TO.C,TP1*%
X29489400Y38404800D03*
%TD*%
D25*
%TO.C,R23*%
X86794041Y31859273D03*
X88619041Y31859273D03*
%TD*%
D34*
%TO.C,Y1*%
X35214800Y18915800D03*
X33014800Y18915800D03*
X33014800Y20615800D03*
X35214800Y20615800D03*
%TD*%
D35*
%TO.C,JP1*%
X59410600Y14696200D03*
D36*
X59410600Y13396200D03*
%TD*%
D19*
%TO.C,C15*%
X91186541Y32189273D03*
X93086541Y32189273D03*
%TD*%
%TO.C,C1*%
X65902800Y18719800D03*
X67802800Y18719800D03*
%TD*%
D23*
%TO.C,Q3*%
X13827800Y30837900D03*
X11927800Y30837900D03*
X12877800Y32712900D03*
%TD*%
D37*
%TO.C,J3*%
X47447200Y23012400D03*
X49987200Y23012400D03*
X47447200Y25552400D03*
X49987200Y25552400D03*
X47447200Y28092400D03*
X49987200Y28092400D03*
%TD*%
D38*
%TO.C,D5*%
X64211200Y52555600D03*
X64211200Y49755600D03*
%TD*%
D25*
%TO.C,R3*%
X46721959Y39525527D03*
X48546959Y39525527D03*
%TD*%
D31*
%TO.C,R25*%
X51155600Y12916400D03*
X51155600Y14566400D03*
%TD*%
D39*
%TO.C,L3*%
X110901541Y36159273D03*
X113051541Y36159273D03*
%TD*%
D31*
%TO.C,R27*%
X49606200Y12891000D03*
X49606200Y14541000D03*
%TD*%
%TO.C,R30*%
X44907200Y12891000D03*
X44907200Y14541000D03*
%TD*%
D40*
%TO.C,C4*%
X37439600Y18887400D03*
X37439600Y20787400D03*
%TD*%
D24*
%TO.C,FID4*%
X-8046259Y7069873D03*
%TD*%
D39*
%TO.C,L2*%
X104258800Y35585400D03*
X106408800Y35585400D03*
%TD*%
D25*
%TO.C,R2*%
X17832700Y25476200D03*
X19657700Y25476200D03*
%TD*%
D26*
%TO.C,R8*%
X10132700Y44627800D03*
X8307700Y44627800D03*
%TD*%
D41*
%TO.C,D2*%
X66051200Y16789400D03*
X67451200Y16789400D03*
%TD*%
D23*
%TO.C,Q1*%
X13573800Y36197300D03*
X11673800Y36197300D03*
X12623800Y38072300D03*
%TD*%
D25*
%TO.C,R26*%
X28729300Y46710600D03*
X30554300Y46710600D03*
%TD*%
D19*
%TO.C,C14*%
X91186541Y29179273D03*
X93086541Y29179273D03*
%TD*%
D17*
%TO.C,R17*%
X26263600Y14730100D03*
X26263600Y12905100D03*
%TD*%
D31*
%TO.C,R29*%
X46456600Y12992600D03*
X46456600Y14642600D03*
%TD*%
D25*
%TO.C,R24*%
X86794041Y34809273D03*
X88619041Y34809273D03*
%TD*%
%TO.C,R11*%
X86794041Y25959273D03*
X88619041Y25959273D03*
%TD*%
D28*
%TO.C,D6*%
X9655000Y32512000D03*
X6855000Y32512000D03*
%TD*%
D42*
%TO.C,D7*%
X89608200Y40563800D03*
X92408200Y40563800D03*
%TD*%
D43*
%TO.C,U3*%
X109396541Y39784273D03*
X109396541Y40284273D03*
X109396541Y40784273D03*
X109396541Y41284273D03*
X110876541Y41284273D03*
X110876541Y40784273D03*
X110876541Y40284273D03*
X110876541Y39784273D03*
%TD*%
D17*
%TO.C,R14*%
X64287400Y47800900D03*
X64287400Y45975900D03*
%TD*%
D19*
%TO.C,C5*%
X91186541Y17139273D03*
X93086541Y17139273D03*
%TD*%
D26*
%TO.C,R9*%
X17549500Y41630600D03*
X15724500Y41630600D03*
%TD*%
D17*
%TO.C,R1*%
X63906400Y15339700D03*
X63906400Y13514700D03*
%TD*%
M02*
